<?xml version="1.0" standalone="no"?>
<!DOCTYPE svg PUBLIC "-//W3C//DTD SVG 1.1//EN" "http://www.w3.org/Graphics/SVG/1.1/DTD/svg11.dtd" >
<svg>
<metadata>
Created by FontForge 20090622 at Wed Nov  1 21:02:16 2017
 By deploy user
Copyright (c) 2015, Cadson Demak (info@cadsondemak.com)
</metadata>
<defs>
<font id="Trirong-BoldItalic" horiz-adv-x="0" >
  <font-face 
    font-family="Trirong"
    font-weight="700"
    font-style="italic"
    font-stretch="normal"
    units-per-em="1000"
    panose-1="0 0 8 0 0 0 0 0 0 0"
    ascent="750"
    descent="-250"
    x-height="498"
    cap-height="700"
    bbox="-563 -496 1462 1167"
    underline-thickness="50"
    underline-position="-50"
    slope="-12"
    unicode-range="U+000D-U+FB02"
  />
<missing-glyph horiz-adv-x="576" 
d="M40 714h403v-714h-403v714zM413 31v652h-343v-652h343z" />
    <glyph glyph-name="fi" unicode="fi" horiz-adv-x="765" 
d="M-143.5 -155.5q-36.5 23.5 -36.5 67.5q0 13 3 28q3 18 18.5 33.5t35.5 15.5q19 0 28 -9t9 -23q0 -7 -6 -23q-7 -12 -7 -25q0 -35 54 -35q42 0 69.5 31.5t37.5 82.5l94 462h-90l10 48h90l9 44q19 92 101.5 136.5t207.5 44.5q102 0 180.5 -19t78.5 -73q0 -9 -1 -14
q-8 -33 -32.5 -54t-57.5 -21q-28 0 -44.5 15t-16.5 41q0 12 2 19q4 16 9 25q-15 12 -46 18t-65 6q-62 0 -109 -27.5t-58 -82.5l-12 -58h331l81 10l-102 -508l-150 -10l94 460h-264l-91 -448q-7 -32 -20 -62q-28 -59 -84.5 -89t-133.5 -30q-80 0 -116.5 23.5z" />
    <glyph glyph-name="fl" unicode="fl" horiz-adv-x="746" 
d="M743 713l-145 -713l-149 -10l128 624q2 22 -30 39t-84 17q-57 0 -93 -31.5t-46 -82.5l-12 -58h141l-10 -48h-141l-91 -448q-18 -90 -80 -135.5t-158 -45.5q-80 0 -116.5 23.5t-36.5 67.5q0 13 3 28q3 18 18.5 33.5t35.5 15.5q19 0 28 -9t9 -23q0 -7 -6 -23q-7 -12 -7 -25
q0 -35 54 -35q42 0 69.5 31.5t37.5 82.5l94 462h-90l10 48h90l9 44q18 90 79.5 135.5t158.5 45.5q125 0 171 -33z" />
    <glyph glyph-name="ru_lakkhangyaothai" unicode="&#xe24;&#xe45;" horiz-adv-x="904" 
d="M847 532.5q43 -31.5 43 -94.5q0 -18 -5 -46l-118 -580h-146l118 583q6 29 6 52q0 33 -15 50.5t-50 17.5q-31 0 -62 -24.5t-49 -63.5q2 -25 -4 -50l-115 -565h-146l120 589q3 14 3 25q0 37 -24 60t-70 23q-44 0 -81.5 -19t-65.5 -54q30 -9 58.5 -30t47.5 -45l-2 -10
q-45 -25 -66 -55t-31 -81l-8 -39q32 0 54 -18.5t22 -51.5q0 -5 -2 -19q-10 -47 -44 -72t-87 -25q-107 0 -107 84q0 10 4 34l22 108q8 41 37.5 79t79.5 61q-32 32 -96 53l3 12q45 63 120 103t167 40q68 0 119 -20.5t74 -60.5q31 39 75 60t98 21q80 0 123 -31.5zM193.5 131
q-10.5 10 -27.5 10q-20 0 -35.5 -14t-21.5 -41q-2 -12 -2 -17q0 -19 10.5 -29.5t26.5 -10.5q23 0 41.5 19.5t18.5 53.5q0 19 -10.5 29z" />
    <glyph glyph-name="lu_lakkhangyaothai" unicode="&#xe26;&#xe45;" horiz-adv-x="938" 
d="M880 532.5q43 -31.5 43 -94.5q0 -18 -5 -46l-118 -580h-146l118 583q7 33 7 52q0 68 -65 68q-31 0 -61.5 -24t-48.5 -62q2 -25 -4 -52l-116 -565h-145l120 589q2 8 2 24q0 38 -23.5 61t-69.5 23q-43 0 -80 -19t-66 -54q31 -9 60.5 -30t47.5 -45l-2 -10q-38 -24 -53 -52.5
t-27 -83.5l-22 -107q-10 -55 -47.5 -86.5t-106.5 -31.5q-47 0 -70.5 18.5t-23.5 53.5t17.5 61.5t45 40.5t54.5 14l7 38q11 49 31.5 83.5t69.5 56.5q-33 32 -99 53l3 12q46 63 120.5 103t165.5 40q67 0 118 -20t75 -59q31 38 74.5 58.5t97.5 20.5q79 0 122 -31.5zM134 103
q0 19 -10 28.5t-27 9.5q-20 0 -36 -14t-22 -41q-2 -12 -2 -17q0 -19 10.5 -29.5t27.5 -10.5q20 0 35.5 15t21.5 42q2 12 2 17z" />
    <glyph glyph-name=".notdef" horiz-adv-x="576" 
d="M40 714h403v-714h-403v714zM413 31v652h-343v-652h343z" />
    <glyph glyph-name=".null" horiz-adv-x="487" 
 />
    <glyph glyph-name="nonmarkingreturn" unicode="&#xd;" horiz-adv-x="252" 
 />
    <glyph glyph-name="space" unicode=" " horiz-adv-x="252" 
 />
    <glyph glyph-name="A" unicode="A" horiz-adv-x="746" 
d="M696 18l-3 -18h-301l4 20q45 15 81 21l-18 137h-263l-76 -139q29 -4 74 -23l-3 -16h-232l4 21q23 7 45.5 13t34.5 8l372 662h108l103 -664q31 -7 70 -22zM452 228l-45 334l-183 -334h228z" />
    <glyph glyph-name="Aacute" unicode="&#xc1;" horiz-adv-x="746" 
d="M412 786l-17 35l143 126q35 35 68 35q20 0 29.5 -10t9.5 -24q0 -20 -15 -36t-46 -33zM696 18l-3 -18h-301l4 20q45 15 81 21l-18 137h-263l-76 -139q29 -4 74 -23l-3 -16h-232l4 21q23 7 45.5 13t34.5 8l372 662h108l103 -664q31 -7 70 -22zM452 228l-45 334l-183 -334
h228z" />
    <glyph glyph-name="Abreve" unicode="&#x102;" horiz-adv-x="746" 
d="M374 814.5q-38 33.5 -35 100.5h81q-1 -6 -1 -16q0 -39 21 -52.5t55 -13.5q37 0 65 16.5t43 65.5h82q-24 -67 -76 -100.5t-125 -33.5q-72 0 -110 33.5zM696 18l-3 -18h-301l4 20q45 15 81 21l-18 137h-263l-76 -139q29 -4 74 -23l-3 -16h-232l4 21q23 7 45.5 13t34.5 8
l372 662h108l103 -664q31 -7 70 -22zM452 228l-45 334l-183 -334h228z" />
    <glyph glyph-name="uni1EAE" unicode="&#x1eae;" horiz-adv-x="746" 
d="M499 921l-18 31l91 88q46 44 77 44q18 0 27.5 -9.5t9.5 -22.5q0 -20 -20 -40t-54 -37zM373.5 814.5q-38.5 33.5 -36.5 100.5h83q-1 -6 -1 -17q0 -39 21 -52t55 -13q37 0 64.5 16.5t42.5 65.5h82q-24 -67 -76 -100.5t-124 -33.5t-110.5 33.5zM696 18l-3 -18h-301l4 20
q45 15 81 21l-18 137h-263l-76 -139q29 -4 74 -23l-3 -16h-232l4 21q23 7 45.5 13t34.5 8l372 662h108l103 -664q31 -7 70 -22zM452 228l-45 334l-183 -334h228z" />
    <glyph glyph-name="uni1EB6" unicode="&#x1eb6;" horiz-adv-x="746" 
d="M373.5 814.5q-38.5 33.5 -35.5 100.5h81q-1 -5 -1 -15q0 -40 21 -53.5t55 -13.5q38 0 65.5 16.5t42.5 65.5h82q-23 -67 -75.5 -100.5t-124.5 -33.5t-110.5 33.5zM696 18l-3 -18h-301l4 20q45 15 81 21l-18 137h-263l-76 -139q29 -4 74 -23l-3 -16h-232l4 21q23 7 45.5 13
t34.5 8l372 662h108l103 -664q31 -7 70 -22zM452 228l-45 334l-183 -334h228zM345.5 -67q12.5 -13 12.5 -35q0 -9 -1 -14q-6 -27 -26 -44.5t-46 -17.5q-22 0 -35 12.5t-13 33.5q0 4 2 16q5 27 24.5 44.5t46.5 17.5q23 0 35.5 -13z" />
    <glyph glyph-name="uni1EB0" unicode="&#x1eb0;" horiz-adv-x="746" 
d="M387 1035q0 18 14 33.5t38 15.5q32 0 62 -44l53 -88l-29 -31l-92 54q-46 28 -46 60zM373 814.5q-39 33.5 -36 100.5h83q-1 -6 -1 -17q0 -39 21 -52t55 -13q37 0 64.5 16.5t42.5 65.5h82q-24 -67 -76 -100.5t-124 -33.5t-111 33.5zM696 18l-3 -18h-301l4 20q45 15 81 21
l-18 137h-263l-76 -139q29 -4 74 -23l-3 -16h-232l4 21q23 7 45.5 13t34.5 8l372 662h108l103 -664q31 -7 70 -22zM452 228l-45 334l-183 -334h228z" />
    <glyph glyph-name="uni1EB2" unicode="&#x1eb2;" horiz-adv-x="746" 
d="M569.5 1022q16.5 11 21.5 34q1 3 1 8q0 14 -11 23t-33 9q-28 0 -55 -12l2 36q36 15 75 15q37 0 61.5 -15t24.5 -47q0 -6 -2 -18q-13 -68 -94 -75l-18 -48h-53l13 79h31q20 0 36.5 11zM373.5 814.5q-38.5 33.5 -36.5 100.5h83q-1 -6 -1 -17q0 -39 21 -52t55 -13
q37 0 64.5 16.5t42.5 65.5h82q-24 -67 -76 -100.5t-124 -33.5t-110.5 33.5zM696 18l-3 -18h-301l4 20q45 15 81 21l-18 137h-263l-76 -139q29 -4 74 -23l-3 -16h-232l4 21q23 7 45.5 13t34.5 8l372 662h108l103 -664q31 -7 70 -22zM452 228l-45 334l-183 -334h228z" />
    <glyph glyph-name="uni1EB4" unicode="&#x1eb4;" horiz-adv-x="746" 
d="M420.5 1016q-19.5 -14 -28.5 -38h-50q19 57 54 85.5t83 28.5q26 0 43 -8t37 -23q13 -10 22 -15t20 -5q22 0 43.5 12t34.5 42h49q-17 -55 -51.5 -85.5t-86.5 -30.5q-20 0 -36.5 7.5t-35.5 20.5q-17 12 -29.5 17.5t-25.5 5.5q-23 0 -42.5 -14zM373.5 814.5
q-38.5 33.5 -36.5 100.5h83q-1 -6 -1 -17q0 -39 21 -52t55 -13q37 0 64.5 16.5t42.5 65.5h82q-24 -67 -76 -100.5t-124 -33.5t-110.5 33.5zM626 40q31 -7 70 -22l-3 -18h-301l4 20q45 15 81 21l-18 137h-263l-76 -139q29 -4 74 -23l-3 -16h-232l4 21q23 7 45.5 13t34.5 8
l372 662h108zM452 228l-45 334l-183 -334h228z" />
    <glyph glyph-name="uni01CD" unicode="&#x1cd;" horiz-adv-x="746" 
d="M399.5 859q-39.5 47 -67.5 70l69 45q27 -26 55.5 -64t38.5 -64h4q23 26 68 64.5t81 63.5l50 -45q-38 -23 -97 -70t-81 -73h-69q-12 26 -51.5 73zM626 40q31 -7 70 -22l-3 -18h-301l4 20q45 15 81 21l-18 137h-263l-76 -139q29 -4 74 -23l-3 -16h-232l4 21q23 7 45.5 13
t34.5 8l372 662h108zM452 228l-45 334l-183 -334h228z" />
    <glyph glyph-name="Acircumflex" unicode="&#xc2;" horiz-adv-x="746" 
d="M445.5 849q-43.5 -38 -82.5 -66l-51 46q37 21 95.5 68.5t80.5 74.5h69q13 -27 53 -74.5t67 -68.5l-69 -46q-26 26 -55 64.5t-41 64.5h-4q-19 -25 -62.5 -63zM696 18l-3 -18h-301l4 20q45 15 81 21l-18 137h-263l-76 -139q29 -4 74 -23l-3 -16h-232l4 21q23 7 45.5 13
t34.5 8l372 662h108l103 -664q31 -7 70 -22zM452 228l-45 334l-183 -334h228z" />
    <glyph glyph-name="uni1EA4" unicode="&#x1ea4;" horiz-adv-x="746" 
d="M830.5 1075.5q9.5 -9.5 9.5 -22.5q0 -20 -20 -40t-55 -37l-113 -54l-17 31l89 88q46 44 79 44q18 0 27.5 -9.5zM445 848.5q-44 -38.5 -81 -65.5l-51 46q37 21 96 68.5t81 74.5h69q13 -27 52.5 -74.5t66.5 -68.5l-69 -46q-25 26 -54 64.5t-41 64.5h-4q-21 -25 -65 -63.5z
M626 40q31 -7 70 -22l-3 -18h-301l4 20q45 15 81 21l-18 137h-263l-76 -139q29 -4 74 -23l-3 -16h-232l4 21q23 7 45.5 13t34.5 8l372 662h108zM452 228l-45 334l-183 -334h228z" />
    <glyph glyph-name="uni1EAC" unicode="&#x1eac;" horiz-adv-x="746" 
d="M446.5 848q-43.5 -38 -82.5 -66l-51 46q37 21 95.5 68.5t80.5 74.5h69q13 -27 53 -74.5t67 -68.5l-69 -46q-26 26 -55 64.5t-41 64.5h-4q-19 -25 -62.5 -63zM696 18l-3 -18h-301l4 20q45 15 81 21l-18 137h-263l-76 -139q29 -4 74 -23l-3 -16h-232l4 21q23 7 45.5 13
t34.5 8l372 662h108l103 -664q31 -7 70 -22zM452 228l-45 334l-183 -334h228zM352 -67.5q13 -13.5 13 -35.5q0 -8 -1 -13q-6 -27 -26 -44.5t-46 -17.5q-23 0 -35.5 13t-12.5 35q0 31 21 53.5t51 22.5q23 0 36 -13.5z" />
    <glyph glyph-name="uni1EA6" unicode="&#x1ea6;" horiz-adv-x="746" 
d="M240 1036q0 6 1 9q2 16 16.5 28t34.5 12q33 0 61 -44l54 -88l-29 -31l-92 54q-46 27 -46 60zM313 829q37 21 96 68.5t81 74.5h69q13 -27 52.5 -74.5t66.5 -68.5l-69 -46q-25 26 -54 64.5t-41 64.5h-4q-21 -25 -65 -63.5t-81 -65.5zM696 18l-3 -18h-301l4 20q45 15 81 21
l-18 137h-263l-76 -139q29 -4 74 -23l-3 -16h-232l4 21q23 7 45.5 13t34.5 8l372 662h108l103 -664q31 -7 70 -22zM452 228l-45 334l-183 -334h228z" />
    <glyph glyph-name="uni1EA8" unicode="&#x1ea8;" horiz-adv-x="746" 
d="M774 1121q25 -15 25 -47q0 -6 -2 -18q-13 -68 -95 -75l-18 -48h-52l12 79h32q20 0 36 11t21 34q1 3 1 8q0 14 -11 23t-33 9q-28 0 -55 -12l2 36q36 15 75 15q37 0 62 -15zM445 848.5q-44 -38.5 -81 -65.5l-51 46q37 21 96 68.5t81 74.5h69q13 -27 52.5 -74.5t66.5 -68.5
l-69 -46q-25 26 -54 64.5t-41 64.5h-4q-21 -25 -65 -63.5zM626 40q31 -7 70 -22l-3 -18h-301l4 20q45 15 81 21l-18 137h-263l-76 -139q29 -4 74 -23l-3 -16h-232l4 21q23 7 45.5 13t34.5 8l372 662h108zM452 228l-45 334l-183 -334h228z" />
    <glyph glyph-name="uni1EAA" unicode="&#x1eaa;" horiz-adv-x="746" 
d="M743 1121q-17 -55 -52 -85.5t-87 -30.5q-19 0 -35.5 7.5t-35.5 20.5q-17 12 -29.5 17.5t-25.5 5.5q-23 0 -42.5 -14t-28.5 -38h-50q19 57 54 85.5t83 28.5q25 0 41.5 -8t37.5 -23q13 -10 22.5 -15t20.5 -5q21 0 43 12t35 42h49zM445 848.5q-44 -38.5 -81 -65.5l-51 46
q37 21 96 68.5t81 74.5h69q13 -27 52.5 -74.5t66.5 -68.5l-69 -46q-25 26 -54 64.5t-41 64.5h-4q-21 -25 -65 -63.5zM626 40q31 -7 70 -22l-3 -18h-301l4 20q45 15 81 21l-18 137h-263l-76 -139q29 -4 74 -23l-3 -16h-232l4 21q23 7 45.5 13t34.5 8l372 662h108zM452 228
l-45 334l-183 -334h228z" />
    <glyph glyph-name="Adieresis" unicode="&#xc4;" horiz-adv-x="746" 
d="M320.5 797.5q-12.5 12.5 -12.5 33.5q0 4 2 16q5 27 24.5 44.5t45.5 17.5q23 0 35.5 -13t12.5 -35q0 -9 -1 -14q-6 -27 -26 -44.5t-47 -17.5q-21 0 -33.5 12.5zM549.5 797.5q-12.5 12.5 -12.5 33.5q0 32 21 55t52 23q23 0 36 -13t13 -34q0 -32 -22 -54.5t-53 -22.5
q-22 0 -34.5 12.5zM696 18l-3 -18h-301l4 20q45 15 81 21l-18 137h-263l-76 -139q29 -4 74 -23l-3 -16h-232l4 21q23 7 45.5 13t34.5 8l372 662h108l103 -664q31 -7 70 -22zM452 228l-45 334l-183 -334h228z" />
    <glyph glyph-name="uni1EA0" unicode="&#x1ea0;" horiz-adv-x="746" 
d="M696 18l-3 -18h-301l4 20q45 15 81 21l-18 137h-263l-76 -139q29 -4 74 -23l-3 -16h-232l4 21q23 7 45.5 13t34.5 8l372 662h108l103 -664q31 -7 70 -22zM452 228l-45 334l-183 -334h228zM350.5 -67.5q12.5 -13.5 12.5 -35.5q0 -8 -1 -13q-6 -27 -26 -44.5t-46 -17.5
q-22 0 -35 12.5t-13 33.5q0 4 2 16q5 27 24.5 44.5t46.5 17.5q23 0 35.5 -13.5z" />
    <glyph glyph-name="Agrave" unicode="&#xc0;" horiz-adv-x="746" 
d="M390 932l1 8q3 16 18 29t38 13q21 0 34.5 -11.5t19.5 -22.5l92 -127l-31 -35l-135 93q-37 26 -37 53zM696 18l-3 -18h-301l4 20q45 15 81 21l-18 137h-263l-76 -139q29 -4 74 -23l-3 -16h-232l4 21q23 7 45.5 13t34.5 8l372 662h108l103 -664q31 -7 70 -22zM452 228
l-45 334l-183 -334h228z" />
    <glyph glyph-name="uni1EA2" unicode="&#x1ea2;" horiz-adv-x="746" 
d="M561 900q19 13 24 39q1 3 1 9q0 18 -13 29t-38 11q-33 0 -62 -16l1 39q17 8 40.5 13t45.5 5q43 0 71 -17.5t28 -53.5q0 -13 -2 -20q-14 -77 -108 -86l-24 -69h-60l18 104h36q23 0 42 13zM696 18l-3 -18h-301l4 20q45 15 81 21l-18 137h-263l-76 -139q29 -4 74 -23l-3 -16
h-232l4 21q23 7 45.5 13t34.5 8l372 662h108l103 -664q31 -7 70 -22zM452 228l-45 334l-183 -334h228z" />
    <glyph glyph-name="Amacron" unicode="&#x100;" horiz-adv-x="746" 
d="M676 785h-374l10 48h373zM696 18l-3 -18h-301l4 20q45 15 81 21l-18 137h-263l-76 -139q29 -4 74 -23l-3 -16h-232l4 21q23 7 45.5 13t34.5 8l372 662h108l103 -664q31 -7 70 -22zM452 228l-45 334l-183 -334h228z" />
    <glyph glyph-name="Aogonek" unicode="&#x104;" horiz-adv-x="746" 
d="M735 -117l-13 -63q-21 -12 -51 -19t-61 -7q-53 0 -81.5 19.5t-28.5 52.5q0 6 2 18q6 35 38 69t75 47h-223l4 20q45 15 81 21l-18 137h-263l-76 -139q29 -4 74 -23l-3 -16h-232l4 21q23 7 45.5 13t34.5 8l372 662h108l103 -664q31 -7 70 -22l-3 -18h-8q-26 -16 -47 -44.5
t-21 -52.5q0 -19 13 -30t36 -11q30 0 69 21zM452 228l-45 334l-183 -334h228z" />
    <glyph glyph-name="Aring" unicode="&#xc5;" horiz-adv-x="746" 
d="M413 766q-23 21 -23 57q0 16 2 24q10 45 45 73.5t81 28.5q40 0 62.5 -21t22.5 -57q0 -16 -2 -24q-10 -46 -44.5 -74t-80.5 -28q-40 0 -63 21zM452 802.5q13 -12.5 33 -12.5q28 0 48.5 19.5t20.5 49.5q0 20 -12.5 32t-33.5 12q-27 0 -48 -19t-21 -49q0 -20 13 -32.5z
M696 18l-3 -18h-301l4 20q45 15 81 21l-18 137h-263l-76 -139q29 -4 74 -23l-3 -16h-232l4 21q23 7 45.5 13t34.5 8l372 662h108l103 -664q31 -7 70 -22zM452 228l-45 334l-183 -334h228z" />
    <glyph glyph-name="Aringacute" unicode="&#x1fa;" horiz-adv-x="746" 
d="M450 971l-17 35l143 126q9 10 28 22.5t40 12.5q19 0 28.5 -10t9.5 -24q0 -20 -15 -36t-45 -33zM413 765q-23 21 -23 57q0 16 2 24q10 45 45 73.5t81 28.5q40 0 62.5 -21t22.5 -57q0 -16 -2 -24q-10 -46 -44.5 -74t-80.5 -28q-40 0 -63 21zM452 801.5q13 -12.5 33 -12.5
q28 0 48.5 19.5t20.5 49.5q0 20 -12.5 32t-33.5 12q-27 0 -48 -19t-21 -49q0 -20 13 -32.5zM696 18l-3 -18h-301l4 20q45 15 81 21l-18 137h-263l-76 -139q29 -4 74 -23l-3 -16h-232l4 21q23 7 45.5 13t34.5 8l372 662h108l103 -664q31 -7 70 -22zM452 228l-45 334
l-183 -334h228z" />
    <glyph glyph-name="Atilde" unicode="&#xc3;" horiz-adv-x="746" 
d="M379.5 824.5q-17.5 -14.5 -25.5 -38.5h-64q19 58 55 87.5t86 29.5q26 0 45.5 -8t42.5 -23q17 -11 27.5 -16t21.5 -5q21 0 38.5 11.5t31.5 42.5h62q-17 -56 -52 -87.5t-88 -31.5q-20 0 -39 8t-48 23q-37 22 -54 22q-22 0 -39.5 -14.5zM626 40q31 -7 70 -22l-3 -18h-301
l4 20q45 15 81 21l-18 137h-263l-76 -139q29 -4 74 -23l-3 -16h-232l4 21q23 7 45.5 13t34.5 8l372 662h108zM452 228l-45 334l-183 -334h228z" />
    <glyph glyph-name="AE" unicode="&#xc6;" horiz-adv-x="993" 
d="M-38 18q39 13 79 23l484 626q-32 8 -47 15l4 18h552l-36 -177h-33q-5 14 -9 45.5t-4 56.5q0 11 2 25h-249l-54 -266h168q4 16 14.5 41.5t21.5 44.5h24l-45 -222h-24q-4 44 -2 86h-168l-58 -285h255q7 26 32 67.5t42 58.5h32l-52 -175h-550l3 18q47 15 88 21l28 139h-233
l-104 -139q38 -6 78 -23l-3 -16h-239zM470 228l75 367l-279 -367h204z" />
    <glyph glyph-name="AEacute" unicode="&#x1fc;" horiz-adv-x="993" 
d="M691 821l143 126q35 35 68 35q22 0 31.5 -13t6.5 -29q-4 -17 -18.5 -31.5t-41.5 -29.5l-172 -93zM-38 18q39 13 79 23l484 626q-32 8 -47 15l4 18h552l-36 -177h-33q-5 14 -9 45.5t-4 56.5q0 11 2 25h-249l-54 -266h168q4 16 14.5 41.5t21.5 44.5h24l-45 -222h-24
q-4 44 -2 86h-168l-58 -285h255q7 26 32 67.5t42 58.5h32l-52 -175h-550l3 18q47 15 88 21l28 139h-233l-104 -139q38 -6 78 -23l-3 -16h-239zM470 228l75 367l-279 -367h204z" />
    <glyph glyph-name="B" unicode="B" horiz-adv-x="617" 
d="M-21 17q55 20 81 25l127 618q-32 6 -73 21l4 19h313q108 0 157 -30t49 -91q0 -17 -5 -42q-11 -56 -51.5 -101t-104.5 -63l-1 -6q62 -15 90.5 -52.5t28.5 -85.5q0 -13 -4 -35q-20 -97 -84 -145.5t-188 -48.5h-342zM344 392q52 0 86.5 36t48.5 100q5 23 5 47q0 39 -20 57
t-63 18h-65l-53 -258h61zM308 49q102 0 133 151q5 23 5 49q0 46 -23.5 70t-67.5 24h-83l-59 -294h95z" />
    <glyph glyph-name="C" unicode="C" horiz-adv-x="637" 
d="M118.5 55q-68.5 65 -68.5 186q0 51 12 109q34 169 139 264.5t265 95.5q81 0 132 -20t83 -59l-43 -146h-35q-3 21 -3 49q0 39 5 84q-40 40 -111 40q-101 0 -175 -82.5t-103 -225.5q-14 -70 -14 -121q0 -90 38.5 -138.5t114.5 -48.5q41 0 92.5 15t100.5 47l12 -42
q-45 -34 -107 -53t-130 -19q-136 0 -204.5 65z" />
    <glyph glyph-name="Cacute" unicode="&#x106;" horiz-adv-x="637" 
d="M423 821l143 126q35 35 68 35q20 0 29.5 -10t9.5 -24q0 -20 -15 -36t-46 -33l-172 -93zM118.5 55q-68.5 65 -68.5 186q0 51 12 109q34 169 139 264.5t265 95.5q81 0 132 -20t83 -59l-43 -146h-35q-3 21 -3 49q0 39 5 84q-40 40 -111 40q-101 0 -175 -82.5t-103 -225.5
q-14 -70 -14 -121q0 -90 38.5 -138.5t114.5 -48.5q41 0 92.5 15t100.5 47l12 -42q-45 -34 -107 -53t-130 -19q-136 0 -204.5 65z" />
    <glyph glyph-name="Ccaron" unicode="&#x10c;" horiz-adv-x="637" 
d="M419.5 859q-39.5 47 -67.5 70l69 45q27 -26 55.5 -64t38.5 -64h4q23 26 68 64.5t81 63.5l50 -45q-38 -23 -97 -70t-81 -73h-69q-12 26 -51.5 73zM118.5 55q-68.5 65 -68.5 186q0 51 12 109q34 169 139 264.5t265 95.5q81 0 132 -20t83 -59l-43 -146h-35q-3 21 -3 49
q0 39 5 84q-40 40 -111 40q-101 0 -175 -82.5t-103 -225.5q-14 -70 -14 -121q0 -90 38.5 -138.5t114.5 -48.5q41 0 92.5 15t100.5 47l12 -42q-45 -34 -107 -53t-130 -19q-136 0 -204.5 65z" />
    <glyph glyph-name="Ccedilla" unicode="&#xc7;" horiz-adv-x="637" 
d="M598 690q51 -20 83 -59l-43 -146h-35q-3 21 -3 49q0 39 5 84q-40 40 -111 40q-101 0 -175 -82.5t-103 -225.5q-14 -70 -14 -121q0 -90 38.5 -138.5t114.5 -48.5q41 0 92.5 15t100.5 47l12 -42q-43 -33 -102.5 -51.5t-124.5 -20.5l-38 -56q50 0 75 -19.5t25 -49.5
q0 -6 -2 -16q-10 -51 -55.5 -79t-105.5 -28q-28 0 -57 8.5t-46 22.5l31 39q12 -8 31.5 -13t39.5 -5q35 0 59 13t30 42q1 3 1 9q0 18 -16.5 26t-39.5 8q-9 0 -23 -2l-18 34l47 69q-110 12 -165.5 76t-55.5 172q0 51 12 109q34 169 139 264.5t265 95.5q81 0 132 -20z" />
    <glyph glyph-name="Ccircumflex" unicode="&#x108;" horiz-adv-x="637" 
d="M321 829q37 21 96 68.5t81 74.5h69q12 -26 52 -73.5t68 -69.5l-69 -46q-26 26 -55 64.5t-41 64.5h-4q-20 -25 -64 -63t-82 -66zM118.5 55q-68.5 65 -68.5 186q0 51 12 109q34 169 139 264.5t265 95.5q81 0 132 -20t83 -59l-43 -146h-35q-3 21 -3 49q0 39 5 84
q-40 40 -111 40q-101 0 -175 -82.5t-103 -225.5q-14 -70 -14 -121q0 -90 38.5 -138.5t114.5 -48.5q41 0 92.5 15t100.5 47l12 -42q-45 -34 -107 -53t-130 -19q-136 0 -204.5 65z" />
    <glyph glyph-name="Cdotaccent" unicode="&#x10a;" horiz-adv-x="637" 
d="M472.5 798q-12.5 13 -12.5 34q0 32 21 54.5t52 22.5q23 0 35.5 -13.5t12.5 -35.5q0 -8 -1 -13q-6 -27 -26 -44.5t-46 -17.5q-23 0 -35.5 13zM118.5 55q-68.5 65 -68.5 186q0 51 12 109q34 169 139 264.5t265 95.5q81 0 132 -20t83 -59l-43 -146h-35q-3 21 -3 49
q0 39 5 84q-40 40 -111 40q-101 0 -175 -82.5t-103 -225.5q-14 -70 -14 -121q0 -90 38.5 -138.5t114.5 -48.5q41 0 92.5 15t100.5 47l12 -42q-45 -34 -107 -53t-130 -19q-136 0 -204.5 65z" />
    <glyph glyph-name="D" unicode="D" horiz-adv-x="687" 
d="M-14 19q56 18 80 22l127 619q-23 5 -72 22l3 18h318q128 0 188.5 -57.5t60.5 -168.5q0 -54 -14 -124q-36 -173 -127 -261.5t-251 -88.5h-317zM307 49q84 0 135.5 78t81.5 223q18 93 18 151q0 149 -110 149h-92l-123 -601h90z" />
    <glyph glyph-name="Eth" unicode="&#xd0;" horiz-adv-x="687" 
d="M630.5 642.5q60.5 -57.5 60.5 -168.5q0 -54 -14 -124q-36 -173 -127 -261.5t-251 -88.5h-317l4 19q56 18 80 22l55 268h-63l11 49h62l62 302q-23 5 -72 22l3 18h318q128 0 188.5 -57.5zM542 501q0 149 -110 149h-92l-60 -292h138l-10 -49h-138l-53 -260h90q84 0 135.5 78
t81.5 223q18 93 18 151z" />
    <glyph glyph-name="Dcaron" unicode="&#x10e;" horiz-adv-x="687" 
d="M359 860q-39 47 -67 69l69 45q26 -26 54.5 -64.5t39.5 -63.5h4q22 26 66.5 64.5t81.5 63.5l50 -45q-38 -23 -97 -70t-80 -73h-69q-13 27 -52 74zM-14 19q56 18 80 22l127 619q-23 5 -72 22l3 18h318q128 0 188.5 -57.5t60.5 -168.5q0 -54 -14 -124q-36 -173 -127 -261.5
t-251 -88.5h-317zM307 49q84 0 135.5 78t81.5 223q18 93 18 151q0 149 -110 149h-92l-123 -601h90z" />
    <glyph glyph-name="Dcroat" unicode="&#x110;" horiz-adv-x="687" 
d="M630.5 642.5q60.5 -57.5 60.5 -168.5q0 -54 -14 -124q-36 -173 -127 -261.5t-251 -88.5h-317l4 19q56 18 80 22l55 268h-63l11 49h62l62 302q-23 5 -72 22l3 18h318q128 0 188.5 -57.5zM542 501q0 149 -110 149h-92l-60 -292h138l-10 -49h-138l-53 -260h90q84 0 135.5 78
t81.5 223q18 93 18 151z" />
    <glyph glyph-name="uni1E0C" unicode="&#x1e0c;" horiz-adv-x="687" 
d="M-14 19q56 18 80 22l127 619q-23 5 -72 22l3 18h318q128 0 188.5 -57.5t60.5 -168.5q0 -54 -14 -124q-36 -173 -127 -261.5t-251 -88.5h-317zM307 49q84 0 135.5 78t81.5 223q18 93 18 151q0 149 -110 149h-92l-123 -601h90zM222 -165.5q-13 12.5 -13 33.5q0 32 21.5 55
t51.5 23q23 0 35.5 -13t12.5 -35q0 -9 -1 -14q-6 -27 -26 -44.5t-46 -17.5q-22 0 -35 12.5z" />
    <glyph glyph-name="uni1E0E" unicode="&#x1e0e;" horiz-adv-x="687" 
d="M-14 19q56 18 80 22l127 619q-23 5 -72 22l3 18h318q128 0 188.5 -57.5t60.5 -168.5q0 -54 -14 -124q-36 -173 -127 -261.5t-251 -88.5h-317zM307 49q84 0 135.5 78t81.5 223q18 93 18 151q0 149 -110 149h-92l-123 -601h90zM88 -61h373l-10 -48h-374z" />
    <glyph glyph-name="E" unicode="E" horiz-adv-x="634" 
d="M675 700l-36 -177h-33q-5 14 -9 45.5t-4 56.5q0 11 2 25h-247l-56 -275h166q6 17 16.5 42t20.5 44h24l-45 -222h-24q-3 27 -3 56q0 23 1 30h-167l-56 -276h253q7 26 32.5 67.5t42.5 58.5h32l-53 -175h-550l3 18q43 15 88 22l126 620q-38 7 -78 22l3 18h551z" />
    <glyph glyph-name="Eacute" unicode="&#xc9;" horiz-adv-x="634" 
d="M383 786l-18 35l143 126q35 35 69 35q19 0 28.5 -10t9.5 -24q0 -20 -15 -36t-45 -33zM675 700l-36 -177h-33q-5 14 -9 45.5t-4 56.5q0 11 2 25h-247l-56 -275h166q6 17 16.5 42t20.5 44h24l-45 -222h-24q-3 27 -3 56q0 23 1 30h-167l-56 -276h253q7 26 32.5 67.5
t42.5 58.5h32l-53 -175h-550l3 18q43 15 88 22l126 620q-38 7 -78 22l3 18h551z" />
    <glyph glyph-name="Ebreve" unicode="&#x114;" horiz-adv-x="634" 
d="M362.5 815.5q-38.5 33.5 -35.5 100.5h82q-1 -6 -1 -17q0 -39 21 -52t55 -13q37 0 64.5 16.5t42.5 65.5h83q-24 -67 -76.5 -100.5t-124.5 -33.5t-110.5 33.5zM675 700l-36 -177h-33q-5 14 -9 45.5t-4 56.5q0 11 2 25h-247l-56 -275h166q6 17 16.5 42t20.5 44h24l-45 -222
h-24q-3 27 -3 56q0 23 1 30h-167l-56 -276h253q7 26 32.5 67.5t42.5 58.5h32l-53 -175h-550l3 18q43 15 88 22l126 620q-38 7 -78 22l3 18h551z" />
    <glyph glyph-name="Ecaron" unicode="&#x11a;" horiz-adv-x="634" 
d="M383.5 860q-39.5 47 -67.5 69l70 45q26 -26 54.5 -64.5t39.5 -63.5h4q22 26 66.5 64.5t81.5 63.5l50 -45q-38 -23 -97 -70t-80 -73h-69q-13 27 -52.5 74zM124 700h551l-36 -177h-33q-5 14 -9 45.5t-4 56.5q0 11 2 25h-247l-56 -275h166q6 17 16.5 42t20.5 44h24l-45 -222
h-24q-3 27 -3 56q0 23 1 30h-167l-56 -276h253q7 26 32.5 67.5t42.5 58.5h32l-53 -175h-550l3 18q43 15 88 22l126 620q-38 7 -78 22z" />
    <glyph glyph-name="Ecircumflex" unicode="&#xca;" horiz-adv-x="634" 
d="M425 849q-44 -38 -82 -66l-51 46q37 21 96 68.5t81 74.5h69q13 -27 53 -74.5t67 -68.5l-69 -46q-26 26 -55.5 64.5t-40.5 64.5h-4q-20 -25 -64 -63zM675 700l-36 -177h-33q-5 14 -9 45.5t-4 56.5q0 11 2 25h-247l-56 -275h166q6 17 16.5 42t20.5 44h24l-45 -222h-24
q-3 27 -3 56q0 23 1 30h-167l-56 -276h253q7 26 32.5 67.5t42.5 58.5h32l-53 -175h-550l3 18q43 15 88 22l126 620q-38 7 -78 22l3 18h551z" />
    <glyph glyph-name="uni1EBE" unicode="&#x1ebe;" horiz-adv-x="634" 
d="M791 1075.5q9 -9.5 9 -22.5q0 -5 -1 -8q-3 -18 -22.5 -36t-51.5 -33l-113 -54l-16 31l89 88q46 44 79 44q18 0 27 -9.5zM405.5 848q-44.5 -38 -81.5 -65l-51 46q37 22 96.5 69.5t81.5 73.5h69q12 -26 51.5 -74t67.5 -69l-69 -46q-26 26 -54.5 64.5t-40.5 64.5h-4
q-21 -26 -65.5 -64zM124 700h551l-36 -177h-33q-5 14 -9 45.5t-4 56.5q0 11 2 25h-247l-56 -275h166q6 17 16.5 42t20.5 44h24l-45 -222h-24q-3 27 -3 56q0 23 1 30h-167l-56 -276h253q7 26 32.5 67.5t42.5 58.5h32l-53 -175h-550l3 18q43 15 88 22l126 620q-38 7 -78 22z
" />
    <glyph glyph-name="uni1EC6" unicode="&#x1ec6;" horiz-adv-x="634" 
d="M406 849q-44 -38 -82 -66l-51 46q37 21 96 68.5t81 74.5h69q12 -26 52 -73.5t68 -69.5l-69 -46q-26 26 -55 64.5t-41 64.5h-4q-20 -25 -64 -63zM675 700l-36 -177h-33q-5 14 -9 45.5t-4 56.5q0 11 2 25h-247l-56 -275h166q6 17 16.5 42t20.5 44h24l-45 -222h-24
q-3 27 -3 56q0 23 1 30h-167l-56 -276h253q7 26 32.5 67.5t42.5 58.5h32l-53 -175h-550l3 18q43 15 88 22l126 620q-38 7 -78 22l3 18h551zM315 -67q13 -13 13 -34q0 -5 -2 -15q-6 -27 -25.5 -44.5t-46.5 -17.5q-22 0 -35 13t-13 34q0 32 21.5 54.5t51.5 22.5q23 0 36 -13z
" />
    <glyph glyph-name="uni1EC0" unicode="&#x1ec0;" horiz-adv-x="634" 
d="M200 1036q0 18 14 33.5t38 15.5q32 0 62 -44l53 -88l-28 -31l-93 54q-46 28 -46 60zM273 829q37 22 96.5 69.5t81.5 73.5h69q12 -26 51.5 -74t67.5 -69l-69 -46q-26 26 -54.5 64.5t-40.5 64.5h-4q-21 -26 -65.5 -64t-81.5 -65zM675 700l-36 -177h-33q-5 14 -9 45.5
t-4 56.5q0 11 2 25h-247l-56 -275h166q6 17 16.5 42t20.5 44h24l-45 -222h-24q-3 27 -3 56q0 23 1 30h-167l-56 -276h253q7 26 32.5 67.5t42.5 58.5h32l-53 -175h-550l3 18q43 15 88 22l126 620q-38 7 -78 22l3 18h551z" />
    <glyph glyph-name="uni1EC2" unicode="&#x1ec2;" horiz-adv-x="634" 
d="M735 1121q25 -15 25 -47q0 -6 -2 -18q-13 -68 -95 -75l-18 -48h-52l11 79h32q20 0 36.5 11t21.5 34q1 3 1 8q0 14 -11 23t-33 9q-28 0 -55 -12l2 36q36 15 75 15q37 0 62 -15zM405.5 848q-44.5 -38 -81.5 -65l-51 46q37 22 96.5 69.5t81.5 73.5h69q12 -26 51.5 -74
t67.5 -69l-69 -46q-26 26 -54.5 64.5t-40.5 64.5h-4q-21 -26 -65.5 -64zM124 700h551l-36 -177h-33q-5 14 -9 45.5t-4 56.5q0 11 2 25h-247l-56 -275h166q6 17 16.5 42t20.5 44h24l-45 -222h-24q-3 27 -3 56q0 23 1 30h-167l-56 -276h253q7 26 32.5 67.5t42.5 58.5h32
l-53 -175h-550l3 18q43 15 88 22l126 620q-38 7 -78 22z" />
    <glyph glyph-name="uni1EC4" unicode="&#x1ec4;" horiz-adv-x="634" 
d="M396 1042q-19 -14 -29 -38h-50q19 57 54 85.5t84 28.5q25 0 43 -8.5t35 -22.5l12 -8t16.5 -9t15.5 -3q21 0 42.5 12t34.5 42h49q-17 -55 -51.5 -85.5t-86.5 -30.5q-20 0 -35.5 7t-35.5 21q-17 12 -29.5 17.5t-26.5 5.5q-23 0 -42 -14zM405.5 848q-44.5 -38 -81.5 -65
l-51 46q37 22 96.5 69.5t81.5 73.5h69q12 -26 51.5 -74t67.5 -69l-69 -46q-26 26 -54.5 64.5t-40.5 64.5h-4q-21 -26 -65.5 -64zM124 700h551l-36 -177h-33q-5 14 -9 45.5t-4 56.5q0 11 2 25h-247l-56 -275h166q6 17 16.5 42t20.5 44h24l-45 -222h-24q-3 27 -3 56q0 23 1 30
h-167l-56 -276h253q7 26 32.5 67.5t42.5 58.5h32l-53 -175h-550l3 18q43 15 88 22l126 620q-38 7 -78 22z" />
    <glyph glyph-name="Edieresis" unicode="&#xcb;" horiz-adv-x="634" 
d="M326.5 797.5q-12.5 12.5 -12.5 33.5q0 4 2 16q5 27 24.5 44.5t45.5 17.5q23 0 35.5 -13.5t12.5 -35.5q0 -8 -1 -13q-6 -27 -26 -44.5t-47 -17.5q-21 0 -33.5 12.5zM555.5 797.5q-12.5 12.5 -12.5 33.5q0 32 21.5 55t51.5 23q23 0 35.5 -13t12.5 -35q0 -9 -1 -14
q-6 -27 -26 -44.5t-47 -17.5q-22 0 -34.5 12.5zM675 700l-36 -177h-33q-5 14 -9 45.5t-4 56.5q0 11 2 25h-247l-56 -275h166q6 17 16.5 42t20.5 44h24l-45 -222h-24q-3 27 -3 56q0 23 1 30h-167l-56 -276h253q7 26 32.5 67.5t42.5 58.5h32l-53 -175h-550l3 18q43 15 88 22
l126 620q-38 7 -78 22l3 18h551z" />
    <glyph glyph-name="Edotaccent" unicode="&#x116;" horiz-adv-x="634" 
d="M442 797.5q-12 12.5 -12 32.5q0 5 2 17q5 27 24.5 44.5t46.5 17.5q22 0 34.5 -13.5t12.5 -34.5q0 -9 -1 -14q-6 -27 -26 -44.5t-46 -17.5q-23 0 -35 12.5zM675 700l-36 -177h-33q-5 14 -9 45.5t-4 56.5q0 11 2 25h-247l-56 -275h166q6 17 16.5 42t20.5 44h24l-45 -222
h-24q-3 27 -3 56q0 23 1 30h-167l-56 -276h253q7 26 32.5 67.5t42.5 58.5h32l-53 -175h-550l3 18q43 15 88 22l126 620q-38 7 -78 22l3 18h551z" />
    <glyph glyph-name="uni1EB8" unicode="&#x1eb8;" horiz-adv-x="634" 
d="M675 700l-36 -177h-33q-5 14 -9 45.5t-4 56.5q0 11 2 25h-247l-56 -275h166q6 17 16.5 42t20.5 44h24l-45 -222h-24q-3 27 -3 56q0 23 1 30h-167l-56 -276h253q7 26 32.5 67.5t42.5 58.5h32l-53 -175h-550l3 18q43 15 88 22l126 620q-38 7 -78 22l3 18h551zM297.5 -67
q12.5 -13 12.5 -35q0 -9 -1 -14q-6 -27 -26 -44.5t-46 -17.5q-22 0 -35 12.5t-13 33.5q0 4 2 16q5 27 24.5 44.5t46.5 17.5q23 0 35.5 -13z" />
    <glyph glyph-name="Egrave" unicode="&#xc8;" horiz-adv-x="634" 
d="M384 930q0 7 1 10q3 16 17.5 29t37.5 13q21 0 34.5 -11.5t19.5 -22.5l92 -127l-30 -35l-136 93q-36 25 -36 51zM675 700l-36 -177h-33q-5 14 -9 45.5t-4 56.5q0 11 2 25h-247l-56 -275h166q6 17 16.5 42t20.5 44h24l-45 -222h-24q-3 27 -3 56q0 23 1 30h-167l-56 -276
h253q7 26 32.5 67.5t42.5 58.5h32l-53 -175h-550l3 18q43 15 88 22l126 620q-38 7 -78 22l3 18h551z" />
    <glyph glyph-name="uni1EBA" unicode="&#x1eba;" horiz-adv-x="634" 
d="M526 900q19 13 25 39q1 3 1 9q0 17 -13.5 28.5t-37.5 11.5q-34 0 -63 -16l1 39q17 8 40.5 13t46.5 5q42 0 70.5 -18t28.5 -54q0 -5 -2 -19q-15 -77 -109 -86l-24 -69h-59l17 104h36q23 0 42 13zM675 700l-36 -177h-33q-5 14 -9 45.5t-4 56.5q0 11 2 25h-247l-56 -275h166
q6 17 16.5 42t20.5 44h24l-45 -222h-24q-3 27 -3 56q0 23 1 30h-167l-56 -276h253q7 26 32.5 67.5t42.5 58.5h32l-53 -175h-550l3 18q43 15 88 22l126 620q-38 7 -78 22l3 18h551z" />
    <glyph glyph-name="Emacron" unicode="&#x112;" horiz-adv-x="634" 
d="M653 785h-373l10 48h373zM675 700l-36 -177h-33q-5 14 -9 45.5t-4 56.5q0 11 2 25h-247l-56 -275h166q6 17 16.5 42t20.5 44h24l-45 -222h-24q-3 27 -3 56q0 23 1 30h-167l-56 -276h253q7 26 32.5 67.5t42.5 58.5h32l-53 -175h-550l3 18q43 15 88 22l126 620
q-38 7 -78 22l3 18h551z" />
    <glyph glyph-name="Eogonek" unicode="&#x118;" horiz-adv-x="634" 
d="M675 700l-36 -177h-33q-5 14 -9 45.5t-4 56.5q0 11 2 25h-247l-56 -275h166q6 17 16.5 42t20.5 44h24l-45 -222h-24q-3 27 -3 56q0 23 1 30h-167l-56 -276h253q7 26 32.5 67.5t42.5 58.5h32l-53 -175h-32q-26 -16 -47 -44.5t-21 -52.5q0 -19 13 -30t36 -11q30 0 69 21
l-14 -63q-21 -12 -50.5 -19t-60.5 -7q-53 0 -82 19.5t-29 53.5q0 24 15 51.5t41.5 49.5t59.5 32h-448l3 18q43 15 88 22l126 620q-38 7 -78 22l3 18h551z" />
    <glyph glyph-name="uni1EBC" unicode="&#x1ebc;" horiz-adv-x="634" 
d="M350.5 823.5q-17.5 -14.5 -26.5 -38.5h-64q19 57 55.5 87t85.5 30q26 0 45.5 -8t42.5 -23q17 -11 27.5 -16t21.5 -5q21 0 38.5 11.5t31.5 42.5h62q-16 -56 -51 -87.5t-88 -31.5q-21 0 -40 8t-48 23q-37 22 -54 22q-21 0 -38.5 -14.5zM675 700l-36 -177h-33q-5 14 -9 45.5
t-4 56.5q0 11 2 25h-247l-56 -275h166q6 17 16.5 42t20.5 44h24l-45 -222h-24q-3 27 -3 56q0 23 1 30h-167l-56 -276h253q7 26 32.5 67.5t42.5 58.5h32l-53 -175h-550l3 18q43 15 88 22l126 620q-38 7 -78 22l3 18h551z" />
    <glyph glyph-name="F" unicode="F" horiz-adv-x="588" 
d="M660 700l-35 -177h-33q-5 13 -9 45t-4 59q0 17 1 23h-232l-61 -296h167q17 51 37 86h24l-45 -222h-24q-4 24 -4 56l1 30h-166l-54 -265q46 -8 79 -22l-3 -17h-317l3 18q50 16 88 21l126 621q-39 7 -78 22l3 18h536z" />
    <glyph glyph-name="G" unicode="G" horiz-adv-x="693" 
d="M116.5 56q-70.5 66 -70.5 187q0 50 12 107q22 111 79.5 192t143.5 124.5t193 43.5q83 0 145 -21t92 -58l-43 -146h-36q-2 15 -2 50q0 49 5 83q-20 20 -58 30t-76 10q-69 0 -127.5 -37.5t-100.5 -107t-61 -163.5q-13 -62 -13 -117q0 -91 39.5 -141t116.5 -50
q17 0 40.5 3.5t40.5 9.5l50 247q-54 14 -72 20l4 19h288l-3 -14q-13 -7 -35 -15.5t-37 -11.5l-51 -252q-41 -27 -113 -42.5t-143 -15.5q-137 0 -207.5 66z" />
    <glyph glyph-name="Gbreve" unicode="&#x11e;" horiz-adv-x="693" 
d="M380.5 815.5q-38.5 33.5 -35.5 100.5h82q-1 -6 -1 -17q0 -39 21 -52t55 -13q37 0 64.5 16.5t42.5 65.5h83q-24 -67 -76.5 -100.5t-124.5 -33.5t-110.5 33.5zM116.5 56q-70.5 66 -70.5 187q0 50 12 107q22 111 79.5 192t143.5 124.5t193 43.5q83 0 145 -21t92 -58
l-43 -146h-36q-2 15 -2 50q0 49 5 83q-20 20 -58 30t-76 10q-69 0 -127.5 -37.5t-100.5 -107t-61 -163.5q-13 -62 -13 -117q0 -91 39.5 -141t116.5 -50q17 0 40.5 3.5t40.5 9.5l50 247q-54 14 -72 20l4 19h288l-3 -14q-13 -7 -35 -15.5t-37 -11.5l-51 -252
q-41 -27 -113 -42.5t-143 -15.5q-137 0 -207.5 66z" />
    <glyph glyph-name="Gcaron" unicode="&#x1e6;" horiz-adv-x="693" 
d="M391.5 864q-39.5 47 -67.5 69l69 45q27 -26 55.5 -64t38.5 -64h4q23 26 68 64.5t81 63.5l50 -45q-38 -23 -97 -70t-81 -73h-69q-12 27 -51.5 74zM116.5 56q-70.5 66 -70.5 187q0 50 12 107q22 111 79.5 192t143.5 124.5t193 43.5q83 0 145 -21t92 -58l-43 -146h-36
q-2 15 -2 50q0 49 5 83q-20 20 -58 30t-76 10q-69 0 -127.5 -37.5t-100.5 -107t-61 -163.5q-13 -62 -13 -117q0 -91 39.5 -141t116.5 -50q17 0 40.5 3.5t40.5 9.5l50 247q-54 14 -72 20l4 19h288l-3 -14q-13 -7 -35 -15.5t-37 -11.5l-51 -252q-41 -27 -113 -42.5t-143 -15.5
q-137 0 -207.5 66z" />
    <glyph glyph-name="Gcircumflex" unicode="&#x11c;" horiz-adv-x="693" 
d="M331 829q37 21 96 68.5t81 74.5h69q12 -27 52 -74.5t68 -68.5l-69 -46q-26 26 -55 64.5t-41 64.5h-4q-20 -25 -64 -63t-82 -66zM116.5 56q-70.5 66 -70.5 187q0 50 12 107q22 111 79.5 192t143.5 124.5t193 43.5q83 0 145 -21t92 -58l-43 -146h-36q-2 15 -2 50q0 49 5 83
q-20 20 -58 30t-76 10q-69 0 -127.5 -37.5t-100.5 -107t-61 -163.5q-13 -62 -13 -117q0 -91 39.5 -141t116.5 -50q17 0 40.5 3.5t40.5 9.5l50 247q-54 14 -72 20l4 19h288l-3 -14q-13 -7 -35 -15.5t-37 -11.5l-51 -252q-41 -27 -113 -42.5t-143 -15.5q-137 0 -207.5 66z" />
    <glyph glyph-name="Gcommaaccent" unicode="&#x122;" horiz-adv-x="693" 
d="M116.5 56q-70.5 66 -70.5 187q0 50 12 107q22 111 79.5 192t143.5 124.5t193 43.5q83 0 145 -21t92 -58l-43 -146h-36q-2 15 -2 50q0 49 5 83q-20 20 -58 30t-76 10q-69 0 -127.5 -37.5t-100.5 -107t-61 -163.5q-13 -62 -13 -117q0 -91 39.5 -141t116.5 -50
q17 0 40.5 3.5t40.5 9.5l50 247q-54 14 -72 20l4 19h288l-3 -14q-13 -7 -35 -15.5t-37 -11.5l-51 -252q-41 -27 -113 -42.5t-143 -15.5q-137 0 -207.5 66zM205 -332q28 25 52.5 55t34.5 60q-25 2 -40.5 16t-15.5 38q0 36 26.5 59t59.5 23q31 0 46.5 -16t15.5 -42
q0 -6 -2 -20q-12 -56 -50.5 -114t-87.5 -95z" />
    <glyph glyph-name="Gdotaccent" unicode="&#x120;" horiz-adv-x="693" 
d="M471.5 798q-12.5 13 -12.5 34q0 32 21 54.5t52 22.5q23 0 35.5 -13.5t12.5 -35.5q0 -8 -1 -13q-6 -27 -26 -44.5t-46 -17.5q-23 0 -35.5 13zM116.5 56q-70.5 66 -70.5 187q0 50 12 107q22 111 79.5 192t143.5 124.5t193 43.5q83 0 145 -21t92 -58l-43 -146h-36
q-2 15 -2 50q0 49 5 83q-20 20 -58 30t-76 10q-69 0 -127.5 -37.5t-100.5 -107t-61 -163.5q-13 -62 -13 -117q0 -91 39.5 -141t116.5 -50q17 0 40.5 3.5t40.5 9.5l50 247q-54 14 -72 20l4 19h288l-3 -14q-13 -7 -35 -15.5t-37 -11.5l-51 -252q-41 -27 -113 -42.5t-143 -15.5
q-137 0 -207.5 66z" />
    <glyph glyph-name="uni1E20" unicode="&#x1e20;" horiz-adv-x="693" 
d="M292 833h374l-10 -48h-373zM116.5 56q-70.5 66 -70.5 187q0 50 12 107q22 111 79.5 192t143.5 124.5t193 43.5q83 0 145 -21t92 -58l-43 -146h-36q-2 15 -2 50q0 49 5 83q-20 20 -58 30t-76 10q-69 0 -127.5 -37.5t-100.5 -107t-61 -163.5q-13 -62 -13 -117
q0 -91 39.5 -141t116.5 -50q17 0 40.5 3.5t40.5 9.5l50 247q-54 14 -72 20l4 19h288l-3 -14q-13 -7 -35 -15.5t-37 -11.5l-51 -252q-41 -27 -113 -42.5t-143 -15.5q-137 0 -207.5 66z" />
    <glyph glyph-name="H" unicode="H" horiz-adv-x="794" 
d="M860 700l-4 -20q-66 -20 -81 -22l-125 -619q39 -8 71 -22l-3 -17h-301l3 15q39 15 52.5 19t26.5 6l59 290h-282l-59 -292q32 -8 69 -21l-3 -17h-301l4 19q56 18 80 22l127 619q-34 7 -72 22l3 18h301l-3 -16q-51 -19 -64 -21.5t-15 -3.5l-57 -279h283l57 281
q-32 7 -70 21l3 18h301z" />
    <glyph glyph-name="Hbar" unicode="&#x126;" horiz-adv-x="794" 
d="M775 658l-23 -115h58l-10 -49h-58l-92 -455q39 -8 71 -22l-3 -17h-301l3 15q39 15 52.5 19t26.5 6l59 290h-282l-59 -292q32 -8 69 -21l-3 -17h-301l4 19q56 18 80 22l93 453h-58l10 49h58l24 117q-34 7 -72 22l3 18h301l-3 -16q-51 -19 -64 -21.5t-15 -3.5l-24 -116h283
l24 118q-32 7 -70 21l3 18h301l-4 -20q-66 -20 -81 -22zM592 494h-282l-24 -114h283z" />
    <glyph glyph-name="uni1E2A" unicode="&#x1e2a;" horiz-adv-x="794" 
d="M860 700l-4 -20q-66 -20 -81 -22l-125 -619q39 -8 71 -22l-3 -17h-301l3 15q39 15 52.5 19t26.5 6l59 290h-282l-59 -292q32 -8 69 -21l-3 -17h-301l4 19q56 18 80 22l127 619q-34 7 -72 22l3 18h301l-3 -16q-51 -19 -64 -21.5t-15 -3.5l-57 -279h283l57 281
q-32 7 -70 21l3 18h301zM387.5 -116q27.5 17 43.5 66h82q-24 -67 -76 -100.5t-124 -33.5q-73 0 -111.5 33.5t-34.5 100.5h82q-1 -6 -1 -17q0 -39 20.5 -52.5t54.5 -13.5q37 0 64.5 17z" />
    <glyph glyph-name="Hcircumflex" unicode="&#x124;" horiz-adv-x="794" 
d="M469.5 849q-43.5 -38 -82.5 -66l-51 46q37 21 95.5 68.5t80.5 74.5h69q13 -27 53 -74.5t67 -68.5l-69 -46q-26 26 -55 64.5t-41 64.5h-4q-19 -25 -62.5 -63zM860 700l-4 -20q-66 -20 -81 -22l-125 -619q39 -8 71 -22l-3 -17h-301l3 15q39 15 52.5 19t26.5 6l59 290h-282
l-59 -292q32 -8 69 -21l-3 -17h-301l4 19q56 18 80 22l127 619q-34 7 -72 22l3 18h301l-3 -16q-51 -19 -64 -21.5t-15 -3.5l-57 -279h283l57 281q-32 7 -70 21l3 18h301z" />
    <glyph glyph-name="uni1E24" unicode="&#x1e24;" horiz-adv-x="794" 
d="M860 700l-4 -20q-66 -20 -81 -22l-125 -619q39 -8 71 -22l-3 -17h-301l3 15q39 15 52.5 19t26.5 6l59 290h-282l-59 -292q32 -8 69 -21l-3 -17h-301l4 19q56 18 80 22l127 619q-34 7 -72 22l3 18h301l-3 -16q-51 -19 -64 -21.5t-15 -3.5l-57 -279h283l57 281
q-32 7 -70 21l3 18h301zM373.5 -67.5q12.5 -13.5 12.5 -35.5q0 -8 -1 -13q-6 -27 -26 -44.5t-46 -17.5q-22 0 -35 12.5t-13 33.5q0 4 2 16q5 27 24.5 44.5t46.5 17.5q23 0 35.5 -13.5z" />
    <glyph glyph-name="I" unicode="I" horiz-adv-x="365" 
d="M-13 20q29 8 81 20l127 620q-17 3 -73 21l3 19h306l-4 -20q-9 -3 -57 -15l-25 -6l-126 -620q22 -4 73 -21l-3 -18h-306z" />
    <glyph glyph-name="IJ" unicode="&#x132;" horiz-adv-x="858" 
d="M-13 20q29 8 81 20l127 620q-17 3 -73 21l3 19h306l-4 -20q-9 -3 -57 -15l-25 -6l-126 -620q22 -4 73 -21l-3 -18h-306zM406.5 5q-43.5 15 -68.5 43l29 38q18 -15 45 -25.5t57 -10.5q43 0 75.5 25.5t43.5 80.5l103 503q-34 6 -72 21l4 20h301l-4 -20q-57 -18 -79 -22
l-101 -495q-18 -87 -85 -130t-154 -43q-51 0 -94.5 15z" />
    <glyph glyph-name="Iacute" unicode="&#xcd;" horiz-adv-x="365" 
d="M189 821l143 126q35 35 68 35q19 0 28.5 -10t9.5 -24q0 -5 -1 -8q-3 -17 -17.5 -31.5t-41.5 -29.5l-172 -93zM-13 20q29 8 81 20l127 620q-17 3 -73 21l3 19h306l-4 -20q-9 -3 -57 -15l-25 -6l-126 -620q22 -4 73 -21l-3 -18h-306z" />
    <glyph glyph-name="Ibreve" unicode="&#x12c;" horiz-adv-x="365" 
d="M184 815.5q-38 33.5 -36 100.5h82q-1 -6 -1 -16q0 -39 21 -52.5t55 -13.5q37 0 64.5 16.5t42.5 65.5h83q-24 -67 -76.5 -100.5t-124.5 -33.5t-110 33.5zM-13 20q29 8 81 20l127 620q-17 3 -73 21l3 19h306l-4 -20q-9 -3 -57 -15l-25 -6l-126 -620q22 -4 73 -21l-3 -18
h-306z" />
    <glyph glyph-name="uni01CF" unicode="&#x1cf;" horiz-adv-x="365" 
d="M208.5 859q-39.5 47 -67.5 70l69 45q27 -26 55.5 -64t38.5 -64h4q23 26 68 64.5t81 63.5l50 -45q-38 -23 -97 -70t-81 -73h-69q-12 26 -51.5 73zM-13 20q29 8 81 20l127 620q-17 3 -73 21l3 19h306l-4 -20q-9 -3 -57 -15l-25 -6l-126 -620q22 -4 73 -21l-3 -18h-306z" />
    <glyph glyph-name="Icircumflex" unicode="&#xce;" horiz-adv-x="365" 
d="M121 829q37 21 95.5 68.5t80.5 74.5h69q13 -27 53 -74.5t67 -68.5l-69 -46q-26 26 -55 64.5t-41 64.5h-4q-19 -25 -62.5 -63t-82.5 -66zM-13 20q29 8 81 20l127 620q-17 3 -73 21l3 19h306l-4 -20q-9 -3 -57 -15l-25 -6l-126 -620q22 -4 73 -21l-3 -18h-306z" />
    <glyph glyph-name="Idieresis" unicode="&#xcf;" horiz-adv-x="365" 
d="M144.5 797.5q-12.5 12.5 -12.5 33.5q0 32 21.5 55t50.5 23q23 0 36 -13t13 -34q0 -32 -22 -54.5t-53 -22.5q-21 0 -33.5 12.5zM374 797.5q-12 12.5 -12 32.5q0 5 2 17q5 27 24.5 44.5t46.5 17.5q23 0 35.5 -13.5t12.5 -35.5q0 -8 -1 -13q-6 -27 -26 -44.5t-47 -17.5
q-23 0 -35 12.5zM-13 20q29 8 81 20l127 620q-17 3 -73 21l3 19h306l-4 -20q-9 -3 -57 -15l-25 -6l-126 -620q22 -4 73 -21l-3 -18h-306z" />
    <glyph glyph-name="Idotaccent" unicode="&#x130;" horiz-adv-x="365" 
d="M257.5 797.5q-12.5 12.5 -12.5 33.5q0 32 21 55t52 23q23 0 35.5 -13t12.5 -34q0 -32 -21.5 -54.5t-52.5 -22.5q-22 0 -34.5 12.5zM-13 20q29 8 81 20l127 620q-17 3 -73 21l3 19h306l-4 -20q-9 -3 -57 -15l-25 -6l-126 -620q22 -4 73 -21l-3 -18h-306z" />
    <glyph glyph-name="uni1ECA" unicode="&#x1eca;" horiz-adv-x="365" 
d="M-13 20q29 8 81 20l127 620q-17 3 -73 21l3 19h306l-4 -20q-9 -3 -57 -15l-25 -6l-126 -620q22 -4 73 -21l-3 -18h-306zM64.5 -165q-12.5 13 -12.5 35q0 31 21 53.5t51 22.5q23 0 36 -13.5t13 -35.5q0 -8 -1 -13q-6 -27 -26 -44.5t-46 -17.5q-23 0 -35.5 13z" />
    <glyph glyph-name="Igrave" unicode="&#xcc;" horiz-adv-x="365" 
d="M248 879q-36 25 -36 51q0 18 14.5 35t41.5 17q21 0 34.5 -11.5t19.5 -22.5l92 -127l-30 -35zM-13 20q29 8 81 20l127 620q-17 3 -73 21l3 19h306l-4 -20q-9 -3 -57 -15l-25 -6l-126 -620q22 -4 73 -21l-3 -18h-306z" />
    <glyph glyph-name="uni1EC8" unicode="&#x1ec8;" horiz-adv-x="365" 
d="M288 887h36q23 0 42 13t24 39q1 3 1 9q0 18 -13 29t-38 11q-33 0 -62 -16l1 39q17 8 40.5 13t45.5 5q43 0 71 -17.5t28 -53.5q0 -13 -2 -20q-14 -77 -108 -86l-24 -69h-60zM-13 20q29 8 81 20l127 620q-17 3 -73 21l3 19h306l-4 -20q-9 -3 -57 -15l-25 -6l-126 -620
q22 -4 73 -21l-3 -18h-306z" />
    <glyph glyph-name="Imacron" unicode="&#x12a;" horiz-adv-x="365" 
d="M106 834h409l-10 -49h-409zM-13 20q29 8 81 20l127 620q-17 3 -73 21l3 19h306l-4 -20q-9 -3 -57 -15l-25 -6l-126 -620q22 -4 73 -21l-3 -18h-306z" />
    <glyph glyph-name="Iogonek" unicode="&#x12e;" horiz-adv-x="365" 
d="M431 700l-4 -20q-9 -3 -57 -15l-25 -6l-126 -620q22 -4 73 -21l-3 -18h-16q-26 -17 -47 -44.5t-21 -52.5q0 -19 13.5 -30t35.5 -11q30 0 69 21l-13 -63q-21 -12 -51 -19t-61 -7q-53 0 -81.5 19.5t-28.5 52.5q0 24 15 52t41 50t59 32h-220l4 20q29 8 81 20l127 620
q-17 3 -73 21l3 19h306z" />
    <glyph glyph-name="Itilde" unicode="&#x128;" horiz-adv-x="365" 
d="M157.5 873q36.5 30 86.5 30q26 0 44.5 -8t43.5 -23q17 -11 27.5 -16t21.5 -5q21 0 38.5 11.5t31.5 42.5h61q-17 -56 -51.5 -87.5t-87.5 -31.5q-21 0 -39 7.5t-48 23.5q-20 11 -32 16.5t-22 5.5q-22 0 -39.5 -14.5t-25.5 -38.5h-65q19 57 55.5 87zM-13 20q29 8 81 20
l127 620q-17 3 -73 21l3 19h306l-4 -20q-9 -3 -57 -15l-25 -6l-126 -620q22 -4 73 -21l-3 -18h-306z" />
    <glyph glyph-name="J" unicode="J" horiz-adv-x="500" 
d="M49.5 5q-43.5 15 -69.5 43l30 38q18 -15 45 -25.5t57 -10.5q43 0 75.5 25.5t43.5 80.5l103 503q-34 6 -72 21l4 20h301l-4 -20q-61 -19 -79 -22l-101 -495q-18 -87 -85 -130t-154 -43q-51 0 -94.5 15z" />
    <glyph glyph-name="Jcircumflex" unicode="&#x134;" horiz-adv-x="500" 
d="M259 829q37 21 96 68.5t81 74.5h69q12 -27 52 -74.5t68 -68.5l-69 -46q-26 26 -55 64.5t-41 64.5h-4q-20 -25 -64 -63t-82 -66zM49.5 5q-43.5 15 -69.5 43l30 38q18 -15 45 -25.5t57 -10.5q43 0 75.5 25.5t43.5 80.5l103 503q-34 6 -72 21l4 20h301l-4 -20
q-61 -19 -79 -22l-101 -495q-18 -87 -85 -130t-154 -43q-51 0 -94.5 15z" />
    <glyph glyph-name="K" unicode="K" horiz-adv-x="773" 
d="M763 670q-3 -1 -21.5 -5t-32.5 -14l-260 -231l196 -381q34 -6 79 -21l-3 -18h-213l-166 324l-81 -71l-43 -214q20 -4 72 -21l-3 -18h-305l4 20q23 7 46 12.5t35 7.5l127 620q-42 9 -73 22l3 18h305l-4 -20q-41 -12 -81 -21l-65 -322l358 320q-9 5 -25 8.5t-22 4.5
q-11 1 -26 5l5 25h223l-5 -25q-16 -4 -24 -5z" />
    <glyph glyph-name="Kcommaaccent" unicode="&#x136;" horiz-adv-x="773" 
d="M763 670q-3 -1 -21.5 -5t-32.5 -14l-260 -231l196 -381q34 -6 79 -21l-3 -18h-213l-166 324l-81 -71l-43 -214q20 -4 72 -21l-3 -18h-305l4 20q23 7 46 12.5t35 7.5l127 620q-42 9 -73 22l3 18h305l-4 -20q-41 -12 -81 -21l-65 -322l358 320q-9 5 -25 8.5t-22 4.5
q-11 1 -26 5l5 25h223l-5 -25q-16 -4 -24 -5zM382 -96.5q15 -15.5 15 -41.5q0 -14 -2 -21q-11 -56 -50 -113.5t-88 -95.5l-38 36q70 65 87 115q-26 2 -41 16.5t-15 39.5q0 8 1 13q7 30 31 48.5t54 18.5q31 0 46 -15.5z" />
    <glyph glyph-name="L" unicode="L" horiz-adv-x="629" 
d="M-15 18q49 15 89 21l126 621q-39 9 -73 22l4 18h304l-4 -20q-33 -10 -80 -21l-125 -610h249q7 26 32.5 67.5t42.5 58.5h31l-52 -175h-547z" />
    <glyph glyph-name="Lacute" unicode="&#x139;" horiz-adv-x="629" 
d="M220 821l144 126q9 10 28 22.5t40 12.5q19 0 28.5 -10t9.5 -24q0 -20 -15 -36t-45 -33l-172 -93zM-15 18q49 15 89 21l126 621q-39 9 -73 22l4 18h304l-4 -20q-33 -10 -80 -21l-125 -610h249q7 26 32.5 67.5t42.5 58.5h31l-52 -175h-547z" />
    <glyph glyph-name="Lcaron" unicode="&#x13d;" horiz-adv-x="629" 
d="M499 449q28 25 52.5 55t34.5 60q-26 0 -42.5 13.5t-16.5 37.5q0 5 2 17q6 33 29 55.5t59 22.5q34 0 50 -18t16 -45q0 -12 -3 -24q-11 -55 -51.5 -113.5t-91.5 -96.5zM-15 18q49 15 89 21l126 621q-39 9 -73 22l4 18h304l-4 -20q-33 -10 -80 -21l-125 -610h249
q7 26 32.5 67.5t42.5 58.5h31l-52 -175h-547z" />
    <glyph glyph-name="Lcommaaccent" unicode="&#x13b;" horiz-adv-x="629" 
d="M-15 18q49 15 89 21l126 621q-39 9 -73 22l4 18h304l-4 -20q-33 -10 -80 -21l-125 -610h249q7 26 32.5 67.5t42.5 58.5h31l-52 -175h-547zM145 -332q70 65 87 115q-26 2 -41 16.5t-15 39.5q0 8 1 13q7 30 31 48.5t54 18.5q31 0 46 -15.5t15 -41.5q0 -14 -2 -21
q-11 -56 -50 -113.5t-88 -95.5z" />
    <glyph glyph-name="Ldot" unicode="&#x13f;" horiz-adv-x="629" 
d="M-15 18q49 15 89 21l126 621q-39 9 -73 22l4 18h304l-4 -20q-33 -10 -80 -21l-125 -610h249q7 26 32.5 67.5t42.5 58.5h31l-52 -175h-547zM429 340q-12 13 -12 35q0 31 21 53.5t51 22.5q23 0 36 -13t13 -34q0 -32 -21.5 -54.5t-52.5 -22.5q-23 0 -35 13z" />
    <glyph glyph-name="uni1E36" unicode="&#x1e36;" horiz-adv-x="629" 
d="M-15 18q49 15 89 21l126 621q-39 9 -73 22l4 18h304l-4 -20q-33 -10 -80 -21l-125 -610h249q7 26 32.5 67.5t42.5 58.5h31l-52 -175h-547zM205.5 -162q-12.5 13 -12.5 34q0 31 21.5 54t52.5 23q22 0 34.5 -13t12.5 -34q0 -32 -21.5 -54.5t-51.5 -22.5q-23 0 -35.5 13z
" />
    <glyph glyph-name="uni1E38" unicode="&#x1e38;" horiz-adv-x="629" 
d="M122 833h374l-11 -48h-374zM-15 18q49 15 89 21l126 621q-39 9 -73 22l4 18h304l-4 -20q-33 -10 -80 -21l-125 -610h249q7 26 32.5 67.5t42.5 58.5h31l-52 -175h-547zM202.5 -162q-12.5 13 -12.5 34q0 30 22 53.5t52 23.5q23 0 35.5 -13t12.5 -34q0 -32 -21.5 -54.5
t-52.5 -22.5q-23 0 -35.5 13z" />
    <glyph glyph-name="uni1E3A" unicode="&#x1e3a;" horiz-adv-x="629" 
d="M-15 18q49 15 89 21l126 621q-39 9 -73 22l4 18h304l-4 -20q-33 -10 -80 -21l-125 -610h249q7 26 32.5 67.5t42.5 58.5h31l-52 -175h-547zM68 -61h373l-10 -48h-374z" />
    <glyph glyph-name="Lslash" unicode="&#x141;" horiz-adv-x="629" 
d="M581 175l-52 -175h-547l3 18q49 15 89 21l43 212l-81 -28l14 67l81 28l69 342q-39 9 -73 22l4 18h304l-4 -20q-33 -10 -80 -21l-58 -285l203 71l-13 -68l-204 -70l-53 -258h249q7 26 32.5 67.5t42.5 58.5h31z" />
    <glyph glyph-name="M" unicode="M" horiz-adv-x="926" 
d="M-14 17q44 14 81 21l127 622q-42 9 -73 22l3 18h235l88 -506l312 506h234l-4 -18q-24 -8 -80 -24l-126 -620q28 -6 71 -21l-3 -17h-302l3 17q43 14 80 21l111 543l-314 -505h-88l-101 517l-114 -555q30 -6 71 -21l-2 -17h-212z" />
    <glyph glyph-name="uni1E42" unicode="&#x1e42;" horiz-adv-x="926" 
d="M-14 17q44 14 81 21l127 622q-42 9 -73 22l3 18h235l88 -506l312 506h234l-4 -18q-24 -8 -80 -24l-126 -620q28 -6 71 -21l-3 -17h-302l3 17q43 14 80 21l111 543l-314 -505h-88l-101 517l-114 -555q30 -6 71 -21l-2 -17h-212zM345 -165.5q-13 12.5 -13 33.5q0 4 2 16
q5 27 24.5 44.5t46.5 17.5q23 0 35.5 -13t12.5 -35q0 -9 -1 -14q-6 -27 -26 -44.5t-46 -17.5q-22 0 -35 12.5z" />
    <glyph glyph-name="N" unicode="N" horiz-adv-x="755" 
d="M-14 17q44 14 81 21l127 622q-39 9 -73 22l3 18h228l229 -511l96 472q-41 11 -72 21l4 18h212l-3 -18q-26 -8 -80 -21l-134 -661h-77l-283 621l-118 -583q30 -6 71 -21l-2 -17h-212z" />
    <glyph glyph-name="Nacute" unicode="&#x143;" horiz-adv-x="755" 
d="M425 821l143 126q35 35 68 35q22 0 31.5 -13t6.5 -29q-4 -17 -18.5 -31.5t-41.5 -29.5l-172 -93zM-14 17q44 14 81 21l127 622q-39 9 -73 22l3 18h228l229 -511l96 472q-41 11 -72 21l4 18h212l-3 -18q-26 -8 -80 -21l-134 -661h-77l-283 621l-118 -583q30 -6 71 -21
l-2 -17h-212z" />
    <glyph glyph-name="Ncaron" unicode="&#x147;" horiz-adv-x="755" 
d="M403 860q-39 47 -67 69l69 45q26 -26 54.5 -64.5t39.5 -63.5h4q22 26 67 64.5t82 63.5l49 -45q-38 -23 -96.5 -70t-80.5 -73h-69q-13 27 -52 74zM-14 17q44 14 81 21l127 622q-39 9 -73 22l3 18h228l229 -511l96 472q-41 11 -72 21l4 18h212l-3 -18q-26 -8 -80 -21
l-134 -661h-77l-283 621l-118 -583q30 -6 71 -21l-2 -17h-212z" />
    <glyph glyph-name="Ncommaaccent" unicode="&#x145;" horiz-adv-x="755" 
d="M-14 17q44 14 81 21l127 622q-39 9 -73 22l3 18h228l229 -511l96 472q-41 11 -72 21l4 18h212l-3 -18q-26 -8 -80 -21l-134 -661h-77l-283 621l-118 -583q30 -6 71 -21l-2 -17h-212zM202 -332q28 25 52.5 55t35.5 60q-26 2 -41.5 16t-15.5 38q0 5 2 15q7 30 31 48.5
t53 18.5q31 0 46.5 -16t15.5 -41q0 -14 -2 -21q-11 -56 -50 -113.5t-88 -95.5z" />
    <glyph glyph-name="uni1E44" unicode="&#x1e44;" horiz-adv-x="755" 
d="M455.5 797.5q-12.5 12.5 -12.5 33.5q0 32 21.5 55t51.5 23q23 0 35.5 -13t12.5 -34q0 -32 -21.5 -54.5t-52.5 -22.5q-22 0 -34.5 12.5zM-14 17q44 14 81 21l127 622q-39 9 -73 22l3 18h228l229 -511l96 472q-41 11 -72 21l4 18h212l-3 -18q-26 -8 -80 -21l-134 -661h-77
l-283 621l-118 -583q30 -6 71 -21l-2 -17h-212z" />
    <glyph glyph-name="uni1E46" unicode="&#x1e46;" horiz-adv-x="755" 
d="M-14 17q44 14 81 21l127 622q-39 9 -73 22l3 18h228l229 -511l96 472q-41 11 -72 21l4 18h212l-3 -18q-26 -8 -80 -21l-134 -661h-77l-283 621l-118 -583q30 -6 71 -21l-2 -17h-212zM255.5 -165q-12.5 13 -12.5 35q0 31 21.5 53.5t51.5 22.5q23 0 35.5 -13.5t12.5 -35.5
q0 -8 -1 -13q-6 -27 -26 -44.5t-46 -17.5q-23 0 -35.5 13z" />
    <glyph glyph-name="Eng" unicode="&#x14a;" horiz-adv-x="755" 
d="M290 -222l17 40q35 -15 83 -15q49 0 85.5 22t46.5 69l21 102l-299 625l-118 -583q30 -6 71 -21l-2 -17h-212l3 17q44 14 81 21l127 622q-39 9 -73 22l3 18h228l229 -511l96 472q-41 11 -72 21l4 18h212l-3 -18q-26 -8 -80 -21l-156 -764q-15 -74 -63 -110.5t-115 -36.5
q-60 0 -114 28z" />
    <glyph glyph-name="uni1E48" unicode="&#x1e48;" horiz-adv-x="755" 
d="M-14 17q44 14 81 21l127 622q-39 9 -73 22l3 18h228l229 -511l96 472q-41 11 -72 21l4 18h212l-3 -18q-26 -8 -80 -21l-134 -661h-77l-283 621l-118 -583q30 -6 71 -21l-2 -17h-212zM133 -61h374l-11 -48h-373z" />
    <glyph glyph-name="Ntilde" unicode="&#xd1;" horiz-adv-x="755" 
d="M360.5 873q36.5 30 85.5 30q26 0 45.5 -8t42.5 -23q17 -11 27.5 -16t21.5 -5q21 0 38.5 11.5t31.5 42.5h62q-17 -56 -51.5 -87.5t-87.5 -31.5q-21 0 -41 8.5t-47 23.5q-20 11 -31.5 16t-21.5 5q-22 0 -39.5 -14.5t-26.5 -38.5h-64q19 57 55.5 87zM-14 17q44 14 81 21
l127 622q-39 9 -73 22l3 18h228l229 -511l96 472q-41 11 -72 21l4 18h212l-3 -18q-26 -8 -80 -21l-134 -661h-77l-283 621l-118 -583q30 -6 71 -21l-2 -17h-212z" />
    <glyph glyph-name="O" unicode="O" horiz-adv-x="735" 
d="M114.5 56q-69.5 66 -69.5 187q0 50 12 107q34 169 140.5 264.5t267.5 95.5q134 0 203.5 -67t69.5 -189q0 -53 -11 -104q-35 -169 -141.5 -264.5t-267.5 -95.5q-134 0 -203.5 66zM482.5 126q63.5 84 92.5 224q14 70 14 126q0 86 -33 134t-101 48q-91 0 -154 -84t-91 -224
q-15 -70 -15 -129q0 -85 33 -132t101 -47q90 0 153.5 84z" />
    <glyph glyph-name="Oacute" unicode="&#xd3;" horiz-adv-x="735" 
d="M382 821l143 126q35 35 68 35q19 0 28.5 -10t9.5 -24q0 -5 -1 -8q-3 -17 -17.5 -31.5t-41.5 -29.5l-172 -93zM114.5 56q-69.5 66 -69.5 187q0 50 12 107q34 169 140.5 264.5t267.5 95.5q134 0 203.5 -67t69.5 -189q0 -53 -11 -104q-35 -169 -141.5 -264.5t-267.5 -95.5
q-134 0 -203.5 66zM482.5 126q63.5 84 92.5 224q14 70 14 126q0 86 -33 134t-101 48q-91 0 -154 -84t-91 -224q-15 -70 -15 -129q0 -85 33 -132t101 -47q90 0 153.5 84z" />
    <glyph glyph-name="Obreve" unicode="&#x14e;" horiz-adv-x="735" 
d="M369.5 814.5q-38.5 33.5 -35.5 100.5h81q-1 -5 -1 -15q0 -40 21 -53.5t55 -13.5q38 0 65.5 16.5t42.5 65.5h82q-23 -67 -75.5 -100.5t-124.5 -33.5t-110.5 33.5zM114.5 56q-69.5 66 -69.5 187q0 50 12 107q34 169 140.5 264.5t267.5 95.5q134 0 203.5 -67t69.5 -189
q0 -53 -11 -104q-35 -169 -141.5 -264.5t-267.5 -95.5q-134 0 -203.5 66zM482.5 126q63.5 84 92.5 224q14 70 14 126q0 86 -33 134t-101 48q-91 0 -154 -84t-91 -224q-15 -70 -15 -129q0 -85 33 -132t101 -47q90 0 153.5 84z" />
    <glyph glyph-name="uni01D1" unicode="&#x1d1;" horiz-adv-x="735" 
d="M394.5 860q-39.5 47 -67.5 69l69 45q27 -26 55.5 -64t38.5 -64h4q23 26 68 64.5t81 63.5l50 -45q-38 -23 -97 -70t-81 -73h-69q-12 27 -51.5 74zM114.5 56q-69.5 66 -69.5 187q0 50 12 107q34 169 140.5 264.5t267.5 95.5q134 0 203.5 -67t69.5 -189q0 -53 -11 -104
q-35 -169 -141.5 -264.5t-267.5 -95.5q-134 0 -203.5 66zM482.5 126q63.5 84 92.5 224q14 70 14 126q0 86 -33 134t-101 48q-91 0 -154 -84t-91 -224q-15 -70 -15 -129q0 -85 33 -132t101 -47q90 0 153.5 84z" />
    <glyph glyph-name="Ocircumflex" unicode="&#xd4;" horiz-adv-x="735" 
d="M306 829q37 21 96 68.5t81 74.5h69q12 -27 52 -74.5t68 -68.5l-69 -46q-26 26 -55 64.5t-41 64.5h-4q-20 -25 -64 -63t-82 -66zM114.5 56q-69.5 66 -69.5 187q0 50 12 107q34 169 140.5 264.5t267.5 95.5q134 0 203.5 -67t69.5 -189q0 -53 -11 -104
q-35 -169 -141.5 -264.5t-267.5 -95.5q-134 0 -203.5 66zM482.5 126q63.5 84 92.5 224q14 70 14 126q0 86 -33 134t-101 48q-91 0 -154 -84t-91 -224q-15 -70 -15 -129q0 -85 33 -132t101 -47q90 0 153.5 84z" />
    <glyph glyph-name="uni1ED0" unicode="&#x1ed0;" horiz-adv-x="735" 
d="M628 953l90 88q46 44 78 44q18 0 27.5 -9.5t9.5 -22.5q0 -20 -20 -40t-55 -37l-113 -54zM306 829q37 22 96.5 69.5t81.5 73.5h69q12 -27 51.5 -74.5t67.5 -68.5l-69 -46q-26 26 -54.5 64.5t-40.5 64.5h-4q-21 -26 -65.5 -64t-81.5 -65zM114.5 56q-69.5 66 -69.5 187
q0 50 12 107q34 169 140.5 264.5t267.5 95.5q134 0 203.5 -67t69.5 -189q0 -53 -11 -104q-35 -169 -141.5 -264.5t-267.5 -95.5q-134 0 -203.5 66zM482.5 126q63.5 84 92.5 224q14 70 14 126q0 86 -33 134t-101 48q-91 0 -154 -84t-91 -224q-15 -70 -15 -129q0 -85 33 -132
t101 -47q90 0 153.5 84z" />
    <glyph glyph-name="uni1ED8" unicode="&#x1ed8;" horiz-adv-x="735" 
d="M306 829q37 21 96 68.5t81 74.5h69q12 -27 52 -74.5t68 -68.5l-69 -46q-26 26 -55 64.5t-41 64.5h-4q-20 -25 -64 -63t-82 -66zM114.5 56q-69.5 66 -69.5 187q0 50 12 107q34 169 140.5 264.5t267.5 95.5q134 0 203.5 -67t69.5 -189q0 -53 -11 -104
q-35 -169 -141.5 -264.5t-267.5 -95.5q-134 0 -203.5 66zM482.5 126q63.5 84 92.5 224q14 70 14 126q0 86 -33 134t-101 48q-91 0 -154 -84t-91 -224q-15 -70 -15 -129q0 -85 33 -132t101 -47q90 0 153.5 84zM250 -165.5q-13 12.5 -13 33.5q0 4 2 16q5 27 24.5 44.5
t46.5 17.5q23 0 35.5 -13t12.5 -35q0 -9 -1 -14q-6 -27 -26 -44.5t-46 -17.5q-22 0 -35 12.5z" />
    <glyph glyph-name="uni1ED2" unicode="&#x1ed2;" horiz-adv-x="735" 
d="M279 976q-46 27 -46 60q0 18 14 33.5t38 15.5q33 0 61 -44l54 -88l-29 -31zM306 829q37 22 96.5 69.5t81.5 73.5h69q12 -27 51.5 -74.5t67.5 -68.5l-69 -46q-26 26 -54.5 64.5t-40.5 64.5h-4q-21 -26 -65.5 -64t-81.5 -65zM114.5 56q-69.5 66 -69.5 187q0 50 12 107
q34 169 140.5 264.5t267.5 95.5q134 0 203.5 -67t69.5 -189q0 -53 -11 -104q-35 -169 -141.5 -264.5t-267.5 -95.5q-134 0 -203.5 66zM482.5 126q63.5 84 92.5 224q14 70 14 126q0 86 -33 134t-101 48q-91 0 -154 -84t-91 -224q-15 -70 -15 -129q0 -85 33 -132t101 -47
q90 0 153.5 84z" />
    <glyph glyph-name="uni1ED4" unicode="&#x1ed4;" horiz-adv-x="735" 
d="M638 1014h32q20 0 36.5 11t20.5 34q1 3 1 9q0 14 -11 22.5t-33 8.5q-26 0 -55 -12l2 36q38 15 75 15q38 0 63 -15.5t25 -47.5q0 -5 -2 -17q-8 -37 -32.5 -54.5t-62.5 -20.5l-19 -48h-51zM307 831q37 22 96.5 69.5t80.5 73.5h70q12 -27 51.5 -74.5t67.5 -68.5l-69 -46
q-26 26 -55 64.5t-41 64.5h-3q-21 -26 -65.5 -64t-81.5 -65zM114.5 56q-69.5 66 -69.5 187q0 50 12 107q34 169 140.5 264.5t267.5 95.5q134 0 203.5 -67t69.5 -189q0 -53 -11 -104q-35 -169 -141.5 -264.5t-267.5 -95.5q-134 0 -203.5 66zM482.5 126q63.5 84 92.5 224
q14 70 14 126q0 86 -33 134t-101 48q-91 0 -154 -84t-91 -224q-15 -70 -15 -129q0 -85 33 -132t101 -47q90 0 153.5 84z" />
    <glyph glyph-name="uni1ED6" unicode="&#x1ed6;" horiz-adv-x="735" 
d="M404 1089.5q35 28.5 83 28.5q26 0 43 -8t37 -23q13 -10 22 -15t20 -5q21 0 43 12t35 42h49q-17 -55 -51.5 -85.5t-86.5 -30.5q-20 0 -36.5 7.5t-35.5 20.5q-17 12 -29.5 17.5t-25.5 5.5q-23 0 -42.5 -14t-28.5 -38h-50q19 57 54 85.5zM306 829q37 22 96.5 69.5t81.5 73.5
h69q12 -27 51.5 -74.5t67.5 -68.5l-69 -46q-26 26 -54.5 64.5t-40.5 64.5h-4q-21 -26 -65.5 -64t-81.5 -65zM114.5 56q-69.5 66 -69.5 187q0 50 12 107q34 169 140.5 264.5t267.5 95.5q134 0 203.5 -67t69.5 -189q0 -53 -11 -104q-35 -169 -141.5 -264.5t-267.5 -95.5
q-134 0 -203.5 66zM482.5 126q63.5 84 92.5 224q14 70 14 126q0 86 -33 134t-101 48q-91 0 -154 -84t-91 -224q-15 -70 -15 -129q0 -85 33 -132t101 -47q90 0 153.5 84z" />
    <glyph glyph-name="Odieresis" unicode="&#xd6;" horiz-adv-x="735" 
d="M329.5 798q-12.5 13 -12.5 34q0 31 21.5 54t50.5 23q23 0 36 -13t13 -34q0 -32 -21.5 -54.5t-52.5 -22.5q-22 0 -34.5 13zM559 797.5q-12 12.5 -12 32.5q0 33 20.5 56t52.5 23q23 0 35.5 -13t12.5 -35q0 -9 -1 -14q-6 -27 -26 -44.5t-47 -17.5q-23 0 -35 12.5zM114.5 56
q-69.5 66 -69.5 187q0 50 12 107q34 169 140.5 264.5t267.5 95.5q134 0 203.5 -67t69.5 -189q0 -53 -11 -104q-35 -169 -141.5 -264.5t-267.5 -95.5q-134 0 -203.5 66zM482.5 126q63.5 84 92.5 224q14 70 14 126q0 86 -33 134t-101 48q-91 0 -154 -84t-91 -224
q-15 -70 -15 -129q0 -85 33 -132t101 -47q90 0 153.5 84z" />
    <glyph glyph-name="uni1ECC" unicode="&#x1ecc;" horiz-adv-x="735" 
d="M197.5 614.5q106.5 95.5 267.5 95.5q134 0 203.5 -67t69.5 -189q0 -53 -11 -104q-35 -169 -141.5 -264.5t-267.5 -95.5q-134 0 -203.5 66t-69.5 187q0 50 12 107q34 169 140.5 264.5zM195 221q0 -85 33 -132t101 -47q90 0 153.5 84t92.5 224q14 70 14 126q0 86 -33 134
t-101 48q-91 0 -154 -84t-91 -224q-15 -70 -15 -129zM263.5 -71.5q19.5 17.5 46.5 17.5q23 0 35.5 -13t12.5 -35q0 -9 -1 -14q-6 -27 -26 -44.5t-46 -17.5q-22 0 -35 12.5t-13 33.5q0 4 2 16q5 27 24.5 44.5z" />
    <glyph glyph-name="Ograve" unicode="&#xd2;" horiz-adv-x="735" 
d="M427 879q-37 26 -37 53l1 8q3 16 18 29t38 13q21 0 34.5 -11.5t19.5 -22.5l92 -127l-31 -35zM114.5 56q-69.5 66 -69.5 187q0 50 12 107q34 169 140.5 264.5t267.5 95.5q134 0 203.5 -67t69.5 -189q0 -53 -11 -104q-35 -169 -141.5 -264.5t-267.5 -95.5q-134 0 -203.5 66
zM482.5 126q63.5 84 92.5 224q14 70 14 126q0 86 -33 134t-101 48q-91 0 -154 -84t-91 -224q-15 -70 -15 -129q0 -85 33 -132t101 -47q90 0 153.5 84z" />
    <glyph glyph-name="uni1ECE" unicode="&#x1ece;" horiz-adv-x="735" 
d="M471 887h37q22 0 41 13t25 39q1 3 1 9q0 17 -13.5 28.5t-37.5 11.5q-32 0 -63 -16l1 39q17 8 40.5 13t46.5 5q42 0 70.5 -18t28.5 -54q0 -5 -2 -19q-15 -77 -109 -86l-24 -69h-59zM114.5 56q-69.5 66 -69.5 187q0 50 12 107q34 169 140.5 264.5t267.5 95.5
q134 0 203.5 -67t69.5 -189q0 -53 -11 -104q-35 -169 -141.5 -264.5t-267.5 -95.5q-134 0 -203.5 66zM482.5 126q63.5 84 92.5 224q14 70 14 126q0 86 -33 134t-101 48q-91 0 -154 -84t-91 -224q-15 -70 -15 -129q0 -85 33 -132t101 -47q90 0 153.5 84z" />
    <glyph glyph-name="Ohorn" unicode="&#x1a0;" horiz-adv-x="780" 
d="M894 686q0 -16 -3 -28q-8 -39 -46 -84.5t-108 -91.5q1 -10 1 -30q0 -52 -11 -102q-35 -169 -141.5 -264.5t-267.5 -95.5q-134 0 -203.5 66t-69.5 187q0 50 12 107q34 169 140.5 264.5t267.5 95.5q112 0 179 -47t87 -135q63 50 79 87q-9 -3 -16 -3q-23 0 -35.5 12
t-12.5 34q0 28 20 55.5t66 27.5q62 0 62 -55zM589 476q0 86 -33 134t-101 48q-91 0 -154 -84t-91 -224q-15 -70 -15 -129q0 -85 33 -132t101 -47q90 0 153.5 84t92.5 224q14 70 14 126z" />
    <glyph glyph-name="uni1EDA" unicode="&#x1eda;" horiz-adv-x="780" 
d="M400 785l-17 35l143 126q9 10 28 22.5t40 12.5q19 0 28.5 -10t9.5 -24q0 -5 -1 -8q-3 -17 -17.5 -31.5t-41.5 -29.5zM894 686q0 -16 -3 -28q-8 -39 -46 -84.5t-108 -91.5q1 -10 1 -30q0 -52 -11 -102q-35 -169 -141.5 -264.5t-267.5 -95.5q-134 0 -203.5 66t-69.5 187
q0 50 12 107q34 169 140.5 264.5t267.5 95.5q112 0 179 -47t87 -135q63 50 79 87q-9 -3 -16 -3q-23 0 -35.5 12t-12.5 34q0 28 20 55.5t66 27.5q62 0 62 -55zM589 476q0 86 -33 134t-101 48q-91 0 -154 -84t-91 -224q-15 -70 -15 -129q0 -85 33 -132t101 -47q90 0 153.5 84
t92.5 224q14 70 14 126z" />
    <glyph glyph-name="uni1EE2" unicode="&#x1ee2;" horiz-adv-x="780" 
d="M894 686q0 -16 -3 -28q-8 -39 -46 -84.5t-108 -91.5q1 -10 1 -30q0 -52 -11 -102q-35 -169 -141.5 -264.5t-267.5 -95.5q-134 0 -203.5 66t-69.5 187q0 50 12 107q34 169 140.5 264.5t267.5 95.5q112 0 179 -47t87 -135q63 50 79 87q-9 -3 -16 -3q-23 0 -35.5 12
t-12.5 34q0 28 20 55.5t66 27.5q62 0 62 -55zM589 476q0 86 -33 134t-101 48q-91 0 -154 -84t-91 -224q-15 -70 -15 -129q0 -85 33 -132t101 -47q90 0 153.5 84t92.5 224q14 70 14 126zM345.5 -67q12.5 -13 12.5 -35q0 -9 -1 -14q-6 -27 -26 -44.5t-46 -17.5q-22 0 -35 12.5
t-13 33.5q0 4 2 16q5 27 24.5 44.5t46.5 17.5q23 0 35.5 -13z" />
    <glyph glyph-name="uni1EDC" unicode="&#x1edc;" horiz-adv-x="780" 
d="M391 931l1 8q3 16 18 29t38 13q21 0 34.5 -11.5t19.5 -22.5l92 -127l-31 -35l-135 93q-37 26 -37 53zM894 686q0 -16 -3 -28q-8 -39 -46 -84.5t-108 -91.5q1 -10 1 -30q0 -52 -11 -102q-35 -169 -141.5 -264.5t-267.5 -95.5q-134 0 -203.5 66t-69.5 187q0 50 12 107
q34 169 140.5 264.5t267.5 95.5q112 0 179 -47t87 -135q63 50 79 87q-9 -3 -16 -3q-23 0 -35.5 12t-12.5 34q0 28 20 55.5t66 27.5q62 0 62 -55zM589 476q0 86 -33 134t-101 48q-91 0 -154 -84t-91 -224q-15 -70 -15 -129q0 -85 33 -132t101 -47q90 0 153.5 84t92.5 224
q14 70 14 126z" />
    <glyph glyph-name="uni1EDE" unicode="&#x1ede;" horiz-adv-x="780" 
d="M541.5 897q18.5 13 24.5 39q1 3 1 9q0 18 -13 29t-38 11q-33 0 -62 -16l1 39q40 18 86 18q43 0 71 -17.5t28 -53.5q0 -13 -2 -20q-14 -77 -108 -86l-24 -69h-60l17 104h37q23 0 41.5 13zM894 686q0 -16 -3 -28q-8 -39 -46 -84.5t-108 -91.5q1 -10 1 -30q0 -52 -11 -102
q-35 -169 -141.5 -264.5t-267.5 -95.5q-134 0 -203.5 66t-69.5 187q0 50 12 107q34 169 140.5 264.5t267.5 95.5q112 0 179 -47t87 -135q63 50 79 87q-9 -3 -16 -3q-23 0 -35.5 12t-12.5 34q0 28 20 55.5t66 27.5q62 0 62 -55zM589 476q0 86 -33 134t-101 48q-91 0 -154 -84
t-91 -224q-15 -70 -15 -129q0 -85 33 -132t101 -47q90 0 153.5 84t92.5 224q14 70 14 126z" />
    <glyph glyph-name="uni1EE0" unicode="&#x1ee0;" horiz-adv-x="780" 
d="M378.5 824.5q-17.5 -14.5 -25.5 -38.5h-64q19 58 55 87.5t86 29.5q26 0 45.5 -8t42.5 -23q17 -11 27.5 -16t21.5 -5q21 0 38.5 11.5t31.5 42.5h62q-17 -56 -52 -87.5t-88 -31.5q-20 0 -39 8t-48 23q-37 22 -54 22q-22 0 -39.5 -14.5zM894 686q0 -16 -3 -28
q-8 -39 -46 -84.5t-108 -91.5q1 -10 1 -30q0 -52 -11 -102q-35 -169 -141.5 -264.5t-267.5 -95.5q-134 0 -203.5 66t-69.5 187q0 50 12 107q34 169 140.5 264.5t267.5 95.5q112 0 179 -47t87 -135q63 50 79 87q-9 -3 -16 -3q-23 0 -35.5 12t-12.5 34q0 28 20 55.5t66 27.5
q62 0 62 -55zM589 476q0 86 -33 134t-101 48q-91 0 -154 -84t-91 -224q-15 -70 -15 -129q0 -85 33 -132t101 -47q90 0 153.5 84t92.5 224q14 70 14 126z" />
    <glyph glyph-name="Ohungarumlaut" unicode="&#x150;" horiz-adv-x="735" 
d="M316 820l142 126q8 9 27 21.5t40 12.5q20 0 30 -10t10 -23q0 -20 -15.5 -36.5t-45.5 -33.5l-172 -93zM525 820l143 126q16 14 32 24t36 10t29.5 -9.5t9.5 -22.5q0 -6 -1 -9q-3 -17 -18 -32t-42 -30l-173 -93zM114.5 56q-69.5 66 -69.5 187q0 50 12 107
q34 169 140.5 264.5t267.5 95.5q134 0 203.5 -67t69.5 -189q0 -53 -11 -104q-35 -169 -141.5 -264.5t-267.5 -95.5q-134 0 -203.5 66zM482.5 126q63.5 84 92.5 224q14 70 14 126q0 86 -33 134t-101 48q-91 0 -154 -84t-91 -224q-15 -70 -15 -129q0 -85 33 -132t101 -47
q90 0 153.5 84z" />
    <glyph glyph-name="Omacron" unicode="&#x14c;" horiz-adv-x="735" 
d="M304 838h373l-9 -48h-374zM114.5 56q-69.5 66 -69.5 187q0 50 12 107q34 169 140.5 264.5t267.5 95.5q134 0 203.5 -67t69.5 -189q0 -53 -11 -104q-35 -169 -141.5 -264.5t-267.5 -95.5q-134 0 -203.5 66zM482.5 126q63.5 84 92.5 224q14 70 14 126q0 86 -33 134t-101 48
q-91 0 -154 -84t-91 -224q-15 -70 -15 -129q0 -85 33 -132t101 -47q90 0 153.5 84z" />
    <glyph glyph-name="Oslash" unicode="&#xd8;" horiz-adv-x="735" 
d="M687 622q51 -63 51 -168q0 -53 -11 -104q-35 -169 -141.5 -264.5t-267.5 -95.5q-124 0 -195 59l-83 -85l-32 33l83 85q-46 61 -46 161q0 50 12 107q34 169 140.5 264.5t267.5 95.5q119 0 188 -54l68 69l35 -33zM195 216q0 -18 1 -27l378 386q-30 83 -119 83
q-91 0 -154 -84t-91 -224q-15 -73 -15 -134zM589 478q0 16 -2 42l-380 -386q29 -92 122 -92q90 0 153.5 84t92.5 224q14 72 14 128z" />
    <glyph glyph-name="Oslashacute" unicode="&#x1fe;" horiz-adv-x="735" 
d="M404 786l-17 35l143 126q9 10 28 22.5t40 12.5q19 0 28.5 -10t9.5 -24q0 -20 -15 -36t-45 -33zM687 622q51 -63 51 -168q0 -53 -11 -104q-35 -169 -141.5 -264.5t-267.5 -95.5q-124 0 -195 59l-83 -85l-32 33l83 85q-46 61 -46 161q0 50 12 107q34 169 140.5 264.5
t267.5 95.5q119 0 188 -54l68 69l35 -33zM195 216q0 -18 1 -27l378 386q-30 83 -119 83q-91 0 -154 -84t-91 -224q-15 -73 -15 -134zM589 478q0 16 -2 42l-380 -386q29 -92 122 -92q90 0 153.5 84t92.5 224q14 72 14 128z" />
    <glyph glyph-name="Otilde" unicode="&#xd5;" horiz-adv-x="735" 
d="M343.5 873q36.5 30 85.5 30q26 0 45.5 -8t42.5 -23q17 -11 27.5 -16t21.5 -5q21 0 38.5 11.5t31.5 42.5h62q-17 -56 -52 -87.5t-88 -31.5q-20 0 -39 8t-48 23q-37 22 -54 22q-21 0 -38.5 -14.5t-26.5 -38.5h-64q19 57 55.5 87zM114.5 56q-69.5 66 -69.5 187q0 50 12 107
q34 169 140.5 264.5t267.5 95.5q134 0 203.5 -67t69.5 -189q0 -53 -11 -104q-35 -169 -141.5 -264.5t-267.5 -95.5q-134 0 -203.5 66zM482.5 126q63.5 84 92.5 224q14 70 14 126q0 86 -33 134t-101 48q-91 0 -154 -84t-91 -224q-15 -70 -15 -129q0 -85 33 -132t101 -47
q90 0 153.5 84z" />
    <glyph glyph-name="OE" unicode="&#x152;" horiz-adv-x="1030" 
d="M106 61.5q-60 71.5 -60 186.5q0 47 11 102q20 97 69.5 178.5t129 131.5t183.5 50q54 0 93 -17.5t60 -49.5l12 57h467l-35 -177h-33q-5 13 -9 45t-4 59q0 17 1 23h-246l-55 -266h166q18 55 36 86h24l-45 -222h-24q-4 44 -2 86h-166l-57 -285h252q8 26 33 68t41 58h33
l-53 -175h-467l11 53q-40 -34 -82 -48.5t-98 -14.5q-126 0 -186 71.5zM415.5 66q40.5 24 71.5 65l90 436q-13 39 -45 65t-77 26q-90 0 -153 -84t-91 -224q-15 -70 -15 -129q0 -85 33 -132t100 -47q46 0 86.5 24z" />
    <glyph glyph-name="P" unicode="P" horiz-adv-x="619" 
d="M-20 20q22 7 45 12.5t35 7.5l127 620q-34 8 -71 21l4 19h336q108 0 155.5 -39t47.5 -109q0 -28 -6 -58q-13 -62 -48 -112.5t-91 -80.5t-128 -30h-128l-47 -232q22 -4 73 -21l-3 -18h-305zM357 320q57 0 94.5 49.5t53.5 126.5q6 32 6 58q0 96 -87 96h-88l-68 -330h89z" />
    <glyph glyph-name="Thorn" unicode="&#xde;" horiz-adv-x="618" 
d="M-20 20q23 7 45.5 12.5t34.5 7.5l127 620q-34 8 -71 21l4 19h225l-25 -124h126q188 0 188 -147q0 -28 -6 -58q-12 -62 -47 -112.5t-91 -80.5t-128 -30h-129l-22 -109q22 -4 73 -21l-3 -18h-305zM331 197q57 0 95 49.5t54 126.5q7 37 7 59q0 95 -88 95h-88l-68 -330h88z
" />
    <glyph glyph-name="Q" unicode="Q" horiz-adv-x="735" 
d="M668.5 643q69.5 -67 69.5 -189q0 -53 -11 -104q-29 -144 -112 -235.5t-209 -116.5q3 -47 39 -76t99 -34l-10 -47q-127 11 -196 50.5t-77 101.5q-106 14 -161 79t-55 172q0 49 12 106q34 169 140.5 264.5t267.5 95.5q134 0 203.5 -67zM589 476q0 86 -33 134t-101 48
q-90 0 -153.5 -84t-91.5 -224q-15 -69 -15 -128q0 -85 33 -132.5t101 -47.5q90 0 153.5 84t92.5 224q14 70 14 126z" />
    <glyph glyph-name="R" unicode="R" horiz-adv-x="692" 
d="M603 375q-51 -52 -126 -69l85 -267q46 -11 69 -21l-3 -18h-194l-86 299h-77l-52 -260q21 -4 72 -21l-3 -18h-306l4 20q23 7 46.5 12.5t35.5 7.5l127 620q-35 8 -72 21l3 19h365q99 0 142.5 -35.5t43.5 -101.5q0 -22 -7 -59q-16 -77 -67 -129zM527 559q0 91 -96 91h-88
l-62 -302h87q121 0 153 158q6 30 6 53z" />
    <glyph glyph-name="Racute" unicode="&#x154;" horiz-adv-x="692" 
d="M374 786l-17 35l143 126q35 35 68 35q19 0 28.5 -10t9.5 -24q0 -5 -1 -8q-3 -17 -17.5 -31.5t-41.5 -29.5zM603 375q-51 -52 -126 -69l85 -267q46 -11 69 -21l-3 -18h-194l-86 299h-77l-52 -260q21 -4 72 -21l-3 -18h-306l4 20q23 7 46.5 12.5t35.5 7.5l127 620
q-35 8 -72 21l3 19h365q99 0 142.5 -35.5t43.5 -101.5q0 -22 -7 -59q-16 -77 -67 -129zM527 559q0 91 -96 91h-88l-62 -302h87q121 0 153 158q6 30 6 53z" />
    <glyph glyph-name="Rcaron" unicode="&#x158;" horiz-adv-x="692" 
d="M371.5 859q-39.5 47 -67.5 70l69 45q27 -26 55.5 -64t38.5 -64h4q23 26 68 64.5t81 63.5l50 -45q-38 -23 -97 -70t-81 -73h-69q-12 26 -51.5 73zM603 375q-51 -52 -126 -69l85 -267q46 -11 69 -21l-3 -18h-194l-86 299h-77l-52 -260q21 -4 72 -21l-3 -18h-306l4 20
q23 7 46.5 12.5t35.5 7.5l127 620q-35 8 -72 21l3 19h365q99 0 142.5 -35.5t43.5 -101.5q0 -22 -7 -59q-16 -77 -67 -129zM527 559q0 91 -96 91h-88l-62 -302h87q121 0 153 158q6 30 6 53z" />
    <glyph glyph-name="Rcommaaccent" unicode="&#x156;" horiz-adv-x="692" 
d="M603 375q-51 -52 -126 -69l85 -267q46 -11 69 -21l-3 -18h-194l-86 299h-77l-52 -260q21 -4 72 -21l-3 -18h-306l4 20q23 7 46.5 12.5t35.5 7.5l127 620q-35 8 -72 21l3 19h365q99 0 142.5 -35.5t43.5 -101.5q0 -22 -7 -59q-16 -77 -67 -129zM527 559q0 91 -96 91h-88
l-62 -302h87q121 0 153 158q6 30 6 53zM346.5 -97q15.5 -16 15.5 -42q0 -6 -2 -20q-12 -56 -50.5 -114t-88.5 -95l-38 36q28 25 52.5 55t34.5 60q-25 2 -40.5 16t-15.5 38q0 36 26.5 59t59.5 23q31 0 46.5 -16z" />
    <glyph glyph-name="uni1E5A" unicode="&#x1e5a;" horiz-adv-x="692" 
d="M603 375q-51 -52 -126 -69l85 -267q46 -11 69 -21l-3 -18h-194l-86 299h-77l-52 -260q21 -4 72 -21l-3 -18h-306l4 20q23 7 46.5 12.5t35.5 7.5l127 620q-35 8 -72 21l3 19h365q99 0 142.5 -35.5t43.5 -101.5q0 -22 -7 -59q-16 -77 -67 -129zM527 559q0 91 -96 91h-88
l-62 -302h87q121 0 153 158q6 30 6 53zM328 -67.5q13 -13.5 13 -35.5q0 -8 -1 -13q-6 -27 -26 -44.5t-46 -17.5q-23 0 -35.5 13t-12.5 35q0 31 21 53.5t51 22.5q23 0 36 -13.5z" />
    <glyph glyph-name="uni1E5C" unicode="&#x1e5c;" horiz-adv-x="692" 
d="M627 785h-410l10 49h410zM603 375q-51 -52 -126 -69l85 -267q46 -11 69 -21l-3 -18h-194l-86 299h-77l-52 -260q21 -4 72 -21l-3 -18h-306l4 20q23 7 46.5 12.5t35.5 7.5l127 620q-35 8 -72 21l3 19h365q99 0 142.5 -35.5t43.5 -101.5q0 -22 -7 -59q-16 -77 -67 -129z
M527 559q0 91 -96 91h-88l-62 -302h87q121 0 153 158q6 30 6 53zM328 -67.5q13 -13.5 13 -35.5q0 -8 -1 -13q-6 -27 -26 -44.5t-46 -17.5q-23 0 -36 13t-13 34q0 32 21 54.5t52 22.5q23 0 36 -13.5z" />
    <glyph glyph-name="uni1E5E" unicode="&#x1e5e;" horiz-adv-x="692" 
d="M603 375q-51 -52 -126 -69l85 -267q46 -11 69 -21l-3 -18h-194l-86 299h-77l-52 -260q21 -4 72 -21l-3 -18h-306l4 20q23 7 46.5 12.5t35.5 7.5l127 620q-35 8 -72 21l3 19h365q99 0 142.5 -35.5t43.5 -101.5q0 -22 -7 -59q-16 -77 -67 -129zM527 559q0 91 -96 91h-88
l-62 -302h87q121 0 153 158q6 30 6 53zM81 -61h374l-11 -48h-373z" />
    <glyph glyph-name="S" unicode="S" horiz-adv-x="577" 
d="M88.5 16q-60.5 26 -84.5 69l44 146h34q1 -8 1 -27q0 -36 -8 -106q18 -25 51.5 -40.5t73.5 -15.5q64 0 114.5 34t63.5 98q3 14 3 25q0 30 -17 51.5t-42 36t-68 32.5q-51 21 -82 39.5t-53 49.5t-22 77q0 18 5 45q18 88 96.5 134t194.5 46q78 0 128.5 -17.5t81.5 -55.5
l-42 -137h-35q-2 15 -2 47q0 38 4 74q-16 18 -46.5 27.5t-67.5 9.5q-60 0 -101 -25.5t-52 -77.5q-2 -12 -2 -16q0 -34 27.5 -54.5t85.5 -46.5q54 -25 88 -45.5t58 -56.5t24 -88q0 -24 -6 -53q-13 -64 -57 -110.5t-109.5 -70.5t-140.5 -24q-80 0 -140.5 26z" />
    <glyph glyph-name="Sacute" unicode="&#x15a;" horiz-adv-x="577" 
d="M304 821l143 126q35 35 68 35q22 0 31.5 -13t6.5 -29q-4 -17 -18.5 -31.5t-41.5 -29.5l-172 -93zM88.5 16q-60.5 26 -84.5 69l44 146h34q1 -8 1 -27q0 -36 -8 -106q18 -25 51.5 -40.5t73.5 -15.5q64 0 114.5 34t63.5 98q3 14 3 25q0 30 -17 51.5t-42 36t-68 32.5
q-51 21 -82 39.5t-53 49.5t-22 77q0 18 5 45q18 88 96.5 134t194.5 46q78 0 128.5 -17.5t81.5 -55.5l-42 -137h-35q-2 15 -2 47q0 38 4 74q-16 18 -46.5 27.5t-67.5 9.5q-60 0 -101 -25.5t-52 -77.5q-2 -12 -2 -16q0 -34 27.5 -54.5t85.5 -46.5q54 -25 88 -45.5t58 -56.5
t24 -88q0 -24 -6 -53q-13 -64 -57 -110.5t-109.5 -70.5t-140.5 -24q-80 0 -140.5 26z" />
    <glyph glyph-name="Scaron" unicode="&#x160;" horiz-adv-x="577" 
d="M313.5 860q-39.5 47 -67.5 69l70 45q26 -26 54.5 -64.5t39.5 -63.5h3q23 26 68 64.5t81 63.5l50 -45q-38 -23 -97 -70t-80 -73h-70q-12 27 -51.5 74zM88.5 16q-60.5 26 -84.5 69l44 146h34q1 -8 1 -27q0 -36 -8 -106q18 -25 51.5 -40.5t73.5 -15.5q64 0 114.5 34t63.5 98
q3 14 3 25q0 30 -17 51.5t-42 36t-68 32.5q-51 21 -82 39.5t-53 49.5t-22 77q0 18 5 45q18 88 96.5 134t194.5 46q78 0 128.5 -17.5t81.5 -55.5l-42 -137h-35q-2 15 -2 47q0 38 4 74q-16 18 -46.5 27.5t-67.5 9.5q-60 0 -101 -25.5t-52 -77.5q-2 -12 -2 -16
q0 -34 27.5 -54.5t85.5 -46.5q54 -25 88 -45.5t58 -56.5t24 -88q0 -24 -6 -53q-13 -64 -57 -110.5t-109.5 -70.5t-140.5 -24q-80 0 -140.5 26z" />
    <glyph glyph-name="Scedilla" unicode="&#x15e;" horiz-adv-x="577" 
d="M524 547q0 38 4 74q-16 18 -46.5 27.5t-67.5 9.5q-60 0 -101 -25.5t-52 -77.5q-2 -12 -2 -16q0 -34 27.5 -54.5t85.5 -46.5q54 -25 88 -45.5t58 -56.5t24 -88q0 -24 -6 -53q-17 -87 -89 -140t-173 -63l-35 -52q50 0 74.5 -20t24.5 -50q0 -10 -1 -15q-11 -51 -56.5 -79
t-105.5 -28q-28 0 -56.5 8t-45.5 23l30 39q13 -8 32 -13t39 -5q78 0 90 55q4 23 -13 33t-43 10q-7 0 -23 -2l-17 34l41 60q-73 4 -128 29.5t-77 65.5l44 146h34q1 -8 1 -27q0 -36 -8 -106q18 -25 51.5 -40.5t73.5 -15.5q64 0 114.5 34t63.5 98q3 14 3 25q0 30 -17 51.5
t-42 36t-68 32.5q-51 21 -82 39.5t-53 49.5t-22 77q0 18 5 45q18 88 96.5 134t194.5 46q78 0 128.5 -17.5t81.5 -55.5l-42 -137h-35q-2 15 -2 47z" />
    <glyph glyph-name="Scircumflex" unicode="&#x15c;" horiz-adv-x="577" 
d="M226 829q37 21 96 68.5t81 74.5h69q12 -26 52 -73.5t68 -69.5l-69 -46q-26 26 -55 64.5t-41 64.5h-4q-20 -25 -64 -63t-82 -66zM88.5 16q-60.5 26 -84.5 69l44 146h34q1 -8 1 -27q0 -36 -8 -106q18 -25 51.5 -40.5t73.5 -15.5q64 0 114.5 34t63.5 98q3 14 3 25
q0 30 -17 51.5t-42 36t-68 32.5q-51 21 -82 39.5t-53 49.5t-22 77q0 18 5 45q18 88 96.5 134t194.5 46q78 0 128.5 -17.5t81.5 -55.5l-42 -137h-35q-2 15 -2 47q0 38 4 74q-16 18 -46.5 27.5t-67.5 9.5q-60 0 -101 -25.5t-52 -77.5q-2 -12 -2 -16q0 -34 27.5 -54.5
t85.5 -46.5q54 -25 88 -45.5t58 -56.5t24 -88q0 -24 -6 -53q-13 -64 -57 -110.5t-109.5 -70.5t-140.5 -24q-80 0 -140.5 26z" />
    <glyph glyph-name="Scommaaccent" unicode="&#x218;" horiz-adv-x="577" 
d="M88.5 16q-60.5 26 -84.5 69l44 146h34q1 -8 1 -27q0 -36 -8 -106q18 -25 51.5 -40.5t73.5 -15.5q64 0 114.5 34t63.5 98q3 14 3 25q0 30 -17 51.5t-42 36t-68 32.5q-51 21 -82 39.5t-53 49.5t-22 77q0 18 5 45q18 88 96.5 134t194.5 46q78 0 128.5 -17.5t81.5 -55.5
l-42 -137h-35q-2 15 -2 47q0 38 4 74q-16 18 -46.5 27.5t-67.5 9.5q-60 0 -101 -25.5t-52 -77.5q-2 -12 -2 -16q0 -34 27.5 -54.5t85.5 -46.5q54 -25 88 -45.5t58 -56.5t24 -88q0 -24 -6 -53q-13 -64 -57 -110.5t-109.5 -70.5t-140.5 -24q-80 0 -140.5 26zM113 -308
q27 24 53 56t36 63q-10 0 -18 4q-17 5 -28 19t-11 32q0 36 26.5 59t59.5 23q31 0 47 -16t16 -42q0 -6 -2 -20q-11 -56 -51 -116.5t-89 -97.5z" />
    <glyph glyph-name="uni1E60" unicode="&#x1e60;" horiz-adv-x="577" 
d="M380.5 797.5q-12.5 12.5 -12.5 33.5q0 32 21 55t52 23q23 0 35.5 -13t12.5 -34q0 -32 -21.5 -54.5t-52.5 -22.5q-22 0 -34.5 12.5zM88.5 16q-60.5 26 -84.5 69l44 146h34q1 -8 1 -27q0 -36 -8 -106q18 -25 51.5 -40.5t73.5 -15.5q64 0 114.5 34t63.5 98q3 14 3 25
q0 30 -17 51.5t-42 36t-68 32.5q-51 21 -82 39.5t-53 49.5t-22 77q0 18 5 45q18 88 96.5 134t194.5 46q78 0 128.5 -17.5t81.5 -55.5l-42 -137h-35q-2 15 -2 47q0 38 4 74q-16 18 -46.5 27.5t-67.5 9.5q-60 0 -101 -25.5t-52 -77.5q-2 -12 -2 -16q0 -34 27.5 -54.5
t85.5 -46.5q54 -25 88 -45.5t58 -56.5t24 -88q0 -24 -6 -53q-13 -64 -57 -110.5t-109.5 -70.5t-140.5 -24q-80 0 -140.5 26z" />
    <glyph glyph-name="uni1E62" unicode="&#x1e62;" horiz-adv-x="577" 
d="M88.5 16q-60.5 26 -84.5 69l44 146h34q1 -8 1 -27q0 -36 -8 -106q18 -25 51.5 -40.5t73.5 -15.5q64 0 114.5 34t63.5 98q3 14 3 25q0 30 -17 51.5t-42 36t-68 32.5q-51 21 -82 39.5t-53 49.5t-22 77q0 18 5 45q18 88 96.5 134t194.5 46q78 0 128.5 -17.5t81.5 -55.5
l-42 -137h-35q-2 15 -2 47q0 38 4 74q-16 18 -46.5 27.5t-67.5 9.5q-60 0 -101 -25.5t-52 -77.5q-2 -12 -2 -16q0 -34 27.5 -54.5t85.5 -46.5q54 -25 88 -45.5t58 -56.5t24 -88q0 -24 -6 -53q-13 -64 -57 -110.5t-109.5 -70.5t-140.5 -24q-80 0 -140.5 26zM177 -165.5
q-13 12.5 -13 33.5q0 4 2 16q5 27 24.5 44.5t46.5 17.5q23 0 35.5 -13t12.5 -35q0 -9 -1 -14q-6 -27 -26 -44.5t-46 -17.5q-22 0 -35 12.5z" />
    <glyph glyph-name="uni1E9E" unicode="&#x1e9e;" horiz-adv-x="737" 
d="M280 5l11 52q50 -18 105 -18q59 0 101 45.5t58 121.5q5 25 5 43q0 49 -28.5 78t-83.5 29h-88l5 26l212 188q-10 39 -43 63.5t-86 24.5q-58 0 -96.5 -34.5t-51.5 -98.5l-99 -485q36 -9 46 -14l-4 -26h-275l4 20l81 20l91 444q22 109 101 167.5t217 58.5q71 0 122 -23
t78.5 -59t31.5 -75l-172 -152q88 -12 136.5 -53.5t48.5 -105.5q0 -20 -4 -36q-12 -60 -51 -109t-105.5 -78t-157.5 -29q-64 0 -109 15z" />
    <glyph glyph-name="uni018F" unicode="&#x18f;" horiz-adv-x="729" 
d="M589 675.5q70 -34.5 106 -96.5t36 -146q0 -42 -9 -89q-35 -171 -149 -262.5t-279 -91.5q-130 0 -192.5 64t-62.5 171q0 42 9 87l6 34h521q6 39 6 77q0 103 -47 168.5t-140 65.5q-64 0 -123 -17t-131 -60l-10 49q128 81 289 81q100 0 170 -34.5zM465.5 111.5
q68.5 72.5 98.5 182.5h-374q-9 -43 -9 -88q0 -73 29 -120t90 -47q97 0 165.5 72.5z" />
    <glyph glyph-name="T" unicode="T" horiz-adv-x="651" 
d="M124 20l54 13q22 4 33 7l125 610h-151q-8 -26 -31.5 -80t-36.5 -69h-33l40 199h593l-41 -199h-32q-4 11 -6.5 40.5t-2.5 62.5q0 36 2 46h-151l-124 -611q35 -6 79 -21l-3 -18h-318z" />
    <glyph glyph-name="Tbar" unicode="&#x166;" horiz-adv-x="651" 
d="M717 700l-41 -199h-32q-4 11 -6.5 40.5t-2.5 62.5q0 36 2 46h-151l-62 -304h144l-11 -49h-143l-52 -258q35 -6 79 -21l-3 -18h-318l4 20l54 13q22 4 33 7l53 257h-132l11 49h131l62 304h-151q-8 -26 -31.5 -80t-36.5 -69h-33l40 199h593z" />
    <glyph glyph-name="Tcaron" unicode="&#x164;" horiz-adv-x="651" 
d="M350.5 859q-39.5 47 -67.5 70l69 45q27 -26 55.5 -64t38.5 -64h4q23 26 68 64.5t81 63.5l50 -45q-38 -23 -97 -70t-81 -73h-69q-12 26 -51.5 73zM124 20l54 13q22 4 33 7l125 610h-151q-8 -26 -31.5 -80t-36.5 -69h-33l40 199h593l-41 -199h-32q-4 11 -6.5 40.5
t-2.5 62.5q0 36 2 46h-151l-124 -611q35 -6 79 -21l-3 -18h-318z" />
    <glyph glyph-name="uni0162" unicode="&#x162;" horiz-adv-x="651" 
d="M717 700l-41 -199h-32q-4 11 -6.5 40.5t-2.5 62.5q0 36 2 46h-151l-124 -611q35 -6 79 -21l-3 -18h-138l-41 -60l13 -1q45 -3 65.5 -21.5t20.5 -47.5q0 -10 -1 -15q-11 -51 -56.5 -79t-104.5 -28q-29 0 -57.5 8t-46.5 23l31 39q12 -8 31.5 -13t40.5 -5q34 0 58.5 13
t30.5 42q1 3 1 9q0 18 -17 26t-41 8q-7 0 -23 -2l-17 34l48 70h-115l4 20l54 13q22 4 33 7l125 610h-151q-8 -26 -31.5 -80t-36.5 -69h-33l40 199h593z" />
    <glyph glyph-name="uni021A" unicode="&#x21a;" horiz-adv-x="651" 
d="M124 20l54 13q22 4 33 7l125 610h-151q-8 -26 -31.5 -80t-36.5 -69h-33l40 199h593l-41 -199h-32q-4 11 -6.5 40.5t-2.5 62.5q0 36 2 46h-151l-124 -611q35 -6 79 -21l-3 -18h-318zM143 -332q28 25 52.5 55t34.5 60q-26 2 -41 16.5t-15 39.5q0 8 1 13q7 30 31 48.5
t54 18.5q31 0 46 -15.5t15 -41.5q0 -14 -2 -21q-11 -56 -50 -113.5t-88 -95.5z" />
    <glyph glyph-name="uni1E6C" unicode="&#x1e6c;" horiz-adv-x="651" 
d="M124 20l54 13q22 4 33 7l125 610h-151q-8 -26 -31.5 -80t-36.5 -69h-33l40 199h593l-41 -199h-32q-4 11 -6.5 40.5t-2.5 62.5q0 36 2 46h-151l-124 -611q35 -6 79 -21l-3 -18h-318zM207 -165.5q-13 12.5 -13 33.5q0 4 2 16q5 27 24.5 44.5t46.5 17.5q23 0 35.5 -13.5
t12.5 -35.5q0 -8 -1 -13q-6 -27 -26 -44.5t-46 -17.5q-22 0 -35 12.5z" />
    <glyph glyph-name="uni1E6E" unicode="&#x1e6e;" horiz-adv-x="651" 
d="M124 20l54 13q22 4 33 7l125 610h-151q-8 -26 -31.5 -80t-36.5 -69h-33l40 199h593l-41 -199h-32q-4 11 -6.5 40.5t-2.5 62.5q0 36 2 46h-151l-124 -611q35 -6 79 -21l-3 -18h-318zM79 -61h374l-11 -48h-373z" />
    <glyph glyph-name="U" unicode="U" horiz-adv-x="770" 
d="M93 160q0 22 7 60l90 440q-42 9 -73 22l4 18h304l-4 -20q-18 -6 -58 -16q-6 -1 -23 -5l-93 -453q-5 -28 -5 -46q0 -63 40.5 -90.5t107.5 -27.5q78 0 137 39t76 125l93 455q-42 9 -74 21l4 18h215l-4 -18q-55 -19 -82 -23l-90 -439q-23 -114 -104.5 -172t-218.5 -58
q-249 0 -249 170z" />
    <glyph glyph-name="Uacute" unicode="&#xda;" horiz-adv-x="770" 
d="M437 821l143 126q35 35 69 35q19 0 28.5 -10t9.5 -24q0 -20 -15 -36t-45 -33l-172 -93zM93 160q0 22 7 60l90 440q-42 9 -73 22l4 18h304l-4 -20q-18 -6 -58 -16q-6 -1 -23 -5l-93 -453q-5 -28 -5 -46q0 -63 40.5 -90.5t107.5 -27.5q78 0 137 39t76 125l93 455
q-42 9 -74 21l4 18h215l-4 -18q-55 -19 -82 -23l-90 -439q-23 -114 -104.5 -172t-218.5 -58q-249 0 -249 170z" />
    <glyph glyph-name="Ubreve" unicode="&#x16c;" horiz-adv-x="770" 
d="M396 814.5q-38 33.5 -35 100.5h81q-1 -5 -1 -15q0 -40 21 -53.5t55 -13.5q37 0 65 16.5t43 65.5h82q-23 -67 -75.5 -100.5t-124.5 -33.5q-73 0 -111 33.5zM93 160q0 22 7 60l90 440q-42 9 -73 22l4 18h304l-4 -20q-18 -6 -58 -16q-6 -1 -23 -5l-93 -453q-5 -28 -5 -46
q0 -63 40.5 -90.5t107.5 -27.5q78 0 137 39t76 125l93 455q-42 9 -74 21l4 18h215l-4 -18q-55 -19 -82 -23l-90 -439q-23 -114 -104.5 -172t-218.5 -58q-249 0 -249 170z" />
    <glyph glyph-name="uni01D3" unicode="&#x1d3;" horiz-adv-x="770" 
d="M409.5 860q-39.5 47 -67.5 69l70 45q26 -26 54.5 -64t39.5 -64h3q23 26 68 64.5t81 63.5l50 -45q-38 -23 -97 -70t-80 -73h-70q-12 27 -51.5 74zM93 160q0 22 7 60l90 440q-42 9 -73 22l4 18h304l-4 -20q-18 -6 -58 -16q-6 -1 -23 -5l-93 -453q-5 -28 -5 -46
q0 -63 40.5 -90.5t107.5 -27.5q78 0 137 39t76 125l93 455q-42 9 -74 21l4 18h215l-4 -18q-55 -19 -82 -23l-90 -439q-23 -114 -104.5 -172t-218.5 -58q-249 0 -249 170z" />
    <glyph glyph-name="Ucircumflex" unicode="&#xdb;" horiz-adv-x="770" 
d="M324 829q37 21 96 68.5t81 74.5h69q12 -27 52 -74.5t68 -68.5l-69 -46q-26 26 -55 64.5t-41 64.5h-4q-20 -25 -64 -63t-82 -66zM93 160q0 22 7 60l90 440q-42 9 -73 22l4 18h304l-4 -20q-18 -6 -58 -16q-6 -1 -23 -5l-93 -453q-5 -28 -5 -46q0 -63 40.5 -90.5
t107.5 -27.5q78 0 137 39t76 125l93 455q-42 9 -74 21l4 18h215l-4 -18q-55 -19 -82 -23l-90 -439q-23 -114 -104.5 -172t-218.5 -58q-249 0 -249 170z" />
    <glyph glyph-name="Udieresis" unicode="&#xdc;" horiz-adv-x="770" 
d="M369.5 797.5q-12.5 12.5 -12.5 33.5q0 4 2 16q5 27 24.5 44.5t45.5 17.5q23 0 35.5 -13t12.5 -35q0 -9 -1 -14q-6 -27 -26 -44.5t-47 -17.5q-21 0 -33.5 12.5zM598.5 797.5q-12.5 12.5 -12.5 33.5q0 32 21.5 55t51.5 23q23 0 36 -13t13 -34q0 -32 -22 -54.5t-53 -22.5
q-22 0 -34.5 12.5zM93 160q0 22 7 60l90 440q-42 9 -73 22l4 18h304l-4 -20q-18 -6 -58 -16q-6 -1 -23 -5l-93 -453q-5 -28 -5 -46q0 -63 40.5 -90.5t107.5 -27.5q78 0 137 39t76 125l93 455q-42 9 -74 21l4 18h215l-4 -18q-55 -19 -82 -23l-90 -439q-23 -114 -104.5 -172
t-218.5 -58q-249 0 -249 170z" />
    <glyph glyph-name="uni01D7" unicode="&#x1d7;" horiz-adv-x="770" 
d="M484 986l135 120q35 35 67 35q20 0 29.5 -10.5t9.5 -24.5q0 -5 -1 -8q-6 -32 -59 -61l-163 -86zM371 797.5q-12 12.5 -12 32.5q0 5 2 17q5 26 24.5 44t46.5 18q23 0 35.5 -13.5t12.5 -35.5q0 -9 -1 -13q-6 -27 -26 -44.5t-47 -17.5q-23 0 -35 12.5zM601.5 797.5
q-12.5 12.5 -12.5 33.5q0 31 21 54.5t52 23.5q23 0 36 -13t13 -34q0 -5 -2 -15q-6 -27 -26 -44.5t-47 -17.5q-22 0 -34.5 12.5zM93 160q0 22 7 60l90 440q-42 9 -73 22l4 18h304l-4 -20q-18 -6 -58 -16q-6 -1 -23 -5l-93 -453q-5 -28 -5 -46q0 -63 40.5 -90.5t107.5 -27.5
q78 0 137 39t76 125l93 455q-42 9 -74 21l4 18h215l-4 -18q-55 -19 -82 -23l-90 -439q-23 -114 -104.5 -172t-218.5 -58q-249 0 -249 170z" />
    <glyph glyph-name="uni01D9" unicode="&#x1d9;" horiz-adv-x="770" 
d="M463 1001q-39 40 -68 60l65 46q27 -23 56.5 -58t40.5 -58h4q20 23 64 57.5t81 58.5l46 -46q-38 -21 -93 -60.5t-76 -63.5h-69q-12 24 -51 64zM366.5 797.5q-12.5 12.5 -12.5 33.5q0 32 21 54.5t52 22.5q23 0 36 -13t13 -34q0 -32 -21.5 -54t-52.5 -22q-23 0 -35.5 12.5z
M597.5 797q-12.5 12 -12.5 33q0 4 2 16q5 27 24.5 44.5t46.5 17.5q23 0 35.5 -13.5t12.5 -35.5q0 -8 -1 -13q-6 -27 -25.5 -44t-46.5 -17q-23 0 -35.5 12zM93 160q0 22 7 60l90 440q-42 9 -73 22l4 18h304l-4 -20q-18 -6 -58 -16q-6 -1 -23 -5l-93 -453q-5 -28 -5 -46
q0 -63 40.5 -90.5t107.5 -27.5q78 0 137 39t76 125l93 455q-42 9 -74 21l4 18h215l-4 -18q-55 -19 -82 -23l-90 -439q-23 -114 -104.5 -172t-218.5 -58q-249 0 -249 170z" />
    <glyph glyph-name="uni01DB" unicode="&#x1db;" horiz-adv-x="770" 
d="M447 1014q-36 24 -36 52q0 6 1 9q3 16 18 28t38 12q31 0 54 -34l75 -109l-31 -36zM370.5 797q-12.5 12 -12.5 33q0 4 2 16q5 27 24.5 44.5t46.5 17.5q23 0 35.5 -13.5t12.5 -35.5q0 -8 -1 -13q-6 -27 -25.5 -44t-46.5 -17q-23 0 -35.5 12zM601 797.5q-13 12.5 -13 32.5
q0 32 21.5 55t51.5 23q23 0 36 -13t13 -34q0 -5 -2 -15q-6 -27 -25.5 -44t-46.5 -17q-22 0 -35 12.5zM93 160q0 22 7 60l90 440q-42 9 -73 22l4 18h304l-4 -20q-18 -6 -58 -16q-6 -1 -23 -5l-93 -453q-5 -28 -5 -46q0 -63 40.5 -90.5t107.5 -27.5q78 0 137 39t76 125l93 455
q-42 9 -74 21l4 18h215l-4 -18q-55 -19 -82 -23l-90 -439q-23 -114 -104.5 -172t-218.5 -58q-249 0 -249 170z" />
    <glyph glyph-name="uni01D5" unicode="&#x1d5;" horiz-adv-x="770" 
d="M383 1019h369l-9 -48h-370zM371 797.5q-12 12.5 -12 32.5q0 5 2 17q5 26 24.5 44t46.5 18q23 0 35.5 -13.5t12.5 -35.5q0 -9 -1 -13q-6 -27 -26 -44.5t-47 -17.5q-23 0 -35 12.5zM601.5 797.5q-12.5 12.5 -12.5 33.5q0 31 21 54.5t52 23.5q23 0 36 -13t13 -34
q0 -5 -2 -15q-6 -27 -26 -44.5t-47 -17.5q-22 0 -34.5 12.5zM93 160q0 22 7 60l90 440q-42 9 -73 22l4 18h304l-4 -20q-18 -6 -58 -16q-6 -1 -23 -5l-93 -453q-5 -28 -5 -46q0 -63 40.5 -90.5t107.5 -27.5q78 0 137 39t76 125l93 455q-42 9 -74 21l4 18h215l-4 -18
q-55 -19 -82 -23l-90 -439q-23 -114 -104.5 -172t-218.5 -58q-249 0 -249 170z" />
    <glyph glyph-name="uni1EE4" unicode="&#x1ee4;" horiz-adv-x="770" 
d="M93 160q0 22 7 60l90 440q-42 9 -73 22l4 18h304l-4 -20q-18 -6 -58 -16q-6 -1 -23 -5l-93 -453q-5 -28 -5 -46q0 -63 40.5 -90.5t107.5 -27.5q78 0 137 39t76 125l93 455q-42 9 -74 21l4 18h215l-4 -18q-55 -19 -82 -23l-90 -439q-23 -114 -104.5 -172t-218.5 -58
q-249 0 -249 170zM283.5 -164.5q-12.5 13.5 -12.5 34.5q0 31 21 53.5t51 22.5q23 0 36 -13t13 -34q0 -32 -21.5 -54.5t-52.5 -22.5q-22 0 -34.5 13.5z" />
    <glyph glyph-name="Ugrave" unicode="&#xd9;" horiz-adv-x="770" 
d="M453 879q-37 26 -37 52q0 17 15 34t42 17q21 0 34.5 -11.5t19.5 -22.5l92 -127l-31 -35zM93 160q0 22 7 60l90 440q-42 9 -73 22l4 18h304l-4 -20q-18 -6 -58 -16q-6 -1 -23 -5l-93 -453q-5 -28 -5 -46q0 -63 40.5 -90.5t107.5 -27.5q78 0 137 39t76 125l93 455
q-42 9 -74 21l4 18h215l-4 -18q-55 -19 -82 -23l-90 -439q-23 -114 -104.5 -172t-218.5 -58q-249 0 -249 170z" />
    <glyph glyph-name="uni1EE6" unicode="&#x1ee6;" horiz-adv-x="770" 
d="M517 887h37q22 0 41 13t25 39q1 3 1 9q0 17 -13.5 28.5t-37.5 11.5q-33 0 -62 -16v39q41 18 87 18q42 0 70.5 -18t28.5 -54q0 -5 -2 -19q-15 -77 -109 -86l-24 -69h-59zM93 160q0 22 7 60l90 440q-42 9 -73 22l4 18h304l-4 -20q-18 -6 -58 -16q-6 -1 -23 -5l-93 -453
q-5 -28 -5 -46q0 -63 40.5 -90.5t107.5 -27.5q78 0 137 39t76 125l93 455q-42 9 -74 21l4 18h215l-4 -18q-55 -19 -82 -23l-90 -439q-23 -114 -104.5 -172t-218.5 -58q-249 0 -249 170z" />
    <glyph glyph-name="Uhorn" unicode="&#x1af;" horiz-adv-x="770" 
d="M93 160q0 22 7 60l90 440q-42 9 -73 22l4 18h304l-4 -20q-18 -6 -58 -16q-6 -1 -23 -5l-93 -453q-5 -28 -5 -46q0 -63 40.5 -90.5t107.5 -27.5q78 0 137 39t76 125l93 455q-42 9 -74 21l4 18h139q43 0 75.5 13.5t45.5 42.5q-7 -3 -16 -3q-22 0 -34.5 13t-12.5 36
q0 10 1 15q6 26 26.5 45.5t58.5 19.5q61 0 61 -54q0 -36 -21 -72t-69.5 -63.5t-125.5 -34.5l-89 -438q-23 -114 -104.5 -172t-218.5 -58q-249 0 -249 170z" />
    <glyph glyph-name="uni1EE8" unicode="&#x1ee8;" horiz-adv-x="770" 
d="M473 820l143 126q35 35 68 35q22 0 31.5 -13t6.5 -29q-4 -17 -18.5 -31.5t-41.5 -29.5l-172 -93zM93 160q0 22 7 60l90 440q-42 9 -73 22l4 18h304l-4 -20q-18 -6 -58 -16q-6 -1 -23 -5l-93 -453q-5 -28 -5 -46q0 -63 40.5 -90.5t107.5 -27.5q78 0 137 39t76 125l93 455
q-42 9 -74 21l4 18h139q43 0 75.5 13.5t45.5 42.5q-7 -3 -16 -3q-22 0 -34.5 13t-12.5 36q0 10 1 15q6 26 26.5 45.5t58.5 19.5q61 0 61 -54q0 -36 -21 -72t-69.5 -63.5t-125.5 -34.5l-89 -438q-23 -114 -104.5 -172t-218.5 -58q-249 0 -249 170z" />
    <glyph glyph-name="uni1EF0" unicode="&#x1ef0;" horiz-adv-x="770" 
d="M93 160q0 22 7 60l90 440q-42 9 -73 22l4 18h304l-4 -20q-18 -6 -58 -16q-6 -1 -23 -5l-93 -453q-5 -28 -5 -46q0 -63 40.5 -90.5t107.5 -27.5q78 0 137 39t76 125l93 455q-42 9 -74 21l4 18h139q43 0 75.5 13.5t45.5 42.5q-7 -3 -16 -3q-22 0 -34.5 13t-12.5 36
q0 10 1 15q6 26 26.5 45.5t58.5 19.5q61 0 61 -54q0 -36 -21 -72t-69.5 -63.5t-125.5 -34.5l-89 -438q-23 -114 -104.5 -172t-218.5 -58q-249 0 -249 170zM284.5 -164.5q-12.5 13.5 -12.5 34.5q0 31 21 53.5t51 22.5q23 0 36 -13t13 -34q0 -32 -21.5 -54.5t-52.5 -22.5
q-22 0 -34.5 13.5z" />
    <glyph glyph-name="uni1EEA" unicode="&#x1eea;" horiz-adv-x="770" 
d="M459 877q-37 26 -37 52q0 17 15 34t42 17q20 0 34.5 -12t18.5 -22l93 -127l-31 -35zM93 160q0 22 7 60l90 440q-42 9 -73 22l4 18h304l-4 -20q-18 -6 -58 -16q-6 -1 -23 -5l-93 -453q-5 -28 -5 -46q0 -63 40.5 -90.5t107.5 -27.5q78 0 137 39t76 125l93 455q-42 9 -74 21
l4 18h139q43 0 75.5 13.5t45.5 42.5q-7 -3 -16 -3q-22 0 -34.5 13t-12.5 36q0 10 1 15q6 26 26.5 45.5t58.5 19.5q61 0 61 -54q0 -36 -21 -72t-69.5 -63.5t-125.5 -34.5l-89 -438q-23 -114 -104.5 -172t-218.5 -58q-249 0 -249 170z" />
    <glyph glyph-name="uni1EEC" unicode="&#x1eec;" horiz-adv-x="770" 
d="M518 887h37q22 0 41 13t25 39q1 3 1 9q0 17 -13.5 28.5t-37.5 11.5q-32 0 -63 -16l1 39q41 18 87 18q42 0 70.5 -18t28.5 -54q0 -5 -2 -19q-15 -77 -109 -86l-24 -69h-59zM93 160q0 22 7 60l90 440q-42 9 -73 22l4 18h304l-4 -20q-18 -6 -58 -16q-6 -1 -23 -5l-93 -453
q-5 -28 -5 -46q0 -63 40.5 -90.5t107.5 -27.5q78 0 137 39t76 125l93 455q-42 9 -74 21l4 18h139q43 0 75.5 13.5t45.5 42.5q-7 -3 -16 -3q-22 0 -34.5 13t-12.5 36q0 10 1 15q6 26 26.5 45.5t58.5 19.5q61 0 61 -54q0 -36 -21 -72t-69.5 -63.5t-125.5 -34.5l-89 -438
q-23 -114 -104.5 -172t-218.5 -58q-249 0 -249 170z" />
    <glyph glyph-name="uni1EEE" unicode="&#x1eee;" horiz-adv-x="770" 
d="M378.5 870q36.5 30 85.5 30q26 0 44.5 -8t43.5 -23q16 -11 27.5 -16t22.5 -5q21 0 38.5 11.5t31.5 42.5h61q-17 -56 -51.5 -87.5t-87.5 -31.5q-21 0 -41 8.5t-47 23.5q-20 11 -31.5 16t-21.5 5q-22 0 -39.5 -14.5t-25.5 -38.5h-65q19 57 55.5 87zM93 160q0 22 7 60
l90 440q-42 9 -73 22l4 18h304l-4 -20q-18 -6 -58 -16q-6 -1 -23 -5l-93 -453q-5 -28 -5 -46q0 -63 40.5 -90.5t107.5 -27.5q78 0 137 39t76 125l93 455q-42 9 -74 21l4 18h139q43 0 75.5 13.5t45.5 42.5q-7 -3 -16 -3q-22 0 -34.5 13t-12.5 36q0 10 1 15q6 26 26.5 45.5
t58.5 19.5q61 0 61 -54q0 -36 -21 -72t-69.5 -63.5t-125.5 -34.5l-89 -438q-23 -114 -104.5 -172t-218.5 -58q-249 0 -249 170z" />
    <glyph glyph-name="Uhungarumlaut" unicode="&#x170;" horiz-adv-x="770" 
d="M327 820l142 126q11 11 29 22.5t38 11.5t30.5 -10t10.5 -23q0 -20 -15.5 -36.5t-46.5 -33.5l-172 -93zM536 820l143 126q15 13 32 23.5t37 10.5t29.5 -9.5t9.5 -23.5q0 -20 -15.5 -36.5t-46.5 -33.5l-172 -93zM93 160q0 22 7 60l90 440q-42 9 -73 22l4 18h304l-4 -20
q-18 -6 -58 -16q-6 -1 -23 -5l-93 -453q-5 -28 -5 -46q0 -63 40.5 -90.5t107.5 -27.5q78 0 137 39t76 125l93 455q-42 9 -74 21l4 18h215l-4 -18q-55 -19 -82 -23l-90 -439q-23 -114 -104.5 -172t-218.5 -58q-249 0 -249 170z" />
    <glyph glyph-name="Umacron" unicode="&#x16a;" horiz-adv-x="770" 
d="M321 834h374l-10 -48h-373zM93 160q0 22 7 60l90 440q-42 9 -73 22l4 18h304l-4 -20q-18 -6 -58 -16q-6 -1 -23 -5l-93 -453q-5 -28 -5 -46q0 -63 40.5 -90.5t107.5 -27.5q78 0 137 39t76 125l93 455q-42 9 -74 21l4 18h215l-4 -18q-55 -19 -82 -23l-90 -439
q-23 -114 -104.5 -172t-218.5 -58q-249 0 -249 170z" />
    <glyph glyph-name="Uogonek" unicode="&#x172;" horiz-adv-x="770" 
d="M841 700l-4 -18q-55 -19 -82 -23l-90 -439q-38 -187 -231 -222q-25 -18 -45 -44.5t-20 -50.5q0 -19 13.5 -30t35.5 -11q31 0 69 21l-13 -63q-21 -12 -50.5 -19t-60.5 -7q-53 0 -82 19.5t-29 53.5q0 31 25.5 67t64.5 56q-249 0 -249 170q0 22 7 60l90 440q-42 9 -73 22
l4 18h304l-4 -20q-18 -6 -58 -16q-6 -1 -23 -5l-93 -453q-5 -28 -5 -46q0 -63 40.5 -90.5t107.5 -27.5q78 0 137 39t76 125l93 455q-42 9 -74 21l4 18h215z" />
    <glyph glyph-name="Uring" unicode="&#x16e;" horiz-adv-x="770" 
d="M434 801.5q-23 21.5 -23 57.5q0 15 2 23q10 45 45 73.5t81 28.5q40 0 62.5 -21t22.5 -57q0 -16 -2 -24q-10 -46 -44.5 -74t-80.5 -28q-40 0 -63 21.5zM554.5 844.5q20.5 19.5 20.5 49.5q0 20 -12.5 32t-32.5 12q-28 0 -49 -19t-21 -49q0 -20 13 -32.5t34 -12.5
q27 0 47.5 19.5zM93 160q0 22 7 60l90 440q-42 9 -73 22l4 18h304l-4 -20q-18 -6 -58 -16q-6 -1 -23 -5l-93 -453q-5 -28 -5 -46q0 -63 40.5 -90.5t107.5 -27.5q78 0 137 39t76 125l93 455q-42 9 -74 21l4 18h215l-4 -18q-55 -19 -82 -23l-90 -439q-23 -114 -104.5 -172
t-218.5 -58q-249 0 -249 170z" />
    <glyph glyph-name="Utilde" unicode="&#x168;" horiz-adv-x="770" 
d="M361.5 873q36.5 30 85.5 30q26 0 45.5 -8t42.5 -23q17 -11 27.5 -16t21.5 -5q21 0 38.5 11.5t31.5 42.5h62q-17 -56 -51.5 -87.5t-87.5 -31.5q-21 0 -41 8.5t-47 23.5q-20 11 -31.5 16t-21.5 5q-22 0 -39.5 -14.5t-26.5 -38.5h-64q19 57 55.5 87zM93 160q0 22 7 60
l90 440q-42 9 -73 22l4 18h304l-4 -20q-18 -6 -58 -16q-6 -1 -23 -5l-93 -453q-5 -28 -5 -46q0 -63 40.5 -90.5t107.5 -27.5q78 0 137 39t76 125l93 455q-42 9 -74 21l4 18h215l-4 -18q-55 -19 -82 -23l-90 -439q-23 -114 -104.5 -172t-218.5 -58q-249 0 -249 170z" />
    <glyph glyph-name="V" unicode="V" horiz-adv-x="756" 
d="M177 661q-31 7 -70 23l4 18h298l-5 -21q-45 -15 -81 -21l66 -533l287 535q-34 6 -73 23l3 17h232l-5 -21q-63 -20 -80 -22l-366 -663h-113z" />
    <glyph glyph-name="W" unicode="W" horiz-adv-x="1005" 
d="M174 659q-22 5 -42.5 13l-25.5 10l4 18h296l-4 -19q-16 -7 -42.5 -14t-42.5 -9l9 -483l260 497h64l62 -564l244 558q-37 6 -64 15l4 19h189l-2 -15q-13 -7 -31.5 -12.5t-30.5 -7.5l-297 -668h-130l-53 457l-238 -457h-108z" />
    <glyph glyph-name="Wacute" unicode="&#x1e82;" horiz-adv-x="1005" 
d="M565 821l143 126q35 35 68 35q20 0 29.5 -10t9.5 -24q0 -20 -15 -36t-46 -33l-172 -93zM174 659q-22 5 -42.5 13l-25.5 10l4 18h296l-4 -19q-16 -7 -42.5 -14t-42.5 -9l9 -483l260 497h64l62 -564l244 558q-37 6 -64 15l4 19h189l-2 -15q-13 -7 -31.5 -12.5t-30.5 -7.5
l-297 -668h-130l-53 457l-238 -457h-108z" />
    <glyph glyph-name="Wcircumflex" unicode="&#x174;" horiz-adv-x="1005" 
d="M467 829q37 21 96 68.5t81 74.5h69q12 -27 52 -74.5t68 -68.5l-69 -46q-26 26 -55 64.5t-41 64.5h-4q-20 -25 -64 -63t-82 -66zM174 659q-22 5 -42.5 13l-25.5 10l4 18h296l-4 -19q-16 -7 -42.5 -14t-42.5 -9l9 -483l260 497h64l62 -564l244 558q-37 6 -64 15l4 19h189
l-2 -15q-13 -7 -31.5 -12.5t-30.5 -7.5l-297 -668h-130l-53 457l-238 -457h-108z" />
    <glyph glyph-name="Wdieresis" unicode="&#x1e84;" horiz-adv-x="1005" 
d="M489.5 797.5q-12.5 12.5 -12.5 33.5q0 4 2 16q5 27 24.5 44.5t45.5 17.5q23 0 35.5 -13t12.5 -35q0 -9 -1 -14q-6 -27 -26 -44.5t-47 -17.5q-21 0 -33.5 12.5zM718.5 797.5q-12.5 12.5 -12.5 33.5q0 32 21.5 55t51.5 23q23 0 36 -13t13 -34q0 -32 -22 -54.5t-53 -22.5
q-22 0 -34.5 12.5zM174 659q-22 5 -42.5 13l-25.5 10l4 18h296l-4 -19q-16 -7 -42.5 -14t-42.5 -9l9 -483l260 497h64l62 -564l244 558q-37 6 -64 15l4 19h189l-2 -15q-13 -7 -31.5 -12.5t-30.5 -7.5l-297 -668h-130l-53 457l-238 -457h-108z" />
    <glyph glyph-name="Wgrave" unicode="&#x1e80;" horiz-adv-x="1005" 
d="M563 879q-36 25 -36 51q0 18 14.5 35t41.5 17q21 0 34.5 -11.5t19.5 -22.5l92 -127l-30 -35zM174 659q-22 5 -42.5 13l-25.5 10l4 18h296l-4 -19q-16 -7 -42.5 -14t-42.5 -9l9 -483l260 497h64l62 -564l244 558q-37 6 -64 15l4 19h189l-2 -15q-13 -7 -31.5 -12.5
t-30.5 -7.5l-297 -668h-130l-53 457l-238 -457h-108z" />
    <glyph glyph-name="X" unicode="X" horiz-adv-x="683" 
d="M747 700l-3 -17q-38 -15 -65 -22l-253 -269l147 -352q44 -12 69 -22l-3 -18h-299l3 15q53 23 90 28l-104 246l-238 -252l60 -18l-3 -19h-188l4 20l42 13l20 5l282 299l-136 321q-28 6 -68 23l4 19h299l-4 -21q-55 -17 -88 -22l91 -217l208 221l-59 20l3 19h189z" />
    <glyph glyph-name="Y" unicode="Y" horiz-adv-x="731" 
d="M173 17l32.5 11t48.5 11l55 268l-131 351q-49 13 -72 23l4 19h302l-3 -21q-54 -17 -87 -22l109 -289l236 294q-36 11 -59 20l4 18h200l-4 -21q-31 -11 -60 -18l-288 -355l-55 -267q22 -4 73 -21l-3 -18h-304z" />
    <glyph glyph-name="Yacute" unicode="&#xdd;" horiz-adv-x="731" 
d="M419 821l143 126q35 35 68 35q20 0 29.5 -10t9.5 -24q0 -20 -15 -36t-46 -33l-172 -93zM173 17l32.5 11t48.5 11l55 268l-131 351q-49 13 -72 23l4 19h302l-3 -21q-54 -17 -87 -22l109 -289l236 294q-36 11 -59 20l4 18h200l-4 -21q-31 -11 -60 -18l-288 -355l-55 -267
q22 -4 73 -21l-3 -18h-304z" />
    <glyph glyph-name="Ycircumflex" unicode="&#x176;" horiz-adv-x="731" 
d="M303 829q37 21 96 68.5t81 74.5h69q12 -27 52 -74.5t68 -68.5l-69 -46q-26 26 -55 64.5t-41 64.5h-4q-20 -25 -64 -63t-82 -66zM173 17l32.5 11t48.5 11l55 268l-131 351q-49 13 -72 23l4 19h302l-3 -21q-54 -17 -87 -22l109 -289l236 294q-36 11 -59 20l4 18h200l-4 -21
q-31 -11 -60 -18l-288 -355l-55 -267q22 -4 73 -21l-3 -18h-304z" />
    <glyph glyph-name="Ydieresis" unicode="&#x178;" horiz-adv-x="731" 
d="M358.5 797.5q-12.5 12.5 -12.5 33.5q0 32 21.5 55t50.5 23q23 0 36 -13t13 -34q0 -32 -22 -54.5t-53 -22.5q-21 0 -33.5 12.5zM588 797.5q-12 12.5 -12 32.5q0 5 2 17q5 27 24.5 44.5t46.5 17.5q23 0 35.5 -13.5t12.5 -35.5q0 -8 -1 -13q-6 -27 -26 -44.5t-47 -17.5
q-23 0 -35 12.5zM173 17l32.5 11t48.5 11l55 268l-131 351q-49 13 -72 23l4 19h302l-3 -21q-54 -17 -87 -22l109 -289l236 294q-36 11 -59 20l4 18h200l-4 -21q-31 -11 -60 -18l-288 -355l-55 -267q22 -4 73 -21l-3 -18h-304z" />
    <glyph glyph-name="uni1E8E" unicode="&#x1e8e;" horiz-adv-x="731" 
d="M456.5 797.5q-12.5 12.5 -12.5 33.5q0 32 21.5 55t51.5 23q23 0 35.5 -13t12.5 -34q0 -32 -21.5 -54.5t-52.5 -22.5q-22 0 -34.5 12.5zM173 17l32.5 11t48.5 11l55 268l-131 351q-49 13 -72 23l4 19h302l-3 -21q-54 -17 -87 -22l109 -289l236 294q-36 11 -59 20l4 18h200
l-4 -21q-31 -11 -60 -18l-288 -355l-55 -267q22 -4 73 -21l-3 -18h-304z" />
    <glyph glyph-name="uni1EF4" unicode="&#x1ef4;" horiz-adv-x="731" 
d="M173 17l32.5 11t48.5 11l55 268l-131 351q-49 13 -72 23l4 19h302l-3 -21q-54 -17 -87 -22l109 -289l236 294q-36 11 -59 20l4 18h200l-4 -21q-31 -11 -60 -18l-288 -355l-55 -267q22 -4 73 -21l-3 -18h-304zM247 -165.5q-13 12.5 -13 33.5q0 32 21.5 55t51.5 23
q23 0 35.5 -13t12.5 -35q0 -9 -1 -14q-6 -27 -26 -44.5t-46 -17.5q-22 0 -35 12.5z" />
    <glyph glyph-name="Ygrave" unicode="&#x1ef2;" horiz-adv-x="731" 
d="M413 879q-36 26 -36 52q0 17 15 34t42 17q20 0 34.5 -12t18.5 -22l93 -127l-31 -35zM173 17l32.5 11t48.5 11l55 268l-131 351q-49 13 -72 23l4 19h302l-3 -21q-54 -17 -87 -22l109 -289l236 294q-36 11 -59 20l4 18h200l-4 -21q-31 -11 -60 -18l-288 -355l-55 -267
q22 -4 73 -21l-3 -18h-304z" />
    <glyph glyph-name="uni1EF6" unicode="&#x1ef6;" horiz-adv-x="731" 
d="M504 889h36q23 0 42 13t24 39q1 3 1 9q0 18 -13 29t-38 11q-33 0 -62 -16l1 39q17 8 40.5 13t45.5 5q43 0 71 -17.5t28 -53.5q0 -13 -2 -20q-14 -77 -108 -86l-24 -69h-60zM173 17l32.5 11t48.5 11l55 268l-131 351q-49 13 -72 23l4 19h302l-3 -21q-54 -17 -87 -22
l109 -289l236 294q-36 11 -59 20l4 18h200l-4 -21q-31 -11 -60 -18l-288 -355l-55 -267q22 -4 73 -21l-3 -18h-304z" />
    <glyph glyph-name="uni1EF8" unicode="&#x1ef8;" horiz-adv-x="731" 
d="M351.5 873q36.5 30 85.5 30q26 0 45 -8t44 -23q17 -11 27.5 -16t21.5 -5q21 0 38.5 11.5t31.5 42.5h61q-17 -56 -51.5 -87.5t-87.5 -31.5q-21 0 -41 8.5t-47 23.5q-20 11 -31.5 16t-21.5 5q-22 0 -39.5 -14.5t-25.5 -38.5h-65q19 57 55.5 87zM173 17l32.5 11t48.5 11
l55 268l-131 351q-49 13 -72 23l4 19h302l-3 -21q-54 -17 -87 -22l109 -289l236 294q-36 11 -59 20l4 18h200l-4 -21q-31 -11 -60 -18l-288 -355l-55 -267q22 -4 73 -21l-3 -18h-304z" />
    <glyph glyph-name="Z" unicode="Z" horiz-adv-x="593" 
d="M-20 32l511 618h-283q-7 -23 -28.5 -66.5t-34.5 -60.5h-33l36 177h514l-4 -20l-517 -631h308q8 26 33 67.5t42 58.5h32l-53 -175h-528z" />
    <glyph glyph-name="Zacute" unicode="&#x179;" horiz-adv-x="593" 
d="M360 821l143 126q9 10 28 22.5t40 12.5q19 0 28.5 -10t9.5 -24q0 -5 -1 -8q-3 -17 -17.5 -31.5t-41.5 -29.5l-172 -93zM-20 32l511 618h-283q-7 -23 -28.5 -66.5t-34.5 -60.5h-33l36 177h514l-4 -20l-517 -631h308q8 26 33 67.5t42 58.5h32l-53 -175h-528z" />
    <glyph glyph-name="Zcaron" unicode="&#x17d;" horiz-adv-x="593" 
d="M336.5 860q-39.5 47 -67.5 69l70 45q26 -26 54.5 -64.5t39.5 -63.5h3q23 26 68 64.5t81 63.5l50 -45q-38 -23 -97 -70t-80 -73h-70q-12 27 -51.5 74zM-20 32l511 618h-283q-7 -23 -28.5 -66.5t-34.5 -60.5h-33l36 177h514l-4 -20l-517 -631h308q8 26 33 67.5t42 58.5h32
l-53 -175h-528z" />
    <glyph glyph-name="Zdotaccent" unicode="&#x17b;" horiz-adv-x="593" 
d="M382.5 797.5q-12.5 12.5 -12.5 33.5q0 32 21.5 55t51.5 23q23 0 35.5 -13t12.5 -34q0 -32 -21.5 -54.5t-52.5 -22.5q-22 0 -34.5 12.5zM-20 32l511 618h-283q-7 -23 -28.5 -66.5t-34.5 -60.5h-33l36 177h514l-4 -20l-517 -631h308q8 26 33 67.5t42 58.5h32l-53 -175h-528
z" />
    <glyph glyph-name="uni1E92" unicode="&#x1e92;" horiz-adv-x="593" 
d="M-20 32l511 618h-283q-7 -23 -28.5 -66.5t-34.5 -60.5h-33l36 177h514l-4 -20l-517 -631h308q8 26 33 67.5t42 58.5h32l-53 -175h-528zM177 -165.5q-13 12.5 -13 33.5q0 4 2 16q5 27 24.5 44.5t46.5 17.5q23 0 35.5 -13t12.5 -35q0 -9 -1 -14q-6 -27 -26 -44.5t-46 -17.5
q-22 0 -35 12.5z" />
    <glyph glyph-name="a" unicode="a" horiz-adv-x="589" 
d="M46.5 27q-27.5 37 -27.5 96q0 31 9 76q25 127 99.5 217.5t213.5 90.5q50 0 80 -28l4 19h145l-80 -394q-4 -20 -4 -27q0 -22 17 -22t41 32t42 71l24 -13q-28 -67 -76 -111t-107 -44q-35 0 -60 21.5t-25 63.5q0 13 3 29l20 100q-45 -94 -102 -154t-127 -60q-62 0 -89.5 37z
M272.5 103.5q39.5 49.5 73 114.5t40.5 101l25 119q-27 29 -61 29q-63 0 -107.5 -72t-64.5 -171q-3 -13 -7 -41.5t-4 -54.5q0 -74 37 -74q29 0 68.5 49.5z" />
    <glyph glyph-name="aacute" unicode="&#xe1;" horiz-adv-x="589" 
d="M268 619l143 126q9 10 28 22.5t40 12.5q19 0 28.5 -10t9.5 -24q0 -20 -15 -36t-45 -33l-172 -93zM46.5 27q-27.5 37 -27.5 96q0 31 9 76q25 127 99.5 217.5t213.5 90.5q50 0 80 -28l4 19h145l-80 -394q-4 -20 -4 -27q0 -22 17 -22t41 32t42 71l24 -13q-28 -67 -76 -111
t-107 -44q-35 0 -60 21.5t-25 63.5q0 13 3 29l20 100q-45 -94 -102 -154t-127 -60q-62 0 -89.5 37zM272.5 103.5q39.5 49.5 73 114.5t40.5 101l25 119q-27 29 -61 29q-63 0 -107.5 -72t-64.5 -171q-3 -13 -7 -41.5t-4 -54.5q0 -74 37 -74q29 0 68.5 49.5z" />
    <glyph glyph-name="abreve" unicode="&#x103;" horiz-adv-x="589" 
d="M240 613.5q-38 33.5 -36 100.5h82q-1 -6 -1 -16q0 -39 21 -52.5t55 -13.5q37 0 64.5 16.5t42.5 65.5h83q-24 -67 -76.5 -100.5t-124.5 -33.5t-110 33.5zM46.5 27q-27.5 37 -27.5 96q0 31 9 76q25 127 99.5 217.5t213.5 90.5q50 0 80 -28l4 19h145l-80 -394q-4 -20 -4 -27
q0 -22 17 -22t41 32t42 71l24 -13q-28 -67 -76 -111t-107 -44q-35 0 -60 21.5t-25 63.5q0 13 3 29l20 100q-45 -94 -102 -154t-127 -60q-62 0 -89.5 37zM272.5 103.5q39.5 49.5 73 114.5t40.5 101l25 119q-27 29 -61 29q-63 0 -107.5 -72t-64.5 -171q-3 -13 -7 -41.5
t-4 -54.5q0 -74 37 -74q29 0 68.5 49.5z" />
    <glyph glyph-name="uni1EAF" unicode="&#x1eaf;" horiz-adv-x="589" 
d="M347 751l90 88q46 44 78 44q18 0 27.5 -9.5t9.5 -22.5q0 -20 -20 -40t-54 -37l-114 -54zM239 613.5q-39 33.5 -36 100.5h83q-1 -6 -1 -17q0 -39 21 -52t55 -13q37 0 64.5 16.5t42.5 65.5h82q-24 -67 -76 -100.5t-124 -33.5t-111 33.5zM46.5 27q-27.5 37 -27.5 96
q0 31 9 76q25 127 99.5 217.5t213.5 90.5q50 0 80 -28l4 19h145l-80 -394q-4 -20 -4 -27q0 -22 17 -22t41 32t42 71l24 -13q-28 -67 -76 -111t-107 -44q-35 0 -60 21.5t-25 63.5q0 13 3 29l20 100q-45 -94 -102 -154t-127 -60q-62 0 -89.5 37zM272.5 103.5
q39.5 49.5 73 114.5t40.5 101l25 119q-27 29 -61 29q-63 0 -107.5 -72t-64.5 -171q-3 -13 -7 -41.5t-4 -54.5q0 -74 37 -74q29 0 68.5 49.5z" />
    <glyph glyph-name="uni1EB7" unicode="&#x1eb7;" horiz-adv-x="589" 
d="M286 714q-1 -6 -1 -16q0 -39 21 -52.5t55 -13.5q37 0 65 16.5t43 65.5h82q-24 -67 -76 -100.5t-125 -33.5q-72 0 -110 33.5t-35 100.5h81zM127.5 416.5q74.5 90.5 213.5 90.5q50 0 80 -28l4 19h145l-80 -394q-4 -20 -4 -27q0 -22 17 -22t41 32t42 71l24 -13
q-28 -67 -76 -111t-107 -44q-35 0 -60 21.5t-25 63.5q0 13 3 29l20 100q-45 -94 -102 -154t-127 -60q-62 0 -89.5 37t-27.5 96q0 31 9 76q25 127 99.5 217.5zM171 182.5q-4 -28.5 -4 -54.5q0 -74 37 -74q29 0 68.5 49.5t73 114.5t40.5 101l25 119q-27 29 -61 29
q-63 0 -107.5 -72t-64.5 -171q-3 -13 -7 -41.5zM166.5 -71.5q19.5 17.5 46.5 17.5q23 0 35.5 -13t12.5 -35q0 -9 -1 -14q-6 -27 -26 -44.5t-46 -17.5q-22 0 -35 12.5t-13 33.5q0 4 2 16q5 27 24.5 44.5z" />
    <glyph glyph-name="uni1EB1" unicode="&#x1eb1;" horiz-adv-x="589" 
d="M300 774q-46 28 -46 60q0 18 14 33.5t38 15.5q33 0 61 -44l54 -88l-29 -31zM240 613.5q-39 33.5 -36 100.5h83q-1 -6 -1 -17q0 -39 21 -52t55 -13q37 0 64.5 16.5t42.5 65.5h82q-24 -67 -76 -100.5t-124 -33.5t-111 33.5zM46.5 27q-27.5 37 -27.5 96q0 31 9 76
q25 127 99.5 217.5t213.5 90.5q50 0 80 -28l4 19h145l-80 -394q-4 -20 -4 -27q0 -22 17 -22t41 32t42 71l24 -13q-28 -67 -76 -111t-107 -44q-35 0 -60 21.5t-25 63.5q0 13 3 29l20 100q-45 -94 -102 -154t-127 -60q-62 0 -89.5 37zM272.5 103.5q39.5 49.5 73 114.5
t40.5 101l25 119q-27 29 -61 29q-63 0 -107.5 -72t-64.5 -171q-3 -13 -7 -41.5t-4 -54.5q0 -74 37 -74q29 0 68.5 49.5z" />
    <glyph glyph-name="uni1EB3" unicode="&#x1eb3;" horiz-adv-x="589" 
d="M367 810h32q20 0 36.5 11t21.5 34q3 18 -8 29t-36 11q-27 0 -54 -12l2 36q36 15 75 15q37 0 61.5 -15t24.5 -47q0 -6 -2 -18q-8 -37 -32 -54.5t-62 -20.5l-18 -48h-53zM239 613.5q-39 33.5 -36 100.5h83q-1 -6 -1 -17q0 -39 21 -52t55 -13q37 0 64.5 16.5t42.5 65.5h82
q-24 -67 -76 -100.5t-124 -33.5t-111 33.5zM46.5 27q-27.5 37 -27.5 96q0 31 9 76q25 127 99.5 217.5t213.5 90.5q50 0 80 -28l4 19h145l-80 -394q-4 -20 -4 -27q0 -22 17 -22t41 32t42 71l24 -13q-28 -67 -76 -111t-107 -44q-35 0 -60 21.5t-25 63.5q0 13 3 29l20 100
q-45 -94 -102 -154t-127 -60q-62 0 -89.5 37zM272.5 103.5q39.5 49.5 73 114.5t40.5 101l25 119q-27 29 -61 29q-63 0 -107.5 -72t-64.5 -171q-3 -13 -7 -41.5t-4 -54.5q0 -74 37 -74q29 0 68.5 49.5z" />
    <glyph glyph-name="uni1EB5" unicode="&#x1eb5;" horiz-adv-x="589" 
d="M262 862.5q35 28.5 83 28.5q25 0 41.5 -8t37.5 -23q13 -10 22.5 -15t20.5 -5q22 0 43.5 12t34.5 42h49q-17 -55 -51.5 -85.5t-86.5 -30.5q-20 0 -36.5 7.5t-35.5 20.5q-17 12 -29.5 17.5t-25.5 5.5q-24 0 -43.5 -14t-27.5 -38h-50q19 57 54 85.5zM239 613.5
q-39 33.5 -36 100.5h83q-1 -6 -1 -17q0 -39 21 -52t55 -13q37 0 64.5 16.5t42.5 65.5h82q-24 -67 -76 -100.5t-124 -33.5t-111 33.5zM46.5 27q-27.5 37 -27.5 96q0 31 9 76q25 127 99.5 217.5t213.5 90.5q50 0 80 -28l4 19h145l-80 -394q-4 -20 -4 -27q0 -22 17 -22t41 32
t42 71l24 -13q-28 -67 -76 -111t-107 -44q-35 0 -60 21.5t-25 63.5q0 13 3 29l20 100q-45 -94 -102 -154t-127 -60q-62 0 -89.5 37zM272.5 103.5q39.5 49.5 73 114.5t40.5 101l25 119q-27 29 -61 29q-63 0 -107.5 -72t-64.5 -171q-3 -13 -7 -41.5t-4 -54.5q0 -74 37 -74
q29 0 68.5 49.5z" />
    <glyph glyph-name="uni01CE" unicode="&#x1ce;" horiz-adv-x="589" 
d="M264.5 658q-39.5 47 -67.5 69l70 45q26 -25 54.5 -63.5t40.5 -64.5h2q23 26 68 64.5t81 63.5l50 -45q-38 -23 -96.5 -70t-80.5 -73h-69q-13 27 -52.5 74zM46.5 27q-27.5 37 -27.5 96q0 31 9 76q25 127 99.5 217.5t213.5 90.5q50 0 80 -28l4 19h145l-80 -394
q-4 -20 -4 -27q0 -22 17 -22t41 32t42 71l24 -13q-28 -67 -76 -111t-107 -44q-35 0 -60 21.5t-25 63.5q0 13 3 29l20 100q-45 -94 -102 -154t-127 -60q-62 0 -89.5 37zM272.5 103.5q39.5 49.5 73 114.5t40.5 101l25 119q-27 29 -61 29q-63 0 -107.5 -72t-64.5 -171
q-3 -13 -7 -41.5t-4 -54.5q0 -74 37 -74q29 0 68.5 49.5z" />
    <glyph glyph-name="acircumflex" unicode="&#xe2;" horiz-adv-x="589" 
d="M173 627q37 21 96 68.5t81 74.5h69q13 -27 53 -74.5t67 -68.5l-69 -46q-26 26 -55 64.5t-41 64.5h-4q-20 -25 -64 -63t-82 -66zM46.5 27q-27.5 37 -27.5 96q0 31 9 76q25 127 99.5 217.5t213.5 90.5q50 0 80 -28l4 19h145l-80 -394q-4 -20 -4 -27q0 -22 17 -22t41 32
t42 71l24 -13q-28 -67 -76 -111t-107 -44q-35 0 -60 21.5t-25 63.5q0 13 3 29l20 100q-45 -94 -102 -154t-127 -60q-62 0 -89.5 37zM272.5 103.5q39.5 49.5 73 114.5t40.5 101l25 119q-27 29 -61 29q-63 0 -107.5 -72t-64.5 -171q-3 -13 -7 -41.5t-4 -54.5q0 -74 37 -74
q29 0 68.5 49.5z" />
    <glyph glyph-name="uni1EA5" unicode="&#x1ea5;" horiz-adv-x="589" 
d="M502 751l89 88q46 44 79 44q18 0 27 -9.5t9 -22.5q0 -20 -19.5 -40.5t-55.5 -36.5l-113 -54zM179 627q37 22 96.5 69.5t81.5 73.5h69q12 -27 51.5 -74.5t67.5 -68.5l-69 -46q-26 26 -54.5 64.5t-40.5 64.5h-4q-21 -26 -65.5 -64t-81.5 -65zM46.5 27q-27.5 37 -27.5 96
q0 31 9 76q25 127 99.5 217.5t213.5 90.5q50 0 80 -28l4 19h145l-80 -394q-4 -20 -4 -27q0 -22 17 -22t41 32t42 71l24 -13q-28 -67 -76 -111t-107 -44q-35 0 -60 21.5t-25 63.5q0 13 3 29l20 100q-45 -94 -102 -154t-127 -60q-62 0 -89.5 37zM272.5 103.5
q39.5 49.5 73 114.5t40.5 101l25 119q-27 29 -61 29q-63 0 -107.5 -72t-64.5 -171q-3 -13 -7 -41.5t-4 -54.5q0 -74 37 -74q29 0 68.5 49.5z" />
    <glyph glyph-name="uni1EAD" unicode="&#x1ead;" horiz-adv-x="589" 
d="M178 627q37 21 96 68.5t81 74.5h69q12 -26 52 -73.5t68 -69.5l-69 -46q-26 26 -55 64.5t-41 64.5h-4q-20 -25 -64 -63t-82 -66zM46.5 27q-27.5 37 -27.5 96q0 31 9 76q25 127 99.5 217.5t213.5 90.5q50 0 80 -28l4 19h145l-80 -394q-4 -20 -4 -27q0 -22 17 -22t41 32
t42 71l24 -13q-28 -67 -76 -111t-107 -44q-35 0 -60 21.5t-25 63.5q0 13 3 29l20 100q-45 -94 -102 -154t-127 -60q-62 0 -89.5 37zM272.5 103.5q39.5 49.5 73 114.5t40.5 101l25 119q-27 29 -61 29q-63 0 -107.5 -72t-64.5 -171q-3 -13 -7 -41.5t-4 -54.5q0 -74 37 -74
q29 0 68.5 49.5zM163.5 -164.5q-12.5 13.5 -12.5 34.5q0 31 21 53.5t51 22.5q23 0 36 -13t13 -34q0 -32 -21.5 -54.5t-52.5 -22.5q-22 0 -34.5 13.5z" />
    <glyph glyph-name="uni1EA7" unicode="&#x1ea7;" horiz-adv-x="589" 
d="M152 774q-46 28 -46 60q0 18 14 33.5t38 15.5q32 0 62 -44l53 -88l-29 -31zM179 627q37 22 96.5 69.5t81.5 73.5h69q12 -27 51.5 -74.5t67.5 -68.5l-69 -46q-26 26 -54.5 64.5t-40.5 64.5h-4q-21 -26 -65.5 -64t-81.5 -65zM46.5 27q-27.5 37 -27.5 96q0 31 9 76
q25 127 99.5 217.5t213.5 90.5q50 0 80 -28l4 19h145l-80 -394q-4 -20 -4 -27q0 -22 17 -22t41 32t42 71l24 -13q-28 -67 -76 -111t-107 -44q-35 0 -60 21.5t-25 63.5q0 13 3 29l20 100q-45 -94 -102 -154t-127 -60q-62 0 -89.5 37zM272.5 103.5q39.5 49.5 73 114.5
t40.5 101l25 119q-27 29 -61 29q-63 0 -107.5 -72t-64.5 -171q-3 -13 -7 -41.5t-4 -54.5q0 -74 37 -74q29 0 68.5 49.5z" />
    <glyph glyph-name="uni1EA9" unicode="&#x1ea9;" horiz-adv-x="589" 
d="M510 810h32q20 0 36.5 11t21.5 34q3 18 -8 29t-36 11q-27 0 -54 -12l2 36q36 15 75 15q37 0 62 -15.5t25 -47.5q0 -5 -2 -17q-8 -37 -32.5 -54.5t-62.5 -20.5l-18 -48h-52zM179 627q37 22 96.5 69.5t81.5 73.5h69q12 -27 51.5 -74.5t67.5 -68.5l-69 -46
q-26 26 -54.5 64.5t-40.5 64.5h-4q-21 -26 -65.5 -64t-81.5 -65zM46.5 27q-27.5 37 -27.5 96q0 31 9 76q25 127 99.5 217.5t213.5 90.5q50 0 80 -28l4 19h145l-80 -394q-4 -20 -4 -27q0 -22 17 -22t41 32t42 71l24 -13q-28 -67 -76 -111t-107 -44q-35 0 -60 21.5t-25 63.5
q0 13 3 29l20 100q-45 -94 -102 -154t-127 -60q-62 0 -89.5 37zM272.5 103.5q39.5 49.5 73 114.5t40.5 101l25 119q-27 29 -61 29q-63 0 -107.5 -72t-64.5 -171q-3 -13 -7 -41.5t-4 -54.5q0 -74 37 -74q29 0 68.5 49.5z" />
    <glyph glyph-name="uni1EAB" unicode="&#x1eab;" horiz-adv-x="589" 
d="M277 887.5q35 28.5 84 28.5q25 0 43 -8.5t35 -22.5l12 -8t16.5 -9t15.5 -3q21 0 42.5 12t34.5 42h49q-17 -55 -51.5 -85.5t-86.5 -30.5q-20 0 -35.5 7t-35.5 21q-17 12 -29.5 17.5t-26.5 5.5q-23 0 -42 -14t-29 -38h-50q19 57 54 85.5zM179 627q37 22 96.5 69.5
t81.5 73.5h69q12 -27 51.5 -74.5t67.5 -68.5l-69 -46q-26 26 -54.5 64.5t-40.5 64.5h-4q-21 -26 -65.5 -64t-81.5 -65zM46.5 27q-27.5 37 -27.5 96q0 31 9 76q25 127 99.5 217.5t213.5 90.5q50 0 80 -28l4 19h145l-80 -394q-4 -20 -4 -27q0 -22 17 -22t41 32t42 71l24 -13
q-28 -67 -76 -111t-107 -44q-35 0 -60 21.5t-25 63.5q0 13 3 29l20 100q-45 -94 -102 -154t-127 -60q-62 0 -89.5 37zM272.5 103.5q39.5 49.5 73 114.5t40.5 101l25 119q-27 29 -61 29q-63 0 -107.5 -72t-64.5 -171q-3 -13 -7 -41.5t-4 -54.5q0 -74 37 -74q29 0 68.5 49.5z
" />
    <glyph glyph-name="adieresis" unicode="&#xe4;" horiz-adv-x="589" 
d="M192.5 595.5q-12.5 12.5 -12.5 33.5q0 32 21.5 55t50.5 23q23 0 36 -13t13 -34q0 -32 -22 -54.5t-53 -22.5q-21 0 -33.5 12.5zM422 595.5q-12 12.5 -12 32.5q0 5 2 17q5 27 24.5 44.5t46.5 17.5q23 0 35.5 -13.5t12.5 -35.5q0 -8 -1 -13q-6 -27 -26 -44.5t-47 -17.5
q-23 0 -35 12.5zM46.5 27q-27.5 37 -27.5 96q0 31 9 76q25 127 99.5 217.5t213.5 90.5q50 0 80 -28l4 19h145l-80 -394q-4 -20 -4 -27q0 -22 17 -22t41 32t42 71l24 -13q-28 -67 -76 -111t-107 -44q-35 0 -60 21.5t-25 63.5q0 13 3 29l20 100q-45 -94 -102 -154t-127 -60
q-62 0 -89.5 37zM272.5 103.5q39.5 49.5 73 114.5t40.5 101l25 119q-27 29 -61 29q-63 0 -107.5 -72t-64.5 -171q-3 -13 -7 -41.5t-4 -54.5q0 -74 37 -74q29 0 68.5 49.5z" />
    <glyph glyph-name="uni1EA1" unicode="&#x1ea1;" horiz-adv-x="589" 
d="M127.5 416.5q74.5 90.5 213.5 90.5q50 0 80 -28l4 19h145l-80 -394q-4 -20 -4 -27q0 -22 17 -22t41 32t42 71l24 -13q-28 -67 -76 -111t-107 -44q-35 0 -60 21.5t-25 63.5q0 13 3 29l20 100q-45 -94 -102 -154t-127 -60q-62 0 -89.5 37t-27.5 96q0 31 9 76
q25 127 99.5 217.5zM171 182.5q-4 -28.5 -4 -54.5q0 -74 37 -74q29 0 68.5 49.5t73 114.5t40.5 101l25 119q-27 29 -61 29q-63 0 -107.5 -72t-64.5 -171q-3 -13 -7 -41.5zM171 -76.5q21 22.5 51 22.5q23 0 36 -13t13 -34q0 -32 -21.5 -54.5t-52.5 -22.5q-22 0 -34.5 13.5
t-12.5 34.5q0 31 21 53.5z" />
    <glyph glyph-name="agrave" unicode="&#xe0;" horiz-adv-x="589" 
d="M295 677q-36 25 -36 51q0 18 15 35t42 17q20 0 33.5 -11.5t19.5 -22.5l92 -127l-30 -35zM46.5 27q-27.5 37 -27.5 96q0 31 9 76q25 127 99.5 217.5t213.5 90.5q50 0 80 -28l4 19h145l-80 -394q-4 -20 -4 -27q0 -22 17 -22t41 32t42 71l24 -13q-28 -67 -76 -111t-107 -44
q-35 0 -60 21.5t-25 63.5q0 13 3 29l20 100q-45 -94 -102 -154t-127 -60q-62 0 -89.5 37zM272.5 103.5q39.5 49.5 73 114.5t40.5 101l25 119q-27 29 -61 29q-63 0 -107.5 -72t-64.5 -171q-3 -13 -7 -41.5t-4 -54.5q0 -74 37 -74q29 0 68.5 49.5z" />
    <glyph glyph-name="uni1EA3" unicode="&#x1ea3;" horiz-adv-x="589" 
d="M340 687h36q23 0 42 13t24 39q1 3 1 9q0 18 -13 29t-38 11q-33 0 -62 -16l1 39q17 8 40.5 13t45.5 5q43 0 71 -17.5t28 -53.5q0 -13 -2 -20q-14 -77 -108 -86l-24 -69h-60zM46.5 27q-27.5 37 -27.5 96q0 31 9 76q25 127 99.5 217.5t213.5 90.5q50 0 80 -28l4 19h145
l-80 -394q-4 -20 -4 -27q0 -22 17 -22t41 32t42 71l24 -13q-28 -67 -76 -111t-107 -44q-35 0 -60 21.5t-25 63.5q0 13 3 29l20 100q-45 -94 -102 -154t-127 -60q-62 0 -89.5 37zM272.5 103.5q39.5 49.5 73 114.5t40.5 101l25 119q-27 29 -61 29q-63 0 -107.5 -72t-64.5 -171
q-3 -13 -7 -41.5t-4 -54.5q0 -74 37 -74q29 0 68.5 49.5z" />
    <glyph glyph-name="uni0251" unicode="&#x251;" horiz-adv-x="613" 
d="M60 32.5q-44 42.5 -44 127.5q0 41 11 98q17 84 67.5 140t118.5 82.5t141 26.5q75 0 137.5 -22.5t88.5 -61.5l-77 -377q40 -10 61 -18l-2 -12l-213 -22q1 13 11 66q-27 -33 -76 -51.5t-88 -18.5q-92 0 -136 42.5zM334 79q38 40 50 96l48 237q-15 23 -37.5 34.5t-50.5 11.5
q-64 0 -108 -52.5t-64 -149.5q-11 -57 -11 -99q0 -118 84 -118q51 0 89 40z" />
    <glyph glyph-name="amacron" unicode="&#x101;" horiz-adv-x="589" 
d="M167 632h373l-9 -48h-374zM46.5 27q-27.5 37 -27.5 96q0 31 9 76q25 127 99.5 217.5t213.5 90.5q50 0 80 -28l4 19h145l-80 -394q-4 -20 -4 -27q0 -22 17 -22t41 32t42 71l24 -13q-28 -67 -76 -111t-107 -44q-35 0 -60 21.5t-25 63.5q0 13 3 29l20 100q-45 -94 -102 -154
t-127 -60q-62 0 -89.5 37zM272.5 103.5q39.5 49.5 73 114.5t40.5 101l25 119q-27 29 -61 29q-63 0 -107.5 -72t-64.5 -171q-3 -13 -7 -41.5t-4 -54.5q0 -74 37 -74q29 0 68.5 49.5z" />
    <glyph glyph-name="aogonek" unicode="&#x105;" horiz-adv-x="589" 
d="M412.5 -44.5q-14.5 -20.5 -18.5 -38.5q-1 -4 -1 -11q0 -19 13.5 -30t35.5 -11q31 0 69 21l-13 -63q-21 -12 -50.5 -19t-60.5 -7q-53 0 -82 19.5t-29 53.5q0 36 30.5 74.5t76.5 55.5q-41 23 -41 75q0 14 3 29l20 100q-45 -94 -102 -154t-127 -60q-62 0 -89.5 37t-27.5 96
q0 31 9 76q25 127 99.5 217.5t213.5 90.5q50 0 80 -28l4 19h145l-80 -394q-4 -20 -4 -27q0 -22 17 -22t41 32t42 71l24 -13q-25 -61 -68 -104t-97 -50q-18 -15 -32.5 -35.5zM272.5 103.5q39.5 49.5 73 114.5t40.5 101l25 119q-27 29 -61 29q-63 0 -107.5 -72t-64.5 -171
q-3 -13 -7 -41.5t-4 -54.5q0 -74 37 -74q29 0 68.5 49.5z" />
    <glyph glyph-name="aring" unicode="&#xe5;" horiz-adv-x="589" 
d="M289 599.5q-23 21.5 -23 57.5q0 15 2 23q10 45 45 73.5t81 28.5q40 0 62.5 -21t22.5 -57q0 -16 -2 -24q-10 -46 -44.5 -74t-80.5 -28q-40 0 -63 21.5zM409.5 643q20.5 20 20.5 50q0 20 -12.5 31.5t-32.5 11.5q-28 0 -49 -19t-21 -49q0 -20 13 -32.5t34 -12.5
q27 0 47.5 20zM46.5 27q-27.5 37 -27.5 96q0 31 9 76q25 127 99.5 217.5t213.5 90.5q50 0 80 -28l4 19h145l-80 -394q-4 -20 -4 -27q0 -22 17 -22t41 32t42 71l24 -13q-28 -67 -76 -111t-107 -44q-35 0 -60 21.5t-25 63.5q0 13 3 29l20 100q-45 -94 -102 -154t-127 -60
q-62 0 -89.5 37zM272.5 103.5q39.5 49.5 73 114.5t40.5 101l25 119q-27 29 -61 29q-63 0 -107.5 -72t-64.5 -171q-3 -13 -7 -41.5t-4 -54.5q0 -74 37 -74q29 0 68.5 49.5z" />
    <glyph glyph-name="aringacute" unicode="&#x1fb;" horiz-adv-x="589" 
d="M305 831l143 126q35 35 68 35q22 0 31.5 -13t6.5 -29q-4 -17 -18.5 -31.5t-41.5 -29.5l-172 -93zM287 594q-23 21 -23 56q0 54 37.5 90.5t90.5 36.5q40 0 62.5 -21t22.5 -57q0 -16 -2 -24q-10 -46 -44.5 -74t-80.5 -28q-40 0 -63 21zM407.5 638q20.5 20 20.5 50
q0 20 -12.5 31.5t-32.5 11.5q-28 0 -48.5 -19.5t-20.5 -49.5q0 -20 12.5 -32t33.5 -12q27 0 47.5 20zM46.5 27q-27.5 37 -27.5 96q0 31 9 76q25 127 99.5 217.5t213.5 90.5q50 0 80 -28l4 19h145l-80 -394q-4 -20 -4 -27q0 -22 17 -22t41 32t42 71l24 -13q-28 -67 -76 -111
t-107 -44q-35 0 -60 21.5t-25 63.5q0 13 3 29l20 100q-45 -94 -102 -154t-127 -60q-62 0 -89.5 37zM272.5 103.5q39.5 49.5 73 114.5t40.5 101l25 119q-27 29 -61 29q-63 0 -107.5 -72t-64.5 -171q-3 -13 -7 -41.5t-4 -54.5q0 -74 37 -74q29 0 68.5 49.5z" />
    <glyph glyph-name="atilde" unicode="&#xe3;" horiz-adv-x="589" 
d="M208.5 671q36.5 30 85.5 30q26 0 45 -8t44 -23q17 -11 27.5 -16t21.5 -5q21 0 38.5 11.5t31.5 42.5h61q-17 -56 -51.5 -87.5t-87.5 -31.5q-21 0 -41 8.5t-47 23.5q-20 11 -31.5 16t-21.5 5q-22 0 -39.5 -14.5t-25.5 -38.5h-65q19 57 55.5 87zM46.5 27q-27.5 37 -27.5 96
q0 31 9 76q25 127 99.5 217.5t213.5 90.5q50 0 80 -28l4 19h145l-80 -394q-4 -20 -4 -27q0 -22 17 -22t41 32t42 71l24 -13q-28 -67 -76 -111t-107 -44q-35 0 -60 21.5t-25 63.5q0 13 3 29l20 100q-45 -94 -102 -154t-127 -60q-62 0 -89.5 37zM272.5 103.5
q39.5 49.5 73 114.5t40.5 101l25 119q-27 29 -61 29q-63 0 -107.5 -72t-64.5 -171q-3 -13 -7 -41.5t-4 -54.5q0 -74 37 -74q29 0 68.5 49.5z" />
    <glyph glyph-name="ae" unicode="&#xe6;" horiz-adv-x="875" 
d="M41 18.5q-43 28.5 -43 84.5q0 18 4 34q16 80 83.5 117t158.5 37h110q18 47 33 71q1 4 1 12q0 40 -32 62t-76 22q-38 0 -83.5 -12.5t-84.5 -30.5l1 42q48 24 106 37t116 13q50 0 87 -13t59 -36q78 49 184 49q112 0 164 -25.5t52 -80.5q0 -9 -4 -31q-20 -95 -134 -137.5
t-259 -46.5q-2 -67 26.5 -108t93.5 -41q40 0 89.5 14t88.5 41l6 -36q-37 -28 -98.5 -47t-127.5 -19q-65 0 -113 19.5t-76 56.5q-42 -38 -102 -57t-118 -19q-69 0 -112 28.5zM672 277.5q78 35.5 78 110.5q0 33 -21 51.5t-65 18.5q-67 0 -111 -61t-61 -147l-4 -19
q106 11 184 46.5zM285.5 58.5q39.5 16.5 68.5 40.5q-17 35 -17 87q0 31 5 56h-73q-45 0 -79 -29t-43 -75q-4 -24 -4 -32q0 -33 19 -48.5t51 -15.5q33 0 72.5 16.5z" />
    <glyph glyph-name="aeacute" unicode="&#x1fd;" horiz-adv-x="875" 
d="M458 619l143 126q9 10 28 22.5t40 12.5q19 0 28.5 -10t9.5 -24q0 -20 -15 -36t-45 -33l-172 -93zM41 18.5q-43 28.5 -43 84.5q0 18 4 34q16 80 83.5 117t158.5 37h110q18 47 33 71q1 4 1 12q0 40 -32 62t-76 22q-38 0 -83.5 -12.5t-84.5 -30.5l1 42q48 24 106 37t116 13
q50 0 87 -13t59 -36q78 49 184 49q112 0 164 -25.5t52 -80.5q0 -9 -4 -31q-20 -95 -134 -137.5t-259 -46.5q-2 -67 26.5 -108t93.5 -41q40 0 89.5 14t88.5 41l6 -36q-37 -28 -98.5 -47t-127.5 -19q-65 0 -113 19.5t-76 56.5q-42 -38 -102 -57t-118 -19q-69 0 -112 28.5z
M672 277.5q78 35.5 78 110.5q0 33 -21 51.5t-65 18.5q-67 0 -111 -61t-61 -147l-4 -19q106 11 184 46.5zM285.5 58.5q39.5 16.5 68.5 40.5q-17 35 -17 87q0 31 5 56h-73q-45 0 -79 -29t-43 -75q-4 -24 -4 -32q0 -33 19 -48.5t51 -15.5q33 0 72.5 16.5z" />
    <glyph glyph-name="b" unicode="b" horiz-adv-x="623" 
d="M162 652q-31 8 -62 19l3 12l215 22l-71 -349q38 70 97.5 110.5t120.5 40.5q64 0 105.5 -41t41.5 -120q0 -30 -8 -70q-29 -140 -108.5 -213t-193.5 -73q-54 0 -87 23.5t-43 58.5q-33 -64 -40 -75l-105 -7zM454 250q14 70 14 115q0 93 -53 93q-26 0 -66 -33t-75 -83.5
t-50 -98.5l-14 -72q-4 -24 -4 -35q0 -43 22.5 -70t64.5 -27q117 0 161 211z" />
    <glyph glyph-name="c" unicode="c" horiz-adv-x="525" 
d="M83.5 42q-58.5 52 -58.5 143q0 25 7 63q25 122 114.5 190.5t216.5 68.5q87 0 133 -26t46 -75q0 -15 -2 -23q-4 -18 -20.5 -34.5t-35.5 -16.5t-29 10t-10 24q0 10 8 24q6 12 7 20q3 17 -18.5 33t-59.5 16q-72 0 -126 -54t-76 -158q-7 -32 -7 -67q0 -64 29.5 -103.5
t91.5 -39.5q40 0 86.5 14.5t82.5 40.5l7 -36q-39 -28 -96.5 -47t-122.5 -19q-109 0 -167.5 52z" />
    <glyph glyph-name="cacute" unicode="&#x107;" horiz-adv-x="525" 
d="M299 619l143 126q35 35 68 35q20 0 29.5 -10t9.5 -24q0 -20 -15 -36t-46 -33l-172 -93zM83.5 42q-58.5 52 -58.5 143q0 25 7 63q25 122 114.5 190.5t216.5 68.5q87 0 133 -26t46 -75q0 -15 -2 -23q-4 -18 -20.5 -34.5t-35.5 -16.5t-29 10t-10 24q0 10 8 24q6 12 7 20
q3 17 -18.5 33t-59.5 16q-72 0 -126 -54t-76 -158q-7 -32 -7 -67q0 -64 29.5 -103.5t91.5 -39.5q40 0 86.5 14.5t82.5 40.5l7 -36q-39 -28 -96.5 -47t-122.5 -19q-109 0 -167.5 52z" />
    <glyph glyph-name="ccaron" unicode="&#x10d;" horiz-adv-x="525" 
d="M307 658q-39 47 -67 69l69 45q26 -26 54.5 -64.5t39.5 -63.5h4q22 26 67 64.5t82 63.5l49 -45q-38 -23 -96.5 -70t-80.5 -73h-69q-13 27 -52 74zM83.5 42q-58.5 52 -58.5 143q0 25 7 63q25 122 114.5 190.5t216.5 68.5q87 0 133 -26t46 -75q0 -15 -2 -23
q-4 -18 -20.5 -34.5t-35.5 -16.5t-29 10t-10 24q0 10 8 24q6 12 7 20q3 17 -18.5 33t-59.5 16q-72 0 -126 -54t-76 -158q-7 -32 -7 -67q0 -64 29.5 -103.5t91.5 -39.5q40 0 86.5 14.5t82.5 40.5l7 -36q-39 -28 -96.5 -47t-122.5 -19q-109 0 -167.5 52z" />
    <glyph glyph-name="ccedilla" unicode="&#xe7;" horiz-adv-x="525" 
d="M496 481q46 -26 46 -75q0 -15 -2 -23q-4 -18 -20.5 -34.5t-35.5 -16.5t-29 10t-10 24q0 10 8 24q6 12 7 20q3 17 -18.5 33t-59.5 16q-72 0 -126 -54t-76 -158q-7 -32 -7 -67q0 -64 29.5 -103.5t91.5 -39.5q40 0 86.5 14.5t82.5 40.5l7 -36q-32 -23 -77 -40t-97 -23
l-35 -53q50 0 74.5 -20t24.5 -50q0 -10 -1 -15q-11 -51 -56.5 -79t-105.5 -28q-28 0 -56.5 8t-45.5 23l30 39q13 -8 32 -13t39 -5q78 0 90 55q4 23 -13 33t-43 10q-7 0 -23 -2l-17 34l41 60q-99 5 -152.5 57t-53.5 138q0 25 7 63q25 122 114.5 190.5t216.5 68.5
q87 0 133 -26z" />
    <glyph glyph-name="ccircumflex" unicode="&#x109;" horiz-adv-x="525" 
d="M213 627q37 21 95.5 68.5t80.5 74.5h70q12 -27 52 -74.5t68 -68.5l-70 -46q-26 26 -55 64.5t-41 64.5h-3q-20 -25 -64 -63t-82 -66zM83.5 42q-58.5 52 -58.5 143q0 25 7 63q25 122 114.5 190.5t216.5 68.5q87 0 133 -26t46 -75q0 -15 -2 -23q-4 -18 -20.5 -34.5
t-35.5 -16.5t-29 10t-10 24q0 10 8 24q6 12 7 20q3 17 -18.5 33t-59.5 16q-72 0 -126 -54t-76 -158q-7 -32 -7 -67q0 -64 29.5 -103.5t91.5 -39.5q40 0 86.5 14.5t82.5 40.5l7 -36q-39 -28 -96.5 -47t-122.5 -19q-109 0 -167.5 52z" />
    <glyph glyph-name="cdotaccent" unicode="&#x10b;" horiz-adv-x="525" 
d="M350.5 596q-12.5 13 -12.5 34q0 32 21.5 54.5t52.5 22.5q22 0 34.5 -13.5t12.5 -35.5q0 -8 -1 -13q-6 -27 -26 -44.5t-46 -17.5q-23 0 -35.5 13zM83.5 42q-58.5 52 -58.5 143q0 25 7 63q25 122 114.5 190.5t216.5 68.5q87 0 133 -26t46 -75q0 -15 -2 -23
q-4 -18 -20.5 -34.5t-35.5 -16.5t-29 10t-10 24q0 10 8 24q6 12 7 20q3 17 -18.5 33t-59.5 16q-72 0 -126 -54t-76 -158q-7 -32 -7 -67q0 -64 29.5 -103.5t91.5 -39.5q40 0 86.5 14.5t82.5 40.5l7 -36q-39 -28 -96.5 -47t-122.5 -19q-109 0 -167.5 52z" />
    <glyph glyph-name="d" unicode="d" horiz-adv-x="621" 
d="M47.5 28q-27.5 38 -27.5 99q0 37 8 77q16 75 56.5 144t110.5 114t167 45q30 0 54 -8.5t34 -23.5l36 177q-28 7 -61 19l3 12l215 22l-122 -601q-3 -13 -3 -25q0 -25 16 -25q17 0 41.5 32.5t42.5 71.5l25 -13q-29 -67 -77 -111t-107 -44q-35 0 -60 21.5t-25 63.5q0 13 3 29
l19 94q-47 -87 -116.5 -147.5t-141.5 -60.5q-63 0 -90.5 38zM284.5 103q46.5 49 86 112.5t46.5 97.5l25 120q-11 13 -28.5 22.5t-35.5 9.5q-49 0 -91 -38t-71 -97.5t-42 -122.5q-5 -28 -5 -60q0 -40 9.5 -66.5t30.5 -26.5q29 0 75.5 49z" />
    <glyph glyph-name="eth" unicode="&#xf0;" horiz-adv-x="595" 
d="M468 656q57 -63 87.5 -139t30.5 -154q0 -38 -7 -72q-29 -143 -114.5 -222t-224.5 -79q-105 0 -159.5 55t-54.5 142q0 30 6 61q13 63 52 121t106 95.5t159 37.5q29 0 60.5 -10t46.5 -27q-16 78 -68 150l-191 -100l-8 66l156 83q-43 41 -93 67l48 48q68 -33 119 -76l155 86
l28 -63zM434 322q0 58 -24 94.5t-67 36.5q-54 0 -100 -57.5t-65 -147.5q-8 -43 -8 -78q0 -59 21 -95t61 -36q61 0 109 66t68 164q5 23 5 53z" />
    <glyph glyph-name="dcaron" unicode="&#x10f;" horiz-adv-x="759" 
d="M47.5 28q-27.5 38 -27.5 99q0 37 8 77q16 75 56.5 144t110.5 114t167 45q30 0 54 -8.5t34 -23.5l36 177q-28 7 -61 19l3 12l215 22l-122 -601q-3 -13 -3 -25q0 -25 16 -25q17 0 41.5 32.5t42.5 71.5l25 -13q-29 -67 -77 -111t-107 -44q-35 0 -60 21.5t-25 63.5q0 13 3 29
l19 94q-47 -87 -116.5 -147.5t-141.5 -60.5q-63 0 -90.5 38zM652 454q70 65 87 115q-26 2 -41.5 16t-15.5 38q0 5 2 15q7 30 31 48.5t54 18.5t45.5 -16t15.5 -41q0 -14 -2 -21q-11 -56 -50 -113.5t-88 -95.5zM284.5 103q46.5 49 86 112.5t46.5 97.5l25 120
q-11 13 -28.5 22.5t-35.5 9.5q-49 0 -91 -38t-71 -97.5t-42 -122.5q-5 -28 -5 -60q0 -40 9.5 -66.5t30.5 -26.5q29 0 75.5 49z" />
    <glyph glyph-name="dcroat" unicode="&#x111;" horiz-adv-x="621" 
d="M47.5 28q-27.5 38 -27.5 99q0 37 8 77q16 75 56.5 144t110.5 114t167 45q30 0 54 -8.5t34 -23.5l16 80h-149l11 51h149l9 46q-28 7 -61 19l3 12l215 22l-20 -99h47l-11 -51h-47l-91 -451q-3 -13 -3 -25q0 -25 16 -25q17 0 41.5 32.5t42.5 71.5l25 -13q-29 -67 -77 -111
t-107 -44q-35 0 -60 21.5t-25 63.5q0 13 3 29l19 94q-47 -87 -116.5 -147.5t-141.5 -60.5q-63 0 -90.5 38zM284.5 103q46.5 49 86 112.5t46.5 97.5l25 120q-11 13 -28.5 22.5t-35.5 9.5q-49 0 -91 -38t-71 -97.5t-42 -122.5q-5 -28 -5 -60q0 -40 9.5 -66.5t30.5 -26.5
q29 0 75.5 49z" />
    <glyph glyph-name="uni1E0D" unicode="&#x1e0d;" horiz-adv-x="621" 
d="M47.5 28q-27.5 38 -27.5 99q0 37 8 77q16 75 56.5 144t110.5 114t167 45q30 0 54 -8.5t34 -23.5l36 177q-28 7 -61 19l3 12l215 22l-122 -601q-3 -13 -3 -25q0 -25 16 -25q17 0 41.5 32.5t42.5 71.5l25 -13q-29 -67 -77 -111t-107 -44q-35 0 -60 21.5t-25 63.5q0 13 3 29
l19 94q-47 -87 -116.5 -147.5t-141.5 -60.5q-63 0 -90.5 38zM284.5 103q46.5 49 86 112.5t46.5 97.5l25 120q-11 13 -28.5 22.5t-35.5 9.5q-49 0 -91 -38t-71 -97.5t-42 -122.5q-5 -28 -5 -60q0 -40 9.5 -66.5t30.5 -26.5q29 0 75.5 49zM189.5 -164.5q-12.5 13.5 -12.5 34.5
q0 31 21 53.5t51 22.5q23 0 36 -13t13 -34q0 -32 -21.5 -54.5t-52.5 -22.5q-22 0 -34.5 13.5z" />
    <glyph glyph-name="uni1E0F" unicode="&#x1e0f;" horiz-adv-x="621" 
d="M47.5 28q-27.5 38 -27.5 99q0 37 8 77q16 75 56.5 144t110.5 114t167 45q30 0 54 -8.5t34 -23.5l36 177q-28 7 -61 19l3 12l215 22l-122 -601q-3 -13 -3 -25q0 -25 16 -25q17 0 41.5 32.5t42.5 71.5l25 -13q-29 -67 -77 -111t-107 -44q-35 0 -60 21.5t-25 63.5q0 13 3 29
l19 94q-47 -87 -116.5 -147.5t-141.5 -60.5q-63 0 -90.5 38zM284.5 103q46.5 49 86 112.5t46.5 97.5l25 120q-11 13 -28.5 22.5t-35.5 9.5q-49 0 -91 -38t-71 -97.5t-42 -122.5q-5 -28 -5 -60q0 -40 9.5 -66.5t30.5 -26.5q29 0 75.5 49zM64 -61h373l-10 -48h-374z" />
    <glyph glyph-name="e" unicode="e" horiz-adv-x="560" 
d="M515 481.5q52 -25.5 52 -80.5q0 -9 -4 -31q-20 -95 -134.5 -137.5t-258.5 -46.5q-2 -67 26.5 -108t93.5 -41q40 0 89.5 14t88.5 41l6 -36q-37 -28 -98.5 -47t-127.5 -19q-109 0 -167.5 52t-58.5 143q0 25 7 63q26 122 111 190.5t211 68.5q112 0 164 -25.5zM415 439.5
q-21 18.5 -65 18.5q-67 0 -111 -61t-61 -147l-3 -19q261 29 261 157q0 33 -21 51.5z" />
    <glyph glyph-name="eacute" unicode="&#xe9;" horiz-adv-x="560" 
d="M299 584l-17 35l143 126q35 35 68 35q22 0 31.5 -13t6.5 -29q-4 -17 -18.5 -31.5t-41.5 -29.5zM515 481.5q52 -25.5 52 -80.5q0 -9 -4 -31q-20 -95 -134.5 -137.5t-258.5 -46.5q-2 -67 26.5 -108t93.5 -41q40 0 89.5 14t88.5 41l6 -36q-37 -28 -98.5 -47t-127.5 -19
q-109 0 -167.5 52t-58.5 143q0 25 7 63q26 122 111 190.5t211 68.5q112 0 164 -25.5zM415 439.5q-21 18.5 -65 18.5q-67 0 -111 -61t-61 -147l-3 -19q261 29 261 157q0 33 -21 51.5z" />
    <glyph glyph-name="ebreve" unicode="&#x115;" horiz-adv-x="560" 
d="M259.5 613.5q-38.5 33.5 -35.5 100.5h82q-1 -6 -1 -17q0 -39 21 -52t55 -13q37 0 64.5 16.5t42.5 65.5h83q-24 -67 -76.5 -100.5t-124.5 -33.5t-110.5 33.5zM515 481.5q52 -25.5 52 -80.5q0 -9 -4 -31q-20 -95 -134.5 -137.5t-258.5 -46.5q-2 -67 26.5 -108t93.5 -41
q40 0 89.5 14t88.5 41l6 -36q-37 -28 -98.5 -47t-127.5 -19q-109 0 -167.5 52t-58.5 143q0 25 7 63q26 122 111 190.5t211 68.5q112 0 164 -25.5zM415 439.5q-21 18.5 -65 18.5q-67 0 -111 -61t-61 -147l-3 -19q261 29 261 157q0 33 -21 51.5z" />
    <glyph glyph-name="ecaron" unicode="&#x11b;" horiz-adv-x="560" 
d="M283 658q-39 47 -67 69l69 45q26 -26 54.5 -64.5t39.5 -63.5h4q22 26 67 64.5t82 63.5l49 -45q-38 -23 -96.5 -70t-80.5 -73h-69q-13 27 -52 74zM515 481.5q52 -25.5 52 -80.5q0 -9 -4 -31q-20 -95 -134.5 -137.5t-258.5 -46.5q-2 -67 26.5 -108t93.5 -41q40 0 89.5 14
t88.5 41l6 -36q-37 -28 -98.5 -47t-127.5 -19q-109 0 -167.5 52t-58.5 143q0 25 7 63q26 122 111 190.5t211 68.5q112 0 164 -25.5zM415 439.5q-21 18.5 -65 18.5q-67 0 -111 -61t-61 -147l-3 -19q261 29 261 157q0 33 -21 51.5z" />
    <glyph glyph-name="ecircumflex" unicode="&#xea;" horiz-adv-x="560" 
d="M324 647q-44 -38 -82 -66l-51 46q37 21 95.5 68.5t80.5 74.5h69q13 -27 53 -74.5t67 -68.5l-69 -46q-26 26 -55 64.5t-41 64.5h-3q-20 -25 -64 -63zM515 481.5q52 -25.5 52 -80.5q0 -9 -4 -31q-20 -95 -134.5 -137.5t-258.5 -46.5q-2 -67 26.5 -108t93.5 -41
q40 0 89.5 14t88.5 41l6 -36q-37 -28 -98.5 -47t-127.5 -19q-109 0 -167.5 52t-58.5 143q0 25 7 63q26 122 111 190.5t211 68.5q112 0 164 -25.5zM415 439.5q-21 18.5 -65 18.5q-67 0 -111 -61t-61 -147l-3 -19q261 29 261 157q0 33 -21 51.5z" />
    <glyph glyph-name="uni1EBF" unicode="&#x1ebf;" horiz-adv-x="560" 
d="M708.5 873.5q9.5 -9.5 9.5 -22.5q0 -20 -20 -40t-55 -37l-113 -54l-17 31l90 88q44 44 78 44q18 0 27.5 -9.5zM323 646.5q-44 -38.5 -81 -65.5l-51 46q37 22 96.5 69.5t80.5 73.5h69q13 -27 52.5 -74.5t66.5 -68.5l-69 -46q-25 26 -54 64.5t-41 64.5h-4
q-21 -25 -65 -63.5zM515 481.5q52 -25.5 52 -80.5q0 -9 -4 -31q-20 -95 -134.5 -137.5t-258.5 -46.5q-2 -67 26.5 -108t93.5 -41q40 0 89.5 14t88.5 41l6 -36q-37 -28 -98.5 -47t-127.5 -19q-109 0 -167.5 52t-58.5 143q0 25 7 63q26 122 111 190.5t211 68.5
q112 0 164 -25.5zM415 439.5q-21 18.5 -65 18.5q-67 0 -111 -61t-61 -147l-3 -19q261 29 261 157q0 33 -21 51.5z" />
    <glyph glyph-name="uni1EC7" unicode="&#x1ec7;" horiz-adv-x="560" 
d="M324 647q-44 -38 -82 -66l-51 46q37 21 95.5 68.5t80.5 74.5h69q13 -27 53 -74.5t67 -68.5l-69 -46q-26 26 -55 64.5t-41 64.5h-3q-20 -25 -64 -63zM515 481.5q52 -25.5 52 -80.5q0 -9 -4 -31q-20 -95 -134.5 -137.5t-258.5 -46.5q-2 -67 26.5 -108t93.5 -41
q40 0 89.5 14t88.5 41l6 -36q-37 -28 -98.5 -47t-127.5 -19q-109 0 -167.5 52t-58.5 143q0 25 7 63q26 122 111 190.5t211 68.5q112 0 164 -25.5zM415 439.5q-21 18.5 -65 18.5q-67 0 -111 -61t-61 -147l-3 -19q261 29 261 157q0 33 -21 51.5zM271.5 -67q12.5 -13 12.5 -35
q0 -9 -1 -14q-6 -27 -26 -44.5t-46 -17.5q-22 0 -35 12.5t-13 33.5q0 32 21.5 55t51.5 23q23 0 35.5 -13z" />
    <glyph glyph-name="uni1EC1" unicode="&#x1ec1;" horiz-adv-x="560" 
d="M118 834q0 18 14 33.5t38 15.5q33 0 61 -44l54 -88l-29 -31l-92 54q-46 27 -46 60zM191 627q37 22 96.5 69.5t80.5 73.5h69q13 -27 52.5 -74.5t66.5 -68.5l-69 -46q-25 26 -54 64.5t-41 64.5h-4q-21 -25 -65 -63.5t-81 -65.5zM515 481.5q52 -25.5 52 -80.5q0 -9 -4 -31
q-20 -95 -134.5 -137.5t-258.5 -46.5q-2 -67 26.5 -108t93.5 -41q40 0 89.5 14t88.5 41l6 -36q-37 -28 -98.5 -47t-127.5 -19q-109 0 -167.5 52t-58.5 143q0 25 7 63q26 122 111 190.5t211 68.5q112 0 164 -25.5zM415 439.5q-21 18.5 -65 18.5q-67 0 -111 -61t-61 -147
l-3 -19q261 29 261 157q0 33 -21 51.5z" />
    <glyph glyph-name="uni1EC3" unicode="&#x1ec3;" horiz-adv-x="560" 
d="M653 918.5q25 -15.5 25 -47.5q0 -5 -2 -17q-8 -37 -32.5 -54.5t-63.5 -20.5l-18 -48h-52l12 79h32q20 0 36 11t21 34q1 3 1 9q0 14 -11 22.5t-33 8.5q-26 0 -55 -12l2 36q36 15 75 15q38 0 63 -15.5zM323 646.5q-44 -38.5 -81 -65.5l-51 46q37 22 96.5 69.5t80.5 73.5h69
q13 -27 52.5 -74.5t66.5 -68.5l-69 -46q-25 26 -54 64.5t-41 64.5h-4q-21 -25 -65 -63.5zM515 481.5q52 -25.5 52 -80.5q0 -9 -4 -31q-20 -95 -134.5 -137.5t-258.5 -46.5q-2 -67 26.5 -108t93.5 -41q40 0 89.5 14t88.5 41l6 -36q-37 -28 -98.5 -47t-127.5 -19
q-109 0 -167.5 52t-58.5 143q0 25 7 63q26 122 111 190.5t211 68.5q112 0 164 -25.5zM415 439.5q-21 18.5 -65 18.5q-67 0 -111 -61t-61 -147l-3 -19q261 29 261 157q0 33 -21 51.5z" />
    <glyph glyph-name="uni1EC5" unicode="&#x1ec5;" horiz-adv-x="560" 
d="M621 919q-17 -55 -51.5 -85.5t-86.5 -30.5q-20 0 -36.5 7.5t-35.5 20.5q-17 12 -29.5 17.5t-25.5 5.5q-23 0 -42.5 -14t-28.5 -38h-50q19 57 54 85.5t83 28.5q25 0 41.5 -8t37.5 -23q13 -10 22.5 -15t20.5 -5q21 0 43 12t35 42h49zM323 646.5q-44 -38.5 -81 -65.5l-51 46
q37 22 96.5 69.5t80.5 73.5h69q13 -27 52.5 -74.5t66.5 -68.5l-69 -46q-25 26 -54 64.5t-41 64.5h-4q-21 -25 -65 -63.5zM515 481.5q52 -25.5 52 -80.5q0 -9 -4 -31q-20 -95 -134.5 -137.5t-258.5 -46.5q-2 -67 26.5 -108t93.5 -41q40 0 89.5 14t88.5 41l6 -36
q-37 -28 -98.5 -47t-127.5 -19q-109 0 -167.5 52t-58.5 143q0 25 7 63q26 122 111 190.5t211 68.5q112 0 164 -25.5zM415 439.5q-21 18.5 -65 18.5q-67 0 -111 -61t-61 -147l-3 -19q261 29 261 157q0 33 -21 51.5z" />
    <glyph glyph-name="edieresis" unicode="&#xeb;" horiz-adv-x="560" 
d="M215.5 595.5q-12.5 12.5 -12.5 33.5q0 32 21.5 55t50.5 23q23 0 36 -13t13 -34q0 -32 -22 -54.5t-53 -22.5q-21 0 -33.5 12.5zM445 595.5q-12 12.5 -12 32.5q0 5 2 17q5 27 24.5 44.5t46.5 17.5q23 0 35.5 -13.5t12.5 -35.5q0 -8 -1 -13q-6 -27 -26 -44.5t-47 -17.5
q-23 0 -35 12.5zM515 481.5q52 -25.5 52 -80.5q0 -9 -4 -31q-20 -95 -134.5 -137.5t-258.5 -46.5q-2 -67 26.5 -108t93.5 -41q40 0 89.5 14t88.5 41l6 -36q-37 -28 -98.5 -47t-127.5 -19q-109 0 -167.5 52t-58.5 143q0 25 7 63q26 122 111 190.5t211 68.5q112 0 164 -25.5z
M415 439.5q-21 18.5 -65 18.5q-67 0 -111 -61t-61 -147l-3 -19q261 29 261 157q0 33 -21 51.5z" />
    <glyph glyph-name="edotaccent" unicode="&#x117;" horiz-adv-x="560" 
d="M337.5 595.5q-12.5 12.5 -12.5 33.5q0 32 21.5 55t51.5 23q23 0 35.5 -13t12.5 -34q0 -5 -2 -15q-6 -27 -26 -44.5t-46 -17.5q-22 0 -34.5 12.5zM515 481.5q52 -25.5 52 -80.5q0 -9 -4 -31q-20 -95 -134.5 -137.5t-258.5 -46.5q-2 -67 26.5 -108t93.5 -41q40 0 89.5 14
t88.5 41l6 -36q-37 -28 -98.5 -47t-127.5 -19q-109 0 -167.5 52t-58.5 143q0 25 7 63q26 122 111 190.5t211 68.5q112 0 164 -25.5zM415 439.5q-21 18.5 -65 18.5q-67 0 -111 -61t-61 -147l-3 -19q261 29 261 157q0 33 -21 51.5z" />
    <glyph glyph-name="uni1EB9" unicode="&#x1eb9;" horiz-adv-x="560" 
d="M515 481.5q52 -25.5 52 -80.5q0 -9 -4 -31q-20 -95 -134.5 -137.5t-258.5 -46.5q-2 -67 26.5 -108t93.5 -41q40 0 89.5 14t88.5 41l6 -36q-37 -28 -98.5 -47t-127.5 -19q-109 0 -167.5 52t-58.5 143q0 25 7 63q26 122 111 190.5t211 68.5q112 0 164 -25.5zM415 439.5
q-21 18.5 -65 18.5q-67 0 -111 -61t-61 -147l-3 -19q261 29 261 157q0 33 -21 51.5zM260 -67q13 -13 13 -34q0 -32 -21.5 -54.5t-52.5 -22.5q-22 0 -34.5 13.5t-12.5 34.5q0 31 21 53.5t51 22.5q23 0 36 -13z" />
    <glyph glyph-name="egrave" unicode="&#xe8;" horiz-adv-x="560" 
d="M281 729q0 17 15 34t42 17q20 0 34.5 -12t18.5 -22l93 -127l-31 -35l-136 93q-36 26 -36 52zM515 481.5q52 -25.5 52 -80.5q0 -9 -4 -31q-20 -95 -134.5 -137.5t-258.5 -46.5q-2 -67 26.5 -108t93.5 -41q40 0 89.5 14t88.5 41l6 -36q-37 -28 -98.5 -47t-127.5 -19
q-109 0 -167.5 52t-58.5 143q0 25 7 63q26 122 111 190.5t211 68.5q112 0 164 -25.5zM415 439.5q-21 18.5 -65 18.5q-67 0 -111 -61t-61 -147l-3 -19q261 29 261 157q0 33 -21 51.5z" />
    <glyph glyph-name="uni1EBB" unicode="&#x1ebb;" horiz-adv-x="560" 
d="M415 700q19 13 24 39q1 3 1 9q0 18 -13 29t-38 11q-33 0 -62 -16l1 39q17 8 40.5 13t45.5 5q43 0 71 -17.5t28 -53.5q0 -13 -2 -20q-14 -77 -108 -86l-24 -69h-60l18 104h36q23 0 42 13zM515 481.5q52 -25.5 52 -80.5q0 -9 -4 -31q-20 -95 -134.5 -137.5t-258.5 -46.5
q-2 -67 26.5 -108t93.5 -41q40 0 89.5 14t88.5 41l6 -36q-37 -28 -98.5 -47t-127.5 -19q-109 0 -167.5 52t-58.5 143q0 25 7 63q26 122 111 190.5t211 68.5q112 0 164 -25.5zM415 439.5q-21 18.5 -65 18.5q-67 0 -111 -61t-61 -147l-3 -19q261 29 261 157q0 33 -21 51.5z
" />
    <glyph glyph-name="emacron" unicode="&#x113;" horiz-adv-x="560" 
d="M547 584h-374l10 48h373zM515 481.5q52 -25.5 52 -80.5q0 -9 -4 -31q-20 -95 -134.5 -137.5t-258.5 -46.5q-2 -67 26.5 -108t93.5 -41q40 0 89.5 14t88.5 41l6 -36q-37 -28 -98.5 -47t-127.5 -19q-109 0 -167.5 52t-58.5 143q0 25 7 63q26 122 111 190.5t211 68.5
q112 0 164 -25.5zM415 439.5q-21 18.5 -65 18.5q-67 0 -111 -61t-61 -147l-3 -19q261 29 261 157q0 33 -21 51.5z" />
    <glyph glyph-name="eogonek" unicode="&#x119;" horiz-adv-x="560" 
d="M515 481.5q52 -25.5 52 -80.5q0 -9 -4 -31q-20 -95 -134.5 -137.5t-258.5 -46.5q-2 -67 26.5 -108t93.5 -41q40 0 89.5 14t88.5 41l6 -36l-30 -19q-22 -15 -40 -38.5t-23 -44.5q-1 -4 -1 -11q0 -19 13 -30t36 -11q30 0 69 21l-14 -63q-20 -12 -50 -19t-61 -7
q-53 0 -81.5 19.5t-28.5 52.5q0 6 2 18q6 35 38 70q-24 -4 -55 -4q-109 0 -167.5 52t-58.5 143q0 25 7 63q26 122 111 190.5t211 68.5q112 0 164 -25.5zM415 439.5q-21 18.5 -65 18.5q-67 0 -111 -61t-61 -147l-3 -19q261 29 261 157q0 33 -21 51.5z" />
    <glyph glyph-name="uni1EBD" unicode="&#x1ebd;" horiz-adv-x="560" 
d="M252.5 622.5q-17.5 -14.5 -26.5 -38.5h-64q19 57 55.5 87t85.5 30q26 0 45.5 -8t42.5 -23q17 -11 27.5 -16t21.5 -5q21 0 38.5 11.5t31.5 42.5h62q-17 -56 -51.5 -87.5t-87.5 -31.5q-21 0 -41 8.5t-47 23.5q-20 11 -31.5 16t-21.5 5q-22 0 -39.5 -14.5zM515 481.5
q52 -25.5 52 -80.5q0 -9 -4 -31q-20 -95 -134.5 -137.5t-258.5 -46.5q-2 -67 26.5 -108t93.5 -41q40 0 89.5 14t88.5 41l6 -36q-37 -28 -98.5 -47t-127.5 -19q-109 0 -167.5 52t-58.5 143q0 25 7 63q26 122 111 190.5t211 68.5q112 0 164 -25.5zM415 439.5
q-21 18.5 -65 18.5q-67 0 -111 -61t-61 -147l-3 -19q261 29 261 157q0 33 -21 51.5z" />
    <glyph glyph-name="f" unicode="f" horiz-adv-x="433" 
d="M527.5 698.5q39.5 -24.5 39.5 -69.5q0 -11 -3 -25q-4 -17 -20 -33t-35 -16q-22 0 -30.5 12t-5.5 29q1 6 6 16t6 16q1 3 1 9q0 16 -14.5 24.5t-40.5 8.5q-42 0 -69.5 -31t-37.5 -83l-12 -58h141l-10 -48h-141l-91 -448q-18 -90 -80 -135.5t-158 -45.5q-80 0 -116.5 23.5
t-36.5 67.5q0 13 3 28q3 18 18.5 33.5t35.5 15.5q19 0 28 -9t9 -23q0 -9 -5.5 -22t-6.5 -19q-1 -3 -1 -9q0 -16 14 -24.5t40 -8.5q42 0 69.5 31.5t37.5 82.5l94 462h-90l10 48h90l9 44q19 91 77.5 136t153.5 45q82 0 121.5 -24.5z" />
    <glyph glyph-name="g" unicode="g" horiz-adv-x="547" 
d="M617 510q13 -15 13 -40q0 -6 -2 -18q-4 -19 -20.5 -34.5t-36.5 -15.5q-19 0 -25.5 8.5t-8.5 23.5q-2 10 -5 15t-10 5q-6 0 -23 -12q19 -28 19 -65q0 -10 -4 -36q-16 -80 -84.5 -122.5t-178.5 -42.5q-58 0 -100 12q-19 -13 -24 -33q-3 -22 15.5 -28t60.5 -6h139
q61 0 98.5 -27.5t37.5 -76.5q0 -12 -3 -26q-31 -150 -295 -150q-203 0 -203 100q0 10 3 24q4 21 19.5 42t41.5 34q-19 19 -19 50q0 8 2 20q5 28 25 54t53 45q-51 32 -51 95q0 19 4 36q16 80 84.5 123t178.5 43q97 0 150 -34q32 25 57 38.5t54 13.5q25 0 38 -15zM374 381
q0 35 -16 56t-49 21q-42 0 -70 -32.5t-39 -84.5q-4 -19 -4 -40q0 -36 16 -56.5t49 -20.5q41 0 69.5 33t38.5 84q5 23 5 40zM113 16h-10q-17 -17 -23 -43q-2 -12 -2 -17q0 -38 35.5 -55t86.5 -17q60 0 108.5 20t56.5 61q1 4 1 12q0 25 -25 32t-79 7h-149z" />
    <glyph glyph-name="gbreve" unicode="&#x11f;" horiz-adv-x="547" 
d="M237.5 613.5q-38.5 33.5 -35.5 100.5h82q-1 -6 -1 -17q0 -39 21 -52t55 -13q37 0 64.5 16.5t42.5 65.5h83q-24 -67 -76.5 -100.5t-124.5 -33.5t-110.5 33.5zM617 510q13 -15 13 -40q0 -6 -2 -18q-4 -19 -20.5 -34.5t-36.5 -15.5q-19 0 -25.5 8.5t-8.5 23.5q-2 10 -5 15
t-10 5q-6 0 -23 -12q19 -28 19 -65q0 -10 -4 -36q-16 -80 -84.5 -122.5t-178.5 -42.5q-58 0 -100 12q-19 -13 -24 -33q-3 -22 15.5 -28t60.5 -6h139q61 0 98.5 -27.5t37.5 -76.5q0 -12 -3 -26q-31 -150 -295 -150q-203 0 -203 100q0 10 3 24q4 21 19.5 42t41.5 34
q-19 19 -19 50q0 8 2 20q5 28 25 54t53 45q-51 32 -51 95q0 19 4 36q16 80 84.5 123t178.5 43q97 0 150 -34q32 25 57 38.5t54 13.5q25 0 38 -15zM374 381q0 35 -16 56t-49 21q-42 0 -70 -32.5t-39 -84.5q-4 -19 -4 -40q0 -36 16 -56.5t49 -20.5q41 0 69.5 33t38.5 84
q5 23 5 40zM113 16h-10q-17 -17 -23 -43q-2 -12 -2 -17q0 -38 35.5 -55t86.5 -17q60 0 108.5 20t56.5 61q1 4 1 12q0 25 -25 32t-79 7h-149z" />
    <glyph glyph-name="gcaron" unicode="&#x1e7;" horiz-adv-x="547" 
d="M259 658q-39 47 -67 69l69 45q26 -26 54.5 -64.5t39.5 -63.5h4q22 26 67 64.5t82 63.5l49 -45q-38 -23 -96.5 -70t-80.5 -73h-69q-13 27 -52 74zM617 510q13 -15 13 -40q0 -6 -2 -18q-4 -19 -20.5 -34.5t-36.5 -15.5q-19 0 -25.5 8.5t-8.5 23.5q-2 10 -5 15t-10 5
q-6 0 -23 -12q19 -28 19 -65q0 -10 -4 -36q-16 -80 -84.5 -122.5t-178.5 -42.5q-58 0 -100 12q-19 -13 -24 -33q-3 -22 15.5 -28t60.5 -6h139q61 0 98.5 -27.5t37.5 -76.5q0 -12 -3 -26q-31 -150 -295 -150q-203 0 -203 100q0 10 3 24q4 21 19.5 42t41.5 34q-19 19 -19 50
q0 8 2 20q5 28 25 54t53 45q-51 32 -51 95q0 19 4 36q16 80 84.5 123t178.5 43q97 0 150 -34q32 25 57 38.5t54 13.5q25 0 38 -15zM374 381q0 35 -16 56t-49 21q-42 0 -70 -32.5t-39 -84.5q-4 -19 -4 -40q0 -36 16 -56.5t49 -20.5q41 0 69.5 33t38.5 84q5 23 5 40zM113 16
h-10q-17 -17 -23 -43q-2 -12 -2 -17q0 -38 35.5 -55t86.5 -17q60 0 108.5 20t56.5 61q1 4 1 12q0 25 -25 32t-79 7h-149z" />
    <glyph glyph-name="gcircumflex" unicode="&#x11d;" horiz-adv-x="547" 
d="M308 647q-44 -38 -82 -66l-51 46q37 21 96 68.5t81 74.5h69q12 -26 52 -73.5t68 -69.5l-69 -46q-26 26 -55 64.5t-41 64.5h-4q-20 -25 -64 -63zM617 510q13 -15 13 -40q0 -6 -2 -18q-4 -19 -20.5 -34.5t-36.5 -15.5q-19 0 -25.5 8.5t-8.5 23.5q-2 10 -5 15t-10 5
q-6 0 -23 -12q19 -28 19 -65q0 -10 -4 -36q-16 -80 -84.5 -122.5t-178.5 -42.5q-58 0 -100 12q-19 -13 -24 -33q-3 -22 15.5 -28t60.5 -6h139q61 0 98.5 -27.5t37.5 -76.5q0 -12 -3 -26q-31 -150 -295 -150q-203 0 -203 100q0 10 3 24q4 21 19.5 42t41.5 34q-19 19 -19 50
q0 8 2 20q5 28 25 54t53 45q-51 32 -51 95q0 19 4 36q16 80 84.5 123t178.5 43q97 0 150 -34q32 25 57 38.5t54 13.5q25 0 38 -15zM374 381q0 35 -16 56t-49 21q-42 0 -70 -32.5t-39 -84.5q-4 -19 -4 -40q0 -36 16 -56.5t49 -20.5q41 0 69.5 33t38.5 84q5 23 5 40zM113 16
h-10q-17 -17 -23 -43q-2 -12 -2 -17q0 -38 35.5 -55t86.5 -17q60 0 108.5 20t56.5 61q1 4 1 12q0 25 -25 32t-79 7h-149z" />
    <glyph glyph-name="gcommaaccent" unicode="&#x123;" horiz-adv-x="547" 
d="M300 593.5q-15 15.5 -15 41.5q0 14 2 21q11 56 50 113.5t88 95.5l38 -36q-70 -65 -87 -115q26 -2 41 -16.5t15 -39.5q0 -8 -1 -13q-7 -30 -31 -48.5t-54 -18.5q-31 0 -46 15.5zM617 510q13 -15 13 -40q0 -6 -2 -18q-4 -19 -20.5 -34.5t-36.5 -15.5q-19 0 -25.5 8.5
t-8.5 23.5q-2 10 -5 15t-10 5q-6 0 -23 -12q19 -28 19 -65q0 -10 -4 -36q-16 -80 -84.5 -122.5t-178.5 -42.5q-58 0 -100 12q-19 -13 -24 -33q-3 -22 15.5 -28t60.5 -6h139q61 0 98.5 -27.5t37.5 -76.5q0 -12 -3 -26q-31 -150 -295 -150q-203 0 -203 100q0 10 3 24
q4 21 19.5 42t41.5 34q-19 19 -19 50q0 8 2 20q5 28 25 54t53 45q-51 32 -51 95q0 19 4 36q16 80 84.5 123t178.5 43q97 0 150 -34q32 25 57 38.5t54 13.5q25 0 38 -15zM374 381q0 35 -16 56t-49 21q-42 0 -70 -32.5t-39 -84.5q-4 -19 -4 -40q0 -36 16 -56.5t49 -20.5
q41 0 69.5 33t38.5 84q5 23 5 40zM113 16h-10q-17 -17 -23 -43q-2 -12 -2 -17q0 -38 35.5 -55t86.5 -17q60 0 108.5 20t56.5 61q1 4 1 12q0 25 -25 32t-79 7h-149z" />
    <glyph glyph-name="gdotaccent" unicode="&#x121;" horiz-adv-x="547" 
d="M309.5 595.5q-12.5 12.5 -12.5 33.5q0 32 21 55t52 23q23 0 35.5 -13t12.5 -34q0 -32 -21.5 -54.5t-52.5 -22.5q-22 0 -34.5 12.5zM617 510q13 -15 13 -40q0 -6 -2 -18q-4 -19 -20.5 -34.5t-36.5 -15.5q-19 0 -25.5 8.5t-8.5 23.5q-2 10 -5 15t-10 5q-6 0 -23 -12
q19 -28 19 -65q0 -10 -4 -36q-16 -80 -84.5 -122.5t-178.5 -42.5q-58 0 -100 12q-19 -13 -24 -33q-3 -22 15.5 -28t60.5 -6h139q61 0 98.5 -27.5t37.5 -76.5q0 -12 -3 -26q-31 -150 -295 -150q-203 0 -203 100q0 10 3 24q4 21 19.5 42t41.5 34q-19 19 -19 50q0 8 2 20
q5 28 25 54t53 45q-51 32 -51 95q0 19 4 36q16 80 84.5 123t178.5 43q97 0 150 -34q32 25 57 38.5t54 13.5q25 0 38 -15zM374 381q0 35 -16 56t-49 21q-42 0 -70 -32.5t-39 -84.5q-4 -19 -4 -40q0 -36 16 -56.5t49 -20.5q41 0 69.5 33t38.5 84q5 23 5 40zM113 16h-10
q-17 -17 -23 -43q-2 -12 -2 -17q0 -38 35.5 -55t86.5 -17q60 0 108.5 20t56.5 61q1 4 1 12q0 25 -25 32t-79 7h-149z" />
    <glyph glyph-name="uni1E21" unicode="&#x1e21;" horiz-adv-x="547" 
d="M531 584h-374l10 48h373zM617 510q13 -15 13 -40q0 -6 -2 -18q-4 -19 -20.5 -34.5t-36.5 -15.5q-19 0 -25.5 8.5t-8.5 23.5q-2 10 -5 15t-10 5q-6 0 -23 -12q19 -28 19 -65q0 -10 -4 -36q-16 -80 -84.5 -122.5t-178.5 -42.5q-58 0 -100 12q-19 -13 -24 -33
q-3 -22 15.5 -28t60.5 -6h139q61 0 98.5 -27.5t37.5 -76.5q0 -12 -3 -26q-31 -150 -295 -150q-203 0 -203 100q0 10 3 24q4 21 19.5 42t41.5 34q-19 19 -19 50q0 8 2 20q5 28 25 54t53 45q-51 32 -51 95q0 19 4 36q16 80 84.5 123t178.5 43q97 0 150 -34q32 25 57 38.5
t54 13.5q25 0 38 -15zM374 381q0 35 -16 56t-49 21q-42 0 -70 -32.5t-39 -84.5q-4 -19 -4 -40q0 -36 16 -56.5t49 -20.5q41 0 69.5 33t38.5 84q5 23 5 40zM113 16h-10q-17 -17 -23 -43q-2 -12 -2 -17q0 -38 35.5 -55t86.5 -17q60 0 108.5 20t56.5 61q1 4 1 12q0 25 -25 32
t-79 7h-149z" />
    <glyph glyph-name="h" unicode="h" horiz-adv-x="692" 
d="M686 145q-28 -67 -76 -111t-107 -44q-36 0 -60.5 24.5t-24.5 67.5q0 14 3 30l33 158q20 95 20 134q0 30 -11 42t-36 12q-30 0 -75 -40.5t-92 -107.5l-63 -310l-148 -10l135 662q-32 8 -60 20l2 11l214 22l-66 -324q41 54 94.5 90t113.5 36q67 0 103 -27.5t36 -83.5
q0 -18 -5 -45l-50 -245q-4 -20 -4 -28q0 -24 16 -24q17 0 41 32.5t42 71.5z" />
    <glyph glyph-name="hbar" unicode="&#x127;" horiz-adv-x="692" 
d="M686 145q-28 -67 -76 -111t-107 -44q-36 0 -60.5 24.5t-24.5 67.5q0 14 3 30l33 158q20 95 20 134q0 30 -11 42t-36 12q-30 0 -75 -40.5t-92 -107.5l-63 -310l-148 -10l115 562h-70l10 51h70l10 49q-32 8 -60 20l2 11l214 22l-21 -102h127l-10 -51h-127l-35 -171
q41 54 94.5 90t113.5 36q67 0 103 -27.5t36 -83.5q0 -18 -5 -45l-50 -245q-4 -20 -4 -28q0 -24 16 -24q17 0 41 32.5t42 71.5z" />
    <glyph glyph-name="uni1E2B" unicode="&#x1e2b;" horiz-adv-x="692" 
d="M686 145q-28 -67 -76 -111t-107 -44q-36 0 -60.5 24.5t-24.5 67.5q0 14 3 30l33 158q20 95 20 134q0 30 -11 42t-36 12q-30 0 -75 -40.5t-92 -107.5l-63 -310l-148 -10l135 662q-32 8 -60 20l2 11l214 22l-66 -324q41 54 94.5 90t113.5 36q67 0 103 -27.5t36 -83.5
q0 -18 -5 -45l-50 -245q-4 -20 -4 -28q0 -24 16 -24q17 0 41 32.5t42 71.5zM338.5 -116q27.5 17 43.5 66h82q-24 -67 -76 -100.5t-124 -33.5q-73 0 -111.5 33.5t-34.5 100.5h82q-1 -6 -1 -17q0 -39 20.5 -52.5t54.5 -13.5q37 0 64.5 17z" />
    <glyph glyph-name="hcircumflex" unicode="&#x125;" horiz-adv-x="692" 
d="M418 830q-44 -38 -82 -66l-51 46q37 21 95.5 68.5t80.5 74.5h70q12 -27 52 -74.5t68 -68.5l-70 -46q-26 26 -55 64.5t-41 64.5h-3q-20 -25 -64 -63zM686 145q-28 -67 -76 -111t-107 -44q-36 0 -60.5 24.5t-24.5 67.5q0 14 3 30l33 158q20 95 20 134q0 30 -11 42t-36 12
q-30 0 -75 -40.5t-92 -107.5l-63 -310l-148 -10l135 662q-32 8 -60 20l2 11l214 22l-66 -324q41 54 94.5 90t113.5 36q67 0 103 -27.5t36 -83.5q0 -18 -5 -45l-50 -245q-4 -20 -4 -28q0 -24 16 -24q17 0 41 32.5t42 71.5z" />
    <glyph glyph-name="uni1E25" unicode="&#x1e25;" horiz-adv-x="692" 
d="M686 145q-28 -67 -76 -111t-107 -44q-36 0 -60.5 24.5t-24.5 67.5q0 14 3 30l33 158q20 95 20 134q0 30 -11 42t-36 12q-30 0 -75 -40.5t-92 -107.5l-63 -310l-148 -10l135 662q-32 8 -60 20l2 11l214 22l-66 -324q41 54 94.5 90t113.5 36q67 0 103 -27.5t36 -83.5
q0 -18 -5 -45l-50 -245q-4 -20 -4 -28q0 -24 16 -24q17 0 41 32.5t42 71.5zM326.5 -67.5q12.5 -13.5 12.5 -35.5q0 -8 -1 -13q-6 -27 -26 -44.5t-46 -17.5q-22 0 -35 12.5t-13 33.5q0 4 2 16q5 27 24.5 44.5t46.5 17.5q23 0 35.5 -13.5z" />
    <glyph glyph-name="i" unicode="i" horiz-adv-x="340" 
d="M181 557.5q-16 15.5 -16 41.5q0 40 27 67t65 27q28 0 44.5 -16t16.5 -42q0 -39 -27 -66t-65 -27q-29 0 -45 15.5zM93.5 11q-25.5 21 -25.5 62q0 13 3 29l72 352q-26 5 -62 19l2 11l216 22l-81 -398q-3 -16 -3 -30q0 -24 14 -24q18 0 42 32t42 72l25 -13
q-29 -68 -76 -111.5t-107 -43.5q-36 0 -61.5 21z" />
    <glyph glyph-name="dotlessi" unicode="&#x131;" horiz-adv-x="359" 
d="M102 11.5q-26 21.5 -26 62.5q0 13 3 28l72 352q-23 5 -61 19l2 11l216 22l-82 -398q-3 -15 -3 -29q0 -25 15 -25q18 0 41.5 32t41.5 72l25 -13q-28 -67 -75.5 -111t-106.5 -44q-36 0 -62 21.5z" />
    <glyph glyph-name="iacute" unicode="&#xed;" horiz-adv-x="359" 
d="M145 619l143 126q9 10 28 22.5t40 12.5q19 0 28.5 -10t9.5 -24q0 -20 -15 -36t-45 -33l-172 -93zM102 11.5q-26 21.5 -26 62.5q0 13 3 28l72 352q-23 5 -61 19l2 11l216 22l-82 -398q-3 -15 -3 -29q0 -25 15 -25q18 0 41.5 32t41.5 72l25 -13q-28 -67 -75.5 -111
t-106.5 -44q-36 0 -62 21.5z" />
    <glyph glyph-name="ibreve" unicode="&#x12d;" horiz-adv-x="359" 
d="M139.5 616.5q-38.5 33.5 -35.5 100.5h83q-1 -7 -1 -18q0 -39 20.5 -52t54.5 -13q37 0 64.5 17t43.5 66h83q-25 -67 -77 -100.5t-125 -33.5q-72 0 -110.5 33.5zM102 11.5q-26 21.5 -26 62.5q0 13 3 28l72 352q-23 5 -61 19l2 11l216 22l-82 -398q-3 -15 -3 -29
q0 -25 15 -25q18 0 41.5 32t41.5 72l25 -13q-28 -67 -75.5 -111t-106.5 -44q-36 0 -62 21.5z" />
    <glyph glyph-name="uni01D0" unicode="&#x1d0;" horiz-adv-x="359" 
d="M165 658q-40 47 -67 69l69 45q26 -25 54.5 -63.5t40.5 -64.5h3q22 26 66.5 64.5t81.5 63.5l50 -45q-38 -23 -96.5 -70t-80.5 -73h-68q-13 27 -53 74zM-13 17q33 11 80 22l84 415q-28 6 -61 19l2 11l217 22l-95 -468q32 -7 70 -21l-3 -17h-297z" />
    <glyph glyph-name="icircumflex" unicode="&#xee;" horiz-adv-x="359" 
d="M77 627q37 21 96 68.5t81 74.5h69q13 -27 53 -74.5t67 -68.5l-69 -46q-26 26 -55 64.5t-41 64.5h-4q-20 -25 -64 -63t-82 -66zM102 11.5q-26 21.5 -26 62.5q0 13 3 28l72 352q-23 5 -61 19l2 11l216 22l-82 -398q-3 -15 -3 -29q0 -25 15 -25q18 0 41.5 32t41.5 72l25 -13
q-28 -67 -75.5 -111t-106.5 -44q-36 0 -62 21.5z" />
    <glyph glyph-name="idieresis" unicode="&#xef;" horiz-adv-x="359" 
d="M101.5 595.5q-12.5 12.5 -12.5 33.5q0 32 21 55t51 23q23 0 35.5 -13t12.5 -35q0 -9 -1 -14q-6 -27 -26 -44.5t-47 -17.5q-21 0 -33.5 12.5zM330.5 595.5q-12.5 12.5 -12.5 33.5q0 32 21 55t52 23q23 0 36 -13t13 -34q0 -32 -22 -54.5t-53 -22.5q-22 0 -34.5 12.5z
M102 11.5q-26 21.5 -26 62.5q0 13 3 28l72 352q-23 5 -61 19l2 11l216 22l-82 -398q-3 -15 -3 -29q0 -25 15 -25q18 0 41.5 32t41.5 72l25 -13q-28 -67 -75.5 -111t-106.5 -44q-36 0 -62 21.5z" />
    <glyph glyph-name="uni1ECB" unicode="&#x1ecb;" horiz-adv-x="340" 
d="M181 557.5q-16 15.5 -16 41.5q0 40 27 67t65 27q28 0 44.5 -16t16.5 -42q0 -39 -27 -66t-65 -27q-29 0 -45 15.5zM93.5 11q-25.5 21 -25.5 62q0 13 3 29l72 352q-26 5 -62 19l2 11l216 22l-81 -398q-3 -16 -3 -30q0 -24 14 -24q18 0 42 32t42 72l25 -13
q-29 -68 -76 -111.5t-107 -43.5q-36 0 -61.5 21zM70.5 -164.5q-12.5 13.5 -12.5 34.5q0 31 21 53.5t51 22.5q23 0 36 -13t13 -34q0 -32 -21.5 -54.5t-52.5 -22.5q-22 0 -34.5 13.5z" />
    <glyph glyph-name="igrave" unicode="&#xec;" horiz-adv-x="359" 
d="M197 677q-36 26 -36 52q0 17 15 34t42 17q20 0 34.5 -12t18.5 -22l93 -127l-31 -35zM102 11.5q-26 21.5 -26 62.5q0 13 3 28l72 352q-23 5 -61 19l2 11l216 22l-82 -398q-3 -15 -3 -29q0 -25 15 -25q18 0 41.5 32t41.5 72l25 -13q-28 -67 -75.5 -111t-106.5 -44
q-36 0 -62 21.5z" />
    <glyph glyph-name="uni1EC9" unicode="&#x1ec9;" horiz-adv-x="359" 
d="M229 687h37q22 0 41 13t25 39q1 3 1 9q0 17 -13.5 28.5t-37.5 11.5q-33 0 -62 -16v39q41 18 87 18q42 0 70.5 -18t28.5 -54q0 -5 -2 -19q-15 -77 -109 -86l-24 -69h-59zM102 11.5q-26 21.5 -26 62.5q0 13 3 28l72 352q-23 5 -61 19l2 11l216 22l-82 -398q-3 -15 -3 -29
q0 -25 15 -25q18 0 41.5 32t41.5 72l25 -13q-28 -67 -75.5 -111t-106.5 -44q-36 0 -62 21.5z" />
    <glyph glyph-name="ij" unicode="&#x133;" horiz-adv-x="687" 
d="M181 557.5q-16 15.5 -16 41.5q0 40 27 67t65 27q28 0 44.5 -16t16.5 -42q0 -39 -27 -66t-65 -27q-29 0 -45 15.5zM546 557.5q-16 15.5 -16 41.5q0 40 26.5 67t64.5 27q29 0 45.5 -16t16.5 -42q0 -39 -27.5 -66t-65.5 -27q-28 0 -44 15.5zM93.5 11q-25.5 21 -25.5 62
q0 13 3 29l72 352q-26 5 -62 19l2 11l216 22l-81 -398q-3 -16 -3 -30q0 -24 14 -24q18 0 42 32t42 72l25 -13q-29 -68 -76 -111.5t-107 -43.5q-36 0 -61.5 21zM169 -98q0 14 3 29q2 17 17.5 33t35.5 16q19 0 28.5 -9t9.5 -23q0 -6 -1 -9q-2 -7 -8 -18t-6 -22
q0 -17 14.5 -25.5t40.5 -8.5q42 0 69 31t38 83l97 475q-22 5 -62 19l2 11l217 22l-108 -527q-17 -83 -79 -125t-156 -42q-152 0 -152 90z" />
    <glyph glyph-name="imacron" unicode="&#x12b;" horiz-adv-x="359" 
d="M76 632h373l-10 -48h-373zM102 11.5q-26 21.5 -26 62.5q0 13 3 28l72 352q-23 5 -61 19l2 11l216 22l-82 -398q-3 -15 -3 -29q0 -25 15 -25q18 0 41.5 32t41.5 72l25 -13q-28 -67 -75.5 -111t-106.5 -44q-36 0 -62 21.5z" />
    <glyph glyph-name="iogonek" unicode="&#x12f;" horiz-adv-x="340" 
d="M181 557.5q-16 15.5 -16 41.5q0 40 27 67t65 27q28 0 44.5 -16t16.5 -42q0 -39 -27 -66t-65 -27q-29 0 -45 15.5zM172 -36.5q-15 -20.5 -19 -39.5q-1 -3 -1 -10q0 -19 13.5 -30.5t35.5 -11.5q31 0 69 21l-13 -63q-21 -12 -50.5 -19t-60.5 -7q-53 0 -82 19.5t-29 53.5
q0 31 23 64.5t60 54.5q-23 9 -36.5 28.5t-13.5 48.5q0 13 3 29l72 352q-26 5 -62 19l2 11l216 22l-81 -398q-3 -16 -3 -30q0 -24 14 -24q18 0 42 32t42 72l25 -13q-23 -52 -56.5 -91t-76.5 -55q-18 -15 -33 -35.5z" />
    <glyph glyph-name="itilde" unicode="&#x129;" horiz-adv-x="359" 
d="M113.5 671q36.5 30 85.5 30q26 0 44.5 -8t43.5 -23q16 -11 27.5 -16t22.5 -5q21 0 38.5 11.5t31.5 42.5h61q-17 -56 -51.5 -87.5t-87.5 -31.5q-21 0 -41 8.5t-47 23.5q-20 11 -31.5 16t-21.5 5q-22 0 -39.5 -14.5t-25.5 -38.5h-65q19 57 55.5 87zM102 11.5
q-26 21.5 -26 62.5q0 13 3 28l72 352q-23 5 -61 19l2 11l216 22l-82 -398q-3 -15 -3 -29q0 -25 15 -25q18 0 41.5 32t41.5 72l25 -13q-28 -67 -75.5 -111t-106.5 -44q-36 0 -62 21.5z" />
    <glyph glyph-name="j" unicode="j" horiz-adv-x="348" 
d="M206 557.5q-16 15.5 -16 41.5q0 40 26.5 67t64.5 27q29 0 45.5 -16t16.5 -42q0 -39 -27.5 -66t-65.5 -27q-28 0 -44 15.5zM-171 -98q0 14 3 29q3 17 18.5 33t34.5 16t28.5 -9t9.5 -23q0 -6 -1 -9q-2 -7 -8 -18t-6 -22q0 -17 14.5 -25.5t40.5 -8.5q42 0 69 31t38 83
l97 475q-22 5 -62 19l2 11l217 22l-107 -527q-17 -83 -79.5 -125t-156.5 -42q-152 0 -152 90z" />
    <glyph glyph-name="uni0237" unicode="&#x237;" horiz-adv-x="348" 
d="M-171 -98q0 14 3 29q3 17 18.5 33t34.5 16t28.5 -9t9.5 -23q0 -6 -1 -9q-2 -7 -8 -18t-6 -22q0 -17 14.5 -25.5t40.5 -8.5q42 0 69 31t38 83l97 475q-22 5 -62 19l2 11l217 22l-107 -527q-17 -83 -79.5 -125t-156.5 -42q-152 0 -152 90z" />
    <glyph glyph-name="jcircumflex" unicode="&#x135;" horiz-adv-x="348" 
d="M74 627q37 21 95 68.5t81 74.5h69q13 -27 53 -74.5t67 -68.5l-69 -46q-26 26 -55 64.5t-41 64.5h-4q-20 -25 -63.5 -63t-82.5 -66zM-171 -98q0 14 3 29q3 17 18.5 33t34.5 16t28.5 -9t9.5 -23q0 -6 -1 -9q-2 -7 -8 -18t-6 -22q0 -17 14.5 -25.5t40.5 -8.5q42 0 69 31
t38 83l97 475q-22 5 -62 19l2 11l217 22l-107 -527q-17 -83 -79.5 -125t-156.5 -42q-152 0 -152 90z" />
    <glyph glyph-name="k" unicode="k" horiz-adv-x="672" 
d="M659 499.5q13 -14.5 13 -38.5q0 -6 -2 -20q-4 -19 -20 -34.5t-36 -15.5q-19 0 -25.5 8.5t-8.5 23.5q-2 10 -5 15t-10 5q-9 0 -29 -17l-144 -116l108 -191q19 -35 47 -35q22 0 42.5 27.5t33.5 62.5l25 -17q-9 -31 -32 -70t-57 -68t-74 -29q-28 0 -51 20.5t-47 63.5
l-89 159l-63 -50l-37 -183l-148 -10l135 662q-32 8 -61 20l2 11l215 22l-92 -452l255 203q35 29 61.5 43.5t56.5 14.5q24 0 37 -14.5z" />
    <glyph glyph-name="kcommaaccent" unicode="&#x137;" horiz-adv-x="672" 
d="M659 499.5q13 -14.5 13 -38.5q0 -6 -2 -20q-4 -19 -20 -34.5t-36 -15.5q-19 0 -25.5 8.5t-8.5 23.5q-2 10 -5 15t-10 5q-9 0 -29 -17l-144 -116l108 -191q19 -35 47 -35q22 0 42.5 27.5t33.5 62.5l25 -17q-9 -31 -32 -70t-57 -68t-74 -29q-28 0 -51 20.5t-47 63.5
l-89 159l-63 -50l-37 -183l-148 -10l135 662q-32 8 -61 20l2 11l215 22l-92 -452l255 203q35 29 61.5 43.5t56.5 14.5q24 0 37 -14.5zM329 -96.5q15 -15.5 15 -41.5q0 -14 -2 -21q-11 -56 -50 -113.5t-88 -95.5l-38 36q28 25 52.5 55t34.5 60q-26 2 -41 16.5t-15 39.5
q0 8 1 13q7 30 31 48.5t54 18.5q31 0 46 -15.5z" />
    <glyph glyph-name="kgreenlandic" unicode="&#x138;" horiz-adv-x="672" 
d="M659 499.5q13 -14.5 13 -38.5q0 -6 -2 -20q-4 -19 -20 -34.5t-36 -15.5q-19 0 -25.5 8.5t-8.5 23.5q-2 10 -5 15t-10 5q-9 0 -29 -17l-144 -116l108 -191q19 -35 47 -35q22 0 42.5 27.5t33.5 62.5l25 -17q-9 -31 -32 -70t-57 -68t-74 -29q-28 0 -51 20.5t-47 63.5
l-89 159l-63 -50l-37 -183l-148 -10l95 464q-35 8 -62 20l3 11l215 22l-52 -254l255 203q35 29 61.5 43.5t56.5 14.5q24 0 37 -14.5z" />
    <glyph glyph-name="l" unicode="l" horiz-adv-x="345" 
d="M95.5 11q-25.5 21 -25.5 62q0 13 3 29l112 550q-32 8 -61 20l2 11l215 22l-121 -597q-3 -16 -3 -30q0 -24 14 -24q18 0 41 31.5t43 72.5l25 -13q-29 -68 -76 -111.5t-107 -43.5q-36 0 -61.5 21z" />
    <glyph glyph-name="lacute" unicode="&#x13a;" horiz-adv-x="344" 
d="M179 794l143 126q35 35 68 35q20 0 29.5 -10t9.5 -24q0 -20 -15 -36t-46 -33l-172 -93zM95.5 11q-25.5 21 -25.5 62q0 13 3 29l112 550q-32 8 -61 20l2 11l215 22l-121 -597q-3 -16 -3 -30q0 -24 14 -24q18 0 41 31.5t43 72.5l25 -13q-29 -68 -76 -111.5t-107 -43.5
q-36 0 -61.5 21z" />
    <glyph glyph-name="lcaron" unicode="&#x13e;" horiz-adv-x="520" 
d="M380 448q27 24 51.5 54.5t34.5 60.5q-12 0 -19 3q-20 4 -30 17t-10 32q0 5 2 17q6 34 30 56t58 22t50 -18t16 -46q0 -12 -3 -24q-11 -55 -51.5 -113.5t-90.5 -96.5zM95.5 11q-25.5 21 -25.5 62q0 13 3 29l112 550q-32 8 -61 20l2 11l215 22l-121 -597q-3 -16 -3 -30
q0 -24 14 -24q18 0 41 31.5t43 72.5l25 -13q-29 -68 -76 -111.5t-107 -43.5q-36 0 -61.5 21z" />
    <glyph glyph-name="lcommaaccent" unicode="&#x13c;" horiz-adv-x="344" 
d="M95.5 11q-25.5 21 -25.5 62q0 13 3 29l112 550q-32 8 -61 20l2 11l215 22l-121 -597q-3 -16 -3 -30q0 -24 14 -24q18 0 41 31.5t43 72.5l25 -13q-29 -68 -76 -111.5t-107 -43.5q-36 0 -61.5 21zM-11 -332q28 25 52.5 55t34.5 60q-25 2 -40.5 16t-15.5 38q0 36 26.5 59
t59.5 23q31 0 46.5 -16t15.5 -42q0 -6 -2 -20q-12 -56 -50.5 -114t-87.5 -95z" />
    <glyph glyph-name="ldot" unicode="&#x140;" horiz-adv-x="485" 
d="M95.5 11q-25.5 21 -25.5 62q0 13 3 29l112 550q-32 8 -61 20l2 11l215 22l-121 -597q-3 -16 -3 -30q0 -24 14 -24q18 0 41 31.5t43 72.5l25 -13q-29 -68 -76 -111.5t-107 -43.5q-36 0 -61.5 21zM354 298.5q-13 13.5 -13 35.5q0 8 1 13q6 28 26.5 46t47.5 18q23 0 36 -13
t13 -34q0 -5 -2 -17q-5 -27 -25 -44.5t-48 -17.5q-23 0 -36 13.5z" />
    <glyph glyph-name="uni1E37" unicode="&#x1e37;" horiz-adv-x="344" 
d="M95.5 11q-25.5 21 -25.5 62q0 13 3 29l112 550q-32 8 -61 20l2 11l215 22l-121 -597q-3 -16 -3 -30q0 -24 14 -24q18 0 41 31.5t43 72.5l25 -13q-29 -68 -76 -111.5t-107 -43.5q-36 0 -61.5 21zM70.5 -161.5q-12.5 13.5 -12.5 34.5q0 30 21.5 53t51.5 23q23 0 35.5 -13
t12.5 -33q0 -4 -2 -16q-5 -27 -25 -44.5t-47 -17.5q-22 0 -34.5 13.5z" />
    <glyph glyph-name="uni1E39" unicode="&#x1e39;" horiz-adv-x="344" 
d="M107 833h375l-11 -48h-374zM95.5 11q-25.5 21 -25.5 62q0 13 3 29l112 550q-32 8 -61 20l2 11l215 22l-121 -597q-3 -16 -3 -30q0 -24 14 -24q18 0 41 31.5t43 72.5l25 -13q-29 -68 -76 -111.5t-107 -43.5q-36 0 -61.5 21zM71.5 -162q-12.5 13 -12.5 34q0 30 22 53.5
t52 23.5q23 0 35.5 -13t12.5 -33q0 -32 -21.5 -55t-52.5 -23q-23 0 -35.5 13z" />
    <glyph glyph-name="uni1E3B" unicode="&#x1e3b;" horiz-adv-x="344" 
d="M95.5 11q-25.5 21 -25.5 62q0 13 3 29l112 550q-32 8 -61 20l2 11l215 22l-121 -597q-3 -16 -3 -30q0 -24 14 -24q18 0 41 31.5t43 72.5l25 -13q-29 -68 -76 -111.5t-107 -43.5q-36 0 -61.5 21zM-74 -61h373l-10 -48h-374z" />
    <glyph glyph-name="lslash" unicode="&#x142;" horiz-adv-x="354" 
d="M223 108q-2 -20 -2 -28q0 -26 14 -26q18 0 41.5 32t41.5 72l25 -13q-28 -67 -75.5 -111t-106.5 -44q-36 0 -62 21.5t-26 62.5q0 13 3 28l28 138l-88 -33l14 68l88 33l71 344q-34 8 -62 20l3 11l215 22l-69 -337l97 36l-13 -69l-98 -36z" />
    <glyph glyph-name="m" unicode="m" horiz-adv-x="1005" 
d="M1006 145q-29 -67 -77 -111t-108 -44q-35 0 -59.5 24.5t-24.5 66.5q0 15 3 31l32 158q21 103 21 137q0 28 -10.5 39.5t-34.5 11.5q-28 0 -68.5 -36.5t-84.5 -98.5l-66 -323l-142 -10l75 371q6 30 6 49q0 27 -11.5 37.5t-34.5 10.5q-30 0 -72 -37.5t-87 -101.5l-65 -319
l-148 -10l96 467q-23 4 -62 19l2 11l216 22l-25 -122q41 53 91 86.5t108 33.5q65 0 98 -26t33 -77l-1 -15q94 118 197 118q138 0 138 -111q0 -18 -5 -45l-50 -245q-4 -20 -4 -29q0 -23 15 -23q17 0 41.5 32.5t42.5 71.5z" />
    <glyph glyph-name="uni1E43" unicode="&#x1e43;" horiz-adv-x="1004" 
d="M1006 145q-29 -67 -77 -111t-108 -44q-35 0 -59.5 24.5t-24.5 66.5q0 15 3 31l32 158q21 103 21 137q0 28 -10.5 39.5t-34.5 11.5q-28 0 -68.5 -36.5t-84.5 -98.5l-66 -323l-142 -10l75 371q6 30 6 49q0 27 -11.5 37.5t-34.5 10.5q-30 0 -72 -37.5t-87 -101.5l-65 -319
l-148 -10l96 467q-23 4 -62 19l2 11l216 22l-25 -122q41 53 91 86.5t108 33.5q65 0 98 -26t33 -77l-1 -15q94 118 197 118q138 0 138 -111q0 -18 -5 -45l-50 -245q-4 -20 -4 -29q0 -23 15 -23q17 0 41.5 32.5t42.5 71.5zM482 -67q13 -13 13 -34q0 -5 -2 -15
q-6 -27 -25.5 -44.5t-46.5 -17.5q-22 0 -35 13t-13 34q0 32 21.5 54.5t51.5 22.5q23 0 36 -13z" />
    <glyph glyph-name="n" unicode="n" horiz-adv-x="692" 
d="M691 145q-29 -67 -76.5 -111t-106.5 -44q-36 0 -60.5 24.5t-24.5 67.5q0 14 3 30l33 158q19 98 19 134q0 30 -10.5 42t-35.5 12q-31 0 -77.5 -42.5t-94.5 -111.5l-62 -304l-148 -10l96 467q-23 4 -62 19l2 11l216 22l-28 -135q42 57 96 95t116 38q68 0 104 -27.5
t36 -83.5q0 -18 -5 -45l-50 -245q-3 -15 -3 -27q0 -25 15 -25q17 0 41.5 33t41.5 71z" />
    <glyph glyph-name="nacute" unicode="&#x144;" horiz-adv-x="691" 
d="M338 584l-18 35l143 126q35 35 69 35q19 0 28.5 -10t9.5 -24q0 -20 -15 -36t-46 -33zM691 145q-29 -67 -76.5 -111t-106.5 -44q-36 0 -60.5 24.5t-24.5 67.5q0 14 3 30l33 158q19 98 19 134q0 30 -10.5 42t-35.5 12q-31 0 -77.5 -42.5t-94.5 -111.5l-62 -304l-148 -10
l96 467q-23 4 -62 19l2 11l216 22l-28 -135q42 57 96 95t116 38q68 0 104 -27.5t36 -83.5q0 -18 -5 -45l-50 -245q-3 -15 -3 -27q0 -25 15 -25q17 0 41.5 33t41.5 71z" />
    <glyph glyph-name="napostrophe" unicode="&#x149;" horiz-adv-x="876" 
d="M230.5 655q15.5 -16 15.5 -42q0 -6 -2 -20q-12 -56 -50.5 -114t-88.5 -95l-38 36q28 25 52.5 55t34.5 60q-25 2 -40.5 16t-15.5 38q0 36 26.5 59t59.5 23q31 0 46.5 -16zM876 145q-28 -67 -76 -111t-107 -44q-36 0 -60.5 24.5t-24.5 67.5q0 14 3 30l33 158q20 95 20 134
q0 30 -11 42t-36 12q-31 0 -77.5 -43t-94.5 -112l-61 -303l-149 -10l96 467q-20 4 -62 19l2 11l216 22l-27 -135q41 57 95.5 95t116.5 38q67 0 103 -27.5t36 -83.5q0 -18 -5 -45l-50 -245q-3 -15 -3 -27q0 -25 16 -25q17 0 41 32.5t41 71.5z" />
    <glyph glyph-name="ncaron" unicode="&#x148;" horiz-adv-x="691" 
d="M326.5 657q-39.5 47 -67.5 70l69 45q27 -26 55.5 -64t38.5 -64h4q23 26 68 64.5t81 63.5l50 -45q-38 -23 -97 -70t-81 -73h-69q-12 26 -51.5 73zM691 145q-29 -67 -76.5 -111t-106.5 -44q-36 0 -60.5 24.5t-24.5 67.5q0 14 3 30l33 158q19 98 19 134q0 30 -10.5 42
t-35.5 12q-31 0 -77.5 -42.5t-94.5 -111.5l-62 -304l-148 -10l96 467q-23 4 -62 19l2 11l216 22l-28 -135q42 57 96 95t116 38q68 0 104 -27.5t36 -83.5q0 -18 -5 -45l-50 -245q-3 -15 -3 -27q0 -25 15 -25q17 0 41.5 33t41.5 71z" />
    <glyph glyph-name="ncommaaccent" unicode="&#x146;" horiz-adv-x="691" 
d="M691 145q-29 -67 -76.5 -111t-106.5 -44q-36 0 -60.5 24.5t-24.5 67.5q0 14 3 30l33 158q19 98 19 134q0 30 -10.5 42t-35.5 12q-31 0 -77.5 -42.5t-94.5 -111.5l-62 -304l-148 -10l96 467q-23 4 -62 19l2 11l216 22l-28 -135q42 57 96 95t116 38q68 0 104 -27.5
t36 -83.5q0 -18 -5 -45l-50 -245q-3 -15 -3 -27q0 -25 15 -25q17 0 41.5 33t41.5 71zM323.5 -97q15.5 -16 15.5 -42q0 -6 -2 -20q-12 -56 -50.5 -114t-88.5 -95l-38 36q28 25 52.5 55t34.5 60q-25 2 -40.5 16t-15.5 38q0 36 26.5 59t59.5 23q31 0 46.5 -16z" />
    <glyph glyph-name="uni1E45" unicode="&#x1e45;" horiz-adv-x="691" 
d="M379.5 595.5q-12.5 12.5 -12.5 33.5q0 32 21 55t52 23q23 0 35.5 -13t12.5 -34q0 -32 -21.5 -54.5t-52.5 -22.5q-22 0 -34.5 12.5zM691 145q-29 -67 -76.5 -111t-106.5 -44q-36 0 -60.5 24.5t-24.5 67.5q0 14 3 30l33 158q19 98 19 134q0 30 -10.5 42t-35.5 12
q-31 0 -77.5 -42.5t-94.5 -111.5l-62 -304l-148 -10l96 467q-23 4 -62 19l2 11l216 22l-28 -135q42 57 96 95t116 38q68 0 104 -27.5t36 -83.5q0 -18 -5 -45l-50 -245q-3 -15 -3 -27q0 -25 15 -25q17 0 41.5 33t41.5 71z" />
    <glyph glyph-name="uni1E47" unicode="&#x1e47;" horiz-adv-x="691" 
d="M691 145q-29 -67 -76.5 -111t-106.5 -44q-36 0 -60.5 24.5t-24.5 67.5q0 14 3 30l33 158q19 98 19 134q0 30 -10.5 42t-35.5 12q-31 0 -77.5 -42.5t-94.5 -111.5l-62 -304l-148 -10l96 467q-23 4 -62 19l2 11l216 22l-28 -135q42 57 96 95t116 38q68 0 104 -27.5
t36 -83.5q0 -18 -5 -45l-50 -245q-3 -15 -3 -27q0 -25 15 -25q17 0 41.5 33t41.5 71zM329 -67q13 -13 13 -34q0 -32 -21.5 -54.5t-52.5 -22.5q-22 0 -34.5 13.5t-12.5 34.5q0 31 21 53.5t51 22.5q23 0 36 -13z" />
    <glyph glyph-name="eng" unicode="&#x14b;" horiz-adv-x="692" 
d="M590 479.5q36 -27.5 36 -83.5q0 -18 -5 -45l-84 -410q-17 -83 -79.5 -125t-156.5 -42q-80 0 -116.5 23.5t-36.5 67.5q0 13 3 28q3 18 18.5 33.5t35.5 15.5q19 0 28 -9t9 -23q0 -6 -1 -9q-1 -5 -6 -15.5t-6 -16.5q-1 -3 -1 -9q0 -16 14.5 -24.5t41.5 -8.5q42 0 69 31
t37 83l71 346q19 95 19 125q0 27 -11 36.5t-37 9.5q-31 0 -77.5 -42.5t-94.5 -111.5l-62 -304l-148 -10l96 467q-23 4 -62 19l2 11l216 22l-28 -135q42 57 96 95t116 38q68 0 104 -27.5z" />
    <glyph glyph-name="uni1E49" unicode="&#x1e49;" horiz-adv-x="691" 
d="M691 145q-29 -67 -76.5 -111t-106.5 -44q-36 0 -60.5 24.5t-24.5 67.5q0 14 3 30l33 158q19 98 19 134q0 30 -10.5 42t-35.5 12q-31 0 -77.5 -42.5t-94.5 -111.5l-62 -304l-148 -10l96 467q-23 4 -62 19l2 11l216 22l-28 -135q42 57 96 95t116 38q68 0 104 -27.5
t36 -83.5q0 -18 -5 -45l-50 -245q-3 -15 -3 -27q0 -25 15 -25q17 0 41.5 33t41.5 71zM94 -61h373l-10 -48h-374z" />
    <glyph glyph-name="ntilde" unicode="&#xf1;" horiz-adv-x="691" 
d="M309.5 622.5q-17.5 -14.5 -25.5 -38.5h-64q19 57 55 87t86 30q26 0 45.5 -8t42.5 -23q17 -11 27.5 -16t21.5 -5q21 0 38.5 11.5t31.5 42.5h61q-17 -56 -51.5 -87.5t-87.5 -31.5q-20 0 -39 8t-48 23q-37 22 -54 22q-22 0 -39.5 -14.5zM691 145q-29 -67 -76.5 -111
t-106.5 -44q-36 0 -60.5 24.5t-24.5 67.5q0 14 3 30l33 158q19 98 19 134q0 30 -10.5 42t-35.5 12q-31 0 -77.5 -42.5t-94.5 -111.5l-62 -304l-148 -10l96 467q-23 4 -62 19l2 11l216 22l-28 -135q42 57 96 95t116 38q68 0 104 -27.5t36 -83.5q0 -18 -5 -45l-50 -245
q-3 -15 -3 -27q0 -25 15 -25q17 0 41.5 33t41.5 71z" />
    <glyph glyph-name="o" unicode="o" horiz-adv-x="603" 
d="M77.5 39q-59.5 49 -59.5 141q0 34 7 68q25 123 111 191t222 68q114 0 174 -49.5t60 -140.5q0 -29 -8 -69q-24 -122 -110.5 -190t-221.5 -68q-115 0 -174.5 49zM371 95q47 56 66 153q9 44 9 80q0 62 -25.5 96t-72.5 34q-61 0 -108.5 -56.5t-67.5 -153.5q-8 -37 -8 -77
q0 -63 26 -97.5t73 -34.5q61 0 108 56z" />
    <glyph glyph-name="oacute" unicode="&#xf3;" horiz-adv-x="603" 
d="M275 619l143 126q35 35 68 35q20 0 29.5 -10t9.5 -24q0 -20 -15 -36t-46 -33l-172 -93zM77.5 39q-59.5 49 -59.5 141q0 34 7 68q25 123 111 191t222 68q114 0 174 -49.5t60 -140.5q0 -29 -8 -69q-24 -122 -110.5 -190t-221.5 -68q-115 0 -174.5 49zM371 95q47 56 66 153
q9 44 9 80q0 62 -25.5 96t-72.5 34q-61 0 -108.5 -56.5t-67.5 -153.5q-8 -37 -8 -77q0 -63 26 -97.5t73 -34.5q61 0 108 56z" />
    <glyph glyph-name="obreve" unicode="&#x14f;" horiz-adv-x="603" 
d="M262.5 613.5q-38.5 33.5 -35.5 100.5h82q-1 -6 -1 -17q0 -39 21 -52t55 -13q37 0 64.5 16.5t42.5 65.5h83q-24 -67 -76.5 -100.5t-124.5 -33.5t-110.5 33.5zM77.5 39q-59.5 49 -59.5 141q0 34 7 68q25 123 111 191t222 68q114 0 174 -49.5t60 -140.5q0 -29 -8 -69
q-24 -122 -110.5 -190t-221.5 -68q-115 0 -174.5 49zM371 95q47 56 66 153q9 44 9 80q0 62 -25.5 96t-72.5 34q-61 0 -108.5 -56.5t-67.5 -153.5q-8 -37 -8 -77q0 -63 26 -97.5t73 -34.5q61 0 108 56z" />
    <glyph glyph-name="uni01D2" unicode="&#x1d2;" horiz-adv-x="603" 
d="M286.5 658q-39.5 47 -67.5 69l70 45q26 -26 54.5 -64t39.5 -64h4q22 26 66.5 64.5t81.5 63.5l50 -45q-38 -23 -97 -70t-80 -73h-69q-13 27 -52.5 74zM77.5 39q-59.5 49 -59.5 141q0 34 7 68q25 123 111 191t222 68q114 0 174 -49.5t60 -140.5q0 -29 -8 -69
q-24 -122 -110.5 -190t-221.5 -68q-115 0 -174.5 49zM371 95q47 56 66 153q9 44 9 80q0 62 -25.5 96t-72.5 34q-61 0 -108.5 -56.5t-67.5 -153.5q-8 -37 -8 -77q0 -63 26 -97.5t73 -34.5q61 0 108 56z" />
    <glyph glyph-name="ocircumflex" unicode="&#xf4;" horiz-adv-x="603" 
d="M199 627q37 21 96 68.5t81 74.5h69q12 -26 52 -73.5t68 -69.5l-69 -46q-26 26 -55 64.5t-41 64.5h-4q-20 -25 -64 -63t-82 -66zM77.5 39q-59.5 49 -59.5 141q0 34 7 68q25 123 111 191t222 68q114 0 174 -49.5t60 -140.5q0 -29 -8 -69q-24 -122 -110.5 -190t-221.5 -68
q-115 0 -174.5 49zM371 95q47 56 66 153q9 44 9 80q0 62 -25.5 96t-72.5 34q-61 0 -108.5 -56.5t-67.5 -153.5q-8 -37 -8 -77q0 -63 26 -97.5t73 -34.5q61 0 108 56z" />
    <glyph glyph-name="uni1ED1" unicode="&#x1ed1;" horiz-adv-x="603" 
d="M523 751l89 88q46 44 79 44q18 0 27 -9.5t9 -22.5q0 -5 -1 -8q-3 -18 -22.5 -36t-51.5 -33l-113 -54zM200 627q37 22 96.5 69.5t81.5 73.5h69q12 -26 51.5 -74t67.5 -69l-69 -46q-26 26 -54.5 64.5t-40.5 64.5h-4q-21 -26 -65.5 -64t-81.5 -65zM77.5 39
q-59.5 49 -59.5 141q0 34 7 68q25 123 111 191t222 68q114 0 174 -49.5t60 -140.5q0 -29 -8 -69q-24 -122 -110.5 -190t-221.5 -68q-115 0 -174.5 49zM371 95q47 56 66 153q9 44 9 80q0 62 -25.5 96t-72.5 34q-61 0 -108.5 -56.5t-67.5 -153.5q-8 -37 -8 -77q0 -63 26 -97.5
t73 -34.5q61 0 108 56z" />
    <glyph glyph-name="uni1ED9" unicode="&#x1ed9;" horiz-adv-x="603" 
d="M295 695.5q59 47.5 81 74.5h69q12 -26 52 -73.5t68 -69.5l-69 -46q-26 26 -55 64.5t-41 64.5h-4q-20 -25 -64 -63t-82 -66l-51 46q37 21 96 68.5zM136 439q86 68 222 68q114 0 174 -49.5t60 -140.5q0 -29 -8 -69q-24 -122 -110.5 -190t-221.5 -68q-115 0 -174.5 49
t-59.5 141q0 34 7 68q25 123 111 191zM164 171q0 -63 26 -97.5t73 -34.5q61 0 108 56t66 153q9 44 9 80q0 62 -25.5 96t-72.5 34q-61 0 -108.5 -56.5t-67.5 -153.5q-8 -37 -8 -77zM192.5 -76.5q21.5 22.5 51.5 22.5q23 0 35.5 -13.5t12.5 -35.5q0 -8 -1 -13
q-6 -27 -26 -44.5t-46 -17.5q-23 0 -35.5 13t-12.5 35q0 31 21.5 53.5z" />
    <glyph glyph-name="uni1ED3" unicode="&#x1ed3;" horiz-adv-x="603" 
d="M173 774q-25 15 -36.5 33t-8.5 36q3 16 17 28t34 12q32 0 62 -44l53 -88l-28 -31zM200 627q37 22 96.5 69.5t81.5 73.5h69q12 -26 51.5 -74t67.5 -69l-69 -46q-26 26 -54.5 64.5t-40.5 64.5h-4q-21 -26 -65.5 -64t-81.5 -65zM77.5 39q-59.5 49 -59.5 141q0 34 7 68
q25 123 111 191t222 68q114 0 174 -49.5t60 -140.5q0 -29 -8 -69q-24 -122 -110.5 -190t-221.5 -68q-115 0 -174.5 49zM371 95q47 56 66 153q9 44 9 80q0 62 -25.5 96t-72.5 34q-61 0 -108.5 -56.5t-67.5 -153.5q-8 -37 -8 -77q0 -63 26 -97.5t73 -34.5q61 0 108 56z" />
    <glyph glyph-name="uni1ED5" unicode="&#x1ed5;" horiz-adv-x="603" 
d="M532 810h31q20 0 36.5 11t21.5 34q1 3 1 8q0 14 -11 23t-33 9q-28 0 -55 -12l2 36q36 15 75 15q37 0 62 -15t25 -47q0 -6 -2 -18q-13 -68 -95 -75l-18 -48h-52zM200 627q37 22 96.5 69.5t81.5 73.5h69q12 -26 51.5 -74t67.5 -69l-69 -46q-26 26 -54.5 64.5t-40.5 64.5h-4
q-21 -26 -65.5 -64t-81.5 -65zM77.5 39q-59.5 49 -59.5 141q0 34 7 68q25 123 111 191t222 68q114 0 174 -49.5t60 -140.5q0 -29 -8 -69q-24 -122 -110.5 -190t-221.5 -68q-115 0 -174.5 49zM371 95q47 56 66 153q9 44 9 80q0 62 -25.5 96t-72.5 34q-61 0 -108.5 -56.5
t-67.5 -153.5q-8 -37 -8 -77q0 -63 26 -97.5t73 -34.5q61 0 108 56z" />
    <glyph glyph-name="uni1ED7" unicode="&#x1ed7;" horiz-adv-x="603" 
d="M298 887.5q35 28.5 84 28.5q25 0 43 -8.5t35 -22.5l12 -8t16.5 -9t15.5 -3q21 0 42.5 12t34.5 42h49q-17 -55 -51.5 -85.5t-86.5 -30.5q-20 0 -35.5 7t-35.5 21q-17 12 -29.5 17.5t-26.5 5.5q-23 0 -42 -14t-29 -38h-50q19 57 54 85.5zM200 627q37 22 96.5 69.5
t81.5 73.5h69q12 -26 51.5 -74t67.5 -69l-69 -46q-26 26 -54.5 64.5t-40.5 64.5h-4q-21 -26 -65.5 -64t-81.5 -65zM77.5 39q-59.5 49 -59.5 141q0 34 7 68q25 123 111 191t222 68q114 0 174 -49.5t60 -140.5q0 -29 -8 -69q-24 -122 -110.5 -190t-221.5 -68q-115 0 -174.5 49
zM371 95q47 56 66 153q9 44 9 80q0 62 -25.5 96t-72.5 34q-61 0 -108.5 -56.5t-67.5 -153.5q-8 -37 -8 -77q0 -63 26 -97.5t73 -34.5q61 0 108 56z" />
    <glyph glyph-name="odieresis" unicode="&#xf6;" horiz-adv-x="603" 
d="M223.5 595.5q-12.5 12.5 -12.5 33.5q0 32 21 55t51 23q23 0 35.5 -13t12.5 -35q0 -9 -1 -14q-6 -27 -26 -44.5t-47 -17.5q-21 0 -33.5 12.5zM452.5 595.5q-12.5 12.5 -12.5 33.5q0 32 21 55t52 23q23 0 36 -13t13 -34q0 -32 -22 -54.5t-53 -22.5q-22 0 -34.5 12.5z
M77.5 39q-59.5 49 -59.5 141q0 34 7 68q25 123 111 191t222 68q114 0 174 -49.5t60 -140.5q0 -29 -8 -69q-24 -122 -110.5 -190t-221.5 -68q-115 0 -174.5 49zM371 95q47 56 66 153q9 44 9 80q0 62 -25.5 96t-72.5 34q-61 0 -108.5 -56.5t-67.5 -153.5q-8 -37 -8 -77
q0 -63 26 -97.5t73 -34.5q61 0 108 56z" />
    <glyph glyph-name="uni1ECD" unicode="&#x1ecd;" horiz-adv-x="603" 
d="M136 439q86 68 222 68q114 0 174 -49.5t60 -140.5q0 -29 -8 -69q-24 -122 -110.5 -190t-221.5 -68q-115 0 -174.5 49t-59.5 141q0 34 7 68q25 123 111 191zM164 171q0 -63 26 -97.5t73 -34.5q61 0 108 56t66 153q9 44 9 80q0 62 -25.5 96t-72.5 34q-61 0 -108.5 -56.5
t-67.5 -153.5q-8 -37 -8 -77zM196.5 -71.5q19.5 17.5 46.5 17.5q23 0 35.5 -13.5t12.5 -35.5q0 -8 -1 -13q-6 -27 -26 -44.5t-46 -17.5q-22 0 -35 12.5t-13 33.5q0 4 2 16q5 27 24.5 44.5z" />
    <glyph glyph-name="ograve" unicode="&#xf2;" horiz-adv-x="603" 
d="M320 677q-36 25 -36 51q0 18 14.5 35t41.5 17q21 0 34.5 -11.5t19.5 -22.5l92 -127l-30 -35zM77.5 39q-59.5 49 -59.5 141q0 34 7 68q25 123 111 191t222 68q114 0 174 -49.5t60 -140.5q0 -29 -8 -69q-24 -122 -110.5 -190t-221.5 -68q-115 0 -174.5 49zM371 95
q47 56 66 153q9 44 9 80q0 62 -25.5 96t-72.5 34q-61 0 -108.5 -56.5t-67.5 -153.5q-8 -37 -8 -77q0 -63 26 -97.5t73 -34.5q61 0 108 56z" />
    <glyph glyph-name="uni1ECF" unicode="&#x1ecf;" horiz-adv-x="603" 
d="M358 687h36q23 0 42 13t24 39q1 3 1 9q0 17 -13 28.5t-37 11.5q-34 0 -63 -16l1 39q17 8 40.5 13t46.5 5q42 0 70 -17.5t28 -53.5q0 -13 -2 -20q-14 -77 -108 -86l-24 -69h-60zM77.5 39q-59.5 49 -59.5 141q0 34 7 68q25 123 111 191t222 68q114 0 174 -49.5t60 -140.5
q0 -29 -8 -69q-24 -122 -110.5 -190t-221.5 -68q-115 0 -174.5 49zM371 95q47 56 66 153q9 44 9 80q0 62 -25.5 96t-72.5 34q-61 0 -108.5 -56.5t-67.5 -153.5q-8 -37 -8 -77q0 -63 26 -97.5t73 -34.5q61 0 108 56z" />
    <glyph glyph-name="ohorn" unicode="&#x1a1;" horiz-adv-x="674" 
d="M746 492q0 -16 -3 -28q-8 -39 -46 -84t-107 -92q-1 -19 -6 -40q-24 -122 -110.5 -190t-221.5 -68q-115 0 -174.5 49t-59.5 141q0 34 7 68q25 123 111 191t222 68q106 0 165.5 -43.5t67.5 -123.5q55 45 71 81q-9 -3 -16 -3q-22 0 -34.5 11.5t-12.5 32.5q0 12 2 19
q5 26 25 46t58 20q62 0 62 -55zM446 328q0 62 -25.5 96t-72.5 34q-61 0 -108.5 -56.5t-67.5 -153.5q-8 -37 -8 -77q0 -63 26 -97.5t73 -34.5q61 0 108 56t66 153q9 44 9 80z" />
    <glyph glyph-name="uni1EDB" unicode="&#x1edb;" horiz-adv-x="674" 
d="M292 584l-17 35l143 126q35 35 68 35q20 0 29.5 -10t9.5 -24q0 -20 -15 -36t-46 -33zM746 492q0 -16 -3 -28q-8 -39 -46 -84t-107 -92q-1 -19 -6 -40q-24 -122 -110.5 -190t-221.5 -68q-115 0 -174.5 49t-59.5 141q0 34 7 68q25 123 111 191t222 68q106 0 165.5 -43.5
t67.5 -123.5q55 45 71 81q-9 -3 -16 -3q-22 0 -34.5 11.5t-12.5 32.5q0 12 2 19q5 26 25 46t58 20q62 0 62 -55zM446 328q0 62 -25.5 96t-72.5 34q-61 0 -108.5 -56.5t-67.5 -153.5q-8 -37 -8 -77q0 -63 26 -97.5t73 -34.5q61 0 108 56t66 153q9 44 9 80z" />
    <glyph glyph-name="uni1EE3" unicode="&#x1ee3;" horiz-adv-x="674" 
d="M746 492q0 -16 -3 -28q-8 -39 -46 -84t-107 -92q-1 -19 -6 -40q-24 -122 -110.5 -190t-221.5 -68q-115 0 -174.5 49t-59.5 141q0 34 7 68q25 123 111 191t222 68q106 0 165.5 -43.5t67.5 -123.5q55 45 71 81q-9 -3 -16 -3q-22 0 -34.5 11.5t-12.5 32.5q0 12 2 19
q5 26 25 46t58 20q62 0 62 -55zM446 328q0 62 -25.5 96t-72.5 34q-61 0 -108.5 -56.5t-67.5 -153.5q-8 -37 -8 -77q0 -63 26 -97.5t73 -34.5q61 0 108 56t66 153q9 44 9 80zM279.5 -67.5q12.5 -13.5 12.5 -35.5q0 -8 -1 -13q-6 -27 -26 -44.5t-46 -17.5q-23 0 -35.5 13
t-12.5 35q0 31 21.5 53.5t51.5 22.5q23 0 35.5 -13.5z" />
    <glyph glyph-name="uni1EDD" unicode="&#x1edd;" horiz-adv-x="674" 
d="M285 728q0 18 14.5 35t41.5 17q21 0 34.5 -11.5t19.5 -22.5l92 -127l-30 -35l-136 93q-36 25 -36 51zM746 492q0 -16 -3 -28q-8 -39 -46 -84t-107 -92q-1 -19 -6 -40q-24 -122 -110.5 -190t-221.5 -68q-115 0 -174.5 49t-59.5 141q0 34 7 68q25 123 111 191t222 68
q106 0 165.5 -43.5t67.5 -123.5q55 45 71 81q-9 -3 -16 -3q-22 0 -34.5 11.5t-12.5 32.5q0 12 2 19q5 26 25 46t58 20q62 0 62 -55zM446 328q0 62 -25.5 96t-72.5 34q-61 0 -108.5 -56.5t-67.5 -153.5q-8 -37 -8 -77q0 -63 26 -97.5t73 -34.5q61 0 108 56t66 153q9 44 9 80z
" />
    <glyph glyph-name="uni1EDF" unicode="&#x1edf;" horiz-adv-x="674" 
d="M441 700q19 13 24 39q1 3 1 9q0 18 -13 29t-38 11q-33 0 -62 -16l1 39q17 8 40.5 13t45.5 5q43 0 71 -17.5t28 -53.5q0 -13 -2 -20q-14 -77 -108 -86l-24 -69h-60l18 104h36q23 0 42 13zM746 492q0 -16 -3 -28q-8 -39 -46 -84t-107 -92q-1 -19 -6 -40
q-24 -122 -110.5 -190t-221.5 -68q-115 0 -174.5 49t-59.5 141q0 34 7 68q25 123 111 191t222 68q106 0 165.5 -43.5t67.5 -123.5q55 45 71 81q-9 -3 -16 -3q-22 0 -34.5 11.5t-12.5 32.5q0 12 2 19q5 26 25 46t58 20q62 0 62 -55zM446 328q0 62 -25.5 96t-72.5 34
q-61 0 -108.5 -56.5t-67.5 -153.5q-8 -37 -8 -77q0 -63 26 -97.5t73 -34.5q61 0 108 56t66 153q9 44 9 80z" />
    <glyph glyph-name="uni1EE1" unicode="&#x1ee1;" horiz-adv-x="674" 
d="M272.5 622.5q-17.5 -14.5 -26.5 -38.5h-64q19 57 55.5 87t85.5 30q26 0 45.5 -8t42.5 -23q17 -11 27.5 -16t21.5 -5q21 0 39 11.5t32 42.5h61q-17 -56 -51.5 -87.5t-87.5 -31.5q-21 0 -41 8.5t-47 23.5q-20 11 -31.5 16t-21.5 5q-22 0 -39.5 -14.5zM746 492q0 -16 -3 -28
q-8 -39 -46 -84t-107 -92q-1 -19 -6 -40q-24 -122 -110.5 -190t-221.5 -68q-115 0 -174.5 49t-59.5 141q0 34 7 68q25 123 111 191t222 68q106 0 165.5 -43.5t67.5 -123.5q55 45 71 81q-9 -3 -16 -3q-22 0 -34.5 11.5t-12.5 32.5q0 12 2 19q5 26 25 46t58 20q62 0 62 -55z
M446 328q0 62 -25.5 96t-72.5 34q-61 0 -108.5 -56.5t-67.5 -153.5q-8 -37 -8 -77q0 -63 26 -97.5t73 -34.5q61 0 108 56t66 153q9 44 9 80z" />
    <glyph glyph-name="ohungarumlaut" unicode="&#x151;" horiz-adv-x="603" 
d="M220 618l142 126q8 9 27 21.5t40 12.5q20 0 30 -10t10 -23q0 -20 -15.5 -36.5t-45.5 -33.5l-172 -93zM429 618l143 126q16 14 32 24t36 10t29.5 -9.5t9.5 -22.5q0 -6 -1 -9q-3 -17 -18 -32t-42 -30l-173 -93zM77.5 39q-59.5 49 -59.5 141q0 34 7 68q25 123 111 191
t222 68q114 0 174 -49.5t60 -140.5q0 -29 -8 -69q-24 -122 -110.5 -190t-221.5 -68q-115 0 -174.5 49zM371 95q47 56 66 153q9 44 9 80q0 62 -25.5 96t-72.5 34q-61 0 -108.5 -56.5t-67.5 -153.5q-8 -37 -8 -77q0 -63 26 -97.5t73 -34.5q61 0 108 56z" />
    <glyph glyph-name="omacron" unicode="&#x14d;" horiz-adv-x="603" 
d="M196 632h374l-10 -48h-373zM77.5 39q-59.5 49 -59.5 141q0 34 7 68q25 123 111 191t222 68q114 0 174 -49.5t60 -140.5q0 -29 -8 -69q-24 -122 -110.5 -190t-221.5 -68q-115 0 -174.5 49zM371 95q47 56 66 153q9 44 9 80q0 62 -25.5 96t-72.5 34q-61 0 -108.5 -56.5
t-67.5 -153.5q-8 -37 -8 -77q0 -63 26 -97.5t73 -34.5q61 0 108 56z" />
    <glyph glyph-name="oslash" unicode="&#xf8;" horiz-adv-x="603" 
d="M548 442q44 -47 44 -125q0 -31 -8 -69q-24 -122 -110.5 -190t-221.5 -68q-99 0 -156 36l-65 -60l-30 34l59 55q-42 48 -42 124q0 35 7 69q25 123 111 191t222 68q91 0 151 -33l58 54l35 -36zM162 172l1 -21l270 252q-24 55 -85 55t-109.5 -56.5t-67.5 -153.5
q-9 -42 -9 -76zM448 328l-1 21l-272 -251q25 -59 88 -59q60 0 108 56t68 153q9 44 9 80z" />
    <glyph glyph-name="oslashacute" unicode="&#x1ff;" horiz-adv-x="603" 
d="M290 584l-18 35l143 126q35 35 69 35q19 0 28.5 -10t9.5 -24q0 -20 -15 -36t-46 -33zM548 442q44 -47 44 -125q0 -31 -8 -69q-24 -122 -110.5 -190t-221.5 -68q-99 0 -156 36l-65 -60l-30 34l59 55q-42 48 -42 124q0 35 7 69q25 123 111 191t222 68q91 0 151 -33l58 54
l35 -36zM162 172l1 -21l270 252q-24 55 -85 55t-109.5 -56.5t-67.5 -153.5q-9 -42 -9 -76zM448 328l-1 21l-272 -251q25 -59 88 -59q60 0 108 56t68 153q9 44 9 80z" />
    <glyph glyph-name="otilde" unicode="&#xf5;" horiz-adv-x="603" 
d="M235.5 671q36.5 30 85.5 30q26 0 44.5 -8t43.5 -23q16 -11 27.5 -16t22.5 -5q21 0 38.5 11t31.5 43h61q-17 -56 -51.5 -87.5t-87.5 -31.5q-21 0 -41 8.5t-47 23.5q-20 11 -31.5 16t-21.5 5q-22 0 -39.5 -14.5t-26.5 -38.5h-64q19 57 55.5 87zM77.5 39q-59.5 49 -59.5 141
q0 34 7 68q25 123 111 191t222 68q114 0 174 -49.5t60 -140.5q0 -29 -8 -69q-24 -122 -110.5 -190t-221.5 -68q-115 0 -174.5 49zM371 95q47 56 66 153q9 44 9 80q0 62 -25.5 96t-72.5 34q-61 0 -108.5 -56.5t-67.5 -153.5q-8 -37 -8 -77q0 -63 26 -97.5t73 -34.5
q61 0 108 56z" />
    <glyph glyph-name="oe" unicode="&#x153;" horiz-adv-x="928" 
d="M76.5 40q-58.5 50 -58.5 141q0 33 7 67q25 121 110.5 190t211.5 69q55 0 96 -18.5t63 -51.5q86 70 213 70q112 0 164 -25.5t52 -80.5q0 -9 -4 -31q-20 -95 -134.5 -137.5t-259.5 -46.5q-2 -67 27 -108t93 -41q40 0 90 14t89 41l6 -36q-37 -28 -98.5 -47t-127.5 -19
q-123 0 -183 68q-87 -68 -191 -68q-107 0 -165.5 50zM334.5 61q37.5 22 63.5 61q-8 29 -8 61q0 25 7 65q15 71 52 127q-12 38 -40.5 60.5t-63.5 22.5q-60 0 -106.5 -56t-66.5 -154q-9 -43 -9 -80q0 -62 25 -95.5t72 -33.5q37 0 74.5 22zM713.5 271.5q74.5 30.5 87.5 92.5
q3 14 3 25q0 69 -86 69q-67 0 -111 -61t-61 -147l-4 -19q97 10 171.5 40.5z" />
    <glyph glyph-name="p" unicode="p" horiz-adv-x="632" 
d="M137 457q-17 3 -36 9.5t-26 8.5l2 12l217 22l-31 -153q38 70 96.5 110.5t120.5 40.5q64 0 105 -41t41 -119q0 -29 -8 -71q-28 -140 -108 -213t-194 -73q-42 0 -72 14.5t-45 40.5l-53 -263l-149 -10zM468 250q14 70 14 115t-13 69t-39 24q-27 0 -66.5 -33t-75 -83.5
t-49.5 -98.5l-15 -72q-4 -24 -4 -34q0 -43 22.5 -70.5t65.5 -27.5q116 0 160 211z" />
    <glyph glyph-name="thorn" unicode="&#xfe;" horiz-adv-x="632" 
d="M177 654q-17 3 -36 9.5t-26 8.5l3 12l217 22l-72 -350q38 70 96.5 110.5t120.5 40.5q64 0 105 -41t41 -119q0 -29 -8 -71q-28 -140 -108 -213t-194 -73q-42 0 -72 14.5t-45 40.5l-53 -263l-149 -10zM468 250q14 70 14 115t-13 69t-39 24q-27 0 -66.5 -33t-75 -83.5
t-49.5 -98.5l-15 -72q-4 -24 -4 -34q0 -43 22.5 -70.5t65.5 -27.5q116 0 160 211z" />
    <glyph glyph-name="q" unicode="q" horiz-adv-x="634" 
d="M390 198q-46 -87 -116.5 -147.5t-141.5 -60.5q-63 0 -90 37.5t-27 98.5q0 36 8 78q16 75 57 144t111.5 114t167.5 45q28 0 51.5 -10.5t34.5 -30.5l6 32h146l-146 -716l-148 -10zM279 101.5q47 49.5 87 113.5t47 98l22 105q-12 20 -29 33t-38 13q-46 0 -87 -39t-70 -98.5
t-42 -119.5q-6 -27 -6 -63q0 -40 9.5 -66t30.5 -26q29 0 76 49.5z" />
    <glyph glyph-name="r" unicode="r" horiz-adv-x="483" 
d="M509 500q14 -14 14 -38q0 -14 -2 -21q-4 -18 -20.5 -34t-35.5 -16t-25.5 8.5t-9.5 23.5q-3 11 -5.5 15.5t-9.5 4.5q-37 0 -77.5 -33t-76.5 -85l-66 -325l-149 -10l96 467q-34 7 -62 19l2 11l216 22l-22 -107q33 47 84.5 79.5t106.5 32.5q28 0 42 -14z" />
    <glyph glyph-name="racute" unicode="&#x155;" horiz-adv-x="483" 
d="M225 584l-17 35l143 126q35 35 68 35q22 0 31.5 -13t6.5 -29q-4 -17 -18.5 -31.5t-41.5 -29.5zM509 500q14 -14 14 -38q0 -14 -2 -21q-4 -18 -20.5 -34t-35.5 -16t-25.5 8.5t-9.5 23.5q-3 11 -5.5 15.5t-9.5 4.5q-37 0 -77.5 -33t-76.5 -85l-66 -325l-149 -10l96 467
q-34 7 -62 19l2 11l216 22l-22 -107q33 47 84.5 79.5t106.5 32.5q28 0 42 -14z" />
    <glyph glyph-name="rcaron" unicode="&#x159;" horiz-adv-x="483" 
d="M230.5 657q-39.5 47 -67.5 70l69 45q27 -26 55.5 -64t38.5 -64h4q23 26 68 64.5t81 63.5l50 -45q-38 -23 -97 -70t-81 -73h-69q-12 26 -51.5 73zM509 500q14 -14 14 -38q0 -14 -2 -21q-4 -18 -20.5 -34t-35.5 -16t-25.5 8.5t-9.5 23.5q-3 11 -5.5 15.5t-9.5 4.5
q-37 0 -77.5 -33t-76.5 -85l-66 -325l-149 -10l96 467q-34 7 -62 19l2 11l216 22l-22 -107q33 47 84.5 79.5t106.5 32.5q28 0 42 -14z" />
    <glyph glyph-name="rcommaaccent" unicode="&#x157;" horiz-adv-x="483" 
d="M509 500q14 -14 14 -38q0 -14 -2 -21q-4 -18 -20.5 -34t-35.5 -16t-25.5 8.5t-9.5 23.5q-3 11 -5.5 15.5t-9.5 4.5q-37 0 -77.5 -33t-76.5 -85l-66 -325l-149 -10l96 467q-34 7 -62 19l2 11l216 22l-22 -107q33 47 84.5 79.5t106.5 32.5q28 0 42 -14zM159 -96.5
q15 -15.5 15 -41.5q0 -14 -2 -21q-11 -56 -49.5 -114t-88.5 -95l-38 36q28 25 52.5 55t34.5 60q-26 2 -41 16.5t-15 39.5q0 8 1 13q6 30 31 48.5t54 18.5q31 0 46 -15.5z" />
    <glyph glyph-name="uni1E5B" unicode="&#x1e5b;" horiz-adv-x="483" 
d="M509 500q14 -14 14 -38q0 -14 -2 -21q-4 -18 -20.5 -34t-35.5 -16t-25.5 8.5t-9.5 23.5q-3 11 -5.5 15.5t-9.5 4.5q-37 0 -77.5 -33t-76.5 -85l-66 -325l-149 -10l96 467q-34 7 -62 19l2 11l216 22l-22 -107q33 47 84.5 79.5t106.5 32.5q28 0 42 -14zM144 -67
q13 -13 13 -34q0 -32 -21.5 -54.5t-52.5 -22.5q-22 0 -35 13t-13 34q0 32 21.5 54.5t51.5 22.5q23 0 36 -13z" />
    <glyph glyph-name="uni1E5D" unicode="&#x1e5d;" horiz-adv-x="483" 
d="M473 584h-373l9 48h374zM509 500q14 -14 14 -38q0 -14 -2 -21q-4 -18 -20.5 -34t-35.5 -16t-25.5 8.5t-9.5 23.5q-3 11 -5.5 15.5t-9.5 4.5q-37 0 -77.5 -33t-76.5 -85l-66 -325l-149 -10l96 467q-34 7 -62 19l2 11l216 22l-22 -107q33 47 84.5 79.5t106.5 32.5
q28 0 42 -14zM145 -67q13 -13 13 -34q0 -5 -2 -15q-6 -27 -25.5 -44.5t-46.5 -17.5q-22 0 -35 13t-13 34q0 32 21.5 54.5t51.5 22.5q23 0 36 -13z" />
    <glyph glyph-name="uni1E5F" unicode="&#x1e5f;" horiz-adv-x="483" 
d="M509 500q14 -14 14 -38q0 -14 -2 -21q-4 -18 -20.5 -34t-35.5 -16t-25.5 8.5t-9.5 23.5q-3 11 -5.5 15.5t-9.5 4.5q-37 0 -77.5 -33t-76.5 -85l-66 -325l-149 -10l96 467q-34 7 -62 19l2 11l216 22l-22 -107q33 47 84.5 79.5t106.5 32.5q28 0 42 -14zM-67 -61h374
l-11 -48h-373z" />
    <glyph glyph-name="s" unicode="s" horiz-adv-x="493" 
d="M53.5 14.5q-54.5 24.5 -54.5 77.5q0 11 3 23q2 15 19 30.5t41 15.5q20 0 32 -12.5t9 -29.5l-4 -13.5l-4 -12.5q-2 -11 7 -24t28.5 -21.5t46.5 -8.5q51 0 82 22t39 66q1 4 1 12q0 27 -24 43t-73 34q-44 16 -71 30t-46 38.5t-19 60.5q0 10 4 32q12 62 76.5 96t151.5 34
q85 0 138.5 -22.5t53.5 -73.5q0 -11 -3 -23q-3 -14 -18.5 -26t-39.5 -12q-21 0 -33 9.5t-9 24.5q1 6 3.5 14.5t3.5 12.5q3 18 -16 33.5t-58 15.5q-41 0 -69 -15t-34 -48q-1 -4 -1 -12q0 -27 23.5 -42.5t73.5 -35.5q44 -17 71.5 -32t47 -40t19.5 -63q0 -9 -4 -33
q-16 -77 -84 -113t-171 -36q-84 0 -138.5 24.5z" />
    <glyph glyph-name="sacute" unicode="&#x15b;" horiz-adv-x="493" 
d="M213 619l143 126q35 35 68 35q19 0 28.5 -10t9.5 -24q0 -5 -1 -8q-3 -17 -17.5 -31.5t-41.5 -29.5l-172 -93zM53.5 14.5q-54.5 24.5 -54.5 77.5q0 11 3 23q2 15 19 30.5t41 15.5q20 0 32 -12.5t9 -29.5l-4 -13.5l-4 -12.5q-2 -11 7 -24t28.5 -21.5t46.5 -8.5q51 0 82 22
t39 66q1 4 1 12q0 27 -24 43t-73 34q-44 16 -71 30t-46 38.5t-19 60.5q0 10 4 32q12 62 76.5 96t151.5 34q85 0 138.5 -22.5t53.5 -73.5q0 -11 -3 -23q-3 -14 -18.5 -26t-39.5 -12q-21 0 -33 9.5t-9 24.5q1 6 3.5 14.5t3.5 12.5q3 18 -16 33.5t-58 15.5q-41 0 -69 -15
t-34 -48q-1 -4 -1 -12q0 -27 23.5 -42.5t73.5 -35.5q44 -17 71.5 -32t47 -40t19.5 -63q0 -9 -4 -33q-16 -77 -84 -113t-171 -36q-84 0 -138.5 24.5z" />
    <glyph glyph-name="scaron" unicode="&#x161;" horiz-adv-x="493" 
d="M232.5 657q-39.5 47 -67.5 70l69 45q27 -26 55.5 -64t38.5 -64h4q23 26 68 64.5t81 63.5l50 -45q-38 -23 -97 -70t-81 -73h-69q-12 26 -51.5 73zM53.5 14.5q-54.5 24.5 -54.5 77.5q0 11 3 23q2 15 19 30.5t41 15.5q20 0 32 -12.5t9 -29.5l-4 -13.5l-4 -12.5q-2 -11 7 -24
t28.5 -21.5t46.5 -8.5q51 0 82 22t39 66q1 4 1 12q0 27 -24 43t-73 34q-44 16 -71 30t-46 38.5t-19 60.5q0 10 4 32q12 62 76.5 96t151.5 34q85 0 138.5 -22.5t53.5 -73.5q0 -11 -3 -23q-3 -14 -18.5 -26t-39.5 -12q-21 0 -33 9.5t-9 24.5q1 6 3.5 14.5t3.5 12.5
q3 18 -16 33.5t-58 15.5q-41 0 -69 -15t-34 -48q-1 -4 -1 -12q0 -27 23.5 -42.5t73.5 -35.5q44 -17 71.5 -32t47 -40t19.5 -63q0 -9 -4 -33q-16 -77 -84 -113t-171 -36q-84 0 -138.5 24.5z" />
    <glyph glyph-name="scedilla" unicode="&#x15f;" horiz-adv-x="493" 
d="M436.5 484.5q53.5 -22.5 53.5 -73.5q0 -11 -3 -23q-3 -14 -18.5 -26t-39.5 -12q-21 0 -33 9.5t-9 24.5q1 6 3.5 14.5t3.5 12.5q3 18 -16 33.5t-58 15.5q-41 0 -69 -15t-34 -48q-1 -4 -1 -12q0 -27 23.5 -42.5t73.5 -35.5q44 -17 71.5 -32t47 -40t19.5 -63q0 -9 -4 -33
q-14 -69 -71 -105.5t-144 -42.5l-35 -51q50 0 75 -19.5t25 -49.5q0 -6 -2 -16q-10 -51 -55.5 -79t-105.5 -28q-28 0 -57 8.5t-46 22.5l31 39q12 -8 31.5 -13t39.5 -5q35 0 59 13t30 42q1 3 1 9q0 18 -16.5 26t-39.5 8q-9 0 -23 -2l-18 34l42 61q-75 3 -122 27.5t-47 73.5
q0 11 3 23q2 15 19 30.5t41 15.5q20 0 32 -12.5t9 -29.5l-4 -13.5l-4 -12.5q-2 -11 7 -24t28.5 -21.5t46.5 -8.5q51 0 82 22t39 66q1 4 1 12q0 27 -24 43t-73 34q-44 16 -71 30t-46 38.5t-19 60.5q0 10 4 32q12 62 76.5 96t151.5 34q85 0 138.5 -22.5z" />
    <glyph glyph-name="scircumflex" unicode="&#x15d;" horiz-adv-x="493" 
d="M145 627q37 21 95.5 68.5t80.5 74.5h69q13 -27 53 -74.5t67 -68.5l-69 -46q-26 26 -55 64.5t-41 64.5h-4q-19 -25 -62.5 -63t-82.5 -66zM53.5 14.5q-54.5 24.5 -54.5 77.5q0 11 3 23q2 15 19 30.5t41 15.5q20 0 32 -12.5t9 -29.5l-4 -13.5l-4 -12.5q-2 -11 7 -24
t28.5 -21.5t46.5 -8.5q51 0 82 22t39 66q1 4 1 12q0 27 -24 43t-73 34q-44 16 -71 30t-46 38.5t-19 60.5q0 10 4 32q12 62 76.5 96t151.5 34q85 0 138.5 -22.5t53.5 -73.5q0 -11 -3 -23q-3 -14 -18.5 -26t-39.5 -12q-21 0 -33 9.5t-9 24.5q1 6 3.5 14.5t3.5 12.5
q3 18 -16 33.5t-58 15.5q-41 0 -69 -15t-34 -48q-1 -4 -1 -12q0 -27 23.5 -42.5t73.5 -35.5q44 -17 71.5 -32t47 -40t19.5 -63q0 -9 -4 -33q-16 -77 -84 -113t-171 -36q-84 0 -138.5 24.5z" />
    <glyph glyph-name="scommaaccent" unicode="&#x219;" horiz-adv-x="493" 
d="M53.5 14.5q-54.5 24.5 -54.5 77.5q0 11 3 23q2 15 19 30.5t41 15.5q20 0 32 -12.5t9 -29.5l-4 -13.5l-4 -12.5q-2 -11 7 -24t28.5 -21.5t46.5 -8.5q51 0 82 22t39 66q1 4 1 12q0 27 -24 43t-73 34q-44 16 -71 30t-46 38.5t-19 60.5q0 10 4 32q12 62 76.5 96t151.5 34
q85 0 138.5 -22.5t53.5 -73.5q0 -11 -3 -23q-3 -14 -18.5 -26t-39.5 -12q-21 0 -33 9.5t-9 24.5q1 6 3.5 14.5t3.5 12.5q3 18 -16 33.5t-58 15.5q-41 0 -69 -15t-34 -48q-1 -4 -1 -12q0 -27 23.5 -42.5t73.5 -35.5q44 -17 71.5 -32t47 -40t19.5 -63q0 -9 -4 -33
q-16 -77 -84 -113t-171 -36q-84 0 -138.5 24.5zM67 -308q27 24 53 56t36 63q-10 0 -18 4q-17 5 -28 19.5t-11 33.5q0 8 1 12q7 31 31.5 49.5t53.5 18.5q31 0 47 -16t16 -42q0 -6 -2 -20q-11 -56 -51 -116.5t-89 -97.5z" />
    <glyph glyph-name="uni1E61" unicode="&#x1e61;" horiz-adv-x="493" 
d="M282.5 596q-12.5 13 -12.5 34q0 32 21 54.5t52 22.5q23 0 35.5 -13.5t12.5 -35.5q0 -8 -1 -13q-6 -27 -26 -44.5t-46 -17.5q-23 0 -35.5 13zM54 15q-54 25 -54 78q0 14 2 22q3 15 19.5 30.5t40.5 15.5q20 0 32 -12.5t9 -29.5q-1 -5 -4 -13t-4 -13q-2 -11 7 -24
t28.5 -21.5t46.5 -8.5q51 0 82 22t39 66q1 4 1 12q0 27 -24 43t-73 34q-44 16 -71 30t-46 38.5t-19 60.5q0 10 4 32q12 62 76.5 96t151.5 34q85 0 138.5 -22.5t53.5 -73.5q0 -11 -3 -23q-2 -14 -18 -26t-40 -12q-19 0 -31 8t-12 21q0 6 3.5 16t4.5 16q3 18 -16 33.5
t-58 15.5q-40 0 -68.5 -15.5t-34.5 -47.5q-1 -4 -1 -12q0 -27 23.5 -42.5t73.5 -35.5q44 -17 71.5 -32t47 -40t19.5 -63q0 -17 -4 -33q-16 -77 -84 -113t-171 -36q-84 0 -138 25z" />
    <glyph glyph-name="uni1E63" unicode="&#x1e63;" horiz-adv-x="493" 
d="M54 15q-54 25 -54 78q0 14 2 22q3 15 19.5 30.5t40.5 15.5q20 0 32 -12.5t9 -29.5q-1 -5 -4 -13t-4 -13q-2 -11 7 -24t28.5 -21.5t46.5 -8.5q51 0 82 22t39 66q1 4 1 12q0 27 -24 43t-73 34q-44 16 -71 30t-46 38.5t-19 60.5q0 10 4 32q12 62 76.5 96t151.5 34
q85 0 138.5 -22.5t53.5 -73.5q0 -11 -3 -23q-2 -14 -18 -26t-40 -12q-19 0 -31 8t-12 21q0 6 3.5 16t4.5 16q3 18 -16 33.5t-58 15.5q-40 0 -68.5 -15.5t-34.5 -47.5q-1 -4 -1 -12q0 -27 23.5 -42.5t73.5 -35.5q44 -17 71.5 -32t47 -40t19.5 -63q0 -17 -4 -33
q-16 -77 -84 -113t-171 -36q-84 0 -138 25zM131 -165.5q-13 12.5 -13 33.5q0 32 21.5 55t51.5 23q23 0 35.5 -13t12.5 -35q0 -9 -1 -14q-6 -27 -26 -44.5t-46 -17.5q-22 0 -35 12.5z" />
    <glyph glyph-name="germandbls" unicode="&#xdf;" horiz-adv-x="739" 
d="M521.5 342.5q20.5 -15.5 63.5 -35.5q38 -17 61.5 -31.5t40.5 -39t17 -61.5q0 -19 -4 -36q-16 -78 -82.5 -113.5t-157.5 -35.5q-198 0 -198 99q0 13 3 26q3 15 19.5 30.5t40.5 15.5q20 0 32 -12.5t9 -29.5l-4 -13.5l-4 -12.5q-2 -11 7 -24t28.5 -21.5t46.5 -8.5
q45 0 73 23.5t36 60.5q1 5 1 14q0 27 -20.5 43t-63.5 36q-36 16 -58.5 30t-38.5 37.5t-16 58.5q0 10 4 34q10 49 51 78t93 41q6 34 6 65q0 117 -89 117q-31 0 -59 -24t-38 -74l-118 -577q-18 -90 -80 -135.5t-158 -45.5q-80 0 -116.5 23.5t-36.5 67.5q0 13 3 28
q3 18 18.5 33.5t35.5 15.5t29 -9.5t9 -23.5q0 -8 -6 -20.5t-7 -19.5q-1 -3 -1 -9q0 -33 55 -33q41 0 68.5 31.5t37.5 82.5l95 461h-90l10 49h90l8 40q19 95 94.5 143.5t178.5 48.5q115 0 158.5 -50t43.5 -123q0 -39 -9 -77l-5 -22q-52 0 -89.5 -18t-37.5 -56
q0 -26 20.5 -41.5z" />
    <glyph glyph-name="uni0259" unicode="&#x259;" horiz-adv-x="560" 
d="M485 455q59 -52 59 -142q0 -33 -7 -64q-25 -122 -109.5 -190.5t-211.5 -68.5q-111 0 -163.5 25.5t-52.5 79.5q0 17 4 32q19 95 133.5 137.5t258.5 46.5q2 67 -26.5 108t-92.5 41q-40 0 -89.5 -14t-88.5 -41l-6 36q37 28 98 47t127 19q108 0 167 -52zM327.5 100
q43.5 61 60.5 147l4 19q-237 -26 -259 -133q-2 -8 -2 -24q0 -33 21 -51.5t65 -18.5q67 0 110.5 61z" />
    <glyph glyph-name="t" unicode="t" horiz-adv-x="399" 
d="M197 108q-2 -12 -2 -17q0 -37 37 -37q26 0 50 29.5t45 74.5l29 -16q-31 -71 -77 -111.5t-121 -40.5q-42 0 -76 20t-34 64q0 12 3 25l71 351h-74l9 48h75l4 22q67 19 97 112h72l-28 -134h138l-9 -48h-139z" />
    <glyph glyph-name="tbar" unicode="&#x167;" horiz-adv-x="399" 
d="M267 450l-29 -142h124l-10 -48h-124l-31 -152q-2 -12 -2 -17q0 -37 37 -37q26 0 50 29.5t45 74.5l29 -16q-31 -71 -77 -111.5t-121 -40.5q-42 0 -76 20t-34 64q0 12 3 25l33 161h-72l10 48h71l29 142h-74l9 48h75l4 22q67 19 97 112h72l-28 -134h138l-9 -48h-139z" />
    <glyph glyph-name="tcaron" unicode="&#x165;" horiz-adv-x="586" 
d="M609.5 674q15.5 -18 15.5 -46q0 -15 -2 -23q-12 -55 -52 -113.5t-90 -96.5l-39 36q26 23 51 54t37 61q-12 0 -21 3q-19 4 -29.5 17.5t-10.5 33.5q0 5 2 15q7 33 31 55t58 22t49.5 -18zM277 498h138l-9 -48h-139l-70 -342q-2 -12 -2 -17q0 -37 37 -37q26 0 50 29.5
t45 74.5l29 -16q-31 -71 -77 -111.5t-121 -40.5q-42 0 -76 20t-34 64q0 12 3 25l71 351h-74l9 48h75l4 22q67 19 97 112h72z" />
    <glyph glyph-name="uni0163" unicode="&#x163;" horiz-adv-x="399" 
d="M197 108q-2 -12 -2 -17q0 -37 37 -37q26 0 50 29.5t45 74.5l29 -16q-27 -63 -67 -102.5t-101 -47.5l-35 -52l13 -1q44 -2 65.5 -21t21.5 -47q0 -6 -2 -16q-11 -51 -56.5 -79t-104.5 -28q-29 0 -57.5 8t-46.5 23l31 39q12 -8 31.5 -13t40.5 -5q34 0 58.5 13t30.5 42
q1 3 1 9q0 18 -17 26t-41 8q-7 0 -23 -2l-17 34l44 63q-33 7 -55 26.5t-22 54.5q0 12 3 25l71 351h-74l9 48h75l4 22q67 19 97 112h72l-28 -134h138l-9 -48h-139z" />
    <glyph glyph-name="uni021B" unicode="&#x21b;" horiz-adv-x="399" 
d="M197 108q-2 -12 -2 -17q0 -37 37 -37q26 0 50 29.5t45 74.5l29 -16q-31 -71 -77 -111.5t-121 -40.5q-42 0 -76 20t-34 64q0 12 3 25l71 351h-74l9 48h75l4 22q67 19 97 112h72l-28 -134h138l-9 -48h-139zM202.5 -97q15.5 -16 15.5 -42q0 -6 -2 -20q-12 -56 -50.5 -114
t-88.5 -95l-38 36q28 25 52.5 55t34.5 60q-25 2 -40.5 16t-15.5 38q0 36 26.5 59t59.5 23q31 0 46.5 -16z" />
    <glyph glyph-name="uni1E97" unicode="&#x1e97;" horiz-adv-x="399" 
d="M134.5 704q-12.5 13 -12.5 34q0 32 21.5 54.5t51.5 22.5q23 0 35.5 -13.5t12.5 -35.5q0 -8 -1 -13q-6 -27 -26 -44.5t-47 -17.5q-22 0 -34.5 13zM460.5 802q12.5 -13 12.5 -35q0 -9 -1 -14q-6 -27 -26 -44.5t-47 -17.5q-22 0 -34.5 12.5t-12.5 33.5q0 32 20.5 55t52.5 23
q23 0 35.5 -13zM277 498h138l-9 -48h-139l-70 -342q-2 -12 -2 -17q0 -37 37 -37q26 0 50 29.5t45 74.5l29 -16q-31 -71 -77 -111.5t-121 -40.5q-42 0 -76 20t-34 64q0 12 3 25l71 351h-74l9 48h75l4 22q67 19 97 112h72z" />
    <glyph glyph-name="uni1E6D" unicode="&#x1e6d;" horiz-adv-x="399" 
d="M197 108q-2 -12 -2 -17q0 -37 37 -37q26 0 50 29.5t45 74.5l29 -16q-31 -71 -77 -111.5t-121 -40.5q-42 0 -76 20t-34 64q0 12 3 25l71 351h-74l9 48h75l4 22q67 19 97 112h72l-28 -134h138l-9 -48h-139zM208 -67.5q13 -13.5 13 -35.5q0 -8 -1 -13q-6 -27 -26 -44.5
t-46 -17.5q-23 0 -35.5 13t-12.5 35q0 31 21 53.5t51 22.5q23 0 36 -13.5z" />
    <glyph glyph-name="uni1E6F" unicode="&#x1e6f;" horiz-adv-x="399" 
d="M197 108q-2 -12 -2 -17q0 -37 37 -37q26 0 50 29.5t45 74.5l29 -16q-31 -71 -77 -111.5t-121 -40.5q-42 0 -76 20t-34 64q0 12 3 25l71 351h-74l9 48h75l4 22q67 19 97 112h72l-28 -134h138l-9 -48h-139zM-44 -61h374l-11 -48h-373z" />
    <glyph glyph-name="u" unicode="u" horiz-adv-x="659" 
d="M673 145q-29 -67 -76.5 -111t-107.5 -44q-35 0 -61 20t-26 61q0 12 3 27l5 25q-41 -57 -96.5 -95t-117.5 -38q-138 0 -138 111q0 18 5 45l63 311q-35 7 -61 19l2 11l216 22l-74 -360q-7 -32 -7 -56q0 -30 12 -42t38 -12q31 0 77.5 43t94.5 112l62 304h147l-79 -392
q-4 -20 -4 -29q0 -23 15 -23q17 0 41.5 32.5t42.5 71.5z" />
    <glyph glyph-name="uacute" unicode="&#xfa;" horiz-adv-x="659" 
d="M344 584l-17 35l143 126q35 35 68 35q20 0 29.5 -10t9.5 -24q0 -20 -15 -36t-46 -33zM673 145q-29 -67 -76.5 -111t-107.5 -44q-35 0 -61 20t-26 61q0 12 3 27l5 25q-41 -57 -96.5 -95t-117.5 -38q-138 0 -138 111q0 18 5 45l63 311q-35 7 -61 19l2 11l216 22l-74 -360
q-7 -32 -7 -56q0 -30 12 -42t38 -12q31 0 77.5 43t94.5 112l62 304h147l-79 -392q-4 -20 -4 -29q0 -23 15 -23q17 0 41.5 32.5t42.5 71.5z" />
    <glyph glyph-name="ubreve" unicode="&#x16d;" horiz-adv-x="659" 
d="M290.5 613.5q-38.5 33.5 -35.5 100.5h82q-1 -6 -1 -17q0 -39 21 -52t55 -13q37 0 64.5 16.5t42.5 65.5h83q-24 -67 -76.5 -100.5t-124.5 -33.5t-110.5 33.5zM673 145q-29 -67 -76.5 -111t-107.5 -44q-35 0 -61 20t-26 61q0 12 3 27l5 25q-41 -57 -96.5 -95t-117.5 -38
q-138 0 -138 111q0 18 5 45l63 311q-35 7 -61 19l2 11l216 22l-74 -360q-7 -32 -7 -56q0 -30 12 -42t38 -12q31 0 77.5 43t94.5 112l62 304h147l-79 -392q-4 -20 -4 -29q0 -23 15 -23q17 0 41.5 32.5t42.5 71.5z" />
    <glyph glyph-name="uni01D4" unicode="&#x1d4;" horiz-adv-x="659" 
d="M314.5 658q-39.5 47 -67.5 69l69 45q26 -25 55 -63.5t41 -64.5h2q23 26 68 64.5t81 63.5l50 -45q-38 -23 -96.5 -70t-80.5 -73h-69q-13 27 -52.5 74zM673 145q-29 -67 -76.5 -111t-107.5 -44q-35 0 -61 20t-26 61q0 12 3 27l5 25q-41 -57 -96.5 -95t-117.5 -38
q-138 0 -138 111q0 18 5 45l63 311q-35 7 -61 19l2 11l216 22l-74 -360q-7 -32 -7 -56q0 -30 12 -42t38 -12q31 0 77.5 43t94.5 112l62 304h147l-79 -392q-4 -20 -4 -29q0 -23 15 -23q17 0 41.5 32.5t42.5 71.5z" />
    <glyph glyph-name="ucircumflex" unicode="&#xfb;" horiz-adv-x="659" 
d="M358 647q-44 -38 -82 -66l-51 46q37 21 96 68.5t81 74.5h69q12 -26 52 -73.5t68 -69.5l-69 -46q-26 26 -55 64.5t-41 64.5h-4q-20 -25 -64 -63zM673 145q-29 -67 -76.5 -111t-107.5 -44q-35 0 -61 20t-26 61q0 12 3 27l5 25q-41 -57 -96.5 -95t-117.5 -38
q-138 0 -138 111q0 18 5 45l63 311q-35 7 -61 19l2 11l216 22l-74 -360q-7 -32 -7 -56q0 -30 12 -42t38 -12q31 0 77.5 43t94.5 112l62 304h147l-79 -392q-4 -20 -4 -29q0 -23 15 -23q17 0 41.5 32.5t42.5 71.5z" />
    <glyph glyph-name="udieresis" unicode="&#xfc;" horiz-adv-x="659" 
d="M249.5 595.5q-12.5 12.5 -12.5 33.5q0 4 2 16q5 27 24.5 44.5t45.5 17.5q23 0 35.5 -13t12.5 -35q0 -9 -1 -14q-6 -27 -26 -44.5t-47 -17.5q-21 0 -33.5 12.5zM478.5 595.5q-12.5 12.5 -12.5 33.5q0 32 21.5 55t51.5 23q23 0 36 -13t13 -34q0 -32 -22 -54.5t-53 -22.5
q-22 0 -34.5 12.5zM673 145q-29 -67 -76.5 -111t-107.5 -44q-35 0 -61 20t-26 61q0 12 3 27l5 25q-41 -57 -96.5 -95t-117.5 -38q-138 0 -138 111q0 18 5 45l63 311q-35 7 -61 19l2 11l216 22l-74 -360q-7 -32 -7 -56q0 -30 12 -42t38 -12q31 0 77.5 43t94.5 112l62 304h147
l-79 -392q-4 -20 -4 -29q0 -23 15 -23q17 0 41.5 32.5t42.5 71.5z" />
    <glyph glyph-name="uni01D8" unicode="&#x1d8;" horiz-adv-x="659" 
d="M419 735l-17 36l121 109q11 11 29 22.5t38 11.5t29.5 -9t9.5 -22q0 -6 -1 -9q-6 -32 -59 -61zM249.5 596q-12.5 12 -12.5 33q0 4 2 16q5 27 24.5 44.5t46.5 17.5q23 0 35.5 -13t12.5 -35q0 -9 -1 -14q-6 -27 -25.5 -44t-46.5 -17q-23 0 -35.5 12zM488.5 684
q21.5 23 51.5 23q23 0 36 -13t13 -34q0 -32 -21.5 -54t-52.5 -22q-22 0 -35 12.5t-13 32.5q0 32 21.5 55zM673 145q-29 -67 -76.5 -111t-107.5 -44q-35 0 -61 20t-26 61q0 12 3 27l5 25q-41 -57 -96.5 -95t-117.5 -38q-138 0 -138 111q0 18 5 45l63 311q-35 7 -61 19l2 11
l216 22l-74 -360q-7 -32 -7 -56q0 -30 12 -42t38 -12q31 0 77.5 43t94.5 112l62 304h147l-79 -392q-4 -20 -4 -29q0 -23 15 -23q17 0 41.5 32.5t42.5 71.5z" />
    <glyph glyph-name="uni01DA" unicode="&#x1da;" horiz-adv-x="659" 
d="M346 800q-39 40 -68 60l65 46q27 -23 56 -57.5t41 -58.5h4q20 23 64 57.5t81 58.5l46 -46q-38 -21 -93 -60.5t-76 -63.5h-69q-12 24 -51 64zM249.5 596.5q-12.5 12.5 -12.5 33.5q0 32 21 54.5t52 22.5q23 0 36 -13t13 -34q0 -32 -21.5 -54t-52.5 -22q-23 0 -35.5 12.5z
M494.5 689.5q19.5 17.5 46.5 17.5q23 0 35.5 -13.5t12.5 -35.5q0 -8 -1 -13q-6 -27 -25.5 -44t-46.5 -17q-23 0 -35.5 12t-12.5 33q0 4 2 16q5 27 24.5 44.5zM673 145q-29 -67 -76.5 -111t-107.5 -44q-35 0 -61 20t-26 61q0 12 3 27l5 25q-41 -57 -96.5 -95t-117.5 -38
q-138 0 -138 111q0 18 5 45l63 311q-35 7 -61 19l2 11l216 22l-74 -360q-7 -32 -7 -56q0 -30 12 -42t38 -12q31 0 77.5 43t94.5 112l62 304h147l-79 -392q-4 -20 -4 -29q0 -23 15 -23q17 0 41.5 32.5t42.5 71.5z" />
    <glyph glyph-name="uni01DC" unicode="&#x1dc;" horiz-adv-x="659" 
d="M291 863q0 7 1 11q2 16 17 28t38 12q31 0 54 -34l75 -109l-31 -36l-119 78q-35 22 -35 50zM249.5 596q-12.5 12 -12.5 33q0 4 2 16q5 27 24.5 44.5t46.5 17.5q23 0 35.5 -13t12.5 -35q0 -9 -1 -14q-6 -27 -25.5 -44t-46.5 -17q-23 0 -35.5 12zM480 596.5
q-13 12.5 -13 32.5q0 32 21.5 55t51.5 23q23 0 36 -13t13 -34q0 -32 -21.5 -54t-52.5 -22q-22 0 -35 12.5zM673 145q-29 -67 -76.5 -111t-107.5 -44q-35 0 -61 20t-26 61q0 12 3 27l5 25q-41 -57 -96.5 -95t-117.5 -38q-138 0 -138 111q0 18 5 45l63 311q-35 7 -61 19l2 11
l216 22l-74 -360q-7 -32 -7 -56q0 -30 12 -42t38 -12q31 0 77.5 43t94.5 112l62 304h147l-79 -392q-4 -20 -4 -29q0 -23 15 -23q17 0 41.5 32.5t42.5 71.5z" />
    <glyph glyph-name="uni01D6" unicode="&#x1d6;" horiz-adv-x="659" 
d="M623 764h-370l10 48h369zM250.5 596q-12.5 12 -12.5 33q0 4 2 16q5 27 24.5 44.5t46.5 17.5q23 0 35.5 -13.5t12.5 -35.5q0 -8 -1 -13q-6 -27 -25.5 -44t-46.5 -17q-23 0 -35.5 12zM489.5 684q21.5 23 51.5 23q23 0 35.5 -13t12.5 -34q0 -32 -21 -54t-52 -22
q-22 0 -35 12.5t-13 32.5q0 32 21.5 55zM673 145q-29 -67 -76.5 -111t-107.5 -44q-35 0 -61 20t-26 61q0 12 3 27l5 25q-41 -57 -96.5 -95t-117.5 -38q-138 0 -138 111q0 18 5 45l63 311q-35 7 -61 19l2 11l216 22l-74 -360q-7 -32 -7 -56q0 -30 12 -42t38 -12q31 0 77.5 43
t94.5 112l62 304h147l-79 -392q-4 -20 -4 -29q0 -23 15 -23q17 0 41.5 32.5t42.5 71.5z" />
    <glyph glyph-name="uni1EE5" unicode="&#x1ee5;" horiz-adv-x="659" 
d="M673 145q-29 -67 -76.5 -111t-107.5 -44q-35 0 -61 20t-26 61q0 12 3 27l5 25q-41 -57 -96.5 -95t-117.5 -38q-138 0 -138 111q0 18 5 45l63 311q-35 7 -61 19l2 11l216 22l-74 -360q-7 -32 -7 -56q0 -30 12 -42t38 -12q31 0 77.5 43t94.5 112l62 304h147l-79 -392
q-4 -20 -4 -29q0 -23 15 -23q17 0 41.5 32.5t42.5 71.5zM306 -67q13 -13 13 -34q0 -32 -21.5 -54.5t-52.5 -22.5q-22 0 -34.5 13.5t-12.5 34.5q0 31 21 53.5t51 22.5q23 0 36 -13z" />
    <glyph glyph-name="ugrave" unicode="&#xf9;" horiz-adv-x="659" 
d="M317 730l1 8q3 16 18 29t38 13q21 0 34.5 -11.5t19.5 -22.5l92 -127l-31 -35l-135 93q-37 26 -37 53zM673 145q-29 -67 -76.5 -111t-107.5 -44q-35 0 -61 20t-26 61q0 12 3 27l5 25q-41 -57 -96.5 -95t-117.5 -38q-138 0 -138 111q0 18 5 45l63 311q-35 7 -61 19l2 11
l216 22l-74 -360q-7 -32 -7 -56q0 -30 12 -42t38 -12q31 0 77.5 43t94.5 112l62 304h147l-79 -392q-4 -20 -4 -29q0 -23 15 -23q17 0 41.5 32.5t42.5 71.5z" />
    <glyph glyph-name="uni1EE7" unicode="&#x1ee7;" horiz-adv-x="659" 
d="M455 700q19 13 25 39q3 21 -9.5 35t-40.5 14q-34 0 -63 -16l1 39q17 8 40.5 13t46.5 5q42 0 70.5 -18t28.5 -54q0 -5 -2 -19q-15 -77 -109 -86l-24 -69h-59l17 104h36q23 0 42 13zM673 145q-29 -67 -76.5 -111t-107.5 -44q-35 0 -61 20t-26 61q0 12 3 27l5 25
q-41 -57 -96.5 -95t-117.5 -38q-138 0 -138 111q0 18 5 45l63 311q-35 7 -61 19l2 11l216 22l-74 -360q-7 -32 -7 -56q0 -30 12 -42t38 -12q31 0 77.5 43t94.5 112l62 304h147l-79 -392q-4 -20 -4 -29q0 -23 15 -23q17 0 41.5 32.5t42.5 71.5z" />
    <glyph glyph-name="uhorn" unicode="&#x1b0;" horiz-adv-x="709" 
d="M812 625q0 -13 -4 -29q-6 -30 -30 -63t-64 -59.5t-93 -36.5l-67 -331q-4 -20 -4 -29q0 -23 15 -23q17 0 41.5 32.5t42.5 71.5l24 -13q-29 -67 -76.5 -111t-107.5 -44q-35 0 -61 20t-26 61q0 12 3 27l5 25q-42 -57 -97 -95t-117 -38q-138 0 -138 111q0 18 5 45l63 311
q-22 4 -61 19l2 11l216 22l-74 -360q-7 -32 -7 -56q0 -30 12 -42t38 -12q32 0 78.5 43t94.5 113l54 262q-30 6 -61 19l3 15h182q49 0 78.5 14t44.5 47q-5 -2 -16 -2q-22 0 -34.5 12t-12.5 34q0 28 20 55.5t65 27.5q64 0 64 -54z" />
    <glyph glyph-name="uni1EE9" unicode="&#x1ee9;" horiz-adv-x="709" 
d="M354 584l-17 35l143 126q9 10 28 22.5t40 12.5q19 0 28.5 -10t9.5 -24q0 -20 -15 -36t-45 -33zM812 625q0 -13 -4 -29q-6 -30 -30 -63t-64 -59.5t-93 -36.5l-67 -331q-4 -20 -4 -29q0 -23 15 -23q17 0 41.5 32.5t42.5 71.5l24 -13q-29 -67 -76.5 -111t-107.5 -44
q-35 0 -61 20t-26 61q0 12 3 27l5 25q-42 -57 -97 -95t-117 -38q-138 0 -138 111q0 18 5 45l63 311q-22 4 -61 19l2 11l216 22l-74 -360q-7 -32 -7 -56q0 -30 12 -42t38 -12q32 0 78.5 43t94.5 113l54 262q-30 6 -61 19l3 15h182q49 0 78.5 14t44.5 47q-5 -2 -16 -2
q-22 0 -34.5 12t-12.5 34q0 28 20 55.5t65 27.5q64 0 64 -54z" />
    <glyph glyph-name="uni1EF1" unicode="&#x1ef1;" horiz-adv-x="709" 
d="M812 625q0 -13 -4 -29q-6 -30 -30 -63t-64 -59.5t-93 -36.5l-67 -331q-4 -20 -4 -29q0 -23 15 -23q17 0 41.5 32.5t42.5 71.5l24 -13q-29 -67 -76.5 -111t-107.5 -44q-35 0 -61 20t-26 61q0 12 3 27l5 25q-42 -57 -97 -95t-117 -38q-138 0 -138 111q0 18 5 45l63 311
q-22 4 -61 19l2 11l216 22l-74 -360q-7 -32 -7 -56q0 -30 12 -42t38 -12q32 0 78.5 43t94.5 113l54 262q-30 6 -61 19l3 15h182q49 0 78.5 14t44.5 47q-5 -2 -16 -2q-22 0 -34.5 12t-12.5 34q0 28 20 55.5t65 27.5q64 0 64 -54zM320.5 -67q12.5 -13 12.5 -35q0 -9 -1 -14
q-6 -27 -26 -44.5t-46 -17.5q-22 0 -35 12.5t-13 33.5q0 4 2 16q5 27 24.5 44.5t46.5 17.5q23 0 35.5 -13z" />
    <glyph glyph-name="uni1EEB" unicode="&#x1eeb;" horiz-adv-x="709" 
d="M305 729q0 17 15 34t42 17q20 0 34.5 -12t18.5 -22l93 -127l-31 -35l-136 93q-36 26 -36 52zM812 625q0 -13 -4 -29q-6 -30 -30 -63t-64 -59.5t-93 -36.5l-67 -331q-4 -20 -4 -29q0 -23 15 -23q17 0 41.5 32.5t42.5 71.5l24 -13q-29 -67 -76.5 -111t-107.5 -44
q-35 0 -61 20t-26 61q0 12 3 27l5 25q-42 -57 -97 -95t-117 -38q-138 0 -138 111q0 18 5 45l63 311q-22 4 -61 19l2 11l216 22l-74 -360q-7 -32 -7 -56q0 -30 12 -42t38 -12q32 0 78.5 43t94.5 113l54 262q-30 6 -61 19l3 15h182q49 0 78.5 14t44.5 47q-5 -2 -16 -2
q-22 0 -34.5 12t-12.5 34q0 28 20 55.5t65 27.5q64 0 64 -54z" />
    <glyph glyph-name="uni1EED" unicode="&#x1eed;" horiz-adv-x="709" 
d="M453 700q19 13 25 39q1 3 1 9q0 17 -13.5 28.5t-37.5 11.5q-32 0 -63 -16l1 39q17 8 40.5 13t46.5 5q42 0 70.5 -18t28.5 -54q0 -5 -2 -19q-15 -77 -109 -86l-24 -69h-59l17 104h37q22 0 41 13zM812 625q0 -13 -4 -29q-6 -30 -30 -63t-64 -59.5t-93 -36.5l-67 -331
q-4 -20 -4 -29q0 -23 15 -23q17 0 41.5 32.5t42.5 71.5l24 -13q-29 -67 -76.5 -111t-107.5 -44q-35 0 -61 20t-26 61q0 12 3 27l5 25q-42 -57 -97 -95t-117 -38q-138 0 -138 111q0 18 5 45l63 311q-22 4 -61 19l2 11l216 22l-74 -360q-7 -32 -7 -56q0 -30 12 -42t38 -12
q32 0 78.5 43t94.5 113l54 262q-30 6 -61 19l3 15h182q49 0 78.5 14t44.5 47q-5 -2 -16 -2q-22 0 -34.5 12t-12.5 34q0 28 20 55.5t65 27.5q64 0 64 -54z" />
    <glyph glyph-name="uni1EEF" unicode="&#x1eef;" horiz-adv-x="709" 
d="M299.5 622.5q-17.5 -14.5 -26.5 -38.5h-64q19 57 55.5 87t85.5 30q26 0 45.5 -8t42.5 -23q17 -11 27.5 -16t21.5 -5q21 0 38.5 11.5t31.5 42.5h62q-17 -56 -51.5 -87.5t-87.5 -31.5q-21 0 -41 8.5t-47 23.5q-20 11 -31.5 16t-21.5 5q-22 0 -39.5 -14.5zM812 625
q0 -13 -4 -29q-6 -30 -30 -63t-64 -59.5t-93 -36.5l-67 -331q-4 -20 -4 -29q0 -23 15 -23q17 0 41.5 32.5t42.5 71.5l24 -13q-29 -67 -76.5 -111t-107.5 -44q-35 0 -61 20t-26 61q0 12 3 27l5 25q-42 -57 -97 -95t-117 -38q-138 0 -138 111q0 18 5 45l63 311q-22 4 -61 19
l2 11l216 22l-74 -360q-7 -32 -7 -56q0 -30 12 -42t38 -12q32 0 78.5 43t94.5 113l54 262q-30 6 -61 19l3 15h182q49 0 78.5 14t44.5 47q-5 -2 -16 -2q-22 0 -34.5 12t-12.5 34q0 28 20 55.5t65 27.5q64 0 64 -54z" />
    <glyph glyph-name="uhungarumlaut" unicode="&#x171;" horiz-adv-x="659" 
d="M232 582l-16 36l142 126q11 11 29 22.5t38 11.5t30 -9.5t10 -23.5q0 -5 -1 -8q-3 -17 -18 -32t-42 -30zM668.5 765.5q9.5 -12.5 6.5 -28.5q-7 -33 -61 -62l-173 -93l-16 36l143 126q16 14 32 24t36 10q23 0 32.5 -12.5zM606.5 86.5q24.5 32.5 42.5 71.5l24 -13
q-29 -67 -76.5 -111t-107.5 -44q-35 0 -61 20t-26 61q0 12 3 27l5 25q-41 -57 -96.5 -95t-117.5 -38q-138 0 -138 111q0 18 5 45l63 311q-35 7 -61 19l2 11l216 22l-74 -360q-7 -32 -7 -56q0 -30 12 -42t38 -12q31 0 77.5 43t94.5 112l62 304h147l-79 -392q-4 -20 -4 -29
q0 -23 15 -23q17 0 41.5 32.5z" />
    </font>
</defs>
</svg>
