<?xml version="1.0" standalone="no"?>
<!DOCTYPE svg PUBLIC "-//W3C//DTD SVG 1.1//EN" "http://www.w3.org/Graphics/SVG/1.1/DTD/svg11.dtd" >
<svg>
<metadata>
Created by FontForge 20090622 at Wed Nov  1 21:00:27 2017
 By deploy user
Copyright (c) 2015, Cadson Demak (info@cadsondemak.com)
</metadata>
<defs>
<font id="Trirong-Black" horiz-adv-x="0" >
  <font-face 
    font-family="Trirong Black"
    font-weight="900"
    font-stretch="normal"
    units-per-em="1000"
    panose-1="0 0 10 0 0 0 0 0 0 0"
    ascent="750"
    descent="-250"
    x-height="498"
    cap-height="700"
    bbox="-751 -534 1566 1220"
    underline-thickness="50"
    underline-position="-50"
    unicode-range="U+000D-U+FB02"
  />
<missing-glyph horiz-adv-x="600" 
d="M90 714h420v-714h-420v714zM479 31v652h-358v-652h358z" />
    <glyph glyph-name="fi" unicode="fi" horiz-adv-x="862" 
d="M34 24l78 22v395h-92v57h92v56q0 57 27.5 96t72.5 58t98 19q94 0 155 -23l-10 -50q-29 11 -65 11q-35 0 -59.5 -29t-24.5 -82v-56h365l94 9v-463q23 -5 77 -23v-21h-348v21q31 11 77 24v396h-265v-397q28 -5 78 -22v-22h-350v24zM593.5 561q-25.5 25 -25.5 64t25.5 64.5
t66.5 25.5t67 -25.5t26 -64.5t-26 -64t-67 -25t-66.5 25z" />
    <glyph glyph-name="fl" unicode="fl" horiz-adv-x="834" 
d="M34 24l78 22v395h-92v57h92v56q0 173 218 173q41 0 91.5 -11.5t83.5 -28.5l228 27v-670q28 -5 78 -22v-22h-349v21q24 9 77 24v576q-17 16 -56 30t-73 14q-49 0 -76.5 -28t-27.5 -83v-56h144v-57h-144v-397q28 -5 78 -22v-22h-350v24z" />
    <glyph glyph-name="ru_lakkhangyaothai" unicode="&#xe24;&#xe45;" horiz-adv-x="989" 
d="M881 521q58 -43 58 -130v-588h-193v590q0 56 -17 85t-60 29q-29 0 -53.5 -24t-34.5 -59q7 -21 7 -49v-572h-193v601q0 41 -26.5 67.5t-73.5 26.5q-81 0 -122 -61q35 -9 70.5 -30t61.5 -47v-12q-38 -24 -52.5 -53.5t-14.5 -78.5v-26q43 -3 66 -31t23 -65q0 -50 -32 -77
t-96 -27q-80 0 -117 33.5t-37 91.5v102q0 38 23.5 76.5t71.5 60.5q-20 15 -50.5 29t-62.5 22v13q36 64 110.5 105t177.5 41q73 0 134 -20t97 -59q25 38 68.5 58.5t102.5 20.5q106 0 164 -43zM173.5 132q-13.5 -14 -13.5 -41t13.5 -41.5t34.5 -14.5t35 14.5t14 41.5t-14 41
t-35 14t-34.5 -14z" />
    <glyph glyph-name="lu_lakkhangyaothai" unicode="&#xe26;&#xe45;" horiz-adv-x="1022" 
d="M914 521q58 -43 58 -130v-588h-193v590q0 56 -17 85t-60 29q-29 0 -52.5 -22.5t-34.5 -57.5q8 -26 8 -52v-572h-193v601q0 41 -26.5 67.5t-73.5 26.5q-81 0 -122 -61q35 -9 70.5 -30t61.5 -47v-12q-30 -23 -38 -50t-8 -82v-101q0 -58 -37 -91.5t-117 -33.5q-64 0 -96 27
t-32 77q0 34 24 62.5t65 32.5v28q0 46 14 81t60 56q-20 15 -50.5 29t-62.5 22v13q36 64 110.5 105t177.5 41q74 0 134 -19.5t96 -58.5q25 37 68.5 57.5t101.5 20.5q106 0 164 -43zM165.5 49.5q13.5 14.5 13.5 41.5t-13.5 41t-34.5 14t-35 -14t-14 -41t14 -41.5t35 -14.5
t34.5 14.5z" />
    <glyph glyph-name=".notdef" horiz-adv-x="600" 
d="M90 714h420v-714h-420v714zM479 31v652h-358v-652h358z" />
    <glyph glyph-name=".null" horiz-adv-x="510" 
 />
    <glyph glyph-name="nonmarkingreturn" unicode="&#xd;" horiz-adv-x="265" 
 />
    <glyph glyph-name="space" unicode=" " horiz-adv-x="265" 
 />
    <glyph glyph-name="A" unicode="A" horiz-adv-x="813" 
d="M807 22v-22h-356v25q57 19 79 23l-45 128h-255l-47 -130q24 -4 50 -14t32 -12v-20h-259v26q42 14 80 23l248 655h145l249 -658q39 -10 79 -24zM464 235l-105 299l-108 -299h213z" />
    <glyph glyph-name="Aacute" unicode="&#xc1;" horiz-adv-x="813" 
d="M305 786l-31 44l127 139q11 14 30.5 28t45.5 14q30 0 45.5 -16t15.5 -35q0 -21 -15 -38.5t-46 -35.5zM807 22v-22h-356v25q57 19 79 23l-45 128h-255l-47 -130q24 -4 50 -14t32 -12v-20h-259v26q42 14 80 23l248 655h145l249 -658q39 -10 79 -24zM464 235l-105 299
l-108 -299h213z" />
    <glyph glyph-name="Abreve" unicode="&#x102;" horiz-adv-x="813" 
d="M272.5 821q-51.5 35 -64.5 106h106q5 -48 29.5 -64t62.5 -16t62.5 16t29.5 64h106q-13 -71 -64.5 -106t-133.5 -35t-133.5 35zM807 22v-22h-356v25q57 19 79 23l-45 128h-255l-47 -130q24 -4 50 -14t32 -12v-20h-259v26q42 14 80 23l248 655h145l249 -658q39 -10 79 -24z
M464 235l-105 299l-108 -299h213z" />
    <glyph glyph-name="uni1EAE" unicode="&#x1eae;" horiz-adv-x="813" 
d="M386 937l-30 38l78 99q39 49 76 49q30 0 45.5 -17.5t15.5 -37.5q0 -41 -68 -74zM272.5 821q-51.5 35 -64.5 106h106q5 -48 29.5 -64t62.5 -16t62.5 16t29.5 64h106q-13 -71 -64.5 -106t-133.5 -35t-133.5 35zM807 22v-22h-356v25q57 19 79 23l-45 128h-255l-47 -130
q24 -4 50 -14t32 -12v-20h-259v26q42 14 80 23l248 655h145l249 -658q39 -10 79 -24zM464 235l-105 299l-108 -299h213z" />
    <glyph glyph-name="uni1EB6" unicode="&#x1eb6;" horiz-adv-x="813" 
d="M272.5 821q-51.5 35 -64.5 106h106q5 -48 29.5 -64t62.5 -16t62.5 16t29.5 64h106q-13 -71 -64.5 -106t-133.5 -35t-133.5 35zM807 22v-22h-356v25q57 19 79 23l-45 128h-255l-47 -130q24 -4 50 -14t32 -12v-20h-259v26q42 14 80 23l248 655h145l249 -658q39 -10 79 -24z
M464 235l-105 299l-108 -299h213zM452 -71q20 -21 20 -52t-20 -51.5t-53 -20.5t-52.5 20.5t-19.5 51.5t19.5 52t52.5 21t53 -21z" />
    <glyph glyph-name="uni1EB0" unicode="&#x1eb0;" horiz-adv-x="813" 
d="M242 1068q0 20 15.5 37.5t45.5 17.5q37 0 76 -49l78 -99l-30 -38l-117 57q-68 33 -68 74zM272.5 821q-51.5 35 -64.5 106h106q5 -48 29.5 -64t62.5 -16t62.5 16t29.5 64h106q-13 -71 -64.5 -106t-133.5 -35t-133.5 35zM807 22v-22h-356v25q57 19 79 23l-45 128h-255
l-47 -130q24 -4 50 -14t32 -12v-20h-259v26q42 14 80 23l248 655h145l249 -658q39 -10 79 -24zM464 235l-105 299l-108 -299h213z" />
    <glyph glyph-name="uni1EB2" unicode="&#x1eb2;" horiz-adv-x="813" 
d="M344 1121l-6 42q34 17 80 17q50 0 85 -22.5t35 -69.5q0 -43 -24 -61.5t-66 -22.5l-9 -40h-68l-4 78h41q18 0 33.5 11t15.5 36q0 19 -15 33t-42 14q-31 0 -56 -15zM272.5 821q-51.5 35 -64.5 106h106q5 -48 29.5 -64t62.5 -16t62.5 16t29.5 64h106q-13 -71 -64.5 -106
t-133.5 -35t-133.5 35zM807 22v-22h-356v25q57 19 79 23l-45 128h-255l-47 -130q24 -4 50 -14t32 -12v-20h-259v26q42 14 80 23l248 655h145l249 -658q39 -10 79 -24zM464 235l-105 299l-108 -299h213z" />
    <glyph glyph-name="uni1EB4" unicode="&#x1eb4;" horiz-adv-x="813" 
d="M287 1022q-17 -13 -21 -35h-64q8 59 42 90.5t90 31.5q31 0 52 -8t43 -22q27 -18 45 -18q58 0 70 49h64q-6 -58 -37.5 -90.5t-93.5 -32.5q-22 0 -40.5 7t-40.5 19q-23 11 -37 16.5t-30 5.5q-25 0 -42 -13zM468.5 863q24.5 16 29.5 64h106q-13 -71 -64.5 -106t-133.5 -35
t-133.5 35t-64.5 106h106q5 -48 29.5 -64t62.5 -16t62.5 16zM807 22v-22h-356v25q57 19 79 23l-45 128h-255l-47 -130q24 -4 50 -14t32 -12v-20h-259v26q42 14 80 23l248 655h145l249 -658q39 -10 79 -24zM464 235l-105 299l-108 -299h213z" />
    <glyph glyph-name="uni01CD" unicode="&#x1cd;" horiz-adv-x="813" 
d="M285 865.5q-60 54.5 -95 76.5l79 55q35 -28 77.5 -72t58.5 -70h3q16 26 58.5 70t77.5 72l79 -55q-35 -22 -95 -76.5t-76 -79.5h-91q-16 25 -76 79.5zM807 22v-22h-356v25q57 19 79 23l-45 128h-255l-47 -130q24 -4 50 -14t32 -12v-20h-259v26q42 14 80 23l248 655h145
l249 -658q39 -10 79 -24zM464 235l-105 299l-108 -299h213z" />
    <glyph glyph-name="Acircumflex" unicode="&#xc2;" horiz-adv-x="813" 
d="M346.5 858q-42.5 -44 -77.5 -72l-79 55q35 22 95 76.5t76 79.5h91q16 -25 76 -79.5t95 -76.5l-79 -55q-35 28 -77.5 72t-58.5 70h-3q-16 -26 -58.5 -70zM807 22v-22h-356v25q57 19 79 23l-45 128h-255l-47 -130q24 -4 50 -14t32 -12v-20h-259v26q42 14 80 23l248 655h145
l249 -658q39 -10 79 -24zM464 235l-105 299l-108 -299h213z" />
    <glyph glyph-name="uni1EA4" unicode="&#x1ea4;" horiz-adv-x="813" 
d="M567 937l-30 38l78 99q39 49 76 49q30 0 45.5 -17.5t15.5 -37.5q0 -41 -68 -74zM348.5 858q-42.5 -44 -77.5 -72l-79 55q35 22 95 76.5t76 79.5h91q16 -25 76 -79.5t95 -76.5l-79 -55q-35 28 -77.5 72t-58.5 70h-3q-16 -26 -58.5 -70zM807 22v-22h-356v25q57 19 79 23
l-45 128h-255l-47 -130q24 -4 50 -14t32 -12v-20h-259v26q42 14 80 23l248 655h145l249 -658q39 -10 79 -24zM464 235l-105 299l-108 -299h213z" />
    <glyph glyph-name="uni1EAC" unicode="&#x1eac;" horiz-adv-x="813" 
d="M348.5 857q-42.5 -44 -77.5 -72l-79 55q35 22 95 76.5t76 79.5h91q16 -25 76 -79.5t95 -76.5l-79 -55q-35 28 -77.5 72t-58.5 70h-3q-16 -26 -58.5 -70zM807 22v-22h-356v25q57 19 79 23l-45 128h-255l-47 -130q24 -4 50 -14t32 -12v-20h-259v26q42 14 80 23l248 655h145
l249 -658q39 -10 79 -24zM464 235l-105 299l-108 -299h213zM462 -71q20 -21 20 -52t-20 -51.5t-53 -20.5t-52.5 20.5t-19.5 51.5t19.5 52t52.5 21t53 -21z" />
    <glyph glyph-name="uni1EA6" unicode="&#x1ea6;" horiz-adv-x="813" 
d="M65 1068q0 20 15.5 37.5t45.5 17.5q37 0 76 -49l78 -99l-30 -38l-117 57q-68 33 -68 74zM192 841q35 22 95 76.5t76 79.5h91q16 -25 76 -79.5t95 -76.5l-79 -55q-35 28 -77.5 72t-58.5 70h-3q-16 -26 -58.5 -70t-77.5 -72zM807 22v-22h-356v25q57 19 79 23l-45 128h-255
l-47 -130q24 -4 50 -14t32 -12v-20h-259v26q42 14 80 23l248 655h145l249 -658q39 -10 79 -24zM464 235l-105 299l-108 -299h213z" />
    <glyph glyph-name="uni1EA8" unicode="&#x1ea8;" horiz-adv-x="813" 
d="M515 1121l-6 42q34 17 80 17q50 0 85 -22.5t35 -69.5q0 -43 -24 -61.5t-66 -22.5l-9 -40h-68l-4 78h41q18 0 33.5 11t15.5 36q0 19 -15 33t-42 14q-31 0 -56 -15zM348.5 858q-42.5 -44 -77.5 -72l-79 55q35 22 95 76.5t76 79.5h91q16 -25 76 -79.5t95 -76.5l-79 -55
q-35 28 -77.5 72t-58.5 70h-3q-16 -26 -58.5 -70zM807 22v-22h-356v25q57 19 79 23l-45 128h-255l-47 -130q24 -4 50 -14t32 -12v-20h-259v26q42 14 80 23l248 655h145l249 -658q39 -10 79 -24zM464 235l-105 299l-108 -299h213z" />
    <glyph glyph-name="uni1EAA" unicode="&#x1eaa;" horiz-adv-x="813" 
d="M305 1075q-17 -13 -21 -35h-64q8 59 42 90.5t90 31.5q31 0 52 -8t43 -22q27 -18 45 -18q58 0 70 49h64q-6 -58 -37.5 -90.5t-93.5 -32.5q-22 0 -40.5 7t-40.5 19q-23 11 -37 16.5t-30 5.5q-25 0 -42 -13zM348.5 858q-42.5 -44 -77.5 -72l-79 55q35 22 95 76.5t76 79.5h91
q16 -25 76 -79.5t95 -76.5l-79 -55q-35 28 -77.5 72t-58.5 70h-3q-16 -26 -58.5 -70zM807 22v-22h-356v25q57 19 79 23l-45 128h-255l-47 -130q24 -4 50 -14t32 -12v-20h-259v26q42 14 80 23l248 655h145l249 -658q39 -10 79 -24zM464 235l-105 299l-108 -299h213z" />
    <glyph glyph-name="Adieresis" unicode="&#xc4;" horiz-adv-x="813" 
d="M206.5 806.5q-19.5 20.5 -19.5 51.5t19.5 52t52.5 21t53 -21t20 -52t-20 -51.5t-53 -20.5t-52.5 20.5zM459.5 806.5q-19.5 20.5 -19.5 51.5t19.5 52t52.5 21t53 -21t20 -52t-20 -51.5t-53 -20.5t-52.5 20.5zM807 22v-22h-356v25q57 19 79 23l-45 128h-255l-47 -130
q24 -4 50 -14t32 -12v-20h-259v26q42 14 80 23l248 655h145l249 -658q39 -10 79 -24zM464 235l-105 299l-108 -299h213z" />
    <glyph glyph-name="uni1EA0" unicode="&#x1ea0;" horiz-adv-x="813" 
d="M807 22v-22h-356v25q57 19 79 23l-45 128h-255l-47 -130q24 -4 50 -14t32 -12v-20h-259v26q42 14 80 23l248 655h145l249 -658q39 -10 79 -24zM464 235l-105 299l-108 -299h213zM459 -71q20 -21 20 -52t-20 -51.5t-53 -20.5t-52.5 20.5t-19.5 51.5t19.5 52t52.5 21
t53 -21z" />
    <glyph glyph-name="Agrave" unicode="&#xc0;" horiz-adv-x="813" 
d="M289 921.5q-15 17.5 -15 38.5q0 19 15.5 35t45.5 16q26 0 45.5 -14.5t30.5 -27.5l127 -139l-31 -44l-172 100q-31 18 -46 35.5zM807 22v-22h-356v25q57 19 79 23l-45 128h-255l-47 -130q24 -4 50 -14t32 -12v-20h-259v26q42 14 80 23l248 655h145l249 -658q39 -10 79 -24
zM464 235l-105 299l-108 -299h213z" />
    <glyph glyph-name="uni1EA2" unicode="&#x1ea2;" horiz-adv-x="813" 
d="M349 987l-7 45q40 19 92 19q57 0 97 -24.5t40 -75.5q0 -47 -27.5 -67.5t-75.5 -24.5l-10 -73h-78l-5 114h47q21 0 38.5 12t17.5 40q0 21 -17 36t-48 15q-36 0 -64 -16zM807 22v-22h-356v25q57 19 79 23l-45 128h-255l-47 -130q24 -4 50 -14t32 -12v-20h-259v26
q42 14 80 23l248 655h145l249 -658q39 -10 79 -24zM464 235l-105 299l-108 -299h213z" />
    <glyph glyph-name="Amacron" unicode="&#x100;" horiz-adv-x="813" 
d="M625 786h-428v57h428v-57zM807 22v-22h-356v25q57 19 79 23l-45 128h-255l-47 -130q24 -4 50 -14t32 -12v-20h-259v26q42 14 80 23l248 655h145l249 -658q39 -10 79 -24zM464 235l-105 299l-108 -299h213z" />
    <glyph glyph-name="Aogonek" unicode="&#x104;" horiz-adv-x="813" 
d="M889 -109v-77q-20 -15 -55.5 -23.5t-75.5 -8.5q-72 0 -112 25t-40 71q0 37 27.5 73.5t74.5 48.5h-257v25q57 19 79 23l-45 128h-255l-47 -130q24 -4 50 -14t32 -12v-20h-259v26q42 14 80 23l248 655h145l249 -658q39 -10 79 -24v-22h-11q-17 -15 -30.5 -38t-13.5 -44
q0 -22 17 -37t45 -15q35 0 75 25zM464 235l-105 299l-108 -299h213z" />
    <glyph glyph-name="Aring" unicode="&#xc5;" horiz-adv-x="813" 
d="M318.5 780.5q-32.5 30.5 -32.5 80.5t32.5 80.5t86.5 30.5t86.5 -30.5t32.5 -80.5t-32.5 -80.5t-86.5 -30.5t-86.5 30.5zM363 902q-17 -16 -17 -41t17 -41t42 -16t42 16t17 41t-17 41t-42 16t-42 -16zM807 22v-22h-356v25q57 19 79 23l-45 128h-255l-47 -130q24 -4 50 -14
t32 -12v-20h-259v26q42 14 80 23l248 655h145l249 -658q39 -10 79 -24zM464 235l-105 299l-108 -299h213z" />
    <glyph glyph-name="Aringacute" unicode="&#x1fa;" horiz-adv-x="813" 
d="M305 993l-31 44l127 139q11 14 30.5 28t45.5 14q30 0 45.5 -16t15.5 -35q0 -21 -15 -38.5t-46 -35.5zM491.5 941.5q32.5 -30.5 32.5 -80.5t-32.5 -80.5t-86.5 -30.5t-86.5 30.5t-32.5 80.5t32.5 80.5t86.5 30.5t86.5 -30.5zM447 820q17 16 17 41t-17 41t-42 16t-42 -16
t-17 -41t17 -41t42 -16t42 16zM807 22v-22h-356v25q57 19 79 23l-45 128h-255l-47 -130q24 -4 50 -14t32 -12v-20h-259v26q42 14 80 23l248 655h145l249 -658q39 -10 79 -24zM464 235l-105 299l-108 -299h213z" />
    <glyph glyph-name="Atilde" unicode="&#xc3;" horiz-adv-x="813" 
d="M290 823q-13 -13 -17 -37h-93q9 63 44 95.5t94 32.5q31 0 55 -8.5t51 -22.5q14 -7 28 -13t25 -6q21 0 34.5 9.5t20.5 41.5h93q-6 -60 -39 -94.5t-98 -34.5q-24 0 -49 8t-57 23l-33 13t-25 6q-21 0 -34 -13zM807 22v-22h-356v25q57 19 79 23l-45 128h-255l-47 -130
q24 -4 50 -14t32 -12v-20h-259v26q42 14 80 23l248 655h145l249 -658q39 -10 79 -24zM464 235l-105 299l-108 -299h213z" />
    <glyph glyph-name="AE" unicode="&#xc6;" horiz-adv-x="1058" 
d="M6 22q45 17 79 25l359 615q-33 8 -54 16v22h614v-197h-42q-13 19 -29.5 66t-17.5 72h-240v-252h152q9 55 22 88h31v-236h-31q-8 24 -14 49.5t-8 39.5h-152v-271h248q2 28 22.5 73.5t36.5 63.5h42l-21 -196h-613v22q43 15 88 23v131h-217l-73 -130q37 -7 87 -26v-20h-269
v22zM478 235v323l-183 -323h183z" />
    <glyph glyph-name="AEacute" unicode="&#x1fc;" horiz-adv-x="1058" 
d="M579 830l127 139q11 13 30.5 27.5t45.5 14.5q30 0 45.5 -16t15.5 -35q0 -21 -15 -38.5t-46 -35.5l-172 -100zM6 22q45 17 79 25l359 615q-33 8 -54 16v22h614v-197h-42q-13 19 -29.5 66t-17.5 72h-240v-252h152q9 55 22 88h31v-236h-31q-8 24 -14 49.5t-8 39.5h-152v-271
h248q2 28 22.5 73.5t36.5 63.5h42l-21 -196h-613v22q43 15 88 23v131h-217l-73 -130q37 -7 87 -26v-20h-269v22zM478 235v323l-183 -323h183z" />
    <glyph glyph-name="B" unicode="B" horiz-adv-x="669" 
d="M14 21q61 24 80 28v605q-24 4 -80 23v23h353q138 0 197.5 -40.5t59.5 -121.5q0 -57 -32 -100.5t-94 -63.5v-7q78 -20 116.5 -68.5t38.5 -101.5q0 -99 -59 -148t-196 -49h-384v21zM335 397q43 0 65.5 34.5t22.5 94.5t-20 87.5t-64 27.5h-45v-244h41zM369 59q84 0 84 145
q0 67 -25 101t-72 34h-62v-280h75z" />
    <glyph glyph-name="C" unicode="C" horiz-adv-x="694" 
d="M128 85q-94 95 -94 265q0 169 93 264.5t269 95.5q94 0 155 -21.5t106 -63.5l-17 -162h-46q-20 63 -28 147q-29 22 -57.5 30t-62.5 8q-61 0 -108 -35t-73.5 -102.5t-26.5 -160.5q0 -142 50 -220t139 -78q46 0 97.5 16.5t98.5 51.5l28 -53q-43 -37 -108 -57t-141 -20
q-180 0 -274 95z" />
    <glyph glyph-name="Cacute" unicode="&#x106;" horiz-adv-x="694" 
d="M328 830l127 139q11 13 30.5 27.5t45.5 14.5q30 0 45.5 -16t15.5 -35q0 -21 -15 -38.5t-46 -35.5l-172 -100zM128 85q-94 95 -94 265q0 169 93 264.5t269 95.5q94 0 155 -21.5t106 -63.5l-17 -162h-46q-20 63 -28 147q-29 22 -57.5 30t-62.5 8q-61 0 -108 -35
t-73.5 -102.5t-26.5 -160.5q0 -142 50 -220t139 -78q46 0 97.5 16.5t98.5 51.5l28 -53q-43 -37 -108 -57t-141 -20q-180 0 -274 95z" />
    <glyph glyph-name="Ccaron" unicode="&#x10c;" horiz-adv-x="694" 
d="M306 865.5q-60 54.5 -95 76.5l79 55q35 -28 77.5 -72t58.5 -70h3q16 26 58.5 70t77.5 72l79 -55q-35 -22 -95 -76.5t-76 -79.5h-91q-16 25 -76 79.5zM128 85q-94 95 -94 265q0 169 93 264.5t269 95.5q94 0 155 -21.5t106 -63.5l-17 -162h-46q-20 63 -28 147
q-29 22 -57.5 30t-62.5 8q-61 0 -108 -35t-73.5 -102.5t-26.5 -160.5q0 -142 50 -220t139 -78q46 0 97.5 16.5t98.5 51.5l28 -53q-43 -37 -108 -57t-141 -20q-180 0 -274 95z" />
    <glyph glyph-name="Ccedilla" unicode="&#xc7;" horiz-adv-x="694" 
d="M548 11.5q-62 -20.5 -134 -21.5l-27 -54l21 -1q56 -6 82 -33.5t26 -62.5q0 -57 -46.5 -88.5t-115.5 -31.5q-35 0 -72 11t-63 29l29 46q16 -10 40 -16.5t49 -6.5q38 0 62 13t24 44q0 26 -21.5 36.5t-52.5 10.5q-15 0 -22 -1l-28 37l37 72q-149 17 -225.5 110t-76.5 246
q0 169 93 264.5t269 95.5q94 0 155 -21.5t106 -63.5l-17 -162h-46q-20 63 -28 147q-29 22 -57.5 30t-62.5 8q-61 0 -108 -35t-73.5 -102.5t-26.5 -160.5q0 -142 50 -220t139 -78q46 0 97.5 16.5t98.5 51.5l28 -53q-41 -35 -103 -55.5z" />
    <glyph glyph-name="Ccircumflex" unicode="&#x108;" horiz-adv-x="694" 
d="M198 841q35 22 95 76.5t76 79.5h91q16 -25 76 -79.5t95 -76.5l-79 -55q-35 28 -77.5 72t-58.5 70h-3q-16 -26 -58.5 -70t-77.5 -72zM128 85q-94 95 -94 265q0 169 93 264.5t269 95.5q94 0 155 -21.5t106 -63.5l-17 -162h-46q-20 63 -28 147q-29 22 -57.5 30t-62.5 8
q-61 0 -108 -35t-73.5 -102.5t-26.5 -160.5q0 -142 50 -220t139 -78q46 0 97.5 16.5t98.5 51.5l28 -53q-43 -37 -108 -57t-141 -20q-180 0 -274 95z" />
    <glyph glyph-name="Cdotaccent" unicode="&#x10a;" horiz-adv-x="694" 
d="M382.5 806.5q-19.5 20.5 -19.5 51.5t19.5 52t52.5 21t53 -21t20 -52t-20 -51.5t-53 -20.5t-52.5 20.5zM128 85q-94 95 -94 265q0 169 93 264.5t269 95.5q94 0 155 -21.5t106 -63.5l-17 -162h-46q-20 63 -28 147q-29 22 -57.5 30t-62.5 8q-61 0 -108 -35t-73.5 -102.5
t-26.5 -160.5q0 -142 50 -220t139 -78q46 0 97.5 16.5t98.5 51.5l28 -53q-43 -37 -108 -57t-141 -20q-180 0 -274 95z" />
    <glyph glyph-name="D" unicode="D" horiz-adv-x="747" 
d="M24 24q20 6 30 10q41 13 48 14v607q-21 5 -58 17l-20 6v22h351q177 0 257.5 -88.5t80.5 -261.5q0 -172 -81 -261t-258 -89h-350v24zM372 59q74 0 105.5 75.5t31.5 215.5q0 139 -31.5 215t-103.5 76h-75v-582h73z" />
    <glyph glyph-name="Eth" unicode="&#xd0;" horiz-adv-x="747" 
d="M632.5 611.5q80.5 -88.5 80.5 -261.5q0 -172 -81 -261t-258 -89h-350v24q20 6 30 10q41 13 48 14v257h-59v58h59v292q-21 5 -58 17l-20 6v22h351q177 0 257.5 -88.5zM477.5 134.5q31.5 75.5 31.5 215.5q0 139 -31.5 215t-103.5 76h-75v-278h129v-58h-129v-246h73
q74 0 105.5 75.5z" />
    <glyph glyph-name="Dcaron" unicode="&#x10e;" horiz-adv-x="747" 
d="M234 865.5q-60 54.5 -95 76.5l79 55q35 -28 77.5 -72t58.5 -70h3q16 26 58.5 70t77.5 72l79 -55q-35 -22 -95 -76.5t-76 -79.5h-91q-16 25 -76 79.5zM24 24q20 6 30 10q41 13 48 14v607q-21 5 -58 17l-20 6v22h351q177 0 257.5 -88.5t80.5 -261.5q0 -172 -81 -261
t-258 -89h-350v24zM372 59q74 0 105.5 75.5t31.5 215.5q0 139 -31.5 215t-103.5 76h-75v-582h73z" />
    <glyph glyph-name="Dcroat" unicode="&#x110;" horiz-adv-x="747" 
d="M632.5 611.5q80.5 -88.5 80.5 -261.5q0 -172 -81 -261t-258 -89h-350v24q20 6 30 10q41 13 48 14v257h-59v58h59v292q-21 5 -58 17l-20 6v22h351q177 0 257.5 -88.5zM477.5 134.5q31.5 75.5 31.5 215.5q0 139 -31.5 215t-103.5 76h-75v-278h129v-58h-129v-246h73
q74 0 105.5 75.5z" />
    <glyph glyph-name="uni1E0C" unicode="&#x1e0c;" horiz-adv-x="747" 
d="M24 24q20 6 30 10q41 13 48 14v607q-21 5 -58 17l-20 6v22h351q177 0 257.5 -88.5t80.5 -261.5q0 -172 -81 -261t-258 -89h-350v24zM372 59q74 0 105.5 75.5t31.5 215.5q0 139 -31.5 215t-103.5 76h-75v-582h73zM320.5 -71q19.5 21 52.5 21t53 -21t20 -52t-20 -51.5
t-53 -20.5t-52.5 20.5t-19.5 51.5t19.5 52z" />
    <glyph glyph-name="uni1E0E" unicode="&#x1e0e;" horiz-adv-x="747" 
d="M24 24q20 6 30 10q41 13 48 14v607q-21 5 -58 17l-20 6v22h351q177 0 257.5 -88.5t80.5 -261.5q0 -172 -81 -261t-258 -89h-350v24zM372 59q74 0 105.5 75.5t31.5 215.5q0 139 -31.5 215t-103.5 76h-75v-582h73zM159 -55h428v-57h-428v57z" />
    <glyph glyph-name="E" unicode="E" horiz-adv-x="692" 
d="M658 196l-21 -196h-613v22q43 15 88 23v610q-45 8 -88 23v22h614v-197h-42q-13 19 -29.5 66t-17.5 72h-237v-250h149q9 55 22 88h31v-236h-31q-8 24 -14 49.5t-8 39.5h-149v-273h245q2 28 22.5 73.5t36.5 63.5h42z" />
    <glyph glyph-name="Eacute" unicode="&#xc9;" horiz-adv-x="692" 
d="M303 786l-31 44l127 139q11 14 30.5 28t45.5 14q30 0 45.5 -16t15.5 -35q0 -21 -15 -38.5t-46 -35.5zM658 196l-21 -196h-613v22q43 15 88 23v610q-45 8 -88 23v22h614v-197h-42q-13 19 -29.5 66t-17.5 72h-237v-250h149q9 55 22 88h31v-236h-31q-8 24 -14 49.5t-8 39.5
h-149v-273h245q2 28 22.5 73.5t36.5 63.5h42z" />
    <glyph glyph-name="Ebreve" unicode="&#x114;" horiz-adv-x="692" 
d="M265.5 821q-51.5 35 -64.5 106h106q5 -48 29.5 -64t62.5 -16t62.5 16t29.5 64h106q-13 -71 -64.5 -106t-133.5 -35t-133.5 35zM658 196l-21 -196h-613v22q43 15 88 23v610q-45 8 -88 23v22h614v-197h-42q-13 19 -29.5 66t-17.5 72h-237v-250h149q9 55 22 88h31v-236h-31
q-8 24 -14 49.5t-8 39.5h-149v-273h245q2 28 22.5 73.5t36.5 63.5h42z" />
    <glyph glyph-name="Ecaron" unicode="&#x11a;" horiz-adv-x="692" 
d="M273 865.5q-60 54.5 -95 76.5l79 55q35 -28 77.5 -72t58.5 -70h3q16 26 58.5 70t77.5 72l79 -55q-35 -22 -95 -76.5t-76 -79.5h-91q-16 25 -76 79.5zM658 196l-21 -196h-613v22q43 15 88 23v610q-45 8 -88 23v22h614v-197h-42q-13 19 -29.5 66t-17.5 72h-237v-250h149
q9 55 22 88h31v-236h-31q-8 24 -14 49.5t-8 39.5h-149v-273h245q2 28 22.5 73.5t36.5 63.5h42z" />
    <glyph glyph-name="Ecircumflex" unicode="&#xca;" horiz-adv-x="692" 
d="M327.5 858q-42.5 -44 -77.5 -72l-79 55q35 22 95 76.5t76 79.5h91q16 -25 76 -79.5t95 -76.5l-79 -55q-35 28 -77.5 72t-58.5 70h-3q-16 -26 -58.5 -70zM658 196l-21 -196h-613v22q43 15 88 23v610q-45 8 -88 23v22h614v-197h-42q-13 19 -29.5 66t-17.5 72h-237v-250h149
q9 55 22 88h31v-236h-31q-8 24 -14 49.5t-8 39.5h-149v-273h245q2 28 22.5 73.5t36.5 63.5h42z" />
    <glyph glyph-name="uni1EBE" unicode="&#x1ebe;" horiz-adv-x="692" 
d="M686.5 1105.5q15.5 -17.5 15.5 -37.5q0 -41 -68 -74l-117 -57l-30 38l78 99q39 49 76 49q30 0 45.5 -17.5zM298.5 858q-42.5 -44 -77.5 -72l-79 55q35 22 95 76.5t76 79.5h91q16 -25 76 -79.5t95 -76.5l-79 -55q-35 28 -77.5 72t-58.5 70h-3q-16 -26 -58.5 -70z
M579.5 132.5q20.5 45.5 36.5 63.5h42l-21 -196h-613v22q43 15 88 23v610q-45 8 -88 23v22h614v-197h-42q-13 19 -29.5 66t-17.5 72h-237v-250h149q9 55 22 88h31v-236h-31q-8 24 -14 49.5t-8 39.5h-149v-273h245q2 28 22.5 73.5z" />
    <glyph glyph-name="uni1EC6" unicode="&#x1ec6;" horiz-adv-x="692" 
d="M298.5 858q-42.5 -44 -77.5 -72l-79 55q35 22 95 76.5t76 79.5h91q16 -25 76 -79.5t95 -76.5l-79 -55q-35 28 -77.5 72t-58.5 70h-3q-16 -26 -58.5 -70zM658 196l-21 -196h-613v22q43 15 88 23v610q-45 8 -88 23v22h614v-197h-42q-13 19 -29.5 66t-17.5 72h-237v-250h149
q9 55 22 88h31v-236h-31q-8 24 -14 49.5t-8 39.5h-149v-273h245q2 28 22.5 73.5t36.5 63.5h42zM415 -71q20 -21 20 -52t-20 -51.5t-53 -20.5t-52.5 20.5t-19.5 51.5t19.5 52t52.5 21t53 -21z" />
    <glyph glyph-name="uni1EC0" unicode="&#x1ec0;" horiz-adv-x="692" 
d="M15 1068q0 20 15.5 37.5t45.5 17.5q37 0 76 -49l78 -99l-30 -38l-117 57q-68 33 -68 74zM142 841q35 22 95 76.5t76 79.5h91q16 -25 76 -79.5t95 -76.5l-79 -55q-35 28 -77.5 72t-58.5 70h-3q-16 -26 -58.5 -70t-77.5 -72zM658 196l-21 -196h-613v22q43 15 88 23v610
q-45 8 -88 23v22h614v-197h-42q-13 19 -29.5 66t-17.5 72h-237v-250h149q9 55 22 88h31v-236h-31q-8 24 -14 49.5t-8 39.5h-149v-273h245q2 28 22.5 73.5t36.5 63.5h42z" />
    <glyph glyph-name="uni1EC2" unicode="&#x1ec2;" horiz-adv-x="692" 
d="M465 1121l-6 42q34 17 80 17q50 0 85 -22.5t35 -69.5q0 -43 -24 -61.5t-66 -22.5l-9 -40h-68l-4 78h41q18 0 33.5 11t15.5 36q0 19 -15 33t-42 14q-31 0 -56 -15zM298.5 858q-42.5 -44 -77.5 -72l-79 55q35 22 95 76.5t76 79.5h91q16 -25 76 -79.5t95 -76.5l-79 -55
q-35 28 -77.5 72t-58.5 70h-3q-16 -26 -58.5 -70zM579.5 132.5q20.5 45.5 36.5 63.5h42l-21 -196h-613v22q43 15 88 23v610q-45 8 -88 23v22h614v-197h-42q-13 19 -29.5 66t-17.5 72h-237v-250h149q9 55 22 88h31v-236h-31q-8 24 -14 49.5t-8 39.5h-149v-273h245
q2 28 22.5 73.5z" />
    <glyph glyph-name="uni1EC4" unicode="&#x1ec4;" horiz-adv-x="692" 
d="M255 1075q-17 -13 -21 -35h-64q8 59 42 90.5t90 31.5q31 0 52 -8t43 -22q27 -18 45 -18q58 0 70 49h64q-6 -58 -37.5 -90.5t-93.5 -32.5q-22 0 -40.5 7t-40.5 19q-23 11 -37 16.5t-30 5.5q-25 0 -42 -13zM298.5 858q-42.5 -44 -77.5 -72l-79 55q35 22 95 76.5t76 79.5h91
q16 -25 76 -79.5t95 -76.5l-79 -55q-35 28 -77.5 72t-58.5 70h-3q-16 -26 -58.5 -70zM658 196l-21 -196h-613v22q43 15 88 23v610q-45 8 -88 23v22h614v-197h-42q-13 19 -29.5 66t-17.5 72h-237v-250h149q9 55 22 88h31v-236h-31q-8 24 -14 49.5t-8 39.5h-149v-273h245
q2 28 22.5 73.5t36.5 63.5h42z" />
    <glyph glyph-name="Edieresis" unicode="&#xcb;" horiz-adv-x="692" 
d="M224.5 806.5q-19.5 20.5 -19.5 51.5t19.5 52t52.5 21t53 -21t20 -52t-20 -51.5t-53 -20.5t-52.5 20.5zM477.5 806.5q-19.5 20.5 -19.5 51.5t19.5 52t52.5 21t53 -21t20 -52t-20 -51.5t-53 -20.5t-52.5 20.5zM658 196l-21 -196h-613v22q43 15 88 23v610q-45 8 -88 23v22
h614v-197h-42q-13 19 -29.5 66t-17.5 72h-237v-250h149q9 55 22 88h31v-236h-31q-8 24 -14 49.5t-8 39.5h-149v-273h245q2 28 22.5 73.5t36.5 63.5h42z" />
    <glyph glyph-name="Edotaccent" unicode="&#x116;" horiz-adv-x="692" 
d="M350.5 806.5q-19.5 20.5 -19.5 51.5t19.5 52t52.5 21t53 -21t20 -52t-20 -51.5t-53 -20.5t-52.5 20.5zM658 196l-21 -196h-613v22q43 15 88 23v610q-45 8 -88 23v22h614v-197h-42q-13 19 -29.5 66t-17.5 72h-237v-250h149q9 55 22 88h31v-236h-31q-8 24 -14 49.5t-8 39.5
h-149v-273h245q2 28 22.5 73.5t36.5 63.5h42z" />
    <glyph glyph-name="uni1EB8" unicode="&#x1eb8;" horiz-adv-x="692" 
d="M658 196l-21 -196h-613v22q43 15 88 23v610q-45 8 -88 23v22h614v-197h-42q-13 19 -29.5 66t-17.5 72h-237v-250h149q9 55 22 88h31v-236h-31q-8 24 -14 49.5t-8 39.5h-149v-273h245q2 28 22.5 73.5t36.5 63.5h42zM398 -71q20 -21 20 -52t-20 -51.5t-53 -20.5t-52.5 20.5
t-19.5 51.5t19.5 52t52.5 21t53 -21z" />
    <glyph glyph-name="Egrave" unicode="&#xc8;" horiz-adv-x="692" 
d="M270 921.5q-15 17.5 -15 38.5q0 19 15.5 35t45.5 16q26 0 45.5 -14.5t30.5 -27.5l127 -139l-31 -44l-172 100q-31 18 -46 35.5zM658 196l-21 -196h-613v22q43 15 88 23v610q-45 8 -88 23v22h614v-197h-42q-13 19 -29.5 66t-17.5 72h-237v-250h149q9 55 22 88h31v-236h-31
q-8 24 -14 49.5t-8 39.5h-149v-273h245q2 28 22.5 73.5t36.5 63.5h42z" />
    <glyph glyph-name="uni1EBA" unicode="&#x1eba;" horiz-adv-x="692" 
d="M311 987l-7 45q40 19 92 19q57 0 97 -24.5t40 -75.5q0 -47 -27.5 -67.5t-75.5 -24.5l-10 -73h-78l-5 114h47q21 0 38.5 12t17.5 40q0 21 -17 36t-48 15q-36 0 -64 -16zM658 196l-21 -196h-613v22q43 15 88 23v610q-45 8 -88 23v22h614v-197h-42q-13 19 -29.5 66t-17.5 72
h-237v-250h149q9 55 22 88h31v-236h-31q-8 24 -14 49.5t-8 39.5h-149v-273h245q2 28 22.5 73.5t36.5 63.5h42z" />
    <glyph glyph-name="Emacron" unicode="&#x112;" horiz-adv-x="692" 
d="M604 786h-428v57h428v-57zM658 196l-21 -196h-613v22q43 15 88 23v610q-45 8 -88 23v22h614v-197h-42q-13 19 -29.5 66t-17.5 72h-237v-250h149q9 55 22 88h31v-236h-31q-8 24 -14 49.5t-8 39.5h-149v-273h245q2 28 22.5 73.5t36.5 63.5h42z" />
    <glyph glyph-name="Eogonek" unicode="&#x118;" horiz-adv-x="692" 
d="M692 -109v-77q-20 -15 -55.5 -23.5t-75.5 -8.5q-72 0 -112 25t-40 71q0 37 27.5 73.5t74.5 48.5h-487v22q43 15 88 23v610q-45 8 -88 23v22h614v-197h-42q-13 19 -29.5 66t-17.5 72h-237v-250h149q9 55 22 88h31v-236h-31q-8 24 -14 49.5t-8 39.5h-149v-273h245
q2 28 22.5 73.5t36.5 63.5h42l-21 -196h-38q-17 -15 -30.5 -38t-13.5 -44q0 -22 17 -37t45 -15q35 0 75 25z" />
    <glyph glyph-name="uni1EBC" unicode="&#x1ebc;" horiz-adv-x="692" 
d="M259 823q-13 -13 -17 -37h-93q9 63 44 95.5t94 32.5q31 0 55 -8.5t51 -22.5q14 -7 28 -13t25 -6q21 0 34.5 9.5t20.5 41.5h93q-6 -60 -39 -94.5t-98 -34.5q-25 0 -49.5 8t-56.5 23l-33 13t-25 6q-21 0 -34 -13zM658 196l-21 -196h-613v22q43 15 88 23v610q-45 8 -88 23
v22h614v-197h-42q-13 19 -29.5 66t-17.5 72h-237v-250h149q9 55 22 88h31v-236h-31q-8 24 -14 49.5t-8 39.5h-149v-273h245q2 28 22.5 73.5t36.5 63.5h42z" />
    <glyph glyph-name="F" unicode="F" horiz-adv-x="642" 
d="M618 700v-197h-42q-13 19 -29.5 66t-17.5 72h-217v-292h149q9 55 22 88h31v-236h-31q-8 24 -14 49.5t-8 39.5h-149v-245q45 -8 88 -23v-22h-376v22q43 15 88 23v610q-45 8 -88 23v22h594z" />
    <glyph glyph-name="G" unicode="G" horiz-adv-x="756" 
d="M130.5 85.5q-96.5 95.5 -96.5 264.5q0 111 44 192t128.5 124.5t202.5 43.5q96 0 167 -22t114 -63l-17 -162h-46q-21 70 -28 147q-50 38 -140 38q-63 0 -113 -35.5t-79 -102.5t-29 -160q0 -94 24.5 -161t68.5 -102t102 -35q29 0 51 3v243q-44 11 -78 21v24h341v-17
q-10 -8 -32.5 -17t-36.5 -14v-247q-38 -27 -114.5 -42.5t-155.5 -15.5q-181 0 -277.5 95.5z" />
    <glyph glyph-name="Gbreve" unicode="&#x11e;" horiz-adv-x="756" 
d="M280.5 821q-51.5 35 -64.5 106h106q5 -48 29.5 -64t62.5 -16t62.5 16t29.5 64h106q-13 -71 -64.5 -106t-133.5 -35t-133.5 35zM130.5 85.5q-96.5 95.5 -96.5 264.5q0 111 44 192t128.5 124.5t202.5 43.5q96 0 167 -22t114 -63l-17 -162h-46q-21 70 -28 147
q-50 38 -140 38q-63 0 -113 -35.5t-79 -102.5t-29 -160q0 -94 24.5 -161t68.5 -102t102 -35q29 0 51 3v243q-44 11 -78 21v24h341v-17q-10 -8 -32.5 -17t-36.5 -14v-247q-38 -27 -114.5 -42.5t-155.5 -15.5q-181 0 -277.5 95.5z" />
    <glyph glyph-name="Gcaron" unicode="&#x1e6;" horiz-adv-x="756" 
d="M256 865.5q-60 54.5 -95 76.5l79 55q35 -28 77.5 -72t58.5 -70h3q16 26 58.5 70t77.5 72l79 -55q-35 -22 -95 -76.5t-76 -79.5h-91q-16 25 -76 79.5zM130.5 85.5q-96.5 95.5 -96.5 264.5q0 111 44 192t128.5 124.5t202.5 43.5q96 0 167 -22t114 -63l-17 -162h-46
q-21 70 -28 147q-50 38 -140 38q-63 0 -113 -35.5t-79 -102.5t-29 -160q0 -94 24.5 -161t68.5 -102t102 -35q29 0 51 3v243q-44 11 -78 21v24h341v-17q-10 -8 -32.5 -17t-36.5 -14v-247q-38 -27 -114.5 -42.5t-155.5 -15.5q-181 0 -277.5 95.5z" />
    <glyph glyph-name="Gcircumflex" unicode="&#x11c;" horiz-adv-x="756" 
d="M210 841q35 22 95 76.5t76 79.5h91q16 -25 76 -79.5t95 -76.5l-79 -55q-35 28 -77.5 72t-58.5 70h-3q-16 -26 -58.5 -70t-77.5 -72zM130.5 85.5q-96.5 95.5 -96.5 264.5q0 111 44 192t128.5 124.5t202.5 43.5q96 0 167 -22t114 -63l-17 -162h-46q-21 70 -28 147
q-50 38 -140 38q-63 0 -113 -35.5t-79 -102.5t-29 -160q0 -94 24.5 -161t68.5 -102t102 -35q29 0 51 3v243q-44 11 -78 21v24h341v-17q-10 -8 -32.5 -17t-36.5 -14v-247q-38 -27 -114.5 -42.5t-155.5 -15.5q-181 0 -277.5 95.5z" />
    <glyph glyph-name="Gcommaaccent" unicode="&#x122;" horiz-adv-x="756" 
d="M130.5 85.5q-96.5 95.5 -96.5 264.5q0 111 44 192t128.5 124.5t202.5 43.5q96 0 167 -22t114 -63l-17 -162h-46q-21 70 -28 147q-50 38 -140 38q-63 0 -113 -35.5t-79 -102.5t-29 -160q0 -94 24.5 -161t68.5 -102t102 -35q29 0 51 3v243q-44 11 -78 21v24h341v-17
q-10 -8 -32.5 -17t-36.5 -14v-247q-38 -27 -114.5 -42.5t-155.5 -15.5q-181 0 -277.5 95.5zM342 -368q68 65 78 117q-33 4 -56.5 28t-23.5 55q0 36 25 57.5t61 21.5q44 0 68 -24.5t24 -60.5q0 -65 -33 -129.5t-84 -108.5z" />
    <glyph glyph-name="Gdotaccent" unicode="&#x120;" horiz-adv-x="756" 
d="M381.5 806.5q-19.5 20.5 -19.5 51.5t19.5 52t52.5 21t53 -21t20 -52t-20 -51.5t-53 -20.5t-52.5 20.5zM130.5 85.5q-96.5 95.5 -96.5 264.5q0 111 44 192t128.5 124.5t202.5 43.5q96 0 167 -22t114 -63l-17 -162h-46q-21 70 -28 147q-50 38 -140 38q-63 0 -113 -35.5
t-79 -102.5t-29 -160q0 -94 24.5 -161t68.5 -102t102 -35q29 0 51 3v243q-44 11 -78 21v24h341v-17q-10 -8 -32.5 -17t-36.5 -14v-247q-38 -27 -114.5 -42.5t-155.5 -15.5q-181 0 -277.5 95.5z" />
    <glyph glyph-name="uni1E20" unicode="&#x1e20;" horiz-adv-x="756" 
d="M164 843h428v-57h-428v57zM130.5 85.5q-96.5 95.5 -96.5 264.5q0 111 44 192t128.5 124.5t202.5 43.5q96 0 167 -22t114 -63l-17 -162h-46q-21 70 -28 147q-50 38 -140 38q-63 0 -113 -35.5t-79 -102.5t-29 -160q0 -94 24.5 -161t68.5 -102t102 -35q29 0 51 3v243
q-44 11 -78 21v24h341v-17q-10 -8 -32.5 -17t-36.5 -14v-247q-38 -27 -114.5 -42.5t-155.5 -15.5q-181 0 -277.5 95.5z" />
    <glyph glyph-name="H" unicode="H" horiz-adv-x="851" 
d="M791 665q-40 -13 -43 -13v-607q31 -6 79 -23v-22h-355v19q53 21 63.5 24t12.5 4v279h-246v-282q19 -4 76 -22v-22h-354v24q20 6 30 10q41 13 48 14v607q-32 7 -78 23v22h354v-19q-53 -21 -63.5 -24t-12.5 -4v-268h246v271q-19 4 -76 22v22h355v-24q-24 -8 -36 -11z" />
    <glyph glyph-name="Hbar" unicode="&#x126;" horiz-adv-x="851" 
d="M791 665q-40 -13 -43 -13v-106h60v-59h-60v-442q31 -6 79 -23v-22h-355v19q53 21 63.5 24t12.5 4v279h-246v-282q19 -4 76 -22v-22h-354v24q20 6 30 10q41 13 48 14v439h-60v59h60v109q-32 7 -78 23v22h354v-19q-53 -21 -63.5 -24t-12.5 -4v-107h246v110q-19 4 -76 22v22
h355v-24q-24 -8 -36 -11zM548 487h-246v-102h246v102z" />
    <glyph glyph-name="uni1E2A" unicode="&#x1e2a;" horiz-adv-x="851" 
d="M791 665q-40 -13 -43 -13v-607q31 -6 79 -23v-22h-355v19q53 21 63.5 24t12.5 4v279h-246v-282q19 -4 76 -22v-22h-354v24q20 6 30 10q41 13 48 14v607q-32 7 -78 23v22h354v-19q-53 -21 -63.5 -24t-12.5 -4v-268h246v271q-19 4 -76 22v22h355v-24q-24 -8 -36 -11z
M487.5 -114q24.5 16 29.5 64h106q-13 -71 -64.5 -106t-133.5 -35t-133.5 35t-64.5 106h106q5 -48 29.5 -64t62.5 -16t62.5 16z" />
    <glyph glyph-name="Hcircumflex" unicode="&#x124;" horiz-adv-x="851" 
d="M365.5 858q-42.5 -44 -77.5 -72l-79 55q35 22 95 76.5t76 79.5h91q16 -25 76 -79.5t95 -76.5l-79 -55q-35 28 -77.5 72t-58.5 70h-3q-16 -26 -58.5 -70zM791 665q-40 -13 -43 -13v-607q31 -6 79 -23v-22h-355v19q53 21 63.5 24t12.5 4v279h-246v-282q19 -4 76 -22v-22
h-354v24q20 6 30 10q41 13 48 14v607q-32 7 -78 23v22h354v-19q-53 -21 -63.5 -24t-12.5 -4v-268h246v271q-19 4 -76 22v22h355v-24q-24 -8 -36 -11z" />
    <glyph glyph-name="uni1E24" unicode="&#x1e24;" horiz-adv-x="851" 
d="M791 665q-40 -13 -43 -13v-607q31 -6 79 -23v-22h-355v19q53 21 63.5 24t12.5 4v279h-246v-282q19 -4 76 -22v-22h-354v24q20 6 30 10q41 13 48 14v607q-32 7 -78 23v22h354v-19q-53 -21 -63.5 -24t-12.5 -4v-268h246v271q-19 4 -76 22v22h355v-24q-24 -8 -36 -11z
M478 -71q20 -21 20 -52t-20 -51.5t-53 -20.5t-52.5 20.5t-19.5 51.5t19.5 52t52.5 21t53 -21z" />
    <glyph glyph-name="I" unicode="I" horiz-adv-x="407" 
d="M24 25l79 22v608q-13 3 -79 22v23h359v-25l-80 -22v-608q16 -3 56 -15l24 -7v-23h-359v25z" />
    <glyph glyph-name="IJ" unicode="&#x132;" horiz-adv-x="950" 
d="M24 25l79 22v608q-13 3 -79 22v23h359v-25l-80 -22v-608q16 -3 56 -15l24 -7v-23h-359v25zM502 7q-55 17 -90 47l29 48q20 -16 52 -28t63 -12q40 0 66.5 25t26.5 78v488q-24 5 -78 23v24h355v-24l-34 -11q-39 -12 -43 -13v-476q0 -95 -68.5 -140.5t-166.5 -45.5
q-57 0 -112 17z" />
    <glyph glyph-name="Iacute" unicode="&#xcd;" horiz-adv-x="407" 
d="M70 830l127 139q11 14 30.5 28t45.5 14q30 0 45.5 -16t15.5 -35q0 -21 -15 -38.5t-46 -35.5l-172 -100zM24 25l79 22v608q-13 3 -79 22v23h359v-25l-80 -22v-608q16 -3 56 -15l24 -7v-23h-359v25z" />
    <glyph glyph-name="Ibreve" unicode="&#x12c;" horiz-adv-x="407" 
d="M69.5 821q-51.5 35 -64.5 106h106q5 -48 29.5 -64t62.5 -16t62.5 16t29.5 64h106q-13 -71 -64.5 -106t-133.5 -35t-133.5 35zM24 25l79 22v608q-13 3 -79 22v23h359v-25l-80 -22v-608q16 -3 56 -15l24 -7v-23h-359v25z" />
    <glyph glyph-name="uni01CF" unicode="&#x1cf;" horiz-adv-x="407" 
d="M82 865.5q-60 54.5 -95 76.5l79 55q35 -28 77.5 -72t58.5 -70h3q16 26 58.5 70t77.5 72l79 -55q-35 -22 -95 -76.5t-76 -79.5h-91q-16 25 -76 79.5zM24 25l79 22v608q-13 3 -79 22v23h359v-25l-80 -22v-608q16 -3 56 -15l24 -7v-23h-359v25z" />
    <glyph glyph-name="Icircumflex" unicode="&#xce;" horiz-adv-x="407" 
d="M-13 841q35 22 95 76.5t76 79.5h91q16 -25 76 -79.5t95 -76.5l-79 -55q-35 28 -77.5 72t-58.5 70h-3q-16 -26 -58.5 -70t-77.5 -72zM24 25l79 22v608q-13 3 -79 22v23h359v-25l-80 -22v-608q16 -3 56 -15l24 -7v-23h-359v25z" />
    <glyph glyph-name="Idieresis" unicode="&#xcf;" horiz-adv-x="407" 
d="M23.5 806.5q-19.5 20.5 -19.5 51.5t19.5 52t52.5 21t53 -21t20 -52t-20 -51.5t-53 -20.5t-52.5 20.5zM276.5 806.5q-19.5 20.5 -19.5 51.5t19.5 52t52.5 21t53 -21t20 -52t-20 -51.5t-53 -20.5t-52.5 20.5zM24 25l79 22v608q-13 3 -79 22v23h359v-25l-80 -22v-608
q16 -3 56 -15l24 -7v-23h-359v25z" />
    <glyph glyph-name="Idotaccent" unicode="&#x130;" horiz-adv-x="407" 
d="M148.5 806.5q-19.5 20.5 -19.5 51.5t19.5 52t52.5 21t53 -21t20 -52t-20 -51.5t-53 -20.5t-52.5 20.5zM24 25l79 22v608q-13 3 -79 22v23h359v-25l-80 -22v-608q16 -3 56 -15l24 -7v-23h-359v25z" />
    <glyph glyph-name="uni1ECA" unicode="&#x1eca;" horiz-adv-x="407" 
d="M24 25l79 22v608q-13 3 -79 22v23h359v-25l-80 -22v-608q16 -3 56 -15l24 -7v-23h-359v25zM150.5 -174.5q-19.5 20.5 -19.5 51.5t19.5 52t52.5 21t53 -21t20 -52t-20 -51.5t-53 -20.5t-52.5 20.5z" />
    <glyph glyph-name="Igrave" unicode="&#xcc;" horiz-adv-x="407" 
d="M131 886q-31 18 -46 35.5t-15 38.5q0 19 15.5 35t45.5 16q26 0 45.5 -14t30.5 -28l127 -139l-31 -44zM24 25l79 22v608q-13 3 -79 22v23h359v-25l-80 -22v-608q16 -3 56 -15l24 -7v-23h-359v25z" />
    <glyph glyph-name="uni1EC8" unicode="&#x1ec8;" horiz-adv-x="407" 
d="M166 900h47q21 0 38.5 12t17.5 40q0 21 -17 36t-48 15q-36 0 -64 -16l-7 45q40 19 92 19q57 0 97 -24.5t40 -75.5q0 -47 -27.5 -67.5t-75.5 -24.5l-10 -73h-78zM24 25l79 22v608q-13 3 -79 22v23h359v-25l-80 -22v-608q16 -3 56 -15l24 -7v-23h-359v25z" />
    <glyph glyph-name="Imacron" unicode="&#x12a;" horiz-adv-x="407" 
d="M-23 843h474v-58h-474v58zM24 25l79 22v608q-13 3 -79 22v23h359v-25l-80 -22v-608q16 -3 56 -15l24 -7v-23h-359v25z" />
    <glyph glyph-name="Iogonek" unicode="&#x12e;" horiz-adv-x="407" 
d="M465 -109v-77q-20 -15 -55.5 -23.5t-75.5 -8.5q-72 0 -112 25t-40 71q0 37 27.5 73.5t74.5 48.5h-260v25l79 22v608q-13 3 -79 22v23h359v-25l-80 -22v-608q16 -3 56 -15l24 -7v-23h-11q-17 -15 -30.5 -38t-13.5 -44q0 -22 17 -37t45 -15q35 0 75 25z" />
    <glyph glyph-name="Itilde" unicode="&#x128;" horiz-adv-x="407" 
d="M25 881.5q35 32.5 94 32.5q31 0 55 -8.5t51 -22.5q14 -7 28 -13t25 -6q21 0 34.5 9.5t20.5 41.5h93q-6 -60 -39 -94.5t-98 -34.5q-25 0 -49.5 8t-56.5 23l-33 13t-25 6q-21 0 -34 -13t-17 -37h-93q9 63 44 95.5zM24 25l79 22v608q-13 3 -79 22v23h359v-25l-80 -22v-608
q16 -3 56 -15l24 -7v-23h-359v25z" />
    <glyph glyph-name="J" unicode="J" horiz-adv-x="554" 
d="M106 7q-55 17 -90 47l29 48q20 -16 52 -28t63 -12q40 0 66.5 25t26.5 78v488q-24 5 -78 23v24h355v-24l-34 -11q-39 -12 -43 -13v-476q0 -95 -68.5 -140.5t-166.5 -45.5q-57 0 -112 17z" />
    <glyph glyph-name="Jcircumflex" unicode="&#x134;" horiz-adv-x="554" 
d="M136 841q35 22 95 76.5t76 79.5h91q16 -25 76 -79.5t95 -76.5l-79 -55q-35 28 -77.5 72t-58.5 70h-3q-16 -26 -58.5 -70t-77.5 -72zM106 7q-55 17 -90 47l29 48q20 -16 52 -28t63 -12q40 0 66.5 25t26.5 78v488q-24 5 -78 23v24h355v-24l-34 -11q-39 -12 -43 -13v-476
q0 -95 -68.5 -140.5t-166.5 -45.5q-57 0 -112 17z" />
    <glyph glyph-name="K" unicode="K" horiz-adv-x="851" 
d="M848 23v-23h-264l-217 306l-64 -66v-195q12 -2 31 -7.5l29 -8.5l19 -6v-23h-358v25l79 22v608q-36 8 -79 23v22h358v-25l-79 -22v-310l303 311l-83 15v31h253v-31l-26 -6q-22 -4 -35 -8.5t-22 -13.5l-210 -216l275 -379q42 -9 90 -23z" />
    <glyph glyph-name="Kcommaaccent" unicode="&#x136;" horiz-adv-x="851" 
d="M848 23v-23h-264l-217 306l-64 -66v-195q12 -2 31 -7.5l29 -8.5l19 -6v-23h-358v25l79 22v608q-36 8 -79 23v22h358v-25l-79 -22v-310l303 311l-83 15v31h253v-31l-26 -6q-22 -4 -35 -8.5t-22 -13.5l-210 -216l275 -379q42 -9 90 -23zM502 -113.5q24 -24.5 24 -60.5
q0 -65 -33 -129.5t-84 -108.5l-59 44q68 65 78 117q-33 4 -56.5 28t-23.5 55q0 36 25 57.5t61 21.5q44 0 68 -24.5z" />
    <glyph glyph-name="L" unicode="L" horiz-adv-x="692" 
d="M24 22q43 15 88 23v610q-33 7 -79 23v22h358v-25l-79 -22v-594h245q2 28 22.5 73.5t36.5 63.5h42l-21 -196h-613v22z" />
    <glyph glyph-name="Lacute" unicode="&#x139;" horiz-adv-x="692" 
d="M94 830l127 139q11 13 30.5 27.5t45.5 14.5q30 0 45.5 -16t15.5 -35q0 -21 -15 -38.5t-46 -35.5l-172 -100zM24 22q43 15 88 23v610q-33 7 -79 23v22h358v-25l-79 -22v-594h245q2 28 22.5 73.5t36.5 63.5h42l-21 -196h-613v22z" />
    <glyph glyph-name="Lcaron" unicode="&#x13d;" horiz-adv-x="692" 
d="M476 417q68 65 78 117q-39 0 -62 24t-23 57q0 40 23.5 67.5t67.5 27.5q50 0 74 -29.5t24 -68.5q0 -64 -35.5 -129t-87.5 -110zM24 22q43 15 88 23v610q-33 7 -79 23v22h358v-25l-79 -22v-594h245q2 28 22.5 73.5t36.5 63.5h42l-21 -196h-613v22z" />
    <glyph glyph-name="Lcommaaccent" unicode="&#x13b;" horiz-adv-x="692" 
d="M24 22q43 15 88 23v610q-33 7 -79 23v22h358v-25l-79 -22v-594h245q2 28 22.5 73.5t36.5 63.5h42l-21 -196h-613v22zM270 -368q68 65 78 117q-33 4 -56.5 28t-23.5 55q0 36 25 57.5t61 21.5q44 0 68 -24.5t24 -60.5q0 -65 -33 -129.5t-84 -108.5z" />
    <glyph glyph-name="Ldot" unicode="&#x13f;" horiz-adv-x="692" 
d="M24 22q43 15 88 23v610q-33 7 -79 23v22h358v-25l-79 -22v-594h245q2 28 22.5 73.5t36.5 63.5h42l-21 -196h-613v22zM454.5 345.5q-19.5 20.5 -19.5 51.5t19.5 52t52.5 21t53 -21t20 -52t-20 -51.5t-53 -20.5t-52.5 20.5z" />
    <glyph glyph-name="uni1E36" unicode="&#x1e36;" horiz-adv-x="692" 
d="M24 22q43 15 88 23v610q-33 7 -79 23v22h358v-25l-79 -22v-594h245q2 28 22.5 73.5t36.5 63.5h42l-21 -196h-613v22zM292.5 -174.5q-19.5 20.5 -19.5 51.5t19.5 52t52.5 21t53 -21t20 -52t-20 -51.5t-53 -20.5t-52.5 20.5z" />
    <glyph glyph-name="uni1E38" unicode="&#x1e38;" horiz-adv-x="692" 
d="M-5 842h428v-57h-428v57zM24 22q43 15 88 23v610q-33 7 -79 23v22h358v-25l-79 -22v-594h245q2 28 22.5 73.5t36.5 63.5h42l-21 -196h-613v22zM292.5 -174.5q-19.5 20.5 -19.5 51.5t19.5 52t52.5 21t53 -21t20 -52t-20 -51.5t-53 -20.5t-52.5 20.5z" />
    <glyph glyph-name="uni1E3A" unicode="&#x1e3a;" horiz-adv-x="692" 
d="M24 22q43 15 88 23v610q-33 7 -79 23v22h358v-25l-79 -22v-594h245q2 28 22.5 73.5t36.5 63.5h42l-21 -196h-613v22zM125 -55h428v-57h-428v57z" />
    <glyph glyph-name="Lslash" unicode="&#x141;" horiz-adv-x="692" 
d="M658 196l-21 -196h-613v22q43 15 88 23v190l-71 -25v81l71 25v339q-33 7 -79 23v22h358v-25l-79 -22v-266l190 68v-81l-190 -68v-247h245q2 28 22.5 73.5t36.5 63.5h42z" />
    <glyph glyph-name="M" unicode="M" horiz-adv-x="1000" 
d="M25 22q50 15 78 22v611q-36 8 -79 23v22h281l183 -481l206 481h282v-22l-78 -26v-608q28 -7 78 -22v-22h-356v22q50 15 78 22v505l-205 -474h-116l-200 490v-521q28 -7 78 -22v-22h-230v22z" />
    <glyph glyph-name="uni1E42" unicode="&#x1e42;" horiz-adv-x="1000" 
d="M25 22q50 15 78 22v611q-36 8 -79 23v22h281l183 -481l206 481h282v-22l-78 -26v-608q28 -7 78 -22v-22h-356v22q50 15 78 22v505l-205 -474h-116l-200 490v-521q28 -7 78 -22v-22h-230v22zM446.5 -174.5q-19.5 20.5 -19.5 51.5t19.5 52t52.5 21t53 -21t20 -52t-20 -51.5
t-53 -20.5t-52.5 20.5z" />
    <glyph glyph-name="N" unicode="N" horiz-adv-x="792" 
d="M25 22q50 15 78 22v611q-33 7 -79 23v22h273l319 -463v419q-28 7 -78 22v22h230v-22q-50 -15 -78 -22v-656h-97l-416 602v-558q28 -7 78 -22v-22h-230v22z" />
    <glyph glyph-name="Nacute" unicode="&#x143;" horiz-adv-x="792" 
d="M310 830l127 139q11 14 30.5 28t45.5 14q30 0 45.5 -16t15.5 -35q0 -21 -15 -38.5t-46 -35.5l-172 -100zM25 22q50 15 78 22v611q-33 7 -79 23v22h273l319 -463v419q-28 7 -78 22v22h230v-22q-50 -15 -78 -22v-656h-97l-416 602v-558q28 -7 78 -22v-22h-230v22z" />
    <glyph glyph-name="Ncaron" unicode="&#x147;" horiz-adv-x="792" 
d="M274 865.5q-60 54.5 -95 76.5l79 55q35 -28 77.5 -72t58.5 -70h3q16 26 58.5 70t77.5 72l79 -55q-35 -22 -95 -76.5t-76 -79.5h-91q-16 25 -76 79.5zM25 22q50 15 78 22v611q-33 7 -79 23v22h273l319 -463v419q-28 7 -78 22v22h230v-22q-50 -15 -78 -22v-656h-97
l-416 602v-558q28 -7 78 -22v-22h-230v22z" />
    <glyph glyph-name="Ncommaaccent" unicode="&#x145;" horiz-adv-x="792" 
d="M25 22q50 15 78 22v611q-33 7 -79 23v22h273l319 -463v419q-28 7 -78 22v22h230v-22q-50 -15 -78 -22v-656h-97l-416 602v-558q28 -7 78 -22v-22h-230v22zM322 -368q68 65 78 117q-33 4 -56.5 28t-23.5 55q0 36 25 57.5t61 21.5q44 0 68 -24.5t24 -60.5q0 -65 -33 -129.5
t-84 -108.5z" />
    <glyph glyph-name="uni1E44" unicode="&#x1e44;" horiz-adv-x="792" 
d="M342.5 806.5q-19.5 20.5 -19.5 51.5t19.5 52t52.5 21t53 -21t20 -52t-20 -51.5t-53 -20.5t-52.5 20.5zM25 22q50 15 78 22v611q-33 7 -79 23v22h273l319 -463v419q-28 7 -78 22v22h230v-22q-50 -15 -78 -22v-656h-97l-416 602v-558q28 -7 78 -22v-22h-230v22z" />
    <glyph glyph-name="uni1E46" unicode="&#x1e46;" horiz-adv-x="792" 
d="M25 22q50 15 78 22v611q-33 7 -79 23v22h273l319 -463v419q-28 7 -78 22v22h230v-22q-50 -15 -78 -22v-656h-97l-416 602v-558q28 -7 78 -22v-22h-230v22zM342.5 -174.5q-19.5 20.5 -19.5 51.5t19.5 52t52.5 21t53 -21t20 -52t-20 -51.5t-53 -20.5t-52.5 20.5z" />
    <glyph glyph-name="Eng" unicode="&#x14a;" horiz-adv-x="792" 
d="M408 -227l10 50q36 -12 83 -12q48 0 82 20.5t34 63.5v105l-440 602v-558q28 -7 78 -22v-22h-230v22q50 15 78 22v611q-33 7 -79 23v22h273l319 -463v419q-28 7 -78 22v22h230v-22q-50 -15 -78 -22v-756q0 -78 -43.5 -114t-114.5 -36q-58 0 -124 23z" />
    <glyph glyph-name="uni1E48" unicode="&#x1e48;" horiz-adv-x="792" 
d="M25 22q50 15 78 22v611q-33 7 -79 23v22h273l319 -463v419q-28 7 -78 22v22h230v-22q-50 -15 -78 -22v-656h-97l-416 602v-558q28 -7 78 -22v-22h-230v22zM182 -55h428v-57h-428v57z" />
    <glyph glyph-name="Ntilde" unicode="&#xd1;" horiz-adv-x="792" 
d="M229 881.5q35 32.5 94 32.5q31 0 55 -8.5t51 -22.5q14 -7 28 -13t25 -6q21 0 34.5 9.5t20.5 41.5h93q-6 -60 -39 -94.5t-98 -34.5q-25 0 -49.5 8t-56.5 23l-33 13t-25 6q-21 0 -34 -13t-17 -37h-93q9 63 44 95.5zM25 22q50 15 78 22v611q-33 7 -79 23v22h273l319 -463
v419q-28 7 -78 22v22h230v-22q-50 -15 -78 -22v-656h-97l-416 602v-558q28 -7 78 -22v-22h-230v22z" />
    <glyph glyph-name="O" unicode="O" horiz-adv-x="801" 
d="M127.5 85.5q-95.5 95.5 -95.5 264.5t95.5 264.5t273.5 95.5q117 0 199.5 -43.5t125.5 -124.5t43 -192t-43 -192t-125.5 -124.5t-199.5 -43.5q-178 0 -273.5 95.5zM524 133q41 81 41 217t-41 217t-123 81q-83 0 -124 -81t-41 -217t41 -217t124 -81q82 0 123 81z" />
    <glyph glyph-name="Oacute" unicode="&#xd3;" horiz-adv-x="801" 
d="M278 830l127 139q11 14 30.5 28t45.5 14q30 0 45.5 -16t15.5 -35q0 -21 -15 -38.5t-46 -35.5l-172 -100zM127.5 85.5q-95.5 95.5 -95.5 264.5t95.5 264.5t273.5 95.5q117 0 199.5 -43.5t125.5 -124.5t43 -192t-43 -192t-125.5 -124.5t-199.5 -43.5q-178 0 -273.5 95.5z
M524 133q41 81 41 217t-41 217t-123 81q-83 0 -124 -81t-41 -217t41 -217t124 -81q82 0 123 81z" />
    <glyph glyph-name="Obreve" unicode="&#x14e;" horiz-adv-x="801" 
d="M266.5 821q-51.5 35 -64.5 106h106q5 -48 29.5 -64t62.5 -16t62.5 16t29.5 64h106q-13 -71 -64.5 -106t-133.5 -35t-133.5 35zM127.5 85.5q-95.5 95.5 -95.5 264.5t95.5 264.5t273.5 95.5q117 0 199.5 -43.5t125.5 -124.5t43 -192t-43 -192t-125.5 -124.5t-199.5 -43.5
q-178 0 -273.5 95.5zM524 133q41 81 41 217t-41 217t-123 81q-83 0 -124 -81t-41 -217t41 -217t124 -81q82 0 123 81z" />
    <glyph glyph-name="uni01D1" unicode="&#x1d1;" horiz-adv-x="801" 
d="M279 865.5q-60 54.5 -95 76.5l79 55q35 -28 77.5 -72t58.5 -70h3q16 26 58.5 70t77.5 72l79 -55q-35 -22 -95 -76.5t-76 -79.5h-91q-16 25 -76 79.5zM127.5 85.5q-95.5 95.5 -95.5 264.5t95.5 264.5t273.5 95.5q117 0 199.5 -43.5t125.5 -124.5t43 -192t-43 -192
t-125.5 -124.5t-199.5 -43.5q-178 0 -273.5 95.5zM524 133q41 81 41 217t-41 217t-123 81q-83 0 -124 -81t-41 -217t41 -217t124 -81q82 0 123 81z" />
    <glyph glyph-name="Ocircumflex" unicode="&#xd4;" horiz-adv-x="801" 
d="M184 841q35 22 95 76.5t76 79.5h91q16 -25 76 -79.5t95 -76.5l-79 -55q-35 28 -77.5 72t-58.5 70h-3q-16 -26 -58.5 -70t-77.5 -72zM127.5 85.5q-95.5 95.5 -95.5 264.5t95.5 264.5t273.5 95.5q117 0 199.5 -43.5t125.5 -124.5t43 -192t-43 -192t-125.5 -124.5
t-199.5 -43.5q-178 0 -273.5 95.5zM524 133q41 81 41 217t-41 217t-123 81q-83 0 -124 -81t-41 -217t41 -217t124 -81q82 0 123 81z" />
    <glyph glyph-name="uni1ED0" unicode="&#x1ed0;" horiz-adv-x="801" 
d="M528 975l78 99q39 49 76 49q30 0 45.5 -17.5t15.5 -37.5q0 -41 -68 -74l-117 -57zM183 841q35 22 95 76.5t76 79.5h91q16 -25 76 -79.5t95 -76.5l-79 -55q-35 28 -77.5 72t-58.5 70h-3q-16 -26 -58.5 -70t-77.5 -72zM127.5 85.5q-95.5 95.5 -95.5 264.5t95.5 264.5
t273.5 95.5q117 0 199.5 -43.5t125.5 -124.5t43 -192t-43 -192t-125.5 -124.5t-199.5 -43.5q-178 0 -273.5 95.5zM524 133q41 81 41 217t-41 217t-123 81q-83 0 -124 -81t-41 -217t41 -217t124 -81q82 0 123 81z" />
    <glyph glyph-name="uni1ED8" unicode="&#x1ed8;" horiz-adv-x="801" 
d="M183 841q35 22 95 76.5t76 79.5h91q16 -25 76 -79.5t95 -76.5l-79 -55q-35 28 -77.5 72t-58.5 70h-3q-16 -26 -58.5 -70t-77.5 -72zM127.5 85.5q-95.5 95.5 -95.5 264.5t95.5 264.5t273.5 95.5q117 0 199.5 -43.5t125.5 -124.5t43 -192t-43 -192t-125.5 -124.5
t-199.5 -43.5q-178 0 -273.5 95.5zM524 133q41 81 41 217t-41 217t-123 81q-83 0 -124 -81t-41 -217t41 -217t124 -81q82 0 123 81zM347.5 -174.5q-19.5 20.5 -19.5 51.5t19.5 52t52.5 21t53 -21t20 -52t-20 -51.5t-53 -20.5t-52.5 20.5z" />
    <glyph glyph-name="uni1ED2" unicode="&#x1ed2;" horiz-adv-x="801" 
d="M124 994q-68 33 -68 74q0 20 15.5 37.5t45.5 17.5q37 0 76 -49l78 -99l-30 -38zM183 841q35 22 95 76.5t76 79.5h91q16 -25 76 -79.5t95 -76.5l-79 -55q-35 28 -77.5 72t-58.5 70h-3q-16 -26 -58.5 -70t-77.5 -72zM127.5 85.5q-95.5 95.5 -95.5 264.5t95.5 264.5
t273.5 95.5q117 0 199.5 -43.5t125.5 -124.5t43 -192t-43 -192t-125.5 -124.5t-199.5 -43.5q-178 0 -273.5 95.5zM524 133q41 81 41 217t-41 217t-123 81q-83 0 -124 -81t-41 -217t41 -217t124 -81q82 0 123 81z" />
    <glyph glyph-name="uni1ED4" unicode="&#x1ed4;" horiz-adv-x="801" 
d="M529 1042h41q18 0 33.5 11t15.5 36q0 19 -15 33t-42 14q-31 0 -56 -15l-6 42q34 17 80 17q50 0 85 -22.5t35 -69.5q0 -43 -24 -61.5t-66 -22.5l-9 -40h-68zM183 841q35 22 95 76.5t76 79.5h91q16 -25 76 -79.5t95 -76.5l-79 -55q-35 28 -77.5 72t-58.5 70h-3
q-16 -26 -58.5 -70t-77.5 -72zM127.5 85.5q-95.5 95.5 -95.5 264.5t95.5 264.5t273.5 95.5q117 0 199.5 -43.5t125.5 -124.5t43 -192t-43 -192t-125.5 -124.5t-199.5 -43.5q-178 0 -273.5 95.5zM524 133q41 81 41 217t-41 217t-123 81q-83 0 -124 -81t-41 -217t41 -217
t124 -81q82 0 123 81z" />
    <glyph glyph-name="uni1ED6" unicode="&#x1ed6;" horiz-adv-x="801" 
d="M253 1130.5q34 31.5 90 31.5q31 0 52 -8t43 -22q27 -18 45 -18q58 0 70 49h64q-6 -58 -37.5 -90.5t-93.5 -32.5q-22 0 -40.5 7t-40.5 19q-23 11 -37 16.5t-30 5.5q-25 0 -42 -13t-21 -35h-64q8 59 42 90.5zM183 841q35 22 95 76.5t76 79.5h91q16 -25 76 -79.5t95 -76.5
l-79 -55q-35 28 -77.5 72t-58.5 70h-3q-16 -26 -58.5 -70t-77.5 -72zM127.5 85.5q-95.5 95.5 -95.5 264.5t95.5 264.5t273.5 95.5q117 0 199.5 -43.5t125.5 -124.5t43 -192t-43 -192t-125.5 -124.5t-199.5 -43.5q-178 0 -273.5 95.5zM524 133q41 81 41 217t-41 217t-123 81
q-83 0 -124 -81t-41 -217t41 -217t124 -81q82 0 123 81z" />
    <glyph glyph-name="Odieresis" unicode="&#xd6;" horiz-adv-x="801" 
d="M220.5 806.5q-19.5 20.5 -19.5 51.5t19.5 52t52.5 21t53 -21t20 -52t-20 -51.5t-53 -20.5t-52.5 20.5zM473.5 806.5q-19.5 20.5 -19.5 51.5t19.5 52t52.5 21t53 -21t20 -52t-20 -51.5t-53 -20.5t-52.5 20.5zM127.5 85.5q-95.5 95.5 -95.5 264.5t95.5 264.5t273.5 95.5
q117 0 199.5 -43.5t125.5 -124.5t43 -192t-43 -192t-125.5 -124.5t-199.5 -43.5q-178 0 -273.5 95.5zM524 133q41 81 41 217t-41 217t-123 81q-83 0 -124 -81t-41 -217t41 -217t124 -81q82 0 123 81z" />
    <glyph glyph-name="uni1ECC" unicode="&#x1ecc;" horiz-adv-x="801" 
d="M127.5 614.5q95.5 95.5 273.5 95.5q117 0 199.5 -43.5t125.5 -124.5t43 -192t-43 -192t-125.5 -124.5t-199.5 -43.5q-178 0 -273.5 95.5t-95.5 264.5t95.5 264.5zM277 133q41 -81 124 -81q82 0 123 81t41 217t-41 217t-123 81q-83 0 -124 -81t-41 -217t41 -217z
M347.5 -71q19.5 21 52.5 21t53 -21t20 -52t-20 -51.5t-53 -20.5t-52.5 20.5t-19.5 51.5t19.5 52z" />
    <glyph glyph-name="Ograve" unicode="&#xd2;" horiz-adv-x="801" 
d="M319 886q-31 18 -46 35.5t-15 38.5q0 19 15.5 35t45.5 16q26 0 45.5 -14.5t30.5 -27.5l127 -139l-31 -44zM127.5 85.5q-95.5 95.5 -95.5 264.5t95.5 264.5t273.5 95.5q117 0 199.5 -43.5t125.5 -124.5t43 -192t-43 -192t-125.5 -124.5t-199.5 -43.5q-178 0 -273.5 95.5z
M524 133q41 81 41 217t-41 217t-123 81q-83 0 -124 -81t-41 -217t41 -217t124 -81q82 0 123 81z" />
    <glyph glyph-name="uni1ECE" unicode="&#x1ece;" horiz-adv-x="801" 
d="M363 900h47q21 0 38.5 12t17.5 40q0 21 -17 36t-48 15q-36 0 -64 -16l-7 45q40 19 92 19q57 0 97 -24.5t40 -75.5q0 -47 -27.5 -67.5t-75.5 -24.5l-10 -73h-78zM127.5 85.5q-95.5 95.5 -95.5 264.5t95.5 264.5t273.5 95.5q117 0 199.5 -43.5t125.5 -124.5t43 -192
t-43 -192t-125.5 -124.5t-199.5 -43.5q-178 0 -273.5 95.5zM524 133q41 81 41 217t-41 217t-123 81q-83 0 -124 -81t-41 -217t41 -217t124 -81q82 0 123 81z" />
    <glyph glyph-name="Ohorn" unicode="&#x1a0;" horiz-adv-x="862" 
d="M757 460q12 -51 12 -110q0 -111 -43 -192t-125.5 -124.5t-199.5 -43.5q-178 0 -273.5 95.5t-95.5 264.5t95.5 264.5t273.5 95.5q127 0 213 -51t125 -145q57 47 68 83q-5 -1 -14 -1q-32 0 -51.5 19.5t-19.5 53.5q0 30 19 53t67 23q91 0 91 -92q0 -90 -142 -193zM524 133
q41 81 41 217t-41 217t-123 81q-83 0 -124 -81t-41 -217t41 -217t124 -81q82 0 123 81z" />
    <glyph glyph-name="uni1EDA" unicode="&#x1eda;" horiz-adv-x="862" 
d="M310 785l-31 44l127 139q11 14 30.5 28t45.5 14q30 0 45.5 -16t15.5 -35q0 -21 -15 -38.5t-46 -35.5zM757 460q12 -51 12 -110q0 -111 -43 -192t-125.5 -124.5t-199.5 -43.5q-178 0 -273.5 95.5t-95.5 264.5t95.5 264.5t273.5 95.5q127 0 213 -51t125 -145q57 47 68 83
q-5 -1 -14 -1q-32 0 -51.5 19.5t-19.5 53.5q0 30 19 53t67 23q91 0 91 -92q0 -90 -142 -193zM524 133q41 81 41 217t-41 217t-123 81q-83 0 -124 -81t-41 -217t41 -217t124 -81q82 0 123 81z" />
    <glyph glyph-name="uni1EE2" unicode="&#x1ee2;" horiz-adv-x="862" 
d="M757 460q12 -51 12 -110q0 -111 -43 -192t-125.5 -124.5t-199.5 -43.5q-178 0 -273.5 95.5t-95.5 264.5t95.5 264.5t273.5 95.5q127 0 213 -51t125 -145q57 47 68 83q-5 -1 -14 -1q-32 0 -51.5 19.5t-19.5 53.5q0 30 19 53t67 23q91 0 91 -92q0 -90 -142 -193zM524 133
q41 81 41 217t-41 217t-123 81q-83 0 -124 -81t-41 -217t41 -217t124 -81q82 0 123 81zM453 -71q20 -21 20 -52t-20 -51.5t-53 -20.5t-52.5 20.5t-19.5 51.5t19.5 52t52.5 21t53 -21z" />
    <glyph glyph-name="uni1EDC" unicode="&#x1edc;" horiz-adv-x="862" 
d="M273 920.5q-15 17.5 -15 38.5q0 19 15.5 35t45.5 16q26 0 45.5 -14t30.5 -28l127 -139l-31 -44l-172 100q-31 18 -46 35.5zM757 460q12 -51 12 -110q0 -111 -43 -192t-125.5 -124.5t-199.5 -43.5q-178 0 -273.5 95.5t-95.5 264.5t95.5 264.5t273.5 95.5q127 0 213 -51
t125 -145q57 47 68 83q-5 -1 -14 -1q-32 0 -51.5 19.5t-19.5 53.5q0 30 19 53t67 23q91 0 91 -92q0 -90 -142 -193zM524 133q41 81 41 217t-41 217t-123 81q-83 0 -124 -81t-41 -217t41 -217t124 -81q82 0 123 81z" />
    <glyph glyph-name="uni1EDE" unicode="&#x1ede;" horiz-adv-x="862" 
d="M327 982l-7 45q40 19 92 19q57 0 97 -24.5t40 -75.5q0 -47 -27.5 -67.5t-75.5 -24.5l-10 -73h-78l-5 114h47q21 0 38.5 12t17.5 40q0 21 -17 36t-48 15q-36 0 -64 -16zM757 460q12 -51 12 -110q0 -111 -43 -192t-125.5 -124.5t-199.5 -43.5q-178 0 -273.5 95.5
t-95.5 264.5t95.5 264.5t273.5 95.5q127 0 213 -51t125 -145q57 47 68 83q-5 -1 -14 -1q-32 0 -51.5 19.5t-19.5 53.5q0 30 19 53t67 23q91 0 91 -92q0 -90 -142 -193zM524 133q41 81 41 217t-41 217t-123 81q-83 0 -124 -81t-41 -217t41 -217t124 -81q82 0 123 81z" />
    <glyph glyph-name="uni1EE0" unicode="&#x1ee0;" horiz-adv-x="862" 
d="M289 823q-13 -13 -17 -37h-93q9 63 44 95.5t94 32.5q31 0 55 -8.5t51 -22.5q14 -7 28 -13t25 -6q21 0 34.5 9.5t20.5 41.5h93q-6 -60 -39 -94.5t-98 -34.5q-25 0 -49.5 8t-56.5 23l-33 13t-25 6q-21 0 -34 -13zM757 460q12 -51 12 -110q0 -111 -43 -192t-125.5 -124.5
t-199.5 -43.5q-178 0 -273.5 95.5t-95.5 264.5t95.5 264.5t273.5 95.5q127 0 213 -51t125 -145q57 47 68 83q-5 -1 -14 -1q-32 0 -51.5 19.5t-19.5 53.5q0 30 19 53t67 23q91 0 91 -92q0 -90 -142 -193zM524 133q41 81 41 217t-41 217t-123 81q-83 0 -124 -81t-41 -217
t41 -217t124 -81q82 0 123 81z" />
    <glyph glyph-name="Ohungarumlaut" unicode="&#x150;" horiz-adv-x="801" 
d="M198 828l127 139q11 14 30.5 28t45.5 14q30 0 45.5 -16t15.5 -35q0 -21 -15 -38.5t-46 -35.5l-172 -100zM432 828l127 139q11 14 30.5 28t45.5 14q30 0 45.5 -16t15.5 -35q0 -21 -15 -38.5t-46 -35.5l-172 -100zM127.5 85.5q-95.5 95.5 -95.5 264.5t95.5 264.5
t273.5 95.5q117 0 199.5 -43.5t125.5 -124.5t43 -192t-43 -192t-125.5 -124.5t-199.5 -43.5q-178 0 -273.5 95.5zM524 133q41 81 41 217t-41 217t-123 81q-83 0 -124 -81t-41 -217t41 -217t124 -81q82 0 123 81z" />
    <glyph glyph-name="Omacron" unicode="&#x14c;" horiz-adv-x="801" 
d="M186 843h428v-57h-428v57zM127.5 85.5q-95.5 95.5 -95.5 264.5t95.5 264.5t273.5 95.5q117 0 199.5 -43.5t125.5 -124.5t43 -192t-43 -192t-125.5 -124.5t-199.5 -43.5q-178 0 -273.5 95.5zM524 133q41 81 41 217t-41 217t-123 81q-83 0 -124 -81t-41 -217t41 -217
t124 -81q82 0 123 81z" />
    <glyph glyph-name="Oslash" unicode="&#xd8;" horiz-adv-x="801" 
d="M744 501q25 -67 25 -151q0 -111 -43 -192t-125.5 -124.5t-199.5 -43.5q-142 0 -230 61l-80 -90l-47 39l79 90q-91 94 -91 260q0 169 95.5 264.5t273.5 95.5q131 0 220 -55l64 73l51 -40l-64 -73q47 -47 72 -114zM246 229l285 324q-43 95 -130 95q-83 0 -124 -81t-41 -217
q0 -68 10 -121zM524 133q41 81 41 217q0 74 -12 132l-287 -324q42 -106 135 -106q82 0 123 81z" />
    <glyph glyph-name="Oslashacute" unicode="&#x1fe;" horiz-adv-x="801" 
d="M309 786l-31 44l127 139q11 14 30.5 28t45.5 14q30 0 45.5 -16t15.5 -35q0 -21 -15 -38.5t-46 -35.5zM744 501q25 -67 25 -151q0 -111 -43 -192t-125.5 -124.5t-199.5 -43.5q-142 0 -230 61l-80 -90l-47 39l79 90q-91 94 -91 260q0 169 95.5 264.5t273.5 95.5
q131 0 220 -55l64 73l51 -40l-64 -73q47 -47 72 -114zM246 229l285 324q-43 95 -130 95q-83 0 -124 -81t-41 -217q0 -68 10 -121zM524 133q41 81 41 217q0 74 -12 132l-287 -324q42 -106 135 -106q82 0 123 81z" />
    <glyph glyph-name="Otilde" unicode="&#xd5;" horiz-adv-x="801" 
d="M222 881.5q35 32.5 94 32.5q31 0 55 -8.5t51 -22.5q14 -7 28 -13t25 -6q21 0 34.5 9.5t20.5 41.5h93q-6 -60 -39 -94.5t-98 -34.5q-25 0 -49.5 8t-56.5 23l-33 13t-25 6q-21 0 -34 -13t-17 -37h-93q9 63 44 95.5zM127.5 85.5q-95.5 95.5 -95.5 264.5t95.5 264.5
t273.5 95.5q117 0 199.5 -43.5t125.5 -124.5t43 -192t-43 -192t-125.5 -124.5t-199.5 -43.5q-178 0 -273.5 95.5zM524 133q41 81 41 217t-41 217t-123 81q-83 0 -124 -81t-41 -217t41 -217t124 -81q82 0 123 81z" />
    <glyph glyph-name="OE" unicode="&#x152;" horiz-adv-x="1120" 
d="M176 42.5q-75 52.5 -109.5 134.5t-34.5 173t34.5 173t109.5 134.5t188 52.5q59 0 103.5 -19t72.5 -54v63h526v-197h-42q-13 19 -29.5 66t-17.5 72h-237v-252h149q9 55 22 88h31v-236h-31q-8 24 -14 49.5t-8 39.5h-149v-271h245q2 28 22.5 73.5t36.5 63.5h42l-21 -196
h-525v59q-34 -38 -74.5 -53.5t-101.5 -15.5q-113 0 -188 52.5zM483.5 79q35.5 27 56.5 73v395q-16 42 -54 71.5t-85 29.5q-83 0 -124 -81t-41 -217t41 -217t124 -81q47 0 82.5 27z" />
    <glyph glyph-name="P" unicode="P" horiz-adv-x="679" 
d="M24 25l80 22v608q-35 7 -78 22v23h396q131 0 187 -56t56 -148q0 -62 -27 -114t-81.5 -83t-131.5 -31h-121v-223q16 -3 56 -15l24 -7v-23h-360v25zM369 326q51 0 74.5 48.5t23.5 123.5q0 143 -98 143h-65v-315h65z" />
    <glyph glyph-name="Thorn" unicode="&#xde;" horiz-adv-x="679" 
d="M24 25l80 22v608q-35 7 -78 22v23h278v-114h118q131 0 187 -56t56 -148q0 -62 -27 -114t-81.5 -83t-131.5 -31h-121v-109q16 -3 56 -15l24 -7v-23h-360v25zM369 212q51 0 74.5 48.5t23.5 123.5q0 143 -98 143h-65v-315h65z" />
    <glyph glyph-name="Q" unicode="Q" horiz-adv-x="801" 
d="M698 114q-71 -92 -204 -116q16 -45 58.5 -72.5t106.5 -32.5v-52q-143 12 -229.5 52t-111.5 103q-139 22 -212.5 114t-73.5 240q0 169 95.5 264.5t273.5 95.5q117 0 199.5 -43.5t125.5 -124.5t43 -192q0 -144 -71 -236zM524 133q41 81 41 217t-41 217t-123 81
q-83 0 -124 -81t-41 -217t41 -217t124 -81q82 0 123 81z" />
    <glyph glyph-name="R" unicode="R" horiz-adv-x="757" 
d="M743 22v-22h-240l-145 298h-54v-253q16 -3 56 -15l24 -7v-23h-360v25l80 22v608q-35 7 -78 22v23h414q131 0 183 -51.5t52 -142.5q0 -74 -40.5 -125.5t-110.5 -71.5l140 -263q46 -12 79 -24zM304 356h65q108 0 108 152q0 69 -26 101t-82 32h-65v-285z" />
    <glyph glyph-name="Racute" unicode="&#x154;" horiz-adv-x="757" 
d="M282 786l-31 44l127 139q11 13 30.5 27.5t45.5 14.5q30 0 45.5 -16t15.5 -35q0 -21 -15 -38.5t-46 -35.5zM743 22v-22h-240l-145 298h-54v-253q16 -3 56 -15l24 -7v-23h-360v25l80 22v608q-35 7 -78 22v23h414q131 0 183 -51.5t52 -142.5q0 -74 -40.5 -125.5
t-110.5 -71.5l140 -263q46 -12 79 -24zM304 356h65q108 0 108 152q0 69 -26 101t-82 32h-65v-285z" />
    <glyph glyph-name="Rcaron" unicode="&#x158;" horiz-adv-x="757" 
d="M262 865.5q-60 54.5 -95 76.5l79 55q35 -28 77.5 -72t58.5 -70h3q16 26 58.5 70t77.5 72l79 -55q-35 -22 -95 -76.5t-76 -79.5h-91q-16 25 -76 79.5zM743 22v-22h-240l-145 298h-54v-253q16 -3 56 -15l24 -7v-23h-360v25l80 22v608q-35 7 -78 22v23h414q131 0 183 -51.5
t52 -142.5q0 -74 -40.5 -125.5t-110.5 -71.5l140 -263q46 -12 79 -24zM304 356h65q108 0 108 152q0 69 -26 101t-82 32h-65v-285z" />
    <glyph glyph-name="Rcommaaccent" unicode="&#x156;" horiz-adv-x="757" 
d="M743 22v-22h-240l-145 298h-54v-253q16 -3 56 -15l24 -7v-23h-360v25l80 22v608q-35 7 -78 22v23h414q131 0 183 -51.5t52 -142.5q0 -74 -40.5 -125.5t-110.5 -71.5l140 -263q46 -12 79 -24zM304 356h65q108 0 108 152q0 69 -26 101t-82 32h-65v-285zM465 -113.5
q24 -24.5 24 -60.5q0 -65 -33 -129.5t-84 -108.5l-59 44q68 65 78 117q-33 4 -56.5 28t-23.5 55q0 36 25 57.5t61 21.5q44 0 68 -24.5z" />
    <glyph glyph-name="uni1E5A" unicode="&#x1e5a;" horiz-adv-x="757" 
d="M743 22v-22h-240l-145 298h-54v-253q16 -3 56 -15l24 -7v-23h-360v25l80 22v608q-35 7 -78 22v23h414q131 0 183 -51.5t52 -142.5q0 -74 -40.5 -125.5t-110.5 -71.5l140 -263q46 -12 79 -24zM304 356h65q108 0 108 152q0 69 -26 101t-82 32h-65v-285zM431 -71
q20 -21 20 -52t-20 -51.5t-53 -20.5t-52.5 20.5t-19.5 51.5t19.5 52t52.5 21t53 -21z" />
    <glyph glyph-name="uni1E5C" unicode="&#x1e5c;" horiz-adv-x="757" 
d="M577 785h-474v58h474v-58zM743 22v-22h-240l-145 298h-54v-253q16 -3 56 -15l24 -7v-23h-360v25l80 22v608q-35 7 -78 22v23h414q131 0 183 -51.5t52 -142.5q0 -74 -40.5 -125.5t-110.5 -71.5l140 -263q46 -12 79 -24zM304 356h65q108 0 108 152q0 69 -26 101t-82 32h-65
v-285zM431 -71q20 -21 20 -52t-20 -51.5t-53 -20.5t-52.5 20.5t-19.5 51.5t19.5 52t52.5 21t53 -21z" />
    <glyph glyph-name="uni1E5E" unicode="&#x1e5e;" horiz-adv-x="757" 
d="M743 22v-22h-240l-145 298h-54v-253q16 -3 56 -15l24 -7v-23h-360v25l80 22v608q-35 7 -78 22v23h414q131 0 183 -51.5t52 -142.5q0 -74 -40.5 -125.5t-110.5 -71.5l140 -263q46 -12 79 -24zM304 356h65q108 0 108 152q0 69 -26 101t-82 32h-65v-285zM132 -55h428v-57
h-428v57z" />
    <glyph glyph-name="S" unicode="S" horiz-adv-x="638" 
d="M143.5 16.5q-74.5 26.5 -109.5 70.5l18 153h46q9 -28 13.5 -60t9.5 -80q23 -22 58.5 -35t72.5 -13q63 0 105.5 31.5t42.5 93.5q0 36 -19.5 59t-49 36.5t-80.5 30.5q-66 22 -108 43.5t-71.5 64t-29.5 110.5q0 93 77 141t208 48q88 0 148 -17.5t104 -56.5l-17 -150h-46
q-20 62 -26 130q-20 15 -53 23.5t-69 8.5q-54 0 -88.5 -22t-34.5 -72q0 -25 17 -43t42.5 -30t71.5 -29q71 -27 116.5 -51.5t78.5 -73t33 -124.5q0 -68 -39.5 -116t-107 -72.5t-152.5 -24.5q-87 0 -161.5 26.5z" />
    <glyph glyph-name="Sacute" unicode="&#x15a;" horiz-adv-x="638" 
d="M187 830l127 139q11 14 30.5 28t45.5 14q30 0 45.5 -16t15.5 -35q0 -21 -15 -38.5t-46 -35.5l-172 -100zM143.5 16.5q-74.5 26.5 -109.5 70.5l18 153h46q9 -28 13.5 -60t9.5 -80q23 -22 58.5 -35t72.5 -13q63 0 105.5 31.5t42.5 93.5q0 36 -19.5 59t-49 36.5t-80.5 30.5
q-66 22 -108 43.5t-71.5 64t-29.5 110.5q0 93 77 141t208 48q88 0 148 -17.5t104 -56.5l-17 -150h-46q-20 62 -26 130q-20 15 -53 23.5t-69 8.5q-54 0 -88.5 -22t-34.5 -72q0 -25 17 -43t42.5 -30t71.5 -29q71 -27 116.5 -51.5t78.5 -73t33 -124.5q0 -68 -39.5 -116
t-107 -72.5t-152.5 -24.5q-87 0 -161.5 26.5z" />
    <glyph glyph-name="Scaron" unicode="&#x160;" horiz-adv-x="638" 
d="M197 865.5q-60 54.5 -95 76.5l79 55q35 -28 77.5 -72t58.5 -70h3q16 26 58.5 70t77.5 72l79 -55q-35 -22 -95 -76.5t-76 -79.5h-91q-16 25 -76 79.5zM143.5 16.5q-74.5 26.5 -109.5 70.5l18 153h46q9 -28 13.5 -60t9.5 -80q23 -22 58.5 -35t72.5 -13q63 0 105.5 31.5
t42.5 93.5q0 36 -19.5 59t-49 36.5t-80.5 30.5q-66 22 -108 43.5t-71.5 64t-29.5 110.5q0 93 77 141t208 48q88 0 148 -17.5t104 -56.5l-17 -150h-46q-20 62 -26 130q-20 15 -53 23.5t-69 8.5q-54 0 -88.5 -22t-34.5 -72q0 -25 17 -43t42.5 -30t71.5 -29q71 -27 116.5 -51.5
t78.5 -73t33 -124.5q0 -68 -39.5 -116t-107 -72.5t-152.5 -24.5q-87 0 -161.5 26.5z" />
    <glyph glyph-name="Scedilla" unicode="&#x15e;" horiz-adv-x="638" 
d="M537.5 60q-66.5 -54 -174.5 -67l-25 -50l21 -1q56 -6 82 -33.5t26 -62.5q0 -57 -46.5 -88.5t-115.5 -31.5q-35 0 -72 11t-63 29l29 46q16 -10 40 -16.5t49 -6.5q38 0 62 13t24 44q0 26 -21.5 36.5t-52.5 10.5q-15 0 -22 -1l-28 37l32 62q-81 3 -148 29t-100 67l18 153h46
q9 -28 13.5 -60t9.5 -80q23 -22 58.5 -35t72.5 -13q63 0 105.5 31.5t42.5 93.5q0 36 -19.5 59t-49 36.5t-80.5 30.5q-66 22 -108 43.5t-71.5 64t-29.5 110.5q0 93 77 141t208 48q88 0 148 -17.5t104 -56.5l-17 -150h-46q-20 62 -26 130q-20 15 -53 23.5t-69 8.5
q-54 0 -88.5 -22t-34.5 -72q0 -25 17 -43t42.5 -30t71.5 -29q71 -27 116.5 -51.5t78.5 -73t33 -124.5q0 -89 -66.5 -143z" />
    <glyph glyph-name="Scircumflex" unicode="&#x15c;" horiz-adv-x="638" 
d="M102 841q35 22 95 76.5t76 79.5h91q16 -25 76 -79.5t95 -76.5l-79 -55q-35 28 -77.5 72t-58.5 70h-3q-16 -26 -58.5 -70t-77.5 -72zM143.5 16.5q-74.5 26.5 -109.5 70.5l18 153h46q9 -28 13.5 -60t9.5 -80q23 -22 58.5 -35t72.5 -13q63 0 105.5 31.5t42.5 93.5
q0 36 -19.5 59t-49 36.5t-80.5 30.5q-66 22 -108 43.5t-71.5 64t-29.5 110.5q0 93 77 141t208 48q88 0 148 -17.5t104 -56.5l-17 -150h-46q-20 62 -26 130q-20 15 -53 23.5t-69 8.5q-54 0 -88.5 -22t-34.5 -72q0 -25 17 -43t42.5 -30t71.5 -29q71 -27 116.5 -51.5t78.5 -73
t33 -124.5q0 -68 -39.5 -116t-107 -72.5t-152.5 -24.5q-87 0 -161.5 26.5z" />
    <glyph glyph-name="Scommaaccent" unicode="&#x218;" horiz-adv-x="638" 
d="M143.5 16.5q-74.5 26.5 -109.5 70.5l18 153h46q9 -28 13.5 -60t9.5 -80q23 -22 58.5 -35t72.5 -13q63 0 105.5 31.5t42.5 93.5q0 36 -19.5 59t-49 36.5t-80.5 30.5q-66 22 -108 43.5t-71.5 64t-29.5 110.5q0 93 77 141t208 48q88 0 148 -17.5t104 -56.5l-17 -150h-46
q-20 62 -26 130q-20 15 -53 23.5t-69 8.5q-54 0 -88.5 -22t-34.5 -72q0 -25 17 -43t42.5 -30t71.5 -29q71 -27 116.5 -51.5t78.5 -73t33 -124.5q0 -68 -39.5 -116t-107 -72.5t-152.5 -24.5q-87 0 -161.5 26.5zM237 -335q25 24 49 58t30 65q-33 4 -56.5 28t-23.5 55
q0 36 25 57.5t61 21.5q44 0 68 -24.5t24 -60.5q0 -66 -33.5 -133t-84.5 -111z" />
    <glyph glyph-name="uni1E60" unicode="&#x1e60;" horiz-adv-x="638" 
d="M286.5 806.5q-19.5 20.5 -19.5 51.5t19.5 52t52.5 21t53 -21t20 -52t-20 -51.5t-53 -20.5t-52.5 20.5zM143.5 16.5q-74.5 26.5 -109.5 70.5l18 153h46q9 -28 13.5 -60t9.5 -80q23 -22 58.5 -35t72.5 -13q63 0 105.5 31.5t42.5 93.5q0 36 -19.5 59t-49 36.5t-80.5 30.5
q-66 22 -108 43.5t-71.5 64t-29.5 110.5q0 93 77 141t208 48q88 0 148 -17.5t104 -56.5l-17 -150h-46q-20 62 -26 130q-20 15 -53 23.5t-69 8.5q-54 0 -88.5 -22t-34.5 -72q0 -25 17 -43t42.5 -30t71.5 -29q71 -27 116.5 -51.5t78.5 -73t33 -124.5q0 -68 -39.5 -116
t-107 -72.5t-152.5 -24.5q-87 0 -161.5 26.5z" />
    <glyph glyph-name="uni1E62" unicode="&#x1e62;" horiz-adv-x="638" 
d="M143.5 16.5q-74.5 26.5 -109.5 70.5l18 153h46q9 -28 13.5 -60t9.5 -80q23 -22 58.5 -35t72.5 -13q63 0 105.5 31.5t42.5 93.5q0 36 -19.5 59t-49 36.5t-80.5 30.5q-66 22 -108 43.5t-71.5 64t-29.5 110.5q0 93 77 141t208 48q88 0 148 -17.5t104 -56.5l-17 -150h-46
q-20 62 -26 130q-20 15 -53 23.5t-69 8.5q-54 0 -88.5 -22t-34.5 -72q0 -25 17 -43t42.5 -30t71.5 -29q71 -27 116.5 -51.5t78.5 -73t33 -124.5q0 -68 -39.5 -116t-107 -72.5t-152.5 -24.5q-87 0 -161.5 26.5zM279.5 -174.5q-19.5 20.5 -19.5 51.5t19.5 52t52.5 21t53 -21
t20 -52t-20 -51.5t-53 -20.5t-52.5 20.5z" />
    <glyph glyph-name="uni1E9E" unicode="&#x1e9e;" horiz-adv-x="810" 
d="M381 -1v61q50 -11 95 -11q50 0 78.5 43.5t28.5 115.5q0 65 -31 104t-89 39h-113v28l161 167q-8 45 -36 73.5t-79 28.5q-47 0 -73.5 -26t-26.5 -78v-544h-276v25l80 22v446q0 106 75.5 161.5t230.5 55.5q80 0 141 -23t98.5 -59t50.5 -76l-145 -148q107 -17 168 -69
t61 -127q0 -61 -32 -110t-99.5 -78.5t-168.5 -29.5q-54 0 -99 9z" />
    <glyph glyph-name="uni018F" unicode="&#x18f;" horiz-adv-x="792" 
d="M573.5 664q92.5 -46 140.5 -129t48 -191q0 -114 -47.5 -193.5t-134.5 -120t-206 -40.5q-116 0 -193 43t-114 116t-37 164v38h538q-4 77 -32 145t-79 110t-120 42q-71 0 -131.5 -17.5t-134.5 -66.5l-26 61q53 35 124.5 60t182.5 25q129 0 221.5 -46zM508 117q51 69 60 173
h-344q0 -60 16.5 -115.5t49.5 -91t80 -35.5q87 0 138 69z" />
    <glyph glyph-name="T" unicode="T" horiz-adv-x="704" 
d="M163 25l89 22v594h-139q-2 -27 -18.5 -89t-28.5 -79h-42v227h656v-227h-42q-12 17 -28.5 79t-18.5 89h-139v-596q36 -6 90 -22v-23h-379v25z" />
    <glyph glyph-name="Tbar" unicode="&#x166;" horiz-adv-x="704" 
d="M680 700v-227h-42q-12 17 -28.5 79t-18.5 89h-139v-303h145v-58h-145v-235q36 -6 90 -22v-23h-379v25l89 22v233h-129v58h129v303h-139q-2 -27 -18.5 -89t-28.5 -79h-42v227h656z" />
    <glyph glyph-name="Tcaron" unicode="&#x164;" horiz-adv-x="704" 
d="M229 865.5q-60 54.5 -95 76.5l79 55q35 -28 77.5 -72t58.5 -70h3q16 26 58.5 70t77.5 72l79 -55q-35 -22 -95 -76.5t-76 -79.5h-91q-16 25 -76 79.5zM163 25l89 22v594h-139q-2 -27 -18.5 -89t-28.5 -79h-42v227h656v-227h-42q-12 17 -28.5 79t-18.5 89h-139v-596
q36 -6 90 -22v-23h-379v25z" />
    <glyph glyph-name="uni0162" unicode="&#x162;" horiz-adv-x="704" 
d="M680 700v-227h-42q-12 17 -28.5 79t-18.5 89h-139v-596q36 -6 90 -22v-23h-165l-29 -57l21 -1q56 -6 82 -33.5t26 -62.5q0 -57 -46.5 -88.5t-115.5 -31.5q-35 0 -72 11t-63 29l29 46q16 -10 40 -16.5t49 -6.5q38 0 62 13t24 44q0 26 -21.5 36.5t-52.5 10.5q-15 0 -22 -1
l-28 37l37 71h-134v25l89 22v594h-139q-2 -27 -18.5 -89t-28.5 -79h-42v227h656z" />
    <glyph glyph-name="uni021A" unicode="&#x21a;" horiz-adv-x="704" 
d="M163 25l89 22v594h-139q-2 -27 -18.5 -89t-28.5 -79h-42v227h656v-227h-42q-12 17 -28.5 79t-18.5 89h-139v-596q36 -6 90 -22v-23h-379v25zM266 -368q68 65 78 117q-33 4 -56.5 28t-23.5 55q0 36 25 57.5t61 21.5q44 0 68 -24.5t24 -60.5q0 -65 -33 -129.5t-84 -108.5z
" />
    <glyph glyph-name="uni1E6C" unicode="&#x1e6c;" horiz-adv-x="704" 
d="M163 25l89 22v594h-139q-2 -27 -18.5 -89t-28.5 -79h-42v227h656v-227h-42q-12 17 -28.5 79t-18.5 89h-139v-596q36 -6 90 -22v-23h-379v25zM298.5 -174.5q-19.5 20.5 -19.5 51.5t19.5 52t52.5 21t53 -21t20 -52t-20 -51.5t-53 -20.5t-52.5 20.5z" />
    <glyph glyph-name="uni1E6E" unicode="&#x1e6e;" horiz-adv-x="704" 
d="M163 25l89 22v594h-139q-2 -27 -18.5 -89t-28.5 -79h-42v227h656v-227h-42q-12 17 -28.5 79t-18.5 89h-139v-596q36 -6 90 -22v-23h-379v25zM138 -55h428v-57h-428v57z" />
    <glyph glyph-name="U" unicode="U" horiz-adv-x="823" 
d="M180.5 48q-82.5 58 -82.5 177v430q-32 7 -80 23v22h359v-25l-79 -22v-444q0 -84 49.5 -120.5t124.5 -36.5t127 37.5t52 119.5v447q-35 7 -80 22v22h234v-22q-55 -19 -80 -25v-428q0 -113 -76.5 -174t-226.5 -61q-159 0 -241.5 58z" />
    <glyph glyph-name="Uacute" unicode="&#xda;" horiz-adv-x="823" 
d="M342 830l127 139q11 13 30.5 27.5t45.5 14.5q30 0 45.5 -16t15.5 -35q0 -21 -15 -38.5t-46 -35.5l-172 -100zM180.5 48q-82.5 58 -82.5 177v430q-32 7 -80 23v22h359v-25l-79 -22v-444q0 -84 49.5 -120.5t124.5 -36.5t127 37.5t52 119.5v447q-35 7 -80 22v22h234v-22
q-55 -19 -80 -25v-428q0 -113 -76.5 -174t-226.5 -61q-159 0 -241.5 58z" />
    <glyph glyph-name="Ubreve" unicode="&#x16c;" horiz-adv-x="823" 
d="M292.5 821q-51.5 35 -64.5 106h106q5 -48 29.5 -64t62.5 -16t62.5 16t29.5 64h106q-13 -71 -64.5 -106t-133.5 -35t-133.5 35zM180.5 48q-82.5 58 -82.5 177v430q-32 7 -80 23v22h359v-25l-79 -22v-444q0 -84 49.5 -120.5t124.5 -36.5t127 37.5t52 119.5v447
q-35 7 -80 22v22h234v-22q-55 -19 -80 -25v-428q0 -113 -76.5 -174t-226.5 -61q-159 0 -241.5 58z" />
    <glyph glyph-name="uni01D3" unicode="&#x1d3;" horiz-adv-x="823" 
d="M290 865.5q-60 54.5 -95 76.5l79 55q35 -28 77.5 -72t58.5 -70h3q16 26 58.5 70t77.5 72l79 -55q-35 -22 -95 -76.5t-76 -79.5h-91q-16 25 -76 79.5zM180.5 48q-82.5 58 -82.5 177v430q-32 7 -80 23v22h359v-25l-79 -22v-444q0 -84 49.5 -120.5t124.5 -36.5t127 37.5
t52 119.5v447q-35 7 -80 22v22h234v-22q-55 -19 -80 -25v-428q0 -113 -76.5 -174t-226.5 -61q-159 0 -241.5 58z" />
    <glyph glyph-name="Ucircumflex" unicode="&#xdb;" horiz-adv-x="823" 
d="M197 841q35 22 95 76.5t76 79.5h91q16 -25 76 -79.5t95 -76.5l-79 -55q-35 28 -77.5 72t-58.5 70h-3q-16 -26 -58.5 -70t-77.5 -72zM180.5 48q-82.5 58 -82.5 177v430q-32 7 -80 23v22h359v-25l-79 -22v-444q0 -84 49.5 -120.5t124.5 -36.5t127 37.5t52 119.5v447
q-35 7 -80 22v22h234v-22q-55 -19 -80 -25v-428q0 -113 -76.5 -174t-226.5 -61q-159 0 -241.5 58z" />
    <glyph glyph-name="Udieresis" unicode="&#xdc;" horiz-adv-x="823" 
d="M263.5 806.5q-19.5 20.5 -19.5 51.5t19.5 52t52.5 21t53 -21t20 -52t-20 -51.5t-53 -20.5t-52.5 20.5zM516.5 806.5q-19.5 20.5 -19.5 51.5t19.5 52t52.5 21t53 -21t20 -52t-20 -51.5t-53 -20.5t-52.5 20.5zM180.5 48q-82.5 58 -82.5 177v430q-32 7 -80 23v22h359v-25
l-79 -22v-444q0 -84 49.5 -120.5t124.5 -36.5t127 37.5t52 119.5v447q-35 7 -80 22v22h234v-22q-55 -19 -80 -25v-428q0 -113 -76.5 -174t-226.5 -61q-159 0 -241.5 58z" />
    <glyph glyph-name="uni01D7" unicode="&#x1d7;" horiz-adv-x="823" 
d="M309 1039l127 139q11 14 30.5 28t45.5 14q30 0 45.5 -16t15.5 -35q0 -21 -15 -38.5t-46 -35.5l-172 -100zM263.5 806.5q-19.5 20.5 -19.5 51.5t19.5 52t52.5 21t53 -21t20 -52t-20 -51.5t-53 -20.5t-52.5 20.5zM516.5 806.5q-19.5 20.5 -19.5 51.5t19.5 52t52.5 21
t53 -21t20 -52t-20 -51.5t-53 -20.5t-52.5 20.5zM180.5 48q-82.5 58 -82.5 177v430q-32 7 -80 23v22h359v-25l-79 -22v-444q0 -84 49.5 -120.5t124.5 -36.5t127 37.5t52 119.5v447q-35 7 -80 22v22h234v-22q-55 -19 -80 -25v-428q0 -113 -76.5 -174t-226.5 -61
q-159 0 -241.5 58z" />
    <glyph glyph-name="uni01D9" unicode="&#x1d9;" horiz-adv-x="823" 
d="M328.5 1029q-51.5 52 -84.5 72l79 55q31 -25 65.5 -66t52.5 -71h3q18 30 52.5 71t65.5 66l79 -55q-33 -20 -84.5 -72t-68.5 -79h-91q-17 27 -68.5 79zM263.5 805.5q-19.5 20.5 -19.5 51.5t19.5 52t52.5 21t53 -21t20 -52t-20 -51.5t-53 -20.5t-52.5 20.5zM516.5 805.5
q-19.5 20.5 -19.5 51.5t19.5 52t52.5 21t53 -21t20 -52t-20 -51.5t-53 -20.5t-52.5 20.5zM180.5 48q-82.5 58 -82.5 177v430q-32 7 -80 23v22h359v-25l-79 -22v-444q0 -84 49.5 -120.5t124.5 -36.5t127 37.5t52 119.5v447q-35 7 -80 22v22h234v-22q-55 -19 -80 -25v-428
q0 -113 -76.5 -174t-226.5 -61q-159 0 -241.5 58z" />
    <glyph glyph-name="uni01DB" unicode="&#x1db;" horiz-adv-x="823" 
d="M315 1018q-32 19 -46.5 34.5t-14.5 35.5t13 35.5t43 15.5q26 0 45.5 -14t30.5 -28l92 -108l-31 -39zM263.5 805.5q-19.5 20.5 -19.5 51.5t19.5 52t52.5 21t53 -21t20 -52t-20 -51.5t-53 -20.5t-52.5 20.5zM516.5 805.5q-19.5 20.5 -19.5 51.5t19.5 52t52.5 21t53 -21
t20 -52t-20 -51.5t-53 -20.5t-52.5 20.5zM180.5 48q-82.5 58 -82.5 177v430q-32 7 -80 23v22h359v-25l-79 -22v-444q0 -84 49.5 -120.5t124.5 -36.5t127 37.5t52 119.5v447q-35 7 -80 22v22h234v-22q-55 -19 -80 -25v-428q0 -113 -76.5 -174t-226.5 -61q-159 0 -241.5 58z
" />
    <glyph glyph-name="uni01D5" unicode="&#x1d5;" horiz-adv-x="823" 
d="M227 1048h428v-57h-428v57zM263.5 806.5q-19.5 20.5 -19.5 51.5t19.5 52t52.5 21t53 -21t20 -52t-20 -51.5t-53 -20.5t-52.5 20.5zM516.5 806.5q-19.5 20.5 -19.5 51.5t19.5 52t52.5 21t53 -21t20 -52t-20 -51.5t-53 -20.5t-52.5 20.5zM180.5 48q-82.5 58 -82.5 177v430
q-32 7 -80 23v22h359v-25l-79 -22v-444q0 -84 49.5 -120.5t124.5 -36.5t127 37.5t52 119.5v447q-35 7 -80 22v22h234v-22q-55 -19 -80 -25v-428q0 -113 -76.5 -174t-226.5 -61q-159 0 -241.5 58z" />
    <glyph glyph-name="uni1EE4" unicode="&#x1ee4;" horiz-adv-x="823" 
d="M180.5 48q-82.5 58 -82.5 177v430q-32 7 -80 23v22h359v-25l-79 -22v-444q0 -84 49.5 -120.5t124.5 -36.5t127 37.5t52 119.5v447q-35 7 -80 22v22h234v-22q-55 -19 -80 -25v-428q0 -113 -76.5 -174t-226.5 -61q-159 0 -241.5 58zM382.5 -174.5q-19.5 20.5 -19.5 51.5
t19.5 52t52.5 21t53 -21t20 -52t-20 -51.5t-53 -20.5t-52.5 20.5z" />
    <glyph glyph-name="Ugrave" unicode="&#xd9;" horiz-adv-x="823" 
d="M342 886q-31 18 -46 35.5t-15 38.5q0 19 15.5 35t45.5 16q26 0 45.5 -14.5t30.5 -27.5l127 -139l-31 -44zM180.5 48q-82.5 58 -82.5 177v430q-32 7 -80 23v22h359v-25l-79 -22v-444q0 -84 49.5 -120.5t124.5 -36.5t127 37.5t52 119.5v447q-35 7 -80 22v22h234v-22
q-55 -19 -80 -25v-428q0 -113 -76.5 -174t-226.5 -61q-159 0 -241.5 58z" />
    <glyph glyph-name="uni1EE6" unicode="&#x1ee6;" horiz-adv-x="823" 
d="M413 900h47q21 0 38.5 12t17.5 40q0 21 -17 36t-48 15q-36 0 -64 -16l-7 45q40 19 92 19q57 0 97 -24.5t40 -75.5q0 -47 -27.5 -67.5t-75.5 -24.5l-10 -73h-78zM180.5 48q-82.5 58 -82.5 177v430q-32 7 -80 23v22h359v-25l-79 -22v-444q0 -84 49.5 -120.5t124.5 -36.5
t127 37.5t52 119.5v447q-35 7 -80 22v22h234v-22q-55 -19 -80 -25v-428q0 -113 -76.5 -174t-226.5 -61q-159 0 -241.5 58z" />
    <glyph glyph-name="Uhorn" unicode="&#x1af;" horiz-adv-x="823" 
d="M180.5 48q-82.5 58 -82.5 177v430q-32 7 -80 23v22h359v-25l-79 -22v-444q0 -84 49.5 -120.5t124.5 -36.5t127 37.5t52 119.5v447q-35 7 -80 22v22h151q104 0 122 60q-5 -1 -14 -1q-32 0 -51.5 19.5t-19.5 53.5q0 30 19 53t67 23q91 0 91 -92q0 -57 -46.5 -105
t-164.5 -59v-427q0 -113 -76.5 -174t-226.5 -61q-159 0 -241.5 58z" />
    <glyph glyph-name="uni1EE8" unicode="&#x1ee8;" horiz-adv-x="823" 
d="M392 830l127 139q11 13 30.5 27.5t45.5 14.5q30 0 45.5 -16t15.5 -35q0 -21 -15 -38.5t-46 -35.5l-172 -100zM180.5 48q-82.5 58 -82.5 177v430q-32 7 -80 23v22h359v-25l-79 -22v-444q0 -84 49.5 -120.5t124.5 -36.5t127 37.5t52 119.5v447q-35 7 -80 22v22h151
q104 0 122 60q-5 -1 -14 -1q-32 0 -51.5 19.5t-19.5 53.5q0 30 19 53t67 23q91 0 91 -92q0 -57 -46.5 -105t-164.5 -59v-427q0 -113 -76.5 -174t-226.5 -61q-159 0 -241.5 58z" />
    <glyph glyph-name="uni1EF0" unicode="&#x1ef0;" horiz-adv-x="823" 
d="M180.5 48q-82.5 58 -82.5 177v430q-32 7 -80 23v22h359v-25l-79 -22v-444q0 -84 49.5 -120.5t124.5 -36.5t127 37.5t52 119.5v447q-35 7 -80 22v22h151q104 0 122 60q-5 -1 -14 -1q-32 0 -51.5 19.5t-19.5 53.5q0 30 19 53t67 23q91 0 91 -92q0 -57 -46.5 -105
t-164.5 -59v-427q0 -113 -76.5 -174t-226.5 -61q-159 0 -241.5 58zM383.5 -174.5q-19.5 20.5 -19.5 51.5t19.5 52t52.5 21t53 -21t20 -52t-20 -51.5t-53 -20.5t-52.5 20.5z" />
    <glyph glyph-name="uni1EEA" unicode="&#x1eea;" horiz-adv-x="823" 
d="M350 884q-31 18 -46 35.5t-15 38.5q0 19 15.5 35t45.5 16q26 0 45.5 -14.5t30.5 -27.5l127 -139l-31 -44zM180.5 48q-82.5 58 -82.5 177v430q-32 7 -80 23v22h359v-25l-79 -22v-444q0 -84 49.5 -120.5t124.5 -36.5t127 37.5t52 119.5v447q-35 7 -80 22v22h151
q104 0 122 60q-5 -1 -14 -1q-32 0 -51.5 19.5t-19.5 53.5q0 30 19 53t67 23q91 0 91 -92q0 -57 -46.5 -105t-164.5 -59v-427q0 -113 -76.5 -174t-226.5 -61q-159 0 -241.5 58z" />
    <glyph glyph-name="uni1EEC" unicode="&#x1eec;" horiz-adv-x="823" 
d="M415 899h47q21 0 38.5 12t17.5 40q0 21 -17 36t-48 15q-36 0 -64 -16l-7 45q40 19 92 19q57 0 97 -24.5t40 -75.5q0 -47 -27.5 -67.5t-75.5 -24.5l-10 -73h-78zM180.5 48q-82.5 58 -82.5 177v430q-32 7 -80 23v22h359v-25l-79 -22v-444q0 -84 49.5 -120.5t124.5 -36.5
t127 37.5t52 119.5v447q-35 7 -80 22v22h151q104 0 122 60q-5 -1 -14 -1q-32 0 -51.5 19.5t-19.5 53.5q0 30 19 53t67 23q91 0 91 -92q0 -57 -46.5 -105t-164.5 -59v-427q0 -113 -76.5 -174t-226.5 -61q-159 0 -241.5 58z" />
    <glyph glyph-name="uni1EEE" unicode="&#x1eee;" horiz-adv-x="823" 
d="M259 880.5q35 32.5 94 32.5q31 0 55 -8.5t51 -22.5q14 -7 28 -13t25 -6q21 0 34.5 9.5t20.5 41.5h93q-6 -60 -39 -94.5t-98 -34.5q-25 0 -49.5 8t-56.5 23l-33 13t-25 6q-21 0 -34 -13t-17 -37h-93q9 63 44 95.5zM180.5 48q-82.5 58 -82.5 177v430q-32 7 -80 23v22h359
v-25l-79 -22v-444q0 -84 49.5 -120.5t124.5 -36.5t127 37.5t52 119.5v447q-35 7 -80 22v22h151q104 0 122 60q-5 -1 -14 -1q-32 0 -51.5 19.5t-19.5 53.5q0 30 19 53t67 23q91 0 91 -92q0 -57 -46.5 -105t-164.5 -59v-427q0 -113 -76.5 -174t-226.5 -61q-159 0 -241.5 58z
" />
    <glyph glyph-name="Uhungarumlaut" unicode="&#x170;" horiz-adv-x="823" 
d="M218 828l127 139q11 14 30.5 28t45.5 14q30 0 45.5 -16t15.5 -35q0 -21 -15 -38.5t-46 -35.5l-172 -100zM452 828l127 139q11 14 30.5 28t45.5 14q30 0 45.5 -16t15.5 -35q0 -21 -15 -38.5t-46 -35.5l-172 -100zM180.5 48q-82.5 58 -82.5 177v430q-32 7 -80 23v22h359
v-25l-79 -22v-444q0 -84 49.5 -120.5t124.5 -36.5t127 37.5t52 119.5v447q-35 7 -80 22v22h234v-22q-55 -19 -80 -25v-428q0 -113 -76.5 -174t-226.5 -61q-159 0 -241.5 58z" />
    <glyph glyph-name="Umacron" unicode="&#x16a;" horiz-adv-x="823" 
d="M199 843h428v-57h-428v57zM180.5 48q-82.5 58 -82.5 177v430q-32 7 -80 23v22h359v-25l-79 -22v-444q0 -84 49.5 -120.5t124.5 -36.5t127 37.5t52 119.5v447q-35 7 -80 22v22h234v-22q-55 -19 -80 -25v-428q0 -113 -76.5 -174t-226.5 -61q-159 0 -241.5 58z" />
    <glyph glyph-name="Uogonek" unicode="&#x172;" horiz-adv-x="823" 
d="M805 700v-22q-55 -19 -80 -25v-428q0 -94 -52.5 -152t-156.5 -76q-16 -15 -28.5 -37.5t-12.5 -41.5q0 -22 17 -37t45 -15q35 0 75 25v-77q-20 -15 -55.5 -23.5t-75.5 -8.5q-72 0 -112 25t-40 71q0 31 20 63t55 49q-150 3 -228 61.5t-78 173.5v430q-32 7 -80 23v22h359
v-25l-79 -22v-444q0 -84 49.5 -120.5t124.5 -36.5t127 37.5t52 119.5v447q-35 7 -80 22v22h234z" />
    <glyph glyph-name="Uring" unicode="&#x16e;" horiz-adv-x="823" 
d="M326.5 816.5q-32.5 30.5 -32.5 80.5t32.5 80.5t86.5 30.5t86.5 -30.5t32.5 -80.5t-32.5 -80.5t-86.5 -30.5t-86.5 30.5zM455 856q17 16 17 41t-17 41t-42 16t-42 -16t-17 -41t17 -41t42 -16t42 16zM180.5 48q-82.5 58 -82.5 177v430q-32 7 -80 23v22h359v-25l-79 -22
v-444q0 -84 49.5 -120.5t124.5 -36.5t127 37.5t52 119.5v447q-35 7 -80 22v22h234v-22q-55 -19 -80 -25v-428q0 -113 -76.5 -174t-226.5 -61q-159 0 -241.5 58z" />
    <glyph glyph-name="Utilde" unicode="&#x168;" horiz-adv-x="823" 
d="M235 881.5q35 32.5 94 32.5q31 0 55 -8.5t51 -22.5q14 -7 28 -13t25 -6q21 0 34.5 9.5t20.5 41.5h93q-6 -60 -39 -94.5t-98 -34.5q-25 0 -49.5 8t-56.5 23l-33 13t-25 6q-21 0 -34 -13t-17 -37h-93q9 63 44 95.5zM180.5 48q-82.5 58 -82.5 177v430q-32 7 -80 23v22h359
v-25l-79 -22v-444q0 -84 49.5 -120.5t124.5 -36.5t127 37.5t52 119.5v447q-35 7 -80 22v22h234v-22q-55 -19 -80 -25v-428q0 -113 -76.5 -174t-226.5 -61q-159 0 -241.5 58z" />
    <glyph glyph-name="V" unicode="V" horiz-adv-x="829" 
d="M93 654q-39 10 -79 24v22h351v-25q-57 -19 -79 -23l174 -486l178 488q-24 4 -50 14t-32 12v20h259v-26q-42 -14 -80 -23l-248 -651h-145z" />
    <glyph glyph-name="W" unicode="W" horiz-adv-x="1069" 
d="M87 654q-23 5 -44.5 13.5t-28.5 11.5v21h348v-23q-16 -7 -44 -15t-39 -10l93 -434l161 459h79l178 -546l121 531q-43 6 -71 15v23h215v-18q-11 -7 -30 -13t-31 -8l-162 -661h-172l-133 399l-139 -399h-145z" />
    <glyph glyph-name="Wacute" unicode="&#x1e82;" horiz-adv-x="1069" 
d="M480 830l127 139q11 13 30.5 27.5t45.5 14.5q30 0 45.5 -16t15.5 -35q0 -21 -15 -38.5t-46 -35.5l-172 -100zM87 654q-23 5 -44.5 13.5t-28.5 11.5v21h348v-23q-16 -7 -44 -15t-39 -10l93 -434l161 459h79l178 -546l121 531q-43 6 -71 15v23h215v-18q-11 -7 -30 -13
t-31 -8l-162 -661h-172l-133 399l-139 -399h-145z" />
    <glyph glyph-name="Wcircumflex" unicode="&#x174;" horiz-adv-x="1069" 
d="M355 841q35 22 95 76.5t76 79.5h91q16 -25 76 -79.5t95 -76.5l-79 -55q-35 28 -77.5 72t-58.5 70h-3q-16 -26 -58.5 -70t-77.5 -72zM87 654q-23 5 -44.5 13.5t-28.5 11.5v21h348v-23q-16 -7 -44 -15t-39 -10l93 -434l161 459h79l178 -546l121 531q-43 6 -71 15v23h215
v-18q-11 -7 -30 -13t-31 -8l-162 -661h-172l-133 399l-139 -399h-145z" />
    <glyph glyph-name="Wdieresis" unicode="&#x1e84;" horiz-adv-x="1069" 
d="M389.5 806.5q-19.5 20.5 -19.5 51.5t19.5 52t52.5 21t53 -21t20 -52t-20 -51.5t-53 -20.5t-52.5 20.5zM642.5 806.5q-19.5 20.5 -19.5 51.5t19.5 52t52.5 21t53 -21t20 -52t-20 -51.5t-53 -20.5t-52.5 20.5zM87 654q-23 5 -44.5 13.5t-28.5 11.5v21h348v-23
q-16 -7 -44 -15t-39 -10l93 -434l161 459h79l178 -546l121 531q-43 6 -71 15v23h215v-18q-11 -7 -30 -13t-31 -8l-162 -661h-172l-133 399l-139 -399h-145z" />
    <glyph glyph-name="Wgrave" unicode="&#x1e80;" horiz-adv-x="1069" 
d="M455 886q-31 18 -46 35.5t-15 38.5q0 19 15.5 35t45.5 16q26 0 45.5 -14t30.5 -28l127 -139l-31 -44zM87 654q-23 5 -44.5 13.5t-28.5 11.5v21h348v-23q-16 -7 -44 -15t-39 -10l93 -434l161 459h79l178 -546l121 531q-43 6 -71 15v23h215v-18q-11 -7 -30 -13t-31 -8
l-162 -661h-172l-133 399l-139 -399h-145z" />
    <glyph glyph-name="X" unicode="X" horiz-adv-x="724" 
d="M739 23v-23h-352v19q61 27 87 31l-144 219l-180 -226l67 -19v-24h-213v25l55 18l8 2l225 281l-214 326q-39 10 -78 25v23h352v-26q-67 -20 -86 -23l129 -197l162 202l-68 21v23h214v-20q-40 -18 -64 -24l-207 -260l228 -350q46 -12 79 -23z" />
    <glyph glyph-name="Y" unicode="Y" horiz-adv-x="796" 
d="M223 22q11 3 24 9q4 1 21.5 7.5t32.5 7.5v265l-205 341q-51 14 -82 25v23h357v-26q-70 -20 -85 -23l162 -266l170 272q-31 9 -66 21v22h230v-25q-32 -12 -62 -20l-219 -346v-264q16 -3 56 -15l24 -7v-23h-358v22z" />
    <glyph glyph-name="Yacute" unicode="&#xdd;" horiz-adv-x="796" 
d="M331 830l127 139q11 14 30.5 28t45.5 14q30 0 45.5 -16t15.5 -35q0 -21 -15 -38.5t-46 -35.5l-172 -100zM223 22q11 3 24 9q4 1 21.5 7.5t32.5 7.5v265l-205 341q-51 14 -82 25v23h357v-26q-70 -20 -85 -23l162 -266l170 272q-31 9 -66 21v22h230v-25q-32 -12 -62 -20
l-219 -346v-264q16 -3 56 -15l24 -7v-23h-358v22z" />
    <glyph glyph-name="Ycircumflex" unicode="&#x176;" horiz-adv-x="796" 
d="M181 841q35 22 95 76.5t76 79.5h91q16 -25 76 -79.5t95 -76.5l-79 -55q-35 28 -77.5 72t-58.5 70h-3q-16 -26 -58.5 -70t-77.5 -72zM223 22q11 3 24 9q4 1 21.5 7.5t32.5 7.5v265l-205 341q-51 14 -82 25v23h357v-26q-70 -20 -85 -23l162 -266l170 272q-31 9 -66 21v22
h230v-25q-32 -12 -62 -20l-219 -346v-264q16 -3 56 -15l24 -7v-23h-358v22z" />
    <glyph glyph-name="Ydieresis" unicode="&#x178;" horiz-adv-x="796" 
d="M262.5 806.5q-19.5 20.5 -19.5 51.5t19.5 52t52.5 21t53 -21t20 -52t-20 -51.5t-53 -20.5t-52.5 20.5zM515.5 806.5q-19.5 20.5 -19.5 51.5t19.5 52t52.5 21t53 -21t20 -52t-20 -51.5t-53 -20.5t-52.5 20.5zM223 22q11 3 24 9q4 1 21.5 7.5t32.5 7.5v265l-205 341
q-51 14 -82 25v23h357v-26q-70 -20 -85 -23l162 -266l170 272q-31 9 -66 21v22h230v-25q-32 -12 -62 -20l-219 -346v-264q16 -3 56 -15l24 -7v-23h-358v22z" />
    <glyph glyph-name="uni1E8E" unicode="&#x1e8e;" horiz-adv-x="796" 
d="M344.5 806.5q-19.5 20.5 -19.5 51.5t19.5 52t52.5 21t53 -21t20 -52t-20 -51.5t-53 -20.5t-52.5 20.5zM223 22q11 3 24 9q4 1 21.5 7.5t32.5 7.5v265l-205 341q-51 14 -82 25v23h357v-26q-70 -20 -85 -23l162 -266l170 272q-31 9 -66 21v22h230v-25q-32 -12 -62 -20
l-219 -346v-264q16 -3 56 -15l24 -7v-23h-358v22z" />
    <glyph glyph-name="uni1EF4" unicode="&#x1ef4;" horiz-adv-x="796" 
d="M223 22q11 3 24 9q4 1 21.5 7.5t32.5 7.5v265l-205 341q-51 14 -82 25v23h357v-26q-70 -20 -85 -23l162 -266l170 272q-31 9 -66 21v22h230v-25q-32 -12 -62 -20l-219 -346v-264q16 -3 56 -15l24 -7v-23h-358v22zM344.5 -174.5q-19.5 20.5 -19.5 51.5t19.5 52t52.5 21
t53 -21t20 -52t-20 -51.5t-53 -20.5t-52.5 20.5z" />
    <glyph glyph-name="Ygrave" unicode="&#x1ef2;" horiz-adv-x="796" 
d="M300 886q-31 18 -46 35.5t-15 38.5q0 19 15.5 35t45.5 16q26 0 45.5 -14.5t30.5 -27.5l127 -139l-31 -44zM223 22q11 3 24 9q4 1 21.5 7.5t32.5 7.5v265l-205 341q-51 14 -82 25v23h357v-26q-70 -20 -85 -23l162 -266l170 272q-31 9 -66 21v22h230v-25q-32 -12 -62 -20
l-219 -346v-264q16 -3 56 -15l24 -7v-23h-358v22z" />
    <glyph glyph-name="uni1EF6" unicode="&#x1ef6;" horiz-adv-x="796" 
d="M403 900h47q21 0 38.5 12t17.5 40q0 21 -17 36t-48 15q-36 0 -64 -16l-7 45q40 19 92 19q57 0 97 -24.5t40 -75.5q0 -47 -27.5 -67.5t-75.5 -24.5l-10 -73h-78zM223 22q11 3 24 9q4 1 21.5 7.5t32.5 7.5v265l-205 341q-51 14 -82 25v23h357v-26q-70 -20 -85 -23l162 -266
l170 272q-31 9 -66 21v22h230v-25q-32 -12 -62 -20l-219 -346v-264q16 -3 56 -15l24 -7v-23h-358v22z" />
    <glyph glyph-name="uni1EF8" unicode="&#x1ef8;" horiz-adv-x="796" 
d="M235 881.5q35 32.5 94 32.5q31 0 55 -8.5t51 -22.5q14 -7 28 -13t25 -6q21 0 34.5 9.5t20.5 41.5h93q-6 -60 -39 -94.5t-98 -34.5q-25 0 -49.5 8t-56.5 23l-33 13t-25 6q-21 0 -34 -13t-17 -37h-93q9 63 44 95.5zM223 22q11 3 24 9q4 1 21.5 7.5t32.5 7.5v265l-205 341
q-51 14 -82 25v23h357v-26q-70 -20 -85 -23l162 -266l170 272q-31 9 -66 21v22h230v-25q-32 -12 -62 -20l-219 -346v-264q16 -3 56 -15l24 -7v-23h-358v22z" />
    <glyph glyph-name="Z" unicode="Z" horiz-adv-x="645" 
d="M20 39l389 602h-272q-1 -25 -17.5 -72t-29.5 -66h-42v197h573v-22l-395 -619h298q2 28 22.5 73.5t36.5 63.5h42l-21 -196h-584v39z" />
    <glyph glyph-name="Zacute" unicode="&#x179;" horiz-adv-x="645" 
d="M258 830l127 139q11 13 30.5 27.5t45.5 14.5q30 0 45.5 -16t15.5 -35q0 -21 -15 -38.5t-46 -35.5l-172 -100zM20 39l389 602h-272q-1 -25 -17.5 -72t-29.5 -66h-42v197h573v-22l-395 -619h298q2 28 22.5 73.5t36.5 63.5h42l-21 -196h-584v39z" />
    <glyph glyph-name="Zcaron" unicode="&#x17d;" horiz-adv-x="645" 
d="M221 865.5q-60 54.5 -95 76.5l79 55q35 -28 77.5 -72t58.5 -70h3q16 26 58.5 70t77.5 72l79 -55q-35 -22 -95 -76.5t-76 -79.5h-91q-16 25 -76 79.5zM20 39l389 602h-272q-1 -25 -17.5 -72t-29.5 -66h-42v197h573v-22l-395 -619h298q2 28 22.5 73.5t36.5 63.5h42
l-21 -196h-584v39z" />
    <glyph glyph-name="Zdotaccent" unicode="&#x17b;" horiz-adv-x="645" 
d="M282.5 806.5q-19.5 20.5 -19.5 51.5t19.5 52t52.5 21t53 -21t20 -52t-20 -51.5t-53 -20.5t-52.5 20.5zM20 39l389 602h-272q-1 -25 -17.5 -72t-29.5 -66h-42v197h573v-22l-395 -619h298q2 28 22.5 73.5t36.5 63.5h42l-21 -196h-584v39z" />
    <glyph glyph-name="uni1E92" unicode="&#x1e92;" horiz-adv-x="645" 
d="M20 39l389 602h-272q-1 -25 -17.5 -72t-29.5 -66h-42v197h573v-22l-395 -619h298q2 28 22.5 73.5t36.5 63.5h42l-21 -196h-584v39zM269.5 -174.5q-19.5 20.5 -19.5 51.5t19.5 52t52.5 21t53 -21t20 -52t-20 -51.5t-53 -20.5t-52.5 20.5z" />
    <glyph glyph-name="a" unicode="a" horiz-adv-x="616" 
d="M57 27q-42 37 -42 113q0 81 59 117.5t159 36.5h112v61q0 95 -102 95q-40 0 -86.5 -13.5t-84.5 -31.5l-9 49q49 26 111 39.5t128 13.5q110 0 173.5 -39.5t63.5 -106.5v-309q33 -9 67 -20v-14l-261 -25v59q-22 -27 -61.5 -44.5t-85.5 -17.5q-99 0 -141 37zM313 65.5
q20 13.5 32 38.5v132h-68q-35 0 -52.5 -25.5t-17.5 -69.5q0 -89 66 -89q20 0 40 13.5z" />
    <glyph glyph-name="aacute" unicode="&#xe1;" horiz-adv-x="616" 
d="M204 628l127 139q11 14 30.5 28t45.5 14q30 0 45.5 -16t15.5 -35q0 -21 -15 -38.5t-46 -35.5l-172 -100zM57 27q-42 37 -42 113q0 81 59 117.5t159 36.5h112v61q0 95 -102 95q-40 0 -86.5 -13.5t-84.5 -31.5l-9 49q49 26 111 39.5t128 13.5q110 0 173.5 -39.5
t63.5 -106.5v-309q33 -9 67 -20v-14l-261 -25v59q-22 -27 -61.5 -44.5t-85.5 -17.5q-99 0 -141 37zM313 65.5q20 13.5 32 38.5v132h-68q-35 0 -52.5 -25.5t-17.5 -69.5q0 -89 66 -89q20 0 40 13.5z" />
    <glyph glyph-name="abreve" unicode="&#x103;" horiz-adv-x="616" 
d="M163.5 619q-51.5 35 -64.5 106h106q5 -48 29.5 -64t62.5 -16t62.5 16t29.5 64h106q-13 -71 -64.5 -106t-133.5 -35t-133.5 35zM57 27q-42 37 -42 113q0 81 59 117.5t159 36.5h112v61q0 95 -102 95q-40 0 -86.5 -13.5t-84.5 -31.5l-9 49q49 26 111 39.5t128 13.5
q110 0 173.5 -39.5t63.5 -106.5v-309q33 -9 67 -20v-14l-261 -25v59q-22 -27 -61.5 -44.5t-85.5 -17.5q-99 0 -141 37zM313 65.5q20 13.5 32 38.5v132h-68q-35 0 -52.5 -25.5t-17.5 -69.5q0 -89 66 -89q20 0 40 13.5z" />
    <glyph glyph-name="uni1EAF" unicode="&#x1eaf;" horiz-adv-x="616" 
d="M247 773l78 99q39 49 76 49q30 0 45.5 -17.5t15.5 -37.5q0 -41 -68 -74l-117 -57zM163.5 619q-51.5 35 -64.5 106h106q5 -48 29.5 -64t62.5 -16t62.5 16t29.5 64h106q-13 -71 -64.5 -106t-133.5 -35t-133.5 35zM57 27q-42 37 -42 113q0 81 59 117.5t159 36.5h112v61
q0 95 -102 95q-40 0 -86.5 -13.5t-84.5 -31.5l-9 49q49 26 111 39.5t128 13.5q110 0 173.5 -39.5t63.5 -106.5v-309q33 -9 67 -20v-14l-261 -25v59q-22 -27 -61.5 -44.5t-85.5 -17.5q-99 0 -141 37zM313 65.5q20 13.5 32 38.5v132h-68q-35 0 -52.5 -25.5t-17.5 -69.5
q0 -89 66 -89q20 0 40 13.5z" />
    <glyph glyph-name="uni1EB7" unicode="&#x1eb7;" horiz-adv-x="616" 
d="M163.5 619q-51.5 35 -64.5 106h106q5 -48 29.5 -64t62.5 -16t62.5 16t29.5 64h106q-13 -71 -64.5 -106t-133.5 -35t-133.5 35zM57 27q-42 37 -42 113q0 81 59 117.5t159 36.5h112v61q0 95 -102 95q-40 0 -86.5 -13.5t-84.5 -31.5l-9 49q49 26 111 39.5t128 13.5
q110 0 173.5 -39.5t63.5 -106.5v-309q33 -9 67 -20v-14l-261 -25v59q-22 -27 -61.5 -44.5t-85.5 -17.5q-99 0 -141 37zM313 65.5q20 13.5 32 38.5v132h-68q-35 0 -52.5 -25.5t-17.5 -69.5q0 -89 66 -89q20 0 40 13.5zM241.5 -174.5q-19.5 20.5 -19.5 51.5t19.5 52t52.5 21
t53 -21t20 -52t-20 -51.5t-53 -20.5t-52.5 20.5z" />
    <glyph glyph-name="uni1EB1" unicode="&#x1eb1;" horiz-adv-x="616" 
d="M201 792q-68 33 -68 74q0 20 15.5 37.5t45.5 17.5q37 0 76 -49l78 -99l-30 -38zM163.5 619q-51.5 35 -64.5 106h106q5 -48 29.5 -64t62.5 -16t62.5 16t29.5 64h106q-13 -71 -64.5 -106t-133.5 -35t-133.5 35zM57 27q-42 37 -42 113q0 81 59 117.5t159 36.5h112v61
q0 95 -102 95q-40 0 -86.5 -13.5t-84.5 -31.5l-9 49q49 26 111 39.5t128 13.5q110 0 173.5 -39.5t63.5 -106.5v-309q33 -9 67 -20v-14l-261 -25v59q-22 -27 -61.5 -44.5t-85.5 -17.5q-99 0 -141 37zM313 65.5q20 13.5 32 38.5v132h-68q-35 0 -52.5 -25.5t-17.5 -69.5
q0 -89 66 -89q20 0 40 13.5z" />
    <glyph glyph-name="uni1EB3" unicode="&#x1eb3;" horiz-adv-x="616" 
d="M258 840h41q18 0 33.5 11t15.5 36q0 19 -15 33t-42 14q-31 0 -56 -15l-6 42q34 17 80 17q50 0 85 -22.5t35 -69.5q0 -43 -24 -61.5t-66 -22.5l-9 -40h-68zM163.5 619q-51.5 35 -64.5 106h106q5 -48 29.5 -64t62.5 -16t62.5 16t29.5 64h106q-13 -71 -64.5 -106t-133.5 -35
t-133.5 35zM57 27q-42 37 -42 113q0 81 59 117.5t159 36.5h112v61q0 95 -102 95q-40 0 -86.5 -13.5t-84.5 -31.5l-9 49q49 26 111 39.5t128 13.5q110 0 173.5 -39.5t63.5 -106.5v-309q33 -9 67 -20v-14l-261 -25v59q-22 -27 -61.5 -44.5t-85.5 -17.5q-99 0 -141 37z
M313 65.5q20 13.5 32 38.5v132h-68q-35 0 -52.5 -25.5t-17.5 -69.5q0 -89 66 -89q20 0 40 13.5z" />
    <glyph glyph-name="uni1EB5" unicode="&#x1eb5;" horiz-adv-x="616" 
d="M135 875.5q34 31.5 90 31.5q31 0 52 -8t43 -22q27 -18 45 -18q58 0 70 49h64q-6 -58 -37.5 -90.5t-93.5 -32.5q-22 0 -40.5 7t-40.5 19q-23 11 -37 16.5t-30 5.5q-25 0 -42 -13t-21 -35h-64q8 59 42 90.5zM163.5 619q-51.5 35 -64.5 106h106q5 -48 29.5 -64t62.5 -16
t62.5 16t29.5 64h106q-13 -71 -64.5 -106t-133.5 -35t-133.5 35zM57 27q-42 37 -42 113q0 81 59 117.5t159 36.5h112v61q0 95 -102 95q-40 0 -86.5 -13.5t-84.5 -31.5l-9 49q49 26 111 39.5t128 13.5q110 0 173.5 -39.5t63.5 -106.5v-309q33 -9 67 -20v-14l-261 -25v59
q-22 -27 -61.5 -44.5t-85.5 -17.5q-99 0 -141 37zM313 65.5q20 13.5 32 38.5v132h-68q-35 0 -52.5 -25.5t-17.5 -69.5q0 -89 66 -89q20 0 40 13.5z" />
    <glyph glyph-name="uni01CE" unicode="&#x1ce;" horiz-adv-x="616" 
d="M186 663.5q-60 54.5 -95 76.5l79 55q35 -28 77.5 -72t58.5 -70h3q16 26 58.5 70t77.5 72l79 -55q-35 -22 -95 -76.5t-76 -79.5h-91q-16 25 -76 79.5zM57 27q-42 37 -42 113q0 81 59 117.5t159 36.5h112v61q0 95 -102 95q-40 0 -86.5 -13.5t-84.5 -31.5l-9 49
q49 26 111 39.5t128 13.5q110 0 173.5 -39.5t63.5 -106.5v-309q33 -9 67 -20v-14l-261 -25v59q-22 -27 -61.5 -44.5t-85.5 -17.5q-99 0 -141 37zM313 65.5q20 13.5 32 38.5v132h-68q-35 0 -52.5 -25.5t-17.5 -69.5q0 -89 66 -89q20 0 40 13.5z" />
    <glyph glyph-name="acircumflex" unicode="&#xe2;" horiz-adv-x="616" 
d="M84 639q35 22 95 76.5t76 79.5h91q16 -25 76 -79.5t95 -76.5l-79 -55q-35 28 -77.5 72t-58.5 70h-3q-16 -26 -58.5 -70t-77.5 -72zM57 27q-42 37 -42 113q0 81 59 117.5t159 36.5h112v61q0 95 -102 95q-40 0 -86.5 -13.5t-84.5 -31.5l-9 49q49 26 111 39.5t128 13.5
q110 0 173.5 -39.5t63.5 -106.5v-309q33 -9 67 -20v-14l-261 -25v59q-22 -27 -61.5 -44.5t-85.5 -17.5q-99 0 -141 37zM313 65.5q20 13.5 32 38.5v132h-68q-35 0 -52.5 -25.5t-17.5 -69.5q0 -89 66 -89q20 0 40 13.5z" />
    <glyph glyph-name="uni1EA5" unicode="&#x1ea5;" horiz-adv-x="616" 
d="M433 773l78 99q39 49 76 49q30 0 45.5 -17.5t15.5 -37.5q0 -41 -68 -74l-117 -57zM88 639q35 22 95 76.5t76 79.5h91q16 -25 76 -79.5t95 -76.5l-79 -55q-35 28 -77.5 72t-58.5 70h-3q-16 -26 -58.5 -70t-77.5 -72zM57 27q-42 37 -42 113q0 81 59 117.5t159 36.5h112v61
q0 95 -102 95q-40 0 -86.5 -13.5t-84.5 -31.5l-9 49q49 26 111 39.5t128 13.5q110 0 173.5 -39.5t63.5 -106.5v-309q33 -9 67 -20v-14l-261 -25v59q-22 -27 -61.5 -44.5t-85.5 -17.5q-99 0 -141 37zM313 65.5q20 13.5 32 38.5v132h-68q-35 0 -52.5 -25.5t-17.5 -69.5
q0 -89 66 -89q20 0 40 13.5z" />
    <glyph glyph-name="uni1EAD" unicode="&#x1ead;" horiz-adv-x="616" 
d="M88 639q35 22 95 76.5t76 79.5h91q16 -25 76 -79.5t95 -76.5l-79 -55q-35 28 -77.5 72t-58.5 70h-3q-16 -26 -58.5 -70t-77.5 -72zM57 27q-42 37 -42 113q0 81 59 117.5t159 36.5h112v61q0 95 -102 95q-40 0 -86.5 -13.5t-84.5 -31.5l-9 49q49 26 111 39.5t128 13.5
q110 0 173.5 -39.5t63.5 -106.5v-309q33 -9 67 -20v-14l-261 -25v59q-22 -27 -61.5 -44.5t-85.5 -17.5q-99 0 -141 37zM313 65.5q20 13.5 32 38.5v132h-68q-35 0 -52.5 -25.5t-17.5 -69.5q0 -89 66 -89q20 0 40 13.5zM252.5 -174.5q-19.5 20.5 -19.5 51.5t19.5 52t52.5 21
t53 -21t20 -52t-20 -51.5t-53 -20.5t-52.5 20.5z" />
    <glyph glyph-name="uni1EA7" unicode="&#x1ea7;" horiz-adv-x="616" 
d="M29 792q-68 33 -68 74q0 20 15.5 37.5t45.5 17.5q37 0 76 -49l78 -99l-30 -38zM88 639q35 22 95 76.5t76 79.5h91q16 -25 76 -79.5t95 -76.5l-79 -55q-35 28 -77.5 72t-58.5 70h-3q-16 -26 -58.5 -70t-77.5 -72zM57 27q-42 37 -42 113q0 81 59 117.5t159 36.5h112v61
q0 95 -102 95q-40 0 -86.5 -13.5t-84.5 -31.5l-9 49q49 26 111 39.5t128 13.5q110 0 173.5 -39.5t63.5 -106.5v-309q33 -9 67 -20v-14l-261 -25v59q-22 -27 -61.5 -44.5t-85.5 -17.5q-99 0 -141 37zM313 65.5q20 13.5 32 38.5v132h-68q-35 0 -52.5 -25.5t-17.5 -69.5
q0 -89 66 -89q20 0 40 13.5z" />
    <glyph glyph-name="uni1EA9" unicode="&#x1ea9;" horiz-adv-x="616" 
d="M434 840h41q18 0 33.5 11t15.5 36q0 19 -15 33t-42 14q-31 0 -56 -15l-6 42q34 17 80 17q50 0 85 -22.5t35 -69.5q0 -43 -24 -61.5t-66 -22.5l-9 -40h-68zM88 639q35 22 95 76.5t76 79.5h91q16 -25 76 -79.5t95 -76.5l-79 -55q-35 28 -77.5 72t-58.5 70h-3
q-16 -26 -58.5 -70t-77.5 -72zM57 27q-42 37 -42 113q0 81 59 117.5t159 36.5h112v61q0 95 -102 95q-40 0 -86.5 -13.5t-84.5 -31.5l-9 49q49 26 111 39.5t128 13.5q110 0 173.5 -39.5t63.5 -106.5v-309q33 -9 67 -20v-14l-261 -25v59q-22 -27 -61.5 -44.5t-85.5 -17.5
q-99 0 -141 37zM313 65.5q20 13.5 32 38.5v132h-68q-35 0 -52.5 -25.5t-17.5 -69.5q0 -89 66 -89q20 0 40 13.5z" />
    <glyph glyph-name="uni1EAB" unicode="&#x1eab;" horiz-adv-x="616" 
d="M158 928.5q34 31.5 90 31.5q31 0 52 -8t43 -22q27 -18 45 -18q58 0 70 49h64q-6 -58 -37.5 -90.5t-93.5 -32.5q-22 0 -40.5 7t-40.5 19q-23 11 -37 16.5t-30 5.5q-25 0 -42 -13t-21 -35h-64q8 59 42 90.5zM88 639q35 22 95 76.5t76 79.5h91q16 -25 76 -79.5t95 -76.5
l-79 -55q-35 28 -77.5 72t-58.5 70h-3q-16 -26 -58.5 -70t-77.5 -72zM57 27q-42 37 -42 113q0 81 59 117.5t159 36.5h112v61q0 95 -102 95q-40 0 -86.5 -13.5t-84.5 -31.5l-9 49q49 26 111 39.5t128 13.5q110 0 173.5 -39.5t63.5 -106.5v-309q33 -9 67 -20v-14l-261 -25v59
q-22 -27 -61.5 -44.5t-85.5 -17.5q-99 0 -141 37zM313 65.5q20 13.5 32 38.5v132h-68q-35 0 -52.5 -25.5t-17.5 -69.5q0 -89 66 -89q20 0 40 13.5z" />
    <glyph glyph-name="adieresis" unicode="&#xe4;" horiz-adv-x="616" 
d="M115.5 604.5q-19.5 20.5 -19.5 51.5t19.5 52t52.5 21t53 -21t20 -52t-20 -51.5t-53 -20.5t-52.5 20.5zM368.5 604.5q-19.5 20.5 -19.5 51.5t19.5 52t52.5 21t53 -21t20 -52t-20 -51.5t-53 -20.5t-52.5 20.5zM57 27q-42 37 -42 113q0 81 59 117.5t159 36.5h112v61
q0 95 -102 95q-40 0 -86.5 -13.5t-84.5 -31.5l-9 49q49 26 111 39.5t128 13.5q110 0 173.5 -39.5t63.5 -106.5v-309q33 -9 67 -20v-14l-261 -25v59q-22 -27 -61.5 -44.5t-85.5 -17.5q-99 0 -141 37zM313 65.5q20 13.5 32 38.5v132h-68q-35 0 -52.5 -25.5t-17.5 -69.5
q0 -89 66 -89q20 0 40 13.5z" />
    <glyph glyph-name="uni1EA1" unicode="&#x1ea1;" horiz-adv-x="616" 
d="M74 257.5q59 36.5 159 36.5h112v61q0 95 -102 95q-40 0 -86.5 -13.5t-84.5 -31.5l-9 49q49 26 111 39.5t128 13.5q110 0 173.5 -39.5t63.5 -106.5v-309q33 -9 67 -20v-14l-261 -25v59q-22 -27 -61.5 -44.5t-85.5 -17.5q-99 0 -141 37t-42 113q0 81 59 117.5zM273 52
q20 0 40 13.5t32 38.5v132h-68q-35 0 -52.5 -25.5t-17.5 -69.5q0 -89 66 -89zM254.5 -71q19.5 21 52.5 21t53 -21t20 -52t-20 -51.5t-53 -20.5t-52.5 20.5t-19.5 51.5t19.5 52z" />
    <glyph glyph-name="agrave" unicode="&#xe0;" horiz-adv-x="616" 
d="M220 684q-31 18 -46 35.5t-15 38.5q0 19 15.5 35t45.5 16q26 0 45.5 -14.5t30.5 -27.5l127 -139l-31 -44zM57 27q-42 37 -42 113q0 81 59 117.5t159 36.5h112v61q0 95 -102 95q-40 0 -86.5 -13.5t-84.5 -31.5l-9 49q49 26 111 39.5t128 13.5q110 0 173.5 -39.5
t63.5 -106.5v-309q33 -9 67 -20v-14l-261 -25v59q-22 -27 -61.5 -44.5t-85.5 -17.5q-99 0 -141 37zM313 65.5q20 13.5 32 38.5v132h-68q-35 0 -52.5 -25.5t-17.5 -69.5q0 -89 66 -89q20 0 40 13.5z" />
    <glyph glyph-name="uni1EA3" unicode="&#x1ea3;" horiz-adv-x="616" 
d="M260 698h47q21 0 38.5 12t17.5 40q0 21 -17 36t-48 15q-36 0 -64 -16l-7 45q40 19 92 19q57 0 97 -24.5t40 -75.5q0 -47 -27.5 -67.5t-75.5 -24.5l-10 -73h-78zM57 27q-42 37 -42 113q0 81 59 117.5t159 36.5h112v61q0 95 -102 95q-40 0 -86.5 -13.5t-84.5 -31.5l-9 49
q49 26 111 39.5t128 13.5q110 0 173.5 -39.5t63.5 -106.5v-309q33 -9 67 -20v-14l-261 -25v59q-22 -27 -61.5 -44.5t-85.5 -17.5q-99 0 -141 37zM313 65.5q20 13.5 32 38.5v132h-68q-35 0 -52.5 -25.5t-17.5 -69.5q0 -89 66 -89q20 0 40 13.5z" />
    <glyph glyph-name="uni0251" unicode="&#x251;" horiz-adv-x="674" 
d="M77 57.5q-57 67.5 -57 200.5q0 86 44 142t114 81.5t151 25.5q84 0 159.5 -25.5t108.5 -63.5v-366q33 -9 67 -20v-14l-261 -25v59q-18 -28 -64 -45t-79 -17q-126 0 -183 67.5zM378.5 86.5q24.5 38.5 24.5 90.5v241q-32 31 -78 31q-55 0 -83.5 -49.5t-28.5 -143.5
t23.5 -151t75.5 -57q42 0 66.5 38.5z" />
    <glyph glyph-name="amacron" unicode="&#x101;" horiz-adv-x="616" 
d="M81 641h428v-57h-428v57zM57 27q-42 37 -42 113q0 81 59 117.5t159 36.5h112v61q0 95 -102 95q-40 0 -86.5 -13.5t-84.5 -31.5l-9 49q49 26 111 39.5t128 13.5q110 0 173.5 -39.5t63.5 -106.5v-309q33 -9 67 -20v-14l-261 -25v59q-22 -27 -61.5 -44.5t-85.5 -17.5
q-99 0 -141 37zM313 65.5q20 13.5 32 38.5v132h-68q-35 0 -52.5 -25.5t-17.5 -69.5q0 -89 66 -89q20 0 40 13.5z" />
    <glyph glyph-name="aogonek" unicode="&#x105;" horiz-adv-x="616" 
d="M629 -95v-77q-20 -15 -55.5 -23.5t-75.5 -8.5q-72 0 -112 25t-40 71q0 29 17.5 59t49.5 48l-68 -6v59q-22 -27 -61.5 -44.5t-85.5 -17.5q-99 0 -141 37t-42 113q0 81 59 117.5t159 36.5h112v61q0 95 -102 95q-40 0 -86.5 -13.5t-84.5 -31.5l-9 49q49 26 111 39.5
t128 13.5q110 0 173.5 -39.5t63.5 -106.5v-309q33 -9 67 -20v-14l-73 -7q-16 -15 -28.5 -37.5t-12.5 -41.5q0 -22 17 -37t45 -15q35 0 75 25zM345 236h-68q-35 0 -52.5 -25.5t-17.5 -69.5q0 -89 66 -89q20 0 40 13.5t32 38.5v132z" />
    <glyph glyph-name="aring" unicode="&#xe5;" horiz-adv-x="616" 
d="M222.5 614.5q-32.5 30.5 -32.5 80.5t32.5 80.5t86.5 30.5t86.5 -30.5t32.5 -80.5t-32.5 -80.5t-86.5 -30.5t-86.5 30.5zM351 654q17 16 17 41t-17 41t-42 16t-42 -16t-17 -41t17 -41t42 -16t42 16zM57 27q-42 37 -42 113q0 81 59 117.5t159 36.5h112v61q0 95 -102 95
q-40 0 -86.5 -13.5t-84.5 -31.5l-9 49q49 26 111 39.5t128 13.5q110 0 173.5 -39.5t63.5 -106.5v-309q33 -9 67 -20v-14l-261 -25v59q-22 -27 -61.5 -44.5t-85.5 -17.5q-99 0 -141 37zM313 65.5q20 13.5 32 38.5v132h-68q-35 0 -52.5 -25.5t-17.5 -69.5q0 -89 66 -89
q20 0 40 13.5z" />
    <glyph glyph-name="aringacute" unicode="&#x1fb;" horiz-adv-x="616" 
d="M176 864l127 139q11 14 30.5 28t45.5 14q30 0 45.5 -16t15.5 -35q0 -21 -15 -38.5t-46 -35.5l-172 -100zM222.5 614.5q-32.5 30.5 -32.5 80.5t32.5 80.5t86.5 30.5t86.5 -30.5t32.5 -80.5t-32.5 -80.5t-86.5 -30.5t-86.5 30.5zM351 654q17 16 17 41t-17 41t-42 16
t-42 -16t-17 -41t17 -41t42 -16t42 16zM57 27q-42 37 -42 113q0 81 59 117.5t159 36.5h112v61q0 95 -102 95q-40 0 -86.5 -13.5t-84.5 -31.5l-9 49q49 26 111 39.5t128 13.5q110 0 173.5 -39.5t63.5 -106.5v-309q33 -9 67 -20v-14l-261 -25v59q-22 -27 -61.5 -44.5
t-85.5 -17.5q-99 0 -141 37zM313 65.5q20 13.5 32 38.5v132h-68q-35 0 -52.5 -25.5t-17.5 -69.5q0 -89 66 -89q20 0 40 13.5z" />
    <glyph glyph-name="atilde" unicode="&#xe3;" horiz-adv-x="616" 
d="M120 679.5q35 32.5 94 32.5q31 0 55 -8.5t51 -22.5q14 -7 28 -13t25 -6q21 0 34.5 9.5t20.5 41.5h93q-6 -60 -39 -94.5t-98 -34.5q-24 0 -49 8t-57 23l-33 13t-25 6q-21 0 -34 -13t-17 -37h-93q9 63 44 95.5zM57 27q-42 37 -42 113q0 81 59 117.5t159 36.5h112v61
q0 95 -102 95q-40 0 -86.5 -13.5t-84.5 -31.5l-9 49q49 26 111 39.5t128 13.5q110 0 173.5 -39.5t63.5 -106.5v-309q33 -9 67 -20v-14l-261 -25v59q-22 -27 -61.5 -44.5t-85.5 -17.5q-99 0 -141 37zM313 65.5q20 13.5 32 38.5v132h-68q-35 0 -52.5 -25.5t-17.5 -69.5
q0 -89 66 -89q20 0 40 13.5z" />
    <glyph glyph-name="ae" unicode="&#xe6;" horiz-adv-x="937" 
d="M74 27q-59 37 -59 113q0 81 66.5 118.5t168.5 37.5h98q5 33 16 60q-3 47 -38.5 70.5t-82.5 23.5q-40 0 -86.5 -13.5t-84.5 -31.5l-9 49q49 26 111 39.5t128 13.5q104 0 167 -36q72 36 173 36q90 0 151 -31.5t90.5 -85t29.5 -118.5v-34h-375q4 -98 42.5 -145.5
t102.5 -47.5q42 0 94 15t91 44l18 -42q-38 -31 -97 -51.5t-132 -20.5q-70 0 -127 18t-98 51q-32 -32 -90.5 -50.5t-121.5 -18.5q-87 0 -146 37zM744 296q-4 64 -28 108.5t-75 44.5q-47 0 -73 -43.5t-28 -109.5h204zM343 64q32 12 55 29q-50 59 -53 145h-50q-36 0 -62 -28
t-26 -69q0 -47 20.5 -68t55.5 -21q28 0 60 12z" />
    <glyph glyph-name="aeacute" unicode="&#x1fd;" horiz-adv-x="937" 
d="M391 628l127 139q11 14 30.5 28t45.5 14q30 0 45.5 -16t15.5 -35q0 -21 -15 -38.5t-46 -35.5l-172 -100zM74 27q-59 37 -59 113q0 81 66.5 118.5t168.5 37.5h98q5 33 16 60q-3 47 -38.5 70.5t-82.5 23.5q-40 0 -86.5 -13.5t-84.5 -31.5l-9 49q49 26 111 39.5t128 13.5
q104 0 167 -36q72 36 173 36q90 0 151 -31.5t90.5 -85t29.5 -118.5v-34h-375q4 -98 42.5 -145.5t102.5 -47.5q42 0 94 15t91 44l18 -42q-38 -31 -97 -51.5t-132 -20.5q-70 0 -127 18t-98 51q-32 -32 -90.5 -50.5t-121.5 -18.5q-87 0 -146 37zM744 296q-4 64 -28 108.5
t-75 44.5q-47 0 -73 -43.5t-28 -109.5h204zM343 64q32 12 55 29q-50 59 -53 145h-50q-36 0 -62 -28t-26 -69q0 -47 20.5 -68t55.5 -21q28 0 60 12z" />
    <glyph glyph-name="b" unicode="b" horiz-adv-x="683" 
d="M292.5 14.5q-39.5 24.5 -53.5 54.5l-29 -69h-133v643q-33 9 -67 20v15l261 25v-237q52 41 144 41q64 0 118.5 -29.5t87 -85.5t32.5 -131q0 -139 -69.5 -205t-196.5 -66q-55 0 -94.5 24.5zM437.5 105q23.5 57 23.5 151q0 96 -24.5 144.5t-78.5 48.5q-25 0 -50.5 -14.5
t-36.5 -31.5v-230q0 -52 24.5 -88.5t66.5 -36.5q52 0 75.5 57z" />
    <glyph glyph-name="c" unicode="c" horiz-adv-x="581" 
d="M167.5 22q-67.5 32 -102.5 90.5t-35 135.5q0 82 38 140t107 88.5t160 30.5q130 0 221 -76l-11 -131h-41q-6 20 -10 50t-4 58q-27 21 -53 31.5t-56 10.5q-67 0 -111 -50t-44 -150q0 -86 36 -145.5t110 -59.5q41 0 89 15t82 44l18 -42q-37 -31 -98 -51.5t-135 -20.5
q-93 0 -160.5 32z" />
    <glyph glyph-name="cacute" unicode="&#x107;" horiz-adv-x="581" 
d="M230 628l127 139q11 14 30.5 28t45.5 14q30 0 45.5 -16t15.5 -35q0 -21 -15 -38.5t-46 -35.5l-172 -100zM167.5 22q-67.5 32 -102.5 90.5t-35 135.5q0 82 38 140t107 88.5t160 30.5q130 0 221 -76l-11 -131h-41q-6 20 -10 50t-4 58q-27 21 -53 31.5t-56 10.5
q-67 0 -111 -50t-44 -150q0 -86 36 -145.5t110 -59.5q41 0 89 15t82 44l18 -42q-37 -31 -98 -51.5t-135 -20.5q-93 0 -160.5 32z" />
    <glyph glyph-name="ccaron" unicode="&#x10d;" horiz-adv-x="581" 
d="M233 663.5q-60 54.5 -95 76.5l79 55q35 -28 77.5 -72t58.5 -70h3q16 26 58.5 70t77.5 72l79 -55q-35 -22 -95 -76.5t-76 -79.5h-91q-16 25 -76 79.5zM167.5 22q-67.5 32 -102.5 90.5t-35 135.5q0 82 38 140t107 88.5t160 30.5q130 0 221 -76l-11 -131h-41q-6 20 -10 50
t-4 58q-27 21 -53 31.5t-56 10.5q-67 0 -111 -50t-44 -150q0 -86 36 -145.5t110 -59.5q41 0 89 15t82 44l18 -42q-37 -31 -98 -51.5t-135 -20.5q-93 0 -160.5 32z" />
    <glyph glyph-name="ccedilla" unicode="&#xe7;" horiz-adv-x="581" 
d="M464 -91.5q26 -27.5 26 -62.5q0 -57 -46.5 -88.5t-115.5 -31.5q-35 0 -72 11t-63 29l29 46q16 -10 40 -16.5t49 -6.5q38 0 62 13t24 44q0 26 -21.5 36.5t-52.5 10.5q-15 0 -22 -1l-28 37l32 62q-130 6 -202.5 75t-72.5 182q0 82 38 140t107 88.5t160 30.5q130 0 221 -76
l-11 -131h-41q-6 20 -10 50t-4 58q-27 21 -53 31.5t-56 10.5q-67 0 -111 -50t-44 -150q0 -86 36 -145.5t110 -59.5q41 0 89 15t82 44l18 -42q-29 -24 -74 -42.5t-100 -25.5l-26 -51l21 -1q56 -6 82 -33.5z" />
    <glyph glyph-name="ccircumflex" unicode="&#x109;" horiz-adv-x="581" 
d="M129 639q35 22 95 76.5t76 79.5h91q16 -25 76 -79.5t95 -76.5l-79 -55q-35 28 -77.5 72t-58.5 70h-3q-16 -26 -58.5 -70t-77.5 -72zM167.5 22q-67.5 32 -102.5 90.5t-35 135.5q0 82 38 140t107 88.5t160 30.5q130 0 221 -76l-11 -131h-41q-6 20 -10 50t-4 58
q-27 21 -53 31.5t-56 10.5q-67 0 -111 -50t-44 -150q0 -86 36 -145.5t110 -59.5q41 0 89 15t82 44l18 -42q-37 -31 -98 -51.5t-135 -20.5q-93 0 -160.5 32z" />
    <glyph glyph-name="cdotaccent" unicode="&#x10b;" horiz-adv-x="581" 
d="M293.5 604.5q-19.5 20.5 -19.5 51.5t19.5 52t52.5 21t53 -21t20 -52t-20 -51.5t-53 -20.5t-52.5 20.5zM167.5 22q-67.5 32 -102.5 90.5t-35 135.5q0 82 38 140t107 88.5t160 30.5q130 0 221 -76l-11 -131h-41q-6 20 -10 50t-4 58q-27 21 -53 31.5t-56 10.5
q-67 0 -111 -50t-44 -150q0 -86 36 -145.5t110 -59.5q41 0 89 15t82 44l18 -42q-37 -31 -98 -51.5t-135 -20.5q-93 0 -160.5 32z" />
    <glyph glyph-name="d" unicode="d" horiz-adv-x="684" 
d="M443 80q-56 -90 -179 -90q-112 0 -173 58.5t-61 177.5q0 81 28.5 144.5t87.5 100t146 36.5q77 0 121 -38v174q-29 8 -66 20v15l260 25v-651q38 -10 67 -20v-12l-224 -31zM365 61.5q21 13.5 34.5 41.5t13.5 68v234q-20 22 -45 33t-48 11q-58 0 -76.5 -69.5t-18.5 -153.5
q0 -178 97 -178q22 0 43 13.5z" />
    <glyph glyph-name="eth" unicode="&#xf0;" horiz-adv-x="636" 
d="M564 473.5q52 -94.5 52 -182.5q0 -143 -76 -222t-231 -79q-94 0 -159 35t-97.5 94t-32.5 129q0 64 29 121.5t95 95t170 37.5q19 0 48 -3t44 -8q-26 53 -78 106l-188 -105l-28 81l147 84q-58 42 -112 65l49 59q77 -30 146 -76l152 90l51 -77l-126 -71q93 -79 145 -173.5z
M393 111.5q30 63.5 30 157.5q0 46 -13.5 86t-37.5 64.5t-54 24.5q-46 0 -75 -55t-29 -141q0 -83 26 -141.5t71 -58.5q52 0 82 63.5z" />
    <glyph glyph-name="dcaron" unicode="&#x10f;" horiz-adv-x="842" 
d="M657 425q68 65 78 117q-33 4 -56.5 28t-23.5 55q0 36 25 57.5t61 21.5q44 0 68 -24.5t24 -60.5q0 -65 -33 -129.5t-84 -108.5zM443 80q-56 -90 -179 -90q-112 0 -173 58.5t-61 177.5q0 81 28.5 144.5t87.5 100t146 36.5q77 0 121 -38v174q-29 8 -66 20v15l260 25v-651
q38 -10 67 -20v-12l-224 -31zM365 61.5q21 13.5 34.5 41.5t13.5 68v234q-20 22 -45 33t-48 11q-58 0 -76.5 -69.5t-18.5 -153.5q0 -178 97 -178q22 0 43 13.5z" />
    <glyph glyph-name="dcroat" unicode="&#x111;" horiz-adv-x="684" 
d="M443 80q-56 -90 -179 -90q-112 0 -173 58.5t-61 177.5q0 81 28.5 144.5t87.5 100t146 36.5q77 0 121 -38v77h-154v59h154v38q-29 8 -66 20v15l260 25v-98h47v-59h-47v-494q38 -10 67 -20v-12l-224 -31zM365 61.5q21 13.5 34.5 41.5t13.5 68v234q-20 22 -45 33t-48 11
q-58 0 -76.5 -69.5t-18.5 -153.5q0 -178 97 -178q22 0 43 13.5z" />
    <glyph glyph-name="uni1E0D" unicode="&#x1e0d;" horiz-adv-x="684" 
d="M58.5 370.5q28.5 63.5 87.5 100t146 36.5q77 0 121 -38v174q-29 8 -66 20v15l260 25v-651q38 -10 67 -20v-12l-224 -31l-7 91q-56 -90 -179 -90q-112 0 -173 58.5t-61 177.5q0 81 28.5 144.5zM322 48q22 0 43 13.5t34.5 41.5t13.5 68v234q-20 22 -45 33t-48 11
q-58 0 -76.5 -69.5t-18.5 -153.5q0 -178 97 -178zM288.5 -71q19.5 21 52.5 21t53 -21t20 -52t-20 -51.5t-53 -20.5t-52.5 20.5t-19.5 51.5t19.5 52z" />
    <glyph glyph-name="uni1E0F" unicode="&#x1e0f;" horiz-adv-x="684" 
d="M58.5 370.5q28.5 63.5 87.5 100t146 36.5q77 0 121 -38v174q-29 8 -66 20v15l260 25v-651q38 -10 67 -20v-12l-224 -31l-7 91q-56 -90 -179 -90q-112 0 -173 58.5t-61 177.5q0 81 28.5 144.5zM322 48q22 0 43 13.5t34.5 41.5t13.5 68v234q-20 22 -45 33t-48 11
q-58 0 -76.5 -69.5t-18.5 -153.5q0 -178 97 -178zM128 -55h428v-57h-428v57z" />
    <glyph glyph-name="e" unicode="e" horiz-adv-x="616" 
d="M592 233h-372q3 -81 37.5 -134.5t104.5 -53.5q42 0 94 15t91 44l18 -42q-36 -30 -102 -51t-141 -21q-93 0 -160.5 32t-102.5 90.5t-35 135.5q0 124 78.5 191.5t220.5 67.5q90 0 150.5 -32.5t89.5 -87t29 -120.5v-34zM423 291q0 33 -9.5 69.5t-32.5 62.5t-59 26
q-42 0 -67.5 -45t-32.5 -113h201z" />
    <glyph glyph-name="eacute" unicode="&#xe9;" horiz-adv-x="616" 
d="M256 584l-31 44l127 139q11 14 30.5 28t45.5 14q30 0 45.5 -16t15.5 -35q0 -21 -15 -38.5t-46 -35.5zM592 233h-372q3 -81 37.5 -134.5t104.5 -53.5q42 0 94 15t91 44l18 -42q-36 -30 -102 -51t-141 -21q-93 0 -160.5 32t-102.5 90.5t-35 135.5q0 124 78.5 191.5
t220.5 67.5q90 0 150.5 -32.5t89.5 -87t29 -120.5v-34zM423 291q0 33 -9.5 69.5t-32.5 62.5t-59 26q-42 0 -67.5 -45t-32.5 -113h201z" />
    <glyph glyph-name="ebreve" unicode="&#x115;" horiz-adv-x="616" 
d="M174.5 619q-51.5 35 -64.5 106h106q5 -48 29.5 -64t62.5 -16t62.5 16t29.5 64h106q-13 -71 -64.5 -106t-133.5 -35t-133.5 35zM592 233h-372q3 -81 37.5 -134.5t104.5 -53.5q42 0 94 15t91 44l18 -42q-36 -30 -102 -51t-141 -21q-93 0 -160.5 32t-102.5 90.5t-35 135.5
q0 124 78.5 191.5t220.5 67.5q90 0 150.5 -32.5t89.5 -87t29 -120.5v-34zM423 291q0 33 -9.5 69.5t-32.5 62.5t-59 26q-42 0 -67.5 -45t-32.5 -113h201z" />
    <glyph glyph-name="ecaron" unicode="&#x11b;" horiz-adv-x="616" 
d="M207 663.5q-60 54.5 -95 76.5l79 55q35 -28 77.5 -72t58.5 -70h3q16 26 58.5 70t77.5 72l79 -55q-35 -22 -95 -76.5t-76 -79.5h-91q-16 25 -76 79.5zM592 233h-372q3 -81 37.5 -134.5t104.5 -53.5q42 0 94 15t91 44l18 -42q-36 -30 -102 -51t-141 -21q-93 0 -160.5 32
t-102.5 90.5t-35 135.5q0 124 78.5 191.5t220.5 67.5q90 0 150.5 -32.5t89.5 -87t29 -120.5v-34zM423 291q0 33 -9.5 69.5t-32.5 62.5t-59 26q-42 0 -67.5 -45t-32.5 -113h201z" />
    <glyph glyph-name="ecircumflex" unicode="&#xea;" horiz-adv-x="616" 
d="M265.5 656q-42.5 -44 -77.5 -72l-79 55q35 22 95 76.5t76 79.5h91q16 -25 76 -79.5t95 -76.5l-79 -55q-35 28 -77.5 72t-58.5 70h-3q-16 -26 -58.5 -70zM592 233h-372q3 -81 37.5 -134.5t104.5 -53.5q42 0 94 15t91 44l18 -42q-36 -30 -102 -51t-141 -21q-93 0 -160.5 32
t-102.5 90.5t-35 135.5q0 124 78.5 191.5t220.5 67.5q90 0 150.5 -32.5t89.5 -87t29 -120.5v-34zM423 291q0 33 -9.5 69.5t-32.5 62.5t-59 26q-42 0 -67.5 -45t-32.5 -113h201z" />
    <glyph glyph-name="uni1EBF" unicode="&#x1ebf;" horiz-adv-x="616" 
d="M653.5 903.5q15.5 -17.5 15.5 -37.5q0 -41 -68 -74l-117 -57l-30 38l78 99q39 49 76 49q30 0 45.5 -17.5zM265.5 656q-42.5 -44 -77.5 -72l-79 55q35 22 95 76.5t76 79.5h91q16 -25 76 -79.5t95 -76.5l-79 -55q-35 28 -77.5 72t-58.5 70h-3q-16 -26 -58.5 -70z
M473.5 474.5q60.5 -32.5 89.5 -87t29 -120.5v-34h-372q3 -81 37.5 -134.5t104.5 -53.5q42 0 94 15t91 44l18 -42q-36 -30 -102 -51t-141 -21q-93 0 -160.5 32t-102.5 90.5t-35 135.5q0 124 78.5 191.5t220.5 67.5q90 0 150.5 -32.5zM423 291q0 33 -9.5 69.5t-32.5 62.5
t-59 26q-42 0 -67.5 -45t-32.5 -113h201z" />
    <glyph glyph-name="uni1EC7" unicode="&#x1ec7;" horiz-adv-x="616" 
d="M265.5 656q-42.5 -44 -77.5 -72l-79 55q35 22 95 76.5t76 79.5h91q16 -25 76 -79.5t95 -76.5l-79 -55q-35 28 -77.5 72t-58.5 70h-3q-16 -26 -58.5 -70zM592 233h-372q3 -81 37.5 -134.5t104.5 -53.5q42 0 94 15t91 44l18 -42q-36 -30 -102 -51t-141 -21q-93 0 -160.5 32
t-102.5 90.5t-35 135.5q0 124 78.5 191.5t220.5 67.5q90 0 150.5 -32.5t89.5 -87t29 -120.5v-34zM423 291q0 33 -9.5 69.5t-32.5 62.5t-59 26q-42 0 -67.5 -45t-32.5 -113h201zM380 -71q20 -21 20 -52t-20 -51.5t-53 -20.5t-52.5 20.5t-19.5 51.5t19.5 52t52.5 21t53 -21z
" />
    <glyph glyph-name="uni1EC1" unicode="&#x1ec1;" horiz-adv-x="616" 
d="M50 792q-68 33 -68 74q0 20 15.5 37.5t45.5 17.5q37 0 76 -49l78 -99l-30 -38zM109 639q35 22 95 76.5t76 79.5h91q16 -25 76 -79.5t95 -76.5l-79 -55q-35 28 -77.5 72t-58.5 70h-3q-16 -26 -58.5 -70t-77.5 -72zM592 233h-372q3 -81 37.5 -134.5t104.5 -53.5q42 0 94 15
t91 44l18 -42q-36 -30 -102 -51t-141 -21q-93 0 -160.5 32t-102.5 90.5t-35 135.5q0 124 78.5 191.5t220.5 67.5q90 0 150.5 -32.5t89.5 -87t29 -120.5v-34zM423 291q0 33 -9.5 69.5t-32.5 62.5t-59 26q-42 0 -67.5 -45t-32.5 -113h201z" />
    <glyph glyph-name="uni1EC3" unicode="&#x1ec3;" horiz-adv-x="616" 
d="M591 955.5q35 -22.5 35 -69.5q0 -43 -24 -61.5t-66 -22.5l-9 -40h-68l-4 78h41q18 0 33.5 11t15.5 36q0 19 -15 33t-42 14q-31 0 -56 -15l-6 42q34 17 80 17q50 0 85 -22.5zM265.5 656q-42.5 -44 -77.5 -72l-79 55q35 22 95 76.5t76 79.5h91q16 -25 76 -79.5t95 -76.5
l-79 -55q-35 28 -77.5 72t-58.5 70h-3q-16 -26 -58.5 -70zM473.5 474.5q60.5 -32.5 89.5 -87t29 -120.5v-34h-372q3 -81 37.5 -134.5t104.5 -53.5q42 0 94 15t91 44l18 -42q-36 -30 -102 -51t-141 -21q-93 0 -160.5 32t-102.5 90.5t-35 135.5q0 124 78.5 191.5t220.5 67.5
q90 0 150.5 -32.5zM423 291q0 33 -9.5 69.5t-32.5 62.5t-59 26q-42 0 -67.5 -45t-32.5 -113h201z" />
    <glyph glyph-name="uni1EC5" unicode="&#x1ec5;" horiz-adv-x="616" 
d="M222 873q-17 -13 -21 -35h-64q8 59 42 90.5t90 31.5q31 0 52 -8t43 -22q27 -18 45 -18q58 0 70 49h64q-6 -58 -37.5 -90.5t-93.5 -32.5q-22 0 -40.5 7t-40.5 19q-23 11 -37 16.5t-30 5.5q-25 0 -42 -13zM265.5 656q-42.5 -44 -77.5 -72l-79 55q35 22 95 76.5t76 79.5h91
q16 -25 76 -79.5t95 -76.5l-79 -55q-35 28 -77.5 72t-58.5 70h-3q-16 -26 -58.5 -70zM592 233h-372q3 -81 37.5 -134.5t104.5 -53.5q42 0 94 15t91 44l18 -42q-36 -30 -102 -51t-141 -21q-93 0 -160.5 32t-102.5 90.5t-35 135.5q0 124 78.5 191.5t220.5 67.5
q90 0 150.5 -32.5t89.5 -87t29 -120.5v-34zM423 291q0 33 -9.5 69.5t-32.5 62.5t-59 26q-42 0 -67.5 -45t-32.5 -113h201z" />
    <glyph glyph-name="edieresis" unicode="&#xeb;" horiz-adv-x="616" 
d="M148.5 604.5q-19.5 20.5 -19.5 51.5t19.5 52t52.5 21t53 -21t20 -52t-20 -51.5t-53 -20.5t-52.5 20.5zM401.5 604.5q-19.5 20.5 -19.5 51.5t19.5 52t52.5 21t53 -21t20 -52t-20 -51.5t-53 -20.5t-52.5 20.5zM592 233h-372q3 -81 37.5 -134.5t104.5 -53.5q42 0 94 15
t91 44l18 -42q-36 -30 -102 -51t-141 -21q-93 0 -160.5 32t-102.5 90.5t-35 135.5q0 124 78.5 191.5t220.5 67.5q90 0 150.5 -32.5t89.5 -87t29 -120.5v-34zM423 291q0 33 -9.5 69.5t-32.5 62.5t-59 26q-42 0 -67.5 -45t-32.5 -113h201z" />
    <glyph glyph-name="edotaccent" unicode="&#x117;" horiz-adv-x="616" 
d="M284.5 604.5q-19.5 20.5 -19.5 51.5t19.5 52t52.5 21t53 -21t20 -52t-20 -51.5t-53 -20.5t-52.5 20.5zM592 233h-372q3 -81 37.5 -134.5t104.5 -53.5q42 0 94 15t91 44l18 -42q-36 -30 -102 -51t-141 -21q-93 0 -160.5 32t-102.5 90.5t-35 135.5q0 124 78.5 191.5
t220.5 67.5q90 0 150.5 -32.5t89.5 -87t29 -120.5v-34zM423 291q0 33 -9.5 69.5t-32.5 62.5t-59 26q-42 0 -67.5 -45t-32.5 -113h201z" />
    <glyph glyph-name="uni1EB9" unicode="&#x1eb9;" horiz-adv-x="616" 
d="M592 233h-372q3 -81 37.5 -134.5t104.5 -53.5q42 0 94 15t91 44l18 -42q-36 -30 -102 -51t-141 -21q-93 0 -160.5 32t-102.5 90.5t-35 135.5q0 124 78.5 191.5t220.5 67.5q90 0 150.5 -32.5t89.5 -87t29 -120.5v-34zM423 291q0 33 -9.5 69.5t-32.5 62.5t-59 26
q-42 0 -67.5 -45t-32.5 -113h201zM360 -71q20 -21 20 -52t-20 -51.5t-53 -20.5t-52.5 20.5t-19.5 51.5t19.5 52t52.5 21t53 -21z" />
    <glyph glyph-name="egrave" unicode="&#xe8;" horiz-adv-x="616" 
d="M206 719.5q-15 17.5 -15 38.5q0 19 15.5 35t45.5 16q26 0 45.5 -14.5t30.5 -27.5l127 -139l-31 -44l-172 100q-31 18 -46 35.5zM592 233h-372q3 -81 37.5 -134.5t104.5 -53.5q42 0 94 15t91 44l18 -42q-36 -30 -102 -51t-141 -21q-93 0 -160.5 32t-102.5 90.5t-35 135.5
q0 124 78.5 191.5t220.5 67.5q90 0 150.5 -32.5t89.5 -87t29 -120.5v-34zM423 291q0 33 -9.5 69.5t-32.5 62.5t-59 26q-42 0 -67.5 -45t-32.5 -113h201z" />
    <glyph glyph-name="uni1EBB" unicode="&#x1ebb;" horiz-adv-x="616" 
d="M200 785l-7 45q40 19 92 19q57 0 97 -24.5t40 -75.5q0 -47 -27.5 -67.5t-75.5 -24.5l-10 -73h-78l-5 114h47q21 0 38.5 12t17.5 40q0 21 -17 36t-48 15q-36 0 -64 -16zM592 233h-372q3 -81 37.5 -134.5t104.5 -53.5q42 0 94 15t91 44l18 -42q-36 -30 -102 -51t-141 -21
q-93 0 -160.5 32t-102.5 90.5t-35 135.5q0 124 78.5 191.5t220.5 67.5q90 0 150.5 -32.5t89.5 -87t29 -120.5v-34zM423 291q0 33 -9.5 69.5t-32.5 62.5t-59 26q-42 0 -67.5 -45t-32.5 -113h201z" />
    <glyph glyph-name="emacron" unicode="&#x113;" horiz-adv-x="616" 
d="M532 584h-428v57h428v-57zM592 233h-372q3 -81 37.5 -134.5t104.5 -53.5q42 0 94 15t91 44l18 -42q-36 -30 -102 -51t-141 -21q-93 0 -160.5 32t-102.5 90.5t-35 135.5q0 124 78.5 191.5t220.5 67.5q90 0 150.5 -32.5t89.5 -87t29 -120.5v-34zM423 291q0 33 -9.5 69.5
t-32.5 62.5t-59 26q-42 0 -67.5 -45t-32.5 -113h201z" />
    <glyph glyph-name="eogonek" unicode="&#x119;" horiz-adv-x="616" 
d="M637 -62v-77q-20 -15 -55.5 -23.5t-75.5 -8.5q-72 0 -112 25t-40 71q0 35 24 68q-27 -3 -56 -3q-93 0 -160.5 32t-102.5 90.5t-35 135.5q0 124 78.5 191.5t220.5 67.5q90 0 150.5 -32.5t89.5 -87t29 -120.5v-34h-372q3 -81 37.5 -134.5t104.5 -53.5q42 0 94 15t91 44
l18 -42q-9 -7 -21 -15q-17 -15 -30.5 -38t-13.5 -44q0 -22 17 -37t45 -15q35 0 75 25zM254.5 404q-25.5 -45 -32.5 -113h201q0 33 -9.5 69.5t-32.5 62.5t-59 26q-42 0 -67.5 -45z" />
    <glyph glyph-name="uni1EBD" unicode="&#x1ebd;" horiz-adv-x="616" 
d="M195 621q-13 -13 -17 -37h-93q9 63 44 95.5t94 32.5q31 0 55 -8.5t51 -22.5q14 -7 28 -13t25 -6q21 0 34.5 9.5t20.5 41.5h93q-6 -60 -39 -94.5t-98 -34.5q-24 0 -49 8t-57 23l-33 13t-25 6q-21 0 -34 -13zM592 233h-372q3 -81 37.5 -134.5t104.5 -53.5q42 0 94 15t91 44
l18 -42q-36 -30 -102 -51t-141 -21q-93 0 -160.5 32t-102.5 90.5t-35 135.5q0 124 78.5 191.5t220.5 67.5q90 0 150.5 -32.5t89.5 -87t29 -120.5v-34zM423 291q0 33 -9.5 69.5t-32.5 62.5t-59 26q-42 0 -67.5 -45t-32.5 -113h201z" />
    <glyph glyph-name="f" unicode="f" horiz-adv-x="485" 
d="M330.5 636q-24.5 -29 -24.5 -82v-56h144v-57h-144v-397q49 -9 87 -22v-22h-359v24l78 22v395h-92v57h92v56q0 57 27.5 96t72.5 58t98 19q94 0 155 -23l-10 -50q-29 11 -65 11q-35 0 -59.5 -29z" />
    <glyph glyph-name="g" unicode="g" horiz-adv-x="599" 
d="M527.5 93q49.5 -39 49.5 -103q0 -76 -71 -115t-222 -39q-131 0 -190 30.5t-59 94.5q0 19 10 38t31 32q-26 27 -26 69q0 31 15.5 59t46.5 48q-82 43 -82 133q0 82 67 124.5t191 42.5q123 0 189 -42q15 32 15 60h117q-4 -40 -21.5 -70.5t-54.5 -53.5q12 -27 12 -61
q0 -82 -66.5 -124t-190.5 -42q-58 0 -105 9q-9 -9 -9 -25q0 -26 34 -26h193q77 0 126.5 -39zM239 418.5q-17 -30.5 -17 -78.5t17 -78.5t49 -30.5t48.5 30.5t16.5 78.5t-16.5 78.5t-48.5 30.5t-49 -30.5zM397.5 -97.5q44.5 16.5 44.5 54.5q0 23 -16 33t-47 10h-210
q-6 -12 -6 -29q0 -47 41 -66t95 -19t98.5 16.5z" />
    <glyph glyph-name="gbreve" unicode="&#x11f;" horiz-adv-x="599" 
d="M170.5 619q-51.5 35 -64.5 106h106q5 -48 29.5 -64t62.5 -16t62.5 16t29.5 64h106q-13 -71 -64.5 -106t-133.5 -35t-133.5 35zM527.5 93q49.5 -39 49.5 -103q0 -76 -71 -115t-222 -39q-131 0 -190 30.5t-59 94.5q0 19 10 38t31 32q-26 27 -26 69q0 31 15.5 59t46.5 48
q-82 43 -82 133q0 82 67 124.5t191 42.5q123 0 189 -42q15 32 15 60h117q-4 -40 -21.5 -70.5t-54.5 -53.5q12 -27 12 -61q0 -82 -66.5 -124t-190.5 -42q-58 0 -105 9q-9 -9 -9 -25q0 -26 34 -26h193q77 0 126.5 -39zM239 418.5q-17 -30.5 -17 -78.5t17 -78.5t49 -30.5
t48.5 30.5t16.5 78.5t-16.5 78.5t-48.5 30.5t-49 -30.5zM397.5 -97.5q44.5 16.5 44.5 54.5q0 23 -16 33t-47 10h-210q-6 -12 -6 -29q0 -47 41 -66t95 -19t98.5 16.5z" />
    <glyph glyph-name="gcaron" unicode="&#x1e7;" horiz-adv-x="599" 
d="M178 663.5q-60 54.5 -95 76.5l79 55q35 -28 77.5 -72t58.5 -70h3q16 26 58.5 70t77.5 72l79 -55q-35 -22 -95 -76.5t-76 -79.5h-91q-16 25 -76 79.5zM527.5 93q49.5 -39 49.5 -103q0 -76 -71 -115t-222 -39q-131 0 -190 30.5t-59 94.5q0 19 10 38t31 32q-26 27 -26 69
q0 31 15.5 59t46.5 48q-82 43 -82 133q0 82 67 124.5t191 42.5q123 0 189 -42q15 32 15 60h117q-4 -40 -21.5 -70.5t-54.5 -53.5q12 -27 12 -61q0 -82 -66.5 -124t-190.5 -42q-58 0 -105 9q-9 -9 -9 -25q0 -26 34 -26h193q77 0 126.5 -39zM239 418.5q-17 -30.5 -17 -78.5
t17 -78.5t49 -30.5t48.5 30.5t16.5 78.5t-16.5 78.5t-48.5 30.5t-49 -30.5zM397.5 -97.5q44.5 16.5 44.5 54.5q0 23 -16 33t-47 10h-210q-6 -12 -6 -29q0 -47 41 -66t95 -19t98.5 16.5z" />
    <glyph glyph-name="gcircumflex" unicode="&#x11d;" horiz-adv-x="599" 
d="M244.5 656q-42.5 -44 -77.5 -72l-79 55q35 22 95 76.5t76 79.5h91q16 -25 76 -79.5t95 -76.5l-79 -55q-35 28 -77.5 72t-58.5 70h-3q-16 -26 -58.5 -70zM527.5 93q49.5 -39 49.5 -103q0 -76 -71 -115t-222 -39q-131 0 -190 30.5t-59 94.5q0 19 10 38t31 32q-26 27 -26 69
q0 31 15.5 59t46.5 48q-82 43 -82 133q0 82 67 124.5t191 42.5q123 0 189 -42q15 32 15 60h117q-4 -40 -21.5 -70.5t-54.5 -53.5q12 -27 12 -61q0 -82 -66.5 -124t-190.5 -42q-58 0 -105 9q-9 -9 -9 -25q0 -26 34 -26h193q77 0 126.5 -39zM239 418.5q-17 -30.5 -17 -78.5
t17 -78.5t49 -30.5t48.5 30.5t16.5 78.5t-16.5 78.5t-48.5 30.5t-49 -30.5zM397.5 -97.5q44.5 16.5 44.5 54.5q0 23 -16 33t-47 10h-210q-6 -12 -6 -29q0 -47 41 -66t95 -19t98.5 16.5z" />
    <glyph glyph-name="gcommaaccent" unicode="&#x123;" horiz-adv-x="599" 
d="M237 601.5q-24 24.5 -24 60.5q0 65 33 129.5t84 108.5l59 -44q-68 -65 -78 -117q33 -4 56.5 -28t23.5 -55q0 -36 -25 -57.5t-61 -21.5q-44 0 -68 24.5zM527.5 93q49.5 -39 49.5 -103q0 -76 -71 -115t-222 -39q-131 0 -190 30.5t-59 94.5q0 19 10 38t31 32q-26 27 -26 69
q0 31 15.5 59t46.5 48q-82 43 -82 133q0 82 67 124.5t191 42.5q123 0 189 -42q15 32 15 60h117q-4 -40 -21.5 -70.5t-54.5 -53.5q12 -27 12 -61q0 -82 -66.5 -124t-190.5 -42q-58 0 -105 9q-9 -9 -9 -25q0 -26 34 -26h193q77 0 126.5 -39zM239 418.5q-17 -30.5 -17 -78.5
t17 -78.5t49 -30.5t48.5 30.5t16.5 78.5t-16.5 78.5t-48.5 30.5t-49 -30.5zM397.5 -97.5q44.5 16.5 44.5 54.5q0 23 -16 33t-47 10h-210q-6 -12 -6 -29q0 -47 41 -66t95 -19t98.5 16.5z" />
    <glyph glyph-name="gdotaccent" unicode="&#x121;" horiz-adv-x="599" 
d="M251.5 604.5q-19.5 20.5 -19.5 51.5t19.5 52t52.5 21t53 -21t20 -52t-20 -51.5t-53 -20.5t-52.5 20.5zM527.5 93q49.5 -39 49.5 -103q0 -76 -71 -115t-222 -39q-131 0 -190 30.5t-59 94.5q0 19 10 38t31 32q-26 27 -26 69q0 31 15.5 59t46.5 48q-82 43 -82 133
q0 82 67 124.5t191 42.5q123 0 189 -42q15 32 15 60h117q-4 -40 -21.5 -70.5t-54.5 -53.5q12 -27 12 -61q0 -82 -66.5 -124t-190.5 -42q-58 0 -105 9q-9 -9 -9 -25q0 -26 34 -26h193q77 0 126.5 -39zM239 418.5q-17 -30.5 -17 -78.5t17 -78.5t49 -30.5t48.5 30.5t16.5 78.5
t-16.5 78.5t-48.5 30.5t-49 -30.5zM397.5 -97.5q44.5 16.5 44.5 54.5q0 23 -16 33t-47 10h-210q-6 -12 -6 -29q0 -47 41 -66t95 -19t98.5 16.5z" />
    <glyph glyph-name="uni1E21" unicode="&#x1e21;" horiz-adv-x="599" 
d="M513 584h-428v57h428v-57zM527.5 93q49.5 -39 49.5 -103q0 -76 -71 -115t-222 -39q-131 0 -190 30.5t-59 94.5q0 19 10 38t31 32q-26 27 -26 69q0 31 15.5 59t46.5 48q-82 43 -82 133q0 82 67 124.5t191 42.5q123 0 189 -42q15 32 15 60h117q-4 -40 -21.5 -70.5
t-54.5 -53.5q12 -27 12 -61q0 -82 -66.5 -124t-190.5 -42q-58 0 -105 9q-9 -9 -9 -25q0 -26 34 -26h193q77 0 126.5 -39zM239 418.5q-17 -30.5 -17 -78.5t17 -78.5t49 -30.5t48.5 30.5t16.5 78.5t-16.5 78.5t-48.5 30.5t-49 -30.5zM397.5 -97.5q44.5 16.5 44.5 54.5
q0 23 -16 33t-47 10h-210q-6 -12 -6 -29q0 -47 41 -66t95 -19t98.5 16.5z" />
    <glyph glyph-name="h" unicode="h" horiz-adv-x="762" 
d="M742 22v-22h-339v21q46 20 67 24v317q0 50 -19.5 68.5t-54.5 18.5q-23 0 -51 -14t-55 -47v-344q25 -5 67 -22v-22h-337v21q13 6 36.5 14.5t39.5 9.5v598q-32 8 -66 21v14l260 25v-260q33 30 78 47t97 17q88 0 143.5 -37t55.5 -106v-320q26 -5 78 -22z" />
    <glyph glyph-name="hbar" unicode="&#x127;" horiz-adv-x="762" 
d="M742 22v-22h-339v21q46 20 67 24v317q0 50 -19.5 68.5t-54.5 18.5q-23 0 -51 -14t-55 -47v-344q25 -5 67 -22v-22h-337v21q13 6 36.5 14.5t39.5 9.5v497h-81v59h81v42q-32 8 -66 21v14l260 25v-102h120v-59h-120v-99q33 30 78 47t97 17q88 0 143.5 -37t55.5 -106v-320
q26 -5 78 -22z" />
    <glyph glyph-name="uni1E2B" unicode="&#x1e2b;" horiz-adv-x="762" 
d="M742 22v-22h-339v21q46 20 67 24v317q0 50 -19.5 68.5t-54.5 18.5q-23 0 -51 -14t-55 -47v-344q25 -5 67 -22v-22h-337v21q13 6 36.5 14.5t39.5 9.5v598q-32 8 -66 21v14l260 25v-260q33 30 78 47t97 17q88 0 143.5 -37t55.5 -106v-320q26 -5 78 -22zM443.5 -114
q24.5 16 29.5 64h106q-13 -71 -64.5 -106t-133.5 -35t-133.5 35t-64.5 106h106q5 -48 29.5 -64t62.5 -16t62.5 16z" />
    <glyph glyph-name="hcircumflex" unicode="&#x125;" horiz-adv-x="762" 
d="M320.5 827q-42.5 -44 -77.5 -72l-79 55q35 22 95 76.5t76 79.5h91q16 -25 76 -79.5t95 -76.5l-79 -55q-35 28 -77.5 72t-58.5 70h-3q-16 -26 -58.5 -70zM742 22v-22h-339v21q46 20 67 24v317q0 50 -19.5 68.5t-54.5 18.5q-23 0 -51 -14t-55 -47v-344q25 -5 67 -22v-22
h-337v21q13 6 36.5 14.5t39.5 9.5v598q-32 8 -66 21v14l260 25v-260q33 30 78 47t97 17q88 0 143.5 -37t55.5 -106v-320q26 -5 78 -22z" />
    <glyph glyph-name="uni1E25" unicode="&#x1e25;" horiz-adv-x="762" 
d="M742 22v-22h-339v21q46 20 67 24v317q0 50 -19.5 68.5t-54.5 18.5q-23 0 -51 -14t-55 -47v-344q25 -5 67 -22v-22h-337v21q13 6 36.5 14.5t39.5 9.5v598q-32 8 -66 21v14l260 25v-260q33 30 78 47t97 17q88 0 143.5 -37t55.5 -106v-320q26 -5 78 -22zM433 -71
q20 -21 20 -52t-20 -51.5t-53 -20.5t-52.5 20.5t-19.5 51.5t19.5 52t52.5 21t53 -21z" />
    <glyph glyph-name="i" unicode="i" horiz-adv-x="388" 
d="M118.5 561q-25.5 25 -25.5 64t25.5 64.5t66.5 25.5t67 -25.5t26 -64.5t-26 -64t-67 -25t-66.5 25zM20 21q31 11 77 24v403q-19 4 -67 20v14l261 25v-463q23 -5 77 -23v-21h-348v21z" />
    <glyph glyph-name="dotlessi" unicode="&#x131;" horiz-adv-x="408" 
d="M30 21q31 11 77 24v403q-19 4 -67 20v14l261 25v-463q23 -5 77 -23v-21h-348v21z" />
    <glyph glyph-name="iacute" unicode="&#xed;" horiz-adv-x="408" 
d="M72 628l127 139q11 14 30.5 28t45.5 14q30 0 45.5 -16t15.5 -35q0 -21 -15 -38.5t-46 -35.5l-172 -100zM30 21q31 11 77 24v403q-19 4 -67 20v14l261 25v-463q23 -5 77 -23v-21h-348v21z" />
    <glyph glyph-name="ibreve" unicode="&#x12d;" horiz-adv-x="408" 
d="M70.5 619q-51.5 35 -64.5 106h106q5 -48 29.5 -64t62.5 -16t62.5 16t29.5 64h106q-13 -71 -64.5 -106t-133.5 -35t-133.5 35zM30 21q31 11 77 24v403q-19 4 -67 20v14l261 25v-463q23 -5 77 -23v-21h-348v21z" />
    <glyph glyph-name="uni01D0" unicode="&#x1d0;" horiz-adv-x="408" 
d="M82 663.5q-60 54.5 -95 76.5l79 55q35 -28 77.5 -72t58.5 -70h3q16 26 58.5 70t77.5 72l79 -55q-35 -22 -95 -76.5t-76 -79.5h-91q-16 25 -76 79.5zM30 21q31 11 77 24v403q-19 4 -67 20v14l261 25v-463q23 -5 77 -23v-21h-348v21z" />
    <glyph glyph-name="icircumflex" unicode="&#xee;" horiz-adv-x="408" 
d="M-13 639q35 22 95 76.5t76 79.5h91q16 -25 76 -79.5t95 -76.5l-79 -55q-35 28 -77.5 72t-58.5 70h-3q-16 -26 -58.5 -70t-77.5 -72zM30 21q31 11 77 24v403q-19 4 -67 20v14l261 25v-463q23 -5 77 -23v-21h-348v21z" />
    <glyph glyph-name="idieresis" unicode="&#xef;" horiz-adv-x="408" 
d="M24.5 604.5q-19.5 20.5 -19.5 51.5t19.5 52t52.5 21t53 -21t20 -52t-20 -51.5t-53 -20.5t-52.5 20.5zM277.5 604.5q-19.5 20.5 -19.5 51.5t19.5 52t52.5 21t53 -21t20 -52t-20 -51.5t-53 -20.5t-52.5 20.5zM30 21q31 11 77 24v403q-19 4 -67 20v14l261 25v-463
q23 -5 77 -23v-21h-348v21z" />
    <glyph glyph-name="uni1ECB" unicode="&#x1ecb;" horiz-adv-x="388" 
d="M118.5 561q-25.5 25 -25.5 64t25.5 64.5t66.5 25.5t67 -25.5t26 -64.5t-26 -64t-67 -25t-66.5 25zM20 21q31 11 77 24v403q-19 4 -67 20v14l261 25v-463q23 -5 77 -23v-21h-348v21zM140.5 -174.5q-19.5 20.5 -19.5 51.5t19.5 52t52.5 21t53 -21t20 -52t-20 -51.5
t-53 -20.5t-52.5 20.5z" />
    <glyph glyph-name="igrave" unicode="&#xec;" horiz-adv-x="408" 
d="M133 684q-31 18 -46 35.5t-15 38.5q0 19 15.5 35t45.5 16q26 0 45.5 -14t30.5 -28l127 -139l-31 -44zM30 21q31 11 77 24v403q-19 4 -67 20v14l261 25v-463q23 -5 77 -23v-21h-348v21z" />
    <glyph glyph-name="uni1EC9" unicode="&#x1ec9;" horiz-adv-x="408" 
d="M150 698h47q21 0 38.5 12t17.5 40q0 21 -17 36t-48 15q-36 0 -64 -16l-7 45q40 19 92 19q57 0 97 -24.5t40 -75.5q0 -47 -27.5 -67.5t-75.5 -24.5l-10 -73h-78zM30 21q31 11 77 24v403q-19 4 -67 20v14l261 25v-463q23 -5 77 -23v-21h-348v21z" />
    <glyph glyph-name="ij" unicode="&#x133;" horiz-adv-x="785" 
d="M118.5 561q-25.5 25 -25.5 64t25.5 64.5t66.5 25.5t67 -25.5t26 -64.5t-26 -64t-67 -25t-66.5 25zM532.5 561q-25.5 25 -25.5 64t25.5 64.5t66.5 25.5t67 -25.5t26 -64.5t-26 -64t-67 -25t-66.5 25zM20 21q31 11 77 24v403q-19 4 -67 20v14l261 25v-463q23 -5 77 -23v-21
h-348v21zM345 -106l10 50q29 -11 68 -11q40 0 64 30t24 75v410q-19 4 -67 20v14l261 25v-463q0 -57 -28.5 -96t-74.5 -58t-99 -19q-97 0 -158 23z" />
    <glyph glyph-name="imacron" unicode="&#x12b;" horiz-adv-x="408" 
d="M-10 641h428v-57h-428v57zM30 21q31 11 77 24v403q-19 4 -67 20v14l261 25v-463q23 -5 77 -23v-21h-348v21z" />
    <glyph glyph-name="iogonek" unicode="&#x12f;" horiz-adv-x="388" 
d="M118.5 561q-25.5 25 -25.5 64t25.5 64.5t66.5 25.5t67 -25.5t26 -64.5t-26 -64t-67 -25t-66.5 25zM449 -109v-77q-20 -15 -55.5 -23.5t-75.5 -8.5q-72 0 -112 25t-40 71q0 37 27.5 73.5t74.5 48.5h-248v21q31 11 77 24v403q-19 4 -67 20v14l261 25v-463q23 -5 77 -23v-21
h-12q-17 -15 -30.5 -38t-13.5 -44q0 -22 17 -37t45 -15q35 0 75 25z" />
    <glyph glyph-name="itilde" unicode="&#x129;" horiz-adv-x="408" 
d="M25 679.5q35 32.5 94 32.5q31 0 55 -8.5t51 -22.5q14 -7 28 -13t25 -6q21 0 34.5 9.5t20.5 41.5h93q-6 -60 -39 -94.5t-98 -34.5q-25 0 -49.5 8t-56.5 23l-33 13t-25 6q-21 0 -34 -13t-17 -37h-93q9 63 44 95.5zM30 21q31 11 77 24v403q-19 4 -67 20v14l261 25v-463
q23 -5 77 -23v-21h-348v21z" />
    <glyph glyph-name="j" unicode="j" horiz-adv-x="397" 
d="M144.5 561q-25.5 25 -25.5 64t25.5 64.5t66.5 25.5t67 -25.5t26 -64.5t-26 -64t-67 -25t-66.5 25zM-43 -106l10 50q29 -11 68 -11q40 0 64 30t24 75v410q-19 4 -67 20v14l261 25v-463q0 -57 -28.5 -96t-74.5 -58t-99 -19q-97 0 -158 23z" />
    <glyph glyph-name="uni0237" unicode="&#x237;" horiz-adv-x="397" 
d="M-43 -106l10 50q29 -11 68 -11q40 0 64 30t24 75v410q-19 4 -67 20v14l261 25v-463q0 -57 -28.5 -96t-74.5 -58t-99 -19q-97 0 -158 23z" />
    <glyph glyph-name="jcircumflex" unicode="&#x135;" horiz-adv-x="397" 
d="M-19 639q35 22 95 76.5t76 79.5h91q16 -25 76 -79.5t95 -76.5l-79 -55q-35 28 -77.5 72t-58.5 70h-3q-16 -26 -58.5 -70t-77.5 -72zM-43 -106l10 50q29 -11 68 -11q40 0 64 30t24 75v410q-19 4 -67 20v14l261 25v-463q0 -57 -28.5 -96t-74.5 -58t-99 -19q-97 0 -158 23z
" />
    <glyph glyph-name="k" unicode="k" horiz-adv-x="751" 
d="M741 22v-22h-232l-173 224l-45 -40v-140q28 -5 78 -22v-22h-349v21l32 12.5t45 11.5v598q-32 8 -67 21v14l261 25v-437l209 181q-44 9 -87 30v21h276v-21q-20 -9 -54 -20.5t-50 -13.5l-142 -125l210 -271q35 -7 88 -25z" />
    <glyph glyph-name="kcommaaccent" unicode="&#x137;" horiz-adv-x="751" 
d="M741 22v-22h-232l-173 224l-45 -40v-140q28 -5 78 -22v-22h-349v21l32 12.5t45 11.5v598q-32 8 -67 21v14l261 25v-437l209 181q-44 9 -87 30v21h276v-21q-20 -9 -54 -20.5t-50 -13.5l-142 -125l210 -271q35 -7 88 -25zM447 -113.5q24 -24.5 24 -60.5q0 -65 -33 -129.5
t-84 -108.5l-59 44q68 65 78 117q-33 4 -56.5 28t-23.5 55q0 36 25 57.5t61 21.5q44 0 68 -24.5z" />
    <glyph glyph-name="kgreenlandic" unicode="&#x138;" horiz-adv-x="751" 
d="M741 22v-22h-232l-173 224l-45 -40v-140q28 -5 78 -22v-22h-349v21l32 12.5t45 11.5v413q-32 8 -67 21v14l261 25v-252l209 181q-44 9 -87 30v21h276v-21q-20 -9 -54 -20.5t-50 -13.5l-142 -125l210 -271q35 -7 88 -25z" />
    <glyph glyph-name="l" unicode="l" horiz-adv-x="389" 
d="M20 21q24 9 77 24v598q-32 8 -67 21v14l261 25v-659q28 -5 78 -22v-22h-349v21z" />
    <glyph glyph-name="lacute" unicode="&#x13a;" horiz-adv-x="389" 
d="M62 794l127 139q11 13 30.5 27.5t45.5 14.5q30 0 45.5 -16t15.5 -35q0 -21 -15 -38.5t-46 -35.5l-172 -100zM20 21q24 9 77 24v598q-32 8 -67 21v14l261 25v-659q28 -5 78 -22v-22h-349v21z" />
    <glyph glyph-name="lcaron" unicode="&#x13e;" horiz-adv-x="604" 
d="M379 417q68 65 78 117q-39 0 -62 24t-23 57q0 40 23.5 67.5t67.5 27.5q50 0 74 -29.5t24 -68.5q0 -64 -35.5 -129t-87.5 -110zM20 21q24 9 77 24v598q-32 8 -67 21v14l261 25v-659q28 -5 78 -22v-22h-349v21z" />
    <glyph glyph-name="lcommaaccent" unicode="&#x13c;" horiz-adv-x="389" 
d="M20 21q24 9 77 24v598q-32 8 -67 21v14l261 25v-659q28 -5 78 -22v-22h-349v21zM109 -368q68 65 78 117q-33 4 -56.5 28t-23.5 55q0 36 25 57.5t61 21.5q44 0 68 -24.5t24 -60.5q0 -65 -33 -129.5t-84 -108.5z" />
    <glyph glyph-name="ldot" unicode="&#x140;" horiz-adv-x="562" 
d="M20 21q24 9 77 24v598q-32 8 -67 21v14l261 25v-659q28 -5 78 -22v-22h-349v21zM389.5 297.5q-19.5 20.5 -19.5 51.5t19.5 52t52.5 21t53 -21t20 -52t-20 -51.5t-53 -20.5t-52.5 20.5z" />
    <glyph glyph-name="uni1E37" unicode="&#x1e37;" horiz-adv-x="389" 
d="M20 21q24 9 77 24v598q-32 8 -67 21v14l261 25v-659q28 -5 78 -22v-22h-349v21zM138.5 -174.5q-19.5 20.5 -19.5 51.5t19.5 52t52.5 21t53 -21t20 -52t-20 -51.5t-53 -20.5t-52.5 20.5z" />
    <glyph glyph-name="uni1E39" unicode="&#x1e39;" horiz-adv-x="389" 
d="M-20 842h428v-57h-428v57zM20 21q24 9 77 24v598q-32 8 -67 21v14l261 25v-659q28 -5 78 -22v-22h-349v21zM141.5 -174.5q-19.5 20.5 -19.5 51.5t19.5 52t52.5 21t53 -21t20 -52t-20 -51.5t-53 -20.5t-52.5 20.5z" />
    <glyph glyph-name="uni1E3B" unicode="&#x1e3b;" horiz-adv-x="389" 
d="M20 21q24 9 77 24v598q-32 8 -67 21v14l261 25v-659q28 -5 78 -22v-22h-349v21zM-21 -55h428v-57h-428v57z" />
    <glyph glyph-name="lslash" unicode="&#x142;" horiz-adv-x="403" 
d="M296 297v-253q28 -5 78 -22v-22h-349v21q24 9 77 24v177l-76 -30v82l76 30v339q-32 8 -67 21v14l261 25v-323l87 34v-83z" />
    <glyph glyph-name="m" unicode="m" horiz-adv-x="1112" 
d="M1092 22v-22h-338v21l23 11t43 13v317q0 50 -20 68.5t-55 18.5q-50 0 -98 -62q2 -14 2 -23v-320q36 -7 64 -22v-22h-312v21q35 20 64 24v317q0 50 -17.5 68.5t-51.5 18.5q-23 0 -50 -13.5t-55 -45.5v-346q26 -5 77 -22v-22h-348v21q43 19 77 24v407q-19 4 -67 20v14
l261 25v-64q65 60 164 60q64 0 110.5 -20t67.5 -58q68 78 181 78q88 0 144 -37t56 -106v-320q26 -5 78 -22z" />
    <glyph glyph-name="uni1E43" unicode="&#x1e43;" horiz-adv-x="1112" 
d="M1092 22v-22h-338v21l23 11t43 13v317q0 50 -20 68.5t-55 18.5q-50 0 -98 -62q2 -14 2 -23v-320q36 -7 64 -22v-22h-312v21q35 20 64 24v317q0 50 -17.5 68.5t-51.5 18.5q-23 0 -50 -13.5t-55 -45.5v-346q26 -5 77 -22v-22h-348v21q43 19 77 24v407q-19 4 -67 20v14
l261 25v-64q65 60 164 60q64 0 110.5 -20t67.5 -58q68 78 181 78q88 0 144 -37t56 -106v-320q26 -5 78 -22zM608 -71q20 -21 20 -52t-20 -51.5t-53 -20.5t-52.5 20.5t-19.5 51.5t19.5 52t52.5 21t53 -21z" />
    <glyph glyph-name="n" unicode="n" horiz-adv-x="761" 
d="M741 22v-22h-337v21q9 5 29.5 13t37.5 11v317q0 50 -20 68.5t-55 18.5q-23 0 -50 -13.5t-55 -45.5v-346q26 -5 77 -22v-22h-348v21q43 19 77 24v407q-19 4 -67 20v14l261 25v-66q33 29 78 45.5t96 16.5q88 0 144 -37t56 -106v-320q48 -9 76 -22z" />
    <glyph glyph-name="nacute" unicode="&#x144;" horiz-adv-x="761" 
d="M297 584l-31 44l127 139q11 14 30.5 28t45.5 14q30 0 45.5 -16t15.5 -35q0 -21 -15 -38.5t-46 -35.5zM741 22v-22h-337v21q9 5 29.5 13t37.5 11v317q0 50 -20 68.5t-55 18.5q-23 0 -50 -13.5t-55 -45.5v-346q26 -5 77 -22v-22h-348v21q43 19 77 24v407q-19 4 -67 20v14
l261 25v-66q33 29 78 45.5t96 16.5q88 0 144 -37t56 -106v-320q48 -9 76 -22z" />
    <glyph glyph-name="napostrophe" unicode="&#x149;" horiz-adv-x="969" 
d="M174 675.5q24 -24.5 24 -60.5q0 -65 -33 -129.5t-84 -108.5l-59 44q68 65 78 117q-33 4 -56.5 28t-23.5 55q0 36 25 57.5t61 21.5q44 0 68 -24.5zM949 22v-22h-337v21q9 5 29.5 13t37.5 11v317q0 50 -20 68.5t-55 18.5q-23 0 -50.5 -13.5t-54.5 -45.5v-346q26 -5 77 -22
v-22h-348v21q43 19 77 24v407q-19 4 -67 20v14l261 25v-66q33 29 78 45.5t96 16.5q88 0 144 -37t56 -106v-320q48 -9 76 -22z" />
    <glyph glyph-name="ncaron" unicode="&#x148;" horiz-adv-x="761" 
d="M258 663.5q-60 54.5 -95 76.5l79 55q35 -28 77.5 -72t58.5 -70h3q16 26 58.5 70t77.5 72l79 -55q-35 -22 -95 -76.5t-76 -79.5h-91q-16 25 -76 79.5zM741 22v-22h-337v21q9 5 29.5 13t37.5 11v317q0 50 -20 68.5t-55 18.5q-23 0 -50 -13.5t-55 -45.5v-346q26 -5 77 -22
v-22h-348v21q43 19 77 24v407q-19 4 -67 20v14l261 25v-66q33 29 78 45.5t96 16.5q88 0 144 -37t56 -106v-320q48 -9 76 -22z" />
    <glyph glyph-name="ncommaaccent" unicode="&#x146;" horiz-adv-x="761" 
d="M741 22v-22h-337v21q9 5 29.5 13t37.5 11v317q0 50 -20 68.5t-55 18.5q-23 0 -50 -13.5t-55 -45.5v-346q26 -5 77 -22v-22h-348v21q43 19 77 24v407q-19 4 -67 20v14l261 25v-66q33 29 78 45.5t96 16.5q88 0 144 -37t56 -106v-320q48 -9 76 -22zM450 -113.5
q24 -24.5 24 -60.5q0 -65 -33 -129.5t-84 -108.5l-59 44q68 65 78 117q-33 4 -56.5 28t-23.5 55q0 36 25 57.5t61 21.5q44 0 68 -24.5z" />
    <glyph glyph-name="uni1E45" unicode="&#x1e45;" horiz-adv-x="761" 
d="M327.5 604.5q-19.5 20.5 -19.5 51.5t19.5 52t52.5 21t53 -21t20 -52t-20 -51.5t-53 -20.5t-52.5 20.5zM741 22v-22h-337v21q9 5 29.5 13t37.5 11v317q0 50 -20 68.5t-55 18.5q-23 0 -50 -13.5t-55 -45.5v-346q26 -5 77 -22v-22h-348v21q43 19 77 24v407q-19 4 -67 20v14
l261 25v-66q33 29 78 45.5t96 16.5q88 0 144 -37t56 -106v-320q48 -9 76 -22z" />
    <glyph glyph-name="uni1E47" unicode="&#x1e47;" horiz-adv-x="761" 
d="M741 22v-22h-337v21q9 5 29.5 13t37.5 11v317q0 50 -20 68.5t-55 18.5q-23 0 -50 -13.5t-55 -45.5v-346q26 -5 77 -22v-22h-348v21q43 19 77 24v407q-19 4 -67 20v14l261 25v-66q33 29 78 45.5t96 16.5q88 0 144 -37t56 -106v-320q48 -9 76 -22zM437 -71q20 -21 20 -52
t-20 -51.5t-53 -20.5t-52.5 20.5t-19.5 51.5t19.5 52t52.5 21t53 -21z" />
    <glyph glyph-name="eng" unicode="&#x14b;" horiz-adv-x="745" 
d="M305 -213l10 50q29 -11 68 -11q40 0 64 30t24 75v431q0 50 -20 68.5t-55 18.5q-23 0 -50.5 -14t-54.5 -47v-344q26 -5 77 -22v-22h-348v21q43 19 77 24v407q-19 4 -67 20v14l261 25v-66q33 29 77.5 45.5t96.5 16.5q88 0 144 -37t56 -106v-427q0 -57 -28.5 -96t-74.5 -58
t-99 -19q-97 0 -158 23z" />
    <glyph glyph-name="uni1E49" unicode="&#x1e49;" horiz-adv-x="761" 
d="M741 22v-22h-337v21q9 5 29.5 13t37.5 11v317q0 50 -20 68.5t-55 18.5q-23 0 -50 -13.5t-55 -45.5v-346q26 -5 77 -22v-22h-348v21q43 19 77 24v407q-19 4 -67 20v14l261 25v-66q33 29 78 45.5t96 16.5q88 0 144 -37t56 -106v-320q48 -9 76 -22zM166 -55h428v-57h-428v57
z" />
    <glyph glyph-name="ntilde" unicode="&#xf1;" horiz-adv-x="761" 
d="M267 621q-13 -13 -17 -37h-93q9 63 44 95.5t94 32.5q31 0 55 -8.5t51 -22.5q14 -7 28 -13t25 -6q21 0 34.5 9.5t20.5 41.5h93q-6 -60 -39 -94.5t-98 -34.5q-25 0 -49.5 8t-56.5 23l-33 13t-25 6q-21 0 -34 -13zM741 22v-22h-337v21q9 5 29.5 13t37.5 11v317
q0 50 -20 68.5t-55 18.5q-23 0 -50 -13.5t-55 -45.5v-346q26 -5 77 -22v-22h-348v21q43 19 77 24v407q-19 4 -67 20v14l261 25v-66q33 29 78 45.5t96 16.5q88 0 144 -37t56 -106v-320q48 -9 76 -22z" />
    <glyph glyph-name="o" unicode="o" horiz-adv-x="660" 
d="M99 57.5q-79 67.5 -79 190.5t79 191t231 68t231 -68t79 -191t-79 -190.5t-231 -67.5t-231 67.5zM413 101.5q31 53.5 31 146.5q0 94 -31 147.5t-83 53.5t-83 -53.5t-31 -147.5q0 -93 31 -146.5t83 -53.5t83 53.5z" />
    <glyph glyph-name="oacute" unicode="&#xf3;" horiz-adv-x="660" 
d="M208 628l127 139q11 13 30.5 27.5t45.5 14.5q30 0 45.5 -16t15.5 -35q0 -21 -15 -38.5t-46 -35.5l-172 -100zM99 57.5q-79 67.5 -79 190.5t79 191t231 68t231 -68t79 -191t-79 -190.5t-231 -67.5t-231 67.5zM413 101.5q31 53.5 31 146.5q0 94 -31 147.5t-83 53.5
t-83 -53.5t-31 -147.5q0 -93 31 -146.5t83 -53.5t83 53.5z" />
    <glyph glyph-name="obreve" unicode="&#x14f;" horiz-adv-x="660" 
d="M196.5 619q-51.5 35 -64.5 106h106q5 -48 29.5 -64t62.5 -16t62.5 16t29.5 64h106q-13 -71 -64.5 -106t-133.5 -35t-133.5 35zM99 57.5q-79 67.5 -79 190.5t79 191t231 68t231 -68t79 -191t-79 -190.5t-231 -67.5t-231 67.5zM413 101.5q31 53.5 31 146.5q0 94 -31 147.5
t-83 53.5t-83 -53.5t-31 -147.5q0 -93 31 -146.5t83 -53.5t83 53.5z" />
    <glyph glyph-name="uni01D2" unicode="&#x1d2;" horiz-adv-x="660" 
d="M208 663.5q-60 54.5 -95 76.5l79 55q35 -28 77.5 -72t58.5 -70h3q16 26 58.5 70t77.5 72l79 -55q-35 -22 -95 -76.5t-76 -79.5h-91q-16 25 -76 79.5zM99 57.5q-79 67.5 -79 190.5t79 191t231 68t231 -68t79 -191t-79 -190.5t-231 -67.5t-231 67.5zM413 101.5
q31 53.5 31 146.5q0 94 -31 147.5t-83 53.5t-83 -53.5t-31 -147.5q0 -93 31 -146.5t83 -53.5t83 53.5z" />
    <glyph glyph-name="ocircumflex" unicode="&#xf4;" horiz-adv-x="660" 
d="M113 639q35 22 95 76.5t76 79.5h91q16 -25 76 -79.5t95 -76.5l-79 -55q-35 28 -77.5 72t-58.5 70h-3q-16 -26 -58.5 -70t-77.5 -72zM99 57.5q-79 67.5 -79 190.5t79 191t231 68t231 -68t79 -191t-79 -190.5t-231 -67.5t-231 67.5zM413 101.5q31 53.5 31 146.5
q0 94 -31 147.5t-83 53.5t-83 -53.5t-31 -147.5q0 -93 31 -146.5t83 -53.5t83 53.5z" />
    <glyph glyph-name="uni1ED1" unicode="&#x1ed1;" horiz-adv-x="660" 
d="M459 773l78 99q39 49 76 49q30 0 45.5 -17.5t15.5 -37.5q0 -41 -68 -74l-117 -57zM114 639q35 22 95 76.5t76 79.5h91q16 -25 76 -79.5t95 -76.5l-79 -55q-35 28 -77.5 72t-58.5 70h-3q-16 -26 -58.5 -70t-77.5 -72zM99 57.5q-79 67.5 -79 190.5t79 191t231 68t231 -68
t79 -191t-79 -190.5t-231 -67.5t-231 67.5zM413 101.5q31 53.5 31 146.5q0 94 -31 147.5t-83 53.5t-83 -53.5t-31 -147.5q0 -93 31 -146.5t83 -53.5t83 53.5z" />
    <glyph glyph-name="uni1ED9" unicode="&#x1ed9;" horiz-adv-x="660" 
d="M209 715.5q60 54.5 76 79.5h91q16 -25 76 -79.5t95 -76.5l-79 -55q-35 28 -77.5 72t-58.5 70h-3q-16 -26 -58.5 -70t-77.5 -72l-79 55q35 22 95 76.5zM99 439q79 68 231 68t231 -68t79 -191t-79 -190.5t-231 -67.5t-231 67.5t-79 190.5t79 191zM247 101.5
q31 -53.5 83 -53.5t83 53.5t31 146.5q0 94 -31 147.5t-83 53.5t-83 -53.5t-31 -147.5q0 -93 31 -146.5zM277.5 -71q19.5 21 52.5 21t53 -21t20 -52t-20 -51.5t-53 -20.5t-52.5 20.5t-19.5 51.5t19.5 52z" />
    <glyph glyph-name="uni1ED3" unicode="&#x1ed3;" horiz-adv-x="660" 
d="M55 792q-68 33 -68 74q0 20 15.5 37.5t45.5 17.5q37 0 76 -49l78 -99l-30 -38zM114 639q35 22 95 76.5t76 79.5h91q16 -25 76 -79.5t95 -76.5l-79 -55q-35 28 -77.5 72t-58.5 70h-3q-16 -26 -58.5 -70t-77.5 -72zM99 57.5q-79 67.5 -79 190.5t79 191t231 68t231 -68
t79 -191t-79 -190.5t-231 -67.5t-231 67.5zM413 101.5q31 53.5 31 146.5q0 94 -31 147.5t-83 53.5t-83 -53.5t-31 -147.5q0 -93 31 -146.5t83 -53.5t83 53.5z" />
    <glyph glyph-name="uni1ED5" unicode="&#x1ed5;" horiz-adv-x="660" 
d="M460 840h41q18 0 33.5 11t15.5 36q0 19 -15 33t-42 14q-31 0 -56 -15l-6 42q34 17 80 17q50 0 85 -22.5t35 -69.5q0 -43 -24 -61.5t-66 -22.5l-9 -40h-68zM114 639q35 22 95 76.5t76 79.5h91q16 -25 76 -79.5t95 -76.5l-79 -55q-35 28 -77.5 72t-58.5 70h-3
q-16 -26 -58.5 -70t-77.5 -72zM99 57.5q-79 67.5 -79 190.5t79 191t231 68t231 -68t79 -191t-79 -190.5t-231 -67.5t-231 67.5zM413 101.5q31 53.5 31 146.5q0 94 -31 147.5t-83 53.5t-83 -53.5t-31 -147.5q0 -93 31 -146.5t83 -53.5t83 53.5z" />
    <glyph glyph-name="uni1ED7" unicode="&#x1ed7;" horiz-adv-x="660" 
d="M184 928.5q34 31.5 90 31.5q31 0 52 -8t43 -22q27 -18 45 -18q58 0 70 49h64q-6 -58 -37.5 -90.5t-93.5 -32.5q-22 0 -40.5 7t-40.5 19q-23 11 -37 16.5t-30 5.5q-25 0 -42 -13t-21 -35h-64q8 59 42 90.5zM114 639q35 22 95 76.5t76 79.5h91q16 -25 76 -79.5t95 -76.5
l-79 -55q-35 28 -77.5 72t-58.5 70h-3q-16 -26 -58.5 -70t-77.5 -72zM99 57.5q-79 67.5 -79 190.5t79 191t231 68t231 -68t79 -191t-79 -190.5t-231 -67.5t-231 67.5zM413 101.5q31 53.5 31 146.5q0 94 -31 147.5t-83 53.5t-83 -53.5t-31 -147.5q0 -93 31 -146.5t83 -53.5
t83 53.5z" />
    <glyph glyph-name="odieresis" unicode="&#xf6;" horiz-adv-x="660" 
d="M150.5 604.5q-19.5 20.5 -19.5 51.5t19.5 52t52.5 21t53 -21t20 -52t-20 -51.5t-53 -20.5t-52.5 20.5zM403.5 604.5q-19.5 20.5 -19.5 51.5t19.5 52t52.5 21t53 -21t20 -52t-20 -51.5t-53 -20.5t-52.5 20.5zM99 57.5q-79 67.5 -79 190.5t79 191t231 68t231 -68t79 -191
t-79 -190.5t-231 -67.5t-231 67.5zM413 101.5q31 53.5 31 146.5q0 94 -31 147.5t-83 53.5t-83 -53.5t-31 -147.5q0 -93 31 -146.5t83 -53.5t83 53.5z" />
    <glyph glyph-name="uni1ECD" unicode="&#x1ecd;" horiz-adv-x="660" 
d="M99 439q79 68 231 68t231 -68t79 -191t-79 -190.5t-231 -67.5t-231 67.5t-79 190.5t79 191zM247 101.5q31 -53.5 83 -53.5t83 53.5t31 146.5q0 94 -31 147.5t-83 53.5t-83 -53.5t-31 -147.5q0 -93 31 -146.5zM276.5 -71q19.5 21 52.5 21t53 -21t20 -52t-20 -51.5
t-53 -20.5t-52.5 20.5t-19.5 51.5t19.5 52z" />
    <glyph glyph-name="ograve" unicode="&#xf2;" horiz-adv-x="660" 
d="M249 684q-31 18 -46 35.5t-15 38.5q0 19 15.5 35t45.5 16q26 0 45.5 -14t30.5 -28l127 -139l-31 -44zM99 57.5q-79 67.5 -79 190.5t79 191t231 68t231 -68t79 -191t-79 -190.5t-231 -67.5t-231 67.5zM413 101.5q31 53.5 31 146.5q0 94 -31 147.5t-83 53.5t-83 -53.5
t-31 -147.5q0 -93 31 -146.5t83 -53.5t83 53.5z" />
    <glyph glyph-name="uni1ECF" unicode="&#x1ecf;" horiz-adv-x="660" 
d="M282 698h47q21 0 38.5 12t17.5 40q0 21 -17 36t-48 15q-36 0 -64 -16l-7 45q40 19 92 19q57 0 97 -24.5t40 -75.5q0 -47 -27.5 -67.5t-75.5 -24.5l-10 -73h-78zM99 57.5q-79 67.5 -79 190.5t79 191t231 68t231 -68t79 -191t-79 -190.5t-231 -67.5t-231 67.5zM413 101.5
q31 53.5 31 146.5q0 94 -31 147.5t-83 53.5t-83 -53.5t-31 -147.5q0 -93 31 -146.5t83 -53.5t83 53.5z" />
    <glyph glyph-name="ohorn" unicode="&#x1a1;" horiz-adv-x="752" 
d="M639 268q1 -7 1 -20q0 -123 -79 -190.5t-231 -67.5t-231 67.5t-79 190.5t79 191t231 68q124 0 200 -46t100 -132q49 40 60 76q-5 -1 -14 -1q-32 0 -51.5 19.5t-19.5 53.5q0 30 19 53t67 23q91 0 91 -92q0 -90 -143 -193zM413 101.5q31 53.5 31 146.5q0 94 -31 147.5
t-83 53.5t-83 -53.5t-31 -147.5q0 -93 31 -146.5t83 -53.5t83 53.5z" />
    <glyph glyph-name="uni1EDB" unicode="&#x1edb;" horiz-adv-x="752" 
d="M239 584l-31 44l127 139q11 13 30.5 27.5t45.5 14.5q30 0 45.5 -16t15.5 -35q0 -21 -15 -38.5t-46 -35.5zM639 268q1 -7 1 -20q0 -123 -79 -190.5t-231 -67.5t-231 67.5t-79 190.5t79 191t231 68q124 0 200 -46t100 -132q49 40 60 76q-5 -1 -14 -1q-32 0 -51.5 19.5
t-19.5 53.5q0 30 19 53t67 23q91 0 91 -92q0 -90 -143 -193zM413 101.5q31 53.5 31 146.5q0 94 -31 147.5t-83 53.5t-83 -53.5t-31 -147.5q0 -93 31 -146.5t83 -53.5t83 53.5z" />
    <glyph glyph-name="uni1EE3" unicode="&#x1ee3;" horiz-adv-x="752" 
d="M639 268q1 -7 1 -20q0 -123 -79 -190.5t-231 -67.5t-231 67.5t-79 190.5t79 191t231 68q124 0 200 -46t100 -132q49 40 60 76q-5 -1 -14 -1q-32 0 -51.5 19.5t-19.5 53.5q0 30 19 53t67 23q91 0 91 -92q0 -90 -143 -193zM413 101.5q31 53.5 31 146.5q0 94 -31 147.5
t-83 53.5t-83 -53.5t-31 -147.5q0 -93 31 -146.5t83 -53.5t83 53.5zM383 -71q20 -21 20 -52t-20 -51.5t-53 -20.5t-52.5 20.5t-19.5 51.5t19.5 52t52.5 21t53 -21z" />
    <glyph glyph-name="uni1EDD" unicode="&#x1edd;" horiz-adv-x="752" 
d="M203 719.5q-15 17.5 -15 38.5q0 19 15.5 35t45.5 16q26 0 45.5 -14t30.5 -28l127 -139l-31 -44l-172 100q-31 18 -46 35.5zM639 268q1 -7 1 -20q0 -123 -79 -190.5t-231 -67.5t-231 67.5t-79 190.5t79 191t231 68q124 0 200 -46t100 -132q49 40 60 76q-5 -1 -14 -1
q-32 0 -51.5 19.5t-19.5 53.5q0 30 19 53t67 23q91 0 91 -92q0 -90 -143 -193zM413 101.5q31 53.5 31 146.5q0 94 -31 147.5t-83 53.5t-83 -53.5t-31 -147.5q0 -93 31 -146.5t83 -53.5t83 53.5z" />
    <glyph glyph-name="uni1EDF" unicode="&#x1edf;" horiz-adv-x="752" 
d="M263 785l-7 45q40 19 92 19q57 0 97 -24.5t40 -75.5q0 -47 -27.5 -67.5t-75.5 -24.5l-10 -73h-78l-5 114h47q21 0 38.5 12t17.5 40q0 21 -17 36t-48 15q-36 0 -64 -16zM639 268q1 -7 1 -20q0 -123 -79 -190.5t-231 -67.5t-231 67.5t-79 190.5t79 191t231 68
q124 0 200 -46t100 -132q49 40 60 76q-5 -1 -14 -1q-32 0 -51.5 19.5t-19.5 53.5q0 30 19 53t67 23q91 0 91 -92q0 -90 -143 -193zM413 101.5q31 53.5 31 146.5q0 94 -31 147.5t-83 53.5t-83 -53.5t-31 -147.5q0 -93 31 -146.5t83 -53.5t83 53.5z" />
    <glyph glyph-name="uni1EE1" unicode="&#x1ee1;" horiz-adv-x="752" 
d="M219 621q-13 -13 -17 -37h-93q9 63 44 95.5t94 32.5q31 0 55 -8.5t51 -22.5q14 -7 28 -13t25 -6q21 0 34.5 9.5t20.5 41.5h93q-6 -60 -39 -94.5t-98 -34.5q-24 0 -49 8t-57 23l-33 13t-25 6q-21 0 -34 -13zM639 268q1 -7 1 -20q0 -123 -79 -190.5t-231 -67.5t-231 67.5
t-79 190.5t79 191t231 68q124 0 200 -46t100 -132q49 40 60 76q-5 -1 -14 -1q-32 0 -51.5 19.5t-19.5 53.5q0 30 19 53t67 23q91 0 91 -92q0 -90 -143 -193zM413 101.5q31 53.5 31 146.5q0 94 -31 147.5t-83 53.5t-83 -53.5t-31 -147.5q0 -93 31 -146.5t83 -53.5t83 53.5z
" />
    <glyph glyph-name="ohungarumlaut" unicode="&#x151;" horiz-adv-x="660" 
d="M146 626l127 139q11 14 30.5 28t45.5 14q30 0 45.5 -16t15.5 -35q0 -21 -15 -38.5t-46 -35.5l-172 -100zM380 626l127 139q11 14 30.5 28t45.5 14q30 0 45.5 -16t15.5 -35q0 -21 -15 -38.5t-46 -35.5l-172 -100zM99 57.5q-79 67.5 -79 190.5t79 191t231 68t231 -68
t79 -191t-79 -190.5t-231 -67.5t-231 67.5zM413 101.5q31 53.5 31 146.5q0 94 -31 147.5t-83 53.5t-83 -53.5t-31 -147.5q0 -93 31 -146.5t83 -53.5t83 53.5z" />
    <glyph glyph-name="omacron" unicode="&#x14d;" horiz-adv-x="660" 
d="M116 641h428v-57h-428v57zM99 57.5q-79 67.5 -79 190.5t79 191t231 68t231 -68t79 -191t-79 -190.5t-231 -67.5t-231 67.5zM413 101.5q31 53.5 31 146.5q0 94 -31 147.5t-83 53.5t-83 -53.5t-31 -147.5q0 -93 31 -146.5t83 -53.5t83 53.5z" />
    <glyph glyph-name="oslash" unicode="&#xf8;" horiz-adv-x="660" 
d="M640 248q0 -123 -79 -190.5t-231 -67.5q-112 0 -186 38l-63 -62l-47 41l58 57q-72 66 -72 184q0 123 79 191t231 68q105 0 178 -34l58 57l50 -44l-51 -50q75 -66 75 -188zM217 187l203 199q-32 63 -90 63q-53 0 -85 -54t-32 -147q0 -36 4 -61zM415 102q32 54 32 146
q0 35 -5 68l-205 -198q16 -34 39.5 -52t53.5 -18q53 0 85 54z" />
    <glyph glyph-name="oslashacute" unicode="&#x1ff;" horiz-adv-x="660" 
d="M235 584l-31 44l127 139q11 14 30.5 28t45.5 14q30 0 45.5 -16t15.5 -35q0 -21 -15 -38.5t-46 -35.5zM640 248q0 -123 -79 -190.5t-231 -67.5q-112 0 -186 38l-63 -62l-47 41l58 57q-72 66 -72 184q0 123 79 191t231 68q105 0 178 -34l58 57l50 -44l-51 -50
q75 -66 75 -188zM217 187l203 199q-32 63 -90 63q-53 0 -85 -54t-32 -147q0 -36 4 -61zM415 102q32 54 32 146q0 35 -5 68l-205 -198q16 -34 39.5 -52t53.5 -18q53 0 85 54z" />
    <glyph glyph-name="otilde" unicode="&#xf5;" horiz-adv-x="660" 
d="M151 679.5q35 32.5 94 32.5q31 0 55 -8.5t51 -22.5q14 -7 28 -13t25 -6q21 0 34.5 9.5t20.5 41.5h93q-6 -60 -39 -94.5t-98 -34.5q-25 0 -49.5 8t-56.5 23l-33 13t-25 6q-21 0 -34 -13t-17 -37h-93q9 63 44 95.5zM99 57.5q-79 67.5 -79 190.5t79 191t231 68t231 -68
t79 -191t-79 -190.5t-231 -67.5t-231 67.5zM413 101.5q31 53.5 31 146.5q0 94 -31 147.5t-83 53.5t-83 -53.5t-31 -147.5q0 -93 31 -146.5t83 -53.5t83 53.5z" />
    <glyph glyph-name="oe" unicode="&#x153;" horiz-adv-x="1001" 
d="M98.5 58q-78.5 68 -78.5 190t78.5 190.5t217.5 68.5q56 0 101.5 -17t75.5 -46q78 63 215 63q90 0 150.5 -32.5t89.5 -87t29 -120.5v-34h-375q3 -80 39 -134t106 -54q42 0 94 15t91 44l18 -42q-36 -30 -102 -51t-141 -21q-131 0 -209 61q-39 -30 -82.5 -45.5t-99.5 -15.5
q-139 0 -217.5 68zM388 69q30 21 48 58q-27 53 -27 121q0 69 26 123q-18 37 -48 57.5t-61 20.5q-52 0 -81 -53t-29 -148q0 -94 29 -147t81 -53q32 0 62 21zM808 291q-4 65 -27.5 111.5t-73.5 46.5q-40 0 -68 -46t-35 -112h204z" />
    <glyph glyph-name="p" unicode="p" horiz-adv-x="695" 
d="M20 -207l78 22v637q-17 3 -67 19v15l261 25v-55q23 27 59.5 39t66.5 12q126 0 191.5 -61t65.5 -185q0 -140 -68.5 -205.5t-201.5 -65.5q-30 0 -62.5 11t-50.5 36v-224q24 -6 77 -22v-22h-349v24zM479 256q0 100 -19 146.5t-72 46.5q-25 0 -52.5 -17t-43.5 -43v-216
q0 -52 24 -88.5t66 -36.5q97 0 97 208z" />
    <glyph glyph-name="thorn" unicode="&#xfe;" horiz-adv-x="695" 
d="M20 -207l78 22v836q-17 3 -67 19v15l261 25v-254q23 27 59.5 39t66.5 12q126 0 191.5 -61t65.5 -185q0 -140 -68.5 -205.5t-201.5 -65.5q-30 0 -62.5 11t-50.5 36v-224q24 -6 77 -22v-22h-349v24zM479 256q0 100 -19 146.5t-72 46.5q-25 0 -52.5 -17t-43.5 -43v-216
q0 -52 24 -88.5t66 -36.5q97 0 97 208z" />
    <glyph glyph-name="q" unicode="q" horiz-adv-x="697" 
d="M327 -210q44 17 78 24v226q-18 -24 -50 -37t-62 -13q-273 0 -273 254q0 81 34 141t89.5 91t119.5 31q46 0 84 -13.5t58 -35.5v53l262 -25v-14l-68 -22v-638q31 -7 78 -21v-22h-350v21zM380 84.5q25 36.5 25 88.5v228q-13 21 -40.5 34.5t-47.5 13.5q-101 0 -101 -194
q0 -207 97 -207q42 0 67 36.5z" />
    <glyph glyph-name="r" unicode="r" horiz-adv-x="561" 
d="M20 24q31 13 78 22v406q-19 4 -67 20v13l239 26l16 -101h5q20 51 58.5 74t82.5 23q37 0 64.5 -6t54.5 -22l-36 -89q-32 21 -64 21q-48 0 -90.5 -31t-68.5 -83v-253q37 -6 76 -23v-21h-348v24z" />
    <glyph glyph-name="racute" unicode="&#x155;" horiz-adv-x="561" 
d="M153 628l127 139q11 14 30.5 28t45.5 14q30 0 45.5 -16t15.5 -35q0 -21 -15 -38.5t-46 -35.5l-172 -100zM20 24q31 13 78 22v406q-19 4 -67 20v13l239 26l16 -101h5q20 51 58.5 74t82.5 23q37 0 64.5 -6t54.5 -22l-36 -89q-32 21 -64 21q-48 0 -90.5 -31t-68.5 -83v-253
q37 -6 76 -23v-21h-348v24z" />
    <glyph glyph-name="rcaron" unicode="&#x159;" horiz-adv-x="561" 
d="M164 663.5q-60 54.5 -95 76.5l79 55q35 -28 77.5 -72t58.5 -70h3q16 26 58.5 70t77.5 72l79 -55q-35 -22 -95 -76.5t-76 -79.5h-91q-16 25 -76 79.5zM20 24q31 13 78 22v406q-19 4 -67 20v13l239 26l16 -101h5q20 51 58.5 74t82.5 23q37 0 64.5 -6t54.5 -22l-36 -89
q-32 21 -64 21q-48 0 -90.5 -31t-68.5 -83v-253q37 -6 76 -23v-21h-348v24z" />
    <glyph glyph-name="rcommaaccent" unicode="&#x157;" horiz-adv-x="561" 
d="M20 24q31 13 78 22v406q-19 4 -67 20v13l239 26l16 -101h5q20 51 58.5 74t82.5 23q37 0 64.5 -6t54.5 -22l-36 -89q-32 21 -64 21q-48 0 -90.5 -31t-68.5 -83v-253q37 -6 76 -23v-21h-348v24zM125 -368q68 65 78 117q-33 4 -56.5 28t-23.5 55q0 36 25 57.5t61 21.5
q44 0 68 -24.5t24 -60.5q0 -65 -33 -129.5t-84 -108.5z" />
    <glyph glyph-name="uni1E5B" unicode="&#x1e5b;" horiz-adv-x="561" 
d="M20 24q31 13 78 22v406q-19 4 -67 20v13l239 26l16 -101h5q20 51 58.5 74t82.5 23q37 0 64.5 -6t54.5 -22l-36 -89q-32 21 -64 21q-48 0 -90.5 -31t-68.5 -83v-253q37 -6 76 -23v-21h-348v24zM140.5 -174.5q-19.5 20.5 -19.5 51.5t19.5 52t52.5 21t53 -21t20 -52
t-20 -51.5t-53 -20.5t-52.5 20.5z" />
    <glyph glyph-name="uni1E5D" unicode="&#x1e5d;" horiz-adv-x="561" 
d="M26 641h428v-57h-428v57zM20 24q31 13 78 22v406q-19 4 -67 20v13l239 26l16 -101h5q20 51 58.5 74t82.5 23q37 0 64.5 -6t54.5 -22l-36 -89q-32 21 -64 21q-48 0 -90.5 -31t-68.5 -83v-253q37 -6 76 -23v-21h-348v24zM140.5 -174.5q-19.5 20.5 -19.5 51.5t19.5 52
t52.5 21t53 -21t20 -52t-20 -51.5t-53 -20.5t-52.5 20.5z" />
    <glyph glyph-name="uni1E5F" unicode="&#x1e5f;" horiz-adv-x="561" 
d="M20 24q31 13 78 22v406q-19 4 -67 20v13l239 26l16 -101h5q20 51 58.5 74t82.5 23q37 0 64.5 -6t54.5 -22l-36 -89q-32 21 -64 21q-48 0 -90.5 -31t-68.5 -83v-253q37 -6 76 -23v-21h-348v24zM-16 -55h428v-57h-428v57z" />
    <glyph glyph-name="s" unicode="s" horiz-adv-x="547" 
d="M135.5 10.5q-70.5 20.5 -105.5 51.5l11 121h41q14 -45 14 -98q18 -16 49.5 -26.5t64.5 -10.5q48 0 80.5 20t32.5 60q0 29 -27 45t-82 33q-55 18 -89 34.5t-59 48t-25 81.5q0 64 65.5 100.5t162.5 36.5q146 0 221 -63l-11 -110h-41q-14 44 -14 91q-14 11 -47 19t-66 8
q-35 0 -57.5 -13t-22.5 -42q0 -28 26.5 -44t81.5 -34t91 -35.5t61.5 -51.5t25.5 -88q0 -81 -67.5 -117.5t-167.5 -36.5q-76 0 -146.5 20.5z" />
    <glyph glyph-name="sacute" unicode="&#x15b;" horiz-adv-x="547" 
d="M141 628l127 139q11 13 30.5 27.5t45.5 14.5q30 0 45.5 -16t15.5 -35q0 -21 -15 -38.5t-46 -35.5l-172 -100zM135.5 10.5q-70.5 20.5 -105.5 51.5l11 121h41q14 -45 14 -98q18 -16 49.5 -26.5t64.5 -10.5q48 0 80.5 20t32.5 60q0 29 -27 45t-82 33q-55 18 -89 34.5
t-59 48t-25 81.5q0 64 65.5 100.5t162.5 36.5q146 0 221 -63l-11 -110h-41q-14 44 -14 91q-14 11 -47 19t-66 8q-35 0 -57.5 -13t-22.5 -42q0 -28 26.5 -44t81.5 -34t91 -35.5t61.5 -51.5t25.5 -88q0 -81 -67.5 -117.5t-167.5 -36.5q-76 0 -146.5 20.5z" />
    <glyph glyph-name="scaron" unicode="&#x161;" horiz-adv-x="547" 
d="M152 663.5q-60 54.5 -95 76.5l79 55q35 -28 77.5 -72t58.5 -70h3q16 26 58.5 70t77.5 72l79 -55q-35 -22 -95 -76.5t-76 -79.5h-91q-16 25 -76 79.5zM135.5 10.5q-70.5 20.5 -105.5 51.5l11 121h41q14 -45 14 -98q18 -16 49.5 -26.5t64.5 -10.5q48 0 80.5 20t32.5 60
q0 29 -27 45t-82 33q-55 18 -89 34.5t-59 48t-25 81.5q0 64 65.5 100.5t162.5 36.5q146 0 221 -63l-11 -110h-41q-14 44 -14 91q-14 11 -47 19t-66 8q-35 0 -57.5 -13t-22.5 -42q0 -28 26.5 -44t81.5 -34t91 -35.5t61.5 -51.5t25.5 -88q0 -81 -67.5 -117.5t-167.5 -36.5
q-76 0 -146.5 20.5z" />
    <glyph glyph-name="scedilla" unicode="&#x15f;" horiz-adv-x="547" 
d="M460.5 34q-56.5 -37 -143.5 -43l-24 -48l21 -1q56 -6 82 -33.5t26 -62.5q0 -57 -46.5 -88.5t-115.5 -31.5q-35 0 -72 11t-63 29l29 46q16 -10 40 -16.5t49 -6.5q38 0 62 13t24 44q0 26 -21.5 36.5t-52.5 10.5q-15 0 -22 -1l-28 37l32 63q-64 5 -120.5 24.5t-86.5 45.5
l11 121h41q14 -45 14 -98q18 -16 49.5 -26.5t64.5 -10.5q48 0 80.5 20t32.5 60q0 29 -27 45t-82 33q-55 18 -89 34.5t-59 48t-25 81.5q0 64 65.5 100.5t162.5 36.5q146 0 221 -63l-11 -110h-41q-14 44 -14 91q-14 11 -47 19t-66 8q-35 0 -57.5 -13t-22.5 -42q0 -28 26.5 -44
t81.5 -34t91 -35.5t61.5 -51.5t25.5 -88q0 -73 -56.5 -110z" />
    <glyph glyph-name="scircumflex" unicode="&#x15d;" horiz-adv-x="547" 
d="M57 639q35 22 95 76.5t76 79.5h91q16 -25 76 -79.5t95 -76.5l-79 -55q-35 28 -77.5 72t-58.5 70h-3q-16 -26 -58.5 -70t-77.5 -72zM135.5 10.5q-70.5 20.5 -105.5 51.5l11 121h41q14 -45 14 -98q18 -16 49.5 -26.5t64.5 -10.5q48 0 80.5 20t32.5 60q0 29 -27 45t-82 33
q-55 18 -89 34.5t-59 48t-25 81.5q0 64 65.5 100.5t162.5 36.5q146 0 221 -63l-11 -110h-41q-14 44 -14 91q-14 11 -47 19t-66 8q-35 0 -57.5 -13t-22.5 -42q0 -28 26.5 -44t81.5 -34t91 -35.5t61.5 -51.5t25.5 -88q0 -81 -67.5 -117.5t-167.5 -36.5q-76 0 -146.5 20.5z" />
    <glyph glyph-name="scommaaccent" unicode="&#x219;" horiz-adv-x="547" 
d="M135.5 10.5q-70.5 20.5 -105.5 51.5l11 121h41q14 -45 14 -98q18 -16 49.5 -26.5t64.5 -10.5q48 0 80.5 20t32.5 60q0 29 -27 45t-82 33q-55 18 -89 34.5t-59 48t-25 81.5q0 64 65.5 100.5t162.5 36.5q146 0 221 -63l-11 -110h-41q-14 44 -14 91q-14 11 -47 19t-66 8
q-35 0 -57.5 -13t-22.5 -42q0 -28 26.5 -44t81.5 -34t91 -35.5t61.5 -51.5t25.5 -88q0 -81 -67.5 -117.5t-167.5 -36.5q-76 0 -146.5 20.5zM186 -335q25 24 49 58t30 65q-33 4 -56.5 28t-23.5 55q0 36 25 57.5t61 21.5q44 0 68 -24.5t24 -60.5q0 -66 -33.5 -133t-84.5 -111z
" />
    <glyph glyph-name="uni1E61" unicode="&#x1e61;" horiz-adv-x="547" 
d="M220.5 604.5q-19.5 20.5 -19.5 51.5t19.5 52t52.5 21t53 -21t20 -52t-20 -51.5t-53 -20.5t-52.5 20.5zM135.5 10.5q-70.5 20.5 -105.5 51.5l11 121h41q14 -45 14 -98q18 -16 49.5 -26.5t64.5 -10.5q48 0 80.5 20t32.5 60q0 29 -27 45t-82 33q-55 18 -89 34.5t-59 48
t-25 81.5q0 64 65.5 100.5t162.5 36.5q146 0 221 -63l-11 -110h-41q-14 44 -14 91q-14 11 -47 19t-66 8q-35 0 -57.5 -13t-22.5 -42q0 -28 26.5 -44t81.5 -34t91 -35.5t61.5 -51.5t25.5 -88q0 -81 -67.5 -117.5t-167.5 -36.5q-76 0 -146.5 20.5z" />
    <glyph glyph-name="uni1E63" unicode="&#x1e63;" horiz-adv-x="547" 
d="M135.5 10.5q-70.5 20.5 -105.5 51.5l11 121h41q14 -45 14 -98q18 -16 49.5 -26.5t64.5 -10.5q48 0 80.5 20t32.5 60q0 29 -27 45t-82 33q-55 18 -89 34.5t-59 48t-25 81.5q0 64 65.5 100.5t162.5 36.5q146 0 221 -63l-11 -110h-41q-14 44 -14 91q-14 11 -47 19t-66 8
q-35 0 -57.5 -13t-22.5 -42q0 -28 26.5 -44t81.5 -34t91 -35.5t61.5 -51.5t25.5 -88q0 -81 -67.5 -117.5t-167.5 -36.5q-76 0 -146.5 20.5zM224.5 -174.5q-19.5 20.5 -19.5 51.5t19.5 52t52.5 21t53 -21t20 -52t-20 -51.5t-53 -20.5t-52.5 20.5z" />
    <glyph glyph-name="germandbls" unicode="&#xdf;" horiz-adv-x="817" 
d="M566.5 353q23.5 -16 72.5 -34t81 -35.5t54.5 -51.5t22.5 -88q0 -83 -63.5 -118.5t-164.5 -35.5q-72 0 -122 19t-88 53l11 121h41q14 -45 14 -98q21 -18 41.5 -27.5t51.5 -9.5q42 0 63.5 22.5t21.5 57.5q0 29 -23.5 45t-71.5 33q-48 18 -77.5 34.5t-51 48t-21.5 81.5
q0 45 32.5 75.5t77.5 46.5q-1 59 -23.5 117.5t-77.5 58.5q-30 0 -50.5 -21t-20.5 -70v-533q28 -5 78 -22v-22h-350v24l78 22v395h-92v57h92v39q0 64 38 106.5t100 62.5t134 20q173 0 222.5 -80t49.5 -170v-27q-40 0 -71.5 -12t-31.5 -40t23.5 -44z" />
    <glyph glyph-name="uni0259" unicode="&#x259;" horiz-adv-x="616" 
d="M454.5 475q67.5 -32 102.5 -90.5t35 -135.5q0 -124 -78.5 -191.5t-220.5 -67.5q-90 0 -150.5 32.5t-89.5 87t-29 120.5v34h372q-3 81 -37.5 134.5t-104.5 53.5q-42 0 -94 -15t-91 -44l-18 42q36 30 102 51t141 21q93 0 160.5 -32zM361.5 93q25.5 45 32.5 113h-201
q0 -33 9.5 -69.5t32.5 -62.5t59 -26q42 0 67.5 45z" />
    <glyph glyph-name="t" unicode="t" horiz-adv-x="438" 
d="M417 13q-61 -23 -155 -23q-198 0 -198 147v304h-70v57h70q82 22 97 134h97v-134h140v-57h-140v-304q0 -51 22.5 -68t61.5 -17q36 0 65 11z" />
    <glyph glyph-name="tbar" unicode="&#x167;" horiz-adv-x="438" 
d="M417 13q-61 -23 -155 -23q-198 0 -198 147v118h-73v57h73v129h-70v57h70q82 22 97 134h97v-134h140v-57h-140v-129h126v-57h-126v-118q0 -51 22.5 -68t61.5 -17q36 0 65 11z" />
    <glyph glyph-name="tcaron" unicode="&#x165;" horiz-adv-x="658" 
d="M589 680.5q24 -29.5 24 -68.5q0 -64 -35.5 -129t-87.5 -110l-59 44q68 65 78 117q-39 0 -62 24t-23 57q0 40 23.5 67.5t67.5 27.5q50 0 74 -29.5zM407 63l10 -50q-61 -23 -155 -23q-198 0 -198 147v304h-70v57h70q82 22 97 134h97v-134h140v-57h-140v-304q0 -51 22.5 -68
t61.5 -17q36 0 65 11z" />
    <glyph glyph-name="uni0163" unicode="&#x163;" horiz-adv-x="438" 
d="M359 -91.5q26 -27.5 26 -62.5q0 -57 -46.5 -88.5t-115.5 -31.5q-35 0 -72 11t-63 29l29 46q16 -10 40 -16.5t49 -6.5q38 0 62 13t24 44q0 26 -21.5 36.5t-52.5 10.5q-15 0 -22 -1l-28 37l33 65q-137 20 -137 143v304h-70v57h70q82 22 97 134h97v-134h140v-57h-140v-304
q0 -51 22.5 -68t61.5 -17q36 0 65 11l10 -50q-57 -21 -137 -23l-24 -47l21 -1q56 -6 82 -33.5z" />
    <glyph glyph-name="uni021B" unicode="&#x21b;" horiz-adv-x="438" 
d="M262 -10q-198 0 -198 147v304h-70v57h70q82 22 97 134h97v-134h140v-57h-140v-304q0 -51 22.5 -68t61.5 -17q36 0 65 11l10 -50q-61 -23 -155 -23zM303 -113.5q24 -24.5 24 -60.5q0 -65 -33 -129.5t-84 -108.5l-59 44q68 65 78 117q-33 4 -56.5 28t-23.5 55q0 36 25 57.5
t61 21.5q44 0 68 -24.5z" />
    <glyph glyph-name="uni1E97" unicode="&#x1e97;" horiz-adv-x="438" 
d="M39.5 713.5q-19.5 20.5 -19.5 51.5t19.5 52t52.5 21t53 -21t20 -52t-20 -51.5t-53 -20.5t-52.5 20.5zM292.5 713.5q-19.5 20.5 -19.5 51.5t19.5 52t52.5 21t53 -21t20 -52t-20 -51.5t-53 -20.5t-52.5 20.5zM407 63l10 -50q-61 -23 -155 -23q-198 0 -198 147v304h-70v57
h70q82 22 97 134h97v-134h140v-57h-140v-304q0 -51 22.5 -68t61.5 -17q36 0 65 11z" />
    <glyph glyph-name="uni1E6D" unicode="&#x1e6d;" horiz-adv-x="438" 
d="M262 -10q-198 0 -198 147v304h-70v57h70q82 22 97 134h97v-134h140v-57h-140v-304q0 -51 22.5 -68t61.5 -17q36 0 65 11l10 -50q-61 -23 -155 -23zM296 -71q20 -21 20 -52t-20 -51.5t-53 -20.5t-52.5 20.5t-19.5 51.5t19.5 52t52.5 21t53 -21z" />
    <glyph glyph-name="uni1E6F" unicode="&#x1e6f;" horiz-adv-x="438" 
d="M64 441h-70v57h70q82 22 97 134h97v-134h140v-57h-140v-304q0 -51 22.5 -68t61.5 -17q36 0 65 11l10 -50q-61 -23 -155 -23q-198 0 -198 147v304zM433 -55v-57h-428v57h428z" />
    <glyph glyph-name="u" unicode="u" horiz-adv-x="722" 
d="M712 25v-14l-262 -25v50q-33 -21 -73.5 -33.5t-80.5 -12.5q-102 0 -160.5 36t-58.5 103v323q-19 4 -67 20v14l261 25v-372q0 -51 19.5 -71t57.5 -20q16 0 45.5 12t56.5 33v359q-16 3 -66 20v14l260 25v-466q22 -5 68 -20z" />
    <glyph glyph-name="uacute" unicode="&#xfa;" horiz-adv-x="722" 
d="M306 584l-31 44l127 139q11 14 30.5 28t45.5 14q30 0 45.5 -16t15.5 -35q0 -21 -15 -38.5t-46 -35.5zM712 25v-14l-262 -25v50q-33 -21 -73.5 -33.5t-80.5 -12.5q-102 0 -160.5 36t-58.5 103v323q-19 4 -67 20v14l261 25v-372q0 -51 19.5 -71t57.5 -20q16 0 45.5 12
t56.5 33v359q-16 3 -66 20v14l260 25v-466q22 -5 68 -20z" />
    <glyph glyph-name="ubreve" unicode="&#x16d;" horiz-adv-x="722" 
d="M227.5 619q-51.5 35 -64.5 106h106q5 -48 29.5 -64t62.5 -16t62.5 16t29.5 64h106q-13 -71 -64.5 -106t-133.5 -35t-133.5 35zM712 25v-14l-262 -25v50q-33 -21 -73.5 -33.5t-80.5 -12.5q-102 0 -160.5 36t-58.5 103v323q-19 4 -67 20v14l261 25v-372q0 -51 19.5 -71
t57.5 -20q16 0 45.5 12t56.5 33v359q-16 3 -66 20v14l260 25v-466q22 -5 68 -20z" />
    <glyph glyph-name="uni01D4" unicode="&#x1d4;" horiz-adv-x="722" 
d="M239 663.5q-60 54.5 -95 76.5l79 55q35 -28 77.5 -72t58.5 -70h3q16 26 58.5 70t77.5 72l79 -55q-35 -22 -95 -76.5t-76 -79.5h-91q-16 25 -76 79.5zM712 25v-14l-262 -25v50q-33 -21 -73.5 -33.5t-80.5 -12.5q-102 0 -160.5 36t-58.5 103v323q-19 4 -67 20v14l261 25
v-372q0 -51 19.5 -71t57.5 -20q16 0 45.5 12t56.5 33v359q-16 3 -66 20v14l260 25v-466q22 -5 68 -20z" />
    <glyph glyph-name="ucircumflex" unicode="&#xfb;" horiz-adv-x="722" 
d="M300.5 656q-42.5 -44 -77.5 -72l-79 55q35 22 95 76.5t76 79.5h91q16 -25 76 -79.5t95 -76.5l-79 -55q-35 28 -77.5 72t-58.5 70h-3q-16 -26 -58.5 -70zM712 25v-14l-262 -25v50q-33 -21 -73.5 -33.5t-80.5 -12.5q-102 0 -160.5 36t-58.5 103v323q-19 4 -67 20v14l261 25
v-372q0 -51 19.5 -71t57.5 -20q16 0 45.5 12t56.5 33v359q-16 3 -66 20v14l260 25v-466q22 -5 68 -20z" />
    <glyph glyph-name="udieresis" unicode="&#xfc;" horiz-adv-x="722" 
d="M181.5 604.5q-19.5 20.5 -19.5 51.5t19.5 52t52.5 21t53 -21t20 -52t-20 -51.5t-53 -20.5t-52.5 20.5zM434.5 604.5q-19.5 20.5 -19.5 51.5t19.5 52t52.5 21t53 -21t20 -52t-20 -51.5t-53 -20.5t-52.5 20.5zM712 25v-14l-262 -25v50q-33 -21 -73.5 -33.5t-80.5 -12.5
q-102 0 -160.5 36t-58.5 103v323q-19 4 -67 20v14l261 25v-372q0 -51 19.5 -71t57.5 -20q16 0 45.5 12t56.5 33v359q-16 3 -66 20v14l260 25v-466q22 -5 68 -20z" />
    <glyph glyph-name="uni01D8" unicode="&#x1d8;" horiz-adv-x="722" 
d="M353 749l-31 39l92 108q11 14 30.5 28t45.5 14q30 0 43 -15.5t13 -35.5q0 -21 -15 -37.5t-46 -32.5zM181.5 604.5q-19.5 20.5 -19.5 51.5t19.5 52t52.5 21t53 -21t20 -52t-20 -51.5t-53 -20.5t-52.5 20.5zM540 708q20 -21 20 -52t-20 -51.5t-53 -20.5t-52.5 20.5
t-19.5 51.5t19.5 52t52.5 21t53 -21zM712 25v-14l-262 -25v50q-33 -21 -73.5 -33.5t-80.5 -12.5q-102 0 -160.5 36t-58.5 103v323q-19 4 -67 20v14l261 25v-372q0 -51 19.5 -71t57.5 -20q16 0 45.5 12t56.5 33v359q-16 3 -66 20v14l260 25v-466q22 -5 68 -20z" />
    <glyph glyph-name="uni01DA" unicode="&#x1da;" horiz-adv-x="722" 
d="M246.5 828q-51.5 52 -84.5 72l79 55q31 -25 65.5 -66t52.5 -71h3q18 30 52.5 71t65.5 66l79 -55q-33 -20 -84.5 -72t-68.5 -79h-91q-17 27 -68.5 79zM181.5 604.5q-19.5 20.5 -19.5 51.5t19.5 52t52.5 21t53 -21t20 -52t-20 -51.5t-53 -20.5t-52.5 20.5zM540 708
q20 -21 20 -52t-20 -51.5t-53 -20.5t-52.5 20.5t-19.5 51.5t19.5 52t52.5 21t53 -21zM712 25v-14l-262 -25v50q-33 -21 -73.5 -33.5t-80.5 -12.5q-102 0 -160.5 36t-58.5 103v323q-19 4 -67 20v14l261 25v-372q0 -51 19.5 -71t57.5 -20q16 0 45.5 12t56.5 33v359
q-16 3 -66 20v14l260 25v-466q22 -5 68 -20z" />
    <glyph glyph-name="uni01DC" unicode="&#x1dc;" horiz-adv-x="722" 
d="M186.5 851.5q-14.5 15.5 -14.5 35.5t13 35.5t43 15.5q26 0 45.5 -14t30.5 -28l92 -108l-31 -39l-132 68q-32 19 -46.5 34.5zM181.5 604.5q-19.5 20.5 -19.5 51.5t19.5 52t52.5 21t53 -21t20 -52t-20 -51.5t-53 -20.5t-52.5 20.5zM434.5 604.5q-19.5 20.5 -19.5 51.5
t19.5 52t52.5 21t53 -21t20 -52t-20 -51.5t-53 -20.5t-52.5 20.5zM712 25v-14l-262 -25v50q-33 -21 -73.5 -33.5t-80.5 -12.5q-102 0 -160.5 36t-58.5 103v323q-19 4 -67 20v14l261 25v-372q0 -51 19.5 -71t57.5 -20q16 0 45.5 12t56.5 33v359q-16 3 -66 20v14l260 25v-466
q22 -5 68 -20z" />
    <glyph glyph-name="uni01D6" unicode="&#x1d6;" horiz-adv-x="722" 
d="M575 784h-428v57h428v-57zM181.5 708q19.5 21 52.5 21t53 -21t20 -52t-20 -51.5t-53 -20.5t-52.5 20.5t-19.5 51.5t19.5 52zM434.5 708q19.5 21 52.5 21t53 -21t20 -52t-20 -51.5t-53 -20.5t-52.5 20.5t-19.5 51.5t19.5 52zM712 25v-14l-262 -25v50q-33 -21 -73.5 -33.5
t-80.5 -12.5q-102 0 -160.5 36t-58.5 103v323q-19 4 -67 20v14l261 25v-372q0 -51 19.5 -71t57.5 -20q16 0 45.5 12t56.5 33v359q-16 3 -66 20v14l260 25v-466q22 -5 68 -20z" />
    <glyph glyph-name="uni1EE5" unicode="&#x1ee5;" horiz-adv-x="722" 
d="M712 25v-14l-262 -25v50q-33 -21 -73.5 -33.5t-80.5 -12.5q-102 0 -160.5 36t-58.5 103v323q-19 4 -67 20v14l261 25v-372q0 -51 19.5 -71t57.5 -20q16 0 45.5 12t56.5 33v359q-16 3 -66 20v14l260 25v-466q22 -5 68 -20zM413 -71q20 -21 20 -52t-20 -51.5t-53 -20.5
t-52.5 20.5t-19.5 51.5t19.5 52t52.5 21t53 -21z" />
    <glyph glyph-name="ugrave" unicode="&#xf9;" horiz-adv-x="722" 
d="M244 719.5q-15 17.5 -15 38.5q0 19 15.5 35t45.5 16q26 0 45.5 -14t30.5 -28l127 -139l-31 -44l-172 100q-31 18 -46 35.5zM712 25v-14l-262 -25v50q-33 -21 -73.5 -33.5t-80.5 -12.5q-102 0 -160.5 36t-58.5 103v323q-19 4 -67 20v14l261 25v-372q0 -51 19.5 -71
t57.5 -20q16 0 45.5 12t56.5 33v359q-16 3 -66 20v14l260 25v-466q22 -5 68 -20z" />
    <glyph glyph-name="uni1EE7" unicode="&#x1ee7;" horiz-adv-x="722" 
d="M281 785l-7 45q40 19 92 19q57 0 97 -24.5t40 -75.5q0 -47 -27.5 -67.5t-75.5 -24.5l-10 -73h-78l-5 114h47q21 0 38.5 12t17.5 40q0 21 -17 36t-48 15q-36 0 -64 -16zM712 25v-14l-262 -25v50q-33 -21 -73.5 -33.5t-80.5 -12.5q-102 0 -160.5 36t-58.5 103v323
q-19 4 -67 20v14l261 25v-372q0 -51 19.5 -71t57.5 -20q16 0 45.5 12t56.5 33v359q-16 3 -66 20v14l260 25v-466q22 -5 68 -20z" />
    <glyph glyph-name="uhorn" unicode="&#x1b0;" horiz-adv-x="792" 
d="M450 36q-35 -21 -74.5 -33.5t-79.5 -12.5q-102 0 -160.5 36t-58.5 103v323q-19 4 -67 20v14l261 25v-372q0 -51 19.5 -71t57.5 -20q16 0 45.5 12t56.5 33v359q-16 3 -66 20v19h232q50 0 77.5 13.5t38.5 49.5q-5 -1 -14 -1q-32 0 -51.5 19.5t-19.5 53.5q0 30 19 53t67 23
q91 0 91 -92q0 -32 -18.5 -70.5t-59 -70.5t-102.5 -44v-380q22 -5 68 -20v-14l-262 -25v50z" />
    <glyph glyph-name="uni1EE9" unicode="&#x1ee9;" horiz-adv-x="792" 
d="M285 628l127 139q11 14 30.5 28t45.5 14q30 0 45.5 -16t15.5 -35q0 -21 -15 -38.5t-46 -35.5l-172 -100zM450 36q-35 -21 -74.5 -33.5t-79.5 -12.5q-102 0 -160.5 36t-58.5 103v323q-19 4 -67 20v14l261 25v-372q0 -51 19.5 -71t57.5 -20q16 0 45.5 12t56.5 33v359
q-16 3 -66 20v19h232q50 0 77.5 13.5t38.5 49.5q-5 -1 -14 -1q-32 0 -51.5 19.5t-19.5 53.5q0 30 19 53t67 23q91 0 91 -92q0 -32 -18.5 -70.5t-59 -70.5t-102.5 -44v-380q22 -5 68 -20v-14l-262 -25v50z" />
    <glyph glyph-name="uni1EF1" unicode="&#x1ef1;" horiz-adv-x="792" 
d="M450 36q-35 -21 -74.5 -33.5t-79.5 -12.5q-102 0 -160.5 36t-58.5 103v323q-19 4 -67 20v14l261 25v-372q0 -51 19.5 -71t57.5 -20q16 0 45.5 12t56.5 33v359q-16 3 -66 20v19h232q50 0 77.5 13.5t38.5 49.5q-5 -1 -14 -1q-32 0 -51.5 19.5t-19.5 53.5q0 30 19 53t67 23
q91 0 91 -92q0 -32 -18.5 -70.5t-59 -70.5t-102.5 -44v-380q22 -5 68 -20v-14l-262 -25v50zM327.5 -174.5q-19.5 20.5 -19.5 51.5t19.5 52t52.5 21t53 -21t20 -52t-20 -51.5t-53 -20.5t-52.5 20.5z" />
    <glyph glyph-name="uni1EEB" unicode="&#x1eeb;" horiz-adv-x="792" 
d="M269 684q-31 18 -46 35.5t-15 38.5q0 19 15.5 35t45.5 16q26 0 45.5 -14.5t30.5 -27.5l127 -139l-31 -44zM450 36q-35 -21 -74.5 -33.5t-79.5 -12.5q-102 0 -160.5 36t-58.5 103v323q-19 4 -67 20v14l261 25v-372q0 -51 19.5 -71t57.5 -20q16 0 45.5 12t56.5 33v359
q-16 3 -66 20v19h232q50 0 77.5 13.5t38.5 49.5q-5 -1 -14 -1q-32 0 -51.5 19.5t-19.5 53.5q0 30 19 53t67 23q91 0 91 -92q0 -32 -18.5 -70.5t-59 -70.5t-102.5 -44v-380q22 -5 68 -20v-14l-262 -25v50z" />
    <glyph glyph-name="uni1EED" unicode="&#x1eed;" horiz-adv-x="792" 
d="M299 698h47q21 0 38.5 12t17.5 40q0 21 -17 36t-48 15q-36 0 -64 -16l-7 45q40 19 92 19q57 0 97 -24.5t40 -75.5q0 -47 -27.5 -67.5t-75.5 -24.5l-10 -73h-78zM450 36q-35 -21 -74.5 -33.5t-79.5 -12.5q-102 0 -160.5 36t-58.5 103v323q-19 4 -67 20v14l261 25v-372
q0 -51 19.5 -71t57.5 -20q16 0 45.5 12t56.5 33v359q-16 3 -66 20v19h232q50 0 77.5 13.5t38.5 49.5q-5 -1 -14 -1q-32 0 -51.5 19.5t-19.5 53.5q0 30 19 53t67 23q91 0 91 -92q0 -32 -18.5 -70.5t-59 -70.5t-102.5 -44v-380q22 -5 68 -20v-14l-262 -25v50z" />
    <glyph glyph-name="uni1EEF" unicode="&#x1eef;" horiz-adv-x="792" 
d="M182 679.5q35 32.5 94 32.5q31 0 55 -8.5t51 -22.5q14 -7 28 -13t25 -6q21 0 34.5 9.5t20.5 41.5h93q-6 -60 -39 -94.5t-98 -34.5q-24 0 -49 8t-57 23l-33 13t-25 6q-21 0 -34 -13t-17 -37h-93q9 63 44 95.5zM450 36q-35 -21 -74.5 -33.5t-79.5 -12.5q-102 0 -160.5 36
t-58.5 103v323q-19 4 -67 20v14l261 25v-372q0 -51 19.5 -71t57.5 -20q16 0 45.5 12t56.5 33v359q-16 3 -66 20v19h232q50 0 77.5 13.5t38.5 49.5q-5 -1 -14 -1q-32 0 -51.5 19.5t-19.5 53.5q0 30 19 53t67 23q91 0 91 -92q0 -32 -18.5 -70.5t-59 -70.5t-102.5 -44v-380
q22 -5 68 -20v-14l-262 -25v50z" />
    <glyph glyph-name="uhungarumlaut" unicode="&#x171;" horiz-adv-x="722" 
d="M177 582l-31 44l127 139q11 14 30.5 28t45.5 14q30 0 45.5 -16t15.5 -35q0 -21 -15 -38.5t-46 -35.5zM380 626l127 139q11 14 30.5 28t45.5 14q30 0 45.5 -16t15.5 -35q0 -21 -15 -38.5t-46 -35.5l-172 -100zM712 25v-14l-262 -25v50q-33 -21 -73.5 -33.5t-80.5 -12.5
q-102 0 -160.5 36t-58.5 103v323q-19 4 -67 20v14l261 25v-372q0 -51 19.5 -71t57.5 -20q16 0 45.5 12t56.5 33v359q-16 3 -66 20v14l260 25v-466q22 -5 68 -20z" />
    <glyph glyph-name="umacron" unicode="&#x16b;" horiz-adv-x="722" 
d="M575 584h-428v57h428v-57zM712 25v-14l-262 -25v50q-33 -21 -73.5 -33.5t-80.5 -12.5q-102 0 -160.5 36t-58.5 103v323q-19 4 -67 20v14l261 25v-372q0 -51 19.5 -71t57.5 -20q16 0 45.5 12t56.5 33v359q-16 3 -66 20v14l260 25v-466q22 -5 68 -20z" />
    <glyph glyph-name="uogonek" unicode="&#x173;" horiz-adv-x="722" 
d="M754 -100v-77q-20 -15 -55.5 -23.5t-75.5 -8.5q-72 0 -112 25t-40 71q0 29 17.5 59t48.5 48l-87 -8v50q-33 -21 -73.5 -33.5t-80.5 -12.5q-102 0 -160.5 36t-58.5 103v323q-19 4 -67 20v14l261 25v-372q0 -51 19.5 -71t57.5 -20q16 0 45.5 12t56.5 33v359q-16 3 -66 20
v14l260 25v-466q22 -5 68 -20v-14l-54 -5q-16 -15 -28.5 -37.5t-12.5 -41.5q0 -22 17 -37t45 -15q35 0 75 25z" />
    <glyph glyph-name="uring" unicode="&#x16f;" horiz-adv-x="722" 
d="M274.5 614.5q-32.5 30.5 -32.5 80.5t32.5 80.5t86.5 30.5t86.5 -30.5t32.5 -80.5t-32.5 -80.5t-86.5 -30.5t-86.5 30.5zM319 736q-17 -16 -17 -41t17 -41t42 -16t42 16t17 41t-17 41t-42 16t-42 -16zM712 25v-14l-262 -25v50q-33 -21 -73.5 -33.5t-80.5 -12.5
q-102 0 -160.5 36t-58.5 103v323q-19 4 -67 20v14l261 25v-372q0 -51 19.5 -71t57.5 -20q16 0 45.5 12t56.5 33v359q-16 3 -66 20v14l260 25v-466q22 -5 68 -20z" />
    <glyph glyph-name="utilde" unicode="&#x169;" horiz-adv-x="722" 
d="M248 621q-13 -13 -17 -37h-93q9 63 44 95.5t94 32.5q31 0 55 -8.5t51 -22.5q14 -7 28 -13t25 -6q21 0 34.5 9.5t20.5 41.5h93q-6 -60 -39 -94.5t-98 -34.5q-24 0 -49 8t-57 23l-33 13t-25 6q-21 0 -34 -13zM712 25v-14l-262 -25v50q-33 -21 -73.5 -33.5t-80.5 -12.5
q-102 0 -160.5 36t-58.5 103v323q-19 4 -67 20v14l261 25v-372q0 -51 19.5 -71t57.5 -20q16 0 45.5 12t56.5 33v359q-16 3 -66 20v14l260 25v-466q22 -5 68 -20z" />
    <glyph glyph-name="v" unicode="v" horiz-adv-x="645" 
d="M70 455q-25 6 -64 23v20h326l-1 -19q-8 -6 -31 -12.5t-45 -10.5l114 -324l115 325q-6 1 -33 7t-39 12v22h227v-19q-12 -7 -30.5 -14t-33.5 -11l-172 -454h-157z" />
    <glyph glyph-name="w" unicode="w" horiz-adv-x="865" 
d="M75 455q-37 9 -69 23v20h331v-30q-34 -11 -73 -15l68 -248l91 246h97l100 -292l82 295q-34 9 -73 23v21h230v-20q-57 -20 -69 -23l-126 -455h-135l-95 290l-103 -290h-130z" />
    <glyph glyph-name="wacute" unicode="&#x1e83;" horiz-adv-x="865" 
d="M385 628l127 139q11 13 30.5 27.5t45.5 14.5q30 0 45.5 -16t15.5 -35q0 -21 -15 -38.5t-46 -35.5l-172 -100zM75 455q-37 9 -69 23v20h331v-30q-34 -11 -73 -15l68 -248l91 246h97l100 -292l82 295q-34 9 -73 23v21h230v-20q-57 -20 -69 -23l-126 -455h-135l-95 290
l-103 -290h-130z" />
    <glyph glyph-name="wcircumflex" unicode="&#x175;" horiz-adv-x="865" 
d="M261 639q35 22 95 76.5t76 79.5h91q16 -25 76 -79.5t95 -76.5l-79 -55q-35 28 -77.5 72t-58.5 70h-3q-16 -26 -58.5 -70t-77.5 -72zM75 455q-37 9 -69 23v20h331v-30q-34 -11 -73 -15l68 -248l91 246h97l100 -292l82 295q-34 9 -73 23v21h230v-20q-57 -20 -69 -23
l-126 -455h-135l-95 290l-103 -290h-130z" />
    <glyph glyph-name="wdieresis" unicode="&#x1e85;" horiz-adv-x="865" 
d="M298.5 604.5q-19.5 20.5 -19.5 51.5t19.5 52t52.5 21t53 -21t20 -52t-20 -51.5t-53 -20.5t-52.5 20.5zM551.5 604.5q-19.5 20.5 -19.5 51.5t19.5 52t52.5 21t53 -21t20 -52t-20 -51.5t-53 -20.5t-52.5 20.5zM75 455q-37 9 -69 23v20h331v-30q-34 -11 -73 -15l68 -248
l91 246h97l100 -292l82 295q-34 9 -73 23v21h230v-20q-57 -20 -69 -23l-126 -455h-135l-95 290l-103 -290h-130z" />
    <glyph glyph-name="wgrave" unicode="&#x1e81;" horiz-adv-x="865" 
d="M358 684q-31 18 -46 35.5t-15 38.5q0 19 15.5 35t45.5 16q26 0 45.5 -14t30.5 -28l127 -139l-31 -44zM75 455q-37 9 -69 23v20h331v-30q-34 -11 -73 -15l68 -248l91 246h97l100 -292l82 295q-34 9 -73 23v21h230v-20q-57 -20 -69 -23l-126 -455h-135l-95 290l-103 -290
h-130z" />
    <glyph glyph-name="x" unicode="x" horiz-adv-x="678" 
d="M668 21v-21h-331v23q56 20 66 22l-100 132l-131 -133q13 -2 49 -13l13.5 -4l12.5 -4v-23h-237v20q6 2 34 12t44 13l178 181l-171 226q-21 4 -71 27v19h324v-23q-39 -14 -42 -15q-17 -6 -25 -7l90 -119l119 121q-43 10 -74 22v21h237v-20q-18 -10 -40.5 -16.5t-38.5 -9.5
l-166 -168l181 -240q27 -5 79 -23z" />
    <glyph glyph-name="y" unicode="y" horiz-adv-x="662" 
d="M652 498v-19q-50 -20 -70 -25l-210 -516q-29 -71 -68.5 -101.5t-104.5 -30.5q-59 0 -128 36l31 82q33 -13 57 -20t46 -7q26 0 45 15.5t41 68.5l9 21l-230 454q-40 9 -64 22v20h328v-22q-19 -8 -84 -18l126 -269l112 273q-38 8 -55 15v21h219z" />
    <glyph glyph-name="yacute" unicode="&#xfd;" horiz-adv-x="662" 
d="M331 584l-31 44l127 139q11 13 30.5 27.5t45.5 14.5q30 0 45.5 -16t15.5 -35q0 -21 -15 -38.5t-46 -35.5zM652 498v-19q-50 -20 -70 -25l-210 -516q-29 -71 -68.5 -101.5t-104.5 -30.5q-59 0 -128 36l31 82q33 -13 57 -20t46 -7q26 0 45 15.5t41 68.5l9 21l-230 454
q-40 9 -64 22v20h328v-22q-19 -8 -84 -18l126 -269l112 273q-38 8 -55 15v21h219z" />
    <glyph glyph-name="ycircumflex" unicode="&#x177;" horiz-adv-x="662" 
d="M310.5 656q-42.5 -44 -77.5 -72l-79 55q35 22 95 76.5t76 79.5h91q16 -25 76 -79.5t95 -76.5l-79 -55q-35 28 -77.5 72t-58.5 70h-3q-16 -26 -58.5 -70zM652 498v-19q-50 -20 -70 -25l-210 -516q-29 -71 -68.5 -101.5t-104.5 -30.5q-59 0 -128 36l31 82q33 -13 57 -20
t46 -7q26 0 45 15.5t41 68.5l9 21l-230 454q-40 9 -64 22v20h328v-22q-19 -8 -84 -18l126 -269l112 273q-38 8 -55 15v21h219z" />
    <glyph glyph-name="ydieresis" unicode="&#xff;" horiz-adv-x="662" 
d="M185.5 604.5q-19.5 20.5 -19.5 51.5t19.5 52t52.5 21t53 -21t20 -52t-20 -51.5t-53 -20.5t-52.5 20.5zM438.5 604.5q-19.5 20.5 -19.5 51.5t19.5 52t52.5 21t53 -21t20 -52t-20 -51.5t-53 -20.5t-52.5 20.5zM652 498v-19q-50 -20 -70 -25l-210 -516q-29 -71 -68.5 -101.5
t-104.5 -30.5q-59 0 -128 36l31 82q33 -13 57 -20t46 -7q26 0 45 15.5t41 68.5l9 21l-230 454q-40 9 -64 22v20h328v-22q-19 -8 -84 -18l126 -269l112 273q-38 8 -55 15v21h219z" />
    <glyph glyph-name="uni1E8F" unicode="&#x1e8f;" horiz-adv-x="662" 
d="M283.5 604.5q-19.5 20.5 -19.5 51.5t19.5 52t52.5 21t53 -21t20 -52t-20 -51.5t-53 -20.5t-52.5 20.5zM652 498v-19q-50 -20 -70 -25l-210 -516q-29 -71 -68.5 -101.5t-104.5 -30.5q-59 0 -128 36l31 82q33 -13 57 -20t46 -7q26 0 45 15.5t41 68.5l9 21l-230 454
q-40 9 -64 22v20h328v-22q-19 -8 -84 -18l126 -269l112 273q-38 8 -55 15v21h219z" />
    <glyph glyph-name="uni1EF5" unicode="&#x1ef5;" horiz-adv-x="662" 
d="M652 498v-19q-50 -20 -70 -25l-210 -516q-29 -71 -68.5 -101.5t-104.5 -30.5q-59 0 -128 36l31 82q33 -13 57 -20t46 -7q26 0 45 15.5t41 68.5l9 21l-230 454q-40 9 -64 22v20h328v-22q-19 -8 -84 -18l126 -269l112 273q-38 8 -55 15v21h219zM559 -71q20 -21 20 -52
t-20 -51.5t-53 -20.5t-52.5 20.5t-19.5 51.5t19.5 52t52.5 21t53 -21z" />
    <glyph glyph-name="ygrave" unicode="&#x1ef3;" horiz-adv-x="662" 
d="M198 719.5q-15 17.5 -15 38.5q0 19 15.5 35t45.5 16q26 0 45.5 -14.5t30.5 -27.5l127 -139l-31 -44l-172 100q-31 18 -46 35.5zM652 498v-19q-50 -20 -70 -25l-210 -516q-29 -71 -68.5 -101.5t-104.5 -30.5q-59 0 -128 36l31 82q33 -13 57 -20t46 -7q26 0 45 15.5
t41 68.5l9 21l-230 454q-40 9 -64 22v20h328v-22q-19 -8 -84 -18l126 -269l112 273q-38 8 -55 15v21h219z" />
    <glyph glyph-name="uni1EF7" unicode="&#x1ef7;" horiz-adv-x="662" 
d="M285 785l-7 45q40 19 92 19q57 0 97 -24.5t40 -75.5q0 -47 -27.5 -67.5t-75.5 -24.5l-10 -73h-78l-5 114h47q21 0 38.5 12t17.5 40q0 21 -17 36t-48 15q-36 0 -64 -16zM652 498v-19q-50 -20 -70 -25l-210 -516q-29 -71 -68.5 -101.5t-104.5 -30.5q-59 0 -128 36l31 82
q33 -13 57 -20t46 -7q26 0 45 15.5t41 68.5l9 21l-230 454q-40 9 -64 22v20h328v-22q-19 -8 -84 -18l126 -269l112 273q-38 8 -55 15v21h219z" />
    <glyph glyph-name="uni1EF9" unicode="&#x1ef9;" horiz-adv-x="662" 
d="M237 621q-13 -13 -17 -37h-93q9 63 44 95.5t94 32.5q31 0 55 -8.5t51 -22.5q14 -7 28 -13t25 -6q21 0 34.5 9.5t20.5 41.5h93q-6 -60 -39 -94.5t-98 -34.5q-24 0 -49 8t-57 23l-33 13t-25 6q-21 0 -34 -13zM652 498v-19q-50 -20 -70 -25l-210 -516q-29 -71 -68.5 -101.5
t-104.5 -30.5q-59 0 -128 36l31 82q33 -13 57 -20t46 -7q26 0 45 15.5t41 68.5l9 21l-230 454q-40 9 -64 22v20h328v-22q-19 -8 -84 -18l126 -269l112 273q-38 8 -55 15v21h219z" />
    <glyph glyph-name="z" unicode="z" horiz-adv-x="539" 
d="M18 25l302 416h-193q-10 -50 -28 -86h-53v143h475v-31l-299 -410h193q16 48 35 86h60l-13 -143h-479v25z" />
    <glyph glyph-name="zacute" unicode="&#x17a;" horiz-adv-x="539" 
d="M204 628l127 139q11 14 30.5 28t45.5 14q30 0 45.5 -16t15.5 -35q0 -21 -15 -38.5t-46 -35.5l-172 -100zM18 25l302 416h-193q-10 -50 -28 -86h-53v143h475v-31l-299 -410h193q16 48 35 86h60l-13 -143h-479v25z" />
    <glyph glyph-name="zcaron" unicode="&#x17e;" horiz-adv-x="539" 
d="M167 663.5q-60 54.5 -95 76.5l79 55q35 -28 77.5 -72t58.5 -70h3q16 26 58.5 70t77.5 72l79 -55q-35 -22 -95 -76.5t-76 -79.5h-91q-16 25 -76 79.5zM18 25l302 416h-193q-10 -50 -28 -86h-53v143h475v-31l-299 -410h193q16 48 35 86h60l-13 -143h-479v25z" />
    <glyph glyph-name="zdotaccent" unicode="&#x17c;" horiz-adv-x="539" 
d="M243.5 604.5q-19.5 20.5 -19.5 51.5t19.5 52t52.5 21t53 -21t20 -52t-20 -51.5t-53 -20.5t-52.5 20.5zM18 25l302 416h-193q-10 -50 -28 -86h-53v143h475v-31l-299 -410h193q16 48 35 86h60l-13 -143h-479v25z" />
    <glyph glyph-name="uni1E93" unicode="&#x1e93;" horiz-adv-x="539" 
d="M18 25l302 416h-193q-10 -50 -28 -86h-53v143h475v-31l-299 -410h193q16 48 35 86h60l-13 -143h-479v25zM216.5 -174.5q-19.5 20.5 -19.5 51.5t19.5 52t52.5 21t53 -21t20 -52t-20 -51.5t-53 -20.5t-52.5 20.5z" />
    <glyph glyph-name="ordfeminine" unicode="&#xaa;" horiz-adv-x="412" 
d="M50 403q-27 24 -27 72q0 52 37.5 75.5t101.5 23.5h72v39q0 61 -65 61q-47 0 -109 -29l-6 31q31 16 71 25t82 9q71 0 111 -25.5t40 -68.5v-198l44 -12v-9l-168 -16v37q-13 -17 -38.5 -28t-55.5 -11q-63 0 -90 24zM213.5 427q12.5 9 20.5 25v84h-43q-22 0 -33.5 -16.5
t-11.5 -44.5q0 -57 42 -57q13 0 25.5 9z" />
    <glyph glyph-name="ordmasculine" unicode="&#xba;" horiz-adv-x="434" 
d="M71 422.5q-49 43.5 -49 122.5q0 78 49 121.5t146 43.5t146 -43.5t49 -121.5q0 -79 -49 -122.5t-146 -43.5t-146 43.5zM261 464q15 30 15 81t-15 80.5t-43 29.5q-27 0 -43 -30t-16 -80q0 -51 15.5 -81t43.5 -30t43 30z" />
    <glyph glyph-name="uni207F" unicode="&#x207f;" horiz-adv-x="511" 
d="M491 394v-15h-220v13q5 4 18.5 9t25.5 7v207q0 33 -13 45.5t-36 12.5q-37 0 -69 -40v-225q21 -4 51 -14v-15h-228v13q30 14 50 16v266q-8 3 -19 5.5t-25 7.5v10l171 16v-43q46 41 114 41q58 0 94 -24.5t36 -68.5v-210q37 -7 50 -14z" />
    <glyph glyph-name="uni0394" unicode="&#x394;" horiz-adv-x="720" 
d="M30 43l253 667h153l254 -667v-43h-660v43zM494 84l-167 479l-179 -479h346z" />
    <glyph glyph-name="uni03A9" unicode="&#x3a9;" horiz-adv-x="796" 
d="M30 169h30q12 -13 24 -33.5t19 -42.5h152v61q-62 0 -112.5 36.5t-79 95t-28.5 121.5q0 128 92 199.5t271 71.5t271 -71.5t92 -199.5q0 -63 -28.5 -121.5t-79 -95t-112.5 -36.5v-61h152q7 22 19 42.5t24 33.5h30l-15 -169h-298v205q51 15 80.5 63.5t29.5 123.5
q0 94 -44 142.5t-121 48.5t-121 -48.5t-44 -142.5q0 -75 29.5 -123.5t80.5 -63.5v-205h-298z" />
    <glyph glyph-name="uni03BC" unicode="&#x3bc;" horiz-adv-x="722" 
d="M712 25v-14l-262 -25v38q-39 -34 -87 -34q-31 0 -58 14.5t-35 31.5v-213h-193v629q-19 4 -67 20v14l261 25v-351q0 -53 25 -82.5t65 -29.5q16 0 42 9.5t47 27.5v367q-16 3 -66 20v14l260 25v-466q22 -5 68 -20z" />
    <glyph glyph-name="pi" unicode="&#x3c0;" horiz-adv-x="806" 
d="M492.5 19.5q-37.5 29.5 -37.5 88.5v333h-139v-441h-193v441h-103v57h746v-57h-118v-319q0 -28 12.5 -40.5t31.5 -12.5q16 0 32.5 7t26.5 16v-65q-36 -20 -68.5 -28.5t-72.5 -8.5q-80 0 -117.5 29.5z" />
    <glyph glyph-name="uni0E01" unicode="&#xe01;" horiz-adv-x="638" 
d="M45 217q0 38 23.5 76.5t71.5 60.5q-20 15 -50.5 29t-62.5 22v13q36 64 110.5 105t177.5 41q76 0 138 -21t98.5 -63.5t36.5 -104.5v-375h-193v404q0 41 -26.5 67.5t-73.5 26.5q-81 0 -122 -61q35 -9 70.5 -30t61.5 -47v-12q-38 -24 -52.5 -53.5t-14.5 -78.5v-216h-193v217
z" />
    <glyph glyph-name="uni0E16" unicode="&#xe16;" horiz-adv-x="638" 
d="M82 23.5q-37 33.5 -37 91.5v102q0 38 23.5 76.5t71.5 60.5q-20 15 -50.5 29t-62.5 22v13q36 64 110.5 105t177.5 41q76 0 138 -21t98.5 -63.5t36.5 -104.5v-375h-193v404q0 41 -26.5 67.5t-73.5 26.5q-81 0 -122 -61q35 -9 70.5 -30t61.5 -47v-12q-38 -24 -52.5 -53.5
t-14.5 -78.5v-26q37 0 63 -28.5t26 -67.5q0 -50 -32 -77t-96 -27q-80 0 -117 33.5zM243 49.5q14 14.5 14 41.5t-14 41t-35 14t-34.5 -14t-13.5 -41t13.5 -41.5t34.5 -14.5t35 14.5z" />
    <glyph glyph-name="uni0E20" unicode="&#xe20;" horiz-adv-x="673" 
d="M44 17q-32 27 -32 77q0 36 26 63.5t63 31.5v28q0 46 14 81t60 56q-20 15 -50.5 29t-62.5 22v13q36 64 110.5 105t177.5 41q76 0 138 -21t98.5 -63.5t36.5 -104.5v-375h-193v404q0 41 -26.5 67.5t-73.5 26.5q-81 0 -122 -61q35 -9 70.5 -30t61.5 -47v-12q-30 -23 -38 -50
t-8 -82v-101q0 -58 -37 -91.5t-117 -33.5q-64 0 -96 27zM165.5 49.5q13.5 14.5 13.5 41.5t-13.5 41t-34.5 14t-35 -14t-14 -41t14 -41.5t35 -14.5t34.5 14.5z" />
    <glyph glyph-name="uni0E24" unicode="&#xe24;" horiz-adv-x="638" 
d="M395 404q0 41 -26.5 67.5t-73.5 26.5q-81 0 -122 -61q35 -9 70.5 -30t61.5 -47v-12q-38 -24 -52.5 -53.5t-14.5 -78.5v-26q43 -3 66 -31t23 -65q0 -50 -32 -77t-96 -27q-80 0 -117 33.5t-37 91.5v102q0 38 23.5 76.5t71.5 60.5q-20 15 -50.5 29t-62.5 22v13
q36 64 110.5 105t177.5 41q76 0 138 -21t98.5 -63.5t36.5 -104.5v-572h-193v601zM243 49.5q14 14.5 14 41.5t-14 41t-35 14t-34.5 -14t-13.5 -41t13.5 -41.5t34.5 -14.5t35 14.5z" />
    <glyph glyph-name="uni0E24.short" horiz-adv-x="638" 
d="M395 404q0 41 -26.5 67.5t-73.5 26.5q-81 0 -122 -61q35 -9 70.5 -30t61.5 -47v-12q-38 -24 -52.5 -53.5t-14.5 -78.5v-26q43 -3 66 -31t23 -65q0 -50 -32 -77t-96 -27q-80 0 -117 33.5t-37 91.5v102q0 38 23.5 76.5t71.5 60.5q-20 15 -50.5 29t-62.5 22v13
q36 64 110.5 105t177.5 41q76 0 138 -21t98.5 -63.5t36.5 -104.5v-493h-193v522zM243 49.5q14 14.5 14 41.5t-14 41t-35 14t-34.5 -14t-13.5 -41t13.5 -41.5t34.5 -14.5t35 14.5z" />
    <glyph glyph-name="uni0E26" unicode="&#xe26;" horiz-adv-x="673" 
d="M430 404q0 41 -26.5 67.5t-73.5 26.5q-81 0 -122 -61q35 -9 70.5 -30t61.5 -47v-12q-30 -23 -38 -50t-8 -82v-101q0 -58 -37 -91.5t-117 -33.5q-64 0 -96 27t-32 77q0 34 24 62.5t65 32.5v28q0 46 14 81t60 56q-20 15 -50.5 29t-62.5 22v13q36 64 110.5 105t177.5 41
q76 0 138 -21t98.5 -63.5t36.5 -104.5v-572h-193v601zM165.5 49.5q13.5 14.5 13.5 41.5t-13.5 41t-34.5 14t-35 -14t-14 -41t14 -41.5t35 -14.5t34.5 14.5z" />
    <glyph glyph-name="uni0E26.short" horiz-adv-x="673" 
d="M430 404q0 41 -26.5 67.5t-73.5 26.5q-81 0 -122 -61q35 -9 70.5 -30t61.5 -47v-12q-30 -23 -38 -50t-8 -82v-101q0 -58 -37 -91.5t-117 -33.5q-64 0 -96 27t-32 77q0 34 24 62.5t65 32.5v28q0 46 14 81t60 56q-20 15 -50.5 29t-62.5 22v13q36 64 110.5 105t177.5 41
q76 0 138 -21t98.5 -63.5t36.5 -104.5v-493h-193v522zM165.5 49.5q13.5 14.5 13.5 41.5t-13.5 41t-34.5 14t-35 -14t-14 -41t14 -41.5t35 -14.5t34.5 14.5z" />
    <glyph glyph-name="uni0E0E" unicode="&#xe0e;" horiz-adv-x="673" 
d="M488 543q62 -21 98.5 -63.5t36.5 -104.5v-619h-179q-14 48 -70 88q-26 -56 -75 -88.5t-115 -32.5q-79 0 -121 27t-42 78t46.5 83.5t137.5 32.5q49 0 114 -20q2 24 2 36h77q0 -36 -7 -65q25 -13 39 -26v535q0 41 -26.5 67.5t-73.5 26.5q-81 0 -122 -61q35 -9 70.5 -30
t61.5 -47v-12q-30 -23 -38 -50t-8 -82v-101q0 -58 -37 -91.5t-117 -33.5q-64 0 -96 27t-32 77q0 36 26 63.5t63 31.5v28q0 46 14 81t60 56q-20 15 -50.5 29t-62.5 22v13q36 64 110.5 105t177.5 41q76 0 138 -21zM165.5 49.5q13.5 14.5 13.5 41.5t-13.5 41t-34.5 14t-35 -14
t-14 -41t14 -41.5t35 -14.5t34.5 14.5zM258.5 -201.5q35.5 28.5 51.5 80.5q-55 21 -99 21q-45 0 -75.5 -18t-30.5 -50q0 -33 21 -47.5t50 -14.5q47 0 82.5 28.5z" />
    <glyph glyph-name="doChadathai.short" horiz-adv-x="673" 
d="M488 543q62 -21 98.5 -63.5t36.5 -104.5v-579h-179q-14 48 -70 88q-26 -56 -75 -88.5t-115 -32.5q-79 0 -121 27t-42 78t46.5 83.5t137.5 32.5q49 0 114 -20q2 24 2 36h77q0 -36 -7 -65q25 -13 39 -26v495q0 41 -26.5 67.5t-73.5 26.5q-81 0 -122 -61q35 -9 70.5 -30
t61.5 -47v-12q-30 -23 -38 -50t-8 -82v-81q0 -58 -37 -91.5t-117 -33.5q-64 0 -96 27t-32 77q0 36 26 63.5t63 31.5v8q0 46 14 81t60 56q-20 15 -50.5 29t-62.5 22v13q36 64 110.5 105t177.5 41q76 0 138 -21zM165.5 69.5q13.5 14.5 13.5 41.5t-13.5 41t-34.5 14t-35 -14
t-14 -41t14 -41.5t35 -14.5t34.5 14.5zM258.5 -161.5q35.5 28.5 51.5 80.5q-55 21 -99 21q-45 0 -75.5 -18t-30.5 -50q0 -33 21 -47.5t50 -14.5q47 0 82.5 28.5z" />
    <glyph glyph-name="uni0E0F" unicode="&#xe0f;" horiz-adv-x="673" 
d="M488 543q62 -21 98.5 -63.5t36.5 -104.5v-619h-182l-63 60l-52 -60h-26q-10 21 -20 38q-27 -30 -64.5 -46t-81.5 -16q-126 0 -126 95q0 38 34 63.5t106 25.5q53 0 101 -30q5 21 6 44h76q0 -52 -24 -97q9 -14 10 -16l61 63l52 -46v570q0 41 -26.5 67.5t-73.5 26.5
q-81 0 -122 -61q35 -9 70.5 -30t61.5 -47v-12q-30 -23 -38 -50t-8 -82v-101q0 -58 -37 -91.5t-117 -33.5q-64 0 -96 27t-32 77q0 36 26 63.5t63 31.5v28q0 46 14 81t60 56q-20 15 -50.5 29t-62.5 22v13q36 64 110.5 105t177.5 41q76 0 138 -21zM165.5 49.5
q13.5 14.5 13.5 41.5t-13.5 41t-34.5 14t-35 -14t-14 -41t14 -41.5t35 -14.5t34.5 14.5zM195.5 -207.5q24.5 18.5 40.5 52.5q-40 31 -86 31q-29 0 -47.5 -14.5t-18.5 -38.5q0 -23 16.5 -36t40.5 -13q30 0 54.5 18.5z" />
    <glyph glyph-name="toPatakthai.short" horiz-adv-x="673" 
d="M488 543q62 -21 98.5 -63.5t36.5 -104.5v-579h-182l-63 60l-52 -60h-26q-10 21 -20 38q-27 -30 -64.5 -46t-81.5 -16q-126 0 -126 95q0 38 34 63.5t106 25.5q53 0 101 -30q5 21 6 44h76q0 -52 -24 -97q9 -14 10 -16l61 63l52 -46v530q0 41 -26.5 67.5t-73.5 26.5
q-81 0 -122 -61q35 -9 70.5 -30t61.5 -47v-12q-30 -23 -38 -50t-8 -82v-81q0 -58 -37 -91.5t-117 -33.5q-64 0 -96 27t-32 77q0 36 26 63.5t63 31.5v8q0 46 14 81t60 56q-20 15 -50.5 29t-62.5 22v13q36 64 110.5 105t177.5 41q76 0 138 -21zM165.5 69.5
q13.5 14.5 13.5 41.5t-13.5 41t-34.5 14t-35 -14t-14 -41t14 -41.5t35 -14.5t34.5 14.5zM195.5 -167.5q24.5 18.5 40.5 52.5q-40 31 -86 31q-29 0 -47.5 -14.5t-18.5 -38.5q0 -23 16.5 -36t40.5 -13q30 0 54.5 18.5z" />
    <glyph glyph-name="uni0E0D" unicode="&#xe0d;" horiz-adv-x="932" 
d="M27 418q36 64 110.5 105t177.5 41q76 0 138 -21t98.5 -63.5t36.5 -104.5v-314h50q27 0 39 10.5t12 31.5v450h193v-453q0 -48 -23.5 -74t-81.5 -26h-418v61h36v343q0 41 -26.5 67.5t-73.5 26.5q-81 0 -122 -61q35 -9 70.5 -30t61.5 -47v-12q-38 -24 -52.5 -53.5
t-14.5 -78.5v-26q37 0 63 -28.5t26 -67.5q0 -50 -32 -77t-96 -27q-80 0 -117 33.5t-37 91.5v102q0 38 23.5 76.5t71.5 60.5q-20 15 -50.5 29t-62.5 22v13zM173.5 49.5q13.5 -14.5 34.5 -14.5t35 14.5t14 41.5t-14 41t-35 14t-34.5 -14t-13.5 -41t13.5 -41.5zM417 -72
q30 29 80 29q59 0 85 -28t26 -68q0 -18 -7.5 -38t-21.5 -33q63 10 96 50t40 114h133q-19 -114 -92.5 -168.5t-185.5 -54.5q-105 0 -144 35.5t-39 89.5q0 43 30 72zM463.5 -186.5q13.5 -14.5 34.5 -14.5t35 14.5t14 41.5t-14 41t-35 14t-34.5 -14t-13.5 -41t13.5 -41.5z" />
    <glyph glyph-name="yoYingthai.less" horiz-adv-x="932" 
d="M82 23.5q-37 33.5 -37 91.5v102q0 38 23.5 76.5t71.5 60.5q-20 15 -50.5 29t-62.5 22v13q36 64 110.5 105t177.5 41q76 0 138 -21t98.5 -63.5t36.5 -104.5v-314h50q27 0 39 10.5t12 31.5v450h193v-453q0 -48 -23.5 -74t-81.5 -26h-418v61h36v343q0 41 -26.5 67.5
t-73.5 26.5q-81 0 -122 -61q35 -9 70.5 -30t61.5 -47v-12q-38 -24 -52.5 -53.5t-14.5 -78.5v-26q37 0 63 -28.5t26 -67.5q0 -50 -32 -77t-96 -27q-80 0 -117 33.5zM243 49.5q14 14.5 14 41.5t-14 41t-35 14t-34.5 -14t-13.5 -41t13.5 -41.5t34.5 -14.5t35 14.5z" />
    <glyph glyph-name="uni0E02" unicode="&#xe02;" horiz-adv-x="692" 
d="M210.5 24q-60.5 34 -60.5 114v37q0 42 20.5 71.5t59.5 66.5q34 32 50 54t16 50q0 85 -85 85q-25 0 -45.5 -9.5t-29.5 -26.5l12 1q43 0 62.5 -27.5t19.5 -64.5q0 -42 -27 -69.5t-73 -27.5q-58 0 -82 36t-24 85q0 42 22 80t66.5 61.5t107.5 23.5q97 0 149 -41t52 -106
q0 -48 -11 -77.5t-33 -63.5q-17 -27 -25.5 -47.5t-8.5 -50.5v-65q0 -25 13.5 -41t39.5 -16t39 15.5t13 41.5v440h194v-415q0 -80 -60.5 -114t-185.5 -34t-185.5 34zM161 335.5q13 14.5 13 38.5t-13 38t-31 14t-30.5 -14t-12.5 -38q0 -25 12.5 -39t30.5 -14t31 14.5z" />
    <glyph glyph-name="uni0E03" unicode="&#xe03;" horiz-adv-x="692" 
d="M210.5 24q-60.5 34 -60.5 114v37q0 42 20.5 71.5t59.5 66.5q34 32 50 54t16 50q0 53 -31 73l-45 -32l-54 34q-24 -12 -30 -26l12 1q43 0 62.5 -27.5t19.5 -64.5q0 -42 -27 -69.5t-73 -27.5q-58 0 -82 36t-24 85q0 54 34 102.5t95 64.5l67 -46l82 44q57 -15 88 -55.5
t31 -91.5q0 -48 -11 -77.5t-33 -63.5q-17 -27 -25.5 -47.5t-8.5 -50.5v-65q0 -25 13.5 -41t39.5 -16t39 15.5t13 41.5v440h194v-415q0 -80 -60.5 -114t-185.5 -34t-185.5 34zM161 335.5q13 14.5 13 38.5t-13 38t-31 14t-30.5 -14t-12.5 -38q0 -25 12.5 -39t30.5 -14t31 14.5
z" />
    <glyph glyph-name="uni0E0A" unicode="&#xe0a;" horiz-adv-x="702" 
d="M212 24q-62 34 -62 114v37q0 42 20.5 71.5t59.5 66.5q34 32 50 54t16 50q0 85 -85 85q-25 0 -45.5 -9.5t-29.5 -26.5l12 1q43 0 62.5 -27.5t19.5 -64.5q0 -42 -27 -69.5t-73 -27.5q-58 0 -82 36t-24 85q0 42 22 80t66.5 61.5t107.5 23.5q97 0 149 -41t52 -106
q0 -48 -11 -77.5t-33 -63.5q-17 -27 -25.5 -47.5t-8.5 -50.5v-65q0 -25 15 -41t43 -16q27 0 42 16t15 41v217q0 8 -9 22t-19 17v71q34 13 53.5 51.5t19.5 76.5h177q0 -60 -29 -97.5t-72 -62.5q32 -15 52.5 -41.5t20.5 -52.5v-176q0 -80 -62 -114t-189 -34t-189 34z
M161 335.5q13 14.5 13 38.5t-13 38t-31 14t-30.5 -14t-12.5 -38q0 -25 12.5 -39t30.5 -14t31 14.5z" />
    <glyph glyph-name="uni0E0B" unicode="&#xe0b;" horiz-adv-x="702" 
d="M212 24q-62 34 -62 114v37q0 42 20.5 71.5t59.5 66.5q34 32 50 54t16 50q0 53 -31 73l-45 -32l-54 34q-24 -12 -30 -26l12 1q43 0 62.5 -27.5t19.5 -64.5q0 -42 -27 -69.5t-73 -27.5q-58 0 -82 36t-24 85q0 54 34 102.5t95 64.5l67 -46l82 44q57 -15 88 -55.5t31 -91.5
q0 -48 -11 -77.5t-33 -63.5q-17 -27 -25.5 -47.5t-8.5 -50.5v-65q0 -25 15 -41t43 -16q27 0 42 16t15 41v217q0 8 -9 22t-19 17v71q34 13 53.5 51.5t19.5 76.5h177q0 -60 -29 -97.5t-72 -62.5q32 -15 52.5 -41.5t20.5 -52.5v-176q0 -80 -62 -114t-189 -34t-189 34z
M161 335.5q13 14.5 13 38.5t-13 38t-31 14t-30.5 -14t-12.5 -38q0 -25 12.5 -39t30.5 -14t31 14.5z" />
    <glyph glyph-name="uni0E04" unicode="&#xe04;" horiz-adv-x="688" 
d="M50 355q0 99 72 154t222 55q151 0 222.5 -55t71.5 -154v-355h-193v400q0 47 -28.5 72.5t-72.5 25.5q-45 0 -73 -24.5t-28 -73.5v-142q6 21 14 36q17 39 40.5 56t57.5 17q42 0 64 -28.5t22 -69.5q0 -40 -22 -66.5t-62 -26.5q-45 0 -65 32q-22 -32 -39 -100t-18 -108h-185
v355zM387 232q13 14 13 38t-13 37.5t-31 13.5t-30.5 -13.5t-12.5 -37.5t12.5 -38t30.5 -14t31 14z" />
    <glyph glyph-name="uni0E05" unicode="&#xe05;" horiz-adv-x="688" 
d="M50 355q0 90 34 138.5t123 70.5l138 -58l136 58q89 -22 123 -70.5t34 -138.5v-355h-193v373q0 35 -3.5 52t-14.5 34l-82 -47l-84 47q-11 -17 -14.5 -34t-3.5 -52v-115q6 21 14 36q17 39 40.5 56t57.5 17q42 0 64 -28.5t22 -69.5q0 -40 -22 -66.5t-62 -26.5q-45 0 -65 32
q-22 -32 -39 -100t-18 -108h-185v355zM387 232q13 14 13 38t-13 37.5t-31 13.5t-30.5 -13.5t-12.5 -37.5t12.5 -38t30.5 -14t31 14z" />
    <glyph glyph-name="uni0E28" unicode="&#xe28;" horiz-adv-x="688" 
d="M670 510q-22 -32 -58 -51q26 -42 26 -104v-355h-193v400q0 47 -28.5 72.5t-72.5 25.5q-45 0 -73 -24.5t-28 -73.5v-142q6 21 14 36q17 39 40.5 56t57.5 17q42 0 64 -28.5t22 -69.5q0 -40 -22 -66.5t-62 -26.5q-45 0 -65 32q-22 -32 -39 -100t-18 -108h-185v355
q0 99 72 154t222 55q114 0 186 -33q20 24 26 60h146q-10 -49 -32 -81zM325.5 307.5q-12.5 -13.5 -12.5 -37.5t12.5 -38t30.5 -14t31 14t13 38t-13 37.5t-31 13.5t-30.5 -13.5z" />
    <glyph glyph-name="uni0E14" unicode="&#xe14;" horiz-adv-x="688" 
d="M50 355q0 99 72 154t222 55q151 0 222.5 -55t71.5 -154v-355h-193v400q0 47 -28.5 72.5t-72.5 25.5q-45 0 -73 -24.5t-28 -73.5v-302q19 9 48 33.5t38 42.5q-32 7 -53.5 32.5t-21.5 67.5q0 40 25 66.5t64 26.5q46 0 70.5 -28.5t24.5 -69.5q0 -52 -24 -94.5t-64 -79
t-115 -95.5h-185v355zM377 232q13 14 13 38t-13 37.5t-31 13.5t-30.5 -13.5t-12.5 -37.5t12.5 -38t30.5 -14t31 14z" />
    <glyph glyph-name="uni0E15" unicode="&#xe15;" horiz-adv-x="688" 
d="M50 338q0 93 34.5 148.5t122.5 77.5l138 -58l136 58q88 -22 122.5 -77.5t34.5 -148.5v-338h-193v356q0 38 -3.5 62t-14.5 41l-82 -47l-84 47q-11 -17 -14.5 -41t-3.5 -62v-258q19 9 48 33.5t38 42.5q-32 7 -53.5 32.5t-21.5 67.5q0 40 25 66.5t64 26.5q46 0 70.5 -28.5
t24.5 -69.5q0 -52 -24 -94.5t-64 -79t-115 -95.5h-185v338zM377 232q13 14 13 38t-13 37.5t-31 13.5t-30.5 -13.5t-12.5 -37.5t12.5 -38t30.5 -14t31 14z" />
    <glyph glyph-name="uni0E17" unicode="&#xe17;" horiz-adv-x="683" 
d="M99 364q-37 0 -63 29t-26 68q0 50 32 76.5t96 26.5q80 0 117 -33.5t37 -91.5v-224l132 338h104q51 0 78 -26t27 -65v-462h-193v402l-160 -402h-181v364zM163.5 422q13.5 14 13.5 41t-13.5 41.5t-34.5 14.5t-35 -14.5t-14 -41.5t14 -41t35 -14t34.5 14z" />
    <glyph glyph-name="uni0E11" unicode="&#xe11;" horiz-adv-x="734" 
d="M150 175q0 42 20.5 71.5t59.5 66.5q34 32 50 54t16 50q0 53 -31 73l-45 -32l-54 34q-24 -12 -30 -26l12 1q43 0 62.5 -27.5t19.5 -64.5q0 -42 -27 -69.5t-73 -27.5q-58 0 -82 36t-24 85q0 54 34 102.5t95 64.5l67 -46l82 44q57 -15 88 -55.5t31 -91.5q0 -48 -11 -77.5
t-33 -63.5q-17 -27 -25.5 -47.5t-8.5 -50.5v-27l143 402h104q51 0 78 -26t27 -65v-462h-193v402l-160 -402h-192v175zM161 335.5q13 14.5 13 38.5t-13 38t-31 14t-30.5 -14t-12.5 -38q0 -25 12.5 -39t30.5 -14t31 14.5z" />
    <glyph glyph-name="uni0E19" unicode="&#xe19;" horiz-adv-x="683" 
d="M637.5 161.5q14.5 -24.5 14.5 -58.5q0 -113 -138 -113q-127 0 -137 97q-38 -20 -62 -41t-31 -46h-185v364q-37 0 -63 29t-26 68q0 50 32 76.5t96 26.5q80 0 117 -33.5t37 -91.5v-320q9 13 24.5 23t41.5 24q42 23 62 41t20 45v301h193v-283q0 -37 -38 -70
q28 -14 42.5 -38.5zM163.5 422q13.5 14 13.5 41t-13.5 41.5t-34.5 14.5t-35 -14.5t-14 -41.5t14 -41t35 -14t34.5 14zM551 60q14 15 14 45t-14 46t-37 16q-22 0 -36.5 -16t-14.5 -46q0 -29 14.5 -44.5t36.5 -15.5q23 0 37 15z" />
    <glyph glyph-name="uni0E21" unicode="&#xe21;" horiz-adv-x="691" 
d="M641 553v-553h-175q-59 100 -132 149v-40q0 -65 -38.5 -92t-124.5 -27q-75 0 -105.5 34.5t-30.5 86.5q0 45 21 78t85 46v129q-37 0 -63 29t-26 68q0 50 32 76.5t96 26.5q80 0 117 -33.5t37 -91.5v-223q40 -17 70.5 -41t43.5 -44v422h193zM136 422q14 -14 35 -14t34.5 14
t13.5 41t-13.5 41.5t-34.5 14.5t-35 -14.5t-14 -41.5t14 -41zM135 53.5q6 7.5 6 33.5v99q-55 -17 -55 -78q0 -28 8.5 -45t22.5 -17q12 0 18 7.5z" />
    <glyph glyph-name="uni0E0C" unicode="&#xe0c;" horiz-adv-x="941" 
d="M891 553v-553h-175q-11 31 -36.5 69.5t-65.5 68.5v-29q0 -65 -36.5 -92t-116.5 -27q-37 0 -64 11q-62 26 -62 113q0 39 23 72.5t63 43.5v174q0 42 -30 68t-86 26q-42 0 -77.5 -16.5t-54.5 -44.5q35 -9 70.5 -30t61.5 -47v-12q-38 -24 -52.5 -53.5t-14.5 -78.5v-26
q25 0 43 -13q17 -12 25.5 -34t8.5 -49q0 -104 -127 -104q-71 0 -107 33.5t-36 91.5v102q0 38 23.5 76.5t71.5 60.5q-20 15 -50.5 29t-62.5 22v13q36 63 115 104.5t183 41.5q128 0 208.5 -48.5t80.5 -140.5v-179q41 -22 84 -62v419h193zM417.5 49.5q3.5 3.5 3.5 9.5v125
q-20 -8 -30 -28t-10 -41q0 -29 8 -49t20 -20q5 0 8.5 3.5zM163.5 132q-13.5 -14 -13.5 -41t13.5 -41.5t34.5 -14.5t35 14.5t14 41.5t-14 41t-35 14t-34.5 -14z" />
    <glyph glyph-name="uni0E13" unicode="&#xe13;" horiz-adv-x="968" 
d="M937 103q0 -113 -138 -113q-64 0 -98 24.5t-39 71.5q-70 -39 -82 -86h-185v404q0 41 -26.5 67.5t-73.5 26.5q-81 0 -122 -61q35 -9 70.5 -30t61.5 -47v-12q-38 -24 -52.5 -53.5t-14.5 -78.5v-26q37 0 63 -28.5t26 -67.5q0 -50 -32 -77t-96 -27q-80 0 -117 33.5t-37 91.5
v102q0 38 23.5 76.5t71.5 60.5q-20 15 -50.5 29t-62.5 22v13q36 64 110.5 105t177.5 41q76 0 138 -21t98.5 -63.5t36.5 -104.5v-256q9 12 22.5 21.5t38.5 24.5q38 23 57 41.5t19 45.5v301h193v-283q0 -38 -39 -69q58 -29 58 -98zM836 60q14 15 14 45t-14 46t-37 16
q-22 0 -36.5 -16t-14.5 -46q0 -29 14.5 -44.5t36.5 -15.5q23 0 37 15zM173.5 132q-13.5 -14 -13.5 -41t13.5 -41.5t34.5 -14.5t35 14.5t14 41.5t-14 41t-35 14t-34.5 -14z" />
    <glyph glyph-name="uni0E12" unicode="&#xe12;" horiz-adv-x="978" 
d="M928 553v-553h-185q-10 39 -25.5 62.5t-52.5 42.5v-2q0 -54 -31 -83.5t-93 -29.5q-124 0 -124 113q0 68 51 97q-23 19 -23 37v151q0 32 -3.5 45.5t-14.5 25.5l-82 -47l-82 47q-12 -11 -16 -24.5t-4 -46.5v-290q19 9 46.5 33.5t36.5 42.5q-20 5 -37 17q-38 29 -38 83
q0 40 25 66.5t64 26.5q46 0 70.5 -28.5t24.5 -69.5q0 -52 -23.5 -94.5t-63.5 -80t-113 -94.5h-185v375q0 83 45 130t122 59l128 -68l126 68q77 -12 122 -59t45 -130v-159q63 -33 97 -85v422h193zM312.5 232q12.5 -14 30.5 -14t31 14t13 38t-13 37.5t-31 13.5t-30.5 -13.5
t-12.5 -37.5t12.5 -38zM577.5 60.5q14.5 15.5 14.5 44.5q0 30 -14.5 46t-36.5 16q-23 0 -37 -16t-14 -46t14 -45t37 -15q22 0 36.5 15.5z" />
    <glyph glyph-name="uni0E06" unicode="&#xe06;" horiz-adv-x="691" 
d="M641 553v-553h-175q-12 21 -48.5 54.5t-83.5 61.5v-7q0 -65 -38.5 -92t-124.5 -27q-136 0 -136 117q0 43 29.5 73.5t76.5 38.5v11q0 12 13 25.5t41 35.5q44 35 68.5 63t24.5 63q0 53 -31 73l-45 -32l-54 34q-24 -12 -30 -26l12 1q43 0 62.5 -27.5t19.5 -64.5
q0 -42 -27 -69.5t-73 -27.5q-58 0 -82 36t-24 85q0 54 34 102.5t95 64.5l67 -46l82 44q57 -15 88 -55.5t31 -91.5q0 -46 -10.5 -69.5t-31.5 -47.5q-18 -20 -27.5 -39.5t-9.5 -54.5v-22q62 -28 114 -69v438h193zM153 412q-13 14 -31 14t-30.5 -14t-12.5 -38q0 -25 12.5 -39
t30.5 -14t31 14.5t13 38.5t-13 38zM135 53.5q6 7.5 6 33.5v78q-55 -9 -55 -64q0 -27 8.5 -41t22.5 -14q12 0 18 7.5z" />
    <glyph glyph-name="uni0E18" unicode="&#xe18;" horiz-adv-x="646" 
d="M28 61h53v204h193v-204h61q34 0 51 15.5t17 50.5v125q0 44 -14.5 60t-58.5 16q-49 0 -135 -3t-133 -10v56q0 86 60.5 139.5t184.5 53.5q37 0 93 -12q41 -9 64 -9t43.5 8t46.5 33l51 -77q-33 -27 -62 -38t-59 -11q-21 0 -35.5 3t-36.5 9q-22 7 -40 10.5t-45 3.5
q-15 0 -33 -10.5t-30 -31.5t-12 -50q58 2 95 2q80 0 133 -11t84.5 -42t31.5 -89v-145q0 -49 -24.5 -78t-85.5 -29h-458v61z" />
    <glyph glyph-name="uni0E23" unicode="&#xe23;" horiz-adv-x="544" 
d="M225 16.5q-32 26.5 -32 76.5q0 39 26 68t63 29v62q0 31 -4 46.5t-15.5 22.5t-36.5 7q-37 0 -97.5 -3t-107.5 -10v56q0 90 48.5 141.5t169.5 51.5q35 0 79 -12q31 -9 53 -9q23 0 43.5 8t46.5 33l51 -81q-32 -26 -59.5 -33.5t-61.5 -7.5q-32 0 -65 11q-3 1 -22 6t-45 5
q-15 0 -33 -10.5t-30 -31.5t-12 -50l23 1q14 1 44 1q78 0 125.5 -10.5t73 -41.5t25.5 -90v-137q0 -58 -37 -91.5t-117 -33.5q-64 0 -96 26.5zM346.5 49.5q13.5 14.5 13.5 41.5t-13.5 41t-34.5 14t-35 -14t-14 -41t14 -41.5t35 -14.5t34.5 14.5z" />
    <glyph glyph-name="uni0E08" unicode="&#xe08;" horiz-adv-x="607" 
d="M336 100q-26 59 -61 94q-13 -21 -36.5 -30.5t-45.5 -9.5q-45 0 -72 30t-27 73q0 46 26.5 77t79.5 31q62 0 103.5 -47t60.5 -118v188q0 50 -31.5 84.5t-91.5 34.5q-59 0 -101.5 -26.5t-55.5 -74.5h-65q18 72 87 115t182 43q120 0 194.5 -42.5t74.5 -133.5v-388h-193
q-2 41 -28 100zM228.5 216q13.5 15 13.5 42t-13.5 41.5t-34.5 14.5q-20 0 -34 -15t-14 -41q0 -27 14 -42t34 -15q21 0 34.5 15z" />
    <glyph glyph-name="uni0E27" unicode="&#xe27;" horiz-adv-x="560" 
d="M260 16.5q-32 26.5 -32 76.5q0 39 26 68t63 29v203q0 60 -25 87t-85 27q-34 0 -63 -18t-47.5 -49.5t-19.5 -69.5h-65q2 93 67 143.5t178 50.5q124 0 188.5 -42.5t64.5 -133.5v-273q0 -58 -37 -91.5t-117 -33.5q-64 0 -96 26.5zM381.5 49.5q13.5 14.5 13.5 41.5t-13.5 41
t-34.5 14t-35 -14t-14 -41t14 -41.5t35 -14.5t34.5 14.5z" />
    <glyph glyph-name="uni0E07" unicode="&#xe07;" horiz-adv-x="550" 
d="M73.5 155q-38.5 79 -77.5 130l133 84q45 -47 83 -122.5t55 -144.5h26q14 0 14 19v243q-37 0 -63 29t-26 68q0 50 32 76.5t96 26.5q80 0 117 -33.5t37 -91.5v-306q0 -55 -47 -94t-143 -39h-185q-13 76 -51.5 155zM371.5 422q13.5 14 13.5 41t-13.5 41.5t-34.5 14.5
t-35 -14.5t-14 -41.5t14 -41t35 -14t34.5 14z" />
    <glyph glyph-name="uni0E10" unicode="&#xe10;" horiz-adv-x="622" 
d="M456.5 383q53.5 -11 84.5 -42t31 -89v-145q0 -49 -24.5 -78t-85.5 -29h-258q0 77 -19 131q-9 -8 -26 -12.5t-35 -4.5q-35 0 -58.5 24.5t-23.5 62.5q0 36 26.5 62t74.5 26q91 0 130.5 -66t42.5 -162h40q23 0 23 20v171q0 44 -14.5 60t-58.5 16q-49 0 -135 -3t-133 -10v56
q0 86 60.5 139.5t184.5 53.5q37 0 93 -12q41 -9 64 -9t43.5 8t46.5 33l51 -77q-33 -27 -62 -38t-59 -11q-21 0 -35.5 3t-36.5 9q-22 7 -40 10.5t-45 3.5q-15 0 -33 -10.5t-30 -31.5t-12 -50q58 2 95 2q80 0 133.5 -11zM167 159.5q13 13.5 13 39.5t-13 40t-33 14t-33.5 -14
t-13.5 -40t13.5 -39.5t33.5 -13.5t33 13.5zM545 -47q27 -18 27 -54v-143h-159l-62 60l-52 -60h-26q-8 20 -18 38q-48 -62 -134 -62q-56 0 -88 21.5t-32 73.5q0 38 33 63.5t103 25.5q49 0 87 -25q2 13 4 39h68q0 -51 -17 -94q5 -7 11 -19l61 63l90 -84v65q-21 2 -32 17
t-11 34q0 26 18.5 42.5t62.5 16.5q39 0 66 -18zM478 -107q9 8 9 22q0 15 -8.5 22.5t-20.5 7.5t-21.5 -7.5t-9.5 -22.5q0 -14 9.5 -22t21.5 -8q11 0 20 8zM179.5 -207q21.5 19 33.5 54q-34 29 -76 29q-28 0 -44 -14t-16 -39q0 -24 14 -36.5t37 -12.5q30 0 51.5 19z" />
    </font>
</defs>
</svg>
