<?xml version="1.0" standalone="no"?>
<!DOCTYPE svg PUBLIC "-//W3C//DTD SVG 1.1//EN" "http://www.w3.org/Graphics/SVG/1.1/DTD/svg11.dtd" >
<svg>
<metadata>
Created by FontForge 20090622 at Wed Nov  1 21:06:26 2017
 By deploy user
Copyright (c) 2015, Cadson Demak (info@cadsondemak.com)
</metadata>
<defs>
<font id="Trirong-Light" horiz-adv-x="0" >
  <font-face 
    font-family="Trirong Light"
    font-weight="300"
    font-stretch="normal"
    units-per-em="1000"
    panose-1="0 0 4 0 0 0 0 0 0 0"
    ascent="750"
    descent="-250"
    x-height="498"
    cap-height="700"
    bbox="-635 -471 1352 1123"
    underline-thickness="50"
    underline-position="-50"
    unicode-range="U+000D-U+FB02"
  />
<missing-glyph horiz-adv-x="600" 
d="M90 714h420v-714h-420v714zM479 31v652h-358v-652h358z" />
    <glyph glyph-name="fi" unicode="fi" horiz-adv-x="667" 
d="M42 9q46 15 81 18v440h-96v31h96v49q0 82 36 124.5t106 42.5q46 0 91 -15l-6 -30q-36 13 -65 13q-44 0 -68.5 -30t-24.5 -92v-62h324l42 5v-476q45 -6 81 -18v-9h-231v9q25 8 81 18v440h-297v-440q49 -7 81 -18v-9h-231v9zM482 567q-13 13 -13 34q0 22 13 35t35 13
t35.5 -13t13.5 -35q0 -21 -13.5 -34t-35.5 -13t-35 13z" />
    <glyph glyph-name="fl" unicode="fl" horiz-adv-x="664" 
d="M42 9q46 15 81 18v440h-96v31h96v62q0 77 43 115t136 38q21 0 71 -7.5t82 -18.5l94 24v-684q46 -7 81 -18v-9h-231v9q29 9 80 18v622q-75 33 -164 33q-61 0 -92 -29.5t-31 -92.5v-62h153v-31h-153v-440q49 -7 81 -18v-9h-231v9z" />
    <glyph glyph-name="ru_lakkhangyaothai" unicode="&#xe24;&#xe45;" horiz-adv-x="843" 
d="M734.5 523.5q43.5 -40.5 43.5 -124.5v-569h-69v572q0 131 -111 131q-37 0 -68 -23t-46 -61q11 -30 11 -67v-552h-70v566q0 57 -39.5 96t-114.5 39q-53 0 -96.5 -24.5t-70.5 -71.5q29 -10 61.5 -30t52.5 -41v-7q-46 -27 -64 -57.5t-18 -85.5v-68q15 12 42 12
q32 0 54.5 -22t22.5 -62q0 -39 -24.5 -61.5t-65.5 -22.5q-99 0 -99 104v121q0 99 88 146q-44 35 -107 56v12q29 59 89.5 97t140.5 38q60 0 108.5 -19.5t77.5 -57.5q22 36 60 56.5t87 20.5q81 0 124.5 -40.5zM132.5 118q-13.5 -15 -13.5 -42t14 -43t34 -16q21 0 35 16t14 43
t-14 42t-35 15t-34.5 -15z" />
    <glyph glyph-name="lu_lakkhangyaothai" unicode="&#xe26;&#xe45;" horiz-adv-x="880" 
d="M771.5 523.5q43.5 -40.5 43.5 -124.5v-569h-69v572q0 131 -111 131q-36 0 -66.5 -22t-46.5 -59q12 -30 12 -70v-552h-70v566q0 58 -38.5 96.5t-112.5 38.5q-53 0 -95.5 -24t-69.5 -72q31 -10 66.5 -30.5t54.5 -40.5v-7q-42 -26 -55.5 -55.5t-13.5 -87.5v-120
q0 -104 -100 -104q-41 0 -65.5 22.5t-24.5 61.5q0 42 24 63.5t59 21.5q23 0 37 -9v65q0 51 14.5 86.5t60.5 59.5q-36 30 -114 56v12q29 60 88 97.5t140 37.5q59 0 106.5 -19t75.5 -56q23 35 60.5 55t85.5 20q81 0 124.5 -40.5zM132 33q14 16 14 43t-13.5 42t-34.5 15
t-35 -15t-14 -42t14 -43t35 -16q20 0 34 16z" />
    <glyph glyph-name=".notdef" horiz-adv-x="600" 
d="M90 714h420v-714h-420v714zM479 31v652h-358v-652h358z" />
    <glyph glyph-name=".null" horiz-adv-x="502" 
 />
    <glyph glyph-name="nonmarkingreturn" unicode="&#xd;" horiz-adv-x="261" 
 />
    <glyph glyph-name="space" unicode=" " horiz-adv-x="261" 
 />
    <glyph glyph-name="A" unicode="A" horiz-adv-x="705" 
d="M698 10v-10h-229v10q32 13 82 17l-55 156h-311l-56 -156q52 -5 83 -18v-9h-205v11q38 14 78 18l244 675h47l244 -676q43 -5 78 -18zM485 214l-144 404l-145 -404h289z" />
    <glyph glyph-name="Aacute" unicode="&#xc1;" horiz-adv-x="705" 
d="M324 786l-13 19l112 100q19 19 39 19q12 0 18.5 -6.5t6.5 -16.5q0 -19 -27 -36zM698 10v-10h-229v10q32 13 82 17l-55 156h-311l-56 -156q52 -5 83 -18v-9h-205v11q38 14 78 18l244 675h47l244 -676q43 -5 78 -18zM485 214l-144 404l-145 -404h289z" />
    <glyph glyph-name="Abreve" unicode="&#x102;" horiz-adv-x="705" 
d="M251 804q-39 30 -46 90h46q5 -52 33.5 -70t67.5 -18t67 18t34 70h46q-7 -60 -46 -90t-101 -30t-101 30zM698 10v-10h-229v10q32 13 82 17l-55 156h-311l-56 -156q52 -5 83 -18v-9h-205v11q38 14 78 18l244 675h47l244 -676q43 -5 78 -18zM485 214l-144 404l-145 -404h289
z" />
    <glyph glyph-name="uni1EAE" unicode="&#x1eae;" horiz-adv-x="705" 
d="M332 884l-12 17l89 82q25 26 48 26q10 0 16 -5.5t6 -14.5q0 -10 -9 -22t-27 -21zM251 804q-39 30 -46 90h46q6 -52 34 -70t67 -18t67.5 18t33.5 70h46q-7 -60 -46 -90t-101 -30t-101 30zM698 10v-10h-229v10q32 13 82 17l-55 156h-311l-56 -156q52 -5 83 -18v-9h-205v11
q38 14 78 18l244 675h47l244 -676q43 -5 78 -18zM485 214l-144 404l-145 -404h289z" />
    <glyph glyph-name="uni1EB6" unicode="&#x1eb6;" horiz-adv-x="705" 
d="M250 804q-39 30 -46 90h46q5 -52 33 -70t68 -18q39 0 67 18t34 70h46q-7 -60 -46 -90t-101 -30t-101 30zM698 10v-10h-229v10q32 13 82 17l-55 156h-311l-56 -156q52 -5 83 -18v-9h-205v11q38 14 78 18l244 675h47l244 -676q43 -5 78 -18zM485 214l-144 404l-145 -404
h289zM378 -72q11 -11 11 -30q0 -18 -11 -29t-28 -11t-28 11t-11 29q0 19 11 30t28 11t28 -11z" />
    <glyph glyph-name="uni1EB0" unicode="&#x1eb0;" horiz-adv-x="705" 
d="M229 967.5q-9 11.5 -9 21.5q0 9 6 14.5t16 5.5q23 0 48 -26l89 -82l-12 -17l-111 62q-18 10 -27 21.5zM251 804q-39 30 -46 90h46q6 -52 34 -70t67 -18t67.5 18t33.5 70h46q-7 -60 -46 -90t-101 -30t-101 30zM698 10v-10h-229v10q32 13 82 17l-55 156h-311l-56 -156
q52 -5 83 -18v-9h-205v11q38 14 78 18l244 675h47l244 -676q43 -5 78 -18zM485 214l-144 404l-145 -404h289z" />
    <glyph glyph-name="uni1EB2" unicode="&#x1eb2;" horiz-adv-x="705" 
d="M306 1007l-5 23q30 14 62 14q33 0 55.5 -15.5t22.5 -46.5q0 -53 -69 -61l-9 -51h-28l-4 71h17q27 0 41 11.5t14 30.5q0 16 -12.5 26t-36.5 10q-25 0 -48 -12zM251 804q-39 30 -46 90h46q6 -52 34 -70t67 -18t67.5 18t33.5 70h46q-7 -60 -46 -90t-101 -30t-101 30zM698 10
v-10h-229v10q32 13 82 17l-55 156h-311l-56 -156q52 -5 83 -18v-9h-205v11q38 14 78 18l244 675h47l244 -676q43 -5 78 -18zM485 214l-144 404l-145 -404h289z" />
    <glyph glyph-name="uni1EB4" unicode="&#x1eb4;" horiz-adv-x="705" 
d="M249.5 988q-14.5 -16 -20.5 -43h-23q6 48 27 71.5t54 23.5q17 0 32 -7.5t40 -23.5q18 -12 31 -18.5t24 -6.5q44 0 57 62h23q-6 -47 -26.5 -73.5t-55.5 -26.5q-15 0 -30.5 7.5t-36.5 22.5q-24 16 -36 22t-24 6q-21 0 -35.5 -16zM251 804q-39 30 -46 90h46q6 -52 34 -70
t67 -18t67.5 18t33.5 70h46q-7 -60 -46 -90t-101 -30t-101 30zM698 10v-10h-229v10q32 13 82 17l-55 156h-311l-56 -156q52 -5 83 -18v-9h-205v11q38 14 78 18l244 675h47l244 -676q43 -5 78 -18zM485 214l-144 404l-145 -404h289z" />
    <glyph glyph-name="uni01CD" unicode="&#x1cd;" horiz-adv-x="705" 
d="M279.5 848.5q-34.5 32.5 -66.5 54.5l29 27q29 -21 59 -49t49 -53h5q19 25 49 53t59 49l29 -27q-32 -22 -66.5 -54.5t-56.5 -62.5h-33q-22 30 -56.5 62.5zM698 10v-10h-229v10q32 13 82 17l-55 156h-311l-56 -156q52 -5 83 -18v-9h-205v11q38 14 78 18l244 675h47
l244 -676q43 -5 78 -18zM485 214l-144 404l-145 -404h289z" />
    <glyph glyph-name="Acircumflex" unicode="&#xc2;" horiz-adv-x="705" 
d="M301 828q-30 -28 -59 -49l-29 27q31 22 66 54t57 62h33q22 -30 57 -62t66 -54l-29 -27q-29 21 -59 49t-49 53h-5q-19 -25 -49 -53zM698 10v-10h-229v10q32 13 82 17l-55 156h-311l-56 -156q52 -5 83 -18v-9h-205v11q38 14 78 18l244 675h47l244 -676q43 -5 78 -18z
M485 214l-144 404l-145 -404h289z" />
    <glyph glyph-name="uni1EA4" unicode="&#x1ea4;" horiz-adv-x="705" 
d="M464 893l-12 17l89 82q25 26 48 26q10 0 16 -5.5t6 -14.5q0 -10 -9 -22t-27 -21zM301.5 828.5q-29.5 -27.5 -58.5 -49.5l-30 27q31 22 66 54t57 62h33q22 -29 56.5 -61t66.5 -55l-29 -27q-28 21 -57.5 48.5t-50.5 53.5h-5q-19 -25 -48.5 -52.5zM698 10v-10h-229v10
q32 13 82 17l-55 156h-311l-56 -156q52 -5 83 -18v-9h-205v11q38 14 78 18l244 675h47l244 -676q43 -5 78 -18zM485 214l-144 404l-145 -404h289z" />
    <glyph glyph-name="uni1EAC" unicode="&#x1eac;" horiz-adv-x="705" 
d="M301 829q-30 -28 -59 -49l-29 27q31 22 66 54t57 62h33q22 -30 57 -62t66 -54l-29 -27q-29 21 -59 49t-49 53h-5q-19 -25 -49 -53zM698 10v-10h-229v10q32 13 82 17l-55 156h-311l-56 -156q52 -5 83 -18v-9h-205v11q38 14 78 18l244 675h47l244 -676q43 -5 78 -18z
M485 214l-144 404l-145 -404h289zM380 -72q11 -11 11 -30q0 -18 -11 -29t-28 -11t-28 11t-11 29q0 19 11 30t28 11t28 -11z" />
    <glyph glyph-name="uni1EA6" unicode="&#x1ea6;" horiz-adv-x="705" 
d="M104 998q0 9 6 14.5t15 5.5q13 0 29 -11t37 -30l72 -67l-13 -17l-90 50q-56 32 -56 55zM213 806q31 22 66 54t57 62h33q22 -29 56.5 -61t66.5 -55l-29 -27q-28 21 -57.5 48.5t-50.5 53.5h-5q-19 -25 -48.5 -52.5t-58.5 -49.5zM698 10v-10h-229v10q32 13 82 17l-55 156
h-311l-56 -156q52 -5 83 -18v-9h-205v11q38 14 78 18l244 675h47l244 -676q43 -5 78 -18zM485 214l-144 404l-145 -404h289z" />
    <glyph glyph-name="uni1EA8" unicode="&#x1ea8;" horiz-adv-x="705" 
d="M423 1016l-5 23q30 14 62 14q33 0 55.5 -15.5t22.5 -46.5q0 -53 -69 -61l-9 -51h-28l-4 71h17q27 0 41 11.5t14 30.5q0 16 -12.5 26t-36.5 10q-25 0 -48 -12zM301.5 828.5q-29.5 -27.5 -58.5 -49.5l-30 27q31 22 66 54t57 62h33q22 -29 56.5 -61t66.5 -55l-29 -27
q-28 21 -57.5 48.5t-50.5 53.5h-5q-19 -25 -48.5 -52.5zM698 10v-10h-229v10q32 13 82 17l-55 156h-311l-56 -156q52 -5 83 -18v-9h-205v11q38 14 78 18l244 675h47l244 -676q43 -5 78 -18zM485 214l-144 404l-145 -404h289z" />
    <glyph glyph-name="uni1EAA" unicode="&#x1eaa;" horiz-adv-x="705" 
d="M249.5 997q-14.5 -16 -20.5 -43h-23q6 48 27 71.5t54 23.5q17 0 32 -7.5t40 -23.5q18 -12 31 -18.5t24 -6.5q44 0 57 62h23q-6 -47 -26.5 -73.5t-55.5 -26.5q-15 0 -30.5 7.5t-36.5 22.5q-24 16 -36 22t-24 6q-21 0 -35.5 -16zM425.5 861q34.5 -32 66.5 -55l-29 -27
q-28 21 -57.5 48.5t-50.5 53.5h-5q-19 -25 -48.5 -52.5t-58.5 -49.5l-30 27q31 22 66 54t57 62h33q22 -29 56.5 -61zM698 10v-10h-229v10q32 13 82 17l-55 156h-311l-56 -156q52 -5 83 -18v-9h-205v11q38 14 78 18l244 675h47l244 -676q43 -5 78 -18zM485 214l-144 404
l-145 -404h289z" />
    <glyph glyph-name="Adieresis" unicode="&#xc4;" horiz-adv-x="705" 
d="M212 796q-11 11 -11 29q0 19 11 30t28 11t28 -11t11 -30q0 -18 -11 -29t-28 -11t-28 11zM425 796q-11 11 -11 29q0 19 11 30t28 11t28 -11t11 -30q0 -18 -11 -29t-28 -11t-28 11zM698 10v-10h-229v10q32 13 82 17l-55 156h-311l-56 -156q52 -5 83 -18v-9h-205v11
q38 14 78 18l244 675h47l244 -676q43 -5 78 -18zM485 214l-144 404l-145 -404h289z" />
    <glyph glyph-name="uni1EA0" unicode="&#x1ea0;" horiz-adv-x="705" 
d="M698 10v-10h-229v10q32 13 82 17l-55 156h-311l-56 -156q52 -5 83 -18v-9h-205v11q38 14 78 18l244 675h47l244 -676q43 -5 78 -18zM485 214l-144 404l-145 -404h289zM380 -72q11 -11 11 -30q0 -18 -11 -29t-28 -11t-28 11t-11 29q0 19 11 30t28 11t28 -11z" />
    <glyph glyph-name="Agrave" unicode="&#xc0;" horiz-adv-x="705" 
d="M224 901q0 9 7 16t19 7q21 0 38 -19l113 -100l-13 -19l-136 79q-28 17 -28 36zM698 10v-10h-229v10q32 13 82 17l-55 156h-311l-56 -156q52 -5 83 -18v-9h-205v11q38 14 78 18l244 675h47l244 -676q43 -5 78 -18zM485 214l-144 404l-145 -404h289z" />
    <glyph glyph-name="uni1EA2" unicode="&#x1ea2;" horiz-adv-x="705" 
d="M305 945l-7 27q34 17 74 17q38 0 64.5 -19t26.5 -56q0 -32 -20.5 -50.5t-59.5 -22.5l-11 -62h-31l-5 85h20q32 0 48 14.5t16 37.5q0 20 -15 32.5t-43 12.5t-57 -16zM698 10v-10h-229v10q32 13 82 17l-55 156h-311l-56 -156q52 -5 83 -18v-9h-205v11q38 14 78 18l244 675
h47l244 -676q43 -5 78 -18zM485 214l-144 404l-145 -404h289z" />
    <glyph glyph-name="Amacron" unicode="&#x100;" horiz-adv-x="705" 
d="M510 784h-314v31h314v-31zM698 10v-10h-229v10q32 13 82 17l-55 156h-311l-56 -156q52 -5 83 -18v-9h-205v11q38 14 78 18l244 675h47l244 -676q43 -5 78 -18zM485 214l-144 404l-145 -404h289z" />
    <glyph glyph-name="Aogonek" unicode="&#x104;" horiz-adv-x="705" 
d="M740 -133v-33q-34 -15 -74 -15q-44 0 -68 23t-24 54q0 33 21 61t58 43h-184v10q32 13 82 17l-55 156h-311l-56 -156q52 -5 83 -18v-9h-205v11q38 14 78 18l244 675h47l244 -676q43 -5 78 -18v-10h-3q-29 -16 -47.5 -41t-18.5 -53q0 -25 17 -37.5t44 -12.5t50 11zM485 214
l-144 404l-145 -404h289z" />
    <glyph glyph-name="Aring" unicode="&#xc5;" horiz-adv-x="705" 
d="M289 760q-25 23 -25 60t25 60.5t63 23.5t62.5 -23.5t24.5 -60.5t-24.5 -60t-62.5 -23t-63 23zM311 860.5q-16 -15.5 -16 -40.5t16 -40t41 -15t40.5 15t15.5 40t-15.5 40.5t-40.5 15.5t-41 -15.5zM698 10v-10h-229v10q32 13 82 17l-55 156h-311l-56 -156q52 -5 83 -18v-9
h-205v11q38 14 78 18l244 675h47l244 -676q43 -5 78 -18zM485 214l-144 404l-145 -404h289z" />
    <glyph glyph-name="Aringacute" unicode="&#x1fa;" horiz-adv-x="705" 
d="M321 929l-13 19l112 100q19 19 39 19q12 0 18.5 -6.5t6.5 -16.5q0 -19 -27 -36zM289 757q-25 23 -25 60t25 60.5t63 23.5t62.5 -23.5t24.5 -60.5t-24.5 -60t-62.5 -23t-63 23zM311 857.5q-16 -15.5 -16 -40.5t16 -40t41 -15t40.5 15t15.5 40t-15.5 40.5t-40.5 15.5
t-41 -15.5zM698 10v-10h-229v10q32 13 82 17l-55 156h-311l-56 -156q52 -5 83 -18v-9h-205v11q38 14 78 18l244 675h47l244 -676q43 -5 78 -18zM485 214l-144 404l-145 -404h289z" />
    <glyph glyph-name="Atilde" unicode="&#xc3;" horiz-adv-x="705" 
d="M239.5 829q-16.5 -16 -22.5 -43h-26q7 48 30.5 71.5t59.5 23.5q19 0 37 -8t42 -23q21 -12 35 -18.5t27 -6.5q49 0 64 62h25q-7 -47 -29.5 -73.5t-61.5 -26.5q-16 0 -31 7t-44 23q-26 15 -39.5 21.5t-26.5 6.5q-23 0 -39.5 -16zM698 10v-10h-229v10q32 13 82 17l-55 156
h-311l-56 -156q52 -5 83 -18v-9h-205v11q38 14 78 18l244 675h47l244 -676q43 -5 78 -18zM485 214l-144 404l-145 -404h289z" />
    <glyph glyph-name="AE" unicode="&#xc6;" horiz-adv-x="986" 
d="M7 10q38 14 73 19l395 648q-6 1 -21 4.5t-26 8.5v10h495v-135h-18q-7 13 -14 47.5t-9 55.5h-297v-293h221q6 54 17 82h14v-195h-14q-11 30 -17 82h-221v-313h299q2 19 13.5 53.5t20.5 49.5h17l-13 -134h-490v10q34 12 82 17v156h-291l-93 -156q54 -6 85 -18v-9h-208v10z
M514 214v454h-5l-267 -454h272z" />
    <glyph glyph-name="AEacute" unicode="&#x1fc;" horiz-adv-x="986" 
d="M626 805l112 100q19 19 39 19q12 0 18.5 -6.5t6.5 -16.5q0 -19 -27 -36l-136 -79zM7 10q38 14 73 19l395 648q-6 1 -21 4.5t-26 8.5v10h495v-135h-18q-7 13 -14 47.5t-9 55.5h-297v-293h221q6 54 17 82h14v-195h-14q-11 30 -17 82h-221v-313h299q2 19 13.5 53.5
t20.5 49.5h17l-13 -134h-490v10q34 12 82 17v156h-291l-93 -156q54 -6 85 -18v-9h-208v10zM514 214v454h-5l-267 -454h272z" />
    <glyph glyph-name="B" unicode="B" horiz-adv-x="593" 
d="M41 10q32 12 81 18v644q-50 7 -81 17v11h273q116 0 166.5 -40t50.5 -125q0 -57 -33 -103.5t-98 -58.5v-4q86 -13 123 -63.5t37 -115.5q0 -95 -51 -142.5t-164 -47.5h-304v10zM304 384q77 0 117 40t40 109q0 70 -36 102.5t-117 32.5h-115v-284h111zM339 31q79 0 116 40
t37 121q0 77 -43.5 119t-122.5 42h-133v-322h146z" />
    <glyph glyph-name="C" unicode="C" horiz-adv-x="604" 
d="M129.5 85q-79.5 95 -79.5 265q0 168 81.5 264t230.5 96q123 0 196 -66l-8 -114h-19q-10 28 -18 106q-22 18 -57.5 30t-75.5 12q-131 0 -194.5 -89.5t-63.5 -238.5q0 -151 60.5 -239.5t193.5 -88.5q36 0 83.5 13.5t86.5 38.5l11 -22q-34 -30 -84.5 -46t-110.5 -16
q-153 0 -232.5 95z" />
    <glyph glyph-name="Cacute" unicode="&#x106;" horiz-adv-x="604" 
d="M290 805l112 100q19 19 39 19q12 0 18.5 -6.5t6.5 -16.5q0 -19 -27 -36l-136 -79zM129.5 85q-79.5 95 -79.5 265q0 168 81.5 264t230.5 96q123 0 196 -66l-8 -114h-19q-10 28 -18 106q-22 18 -57.5 30t-75.5 12q-131 0 -194.5 -89.5t-63.5 -238.5q0 -151 60.5 -239.5
t193.5 -88.5q36 0 83.5 13.5t86.5 38.5l11 -22q-34 -30 -84.5 -46t-110.5 -16q-153 0 -232.5 95z" />
    <glyph glyph-name="Ccaron" unicode="&#x10c;" horiz-adv-x="604" 
d="M301.5 848.5q-34.5 32.5 -66.5 54.5l29 27q29 -21 59 -49t49 -53h5q19 25 49 53t59 49l29 -27q-32 -22 -66.5 -54.5t-56.5 -62.5h-33q-22 30 -56.5 62.5zM129.5 85q-79.5 95 -79.5 265q0 168 81.5 264t230.5 96q123 0 196 -66l-8 -114h-19q-10 28 -18 106
q-22 18 -57.5 30t-75.5 12q-131 0 -194.5 -89.5t-63.5 -238.5q0 -151 60.5 -239.5t193.5 -88.5q36 0 83.5 13.5t86.5 38.5l11 -22q-34 -30 -84.5 -46t-110.5 -16q-153 0 -232.5 95z" />
    <glyph glyph-name="Ccedilla" unicode="&#xc7;" horiz-adv-x="604" 
d="M474 7q-50 -16 -108 -17l-27 -58h9q43 0 68 -15.5t25 -45.5q0 -40 -31 -60.5t-81 -20.5q-40 0 -74 14l14 25q27 -9 58 -9q33 0 52.5 12.5t19.5 38.5q0 18 -16.5 26.5t-39.5 8.5q-11 0 -25 -2l-21 26l31 61q-137 11 -207.5 105t-70.5 254q0 168 81.5 264t230.5 96
q123 0 196 -66l-8 -114h-19q-10 28 -18 106q-22 18 -57.5 30t-75.5 12q-131 0 -194.5 -89.5t-63.5 -238.5q0 -151 60.5 -239.5t193.5 -88.5q36 0 83.5 13.5t86.5 38.5l11 -22q-33 -29 -83 -45z" />
    <glyph glyph-name="Ccircumflex" unicode="&#x108;" horiz-adv-x="604" 
d="M229 806q31 22 66 54t57 62h33q22 -30 57 -62t66 -54l-29 -27q-29 21 -59 49t-49 53h-5q-19 -25 -49 -53t-59 -49zM129.5 85q-79.5 95 -79.5 265q0 168 81.5 264t230.5 96q123 0 196 -66l-8 -114h-19q-10 28 -18 106q-22 18 -57.5 30t-75.5 12q-131 0 -194.5 -89.5
t-63.5 -238.5q0 -151 60.5 -239.5t193.5 -88.5q36 0 83.5 13.5t86.5 38.5l11 -22q-34 -30 -84.5 -46t-110.5 -16q-153 0 -232.5 95z" />
    <glyph glyph-name="Cdotaccent" unicode="&#x10a;" horiz-adv-x="604" 
d="M349.5 796q-10.5 11 -10.5 29q0 19 10.5 30t28.5 11q17 0 28 -11t11 -30q0 -18 -11 -29t-28 -11q-18 0 -28.5 11zM129.5 85q-79.5 95 -79.5 265q0 168 81.5 264t230.5 96q123 0 196 -66l-8 -114h-19q-10 28 -18 106q-22 18 -57.5 30t-75.5 12q-131 0 -194.5 -89.5
t-63.5 -238.5q0 -151 60.5 -239.5t193.5 -88.5q36 0 83.5 13.5t86.5 38.5l11 -22q-34 -30 -84.5 -46t-110.5 -16q-153 0 -232.5 95z" />
    <glyph glyph-name="D" unicode="D" horiz-adv-x="654" 
d="M43 10q41 14 80 17v645q-44 7 -80 18v10h290q147 0 214.5 -88.5t67.5 -261.5q0 -172 -67.5 -261t-215.5 -89h-289v10zM330 31q116 0 164.5 82.5t48.5 236.5q0 153 -48 235.5t-163 82.5h-138v-637h136z" />
    <glyph glyph-name="Eth" unicode="&#xd0;" horiz-adv-x="654" 
d="M547.5 611.5q67.5 -88.5 67.5 -261.5q0 -172 -67.5 -261t-215.5 -89h-289v10q41 14 80 17v290h-75v31h75v324q-44 7 -80 18v10h290q147 0 214.5 -88.5zM494.5 113.5q48.5 82.5 48.5 236.5q0 153 -48 235.5t-163 82.5h-138v-320h176v-31h-176v-286h136q116 0 164.5 82.5z
" />
    <glyph glyph-name="Dcaron" unicode="&#x10e;" horiz-adv-x="654" 
d="M256.5 848.5q-34.5 32.5 -66.5 54.5l29 27q29 -21 59 -49t49 -53h5q19 25 49 53t59 49l29 -27q-32 -22 -66.5 -54.5t-56.5 -62.5h-33q-22 30 -56.5 62.5zM43 10q41 14 80 17v645q-44 7 -80 18v10h290q147 0 214.5 -88.5t67.5 -261.5q0 -172 -67.5 -261t-215.5 -89h-289
v10zM330 31q116 0 164.5 82.5t48.5 236.5q0 153 -48 235.5t-163 82.5h-138v-637h136z" />
    <glyph glyph-name="Dcroat" unicode="&#x110;" horiz-adv-x="654" 
d="M547.5 611.5q67.5 -88.5 67.5 -261.5q0 -172 -67.5 -261t-215.5 -89h-289v10q41 14 80 17v290h-75v31h75v324q-44 7 -80 18v10h290q147 0 214.5 -88.5zM494.5 113.5q48.5 82.5 48.5 236.5q0 153 -48 235.5t-163 82.5h-138v-320h176v-31h-176v-286h136q116 0 164.5 82.5z
" />
    <glyph glyph-name="uni1E0C" unicode="&#x1e0c;" horiz-adv-x="654" 
d="M43 10q41 14 80 17v645q-44 7 -80 18v10h290q147 0 214.5 -88.5t67.5 -261.5q0 -172 -67.5 -261t-215.5 -89h-289v10zM330 31q116 0 164.5 82.5t48.5 236.5q0 153 -48 235.5t-163 82.5h-138v-637h136zM287 -131q-11 11 -11 29q0 19 11 30t28 11t28 -11t11 -30
q0 -18 -11 -29t-28 -11t-28 11z" />
    <glyph glyph-name="uni1E0E" unicode="&#x1e0e;" horiz-adv-x="654" 
d="M43 10q41 14 80 17v645q-44 7 -80 18v10h290q147 0 214.5 -88.5t67.5 -261.5q0 -172 -67.5 -261t-215.5 -89h-289v10zM330 31q116 0 164.5 82.5t48.5 236.5q0 153 -48 235.5t-163 82.5h-138v-637h136zM140 -71h314v-31h-314v31z" />
    <glyph glyph-name="E" unicode="E" horiz-adv-x="597" 
d="M547 134l-13 -134h-491v10q40 13 83 17v645q-41 5 -83 18v10h491v-135h-17q-7 13 -14 47.5t-9 55.5h-297v-303h220q2 17 7 42t11 40h13v-195h-13q-6 16 -11 40.5t-7 41.5h-220v-303h299q1 19 12.5 53.5t20.5 49.5h18z" />
    <glyph glyph-name="Eacute" unicode="&#xc9;" horiz-adv-x="597" 
d="M237 786l-13 19l112 100q19 19 39 19q12 0 18.5 -6.5t6.5 -16.5q0 -19 -27 -36zM547 134l-13 -134h-491v10q40 13 83 17v645q-41 5 -83 18v10h491v-135h-17q-7 13 -14 47.5t-9 55.5h-297v-303h220q2 17 7 42t11 40h13v-195h-13q-6 16 -11 40.5t-7 41.5h-220v-303h299
q1 19 12.5 53.5t20.5 49.5h18z" />
    <glyph glyph-name="Ebreve" unicode="&#x114;" horiz-adv-x="597" 
d="M230 806q-39 30 -46 90h46q5 -52 33.5 -70t67.5 -18t67 18t34 70h46q-7 -60 -46 -90t-101 -30t-101 30zM547 134l-13 -134h-491v10q40 13 83 17v645q-41 5 -83 18v10h491v-135h-17q-7 13 -14 47.5t-9 55.5h-297v-303h220q2 17 7 42t11 40h13v-195h-13q-6 16 -11 40.5
t-7 41.5h-220v-303h299q1 19 12.5 53.5t20.5 49.5h18z" />
    <glyph glyph-name="Ecaron" unicode="&#x11a;" horiz-adv-x="597" 
d="M255.5 848.5q-34.5 32.5 -66.5 54.5l29 27q29 -21 59 -49t49 -53h5q19 25 49 53t59 49l29 -27q-32 -22 -66.5 -54.5t-56.5 -62.5h-33q-22 30 -56.5 62.5zM547 134l-13 -134h-491v10q40 13 83 17v645q-41 5 -83 18v10h491v-135h-17q-7 13 -14 47.5t-9 55.5h-297v-303h220
q2 17 7 42t11 40h13v-195h-13q-6 16 -11 40.5t-7 41.5h-220v-303h299q1 19 12.5 53.5t20.5 49.5h18z" />
    <glyph glyph-name="Ecircumflex" unicode="&#xca;" horiz-adv-x="597" 
d="M280 828q-30 -28 -59 -49l-29 27q31 22 66 54t57 62h33q22 -30 57 -62t66 -54l-29 -27q-29 21 -59 49t-49 53h-5q-19 -25 -49 -53zM547 134l-13 -134h-491v10q40 13 83 17v645q-41 5 -83 18v10h491v-135h-17q-7 13 -14 47.5t-9 55.5h-297v-303h220q2 17 7 42t11 40h13
v-195h-13q-6 16 -11 40.5t-7 41.5h-220v-303h299q1 19 12.5 53.5t20.5 49.5h18z" />
    <glyph glyph-name="uni1EBE" unicode="&#x1ebe;" horiz-adv-x="597" 
d="M581 1012.5q6 -5.5 6 -14.5q0 -10 -9 -22t-27 -21l-111 -62l-12 17l89 82q25 26 48 26q10 0 16 -5.5zM277.5 828.5q-29.5 -27.5 -58.5 -49.5l-30 27q31 22 66 54t57 62h33q22 -29 56.5 -61t66.5 -55l-29 -27q-28 21 -57.5 48.5t-50.5 53.5h-5q-19 -25 -48.5 -52.5z
M508.5 84.5q11.5 34.5 20.5 49.5h18l-13 -134h-491v10q40 13 83 17v645q-41 5 -83 18v10h491v-135h-17q-7 13 -14 47.5t-9 55.5h-297v-303h220q2 17 7 42t11 40h13v-195h-13q-6 16 -11 40.5t-7 41.5h-220v-303h299q1 19 12.5 53.5z" />
    <glyph glyph-name="uni1EC6" unicode="&#x1ec6;" horiz-adv-x="597" 
d="M277 828q-30 -28 -59 -49l-29 27q31 22 66 54t57 62h33q22 -30 57 -62t66 -54l-29 -27q-29 21 -59 49t-49 53h-5q-19 -25 -49 -53zM547 134l-13 -134h-491v10q40 13 83 17v645q-41 5 -83 18v10h491v-135h-17q-7 13 -14 47.5t-9 55.5h-297v-303h220q2 17 7 42t11 40h13
v-195h-13q-6 16 -11 40.5t-7 41.5h-220v-303h299q1 19 12.5 53.5t20.5 49.5h18zM358 -72q11 -11 11 -30q0 -18 -11 -29t-28 -11t-28 11t-11 29q0 19 11 30t28 11t28 -11z" />
    <glyph glyph-name="uni1EC0" unicode="&#x1ec0;" horiz-adv-x="597" 
d="M80 998q0 9 6 14.5t15 5.5q13 0 29 -11t37 -30l72 -67l-13 -17l-90 50q-56 32 -56 55zM189 806q31 22 66 54t57 62h33q22 -29 56.5 -61t66.5 -55l-29 -27q-28 21 -57.5 48.5t-50.5 53.5h-5q-19 -25 -48.5 -52.5t-58.5 -49.5zM547 134l-13 -134h-491v10q40 13 83 17v645
q-41 5 -83 18v10h491v-135h-17q-7 13 -14 47.5t-9 55.5h-297v-303h220q2 17 7 42t11 40h13v-195h-13q-6 16 -11 40.5t-7 41.5h-220v-303h299q1 19 12.5 53.5t20.5 49.5h18z" />
    <glyph glyph-name="uni1EC2" unicode="&#x1ec2;" horiz-adv-x="597" 
d="M399 1016l-5 23q30 14 62 14q33 0 55.5 -15.5t22.5 -46.5q0 -53 -69 -61l-9 -51h-28l-4 71h17q27 0 41 11.5t14 30.5q0 16 -12.5 26t-36.5 10q-25 0 -48 -12zM277.5 828.5q-29.5 -27.5 -58.5 -49.5l-30 27q31 22 66 54t57 62h33q22 -29 56.5 -61t66.5 -55l-29 -27
q-28 21 -57.5 48.5t-50.5 53.5h-5q-19 -25 -48.5 -52.5zM547 134l-13 -134h-491v10q40 13 83 17v645q-41 5 -83 18v10h491v-135h-17q-7 13 -14 47.5t-9 55.5h-297v-303h220q2 17 7 42t11 40h13v-195h-13q-6 16 -11 40.5t-7 41.5h-220v-303h299q1 19 12.5 53.5t20.5 49.5h18z
" />
    <glyph glyph-name="uni1EC4" unicode="&#x1ec4;" horiz-adv-x="597" 
d="M225.5 997q-14.5 -16 -20.5 -43h-23q6 48 27 71.5t54 23.5q17 0 32 -7.5t40 -23.5q18 -12 31 -18.5t24 -6.5q44 0 57 62h23q-6 -47 -26.5 -73.5t-55.5 -26.5q-15 0 -30.5 7.5t-36.5 22.5q-24 15 -36 21.5t-24 6.5q-21 0 -35.5 -16zM401.5 861q34.5 -32 66.5 -55l-29 -27
q-28 21 -57.5 48.5t-50.5 53.5h-5q-19 -25 -48.5 -52.5t-58.5 -49.5l-30 27q31 22 66 54t57 62h33q22 -29 56.5 -61zM547 134l-13 -134h-491v10q40 13 83 17v645q-41 5 -83 18v10h491v-135h-17q-7 13 -14 47.5t-9 55.5h-297v-303h220q2 17 7 42t11 40h13v-195h-13
q-6 16 -11 40.5t-7 41.5h-220v-303h299q1 19 12.5 53.5t20.5 49.5h18z" />
    <glyph glyph-name="Edieresis" unicode="&#xcb;" horiz-adv-x="597" 
d="M196 796q-11 11 -11 29q0 19 11 30t28 11t28 -11t11 -30q0 -18 -11 -29t-28 -11t-28 11zM409 796q-11 11 -11 29q0 19 11 30t28 11t28 -11t11 -30q0 -18 -11 -29t-28 -11t-28 11zM547 134l-13 -134h-491v10q40 13 83 17v645q-41 5 -83 18v10h491v-135h-17q-7 13 -14 47.5
t-9 55.5h-297v-303h220q2 17 7 42t11 40h13v-195h-13q-6 16 -11 40.5t-7 41.5h-220v-303h299q1 19 12.5 53.5t20.5 49.5h18z" />
    <glyph glyph-name="Edotaccent" unicode="&#x116;" horiz-adv-x="597" 
d="M307.5 796q-10.5 11 -10.5 29q0 19 10.5 30t28.5 11q17 0 28 -11t11 -30q0 -18 -11 -29t-28 -11q-18 0 -28.5 11zM547 134l-13 -134h-491v10q40 13 83 17v645q-41 5 -83 18v10h491v-135h-17q-7 13 -14 47.5t-9 55.5h-297v-303h220q2 17 7 42t11 40h13v-195h-13
q-6 16 -11 40.5t-7 41.5h-220v-303h299q1 19 12.5 53.5t20.5 49.5h18z" />
    <glyph glyph-name="uni1EB8" unicode="&#x1eb8;" horiz-adv-x="597" 
d="M547 134l-13 -134h-491v10q40 13 83 17v645q-41 5 -83 18v10h491v-135h-17q-7 13 -14 47.5t-9 55.5h-297v-303h220q2 17 7 42t11 40h13v-195h-13q-6 16 -11 40.5t-7 41.5h-220v-303h299q1 19 12.5 53.5t20.5 49.5h18zM336 -72q11 -11 11 -30q0 -18 -11 -29t-28 -11
t-28 11t-11 29q0 19 11 30t28 11t28 -11z" />
    <glyph glyph-name="Egrave" unicode="&#xc8;" horiz-adv-x="597" 
d="M241 901q0 9 7 16t19 7q21 0 38 -19l113 -100l-13 -19l-136 79q-28 17 -28 36zM547 134l-13 -134h-491v10q40 13 83 17v645q-41 5 -83 18v10h491v-135h-17q-7 13 -14 47.5t-9 55.5h-297v-303h220q2 17 7 42t11 40h13v-195h-13q-6 16 -11 40.5t-7 41.5h-220v-303h299
q1 19 12.5 53.5t20.5 49.5h18z" />
    <glyph glyph-name="uni1EBA" unicode="&#x1eba;" horiz-adv-x="597" 
d="M275 945l-7 27q34 17 74 17q38 0 64.5 -19t26.5 -56q0 -32 -20.5 -50.5t-59.5 -22.5l-11 -62h-31l-5 85h20q32 0 48 14.5t16 37.5q0 20 -15 32.5t-43 12.5t-57 -16zM547 134l-13 -134h-491v10q40 13 83 17v645q-41 5 -83 18v10h491v-135h-17q-7 13 -14 47.5t-9 55.5h-297
v-303h220q2 17 7 42t11 40h13v-195h-13q-6 16 -11 40.5t-7 41.5h-220v-303h299q1 19 12.5 53.5t20.5 49.5h18z" />
    <glyph glyph-name="Emacron" unicode="&#x112;" horiz-adv-x="597" 
d="M483 784h-314v31h314v-31zM547 134l-13 -134h-491v10q40 13 83 17v645q-41 5 -83 18v10h491v-135h-17q-7 13 -14 47.5t-9 55.5h-297v-303h220q2 17 7 42t11 40h13v-195h-13q-6 16 -11 40.5t-7 41.5h-220v-303h299q1 19 12.5 53.5t20.5 49.5h18z" />
    <glyph glyph-name="Eogonek" unicode="&#x118;" horiz-adv-x="597" 
d="M554 -133v-33q-34 -15 -74 -15q-44 0 -68 23t-24 54q0 33 21 61t58 43h-424v10q40 13 83 17v645q-41 5 -83 18v10h491v-135h-17q-7 13 -14 47.5t-9 55.5h-297v-303h220q2 17 7 42t11 40h13v-195h-13q-6 16 -11 40.5t-7 41.5h-220v-303h299q1 19 12.5 53.5t20.5 49.5h18
l-13 -134h-25q-29 -16 -47.5 -41t-18.5 -53q0 -25 17 -37.5t44 -12.5t50 11z" />
    <glyph glyph-name="uni1EBC" unicode="&#x1ebc;" horiz-adv-x="597" 
d="M209.5 828q-16.5 -16 -22.5 -43h-26q7 48 30.5 71.5t59.5 23.5q19 0 37 -8t42 -23q21 -12 35 -18.5t27 -6.5q49 0 64 62h25q-7 -47 -29.5 -73.5t-61.5 -26.5q-16 0 -31 7t-44 23q-26 15 -39.5 21.5t-26.5 6.5q-23 0 -39.5 -16zM547 134l-13 -134h-491v10q40 13 83 17v645
q-41 5 -83 18v10h491v-135h-17q-7 13 -14 47.5t-9 55.5h-297v-303h220q2 17 7 42t11 40h13v-195h-13q-6 16 -11 40.5t-7 41.5h-220v-303h299q1 19 12.5 53.5t20.5 49.5h18z" />
    <glyph glyph-name="F" unicode="F" horiz-adv-x="556" 
d="M529 700v-135h-17q-7 13 -14 47.5t-9 55.5h-292v-303h220q2 17 7 42t11 40h13v-195h-13q-6 16 -11 40.5t-7 41.5h-220v-307q56 -8 83 -18v-9h-237v10q36 12 83 17v645q-50 7 -83 18v10h486z" />
    <glyph glyph-name="G" unicode="G" horiz-adv-x="654" 
d="M118 85q-80 95 -80 265q0 111 38 192t110 124.5t172 43.5q66 0 130.5 -18t96.5 -48l-8 -114h-19q-11 29 -18 106q-20 16 -70 29t-93 13q-132 0 -199.5 -90t-67.5 -238q0 -150 61 -239t194 -89q30 0 70.5 8.5t69.5 24.5v256q-47 8 -80 18v10h218v-9q-33 -16 -70 -20v-260
q-37 -29 -98 -44.5t-124 -15.5q-153 0 -233 95z" />
    <glyph glyph-name="Gbreve" unicode="&#x11e;" horiz-adv-x="654" 
d="M257 806q-39 30 -46 90h46q5 -52 33.5 -70t67.5 -18t67 18t34 70h46q-7 -60 -46 -90t-101 -30t-101 30zM118 85q-80 95 -80 265q0 111 38 192t110 124.5t172 43.5q66 0 130.5 -18t96.5 -48l-8 -114h-19q-11 29 -18 106q-20 16 -70 29t-93 13q-132 0 -199.5 -90
t-67.5 -238q0 -150 61 -239t194 -89q30 0 70.5 8.5t69.5 24.5v256q-47 8 -80 18v10h218v-9q-33 -16 -70 -20v-260q-37 -29 -98 -44.5t-124 -15.5q-153 0 -233 95z" />
    <glyph glyph-name="Gcaron" unicode="&#x1e6;" horiz-adv-x="654" 
d="M285.5 862.5q-34.5 32.5 -66.5 54.5l29 27q29 -21 59 -49t49 -53h5q19 25 49 53t59 49l29 -27q-32 -22 -66.5 -54.5t-56.5 -62.5h-33q-22 30 -56.5 62.5zM118 85q-80 95 -80 265q0 111 38 192t110 124.5t172 43.5q66 0 130.5 -18t96.5 -48l-8 -114h-19q-11 29 -18 106
q-20 16 -70 29t-93 13q-132 0 -199.5 -90t-67.5 -238q0 -150 61 -239t194 -89q30 0 70.5 8.5t69.5 24.5v256q-47 8 -80 18v10h218v-9q-33 -16 -70 -20v-260q-37 -29 -98 -44.5t-124 -15.5q-153 0 -233 95z" />
    <glyph glyph-name="Gcircumflex" unicode="&#x11c;" horiz-adv-x="654" 
d="M233 806q31 22 66 54t57 62h33q22 -30 57 -62t66 -54l-29 -27q-29 21 -59 49t-49 53h-5q-19 -25 -49 -53t-59 -49zM118 85q-80 95 -80 265q0 111 38 192t110 124.5t172 43.5q66 0 130.5 -18t96.5 -48l-8 -114h-19q-11 29 -18 106q-20 16 -70 29t-93 13q-132 0 -199.5 -90
t-67.5 -238q0 -150 61 -239t194 -89q30 0 70.5 8.5t69.5 24.5v256q-47 8 -80 18v10h218v-9q-33 -16 -70 -20v-260q-37 -29 -98 -44.5t-124 -15.5q-153 0 -233 95z" />
    <glyph glyph-name="Gcommaaccent" unicode="&#x122;" horiz-adv-x="654" 
d="M118 85q-80 95 -80 265q0 111 38 192t110 124.5t172 43.5q66 0 130.5 -18t96.5 -48l-8 -114h-19q-11 29 -18 106q-20 16 -70 29t-93 13q-132 0 -199.5 -90t-67.5 -238q0 -150 61 -239t194 -89q30 0 70.5 8.5t69.5 24.5v256q-47 8 -80 18v10h218v-9q-33 -16 -70 -20v-260
q-37 -29 -98 -44.5t-124 -15.5q-153 0 -233 95zM319 -259q18 22 29.5 51t13.5 59q-8 -2 -12 -2q-18 0 -30.5 12t-12.5 31q0 21 13.5 32t32.5 11q28 0 41.5 -16.5t13.5 -45.5q0 -37 -17.5 -82t-45.5 -71z" />
    <glyph glyph-name="Gdotaccent" unicode="&#x120;" horiz-adv-x="654" 
d="M338.5 796q-10.5 11 -10.5 29q0 19 10.5 30t28.5 11q17 0 28 -11t11 -30q0 -18 -11 -29t-28 -11q-18 0 -28.5 11zM118 85q-80 95 -80 265q0 111 38 192t110 124.5t172 43.5q66 0 130.5 -18t96.5 -48l-8 -114h-19q-11 29 -18 106q-20 16 -70 29t-93 13q-132 0 -199.5 -90
t-67.5 -238q0 -150 61 -239t194 -89q30 0 70.5 8.5t69.5 24.5v256q-47 8 -80 18v10h218v-9q-33 -16 -70 -20v-260q-37 -29 -98 -44.5t-124 -15.5q-153 0 -233 95z" />
    <glyph glyph-name="uni1E20" unicode="&#x1e20;" horiz-adv-x="654" 
d="M200 815h314v-31h-314v31zM118 85q-80 95 -80 265q0 111 38 192t110 124.5t172 43.5q66 0 130.5 -18t96.5 -48l-8 -114h-19q-11 29 -18 106q-20 16 -70 29t-93 13q-132 0 -199.5 -90t-67.5 -238q0 -150 61 -239t194 -89q30 0 70.5 8.5t69.5 24.5v256q-47 8 -80 18v10h218
v-9q-33 -16 -70 -20v-260q-37 -29 -98 -44.5t-124 -15.5q-153 0 -233 95z" />
    <glyph glyph-name="H" unicode="H" horiz-adv-x="779" 
d="M655 672v-645q53 -8 81 -18v-9h-230v9q23 9 38.5 12.5t39.5 5.5v313h-390v-313q42 -6 79 -18v-9h-230v10q41 14 80 17v645q-44 7 -80 18v10h230v-10q-22 -8 -37.5 -11.5t-41.5 -6.5v-301h390v301q-42 6 -78 18v10h230v-11q-41 -14 -81 -17z" />
    <glyph glyph-name="Hbar" unicode="&#x126;" horiz-adv-x="779" 
d="M655 672v-133h61v-31h-61v-481q53 -8 81 -18v-9h-230v9q23 9 38.5 12.5t39.5 5.5v313h-390v-313q42 -6 79 -18v-9h-230v10q41 14 80 17v481h-60v31h60v133q-44 7 -80 18v10h230v-10q-22 -8 -37.5 -11.5t-41.5 -6.5v-133h390v133q-42 6 -78 18v10h230v-11q-41 -14 -81 -17
zM584 508h-390v-137h390v137z" />
    <glyph glyph-name="uni1E2A" unicode="&#x1e2a;" horiz-adv-x="779" 
d="M655 672v-645q53 -8 81 -18v-9h-230v9q23 9 38.5 12.5t39.5 5.5v313h-390v-313q42 -6 79 -18v-9h-230v10q41 14 80 17v645q-44 7 -80 18v10h230v-10q-22 -8 -37.5 -11.5t-41.5 -6.5v-301h390v301q-42 6 -78 18v10h230v-11q-41 -14 -81 -17zM490 -50h46q-7 -60 -46 -90
t-101 -30t-101 30t-46 90h46q9 -89 101 -89q91 0 101 89z" />
    <glyph glyph-name="Hcircumflex" unicode="&#x124;" horiz-adv-x="779" 
d="M338 828q-30 -28 -59 -49l-29 27q31 22 66 54t57 62h33q22 -30 57 -62t66 -54l-29 -27q-29 21 -59 49t-49 53h-5q-19 -25 -49 -53zM655 672v-645q53 -8 81 -18v-9h-230v9q23 9 38.5 12.5t39.5 5.5v313h-390v-313q42 -6 79 -18v-9h-230v10q41 14 80 17v645q-44 7 -80 18
v10h230v-10q-22 -8 -37.5 -11.5t-41.5 -6.5v-301h390v301q-42 6 -78 18v10h230v-11q-41 -14 -81 -17z" />
    <glyph glyph-name="uni1E24" unicode="&#x1e24;" horiz-adv-x="779" 
d="M655 672v-645q53 -8 81 -18v-9h-230v9q23 9 38.5 12.5t39.5 5.5v313h-390v-313q42 -6 79 -18v-9h-230v10q41 14 80 17v645q-44 7 -80 18v10h230v-10q-22 -8 -37.5 -11.5t-41.5 -6.5v-301h390v301q-42 6 -78 18v10h230v-11q-41 -14 -81 -17zM413 -72q11 -11 11 -30
q0 -18 -11 -29t-28 -11t-28 11t-11 29q0 19 11 30t28 11t28 -11z" />
    <glyph glyph-name="I" unicode="I" horiz-adv-x="328" 
d="M47 10q36 11 81 17v645q-46 7 -81 18v10h234v-10q-34 -11 -82 -18v-645q48 -7 82 -18v-9h-234v10z" />
    <glyph glyph-name="IJ" unicode="&#x132;" horiz-adv-x="782" 
d="M47 10q36 11 81 17v645q-46 7 -81 18v10h234v-10q-34 -11 -82 -18v-645q48 -7 82 -18v-9h-234v10zM347 36l12 20q51 -29 112 -29q116 0 116 112v532q-41 5 -80 17v12h231v-11q-38 -13 -80 -17v-535q0 -70 -44.5 -108.5t-121.5 -38.5q-88 0 -145 46z" />
    <glyph glyph-name="Iacute" unicode="&#xcd;" horiz-adv-x="328" 
d="M74 805l112 100q19 19 39 19q12 0 18.5 -6.5t6.5 -16.5q0 -19 -27 -36l-136 -79zM47 10q36 11 81 17v645q-46 7 -81 18v10h234v-10q-34 -11 -82 -18v-645q48 -7 82 -18v-9h-234v10z" />
    <glyph glyph-name="Ibreve" unicode="&#x12c;" horiz-adv-x="328" 
d="M63 806q-39 30 -46 90h46q5 -52 33 -70t68 -18q39 0 67 18t34 70h46q-7 -60 -46 -90t-101 -30t-101 30zM47 10q36 11 81 17v645q-46 7 -81 18v10h234v-10q-34 -11 -82 -18v-645q48 -7 82 -18v-9h-234v10z" />
    <glyph glyph-name="uni01CF" unicode="&#x1cf;" horiz-adv-x="328" 
d="M90.5 848.5q-34.5 32.5 -66.5 54.5l29 27q29 -21 59 -49t49 -53h5q19 25 49 53t59 49l29 -27q-32 -22 -66.5 -54.5t-56.5 -62.5h-33q-22 30 -56.5 62.5zM47 10q36 11 81 17v645q-46 7 -81 18v10h234v-10q-34 -11 -82 -18v-645q48 -7 82 -18v-9h-234v10z" />
    <glyph glyph-name="Icircumflex" unicode="&#xce;" horiz-adv-x="328" 
d="M24 806q31 22 66 54t57 62h33q22 -30 57 -62t66 -54l-29 -27q-29 21 -59 49t-49 53h-5q-19 -25 -49 -53t-59 -49zM47 10q36 11 81 17v645q-46 7 -81 18v10h234v-10q-34 -11 -82 -18v-645q48 -7 82 -18v-9h-234v10z" />
    <glyph glyph-name="Idieresis" unicode="&#xcf;" horiz-adv-x="328" 
d="M29 796q-11 11 -11 29q0 19 11 30t28 11t28 -11t11 -30q0 -18 -11 -29t-28 -11t-28 11zM242 796q-11 11 -11 29q0 19 11 30t28 11t28 -11t11 -30q0 -18 -11 -29t-28 -11t-28 11zM47 10q36 11 81 17v645q-46 7 -81 18v10h234v-10q-34 -11 -82 -18v-645q48 -7 82 -18v-9
h-234v10z" />
    <glyph glyph-name="Idotaccent" unicode="&#x130;" horiz-adv-x="328" 
d="M134.5 796q-10.5 11 -10.5 29q0 19 10.5 30t28.5 11q17 0 28 -11t11 -30q0 -18 -11 -29t-28 -11q-18 0 -28.5 11zM47 10q36 11 81 17v645q-46 7 -81 18v10h234v-10q-34 -11 -82 -18v-645q48 -7 82 -18v-9h-234v10z" />
    <glyph glyph-name="uni1ECA" unicode="&#x1eca;" horiz-adv-x="328" 
d="M47 10q36 11 81 17v645q-46 7 -81 18v10h234v-10q-34 -11 -82 -18v-645q48 -7 82 -18v-9h-234v10zM135 -131q-11 11 -11 29q0 19 11 30t28 11t28 -11t11 -30q0 -18 -11 -29t-28 -11t-28 11z" />
    <glyph glyph-name="Igrave" unicode="&#xcc;" horiz-adv-x="328" 
d="M102 865q-28 17 -28 36q0 9 7 16t19 7q21 0 38 -19l113 -100l-13 -19zM47 10q36 11 81 17v645q-46 7 -81 18v10h234v-10q-34 -11 -82 -18v-645q48 -7 82 -18v-9h-234v10z" />
    <glyph glyph-name="uni1EC8" unicode="&#x1ec8;" horiz-adv-x="328" 
d="M146 864h20q32 0 48 14.5t16 37.5q0 20 -15 32.5t-43 12.5t-57 -16l-7 27q34 17 74 17q38 0 64.5 -19t26.5 -56q0 -32 -20.5 -50.5t-59.5 -22.5l-11 -62h-31zM47 10q36 11 81 17v645q-46 7 -81 18v10h234v-10q-34 -11 -82 -18v-645q48 -7 82 -18v-9h-234v10z" />
    <glyph glyph-name="Imacron" unicode="&#x12a;" horiz-adv-x="328" 
d="M1 816h327v-31h-327v31zM47 10q36 11 81 17v645q-46 7 -81 18v10h234v-10q-34 -11 -82 -18v-645q48 -7 82 -18v-9h-234v10z" />
    <glyph glyph-name="Iogonek" unicode="&#x12e;" horiz-adv-x="328" 
d="M300 -133v-33q-35 -15 -74 -15q-44 0 -68 23t-24 54q0 33 21 61t58 43h-166v10q36 11 81 17v645q-46 7 -81 18v10h234v-10q-34 -11 -82 -18v-645q48 -7 82 -18v-9h-26q-29 -16 -47.5 -41t-18.5 -53q0 -25 17 -37.5t44 -12.5t50 11z" />
    <glyph glyph-name="Itilde" unicode="&#x128;" horiz-adv-x="328" 
d="M33.5 857.5q23.5 23.5 59.5 23.5q19 0 37 -8t42 -23q21 -12 35 -18.5t27 -6.5q49 0 64 62h25q-7 -47 -29.5 -73.5t-61.5 -26.5q-16 0 -31 7t-44 23q-26 15 -39.5 21.5t-26.5 6.5q-23 0 -39.5 -16t-22.5 -43h-26q7 48 30.5 71.5zM47 10q36 11 81 17v645q-46 7 -81 18v10
h234v-10q-34 -11 -82 -18v-645q48 -7 82 -18v-9h-234v10z" />
    <glyph glyph-name="J" unicode="J" horiz-adv-x="457" 
d="M22 36l12 20q51 -29 112 -29q116 0 116 112v532q-41 5 -80 17v12h231v-11q-38 -13 -80 -17v-535q0 -70 -44.5 -108.5t-121.5 -38.5q-88 0 -145 46z" />
    <glyph glyph-name="Jcircumflex" unicode="&#x134;" horiz-adv-x="457" 
d="M158 806q31 22 66 54t57 62h33q22 -30 57 -62t66 -54l-29 -27q-29 21 -59 49t-49 53h-5q-19 -25 -49 -53t-59 -49zM22 36l12 20q51 -29 112 -29q116 0 116 112v532q-41 5 -80 17v12h231v-11q-38 -13 -80 -17v-535q0 -70 -44.5 -108.5t-121.5 -38.5q-88 0 -145 46z" />
    <glyph glyph-name="K" unicode="K" horiz-adv-x="713" 
d="M43 10q41 13 81 17v645q-46 7 -81 18v10h234v-10q-37 -12 -82 -18v-350l312 343q-3 7 -13 10t-21.5 5t-14.5 3q-19 2 -25 4v13h191v-13q-8 -2 -22 -4.5t-25.5 -6.5t-20.5 -12l-237 -259l301 -378q58 -11 82 -18v-9h-139l-287 360l-81 -90v-243q47 -7 82 -18v-9h-234v10z
" />
    <glyph glyph-name="Kcommaaccent" unicode="&#x136;" horiz-adv-x="713" 
d="M43 10q41 13 81 17v645q-46 7 -81 18v10h234v-10q-37 -12 -82 -18v-350l312 343q-3 7 -13 10t-21.5 5t-14.5 3q-19 2 -25 4v13h191v-13q-8 -2 -22 -4.5t-25.5 -6.5t-20.5 -12l-237 -259l301 -378q58 -11 82 -18v-9h-139l-287 360l-81 -90v-243q47 -7 82 -18v-9h-234v10z
M344 -259q18 22 29.5 51t13.5 59q-8 -2 -12 -2q-18 0 -30.5 12t-12.5 31q0 21 13.5 32t32.5 11q28 0 41.5 -16.5t13.5 -45.5q0 -37 -17.5 -82t-45.5 -71z" />
    <glyph glyph-name="L" unicode="L" horiz-adv-x="581" 
d="M44 10q34 12 83 17v645q-44 6 -82 18v10h234v-10q-36 -12 -81 -18v-641h288q1 19 13 53t21 50h17l-13 -134h-480v10z" />
    <glyph glyph-name="Lacute" unicode="&#x139;" horiz-adv-x="581" 
d="M127 805l112 100q19 19 39 19q12 0 18.5 -6.5t6.5 -16.5q0 -19 -27 -36l-136 -79zM44 10q34 12 83 17v645q-44 6 -82 18v10h234v-10q-36 -12 -81 -18v-641h288q1 19 13 53t21 50h17l-13 -134h-480v10z" />
    <glyph glyph-name="Lcaron" unicode="&#x13d;" horiz-adv-x="581" 
d="M395 512q18 22 30 51t14 59q-8 -2 -13 -2q-18 0 -30.5 11t-12.5 32t12.5 34t34.5 13q30 0 43 -18t13 -48q0 -37 -18.5 -82t-46.5 -71zM44 10q34 12 83 17v645q-44 6 -82 18v10h234v-10q-36 -12 -81 -18v-641h288q1 19 13 53t21 50h17l-13 -134h-480v10z" />
    <glyph glyph-name="Lcommaaccent" unicode="&#x13b;" horiz-adv-x="581" 
d="M44 10q34 12 83 17v645q-44 6 -82 18v10h234v-10q-36 -12 -81 -18v-641h288q1 19 13 53t21 50h17l-13 -134h-480v10zM274 -259q18 22 29.5 51t13.5 59q-8 -2 -12 -2q-18 0 -30.5 12t-12.5 31q0 21 13.5 32t32.5 11q28 0 41.5 -16.5t13.5 -45.5q0 -37 -17.5 -82t-45.5 -71
z" />
    <glyph glyph-name="Ldot" unicode="&#x13f;" horiz-adv-x="581" 
d="M44 10q34 12 83 17v645q-44 6 -82 18v10h234v-10q-36 -12 -81 -18v-641h288q1 19 13 53t21 50h17l-13 -134h-480v10zM347 343q-11 11 -11 30q0 18 11 29t28 11q18 0 29 -11t11 -29q0 -19 -11 -30t-29 -11q-17 0 -28 11z" />
    <glyph glyph-name="uni1E36" unicode="&#x1e36;" horiz-adv-x="581" 
d="M44 10q34 12 83 17v645q-44 6 -82 18v10h234v-10q-36 -12 -81 -18v-641h288q1 19 13 53t21 50h17l-13 -134h-480v10zM292.5 -123q-10.5 11 -10.5 30q0 18 10.5 29t28.5 11q17 0 28 -11t11 -29q0 -19 -11 -30t-28 -11q-18 0 -28.5 11z" />
    <glyph glyph-name="uni1E38" unicode="&#x1e38;" horiz-adv-x="581" 
d="M5 815h314v-30h-314v30zM44 10q34 12 83 17v645q-44 6 -82 18v10h234v-10q-36 -12 -81 -18v-641h288q1 19 13 53t21 50h17l-13 -134h-480v10zM292 -123q-11 11 -11 30q0 18 11 29t28 11t28 -11t11 -29q0 -19 -11 -30t-28 -11t-28 11z" />
    <glyph glyph-name="uni1E3A" unicode="&#x1e3a;" horiz-adv-x="581" 
d="M44 10q34 12 83 17v645q-44 6 -82 18v10h234v-10q-36 -12 -81 -18v-641h288q1 19 13 53t21 50h17l-13 -134h-480v10zM144 -71h314v-31h-314v31z" />
    <glyph glyph-name="Lslash" unicode="&#x141;" horiz-adv-x="581" 
d="M537 134l-13 -134h-480v10q34 12 83 17v254l-90 -32v41l90 32v350q-44 6 -82 18v10h234v-10q-36 -12 -81 -18v-324l213 77v-41l-213 -77v-276h288q1 19 13 53t21 50h17z" />
    <glyph glyph-name="M" unicode="M" horiz-adv-x="896" 
d="M43 9q41 13 81 17v646q-46 7 -81 18v10h169l232 -556l243 556h166v-10q-29 -10 -81 -19v-645q40 -4 81 -17v-9h-233v9q36 12 81 18v619l-250 -568h-41l-246 572v-623q42 -6 81 -18v-9h-202v9z" />
    <glyph glyph-name="uni1E42" unicode="&#x1e42;" horiz-adv-x="896" 
d="M43 9q41 13 81 17v646q-46 7 -81 18v10h169l232 -556l243 556h166v-10q-29 -10 -81 -19v-645q40 -4 81 -17v-9h-233v9q36 12 81 18v619l-250 -568h-41l-246 572v-623q42 -6 81 -18v-9h-202v9zM419 -131q-11 11 -11 29q0 19 11 30t28 11t28 -11t11 -30q0 -18 -11 -29
t-28 -11t-28 11z" />
    <glyph glyph-name="N" unicode="N" horiz-adv-x="776" 
d="M43 9q41 13 81 17v646q-46 7 -81 18v10h164l405 -607v580q-50 7 -81 17v10h201v-10q-25 -8 -81 -18v-672h-44l-443 659v-632q42 -6 81 -18v-9h-202v9z" />
    <glyph glyph-name="Nacute" unicode="&#x143;" horiz-adv-x="776" 
d="M332 805l112 100q19 19 39 19q12 0 18.5 -6.5t6.5 -16.5q0 -19 -27 -36l-136 -79zM43 9q41 13 81 17v646q-46 7 -81 18v10h164l405 -607v580q-50 7 -81 17v10h201v-10q-25 -8 -81 -18v-672h-44l-443 659v-632q42 -6 81 -18v-9h-202v9z" />
    <glyph glyph-name="Ncaron" unicode="&#x147;" horiz-adv-x="776" 
d="M313.5 848.5q-34.5 32.5 -66.5 54.5l29 27q29 -21 59 -49t49 -53h5q19 25 49 53t59 49l29 -27q-32 -22 -66.5 -54.5t-56.5 -62.5h-33q-22 30 -56.5 62.5zM43 9q41 13 81 17v646q-46 7 -81 18v10h164l405 -607v580q-50 7 -81 17v10h201v-10q-25 -8 -81 -18v-672h-44
l-443 659v-632q42 -6 81 -18v-9h-202v9z" />
    <glyph glyph-name="Ncommaaccent" unicode="&#x145;" horiz-adv-x="776" 
d="M43 9q41 13 81 17v646q-46 7 -81 18v10h164l405 -607v580q-50 7 -81 17v10h201v-10q-25 -8 -81 -18v-672h-44l-443 659v-632q42 -6 81 -18v-9h-202v9zM349 -259q18 22 29.5 51t13.5 59q-8 -2 -12 -2q-18 0 -30.5 12t-12.5 31q0 21 13.5 32t32.5 11q28 0 41.5 -16.5
t13.5 -45.5q0 -37 -17.5 -82t-45.5 -71z" />
    <glyph glyph-name="uni1E44" unicode="&#x1e44;" horiz-adv-x="776" 
d="M363.5 796q-10.5 11 -10.5 29q0 19 10.5 30t28.5 11q17 0 28 -11t11 -30q0 -18 -11 -29t-28 -11q-18 0 -28.5 11zM43 9q41 13 81 17v646q-46 7 -81 18v10h164l405 -607v580q-50 7 -81 17v10h201v-10q-25 -8 -81 -18v-672h-44l-443 659v-632q42 -6 81 -18v-9h-202v9z" />
    <glyph glyph-name="uni1E46" unicode="&#x1e46;" horiz-adv-x="776" 
d="M43 9q41 13 81 17v646q-46 7 -81 18v10h164l405 -607v580q-50 7 -81 17v10h201v-10q-25 -8 -81 -18v-672h-44l-443 659v-632q42 -6 81 -18v-9h-202v9zM348 -131q-11 11 -11 29q0 19 11 30t28 11t28 -11t11 -30q0 -18 -11 -29t-28 -11t-28 11z" />
    <glyph glyph-name="Eng" unicode="&#x14a;" horiz-adv-x="776" 
d="M378 -212l8 20q47 -21 104 -21q56 0 89 25.5t33 81.5v106l-448 659v-632q42 -6 81 -18v-9h-202v9q41 13 81 17v646q-46 7 -81 18v10h164l405 -607v580q-50 7 -81 17v10h201v-10q-25 -8 -81 -18v-781q0 -67 -38 -103t-108 -36q-71 0 -127 36z" />
    <glyph glyph-name="uni1E48" unicode="&#x1e48;" horiz-adv-x="776" 
d="M43 9q41 13 81 17v646q-46 7 -81 18v10h164l405 -607v580q-50 7 -81 17v10h201v-10q-25 -8 -81 -18v-672h-44l-443 659v-632q42 -6 81 -18v-9h-202v9zM233 -71h314v-31h-314v31z" />
    <glyph glyph-name="Ntilde" unicode="&#xd1;" horiz-adv-x="776" 
d="M260.5 857.5q23.5 23.5 59.5 23.5q19 0 37 -8t42 -23q21 -12 35 -18.5t27 -6.5q49 0 64 62h25q-7 -47 -29.5 -73.5t-61.5 -26.5q-16 0 -31 7t-44 23q-26 15 -39.5 21.5t-26.5 6.5q-23 0 -39.5 -16t-22.5 -43h-26q7 48 30.5 71.5zM43 9q41 13 81 17v646q-46 7 -81 18v10
h164l405 -607v580q-50 7 -81 17v10h201v-10q-25 -8 -81 -18v-672h-44l-443 659v-632q42 -6 81 -18v-9h-202v9z" />
    <glyph glyph-name="O" unicode="O" horiz-adv-x="698" 
d="M118.5 85.5q-80.5 95.5 -80.5 264.5t80.5 264.5t230.5 95.5t230.5 -95.5t80.5 -264.5t-80.5 -264.5t-230.5 -95.5t-230.5 95.5zM528 111.5q61 89.5 61 238.5q0 148 -61 238t-179 90t-179 -90t-61 -238q0 -149 60.5 -238.5t179.5 -89.5q118 0 179 89.5z" />
    <glyph glyph-name="Oacute" unicode="&#xd3;" horiz-adv-x="698" 
d="M262 805l112 100q19 19 39 19q12 0 18.5 -6.5t6.5 -16.5q0 -19 -27 -36l-136 -79zM118.5 85.5q-80.5 95.5 -80.5 264.5t80.5 264.5t230.5 95.5t230.5 -95.5t80.5 -264.5t-80.5 -264.5t-230.5 -95.5t-230.5 95.5zM528 111.5q61 89.5 61 238.5q0 148 -61 238t-179 90
t-179 -90t-61 -238q0 -149 60.5 -238.5t179.5 -89.5q118 0 179 89.5z" />
    <glyph glyph-name="Obreve" unicode="&#x14e;" horiz-adv-x="698" 
d="M248 804q-39 30 -46 90h46q5 -52 33 -70t68 -18q39 0 67 18t34 70h46q-7 -60 -46 -90t-101 -30t-101 30zM118.5 85.5q-80.5 95.5 -80.5 264.5t80.5 264.5t230.5 95.5t230.5 -95.5t80.5 -264.5t-80.5 -264.5t-230.5 -95.5t-230.5 95.5zM528 111.5q61 89.5 61 238.5
q0 148 -61 238t-179 90t-179 -90t-61 -238q0 -149 60.5 -238.5t179.5 -89.5q118 0 179 89.5z" />
    <glyph glyph-name="uni01D1" unicode="&#x1d1;" horiz-adv-x="698" 
d="M276.5 848.5q-34.5 32.5 -66.5 54.5l29 27q29 -21 59 -49t49 -53h5q19 25 49 53t59 49l29 -27q-32 -22 -66.5 -54.5t-56.5 -62.5h-33q-22 30 -56.5 62.5zM118.5 85.5q-80.5 95.5 -80.5 264.5t80.5 264.5t230.5 95.5t230.5 -95.5t80.5 -264.5t-80.5 -264.5t-230.5 -95.5
t-230.5 95.5zM528 111.5q61 89.5 61 238.5q0 148 -61 238t-179 90t-179 -90t-61 -238q0 -149 60.5 -238.5t179.5 -89.5q118 0 179 89.5z" />
    <glyph glyph-name="Ocircumflex" unicode="&#xd4;" horiz-adv-x="698" 
d="M209 806q31 22 66 54t57 62h33q22 -30 57 -62t66 -54l-29 -27q-29 21 -59 49t-49 53h-5q-19 -25 -49 -53t-59 -49zM118.5 85.5q-80.5 95.5 -80.5 264.5t80.5 264.5t230.5 95.5t230.5 -95.5t80.5 -264.5t-80.5 -264.5t-230.5 -95.5t-230.5 95.5zM528 111.5
q61 89.5 61 238.5q0 148 -61 238t-179 90t-179 -90t-61 -238q0 -149 60.5 -238.5t179.5 -89.5q118 0 179 89.5z" />
    <glyph glyph-name="uni1ED0" unicode="&#x1ed0;" horiz-adv-x="698" 
d="M447 910l89 82q25 26 48 26q10 0 16 -5.5t6 -14.5q0 -10 -9 -22t-27 -21l-111 -62zM208 806q31 22 66 54t57 62h33q22 -29 56.5 -61t66.5 -55l-29 -27q-28 21 -57.5 48.5t-50.5 53.5h-5q-19 -25 -48.5 -52.5t-58.5 -49.5zM118.5 85.5q-80.5 95.5 -80.5 264.5t80.5 264.5
t230.5 95.5t230.5 -95.5t80.5 -264.5t-80.5 -264.5t-230.5 -95.5t-230.5 95.5zM528 111.5q61 89.5 61 238.5q0 148 -61 238t-179 90t-179 -90t-61 -238q0 -149 60.5 -238.5t179.5 -89.5q118 0 179 89.5z" />
    <glyph glyph-name="uni1ED8" unicode="&#x1ed8;" horiz-adv-x="698" 
d="M209 806q31 22 66 54t57 62h33q22 -30 57 -62t66 -54l-29 -27q-29 21 -59 49t-49 53h-5q-19 -25 -49 -53t-59 -49zM118.5 85.5q-80.5 95.5 -80.5 264.5t80.5 264.5t230.5 95.5t230.5 -95.5t80.5 -264.5t-80.5 -264.5t-230.5 -95.5t-230.5 95.5zM528 111.5
q61 89.5 61 238.5q0 148 -61 238t-179 90t-179 -90t-61 -238q0 -149 60.5 -238.5t179.5 -89.5q118 0 179 89.5zM320 -131q-11 11 -11 29q0 19 11 30t28 11t28 -11t11 -30q0 -18 -11 -29t-28 -11t-28 11z" />
    <glyph glyph-name="uni1ED2" unicode="&#x1ed2;" horiz-adv-x="698" 
d="M155 943q-56 32 -56 55q0 9 6 14.5t15 5.5q13 0 29 -11t37 -30l72 -67l-13 -17zM208 806q31 22 66 54t57 62h33q22 -29 56.5 -61t66.5 -55l-29 -27q-28 21 -57.5 48.5t-50.5 53.5h-5q-19 -25 -48.5 -52.5t-58.5 -49.5zM118.5 85.5q-80.5 95.5 -80.5 264.5t80.5 264.5
t230.5 95.5t230.5 -95.5t80.5 -264.5t-80.5 -264.5t-230.5 -95.5t-230.5 95.5zM528 111.5q61 89.5 61 238.5q0 148 -61 238t-179 90t-179 -90t-61 -238q0 -149 60.5 -238.5t179.5 -89.5q118 0 179 89.5z" />
    <glyph glyph-name="uni1ED4" unicode="&#x1ed4;" horiz-adv-x="698" 
d="M443 950h17q27 0 41 11.5t14 30.5q0 16 -12.5 26t-36.5 10q-25 0 -48 -12l-5 23q30 14 62 14q33 0 55.5 -15.5t22.5 -46.5q0 -53 -69 -61l-9 -51h-28zM208 806q31 22 66 54t57 62h33q22 -29 56.5 -61t66.5 -55l-29 -27q-28 21 -57.5 48.5t-50.5 53.5h-5
q-19 -25 -48.5 -52.5t-58.5 -49.5zM118.5 85.5q-80.5 95.5 -80.5 264.5t80.5 264.5t230.5 95.5t230.5 -95.5t80.5 -264.5t-80.5 -264.5t-230.5 -95.5t-230.5 95.5zM528 111.5q61 89.5 61 238.5q0 148 -61 238t-179 90t-179 -90t-61 -238q0 -149 60.5 -238.5t179.5 -89.5
q118 0 179 89.5z" />
    <glyph glyph-name="uni1ED6" unicode="&#x1ed6;" horiz-adv-x="698" 
d="M228 1025.5q21 23.5 54 23.5q17 0 32 -7.5t40 -23.5q18 -12 31 -18.5t24 -6.5q44 0 57 62h23q-6 -47 -26.5 -73.5t-55.5 -26.5q-15 0 -30.5 7.5t-36.5 22.5q-24 15 -36 21.5t-24 6.5q-21 0 -35.5 -16t-20.5 -43h-23q6 48 27 71.5zM208 806q31 22 66 54t57 62h33
q22 -29 56.5 -61t66.5 -55l-29 -27q-28 21 -57.5 48.5t-50.5 53.5h-5q-19 -25 -48.5 -52.5t-58.5 -49.5zM118.5 85.5q-80.5 95.5 -80.5 264.5t80.5 264.5t230.5 95.5t230.5 -95.5t80.5 -264.5t-80.5 -264.5t-230.5 -95.5t-230.5 95.5zM528 111.5q61 89.5 61 238.5
q0 148 -61 238t-179 90t-179 -90t-61 -238q0 -149 60.5 -238.5t179.5 -89.5q118 0 179 89.5z" />
    <glyph glyph-name="Odieresis" unicode="&#xd6;" horiz-adv-x="698" 
d="M214 796q-11 11 -11 29q0 19 11 30t28 11t28 -11t11 -30q0 -18 -11 -29t-28 -11t-28 11zM427 796q-11 11 -11 29q0 19 11 30t28 11t28 -11t11 -30q0 -18 -11 -29t-28 -11t-28 11zM118.5 85.5q-80.5 95.5 -80.5 264.5t80.5 264.5t230.5 95.5t230.5 -95.5t80.5 -264.5
t-80.5 -264.5t-230.5 -95.5t-230.5 95.5zM528 111.5q61 89.5 61 238.5q0 148 -61 238t-179 90t-179 -90t-61 -238q0 -149 60.5 -238.5t179.5 -89.5q118 0 179 89.5z" />
    <glyph glyph-name="uni1ECC" unicode="&#x1ecc;" horiz-adv-x="698" 
d="M118.5 85.5q-80.5 95.5 -80.5 264.5t80.5 264.5t230.5 95.5t230.5 -95.5t80.5 -264.5t-80.5 -264.5t-230.5 -95.5t-230.5 95.5zM528 111.5q61 89.5 61 238.5q0 148 -61 238t-179 90t-179 -90t-61 -238q0 -149 60.5 -238.5t179.5 -89.5q118 0 179 89.5zM320 -131
q-11 11 -11 29q0 19 11 30t28 11t28 -11t11 -30q0 -18 -11 -29t-28 -11t-28 11z" />
    <glyph glyph-name="Ograve" unicode="&#xd2;" horiz-adv-x="698" 
d="M285 865q-28 17 -28 36q0 9 7 16t19 7q21 0 38 -19l113 -100l-13 -19zM118.5 85.5q-80.5 95.5 -80.5 264.5t80.5 264.5t230.5 95.5t230.5 -95.5t80.5 -264.5t-80.5 -264.5t-230.5 -95.5t-230.5 95.5zM528 111.5q61 89.5 61 238.5q0 148 -61 238t-179 90t-179 -90
t-61 -238q0 -149 60.5 -238.5t179.5 -89.5q118 0 179 89.5z" />
    <glyph glyph-name="uni1ECE" unicode="&#x1ece;" horiz-adv-x="698" 
d="M324 864h20q32 0 48 14.5t16 37.5q0 20 -15 32.5t-43 12.5t-57 -16l-7 27q34 17 74 17q38 0 64.5 -19t26.5 -56q0 -32 -20.5 -50.5t-59.5 -22.5l-11 -62h-31zM118.5 85.5q-80.5 95.5 -80.5 264.5t80.5 264.5t230.5 95.5t230.5 -95.5t80.5 -264.5t-80.5 -264.5
t-230.5 -95.5t-230.5 95.5zM528 111.5q61 89.5 61 238.5q0 148 -61 238t-179 90t-179 -90t-61 -238q0 -149 60.5 -238.5t179.5 -89.5q118 0 179 89.5z" />
    <glyph glyph-name="Ohorn" unicode="&#x1a0;" horiz-adv-x="713" 
d="M693 597.5q-21 -37.5 -63 -68.5q30 -76 30 -179q0 -169 -80.5 -264.5t-230.5 -95.5t-230.5 95.5t-80.5 264.5t80.5 264.5t230.5 95.5q95 0 163 -39.5t105 -113.5q22 19 38 43.5t18 51.5q-7 -5 -20 -5q-18 0 -29.5 11t-11.5 31q0 19 12 32t35 13q55 0 55 -65
q0 -34 -21 -71.5zM528 111.5q61 89.5 61 238.5q0 148 -61 238t-179 90t-179 -90t-61 -238q0 -149 60.5 -238.5t179.5 -89.5q118 0 179 89.5z" />
    <glyph glyph-name="uni1EDA" unicode="&#x1eda;" horiz-adv-x="713" 
d="M276 785l-13 19l112 100q19 19 39 19q12 0 18.5 -6.5t6.5 -16.5q0 -19 -27 -36zM693 597.5q-21 -37.5 -63 -68.5q30 -76 30 -179q0 -169 -80.5 -264.5t-230.5 -95.5t-230.5 95.5t-80.5 264.5t80.5 264.5t230.5 95.5q95 0 163 -39.5t105 -113.5q22 19 38 43.5t18 51.5
q-7 -5 -20 -5q-18 0 -29.5 11t-11.5 31q0 19 12 32t35 13q55 0 55 -65q0 -34 -21 -71.5zM528 111.5q61 89.5 61 238.5q0 148 -61 238t-179 90t-179 -90t-61 -238q0 -149 60.5 -238.5t179.5 -89.5q118 0 179 89.5z" />
    <glyph glyph-name="uni1EE2" unicode="&#x1ee2;" horiz-adv-x="713" 
d="M693 597.5q-21 -37.5 -63 -68.5q30 -76 30 -179q0 -169 -80.5 -264.5t-230.5 -95.5t-230.5 95.5t-80.5 264.5t80.5 264.5t230.5 95.5q95 0 163 -39.5t105 -113.5q22 19 38 43.5t18 51.5q-7 -5 -20 -5q-18 0 -29.5 11t-11.5 31q0 19 12 32t35 13q55 0 55 -65
q0 -34 -21 -71.5zM528 111.5q61 89.5 61 238.5q0 148 -61 238t-179 90t-179 -90t-61 -238q0 -149 60.5 -238.5t179.5 -89.5q118 0 179 89.5zM376 -72q11 -11 11 -30q0 -18 -11 -29t-28 -11t-28 11t-11 29q0 19 11 30t28 11t28 -11z" />
    <glyph glyph-name="uni1EDC" unicode="&#x1edc;" horiz-adv-x="713" 
d="M258 900q0 9 7 16t19 7q21 0 38 -19l113 -100l-13 -19l-136 79q-28 17 -28 36zM693 597.5q-21 -37.5 -63 -68.5q30 -76 30 -179q0 -169 -80.5 -264.5t-230.5 -95.5t-230.5 95.5t-80.5 264.5t80.5 264.5t230.5 95.5q95 0 163 -39.5t105 -113.5q22 19 38 43.5t18 51.5
q-7 -5 -20 -5q-18 0 -29.5 11t-11.5 31q0 19 12 32t35 13q55 0 55 -65q0 -34 -21 -71.5zM528 111.5q61 89.5 61 238.5q0 148 -61 238t-179 90t-179 -90t-61 -238q0 -149 60.5 -238.5t179.5 -89.5q118 0 179 89.5z" />
    <glyph glyph-name="uni1EDE" unicode="&#x1ede;" horiz-adv-x="713" 
d="M293 944l-7 27q34 17 74 17q38 0 64.5 -19t26.5 -56q0 -32 -20.5 -50.5t-59.5 -22.5l-11 -62h-31l-5 85h20q32 0 48 14.5t16 37.5q0 20 -15 32.5t-43 12.5t-57 -16zM693 597.5q-21 -37.5 -63 -68.5q30 -76 30 -179q0 -169 -80.5 -264.5t-230.5 -95.5t-230.5 95.5
t-80.5 264.5t80.5 264.5t230.5 95.5q95 0 163 -39.5t105 -113.5q22 19 38 43.5t18 51.5q-7 -5 -20 -5q-18 0 -29.5 11t-11.5 31q0 19 12 32t35 13q55 0 55 -65q0 -34 -21 -71.5zM528 111.5q61 89.5 61 238.5q0 148 -61 238t-179 90t-179 -90t-61 -238q0 -149 60.5 -238.5
t179.5 -89.5q118 0 179 89.5z" />
    <glyph glyph-name="uni1EE0" unicode="&#x1ee0;" horiz-adv-x="713" 
d="M237.5 829q-16.5 -16 -22.5 -43h-26q7 48 30.5 71.5t59.5 23.5q19 0 37 -8t42 -23q21 -12 35 -18.5t27 -6.5q49 0 64 62h25q-7 -47 -29.5 -73.5t-61.5 -26.5q-16 0 -31 7t-44 23q-26 15 -39.5 21.5t-26.5 6.5q-23 0 -39.5 -16zM693 597.5q-21 -37.5 -63 -68.5
q30 -76 30 -179q0 -169 -80.5 -264.5t-230.5 -95.5t-230.5 95.5t-80.5 264.5t80.5 264.5t230.5 95.5q95 0 163 -39.5t105 -113.5q22 19 38 43.5t18 51.5q-7 -5 -20 -5q-18 0 -29.5 11t-11.5 31q0 19 12 32t35 13q55 0 55 -65q0 -34 -21 -71.5zM528 111.5q61 89.5 61 238.5
q0 148 -61 238t-179 90t-179 -90t-61 -238q0 -149 60.5 -238.5t179.5 -89.5q118 0 179 89.5z" />
    <glyph glyph-name="Ohungarumlaut" unicode="&#x150;" horiz-adv-x="698" 
d="M213 804l112 100q20 20 39 20q12 0 19 -7t7 -16q0 -20 -28 -36l-136 -79zM404 804l112 100q6 7 16.5 13.5t21.5 6.5q12 0 19 -6.5t7 -16.5q0 -21 -27 -36l-136 -79zM118.5 85.5q-80.5 95.5 -80.5 264.5t80.5 264.5t230.5 95.5t230.5 -95.5t80.5 -264.5t-80.5 -264.5
t-230.5 -95.5t-230.5 95.5zM528 111.5q61 89.5 61 238.5q0 148 -61 238t-179 90t-179 -90t-61 -238q0 -149 60.5 -238.5t179.5 -89.5q118 0 179 89.5z" />
    <glyph glyph-name="Omacron" unicode="&#x14c;" horiz-adv-x="698" 
d="M191 831h314v-31h-314v31zM118.5 85.5q-80.5 95.5 -80.5 264.5t80.5 264.5t230.5 95.5t230.5 -95.5t80.5 -264.5t-80.5 -264.5t-230.5 -95.5t-230.5 95.5zM528 111.5q61 89.5 61 238.5q0 148 -61 238t-179 90t-179 -90t-61 -238q0 -149 60.5 -238.5t179.5 -89.5
q118 0 179 89.5z" />
    <glyph glyph-name="Oslash" unicode="&#xd8;" horiz-adv-x="698" 
d="M633.5 519.5q26.5 -73.5 26.5 -169.5q0 -169 -80.5 -264.5t-230.5 -95.5q-113 0 -188 55l-48 -73l-27 19l50 76q-49 46 -73.5 118t-24.5 165q0 169 80.5 264.5t230.5 95.5q108 0 179 -50l39 59l28 -19l-40 -61q52 -46 78.5 -119.5zM168 115l333 505q-60 58 -152 58
q-118 0 -179 -90t-61 -238q0 -149 59 -235zM528 111.5q61 89.5 61 238.5q0 156 -65 243l-335 -506q62 -65 160 -65q118 0 179 89.5z" />
    <glyph glyph-name="Oslashacute" unicode="&#x1fe;" horiz-adv-x="698" 
d="M289 786l-13 19l112 100q19 19 39 19q12 0 18.5 -6.5t6.5 -16.5q0 -19 -27 -36zM633.5 519.5q26.5 -73.5 26.5 -169.5q0 -169 -80.5 -264.5t-230.5 -95.5q-113 0 -188 55l-48 -73l-27 19l50 76q-49 46 -73.5 118t-24.5 165q0 169 80.5 264.5t230.5 95.5q108 0 179 -50
l39 59l28 -19l-40 -61q52 -46 78.5 -119.5zM168 115l333 505q-60 58 -152 58q-118 0 -179 -90t-61 -238q0 -149 59 -235zM528 111.5q61 89.5 61 238.5q0 156 -65 243l-335 -506q62 -65 160 -65q118 0 179 89.5z" />
    <glyph glyph-name="Otilde" unicode="&#xd5;" horiz-adv-x="698" 
d="M218.5 857.5q23.5 23.5 59.5 23.5q19 0 37 -8t42 -23q21 -12 35 -18.5t27 -6.5q49 0 64 62h25q-7 -47 -29.5 -73.5t-61.5 -26.5q-16 0 -31 7t-44 23q-26 15 -39.5 21.5t-26.5 6.5q-23 0 -39.5 -16t-22.5 -43h-26q7 48 30.5 71.5zM118.5 85.5q-80.5 95.5 -80.5 264.5
t80.5 264.5t230.5 95.5t230.5 -95.5t80.5 -264.5t-80.5 -264.5t-230.5 -95.5t-230.5 95.5zM528 111.5q61 89.5 61 238.5q0 148 -61 238t-179 90t-179 -90t-61 -238q0 -149 60.5 -238.5t179.5 -89.5q118 0 179 89.5z" />
    <glyph glyph-name="OE" unicode="&#x152;" horiz-adv-x="979" 
d="M173 35.5q-68 45.5 -101.5 126.5t-33.5 188q0 106 33.5 187.5t101.5 127t167 45.5q102 0 167 -54v44h409v-135h-18q-7 13 -14 47.5t-9 55.5h-297v-293h221q6 54 17 82h14v-195h-14q-11 30 -17 82h-221v-313h299q2 19 13.5 53.5t20.5 49.5h17l-13 -134h-408v41
q-64 -51 -167 -51q-99 0 -167 45.5zM507 90v518q-28 32 -69 51t-89 19q-117 0 -178 -90t-61 -238q0 -149 61 -238.5t178 -89.5q96 0 158 68z" />
    <glyph glyph-name="P" unicode="P" horiz-adv-x="597" 
d="M41 10q42 13 81 17v645q-42 6 -79 18v10h291q121 0 175 -54t54 -154q0 -97 -53 -155t-159 -58h-158v-252q48 -7 82 -18v-9h-234v10zM338 310q78 0 116.5 50t38.5 132t-38 129t-117 47h-145v-358h145z" />
    <glyph glyph-name="Thorn" unicode="&#xde;" horiz-adv-x="595" 
d="M41 10q44 14 82 17v645q-40 6 -80 18v10h151v-142h157q111 0 162 -56t51 -152t-53 -154.5t-159 -58.5h-158v-110q46 -7 81 -18v-9h-234v10zM338 168q79 0 117 50t38 133q0 176 -162 176h-137v-359h144z" />
    <glyph glyph-name="Q" unicode="Q" horiz-adv-x="698" 
d="M457.5 -92q44.5 -33 117.5 -40v-27q-105 8 -165.5 46.5t-74.5 102.5q-144 5 -220.5 100t-76.5 260q0 169 80.5 264.5t230.5 95.5t230.5 -95.5t80.5 -264.5q0 -153 -66.5 -246.5t-190.5 -110.5q10 -52 54.5 -85zM170.5 112q61.5 -90 178.5 -90t178.5 90t61.5 238
t-61.5 238t-178.5 90t-178.5 -90t-61.5 -238t61.5 -238z" />
    <glyph glyph-name="R" unicode="R" horiz-adv-x="651" 
d="M581 21.5q26 -4.5 42 -11.5v-10h-127l-168 301h-132v-274q46 -7 81 -18v-9h-234v10q42 13 82 17v645q-40 6 -80 18v10h312q211 0 211 -198q0 -87 -43.5 -138.5t-130.5 -60.5l157 -276q4 -1 30 -5.5zM196 332h144q81 0 119.5 45t38.5 125q0 166 -158 166h-144v-336z" />
    <glyph glyph-name="Racute" unicode="&#x154;" horiz-adv-x="651" 
d="M250 786l-13 19l112 100q19 19 39 19q12 0 18.5 -6.5t6.5 -16.5q0 -19 -27 -36zM581 21.5q26 -4.5 42 -11.5v-10h-127l-168 301h-132v-274q46 -7 81 -18v-9h-234v10q42 13 82 17v645q-40 6 -80 18v10h312q211 0 211 -198q0 -87 -43.5 -138.5t-130.5 -60.5l157 -276
q4 -1 30 -5.5zM196 332h144q81 0 119.5 45t38.5 125q0 166 -158 166h-144v-336z" />
    <glyph glyph-name="Rcaron" unicode="&#x158;" horiz-adv-x="651" 
d="M248.5 848.5q-34.5 32.5 -66.5 54.5l29 27q29 -21 59 -49t49 -53h5q19 25 49 53t59 49l29 -27q-32 -22 -66.5 -54.5t-56.5 -62.5h-33q-22 30 -56.5 62.5zM581 21.5q26 -4.5 42 -11.5v-10h-127l-168 301h-132v-274q46 -7 81 -18v-9h-234v10q42 13 82 17v645q-40 6 -80 18
v10h312q211 0 211 -198q0 -87 -43.5 -138.5t-130.5 -60.5l157 -276q4 -1 30 -5.5zM196 332h144q81 0 119.5 45t38.5 125q0 166 -158 166h-144v-336z" />
    <glyph glyph-name="Rcommaaccent" unicode="&#x156;" horiz-adv-x="651" 
d="M581 21.5q26 -4.5 42 -11.5v-10h-127l-168 301h-132v-274q46 -7 81 -18v-9h-234v10q42 13 82 17v645q-40 6 -80 18v10h312q211 0 211 -198q0 -87 -43.5 -138.5t-130.5 -60.5l157 -276q4 -1 30 -5.5zM196 332h144q81 0 119.5 45t38.5 125q0 166 -158 166h-144v-336z
M381.5 -81.5q13.5 -16.5 13.5 -45.5q0 -37 -17.5 -82t-45.5 -71l-26 21q18 22 29.5 51t13.5 59q-8 -2 -12 -2q-18 0 -30.5 12t-12.5 31q0 21 13.5 32t32.5 11q28 0 41.5 -16.5z" />
    <glyph glyph-name="uni1E5A" unicode="&#x1e5a;" horiz-adv-x="651" 
d="M581 21.5q26 -4.5 42 -11.5v-10h-127l-168 301h-132v-274q46 -7 81 -18v-9h-234v10q42 13 82 17v645q-40 6 -80 18v10h312q211 0 211 -198q0 -87 -43.5 -138.5t-130.5 -60.5l157 -276q4 -1 30 -5.5zM196 332h144q81 0 119.5 45t38.5 125q0 166 -158 166h-144v-336z
M367 -72q11 -11 11 -30q0 -18 -11 -29t-28 -11t-28 11t-11 29q0 19 11 30t28 11t28 -11z" />
    <glyph glyph-name="uni1E5C" unicode="&#x1e5c;" horiz-adv-x="651" 
d="M455 785h-328v31h328v-31zM581 21.5q26 -4.5 42 -11.5v-10h-127l-168 301h-132v-274q46 -7 81 -18v-9h-234v10q42 13 82 17v645q-40 6 -80 18v10h312q211 0 211 -198q0 -87 -43.5 -138.5t-130.5 -60.5l157 -276q4 -1 30 -5.5zM196 332h144q81 0 119.5 45t38.5 125
q0 166 -158 166h-144v-336zM368 -72q11 -11 11 -30q0 -18 -11 -29t-29 -11q-17 0 -28 11t-11 29q0 19 11 30t28 11q18 0 29 -11z" />
    <glyph glyph-name="uni1E5E" unicode="&#x1e5e;" horiz-adv-x="651" 
d="M581 21.5q26 -4.5 42 -11.5v-10h-127l-168 301h-132v-274q46 -7 81 -18v-9h-234v10q42 13 82 17v645q-40 6 -80 18v10h312q211 0 211 -198q0 -87 -43.5 -138.5t-130.5 -60.5l157 -276q4 -1 30 -5.5zM196 332h144q81 0 119.5 45t38.5 125q0 166 -158 166h-144v-336z
M171 -71h314v-31h-314v31z" />
    <glyph glyph-name="S" unicode="S" horiz-adv-x="527" 
d="M126 15.5q-59 25.5 -92 65.5l9 133h18q11 -29 17 -120q26 -33 68.5 -52.5t97.5 -19.5q46 0 86.5 17t65 50.5t24.5 79.5q0 48 -24.5 81t-60 53.5t-98.5 49.5q-63 28 -100.5 50.5t-63.5 58t-26 86.5q0 80 60 121t163 41q131 0 197 -71l-9 -111h-18q-11 27 -18 104
q-23 22 -57 34t-76 12q-85 0 -127.5 -31.5t-42.5 -89.5q0 -35 21 -61t52.5 -44t86.5 -43q68 -31 110.5 -57t72.5 -68.5t30 -103.5q0 -57 -30 -100t-82.5 -66.5t-118.5 -23.5q-76 0 -135 25.5z" />
    <glyph glyph-name="Sacute" unicode="&#x15a;" horiz-adv-x="527" 
d="M200 805l112 100q19 19 39 19q12 0 18.5 -6.5t6.5 -16.5q0 -19 -27 -36l-136 -79zM126 15.5q-59 25.5 -92 65.5l9 133h18q11 -29 17 -120q26 -33 68.5 -52.5t97.5 -19.5q46 0 86.5 17t65 50.5t24.5 79.5q0 48 -24.5 81t-60 53.5t-98.5 49.5q-63 28 -100.5 50.5t-63.5 58
t-26 86.5q0 80 60 121t163 41q131 0 197 -71l-9 -111h-18q-11 27 -18 104q-23 22 -57 34t-76 12q-85 0 -127.5 -31.5t-42.5 -89.5q0 -35 21 -61t52.5 -44t86.5 -43q68 -31 110.5 -57t72.5 -68.5t30 -103.5q0 -57 -30 -100t-82.5 -66.5t-118.5 -23.5q-76 0 -135 25.5z" />
    <glyph glyph-name="Scaron" unicode="&#x160;" horiz-adv-x="527" 
d="M189.5 848.5q-34.5 32.5 -66.5 54.5l29 27q29 -21 59 -49t49 -53h5q19 25 49 53t59 49l29 -27q-32 -22 -66.5 -54.5t-56.5 -62.5h-33q-22 30 -56.5 62.5zM126 15.5q-59 25.5 -92 65.5l9 133h18q11 -29 17 -120q26 -33 68.5 -52.5t97.5 -19.5q46 0 86.5 17t65 50.5
t24.5 79.5q0 48 -24.5 81t-60 53.5t-98.5 49.5q-63 28 -100.5 50.5t-63.5 58t-26 86.5q0 80 60 121t163 41q131 0 197 -71l-9 -111h-18q-11 27 -18 104q-23 22 -57 34t-76 12q-85 0 -127.5 -31.5t-42.5 -89.5q0 -35 21 -61t52.5 -44t86.5 -43q68 -31 110.5 -57t72.5 -68.5
t30 -103.5q0 -57 -30 -100t-82.5 -66.5t-118.5 -23.5q-76 0 -135 25.5z" />
    <glyph glyph-name="Scedilla" unicode="&#x15e;" horiz-adv-x="527" 
d="M432.5 47q-59.5 -51 -152.5 -56l-26 -57h9q43 0 68 -15.5t25 -45.5q0 -40 -31 -60.5t-81 -20.5q-40 0 -74 14l14 25q27 -9 58 -9q33 0 52.5 12.5t19.5 38.5q0 18 -16.5 26.5t-39.5 8.5q-11 0 -25 -2l-21 26l29 58q-69 4 -123 29t-84 62l9 133h18q11 -29 17 -120
q26 -33 68.5 -52.5t97.5 -19.5q46 0 86.5 17t65 50.5t24.5 79.5q0 48 -24.5 81t-60 53.5t-98.5 49.5q-63 28 -100.5 50.5t-63.5 58t-26 86.5q0 80 60 121t163 41q131 0 197 -71l-9 -111h-18q-11 27 -18 104q-23 22 -57 34t-76 12q-85 0 -127.5 -31.5t-42.5 -89.5
q0 -35 21 -61t52.5 -44t86.5 -43q68 -31 110.5 -57t72.5 -68.5t30 -103.5q0 -82 -59.5 -133z" />
    <glyph glyph-name="Scircumflex" unicode="&#x15c;" horiz-adv-x="527" 
d="M123 806q31 22 66 54t57 62h33q22 -30 57 -62t66 -54l-29 -27q-29 21 -59 49t-49 53h-5q-19 -25 -49 -53t-59 -49zM126 15.5q-59 25.5 -92 65.5l9 133h18q11 -29 17 -120q26 -33 68.5 -52.5t97.5 -19.5q46 0 86.5 17t65 50.5t24.5 79.5q0 48 -24.5 81t-60 53.5
t-98.5 49.5q-63 28 -100.5 50.5t-63.5 58t-26 86.5q0 80 60 121t163 41q131 0 197 -71l-9 -111h-18q-11 27 -18 104q-23 22 -57 34t-76 12q-85 0 -127.5 -31.5t-42.5 -89.5q0 -35 21 -61t52.5 -44t86.5 -43q68 -31 110.5 -57t72.5 -68.5t30 -103.5q0 -57 -30 -100
t-82.5 -66.5t-118.5 -23.5q-76 0 -135 25.5z" />
    <glyph glyph-name="Scommaaccent" unicode="&#x218;" horiz-adv-x="527" 
d="M126 15.5q-59 25.5 -92 65.5l9 133h18q11 -29 17 -120q26 -33 68.5 -52.5t97.5 -19.5q46 0 86.5 17t65 50.5t24.5 79.5q0 48 -24.5 81t-60 53.5t-98.5 49.5q-63 28 -100.5 50.5t-63.5 58t-26 86.5q0 80 60 121t163 41q131 0 197 -71l-9 -111h-18q-11 27 -18 104
q-23 22 -57 34t-76 12q-85 0 -127.5 -31.5t-42.5 -89.5q0 -35 21 -61t52.5 -44t86.5 -43q68 -31 110.5 -57t72.5 -68.5t30 -103.5q0 -57 -30 -100t-82.5 -66.5t-118.5 -23.5q-76 0 -135 25.5zM223 -253q19 23 31 51.5t14 58.5q-5 -3 -14 -3q-18 0 -30.5 12.5t-12.5 31.5
q0 21 14 34t34 13q28 0 43 -18.5t15 -46.5q0 -37 -19 -82.5t-47 -71.5z" />
    <glyph glyph-name="uni1E60" unicode="&#x1e60;" horiz-adv-x="527" 
d="M242.5 796q-10.5 11 -10.5 29q0 19 10.5 30t28.5 11q17 0 28 -11t11 -30q0 -18 -11 -29t-28 -11q-18 0 -28.5 11zM126 15.5q-59 25.5 -92 65.5l9 133h18q11 -29 17 -120q26 -33 68.5 -52.5t97.5 -19.5q46 0 86.5 17t65 50.5t24.5 79.5q0 48 -24.5 81t-60 53.5t-98.5 49.5
q-63 28 -100.5 50.5t-63.5 58t-26 86.5q0 80 60 121t163 41q131 0 197 -71l-9 -111h-18q-11 27 -18 104q-23 22 -57 34t-76 12q-85 0 -127.5 -31.5t-42.5 -89.5q0 -35 21 -61t52.5 -44t86.5 -43q68 -31 110.5 -57t72.5 -68.5t30 -103.5q0 -57 -30 -100t-82.5 -66.5
t-118.5 -23.5q-76 0 -135 25.5z" />
    <glyph glyph-name="uni1E62" unicode="&#x1e62;" horiz-adv-x="527" 
d="M126 15.5q-59 25.5 -92 65.5l9 133h18q11 -29 17 -120q26 -33 68.5 -52.5t97.5 -19.5q46 0 86.5 17t65 50.5t24.5 79.5q0 48 -24.5 81t-60 53.5t-98.5 49.5q-63 28 -100.5 50.5t-63.5 58t-26 86.5q0 80 60 121t163 41q131 0 197 -71l-9 -111h-18q-11 27 -18 104
q-23 22 -57 34t-76 12q-85 0 -127.5 -31.5t-42.5 -89.5q0 -35 21 -61t52.5 -44t86.5 -43q68 -31 110.5 -57t72.5 -68.5t30 -103.5q0 -57 -30 -100t-82.5 -66.5t-118.5 -23.5q-76 0 -135 25.5zM229 -131q-11 11 -11 29q0 19 11 30t28 11t28 -11t11 -30q0 -18 -11 -29t-28 -11
t-28 11z" />
    <glyph glyph-name="uni1E9E" unicode="&#x1e9e;" horiz-adv-x="684" 
d="M257 17v34q69 -30 151 -30q83 0 129.5 49.5t46.5 131.5q0 75 -48.5 119.5t-140.5 44.5h-50v23l172 182q-18 47 -66.5 77t-114.5 30q-84 0 -131 -51.5t-47 -139.5v-460q27 -5 61 -20v-7h-213v10q40 11 82 17v439q0 114 64 179t190 65q61 0 108.5 -22.5t77.5 -58t42 -74.5
l-151 -159q110 -6 172.5 -58t62.5 -136q0 -92 -60.5 -152t-181.5 -60q-92 0 -155 27z" />
    <glyph glyph-name="uni018F" unicode="&#x18f;" horiz-adv-x="695" 
d="M488.5 663.5q80.5 -46.5 124.5 -129.5t44 -190q0 -172 -88.5 -263t-242.5 -91q-97 0 -162 43t-96 115.5t-31 162.5v25h551q-1 93 -35.5 170t-102 123t-163.5 46q-120 0 -214 -63l-5 15l-4 12q39 30 99 50.5t139 20.5q106 0 186.5 -46.5zM513 100q67 79 74 202h-483
q0 -71 22 -135t71 -105t124 -41q125 0 192 79z" />
    <glyph glyph-name="T" unicode="T" horiz-adv-x="626" 
d="M193 10q38 11 84 17v641h-194q-2 -22 -9 -59.5t-14 -51.5h-17v143h539v-143h-17q-7 14 -14 51.5t-9 59.5h-194v-641q52 -8 84 -18v-9h-239v10z" />
    <glyph glyph-name="Tbar" unicode="&#x166;" horiz-adv-x="626" 
d="M582 700v-143h-17q-7 14 -14 51.5t-9 59.5h-194v-305h153v-31h-153v-305q52 -8 84 -18v-9h-239v10q38 11 84 17v305h-150v31h150v305h-194q-2 -22 -9 -59.5t-14 -51.5h-17v143h539z" />
    <glyph glyph-name="Tcaron" unicode="&#x164;" horiz-adv-x="626" 
d="M238.5 848.5q-34.5 32.5 -66.5 54.5l29 27q29 -21 59 -49t49 -53h5q19 25 49 53t59 49l29 -27q-32 -22 -66.5 -54.5t-56.5 -62.5h-33q-22 30 -56.5 62.5zM193 10q38 11 84 17v641h-194q-2 -22 -9 -59.5t-14 -51.5h-17v143h539v-143h-17q-7 14 -14 51.5t-9 59.5h-194v-641
q52 -8 84 -18v-9h-239v10z" />
    <glyph glyph-name="uni0162" unicode="&#x162;" horiz-adv-x="626" 
d="M582 700v-143h-17q-7 14 -14 51.5t-9 59.5h-194v-641q52 -8 84 -18v-9h-104l-31 -66q8 1 24 1q36 -2 57.5 -18t21.5 -44q0 -40 -31 -60.5t-81 -20.5q-39 0 -75 14l14 25q27 -9 59 -9q33 0 52.5 12.5t19.5 38.5q0 18 -17 26.5t-40 8.5q-10 0 -24 -2l-21 26l34 68h-97v10
q38 11 84 17v641h-194q-2 -22 -9 -59.5t-14 -51.5h-17v143h539z" />
    <glyph glyph-name="uni021A" unicode="&#x21a;" horiz-adv-x="626" 
d="M193 10q38 11 84 17v641h-194q-2 -22 -9 -59.5t-14 -51.5h-17v143h539v-143h-17q-7 14 -14 51.5t-9 59.5h-194v-641q52 -8 84 -18v-9h-239v10zM274 -259q18 22 29.5 51t13.5 59q-8 -2 -12 -2q-18 0 -30.5 12t-12.5 31q0 21 13.5 32t32.5 11q28 0 41.5 -16.5t13.5 -45.5
q0 -37 -17.5 -82t-45.5 -71z" />
    <glyph glyph-name="uni1E6C" unicode="&#x1e6c;" horiz-adv-x="626" 
d="M193 10q38 11 84 17v641h-194q-2 -22 -9 -59.5t-14 -51.5h-17v143h539v-143h-17q-7 14 -14 51.5t-9 59.5h-194v-641q52 -8 84 -18v-9h-239v10zM284 -131q-11 11 -11 29q0 19 11 30t28 11t28 -11t11 -30q0 -18 -11 -29t-28 -11t-28 11z" />
    <glyph glyph-name="uni1E6E" unicode="&#x1e6e;" horiz-adv-x="626" 
d="M193 10q38 11 84 17v641h-194q-2 -22 -9 -59.5t-14 -51.5h-17v143h539v-143h-17q-7 14 -14 51.5t-9 59.5h-194v-641q52 -8 84 -18v-9h-239v10zM155 -71h314v-31h-314v31z" />
    <glyph glyph-name="U" unicode="U" horiz-adv-x="760" 
d="M123 211v461q-46 7 -81 18v10h233v-10q-35 -12 -81 -18v-470q0 -98 55 -139t150 -41q90 0 144 42.5t54 137.5v471q-41 4 -82 17v10h203v-10q-36 -11 -83 -19v-460q0 -114 -64 -167.5t-190 -53.5q-258 0 -258 221z" />
    <glyph glyph-name="Uacute" unicode="&#xda;" horiz-adv-x="760" 
d="M307 805l112 100q19 19 39 19q12 0 18.5 -6.5t6.5 -16.5q0 -19 -27 -36l-136 -79zM123 211v461q-46 7 -81 18v10h233v-10q-35 -12 -81 -18v-470q0 -98 55 -139t150 -41q90 0 144 42.5t54 137.5v471q-41 4 -82 17v10h203v-10q-36 -11 -83 -19v-460q0 -114 -64 -167.5
t-190 -53.5q-258 0 -258 221z" />
    <glyph glyph-name="Ubreve" unicode="&#x16c;" horiz-adv-x="760" 
d="M282 804q-39 30 -46 90h46q5 -52 33 -70t68 -18q39 0 67 18t34 70h46q-7 -60 -46 -90t-101 -30t-101 30zM123 211v461q-46 7 -81 18v10h233v-10q-35 -12 -81 -18v-470q0 -98 55 -139t150 -41q90 0 144 42.5t54 137.5v471q-41 4 -82 17v10h203v-10q-36 -11 -83 -19v-460
q0 -114 -64 -167.5t-190 -53.5q-258 0 -258 221z" />
    <glyph glyph-name="uni01D3" unicode="&#x1d3;" horiz-adv-x="760" 
d="M304.5 848.5q-34.5 32.5 -66.5 54.5l29 27q29 -21 59 -49t49 -53h5q19 25 49 53t59 49l29 -27q-32 -22 -66.5 -54.5t-56.5 -62.5h-33q-22 30 -56.5 62.5zM123 211v461q-46 7 -81 18v10h233v-10q-35 -12 -81 -18v-470q0 -98 55 -139t150 -41q90 0 144 42.5t54 137.5v471
q-41 4 -82 17v10h203v-10q-36 -11 -83 -19v-460q0 -114 -64 -167.5t-190 -53.5q-258 0 -258 221z" />
    <glyph glyph-name="Ucircumflex" unicode="&#xdb;" horiz-adv-x="760" 
d="M240 806q31 22 66 54t57 62h33q22 -30 57 -62t66 -54l-29 -27q-29 21 -59 49t-49 53h-5q-19 -25 -49 -53t-59 -49zM123 211v461q-46 7 -81 18v10h233v-10q-35 -12 -81 -18v-470q0 -98 55 -139t150 -41q90 0 144 42.5t54 137.5v471q-41 4 -82 17v10h203v-10
q-36 -11 -83 -19v-460q0 -114 -64 -167.5t-190 -53.5q-258 0 -258 221z" />
    <glyph glyph-name="Udieresis" unicode="&#xdc;" horiz-adv-x="760" 
d="M252 796q-11 11 -11 29q0 19 11 30t28 11t28 -11t11 -30q0 -18 -11 -29t-28 -11t-28 11zM465 796q-11 11 -11 29q0 19 11 30t28 11t28 -11t11 -30q0 -18 -11 -29t-28 -11t-28 11zM123 211v461q-46 7 -81 18v10h233v-10q-35 -12 -81 -18v-470q0 -98 55 -139t150 -41
q90 0 144 42.5t54 137.5v471q-41 4 -82 17v10h203v-10q-36 -11 -83 -19v-460q0 -114 -64 -167.5t-190 -53.5q-258 0 -258 221z" />
    <glyph glyph-name="uni01D7" unicode="&#x1d7;" horiz-adv-x="760" 
d="M362 914l104 93q1 1 11.5 10.5t26.5 9.5q12 0 19 -7t7 -17q0 -20 -27 -35l-128 -73zM252 796q-11 11 -11 29t11 29.5t28 11.5t28 -11.5t11 -29.5t-11 -29t-28 -11t-28 11zM465 796q-11 11 -11 29t11 29.5t28 11.5q18 0 29 -11.5t11 -29.5t-11 -29t-29 -11q-17 0 -28 11z
M123 211v461q-46 7 -81 18v10h233v-10q-35 -12 -81 -18v-470q0 -98 55 -139t150 -41q90 0 144 42.5t54 137.5v471q-41 4 -82 17v10h203v-10q-36 -11 -83 -19v-460q0 -114 -64 -167.5t-190 -53.5q-258 0 -258 221z" />
    <glyph glyph-name="uni01D9" unicode="&#x1d9;" horiz-adv-x="760" 
d="M313.5 941.5q-34.5 32.5 -66.5 54.5l30 27q29 -22 58.5 -49.5t48.5 -52.5h5q21 26 50.5 53.5t57.5 48.5l29 -27q-32 -23 -66.5 -55t-56.5 -62h-33q-22 30 -56.5 62.5zM252 796q-11 11 -11 29t11 29.5t28 11.5t28 -11.5t11 -29.5t-11 -29t-28 -11t-28 11zM465 796
q-11 11 -11 29t11 29.5t28 11.5q18 0 29 -11.5t11 -29.5t-11 -29t-29 -11q-17 0 -28 11zM123 211v461q-46 7 -81 18v10h233v-10q-35 -12 -81 -18v-470q0 -98 55 -139t150 -41q90 0 144 42.5t54 137.5v471q-41 4 -82 17v10h203v-10q-36 -11 -83 -19v-460q0 -114 -64 -167.5
t-190 -53.5q-258 0 -258 221z" />
    <glyph glyph-name="uni01DB" unicode="&#x1db;" horiz-adv-x="760" 
d="M301 950q-27 15 -27 36q0 9 7 16t19 7q19 0 38 -19l94 -87l-13 -19zM252 796q-11 11 -11 29t11 29.5t28 11.5t28 -11.5t11 -29.5t-11 -29t-28 -11t-28 11zM465 796q-11 11 -11 29t11 29.5t28 11.5q18 0 29 -11.5t11 -29.5t-11 -29t-29 -11q-17 0 -28 11zM123 211v461
q-46 7 -81 18v10h233v-10q-35 -12 -81 -18v-470q0 -98 55 -139t150 -41q90 0 144 42.5t54 137.5v471q-41 4 -82 17v10h203v-10q-36 -11 -83 -19v-460q0 -114 -64 -167.5t-190 -53.5q-258 0 -258 221z" />
    <glyph glyph-name="uni01D5" unicode="&#x1d5;" horiz-adv-x="760" 
d="M237 963h299v-31h-299v31zM252 796q-11 11 -11 29t11 29.5t28 11.5t28 -11.5t11 -29.5t-11 -29t-28 -11t-28 11zM465 796q-11 11 -11 29t11 29.5t28 11.5q18 0 29 -11.5t11 -29.5t-11 -29t-29 -11q-17 0 -28 11zM123 211v461q-46 7 -81 18v10h233v-10q-35 -12 -81 -18
v-470q0 -98 55 -139t150 -41q90 0 144 42.5t54 137.5v471q-41 4 -82 17v10h203v-10q-36 -11 -83 -19v-460q0 -114 -64 -167.5t-190 -53.5q-258 0 -258 221z" />
    <glyph glyph-name="uni1EE4" unicode="&#x1ee4;" horiz-adv-x="760" 
d="M123 211v461q-46 7 -81 18v10h233v-10q-35 -12 -81 -18v-470q0 -98 55 -139t150 -41q90 0 144 42.5t54 137.5v471q-41 4 -82 17v10h203v-10q-36 -11 -83 -19v-460q0 -114 -64 -167.5t-190 -53.5q-258 0 -258 221zM357 -131q-11 11 -11 29q0 19 11 30t28 11t28 -11t11 -30
q0 -18 -11 -29t-28 -11t-28 11z" />
    <glyph glyph-name="Ugrave" unicode="&#xd9;" horiz-adv-x="760" 
d="M319 865q-28 17 -28 36q0 9 7 16t19 7q21 0 38 -19l113 -100l-13 -19zM123 211v461q-46 7 -81 18v10h233v-10q-35 -12 -81 -18v-470q0 -98 55 -139t150 -41q90 0 144 42.5t54 137.5v471q-41 4 -82 17v10h203v-10q-36 -11 -83 -19v-460q0 -114 -64 -167.5t-190 -53.5
q-258 0 -258 221z" />
    <glyph glyph-name="uni1EE6" unicode="&#x1ee6;" horiz-adv-x="760" 
d="M368 864h20q32 0 48 14.5t16 37.5q0 20 -15 32.5t-43 12.5t-57 -16l-7 27q34 17 74 17q38 0 64.5 -19t26.5 -56q0 -32 -20.5 -50.5t-59.5 -22.5l-11 -62h-31zM123 211v461q-46 7 -81 18v10h233v-10q-35 -12 -81 -18v-470q0 -98 55 -139t150 -41q90 0 144 42.5t54 137.5
v471q-41 4 -82 17v10h203v-10q-36 -11 -83 -19v-460q0 -114 -64 -167.5t-190 -53.5q-258 0 -258 221z" />
    <glyph glyph-name="Uhorn" unicode="&#x1af;" horiz-adv-x="760" 
d="M123 211v461q-46 7 -81 18v10h233v-10q-35 -12 -81 -18v-470q0 -98 55 -139t150 -41q90 0 144 42.5t54 137.5v471q-41 4 -82 17v10h132q38 0 67.5 12.5t31.5 35.5q-7 -5 -20 -5q-18 0 -30 12t-12 32q0 19 13.5 32t36.5 13q54 0 54 -61q0 -44 -43.5 -69t-109.5 -31v-460
q0 -114 -64 -167.5t-190 -53.5q-258 0 -258 221z" />
    <glyph glyph-name="uni1EE8" unicode="&#x1ee8;" horiz-adv-x="760" 
d="M319 803l112 100q19 19 39 19q12 0 18.5 -6.5t6.5 -16.5q0 -19 -27 -36l-136 -79zM123 211v461q-46 7 -81 18v10h233v-10q-35 -12 -81 -18v-470q0 -98 55 -139t150 -41q90 0 144 42.5t54 137.5v471q-41 4 -82 17v10h132q38 0 67.5 12.5t31.5 35.5q-7 -5 -20 -5
q-18 0 -30 12t-12 32q0 19 13.5 32t36.5 13q54 0 54 -61q0 -44 -43.5 -69t-109.5 -31v-460q0 -114 -64 -167.5t-190 -53.5q-258 0 -258 221z" />
    <glyph glyph-name="uni1EF0" unicode="&#x1ef0;" horiz-adv-x="760" 
d="M123 211v461q-46 7 -81 18v10h233v-10q-35 -12 -81 -18v-470q0 -98 55 -139t150 -41q90 0 144 42.5t54 137.5v471q-41 4 -82 17v10h132q38 0 67.5 12.5t31.5 35.5q-7 -5 -20 -5q-18 0 -30 12t-12 32q0 19 13.5 32t36.5 13q54 0 54 -61q0 -44 -43.5 -69t-109.5 -31v-460
q0 -114 -64 -167.5t-190 -53.5q-258 0 -258 221zM357 -131q-11 11 -11 29q0 19 11 30t28 11t28 -11t11 -30q0 -18 -11 -29t-28 -11t-28 11z" />
    <glyph glyph-name="uni1EEA" unicode="&#x1eea;" horiz-adv-x="760" 
d="M321 863q-28 17 -28 36q0 9 7 16t19 7q21 0 38 -19l113 -100l-13 -19zM123 211v461q-46 7 -81 18v10h233v-10q-35 -12 -81 -18v-470q0 -98 55 -139t150 -41q90 0 144 42.5t54 137.5v471q-41 4 -82 17v10h132q38 0 67.5 12.5t31.5 35.5q-7 -5 -20 -5q-18 0 -30 12t-12 32
q0 19 13.5 32t36.5 13q54 0 54 -61q0 -44 -43.5 -69t-109.5 -31v-460q0 -114 -64 -167.5t-190 -53.5q-258 0 -258 221z" />
    <glyph glyph-name="uni1EEC" unicode="&#x1eec;" horiz-adv-x="760" 
d="M368 864h20q32 0 48 14.5t16 37.5q0 20 -15 32.5t-43 12.5t-57 -16l-7 27q34 17 74 17q38 0 64.5 -19t26.5 -56q0 -32 -20.5 -50.5t-59.5 -22.5l-11 -62h-31zM123 211v461q-46 7 -81 18v10h233v-10q-35 -12 -81 -18v-470q0 -98 55 -139t150 -41q90 0 144 42.5t54 137.5
v471q-41 4 -82 17v10h132q38 0 67.5 12.5t31.5 35.5q-7 -5 -20 -5q-18 0 -30 12t-12 32q0 19 13.5 32t36.5 13q54 0 54 -61q0 -44 -43.5 -69t-109.5 -31v-460q0 -114 -64 -167.5t-190 -53.5q-258 0 -258 221z" />
    <glyph glyph-name="uni1EEE" unicode="&#x1eee;" horiz-adv-x="760" 
d="M255.5 850.5q23.5 23.5 59.5 23.5q19 0 37 -8t42 -23q21 -12 35 -18.5t27 -6.5q49 0 64 62h25q-7 -47 -29.5 -73.5t-61.5 -26.5q-16 0 -31 7t-44 23q-26 15 -39.5 21.5t-26.5 6.5q-23 0 -39.5 -16t-22.5 -43h-26q7 48 30.5 71.5zM123 211v461q-46 7 -81 18v10h233v-10
q-35 -12 -81 -18v-470q0 -98 55 -139t150 -41q90 0 144 42.5t54 137.5v471q-41 4 -82 17v10h132q38 0 67.5 12.5t31.5 35.5q-7 -5 -20 -5q-18 0 -30 12t-12 32q0 19 13.5 32t36.5 13q54 0 54 -61q0 -44 -43.5 -69t-109.5 -31v-460q0 -114 -64 -167.5t-190 -53.5
q-258 0 -258 221z" />
    <glyph glyph-name="Uhungarumlaut" unicode="&#x170;" horiz-adv-x="760" 
d="M209 804l112 100q20 20 39 20q12 0 19 -7t7 -16q0 -20 -28 -36l-136 -79zM400 804l112 100q6 7 16.5 13.5t21.5 6.5q12 0 19 -6.5t7 -16.5q0 -21 -27 -36l-136 -79zM123 211v461q-46 7 -81 18v10h233v-10q-35 -12 -81 -18v-470q0 -98 55 -139t150 -41q90 0 144 42.5
t54 137.5v471q-41 4 -82 17v10h203v-10q-36 -11 -83 -19v-460q0 -114 -64 -167.5t-190 -53.5q-258 0 -258 221z" />
    <glyph glyph-name="Umacron" unicode="&#x16a;" horiz-adv-x="760" 
d="M222 817h314v-31h-314v31zM123 211v461q-46 7 -81 18v10h233v-10q-35 -12 -81 -18v-470q0 -98 55 -139t150 -41q90 0 144 42.5t54 137.5v471q-41 4 -82 17v10h203v-10q-36 -11 -83 -19v-460q0 -114 -64 -167.5t-190 -53.5q-258 0 -258 221z" />
    <glyph glyph-name="Uogonek" unicode="&#x172;" horiz-adv-x="760" 
d="M718 700v-10q-36 -11 -83 -19v-460q0 -91 -41 -143t-122 -69q-28 -17 -45.5 -41.5t-17.5 -51.5q0 -25 17 -37.5t44 -12.5t50 11v-33q-34 -15 -74 -15q-44 0 -68 23t-24 54q0 28 16 53t44 42q-10 -1 -33 -1q-258 0 -258 221v461q-46 7 -81 18v10h233v-10q-35 -12 -81 -18
v-470q0 -98 55 -139t150 -41q90 0 144 42.5t54 137.5v471q-41 4 -82 17v10h203z" />
    <glyph glyph-name="Uring" unicode="&#x16e;" horiz-adv-x="760" 
d="M317 792q-25 23 -25 60t25 60.5t63 23.5t62.5 -23.5t24.5 -60.5t-24.5 -60t-62.5 -23t-63 23zM420.5 812q15.5 15 15.5 40t-15.5 40.5t-40.5 15.5t-41 -15.5t-16 -40.5t16 -40t41 -15t40.5 15zM123 211v461q-46 7 -81 18v10h233v-10q-35 -12 -81 -18v-470q0 -98 55 -139
t150 -41q90 0 144 42.5t54 137.5v471q-41 4 -82 17v10h203v-10q-36 -11 -83 -19v-460q0 -114 -64 -167.5t-190 -53.5q-258 0 -258 221z" />
    <glyph glyph-name="Utilde" unicode="&#x168;" horiz-adv-x="760" 
d="M249.5 857.5q23.5 23.5 59.5 23.5q19 0 37 -8t42 -23q21 -12 35 -18.5t27 -6.5q49 0 64 62h25q-7 -47 -29.5 -73.5t-61.5 -26.5q-16 0 -31 7t-44 23q-26 15 -39.5 21.5t-26.5 6.5q-23 0 -39.5 -16t-22.5 -43h-26q7 48 30.5 71.5zM123 211v461q-46 7 -81 18v10h233v-10
q-35 -12 -81 -18v-470q0 -98 55 -139t150 -41q90 0 144 42.5t54 137.5v471q-41 4 -82 17v10h203v-10q-36 -11 -83 -19v-460q0 -114 -64 -167.5t-190 -53.5q-258 0 -258 221z" />
    <glyph glyph-name="V" unicode="V" horiz-adv-x="705" 
d="M93 670q-44 7 -75 20v10h229v-11q-32 -13 -84 -17l201 -618l201 618q-57 7 -84 18v10h205v-11q-39 -15 -75 -20l-229 -677h-60z" />
    <glyph glyph-name="W" unicode="W" horiz-adv-x="1003" 
d="M96 670q-42 8 -78 20v10h228v-11q-32 -13 -82 -17l145 -583l177 575h39l199 -600l163 610q-29 5 -63 15v11h160v-9q-32 -14 -58 -18l-181 -681h-61l-189 572l-176 -572h-49z" />
    <glyph glyph-name="Wacute" unicode="&#x1e82;" horiz-adv-x="1003" 
d="M432 805l112 100q19 19 39 19q12 0 18.5 -6.5t6.5 -16.5q0 -19 -27 -36l-136 -79zM96 670q-42 8 -78 20v10h228v-11q-32 -13 -82 -17l145 -583l177 575h39l199 -600l163 610q-29 5 -63 15v11h160v-9q-32 -14 -58 -18l-181 -681h-61l-189 572l-176 -572h-49z" />
    <glyph glyph-name="Wcircumflex" unicode="&#x174;" horiz-adv-x="1003" 
d="M370 806q31 22 66 54t57 62h33q22 -30 57 -62t66 -54l-29 -27q-29 21 -59 49t-49 53h-5q-19 -25 -49 -53t-59 -49zM96 670q-42 8 -78 20v10h228v-11q-32 -13 -82 -17l145 -583l177 575h39l199 -600l163 610q-29 5 -63 15v11h160v-9q-32 -14 -58 -18l-181 -681h-61
l-189 572l-176 -572h-49z" />
    <glyph glyph-name="Wdieresis" unicode="&#x1e84;" horiz-adv-x="1003" 
d="M374 796q-11 11 -11 29q0 19 11 30t28 11t28 -11t11 -30q0 -18 -11 -29t-28 -11t-28 11zM587 796q-11 11 -11 29q0 19 11 30t28 11t28 -11t11 -30q0 -18 -11 -29t-28 -11t-28 11zM96 670q-42 8 -78 20v10h228v-11q-32 -13 -82 -17l145 -583l177 575h39l199 -600l163 610
q-29 5 -63 15v11h160v-9q-32 -14 -58 -18l-181 -681h-61l-189 572l-176 -572h-49z" />
    <glyph glyph-name="Wgrave" unicode="&#x1e80;" horiz-adv-x="1003" 
d="M438 865q-28 17 -28 36q0 9 7 16t19 7q21 0 38 -19l113 -100l-13 -19zM96 670q-42 8 -78 20v10h228v-11q-32 -13 -82 -17l145 -583l177 575h39l199 -600l163 610q-29 5 -63 15v11h160v-9q-32 -14 -58 -18l-181 -681h-61l-189 572l-176 -572h-49z" />
    <glyph glyph-name="X" unicode="X" horiz-adv-x="678" 
d="M667 10v-10h-229v9q36 14 88 20l-195 303l-220 -307q34 -5 64 -16v-9h-159v10q16 7 54 15l242 337l-199 308q-39 8 -71 19v11h229v-11q-38 -14 -89 -18l166 -259l187 261q-40 7 -64 17v10h160v-10q-30 -13 -57 -17l-207 -290l228 -355q35 -6 72 -18z" />
    <glyph glyph-name="Y" unicode="Y" horiz-adv-x="693" 
d="M233 9q41 14 81 18v273l-220 370q-37 6 -76 19v11h230v-11q-39 -14 -85 -18l199 -337l212 339q-35 7 -64 17v10h164v-11q-22 -10 -53 -15l-236 -374v-273q48 -7 82 -18v-9h-234v9z" />
    <glyph glyph-name="Yacute" unicode="&#xdd;" horiz-adv-x="693" 
d="M274 805l112 100q19 19 39 19q12 0 18.5 -6.5t6.5 -16.5q0 -19 -27 -36l-136 -79zM233 9q41 14 81 18v273l-220 370q-37 6 -76 19v11h230v-11q-39 -14 -85 -18l199 -337l212 339q-35 7 -64 17v10h164v-11q-22 -10 -53 -15l-236 -374v-273q48 -7 82 -18v-9h-234v9z" />
    <glyph glyph-name="Ycircumflex" unicode="&#x176;" horiz-adv-x="693" 
d="M211 806q31 22 66 54t57 62h33q22 -30 57 -62t66 -54l-29 -27q-29 21 -59 49t-49 53h-5q-19 -25 -49 -53t-59 -49zM233 9q41 14 81 18v273l-220 370q-37 6 -76 19v11h230v-11q-39 -14 -85 -18l199 -337l212 339q-35 7 -64 17v10h164v-11q-22 -10 -53 -15l-236 -374v-273
q48 -7 82 -18v-9h-234v9z" />
    <glyph glyph-name="Ydieresis" unicode="&#x178;" horiz-adv-x="693" 
d="M222 796q-11 11 -11 29q0 19 11 30t28 11t28 -11t11 -30q0 -18 -11 -29t-28 -11t-28 11zM435 796q-11 11 -11 29q0 19 11 30t28 11t28 -11t11 -30q0 -18 -11 -29t-28 -11t-28 11zM233 9q41 14 81 18v273l-220 370q-37 6 -76 19v11h230v-11q-39 -14 -85 -18l199 -337
l212 339q-35 7 -64 17v10h164v-11q-22 -10 -53 -15l-236 -374v-273q48 -7 82 -18v-9h-234v9z" />
    <glyph glyph-name="uni1E8E" unicode="&#x1e8e;" horiz-adv-x="693" 
d="M320.5 796q-10.5 11 -10.5 29q0 19 10.5 30t28.5 11q17 0 28 -11t11 -30q0 -18 -11 -29t-28 -11q-18 0 -28.5 11zM233 9q41 14 81 18v273l-220 370q-37 6 -76 19v11h230v-11q-39 -14 -85 -18l199 -337l212 339q-35 7 -64 17v10h164v-11q-22 -10 -53 -15l-236 -374v-273
q48 -7 82 -18v-9h-234v9z" />
    <glyph glyph-name="uni1EF4" unicode="&#x1ef4;" horiz-adv-x="693" 
d="M233 9q41 14 81 18v273l-220 370q-37 6 -76 19v11h230v-11q-39 -14 -85 -18l199 -337l212 339q-35 7 -64 17v10h164v-11q-22 -10 -53 -15l-236 -374v-273q48 -7 82 -18v-9h-234v9zM317 -131q-11 11 -11 29q0 19 11 30t28 11t28 -11t11 -30q0 -18 -11 -29t-28 -11t-28 11z
" />
    <glyph glyph-name="Ygrave" unicode="&#x1ef2;" horiz-adv-x="693" 
d="M279 865q-28 17 -28 36q0 9 7 16t19 7q21 0 38 -19l113 -100l-13 -19zM233 9q41 14 81 18v273l-220 370q-37 6 -76 19v11h230v-11q-39 -14 -85 -18l199 -337l212 339q-35 7 -64 17v10h164v-11q-22 -10 -53 -15l-236 -374v-273q48 -7 82 -18v-9h-234v9z" />
    <glyph glyph-name="uni1EF6" unicode="&#x1ef6;" horiz-adv-x="693" 
d="M346 868h20q32 0 48 14.5t16 37.5q0 20 -15 32.5t-43 12.5t-57 -16l-7 27q34 17 74 17q38 0 64.5 -19t26.5 -56q0 -32 -20.5 -50.5t-59.5 -22.5l-11 -62h-31zM233 9q41 14 81 18v273l-220 370q-37 6 -76 19v11h230v-11q-39 -14 -85 -18l199 -337l212 339q-35 7 -64 17v10
h164v-11q-22 -10 -53 -15l-236 -374v-273q48 -7 82 -18v-9h-234v9z" />
    <glyph glyph-name="uni1EF8" unicode="&#x1ef8;" horiz-adv-x="693" 
d="M219.5 857.5q23.5 23.5 59.5 23.5q19 0 37 -8t42 -23q21 -12 35 -18.5t27 -6.5q49 0 64 62h25q-7 -47 -29.5 -73.5t-61.5 -26.5q-16 0 -31 7t-44 23q-26 15 -39.5 21.5t-26.5 6.5q-23 0 -39.5 -16t-22.5 -43h-26q7 48 30.5 71.5zM233 9q41 14 81 18v273l-220 370
q-37 6 -76 19v11h230v-11q-39 -14 -85 -18l199 -337l212 339q-35 7 -64 17v10h164v-11q-22 -10 -53 -15l-236 -374v-273q48 -7 82 -18v-9h-234v9z" />
    <glyph glyph-name="Z" unicode="Z" horiz-adv-x="564" 
d="M27 20l423 648h-342q-2 -21 -9 -55.5t-14 -47.5h-17v135h460v-16l-424 -653h368q1 19 12.5 53.5t20.5 49.5h18l-13 -134h-483v20z" />
    <glyph glyph-name="Zacute" unicode="&#x179;" horiz-adv-x="564" 
d="M234 805l112 100q19 19 39 19q12 0 18.5 -6.5t6.5 -16.5q0 -19 -27 -36l-136 -79zM27 20l423 648h-342q-2 -21 -9 -55.5t-14 -47.5h-17v135h460v-16l-424 -653h368q1 19 12.5 53.5t20.5 49.5h18l-13 -134h-483v20z" />
    <glyph glyph-name="Zcaron" unicode="&#x17d;" horiz-adv-x="564" 
d="M213.5 848.5q-34.5 32.5 -66.5 54.5l29 27q29 -21 59 -49t49 -53h5q19 25 49 53t59 49l29 -27q-32 -22 -66.5 -54.5t-56.5 -62.5h-33q-22 30 -56.5 62.5zM27 20l423 648h-342q-2 -21 -9 -55.5t-14 -47.5h-17v135h460v-16l-424 -653h368q1 19 12.5 53.5t20.5 49.5h18
l-13 -134h-483v20z" />
    <glyph glyph-name="Zdotaccent" unicode="&#x17b;" horiz-adv-x="564" 
d="M256.5 796q-10.5 11 -10.5 29q0 19 10.5 30t28.5 11q17 0 28 -11t11 -30q0 -18 -11 -29t-28 -11q-18 0 -28.5 11zM27 20l423 648h-342q-2 -21 -9 -55.5t-14 -47.5h-17v135h460v-16l-424 -653h368q1 19 12.5 53.5t20.5 49.5h18l-13 -134h-483v20z" />
    <glyph glyph-name="uni1E92" unicode="&#x1e92;" horiz-adv-x="564" 
d="M27 20l423 648h-342q-2 -21 -9 -55.5t-14 -47.5h-17v135h460v-16l-424 -653h368q1 19 12.5 53.5t20.5 49.5h18l-13 -134h-483v20zM248 -131q-11 11 -11 29q0 19 11 30t28 11t28 -11t11 -30q0 -18 -11 -29t-28 -11t-28 11z" />
    <glyph glyph-name="a" unicode="a" horiz-adv-x="523" 
d="M75 27q-42 37 -42 106q0 76 54 110t137 34h156v84q0 58 -36 86.5t-101 28.5q-72 0 -154 -41l-6 28q38 20 86 32t98 12q85 0 133.5 -38t48.5 -102v-331q37 -7 70 -16v-7l-139 -14v76q-44 -47 -92.5 -66t-93.5 -19q-77 0 -119 37zM309.5 50q47.5 28 70.5 64v132h-139
q-70 0 -104.5 -29.5t-34.5 -82.5q0 -56 32 -84t83 -28q45 0 92.5 28z" />
    <glyph glyph-name="aacute" unicode="&#xe1;" horiz-adv-x="523" 
d="M179 603l112 100q19 19 39 19q12 0 18.5 -6.5t6.5 -16.5q0 -19 -27 -36l-136 -79zM75 27q-42 37 -42 106q0 76 54 110t137 34h156v84q0 58 -36 86.5t-101 28.5q-72 0 -154 -41l-6 28q38 20 86 32t98 12q85 0 133.5 -38t48.5 -102v-331q37 -7 70 -16v-7l-139 -14v76
q-44 -47 -92.5 -66t-93.5 -19q-77 0 -119 37zM309.5 50q47.5 28 70.5 64v132h-139q-70 0 -104.5 -29.5t-34.5 -82.5q0 -56 32 -84t83 -28q45 0 92.5 28z" />
    <glyph glyph-name="abreve" unicode="&#x103;" horiz-adv-x="523" 
d="M157 604q-39 30 -46 90h46q5 -52 33 -70t68 -18q39 0 67 18t34 70h46q-7 -60 -46 -90t-101 -30t-101 30zM75 27q-42 37 -42 106q0 76 54 110t137 34h156v84q0 58 -36 86.5t-101 28.5q-72 0 -154 -41l-6 28q38 20 86 32t98 12q85 0 133.5 -38t48.5 -102v-331q37 -7 70 -16
v-7l-139 -14v76q-44 -47 -92.5 -66t-93.5 -19q-77 0 -119 37zM309.5 50q47.5 28 70.5 64v132h-139q-70 0 -104.5 -29.5t-34.5 -82.5q0 -56 32 -84t83 -28q45 0 92.5 28z" />
    <glyph glyph-name="uni1EAF" unicode="&#x1eaf;" horiz-adv-x="523" 
d="M226 701l89 82q25 26 48 26q10 0 16 -5.5t6 -14.5q0 -10 -9 -22t-27 -21l-111 -62zM157 604q-39 30 -46 90h46q6 -52 34 -70t67 -18q40 0 68 18t33 70h46q-7 -60 -46 -90t-101 -30t-101 30zM75 27q-42 37 -42 106q0 76 54 110t137 34h156v84q0 58 -36 86.5t-101 28.5
q-72 0 -154 -41l-6 28q38 20 86 32t98 12q85 0 133.5 -38t48.5 -102v-331q37 -7 70 -16v-7l-139 -14v76q-44 -47 -92.5 -66t-93.5 -19q-77 0 -119 37zM309.5 50q47.5 28 70.5 64v132h-139q-70 0 -104.5 -29.5t-34.5 -82.5q0 -56 32 -84t83 -28q45 0 92.5 28z" />
    <glyph glyph-name="uni1EB7" unicode="&#x1eb7;" horiz-adv-x="523" 
d="M157 604q-39 30 -46 90h46q5 -52 33 -70t68 -18q39 0 67 18t34 70h46q-7 -60 -46 -90t-101 -30t-101 30zM75 27q-42 37 -42 106q0 76 54 110t137 34h156v84q0 58 -36 86.5t-101 28.5q-72 0 -154 -41l-6 28q38 20 86 32t98 12q85 0 133.5 -38t48.5 -102v-331q37 -7 70 -16
v-7l-139 -14v76q-44 -47 -92.5 -66t-93.5 -19q-77 0 -119 37zM309.5 50q47.5 28 70.5 64v132h-139q-70 0 -104.5 -29.5t-34.5 -82.5q0 -56 32 -84t83 -28q45 0 92.5 28zM230 -131q-11 11 -11 29q0 19 11 30t28 11t28 -11t11 -30q0 -18 -11 -29t-28 -11t-28 11z" />
    <glyph glyph-name="uni1EB1" unicode="&#x1eb1;" horiz-adv-x="523" 
d="M162 746q-18 10 -27 21.5t-9 21.5q0 9 6 14.5t16 5.5q23 0 48 -26l89 -82l-12 -17zM157 604q-39 30 -46 90h46q6 -52 34 -70t67 -18q40 0 68 18t33 70h46q-7 -60 -46 -90t-101 -30t-101 30zM75 27q-42 37 -42 106q0 76 54 110t137 34h156v84q0 58 -36 86.5t-101 28.5
q-72 0 -154 -41l-6 28q38 20 86 32t98 12q85 0 133.5 -38t48.5 -102v-331q37 -7 70 -16v-7l-139 -14v76q-44 -47 -92.5 -66t-93.5 -19q-77 0 -119 37zM309.5 50q47.5 28 70.5 64v132h-139q-70 0 -104.5 -29.5t-34.5 -82.5q0 -56 32 -84t83 -28q45 0 92.5 28z" />
    <glyph glyph-name="uni1EB3" unicode="&#x1eb3;" horiz-adv-x="523" 
d="M237 741h17q27 0 41 11.5t14 30.5q0 16 -12.5 26t-36.5 10q-25 0 -48 -12l-5 23q30 14 62 14q33 0 55.5 -15.5t22.5 -46.5q0 -53 -69 -61l-9 -51h-28zM157 604q-39 30 -46 90h46q6 -52 34 -70t67 -18q40 0 68 18t33 70h46q-7 -60 -46 -90t-101 -30t-101 30zM75 27
q-42 37 -42 106q0 76 54 110t137 34h156v84q0 58 -36 86.5t-101 28.5q-72 0 -154 -41l-6 28q38 20 86 32t98 12q85 0 133.5 -38t48.5 -102v-331q37 -7 70 -16v-7l-139 -14v76q-44 -47 -92.5 -66t-93.5 -19q-77 0 -119 37zM309.5 50q47.5 28 70.5 64v132h-139
q-70 0 -104.5 -29.5t-34.5 -82.5q0 -56 32 -84t83 -28q45 0 92.5 28z" />
    <glyph glyph-name="uni1EB5" unicode="&#x1eb5;" horiz-adv-x="523" 
d="M139 816.5q21 23.5 54 23.5q17 0 32 -7.5t40 -23.5q18 -12 31 -18.5t24 -6.5q44 0 57 62h23q-6 -47 -26.5 -73.5t-55.5 -26.5q-15 0 -30.5 7.5t-36.5 22.5q-24 15 -36 21.5t-24 6.5q-21 0 -35.5 -16t-20.5 -43h-23q6 48 27 71.5zM157 604q-39 30 -46 90h46q6 -52 34 -70
t67 -18q40 0 68 18t33 70h46q-7 -60 -46 -90t-101 -30t-101 30zM75 27q-42 37 -42 106q0 76 54 110t137 34h156v84q0 58 -36 86.5t-101 28.5q-72 0 -154 -41l-6 28q38 20 86 32t98 12q85 0 133.5 -38t48.5 -102v-331q37 -7 70 -16v-7l-139 -14v76q-44 -47 -92.5 -66
t-93.5 -19q-77 0 -119 37zM309.5 50q47.5 28 70.5 64v132h-139q-70 0 -104.5 -29.5t-34.5 -82.5q0 -56 32 -84t83 -28q45 0 92.5 28z" />
    <glyph glyph-name="uni01CE" unicode="&#x1ce;" horiz-adv-x="523" 
d="M186.5 646.5q-34.5 32.5 -66.5 54.5l30 27q29 -22 58.5 -49.5t48.5 -52.5h5q21 26 50.5 53.5t57.5 48.5l29 -27q-32 -23 -66.5 -55t-56.5 -62h-33q-22 30 -56.5 62.5zM75 27q-42 37 -42 106q0 76 54 110t137 34h156v84q0 58 -36 86.5t-101 28.5q-72 0 -154 -41l-6 28
q38 20 86 32t98 12q85 0 133.5 -38t48.5 -102v-331q37 -7 70 -16v-7l-139 -14v76q-44 -47 -92.5 -66t-93.5 -19q-77 0 -119 37zM309.5 50q47.5 28 70.5 64v132h-139q-70 0 -104.5 -29.5t-34.5 -82.5q0 -56 32 -84t83 -28q45 0 92.5 28z" />
    <glyph glyph-name="acircumflex" unicode="&#xe2;" horiz-adv-x="523" 
d="M119 604q31 22 66 54t57 62h33q22 -30 57 -62t66 -54l-29 -27q-29 21 -59 49t-49 53h-5q-19 -25 -49 -53t-59 -49zM75 27q-42 37 -42 106q0 76 54 110t137 34h156v84q0 58 -36 86.5t-101 28.5q-72 0 -154 -41l-6 28q38 20 86 32t98 12q85 0 133.5 -38t48.5 -102v-331
q37 -7 70 -16v-7l-139 -14v76q-44 -47 -92.5 -66t-93.5 -19q-77 0 -119 37zM309.5 50q47.5 28 70.5 64v132h-139q-70 0 -104.5 -29.5t-34.5 -82.5q0 -56 32 -84t83 -28q45 0 92.5 28z" />
    <glyph glyph-name="uni1EA5" unicode="&#x1ea5;" horiz-adv-x="523" 
d="M367 708l89 82q25 26 48 26q10 0 16 -5.5t6 -14.5q0 -10 -9 -22t-27 -21l-111 -62zM128 604q31 22 66 54t57 62h33q22 -29 56.5 -61t66.5 -55l-29 -27q-28 21 -57.5 48.5t-50.5 53.5h-5q-19 -25 -48.5 -52.5t-58.5 -49.5zM75 27q-42 37 -42 106q0 76 54 110t137 34h156
v84q0 58 -36 86.5t-101 28.5q-72 0 -154 -41l-6 28q38 20 86 32t98 12q85 0 133.5 -38t48.5 -102v-331q37 -7 70 -16v-7l-139 -14v76q-44 -47 -92.5 -66t-93.5 -19q-77 0 -119 37zM309.5 50q47.5 28 70.5 64v132h-139q-70 0 -104.5 -29.5t-34.5 -82.5q0 -56 32 -84t83 -28
q45 0 92.5 28z" />
    <glyph glyph-name="uni1EAD" unicode="&#x1ead;" horiz-adv-x="523" 
d="M127 604q31 22 66 54t57 62h33q22 -30 57 -62t66 -54l-29 -27q-29 21 -59 49t-49 53h-5q-19 -25 -49 -53t-59 -49zM75 27q-42 37 -42 106q0 76 54 110t137 34h156v84q0 58 -36 86.5t-101 28.5q-72 0 -154 -41l-6 28q38 20 86 32t98 12q85 0 133.5 -38t48.5 -102v-331
q37 -7 70 -16v-7l-139 -14v76q-44 -47 -92.5 -66t-93.5 -19q-77 0 -119 37zM309.5 50q47.5 28 70.5 64v132h-139q-70 0 -104.5 -29.5t-34.5 -82.5q0 -56 32 -84t83 -28q45 0 92.5 28zM240 -131q-11 11 -11 29q0 19 11 30t28 11t28 -11t11 -30q0 -18 -11 -29t-28 -11t-28 11z
" />
    <glyph glyph-name="uni1EA7" unicode="&#x1ea7;" horiz-adv-x="523" 
d="M75 741q-56 32 -56 55q0 9 6 14.5t15 5.5q13 0 29 -11t37 -30l72 -67l-13 -17zM128 604q31 22 66 54t57 62h33q22 -29 56.5 -61t66.5 -55l-29 -27q-28 21 -57.5 48.5t-50.5 53.5h-5q-19 -25 -48.5 -52.5t-58.5 -49.5zM75 27q-42 37 -42 106q0 76 54 110t137 34h156v84
q0 58 -36 86.5t-101 28.5q-72 0 -154 -41l-6 28q38 20 86 32t98 12q85 0 133.5 -38t48.5 -102v-331q37 -7 70 -16v-7l-139 -14v76q-44 -47 -92.5 -66t-93.5 -19q-77 0 -119 37zM309.5 50q47.5 28 70.5 64v132h-139q-70 0 -104.5 -29.5t-34.5 -82.5q0 -56 32 -84t83 -28
q45 0 92.5 28z" />
    <glyph glyph-name="uni1EA9" unicode="&#x1ea9;" horiz-adv-x="523" 
d="M363 748h17q27 0 41 11.5t14 30.5q0 16 -12.5 26t-36.5 10q-25 0 -48 -12l-5 23q30 14 62 14q33 0 55.5 -15.5t22.5 -46.5q0 -53 -69 -61l-9 -51h-28zM128 604q31 22 66 54t57 62h33q22 -29 56.5 -61t66.5 -55l-29 -27q-28 21 -57.5 48.5t-50.5 53.5h-5
q-19 -25 -48.5 -52.5t-58.5 -49.5zM75 27q-42 37 -42 106q0 76 54 110t137 34h156v84q0 58 -36 86.5t-101 28.5q-72 0 -154 -41l-6 28q38 20 86 32t98 12q85 0 133.5 -38t48.5 -102v-331q37 -7 70 -16v-7l-139 -14v76q-44 -47 -92.5 -66t-93.5 -19q-77 0 -119 37zM309.5 50
q47.5 28 70.5 64v132h-139q-70 0 -104.5 -29.5t-34.5 -82.5q0 -56 32 -84t83 -28q45 0 92.5 28z" />
    <glyph glyph-name="uni1EAB" unicode="&#x1eab;" horiz-adv-x="523" 
d="M148 823.5q21 23.5 54 23.5q17 0 32 -7.5t40 -23.5q18 -12 31 -18.5t24 -6.5q44 0 57 62h23q-6 -47 -26.5 -73.5t-55.5 -26.5q-15 0 -30.5 7.5t-36.5 22.5q-24 15 -36 21.5t-24 6.5q-21 0 -35.5 -16t-20.5 -43h-23q6 48 27 71.5zM128 604q31 22 66 54t57 62h33
q22 -29 56.5 -61t66.5 -55l-29 -27q-28 21 -57.5 48.5t-50.5 53.5h-5q-19 -25 -48.5 -52.5t-58.5 -49.5zM75 27q-42 37 -42 106q0 76 54 110t137 34h156v84q0 58 -36 86.5t-101 28.5q-72 0 -154 -41l-6 28q38 20 86 32t98 12q85 0 133.5 -38t48.5 -102v-331q37 -7 70 -16v-7
l-139 -14v76q-44 -47 -92.5 -66t-93.5 -19q-77 0 -119 37zM309.5 50q47.5 28 70.5 64v132h-139q-70 0 -104.5 -29.5t-34.5 -82.5q0 -56 32 -84t83 -28q45 0 92.5 28z" />
    <glyph glyph-name="adieresis" unicode="&#xe4;" horiz-adv-x="523" 
d="M123 594q-11 11 -11 29q0 19 11 30t28 11t28 -11t11 -30q0 -18 -11 -29t-28 -11t-28 11zM336 594q-11 11 -11 29q0 19 11 30t28 11t28 -11t11 -30q0 -18 -11 -29t-28 -11t-28 11zM75 27q-42 37 -42 106q0 76 54 110t137 34h156v84q0 58 -36 86.5t-101 28.5
q-72 0 -154 -41l-6 28q38 20 86 32t98 12q85 0 133.5 -38t48.5 -102v-331q37 -7 70 -16v-7l-139 -14v76q-44 -47 -92.5 -66t-93.5 -19q-77 0 -119 37zM309.5 50q47.5 28 70.5 64v132h-139q-70 0 -104.5 -29.5t-34.5 -82.5q0 -56 32 -84t83 -28q45 0 92.5 28z" />
    <glyph glyph-name="uni1EA1" unicode="&#x1ea1;" horiz-adv-x="523" 
d="M75 27q-42 37 -42 106q0 76 54 110t137 34h156v84q0 58 -36 86.5t-101 28.5q-72 0 -154 -41l-6 28q38 20 86 32t98 12q85 0 133.5 -38t48.5 -102v-331q37 -7 70 -16v-7l-139 -14v76q-44 -47 -92.5 -66t-93.5 -19q-77 0 -119 37zM309.5 50q47.5 28 70.5 64v132h-139
q-70 0 -104.5 -29.5t-34.5 -82.5q0 -56 32 -84t83 -28q45 0 92.5 28zM233 -131q-11 11 -11 29q0 19 11 30t28 11t28 -11t11 -30q0 -18 -11 -29t-28 -11t-28 11z" />
    <glyph glyph-name="agrave" unicode="&#xe0;" horiz-adv-x="523" 
d="M196 663q-28 17 -28 36q0 9 7 16t19 7q21 0 38 -19l113 -100l-13 -19zM75 27q-42 37 -42 106q0 76 54 110t137 34h156v84q0 58 -36 86.5t-101 28.5q-72 0 -154 -41l-6 28q38 20 86 32t98 12q85 0 133.5 -38t48.5 -102v-331q37 -7 70 -16v-7l-139 -14v76
q-44 -47 -92.5 -66t-93.5 -19q-77 0 -119 37zM309.5 50q47.5 28 70.5 64v132h-139q-70 0 -104.5 -29.5t-34.5 -82.5q0 -56 32 -84t83 -28q45 0 92.5 28z" />
    <glyph glyph-name="uni1EA3" unicode="&#x1ea3;" horiz-adv-x="523" 
d="M245 666h20q32 0 48 14.5t16 37.5q0 20 -15 32.5t-43 12.5t-57 -16l-7 27q34 17 74 17q38 0 64.5 -19t26.5 -56q0 -32 -20.5 -50.5t-59.5 -22.5l-11 -62h-31zM75 27q-42 37 -42 106q0 76 54 110t137 34h156v84q0 58 -36 86.5t-101 28.5q-72 0 -154 -41l-6 28q38 20 86 32
t98 12q85 0 133.5 -38t48.5 -102v-331q37 -7 70 -16v-7l-139 -14v76q-44 -47 -92.5 -66t-93.5 -19q-77 0 -119 37zM309.5 50q47.5 28 70.5 64v132h-139q-70 0 -104.5 -29.5t-34.5 -82.5q0 -56 32 -84t83 -28q45 0 92.5 28z" />
    <glyph glyph-name="uni0251" unicode="&#x251;" horiz-adv-x="571" 
d="M84 56q-57 66 -57 202q0 80 31.5 136.5t86 84.5t122.5 28q165 0 230 -104v-367q41 -7 70 -16v-7l-131 -15q-7 32 -9 79q-24 -43 -73.5 -65t-104.5 -22q-108 0 -165 66zM352.5 42q36.5 21 55.5 56t19 74v230q-26 35 -63 54.5t-84 19.5q-91 0 -137.5 -56.5t-46.5 -163.5
t40 -171t130 -64q50 0 86.5 21z" />
    <glyph glyph-name="amacron" unicode="&#x101;" horiz-adv-x="523" 
d="M100 615h314v-31h-314v31zM75 27q-42 37 -42 106q0 76 54 110t137 34h156v84q0 58 -36 86.5t-101 28.5q-72 0 -154 -41l-6 28q38 20 86 32t98 12q85 0 133.5 -38t48.5 -102v-331q37 -7 70 -16v-7l-139 -14v76q-44 -47 -92.5 -66t-93.5 -19q-77 0 -119 37zM309.5 50
q47.5 28 70.5 64v132h-139q-70 0 -104.5 -29.5t-34.5 -82.5q0 -56 32 -84t83 -28q45 0 92.5 28z" />
    <glyph glyph-name="aogonek" unicode="&#x105;" horiz-adv-x="523" 
d="M540 -122v-33q-35 -15 -74 -15q-44 0 -68 23t-24 54q0 30 17.5 56t48.5 42l-60 -6v76q-44 -47 -92.5 -66t-93.5 -19q-77 0 -119 37t-42 106q0 76 54 110t137 34h156v84q0 58 -36 86.5t-101 28.5q-72 0 -154 -41l-6 28q38 20 86 32t98 12q85 0 133.5 -38t48.5 -102v-331
q37 -7 70 -16v-7l-25 -3q-28 -16 -46.5 -41t-18.5 -52q0 -25 17 -37.5t44 -12.5t50 11zM380 246h-139q-70 0 -104.5 -29.5t-34.5 -82.5q0 -56 32 -84t83 -28q45 0 92.5 28t70.5 64v132z" />
    <glyph glyph-name="aring" unicode="&#xe5;" horiz-adv-x="523" 
d="M198 590q-25 23 -25 60t25 60.5t63 23.5t62.5 -23.5t24.5 -60.5t-24.5 -60t-62.5 -23t-63 23zM301.5 610q15.5 15 15.5 40t-15.5 40.5t-40.5 15.5t-41 -15.5t-16 -40.5t16 -40t41 -15t40.5 15zM75 27q-42 37 -42 106q0 76 54 110t137 34h156v84q0 58 -36 86.5t-101 28.5
q-72 0 -154 -41l-6 28q38 20 86 32t98 12q85 0 133.5 -38t48.5 -102v-331q37 -7 70 -16v-7l-139 -14v76q-44 -47 -92.5 -66t-93.5 -19q-77 0 -119 37zM309.5 50q47.5 28 70.5 64v132h-139q-70 0 -104.5 -29.5t-34.5 -82.5q0 -56 32 -84t83 -28q45 0 92.5 28z" />
    <glyph glyph-name="aringacute" unicode="&#x1fb;" horiz-adv-x="523" 
d="M216 767l112 100q19 19 39 19q12 0 18.5 -6.5t6.5 -16.5q0 -19 -27 -36l-136 -79zM198 575q-25 23 -25 60t25 60.5t63 23.5t62.5 -23.5t24.5 -60.5t-24.5 -60t-62.5 -23t-63 23zM301.5 595q15.5 15 15.5 40t-15.5 40.5t-40.5 15.5t-41 -15.5t-16 -40.5t16 -40t41 -15
t40.5 15zM75 27q-42 37 -42 106q0 76 54 110t137 34h156v84q0 58 -36 86.5t-101 28.5q-72 0 -154 -41l-6 28q38 20 86 32t98 12q85 0 133.5 -38t48.5 -102v-331q37 -7 70 -16v-7l-139 -14v76q-44 -47 -92.5 -66t-93.5 -19q-77 0 -119 37zM309.5 50q47.5 28 70.5 64v132h-139
q-70 0 -104.5 -29.5t-34.5 -82.5q0 -56 32 -84t83 -28q45 0 92.5 28z" />
    <glyph glyph-name="atilde" unicode="&#xe3;" horiz-adv-x="523" 
d="M128.5 655.5q23.5 23.5 59.5 23.5q19 0 37 -8t42 -23q21 -12 35 -18.5t27 -6.5q49 0 64 62h25q-7 -47 -29.5 -73.5t-61.5 -26.5q-16 0 -31 7t-44 23q-26 15 -39.5 21.5t-26.5 6.5q-23 0 -39.5 -16t-22.5 -43h-26q7 48 30.5 71.5zM75 27q-42 37 -42 106q0 76 54 110
t137 34h156v84q0 58 -36 86.5t-101 28.5q-72 0 -154 -41l-6 28q38 20 86 32t98 12q85 0 133.5 -38t48.5 -102v-331q37 -7 70 -16v-7l-139 -14v76q-44 -47 -92.5 -66t-93.5 -19q-77 0 -119 37zM309.5 50q47.5 28 70.5 64v132h-139q-70 0 -104.5 -29.5t-34.5 -82.5
q0 -56 32 -84t83 -28q45 0 92.5 28z" />
    <glyph glyph-name="ae" unicode="&#xe6;" horiz-adv-x="860" 
d="M78 26.5q-45 36.5 -45 106.5q0 77 56.5 113.5t138.5 36.5h143q1 20 7 49l4 25q0 59 -36.5 89t-102.5 30q-72 0 -154 -41l-6 28q38 20 86 32t98 12q60 0 101.5 -22.5t58.5 -61.5q31 41 79 62.5t110 21.5q105 0 158.5 -66.5t53.5 -167.5v-21h-389q1 -105 56 -168.5
t153 -63.5q40 0 80 13t70 34l7 -23q-28 -23 -73 -38.5t-102 -15.5q-68 0 -122 27.5t-88 77.5q-45 -59 -106 -82t-117 -23q-74 0 -119 36.5zM766 284q-1 78 -37.5 135.5t-112.5 57.5q-83 0 -127 -54.5t-49 -138.5h326zM321.5 50q52.5 28 80.5 70q-30 58 -32 132h-125
q-69 0 -106 -32t-37 -86q0 -56 33 -84t85 -28q49 0 101.5 28z" />
    <glyph glyph-name="aeacute" unicode="&#x1fd;" horiz-adv-x="860" 
d="M398 603l112 100q19 19 39 19q12 0 18.5 -6.5t6.5 -16.5q0 -19 -27 -36l-136 -79zM78 26.5q-45 36.5 -45 106.5q0 77 56.5 113.5t138.5 36.5h143q1 20 7 49l4 25q0 59 -36.5 89t-102.5 30q-72 0 -154 -41l-6 28q38 20 86 32t98 12q60 0 101.5 -22.5t58.5 -61.5
q31 41 79 62.5t110 21.5q105 0 158.5 -66.5t53.5 -167.5v-21h-389q1 -105 56 -168.5t153 -63.5q40 0 80 13t70 34l7 -23q-28 -23 -73 -38.5t-102 -15.5q-68 0 -122 27.5t-88 77.5q-45 -59 -106 -82t-117 -23q-74 0 -119 36.5zM766 284q-1 78 -37.5 135.5t-112.5 57.5
q-83 0 -127 -54.5t-49 -138.5h326zM321.5 50q52.5 28 80.5 70q-30 58 -32 132h-125q-69 0 -106 -32t-37 -86q0 -56 33 -84t85 -28q49 0 101.5 28z" />
    <glyph glyph-name="b" unicode="b" horiz-adv-x="581" 
d="M214 12.5q-48 22.5 -71 65.5q-4 -35 -17 -78h-44v670q-44 8 -70 17v6l139 15v-277q44 45 90 60.5t93 15.5q97 0 157 -63.5t60 -182.5q0 -138 -60.5 -204.5t-167.5 -66.5q-61 0 -109 22.5zM442 85q40 64 40 171q0 109 -41 164.5t-132 55.5q-47 0 -88 -24t-70 -61v-223
q0 -39 19 -73t56 -54t87 -20q89 0 129 64z" />
    <glyph glyph-name="c" unicode="c" horiz-adv-x="479" 
d="M149 22.5q-57 32.5 -88 90.5t-31 135q0 82 32 140t89.5 88.5t133.5 30.5q103 0 171 -57l-7 -104h-16q-10 24 -15 96q-53 34 -112 34q-101 0 -153.5 -61t-52.5 -174q0 -57 21.5 -107.5t67 -82t112.5 -31.5q40 0 80.5 13t69.5 34l7 -23q-28 -23 -73.5 -38.5t-102.5 -15.5
q-76 0 -133 32.5z" />
    <glyph glyph-name="cacute" unicode="&#x107;" horiz-adv-x="479" 
d="M225 603l112 100q19 19 39 19q12 0 18.5 -6.5t6.5 -16.5q0 -19 -27 -36l-136 -79zM149 22.5q-57 32.5 -88 90.5t-31 135q0 82 32 140t89.5 88.5t133.5 30.5q103 0 171 -57l-7 -104h-16q-10 24 -15 96q-53 34 -112 34q-101 0 -153.5 -61t-52.5 -174q0 -57 21.5 -107.5
t67 -82t112.5 -31.5q40 0 80.5 13t69.5 34l7 -23q-28 -23 -73.5 -38.5t-102.5 -15.5q-76 0 -133 32.5z" />
    <glyph glyph-name="ccaron" unicode="&#x10d;" horiz-adv-x="479" 
d="M221.5 646.5q-34.5 32.5 -66.5 54.5l29 27q29 -21 59 -49t49 -53h5q19 25 49 53t59 49l29 -27q-32 -22 -66.5 -54.5t-56.5 -62.5h-33q-22 30 -56.5 62.5zM149 22.5q-57 32.5 -88 90.5t-31 135q0 82 32 140t89.5 88.5t133.5 30.5q103 0 171 -57l-7 -104h-16q-10 24 -15 96
q-53 34 -112 34q-101 0 -153.5 -61t-52.5 -174q0 -57 21.5 -107.5t67 -82t112.5 -31.5q40 0 80.5 13t69.5 34l7 -23q-28 -23 -73.5 -38.5t-102.5 -15.5q-76 0 -133 32.5z" />
    <glyph glyph-name="ccedilla" unicode="&#xe7;" horiz-adv-x="479" 
d="M355 -81.5q25 -15.5 25 -45.5q0 -40 -31 -60.5t-81 -20.5q-40 0 -74 14l14 25q27 -9 58 -9q33 0 52.5 12.5t19.5 38.5q0 18 -16.5 26.5t-39.5 8.5q-11 0 -25 -2l-21 26l29 58q-71 4 -124.5 37t-82 90.5t-28.5 130.5q0 82 32 140t89.5 88.5t133.5 30.5q103 0 171 -57
l-7 -104h-16q-10 24 -15 96q-53 34 -112 34q-101 0 -153.5 -61t-52.5 -174q0 -57 21.5 -107.5t67 -82t112.5 -31.5q40 0 80.5 13t69.5 34l7 -23q-26 -21 -65.5 -35.5t-88.5 -17.5l-26 -57h9q43 0 68 -15.5z" />
    <glyph glyph-name="ccircumflex" unicode="&#x109;" horiz-adv-x="479" 
d="M153 604q31 22 66 54t57 62h33q22 -30 57 -62t66 -54l-29 -27q-29 21 -59 49t-49 53h-5q-19 -25 -49 -53t-59 -49zM149 22.5q-57 32.5 -88 90.5t-31 135q0 82 32 140t89.5 88.5t133.5 30.5q103 0 171 -57l-7 -104h-16q-10 24 -15 96q-53 34 -112 34q-101 0 -153.5 -61
t-52.5 -174q0 -57 21.5 -107.5t67 -82t112.5 -31.5q40 0 80.5 13t69.5 34l7 -23q-28 -23 -73.5 -38.5t-102.5 -15.5q-76 0 -133 32.5z" />
    <glyph glyph-name="cdotaccent" unicode="&#x10b;" horiz-adv-x="479" 
d="M260.5 594q-10.5 11 -10.5 29q0 19 10.5 30t28.5 11q17 0 28 -11t11 -30q0 -18 -11 -29t-28 -11q-18 0 -28.5 11zM149 22.5q-57 32.5 -88 90.5t-31 135q0 82 32 140t89.5 88.5t133.5 30.5q103 0 171 -57l-7 -104h-16q-10 24 -15 96q-53 34 -112 34q-101 0 -153.5 -61
t-52.5 -174q0 -57 21.5 -107.5t67 -82t112.5 -31.5q40 0 80.5 13t69.5 34l7 -23q-28 -23 -73.5 -38.5t-102.5 -15.5q-76 0 -133 32.5z" />
    <glyph glyph-name="d" unicode="d" horiz-adv-x="573" 
d="M88 53.5q-58 63.5 -58 196.5q0 121 62.5 189t166.5 68q47 0 89.5 -15t81.5 -59v237q-44 8 -70 17v6l139 15v-672q41 -7 70 -16v-6l-122 -17q-6 29 -10 87q-26 -47 -75.5 -70.5t-111.5 -23.5q-104 0 -162 63.5zM353.5 41q36.5 20 56.5 54.5t20 75.5v221q-33 39 -69.5 61.5
t-82.5 22.5q-90 0 -134.5 -63t-44.5 -164q0 -106 40.5 -167t128.5 -61q49 0 85.5 20z" />
    <glyph glyph-name="eth" unicode="&#xf0;" horiz-adv-x="590" 
d="M491 497q49 -102 49 -204q0 -143 -64.5 -223t-190.5 -80q-74 0 -127 35.5t-80.5 94t-27.5 128.5q0 62 26.5 120.5t80.5 96t133 37.5q51 0 97.5 -22.5t75.5 -66.5q-17 63 -54 126.5t-93 115.5l-161 -92l-13 34l146 83q-49 40 -113 69l21 27q69 -28 129 -74q86 49 126 75
l22 -33l-118 -67q87 -78 136 -180zM385.5 54.5q41.5 33.5 63 90t21.5 125.5q0 53 -22.5 99t-63 74t-90.5 28q-51 0 -90.5 -28.5t-62 -79.5t-22.5 -115q0 -61 20 -113t58 -83t90 -31q57 0 98.5 33.5z" />
    <glyph glyph-name="dcaron" unicode="&#x10f;" horiz-adv-x="689" 
d="M88 53.5q-58 63.5 -58 196.5q0 121 62.5 189t166.5 68q47 0 89.5 -15t81.5 -59v237q-44 8 -70 17v6l139 15v-672q41 -7 70 -16v-6l-122 -17q-6 29 -10 87q-26 -47 -75.5 -70.5t-111.5 -23.5q-104 0 -162 63.5zM581 513q18 22 29.5 51t13.5 59q-8 -2 -12 -2
q-18 0 -30.5 12t-12.5 31q0 21 13.5 32t32.5 11q28 0 41.5 -16.5t13.5 -45.5q0 -37 -17.5 -82t-45.5 -71zM353.5 41q36.5 20 56.5 54.5t20 75.5v221q-33 39 -69.5 61.5t-82.5 22.5q-90 0 -134.5 -63t-44.5 -164q0 -106 40.5 -167t128.5 -61q49 0 85.5 20z" />
    <glyph glyph-name="dcroat" unicode="&#x111;" horiz-adv-x="573" 
d="M88 53.5q-58 63.5 -58 196.5q0 121 62.5 189t166.5 68q47 0 89.5 -15t81.5 -59v142h-162v33h162v87q-41 7 -70 16v7l139 15v-125h49v-33h-49v-539q41 -7 70 -16v-6l-122 -17q-6 29 -10 87q-26 -47 -75.5 -70.5t-111.5 -23.5q-104 0 -162 63.5zM353.5 41
q36.5 20 56.5 54.5t20 75.5v221q-33 39 -69.5 61.5t-82.5 22.5q-90 0 -134.5 -63t-44.5 -164q0 -106 40.5 -167t128.5 -61q49 0 85.5 20z" />
    <glyph glyph-name="uni1E0D" unicode="&#x1e0d;" horiz-adv-x="581" 
d="M88 53.5q-58 63.5 -58 196.5q0 121 62.5 189t166.5 68q47 0 89.5 -15t81.5 -59v237q-44 8 -70 17v6l139 15v-672q41 -7 70 -16v-6l-122 -17q-6 29 -10 87q-26 -47 -75.5 -70.5t-111.5 -23.5q-104 0 -162 63.5zM353.5 41q36.5 20 56.5 54.5t20 75.5v221q-33 39 -69.5 61.5
t-82.5 22.5q-90 0 -134.5 -63t-44.5 -164q0 -106 40.5 -167t128.5 -61q49 0 85.5 20zM249 -131q-11 11 -11 29q0 19 11 30t28 11t28 -11t11 -30q0 -18 -11 -29t-28 -11t-28 11z" />
    <glyph glyph-name="uni1E0F" unicode="&#x1e0f;" horiz-adv-x="581" 
d="M88 53.5q-58 63.5 -58 196.5q0 121 62.5 189t166.5 68q47 0 89.5 -15t81.5 -59v237q-44 8 -70 17v6l139 15v-672q41 -7 70 -16v-6l-122 -17q-6 29 -10 87q-26 -47 -75.5 -70.5t-111.5 -23.5q-104 0 -162 63.5zM353.5 41q36.5 20 56.5 54.5t20 75.5v221q-33 39 -69.5 61.5
t-82.5 22.5q-90 0 -134.5 -63t-44.5 -164q0 -106 40.5 -167t128.5 -61q49 0 85.5 20zM125 -71h314v-31h-314v31z" />
    <glyph glyph-name="e" unicode="e" horiz-adv-x="518" 
d="M486 251h-388q0 -101 52.5 -166t151.5 -65q40 0 82 13t72 34l7 -23q-28 -23 -75 -38.5t-104 -15.5q-76 0 -134 32.5t-90 91t-32 134.5q0 123 65 191t179 68q71 0 119.5 -32t71.5 -85t23 -118v-21zM423 282q0 76 -36 135t-113 59q-81 0 -124.5 -54.5t-50.5 -139.5h324z
" />
    <glyph glyph-name="eacute" unicode="&#xe9;" horiz-adv-x="518" 
d="M195 584l-13 19l112 100q19 19 39 19q12 0 18.5 -6.5t6.5 -16.5q0 -19 -27 -36zM486 251h-388q0 -101 52.5 -166t151.5 -65q40 0 82 13t72 34l7 -23q-28 -23 -75 -38.5t-104 -15.5q-76 0 -134 32.5t-90 91t-32 134.5q0 123 65 191t179 68q71 0 119.5 -32t71.5 -85
t23 -118v-21zM423 282q0 76 -36 135t-113 59q-81 0 -124.5 -54.5t-50.5 -139.5h324z" />
    <glyph glyph-name="ebreve" unicode="&#x115;" horiz-adv-x="518" 
d="M158 604q-39 30 -46 90h46q5 -52 33 -70t68 -18q39 0 67 18t34 70h46q-7 -60 -46 -90t-101 -30t-101 30zM486 251h-388q0 -101 52.5 -166t151.5 -65q40 0 82 13t72 34l7 -23q-28 -23 -75 -38.5t-104 -15.5q-76 0 -134 32.5t-90 91t-32 134.5q0 123 65 191t179 68
q71 0 119.5 -32t71.5 -85t23 -118v-21zM423 282q0 76 -36 135t-113 59q-81 0 -124.5 -54.5t-50.5 -139.5h324z" />
    <glyph glyph-name="ecaron" unicode="&#x11b;" horiz-adv-x="518" 
d="M198.5 646.5q-34.5 32.5 -66.5 54.5l29 27q29 -21 59 -49t49 -53h5q19 25 49 53t59 49l29 -27q-32 -22 -66.5 -54.5t-56.5 -62.5h-33q-22 30 -56.5 62.5zM486 251h-388q0 -101 52.5 -166t151.5 -65q40 0 82 13t72 34l7 -23q-28 -23 -75 -38.5t-104 -15.5q-76 0 -134 32.5
t-90 91t-32 134.5q0 123 65 191t179 68q71 0 119.5 -32t71.5 -85t23 -118v-21zM423 282q0 76 -36 135t-113 59q-81 0 -124.5 -54.5t-50.5 -139.5h324z" />
    <glyph glyph-name="ecircumflex" unicode="&#xea;" horiz-adv-x="518" 
d="M211 626q-30 -28 -59 -49l-29 27q31 22 66 54t57 62h33q22 -30 57 -62t66 -54l-29 -27q-29 21 -59 49t-49 53h-5q-19 -25 -49 -53zM486 251h-388q0 -101 52.5 -166t151.5 -65q40 0 82 13t72 34l7 -23q-28 -23 -75 -38.5t-104 -15.5q-76 0 -134 32.5t-90 91t-32 134.5
q0 123 65 191t179 68q71 0 119.5 -32t71.5 -85t23 -118v-21zM423 282q0 76 -36 135t-113 59q-81 0 -124.5 -54.5t-50.5 -139.5h324z" />
    <glyph glyph-name="uni1EBF" unicode="&#x1ebf;" horiz-adv-x="518" 
d="M515 810.5q6 -5.5 6 -14.5q0 -10 -9 -22t-27 -21l-111 -62l-12 17l89 82q25 26 48 26q10 0 16 -5.5zM211.5 626.5q-29.5 -27.5 -58.5 -49.5l-30 27q31 22 66 54t57 62h33q22 -29 56.5 -61t66.5 -55l-29 -27q-28 21 -57.5 48.5t-50.5 53.5h-5q-19 -25 -48.5 -52.5z
M391.5 475q48.5 -32 71.5 -85t23 -118v-21h-388q0 -101 52.5 -166t151.5 -65q40 0 82 13t72 34l7 -23q-28 -23 -75 -38.5t-104 -15.5q-76 0 -134 32.5t-90 91t-32 134.5q0 123 65 191t179 68q71 0 119.5 -32zM423 282q0 76 -36 135t-113 59q-81 0 -124.5 -54.5t-50.5 -139.5
h324z" />
    <glyph glyph-name="uni1EC7" unicode="&#x1ec7;" horiz-adv-x="518" 
d="M211 626q-30 -28 -59 -49l-29 27q31 22 66 54t57 62h33q22 -30 57 -62t66 -54l-29 -27q-29 21 -59 49t-49 53h-5q-19 -25 -49 -53zM486 251h-388q0 -101 52.5 -166t151.5 -65q40 0 82 13t72 34l7 -23q-28 -23 -75 -38.5t-104 -15.5q-76 0 -134 32.5t-90 91t-32 134.5
q0 123 65 191t179 68q71 0 119.5 -32t71.5 -85t23 -118v-21zM423 282q0 76 -36 135t-113 59q-81 0 -124.5 -54.5t-50.5 -139.5h324zM291 -72q11 -11 11 -30q0 -18 -11 -29t-28 -11t-28 11t-11 29q0 19 11 30t28 11t28 -11z" />
    <glyph glyph-name="uni1EC1" unicode="&#x1ec1;" horiz-adv-x="518" 
d="M70 741q-56 32 -56 55q0 9 6 14.5t15 5.5q13 0 29 -11t37 -30l72 -67l-13 -17zM123 604q31 22 66 54t57 62h33q22 -29 56.5 -61t66.5 -55l-29 -27q-28 21 -57.5 48.5t-50.5 53.5h-5q-19 -25 -48.5 -52.5t-58.5 -49.5zM486 251h-388q0 -101 52.5 -166t151.5 -65
q40 0 82 13t72 34l7 -23q-28 -23 -75 -38.5t-104 -15.5q-76 0 -134 32.5t-90 91t-32 134.5q0 123 65 191t179 68q71 0 119.5 -32t71.5 -85t23 -118v-21zM423 282q0 76 -36 135t-113 59q-81 0 -124.5 -54.5t-50.5 -139.5h324z" />
    <glyph glyph-name="uni1EC3" unicode="&#x1ec3;" horiz-adv-x="518" 
d="M333 814l-5 23q30 14 62 14q33 0 55.5 -15.5t22.5 -46.5q0 -53 -69 -61l-9 -51h-28l-4 71h17q27 0 41 11.5t14 30.5q0 16 -12.5 26t-36.5 10q-25 0 -48 -12zM211.5 626.5q-29.5 -27.5 -58.5 -49.5l-30 27q31 22 66 54t57 62h33q22 -29 56.5 -61t66.5 -55l-29 -27
q-28 21 -57.5 48.5t-50.5 53.5h-5q-19 -25 -48.5 -52.5zM486 251h-388q0 -101 52.5 -166t151.5 -65q40 0 82 13t72 34l7 -23q-28 -23 -75 -38.5t-104 -15.5q-76 0 -134 32.5t-90 91t-32 134.5q0 123 65 191t179 68q71 0 119.5 -32t71.5 -85t23 -118v-21zM423 282
q0 76 -36 135t-113 59q-81 0 -124.5 -54.5t-50.5 -139.5h324z" />
    <glyph glyph-name="uni1EC5" unicode="&#x1ec5;" horiz-adv-x="518" 
d="M159.5 795q-14.5 -16 -20.5 -43h-23q6 48 27 71.5t54 23.5q17 0 32 -7.5t40 -23.5q18 -12 31 -18.5t24 -6.5q44 0 57 62h23q-6 -47 -26.5 -73.5t-55.5 -26.5q-15 0 -30.5 7.5t-36.5 22.5q-24 16 -36 22t-24 6q-21 0 -35.5 -16zM335.5 659q34.5 -32 66.5 -55l-29 -27
q-28 21 -57.5 48.5t-50.5 53.5h-5q-19 -25 -48.5 -52.5t-58.5 -49.5l-30 27q31 22 66 54t57 62h33q22 -29 56.5 -61zM486 251h-388q0 -101 52.5 -166t151.5 -65q40 0 82 13t72 34l7 -23q-28 -23 -75 -38.5t-104 -15.5q-76 0 -134 32.5t-90 91t-32 134.5q0 123 65 191t179 68
q71 0 119.5 -32t71.5 -85t23 -118v-21zM423 282q0 76 -36 135t-113 59q-81 0 -124.5 -54.5t-50.5 -139.5h324z" />
    <glyph glyph-name="edieresis" unicode="&#xeb;" horiz-adv-x="518" 
d="M129 594q-11 11 -11 29q0 19 11 30t28 11t28 -11t11 -30q0 -18 -11 -29t-28 -11t-28 11zM342 594q-11 11 -11 29q0 19 11 30t28 11t28 -11t11 -30q0 -18 -11 -29t-28 -11t-28 11zM486 251h-388q0 -101 52.5 -166t151.5 -65q40 0 82 13t72 34l7 -23q-28 -23 -75 -38.5
t-104 -15.5q-76 0 -134 32.5t-90 91t-32 134.5q0 123 65 191t179 68q71 0 119.5 -32t71.5 -85t23 -118v-21zM423 282q0 76 -36 135t-113 59q-81 0 -124.5 -54.5t-50.5 -139.5h324z" />
    <glyph glyph-name="edotaccent" unicode="&#x117;" horiz-adv-x="518" 
d="M237.5 594q-10.5 11 -10.5 29q0 19 10.5 30t28.5 11q17 0 28 -11t11 -30q0 -18 -11 -29t-28 -11q-18 0 -28.5 11zM486 251h-388q0 -101 52.5 -166t151.5 -65q40 0 82 13t72 34l7 -23q-28 -23 -75 -38.5t-104 -15.5q-76 0 -134 32.5t-90 91t-32 134.5q0 123 65 191t179 68
q71 0 119.5 -32t71.5 -85t23 -118v-21zM423 282q0 76 -36 135t-113 59q-81 0 -124.5 -54.5t-50.5 -139.5h324z" />
    <glyph glyph-name="uni1EB9" unicode="&#x1eb9;" horiz-adv-x="518" 
d="M486 251h-388q0 -101 52.5 -166t151.5 -65q40 0 82 13t72 34l7 -23q-28 -23 -75 -38.5t-104 -15.5q-76 0 -134 32.5t-90 91t-32 134.5q0 123 65 191t179 68q71 0 119.5 -32t71.5 -85t23 -118v-21zM423 282q0 76 -36 135t-113 59q-81 0 -124.5 -54.5t-50.5 -139.5h324z
M296 -72q11 -11 11 -30q0 -18 -11 -29t-28 -11t-28 11t-11 29q0 19 11 30t28 11t28 -11z" />
    <glyph glyph-name="egrave" unicode="&#xe8;" horiz-adv-x="518" 
d="M173 699q0 9 7 16t19 7q21 0 38 -19l113 -100l-13 -19l-136 79q-28 17 -28 36zM486 251h-388q0 -101 52.5 -166t151.5 -65q40 0 82 13t72 34l7 -23q-28 -23 -75 -38.5t-104 -15.5q-76 0 -134 32.5t-90 91t-32 134.5q0 123 65 191t179 68q71 0 119.5 -32t71.5 -85t23 -118
v-21zM423 282q0 76 -36 135t-113 59q-81 0 -124.5 -54.5t-50.5 -139.5h324z" />
    <glyph glyph-name="uni1EBB" unicode="&#x1ebb;" horiz-adv-x="518" 
d="M192 747l-7 27q34 17 74 17q38 0 64.5 -19t26.5 -56q0 -32 -20.5 -50.5t-59.5 -22.5l-11 -62h-31l-5 85h20q32 0 48 14.5t16 37.5q0 20 -15 32.5t-43 12.5t-57 -16zM486 251h-388q0 -101 52.5 -166t151.5 -65q40 0 82 13t72 34l7 -23q-28 -23 -75 -38.5t-104 -15.5
q-76 0 -134 32.5t-90 91t-32 134.5q0 123 65 191t179 68q71 0 119.5 -32t71.5 -85t23 -118v-21zM423 282q0 76 -36 135t-113 59q-81 0 -124.5 -54.5t-50.5 -139.5h324z" />
    <glyph glyph-name="emacron" unicode="&#x113;" horiz-adv-x="518" 
d="M418 584h-314v31h314v-31zM486 251h-388q0 -101 52.5 -166t151.5 -65q40 0 82 13t72 34l7 -23q-28 -23 -75 -38.5t-104 -15.5q-76 0 -134 32.5t-90 91t-32 134.5q0 123 65 191t179 68q71 0 119.5 -32t71.5 -85t23 -118v-21zM423 282q0 76 -36 135t-113 59
q-81 0 -124.5 -54.5t-50.5 -139.5h324z" />
    <glyph glyph-name="eogonek" unicode="&#x119;" horiz-adv-x="518" 
d="M486 251h-388q0 -101 52.5 -166t151.5 -65q40 0 82 13t72 34l7 -23q-17 -13 -36 -23q-27 -15 -44 -40t-17 -51q0 -25 17 -37.5t44 -12.5t50 11v-33q-34 -15 -74 -15q-44 0 -68 23t-24 54q0 43 34 75q-32 -5 -61 -5q-76 0 -134 32.5t-90 91t-32 134.5q0 123 65 191t179 68
q71 0 119.5 -32t71.5 -85t23 -118v-21zM423 282q0 76 -36 135t-113 59q-81 0 -124.5 -54.5t-50.5 -139.5h324z" />
    <glyph glyph-name="uni1EBD" unicode="&#x1ebd;" horiz-adv-x="518" 
d="M156.5 627q-16.5 -16 -22.5 -43h-26q7 48 30.5 71.5t59.5 23.5q19 0 37 -8t42 -23q21 -12 35 -18.5t27 -6.5q49 0 64 62h25q-7 -47 -29.5 -73.5t-61.5 -26.5q-16 0 -31 7t-44 23q-26 15 -39.5 21.5t-26.5 6.5q-23 0 -39.5 -16zM486 251h-388q0 -101 52.5 -166t151.5 -65
q40 0 82 13t72 34l7 -23q-28 -23 -75 -38.5t-104 -15.5q-76 0 -134 32.5t-90 91t-32 134.5q0 123 65 191t179 68q71 0 119.5 -32t71.5 -85t23 -118v-21zM423 282q0 76 -36 135t-113 59q-81 0 -124.5 -54.5t-50.5 -139.5h324z" />
    <glyph glyph-name="f" unicode="f" horiz-adv-x="383" 
d="M216.5 652q-24.5 -30 -24.5 -92v-62h153v-31h-153v-440q52 -8 84 -18v-9h-234v9q46 15 81 18v440h-96v31h96v49q0 82 36 124.5t106 42.5q46 0 91 -15l-6 -30q-36 13 -65 13q-44 0 -68.5 -30z" />
    <glyph glyph-name="g" unicode="g" horiz-adv-x="512" 
d="M442 79q38 -33 38 -92q0 -72 -64 -104.5t-175 -32.5q-93 0 -148 32t-55 92q0 58 57 91q-23 12 -34.5 31t-11.5 40q0 45 56 79q-31 21 -47.5 53.5t-16.5 74.5q0 77 54.5 120.5t148.5 43.5q98 0 153 -47q15 14 26 34t11 32h56q-5 -24 -22.5 -48.5t-47.5 -43.5
q27 -37 27 -91q0 -77 -54.5 -120.5t-148.5 -43.5q-58 0 -103 17q-18 -11 -27.5 -25t-9.5 -27q0 -20 19.5 -26t64.5 -6h139q77 0 115 -33zM144.5 438.5q-34.5 -37.5 -34.5 -95.5t34.5 -95.5t99.5 -37.5t99.5 37.5t34.5 95.5t-34.5 95.5t-99.5 37.5t-99.5 -37.5zM371 -93.5
q46 23.5 46 68.5q0 37 -23.5 56t-82.5 19h-145q-23 0 -38 4q-20 -18 -27 -36t-7 -40q0 -47 41.5 -71t111.5 -24q78 0 124 23.5z" />
    <glyph glyph-name="gbreve" unicode="&#x11f;" horiz-adv-x="512" 
d="M155 604q-39 30 -46 90h46q5 -52 33.5 -70t67.5 -18t67 18t34 70h46q-7 -60 -46 -90t-101 -30t-101 30zM442 79q38 -33 38 -92q0 -72 -64 -104.5t-175 -32.5q-93 0 -148 32t-55 92q0 58 57 91q-23 12 -34.5 31t-11.5 40q0 45 56 79q-31 21 -47.5 53.5t-16.5 74.5
q0 77 54.5 120.5t148.5 43.5q98 0 153 -47q15 14 26 34t11 32h56q-5 -24 -22.5 -48.5t-47.5 -43.5q27 -37 27 -91q0 -77 -54.5 -120.5t-148.5 -43.5q-58 0 -103 17q-18 -11 -27.5 -25t-9.5 -27q0 -20 19.5 -26t64.5 -6h139q77 0 115 -33zM144.5 438.5
q-34.5 -37.5 -34.5 -95.5t34.5 -95.5t99.5 -37.5t99.5 37.5t34.5 95.5t-34.5 95.5t-99.5 37.5t-99.5 -37.5zM371 -93.5q46 23.5 46 68.5q0 37 -23.5 56t-82.5 19h-145q-23 0 -38 4q-20 -18 -27 -36t-7 -40q0 -47 41.5 -71t111.5 -24q78 0 124 23.5z" />
    <glyph glyph-name="gcaron" unicode="&#x1e7;" horiz-adv-x="512" 
d="M181.5 646.5q-34.5 32.5 -66.5 54.5l29 27q29 -21 59 -49t49 -53h5q19 25 49 53t59 49l29 -27q-32 -22 -66.5 -54.5t-56.5 -62.5h-33q-22 30 -56.5 62.5zM442 79q38 -33 38 -92q0 -72 -64 -104.5t-175 -32.5q-93 0 -148 32t-55 92q0 58 57 91q-23 12 -34.5 31t-11.5 40
q0 45 56 79q-31 21 -47.5 53.5t-16.5 74.5q0 77 54.5 120.5t148.5 43.5q98 0 153 -47q15 14 26 34t11 32h56q-5 -24 -22.5 -48.5t-47.5 -43.5q27 -37 27 -91q0 -77 -54.5 -120.5t-148.5 -43.5q-58 0 -103 17q-18 -11 -27.5 -25t-9.5 -27q0 -20 19.5 -26t64.5 -6h139
q77 0 115 -33zM144.5 438.5q-34.5 -37.5 -34.5 -95.5t34.5 -95.5t99.5 -37.5t99.5 37.5t34.5 95.5t-34.5 95.5t-99.5 37.5t-99.5 -37.5zM371 -93.5q46 23.5 46 68.5q0 37 -23.5 56t-82.5 19h-145q-23 0 -38 4q-20 -18 -27 -36t-7 -40q0 -47 41.5 -71t111.5 -24
q78 0 124 23.5z" />
    <glyph glyph-name="gcircumflex" unicode="&#x11d;" horiz-adv-x="512" 
d="M205 626q-30 -28 -59 -49l-29 27q31 22 66 54t57 62h33q22 -30 57 -62t66 -54l-29 -27q-29 21 -59 49t-49 53h-5q-19 -25 -49 -53zM442 79q38 -33 38 -92q0 -72 -64 -104.5t-175 -32.5q-93 0 -148 32t-55 92q0 58 57 91q-23 12 -34.5 31t-11.5 40q0 45 56 79
q-31 21 -47.5 53.5t-16.5 74.5q0 77 54.5 120.5t148.5 43.5q98 0 153 -47q15 14 26 34t11 32h56q-5 -24 -22.5 -48.5t-47.5 -43.5q27 -37 27 -91q0 -77 -54.5 -120.5t-148.5 -43.5q-58 0 -103 17q-18 -11 -27.5 -25t-9.5 -27q0 -20 19.5 -26t64.5 -6h139q77 0 115 -33z
M144.5 438.5q-34.5 -37.5 -34.5 -95.5t34.5 -95.5t99.5 -37.5t99.5 37.5t34.5 95.5t-34.5 95.5t-99.5 37.5t-99.5 -37.5zM371 -93.5q46 23.5 46 68.5q0 37 -23.5 56t-82.5 19h-145q-23 0 -38 4q-20 -18 -27 -36t-7 -40q0 -47 41.5 -71t111.5 -24q78 0 124 23.5z" />
    <glyph glyph-name="gcommaaccent" unicode="&#x123;" horiz-adv-x="512" 
d="M216.5 598.5q-13.5 16.5 -13.5 45.5q0 37 17.5 82t45.5 71l26 -21q-18 -22 -29.5 -51t-13.5 -59q8 2 12 2q18 0 30.5 -12t12.5 -31q0 -21 -13.5 -32t-32.5 -11q-28 0 -41.5 16.5zM442 79q38 -33 38 -92q0 -72 -64 -104.5t-175 -32.5q-93 0 -148 32t-55 92q0 58 57 91
q-23 12 -34.5 31t-11.5 40q0 45 56 79q-31 21 -47.5 53.5t-16.5 74.5q0 77 54.5 120.5t148.5 43.5q98 0 153 -47q15 14 26 34t11 32h56q-5 -24 -22.5 -48.5t-47.5 -43.5q27 -37 27 -91q0 -77 -54.5 -120.5t-148.5 -43.5q-58 0 -103 17q-18 -11 -27.5 -25t-9.5 -27
q0 -20 19.5 -26t64.5 -6h139q77 0 115 -33zM144.5 438.5q-34.5 -37.5 -34.5 -95.5t34.5 -95.5t99.5 -37.5t99.5 37.5t34.5 95.5t-34.5 95.5t-99.5 37.5t-99.5 -37.5zM371 -93.5q46 23.5 46 68.5q0 37 -23.5 56t-82.5 19h-145q-23 0 -38 4q-20 -18 -27 -36t-7 -40
q0 -47 41.5 -71t111.5 -24q78 0 124 23.5z" />
    <glyph glyph-name="gdotaccent" unicode="&#x121;" horiz-adv-x="512" 
d="M224.5 594q-10.5 11 -10.5 29q0 19 10.5 30t28.5 11q17 0 28 -11t11 -30q0 -18 -11 -29t-28 -11q-18 0 -28.5 11zM442 79q38 -33 38 -92q0 -72 -64 -104.5t-175 -32.5q-93 0 -148 32t-55 92q0 58 57 91q-23 12 -34.5 31t-11.5 40q0 45 56 79q-31 21 -47.5 53.5
t-16.5 74.5q0 77 54.5 120.5t148.5 43.5q98 0 153 -47q15 14 26 34t11 32h56q-5 -24 -22.5 -48.5t-47.5 -43.5q27 -37 27 -91q0 -77 -54.5 -120.5t-148.5 -43.5q-58 0 -103 17q-18 -11 -27.5 -25t-9.5 -27q0 -20 19.5 -26t64.5 -6h139q77 0 115 -33zM144.5 438.5
q-34.5 -37.5 -34.5 -95.5t34.5 -95.5t99.5 -37.5t99.5 37.5t34.5 95.5t-34.5 95.5t-99.5 37.5t-99.5 -37.5zM371 -93.5q46 23.5 46 68.5q0 37 -23.5 56t-82.5 19h-145q-23 0 -38 4q-20 -18 -27 -36t-7 -40q0 -47 41.5 -71t111.5 -24q78 0 124 23.5z" />
    <glyph glyph-name="uni1E21" unicode="&#x1e21;" horiz-adv-x="512" 
d="M405 584h-314v31h314v-31zM442 79q38 -33 38 -92q0 -72 -64 -104.5t-175 -32.5q-93 0 -148 32t-55 92q0 58 57 91q-23 12 -34.5 31t-11.5 40q0 45 56 79q-31 21 -47.5 53.5t-16.5 74.5q0 77 54.5 120.5t148.5 43.5q98 0 153 -47q15 14 26 34t11 32h56q-5 -24 -22.5 -48.5
t-47.5 -43.5q27 -37 27 -91q0 -77 -54.5 -120.5t-148.5 -43.5q-58 0 -103 17q-18 -11 -27.5 -25t-9.5 -27q0 -20 19.5 -26t64.5 -6h139q77 0 115 -33zM144.5 438.5q-34.5 -37.5 -34.5 -95.5t34.5 -95.5t99.5 -37.5t99.5 37.5t34.5 95.5t-34.5 95.5t-99.5 37.5t-99.5 -37.5z
M371 -93.5q46 23.5 46 68.5q0 37 -23.5 56t-82.5 19h-145q-23 0 -38 4q-20 -18 -27 -36t-7 -40q0 -47 41.5 -71t111.5 -24q78 0 124 23.5z" />
    <glyph glyph-name="h" unicode="h" horiz-adv-x="640" 
d="M620 9v-9h-229v9q38 12 79 18v331q0 61 -31 89.5t-81 28.5q-44 0 -92 -22t-83 -60v-367q46 -7 78 -18v-9h-228v9q41 14 81 18v643q-44 8 -70 17v6l139 15v-280q36 34 87.5 56.5t110.5 22.5q72 0 115 -38t43 -102v-340q46 -7 81 -18z" />
    <glyph glyph-name="hbar" unicode="&#x127;" horiz-adv-x="640" 
d="M620 9v-9h-229v9q38 12 79 18v331q0 61 -31 89.5t-81 28.5q-44 0 -92 -22t-83 -60v-367q46 -7 78 -18v-9h-228v9q41 14 81 18v547h-57v33h57v63q-44 8 -70 17v6l139 15v-101h154v-33h-154v-146q36 34 87.5 56.5t110.5 22.5q72 0 115 -38t43 -102v-340q46 -7 81 -18z" />
    <glyph glyph-name="uni1E2B" unicode="&#x1e2b;" horiz-adv-x="640" 
d="M620 9v-9h-229v9q38 12 79 18v331q0 61 -31 89.5t-81 28.5q-44 0 -92 -22t-83 -60v-367q46 -7 78 -18v-9h-228v9q41 14 81 18v643q-44 8 -70 17v6l139 15v-280q36 34 87.5 56.5t110.5 22.5q72 0 115 -38t43 -102v-340q46 -7 81 -18zM427 -50h46q-7 -60 -46 -90t-101 -30
t-101 30t-46 90h46q9 -89 101 -89q91 0 101 89z" />
    <glyph glyph-name="hcircumflex" unicode="&#x125;" horiz-adv-x="640" 
d="M283 834q-30 -28 -59 -49l-29 27q31 22 66 54t57 62h33q22 -30 57 -62t66 -54l-29 -27q-29 21 -59 49t-49 53h-5q-19 -25 -49 -53zM620 9v-9h-229v9q38 12 79 18v331q0 61 -31 89.5t-81 28.5q-44 0 -92 -22t-83 -60v-367q46 -7 78 -18v-9h-228v9q41 14 81 18v643
q-44 8 -70 17v6l139 15v-280q36 34 87.5 56.5t110.5 22.5q72 0 115 -38t43 -102v-340q46 -7 81 -18z" />
    <glyph glyph-name="uni1E25" unicode="&#x1e25;" horiz-adv-x="640" 
d="M620 9v-9h-229v9q38 12 79 18v331q0 61 -31 89.5t-81 28.5q-44 0 -92 -22t-83 -60v-367q46 -7 78 -18v-9h-228v9q41 14 81 18v643q-44 8 -70 17v6l139 15v-280q36 34 87.5 56.5t110.5 22.5q72 0 115 -38t43 -102v-340q46 -7 81 -18zM356 -72q11 -11 11 -30q0 -18 -11 -29
t-28 -11t-28 11t-11 29q0 19 11 30t28 11t28 -11z" />
    <glyph glyph-name="i" unicode="i" horiz-adv-x="286" 
d="M100.5 567q-13.5 13 -13.5 34q0 22 13.5 35t35.5 13t35.5 -13t13.5 -35q0 -21 -13.5 -34t-35.5 -13t-35.5 13zM27 9q25 8 81 18v439q-44 8 -70 17v6l139 15v-477q45 -6 81 -18v-9h-231v9z" />
    <glyph glyph-name="dotlessi" unicode="&#x131;" horiz-adv-x="306" 
d="M37 9q25 8 81 18v439q-44 8 -70 17v6l139 15v-477q45 -6 81 -18v-9h-231v9z" />
    <glyph glyph-name="iacute" unicode="&#xed;" horiz-adv-x="306" 
d="M59 603l112 100q19 19 39 19q12 0 18.5 -6.5t6.5 -16.5q0 -19 -27 -36l-136 -79zM37 9q25 8 81 18v439q-44 8 -70 17v6l139 15v-477q45 -6 81 -18v-9h-231v9z" />
    <glyph glyph-name="ibreve" unicode="&#x12d;" horiz-adv-x="306" 
d="M51 611q-39 30 -46 90h46q6 -52 34 -70t67 -18t67.5 18t33.5 70h46q-7 -60 -46 -90t-101 -30t-101 30zM37 9q25 8 81 18v439q-44 8 -70 17v6l139 15v-477q45 -6 81 -18v-9h-231v9z" />
    <glyph glyph-name="uni01D0" unicode="&#x1d0;" horiz-adv-x="306" 
d="M79.5 646.5q-34.5 32.5 -66.5 54.5l30 27q29 -22 58.5 -49.5t48.5 -52.5h5q21 26 50.5 53.5t57.5 48.5l29 -27q-32 -23 -66.5 -55t-56.5 -62h-33q-22 30 -56.5 62.5zM37 9q25 8 81 18v439q-44 8 -70 17v6l139 15v-477q45 -6 81 -18v-9h-231v9z" />
    <glyph glyph-name="icircumflex" unicode="&#xee;" horiz-adv-x="306" 
d="M13 604q31 22 66 54t57 62h33q22 -30 57 -62t66 -54l-29 -27q-29 21 -59 49t-49 53h-5q-19 -25 -49 -53t-59 -49zM37 9q25 8 81 18v439q-44 8 -70 17v6l139 15v-477q45 -6 81 -18v-9h-231v9z" />
    <glyph glyph-name="idieresis" unicode="&#xef;" horiz-adv-x="306" 
d="M18 594q-11 11 -11 29q0 19 11 30t28 11t28 -11t11 -30q0 -18 -11 -29t-28 -11t-28 11zM231 594q-11 11 -11 29q0 19 11 30t28 11t28 -11t11 -30q0 -18 -11 -29t-28 -11t-28 11zM37 9q25 8 81 18v439q-44 8 -70 17v6l139 15v-477q45 -6 81 -18v-9h-231v9z" />
    <glyph glyph-name="uni1ECB" unicode="&#x1ecb;" horiz-adv-x="286" 
d="M100.5 567q-13.5 13 -13.5 34q0 22 13.5 35t35.5 13t35.5 -13t13.5 -35q0 -21 -13.5 -34t-35.5 -13t-35.5 13zM27 9q25 8 81 18v439q-44 8 -70 17v6l139 15v-477q45 -6 81 -18v-9h-231v9zM114 -131q-11 11 -11 29q0 19 11 30t28 11t28 -11t11 -30q0 -18 -11 -29t-28 -11
t-28 11z" />
    <glyph glyph-name="igrave" unicode="&#xec;" horiz-adv-x="306" 
d="M64 663q-28 17 -28 36q0 9 7 16t19 7q21 0 38 -19l113 -100l-13 -19zM37 9q25 8 81 18v439q-44 8 -70 17v6l139 15v-477q45 -6 81 -18v-9h-231v9z" />
    <glyph glyph-name="uni1EC9" unicode="&#x1ec9;" horiz-adv-x="306" 
d="M120 666h20q32 0 48 14.5t16 37.5q0 20 -15 32.5t-43 12.5t-57 -16l-7 27q34 17 74 17q38 0 64.5 -19t26.5 -56q0 -32 -20.5 -50.5t-59.5 -22.5l-11 -62h-31zM37 9q25 8 81 18v439q-44 8 -70 17v6l139 15v-477q45 -6 81 -18v-9h-231v9z" />
    <glyph glyph-name="ij" unicode="&#x133;" horiz-adv-x="578" 
d="M100.5 567q-13.5 13 -13.5 34q0 22 13.5 35t35.5 13t35.5 -13t13.5 -35q0 -21 -13.5 -34t-35.5 -13t-35.5 13zM412 567q-13 13 -13 34q0 22 13 35t35 13t35.5 -13t13.5 -35q0 -21 -13.5 -34t-35.5 -13t-35 13zM27 9q25 8 81 18v439q-44 8 -70 17v6l139 15v-477
q45 -6 81 -18v-9h-231v9zM273 -103l6 29q28 -14 63 -14q78 0 78 87v467q-44 8 -70 17v6l139 15v-502q0 -63 -33.5 -93t-92.5 -30q-53 0 -90 18z" />
    <glyph glyph-name="imacron" unicode="&#x12b;" horiz-adv-x="306" 
d="M-5 615h314v-31h-314v31zM37 9q25 8 81 18v439q-44 8 -70 17v6l139 15v-477q45 -6 81 -18v-9h-231v9z" />
    <glyph glyph-name="iogonek" unicode="&#x12f;" horiz-adv-x="286" 
d="M100.5 567q-13.5 13 -13.5 34q0 22 13.5 35t35.5 13t35.5 -13t13.5 -35q0 -21 -13.5 -34t-35.5 -13t-35.5 13zM297 -133v-33q-34 -15 -74 -15q-44 0 -68 23t-24 54q0 33 21 61t58 43h-183v9q25 8 81 18v439q-44 8 -70 17v6l139 15v-477q45 -6 81 -18v-9h-6
q-29 -16 -47.5 -41t-18.5 -53q0 -25 17 -37.5t44 -12.5t50 11z" />
    <glyph glyph-name="itilde" unicode="&#x129;" horiz-adv-x="306" 
d="M22.5 655.5q23.5 23.5 59.5 23.5q19 0 37 -8t42 -23q21 -12 35 -18.5t27 -6.5q49 0 64 62h25q-7 -47 -29.5 -73.5t-61.5 -26.5q-16 0 -31 7t-44 23q-26 15 -39.5 21.5t-26.5 6.5q-23 0 -39.5 -16t-22.5 -43h-26q7 48 30.5 71.5zM37 9q25 8 81 18v439q-44 8 -70 17v6
l139 15v-477q45 -6 81 -18v-9h-231v9z" />
    <glyph glyph-name="j" unicode="j" horiz-adv-x="292" 
d="M126 567q-13 13 -13 34q0 22 13 35t35 13t35.5 -13t13.5 -35q0 -21 -13.5 -34t-35.5 -13t-35 13zM-13 -103l6 29q28 -14 63 -14q78 0 78 87v467q-44 8 -70 17v6l139 15v-502q0 -63 -33.5 -93t-92.5 -30q-53 0 -90 18z" />
    <glyph glyph-name="uni0237" unicode="&#x237;" horiz-adv-x="292" 
d="M-13 -103l6 29q28 -14 63 -14q77 0 77 87v467q-44 8 -70 17v6l140 15v-502q0 -63 -33.5 -93t-92.5 -30q-53 0 -90 18z" />
    <glyph glyph-name="jcircumflex" unicode="&#x135;" horiz-adv-x="292" 
d="M13 604q31 22 66 54t57 62h33q22 -30 57 -62t66 -54l-29 -27q-29 21 -59 49t-49 53h-5q-19 -25 -49 -53t-59 -49zM-13 -103l6 29q28 -14 63 -14q77 0 77 87v467q-44 8 -70 17v6l140 15v-502q0 -63 -33.5 -93t-92.5 -30q-53 0 -90 18z" />
    <glyph glyph-name="k" unicode="k" horiz-adv-x="606" 
d="M588 9v-9h-126l-209 248l-70 -72v-149q49 -7 81 -18v-9h-231v9q42 14 81 18v643q-44 8 -70 17v6l139 15v-485l223 232q6 6 8 11q-2 2 -35 12q-21 5 -35 11v9h199v-9q-10 -4 -42 -13q-33 -7 -42 -14l-167 -173l218 -262q42 -6 78 -18z" />
    <glyph glyph-name="kcommaaccent" unicode="&#x137;" horiz-adv-x="606" 
d="M588 9v-9h-126l-209 248l-70 -72v-149q49 -7 81 -18v-9h-231v9q42 14 81 18v643q-44 8 -70 17v6l139 15v-485l223 232q6 6 8 11q-2 2 -35 12q-21 5 -35 11v9h199v-9q-10 -4 -42 -13q-33 -7 -42 -14l-167 -173l218 -262q42 -6 78 -18zM363.5 -81.5q13.5 -16.5 13.5 -45.5
q0 -37 -17.5 -82t-45.5 -71l-26 21q18 22 29.5 51t13.5 59q-8 -2 -12 -2q-18 0 -30.5 12t-12.5 31q0 21 13.5 32t32.5 11q28 0 41.5 -16.5z" />
    <glyph glyph-name="kgreenlandic" unicode="&#x138;" horiz-adv-x="606" 
d="M588 9v-9h-126l-209 248l-70 -72v-149q49 -7 81 -18v-9h-231v9q42 14 81 18v443q-44 8 -70 17v6l139 15v-286l223 233q6 6 8 11q-2 2 -35 12q-21 5 -35 11v9h199v-9q-10 -4 -42 -13q-33 -7 -42 -14l-167 -173l218 -262q42 -6 78 -18z" />
    <glyph glyph-name="l" unicode="l" horiz-adv-x="298" 
d="M33 9q31 9 81 18v643q-44 8 -70 17v6l139 15v-681q49 -7 81 -18v-9h-231v9z" />
    <glyph glyph-name="lacute" unicode="&#x13a;" horiz-adv-x="298" 
d="M76 796l112 100q19 19 39 19q12 0 18.5 -6.5t6.5 -16.5q0 -19 -27 -36l-136 -79zM33 9q31 9 81 18v643q-44 8 -70 17v6l139 15v-681q49 -7 81 -18v-9h-231v9z" />
    <glyph glyph-name="lcaron" unicode="&#x13e;" horiz-adv-x="418" 
d="M289 512q18 22 30 51t14 59q-5 -2 -14 -2q-19 0 -30.5 12.5t-11.5 31.5q0 21 13 33.5t34 12.5q29 0 42.5 -18.5t13.5 -47.5q0 -37 -18.5 -82t-46.5 -71zM33 9q31 9 81 18v643q-44 8 -70 17v6l139 15v-681q49 -7 81 -18v-9h-231v9z" />
    <glyph glyph-name="lcommaaccent" unicode="&#x13c;" horiz-adv-x="298" 
d="M33 9q31 9 81 18v643q-44 8 -70 17v6l139 15v-681q49 -7 81 -18v-9h-231v9zM110 -259q18 22 29.5 51t13.5 59q-8 -2 -12 -2q-18 0 -30.5 12t-12.5 31q0 21 13.5 32t32.5 11q28 0 41.5 -16.5t13.5 -45.5q0 -37 -17.5 -82t-45.5 -71z" />
    <glyph glyph-name="ldot" unicode="&#x140;" horiz-adv-x="392" 
d="M33 9q31 9 81 18v643q-44 8 -70 17v6l139 15v-681q49 -7 81 -18v-9h-231v9zM269 313q-12 12 -12 32t12 32t32 12t31.5 -12t11.5 -32t-11.5 -32t-31.5 -12t-32 12z" />
    <glyph glyph-name="uni1E37" unicode="&#x1e37;" horiz-adv-x="298" 
d="M33 9q31 9 81 18v643q-44 8 -70 17v6l139 15v-681q49 -7 81 -18v-9h-231v9zM120 -123q-11 11 -11 30q0 18 11 29t28 11t28 -11t11 -29q0 -19 -11 -30t-28 -11t-28 11z" />
    <glyph glyph-name="uni1E39" unicode="&#x1e39;" horiz-adv-x="298" 
d="M-10 815h314v-30h-314v30zM33 9q31 9 81 18v643q-44 8 -70 17v6l139 15v-681q49 -7 81 -18v-9h-231v9zM120 -123q-11 11 -11 30q0 18 11 29t28 11t28 -11t11 -29q0 -19 -11 -30t-28 -11t-28 11z" />
    <glyph glyph-name="uni1E3B" unicode="&#x1e3b;" horiz-adv-x="298" 
d="M33 9q31 9 81 18v643q-44 8 -70 17v6l139 15v-681q49 -7 81 -18v-9h-231v9zM-9 -71h314v-31h-314v31z" />
    <glyph glyph-name="lslash" unicode="&#x142;" horiz-adv-x="301" 
d="M184 303v-276q49 -7 81 -18v-9h-231v9q31 9 81 18v249l-99 -39v40l99 39v354q-44 8 -70 17v6l139 15v-365l106 42v-41z" />
    <glyph glyph-name="m" unicode="m" horiz-adv-x="916" 
d="M896 9v-9h-228v9q36 12 78 18v331q0 61 -31 89.5t-81 28.5q-39 0 -75.5 -22t-63.5 -56q3 -15 3 -31v-340q46 -7 77 -18v-9h-222v9q36 12 78 18v331q0 62 -30 90t-80 28q-38 0 -74 -22.5t-64 -57.5v-369q46 -7 81 -18v-9h-231v9q37 12 81 18v440q-44 8 -70 17v6l139 15
v-74q27 30 68 53t90 23q54 0 92 -22t55 -62q28 35 71 59.5t98 24.5q71 0 114.5 -38t43.5 -102v-340q46 -7 81 -18z" />
    <glyph glyph-name="uni1E43" unicode="&#x1e43;" horiz-adv-x="916" 
d="M896 9v-9h-228v9q36 12 78 18v331q0 61 -31 89.5t-81 28.5q-39 0 -75.5 -22t-63.5 -56q3 -15 3 -31v-340q46 -7 77 -18v-9h-222v9q36 12 78 18v331q0 62 -30 90t-80 28q-38 0 -74 -22.5t-64 -57.5v-369q46 -7 81 -18v-9h-231v9q37 12 81 18v440q-44 8 -70 17v6l139 15
v-74q27 30 68 53t90 23q54 0 92 -22t55 -62q28 35 71 59.5t98 24.5q71 0 114.5 -38t43.5 -102v-340q46 -7 81 -18zM492 -72q11 -11 11 -30q0 -18 -11 -29t-28 -11t-28 11t-11 29q0 19 11 30t28 11t28 -11z" />
    <glyph glyph-name="n" unicode="n" horiz-adv-x="640" 
d="M620 9v-9h-228v9q33 12 78 18v331q0 61 -31 89.5t-81 28.5q-44 0 -92 -22t-83 -60v-367q46 -7 81 -18v-9h-231v9q37 12 81 18v440q-44 8 -70 17v6l139 15v-77q36 34 87.5 56.5t110.5 22.5q72 0 115 -38t43 -102v-340q50 -7 81 -18z" />
    <glyph glyph-name="nacute" unicode="&#x144;" horiz-adv-x="640" 
d="M234 584l-13 19l112 100q19 19 39 19q12 0 18.5 -6.5t6.5 -16.5q0 -19 -27 -36zM620 9v-9h-228v9q33 12 78 18v331q0 61 -31 89.5t-81 28.5q-44 0 -92 -22t-83 -60v-367q46 -7 81 -18v-9h-231v9q37 12 81 18v440q-44 8 -70 17v6l139 15v-77q36 34 87.5 56.5t110.5 22.5
q72 0 115 -38t43 -102v-340q50 -7 81 -18z" />
    <glyph glyph-name="napostrophe" unicode="&#x149;" horiz-adv-x="803" 
d="M120.5 596.5q13.5 -16.5 13.5 -45.5q0 -37 -17.5 -82t-45.5 -71l-26 21q18 22 29.5 51t13.5 59q-8 -2 -12 -2q-18 0 -30.5 12t-12.5 31q0 21 13.5 32t32.5 11q28 0 41.5 -16.5zM783 9v-9h-228v9q33 12 78 18v331q0 61 -31 89.5t-81 28.5q-44 0 -92 -22t-83 -60v-367
q46 -7 81 -18v-9h-231v9q37 12 81 18v440q-44 8 -70 17v6l139 15v-77q36 34 87.5 56.5t110.5 22.5q72 0 115 -38t43 -102v-340q50 -7 81 -18z" />
    <glyph glyph-name="ncaron" unicode="&#x148;" horiz-adv-x="640" 
d="M231.5 646.5q-34.5 32.5 -66.5 54.5l29 27q29 -21 59 -49t49 -53h5q19 25 49 53t59 49l29 -27q-32 -22 -66.5 -54.5t-56.5 -62.5h-33q-22 30 -56.5 62.5zM620 9v-9h-228v9q33 12 78 18v331q0 61 -31 89.5t-81 28.5q-44 0 -92 -22t-83 -60v-367q46 -7 81 -18v-9h-231v9
q37 12 81 18v440q-44 8 -70 17v6l139 15v-77q36 34 87.5 56.5t110.5 22.5q72 0 115 -38t43 -102v-340q50 -7 81 -18z" />
    <glyph glyph-name="ncommaaccent" unicode="&#x146;" horiz-adv-x="640" 
d="M620 9v-9h-228v9q33 12 78 18v331q0 61 -31 89.5t-81 28.5q-44 0 -92 -22t-83 -60v-367q46 -7 81 -18v-9h-231v9q37 12 81 18v440q-44 8 -70 17v6l139 15v-77q36 34 87.5 56.5t110.5 22.5q72 0 115 -38t43 -102v-340q50 -7 81 -18zM341.5 -81.5q13.5 -16.5 13.5 -45.5
q0 -37 -17.5 -82t-45.5 -71l-26 21q18 22 29.5 51t13.5 59q-8 -2 -12 -2q-18 0 -30.5 12t-12.5 31q0 21 13.5 32t32.5 11q28 0 41.5 -16.5z" />
    <glyph glyph-name="uni1E45" unicode="&#x1e45;" horiz-adv-x="640" 
d="M282.5 594q-10.5 11 -10.5 29q0 19 10.5 30t28.5 11q17 0 28 -11t11 -30q0 -18 -11 -29t-28 -11q-18 0 -28.5 11zM620 9v-9h-228v9q33 12 78 18v331q0 61 -31 89.5t-81 28.5q-44 0 -92 -22t-83 -60v-367q46 -7 81 -18v-9h-231v9q37 12 81 18v440q-44 8 -70 17v6l139 15
v-77q36 34 87.5 56.5t110.5 22.5q72 0 115 -38t43 -102v-340q50 -7 81 -18z" />
    <glyph glyph-name="uni1E47" unicode="&#x1e47;" horiz-adv-x="640" 
d="M620 9v-9h-228v9q33 12 78 18v331q0 61 -31 89.5t-81 28.5q-44 0 -92 -22t-83 -60v-367q46 -7 81 -18v-9h-231v9q37 12 81 18v440q-44 8 -70 17v6l139 15v-77q36 34 87.5 56.5t110.5 22.5q72 0 115 -38t43 -102v-340q50 -7 81 -18zM333 -72q11 -11 11 -30q0 -18 -11 -29
t-28 -11t-28 11t-11 29q0 19 11 30t28 11t28 -11z" />
    <glyph glyph-name="eng" unicode="&#x14b;" horiz-adv-x="628" 
d="M323 -182l7 29q28 -14 62 -14q78 0 78 87v438q0 61 -31 89.5t-81 28.5q-44 0 -92.5 -22t-82.5 -57v-370q46 -7 81 -18v-9h-231v9q37 12 81 18v440q-44 8 -70 17v6l139 15v-75q36 32 88 54.5t110 22.5q72 0 115 -38t43 -102v-444q0 -63 -33 -93t-92 -30q-52 0 -91 18z" />
    <glyph glyph-name="uni1E49" unicode="&#x1e49;" horiz-adv-x="640" 
d="M620 9v-9h-228v9q33 12 78 18v331q0 61 -31 89.5t-81 28.5q-44 0 -92 -22t-83 -60v-367q46 -7 81 -18v-9h-231v9q37 12 81 18v440q-44 8 -70 17v6l139 15v-77q36 34 87.5 56.5t110.5 22.5q72 0 115 -38t43 -102v-340q50 -7 81 -18zM142 -71h314v-31h-314v31z" />
    <glyph glyph-name="ntilde" unicode="&#xf1;" horiz-adv-x="640" 
d="M193.5 627q-16.5 -16 -22.5 -43h-26q7 48 30.5 71.5t59.5 23.5q19 0 37 -8t42 -23q21 -12 35 -18.5t27 -6.5q49 0 64 62h25q-7 -47 -29.5 -73.5t-61.5 -26.5q-16 0 -31 7t-44 23q-26 15 -39.5 21.5t-26.5 6.5q-23 0 -39.5 -16zM620 9v-9h-228v9q33 12 78 18v331
q0 61 -31 89.5t-81 28.5q-44 0 -92 -22t-83 -60v-367q46 -7 81 -18v-9h-231v9q37 12 81 18v440q-44 8 -70 17v6l139 15v-77q36 34 87.5 56.5t110.5 22.5q72 0 115 -38t43 -102v-340q50 -7 81 -18z" />
    <glyph glyph-name="o" unicode="o" horiz-adv-x="564" 
d="M95 58.5q-68 68.5 -68 189.5t68 190t187 69t186.5 -69t67.5 -190t-67.5 -189.5t-186.5 -68.5t-187 68.5zM417 81.5q50 60.5 50 166.5t-50 167t-135 61q-86 0 -136 -61t-50 -167q0 -107 50 -167t136 -60q85 0 135 60.5z" />
    <glyph glyph-name="oacute" unicode="&#xf3;" horiz-adv-x="564" 
d="M195 603l112 100q19 19 39 19q12 0 18.5 -6.5t6.5 -16.5q0 -19 -27 -36l-136 -79zM95 58.5q-68 68.5 -68 189.5t68 190t187 69t186.5 -69t67.5 -190t-67.5 -189.5t-186.5 -68.5t-187 68.5zM417 81.5q50 60.5 50 166.5t-50 167t-135 61q-86 0 -136 -61t-50 -167
q0 -107 50 -167t136 -60q85 0 135 60.5z" />
    <glyph glyph-name="obreve" unicode="&#x14f;" horiz-adv-x="564" 
d="M181 604q-39 30 -46 90h46q5 -52 33 -70t68 -18q39 0 67 18t34 70h46q-7 -60 -46 -90t-101 -30t-101 30zM95 58.5q-68 68.5 -68 189.5t68 190t187 69t186.5 -69t67.5 -190t-67.5 -189.5t-186.5 -68.5t-187 68.5zM417 81.5q50 60.5 50 166.5t-50 167t-135 61
q-86 0 -136 -61t-50 -167q0 -107 50 -167t136 -60q85 0 135 60.5z" />
    <glyph glyph-name="uni01D2" unicode="&#x1d2;" horiz-adv-x="564" 
d="M208.5 646.5q-34.5 32.5 -66.5 54.5l30 27q29 -22 58.5 -49.5t48.5 -52.5h5q21 26 50.5 53.5t57.5 48.5l29 -27q-32 -23 -66.5 -55t-56.5 -62h-33q-22 30 -56.5 62.5zM95 58.5q-68 68.5 -68 189.5t68 190t187 69t186.5 -69t67.5 -190t-67.5 -189.5t-186.5 -68.5
t-187 68.5zM417 81.5q50 60.5 50 166.5t-50 167t-135 61q-86 0 -136 -61t-50 -167q0 -107 50 -167t136 -60q85 0 135 60.5z" />
    <glyph glyph-name="ocircumflex" unicode="&#xf4;" horiz-adv-x="564" 
d="M142 604q31 22 66 54t57 62h33q22 -30 57 -62t66 -54l-29 -27q-29 21 -59 49t-49 53h-5q-19 -25 -49 -53t-59 -49zM95 58.5q-68 68.5 -68 189.5t68 190t187 69t186.5 -69t67.5 -190t-67.5 -189.5t-186.5 -68.5t-187 68.5zM417 81.5q50 60.5 50 166.5t-50 167t-135 61
q-86 0 -136 -61t-50 -167q0 -107 50 -167t136 -60q85 0 135 60.5z" />
    <glyph glyph-name="uni1ED1" unicode="&#x1ed1;" horiz-adv-x="564" 
d="M381 708l89 82q25 26 48 26q10 0 16 -5.5t6 -14.5q0 -10 -9 -22t-27 -21l-111 -62zM142 604q31 22 66 54t57 62h33q22 -29 56.5 -61t66.5 -55l-29 -27q-28 21 -57.5 48.5t-50.5 53.5h-5q-19 -25 -48.5 -52.5t-58.5 -49.5zM95 58.5q-68 68.5 -68 189.5t68 190t187 69
t186.5 -69t67.5 -190t-67.5 -189.5t-186.5 -68.5t-187 68.5zM417 81.5q50 60.5 50 166.5t-50 167t-135 61q-86 0 -136 -61t-50 -167q0 -107 50 -167t136 -60q85 0 135 60.5z" />
    <glyph glyph-name="uni1ED9" unicode="&#x1ed9;" horiz-adv-x="564" 
d="M142 604q31 22 66 54t57 62h33q22 -30 57 -62t66 -54l-29 -27q-29 21 -59 49t-49 53h-5q-19 -25 -49 -53t-59 -49zM95 58.5q-68 68.5 -68 189.5t68 190t187 69t186.5 -69t67.5 -190t-67.5 -189.5t-186.5 -68.5t-187 68.5zM417 81.5q50 60.5 50 166.5t-50 167t-135 61
q-86 0 -136 -61t-50 -167q0 -107 50 -167t136 -60q85 0 135 60.5zM253 -131q-11 11 -11 29q0 19 11 30t28 11t28 -11t11 -30q0 -18 -11 -29t-28 -11t-28 11z" />
    <glyph glyph-name="uni1ED3" unicode="&#x1ed3;" horiz-adv-x="564" 
d="M89 741q-56 32 -56 55q0 9 6 14.5t15 5.5q13 0 29 -11t37 -30l72 -67l-13 -17zM142 604q31 22 66 54t57 62h33q22 -29 56.5 -61t66.5 -55l-29 -27q-28 21 -57.5 48.5t-50.5 53.5h-5q-19 -25 -48.5 -52.5t-58.5 -49.5zM95 58.5q-68 68.5 -68 189.5t68 190t187 69
t186.5 -69t67.5 -190t-67.5 -189.5t-186.5 -68.5t-187 68.5zM417 81.5q50 60.5 50 166.5t-50 167t-135 61q-86 0 -136 -61t-50 -167q0 -107 50 -167t136 -60q85 0 135 60.5z" />
    <glyph glyph-name="uni1ED5" unicode="&#x1ed5;" horiz-adv-x="564" 
d="M377 748h17q27 0 41 11.5t14 30.5q0 16 -12.5 26t-36.5 10q-25 0 -48 -12l-5 23q30 14 62 14q33 0 55.5 -15.5t22.5 -46.5q0 -53 -69 -61l-9 -51h-28zM142 604q31 22 66 54t57 62h33q22 -29 56.5 -61t66.5 -55l-29 -27q-28 21 -57.5 48.5t-50.5 53.5h-5
q-19 -25 -48.5 -52.5t-58.5 -49.5zM95 58.5q-68 68.5 -68 189.5t68 190t187 69t186.5 -69t67.5 -190t-67.5 -189.5t-186.5 -68.5t-187 68.5zM417 81.5q50 60.5 50 166.5t-50 167t-135 61q-86 0 -136 -61t-50 -167q0 -107 50 -167t136 -60q85 0 135 60.5z" />
    <glyph glyph-name="uni1ED7" unicode="&#x1ed7;" horiz-adv-x="564" 
d="M162 823.5q21 23.5 54 23.5q17 0 32 -7.5t40 -23.5q18 -12 31 -18.5t24 -6.5q44 0 57 62h23q-6 -47 -26.5 -73.5t-55.5 -26.5q-15 0 -30.5 7.5t-36.5 22.5q-24 16 -36 22t-24 6q-21 0 -35.5 -16t-20.5 -43h-23q6 48 27 71.5zM142 604q31 22 66 54t57 62h33
q22 -29 56.5 -61t66.5 -55l-29 -27q-28 21 -57.5 48.5t-50.5 53.5h-5q-19 -25 -48.5 -52.5t-58.5 -49.5zM95 58.5q-68 68.5 -68 189.5t68 190t187 69t186.5 -69t67.5 -190t-67.5 -189.5t-186.5 -68.5t-187 68.5zM417 81.5q50 60.5 50 166.5t-50 167t-135 61q-86 0 -136 -61
t-50 -167q0 -107 50 -167t136 -60q85 0 135 60.5z" />
    <glyph glyph-name="odieresis" unicode="&#xf6;" horiz-adv-x="564" 
d="M147 594q-11 11 -11 29q0 19 11 30t28 11t28 -11t11 -30q0 -18 -11 -29t-28 -11t-28 11zM360 594q-11 11 -11 29q0 19 11 30t28 11t28 -11t11 -30q0 -18 -11 -29t-28 -11t-28 11zM95 58.5q-68 68.5 -68 189.5t68 190t187 69t186.5 -69t67.5 -190t-67.5 -189.5
t-186.5 -68.5t-187 68.5zM417 81.5q50 60.5 50 166.5t-50 167t-135 61q-86 0 -136 -61t-50 -167q0 -107 50 -167t136 -60q85 0 135 60.5z" />
    <glyph glyph-name="uni1ECD" unicode="&#x1ecd;" horiz-adv-x="564" 
d="M95 58.5q-68 68.5 -68 189.5t68 190t187 69t186.5 -69t67.5 -190t-67.5 -189.5t-186.5 -68.5t-187 68.5zM417 81.5q50 60.5 50 166.5t-50 167t-135 61q-86 0 -136 -61t-50 -167q0 -107 50 -167t136 -60q85 0 135 60.5zM253 -131q-11 11 -11 29q0 19 11 30t28 11t28 -11
t11 -30q0 -18 -11 -29t-28 -11t-28 11z" />
    <glyph glyph-name="ograve" unicode="&#xf2;" horiz-adv-x="564" 
d="M218 663q-28 17 -28 36q0 9 7 16t19 7q21 0 38 -19l113 -100l-13 -19zM95 58.5q-68 68.5 -68 189.5t68 190t187 69t186.5 -69t67.5 -190t-67.5 -189.5t-186.5 -68.5t-187 68.5zM417 81.5q50 60.5 50 166.5t-50 167t-135 61q-86 0 -136 -61t-50 -167q0 -107 50 -167
t136 -60q85 0 135 60.5z" />
    <glyph glyph-name="uni1ECF" unicode="&#x1ecf;" horiz-adv-x="564" 
d="M259 666h20q32 0 48 14.5t16 37.5q0 20 -15 32.5t-43 12.5t-57 -16l-7 27q34 17 74 17q38 0 64.5 -19t26.5 -56q0 -32 -20.5 -50.5t-59.5 -22.5l-11 -62h-31zM95 58.5q-68 68.5 -68 189.5t68 190t187 69t186.5 -69t67.5 -190t-67.5 -189.5t-186.5 -68.5t-187 68.5z
M417 81.5q50 60.5 50 166.5t-50 167t-135 61q-86 0 -136 -61t-50 -167q0 -107 50 -167t136 -60q85 0 135 60.5z" />
    <glyph glyph-name="ohorn" unicode="&#x1a1;" horiz-adv-x="602" 
d="M587.5 399.5q-20.5 -37.5 -61.5 -67.5q10 -37 10 -84q0 -121 -67.5 -189.5t-186.5 -68.5t-187 68.5t-68 189.5t68 190t187 69q86 0 147 -38t88 -107q46 46 50 91q-7 -5 -20 -5q-18 0 -29.5 11t-11.5 31q0 19 12 32t35 13q55 0 55 -65q0 -33 -20.5 -70.5zM417 81.5
q50 60.5 50 166.5t-50 167t-135 61q-86 0 -136 -61t-50 -167q0 -107 50 -167t136 -60q85 0 135 60.5z" />
    <glyph glyph-name="uni1EDB" unicode="&#x1edb;" horiz-adv-x="602" 
d="M209 584l-13 19l112 100q19 19 39 19q12 0 18.5 -6.5t6.5 -16.5q0 -19 -27 -36zM587.5 399.5q-20.5 -37.5 -61.5 -67.5q10 -37 10 -84q0 -121 -67.5 -189.5t-186.5 -68.5t-187 68.5t-68 189.5t68 190t187 69q86 0 147 -38t88 -107q46 46 50 91q-7 -5 -20 -5
q-18 0 -29.5 11t-11.5 31q0 19 12 32t35 13q55 0 55 -65q0 -33 -20.5 -70.5zM417 81.5q50 60.5 50 166.5t-50 167t-135 61q-86 0 -136 -61t-50 -167q0 -107 50 -167t136 -60q85 0 135 60.5z" />
    <glyph glyph-name="uni1EE3" unicode="&#x1ee3;" horiz-adv-x="602" 
d="M587.5 399.5q-20.5 -37.5 -61.5 -67.5q10 -37 10 -84q0 -121 -67.5 -189.5t-186.5 -68.5t-187 68.5t-68 189.5t68 190t187 69q86 0 147 -38t88 -107q46 46 50 91q-7 -5 -20 -5q-18 0 -29.5 11t-11.5 31q0 19 12 32t35 13q55 0 55 -65q0 -33 -20.5 -70.5zM417 81.5
q50 60.5 50 166.5t-50 167t-135 61q-86 0 -136 -61t-50 -167q0 -107 50 -167t136 -60q85 0 135 60.5zM309 -72q11 -11 11 -30q0 -18 -11 -29t-28 -11t-28 11t-11 29q0 19 11 30t28 11t28 -11z" />
    <glyph glyph-name="uni1EDD" unicode="&#x1edd;" horiz-adv-x="602" 
d="M191 699q0 9 7 16t19 7q21 0 38 -19l113 -100l-13 -19l-136 79q-28 17 -28 36zM587.5 399.5q-20.5 -37.5 -61.5 -67.5q10 -37 10 -84q0 -121 -67.5 -189.5t-186.5 -68.5t-187 68.5t-68 189.5t68 190t187 69q86 0 147 -38t88 -107q46 46 50 91q-7 -5 -20 -5
q-18 0 -29.5 11t-11.5 31q0 19 12 32t35 13q55 0 55 -65q0 -33 -20.5 -70.5zM417 81.5q50 60.5 50 166.5t-50 167t-135 61q-86 0 -136 -61t-50 -167q0 -107 50 -167t136 -60q85 0 135 60.5z" />
    <glyph glyph-name="uni1EDF" unicode="&#x1edf;" horiz-adv-x="602" 
d="M229 747l-7 27q34 17 74 17q38 0 64.5 -19t26.5 -56q0 -32 -20.5 -50.5t-59.5 -22.5l-11 -62h-31l-5 85h20q32 0 48 14.5t16 37.5q0 20 -15 32.5t-43 12.5t-57 -16zM587.5 399.5q-20.5 -37.5 -61.5 -67.5q10 -37 10 -84q0 -121 -67.5 -189.5t-186.5 -68.5t-187 68.5
t-68 189.5t68 190t187 69q86 0 147 -38t88 -107q46 46 50 91q-7 -5 -20 -5q-18 0 -29.5 11t-11.5 31q0 19 12 32t35 13q55 0 55 -65q0 -33 -20.5 -70.5zM417 81.5q50 60.5 50 166.5t-50 167t-135 61q-86 0 -136 -61t-50 -167q0 -107 50 -167t136 -60q85 0 135 60.5z" />
    <glyph glyph-name="uni1EE1" unicode="&#x1ee1;" horiz-adv-x="602" 
d="M170.5 627q-16.5 -16 -22.5 -43h-26q7 48 30.5 71.5t59.5 23.5q19 0 37 -8t42 -23q21 -12 35 -18.5t27 -6.5q49 0 64 62h25q-7 -47 -29.5 -73.5t-61.5 -26.5q-16 0 -31 7t-44 23q-26 15 -39.5 21.5t-26.5 6.5q-23 0 -39.5 -16zM587.5 399.5q-20.5 -37.5 -61.5 -67.5
q10 -37 10 -84q0 -121 -67.5 -189.5t-186.5 -68.5t-187 68.5t-68 189.5t68 190t187 69q86 0 147 -38t88 -107q46 46 50 91q-7 -5 -20 -5q-18 0 -29.5 11t-11.5 31q0 19 12 32t35 13q55 0 55 -65q0 -33 -20.5 -70.5zM417 81.5q50 60.5 50 166.5t-50 167t-135 61
q-86 0 -136 -61t-50 -167q0 -107 50 -167t136 -60q85 0 135 60.5z" />
    <glyph glyph-name="ohungarumlaut" unicode="&#x151;" horiz-adv-x="564" 
d="M143 602l112 100q20 20 39 20q12 0 19 -7t7 -16q0 -20 -28 -36l-136 -79zM334 602l112 100q6 7 16.5 13.5t21.5 6.5q12 0 19 -6.5t7 -16.5q0 -21 -27 -36l-136 -79zM95 58.5q-68 68.5 -68 189.5t68 190t187 69t186.5 -69t67.5 -190t-67.5 -189.5t-186.5 -68.5t-187 68.5z
M417 81.5q50 60.5 50 166.5t-50 167t-135 61q-86 0 -136 -61t-50 -167q0 -107 50 -167t136 -60q85 0 135 60.5z" />
    <glyph glyph-name="omacron" unicode="&#x14d;" horiz-adv-x="564" 
d="M124 615h314v-31h-314v31zM95 58.5q-68 68.5 -68 189.5t68 190t187 69t186.5 -69t67.5 -190t-67.5 -189.5t-186.5 -68.5t-187 68.5zM417 81.5q50 60.5 50 166.5t-50 167t-135 61q-86 0 -136 -61t-50 -167q0 -107 50 -167t136 -60q85 0 135 60.5z" />
    <glyph glyph-name="oslash" unicode="&#xf8;" horiz-adv-x="564" 
d="M513.5 370q22.5 -53 22.5 -122q0 -121 -67.5 -189.5t-186.5 -68.5q-78 0 -137 31l-38 -54l-28 20l37 53q-43 33 -66 86t-23 122q0 121 68 190t187 69q77 0 136 -31l33 48l30 -20l-33 -48q43 -33 65.5 -86zM145 82l247 358q-45 36 -110 36q-86 0 -136 -61t-50 -167
q0 -104 49 -166zM417 81.5q50 60.5 50 166.5q0 104 -49 166l-248 -357q47 -36 112 -36q85 0 135 60.5z" />
    <glyph glyph-name="oslashacute" unicode="&#x1ff;" horiz-adv-x="564" 
d="M207 584l-13 19l112 100q19 19 39 19q12 0 18.5 -6.5t6.5 -16.5q0 -19 -27 -36zM513.5 370q22.5 -53 22.5 -122q0 -121 -67.5 -189.5t-186.5 -68.5q-78 0 -137 31l-38 -54l-28 20l37 53q-43 33 -66 86t-23 122q0 121 68 190t187 69q77 0 136 -31l33 48l30 -20l-33 -48
q43 -33 65.5 -86zM145 82l247 358q-45 36 -110 36q-86 0 -136 -61t-50 -167q0 -104 49 -166zM417 81.5q50 60.5 50 166.5q0 104 -49 166l-248 -357q47 -36 112 -36q85 0 135 60.5z" />
    <glyph glyph-name="otilde" unicode="&#xf5;" horiz-adv-x="564" 
d="M151.5 655.5q23.5 23.5 59.5 23.5q19 0 37 -8t42 -23q21 -12 35 -18.5t27 -6.5q49 0 64 62h25q-7 -47 -29.5 -73.5t-61.5 -26.5q-16 0 -31 7t-44 23q-26 15 -39.5 21.5t-26.5 6.5q-23 0 -39.5 -16t-22.5 -43h-26q7 48 30.5 71.5zM95 58.5q-68 68.5 -68 189.5t68 190
t187 69t186.5 -69t67.5 -190t-67.5 -189.5t-186.5 -68.5t-187 68.5zM417 81.5q50 60.5 50 166.5t-50 167t-135 61q-86 0 -136 -61t-50 -167q0 -107 50 -167t136 -60q85 0 135 60.5z" />
    <glyph glyph-name="oe" unicode="&#x153;" horiz-adv-x="898" 
d="M94.5 58.5q-67.5 68.5 -67.5 189.5t67.5 190t183.5 69q59 0 106.5 -21.5t78.5 -61.5q32 41 80 62t110 21q106 0 159.5 -67t53.5 -168v-21h-389q1 -64 24 -116.5t69.5 -83.5t112.5 -31q40 0 81.5 13t71.5 34l7 -23q-28 -23 -74.5 -38.5t-103.5 -15.5q-62 0 -113 22t-84 63
q-66 -85 -190 -85q-116 0 -183.5 68.5zM374.5 45q41.5 24 65.5 68q-31 59 -31 135q0 84 29 139q-26 43 -66 66t-91 23q-86 0 -135 -61t-49 -167q0 -107 49 -167t135 -60q52 0 93.5 24zM803 282q-1 79 -36.5 136.5t-111.5 57.5q-82 0 -126 -54.5t-51 -139.5h325z" />
    <glyph glyph-name="p" unicode="p" horiz-adv-x="584" 
d="M6 -236q34 11 81 18v685q-41 7 -70 16v7l139 15v-76q70 78 179 78q104 0 163 -62t59 -184q0 -139 -60.5 -205t-169.5 -66q-55 0 -101 19.5t-70 60.5v-288q47 -7 80 -18v-10h-230v10zM447 85q40 64 40 171q0 110 -40 165t-131 55q-47 0 -88.5 -24.5t-71.5 -63.5v-220
q0 -39 19 -73t56 -54t87 -20q89 0 129 64z" />
    <glyph glyph-name="thorn" unicode="&#xfe;" horiz-adv-x="584" 
d="M6 -236q34 11 81 18v887q-41 7 -70 16v7l140 15v-278q70 78 178 78q104 0 163 -62t59 -184q0 -139 -60.5 -205t-169.5 -66q-55 0 -100.5 19.5t-69.5 60.5v-288q47 -7 80 -18v-10h-231v10zM447 85q40 64 40 171q0 110 -40 165t-131 55q-47 0 -88 -24.5t-71 -63.5v-220
q0 -39 19 -73t55.5 -54t86.5 -20q89 0 129 64z" />
    <glyph glyph-name="q" unicode="q" horiz-adv-x="585" 
d="M347 -237q37 13 81 19v289q-24 -42 -70 -61.5t-101 -19.5q-107 0 -168.5 64.5t-61.5 202.5q0 81 28 137.5t77.5 84.5t112.5 28q113 0 183 -77v75l140 -15v-6q-23 -8 -71 -17v-686q50 -7 81 -17v-10h-231v9zM353 41q37 20 56 54t19 73v223q-29 37 -70.5 61t-87.5 24
q-90 0 -131.5 -56t-41.5 -164q0 -107 40 -171t129 -64q50 0 87 20z" />
    <glyph glyph-name="r" unicode="r" horiz-adv-x="387" 
d="M20 9q31 11 81 18v440q-44 8 -70 17v6l131 15l7 -83h4q15 34 47.5 59.5t72.5 25.5q44 0 76 -20l-13 -39q-24 18 -55 18q-72 0 -131 -93v-346q47 -7 81 -18v-9h-231v9z" />
    <glyph glyph-name="racute" unicode="&#x155;" horiz-adv-x="387" 
d="M94 603l112 100q19 19 39 19q12 0 18.5 -6.5t6.5 -16.5q0 -19 -27 -36l-136 -79zM20 9q31 11 81 18v440q-44 8 -70 17v6l131 15l7 -83h4q15 34 47.5 59.5t72.5 25.5q44 0 76 -20l-13 -39q-24 18 -55 18q-72 0 -131 -93v-346q47 -7 81 -18v-9h-231v9z" />
    <glyph glyph-name="rcaron" unicode="&#x159;" horiz-adv-x="387" 
d="M120.5 646.5q-34.5 32.5 -66.5 54.5l29 27q29 -21 59 -49t49 -53h5q19 25 49 53t59 49l29 -27q-32 -22 -66.5 -54.5t-56.5 -62.5h-33q-22 30 -56.5 62.5zM20 9q31 11 81 18v440q-44 8 -70 17v6l131 15l7 -83h4q15 34 47.5 59.5t72.5 25.5q44 0 76 -20l-13 -39
q-24 18 -55 18q-72 0 -131 -93v-346q47 -7 81 -18v-9h-231v9z" />
    <glyph glyph-name="rcommaaccent" unicode="&#x157;" horiz-adv-x="387" 
d="M20 9q31 11 81 18v440q-44 8 -70 17v6l131 15l7 -83h4q15 34 47.5 59.5t72.5 25.5q44 0 76 -20l-13 -39q-24 18 -55 18q-72 0 -131 -93v-346q47 -7 81 -18v-9h-231v9zM98 -259q18 22 29.5 51t13.5 59q-8 -2 -12 -2q-18 0 -30.5 12t-12.5 31q0 21 13.5 32t32.5 11
q28 0 41.5 -16.5t13.5 -45.5q0 -37 -17.5 -82t-45.5 -71z" />
    <glyph glyph-name="uni1E5B" unicode="&#x1e5b;" horiz-adv-x="387" 
d="M20 9q31 11 81 18v440q-44 8 -70 17v6l131 15l7 -83h4q15 34 47.5 59.5t72.5 25.5q44 0 76 -20l-13 -39q-24 18 -55 18q-72 0 -131 -93v-346q47 -7 81 -18v-9h-231v9zM107 -131q-11 11 -11 29q0 19 11 30t28 11t28 -11t11 -30q0 -18 -11 -29t-28 -11t-28 11z" />
    <glyph glyph-name="uni1E5D" unicode="&#x1e5d;" horiz-adv-x="387" 
d="M30 615h314v-31h-314v31zM20 9q31 11 81 18v440q-44 8 -70 17v6l131 15l7 -83h4q15 34 47.5 59.5t72.5 25.5q44 0 76 -20l-13 -39q-24 18 -55 18q-72 0 -131 -93v-346q47 -7 81 -18v-9h-231v9zM107 -131q-11 11 -11 29q0 19 11 30t28 11t28 -11t11 -30q0 -18 -11 -29
t-28 -11t-28 11z" />
    <glyph glyph-name="uni1E5F" unicode="&#x1e5f;" horiz-adv-x="387" 
d="M20 9q31 11 81 18v440q-44 8 -70 17v6l131 15l7 -83h4q15 34 47.5 59.5t72.5 25.5q44 0 76 -20l-13 -39q-24 18 -55 18q-72 0 -131 -93v-346q47 -7 81 -18v-9h-231v9zM7 -71h314v-31h-314v31z" />
    <glyph glyph-name="s" unicode="s" horiz-adv-x="448" 
d="M42 48l7 126h17q5 -13 9.5 -51t5.5 -64q44 -38 123 -38q66 0 101.5 28.5t35.5 76.5q0 28 -18 47t-44 32t-72 30q-54 20 -87 37t-56.5 46t-23.5 72q0 59 50.5 88t127.5 29q107 0 166 -50l-9 -101h-18q-6 14 -9.5 40.5t-3.5 49.5q-24 16 -50 23t-62 7q-57 0 -90 -19
t-33 -60q0 -29 18 -49.5t44.5 -33.5t74.5 -32q55 -21 86.5 -38t54.5 -45t23 -69q0 -67 -51 -103.5t-131 -36.5q-121 0 -186 58z" />
    <glyph glyph-name="sacute" unicode="&#x15b;" horiz-adv-x="448" 
d="M135 603l112 100q19 19 39 19q12 0 18.5 -6.5t6.5 -16.5q0 -19 -27 -36l-136 -79zM42 48l7 126h17q5 -13 9.5 -51t5.5 -64q44 -38 123 -38q66 0 101.5 28.5t35.5 76.5q0 28 -18 47t-44 32t-72 30q-54 20 -87 37t-56.5 46t-23.5 72q0 59 50.5 88t127.5 29q107 0 166 -50
l-9 -101h-18q-6 14 -9.5 40.5t-3.5 49.5q-24 16 -50 23t-62 7q-57 0 -90 -19t-33 -60q0 -29 18 -49.5t44.5 -33.5t74.5 -32q55 -21 86.5 -38t54.5 -45t23 -69q0 -67 -51 -103.5t-131 -36.5q-121 0 -186 58z" />
    <glyph glyph-name="scaron" unicode="&#x161;" horiz-adv-x="448" 
d="M150.5 646.5q-34.5 32.5 -66.5 54.5l29 27q29 -21 59 -49t49 -53h5q19 25 49 53t59 49l29 -27q-32 -22 -66.5 -54.5t-56.5 -62.5h-33q-22 30 -56.5 62.5zM42 48l7 126h17q5 -13 9.5 -51t5.5 -64q44 -38 123 -38q66 0 101.5 28.5t35.5 76.5q0 28 -18 47t-44 32t-72 30
q-54 20 -87 37t-56.5 46t-23.5 72q0 59 50.5 88t127.5 29q107 0 166 -50l-9 -101h-18q-6 14 -9.5 40.5t-3.5 49.5q-24 16 -50 23t-62 7q-57 0 -90 -19t-33 -60q0 -29 18 -49.5t44.5 -33.5t74.5 -32q55 -21 86.5 -38t54.5 -45t23 -69q0 -67 -51 -103.5t-131 -36.5
q-121 0 -186 58z" />
    <glyph glyph-name="scedilla" unicode="&#x15f;" horiz-adv-x="448" 
d="M363 29.5q-47 -36.5 -122 -39.5l-26 -56h9q43 0 68 -15.5t25 -45.5q0 -40 -31 -60.5t-81 -20.5q-40 0 -74 14l14 25q27 -9 58 -9q33 0 52.5 12.5t19.5 38.5q0 18 -16.5 26.5t-39.5 8.5q-11 0 -25 -2l-21 26l29 59q-102 6 -160 57l7 126h17q5 -13 9.5 -51t5.5 -64
q44 -38 123 -38q66 0 101.5 28.5t35.5 76.5q0 28 -18 47t-44 32t-72 30q-54 20 -87 37t-56.5 46t-23.5 72q0 59 50.5 88t127.5 29q107 0 166 -50l-9 -101h-18q-6 14 -9.5 40.5t-3.5 49.5q-24 16 -50 23t-62 7q-57 0 -90 -19t-33 -60q0 -29 18 -49.5t44.5 -33.5t74.5 -32
q55 -21 86.5 -38t54.5 -45t23 -69q0 -64 -47 -100.5z" />
    <glyph glyph-name="scircumflex" unicode="&#x15d;" horiz-adv-x="448" 
d="M84 604q31 22 66 54t57 62h33q22 -30 57 -62t66 -54l-29 -27q-29 21 -59 49t-49 53h-5q-19 -25 -49 -53t-59 -49zM42 48l7 126h17q5 -13 9.5 -51t5.5 -64q44 -38 123 -38q66 0 101.5 28.5t35.5 76.5q0 28 -18 47t-44 32t-72 30q-54 20 -87 37t-56.5 46t-23.5 72
q0 59 50.5 88t127.5 29q107 0 166 -50l-9 -101h-18q-6 14 -9.5 40.5t-3.5 49.5q-24 16 -50 23t-62 7q-57 0 -90 -19t-33 -60q0 -29 18 -49.5t44.5 -33.5t74.5 -32q55 -21 86.5 -38t54.5 -45t23 -69q0 -67 -51 -103.5t-131 -36.5q-121 0 -186 58z" />
    <glyph glyph-name="scommaaccent" unicode="&#x219;" horiz-adv-x="448" 
d="M42 48l7 126h17q5 -13 9.5 -51t5.5 -64q44 -38 123 -38q66 0 101.5 28.5t35.5 76.5q0 28 -18 47t-44 32t-72 30q-54 20 -87 37t-56.5 46t-23.5 72q0 59 50.5 88t127.5 29q107 0 166 -50l-9 -101h-18q-6 14 -9.5 40.5t-3.5 49.5q-24 16 -50 23t-62 7q-57 0 -90 -19
t-33 -60q0 -29 18 -49.5t44.5 -33.5t74.5 -32q55 -21 86.5 -38t54.5 -45t23 -69q0 -67 -51 -103.5t-131 -36.5q-121 0 -186 58zM183 -253q19 23 31 51.5t14 58.5q-5 -3 -14 -3q-18 0 -30.5 12.5t-12.5 31.5q0 21 14 34t34 13q28 0 43 -18.5t15 -46.5q0 -37 -19 -82.5
t-47 -71.5z" />
    <glyph glyph-name="uni1E61" unicode="&#x1e61;" horiz-adv-x="433" 
d="M184.5 594q-10.5 11 -10.5 29q0 19 10.5 30t28.5 11q17 0 28 -11t11 -30q0 -18 -11 -29t-28 -11q-18 0 -28.5 11zM34 48l7 126h17q5 -13 9.5 -51t5.5 -64q44 -38 123 -38q66 0 101.5 28.5t35.5 76.5q0 28 -18 47t-44 32t-72 30q-54 20 -87 37t-56.5 46t-23.5 72
q0 59 50.5 88t127.5 29q107 0 166 -50l-9 -101h-18q-6 14 -9.5 40.5t-3.5 49.5q-24 16 -50 23t-62 7q-57 0 -90 -19t-33 -60q0 -29 18 -49.5t44.5 -33.5t74.5 -32q55 -21 86.5 -38t54.5 -45t23 -69q0 -67 -51 -103.5t-131 -36.5q-121 0 -186 58z" />
    <glyph glyph-name="uni1E63" unicode="&#x1e63;" horiz-adv-x="433" 
d="M34 48l7 126h17q5 -13 9.5 -51t5.5 -64q44 -38 123 -38q66 0 101.5 28.5t35.5 76.5q0 28 -18 47t-44 32t-72 30q-54 20 -87 37t-56.5 46t-23.5 72q0 59 50.5 88t127.5 29q107 0 166 -50l-9 -101h-18q-6 14 -9.5 40.5t-3.5 49.5q-24 16 -50 23t-62 7q-57 0 -90 -19
t-33 -60q0 -29 18 -49.5t44.5 -33.5t74.5 -32q55 -21 86.5 -38t54.5 -45t23 -69q0 -67 -51 -103.5t-131 -36.5q-121 0 -186 58zM185 -131q-11 11 -11 29q0 19 11 30t28 11t28 -11t11 -30q0 -18 -11 -29t-28 -11t-28 11z" />
    <glyph glyph-name="germandbls" unicode="&#xdf;" horiz-adv-x="677" 
d="M391.5 347.5q16.5 -20.5 41 -33.5t68.5 -32q50 -21 80 -38t51 -45t21 -69q0 -68 -47 -104t-126 -36q-58 0 -97.5 15t-71.5 43l8 126h17q6 -14 10 -52.5t4 -62.5q23 -19 49 -28.5t62 -9.5q61 0 91 27.5t30 73.5q0 29 -16.5 49.5t-40.5 33.5t-67 31q-48 20 -78 37t-51 46
t-21 71q0 53 44.5 81t108.5 31q0 76 -30 141t-123 65q-50 0 -84 -32t-34 -93v-556q46 -7 81 -18v-9h-232v9q48 15 81 18v440h-95v31h95v64q0 84 51.5 130.5t138.5 46.5q137 0 176.5 -80t39.5 -170v-13q-69 0 -110 -19t-41 -60q0 -29 16.5 -49.5z" />
    <glyph glyph-name="uni0259" unicode="&#x259;" horiz-adv-x="518" 
d="M364 474.5q58 -32.5 90 -91t32 -134.5q0 -123 -65 -191t-179 -68q-71 0 -119.5 32t-71.5 85t-23 118v21h388q0 101 -52.5 166t-151.5 65q-40 0 -82 -13t-72 -34l-7 23q28 23 75 38.5t104 15.5q76 0 134 -32.5zM364.5 75.5q43.5 54.5 50.5 139.5h-324q0 -76 36 -135
t113 -59q81 0 124.5 54.5z" />
    <glyph glyph-name="t" unicode="t" horiz-adv-x="372" 
d="M344 4q-42 -14 -91 -14q-68 0 -105 36.5t-37 110.5v330h-90v31h90v66q30 16 37 69h32v-135h152v-31h-152v-330q0 -62 23.5 -88.5t69.5 -26.5q27 0 65 12z" />
    <glyph glyph-name="tbar" unicode="&#x167;" horiz-adv-x="372" 
d="M344 4q-42 -14 -91 -14q-68 0 -105 36.5t-37 110.5v133h-75v30h75v167h-90v31h90v66q30 16 37 69h32v-135h152v-31h-152v-167h133v-30h-133v-133q0 -62 23.5 -88.5t69.5 -26.5q27 0 65 12z" />
    <glyph glyph-name="tcaron" unicode="&#x165;" horiz-adv-x="515" 
d="M469.5 639.5q13.5 -18.5 13.5 -47.5q0 -37 -18.5 -82t-46.5 -71l-26 21q18 22 30 51.5t14 58.5q-5 -2 -14 -2q-18 0 -30 12.5t-12 31.5q0 21 13 33.5t34 12.5q29 0 42.5 -18.5zM338 34l6 -30q-42 -14 -91 -14q-68 0 -105 36.5t-37 110.5v330h-90v31h90v66q30 16 37 69h32
v-135h152v-31h-152v-330q0 -62 23.5 -88.5t69.5 -26.5q27 0 65 12z" />
    <glyph glyph-name="uni0163" unicode="&#x163;" horiz-adv-x="372" 
d="M313.5 -83q21.5 -16 21.5 -44q0 -40 -31 -60.5t-81 -20.5q-39 0 -75 14l14 25q27 -9 59 -9q33 0 52.5 12.5t19.5 38.5q0 18 -17 26.5t-40 8.5q-10 0 -24 -2l-21 26l30 60q-53 8 -81.5 44t-28.5 101v330h-90v31h90v66q30 16 37 69h32v-135h152v-31h-152v-330
q0 -62 23.5 -88.5t69.5 -26.5q27 0 65 12l6 -30q-38 -12 -85 -14l-27 -56q8 1 24 1q36 -2 57.5 -18z" />
    <glyph glyph-name="uni021B" unicode="&#x21b;" horiz-adv-x="372" 
d="M253 -10q-68 0 -105 36.5t-37 110.5v330h-90v31h90v66q30 16 37 69h32v-135h152v-31h-152v-330q0 -62 23.5 -88.5t69.5 -26.5q27 0 65 12l6 -30q-42 -14 -91 -14zM256.5 -81.5q13.5 -16.5 13.5 -45.5q0 -37 -17.5 -82t-45.5 -71l-26 21q18 22 29.5 51t13.5 59
q-8 -2 -12 -2q-18 0 -30.5 12t-12.5 31q0 21 13.5 32t32.5 11q28 0 41.5 -16.5z" />
    <glyph glyph-name="uni1E97" unicode="&#x1e97;" horiz-adv-x="372" 
d="M27 700q-11 11 -11 29q0 19 11 30t28 11t28 -11t11 -30q0 -18 -11 -29t-28 -11t-28 11zM240 700q-11 11 -11 29q0 19 11 30t28 11t28 -11t11 -30q0 -18 -11 -29t-28 -11t-28 11zM344 4q-42 -14 -91 -14q-68 0 -105 36.5t-37 110.5v330h-90v31h90v66q30 16 37 69h32v-135
h152v-31h-152v-330q0 -62 23.5 -88.5t69.5 -26.5q27 0 65 12z" />
    <glyph glyph-name="uni1E6D" unicode="&#x1e6d;" horiz-adv-x="372" 
d="M253 -10q-68 0 -105 36.5t-37 110.5v330h-90v31h90v66q30 16 37 69h32v-135h152v-31h-152v-330q0 -62 23.5 -88.5t69.5 -26.5q27 0 65 12l6 -30q-42 -14 -91 -14zM263 -72q11 -11 11 -30q0 -18 -11 -29t-28 -11t-28 11t-11 29q0 19 11 30t28 11t28 -11z" />
    <glyph glyph-name="uni1E6F" unicode="&#x1e6f;" horiz-adv-x="372" 
d="M111 467h-90v31h90v66q30 16 37 69h32v-135h152v-31h-152v-330q0 -62 23.5 -88.5t69.5 -26.5q27 0 65 12l6 -30q-42 -14 -91 -14q-68 0 -105 36.5t-37 110.5v330zM351 -71v-31h-314v31h314z" />
    <glyph glyph-name="u" unicode="u" horiz-adv-x="615" 
d="M590 13v-7l-139 -14v69q-37 -30 -88 -50.5t-106 -20.5q-74 0 -118 37.5t-44 101.5v338q-44 8 -70 17v6l139 15v-366q0 -62 30.5 -90t81.5 -28q42 0 91.5 20.5t83.5 52.5v373q-42 7 -69 17v6l138 15v-476q41 -7 70 -16z" />
    <glyph glyph-name="uacute" unicode="&#xfa;" horiz-adv-x="615" 
d="M236 584l-13 19l112 100q19 19 39 19q12 0 18.5 -6.5t6.5 -16.5q0 -19 -27 -36zM590 13v-7l-139 -14v69q-37 -30 -88 -50.5t-106 -20.5q-74 0 -118 37.5t-44 101.5v338q-44 8 -70 17v6l139 15v-366q0 -62 30.5 -90t81.5 -28q42 0 91.5 20.5t83.5 52.5v373q-42 7 -69 17v6
l138 15v-476q41 -7 70 -16z" />
    <glyph glyph-name="ubreve" unicode="&#x16d;" horiz-adv-x="615" 
d="M206 604q-39 30 -46 90h46q5 -52 33.5 -70t67.5 -18t67 18t34 70h46q-7 -60 -46 -90t-101 -30t-101 30zM590 13v-7l-139 -14v69q-37 -30 -88 -50.5t-106 -20.5q-74 0 -118 37.5t-44 101.5v338q-44 8 -70 17v6l139 15v-366q0 -62 30.5 -90t81.5 -28q42 0 91.5 20.5
t83.5 52.5v373q-42 7 -69 17v6l138 15v-476q41 -7 70 -16z" />
    <glyph glyph-name="uni01D4" unicode="&#x1d4;" horiz-adv-x="615" 
d="M233.5 646.5q-34.5 32.5 -66.5 54.5l30 27q29 -22 58.5 -49.5t48.5 -52.5h5q21 26 50.5 53.5t57.5 48.5l29 -27q-32 -23 -66.5 -55t-56.5 -62h-33q-22 30 -56.5 62.5zM590 13v-7l-139 -14v69q-37 -30 -88 -50.5t-106 -20.5q-74 0 -118 37.5t-44 101.5v338q-44 8 -70 17v6
l139 15v-366q0 -62 30.5 -90t81.5 -28q42 0 91.5 20.5t83.5 52.5v373q-42 7 -69 17v6l138 15v-476q41 -7 70 -16z" />
    <glyph glyph-name="ucircumflex" unicode="&#xfb;" horiz-adv-x="615" 
d="M248 626q-30 -28 -59 -49l-29 27q31 22 66 54t57 62h33q22 -30 57 -62t66 -54l-29 -27q-29 21 -59 49t-49 53h-5q-19 -25 -49 -53zM590 13v-7l-139 -14v69q-37 -30 -88 -50.5t-106 -20.5q-74 0 -118 37.5t-44 101.5v338q-44 8 -70 17v6l139 15v-366q0 -62 30.5 -90
t81.5 -28q42 0 91.5 20.5t83.5 52.5v373q-42 7 -69 17v6l138 15v-476q41 -7 70 -16z" />
    <glyph glyph-name="udieresis" unicode="&#xfc;" horiz-adv-x="615" 
d="M165 594q-11 11 -11 29q0 19 11 30t28 11t28 -11t11 -30q0 -18 -11 -29t-28 -11t-28 11zM378 594q-11 11 -11 29q0 19 11 30t28 11t28 -11t11 -30q0 -18 -11 -29t-28 -11t-28 11zM590 13v-7l-139 -14v69q-37 -30 -88 -50.5t-106 -20.5q-74 0 -118 37.5t-44 101.5v338
q-44 8 -70 17v6l139 15v-366q0 -62 30.5 -90t81.5 -28q42 0 91.5 20.5t83.5 52.5v373q-42 7 -69 17v6l138 15v-476q41 -7 70 -16z" />
    <glyph glyph-name="uni01D8" unicode="&#x1d8;" horiz-adv-x="615" 
d="M286 683l-13 19l94 87q19 19 38 19q12 0 19 -7t7 -16q0 -21 -27 -36zM172 595q-11 11 -11 29t11 29.5t28 11.5t28 -11.5t11 -29.5t-11 -29t-28 -11t-28 11zM385 653.5q11 11.5 28 11.5q18 0 29 -11.5t11 -29.5t-11 -29t-29 -11q-17 0 -28 11t-11 29t11 29.5zM590 13v-7
l-139 -14v69q-37 -30 -88 -50.5t-106 -20.5q-74 0 -118 37.5t-44 101.5v338q-44 8 -70 17v6l139 15v-366q0 -62 30.5 -90t81.5 -28q42 0 91.5 20.5t83.5 52.5v373q-42 7 -69 17v6l138 15v-476q41 -7 70 -16z" />
    <glyph glyph-name="uni01DA" unicode="&#x1da;" horiz-adv-x="615" 
d="M236.5 740.5q-34.5 32.5 -66.5 54.5l30 27q29 -22 58.5 -49.5t48.5 -52.5h5q21 26 50.5 53.5t57.5 48.5l29 -27q-32 -23 -66.5 -55t-56.5 -62h-33q-22 30 -56.5 62.5zM175 595q-11 11 -11 29t11 29.5t28 11.5t28 -11.5t11 -29.5t-11 -29t-28 -11t-28 11zM445 653.5
q11 -11.5 11 -29.5t-11 -29t-29 -11q-17 0 -28 11t-11 29t11 29.5t28 11.5q18 0 29 -11.5zM590 13v-7l-139 -14v69q-37 -30 -88 -50.5t-106 -20.5q-74 0 -118 37.5t-44 101.5v338q-44 8 -70 17v6l139 15v-366q0 -62 30.5 -90t81.5 -28q42 0 91.5 20.5t83.5 52.5v373
q-42 7 -69 17v6l138 15v-476q41 -7 70 -16z" />
    <glyph glyph-name="uni01DC" unicode="&#x1dc;" horiz-adv-x="615" 
d="M191 785q0 9 7 16t19 7q19 0 38 -19l94 -87l-13 -19l-118 66q-27 15 -27 36zM169 595q-11 11 -11 29t11 29.5t28 11.5t28 -11.5t11 -29.5t-11 -29t-28 -11t-28 11zM382 595q-11 11 -11 29t11 29.5t28 11.5q18 0 29 -11.5t11 -29.5t-11 -29t-29 -11q-17 0 -28 11zM590 13
v-7l-139 -14v69q-37 -30 -88 -50.5t-106 -20.5q-74 0 -118 37.5t-44 101.5v338q-44 8 -70 17v6l139 15v-366q0 -62 30.5 -90t81.5 -28q42 0 91.5 20.5t83.5 52.5v373q-42 7 -69 17v6l138 15v-476q41 -7 70 -16z" />
    <glyph glyph-name="uni01D6" unicode="&#x1d6;" horiz-adv-x="615" 
d="M455 724h-299v31h299v-31zM170 653.5q11 11.5 28 11.5q18 0 29 -11.5t11 -29.5t-11 -29t-29 -11q-17 0 -28 11t-11 29t11 29.5zM383.5 653.5q10.5 11.5 28.5 11.5q17 0 28 -11.5t11 -29.5t-11 -29t-28 -11q-18 0 -28.5 11t-10.5 29t10.5 29.5zM590 13v-7l-140 -14v69
q-37 -30 -87.5 -50.5t-105.5 -20.5q-74 0 -118 37.5t-44 101.5v338q-44 8 -70 17v6l139 15v-366q0 -62 30.5 -90t81.5 -28q42 0 91 20.5t83 52.5v373q-42 7 -69 17v6l139 15v-476q41 -7 70 -16z" />
    <glyph glyph-name="uni1EE5" unicode="&#x1ee5;" horiz-adv-x="615" 
d="M590 13v-7l-139 -14v69q-37 -30 -88 -50.5t-106 -20.5q-74 0 -118 37.5t-44 101.5v338q-44 8 -70 17v6l139 15v-366q0 -62 30.5 -90t81.5 -28q42 0 91.5 20.5t83.5 52.5v373q-42 7 -69 17v6l138 15v-476q41 -7 70 -16zM335 -72q11 -11 11 -30q0 -18 -11 -29t-28 -11
t-28 11t-11 29q0 19 11 30t28 11t28 -11z" />
    <glyph glyph-name="ugrave" unicode="&#xf9;" horiz-adv-x="615" 
d="M211 699q0 9 7 16t19 7q21 0 38 -19l113 -100l-13 -19l-136 79q-28 17 -28 36zM590 13v-7l-139 -14v69q-37 -30 -88 -50.5t-106 -20.5q-74 0 -118 37.5t-44 101.5v338q-44 8 -70 17v6l139 15v-366q0 -62 30.5 -90t81.5 -28q42 0 91.5 20.5t83.5 52.5v373q-42 7 -69 17v6
l138 15v-476q41 -7 70 -16z" />
    <glyph glyph-name="uni1EE7" unicode="&#x1ee7;" horiz-adv-x="615" 
d="M239 747l-7 27q34 17 74 17q38 0 64.5 -19t26.5 -56q0 -32 -20.5 -50.5t-59.5 -22.5l-11 -62h-31l-5 85h20q32 0 48 14.5t16 37.5q0 20 -15 32.5t-43 12.5t-57 -16zM590 13v-7l-139 -14v69q-37 -30 -88 -50.5t-106 -20.5q-74 0 -118 37.5t-44 101.5v338q-44 8 -70 17v6
l139 15v-366q0 -62 30.5 -90t81.5 -28q42 0 91.5 20.5t83.5 52.5v373q-42 7 -69 17v6l138 15v-476q41 -7 70 -16z" />
    <glyph glyph-name="uhorn" unicode="&#x1b0;" horiz-adv-x="633" 
d="M139 27.5q-44 37.5 -44 101.5v338q-44 8 -70 17v6l139 15v-366q0 -62 30.5 -90t81.5 -28q43 0 91.5 21t82.5 53v372q-42 7 -69 17v7h105q54 0 82 14.5t34 43.5q-7 -5 -20 -5q-18 0 -30 11.5t-12 31.5q0 19 12.5 32.5t35.5 13.5q56 0 56 -63q0 -39 -35.5 -68.5
t-88.5 -38.5v-434q41 -7 70 -16v-7l-140 -14v71q-35 -31 -86 -52t-107 -21q-74 0 -118 37.5z" />
    <glyph glyph-name="uni1EE9" unicode="&#x1ee9;" horiz-adv-x="633" 
d="M233 603l112 100q19 19 39 19q12 0 18.5 -6.5t6.5 -16.5q0 -19 -27 -36l-136 -79zM139 27.5q-44 37.5 -44 101.5v338q-44 8 -70 17v6l139 15v-366q0 -62 30.5 -90t81.5 -28q43 0 91.5 21t82.5 53v372q-42 7 -69 17v7h105q54 0 82 14.5t34 43.5q-7 -5 -20 -5
q-18 0 -30 11.5t-12 31.5q0 19 12.5 32.5t35.5 13.5q56 0 56 -63q0 -39 -35.5 -68.5t-88.5 -38.5v-434q41 -7 70 -16v-7l-140 -14v71q-35 -31 -86 -52t-107 -21q-74 0 -118 37.5z" />
    <glyph glyph-name="uni1EF1" unicode="&#x1ef1;" horiz-adv-x="633" 
d="M139 27.5q-44 37.5 -44 101.5v338q-44 8 -70 17v6l139 15v-366q0 -62 30.5 -90t81.5 -28q43 0 91.5 21t82.5 53v372q-42 7 -69 17v7h105q54 0 82 14.5t34 43.5q-7 -5 -20 -5q-18 0 -30 11.5t-12 31.5q0 19 12.5 32.5t35.5 13.5q56 0 56 -63q0 -39 -35.5 -68.5
t-88.5 -38.5v-434q41 -7 70 -16v-7l-140 -14v71q-35 -31 -86 -52t-107 -21q-74 0 -118 37.5zM284 -131q-11 11 -11 29q0 19 11 30t28 11t28 -11t11 -30q0 -18 -11 -29t-28 -11t-28 11z" />
    <glyph glyph-name="uni1EEB" unicode="&#x1eeb;" horiz-adv-x="633" 
d="M242 663q-28 17 -28 36q0 9 7 16t19 7q21 0 38 -19l113 -100l-13 -19zM139 27.5q-44 37.5 -44 101.5v338q-44 8 -70 17v6l139 15v-366q0 -62 30.5 -90t81.5 -28q43 0 91.5 21t82.5 53v372q-42 7 -69 17v7h105q54 0 82 14.5t34 43.5q-7 -5 -20 -5q-18 0 -30 11.5t-12 31.5
q0 19 12.5 32.5t35.5 13.5q56 0 56 -63q0 -39 -35.5 -68.5t-88.5 -38.5v-434q41 -7 70 -16v-7l-140 -14v71q-35 -31 -86 -52t-107 -21q-74 0 -118 37.5z" />
    <glyph glyph-name="uni1EED" unicode="&#x1eed;" horiz-adv-x="633" 
d="M279 666h20q32 0 48 14.5t16 37.5q0 20 -15 32.5t-43 12.5t-57 -16l-7 27q34 17 74 17q38 0 64.5 -19t26.5 -56q0 -32 -20.5 -50.5t-59.5 -22.5l-11 -62h-31zM139 27.5q-44 37.5 -44 101.5v338q-44 8 -70 17v6l139 15v-366q0 -62 30.5 -90t81.5 -28q43 0 91.5 21t82.5 53
v372q-42 7 -69 17v7h105q54 0 82 14.5t34 43.5q-7 -5 -20 -5q-18 0 -30 11.5t-12 31.5q0 19 12.5 32.5t35.5 13.5q56 0 56 -63q0 -39 -35.5 -68.5t-88.5 -38.5v-434q41 -7 70 -16v-7l-140 -14v71q-35 -31 -86 -52t-107 -21q-74 0 -118 37.5z" />
    <glyph glyph-name="uni1EEF" unicode="&#x1eef;" horiz-adv-x="633" 
d="M178.5 655.5q23.5 23.5 59.5 23.5q19 0 37 -8t42 -23q21 -12 35 -18.5t27 -6.5q49 0 64 62h25q-7 -47 -29.5 -73.5t-61.5 -26.5q-16 0 -31 7t-44 23q-26 15 -39.5 21.5t-26.5 6.5q-23 0 -39.5 -16t-22.5 -43h-26q7 48 30.5 71.5zM139 27.5q-44 37.5 -44 101.5v338
q-44 8 -70 17v6l139 15v-366q0 -62 30.5 -90t81.5 -28q43 0 91.5 21t82.5 53v372q-42 7 -69 17v7h105q54 0 82 14.5t34 43.5q-7 -5 -20 -5q-18 0 -30 11.5t-12 31.5q0 19 12.5 32.5t35.5 13.5q56 0 56 -63q0 -39 -35.5 -68.5t-88.5 -38.5v-434q41 -7 70 -16v-7l-140 -14v71
q-35 -31 -86 -52t-107 -21q-74 0 -118 37.5z" />
    <glyph glyph-name="uhungarumlaut" unicode="&#x171;" horiz-adv-x="615" 
d="M144 584l-13 18l112 100q20 20 39 20q12 0 19 -7t7 -16q0 -20 -28 -36zM335 584l-13 18l112 100q6 7 16.5 13.5t21.5 6.5q12 0 19 -6.5t7 -16.5q0 -21 -27 -36zM590 13v-7l-139 -14v69q-37 -30 -88 -50.5t-106 -20.5q-74 0 -118 37.5t-44 101.5v338q-44 8 -70 17v6
l139 15v-366q0 -62 30.5 -90t81.5 -28q42 0 91.5 20.5t83.5 52.5v373q-42 7 -69 17v6l138 15v-476q41 -7 70 -16z" />
    <glyph glyph-name="umacron" unicode="&#x16b;" horiz-adv-x="615" 
d="M464 584h-314v31h314v-31zM590 13v-7l-139 -14v69q-37 -30 -88 -50.5t-106 -20.5q-74 0 -118 37.5t-44 101.5v338q-44 8 -70 17v6l139 15v-366q0 -62 30.5 -90t81.5 -28q42 0 91.5 20.5t83.5 52.5v373q-42 7 -69 17v6l138 15v-476q41 -7 70 -16z" />
    <glyph glyph-name="uogonek" unicode="&#x173;" horiz-adv-x="615" 
d="M622 -127v-33q-34 -15 -74 -15q-44 0 -68 23t-24 54q0 29 17 54.5t47 42.5l-69 -7v69q-37 -30 -88 -50.5t-106 -20.5q-74 0 -118 37.5t-44 101.5v338q-44 8 -70 17v6l139 15v-366q0 -62 30.5 -90t81.5 -28q42 0 91.5 20.5t83.5 52.5v373q-42 7 -69 17v6l138 15v-476
q41 -7 70 -16v-7l-16 -2q-27 -16 -45 -40.5t-18 -51.5q0 -25 17 -37.5t44 -12.5t50 11z" />
    <glyph glyph-name="uring" unicode="&#x16f;" horiz-adv-x="615" 
d="M244 590q-25 23 -25 60t25 60.5t63 23.5t62.5 -23.5t24.5 -60.5t-24.5 -60t-62.5 -23t-63 23zM266 690.5q-16 -15.5 -16 -40.5t16 -40t41 -15t40.5 15t15.5 40t-15.5 40.5t-40.5 15.5t-41 -15.5zM590 13v-7l-139 -14v69q-37 -30 -88 -50.5t-106 -20.5q-74 0 -118 37.5
t-44 101.5v338q-44 8 -70 17v6l139 15v-366q0 -62 30.5 -90t81.5 -28q42 0 91.5 20.5t83.5 52.5v373q-42 7 -69 17v6l138 15v-476q41 -7 70 -16z" />
    <glyph glyph-name="utilde" unicode="&#x169;" horiz-adv-x="615" 
d="M195.5 627q-16.5 -16 -22.5 -43h-26q7 48 30.5 71.5t59.5 23.5q19 0 37 -8t42 -23q21 -12 35 -18.5t27 -6.5q49 0 64 62h25q-7 -47 -29.5 -73.5t-61.5 -26.5q-16 0 -31 7t-44 23q-26 15 -39.5 21.5t-26.5 6.5q-23 0 -39.5 -16zM590 13v-7l-139 -14v69q-37 -30 -88 -50.5
t-106 -20.5q-74 0 -118 37.5t-44 101.5v338q-44 8 -70 17v6l139 15v-366q0 -62 30.5 -90t81.5 -28q42 0 91.5 20.5t83.5 52.5v373q-42 7 -69 17v6l138 15v-476q41 -7 70 -16z" />
    <glyph glyph-name="v" unicode="v" horiz-adv-x="549" 
d="M76 473q-45 7 -67 16v9h212v-12q-31 -11 -77 -15l139 -410l146 411q-49 6 -76 16v10h187v-9q-23 -9 -67 -16l-173 -473h-56z" />
    <glyph glyph-name="w" unicode="w" horiz-adv-x="775" 
d="M77 473q-48 8 -68 16v9h213v-12q-35 -11 -76 -15l101 -393l128 370h45l130 -382l104 405q-46 7 -76 18v9h188v-9q-25 -9 -68 -16l-128 -473h-51l-131 382l-133 -382h-50z" />
    <glyph glyph-name="wacute" unicode="&#x1e83;" horiz-adv-x="775" 
d="M320 603l112 100q19 19 39 19q12 0 18.5 -6.5t6.5 -16.5q0 -19 -27 -36l-136 -79zM77 473q-48 8 -68 16v9h213v-12q-35 -11 -76 -15l101 -393l128 370h45l130 -382l104 405q-46 7 -76 18v9h188v-9q-25 -9 -68 -16l-128 -473h-51l-131 382l-133 -382h-50z" />
    <glyph glyph-name="wcircumflex" unicode="&#x175;" horiz-adv-x="775" 
d="M259 604q31 22 66 54t57 62h33q22 -30 57 -62t66 -54l-29 -27q-29 21 -59 49t-49 53h-5q-19 -25 -49 -53t-59 -49zM77 473q-48 8 -68 16v9h213v-12q-35 -11 -76 -15l101 -393l128 370h45l130 -382l104 405q-46 7 -76 18v9h188v-9q-25 -9 -68 -16l-128 -473h-51l-131 382
l-133 -382h-50z" />
    <glyph glyph-name="wdieresis" unicode="&#x1e85;" horiz-adv-x="775" 
d="M264 594q-11 11 -11 29q0 19 11 30t28 11t28 -11t11 -30q0 -18 -11 -29t-28 -11t-28 11zM477 594q-11 11 -11 29q0 19 11 30t28 11t28 -11t11 -30q0 -18 -11 -29t-28 -11t-28 11zM77 473q-48 8 -68 16v9h213v-12q-35 -11 -76 -15l101 -393l128 370h45l130 -382l104 405
q-46 7 -76 18v9h188v-9q-25 -9 -68 -16l-128 -473h-51l-131 382l-133 -382h-50z" />
    <glyph glyph-name="wgrave" unicode="&#x1e81;" horiz-adv-x="775" 
d="M325 663q-28 17 -28 36q0 9 7 16t19 7q21 0 38 -19l113 -100l-13 -19zM77 473q-48 8 -68 16v9h213v-12q-35 -11 -76 -15l101 -393l128 370h45l130 -382l104 405q-46 7 -76 18v9h188v-9q-25 -9 -68 -16l-128 -473h-51l-131 382l-133 -382h-50z" />
    <glyph glyph-name="x" unicode="x" horiz-adv-x="555" 
d="M553 9v-9h-213v9q37 12 73 17l-143 195l-154 -195q45 -7 76 -17v-9h-190v8q30 11 70 16l177 225l-165 224q-50 8 -69 16v9h211v-10q-32 -11 -71 -17l130 -177l139 178q-51 9 -73 17v9h190v-9q-24 -10 -72 -16l-164 -207l178 -242q46 -7 70 -15z" />
    <glyph glyph-name="y" unicode="y" horiz-adv-x="549" 
d="M542 498v-9q-24 -9 -69 -16l-189 -516q-20 -56 -36.5 -85.5t-44 -46t-73.5 -16.5q-44 0 -85 14l11 37q36 -11 74 -11q32 0 51 11t33.5 36t32.5 76l11 31l-184 471q-4 1 -27 4.5t-40 10.5v9h212v-10q-22 -8 -78 -16l144 -394l143 395q-45 5 -71 15v10h185z" />
    <glyph glyph-name="yacute" unicode="&#xfd;" horiz-adv-x="549" 
d="M207 584l-13 19l112 100q19 19 39 19q12 0 18.5 -6.5t6.5 -16.5q0 -19 -27 -36zM542 498v-9q-24 -9 -69 -16l-189 -516q-20 -56 -36.5 -85.5t-44 -46t-73.5 -16.5q-44 0 -85 14l11 37q36 -11 74 -11q32 0 51 11t33.5 36t32.5 76l11 31l-184 471q-4 1 -27 4.5t-40 10.5v9
h212v-10q-22 -8 -78 -16l144 -394l143 395q-45 5 -71 15v10h185z" />
    <glyph glyph-name="ycircumflex" unicode="&#x177;" horiz-adv-x="549" 
d="M233 626q-30 -28 -59 -49l-29 27q31 22 66 54t57 62h33q22 -30 57 -62t66 -54l-29 -27q-29 21 -59 49t-49 53h-5q-19 -25 -49 -53zM542 498v-9q-24 -9 -69 -16l-189 -516q-20 -56 -36.5 -85.5t-44 -46t-73.5 -16.5q-44 0 -85 14l11 37q36 -11 74 -11q32 0 51 11t33.5 36
t32.5 76l11 31l-184 471q-4 1 -27 4.5t-40 10.5v9h212v-10q-22 -8 -78 -16l144 -394l143 395q-45 5 -71 15v10h185z" />
    <glyph glyph-name="ydieresis" unicode="&#xff;" horiz-adv-x="549" 
d="M145 594q-11 11 -11 29q0 19 11 30t28 11t28 -11t11 -30q0 -18 -11 -29t-28 -11t-28 11zM358 594q-11 11 -11 29q0 19 11 30t28 11t28 -11t11 -30q0 -18 -11 -29t-28 -11t-28 11zM542 498v-9q-24 -9 -69 -16l-189 -516q-20 -56 -36.5 -85.5t-44 -46t-73.5 -16.5
q-44 0 -85 14l11 37q36 -11 74 -11q32 0 51 11t33.5 36t32.5 76l11 31l-184 471q-4 1 -27 4.5t-40 10.5v9h212v-10q-22 -8 -78 -16l144 -394l143 395q-45 5 -71 15v10h185z" />
    <glyph glyph-name="uni1E8F" unicode="&#x1e8f;" horiz-adv-x="549" 
d="M249.5 594q-10.5 11 -10.5 29q0 19 10.5 30t28.5 11q17 0 28 -11t11 -30q0 -18 -11 -29t-28 -11q-18 0 -28.5 11zM542 498v-9q-24 -9 -69 -16l-189 -516q-20 -56 -36.5 -85.5t-44 -46t-73.5 -16.5q-44 0 -85 14l11 37q36 -11 74 -11q32 0 51 11t33.5 36t32.5 76l11 31
l-184 471q-4 1 -27 4.5t-40 10.5v9h212v-10q-22 -8 -78 -16l144 -394l143 395q-45 5 -71 15v10h185z" />
    <glyph glyph-name="uni1EF5" unicode="&#x1ef5;" horiz-adv-x="549" 
d="M542 498v-9q-24 -9 -69 -16l-189 -516q-20 -56 -36.5 -85.5t-44 -46t-73.5 -16.5q-44 0 -85 14l11 37q36 -11 74 -11q32 0 51 11t33.5 36t32.5 76l11 31l-184 471q-4 1 -27 4.5t-40 10.5v9h212v-10q-22 -8 -78 -16l144 -394l143 395q-45 5 -71 15v10h185zM408 -72
q11 -11 11 -30q0 -18 -11 -29t-28 -11t-28 11t-11 29q0 19 11 30t28 11t28 -11z" />
    <glyph glyph-name="ygrave" unicode="&#x1ef3;" horiz-adv-x="549" 
d="M182 699q0 9 7 16t19 7q21 0 38 -19l113 -100l-13 -19l-136 79q-28 17 -28 36zM542 498v-9q-24 -9 -69 -16l-189 -516q-20 -56 -36.5 -85.5t-44 -46t-73.5 -16.5q-44 0 -85 14l11 37q36 -11 74 -11q32 0 51 11t33.5 36t32.5 76l11 31l-184 471q-4 1 -27 4.5t-40 10.5v9
h212v-10q-22 -8 -78 -16l144 -394l143 395q-45 5 -71 15v10h185z" />
    <glyph glyph-name="uni1EF7" unicode="&#x1ef7;" horiz-adv-x="549" 
d="M227 747l-7 27q34 17 74 17q38 0 64.5 -19t26.5 -56q0 -32 -20.5 -50.5t-59.5 -22.5l-11 -62h-31l-5 85h20q32 0 48 14.5t16 37.5q0 20 -15 32.5t-43 12.5t-57 -16zM542 498v-9q-24 -9 -69 -16l-189 -516q-20 -56 -36.5 -85.5t-44 -46t-73.5 -16.5q-44 0 -85 14l11 37
q36 -11 74 -11q32 0 51 11t33.5 36t32.5 76l11 31l-184 471q-4 1 -27 4.5t-40 10.5v9h212v-10q-22 -8 -78 -16l144 -394l143 395q-45 5 -71 15v10h185z" />
    <glyph glyph-name="uni1EF9" unicode="&#x1ef9;" horiz-adv-x="549" 
d="M167.5 627q-16.5 -16 -22.5 -43h-26q7 48 30.5 71.5t59.5 23.5q19 0 37 -8t42 -23q21 -12 35 -18.5t27 -6.5q49 0 64 62h25q-7 -47 -29.5 -73.5t-61.5 -26.5q-16 0 -31 7t-44 23q-26 15 -39.5 21.5t-26.5 6.5q-23 0 -39.5 -16zM542 498v-9q-24 -9 -69 -16l-189 -516
q-20 -56 -36.5 -85.5t-44 -46t-73.5 -16.5q-44 0 -85 14l11 37q36 -11 74 -11q32 0 51 11t33.5 36t32.5 76l11 31l-184 471q-4 1 -27 4.5t-40 10.5v9h212v-10q-22 -8 -78 -16l144 -394l143 395q-45 5 -71 15v10h185z" />
    <glyph glyph-name="z" unicode="z" horiz-adv-x="457" 
d="M23 20l339 447h-264q-6 -64 -18 -91h-20v122h374v-27l-337 -441h277q3 18 12 47.5t16 43.5h21l-10 -121h-390v20z" />
    <glyph glyph-name="zacute" unicode="&#x17a;" horiz-adv-x="457" 
d="M175 603l112 100q19 19 39 19q12 0 18.5 -6.5t6.5 -16.5q0 -19 -27 -36l-136 -79zM23 20l339 447h-264q-6 -64 -18 -91h-20v122h374v-27l-337 -441h277q3 18 12 47.5t16 43.5h21l-10 -121h-390v20z" />
    <glyph glyph-name="zcaron" unicode="&#x17e;" horiz-adv-x="457" 
d="M159.5 646.5q-34.5 32.5 -66.5 54.5l29 27q29 -21 59 -49t49 -53h5q19 25 49 53t59 49l29 -27q-32 -22 -66.5 -54.5t-56.5 -62.5h-33q-22 30 -56.5 62.5zM23 20l339 447h-264q-6 -64 -18 -91h-20v122h374v-27l-337 -441h277q3 18 12 47.5t16 43.5h21l-10 -121h-390v20z
" />
    <glyph glyph-name="zdotaccent" unicode="&#x17c;" horiz-adv-x="457" 
d="M206.5 594q-10.5 11 -10.5 29q0 19 10.5 30t28.5 11q17 0 28 -11t11 -30q0 -18 -11 -29t-28 -11q-18 0 -28.5 11zM23 20l339 447h-264q-6 -64 -18 -91h-20v122h374v-27l-337 -441h277q3 18 12 47.5t16 43.5h21l-10 -121h-390v20z" />
    <glyph glyph-name="uni1E93" unicode="&#x1e93;" horiz-adv-x="457" 
d="M23 20l339 447h-264q-6 -64 -18 -91h-20v122h374v-27l-337 -441h277q3 18 12 47.5t16 43.5h21l-10 -121h-390v20zM201 -131q-11 11 -11 29q0 19 11 30t28 11t28 -11t11 -30q0 -18 -11 -29t-28 -11t-28 11z" />
    <glyph glyph-name="ordfeminine" unicode="&#xaa;" horiz-adv-x="355" 
d="M50.5 414q-26.5 26 -26.5 65q0 43 29 69t82 26h108v39q0 39 -22.5 55t-66.5 16q-51 0 -99 -22l-4 24q49 24 114 24q127 0 127 -98v-189q11 -2 50 -11v-6l-99 -13v52q-23 -29 -53 -43t-62 -14q-51 0 -77.5 26zM196 430q26 15 47 46v74h-97q-39 0 -56 -19t-17 -50
q0 -29 17 -47.5t54 -18.5q26 0 52 15z" />
    <glyph glyph-name="ordmasculine" unicode="&#xba;" horiz-adv-x="348" 
d="M58 431q-42 43 -42 118t42 118t116 43t116 -43t42 -118t-42 -118t-116 -43t-116 43zM249.5 454q27.5 35 27.5 95t-27.5 95t-75.5 35q-47 0 -75 -35t-28 -95t28 -95t75 -35q48 0 75.5 35z" />
    <glyph glyph-name="uni207F" unicode="&#x207f;" horiz-adv-x="385" 
d="M379 404v-7h-155v7l20.5 6t31.5 6v201q0 35 -17.5 51.5t-46.5 16.5q-25 0 -53 -12.5t-49 -33.5v-222q27 -4 53 -13v-7h-157v7q3 1 17 5t37 7v264q-32 5 -49 13v6l99 11v-41q23 18 53.5 29.5t63.5 11.5q45 0 72 -24t27 -64v-205q32 -5 53 -13z" />
    <glyph glyph-name="uni0394" unicode="&#x394;" horiz-adv-x="615" 
d="M29 37l255 670h50l251 -670v-37h-556v37zM514 56l-205 546l-209 -546h414z" />
    <glyph glyph-name="uni03A9" unicode="&#x3a9;" horiz-adv-x="737" 
d="M60 127h14q7 -13 16.5 -41t12.5 -47h152v91q-53 7 -97 44t-70 95.5t-26 127.5q0 80 35 143.5t104 100t167 36.5t167.5 -36.5t104.5 -100t35 -143.5q0 -69 -26 -127.5t-70.5 -95.5t-97.5 -44v-91h152q3 18 12.5 46.5t17.5 41.5h14l-11 -127h-228v156q51 7 89 41.5t58 86.5
t20 109q0 71 -29.5 126.5t-83.5 86.5t-124 31t-123.5 -31t-83 -86.5t-29.5 -126.5q0 -57 20 -109t57.5 -86.5t88.5 -41.5v-156h-227z" />
    <glyph glyph-name="uni03BC" unicode="&#x3bc;" horiz-adv-x="615" 
d="M95 467q-44 8 -70 17v6l139 15v-366q0 -62 30.5 -90t81.5 -28q42 0 91 20.5t83 52.5v373q-42 7 -69 17v6l139 15v-476q41 -7 70 -16v-7l-140 -14v69q-36 -30 -86.5 -50.5t-106.5 -20.5q-29 0 -54 10t-42 30v-216h-66v653z" />
    <glyph glyph-name="pi" unicode="&#x3c0;" horiz-adv-x="645" 
d="M457.5 17.5q-23.5 27.5 -23.5 74.5v375h-229v-467h-69v467h-122v31h611v-31h-122v-372q0 -69 60 -69q28 0 47 13v-30q-18 -10 -36.5 -14.5t-44.5 -4.5q-48 0 -71.5 27.5z" />
    <glyph glyph-name="uni0E01" unicode="&#xe01;" horiz-adv-x="560" 
d="M66 215q0 99 88 146q-44 35 -107 56v12q29 59 89.5 97t140.5 38q95 0 156.5 -46.5t61.5 -135.5v-382h-70v396q0 57 -39.5 96t-114.5 39q-53 0 -96.5 -24.5t-70.5 -71.5q29 -10 61.5 -30t52.5 -41v-7q-46 -27 -64 -57.5t-18 -85.5v-214h-70v215z" />
    <glyph glyph-name="uni0E16" unicode="&#xe16;" horiz-adv-x="560" 
d="M66 94v121q0 99 88 146q-44 35 -107 56v12q29 59 89.5 97t140.5 38q95 0 156.5 -46.5t61.5 -135.5v-382h-70v396q0 57 -39.5 96t-114.5 39q-53 0 -96.5 -24.5t-70.5 -71.5q29 -10 61.5 -30t52.5 -41v-7q-46 -27 -64 -57.5t-18 -85.5v-65q17 10 39 10q30 0 53.5 -21.5
t23.5 -63.5q0 -39 -25 -61.5t-65 -22.5q-96 0 -96 104zM200 33q14 16 14 43t-14 42t-35 15t-34.5 -15t-13.5 -42t14 -43t34 -16q21 0 35 16z" />
    <glyph glyph-name="uni0E20" unicode="&#xe20;" horiz-adv-x="599" 
d="M34.5 12.5q-24.5 22.5 -24.5 61.5q0 42 24 63.5t59 21.5q24 0 37 -8v64q0 51 14.5 86.5t60.5 59.5q-36 30 -114 56v12q29 60 88 97.5t140 37.5q94 0 154.5 -46.5t60.5 -135.5v-382h-70v396q0 58 -38.5 96.5t-112.5 38.5q-53 0 -95.5 -24t-69.5 -72q31 -10 66.5 -30.5
t54.5 -40.5v-7q-42 -26 -55.5 -55.5t-13.5 -87.5v-120q0 -104 -100 -104q-41 0 -65.5 22.5zM132 33q14 16 14 43t-13.5 42t-34.5 15t-35 -15t-14 -42t14 -43t35 -16q20 0 34 16z" />
    <glyph glyph-name="uni0E24" unicode="&#xe24;" horiz-adv-x="560" 
d="M425 396q0 57 -39.5 96t-114.5 39q-53 0 -96.5 -24.5t-70.5 -71.5q29 -10 61.5 -30t52.5 -41v-7q-46 -27 -64 -57.5t-18 -85.5v-68q15 12 42 12q32 0 54.5 -22t22.5 -62q0 -39 -24.5 -61.5t-65.5 -22.5q-99 0 -99 104v121q0 99 88 146q-44 35 -107 56v12q29 59 89.5 97
t140.5 38q95 0 156.5 -46.5t61.5 -135.5v-552h-70v566zM202 33q14 16 14 43t-14 42t-35 15t-34.5 -15t-13.5 -42t14 -43t34 -16q21 0 35 16z" />
    <glyph glyph-name="uni0E24.short" horiz-adv-x="560" 
d="M425 396q0 57 -39.5 96t-114.5 39q-53 0 -96.5 -24.5t-70.5 -71.5q29 -10 61.5 -30t52.5 -41v-7q-46 -27 -64 -57.5t-18 -85.5v-68q15 12 42 12q32 0 54.5 -22t22.5 -62q0 -39 -24.5 -61.5t-65.5 -22.5q-99 0 -99 104v121q0 99 88 146q-44 35 -107 56v12q29 59 89.5 97
t140.5 38q95 0 156.5 -46.5t61.5 -135.5v-552h-70v566zM202 33q14 16 14 43t-14 42t-35 15t-34.5 -15t-13.5 -42t14 -43t34 -16q21 0 35 16z" />
    <glyph glyph-name="uni0E26" unicode="&#xe26;" horiz-adv-x="599" 
d="M464 396q0 58 -38.5 96.5t-112.5 38.5q-53 0 -95.5 -24t-69.5 -72q31 -10 66.5 -30.5t54.5 -40.5v-7q-42 -26 -55.5 -55.5t-13.5 -87.5v-120q0 -104 -100 -104q-41 0 -65.5 22.5t-24.5 61.5q0 42 24 63.5t59 21.5q23 0 37 -9v65q0 51 14.5 86.5t60.5 59.5q-36 30 -114 56
v12q29 60 88 97.5t140 37.5q94 0 154.5 -46.5t60.5 -135.5v-552h-70v566zM132 33q14 16 14 43t-13.5 42t-34.5 15t-35 -15t-14 -42t14 -43t35 -16q20 0 34 16z" />
    <glyph glyph-name="uni0E26.short" horiz-adv-x="599" 
d="M464 396q0 58 -38.5 96.5t-112.5 38.5q-53 0 -95.5 -24t-69.5 -72q31 -10 66.5 -30.5t54.5 -40.5v-7q-42 -26 -55.5 -55.5t-13.5 -87.5v-120q0 -104 -100 -104q-41 0 -65.5 22.5t-24.5 61.5q0 42 24 63.5t59 21.5q23 0 37 -9v65q0 51 14.5 86.5t60.5 59.5q-36 30 -114 56
v12q29 60 88 97.5t140 37.5q94 0 154.5 -46.5t60.5 -135.5v-552h-70v566zM132 33q14 16 14 43t-13.5 42t-34.5 15t-35 -15t-14 -42t14 -43t35 -16q20 0 34 16z" />
    <glyph glyph-name="uni0E0E" unicode="&#xe0e;" horiz-adv-x="599" 
d="M473.5 517.5q60.5 -46.5 60.5 -135.5v-626h-65q-21 62 -93 103q-22 -56 -68 -88t-101 -32q-58 0 -93 23.5t-35 67.5q0 45 38.5 72t105.5 27q60 0 127 -26q4 20 4 46h38q0 -36 -7 -61q53 -28 79 -63v571q0 58 -38.5 96.5t-112.5 38.5q-53 0 -95.5 -24t-69.5 -72
q31 -10 66.5 -30.5t54.5 -40.5v-7q-42 -26 -55.5 -55.5t-13.5 -87.5v-120q0 -104 -100 -104q-41 0 -65.5 22.5t-24.5 61.5q0 42 24 63.5t59 21.5q22 0 37 -8v64q0 51 14.5 86.5t60.5 59.5q-36 30 -114 56v12q29 60 88 97.5t140 37.5q94 0 154.5 -46.5zM132 33q14 16 14 43
t-13.5 42t-34.5 15t-35 -15t-14 -42t14 -43t35 -16q20 0 34 16zM285.5 -204q38.5 28 56.5 79q-58 24 -116 24q-45 0 -75 -17t-30 -50q0 -32 24 -48t60 -16q42 0 80.5 28z" />
    <glyph glyph-name="doChadathai.short" horiz-adv-x="602" 
d="M475.5 517.5q61.5 -46.5 61.5 -135.5v-549h-65q-21 64 -92 103q-20 -52 -62.5 -82t-94.5 -30q-55 0 -88 21.5t-33 62.5q0 43 37 67.5t100 24.5q58 0 115 -21q3 19 3 40h38q0 -30 -6 -55q52 -27 79 -61v493q0 57 -39 96t-114 39q-54 0 -97 -24.5t-70 -71.5
q31 -10 66.5 -30.5t54.5 -40.5v-7q-42 -26 -56 -56t-14 -87v-95q0 -104 -100 -104q-41 0 -65.5 22.5t-24.5 61.5q0 42 24 63.5t59 21.5q23 0 38 -8v39q0 51 14.5 86t60.5 60q-36 30 -114 56v12q29 59 89 97t140 38q94 0 155.5 -46.5zM131 58q14 16 14 43t-13.5 42t-34.5 15
t-35 -15t-14 -42t14 -43t35 -16q20 0 34 16zM296 -123q35 27 51 75q-54 21 -106 21q-42 0 -70 -16t-28 -46t21.5 -45.5t56.5 -15.5q40 0 75 27z" />
    <glyph glyph-name="uni0E0F" unicode="&#xe0f;" horiz-adv-x="599" 
d="M473.5 517.5q60.5 -46.5 60.5 -135.5v-626h-63l-65 68l-59 -68h-19q-16 33 -35 59q-20 -32 -51.5 -50.5t-72.5 -18.5q-46 0 -75 18.5t-29 59.5q0 36 30.5 57.5t85.5 21.5q51 0 95 -32q5 20 7 50h39q0 -42 -15 -78q24 -26 34 -50l65 71l58 -60v592q0 58 -38.5 96.5
t-112.5 38.5q-53 0 -95.5 -24t-69.5 -72q31 -10 66.5 -30.5t54.5 -40.5v-7q-42 -26 -55.5 -55.5t-13.5 -87.5v-120q0 -104 -100 -104q-41 0 -65.5 22.5t-24.5 61.5q0 42 24 63.5t59 21.5q22 0 37 -8v64q0 51 14.5 86.5t60.5 59.5q-36 30 -114 56v12q29 60 88 97.5t140 37.5
q94 0 154.5 -46.5zM132 33q14 16 14 43t-13.5 42t-34.5 15t-35 -15t-14 -42t14 -43t35 -16q20 0 34 16zM226 -208.5q25 17.5 40 50.5q-40 33 -88 33q-31 0 -52.5 -14t-21.5 -38t19 -36.5t47 -12.5q31 0 56 17.5z" />
    <glyph glyph-name="toPatakthai.short" horiz-adv-x="602" 
d="M475.5 517.5q61.5 -46.5 61.5 -135.5v-549h-63l-65 68l-59 -68h-19q-13 30 -35 59q-20 -32 -51.5 -50.5t-72.5 -18.5q-46 0 -75 18.5t-29 59.5q0 36 30.5 57.5t85.5 21.5q51 0 95 -32q5 20 7 50h39q0 -41 -15 -77q25 -27 35 -51l64 71l59 -60v515q0 57 -39 96t-114 39
q-53 0 -96.5 -24.5t-70.5 -71.5q31 -10 66.5 -30.5t54.5 -40.5v-7q-40 -25 -55 -53t-15 -77v-108q0 -104 -100 -104q-41 0 -65.5 22.5t-24.5 61.5q0 42 24 63.5t59 21.5q23 0 38 -8v39q0 51 14.5 86.5t60.5 59.5q-36 30 -114 56v12q29 59 89 97t140 38q94 0 155.5 -46.5z
M131 58q14 16 14 43t-13.5 42t-34.5 15t-35 -15t-14 -42t14 -43t35 -16q20 0 34 16zM229 -131q25 18 40 51q-39 32 -88 32q-31 0 -52.5 -14t-21.5 -38t19 -36.5t47 -12.5q31 0 56 18z" />
    <glyph glyph-name="uni0E0D" unicode="&#xe0d;" horiz-adv-x="808" 
d="M47 429q29 63 84.5 99t137.5 36q96 0 153 -46t57 -136v-348h127q40 0 53.5 20t13.5 56v443h70v-441q0 -43 -13 -67.5t-42.5 -34.5t-81.5 -10h-247v34h50v362q0 59 -34.5 97t-111.5 38q-105 0 -160 -96q29 -10 62 -30t53 -41v-7q-47 -28 -64.5 -56.5t-17.5 -80.5v-72
q17 11 41 11q30 0 52.5 -21.5t22.5 -63.5q0 -39 -25 -61.5t-65 -22.5q-96 0 -96 104v127q0 45 20 80t68 60q-44 35 -107 56v12zM131 33q14 -16 34 -16q21 0 35 16t14 43t-14 42t-35 15t-34.5 -15t-13.5 -42t14 -43zM398.5 -71q23.5 24 58.5 24q40 0 63 -23t23 -60
q0 -29 -19 -53t-55 -27q19 -11 66 -11q60 0 101.5 45t53.5 122h54q-18 -103 -68.5 -151.5t-132.5 -48.5q-84 0 -126 34t-42 88q0 37 23.5 61zM423 -172.5q14 -15.5 36 -15.5q23 0 36.5 15t13.5 42t-13.5 41.5t-36.5 14.5q-22 0 -36 -15t-14 -41t14 -41.5z" />
    <glyph glyph-name="yoYingthai.less" horiz-adv-x="813" 
d="M66 94v127q0 45 20 80t68 60q-44 35 -107 56v12q29 63 84.5 99t137.5 36q96 0 153 -46t57 -136v-348h127q40 0 53.5 20t13.5 56v443h70v-441q0 -43 -13 -67.5t-42.5 -34.5t-81.5 -10h-247v34h50v362q0 59 -34.5 97t-111.5 38q-105 0 -160 -96q29 -10 62 -30t53 -41v-7
q-47 -28 -64.5 -56.5t-17.5 -80.5v-72q17 11 41 11q30 0 52.5 -21.5t22.5 -63.5q0 -39 -25 -61.5t-65 -22.5q-96 0 -96 104zM200 33q14 16 14 43t-14 42t-35 15t-34.5 -15t-13.5 -42t14 -43t34 -16q21 0 35 16z" />
    <glyph glyph-name="uni0E02" unicode="&#xe02;" horiz-adv-x="550" 
d="M86 34h58v150q0 38 17 68t52 72q29 33 44 57.5t15 52.5q0 45 -26.5 71.5t-78.5 26.5q-41 0 -70.5 -25t-36.5 -61q7 8 21 13.5t28 5.5q38 0 58.5 -23.5t20.5 -60.5q0 -35 -23 -59.5t-60 -24.5q-44 0 -68 33t-24 84q0 40 19.5 74t55.5 55t84 21q71 0 110.5 -35t39.5 -96
q0 -34 -15 -63t-43 -69q-25 -33 -37.5 -57.5t-12.5 -50.5v-159h124q77 0 77 85v434h70v-430q0 -62 -34 -92.5t-97 -30.5h-268v34zM138 339.5q14 15.5 14 42.5q0 26 -14 41t-34 15t-33.5 -14.5t-13.5 -41.5t13.5 -42.5t33.5 -15.5t34 15.5z" />
    <glyph glyph-name="uni0E03" unicode="&#xe03;" horiz-adv-x="559" 
d="M95 34h58v150q0 38 17.5 67.5t52.5 70.5q31 36 46.5 61.5t15.5 54.5q0 66 -39 88l-62 -59l-59 58q-22 -12 -39 -39.5t-20 -51.5q8 13 23 19t31 6q37 0 57 -23.5t20 -60.5q0 -35 -23 -59.5t-60 -24.5q-44 0 -68 33t-24 84q0 47 27.5 92.5t75.5 63.5l59 -60l66 60
q43 -15 64 -48t21 -79q0 -34 -15 -63t-45 -72q-26 -34 -39 -58.5t-13 -50.5v-159h124q77 0 77 85v434h70v-430q0 -62 -34 -92.5t-97 -30.5h-268v34zM147 333.5q14 15.5 14 42.5q0 26 -14 41t-34 15t-33.5 -14.5t-13.5 -41.5t13.5 -42.5t33.5 -15.5t34 15.5z" />
    <glyph glyph-name="uni0E0A" unicode="&#xe0a;" horiz-adv-x="561" 
d="M86 34h58v150q0 38 17 68t52 72q29 33 44 57.5t15 52.5q0 45 -26.5 71.5t-78.5 26.5q-41 0 -70.5 -25t-36.5 -61q7 8 21 13.5t28 5.5q38 0 58.5 -23.5t20.5 -60.5q0 -35 -23 -59.5t-60 -24.5q-44 0 -68 33t-24 84q0 40 19.5 74t55.5 55t84 21q71 0 110.5 -35t39.5 -96
q0 -34 -15 -63t-43 -69q-25 -33 -37.5 -57.5t-12.5 -50.5v-159h140q41 0 56.5 22.5t15.5 62.5v200q0 32 -21 50.5t-45 22.5v33q22 5 45.5 24.5t39.5 51t16 71.5h64q0 -69 -32 -107.5t-67 -55.5q29 -10 49.5 -34.5t20.5 -57.5v-196q0 -63 -28.5 -92t-88.5 -29h-293v34z
M138 339.5q14 15.5 14 42.5q0 26 -14 41t-34 15t-33.5 -14.5t-13.5 -41.5t13.5 -42.5t33.5 -15.5t34 15.5z" />
    <glyph glyph-name="uni0E0B" unicode="&#xe0b;" horiz-adv-x="570" 
d="M95 34h58v150q0 38 17.5 67.5t52.5 70.5q31 36 46.5 61.5t15.5 54.5q0 66 -39 88l-62 -59l-59 58q-22 -12 -39 -39.5t-20 -51.5q8 13 23 19t31 6q37 0 57 -23.5t20 -60.5q0 -35 -23 -59.5t-60 -24.5q-44 0 -68 33t-24 84q0 47 27.5 92.5t75.5 63.5l59 -60l66 60
q43 -15 64 -48t21 -79q0 -34 -15 -63t-45 -72q-26 -34 -39 -58.5t-13 -50.5v-159h140q41 0 56.5 22.5t15.5 62.5v200q0 32 -21 50.5t-45 22.5v33q22 5 45.5 24.5t39.5 51t16 71.5h64q0 -69 -32 -107.5t-67 -55.5q29 -10 49.5 -34.5t20.5 -57.5v-196q0 -63 -28.5 -92
t-88.5 -29h-293v34zM147 333.5q14 15.5 14 42.5q0 26 -14 41t-34 15t-33.5 -14.5t-13.5 -41.5t13.5 -42.5t33.5 -15.5t34 15.5z" />
    <glyph glyph-name="uni0E04" unicode="&#xe04;" horiz-adv-x="595" 
d="M65 350q0 100 56 157t176 57q121 0 177 -57t56 -157v-350h-70v368q0 73 -40.5 118t-122.5 45t-122 -44.5t-40 -118.5v-262q24 82 72 193q19 43 41.5 64t55.5 21q39 0 58.5 -23.5t19.5 -61.5q0 -35 -21 -59.5t-56 -24.5q-24 0 -43.5 14t-25.5 45q-18 -33 -51 -124.5
t-51 -149.5h-69v350zM340 258q14 15 14 42q0 26 -14 40.5t-34 14.5t-33.5 -14.5t-13.5 -40.5q0 -27 13.5 -42t33.5 -15t34 15z" />
    <glyph glyph-name="uni0E05" unicode="&#xe05;" horiz-adv-x="596" 
d="M65 350q0 64 12 105t41 67.5t83 41.5l97 -78l97 78q54 -15 83 -41.5t41 -67.5t12 -105v-350h-70v361q0 69 -15 103.5t-61 54.5l-87 -69l-88 69q-46 -20 -60.5 -54.5t-14.5 -103.5v-255q13 44 48 120l24 55q19 43 41.5 64t55.5 21q39 0 58.5 -23.5t19.5 -61.5
q0 -35 -21 -59.5t-56 -24.5q-24 0 -43.5 14t-25.5 45q-19 -35 -53 -121.5t-49 -134.5h-69v350zM340 240q14 15 14 42q0 26 -14 40.5t-34 14.5t-33.5 -14.5t-13.5 -40.5q0 -27 13.5 -42t33.5 -15t34 15z" />
    <glyph glyph-name="uni0E28" unicode="&#xe28;" horiz-adv-x="595" 
d="M479 501q51 -52 51 -151v-350h-70v368q0 73 -40.5 118t-122.5 45t-122 -44.5t-40 -118.5v-262q31 97 72 193q19 43 41.5 64t55.5 21q39 0 58.5 -23.5t19.5 -61.5q0 -35 -21 -59.5t-56 -24.5q-24 0 -43.5 14t-25.5 45q-18 -33 -51 -124.5t-51 -149.5h-69v350q0 100 56 157
t176 57q93 0 151 -36q41 26 51 69h58q-13 -61 -78 -96zM272.5 340.5q-13.5 -14.5 -13.5 -40.5q0 -27 13.5 -42t33.5 -15t34 15t14 42q0 26 -14 40.5t-34 14.5t-33.5 -14.5z" />
    <glyph glyph-name="uni0E14" unicode="&#xe14;" horiz-adv-x="590" 
d="M65 350q0 100 55 157t175 57t175 -57t55 -157v-350h-70v351q0 180 -160 180q-86 0 -123 -47t-37 -131v-306q24 11 62.5 43.5t71.5 69.5t43 61q-9 -4 -19 -4q-35 0 -55 24.5t-20 60.5q0 37 20.5 60.5t57.5 23.5q39 0 59.5 -25.5t20.5 -66.5q0 -70 -73.5 -152t-175.5 -142
h-62v350zM329.5 260q13.5 15 13.5 42q0 26 -13.5 40.5t-33.5 14.5q-21 0 -34.5 -14t-13.5 -41t14 -42t34 -15t33.5 15z" />
    <glyph glyph-name="uni0E15" unicode="&#xe15;" horiz-adv-x="593" 
d="M65 374q0 80 28.5 125t107.5 65l95 -72l96 72q79 -20 107.5 -65t28.5 -125v-374h-70v361q0 70 -13 103.5t-57 52.5l-91 -69l-92 69q-44 -19 -57 -52.5t-13 -103.5v-314q40 18 101.5 69t78.5 85q-8 -4 -19 -4q-34 0 -54.5 24.5t-20.5 60.5q0 37 20.5 60.5t57.5 23.5
q39 0 59.5 -25.5t20.5 -66.5q0 -68 -71.5 -139t-180.5 -135h-62v374zM332.5 240q13.5 15 13.5 42q0 26 -13.5 40.5t-33.5 14.5t-33.5 -14.5t-13.5 -40.5q0 -27 13.5 -42t33.5 -15t33.5 15z" />
    <glyph glyph-name="uni0E17" unicode="&#xe17;" horiz-adv-x="596" 
d="M129 403q-14 -10 -39 -10q-33 0 -56.5 22t-23.5 64q0 39 24.5 62t64.5 23q100 0 100 -104v-358l182 451h61q45 0 67 -25.5t22 -80.5v-447h-70v457q0 30 -7.5 44.5t-28.5 14.5h-19l-210 -516h-67v403zM131.5 435.5q13.5 15.5 13.5 42.5t-13.5 42.5t-34.5 15.5t-35 -15.5
t-14 -42.5t14 -42.5t35 -15.5t34.5 15.5z" />
    <glyph glyph-name="uni0E11" unicode="&#xe11;" horiz-adv-x="631" 
d="M153 184q0 38 17 68.5t50 70.5q30 36 44.5 61t14.5 54q0 66 -38 88l-60 -59l-56 58q-22 -12 -39 -39.5t-20 -51.5q8 13 22.5 19t30.5 6q37 0 57 -23.5t20 -60.5q0 -35 -22.5 -59t-59.5 -24q-44 0 -68 32.5t-24 83.5q0 47 27.5 92.5t75.5 63.5l56 -60l64 60
q43 -15 63.5 -48t20.5 -79q0 -35 -14.5 -64t-42.5 -71q-25 -35 -37 -59.5t-12 -49.5v-109l200 469h59q44 0 64 -24t20 -73v-456h-70v463q0 27 -6 40.5t-28 13.5h-19l-221 -517h-69v184zM147 333.5q14 15.5 14 42.5q0 26 -14 41t-34 15t-33.5 -14.5t-13.5 -41.5t13.5 -42.5
t33.5 -15.5t34 15.5z" />
    <glyph glyph-name="uni0E19" unicode="&#xe19;" horiz-adv-x="591" 
d="M393 15q-25 25 -25 65q0 21 9 36l-39 -17q-65 -28 -99 -49t-42 -50h-68v403q-14 -10 -39 -10q-33 0 -56.5 22t-23.5 64q0 39 24.5 62t64.5 23q100 0 100 -104v-396q17 20 43 33t76 34q46 18 73.5 32t46 35.5t18.5 51.5v303h70v-303q0 -46 -49 -83q40 -8 58 -31t18 -56
q0 -40 -24.5 -65t-67.5 -25t-68 25zM131.5 435.5q13.5 15.5 13.5 42.5t-13.5 42.5t-34.5 15.5t-35 -15.5t-14 -42.5t14 -42.5t35 -15.5t34.5 15.5zM495.5 37.5q13.5 15.5 13.5 43.5t-13.5 43.5t-34.5 15.5q-22 0 -36 -16.5t-14 -42.5q0 -28 14.5 -43.5t35.5 -15.5t34.5 15.5
z" />
    <glyph glyph-name="uni0E21" unicode="&#xe21;" horiz-adv-x="580" 
d="M515 553v-553h-64q-27 46 -94 96t-140 69v-58q0 -117 -98 -117q-48 0 -70 30t-22 73q0 47 30 78t90 32v199q-13 -9 -39 -9q-33 0 -56.5 22t-23.5 64q0 39 24.5 62t64.5 23q100 0 100 -104v-264q71 -16 135 -55.5t93 -76.5v489h70zM149.5 435.5q13.5 15.5 13.5 42.5
t-13.5 42.5t-34.5 15.5t-35 -15.5t-14 -42.5t14 -42.5t35 -15.5t34.5 15.5zM136.5 39q10.5 17 10.5 46v89q-43 -1 -64.5 -23.5t-21.5 -58.5q0 -30 11.5 -50t32.5 -20t31.5 17z" />
    <glyph glyph-name="uni0E0C" unicode="&#xe0c;" horiz-adv-x="810" 
d="M745 553v-553h-64q-31 55 -79 101t-110 63v-82q0 -42 -24 -67t-67 -25q-53 0 -73 30t-20 73q0 47 31 77.5t83 30.5v195q0 59 -36.5 97t-116.5 38q-53 0 -95.5 -24t-69.5 -72q29 -10 61.5 -30t52.5 -41v-7q-47 -28 -64.5 -56.5t-17.5 -80.5v-72q17 11 41 11
q30 0 52.5 -21.5t22.5 -63.5q0 -39 -25 -61.5t-65 -22.5q-96 0 -96 104v127q0 45 20 80t68 60q-44 35 -107 56v12q28 61 87.5 98t140.5 37q99 0 158 -46t59 -136v-189q61 -15 108.5 -51t74.5 -74v485h70zM412 38q10 16 10 40v94q-39 -2 -60.5 -22.5t-21.5 -55.5
q0 -31 11 -51.5t33 -20.5q18 0 28 16zM130.5 118q-13.5 -15 -13.5 -42t14 -43t34 -16q21 0 35 16t14 43t-14 42t-35 15t-34.5 -15z" />
    <glyph glyph-name="uni0E13" unicode="&#xe13;" horiz-adv-x="817" 
d="M761 138q18 -24 18 -58q0 -40 -24.5 -65t-67.5 -25t-67.5 25t-24.5 65q0 8 2 20q-42 -22 -75 -45t-59 -55h-68v396q0 135 -139 135q-50 0 -89.5 -25t-62.5 -71q29 -10 61.5 -30t52.5 -41v-7q-47 -28 -64.5 -56.5t-17.5 -80.5v-72q17 11 41 11q30 0 52.5 -21.5t22.5 -63.5
q0 -39 -25 -61.5t-65 -22.5q-96 0 -96 104v127q0 45 20 80t68 60q-44 35 -107 56v12q27 62 80.5 98.5t134.5 36.5q95 0 149 -44.5t54 -134.5v-321q17 19 40.5 33.5t59.5 32.5q40 20 62.5 35t38.5 37.5t16 53.5v297h70v-288q0 -58 -41 -96q32 -7 50 -31zM722 37.5
q14 15.5 14 43.5t-14 43.5t-35 15.5t-35.5 -15.5t-14.5 -43.5t14.5 -43.5t35.5 -15.5t35 15.5zM130.5 118q-13.5 -15 -13.5 -42t14 -43t34 -16q21 0 35 16t14 43t-14 42t-35 15t-34.5 -15z" />
    <glyph glyph-name="uni0E12" unicode="&#xe12;" horiz-adv-x="840" 
d="M775 553v-553h-64q-29 55 -78 101t-110 63v-82q0 -41 -24.5 -66.5t-67.5 -25.5q-53 0 -73 30t-20 73q0 47 31 77.5t84 30.5v160q0 68 -15.5 103t-61.5 55l-82 -69l-84 69q-46 -20 -60.5 -54.5t-14.5 -103.5v-313q38 18 92 67t71 86q-9 -4 -22 -4q-33 0 -54 25t-21 60
q0 37 20.5 60.5t57.5 23.5q39 0 59.5 -25.5t20.5 -66.5q0 -70 -65 -142t-167 -132h-62v350q0 64 11.5 104.5t40 67t82.5 42.5l95 -76l94 76q54 -16 83 -42.5t40.5 -67t11.5 -104.5v-157q62 -15 108 -50.5t74 -74.5v485h70zM312.5 240q13.5 15 13.5 42q0 26 -13.5 40.5
t-33.5 14.5t-34 -14.5t-14 -40.5q0 -27 14 -42t34 -15t33.5 15zM442.5 38q10.5 16 10.5 40v94q-39 -2 -61 -22t-22 -56q0 -31 11 -51.5t33 -20.5q18 0 28.5 16z" />
    <glyph glyph-name="uni0E06" unicode="&#xe06;" horiz-adv-x="576" 
d="M511 553v-553h-64q-25 45 -87 91t-132 65v-65q0 -46 -24 -73.5t-74 -27.5q-47 0 -69.5 30t-22.5 73q0 48 31 76.5t80 28.5h10q1 36 16.5 63t47.5 66q29 34 43 58t14 53q0 66 -39 88l-62 -59l-59 58q-22 -12 -37.5 -39t-18.5 -52q8 13 22 19t29 6q37 0 57 -23.5t20 -60.5
q0 -35 -23 -59.5t-60 -24.5q-44 0 -68 33t-24 84q0 47 27.5 92.5t75.5 63.5l59 -60l66 60q43 -15 64 -48t21 -79q0 -35 -14 -63t-41 -68q-23 -33 -35 -56.5t-12 -49.5v-12q64 -15 121 -50.5t92 -73.5v489h70zM74.5 417.5q-13.5 -14.5 -13.5 -41.5t13.5 -42.5t33.5 -15.5
t34 15.5t14 42.5q0 26 -14 41t-34 15t-33.5 -14.5zM159 167h-5q-39 0 -60.5 -19.5t-21.5 -55.5q0 -30 11.5 -50t33.5 -20q20 0 31 17t11 46v82z" />
    <glyph glyph-name="uni0E18" unicode="&#xe18;" horiz-adv-x="529" 
d="M25 34h55v230h70v-230h172q41 0 56.5 22.5t15.5 62.5v133q0 39 -8 59.5t-31.5 30.5t-69.5 10t-131.5 -2t-106.5 -5v33q0 84 48 135t145 51q26 0 86 -12q56 -10 75 -10q17 0 29 4t28 18l21 -32q-33 -29 -70 -29q-22 0 -68 10q-56 14 -100 14q-57 0 -92 -36.5t-37 -107.5
q37 3 168 3q68 0 107 -11.5t58 -40.5t19 -82v-131q0 -63 -28.5 -92t-88.5 -29h-322v34z" />
    <glyph glyph-name="uni0E23" unicode="&#xe23;" horiz-adv-x="493" 
d="M237 12.5q-24 22.5 -24 61.5q0 42 24.5 63.5t58.5 21.5q11 0 21.5 -2.5t14.5 -6.5v124q0 51 -29 71t-102 20q-37 0 -91.5 -2t-73.5 -5v33q0 83 47.5 128t145.5 45q19 0 40 -3.5t39 -7.5q44 -10 65 -10q17 0 29 4.5t28 16.5l21 -33q-14 -14 -32 -21t-35 -7q-29 0 -67 11
q-18 5 -39 9t-43 4q-61 0 -99 -30.5t-40 -101.5q32 4 107 4q73 0 115 -11t63 -40.5t21 -86.5v-167q0 -104 -100 -104q-41 0 -65 22.5zM334 33q14 16 14 43t-13.5 42t-34.5 15t-35 -15t-14 -42t14 -43t35 -16q20 0 34 16z" />
    <glyph glyph-name="uni0E08" unicode="&#xe08;" horiz-adv-x="517" 
d="M334.5 146q-36.5 80 -69.5 117q-4 -40 -26 -56t-47 -16q-36 0 -58 23.5t-22 60.5q0 36 21.5 61t63.5 25q51 0 103 -75t82 -164v270q0 59 -40 100t-113 41q-53 0 -99 -27.5t-70 -79.5h-34q23 63 80 100.5t136 37.5q90 0 150 -45.5t60 -133.5v-385h-73q-8 66 -44.5 146z
M226 234q14 15 14 42q0 26 -14 40.5t-34 14.5t-34 -14.5t-14 -40.5q0 -27 14 -42t34 -15t34 15z" />
    <glyph glyph-name="uni0E27" unicode="&#xe27;" horiz-adv-x="483" 
d="M253.5 12.5q-24.5 22.5 -24.5 61.5q0 42 24.5 63.5t59.5 21.5q23 0 35 -8v242q0 62 -36.5 101t-109.5 39q-52 0 -96.5 -32.5t-61.5 -91.5h-35q15 73 70.5 114t135.5 41q91 0 147 -45t56 -134v-291q0 -104 -99 -104q-41 0 -65.5 22.5zM351 33q14 16 14 43t-13.5 42
t-34.5 15t-35 -15t-14 -42t14 -43t35 -16q20 0 34 16z" />
    <glyph glyph-name="uni0E07" unicode="&#xe07;" horiz-adv-x="442" 
d="M99.5 159q-45.5 84 -88.5 128l48 34q49 -52 92.5 -132.5t64.5 -146.5h38q28 0 40.5 23t12.5 52v289q-14 -12 -42 -12q-31 0 -54 22.5t-23 62.5q0 39 24.5 62t64.5 23q100 0 100 -104v-334q0 -54 -28.5 -90t-94.5 -36h-89q-20 75 -65.5 159zM309.5 435.5
q13.5 15.5 13.5 42.5t-13.5 42.5t-34.5 15.5t-35 -15.5t-14 -42.5t14 -42.5t35 -15.5t34.5 15.5z" />
    <glyph glyph-name="uni0E10" unicode="&#xe10;" horiz-adv-x="529" 
d="M386 311.5q-8 20.5 -31.5 30.5t-69.5 10q-47 0 -136 -2t-110 -5v33q0 83 49.5 134.5t147.5 51.5q30 0 90 -12q56 -10 74 -10t30 4.5t28 17.5l21 -32q-33 -29 -70 -29q-28 0 -72 11q-32 7 -53 10t-47 3q-57 0 -93.5 -36.5t-38.5 -107.5q60 3 151 3q81 0 124 -9.5t63.5 -38
t20.5 -86.5v-166q0 -44 -17 -65t-57 -21h-147q-1 65 -6.5 114t-22.5 80q-5 -35 -28 -50.5t-50 -15.5q-34 0 -56 23t-22 59q0 35 21.5 59.5t63.5 24.5q77 0 110.5 -69t37.5 -191h65q22 0 30 11.5t8 32.5v174q0 39 -8 59.5zM172.5 168q13.5 15 13.5 42t-13.5 41.5t-34.5 14.5
t-34.5 -14.5t-13.5 -41.5t13.5 -42t34.5 -15t34.5 15zM451 -46.5q19 -15.5 19 -45.5v-135h-59l-64 54l-58 -54h-17q-15 36 -38 65q-18 -36 -49 -55.5t-73 -19.5q-44 0 -72 18.5t-28 58.5q0 36 30 57.5t81 21.5q49 0 91 -30q4 28 4 47h36q0 -41 -10 -72q28 -28 40 -57l63 55
l72 -58v66q-10 -6 -23 -6q-25 0 -40 15.5t-15 37.5q0 25 17 38.5t44 13.5q30 0 49 -15.5zM419 -105.5q8 9.5 8 23.5t-8 23t-22 9t-22 -9t-8 -23t8 -23.5t22 -9.5t22 9.5zM171 -191q24 18 36 54q-40 31 -86 31q-30 0 -50 -15t-20 -41q0 -23 18.5 -35t44.5 -12q33 0 57 18z
" />
    <glyph glyph-name="thoThanthai.less" horiz-adv-x="529" 
d="M236.5 114q-5.5 49 -22.5 80q-5 -35 -28 -50.5t-50 -15.5q-34 0 -56 23t-22 59q0 35 21.5 59.5t63.5 24.5q77 0 110.5 -69t37.5 -191h65q22 0 30 11.5t8 32.5v174q0 39 -8 59.5t-31.5 30.5t-69.5 10q-47 0 -136 -2t-110 -5v33q0 83 49.5 134.5t147.5 51.5q30 0 90 -12
q56 -10 74 -10t30 4.5t28 17.5l21 -32q-33 -29 -70 -29q-28 0 -72 11q-32 7 -53 10t-47 3q-57 0 -93.5 -36.5t-38.5 -107.5q60 3 151 3q81 0 124 -9.5t63.5 -38t20.5 -86.5v-166q0 -44 -17 -65t-57 -21h-147q-1 65 -6.5 114zM172.5 168q13.5 15 13.5 42t-13.5 41.5
t-34.5 14.5t-34.5 -14.5t-13.5 -41.5t13.5 -42t34.5 -15t34.5 15z" />
    <glyph glyph-name="uni0E09" unicode="&#xe09;" horiz-adv-x="577" 
d="M520.5 138q18.5 -24 18.5 -58q0 -40 -24.5 -65t-68.5 -25q-43 0 -67.5 25t-24.5 65q0 15 3 27q-70 -31 -105 -52.5t-44 -54.5h-68v194q-14 -8 -40 -8q-29 0 -51 22t-22 59q0 38 23.5 59.5t63.5 21.5q95 0 95 -99v-187q18 20 43.5 34.5t65.5 32.5q42 19 66.5 33t41 36
t16.5 54v140q0 38 -20 70t-58 51.5t-91 19.5q-59 0 -108 -26.5t-75 -80.5h-36q23 63 84.5 100.5t146.5 37.5q96 0 161.5 -45.5t65.5 -133.5v-145q-4 -40 -43 -71q33 -7 51.5 -31zM144 225q13 15 13 41t-13 41t-33 15t-33.5 -15t-13.5 -41t13.5 -41t33.5 -15t33 15zM481 37.5
q14 15.5 14 43.5t-14 43.5t-35 15.5t-35 -15.5t-14 -43.5t14 -43.5t35 -15.5t35 15.5z" />
    <glyph glyph-name="uni0E25" unicode="&#xe25;" horiz-adv-x="548" 
d="M58 94v154q0 69 37.5 107.5t108.5 38.5q83 0 135 -66.5t74 -162.5v227q0 60 -41.5 100.5t-124.5 40.5q-58 0 -103.5 -26t-71.5 -81h-36q23 64 81.5 101t142.5 37q96 0 159.5 -45t63.5 -134v-385h-63q-20 143 -68.5 249t-132.5 106q-40 0 -65.5 -24t-25.5 -73v-112
q15 12 42 12q32 0 54.5 -22t22.5 -62q0 -39 -24.5 -61.5t-65.5 -22.5q-99 0 -99 104zM194 33q14 16 14 43t-14 42t-35 15t-34.5 -15t-13.5 -42t14 -43t34 -16q21 0 35 16z" />
    <glyph glyph-name="uni0E2A" unicode="&#xe2a;" horiz-adv-x="548" 
d="M483 385v-385h-63q-20 143 -68.5 249t-132.5 106q-40 0 -65.5 -24t-25.5 -73v-112q15 12 42 12q32 0 54.5 -22t22.5 -62q0 -39 -24.5 -61.5t-65.5 -22.5q-99 0 -99 104v154q0 69 37.5 107.5t108.5 38.5q83 0 135 -66.5t74 -162.5v227q0 60 -41.5 100.5t-124.5 40.5
q-58 0 -103.5 -26t-71.5 -81h-36q23 64 81.5 101t142.5 37t142 -34q42 28 51 67h57q-5 -28 -24 -52t-49 -41q46 -46 46 -119zM124.5 118q-13.5 -15 -13.5 -42t14 -43t34 -16q21 0 35 16t14 43t-14 42t-35 15t-34.5 -15z" />
    <glyph glyph-name="uni0E1A" unicode="&#xe1a;" horiz-adv-x="595" 
d="M74 34h55v369q-14 -10 -39 -10q-33 0 -56.5 22t-23.5 64q0 39 24.5 62t64.5 23q100 0 100 -104v-426h188q42 0 57.5 22.5t15.5 62.5v434h70v-432q0 -63 -28.5 -92t-88.5 -29h-339v34zM131.5 435.5q13.5 15.5 13.5 42.5t-13.5 42.5t-34.5 15.5t-35 -15.5t-14 -42.5
t14 -42.5t35 -15.5t34.5 15.5z" />
    <glyph glyph-name="uni0E1B" unicode="&#xe1b;" horiz-adv-x="595" 
d="M74 34h55v369q-14 -10 -39 -10q-33 0 -56.5 22t-23.5 64q0 39 24.5 62t64.5 23q100 0 100 -104v-426h188q42 0 57.5 22.5t15.5 62.5v650h70v-648q0 -63 -28.5 -92t-88.5 -29h-339v34zM131.5 435.5q13.5 15.5 13.5 42.5t-13.5 42.5t-34.5 15.5t-35 -15.5t-14 -42.5
t14 -42.5t35 -15.5t34.5 15.5z" />
    <glyph glyph-name="uni0E29" unicode="&#xe29;" horiz-adv-x="618" 
d="M530 238v-117q0 -63 -28.5 -92t-88.5 -29h-339v34h55v369q-14 -10 -39 -10q-33 0 -56.5 22t-23.5 64q0 39 24.5 62t64.5 23q100 0 100 -104v-426h188q42 0 57.5 22.5t15.5 62.5v92q-27 -5 -50 -5q-80 0 -122.5 32.5t-42.5 88.5q0 36 23.5 59t60.5 23q35 0 58.5 -21
t23.5 -59q0 -33 -21 -54t-55 -22q26 -17 75 -17q26 0 50 9v308h70v-257q33 43 42 105h53q-17 -114 -95 -163zM131.5 435.5q13.5 15.5 13.5 42.5t-13.5 42.5t-34.5 15.5t-35 -15.5t-14 -42.5t14 -42.5t35 -15.5t34.5 15.5zM295.5 290.5q12.5 -13.5 33.5 -13.5q22 0 34.5 13.5
t12.5 37.5t-12.5 37.5t-34.5 13.5q-21 0 -33.5 -13.5t-12.5 -37.5t12.5 -37.5z" />
    <glyph glyph-name="uni0E22" unicode="&#xe22;" horiz-adv-x="529" 
d="M51 177q0 34 22 65t78 44q-44 12 -76.5 49.5t-32.5 99.5q0 66 30 97.5t83 31.5q41 0 66.5 -22.5t25.5 -60.5q0 -39 -22.5 -63t-57.5 -24q-17 0 -33 6.5t-25 21.5q1 -40 19.5 -66t45 -37.5t50.5 -11.5h47v-37h-54q-50 -6 -73 -34t-23 -66v-136h201q41 0 56.5 22.5
t15.5 62.5v434h70v-432q0 -63 -28.5 -92t-88.5 -29h-296v177zM192 437q14 15 14 42t-14 42.5t-35 15.5t-35 -15.5t-14 -42.5t14 -42t35 -15t35 15z" />
    </font>
</defs>
</svg>
