<?xml version="1.0" standalone="no"?>
<!DOCTYPE svg PUBLIC "-//W3C//DTD SVG 1.1//EN" "http://www.w3.org/Graphics/SVG/1.1/DTD/svg11.dtd" >
<svg>
<metadata>
Created by FontForge 20090622 at Wed Nov  1 21:05:39 2017
 By deploy user
Copyright (c) 2015, Cadson Demak (info@cadsondemak.com)
</metadata>
<defs>
<font id="Trirong-Italic" horiz-adv-x="0" >
  <font-face 
    font-family="Trirong"
    font-weight="400"
    font-style="italic"
    font-stretch="normal"
    units-per-em="1000"
    panose-1="0 0 5 0 0 0 0 0 0 0"
    ascent="750"
    descent="-250"
    x-height="498"
    cap-height="700"
    bbox="-516 -487 1367 1133"
    underline-thickness="50"
    underline-position="-50"
    slope="-12"
    unicode-range="U+000D-U+FB02"
  />
<missing-glyph horiz-adv-x="576" 
d="M48 714h403v-714h-403v714zM421 31v652h-343v-652h343z" />
    <glyph glyph-name="fi" unicode="fi" horiz-adv-x="671" 
d="M577 498l55 4l-102 -502l-89 -10l97 473h-279l-87 -430q-20 -94 -69.5 -143.5t-128.5 -49.5q-57 0 -85 19t-28 51q0 4 2 16q3 13 12.5 23.5t23.5 10.5q17 0 21.5 -7.5t4.5 -22.5q-1 -4 -3.5 -8.5t-3.5 -7.5q1 -36 51 -36q41 0 69 33t39 87l94 465h-90l6 35h92l5 27
q39 192 194 192q58 0 88 -19.5t30 -51.5q0 -5 -2 -15q-2 -12 -12 -23t-25 -11q-17 0 -21 7.5t-4 22.5q1 4 3 8t3 8q-1 36 -51 36q-41 0 -69 -33t-40 -87l-12 -61h311zM647.5 648.5q11.5 -11.5 11.5 -30.5q0 -9 -1 -13q-5 -24 -23 -39t-42 -15q-20 0 -32.5 11t-12.5 30
q0 29 20 48.5t47 19.5q21 0 32.5 -11.5z" />
    <glyph glyph-name="fl" unicode="fl" horiz-adv-x="664" 
d="M662 711l-145 -711l-89 -10l134 650q-34 17 -76 28t-82 11q-100 0 -126 -120l-12 -61h144l-7 -35h-144l-87 -430q-20 -94 -69.5 -143.5t-128.5 -49.5q-57 0 -85 19t-28 51q0 4 2 16q3 13 12.5 23.5t23.5 10.5q17 0 21.5 -7.5t4.5 -22.5q-1 -4 -3.5 -8.5t-3.5 -7.5
q1 -36 51 -36q41 0 69 33t39 87l94 465h-90l6 35h92l5 27q21 102 79.5 147.5t137.5 45.5q73 0 145 -31z" />
    <glyph glyph-name="ru_lakkhangyaothai" unicode="&#xe24;&#xe45;" horiz-adv-x="834" 
d="M821 445q0 -26 -5 -49l-117 -571h-86l118 574q6 27 6 49q0 80 -79 80q-36 0 -70.5 -24t-55.5 -63q1 -6 1 -18q0 -17 -5 -42l-113 -556h-87l117 572q3 15 3 29q0 44 -29.5 71.5t-86.5 27.5q-49 0 -93.5 -23t-78.5 -67q27 -10 54.5 -30t43.5 -42l-2 -8q-48 -27 -71 -57.5
t-33 -83.5l-13 -60q14 8 34 8q26 0 43 -16t17 -46q0 -11 -3 -23q-8 -41 -38 -64t-72 -23q-83 0 -83 74q0 15 3 33l24 118q22 99 116 145q-35 34 -93 55l2 12q41 60 109.5 98.5t149.5 38.5q61 0 106 -20.5t65 -60.5q29 38 71 59.5t92 21.5q139 0 139 -119zM117 120
q-16 -15 -22 -42q-2 -12 -2 -17q0 -20 10.5 -30.5t26.5 -10.5q20 0 36 15.5t22 42.5q2 12 2 17q0 20 -10 30t-27 10q-20 0 -36 -15z" />
    <glyph glyph-name="lu_lakkhangyaothai" unicode="&#xe26;&#xe45;" horiz-adv-x="870" 
d="M857 445q0 -26 -5 -49l-118 -571h-86l117 574q6 27 6 49q0 80 -79 80q-35 0 -68.5 -23.5t-54.5 -62.5q1 -6 1 -18q0 -16 -5 -43l-113 -556h-87l117 572q3 15 3 30q0 44 -28 71t-85 27q-101 0 -170 -90q28 -10 58 -30.5t45 -41.5l-2 -8q-43 -25 -61.5 -54.5t-30.5 -86.5
l-24 -117q-20 -107 -127 -107q-36 0 -56 16.5t-20 47.5q0 11 3 23q9 43 37.5 64.5t64.5 21.5q16 0 24 -5l12 57q10 50 31.5 85.5t70.5 59.5q-28 28 -98 55l2 12q40 60 107.5 98.5t148.5 38.5q60 0 104.5 -20t64.5 -59q29 37 70 58t90 21q141 0 141 -119zM124 95q0 20 -10 30
t-27 10q-24 0 -42 -19.5t-18 -54.5q0 -20 10.5 -30.5t26.5 -10.5q20 0 36 15.5t22 42.5q2 12 2 17z" />
    <glyph glyph-name=".notdef" horiz-adv-x="576" 
d="M48 714h403v-714h-403v714zM421 31v652h-343v-652h343z" />
    <glyph glyph-name=".null" horiz-adv-x="483" 
 />
    <glyph glyph-name="nonmarkingreturn" unicode="&#xd;" horiz-adv-x="251" 
 />
    <glyph glyph-name="space" unicode=" " horiz-adv-x="251" 
 />
    <glyph glyph-name="A" unicode="A" horiz-adv-x="694" 
d="M651 12l-2 -12h-240l2 12q36 13 81 18l-20 152h-289l-83 -152q41 -5 76 -19l-2 -11h-206l2 13q18 6 41.5 11.5t37.5 7.5l372 672h61l98 -673q41 -7 71 -19zM467 217l-52 387l-212 -387h264z" />
    <glyph glyph-name="Aacute" unicode="&#xc1;" horiz-adv-x="694" 
d="M430 786l-10 23l130 106q14 11 24.5 17t23.5 6q14 0 20 -8t4 -19q-4 -23 -39 -43zM651 12l-2 -12h-240l2 12q36 13 81 18l-20 152h-289l-83 -152q41 -5 76 -19l-2 -11h-206l2 13q18 6 41.5 11.5t37.5 7.5l372 672h61l98 -673q41 -7 71 -19zM467 217l-52 387l-212 -387
h264z" />
    <glyph glyph-name="Abreve" unicode="&#x102;" horiz-adv-x="694" 
d="M381 812q-33 27 -33 81l1 16h53q-1 -6 -1 -16q0 -42 22.5 -56.5t56.5 -14.5q38 0 68 18t45 69h53q-20 -62 -65.5 -93t-107.5 -31q-59 0 -92 27zM651 12l-2 -12h-240l2 12q36 13 81 18l-20 152h-289l-83 -152q41 -5 76 -19l-2 -11h-206l2 13q18 6 41.5 11.5t37.5 7.5
l372 672h61l98 -673q41 -7 71 -19zM467 217l-52 387l-212 -387h264z" />
    <glyph glyph-name="uni1EAE" unicode="&#x1eae;" horiz-adv-x="694" 
d="M474 905l-10 21l93 79q41 33 62 33q12 0 17 -6.5t3 -16.5q-2 -13 -15.5 -27t-37.5 -26zM381.5 813q-33.5 27 -33.5 81l1 15h54l-1 -15q0 -42 22 -56.5t56 -14.5q38 0 68.5 17.5t45.5 68.5h53q-21 -62 -66 -92.5t-108 -30.5q-58 0 -91.5 27zM651 12l-2 -12h-240l2 12
q36 13 81 18l-20 152h-289l-83 -152q41 -5 76 -19l-2 -11h-206l2 13q18 6 41.5 11.5t37.5 7.5l372 672h61l98 -673q41 -7 71 -19zM467 217l-52 387l-212 -387h264z" />
    <glyph glyph-name="uni1EB6" unicode="&#x1eb6;" horiz-adv-x="694" 
d="M381 812q-33 27 -33 81l1 16h53q-1 -6 -1 -16q0 -42 22.5 -56.5t57.5 -14.5q37 0 67 18t45 69h54q-20 -62 -65.5 -93t-108.5 -31q-59 0 -92 27zM651 12l-2 -12h-240l2 12q36 13 81 18l-20 152h-289l-83 -152q41 -5 76 -19l-2 -11h-206l2 13q18 6 41.5 11.5t37.5 7.5
l372 672h61l98 -673q41 -7 71 -19zM467 217l-52 387l-212 -387h264zM319 -68q9 -9 9 -25q0 -25 -15.5 -41.5t-37.5 -16.5q-16 0 -25.5 9t-9.5 24q0 8 1 12q5 21 19.5 34t33.5 13q16 0 25 -9z" />
    <glyph glyph-name="uni1EB0" unicode="&#x1eb0;" horiz-adv-x="694" 
d="M404 988q-8 14 -6 27q2 10 10.5 16.5t18.5 6.5q25 0 50 -33l62 -79l-19 -21l-89 57q-19 12 -27 26zM382.5 813q-33.5 27 -33.5 81l1 15h54q-1 -6 -1 -16q0 -41 22 -55.5t56 -14.5q38 0 68.5 17.5t45.5 68.5h53q-21 -62 -66 -92.5t-108 -30.5q-58 0 -91.5 27zM651 12
l-2 -12h-240l2 12q36 13 81 18l-20 152h-289l-83 -152q41 -5 76 -19l-2 -11h-206l2 13q18 6 41.5 11.5t37.5 7.5l372 672h61l98 -673q41 -7 71 -19zM467 217l-52 387l-212 -387h264z" />
    <glyph glyph-name="uni1EB2" unicode="&#x1eb2;" horiz-adv-x="694" 
d="M544.5 982q15.5 11 19.5 31q3 17 -6.5 27t-33.5 10t-51 -13v27q34 14 67 14q31 0 50.5 -13t19.5 -40q0 -8 -1 -13q-13 -57 -84 -63l-19 -53h-34l12 75h20q25 0 40.5 11zM381.5 813q-33.5 27 -33.5 81l1 15h54l-1 -15q0 -42 22 -56.5t56 -14.5q38 0 68.5 17.5t45.5 68.5
h53q-21 -62 -66 -92.5t-108 -30.5q-58 0 -91.5 27zM651 12l-2 -12h-240l2 12q36 13 81 18l-20 152h-289l-83 -152q41 -5 76 -19l-2 -11h-206l2 13q18 6 41.5 11.5t37.5 7.5l372 672h61l98 -673q41 -7 71 -19zM467 217l-52 387l-212 -387h264z" />
    <glyph glyph-name="uni1EB4" unicode="&#x1eb4;" horiz-adv-x="694" 
d="M415 1009.5q-18 -15.5 -29 -41.5h-31q17 50 46 75t66 25q19 0 33.5 -8t32.5 -23q18 -13 27 -18.5t21 -5.5q46 0 73 60h29q-17 -49 -45.5 -76.5t-67.5 -27.5q-16 0 -30 7.5t-34 22.5q-19 14 -30 20t-22 6q-21 0 -39 -15.5zM381.5 813q-33.5 27 -33.5 81l1 15h54l-1 -15
q0 -42 22 -56.5t56 -14.5q38 0 68.5 17.5t45.5 68.5h53q-21 -62 -66 -92.5t-108 -30.5q-58 0 -91.5 27zM580 31q41 -7 71 -19l-2 -12h-240l2 12q36 13 81 18l-20 152h-289l-83 -152q41 -5 76 -19l-2 -11h-206l2 13q18 6 41.5 11.5t37.5 7.5l372 672h61zM467 217l-52 387
l-212 -387h264z" />
    <glyph glyph-name="uni01CD" unicode="&#x1cd;" horiz-adv-x="694" 
d="M403.5 851q-29.5 36 -55.5 58l41 32q24 -22 48.5 -52.5t36.5 -56.5h5q24 26 61 57t70 52l29 -32q-36 -21 -80.5 -57.5t-69.5 -65.5h-42q-14 29 -43.5 65zM651 12l-2 -12h-240l2 12q36 13 81 18l-20 152h-289l-83 -152q41 -5 76 -19l-2 -11h-206l2 13q18 6 41.5 11.5
t37.5 7.5l372 672h61l98 -673q41 -7 71 -19zM467 217l-52 387l-212 -387h264z" />
    <glyph glyph-name="Acircumflex" unicode="&#xc2;" horiz-adv-x="694" 
d="M426.5 833q-37.5 -30 -71.5 -53l-28 32q35 22 80 58t70 64h41q15 -29 45 -65t56 -57l-43 -32q-24 22 -48 52.5t-36 56.5h-5q-23 -26 -60.5 -56zM651 12l-2 -12h-240l2 12q36 13 81 18l-20 152h-289l-83 -152q41 -5 76 -19l-2 -11h-206l2 13q18 6 41.5 11.5t37.5 7.5
l372 672h61l98 -673q41 -7 71 -19zM467 217l-52 387l-212 -387h264z" />
    <glyph glyph-name="uni1EA4" unicode="&#x1ea4;" horiz-adv-x="694" 
d="M767.5 1026.5q5.5 -6.5 3.5 -16.5q-2 -13 -15.5 -27t-38.5 -26l-111 -57l-11 21l93 79q37 33 64 33q10 0 15.5 -6.5zM427 832.5q-37 -30.5 -70 -52.5l-30 32q35 21 80 57t71 65h40q16 -28 45.5 -64t54.5 -58l-41 -32q-24 21 -48 52t-37 57h-4q-24 -26 -61 -56.5zM580 31
q41 -7 71 -19l-2 -12h-240l2 12q36 13 81 18l-20 152h-289l-83 -152q41 -5 76 -19l-2 -11h-206l2 13q18 6 41.5 11.5t37.5 7.5l372 672h61zM467 217l-52 387l-212 -387h264z" />
    <glyph glyph-name="uni1EAC" unicode="&#x1eac;" horiz-adv-x="694" 
d="M426.5 832q-37.5 -30 -71.5 -53l-28 32q35 22 80 58t70 64h41q15 -29 45 -65t56 -57l-43 -32q-24 22 -48 52.5t-36 56.5h-5q-23 -26 -60.5 -56zM651 12l-2 -12h-240l2 12q36 13 81 18l-20 152h-289l-83 -152q41 -5 76 -19l-2 -11h-206l2 13q18 6 41.5 11.5t37.5 7.5
l372 672h61l98 -673q41 -7 71 -19zM467 217l-52 387l-212 -387h264zM322 -68q9 -9 9 -25q0 -25 -15.5 -41.5t-38.5 -16.5q-15 0 -24.5 9t-9.5 24q0 8 1 12q5 21 19.5 34t33.5 13q16 0 25 -9z" />
    <glyph glyph-name="uni1EA6" unicode="&#x1ea6;" horiz-adv-x="694" 
d="M273.5 978.5q-11.5 14.5 -11.5 26.5q0 11 8.5 19.5t21.5 8.5t27.5 -11t28.5 -30l55 -71l-19 -21l-80 51q-19 13 -30.5 27.5zM327 812q35 21 80 57t71 65h40q16 -28 45.5 -64t54.5 -58l-41 -32q-24 21 -48 52t-37 57h-4q-24 -26 -61 -56.5t-70 -52.5zM651 12l-2 -12h-240
l2 12q36 13 81 18l-20 152h-289l-83 -152q41 -5 76 -19l-2 -11h-206l2 13q18 6 41.5 11.5t37.5 7.5l372 672h61l98 -673q41 -7 71 -19zM467 217l-52 387l-212 -387h264z" />
    <glyph glyph-name="uni1EA8" unicode="&#x1ea8;" horiz-adv-x="694" 
d="M705.5 1060q19.5 -13 19.5 -39q0 -9 -1 -14q-13 -57 -84 -63l-19 -53h-33l12 75h19q25 0 40.5 11t20.5 31q3 17 -7 27t-34 10t-50 -13v27q34 14 66 14q31 0 50.5 -13zM427 832.5q-37 -30.5 -70 -52.5l-30 32q35 21 80 57t71 65h40q16 -28 45.5 -64t54.5 -58l-41 -32
q-24 21 -48 52t-37 57h-4q-24 -26 -61 -56.5zM580 31q41 -7 71 -19l-2 -12h-240l2 12q36 13 81 18l-20 152h-289l-83 -152q41 -5 76 -19l-2 -11h-206l2 13q18 6 41.5 11.5t37.5 7.5l372 672h61zM467 217l-52 387l-212 -387h264z" />
    <glyph glyph-name="uni1EAA" unicode="&#x1eaa;" horiz-adv-x="694" 
d="M409 1005q-18 -15 -30 -42h-30q17 50 45.5 75t65.5 25q19 0 35 -8t36 -23q20 -13 30 -18.5t21 -5.5q44 0 71 60h29q-36 -104 -112 -104q-16 0 -31.5 7.5t-35.5 22.5q-20 14 -31.5 20t-23.5 6q-21 0 -39 -15zM427 832.5q-37 -30.5 -70 -52.5l-30 32q35 21 80 57t71 65h40
q16 -28 45.5 -64t54.5 -58l-41 -32q-24 21 -48 52t-37 57h-4q-24 -26 -61 -56.5zM580 31q41 -7 71 -19l-2 -12h-240l2 12q36 13 81 18l-20 152h-289l-83 -152q41 -5 76 -19l-2 -11h-206l2 13q18 6 41.5 11.5t37.5 7.5l372 672h61zM467 217l-52 387l-212 -387h264z" />
    <glyph glyph-name="Adieresis" unicode="&#xc4;" horiz-adv-x="694" 
d="M328.5 794q-8.5 9 -8.5 24q0 8 1 12q4 21 18 34t33 13q16 0 25 -9.5t9 -25.5q0 -24 -15.5 -40.5t-38.5 -16.5q-15 0 -23.5 9zM539 794q-9 9 -9 24q0 8 1 12q5 21 19 34t33 13q16 0 25 -9t9 -25q0 -25 -15.5 -41.5t-37.5 -16.5q-16 0 -25 9zM651 12l-2 -12h-240l2 12
q36 13 81 18l-20 152h-289l-83 -152q41 -5 76 -19l-2 -11h-206l2 13q18 6 41.5 11.5t37.5 7.5l372 672h61l98 -673q41 -7 71 -19zM467 217l-52 387l-212 -387h264z" />
    <glyph glyph-name="uni1EA0" unicode="&#x1ea0;" horiz-adv-x="694" 
d="M651 12l-2 -12h-240l2 12q36 13 81 18l-20 152h-289l-83 -152q41 -5 76 -19l-2 -11h-206l2 13q18 6 41.5 11.5t37.5 7.5l372 672h61l98 -673q41 -7 71 -19zM467 217l-52 387l-212 -387h264zM322 -68q9 -9 9 -25q0 -25 -15.5 -41.5t-38.5 -16.5q-15 0 -24.5 9t-9.5 24
q0 8 1 12q5 21 19.5 34t33.5 13q16 0 25 -9z" />
    <glyph glyph-name="Agrave" unicode="&#xc0;" horiz-adv-x="694" 
d="M370 911q2 10 12 18.5t24 8.5q22 0 38 -22l90 -107l-20 -23l-120 82q-28 19 -24 43zM651 12l-2 -12h-240l2 12q36 13 81 18l-20 152h-289l-83 -152q41 -5 76 -19l-2 -11h-206l2 13q18 6 41.5 11.5t37.5 7.5l372 672h61l98 -673q41 -7 71 -19zM467 217l-52 387l-212 -387
h264z" />
    <glyph glyph-name="uni1EA2" unicode="&#x1ea2;" horiz-adv-x="694" 
d="M538 883q19 14 24 38l1 8q0 17 -12 27.5t-36 10.5q-28 0 -59 -16l-1 30q15 7 36 12t42 5q35 0 57.5 -15.5t22.5 -46.5q0 -5 -2 -17q-7 -34 -32 -53t-64 -23l-23 -64h-38l14 90h23q28 0 47 14zM651 12l-2 -12h-240l2 12q36 13 81 18l-20 152h-289l-83 -152q41 -5 76 -19
l-2 -11h-206l2 13q18 6 41.5 11.5t37.5 7.5l372 672h61l98 -673q41 -7 71 -19zM467 217l-52 387l-212 -387h264z" />
    <glyph glyph-name="Amacron" unicode="&#x100;" horiz-adv-x="694" 
d="M628 784h-319l7 35h319zM651 12l-2 -12h-240l2 12q36 13 81 18l-20 152h-289l-83 -152q41 -5 76 -19l-2 -11h-206l2 13q18 6 41.5 11.5t37.5 7.5l372 672h61l98 -673q41 -7 71 -19zM467 217l-52 387l-212 -387h264z" />
    <glyph glyph-name="Aogonek" unicode="&#x104;" horiz-adv-x="694" 
d="M669 -129l-9 -41q-37 -17 -82 -17q-41 0 -62 18.5t-21 46.5q0 10 1 15q7 34 34 63t67 44h-188l2 12q36 13 81 18l-20 152h-289l-83 -152q41 -5 76 -19l-2 -11h-206l2 13q18 6 41.5 11.5t37.5 7.5l372 672h61l98 -673q41 -7 71 -19l-2 -12h-4q-28 -16 -50.5 -41t-28.5 -51
q-1 -4 -1 -11q0 -20 13.5 -30t35.5 -10q27 0 55 14zM467 217l-52 387l-212 -387h264z" />
    <glyph glyph-name="Aring" unicode="&#xc5;" horiz-adv-x="694" 
d="M404 757q-20 18 -20 48q0 48 32 79t77 31q34 0 53.5 -18.5t19.5 -50.5q0 -6 -2 -20q-8 -39 -37.5 -63t-68.5 -24q-34 0 -54 18zM431 782q12 -11 33 -11q27 0 47 19.5t20 49.5q0 19 -12 30.5t-32 11.5q-28 0 -48 -19.5t-20 -49.5q0 -20 12 -31zM651 12l-2 -12h-240l2 12
q36 13 81 18l-20 152h-289l-83 -152q41 -5 76 -19l-2 -11h-206l2 13q18 6 41.5 11.5t37.5 7.5l372 672h61l98 -673q41 -7 71 -19zM467 217l-52 387l-212 -387h264z" />
    <glyph glyph-name="Aringacute" unicode="&#x1fa;" horiz-adv-x="694" 
d="M647 1083q6 -8 4 -19q-4 -23 -39 -43l-153 -82l-11 23l131 106q14 11 24.5 17t23.5 6q14 0 20 -8zM404 755q-20 18 -20 48q0 48 32 79t77 31q34 0 53.5 -18.5t19.5 -50.5q0 -6 -2 -20q-8 -39 -37.5 -63t-68.5 -24q-34 0 -54 18zM431 780q12 -11 33 -11q27 0 47 19.5
t20 49.5q0 19 -12 30.5t-32 11.5q-28 0 -48 -19.5t-20 -49.5q0 -20 12 -31zM580 31q41 -7 71 -19l-2 -12h-240l2 12q36 13 81 18l-20 152h-289l-83 -152q41 -5 76 -19l-2 -11h-206l2 13q18 6 41.5 11.5t37.5 7.5l372 672h61zM467 217l-52 387l-212 -387h264z" />
    <glyph glyph-name="Atilde" unicode="&#xc3;" horiz-adv-x="694" 
d="M364.5 827.5q-19.5 -15.5 -29.5 -41.5h-32q17 50 46.5 75t68.5 25q20 0 37 -8t38 -23q16 -12 28.5 -18t24.5 -6q23 0 42.5 14.5t32.5 45.5h30q-15 -49 -44.5 -76.5t-70.5 -27.5q-16 0 -31 7t-41 23q-18 13 -31.5 19.5t-25.5 6.5q-23 0 -42.5 -15.5zM580 31q41 -7 71 -19
l-2 -12h-240l2 12q36 13 81 18l-20 152h-289l-83 -152q41 -5 76 -19l-2 -11h-206l2 13q18 6 41.5 11.5t37.5 7.5l372 672h61zM467 217l-52 387l-212 -387h264z" />
    <glyph glyph-name="AE" unicode="&#xc6;" horiz-adv-x="958" 
d="M-30 12q36 13 75 20l505 642q-5 1 -20 5t-24 9l2 12h494l-30 -146h-21q-5 22 -5 68q0 21 2 41h-276l-58 -286h201q4 16 14 41.5t20 41.5h16l-41 -202h-17q-2 24 -2 40q0 25 2 43h-200l-63 -306h279q6 21 25.5 57t32.5 52h21l-43 -144h-489l2 12q45 14 83 18l31 152h-268
l-117 -152q45 -5 79 -19l-2 -11h-210zM493 217l89 433h-5l-330 -433h246z" />
    <glyph glyph-name="AEacute" unicode="&#x1fc;" horiz-adv-x="958" 
d="M720 809l131 106q26 23 48 23q13 0 18.5 -6.5t5.5 -15.5q0 -26 -40 -48l-152 -82zM-30 12q36 13 75 20l505 642q-5 1 -20 5t-24 9l2 12h494l-30 -146h-21q-5 22 -5 68q0 21 2 41h-276l-58 -286h201q4 16 14 41.5t20 41.5h16l-41 -202h-17q-2 24 -2 40q0 25 2 43h-200
l-63 -306h279q6 21 25.5 57t32.5 52h21l-43 -144h-489l2 12q45 14 83 18l31 152h-268l-117 -152q45 -5 79 -19l-2 -11h-210zM493 217l89 433h-5l-330 -433h246z" />
    <glyph glyph-name="B" unicode="B" horiz-adv-x="581" 
d="M-2 12q25 9 42.5 13t39.5 6l130 638q-47 8 -74 18l2 13h276q97 0 141 -28.5t44 -88.5q0 -27 -5 -48q-11 -56 -51.5 -102.5t-105.5 -59.5l-1 -5q64 -11 92 -47.5t28 -87.5q0 -23 -4 -42q-19 -96 -78.5 -143.5t-172.5 -47.5h-305zM337 386q68 0 111.5 39t57.5 107
q5 27 5 43q0 45 -28 66.5t-87 21.5h-98l-56 -277h95zM299 35q69 0 110 40t58 119q5 27 5 45q0 54 -31.5 82.5t-90.5 28.5h-116l-64 -315h129z" />
    <glyph glyph-name="C" unicode="C" horiz-adv-x="594" 
d="M127 53q-62 63 -62 180q0 56 13 117q34 169 133 264.5t247 95.5q128 0 185 -69l-33 -122h-23q-2 16 -2 28q0 36 6 84q-19 19 -49.5 30.5t-67.5 11.5q-120 0 -198 -88t-108 -235q-14 -68 -14 -122q0 -95 44 -148t137 -53q36 0 86 14t94 40l6 -27q-40 -31 -94.5 -47.5
t-114.5 -16.5q-123 0 -185 63z" />
    <glyph glyph-name="Cacute" unicode="&#x106;" horiz-adv-x="594" 
d="M411 809l130 106q14 11 24.5 17t23.5 6q15 0 21 -8t3 -19q-3 -23 -39 -43l-153 -82zM127 53q-62 63 -62 180q0 56 13 117q34 169 133 264.5t247 95.5q128 0 185 -69l-33 -122h-23q-2 16 -2 28q0 36 6 84q-19 19 -49.5 30.5t-67.5 11.5q-120 0 -198 -88t-108 -235
q-14 -68 -14 -122q0 -95 44 -148t137 -53q36 0 86 14t94 40l6 -27q-40 -31 -94.5 -47.5t-114.5 -16.5q-123 0 -185 63z" />
    <glyph glyph-name="Ccaron" unicode="&#x10c;" horiz-adv-x="594" 
d="M424.5 851q-29.5 36 -55.5 58l41 32q24 -22 48.5 -52.5t36.5 -56.5h5q24 26 61 57t70 52l29 -32q-36 -21 -80.5 -57.5t-69.5 -65.5h-42q-14 29 -43.5 65zM127 53q-62 63 -62 180q0 56 13 117q34 169 133 264.5t247 95.5q128 0 185 -69l-33 -122h-23q-2 16 -2 28
q0 36 6 84q-19 19 -49.5 30.5t-67.5 11.5q-120 0 -198 -88t-108 -235q-14 -68 -14 -122q0 -95 44 -148t137 -53q36 0 86 14t94 40l6 -27q-40 -31 -94.5 -47.5t-114.5 -16.5q-123 0 -185 63z" />
    <glyph glyph-name="Ccedilla" unicode="&#xc7;" horiz-adv-x="594" 
d="M643 641l-33 -122h-23q-2 16 -2 28q0 36 6 84q-19 19 -49.5 30.5t-67.5 11.5q-120 0 -198 -88t-108 -235q-14 -68 -14 -122q0 -95 44 -148t137 -53q36 0 86 14t94 40l6 -27q-39 -30 -91.5 -46.5t-111.5 -17.5l-37 -58q88 0 88 -53q0 -9 -1 -14q-9 -42 -45 -64.5
t-87 -22.5q-45 0 -77 18l21 29q26 -12 58 -12q33 0 55 13t27 39q3 19 -11.5 28t-36.5 9q-12 0 -24 -2l-16 28l44 64q-105 9 -158 71.5t-53 169.5q0 56 13 117q34 169 133 264.5t247 95.5q128 0 185 -69z" />
    <glyph glyph-name="Ccircumflex" unicode="&#x108;" horiz-adv-x="594" 
d="M341 812q35 22 80 58t70 64h41q15 -29 45 -65t56 -57l-44 -32q-24 22 -48 52.5t-36 56.5h-5q-23 -25 -60 -55.5t-71 -53.5zM127 53q-62 63 -62 180q0 56 13 117q34 169 133 264.5t247 95.5q128 0 185 -69l-33 -122h-23q-2 16 -2 28q0 36 6 84q-19 19 -49.5 30.5
t-67.5 11.5q-120 0 -198 -88t-108 -235q-14 -68 -14 -122q0 -95 44 -148t137 -53q36 0 86 14t94 40l6 -27q-40 -31 -94.5 -47.5t-114.5 -16.5q-123 0 -185 63z" />
    <glyph glyph-name="Cdotaccent" unicode="&#x10a;" horiz-adv-x="594" 
d="M463 794q-9 9 -9 24q0 8 1 12q5 21 19 34t34 13q16 0 24.5 -9t8.5 -25q0 -25 -15 -41.5t-37 -16.5q-17 0 -26 9zM127 53q-62 63 -62 180q0 56 13 117q34 169 133 264.5t247 95.5q128 0 185 -69l-33 -122h-23q-2 16 -2 28q0 36 6 84q-19 19 -49.5 30.5t-67.5 11.5
q-120 0 -198 -88t-108 -235q-14 -68 -14 -122q0 -95 44 -148t137 -53q36 0 86 14t94 40l6 -27q-40 -31 -94.5 -47.5t-114.5 -16.5q-123 0 -185 63z" />
    <glyph glyph-name="D" unicode="D" horiz-adv-x="642" 
d="M2 12q41 14 80 18l130 639q-36 6 -72 19l2 12h288q115 0 169 -55t54 -163q0 -58 -15 -132q-36 -173 -120.5 -261.5t-230.5 -88.5h-287zM292 35q105 0 165 81.5t91 233.5q17 82 17 142q0 83 -34.5 127t-109.5 44h-122l-128 -628h121z" />
    <glyph glyph-name="Eth" unicode="&#xd0;" horiz-adv-x="642" 
d="M599 645q54 -55 54 -163q0 -58 -15 -132q-36 -173 -120.5 -261.5t-230.5 -88.5h-287l2 12q41 14 80 18l58 285h-70l8 35h69l65 319q-36 6 -72 19l2 12h288q115 0 169 -55zM565 492q0 83 -34.5 127t-109.5 44h-122l-64 -313h161l-7 -35h-161l-57 -280h121q105 0 165 81.5
t91 233.5q17 82 17 142z" />
    <glyph glyph-name="Dcaron" unicode="&#x10e;" horiz-adv-x="642" 
d="M376.5 851q-29.5 36 -55.5 58l41 32q24 -22 48.5 -52.5t36.5 -56.5h5q24 26 61 57t70 52l29 -32q-36 -21 -80.5 -57.5t-69.5 -65.5h-42q-14 29 -43.5 65zM2 12q41 14 80 18l130 639q-36 6 -72 19l2 12h288q115 0 169 -55t54 -163q0 -58 -15 -132q-36 -173 -120.5 -261.5
t-230.5 -88.5h-287zM292 35q105 0 165 81.5t91 233.5q17 82 17 142q0 83 -34.5 127t-109.5 44h-122l-128 -628h121z" />
    <glyph glyph-name="Dcroat" unicode="&#x110;" horiz-adv-x="642" 
d="M599 645q54 -55 54 -163q0 -58 -15 -132q-36 -173 -120.5 -261.5t-230.5 -88.5h-287l2 12q41 14 80 18l58 285h-70l8 35h69l65 319q-36 6 -72 19l2 12h288q115 0 169 -55zM565 492q0 83 -34.5 127t-109.5 44h-122l-64 -313h161l-7 -35h-161l-57 -280h121q105 0 165 81.5
t91 233.5q17 82 17 142z" />
    <glyph glyph-name="uni1E0C" unicode="&#x1e0c;" horiz-adv-x="642" 
d="M2 12q41 14 80 18l130 639q-36 6 -72 19l2 12h288q115 0 169 -55t54 -163q0 -58 -15 -132q-36 -173 -120.5 -261.5t-230.5 -88.5h-287zM292 35q105 0 165 81.5t91 233.5q17 82 17 142q0 83 -34.5 127t-109.5 44h-122l-128 -628h121zM216.5 -141.5q-9.5 9.5 -9.5 24.5
q0 7 1 11q5 21 19.5 34t33.5 13q16 0 25.5 -9.5t9.5 -26.5q0 -7 -1 -11q-5 -20 -19.5 -32.5t-33.5 -12.5q-16 0 -25.5 9.5z" />
    <glyph glyph-name="uni1E0E" unicode="&#x1e0e;" horiz-adv-x="642" 
d="M2 12q41 14 80 18l130 639q-36 6 -72 19l2 12h288q115 0 169 -55t54 -163q0 -58 -15 -132q-36 -173 -120.5 -261.5t-230.5 -88.5h-287zM292 35q105 0 165 81.5t91 233.5q17 82 17 142q0 83 -34.5 127t-109.5 44h-122l-128 -628h121zM84 -69h319l-7 -35h-319z" />
    <glyph glyph-name="E" unicode="E" horiz-adv-x="588" 
d="M633 700l-30 -146h-20q-6 20 -6 70q0 21 2 39h-276l-61 -301h200q4 15 14.5 40.5t20.5 42.5h15l-41 -202h-15q-3 20 -3 45q0 22 2 38h-200l-59 -291h278q6 21 25.5 57.5t32.5 51.5h21l-42 -144h-491l2 12q43 15 83 19l131 638q-35 4 -76 19l2 12h491z" />
    <glyph glyph-name="Eacute" unicode="&#xc9;" horiz-adv-x="588" 
d="M360 786l-11 23l131 106q14 11 24.5 17t23.5 6q14 0 20 -8t4 -19q-4 -23 -39 -43zM633 700l-30 -146h-20q-6 20 -6 70q0 21 2 39h-276l-61 -301h200q4 15 14.5 40.5t20.5 42.5h15l-41 -202h-15q-3 20 -3 45q0 22 2 38h-200l-59 -291h278q6 21 25.5 57.5t32.5 51.5h21
l-42 -144h-491l2 12q43 15 83 19l131 638q-35 4 -76 19l2 12h491z" />
    <glyph glyph-name="Ebreve" unicode="&#x114;" horiz-adv-x="588" 
d="M355.5 804q-32.5 27 -32.5 81l1 16h52l-1 -15q0 -72 80 -72q37 0 67 18t45 69h54q-20 -62 -65.5 -93t-108.5 -31q-59 0 -91.5 27zM633 700l-30 -146h-20q-6 20 -6 70q0 21 2 39h-276l-61 -301h200q4 15 14.5 40.5t20.5 42.5h15l-41 -202h-15q-3 20 -3 45q0 22 2 38h-200
l-59 -291h278q6 21 25.5 57.5t32.5 51.5h21l-42 -144h-491l2 12q43 15 83 19l131 638q-35 4 -76 19l2 12h491z" />
    <glyph glyph-name="Ecaron" unicode="&#x11a;" horiz-adv-x="588" 
d="M382 851q-30 36 -56 58l42 32q25 -23 49 -53.5t36 -55.5h5q24 26 60.5 56.5t69.5 52.5l30 -32q-36 -21 -80.5 -57.5t-69.5 -65.5h-42q-14 29 -44 65zM633 700l-30 -146h-20q-6 20 -6 70q0 21 2 39h-276l-61 -301h200q4 15 14.5 40.5t20.5 42.5h15l-41 -202h-15
q-3 20 -3 45q0 22 2 38h-200l-59 -291h278q6 21 25.5 57.5t32.5 51.5h21l-42 -144h-491l2 12q43 15 83 19l131 638q-35 4 -76 19l2 12h491z" />
    <glyph glyph-name="Ecircumflex" unicode="&#xca;" horiz-adv-x="588" 
d="M406.5 833q-37.5 -30 -71.5 -53l-28 32q35 22 80 58t70 64h41q15 -29 45 -65t56 -57l-43 -32q-24 22 -48 52.5t-37 56.5h-4q-23 -26 -60.5 -56zM633 700l-30 -146h-20q-6 20 -6 70q0 21 2 39h-276l-61 -301h200q4 15 14.5 40.5t20.5 42.5h15l-41 -202h-15q-3 20 -3 45
q0 22 2 38h-200l-59 -291h278q6 21 25.5 57.5t32.5 51.5h21l-42 -144h-491l2 12q43 15 83 19l131 638q-35 4 -76 19l2 12h491z" />
    <glyph glyph-name="uni1EBE" unicode="&#x1ebe;" horiz-adv-x="588" 
d="M740.5 1026.5q5.5 -6.5 3.5 -16.5q-2 -13 -15.5 -27t-38.5 -26l-111 -57l-11 21l93 79q37 33 64 33q10 0 15.5 -6.5zM399 832.5q-37 -30.5 -69 -52.5l-30 32q35 21 80 57t71 65h41q15 -28 44.5 -64t54.5 -58l-41 -32q-24 22 -48 52.5t-37 56.5h-4q-25 -26 -62 -56.5z
M142 700h491l-30 -146h-20q-6 20 -6 70q0 21 2 39h-276l-61 -301h200q4 15 14.5 40.5t20.5 42.5h15l-41 -202h-15q-3 20 -3 45q0 22 2 38h-200l-59 -291h278q6 21 25.5 57.5t32.5 51.5h21l-42 -144h-491l2 12q43 15 83 19l131 638q-35 4 -76 19z" />
    <glyph glyph-name="uni1EC6" unicode="&#x1ec6;" horiz-adv-x="588" 
d="M399 832.5q-37 -30.5 -71 -52.5l-28 32q35 22 80 58t70 64h42q15 -29 44.5 -65t55.5 -57l-43 -32q-24 22 -48 52.5t-36 56.5h-5q-24 -26 -61 -56.5zM633 700l-30 -146h-20q-6 20 -6 70q0 21 2 39h-276l-61 -301h200q4 15 14.5 40.5t20.5 42.5h15l-41 -202h-15
q-3 20 -3 45q0 22 2 38h-200l-59 -291h278q6 21 25.5 57.5t32.5 51.5h21l-42 -144h-491l2 12q43 15 83 19l131 638q-35 4 -76 19l2 12h491zM297 -68q9 -9 9 -25q0 -25 -15.5 -41.5t-38.5 -16.5q-15 0 -24.5 9t-9.5 24q0 8 1 12q5 21 19.5 34t33.5 13q16 0 25 -9z" />
    <glyph glyph-name="uni1EC0" unicode="&#x1ec0;" horiz-adv-x="588" 
d="M246.5 978.5q-11.5 14.5 -11.5 26.5q0 11 9 19.5t21 8.5q13 0 27.5 -11t29.5 -30l54 -71l-19 -21l-80 51q-19 13 -30.5 27.5zM300 812q35 21 80 57t71 65h41q15 -28 44.5 -64t54.5 -58l-41 -32q-24 22 -48 52.5t-37 56.5h-4q-25 -26 -62 -56.5t-69 -52.5zM633 700
l-30 -146h-20q-6 20 -6 70q0 21 2 39h-276l-61 -301h200q4 15 14.5 40.5t20.5 42.5h15l-41 -202h-15q-3 20 -3 45q0 22 2 38h-200l-59 -291h278q6 21 25.5 57.5t32.5 51.5h21l-42 -144h-491l2 12q43 15 83 19l131 638q-35 4 -76 19l2 12h491z" />
    <glyph glyph-name="uni1EC2" unicode="&#x1ec2;" horiz-adv-x="588" 
d="M678.5 1060q20.5 -13 20.5 -38q0 -5 -2 -15q-13 -57 -84 -63l-19 -53h-32l11 75h19q25 0 40.5 11t20.5 31q3 17 -7 27t-34 10t-49 -13v27q32 14 65 14q30 0 50.5 -13zM399 832.5q-37 -30.5 -69 -52.5l-30 32q35 21 80 57t71 65h41q15 -28 44.5 -64t54.5 -58l-41 -32
q-24 22 -48 52.5t-37 56.5h-4q-25 -26 -62 -56.5zM142 700h491l-30 -146h-20q-6 20 -6 70q0 21 2 39h-276l-61 -301h200q4 15 14.5 40.5t20.5 42.5h15l-41 -202h-15q-3 20 -3 45q0 22 2 38h-200l-59 -291h278q6 21 25.5 57.5t32.5 51.5h21l-42 -144h-491l2 12q43 15 83 19
l131 638q-35 4 -76 19z" />
    <glyph glyph-name="uni1EC4" unicode="&#x1ec4;" horiz-adv-x="588" 
d="M382.5 1004.5q-18.5 -15.5 -30.5 -41.5h-29q33 100 110 100q19 0 35 -8t36 -23q20 -13 30 -18.5t21 -5.5q44 0 71 60h29q-16 -49 -44.5 -76.5t-67.5 -27.5q-16 0 -31.5 7.5t-35.5 22.5q-20 14 -31.5 20t-23.5 6q-20 0 -38.5 -15.5zM399 832.5q-37 -30.5 -69 -52.5l-30 32
q35 21 80 57t71 65h41q15 -28 44.5 -64t54.5 -58l-41 -32q-24 22 -48 52.5t-37 56.5h-4q-25 -26 -62 -56.5zM142 700h491l-30 -146h-20q-6 20 -6 70q0 21 2 39h-276l-61 -301h200q4 15 14.5 40.5t20.5 42.5h15l-41 -202h-15q-3 20 -3 45q0 22 2 38h-200l-59 -291h278
q6 21 25.5 57.5t32.5 51.5h21l-42 -144h-491l2 12q43 15 83 19l131 638q-35 4 -76 19z" />
    <glyph glyph-name="Edieresis" unicode="&#xcb;" horiz-adv-x="588" 
d="M319 794.5q-9 9.5 -9 23.5q0 8 1 12q5 21 18.5 34t32.5 13q16 0 25.5 -9.5t9.5 -26.5q0 -7 -1 -11q-5 -20 -19.5 -32.5t-33.5 -12.5q-15 0 -24 9.5zM529 794.5q-9 9.5 -9 24.5q0 7 1 11q5 21 19 34t33 13q16 0 25.5 -9.5t9.5 -26.5q0 -7 -1 -11q-5 -20 -19.5 -32.5
t-33.5 -12.5q-16 0 -25 9.5zM633 700l-30 -146h-20q-6 20 -6 70q0 21 2 39h-276l-61 -301h200q4 15 14.5 40.5t20.5 42.5h15l-41 -202h-15q-3 20 -3 45q0 22 2 38h-200l-59 -291h278q6 21 25.5 57.5t32.5 51.5h21l-42 -144h-491l2 12q43 15 83 19l131 638q-35 4 -76 19l2 12
h491z" />
    <glyph glyph-name="Edotaccent" unicode="&#x116;" horiz-adv-x="588" 
d="M427.5 794q-9.5 9 -9.5 23q0 5 2 13q4 21 18 34t34 13q16 0 25 -9.5t9 -25.5q0 -24 -15.5 -40.5t-37.5 -16.5q-16 0 -25.5 9zM633 700l-30 -146h-20q-6 20 -6 70q0 21 2 39h-276l-61 -301h200q4 15 14.5 40.5t20.5 42.5h15l-41 -202h-15q-3 20 -3 45q0 22 2 38h-200
l-59 -291h278q6 21 25.5 57.5t32.5 51.5h21l-42 -144h-491l2 12q43 15 83 19l131 638q-35 4 -76 19l2 12h491z" />
    <glyph glyph-name="uni1EB8" unicode="&#x1eb8;" horiz-adv-x="588" 
d="M633 700l-30 -146h-20q-6 20 -6 70q0 21 2 39h-276l-61 -301h200q4 15 14.5 40.5t20.5 42.5h15l-41 -202h-15q-3 20 -3 45q0 22 2 38h-200l-59 -291h278q6 21 25.5 57.5t32.5 51.5h21l-42 -144h-491l2 12q43 15 83 19l131 638q-35 4 -76 19l2 12h491zM277 -68.5
q9 -9.5 9 -25.5q0 -24 -15.5 -40.5t-38.5 -16.5q-16 0 -25 9t-9 24q0 8 1 12q4 21 18.5 34t34.5 13q16 0 25 -9.5z" />
    <glyph glyph-name="Egrave" unicode="&#xc8;" horiz-adv-x="588" 
d="M380 911q2 11 12 19t25 8q20 0 37 -22l90 -107l-20 -23l-120 82q-28 20 -24 43zM633 700l-30 -146h-20q-6 20 -6 70q0 21 2 39h-276l-61 -301h200q4 15 14.5 40.5t20.5 42.5h15l-41 -202h-15q-3 20 -3 45q0 22 2 38h-200l-59 -291h278q6 21 25.5 57.5t32.5 51.5h21
l-42 -144h-491l2 12q43 15 83 19l131 638q-35 4 -76 19l2 12h491z" />
    <glyph glyph-name="uni1EBA" unicode="&#x1eba;" horiz-adv-x="588" 
d="M508 883q19 14 24 38q1 3 1 9q0 16 -12.5 26.5t-35.5 10.5q-28 0 -59 -16l-1 30q15 7 36 12t42 5q35 0 57.5 -15.5t22.5 -46.5q0 -5 -2 -17q-14 -68 -96 -76l-23 -64h-38l14 90h23q28 0 47 14zM633 700l-30 -146h-20q-6 20 -6 70q0 21 2 39h-276l-61 -301h200
q4 15 14.5 40.5t20.5 42.5h15l-41 -202h-15q-3 20 -3 45q0 22 2 38h-200l-59 -291h278q6 21 25.5 57.5t32.5 51.5h21l-42 -144h-491l2 12q43 15 83 19l131 638q-35 4 -76 19l2 12h491z" />
    <glyph glyph-name="Emacron" unicode="&#x112;" horiz-adv-x="588" 
d="M603 784h-319l7 35h319zM633 700l-30 -146h-20q-6 20 -6 70q0 21 2 39h-276l-61 -301h200q4 15 14.5 40.5t20.5 42.5h15l-41 -202h-15q-3 20 -3 45q0 22 2 38h-200l-59 -291h278q6 21 25.5 57.5t32.5 51.5h21l-42 -144h-491l2 12q43 15 83 19l131 638q-35 4 -76 19l2 12
h491z" />
    <glyph glyph-name="Eogonek" unicode="&#x118;" horiz-adv-x="588" 
d="M633 700l-30 -146h-20q-6 20 -6 70q0 21 2 39h-276l-61 -301h200q4 15 14.5 40.5t20.5 42.5h15l-41 -202h-15q-3 20 -3 45q0 22 2 38h-200l-59 -291h278q6 21 25.5 57.5t32.5 51.5h21l-42 -144h-26q-33 -18 -56.5 -46.5t-23.5 -57.5q0 -19 13.5 -29t35.5 -10q26 0 55 14
l-9 -41q-39 -17 -83 -17q-40 0 -61.5 18t-21.5 46q0 37 29 72t74 51h-417l2 12q43 15 83 19l131 638q-35 4 -76 19l2 12h491z" />
    <glyph glyph-name="uni1EBC" unicode="&#x1ebc;" horiz-adv-x="588" 
d="M335.5 826.5q-19.5 -15.5 -30.5 -41.5h-31q17 50 46 75t68 25q21 0 37 -8t39 -23q17 -12 28.5 -18t23.5 -6q23 0 42.5 14.5t32.5 45.5h30q-16 -49 -45 -76.5t-70 -27.5q-17 0 -33.5 8t-37.5 22q-20 13 -33 19.5t-25 6.5q-22 0 -41.5 -15.5zM633 700l-30 -146h-20
q-6 20 -6 70q0 21 2 39h-276l-61 -301h200q4 15 14.5 40.5t20.5 42.5h15l-41 -202h-15q-3 20 -3 45q0 22 2 38h-200l-59 -291h278q6 21 25.5 57.5t32.5 51.5h21l-42 -144h-491l2 12q43 15 83 19l131 638q-35 4 -76 19l2 12h491z" />
    <glyph glyph-name="F" unicode="F" horiz-adv-x="547" 
d="M626 700l-30 -146h-21q-6 20 -6 70q0 21 2 39h-268l-61 -301h200q4 15 14.5 40.5t20.5 42.5h15l-41 -202h-15q-3 20 -3 45q0 22 2 38h-200l-60 -296q47 -8 77 -19l-2 -11h-250l2 12q44 13 83 18l131 639q-48 8 -76 19l2 12h484z" />
    <glyph glyph-name="G" unicode="G" horiz-adv-x="644" 
d="M118 54q-63 64 -63 181q0 56 13 115q22 111 76 192t134 124.5t179 43.5q69 0 128 -19t85 -50l-34 -122h-23q-1 7 -1 25q0 50 6 87q-18 18 -61 30t-84 12q-121 0 -203 -88.5t-112 -234.5q-13 -62 -13 -119q0 -97 44 -150.5t138 -53.5q27 0 63 7t63 21l52 254q-42 8 -72 18
l3 12h228l-3 -10q-31 -17 -71 -22l-52 -258q-41 -28 -105.5 -43.5t-128.5 -15.5q-123 0 -186 64z" />
    <glyph glyph-name="Gbreve" unicode="&#x11e;" horiz-adv-x="644" 
d="M379.5 804q-32.5 27 -32.5 81l1 16h52l-1 -15q0 -72 80 -72q37 0 67 18t45 69h54q-20 -62 -65.5 -93t-108.5 -31q-59 0 -91.5 27zM118 54q-63 64 -63 181q0 56 13 115q22 111 76 192t134 124.5t179 43.5q69 0 128 -19t85 -50l-34 -122h-23q-1 7 -1 25q0 50 6 87
q-18 18 -61 30t-84 12q-121 0 -203 -88.5t-112 -234.5q-13 -62 -13 -119q0 -97 44 -150.5t138 -53.5q27 0 63 7t63 21l52 254q-42 8 -72 18l3 12h228l-3 -10q-31 -17 -71 -22l-52 -258q-41 -28 -105.5 -43.5t-128.5 -15.5q-123 0 -186 64z" />
    <glyph glyph-name="Gcaron" unicode="&#x1e6;" horiz-adv-x="644" 
d="M415 862q-30 36 -56 58l41 32q24 -22 48.5 -52.5t37.5 -56.5h5q23 26 59.5 56.5t70.5 52.5l30 -32q-35 -21 -80 -57t-71 -66h-41q-14 29 -44 65zM118 54q-63 64 -63 181q0 56 13 115q22 111 76 192t134 124.5t179 43.5q69 0 128 -19t85 -50l-34 -122h-23q-1 7 -1 25
q0 50 6 87q-18 18 -61 30t-84 12q-121 0 -203 -88.5t-112 -234.5q-13 -62 -13 -119q0 -97 44 -150.5t138 -53.5q27 0 63 7t63 21l52 254q-42 8 -72 18l3 12h228l-3 -10q-31 -17 -71 -22l-52 -258q-41 -28 -105.5 -43.5t-128.5 -15.5q-123 0 -186 64z" />
    <glyph glyph-name="Gcircumflex" unicode="&#x11c;" horiz-adv-x="644" 
d="M347 812q35 22 79.5 58t69.5 64h42q14 -29 44 -65t56 -57l-43 -32q-24 22 -48 52.5t-36 56.5h-5q-24 -26 -61 -56.5t-71 -52.5zM118 54q-63 64 -63 181q0 56 13 115q22 111 76 192t134 124.5t179 43.5q69 0 128 -19t85 -50l-34 -122h-23q-1 7 -1 25q0 50 6 87
q-18 18 -61 30t-84 12q-121 0 -203 -88.5t-112 -234.5q-13 -62 -13 -119q0 -97 44 -150.5t138 -53.5q27 0 63 7t63 21l52 254q-42 8 -72 18l3 12h228l-3 -10q-31 -17 -71 -22l-52 -258q-41 -28 -105.5 -43.5t-128.5 -15.5q-123 0 -186 64z" />
    <glyph glyph-name="Gcommaaccent" unicode="&#x122;" horiz-adv-x="644" 
d="M118 54q-63 64 -63 181q0 56 13 115q22 111 76 192t134 124.5t179 43.5q69 0 128 -19t85 -50l-34 -122h-23q-1 7 -1 25q0 50 6 87q-18 18 -61 30t-84 12q-121 0 -203 -88.5t-112 -234.5q-13 -62 -13 -119q0 -97 44 -150.5t138 -53.5q27 0 63 7t63 21l52 254q-42 8 -72 18
l3 12h228l-3 -10q-31 -17 -71 -22l-52 -258q-41 -28 -105.5 -43.5t-128.5 -15.5q-123 0 -186 64zM214 -277q23 22 42 51.5t27 59.5q-3 -1 -9 -1q-18 0 -28.5 10t-10.5 28q0 27 19.5 43.5t44.5 16.5q46 0 46 -46q0 -6 -2 -20q-9 -42 -38.5 -90t-65.5 -77z" />
    <glyph glyph-name="Gdotaccent" unicode="&#x120;" horiz-adv-x="644" 
d="M457 794.5q-9 9.5 -9 24.5q0 7 1 11q5 21 19 34t34 13q16 0 25 -9.5t9 -26.5q0 -7 -1 -11q-5 -20 -19 -32.5t-33 -12.5q-17 0 -26 9.5zM118 54q-63 64 -63 181q0 56 13 115q22 111 76 192t134 124.5t179 43.5q69 0 128 -19t85 -50l-34 -122h-23q-1 7 -1 25q0 50 6 87
q-18 18 -61 30t-84 12q-121 0 -203 -88.5t-112 -234.5q-13 -62 -13 -119q0 -97 44 -150.5t138 -53.5q27 0 63 7t63 21l52 254q-42 8 -72 18l3 12h228l-3 -10q-31 -17 -71 -22l-52 -258q-41 -28 -105.5 -43.5t-128.5 -15.5q-123 0 -186 64z" />
    <glyph glyph-name="uni1E20" unicode="&#x1e20;" horiz-adv-x="644" 
d="M314 819h319l-7 -35h-319zM118 54q-63 64 -63 181q0 56 13 115q22 111 76 192t134 124.5t179 43.5q69 0 128 -19t85 -50l-34 -122h-23q-1 7 -1 25q0 50 6 87q-18 18 -61 30t-84 12q-121 0 -203 -88.5t-112 -234.5q-13 -62 -13 -119q0 -97 44 -150.5t138 -53.5q27 0 63 7
t63 21l52 254q-42 8 -72 18l3 12h228l-3 -10q-31 -17 -71 -22l-52 -258q-41 -28 -105.5 -43.5t-128.5 -15.5q-123 0 -186 64z" />
    <glyph glyph-name="H" unicode="H" horiz-adv-x="759" 
d="M825 700l-2 -13q-46 -15 -83 -19l-129 -638q41 -7 73 -19l-1 -11h-241l2 10q28 10 42 14t36 6l63 307h-352l-62 -307q44 -9 71 -19l-2 -11h-240l2 12q41 14 80 18l130 639q-41 7 -72 19l2 12h240l-2 -12q-27 -10 -42 -13.5t-37 -5.5l-60 -296h351l61 296q-31 5 -71 19
l2 12h241z" />
    <glyph glyph-name="Hbar" unicode="&#x126;" horiz-adv-x="759" 
d="M740 668l-26 -128h59l-7 -36h-59l-96 -474q41 -7 73 -19l-1 -11h-241l2 10q28 10 42 14t36 6l63 307h-352l-62 -307q44 -9 71 -19l-2 -11h-240l2 12q41 14 80 18l96 474h-57l7 36h58l26 129q-41 7 -72 19l2 12h240l-2 -12q-27 -10 -42 -13.5t-37 -5.5l-26 -129h352
l26 129q-31 5 -71 19l2 12h241l-2 -13q-46 -15 -83 -19zM619 504h-352l-26 -131h351z" />
    <glyph glyph-name="uni1E2A" unicode="&#x1e2a;" horiz-adv-x="759" 
d="M825 700l-2 -13q-46 -15 -83 -19l-129 -638q41 -7 73 -19l-1 -11h-241l2 10q28 10 42 14t36 6l63 307h-352l-62 -307q44 -9 71 -19l-2 -11h-240l2 12q41 14 80 18l130 639q-41 7 -72 19l2 12h240l-2 -12q-27 -10 -42 -13.5t-37 -5.5l-60 -296h351l61 296q-31 5 -71 19
l2 12h241zM425 -50h54q-20 -62 -65.5 -93t-107.5 -31q-63 0 -96 31t-29 93h54l-1 -15q0 -73 79 -73q85 0 112 88z" />
    <glyph glyph-name="Hcircumflex" unicode="&#x124;" horiz-adv-x="759" 
d="M459 833.5q-37 -30.5 -71 -53.5l-28 32q35 22 80 58t70 64h41q15 -29 45 -65t56 -57l-43 -32q-24 22 -48.5 52.5t-36.5 56.5h-5q-23 -25 -60 -55.5zM825 700l-2 -13q-46 -15 -83 -19l-129 -638q41 -7 73 -19l-1 -11h-241l2 10q28 10 42 14t36 6l63 307h-352l-62 -307
q44 -9 71 -19l-2 -11h-240l2 12q41 14 80 18l130 639q-41 7 -72 19l2 12h240l-2 -12q-27 -10 -42 -13.5t-37 -5.5l-60 -296h351l61 296q-31 5 -71 19l2 12h241z" />
    <glyph glyph-name="uni1E24" unicode="&#x1e24;" horiz-adv-x="759" 
d="M825 700l-2 -13q-46 -15 -83 -19l-129 -638q41 -7 73 -19l-1 -11h-241l2 10q28 10 42 14t36 6l63 307h-352l-62 -307q44 -9 71 -19l-2 -11h-240l2 12q41 14 80 18l130 639q-41 7 -72 19l2 12h240l-2 -12q-27 -10 -42 -13.5t-37 -5.5l-60 -296h351l61 296q-31 5 -71 19
l2 12h241zM350.5 -68.5q9.5 -9.5 9.5 -25.5q0 -24 -15.5 -40.5t-38.5 -16.5q-16 0 -25 9t-9 24q0 8 1 12q4 21 18.5 34t33.5 13q16 0 25.5 -9.5z" />
    <glyph glyph-name="I" unicode="I" horiz-adv-x="327" 
d="M5 12q46 13 81 18l131 639q-40 7 -74 19l2 12h245l-2 -13q-36 -12 -83 -18l-130 -639q39 -7 75 -19l-2 -11h-245z" />
    <glyph glyph-name="IJ" unicode="&#x132;" horiz-adv-x="778" 
d="M5 12q46 13 81 18l131 639q-40 7 -74 19l2 12h245l-2 -13q-36 -12 -83 -18l-130 -639q39 -7 75 -19l-2 -11h-245zM313 39l19 24q19 -14 45.5 -22t56.5 -8q106 0 130 110l106 525q-39 6 -72 18l3 14h241l-2 -13q-44 -15 -81 -19l-106 -525q-15 -74 -70 -113.5t-133 -39.5
q-90 0 -137 49z" />
    <glyph glyph-name="Iacute" unicode="&#xcd;" horiz-adv-x="327" 
d="M197 809l130 106q14 11 24.5 17t23.5 6q15 0 21 -8t3 -19q-4 -23 -39 -43l-153 -82zM5 12q46 13 81 18l131 639q-40 7 -74 19l2 12h245l-2 -13q-36 -12 -83 -18l-130 -639q39 -7 75 -19l-2 -11h-245z" />
    <glyph glyph-name="Ibreve" unicode="&#x12c;" horiz-adv-x="327" 
d="M186.5 808q-32.5 31 -28.5 93h53l-1 -15q0 -72 80 -72q37 0 67 18t45 69h54q-20 -62 -65.5 -93t-108.5 -31t-95.5 31zM5 12q46 13 81 18l131 639q-40 7 -74 19l2 12h245l-2 -13q-36 -12 -83 -18l-130 -639q39 -7 75 -19l-2 -11h-245z" />
    <glyph glyph-name="uni01CF" unicode="&#x1cf;" horiz-adv-x="327" 
d="M219 851q-30 36 -56 58l41 32q25 -22 49.5 -52.5t36.5 -56.5h5q23 26 59.5 56.5t70.5 52.5l30 -32q-35 -21 -80 -57t-71 -66h-41q-14 29 -44 65zM5 12q46 13 81 18l131 639q-40 7 -74 19l2 12h245l-2 -13q-36 -12 -83 -18l-130 -639q39 -7 75 -19l-2 -11h-245z" />
    <glyph glyph-name="Icircumflex" unicode="&#xce;" horiz-adv-x="327" 
d="M143 812q35 22 80 58t70 64h41q15 -29 45 -65t56 -57l-43 -32q-24 22 -48.5 52.5t-36.5 56.5h-5q-23 -25 -60 -55.5t-71 -53.5zM5 12q46 13 81 18l131 639q-40 7 -74 19l2 12h245l-2 -13q-36 -12 -83 -18l-130 -639q39 -7 75 -19l-2 -11h-245z" />
    <glyph glyph-name="Idieresis" unicode="&#xcf;" horiz-adv-x="327" 
d="M153 794.5q-9 9.5 -9 23.5q0 8 1 12q5 21 18.5 34t32.5 13q16 0 25 -9t9 -25q0 -25 -15 -41.5t-38 -16.5q-15 0 -24 9.5zM363 794q-9 9 -9 24q0 8 1 12q5 21 19 34t33 13q16 0 25.5 -9.5t9.5 -26.5q0 -7 -1 -11q-5 -20 -19.5 -32.5t-33.5 -12.5q-16 0 -25 9zM5 12
q46 13 81 18l131 639q-40 7 -74 19l2 12h245l-2 -13q-36 -12 -83 -18l-130 -639q39 -7 75 -19l-2 -11h-245z" />
    <glyph glyph-name="Idotaccent" unicode="&#x130;" horiz-adv-x="327" 
d="M256.5 794q-9.5 9 -9.5 23q0 5 2 13q4 21 18.5 34t33.5 13q16 0 25 -9.5t9 -25.5q0 -24 -15.5 -40.5t-37.5 -16.5q-16 0 -25.5 9zM5 12q46 13 81 18l131 639q-40 7 -74 19l2 12h245l-2 -13q-36 -12 -83 -18l-130 -639q39 -7 75 -19l-2 -11h-245z" />
    <glyph glyph-name="uni1ECA" unicode="&#x1eca;" horiz-adv-x="327" 
d="M5 12q46 13 81 18l131 639q-40 7 -74 19l2 12h245l-2 -13q-36 -12 -83 -18l-130 -639q39 -7 75 -19l-2 -11h-245zM68 -142q-9 9 -9 24q0 8 1 12q4 21 18.5 34t33.5 13q16 0 25.5 -9.5t9.5 -25.5q0 -24 -15.5 -40.5t-38.5 -16.5q-16 0 -25 9z" />
    <glyph glyph-name="Igrave" unicode="&#xcc;" horiz-adv-x="327" 
d="M241 868q-28 20 -24 43q2 11 12 19t24 8q22 0 38 -22l90 -107l-20 -23zM5 12q46 13 81 18l131 639q-40 7 -74 19l2 12h245l-2 -13q-36 -12 -83 -18l-130 -639q39 -7 75 -19l-2 -11h-245z" />
    <glyph glyph-name="uni1EC8" unicode="&#x1ec8;" horiz-adv-x="327" 
d="M282 869h23q29 0 48 14t23 38q1 3 1 9q0 17 -12 27t-36 10q-27 0 -58 -16l-1 30q15 7 36 12t42 5q35 0 57 -15t22 -46q0 -6 -2 -18q-7 -34 -32 -53t-64 -23l-23 -64h-37zM5 12q46 13 81 18l131 639q-40 7 -74 19l2 12h245l-2 -13q-36 -12 -83 -18l-130 -639q39 -7 75 -19
l-2 -11h-245z" />
    <glyph glyph-name="Imacron" unicode="&#x12a;" horiz-adv-x="327" 
d="M123 820h339l-8 -35h-339zM5 12q46 13 81 18l131 639q-40 7 -74 19l2 12h245l-2 -13q-36 -12 -83 -18l-130 -639q39 -7 75 -19l-2 -11h-245z" />
    <glyph glyph-name="Iogonek" unicode="&#x12e;" horiz-adv-x="327" 
d="M390 700l-2 -13q-36 -12 -83 -18l-130 -639q39 -7 75 -19l-2 -11h-23q-33 -18 -56.5 -46.5t-23.5 -57.5q0 -19 13.5 -29t35.5 -10q26 0 55 14l-9 -41q-39 -17 -83 -17q-40 0 -61.5 18t-21.5 46q0 37 29 72t74 51h-174l2 12q46 13 81 18l131 639q-40 7 -74 19l2 12h245z
" />
    <glyph glyph-name="Itilde" unicode="&#x128;" horiz-adv-x="327" 
d="M167 861q29 25 68 25q20 0 37 -8t39 -23q19 -13 30 -18.5t23 -5.5q22 0 41.5 14.5t33.5 45.5h29q-16 -49 -45 -76.5t-70 -27.5q-16 0 -31.5 7.5t-39.5 22.5q-18 13 -31.5 19.5t-25.5 6.5q-23 0 -42.5 -15.5t-29.5 -41.5h-32q17 50 46 75zM5 12q46 13 81 18l131 639
q-40 7 -74 19l2 12h245l-2 -13q-36 -12 -83 -18l-130 -639q39 -7 75 -19l-2 -11h-245z" />
    <glyph glyph-name="J" unicode="J" horiz-adv-x="454" 
d="M-11 39l20 24q42 -30 101 -30q107 0 130 110l107 525q-39 6 -72 18l2 14h241l-2 -13q-45 -16 -80 -19l-107 -525q-15 -74 -69.5 -113.5t-132.5 -39.5q-91 0 -138 49z" />
    <glyph glyph-name="Jcircumflex" unicode="&#x134;" horiz-adv-x="454" 
d="M275 812q35 22 79.5 58t69.5 64h42q15 -29 44.5 -65t55.5 -57l-43 -32q-24 22 -48 52.5t-36 56.5h-5q-24 -26 -61 -56.5t-71 -52.5zM-11 39l20 24q42 -30 101 -30q107 0 130 110l107 525q-39 6 -72 18l2 14h241l-2 -13q-45 -16 -80 -19l-107 -525q-15 -74 -69.5 -113.5
t-132.5 -39.5q-91 0 -138 49z" />
    <glyph glyph-name="K" unicode="K" horiz-adv-x="707" 
d="M2 12q19 6 43 11t38 7l130 639q-45 7 -73 19l2 12h244l-2 -13q-38 -12 -82 -18l-70 -343l357 329q8 8 8 11q0 8 -22 12.5t-44 5.5l3 16h193l-3 -16q-9 -2 -23.5 -4t-26 -5.5t-20.5 -12.5l-278 -253l209 -379q48 -10 75 -19l-1 -11h-154l-193 351l-92 -86l-48 -235
q39 -6 74 -19l-2 -11h-244z" />
    <glyph glyph-name="Kcommaaccent" unicode="&#x136;" horiz-adv-x="707" 
d="M2 12q19 6 43 11t38 7l130 639q-45 7 -73 19l2 12h244l-2 -13q-38 -12 -82 -18l-70 -343l357 329q8 8 8 11q0 8 -22 12.5t-44 5.5l3 16h193l-3 -16q-9 -2 -23.5 -4t-26 -5.5t-20.5 -12.5l-278 -253l209 -379q48 -10 75 -19l-1 -11h-154l-193 351l-92 -86l-48 -235
q39 -6 74 -19l-2 -11h-244zM235 -277q23 22 42 51.5t27 59.5q-3 -1 -9 -1q-18 0 -28.5 10t-10.5 28q0 27 19.5 43.5t44.5 16.5q24 0 35 -12t11 -33q0 -14 -2 -21q-9 -42 -38.5 -90t-65.5 -77z" />
    <glyph glyph-name="L" unicode="L" horiz-adv-x="575" 
d="M2 12q43 13 84 18l131 639q-43 7 -74 19l2 12h244l-2 -13q-38 -12 -81 -18l-129 -634h269q6 21 26 57t33 52h20l-42 -144h-483z" />
    <glyph glyph-name="Lacute" unicode="&#x139;" horiz-adv-x="575" 
d="M243 809l130 106q14 11 24.5 17t23.5 6q15 0 21 -8t3 -19q-3 -23 -39 -43l-153 -82zM2 12q43 13 84 18l131 639q-43 7 -74 19l2 12h244l-2 -13q-38 -12 -81 -18l-129 -634h269q6 21 26 57t33 52h20l-42 -144h-483z" />
    <glyph glyph-name="Lcaron" unicode="&#x13d;" horiz-adv-x="575" 
d="M452 496q23 23 42.5 52.5t28.5 58.5l-10 -1q-16 0 -28 9.5t-12 28.5q0 27 18 46.5t47 19.5q47 0 47 -48q0 -41 -32.5 -98.5t-74.5 -92.5zM2 12q43 13 84 18l131 639q-43 7 -74 19l2 12h244l-2 -13q-38 -12 -81 -18l-129 -634h269q6 21 26 57t33 52h20l-42 -144h-483z" />
    <glyph glyph-name="Lcommaaccent" unicode="&#x13b;" horiz-adv-x="575" 
d="M2 12q43 13 84 18l131 639q-43 7 -74 19l2 12h244l-2 -13q-38 -12 -81 -18l-129 -634h269q6 21 26 57t33 52h20l-42 -144h-483zM166 -277q23 22 42 51.5t27 59.5q-3 -1 -9 -1q-18 0 -28.5 10t-10.5 28q0 27 19.5 43.5t44.5 16.5q46 0 46 -46q0 -6 -2 -20
q-9 -42 -38.5 -90t-65.5 -77z" />
    <glyph glyph-name="Ldot" unicode="&#x13f;" horiz-adv-x="575" 
d="M2 12q43 13 84 18l131 639q-43 7 -74 19l2 12h244l-2 -13q-38 -12 -81 -18l-129 -634h269q6 21 26 57t33 52h20l-42 -144h-483zM384.5 340.5q-9.5 9.5 -9.5 25.5q0 23 15.5 39.5t37.5 16.5q16 0 26 -9.5t10 -25.5q0 -6 -1 -10q-4 -21 -18.5 -33.5t-34.5 -12.5
q-16 0 -25.5 9.5z" />
    <glyph glyph-name="uni1E36" unicode="&#x1e36;" horiz-adv-x="575" 
d="M2 12q43 13 84 18l131 639q-43 7 -74 19l2 12h244l-2 -13q-38 -12 -81 -18l-129 -634h269q6 21 26 57t33 52h20l-42 -144h-483zM218 -135q-9 9 -9 24q0 25 15 41.5t38 16.5q16 0 25.5 -10t9.5 -26l-1 -9q-4 -21 -18.5 -33.5t-33.5 -12.5q-17 0 -26 9z" />
    <glyph glyph-name="uni1E38" unicode="&#x1e38;" horiz-adv-x="575" 
d="M132 819h319l-7 -34h-320zM2 12q43 13 84 18l131 639q-43 7 -74 19l2 12h244l-2 -13q-38 -12 -81 -18l-129 -634h269q6 21 26 57t33 52h20l-42 -144h-483zM217 -134.5q-9 9.5 -9 25.5q0 23 15 39.5t37 16.5q16 0 26 -9.5t10 -25.5q0 -6 -1 -10q-4 -21 -18.5 -33.5
t-34.5 -12.5q-16 0 -25 9.5z" />
    <glyph glyph-name="uni1E3A" unicode="&#x1e3a;" horiz-adv-x="575" 
d="M2 12q43 13 84 18l131 639q-43 7 -74 19l2 12h244l-2 -13q-38 -12 -81 -18l-129 -634h269q6 21 26 57t33 52h20l-42 -144h-483zM83 -69h318l-7 -35h-319z" />
    <glyph glyph-name="Lslash" unicode="&#x141;" horiz-adv-x="575" 
d="M525 144l-42 -144h-483l2 12q43 13 84 18l50 243l-90 -31l10 48l90 31l71 348q-43 7 -74 19l2 12h244l-2 -13q-38 -12 -81 -18l-64 -314l216 75l-10 -48l-216 -75l-55 -272h269q6 21 26 57t33 52h20z" />
    <glyph glyph-name="M" unicode="M" horiz-adv-x="876" 
d="M2 11q39 12 81 18l130 640q-45 7 -73 19l2 12h180l104 -544l338 544h178l-2 -12q-40 -13 -82 -20l-129 -639q41 -7 73 -18l-2 -11h-243l2 11q38 11 80 19l122 600l-344 -553h-52l-114 559l-124 -606q43 -9 73 -19l-2 -11h-198z" />
    <glyph glyph-name="uni1E42" unicode="&#x1e42;" horiz-adv-x="876" 
d="M2 11q39 12 81 18l130 640q-45 7 -73 19l2 12h180l104 -544l338 544h178l-2 -12q-40 -13 -82 -20l-129 -639q41 -7 73 -18l-2 -11h-243l2 11q38 11 80 19l122 600l-344 -553h-52l-114 559l-124 -606q43 -9 73 -19l-2 -11h-198zM342.5 -142q-9.5 9 -9.5 24q0 8 1 12
q5 21 19.5 34t33.5 13q16 0 25 -9t9 -25q0 -25 -15 -41.5t-38 -16.5q-16 0 -25.5 9z" />
    <glyph glyph-name="N" unicode="N" horiz-adv-x="747" 
d="M2 11q39 12 81 18l130 640q-45 7 -73 19l2 12h175l255 -583l113 553q-37 6 -73 18l2 12h198l-2 -12q-36 -11 -81 -19l-137 -669h-51l-289 649l-125 -619q43 -9 73 -19l-2 -11h-198z" />
    <glyph glyph-name="Nacute" unicode="&#x143;" horiz-adv-x="747" 
d="M442 809l130 106q14 11 24.5 17t23.5 6q14 0 20 -8t4 -19q-4 -23 -39 -43l-153 -82zM2 11q39 12 81 18l130 640q-45 7 -73 19l2 12h175l255 -583l113 553q-37 6 -73 18l2 12h198l-2 -12q-36 -11 -81 -19l-137 -669h-51l-289 649l-125 -619q43 -9 73 -19l-2 -11h-198z" />
    <glyph glyph-name="Ncaron" unicode="&#x147;" horiz-adv-x="747" 
d="M428 851q-30 36 -56 58l42 32q25 -23 49 -53.5t36 -55.5h5q24 26 61 57t70 52l29 -32q-36 -21 -80.5 -57.5t-69.5 -65.5h-42q-14 29 -44 65zM2 11q39 12 81 18l130 640q-45 7 -73 19l2 12h175l255 -583l113 553q-37 6 -73 18l2 12h198l-2 -12q-36 -11 -81 -19l-137 -669
h-51l-289 649l-125 -619q43 -9 73 -19l-2 -11h-198z" />
    <glyph glyph-name="Ncommaaccent" unicode="&#x145;" horiz-adv-x="747" 
d="M2 11q39 12 81 18l130 640q-45 7 -73 19l2 12h175l255 -583l113 553q-37 6 -73 18l2 12h198l-2 -12q-36 -11 -81 -19l-137 -669h-51l-289 649l-125 -619q43 -9 73 -19l-2 -11h-198zM235 -277q23 22 42 51.5t27 59.5q-3 -1 -9 -1q-18 0 -28.5 10t-10.5 28q0 27 19.5 43.5
t44.5 16.5q24 0 35 -12t11 -33q0 -14 -2 -21q-9 -42 -38.5 -90t-65.5 -77z" />
    <glyph glyph-name="uni1E44" unicode="&#x1e44;" horiz-adv-x="747" 
d="M470.5 794q-9.5 9 -9.5 23q0 5 2 13q4 21 18.5 34t34.5 13q15 0 24 -9.5t9 -25.5q0 -24 -15.5 -40.5t-37.5 -16.5q-16 0 -25.5 9zM2 11q39 12 81 18l130 640q-45 7 -73 19l2 12h175l255 -583l113 553q-37 6 -73 18l2 12h198l-2 -12q-36 -11 -81 -19l-137 -669h-51
l-289 649l-125 -619q43 -9 73 -19l-2 -11h-198z" />
    <glyph glyph-name="uni1E46" unicode="&#x1e46;" horiz-adv-x="747" 
d="M2 11q39 12 81 18l130 640q-45 7 -73 19l2 12h175l255 -583l113 553q-37 6 -73 18l2 12h198l-2 -12q-36 -11 -81 -19l-137 -669h-51l-289 649l-125 -619q43 -9 73 -19l-2 -11h-198zM269.5 -142q-9.5 9 -9.5 24q0 8 1 12q5 21 19.5 34t33.5 13q16 0 25.5 -9.5t9.5 -26.5
q0 -7 -1 -11q-5 -20 -19.5 -32.5t-33.5 -12.5q-16 0 -25.5 9z" />
    <glyph glyph-name="Eng" unicode="&#x14a;" horiz-adv-x="747" 
d="M285 -215l13 25q40 -19 93 -19q52 0 89 24.5t48 78.5l21 102l-297 653l-125 -619q43 -9 73 -19l-2 -11h-198l2 11q39 12 81 18l130 640q-45 7 -73 19l2 12h175l255 -583l113 553q-37 6 -73 18l2 12h198l-2 -12q-36 -11 -81 -19l-159 -777q-14 -69 -58.5 -105t-112.5 -36
q-63 0 -114 34z" />
    <glyph glyph-name="uni1E48" unicode="&#x1e48;" horiz-adv-x="747" 
d="M2 11q39 12 81 18l130 640q-45 7 -73 19l2 12h175l255 -583l113 553q-37 6 -73 18l2 12h198l-2 -12q-36 -11 -81 -19l-137 -669h-51l-289 649l-125 -619q43 -9 73 -19l-2 -11h-198zM163 -69h319l-8 -35h-318z" />
    <glyph glyph-name="Ntilde" unicode="&#xd1;" horiz-adv-x="747" 
d="M381 861q29 25 68 25q21 0 38 -8t38 -23q18 -13 29.5 -18.5t23.5 -5.5q23 0 42.5 14.5t32.5 45.5h30q-16 -49 -45.5 -76.5t-70.5 -27.5q-16 0 -31.5 7.5t-39.5 22.5q-18 13 -31.5 19.5t-25.5 6.5q-23 0 -42.5 -15.5t-29.5 -41.5h-32q17 50 46 75zM2 11q39 12 81 18
l130 640q-45 7 -73 19l2 12h175l255 -583l113 553q-37 6 -73 18l2 12h198l-2 -12q-36 -11 -81 -19l-137 -669h-51l-289 649l-125 -619q43 -9 73 -19l-2 -11h-198z" />
    <glyph glyph-name="O" unicode="O" horiz-adv-x="686" 
d="M117.5 54q-62.5 64 -62.5 182q0 47 13 114q34 169 133 264.5t247 95.5q121 0 184.5 -65t63.5 -184q0 -51 -12 -111q-36 -169 -135.5 -264.5t-247.5 -95.5q-121 0 -183.5 64zM490.5 115.5q73.5 88.5 103.5 234.5q13 62 13 119q0 96 -41 150t-124 54q-108 0 -181.5 -88.5
t-103.5 -234.5q-13 -62 -13 -120q0 -96 40.5 -149.5t124.5 -53.5q108 0 181.5 88.5z" />
    <glyph glyph-name="Oacute" unicode="&#xd3;" horiz-adv-x="686" 
d="M381 809l131 106q26 23 48 23q14 0 20 -8t4 -19q-4 -23 -40 -43l-152 -82zM117.5 54q-62.5 64 -62.5 182q0 47 13 114q34 169 133 264.5t247 95.5q121 0 184.5 -65t63.5 -184q0 -51 -12 -111q-36 -169 -135.5 -264.5t-247.5 -95.5q-121 0 -183.5 64zM490.5 115.5
q73.5 88.5 103.5 234.5q13 62 13 119q0 96 -41 150t-124 54q-108 0 -181.5 -88.5t-103.5 -234.5q-13 -62 -13 -120q0 -96 40.5 -149.5t124.5 -53.5q108 0 181.5 88.5z" />
    <glyph glyph-name="Obreve" unicode="&#x14e;" horiz-adv-x="686" 
d="M370 802q-33 27 -33 81l1 16h53q-1 -6 -1 -16q0 -42 22.5 -56.5t56.5 -14.5q38 0 68 18t45 69h54q-20 -62 -66 -93t-108 -31q-59 0 -92 27zM117.5 54q-62.5 64 -62.5 182q0 47 13 114q34 169 133 264.5t247 95.5q121 0 184.5 -65t63.5 -184q0 -51 -12 -111
q-36 -169 -135.5 -264.5t-247.5 -95.5q-121 0 -183.5 64zM490.5 115.5q73.5 88.5 103.5 234.5q13 62 13 119q0 96 -41 150t-124 54q-108 0 -181.5 -88.5t-103.5 -234.5q-13 -62 -13 -120q0 -96 40.5 -149.5t124.5 -53.5q108 0 181.5 88.5z" />
    <glyph glyph-name="uni01D1" unicode="&#x1d1;" horiz-adv-x="686" 
d="M399 851q-30 36 -55 58l41 32q24 -22 48.5 -52.5t36.5 -56.5h5q24 26 61 56.5t70 52.5l30 -32q-36 -21 -81 -57t-70 -66h-41q-15 29 -45 65zM117.5 54q-62.5 64 -62.5 182q0 47 13 114q34 169 133 264.5t247 95.5q121 0 184.5 -65t63.5 -184q0 -51 -12 -111
q-36 -169 -135.5 -264.5t-247.5 -95.5q-121 0 -183.5 64zM490.5 115.5q73.5 88.5 103.5 234.5q13 62 13 119q0 96 -41 150t-124 54q-108 0 -181.5 -88.5t-103.5 -234.5q-13 -62 -13 -120q0 -96 40.5 -149.5t124.5 -53.5q108 0 181.5 88.5z" />
    <glyph glyph-name="Ocircumflex" unicode="&#xd4;" horiz-adv-x="686" 
d="M323 812q35 22 79.5 58t69.5 64h42q15 -29 44.5 -65t55.5 -57l-43 -32q-24 22 -48 52.5t-36 56.5h-5q-24 -26 -61 -56.5t-71 -52.5zM117.5 54q-62.5 64 -62.5 182q0 47 13 114q34 169 133 264.5t247 95.5q121 0 184.5 -65t63.5 -184q0 -51 -12 -111
q-36 -169 -135.5 -264.5t-247.5 -95.5q-121 0 -183.5 64zM490.5 115.5q73.5 88.5 103.5 234.5q13 62 13 119q0 96 -41 150t-124 54q-108 0 -181.5 -88.5t-103.5 -234.5q-13 -62 -13 -120q0 -96 40.5 -149.5t124.5 -53.5q108 0 181.5 88.5z" />
    <glyph glyph-name="uni1ED0" unicode="&#x1ed0;" horiz-adv-x="686" 
d="M590 921l94 79q18 16 34.5 24.5t28.5 8.5q10 0 15.5 -6.5t3.5 -16.5q-2 -13 -15.5 -27t-38.5 -26l-111 -57zM323 812q35 21 79.5 57t70.5 65h41q15 -28 44.5 -64t54.5 -58l-41 -32q-24 21 -48 52t-37 57h-4q-25 -26 -62 -56.5t-69 -52.5zM117.5 54q-62.5 64 -62.5 182
q0 47 13 114q34 169 133 264.5t247 95.5q121 0 184.5 -65t63.5 -184q0 -51 -12 -111q-36 -169 -135.5 -264.5t-247.5 -95.5q-121 0 -183.5 64zM490.5 115.5q73.5 88.5 103.5 234.5q13 62 13 119q0 96 -41 150t-124 54q-108 0 -181.5 -88.5t-103.5 -234.5q-13 -62 -13 -120
q0 -96 40.5 -149.5t124.5 -53.5q108 0 181.5 88.5z" />
    <glyph glyph-name="uni1ED8" unicode="&#x1ed8;" horiz-adv-x="686" 
d="M402.5 870q44.5 36 69.5 64h42q15 -29 44.5 -65t55.5 -57l-43 -32q-24 22 -48 52.5t-36 56.5h-5q-24 -26 -61 -56.5t-71 -52.5l-27 32q35 22 79.5 58zM201 614.5q99 95.5 247 95.5q121 0 184.5 -65t63.5 -184q0 -51 -12 -111q-36 -169 -135.5 -264.5t-247.5 -95.5
q-121 0 -183.5 64t-62.5 182q0 47 13 114q34 169 133 264.5zM144 230q0 -96 40.5 -149.5t124.5 -53.5q108 0 181.5 88.5t103.5 234.5q13 62 13 119q0 96 -41 150t-124 54q-108 0 -181.5 -88.5t-103.5 -234.5q-13 -62 -13 -120zM258.5 -72q14.5 13 33.5 13q16 0 25 -9t9 -25
q0 -25 -15 -41.5t-38 -16.5q-16 0 -25.5 9t-9.5 24q0 8 1 12q5 21 19.5 34z" />
    <glyph glyph-name="uni1ED2" unicode="&#x1ed2;" horiz-adv-x="686" 
d="M266 1024.5q9 8.5 21 8.5q13 0 27.5 -11t29.5 -30l54 -71l-19 -21l-79 51q-20 13 -31.5 27t-11.5 27q0 11 9 19.5zM402.5 869q44.5 36 70.5 65h41q15 -28 44.5 -64t54.5 -58l-41 -32q-24 21 -48 52t-37 57h-4q-25 -26 -62 -56.5t-69 -52.5l-29 32q35 21 79.5 57z
M201 614.5q99 95.5 247 95.5q121 0 184.5 -65t63.5 -184q0 -51 -12 -111q-36 -169 -135.5 -264.5t-247.5 -95.5q-121 0 -183.5 64t-62.5 182q0 47 13 114q34 169 133 264.5zM144 230q0 -96 40.5 -149.5t124.5 -53.5q108 0 181.5 88.5t103.5 234.5q13 62 13 119q0 96 -41 150
t-124 54q-108 0 -181.5 -88.5t-103.5 -234.5q-13 -62 -13 -120z" />
    <glyph glyph-name="uni1ED4" unicode="&#x1ed4;" horiz-adv-x="686" 
d="M596 967h19q25 0 40.5 11t20.5 31q3 17 -7 27t-33 10q-25 0 -50 -13v27q32 14 65 14q30 0 50.5 -13t20.5 -38q0 -5 -2 -15q-13 -57 -84 -63l-19 -53h-32zM403.5 870q44.5 36 70.5 65h41q15 -28 44.5 -64t54.5 -58l-41 -32q-24 21 -48 52t-37 57h-4q-25 -26 -62 -56.5
t-69 -52.5l-29 32q35 21 79.5 57zM201 614.5q99 95.5 247 95.5q121 0 184.5 -65t63.5 -184q0 -51 -12 -111q-36 -169 -135.5 -264.5t-247.5 -95.5q-121 0 -183.5 64t-62.5 182q0 47 13 114q34 169 133 264.5zM144 230q0 -96 40.5 -149.5t124.5 -53.5q108 0 181.5 88.5
t103.5 234.5q13 62 13 119q0 96 -41 150t-124 54q-108 0 -181.5 -88.5t-103.5 -234.5q-13 -62 -13 -120z" />
    <glyph glyph-name="uni1ED6" unicode="&#x1ed6;" horiz-adv-x="686" 
d="M455 1063q19 0 35.5 -8t36.5 -23q15 -12 26.5 -18t23.5 -6q44 0 71 60h29q-16 -49 -44.5 -76.5t-67.5 -27.5q-16 0 -30 7t-37 23q-17 13 -29.5 19.5t-24.5 6.5q-21 0 -39.5 -15.5t-30.5 -41.5h-29q33 100 110 100zM323 812q35 21 79.5 57t70.5 65h41q15 -28 44.5 -64
t54.5 -58l-41 -32q-24 21 -48 52t-37 57h-4q-25 -26 -62 -56.5t-69 -52.5zM117.5 54q-62.5 64 -62.5 182q0 47 13 114q34 169 133 264.5t247 95.5q121 0 184.5 -65t63.5 -184q0 -51 -12 -111q-36 -169 -135.5 -264.5t-247.5 -95.5q-121 0 -183.5 64zM490.5 115.5
q73.5 88.5 103.5 234.5q13 62 13 119q0 96 -41 150t-124 54q-108 0 -181.5 -88.5t-103.5 -234.5q-13 -62 -13 -120q0 -96 40.5 -149.5t124.5 -53.5q108 0 181.5 88.5z" />
    <glyph glyph-name="Odieresis" unicode="&#xd6;" horiz-adv-x="686" 
d="M332 794.5q-9 9.5 -9 24.5q0 7 1 11q5 21 18.5 34t32.5 13q16 0 25.5 -9.5t9.5 -25.5q0 -24 -15.5 -40.5t-38.5 -16.5q-15 0 -24 9.5zM542 793.5q-9 8.5 -9 23.5q0 5 2 13q4 21 18.5 34t33.5 13q16 0 25 -9.5t9 -25.5q0 -24 -15.5 -40.5t-38.5 -16.5q-16 0 -25 8.5z
M117.5 54q-62.5 64 -62.5 182q0 47 13 114q34 169 133 264.5t247 95.5q121 0 184.5 -65t63.5 -184q0 -51 -12 -111q-36 -169 -135.5 -264.5t-247.5 -95.5q-121 0 -183.5 64zM490.5 115.5q73.5 88.5 103.5 234.5q13 62 13 119q0 96 -41 150t-124 54q-108 0 -181.5 -88.5
t-103.5 -234.5q-13 -62 -13 -120q0 -96 40.5 -149.5t124.5 -53.5q108 0 181.5 88.5z" />
    <glyph glyph-name="uni1ECC" unicode="&#x1ecc;" horiz-adv-x="686" 
d="M201 614.5q99 95.5 247 95.5q121 0 184.5 -65t63.5 -184q0 -51 -12 -111q-36 -169 -135.5 -264.5t-247.5 -95.5q-121 0 -183.5 64t-62.5 182q0 47 13 114q34 169 133 264.5zM144 230q0 -96 40.5 -149.5t124.5 -53.5q108 0 181.5 88.5t103.5 234.5q13 62 13 119
q0 96 -41 150t-124 54q-108 0 -181.5 -88.5t-103.5 -234.5q-13 -62 -13 -120zM258.5 -72q14.5 13 33.5 13q16 0 25 -9t9 -25q0 -25 -15 -41.5t-38 -16.5q-16 0 -25.5 9t-9.5 24q0 8 1 12q5 21 19.5 34z" />
    <glyph glyph-name="Ograve" unicode="&#xd2;" horiz-adv-x="686" 
d="M417 868q-28 19 -24 43q2 11 12 19t24 8q21 0 38 -22l90 -107l-20 -23zM117.5 54q-62.5 64 -62.5 182q0 47 13 114q34 169 133 264.5t247 95.5q121 0 184.5 -65t63.5 -184q0 -51 -12 -111q-36 -169 -135.5 -264.5t-247.5 -95.5q-121 0 -183.5 64zM490.5 115.5
q73.5 88.5 103.5 234.5q13 62 13 119q0 96 -41 150t-124 54q-108 0 -181.5 -88.5t-103.5 -234.5q-13 -62 -13 -120q0 -96 40.5 -149.5t124.5 -53.5q108 0 181.5 88.5z" />
    <glyph glyph-name="uni1ECE" unicode="&#x1ece;" horiz-adv-x="686" 
d="M456 869h23q28 0 47 14t24 38q1 3 1 9q0 16 -12.5 26.5t-35.5 10.5q-27 0 -59 -16v30q36 17 77 17q35 0 57.5 -15.5t22.5 -46.5q0 -5 -2 -17q-14 -68 -96 -76l-23 -64h-37zM117.5 54q-62.5 64 -62.5 182q0 47 13 114q34 169 133 264.5t247 95.5q121 0 184.5 -65
t63.5 -184q0 -51 -12 -111q-36 -169 -135.5 -264.5t-247.5 -95.5q-121 0 -183.5 64zM490.5 115.5q73.5 88.5 103.5 234.5q13 62 13 119q0 96 -41 150t-124 54q-108 0 -181.5 -88.5t-103.5 -234.5q-13 -62 -13 -120q0 -96 40.5 -149.5t124.5 -53.5q108 0 181.5 88.5z" />
    <glyph glyph-name="Ohorn" unicode="&#x1a0;" horiz-adv-x="708" 
d="M815 692q0 -14 -3 -26q-6 -34 -37 -73.5t-83 -74.5q4 -24 4 -58q0 -51 -12 -110q-36 -169 -135.5 -264.5t-247.5 -95.5q-121 0 -183.5 64t-62.5 182q0 47 13 114q34 169 133 264.5t247 95.5q96 0 156.5 -41.5t80.5 -118.5q25 19 45.5 43t28.5 50q-7 -5 -19 -5
q-16 0 -25.5 9.5t-9.5 25.5q0 23 16 43t47 20q47 0 47 -44zM607 469q0 96 -41 150t-124 54q-108 0 -181.5 -88.5t-103.5 -234.5q-13 -62 -13 -120q0 -96 40.5 -149.5t124.5 -53.5q108 0 181.5 88.5t103.5 234.5q13 62 13 119z" />
    <glyph glyph-name="uni1EDA" unicode="&#x1eda;" horiz-adv-x="708" 
d="M393 785l-11 23l131 106q26 23 48 23q14 0 20 -8t4 -19q-4 -23 -40 -43zM815 692q0 -14 -3 -26q-6 -34 -37 -73.5t-83 -74.5q4 -24 4 -58q0 -51 -12 -110q-36 -169 -135.5 -264.5t-247.5 -95.5q-121 0 -183.5 64t-62.5 182q0 47 13 114q34 169 133 264.5t247 95.5
q96 0 156.5 -41.5t80.5 -118.5q25 19 45.5 43t28.5 50q-7 -5 -19 -5q-16 0 -25.5 9.5t-9.5 25.5q0 23 16 43t47 20q47 0 47 -44zM607 469q0 96 -41 150t-124 54q-108 0 -181.5 -88.5t-103.5 -234.5q-13 -62 -13 -120q0 -96 40.5 -149.5t124.5 -53.5q108 0 181.5 88.5
t103.5 234.5q13 62 13 119z" />
    <glyph glyph-name="uni1EE2" unicode="&#x1ee2;" horiz-adv-x="708" 
d="M815 692q0 -14 -3 -26q-6 -34 -37 -73.5t-83 -74.5q4 -24 4 -58q0 -51 -12 -110q-36 -169 -135.5 -264.5t-247.5 -95.5q-121 0 -183.5 64t-62.5 182q0 47 13 114q34 169 133 264.5t247 95.5q96 0 156.5 -41.5t80.5 -118.5q25 19 45.5 43t28.5 50q-7 -5 -19 -5
q-16 0 -25.5 9.5t-9.5 25.5q0 23 16 43t47 20q47 0 47 -44zM607 469q0 96 -41 150t-124 54q-108 0 -181.5 -88.5t-103.5 -234.5q-13 -62 -13 -120q0 -96 40.5 -149.5t124.5 -53.5q108 0 181.5 88.5t103.5 234.5q13 62 13 119zM317 -68q9 -9 9 -25q0 -25 -15 -41.5t-38 -16.5
q-16 0 -25.5 9t-9.5 24q0 8 1 12q5 21 19.5 34t33.5 13q16 0 25 -9z" />
    <glyph glyph-name="uni1EDC" unicode="&#x1edc;" horiz-adv-x="708" 
d="M394 910q2 10 12 18.5t24 8.5q22 0 38 -22l90 -107l-20 -23l-120 82q-28 19 -24 43zM815 692q0 -14 -3 -26q-6 -34 -37 -73.5t-83 -74.5q4 -24 4 -58q0 -51 -12 -110q-36 -169 -135.5 -264.5t-247.5 -95.5q-121 0 -183.5 64t-62.5 182q0 47 13 114q34 169 133 264.5
t247 95.5q96 0 156.5 -41.5t80.5 -118.5q25 19 45.5 43t28.5 50q-7 -5 -19 -5q-16 0 -25.5 9.5t-9.5 25.5q0 23 16 43t47 20q47 0 47 -44zM607 469q0 96 -41 150t-124 54q-108 0 -181.5 -88.5t-103.5 -234.5q-13 -62 -13 -120q0 -96 40.5 -149.5t124.5 -53.5
q108 0 181.5 88.5t103.5 234.5q13 62 13 119z" />
    <glyph glyph-name="uni1EDE" unicode="&#x1ede;" horiz-adv-x="708" 
d="M524.5 882q18.5 14 23.5 38q1 3 1 9q0 17 -12 27t-36 10q-27 0 -58 -16l-1 30q15 7 36 12t41 5q35 0 57.5 -15.5t22.5 -46.5q0 -5 -2 -17q-7 -34 -32 -53t-64 -23l-23 -64h-37l13 90h23q29 0 47.5 14zM815 692q0 -14 -3 -26q-6 -34 -37 -73.5t-83 -74.5q4 -24 4 -58
q0 -51 -12 -110q-36 -169 -135.5 -264.5t-247.5 -95.5q-121 0 -183.5 64t-62.5 182q0 47 13 114q34 169 133 264.5t247 95.5q96 0 156.5 -41.5t80.5 -118.5q25 19 45.5 43t28.5 50q-7 -5 -19 -5q-16 0 -25.5 9.5t-9.5 25.5q0 23 16 43t47 20q47 0 47 -44zM607 469
q0 96 -41 150t-124 54q-108 0 -181.5 -88.5t-103.5 -234.5q-13 -62 -13 -120q0 -96 40.5 -149.5t124.5 -53.5q108 0 181.5 88.5t103.5 234.5q13 62 13 119z" />
    <glyph glyph-name="uni1EE0" unicode="&#x1ee0;" horiz-adv-x="708" 
d="M363.5 827.5q-19.5 -15.5 -30.5 -41.5h-32q17 50 46.5 75t68.5 25q20 0 37 -8t38 -23q16 -12 28.5 -18t24.5 -6q23 0 42.5 14.5t32.5 45.5h30q-15 -49 -44.5 -76.5t-70.5 -27.5q-17 0 -33.5 8t-37.5 22q-20 13 -33 19.5t-25 6.5q-22 0 -41.5 -15.5zM815 692q0 -14 -3 -26
q-6 -34 -37 -73.5t-83 -74.5q4 -24 4 -58q0 -51 -12 -110q-36 -169 -135.5 -264.5t-247.5 -95.5q-121 0 -183.5 64t-62.5 182q0 47 13 114q34 169 133 264.5t247 95.5q96 0 156.5 -41.5t80.5 -118.5q25 19 45.5 43t28.5 50q-7 -5 -19 -5q-16 0 -25.5 9.5t-9.5 25.5
q0 23 16 43t47 20q47 0 47 -44zM607 469q0 96 -41 150t-124 54q-108 0 -181.5 -88.5t-103.5 -234.5q-13 -62 -13 -120q0 -96 40.5 -149.5t124.5 -53.5q108 0 181.5 88.5t103.5 234.5q13 62 13 119z" />
    <glyph glyph-name="Ohungarumlaut" unicode="&#x150;" horiz-adv-x="686" 
d="M327 808l131 106q27 24 48 24q12 0 19 -6.5t7 -15.5q0 -27 -41 -48l-153 -83zM516 808l132 106q8 8 21.5 16t26.5 8q12 0 19 -6.5t7 -15.5q0 -27 -41 -48l-154 -83zM117.5 54q-62.5 64 -62.5 182q0 47 13 114q34 169 133 264.5t247 95.5q121 0 184.5 -65t63.5 -184
q0 -51 -12 -111q-36 -169 -135.5 -264.5t-247.5 -95.5q-121 0 -183.5 64zM490.5 115.5q73.5 88.5 103.5 234.5q13 62 13 119q0 96 -41 150t-124 54q-108 0 -181.5 -88.5t-103.5 -234.5q-13 -62 -13 -120q0 -96 40.5 -149.5t124.5 -53.5q108 0 181.5 88.5z" />
    <glyph glyph-name="Omacron" unicode="&#x14c;" horiz-adv-x="686" 
d="M313 832h319l-7 -35h-319zM117.5 54q-62.5 64 -62.5 182q0 47 13 114q34 169 133 264.5t247 95.5q121 0 184.5 -65t63.5 -184q0 -51 -12 -111q-36 -169 -135.5 -264.5t-247.5 -95.5q-121 0 -183.5 64zM490.5 115.5q73.5 88.5 103.5 234.5q13 62 13 119q0 96 -41 150
t-124 54q-108 0 -181.5 -88.5t-103.5 -234.5q-13 -62 -13 -120q0 -96 40.5 -149.5t124.5 -53.5q108 0 181.5 88.5z" />
    <glyph glyph-name="Oslash" unicode="&#xd8;" horiz-adv-x="686" 
d="M642 635q54 -63 54 -173q0 -52 -12 -112q-36 -169 -135.5 -264.5t-247.5 -95.5q-111 0 -175 56l-66 -76l-24 22l68 78q-49 63 -49 166q0 47 13 114q34 169 133 264.5t247 95.5q107 0 170 -51l53 61l26 -22zM144 231q0 -60 14 -99l416 476q-43 65 -132 65
q-108 0 -181.5 -88.5t-103.5 -234.5q-13 -61 -13 -119zM607 470q0 64 -17 106l-417 -477q41 -72 136 -72q108 0 181.5 88.5t103.5 234.5q13 62 13 120z" />
    <glyph glyph-name="Oslashacute" unicode="&#x1fe;" horiz-adv-x="686" 
d="M402 786l-10 23l130 106q14 11 24.5 17t23.5 6q14 0 20 -8t4 -19q-4 -23 -39 -43zM642 635q54 -63 54 -173q0 -52 -12 -112q-36 -169 -135.5 -264.5t-247.5 -95.5q-111 0 -175 56l-66 -76l-24 22l68 78q-49 63 -49 166q0 47 13 114q34 169 133 264.5t247 95.5
q107 0 170 -51l53 61l26 -22zM144 231q0 -60 14 -99l416 476q-43 65 -132 65q-108 0 -181.5 -88.5t-103.5 -234.5q-13 -61 -13 -119zM607 470q0 64 -17 106l-417 -477q41 -72 136 -72q108 0 181.5 88.5t103.5 234.5q13 62 13 120z" />
    <glyph glyph-name="Otilde" unicode="&#xd5;" horiz-adv-x="686" 
d="M347 861.5q29 24.5 68 24.5q20 0 37 -8t38 -23q16 -12 28.5 -18t24.5 -6q23 0 42.5 14.5t32.5 45.5h30q-15 -49 -44.5 -76.5t-70.5 -27.5q-17 0 -33.5 8t-37.5 22q-20 13 -33 19.5t-25 6.5q-22 0 -41.5 -15.5t-30.5 -41.5h-32q18 51 47 75.5zM117.5 54
q-62.5 64 -62.5 182q0 47 13 114q34 169 133 264.5t247 95.5q121 0 184.5 -65t63.5 -184q0 -51 -12 -111q-36 -169 -135.5 -264.5t-247.5 -95.5q-121 0 -183.5 64zM490.5 115.5q73.5 88.5 103.5 234.5q13 62 13 119q0 96 -41 150t-124 54q-108 0 -181.5 -88.5t-103.5 -234.5
q-13 -62 -13 -120q0 -96 40.5 -149.5t124.5 -53.5q108 0 181.5 88.5z" />
    <glyph glyph-name="OE" unicode="&#x152;" horiz-adv-x="962" 
d="M114 56.5q-58 66.5 -58 180.5q0 53 12 113q21 104 70 185t125 128t173 47q99 0 150 -57l9 47h412l-30 -146h-21q-6 20 -6 70q0 21 2 39h-275l-58 -286h201q5 17 14.5 42t18.5 41h16l-41 -202h-16q-2 11 -2 38q0 25 2 45h-200l-63 -306h279q6 21 25.5 57.5t32.5 51.5h20
l-42 -144h-411l9 44q-37 -28 -79 -41t-94 -13q-117 0 -175 66.5zM473 100l102 498q-18 34 -52.5 54.5t-80.5 20.5q-107 0 -180.5 -88.5t-103.5 -234.5q-13 -62 -13 -120q0 -96 40.5 -149.5t123.5 -53.5q93 0 164 73z" />
    <glyph glyph-name="P" unicode="P" horiz-adv-x="585" 
d="M-2 12q49 15 82 18l130 639q-41 7 -72 19l2 12h286q104 0 150.5 -37t46.5 -108q0 -32 -7 -63q-20 -96 -84 -155.5t-168 -59.5h-145l-50 -247q40 -7 74 -19l-2 -11h-245zM352 312q71 0 116 50t61 131q6 32 6 57q0 54 -27.5 83.5t-84.5 29.5h-125l-71 -351h125z" />
    <glyph glyph-name="Thorn" unicode="&#xde;" horiz-adv-x="585" 
d="M-2 12q51 15 83 18l130 639q-39 6 -73 19l2 12h165l-28 -138h145q90 0 132 -39t42 -107q0 -24 -7 -61q-20 -96 -84.5 -155.5t-167.5 -59.5h-146l-22 -110q39 -6 74 -19l-2 -11h-245zM324 175q72 0 116.5 50t60.5 131q7 37 7 59q0 112 -114 112h-123l-72 -352h125z" />
    <glyph glyph-name="Q" unicode="Q" horiz-adv-x="686" 
d="M632.5 645q63.5 -65 63.5 -184q0 -51 -12 -111q-32 -151 -115 -243.5t-206 -111.5q-1 -51 35.5 -83.5t104.5 -38.5l-7 -32q-107 9 -161.5 47.5t-57.5 102.5q-109 6 -165.5 69.5t-56.5 175.5q0 47 13 114q34 169 133 264.5t247 95.5q121 0 184.5 -65zM607 468
q0 96 -41 150.5t-124 54.5q-107 0 -181 -88.5t-104 -234.5q-13 -62 -13 -119q0 -96 41 -150t124 -54q107 0 181 88.5t104 234.5q13 61 13 118z" />
    <glyph glyph-name="R" unicode="R" horiz-adv-x="641" 
d="M556.5 366q-52.5 -52 -135.5 -63l94 -273q48 -10 66 -18l-2 -12h-140l-97 300h-114l-55 -270q37 -6 74 -19l-2 -11h-245l2 12q19 6 43.5 11t38.5 7l130 639q-40 6 -72 19l2 12h316q173 0 173 -138q0 -23 -7 -60q-17 -84 -69.5 -136zM544 558q0 105 -117 105h-126
l-66 -327h126q73 0 116.5 44t60.5 123q6 30 6 55z" />
    <glyph glyph-name="Racute" unicode="&#x154;" horiz-adv-x="641" 
d="M367 786l-11 23l131 106q26 23 48 23q14 0 20 -8t4 -19q-4 -23 -40 -43zM556.5 366q-52.5 -52 -135.5 -63l94 -273q48 -10 66 -18l-2 -12h-140l-97 300h-114l-55 -270q37 -6 74 -19l-2 -11h-245l2 12q19 6 43.5 11t38.5 7l130 639q-40 6 -72 19l2 12h316q173 0 173 -138
q0 -23 -7 -60q-17 -84 -69.5 -136zM544 558q0 105 -117 105h-126l-66 -327h126q73 0 116.5 44t60.5 123q6 30 6 55z" />
    <glyph glyph-name="Rcaron" unicode="&#x158;" horiz-adv-x="641" 
d="M372 851q-30 36 -56 58l41 32q24 -22 48.5 -52.5t37.5 -56.5h4q24 26 61 56.5t70 52.5l30 -32q-36 -22 -81 -58t-70 -65h-41q-14 29 -44 65zM556.5 366q-52.5 -52 -135.5 -63l94 -273q48 -10 66 -18l-2 -12h-140l-97 300h-114l-55 -270q37 -6 74 -19l-2 -11h-245l2 12
q19 6 43.5 11t38.5 7l130 639q-40 6 -72 19l2 12h316q173 0 173 -138q0 -23 -7 -60q-17 -84 -69.5 -136zM544 558q0 105 -117 105h-126l-66 -327h126q73 0 116.5 44t60.5 123q6 30 6 55z" />
    <glyph glyph-name="Rcommaaccent" unicode="&#x156;" horiz-adv-x="641" 
d="M556.5 366q-52.5 -52 -135.5 -63l94 -273q48 -10 66 -18l-2 -12h-140l-97 300h-114l-55 -270q37 -6 74 -19l-2 -11h-245l2 12q19 6 43.5 11t38.5 7l130 639q-40 6 -72 19l2 12h316q173 0 173 -138q0 -23 -7 -60q-17 -84 -69.5 -136zM544 558q0 105 -117 105h-126
l-66 -327h126q73 0 116.5 44t60.5 123q6 30 6 55zM318 -81q11 -12 11 -33q0 -14 -2 -21q-8 -42 -37.5 -90t-65.5 -77l-25 25q23 22 41.5 51.5t27.5 59.5q-3 -1 -10 -1q-17 0 -27.5 10t-10.5 27q0 28 19 44.5t44 16.5q24 0 35 -12z" />
    <glyph glyph-name="uni1E5A" unicode="&#x1e5a;" horiz-adv-x="641" 
d="M556.5 366q-52.5 -52 -135.5 -63l94 -273q48 -10 66 -18l-2 -12h-140l-97 300h-114l-55 -270q37 -6 74 -19l-2 -11h-245l2 12q19 6 43.5 11t38.5 7l130 639q-40 6 -72 19l2 12h316q173 0 173 -138q0 -23 -7 -60q-17 -84 -69.5 -136zM544 558q0 105 -117 105h-126
l-66 -327h126q73 0 116.5 44t60.5 123q6 30 6 55zM306.5 -68.5q9.5 -9.5 9.5 -25.5q0 -24 -15.5 -40.5t-38.5 -16.5q-16 0 -25.5 9.5t-9.5 24.5q0 7 1 11q5 21 19.5 34t33.5 13q16 0 25.5 -9.5z" />
    <glyph glyph-name="uni1E5C" unicode="&#x1e5c;" horiz-adv-x="641" 
d="M576 785h-340l8 35h340zM556.5 366q-52.5 -52 -135.5 -63l94 -273q48 -10 66 -18l-2 -12h-140l-97 300h-114l-55 -270q37 -6 74 -19l-2 -11h-245l2 12q19 6 43.5 11t38.5 7l130 639q-40 6 -72 19l2 12h316q173 0 173 -138q0 -23 -7 -60q-17 -84 -69.5 -136zM544 558
q0 105 -117 105h-126l-66 -327h126q73 0 116.5 44t60.5 123q6 30 6 55zM306.5 -68.5q9.5 -9.5 9.5 -25.5q0 -24 -16 -40.5t-39 -16.5q-16 0 -25 9.5t-9 24.5q0 7 1 11q5 21 19 34t33 13q17 0 26.5 -9.5z" />
    <glyph glyph-name="uni1E5E" unicode="&#x1e5e;" horiz-adv-x="641" 
d="M556.5 366q-52.5 -52 -135.5 -63l94 -273q48 -10 66 -18l-2 -12h-140l-97 300h-114l-55 -270q37 -6 74 -19l-2 -11h-245l2 12q19 6 43.5 11t38.5 7l130 639q-40 6 -72 19l2 12h316q173 0 173 -138q0 -23 -7 -60q-17 -84 -69.5 -136zM544 558q0 105 -117 105h-126
l-66 -327h126q73 0 116.5 44t60.5 123q6 30 6 55zM106 -69h318l-7 -35h-319z" />
    <glyph glyph-name="S" unicode="S" horiz-adv-x="523" 
d="M87.5 15.5q-53.5 25.5 -76.5 66.5l37 136h22q1 -5 1 -19q0 -25 -4 -60l-5 -44q18 -31 54 -49.5t86 -18.5q67 0 123 37.5t71 105.5q3 15 3 29q0 36 -18.5 61.5t-46 43t-73.5 40.5q-48 24 -78 43t-50.5 48.5t-20.5 70.5q0 20 4 37q17 82 85.5 124.5t171.5 42.5
q68 0 112.5 -18t71.5 -54l-34 -117h-22q-1 7 -1 26q0 40 5 82q-36 44 -116 44q-77 0 -122.5 -30t-57.5 -87q-2 -14 -2 -19q0 -27 16 -48t40 -36t67 -37q52 -26 85 -48t56 -56.5t23 -82.5q0 -18 -5 -45q-12 -59 -51.5 -103t-97.5 -67.5t-124 -23.5q-75 0 -128.5 25.5z" />
    <glyph glyph-name="Sacute" unicode="&#x15a;" horiz-adv-x="523" 
d="M317 809l130 106q14 11 24.5 17t23.5 6q15 0 21 -8t3 -19q-4 -23 -39 -43l-153 -82zM87.5 15.5q-53.5 25.5 -76.5 66.5l37 136h22q1 -5 1 -19q0 -25 -4 -60l-5 -44q18 -31 54 -49.5t86 -18.5q67 0 123 37.5t71 105.5q3 15 3 29q0 36 -18.5 61.5t-46 43t-73.5 40.5
q-48 24 -78 43t-50.5 48.5t-20.5 70.5q0 20 4 37q17 82 85.5 124.5t171.5 42.5q68 0 112.5 -18t71.5 -54l-34 -117h-22q-1 7 -1 26q0 40 5 82q-36 44 -116 44q-77 0 -122.5 -30t-57.5 -87q-2 -14 -2 -19q0 -27 16 -48t40 -36t67 -37q52 -26 85 -48t56 -56.5t23 -82.5
q0 -18 -5 -45q-12 -59 -51.5 -103t-97.5 -67.5t-124 -23.5q-75 0 -128.5 25.5z" />
    <glyph glyph-name="Scaron" unicode="&#x160;" horiz-adv-x="523" 
d="M317 851q-30 36 -56 58l41 32q25 -22 49.5 -52.5t36.5 -56.5h5q23 26 59.5 56.5t70.5 52.5l30 -32q-35 -21 -80 -57t-71 -66h-41q-14 29 -44 65zM87.5 15.5q-53.5 25.5 -76.5 66.5l37 136h22q1 -5 1 -19q0 -25 -4 -60l-5 -44q18 -31 54 -49.5t86 -18.5q67 0 123 37.5
t71 105.5q3 15 3 29q0 36 -18.5 61.5t-46 43t-73.5 40.5q-48 24 -78 43t-50.5 48.5t-20.5 70.5q0 20 4 37q17 82 85.5 124.5t171.5 42.5q68 0 112.5 -18t71.5 -54l-34 -117h-22q-1 7 -1 26q0 40 5 82q-36 44 -116 44q-77 0 -122.5 -30t-57.5 -87q-2 -14 -2 -19q0 -27 16 -48
t40 -36t67 -37q52 -26 85 -48t56 -56.5t23 -82.5q0 -18 -5 -45q-12 -59 -51.5 -103t-97.5 -67.5t-124 -23.5q-75 0 -128.5 25.5z" />
    <glyph glyph-name="Scedilla" unicode="&#x15e;" horiz-adv-x="523" 
d="M485.5 692q44.5 -18 71.5 -54l-34 -117h-22q-1 7 -1 26q0 40 5 82q-36 44 -116 44q-77 0 -122.5 -30t-57.5 -87q-2 -14 -2 -19q0 -27 16 -48t40 -36t67 -37q52 -26 85 -48t56 -56.5t23 -82.5q0 -18 -5 -45q-17 -83 -85.5 -134.5t-161.5 -58.5l-36 -56q88 0 88 -53
q0 -9 -1 -14q-9 -42 -45 -64.5t-87 -22.5q-45 0 -77 18l22 29q24 -12 57 -12t55 13t27 39q4 19 -11 28t-37 9q-10 0 -24 -2l-16 28l41 59q-68 4 -117 29t-70 63l37 136h22q1 -5 1 -19q0 -25 -4 -60l-5 -44q18 -31 54 -49.5t86 -18.5q67 0 123 37.5t71 105.5q3 15 3 29
q0 36 -18.5 61.5t-46 43t-73.5 40.5q-48 24 -78 43t-50.5 48.5t-20.5 70.5q0 20 4 37q17 82 85.5 124.5t171.5 42.5q68 0 112.5 -18z" />
    <glyph glyph-name="Scircumflex" unicode="&#x15c;" horiz-adv-x="523" 
d="M241 812q35 22 80 58t70 64h41q15 -29 45 -65t56 -57l-43 -32q-24 22 -48.5 52.5t-36.5 56.5h-5q-23 -25 -60 -55.5t-71 -53.5zM87.5 15.5q-53.5 25.5 -76.5 66.5l37 136h22q1 -5 1 -19q0 -25 -4 -60l-5 -44q18 -31 54 -49.5t86 -18.5q67 0 123 37.5t71 105.5q3 15 3 29
q0 36 -18.5 61.5t-46 43t-73.5 40.5q-48 24 -78 43t-50.5 48.5t-20.5 70.5q0 20 4 37q17 82 85.5 124.5t171.5 42.5q68 0 112.5 -18t71.5 -54l-34 -117h-22q-1 7 -1 26q0 40 5 82q-36 44 -116 44q-77 0 -122.5 -30t-57.5 -87q-2 -14 -2 -19q0 -27 16 -48t40 -36t67 -37
q52 -26 85 -48t56 -56.5t23 -82.5q0 -18 -5 -45q-12 -59 -51.5 -103t-97.5 -67.5t-124 -23.5q-75 0 -128.5 25.5z" />
    <glyph glyph-name="Scommaaccent" unicode="&#x218;" horiz-adv-x="523" 
d="M87.5 15.5q-53.5 25.5 -76.5 66.5l37 136h22q1 -5 1 -19q0 -25 -4 -60l-5 -44q18 -31 54 -49.5t86 -18.5q67 0 123 37.5t71 105.5q3 15 3 29q0 36 -18.5 61.5t-46 43t-73.5 40.5q-48 24 -78 43t-50.5 48.5t-20.5 70.5q0 20 4 37q17 82 85.5 124.5t171.5 42.5
q68 0 112.5 -18t71.5 -54l-34 -117h-22q-1 7 -1 26q0 40 5 82q-36 44 -116 44q-77 0 -122.5 -30t-57.5 -87q-2 -14 -2 -19q0 -27 16 -48t40 -36t67 -37q52 -26 85 -48t56 -56.5t23 -82.5q0 -18 -5 -45q-12 -59 -51.5 -103t-97.5 -67.5t-124 -23.5q-75 0 -128.5 25.5z
M123 -267q23 22 42.5 52t28.5 60q-5 -2 -12 -2q-17 0 -27.5 11t-10.5 28q0 7 1 11q5 23 23 38t40 15q24 0 36 -13t12 -35q0 -41 -32.5 -98.5t-74.5 -91.5z" />
    <glyph glyph-name="uni1E60" unicode="&#x1e60;" horiz-adv-x="523" 
d="M365 794q-9 9 -9 24q0 8 1 12q5 21 19 34t34 13q16 0 25 -9.5t9 -26.5q0 -7 -1 -11q-5 -20 -19 -32.5t-33 -12.5q-17 0 -26 9zM87.5 15.5q-53.5 25.5 -76.5 66.5l37 136h22q1 -5 1 -19q0 -25 -4 -60l-5 -44q18 -31 54 -49.5t86 -18.5q67 0 123 37.5t71 105.5q3 15 3 29
q0 36 -18.5 61.5t-46 43t-73.5 40.5q-48 24 -78 43t-50.5 48.5t-20.5 70.5q0 20 4 37q17 82 85.5 124.5t171.5 42.5q68 0 112.5 -18t71.5 -54l-34 -117h-22q-1 7 -1 26q0 40 5 82q-36 44 -116 44q-77 0 -122.5 -30t-57.5 -87q-2 -14 -2 -19q0 -27 16 -48t40 -36t67 -37
q52 -26 85 -48t56 -56.5t23 -82.5q0 -18 -5 -45q-12 -59 -51.5 -103t-97.5 -67.5t-124 -23.5q-75 0 -128.5 25.5z" />
    <glyph glyph-name="uni1E62" unicode="&#x1e62;" horiz-adv-x="523" 
d="M87.5 15.5q-53.5 25.5 -76.5 66.5l37 136h22q1 -5 1 -19q0 -25 -4 -60l-5 -44q18 -31 54 -49.5t86 -18.5q67 0 123 37.5t71 105.5q3 15 3 29q0 36 -18.5 61.5t-46 43t-73.5 40.5q-48 24 -78 43t-50.5 48.5t-20.5 70.5q0 20 4 37q17 82 85.5 124.5t171.5 42.5
q68 0 112.5 -18t71.5 -54l-34 -117h-22q-1 7 -1 26q0 40 5 82q-36 44 -116 44q-77 0 -122.5 -30t-57.5 -87q-2 -14 -2 -19q0 -27 16 -48t40 -36t67 -37q52 -26 85 -48t56 -56.5t23 -82.5q0 -18 -5 -45q-12 -59 -51.5 -103t-97.5 -67.5t-124 -23.5q-75 0 -128.5 25.5z
M164 -142q-9 9 -9 24q0 8 1 12q4 21 18.5 34t33.5 13q16 0 25.5 -9.5t9.5 -25.5q0 -24 -15.5 -40.5t-38.5 -16.5q-16 0 -25 9z" />
    <glyph glyph-name="uni1E9E" unicode="&#x1e9e;" horiz-adv-x="677" 
d="M229 14l9 38q60 -27 131 -27q74 0 125.5 48.5t69.5 129.5q4 19 4 40q0 56 -36 88t-107 32h-57l4 24l206 186q-9 44 -47.5 72t-99.5 28q-76 0 -127 -47t-68 -130l-95 -466q13 -3 28 -8.5t25 -10.5l-2 -11h-223l2 12q50 13 83 18l89 440q24 113 100 176.5t201 63.5
q62 0 105 -22.5t66 -58.5t26 -75l-175 -157q91 -7 140 -47.5t49 -107.5q0 -20 -4 -39q-19 -93 -92 -153t-194 -60q-82 0 -136 24z" />
    <glyph glyph-name="uni018F" unicode="&#x18f;" horiz-adv-x="683" 
d="M557 676q64 -34 97.5 -96t33.5 -145q0 -43 -9 -91q-35 -172 -141.5 -263t-258.5 -91q-117 0 -173 62t-56 165q0 48 10 94l4 27h527q9 45 9 89q0 108 -55.5 175.5t-163.5 67.5q-118 0 -227 -66q-2 11 -2.5 18t-1.5 14q45 31 108.5 52.5t144.5 21.5q90 0 154 -34z
M474 102.5q77 77.5 109 197.5h-442q-9 -43 -9 -88q0 -82 36 -134.5t114 -52.5q115 0 192 77.5z" />
    <glyph glyph-name="T" unicode="T" horiz-adv-x="613" 
d="M144 12q35 9 85 18l129 633h-178q-5 -21 -22 -63.5t-27 -56.5h-21l32 157h536l-32 -157h-20q-5 17 -5 58q0 23 3 62h-178l-128 -633q45 -7 78 -19l-2 -11h-252z" />
    <glyph glyph-name="Tbar" unicode="&#x166;" horiz-adv-x="613" 
d="M678 700l-32 -157h-20q-5 17 -5 58q0 23 3 62h-178l-62 -305h147l-7 -35h-147l-59 -293q45 -7 78 -19l-2 -11h-252l2 12q35 9 85 18l60 293h-141l7 35h141l62 305h-178q-5 -21 -22 -63.5t-27 -56.5h-21l32 157h536z" />
    <glyph glyph-name="Tcaron" unicode="&#x164;" horiz-adv-x="613" 
d="M361 851q-30 36 -56 58l42 32q25 -23 49 -53.5t36 -55.5h5q23 26 59.5 56.5t70.5 52.5l30 -32q-35 -21 -80 -57t-71 -66h-41q-14 29 -44 65zM144 12q35 9 85 18l129 633h-178q-5 -21 -22 -63.5t-27 -56.5h-21l32 157h536l-32 -157h-20q-5 17 -5 58q0 23 3 62h-178
l-128 -633q45 -7 78 -19l-2 -11h-252z" />
    <glyph glyph-name="uni0162" unicode="&#x162;" horiz-adv-x="613" 
d="M678 700l-32 -157h-20q-5 17 -5 58q0 23 3 62h-178l-128 -633q45 -7 78 -19l-2 -11h-111l-42 -65q5 1 14 1q37 -1 56.5 -15t19.5 -38q0 -5 -2 -15q-8 -42 -44.5 -64.5t-87.5 -22.5q-46 0 -78 18l21 29q24 -12 59 -12q32 0 55 13t27 39q4 19 -11 28t-39 9q-9 0 -23 -2
l-15 28l47 69h-98l2 12q35 9 85 18l129 633h-178q-5 -21 -22 -63.5t-27 -56.5h-21l32 157h536z" />
    <glyph glyph-name="uni021A" unicode="&#x21a;" horiz-adv-x="613" 
d="M144 12q35 9 85 18l129 633h-178q-5 -21 -22 -63.5t-27 -56.5h-21l32 157h536l-32 -157h-20q-5 17 -5 58q0 23 3 62h-178l-128 -633q45 -7 78 -19l-2 -11h-252zM166 -277q23 22 42 51.5t27 59.5q-3 -1 -9 -1q-18 0 -28.5 10t-10.5 28q0 27 19.5 43.5t44.5 16.5
q46 0 46 -46q0 -6 -2 -20q-9 -42 -38.5 -90t-65.5 -77z" />
    <glyph glyph-name="uni1E6C" unicode="&#x1e6c;" horiz-adv-x="613" 
d="M144 12q35 9 85 18l129 633h-178q-5 -21 -22 -63.5t-27 -56.5h-21l32 157h536l-32 -157h-20q-5 17 -5 58q0 23 3 62h-178l-128 -633q45 -7 78 -19l-2 -11h-252zM211 -142q-9 9 -9 24q0 8 1 12q4 21 18.5 34t33.5 13q16 0 25.5 -9.5t9.5 -25.5q0 -24 -15.5 -40.5
t-38.5 -16.5q-16 0 -25 9z" />
    <glyph glyph-name="uni1E6E" unicode="&#x1e6e;" horiz-adv-x="613" 
d="M144 12q35 9 85 18l129 633h-178q-5 -21 -22 -63.5t-27 -56.5h-21l32 157h536l-32 -157h-20q-5 17 -5 58q0 23 3 62h-178l-128 -633q45 -7 78 -19l-2 -11h-252zM93 -69h319l-8 -35h-319z" />
    <glyph glyph-name="U" unicode="U" horiz-adv-x="739" 
d="M112 150q0 31 7 63l93 456q-43 7 -74 19l2 12h244l-2 -13q-37 -12 -82 -18l-95 -466q-5 -24 -5 -50q0 -126 161 -126q84 0 144.5 41.5t79.5 134.5l95 467q-39 5 -75 18l2 12h199l-2 -12q-45 -15 -83 -20l-92 -455q-47 -223 -298 -223q-219 0 -219 160z" />
    <glyph glyph-name="Uacute" unicode="&#xda;" horiz-adv-x="739" 
d="M427 809l131 106q26 23 48 23q14 0 20 -8t4 -19q-4 -23 -40 -43l-152 -82zM112 150q0 31 7 63l93 456q-43 7 -74 19l2 12h244l-2 -13q-37 -12 -82 -18l-95 -466q-5 -24 -5 -50q0 -126 161 -126q84 0 144.5 41.5t79.5 134.5l95 467q-39 5 -75 18l2 12h199l-2 -12
q-45 -15 -83 -20l-92 -455q-47 -223 -298 -223q-219 0 -219 160z" />
    <glyph glyph-name="Ubreve" unicode="&#x16c;" horiz-adv-x="739" 
d="M401.5 802q-32.5 27 -32.5 81l1 16h52l-1 -15q0 -72 80 -72q37 0 67 18t45 69h54q-20 -62 -65.5 -93t-108.5 -31q-59 0 -91.5 27zM112 150q0 31 7 63l93 456q-43 7 -74 19l2 12h244l-2 -13q-37 -12 -82 -18l-95 -466q-5 -24 -5 -50q0 -126 161 -126q84 0 144.5 41.5
t79.5 134.5l95 467q-39 5 -75 18l2 12h199l-2 -12q-45 -15 -83 -20l-92 -455q-47 -223 -298 -223q-219 0 -219 160z" />
    <glyph glyph-name="uni01D3" unicode="&#x1d3;" horiz-adv-x="739" 
d="M423 851q-30 36 -55 58l41 32q24 -22 48.5 -52.5t36.5 -56.5h5q24 26 61 56.5t70 52.5l30 -32q-36 -21 -81 -57t-70 -66h-41q-15 29 -45 65zM112 150q0 31 7 63l93 456q-43 7 -74 19l2 12h244l-2 -13q-37 -12 -82 -18l-95 -466q-5 -24 -5 -50q0 -126 161 -126
q84 0 144.5 41.5t79.5 134.5l95 467q-39 5 -75 18l2 12h199l-2 -12q-45 -15 -83 -20l-92 -455q-47 -223 -298 -223q-219 0 -219 160z" />
    <glyph glyph-name="Ucircumflex" unicode="&#xdb;" horiz-adv-x="739" 
d="M349 812q35 22 80 58t70 64h41q15 -29 45 -65t56 -57l-43 -32q-24 22 -48 52.5t-36 56.5h-5q-24 -26 -61 -56.5t-71 -52.5zM112 150q0 31 7 63l93 456q-43 7 -74 19l2 12h244l-2 -13q-37 -12 -82 -18l-95 -466q-5 -24 -5 -50q0 -126 161 -126q84 0 144.5 41.5t79.5 134.5
l95 467q-39 5 -75 18l2 12h199l-2 -12q-45 -15 -83 -20l-92 -455q-47 -223 -298 -223q-219 0 -219 160z" />
    <glyph glyph-name="Udieresis" unicode="&#xdc;" horiz-adv-x="739" 
d="M370 794.5q-9 9.5 -9 23.5q0 8 1 12q5 21 18.5 34t32.5 13q16 0 25 -9t9 -25q0 -25 -15 -41.5t-38 -16.5q-15 0 -24 9.5zM580 794q-9 9 -9 24q0 8 1 12q5 21 19 34t33 13q16 0 25.5 -9.5t9.5 -26.5q0 -7 -1 -11q-5 -20 -19.5 -32.5t-33.5 -12.5q-16 0 -25 9zM112 150
q0 31 7 63l93 456q-43 7 -74 19l2 12h244l-2 -13q-37 -12 -82 -18l-95 -466q-5 -24 -5 -50q0 -126 161 -126q84 0 144.5 41.5t79.5 134.5l95 467q-39 5 -75 18l2 12h199l-2 -12q-45 -15 -83 -20l-92 -455q-47 -223 -298 -223q-219 0 -219 160z" />
    <glyph glyph-name="uni01D7" unicode="&#x1d7;" horiz-adv-x="739" 
d="M508 924l117 96q2 2 16 13.5t32 11.5q12 0 18.5 -7t6.5 -17q0 -25 -40 -47l-140 -73zM373 793.5q-9 8.5 -9 23.5q0 25 15.5 42t38.5 17q16 0 25 -9t9 -25q0 -25 -15.5 -41t-38.5 -16q-16 0 -25 8.5zM584.5 794q-9.5 9 -9.5 24q0 25 15.5 41.5t38.5 16.5q16 0 25 -9t9 -25
q0 -8 -1 -12q-4 -20 -18 -32.5t-34 -12.5q-16 0 -25.5 9zM112 150q0 31 7 63l93 456q-43 7 -74 19l2 12h244l-2 -13q-37 -12 -82 -18l-95 -466q-5 -24 -5 -50q0 -126 161 -126q84 0 144.5 41.5t79.5 134.5l95 467q-39 5 -75 18l2 12h199l-2 -12q-45 -15 -83 -20l-92 -455
q-47 -223 -298 -223q-219 0 -219 160z" />
    <glyph glyph-name="uni01D9" unicode="&#x1d9;" horiz-adv-x="739" 
d="M466.5 956q-28.5 33 -57.5 57l43 31q24 -22 47 -49.5t38 -53.5h3q47 49 127 103l30 -31q-38 -24 -80 -57t-68 -62h-40q-14 29 -42.5 62zM375 793.5q-9 9.5 -9 24.5q0 24 16 41t38 17q15 0 24 -9.5t9 -24.5q0 -8 -1 -12q-4 -20 -18.5 -33t-33.5 -13q-16 0 -25 9.5z
M586 793.5q-9 9.5 -9 25.5q0 7 1 11q5 20 19.5 33t32.5 13q17 0 26 -9.5t9 -24.5q0 -8 -1 -12q-3 -20 -18 -33t-35 -13q-16 0 -25 9.5zM112 150q0 31 7 63l93 456q-43 7 -74 19l2 12h244l-2 -13q-37 -12 -82 -18l-95 -466q-5 -24 -5 -50q0 -126 161 -126q84 0 144.5 41.5
t79.5 134.5l95 467q-39 5 -75 18l2 12h199l-2 -12q-45 -15 -83 -20l-92 -455q-47 -223 -298 -223q-219 0 -219 160z" />
    <glyph glyph-name="uni01DB" unicode="&#x1db;" horiz-adv-x="739" 
d="M442 948q-27 18 -22 42q2 11 11.5 19.5t23.5 8.5q13 0 24 -8t14 -15l75 -93l-20 -23zM372.5 794q-9.5 9 -9.5 24q0 25 15.5 41.5t38.5 16.5q16 0 24.5 -9t8.5 -24q0 -9 -1 -13q-4 -20 -18 -32.5t-33 -12.5q-16 0 -25.5 9zM583.5 794q-9.5 9 -9.5 25q0 24 16 40.5t37 16.5
q17 0 26 -9t9 -25q0 -8 -1 -12q-4 -20 -18 -32.5t-34 -12.5q-16 0 -25.5 9zM112 150q0 31 7 63l93 456q-43 7 -74 19l2 12h244l-2 -13q-37 -12 -82 -18l-95 -466q-5 -24 -5 -50q0 -126 161 -126q84 0 144.5 41.5t79.5 134.5l95 467q-39 5 -75 18l2 12h199l-2 -12
q-45 -15 -83 -20l-92 -455q-47 -223 -298 -223q-219 0 -219 160z" />
    <glyph glyph-name="uni01D5" unicode="&#x1d5;" horiz-adv-x="739" 
d="M389 977h308l-7 -35h-308zM373 793.5q-9 8.5 -9 23.5q0 25 15.5 42t38.5 17q16 0 25 -9t9 -25q0 -25 -15.5 -41t-38.5 -16q-16 0 -25 8.5zM584.5 794q-9.5 9 -9.5 24q0 25 15.5 41.5t38.5 16.5q16 0 25 -9t9 -25q0 -8 -1 -12q-4 -20 -18 -32.5t-34 -12.5q-16 0 -25.5 9z
M112 150q0 31 7 63l93 456q-43 7 -74 19l2 12h244l-2 -13q-37 -12 -82 -18l-95 -466q-5 -24 -5 -50q0 -126 161 -126q84 0 144.5 41.5t79.5 134.5l95 467q-39 5 -75 18l2 12h199l-2 -12q-45 -15 -83 -20l-92 -455q-47 -223 -298 -223q-219 0 -219 160z" />
    <glyph glyph-name="uni1EE4" unicode="&#x1ee4;" horiz-adv-x="739" 
d="M112 150q0 31 7 63l93 456q-43 7 -74 19l2 12h244l-2 -13q-37 -12 -82 -18l-95 -466q-5 -24 -5 -50q0 -126 161 -126q84 0 144.5 41.5t79.5 134.5l95 467q-39 5 -75 18l2 12h199l-2 -12q-45 -15 -83 -20l-92 -455q-47 -223 -298 -223q-219 0 -219 160zM283 -142
q-9 9 -9 24q0 8 1 12q4 21 18.5 34t33.5 13q16 0 25.5 -9.5t9.5 -25.5q0 -24 -15.5 -40.5t-38.5 -16.5q-16 0 -25 9z" />
    <glyph glyph-name="Ugrave" unicode="&#xd9;" horiz-adv-x="739" 
d="M448 868q-28 20 -24 43q2 11 12.5 19t24.5 8q21 0 37 -22l90 -107l-20 -23zM112 150q0 31 7 63l93 456q-43 7 -74 19l2 12h244l-2 -13q-37 -12 -82 -18l-95 -466q-5 -24 -5 -50q0 -126 161 -126q84 0 144.5 41.5t79.5 134.5l95 467q-39 5 -75 18l2 12h199l-2 -12
q-45 -15 -83 -20l-92 -455q-47 -223 -298 -223q-219 0 -219 160z" />
    <glyph glyph-name="uni1EE6" unicode="&#x1ee6;" horiz-adv-x="739" 
d="M499 869h23q29 0 48 14t23 38q1 3 1 9q0 17 -12 27t-36 10q-27 0 -58 -16l-1 30q15 7 36 12t41 5q35 0 57.5 -15.5t22.5 -46.5q0 -5 -2 -17q-7 -34 -32 -53t-64 -23l-23 -64h-37zM112 150q0 31 7 63l93 456q-43 7 -74 19l2 12h244l-2 -13q-37 -12 -82 -18l-95 -466
q-5 -24 -5 -50q0 -126 161 -126q84 0 144.5 41.5t79.5 134.5l95 467q-39 5 -75 18l2 12h199l-2 -12q-45 -15 -83 -20l-92 -455q-47 -223 -298 -223q-219 0 -219 160z" />
    <glyph glyph-name="Uhorn" unicode="&#x1af;" horiz-adv-x="739" 
d="M112 150q0 31 7 63l93 456q-43 7 -74 19l2 12h244l-2 -13q-37 -12 -82 -18l-95 -466q-5 -24 -5 -50q0 -126 161 -126q84 0 144.5 41.5t79.5 134.5l95 467q-39 5 -75 18l2 12h129q38 0 69.5 12.5t40.5 37.5q-9 -5 -19 -5q-17 0 -27 10t-10 27q0 23 17.5 42.5t47.5 19.5
q47 0 47 -44q0 -8 -2 -22q-10 -45 -58.5 -74.5t-120.5 -35.5l-92 -455q-47 -223 -298 -223q-219 0 -219 160z" />
    <glyph glyph-name="uni1EE8" unicode="&#x1ee8;" horiz-adv-x="739" 
d="M444 807l131 106q14 11 24.5 17t23.5 6q14 0 20 -8t4 -19q-4 -23 -39 -43l-153 -82zM112 150q0 31 7 63l93 456q-43 7 -74 19l2 12h244l-2 -13q-37 -12 -82 -18l-95 -466q-5 -24 -5 -50q0 -126 161 -126q84 0 144.5 41.5t79.5 134.5l95 467q-39 5 -75 18l2 12h129
q38 0 69.5 12.5t40.5 37.5q-9 -5 -19 -5q-17 0 -27 10t-10 27q0 23 17.5 42.5t47.5 19.5q47 0 47 -44q0 -8 -2 -22q-10 -45 -58.5 -74.5t-120.5 -35.5l-92 -455q-47 -223 -298 -223q-219 0 -219 160z" />
    <glyph glyph-name="uni1EF0" unicode="&#x1ef0;" horiz-adv-x="739" 
d="M112 150q0 31 7 63l93 456q-43 7 -74 19l2 12h244l-2 -13q-37 -12 -82 -18l-95 -466q-5 -24 -5 -50q0 -126 161 -126q84 0 144.5 41.5t79.5 134.5l95 467q-39 5 -75 18l2 12h129q38 0 69.5 12.5t40.5 37.5q-9 -5 -19 -5q-17 0 -27 10t-10 27q0 23 17.5 42.5t47.5 19.5
q47 0 47 -44q0 -8 -2 -22q-10 -45 -58.5 -74.5t-120.5 -35.5l-92 -455q-47 -223 -298 -223q-219 0 -219 160zM283 -142q-9 9 -9 24q0 8 1 12q4 21 18.5 34t33.5 13q16 0 25.5 -9.5t9.5 -25.5q0 -24 -15.5 -40.5t-38.5 -16.5q-16 0 -25 9z" />
    <glyph glyph-name="uni1EEA" unicode="&#x1eea;" horiz-adv-x="739" 
d="M451 866q-28 20 -24 43q2 11 12.5 19t24.5 8q21 0 37 -22l90 -107l-20 -23zM112 150q0 31 7 63l93 456q-43 7 -74 19l2 12h244l-2 -13q-37 -12 -82 -18l-95 -466q-5 -24 -5 -50q0 -126 161 -126q84 0 144.5 41.5t79.5 134.5l95 467q-39 5 -75 18l2 12h129q38 0 69.5 12.5
t40.5 37.5q-9 -5 -19 -5q-17 0 -27 10t-10 27q0 23 17.5 42.5t47.5 19.5q47 0 47 -44q0 -8 -2 -22q-10 -45 -58.5 -74.5t-120.5 -35.5l-92 -455q-47 -223 -298 -223q-219 0 -219 160z" />
    <glyph glyph-name="uni1EEC" unicode="&#x1eec;" horiz-adv-x="739" 
d="M500 869h23q29 0 47.5 14t23.5 38q1 3 1 9q0 17 -12 27t-36 10q-27 0 -58 -16l-1 30q15 7 36 12t41 5q35 0 57.5 -15.5t22.5 -46.5q0 -5 -2 -17q-7 -34 -32 -53t-64 -23l-23 -64h-37zM112 150q0 31 7 63l93 456q-43 7 -74 19l2 12h244l-2 -13q-37 -12 -82 -18l-95 -466
q-5 -24 -5 -50q0 -126 161 -126q84 0 144.5 41.5t79.5 134.5l95 467q-39 5 -75 18l2 12h129q38 0 69.5 12.5t40.5 37.5q-9 -5 -19 -5q-17 0 -27 10t-10 27q0 23 17.5 42.5t47.5 19.5q47 0 47 -44q0 -8 -2 -22q-10 -45 -58.5 -74.5t-120.5 -35.5l-92 -455q-47 -223 -298 -223
q-219 0 -219 160z" />
    <glyph glyph-name="uni1EEE" unicode="&#x1eee;" horiz-adv-x="739" 
d="M381 855q29 25 68 25q21 0 38 -8t38 -23q18 -13 29.5 -18.5t23.5 -5.5q23 0 42.5 14.5t32.5 45.5h30q-16 -49 -45.5 -76.5t-70.5 -27.5q-16 0 -31.5 7.5t-39.5 22.5q-18 13 -31.5 19.5t-25.5 6.5q-23 0 -42.5 -15.5t-29.5 -41.5h-32q17 50 46 75zM112 150q0 31 7 63
l93 456q-43 7 -74 19l2 12h244l-2 -13q-37 -12 -82 -18l-95 -466q-5 -24 -5 -50q0 -126 161 -126q84 0 144.5 41.5t79.5 134.5l95 467q-39 5 -75 18l2 12h129q38 0 69.5 12.5t40.5 37.5q-9 -5 -19 -5q-17 0 -27 10t-10 27q0 23 17.5 42.5t47.5 19.5q47 0 47 -44q0 -8 -2 -22
q-10 -45 -58.5 -74.5t-120.5 -35.5l-92 -455q-47 -223 -298 -223q-219 0 -219 160z" />
    <glyph glyph-name="Uhungarumlaut" unicode="&#x170;" horiz-adv-x="739" 
d="M327 808l131 106q27 24 48 24q12 0 19 -6.5t7 -15.5q0 -27 -41 -48l-153 -83zM516 808l132 106q8 8 21.5 16t26.5 8q12 0 19 -6.5t7 -15.5q0 -27 -41 -48l-154 -83zM112 150q0 31 7 63l93 456q-43 7 -74 19l2 12h244l-2 -13q-37 -12 -82 -18l-95 -466q-5 -24 -5 -50
q0 -126 161 -126q84 0 144.5 41.5t79.5 134.5l95 467q-39 5 -75 18l2 12h199l-2 -12q-45 -15 -83 -20l-92 -455q-47 -223 -298 -223q-219 0 -219 160z" />
    <glyph glyph-name="Umacron" unicode="&#x16a;" horiz-adv-x="739" 
d="M337 821h319l-7 -35h-319zM112 150q0 31 7 63l93 456q-43 7 -74 19l2 12h244l-2 -13q-37 -12 -82 -18l-95 -466q-5 -24 -5 -50q0 -126 161 -126q84 0 144.5 41.5t79.5 134.5l95 467q-39 5 -75 18l2 12h199l-2 -12q-45 -15 -83 -20l-92 -455q-47 -223 -298 -223
q-219 0 -219 160z" />
    <glyph glyph-name="Uogonek" unicode="&#x172;" horiz-adv-x="739" 
d="M806 700l-2 -12q-45 -15 -83 -20l-92 -455q-38 -180 -208 -215q-31 -18 -53.5 -46t-22.5 -56q0 -19 13.5 -29t35.5 -10q26 0 54 14l-8 -41q-39 -17 -83 -17q-40 0 -61.5 18t-21.5 46q0 33 22 63.5t59 50.5q-8 -1 -24 -1q-219 0 -219 160q0 31 7 63l93 456q-43 7 -74 19
l2 12h244l-2 -13q-37 -12 -82 -18l-95 -466q-5 -24 -5 -50q0 -126 161 -126q84 0 144.5 41.5t79.5 134.5l95 467q-39 5 -75 18l2 12h199z" />
    <glyph glyph-name="Uring" unicode="&#x16e;" horiz-adv-x="739" 
d="M434 790q-20 18 -20 48q0 48 32 79t77 31q33 0 52.5 -18.5t19.5 -49.5q0 -47 -31 -77.5t-76 -30.5q-34 0 -54 18zM540.5 822.5q19.5 18.5 19.5 49.5q0 20 -11.5 31.5t-32.5 11.5q-27 0 -47.5 -19t-20.5 -49q0 -20 12.5 -31.5t32.5 -11.5q28 0 47.5 18.5zM112 150
q0 31 7 63l93 456q-43 7 -74 19l2 12h244l-2 -13q-37 -12 -82 -18l-95 -466q-5 -24 -5 -50q0 -126 161 -126q84 0 144.5 41.5t79.5 134.5l95 467q-39 5 -75 18l2 12h199l-2 -12q-45 -15 -83 -20l-92 -455q-47 -223 -298 -223q-219 0 -219 160z" />
    <glyph glyph-name="Utilde" unicode="&#x168;" horiz-adv-x="739" 
d="M373.5 861q29.5 25 68.5 25q20 0 37 -8t38 -23q16 -12 28.5 -18t24.5 -6q23 0 42.5 14.5t32.5 45.5h30q-15 -49 -44.5 -76.5t-70.5 -27.5q-16 0 -31 7t-41 23q-18 13 -31.5 19.5t-25.5 6.5q-23 0 -42.5 -15.5t-29.5 -41.5h-32q17 50 46.5 75zM112 150q0 31 7 63l93 456
q-43 7 -74 19l2 12h244l-2 -13q-37 -12 -82 -18l-95 -466q-5 -24 -5 -50q0 -126 161 -126q84 0 144.5 41.5t79.5 134.5l95 467q-39 5 -75 18l2 12h199l-2 -12q-45 -15 -83 -20l-92 -455q-47 -223 -298 -223q-219 0 -219 160z" />
    <glyph glyph-name="V" unicode="V" horiz-adv-x="696" 
d="M186 668q-39 7 -68 20l2 12h239l-2 -13q-37 -13 -83 -18l67 -595l311 595q-50 7 -77 20l2 11h205l-2 -13q-39 -15 -77 -21l-360 -671h-71z" />
    <glyph glyph-name="W" unicode="W" horiz-adv-x="973" 
d="M187 667q-32 6 -69 21l2 12h238l-2 -13q-35 -14 -83 -19l17 -556l281 554h43l69 -589l270 595q-27 5 -58 15l2 13h163l-2 -11q-33 -14 -61 -18l-309 -676h-76l-62 541l-274 -541h-62z" />
    <glyph glyph-name="Wacute" unicode="&#x1e82;" horiz-adv-x="973" 
d="M549 809l131 106q26 23 48 23q14 0 20 -8t4 -19q-4 -23 -40 -43l-152 -82zM187 667q-32 6 -69 21l2 12h238l-2 -13q-35 -14 -83 -19l17 -556l281 554h43l69 -589l270 595q-27 5 -58 15l2 13h163l-2 -11q-33 -14 -61 -18l-309 -676h-76l-62 541l-274 -541h-62z" />
    <glyph glyph-name="Wcircumflex" unicode="&#x174;" horiz-adv-x="973" 
d="M479 812q35 22 80 58t70 64h41q15 -29 45 -65t56 -57l-43 -32q-24 22 -48.5 52.5t-36.5 56.5h-5q-23 -25 -60 -55.5t-71 -53.5zM187 667q-32 6 -69 21l2 12h238l-2 -13q-35 -14 -83 -19l17 -556l281 554h43l69 -589l270 595q-27 5 -58 15l2 13h163l-2 -11
q-33 -14 -61 -18l-309 -676h-76l-62 541l-274 -541h-62z" />
    <glyph glyph-name="Wdieresis" unicode="&#x1e84;" horiz-adv-x="973" 
d="M488 794.5q-9 9.5 -9 23.5q0 8 1 12q5 21 18.5 34t32.5 13q16 0 25 -9t9 -25q0 -25 -15 -41.5t-38 -16.5q-15 0 -24 9.5zM698 794q-9 9 -9 24q0 8 1 12q5 21 19 34t33 13q16 0 25.5 -9.5t9.5 -26.5q0 -7 -1 -11q-5 -20 -19.5 -32.5t-33.5 -12.5q-16 0 -25 9zM187 667
q-32 6 -69 21l2 12h238l-2 -13q-35 -14 -83 -19l17 -556l281 554h43l69 -589l270 595q-27 5 -58 15l2 13h163l-2 -11q-33 -14 -61 -18l-309 -676h-76l-62 541l-274 -541h-62z" />
    <glyph glyph-name="Wgrave" unicode="&#x1e80;" horiz-adv-x="973" 
d="M562 868q-28 19 -24 43q2 10 12 18.5t24 8.5q22 0 38 -22l90 -107l-20 -23zM187 667q-32 6 -69 21l2 12h238l-2 -13q-35 -14 -83 -19l17 -556l281 554h43l69 -589l270 595q-27 5 -58 15l2 13h163l-2 -11q-33 -14 -61 -18l-309 -676h-76l-62 541l-274 -541h-62z" />
    <glyph glyph-name="X" unicode="X" horiz-adv-x="660" 
d="M720 700l-2 -12q-37 -15 -59 -18l-258 -285l147 -354q37 -8 66 -19l-2 -12h-240l2 10q43 18 89 22l-120 289l-265 -293q31 -7 59 -17l-2 -11h-161l2 12q24 9 56 16l296 328l-129 311q-34 7 -65 20l2 13h239l-3 -14q-42 -15 -88 -19l103 -247l226 250q-34 7 -57 18l2 12
h162z" />
    <glyph glyph-name="Y" unicode="Y" horiz-adv-x="682" 
d="M185 11q48 15 82 19l56 272l-136 365q-35 6 -69 20l2 13h241l-3 -14q-42 -15 -85 -19l119 -325l264 328q-30 7 -58 18l2 12h168l-3 -14q-23 -10 -56 -15l-299 -370l-55 -271q39 -7 75 -19l-2 -11h-245z" />
    <glyph glyph-name="Yacute" unicode="&#xdd;" horiz-adv-x="682" 
d="M398 809l131 106q14 11 24.5 17t23.5 6q14 0 20 -8t4 -19q-4 -23 -39 -43l-153 -82zM185 11q48 15 82 19l56 272l-136 365q-35 6 -69 20l2 13h241l-3 -14q-42 -15 -85 -19l119 -325l264 328q-30 7 -58 18l2 12h168l-3 -14q-23 -10 -56 -15l-299 -370l-55 -271
q39 -7 75 -19l-2 -11h-245z" />
    <glyph glyph-name="Ycircumflex" unicode="&#x176;" horiz-adv-x="682" 
d="M323 812q35 22 79.5 58t69.5 64h42q15 -29 44.5 -65t55.5 -57l-43 -32q-24 22 -48 52.5t-36 56.5h-5q-24 -26 -61 -56.5t-71 -52.5zM185 11q48 15 82 19l56 272l-136 365q-35 6 -69 20l2 13h241l-3 -14q-42 -15 -85 -19l119 -325l264 328q-30 7 -58 18l2 12h168l-3 -14
q-23 -10 -56 -15l-299 -370l-55 -271q39 -7 75 -19l-2 -11h-245z" />
    <glyph glyph-name="Ydieresis" unicode="&#x178;" horiz-adv-x="682" 
d="M346 794.5q-9 9.5 -9 23.5q0 8 1 12q5 21 18.5 34t32.5 13q16 0 25 -9t9 -25q0 -25 -15 -41.5t-38 -16.5q-15 0 -24 9.5zM556 794q-9 9 -9 24q0 8 1 12q5 21 19 34t33 13q16 0 25.5 -9.5t9.5 -26.5q0 -7 -1 -11q-5 -20 -19.5 -32.5t-33.5 -12.5q-16 0 -25 9zM185 11
q48 15 82 19l56 272l-136 365q-35 6 -69 20l2 13h241l-3 -14q-42 -15 -85 -19l119 -325l264 328q-30 7 -58 18l2 12h168l-3 -14q-23 -10 -56 -15l-299 -370l-55 -271q39 -7 75 -19l-2 -11h-245z" />
    <glyph glyph-name="uni1E8E" unicode="&#x1e8e;" horiz-adv-x="682" 
d="M437 794q-9 9 -9 24q0 8 1 12q5 21 19 34t34 13q16 0 25 -9.5t9 -26.5q0 -7 -1 -11q-5 -20 -19 -32.5t-33 -12.5q-17 0 -26 9zM185 11q48 15 82 19l56 272l-136 365q-35 6 -69 20l2 13h241l-3 -14q-42 -15 -85 -19l119 -325l264 328q-30 7 -58 18l2 12h168l-3 -14
q-23 -10 -56 -15l-299 -370l-55 -271q39 -7 75 -19l-2 -11h-245z" />
    <glyph glyph-name="uni1EF4" unicode="&#x1ef4;" horiz-adv-x="682" 
d="M185 11q48 15 82 19l56 272l-136 365q-35 6 -69 20l2 13h241l-3 -14q-42 -15 -85 -19l119 -325l264 328q-30 7 -58 18l2 12h168l-3 -14q-23 -10 -56 -15l-299 -370l-55 -271q39 -7 75 -19l-2 -11h-245zM244.5 -142q-9.5 9 -9.5 24q0 8 1 12q5 21 19.5 34t33.5 13
q16 0 25.5 -9.5t9.5 -26.5q0 -7 -1 -11q-5 -20 -19.5 -32.5t-33.5 -12.5q-16 0 -25.5 9z" />
    <glyph glyph-name="Ygrave" unicode="&#x1ef2;" horiz-adv-x="682" 
d="M409 868q-28 20 -24 43q2 11 12 19t24 8q22 0 38 -22l90 -107l-20 -23zM185 11q48 15 82 19l56 272l-136 365q-35 6 -69 20l2 13h241l-3 -14q-42 -15 -85 -19l119 -325l264 328q-30 7 -58 18l2 12h168l-3 -14q-23 -10 -56 -15l-299 -370l-55 -271q39 -7 75 -19l-2 -11
h-245z" />
    <glyph glyph-name="uni1EF6" unicode="&#x1ef6;" horiz-adv-x="682" 
d="M480 873h23q28 0 47 14t24 38q1 3 1 9q0 16 -12.5 26.5t-35.5 10.5q-27 0 -59 -16v30q36 17 77 17q35 0 57.5 -15.5t22.5 -46.5q0 -5 -2 -17q-14 -68 -96 -76l-23 -64h-37zM185 11q48 15 82 19l56 272l-136 365q-35 6 -69 20l2 13h241l-3 -14q-42 -15 -85 -19l119 -325
l264 328q-30 7 -58 18l2 12h168l-3 -14q-23 -10 -56 -15l-299 -370l-55 -271q39 -7 75 -19l-2 -11h-245z" />
    <glyph glyph-name="uni1EF8" unicode="&#x1ef8;" horiz-adv-x="682" 
d="M349.5 861q29.5 25 68.5 25q20 0 37 -8t38 -23q16 -12 28.5 -18t24.5 -6q23 0 42.5 14.5t32.5 45.5h30q-15 -49 -44.5 -76.5t-70.5 -27.5q-16 0 -31 7t-41 23q-18 13 -31.5 19.5t-25.5 6.5q-23 0 -42.5 -15.5t-29.5 -41.5h-32q17 50 46.5 75zM185 11q48 15 82 19l56 272
l-136 365q-35 6 -69 20l2 13h241l-3 -14q-42 -15 -85 -19l119 -325l264 328q-30 7 -58 18l2 12h168l-3 -14q-23 -10 -56 -15l-299 -370l-55 -271q39 -7 75 -19l-2 -11h-245z" />
    <glyph glyph-name="Z" unicode="Z" horiz-adv-x="554" 
d="M-10 23l531 640h-317q-5 -21 -21 -58t-27 -51h-21l30 146h460l-3 -17l-535 -648h342q7 22 26.5 58.5t32.5 50.5h21l-43 -144h-479z" />
    <glyph glyph-name="Zacute" unicode="&#x179;" horiz-adv-x="554" 
d="M355 809l131 106q26 23 48 23q14 0 20 -8t4 -19q-4 -23 -40 -43l-152 -82zM-10 23l531 640h-317q-5 -21 -21 -58t-27 -51h-21l30 146h460l-3 -17l-535 -648h342q7 22 26.5 58.5t32.5 50.5h21l-43 -144h-479z" />
    <glyph glyph-name="Zcaron" unicode="&#x17d;" horiz-adv-x="554" 
d="M340 851q-30 36 -56 58l41 32q25 -22 49.5 -52.5t36.5 -56.5h5q23 26 59.5 56.5t70.5 52.5l30 -32q-35 -21 -80 -57t-71 -66h-41q-14 29 -44 65zM-10 23l531 640h-317q-5 -21 -21 -58t-27 -51h-21l30 146h460l-3 -17l-535 -648h342q7 22 26.5 58.5t32.5 50.5h21l-43 -144
h-479z" />
    <glyph glyph-name="Zdotaccent" unicode="&#x17b;" horiz-adv-x="554" 
d="M375.5 794q-9.5 9 -9.5 23q0 5 2 13q4 21 18.5 34t33.5 13q16 0 25 -9.5t9 -25.5q0 -24 -15.5 -40.5t-37.5 -16.5q-16 0 -25.5 9zM-10 23l531 640h-317q-5 -21 -21 -58t-27 -51h-21l30 146h460l-3 -17l-535 -648h342q7 22 26.5 58.5t32.5 50.5h21l-43 -144h-479z" />
    <glyph glyph-name="uni1E92" unicode="&#x1e92;" horiz-adv-x="554" 
d="M-10 23l531 640h-317q-5 -21 -21 -58t-27 -51h-21l30 146h460l-3 -17l-535 -648h342q7 22 26.5 58.5t32.5 50.5h21l-43 -144h-479zM177.5 -142q-9.5 9 -9.5 24q0 8 1 12q5 21 19.5 34t33.5 13q16 0 25 -9t9 -25q0 -25 -15.5 -41.5t-37.5 -16.5q-16 0 -25.5 9z" />
    <glyph glyph-name="a" unicode="a" horiz-adv-x="531" 
d="M57 30.5q-29 40.5 -29 104.5q0 34 8 74q15 75 52.5 142.5t100 111.5t146.5 44q59 0 95 -36l6 27h85l-83 -411q-4 -22 -4 -29q0 -23 16 -23q19 0 47.5 37.5t42.5 75.5l20 -10q-26 -64 -67 -106t-88 -42q-26 0 -40 22t-14 56q0 16 3 34l19 94q-46 -102 -102.5 -154
t-121.5 -52q-63 0 -92 40.5zM279.5 82.5q43.5 51.5 76 120t40.5 110.5l25 120q-13 19 -33.5 31t-47.5 12q-52 0 -96.5 -36t-74.5 -92.5t-43 -118.5q-7 -33 -7 -75q0 -53 17.5 -88t59.5 -35q40 0 83.5 51.5z" />
    <glyph glyph-name="aacute" unicode="&#xe1;" horiz-adv-x="531" 
d="M282 607l131 106q26 23 48 23q14 0 20 -8t4 -19q-4 -23 -40 -43l-152 -82zM57 30.5q-29 40.5 -29 104.5q0 34 8 74q15 75 52.5 142.5t100 111.5t146.5 44q59 0 95 -36l6 27h85l-83 -411q-4 -22 -4 -29q0 -23 16 -23q19 0 47.5 37.5t42.5 75.5l20 -10q-26 -64 -67 -106
t-88 -42q-26 0 -40 22t-14 56q0 16 3 34l19 94q-46 -102 -102.5 -154t-121.5 -52q-63 0 -92 40.5zM279.5 82.5q43.5 51.5 76 120t40.5 110.5l25 120q-13 19 -33.5 31t-47.5 12q-52 0 -96.5 -36t-74.5 -92.5t-43 -118.5q-7 -33 -7 -75q0 -53 17.5 -88t59.5 -35
q40 0 83.5 51.5z" />
    <glyph glyph-name="abreve" unicode="&#x103;" horiz-adv-x="531" 
d="M259.5 602q-32.5 27 -32.5 81l1 16h52l-1 -15q0 -72 80 -72q37 0 67 18t45 69h54q-20 -62 -65.5 -93t-108.5 -31q-59 0 -91.5 27zM57 30.5q-29 40.5 -29 104.5q0 34 8 74q15 75 52.5 142.5t100 111.5t146.5 44q59 0 95 -36l6 27h85l-83 -411q-4 -22 -4 -29q0 -23 16 -23
q19 0 47.5 37.5t42.5 75.5l20 -10q-26 -64 -67 -106t-88 -42q-26 0 -40 22t-14 56q0 16 3 34l19 94q-46 -102 -102.5 -154t-121.5 -52q-63 0 -92 40.5zM279.5 82.5q43.5 51.5 76 120t40.5 110.5l25 120q-13 19 -33.5 31t-47.5 12q-52 0 -96.5 -36t-74.5 -92.5t-43 -118.5
q-7 -33 -7 -75q0 -53 17.5 -88t59.5 -35q40 0 83.5 51.5z" />
    <glyph glyph-name="uni1EAF" unicode="&#x1eaf;" horiz-adv-x="531" 
d="M333 719l93 79q41 33 63 33q11 0 16.5 -6.5t3.5 -16.5q-2 -13 -16 -27t-38 -26l-111 -57zM251.5 606q-33.5 27 -33.5 79q0 11 1 17h54q-1 -6 -1 -17q0 -41 21.5 -55t55.5 -14q39 0 69.5 17.5t45.5 68.5h52q-20 -61 -65 -92t-108 -31q-58 0 -91.5 27zM57 30.5
q-29 40.5 -29 104.5q0 34 8 74q15 75 52.5 142.5t100 111.5t146.5 44q59 0 95 -36l6 27h85l-83 -411q-4 -22 -4 -29q0 -23 16 -23q19 0 47.5 37.5t42.5 75.5l20 -10q-26 -64 -67 -106t-88 -42q-26 0 -40 22t-14 56q0 16 3 34l19 94q-46 -102 -102.5 -154t-121.5 -52
q-63 0 -92 40.5zM279.5 82.5q43.5 51.5 76 120t40.5 110.5l25 120q-13 19 -33.5 31t-47.5 12q-52 0 -96.5 -36t-74.5 -92.5t-43 -118.5q-7 -33 -7 -75q0 -53 17.5 -88t59.5 -35q40 0 83.5 51.5z" />
    <glyph glyph-name="uni1EB7" unicode="&#x1eb7;" horiz-adv-x="531" 
d="M270 702q-1 -6 -1 -16q0 -42 22.5 -56.5t57.5 -14.5q37 0 67 18t45 69h54q-20 -62 -65.5 -93t-108.5 -31t-95.5 31t-28.5 93h53zM88.5 351.5q37.5 67.5 100 111.5t146.5 44q59 0 95 -36l6 27h85l-83 -411q-4 -22 -4 -29q0 -23 16 -23q19 0 47.5 37.5t42.5 75.5l20 -10
q-26 -64 -67 -106t-88 -42q-26 0 -40 22t-14 56q0 16 3 34l19 94q-46 -102 -102.5 -154t-121.5 -52q-63 0 -92 40.5t-29 104.5q0 34 8 74q15 75 52.5 142.5zM119 154q0 -53 17.5 -88t59.5 -35q40 0 83.5 51.5t76 120t40.5 110.5l25 120q-13 19 -33.5 31t-47.5 12
q-52 0 -96.5 -36t-74.5 -92.5t-43 -118.5q-7 -33 -7 -75zM169.5 -72q14.5 13 34.5 13q16 0 25 -9.5t9 -25.5q0 -24 -15.5 -40.5t-38.5 -16.5q-16 0 -25 9t-9 24q0 8 1 12q4 21 18.5 34z" />
    <glyph glyph-name="uni1EB1" unicode="&#x1eb1;" horiz-adv-x="531" 
d="M300 755q-19 12 -26.5 26t-5.5 27q2 10 10 16.5t19 6.5q23 0 50 -33l61 -79l-18 -21zM252.5 606q-33.5 27 -33.5 79q0 11 1 17h54q-1 -6 -1 -17q0 -41 21.5 -55t55.5 -14q39 0 69.5 17.5t45.5 68.5h52q-20 -61 -65 -92t-108 -31q-58 0 -91.5 27zM57 30.5
q-29 40.5 -29 104.5q0 34 8 74q15 75 52.5 142.5t100 111.5t146.5 44q59 0 95 -36l6 27h85l-83 -411q-4 -22 -4 -29q0 -23 16 -23q19 0 47.5 37.5t42.5 75.5l20 -10q-26 -64 -67 -106t-88 -42q-26 0 -40 22t-14 56q0 16 3 34l19 94q-46 -102 -102.5 -154t-121.5 -52
q-63 0 -92 40.5zM279.5 82.5q43.5 51.5 76 120t40.5 110.5l25 120q-13 19 -33.5 31t-47.5 12q-52 0 -96.5 -36t-74.5 -92.5t-43 -118.5q-7 -33 -7 -75q0 -53 17.5 -88t59.5 -35q40 0 83.5 51.5z" />
    <glyph glyph-name="uni1EB3" unicode="&#x1eb3;" horiz-adv-x="531" 
d="M353 764h20q25 0 40.5 11t20.5 31q3 17 -7 27t-33 10q-25 0 -51 -13v27q32 14 66 14q31 0 50.5 -13t19.5 -39q0 -9 -1 -14q-13 -57 -83 -63l-20 -53h-33zM251.5 606q-33.5 27 -33.5 79q0 11 1 17h54q-1 -6 -1 -17q0 -41 21.5 -55t55.5 -14q39 0 69.5 17.5t45.5 68.5h52
q-20 -61 -65 -92t-108 -31q-58 0 -91.5 27zM57 30.5q-29 40.5 -29 104.5q0 34 8 74q15 75 52.5 142.5t100 111.5t146.5 44q59 0 95 -36l6 27h85l-83 -411q-4 -22 -4 -29q0 -23 16 -23q19 0 47.5 37.5t42.5 75.5l20 -10q-26 -64 -67 -106t-88 -42q-26 0 -40 22t-14 56
q0 16 3 34l19 94q-46 -102 -102.5 -154t-121.5 -52q-63 0 -92 40.5zM279.5 82.5q43.5 51.5 76 120t40.5 110.5l25 120q-13 19 -33.5 31t-47.5 12q-52 0 -96.5 -36t-74.5 -92.5t-43 -118.5q-7 -33 -7 -75q0 -53 17.5 -88t59.5 -35q40 0 83.5 51.5z" />
    <glyph glyph-name="uni1EB5" unicode="&#x1eb5;" horiz-adv-x="531" 
d="M270.5 836q28.5 25 65.5 25q19 0 34 -8t34 -23q14 -12 24 -18t22 -6q46 0 73 60h29q-16 -49 -45 -76.5t-67 -27.5q-16 0 -30 8t-35 23q-18 13 -29 19t-22 6q-21 0 -39.5 -15.5t-29.5 -41.5h-30q17 50 45.5 75zM251.5 606q-33.5 27 -33.5 79q0 11 1 17h54q-1 -6 -1 -17
q0 -41 21.5 -55t55.5 -14q39 0 69.5 17.5t45.5 68.5h52q-20 -61 -65 -92t-108 -31q-58 0 -91.5 27zM57 30.5q-29 40.5 -29 104.5q0 34 8 74q15 75 52.5 142.5t100 111.5t146.5 44q59 0 95 -36l6 27h85l-83 -411q-4 -22 -4 -29q0 -23 16 -23q19 0 47.5 37.5t42.5 75.5l20 -10
q-26 -64 -67 -106t-88 -42q-26 0 -40 22t-14 56q0 16 3 34l19 94q-46 -102 -102.5 -154t-121.5 -52q-63 0 -92 40.5zM279.5 82.5q43.5 51.5 76 120t40.5 110.5l25 120q-13 19 -33.5 31t-47.5 12q-52 0 -96.5 -36t-74.5 -92.5t-43 -118.5q-7 -33 -7 -75q0 -53 17.5 -88
t59.5 -35q40 0 83.5 51.5z" />
    <glyph glyph-name="uni01CE" unicode="&#x1ce;" horiz-adv-x="531" 
d="M271 649q-30 36 -56 58l43 32q24 -22 48 -52.5t36 -56.5h5q25 26 62 56.5t69 52.5l30 -32q-36 -22 -81 -58t-70 -65h-41q-15 29 -45 65zM57 30.5q-29 40.5 -29 104.5q0 34 8 74q15 75 52.5 142.5t100 111.5t146.5 44q59 0 95 -36l6 27h85l-83 -411q-4 -22 -4 -29
q0 -23 16 -23q19 0 47.5 37.5t42.5 75.5l20 -10q-26 -64 -67 -106t-88 -42q-26 0 -40 22t-14 56q0 16 3 34l19 94q-46 -102 -102.5 -154t-121.5 -52q-63 0 -92 40.5zM279.5 82.5q43.5 51.5 76 120t40.5 110.5l25 120q-13 19 -33.5 31t-47.5 12q-52 0 -96.5 -36t-74.5 -92.5
t-43 -118.5q-7 -33 -7 -75q0 -53 17.5 -88t59.5 -35q40 0 83.5 51.5z" />
    <glyph glyph-name="acircumflex" unicode="&#xe2;" horiz-adv-x="531" 
d="M213 610q35 22 80 58t70 64h41q15 -29 45 -65t56 -57l-43 -32q-24 22 -48 52.5t-37 56.5h-5q-23 -25 -60 -55.5t-71 -53.5zM57 30.5q-29 40.5 -29 104.5q0 34 8 74q15 75 52.5 142.5t100 111.5t146.5 44q59 0 95 -36l6 27h85l-83 -411q-4 -22 -4 -29q0 -23 16 -23
q19 0 47.5 37.5t42.5 75.5l20 -10q-26 -64 -67 -106t-88 -42q-26 0 -40 22t-14 56q0 16 3 34l19 94q-46 -102 -102.5 -154t-121.5 -52q-63 0 -92 40.5zM279.5 82.5q43.5 51.5 76 120t40.5 110.5l25 120q-13 19 -33.5 31t-47.5 12q-52 0 -96.5 -36t-74.5 -92.5t-43 -118.5
q-7 -33 -7 -75q0 -53 17.5 -88t59.5 -35q40 0 83.5 51.5z" />
    <glyph glyph-name="uni1EA5" unicode="&#x1ea5;" horiz-adv-x="531" 
d="M480 719l94 79q18 16 34.5 24.5t28.5 8.5q10 0 15.5 -6.5t3.5 -16.5q-2 -13 -15.5 -27t-38.5 -26l-111 -57zM213 610q35 21 79.5 57t70.5 65h41q15 -28 44.5 -64t54.5 -58l-41 -32q-24 22 -48 52.5t-37 56.5h-4q-25 -26 -62 -56.5t-69 -52.5zM57 30.5q-29 40.5 -29 104.5
q0 34 8 74q15 75 52.5 142.5t100 111.5t146.5 44q59 0 95 -36l6 27h85l-83 -411q-4 -22 -4 -29q0 -23 16 -23q19 0 47.5 37.5t42.5 75.5l20 -10q-26 -64 -67 -106t-88 -42q-26 0 -40 22t-14 56q0 16 3 34l19 94q-46 -102 -102.5 -154t-121.5 -52q-63 0 -92 40.5zM279.5 82.5
q43.5 51.5 76 120t40.5 110.5l25 120q-13 19 -33.5 31t-47.5 12q-52 0 -96.5 -36t-74.5 -92.5t-43 -118.5q-7 -33 -7 -75q0 -53 17.5 -88t59.5 -35q40 0 83.5 51.5z" />
    <glyph glyph-name="uni1EAD" unicode="&#x1ead;" horiz-adv-x="531" 
d="M281.5 668q44.5 36 69.5 64h42q15 -29 44.5 -65t55.5 -57l-43 -32q-24 22 -48 52.5t-36 56.5h-5q-24 -26 -61 -56.5t-71 -52.5l-27 32q35 22 79.5 58zM88.5 351.5q37.5 67.5 100 111.5t146.5 44q59 0 95 -36l6 27h85l-83 -411q-4 -22 -4 -29q0 -23 16 -23q19 0 47.5 37.5
t42.5 75.5l20 -10q-26 -64 -67 -106t-88 -42q-26 0 -40 22t-14 56q0 16 3 34l19 94q-46 -102 -102.5 -154t-121.5 -52q-63 0 -92 40.5t-29 104.5q0 34 8 74q15 75 52.5 142.5zM119 154q0 -53 17.5 -88t59.5 -35q40 0 83.5 51.5t76 120t40.5 110.5l25 120q-13 19 -33.5 31
t-47.5 12q-52 0 -96.5 -36t-74.5 -92.5t-43 -118.5q-7 -33 -7 -75zM179.5 -72q14.5 13 33.5 13q16 0 25.5 -9.5t9.5 -26.5q0 -7 -1 -11q-5 -20 -19.5 -32.5t-33.5 -12.5q-16 0 -25.5 9.5t-9.5 24.5q0 7 1 11q5 21 19.5 34z" />
    <glyph glyph-name="uni1EA7" unicode="&#x1ea7;" horiz-adv-x="531" 
d="M180 749q-20 13 -31.5 27t-11.5 27q0 11 9 19.5t21 8.5q13 0 27.5 -11t29.5 -30l54 -71l-19 -21zM203 610q35 21 79.5 57t70.5 65h41q15 -28 44.5 -64t54.5 -58l-41 -32q-24 22 -48 52.5t-37 56.5h-4q-25 -26 -62 -56.5t-69 -52.5zM57 30.5q-29 40.5 -29 104.5q0 34 8 74
q15 75 52.5 142.5t100 111.5t146.5 44q59 0 95 -36l6 27h85l-83 -411q-4 -22 -4 -29q0 -23 16 -23q19 0 47.5 37.5t42.5 75.5l20 -10q-26 -64 -67 -106t-88 -42q-26 0 -40 22t-14 56q0 16 3 34l19 94q-46 -102 -102.5 -154t-121.5 -52q-63 0 -92 40.5zM279.5 82.5
q43.5 51.5 76 120t40.5 110.5l25 120q-13 19 -33.5 31t-47.5 12q-52 0 -96.5 -36t-74.5 -92.5t-43 -118.5q-7 -33 -7 -75q0 -53 17.5 -88t59.5 -35q40 0 83.5 51.5z" />
    <glyph glyph-name="uni1EA9" unicode="&#x1ea9;" horiz-adv-x="531" 
d="M475 764h19q25 0 40.5 11t20.5 31q3 17 -7 27t-33 10q-25 0 -50 -13v27q32 14 65 14q30 0 50.5 -13t20.5 -38q0 -5 -2 -15q-13 -57 -83 -63l-20 -53h-32zM203 610q35 21 79.5 57t70.5 65h41q15 -28 44.5 -64t54.5 -58l-41 -32q-24 22 -48 52.5t-37 56.5h-4
q-25 -26 -62 -56.5t-69 -52.5zM57 30.5q-29 40.5 -29 104.5q0 34 8 74q15 75 52.5 142.5t100 111.5t146.5 44q59 0 95 -36l6 27h85l-83 -411q-4 -22 -4 -29q0 -23 16 -23q19 0 47.5 37.5t42.5 75.5l20 -10q-26 -64 -67 -106t-88 -42q-26 0 -40 22t-14 56q0 16 3 34l19 94
q-46 -102 -102.5 -154t-121.5 -52q-63 0 -92 40.5zM279.5 82.5q43.5 51.5 76 120t40.5 110.5l25 120q-13 19 -33.5 31t-47.5 12q-52 0 -96.5 -36t-74.5 -92.5t-43 -118.5q-7 -33 -7 -75q0 -53 17.5 -88t59.5 -35q40 0 83.5 51.5z" />
    <glyph glyph-name="uni1EAB" unicode="&#x1eab;" horiz-adv-x="531" 
d="M335 861q19 0 35.5 -8t36.5 -23q15 -12 26.5 -18t23.5 -6q44 0 71 60h29q-16 -49 -44.5 -76.5t-67.5 -27.5q-16 0 -30 7t-37 23q-17 13 -29.5 19.5t-24.5 6.5q-21 0 -39.5 -15.5t-30.5 -41.5h-29q33 100 110 100zM203 610q35 21 79.5 57t70.5 65h41q15 -28 44.5 -64
t54.5 -58l-41 -32q-24 22 -48 52.5t-37 56.5h-4q-25 -26 -62 -56.5t-69 -52.5zM57 30.5q-29 40.5 -29 104.5q0 34 8 74q15 75 52.5 142.5t100 111.5t146.5 44q59 0 95 -36l6 27h85l-83 -411q-4 -22 -4 -29q0 -23 16 -23q19 0 47.5 37.5t42.5 75.5l20 -10q-26 -64 -67 -106
t-88 -42q-26 0 -40 22t-14 56q0 16 3 34l19 94q-46 -102 -102.5 -154t-121.5 -52q-63 0 -92 40.5zM279.5 82.5q43.5 51.5 76 120t40.5 110.5l25 120q-13 19 -33.5 31t-47.5 12q-52 0 -96.5 -36t-74.5 -92.5t-43 -118.5q-7 -33 -7 -75q0 -53 17.5 -88t59.5 -35
q40 0 83.5 51.5z" />
    <glyph glyph-name="adieresis" unicode="&#xe4;" horiz-adv-x="531" 
d="M228.5 592q-8.5 9 -8.5 24q0 8 1 12q5 21 18.5 34t32.5 13q16 0 25 -9t9 -25q0 -25 -15.5 -41.5t-38.5 -16.5q-15 0 -23.5 9zM439 592q-9 9 -9 24q0 8 1 12q5 21 19 34t33 13q16 0 25 -9t9 -25q0 -25 -15 -41.5t-38 -16.5q-16 0 -25 9zM57 30.5q-29 40.5 -29 104.5
q0 34 8 74q15 75 52.5 142.5t100 111.5t146.5 44q59 0 95 -36l6 27h85l-83 -411q-4 -22 -4 -29q0 -23 16 -23q19 0 47.5 37.5t42.5 75.5l20 -10q-26 -64 -67 -106t-88 -42q-26 0 -40 22t-14 56q0 16 3 34l19 94q-46 -102 -102.5 -154t-121.5 -52q-63 0 -92 40.5zM279.5 82.5
q43.5 51.5 76 120t40.5 110.5l25 120q-13 19 -33.5 31t-47.5 12q-52 0 -96.5 -36t-74.5 -92.5t-43 -118.5q-7 -33 -7 -75q0 -53 17.5 -88t59.5 -35q40 0 83.5 51.5z" />
    <glyph glyph-name="uni1EA1" unicode="&#x1ea1;" horiz-adv-x="531" 
d="M88.5 351.5q37.5 67.5 100 111.5t146.5 44q59 0 95 -36l6 27h85l-83 -411q-4 -22 -4 -29q0 -23 16 -23q19 0 47.5 37.5t42.5 75.5l20 -10q-26 -64 -67 -106t-88 -42q-26 0 -40 22t-14 56q0 16 3 34l19 94q-46 -102 -102.5 -154t-121.5 -52q-63 0 -92 40.5t-29 104.5
q0 34 8 74q15 75 52.5 142.5zM119 154q0 -53 17.5 -88t59.5 -35q40 0 83.5 51.5t76 120t40.5 110.5l25 120q-13 19 -33.5 31t-47.5 12q-52 0 -96.5 -36t-74.5 -92.5t-43 -118.5q-7 -33 -7 -75zM173.5 -72q14.5 13 33.5 13q16 0 25.5 -9.5t9.5 -25.5q0 -24 -15.5 -40.5
t-38.5 -16.5q-16 0 -25 9t-9 24q0 8 1 12q4 21 18.5 34z" />
    <glyph glyph-name="agrave" unicode="&#xe0;" horiz-adv-x="531" 
d="M311 666q-28 20 -24 43q2 11 12 19t25 8q20 0 37 -22l90 -107l-20 -23zM57 30.5q-29 40.5 -29 104.5q0 34 8 74q15 75 52.5 142.5t100 111.5t146.5 44q59 0 95 -36l6 27h85l-83 -411q-4 -22 -4 -29q0 -23 16 -23q19 0 47.5 37.5t42.5 75.5l20 -10q-26 -64 -67 -106
t-88 -42q-26 0 -40 22t-14 56q0 16 3 34l19 94q-46 -102 -102.5 -154t-121.5 -52q-63 0 -92 40.5zM279.5 82.5q43.5 51.5 76 120t40.5 110.5l25 120q-13 19 -33.5 31t-47.5 12q-52 0 -96.5 -36t-74.5 -92.5t-43 -118.5q-7 -33 -7 -75q0 -53 17.5 -88t59.5 -35
q40 0 83.5 51.5z" />
    <glyph glyph-name="uni1EA3" unicode="&#x1ea3;" horiz-adv-x="531" 
d="M336 671h23q28 0 47 14t24 38q1 3 1 9q0 16 -12.5 26.5t-35.5 10.5q-27 0 -59 -16v30q36 17 77 17q35 0 57.5 -15.5t22.5 -46.5q0 -5 -2 -17q-14 -68 -96 -76l-23 -64h-37zM57 30.5q-29 40.5 -29 104.5q0 34 8 74q15 75 52.5 142.5t100 111.5t146.5 44q59 0 95 -36l6 27
h85l-83 -411q-4 -22 -4 -29q0 -23 16 -23q19 0 47.5 37.5t42.5 75.5l20 -10q-26 -64 -67 -106t-88 -42q-26 0 -40 22t-14 56q0 16 3 34l19 94q-46 -102 -102.5 -154t-121.5 -52q-63 0 -92 40.5zM279.5 82.5q43.5 51.5 76 120t40.5 110.5l25 120q-13 19 -33.5 31t-47.5 12
q-52 0 -96.5 -36t-74.5 -92.5t-43 -118.5q-7 -33 -7 -75q0 -53 17.5 -88t59.5 -35q40 0 83.5 51.5z" />
    <glyph glyph-name="uni0251" unicode="&#x251;" horiz-adv-x="564" 
d="M27 161q0 40 11 97q16 79 63 135.5t110 85t130 28.5q63 0 116 -22.5t82 -68.5l-77 -378q34 -7 63 -16l-2 -8l-150 -17q0 29 9 76q-30 -40 -81.5 -61.5t-100.5 -21.5q-173 0 -173 171zM342.5 68.5q47.5 43.5 59.5 104.5l47 231q-35 67 -116 67t-134.5 -55.5t-74.5 -159.5
q-11 -52 -11 -94q0 -137 115 -137q67 0 114.5 43.5z" />
    <glyph glyph-name="amacron" unicode="&#x101;" horiz-adv-x="531" 
d="M208 619h319l-7 -35h-318zM57 30.5q-29 40.5 -29 104.5q0 34 8 74q15 75 52.5 142.5t100 111.5t146.5 44q59 0 95 -36l6 27h85l-83 -411q-4 -22 -4 -29q0 -23 16 -23q19 0 47.5 37.5t42.5 75.5l20 -10q-26 -64 -67 -106t-88 -42q-26 0 -40 22t-14 56q0 16 3 34l19 94
q-46 -102 -102.5 -154t-121.5 -52q-63 0 -92 40.5zM279.5 82.5q43.5 51.5 76 120t40.5 110.5l25 120q-13 19 -33.5 31t-47.5 12q-52 0 -96.5 -36t-74.5 -92.5t-43 -118.5q-7 -33 -7 -75q0 -53 17.5 -88t59.5 -35q40 0 83.5 51.5z" />
    <glyph glyph-name="aogonek" unicode="&#x105;" horiz-adv-x="531" 
d="M381 -50.5q-15 -23.5 -15 -45.5q0 -19 13.5 -29t35.5 -10q26 0 54 14l-8 -41q-39 -17 -83 -17q-40 0 -61.5 18t-21.5 46q0 32 22.5 63.5t59.5 50.5q-26 19 -26 69q0 16 3 34l19 94q-46 -102 -102.5 -154t-121.5 -52q-63 0 -92 40.5t-29 104.5q0 34 8 74q15 75 52.5 142.5
t100 111.5t146.5 44q59 0 95 -36l6 27h85l-83 -411q-4 -22 -4 -29q0 -23 16 -23q19 0 47.5 37.5t42.5 75.5l20 -10q-24 -59 -60.5 -100t-79.5 -47q-24 -18 -39 -41.5zM279.5 82.5q43.5 51.5 76 120t40.5 110.5l25 120q-13 19 -33.5 31t-47.5 12q-52 0 -96.5 -36t-74.5 -92.5
t-43 -118.5q-7 -33 -7 -75q0 -53 17.5 -88t59.5 -35q40 0 83.5 51.5z" />
    <glyph glyph-name="aring" unicode="&#xe5;" horiz-adv-x="531" 
d="M304 588q-20 18 -20 49q0 6 2 20q8 40 38 64.5t70 24.5q33 0 52.5 -18.5t19.5 -50.5q0 -6 -2 -20q-8 -39 -37.5 -63t-68.5 -24q-34 0 -54 18zM406 617q18 15 23 40q2 10 2 14q0 19 -12 30.5t-32 11.5q-28 0 -48 -19.5t-20 -49.5q0 -20 12 -31t33 -11q24 0 42 15zM57 30.5
q-29 40.5 -29 104.5q0 34 8 74q15 75 52.5 142.5t100 111.5t146.5 44q59 0 95 -36l6 27h85l-83 -411q-4 -22 -4 -29q0 -23 16 -23q19 0 47.5 37.5t42.5 75.5l20 -10q-26 -64 -67 -106t-88 -42q-26 0 -40 22t-14 56q0 16 3 34l19 94q-46 -102 -102.5 -154t-121.5 -52
q-63 0 -92 40.5zM279.5 82.5q43.5 51.5 76 120t40.5 110.5l25 120q-13 19 -33.5 31t-47.5 12q-52 0 -96.5 -36t-74.5 -92.5t-43 -118.5q-7 -33 -7 -75q0 -53 17.5 -88t59.5 -35q40 0 83.5 51.5z" />
    <glyph glyph-name="aringacute" unicode="&#x1fb;" horiz-adv-x="531" 
d="M333 783l130 106q14 11 24.5 17t23.5 6q14 0 20 -8t4 -19q-4 -23 -39 -43l-153 -82zM289 575q-20 18 -20 49q0 6 2 20q8 40 38 64.5t70 24.5q33 0 52.5 -18.5t19.5 -50.5q0 -6 -2 -20q-8 -39 -37.5 -63t-68.5 -24q-34 0 -54 18zM391 604q18 15 23 40q2 10 2 14
q0 19 -12 30.5t-32 11.5q-28 0 -48 -19.5t-20 -49.5q0 -20 12 -31t33 -11q24 0 42 15zM57 30.5q-29 40.5 -29 104.5q0 34 8 74q15 75 52.5 142.5t100 111.5t146.5 44q59 0 95 -36l6 27h85l-83 -411q-4 -22 -4 -29q0 -23 16 -23q19 0 47.5 37.5t42.5 75.5l20 -10
q-26 -64 -67 -106t-88 -42q-26 0 -40 22t-14 56q0 16 3 34l19 94q-46 -102 -102.5 -154t-121.5 -52q-63 0 -92 40.5zM279.5 82.5q43.5 51.5 76 120t40.5 110.5l25 120q-13 19 -33.5 31t-47.5 12q-52 0 -96.5 -36t-74.5 -92.5t-43 -118.5q-7 -33 -7 -75q0 -53 17.5 -88
t59.5 -35q40 0 83.5 51.5z" />
    <glyph glyph-name="atilde" unicode="&#xe3;" horiz-adv-x="531" 
d="M250 659q29 25 68 25q20 0 37 -8t38 -23q16 -12 28.5 -18t24.5 -6q23 0 42.5 14.5t32.5 45.5h30q-15 -49 -44.5 -76.5t-70.5 -27.5q-17 0 -33.5 8t-37.5 22q-20 13 -33 19.5t-25 6.5q-22 0 -41.5 -15.5t-30.5 -41.5h-31q17 50 46 75zM57 30.5q-29 40.5 -29 104.5
q0 34 8 74q15 75 52.5 142.5t100 111.5t146.5 44q59 0 95 -36l6 27h85l-83 -411q-4 -22 -4 -29q0 -23 16 -23q19 0 47.5 37.5t42.5 75.5l20 -10q-26 -64 -67 -106t-88 -42q-26 0 -40 22t-14 56q0 16 3 34l19 94q-46 -102 -102.5 -154t-121.5 -52q-63 0 -92 40.5zM279.5 82.5
q43.5 51.5 76 120t40.5 110.5l25 120q-13 19 -33.5 31t-47.5 12q-52 0 -96.5 -36t-74.5 -92.5t-43 -118.5q-7 -33 -7 -75q0 -53 17.5 -88t59.5 -35q40 0 83.5 51.5z" />
    <glyph glyph-name="ae" unicode="&#xe6;" horiz-adv-x="837" 
d="M50.5 17.5q-37.5 27.5 -37.5 81.5q0 18 4 35q16 77 79 114t145 37h133q15 45 32 75q1 5 1 15q0 44 -33 70t-83 26q-38 0 -80 -11.5t-79 -29.5l-1 31q42 21 93 33.5t102 12.5q55 0 91 -19.5t48 -54.5q80 74 194 74q96 0 142.5 -28t46.5 -80q0 -13 -3 -28
q-20 -100 -141.5 -140t-259.5 -44q-1 -74 35.5 -118.5t111.5 -44.5q39 0 83.5 13.5t79.5 35.5l2 -26q-32 -24 -84 -40.5t-109 -16.5q-66 0 -113 24.5t-71 69.5q-51 -51 -112.5 -72.5t-116.5 -21.5q-62 0 -99.5 27.5zM659.5 262q92.5 33 107.5 106q2 14 2 21q0 36 -26.5 59
t-83.5 23q-82 0 -135 -65.5t-71 -154.5q-4 -20 -5 -29q119 7 211.5 40zM283 51.5q52 24.5 86 61.5q-11 33 -11 71q0 33 7 65h-111q-61 0 -101 -31.5t-50 -82.5q-3 -16 -3 -31q0 -39 23.5 -58t63.5 -19q44 0 96 24.5z" />
    <glyph glyph-name="aeacute" unicode="&#x1fd;" horiz-adv-x="837" 
d="M468 607l130 106q14 11 24.5 17t23.5 6q14 0 20 -8t4 -19q-4 -23 -39 -43l-153 -82zM50.5 17.5q-37.5 27.5 -37.5 81.5q0 18 4 35q16 77 79 114t145 37h133q15 45 32 75q1 5 1 15q0 44 -33 70t-83 26q-38 0 -80 -11.5t-79 -29.5l-1 31q42 21 93 33.5t102 12.5
q55 0 91 -19.5t48 -54.5q80 74 194 74q96 0 142.5 -28t46.5 -80q0 -13 -3 -28q-20 -100 -141.5 -140t-259.5 -44q-1 -74 35.5 -118.5t111.5 -44.5q39 0 83.5 13.5t79.5 35.5l2 -26q-32 -24 -84 -40.5t-109 -16.5q-66 0 -113 24.5t-71 69.5q-51 -51 -112.5 -72.5
t-116.5 -21.5q-62 0 -99.5 27.5zM659.5 262q92.5 33 107.5 106q2 14 2 21q0 36 -26.5 59t-83.5 23q-82 0 -135 -65.5t-71 -154.5q-4 -20 -5 -29q119 7 211.5 40zM283 51.5q52 24.5 86 61.5q-11 33 -11 71q0 33 7 65h-111q-61 0 -101 -31.5t-50 -82.5q-3 -16 -3 -31
q0 -39 23.5 -58t63.5 -19q44 0 96 24.5z" />
    <glyph glyph-name="b" unicode="b" horiz-adv-x="575" 
d="M184 13q-39 23 -52 64q-17 -48 -35 -83l-58 6l136 666q-39 8 -63 17l1 8l158 16l-77 -377q40 81 104 129t132 48q65 0 103.5 -37t38.5 -114q0 -39 -8 -76q-29 -141 -104.5 -215.5t-180.5 -74.5q-56 0 -95 23zM403.5 93q49.5 68 71.5 175q11 50 11 94q0 109 -85 109
q-32 0 -75 -29.5t-83.5 -82t-66.5 -118.5l-16 -72q-3 -16 -3 -32q0 -49 30.5 -80.5t87.5 -31.5q79 0 128.5 68z" />
    <glyph glyph-name="c" unicode="c" horiz-adv-x="477" 
d="M86.5 42q-53.5 52 -53.5 141q0 33 7 65q25 122 108.5 190.5t199.5 68.5q69 0 113 -21t44 -62q0 -4 -2 -16q-3 -13 -14 -25t-26 -12q-16 0 -23 9.5t-5 22.5q2 6 5 13.5t4 12.5q3 16 -22.5 29.5t-60.5 13.5q-90 0 -151 -59.5t-83 -169.5q-6 -30 -6 -61q0 -70 35.5 -114
t110.5 -44q38 0 81 13.5t76 35.5l2 -26q-32 -25 -81.5 -41t-107.5 -16q-97 0 -150.5 52z" />
    <glyph glyph-name="cacute" unicode="&#x107;" horiz-adv-x="476" 
d="M303 607l131 106q14 11 24.5 17t23.5 6q14 0 20 -8t4 -19q-4 -23 -39 -43l-153 -82zM86.5 42q-53.5 52 -53.5 141q0 33 7 65q25 122 108.5 190.5t199.5 68.5q69 0 113 -21t44 -62q0 -4 -2 -16q-3 -13 -14 -25t-26 -12q-16 0 -23 9.5t-5 22.5q2 6 5 13.5t4 12.5
q3 16 -22.5 29.5t-60.5 13.5q-90 0 -151 -59.5t-83 -169.5q-6 -30 -6 -61q0 -70 35.5 -114t110.5 -44q38 0 81 13.5t76 35.5l2 -26q-32 -25 -81.5 -41t-107.5 -16q-97 0 -150.5 52z" />
    <glyph glyph-name="ccaron" unicode="&#x10d;" horiz-adv-x="476" 
d="M308 649q-30 36 -56 58l42 32q25 -23 49 -53.5t36 -55.5h5q24 26 61 57t70 52l29 -32q-36 -21 -80.5 -57.5t-69.5 -65.5h-42q-14 29 -44 65zM86.5 42q-53.5 52 -53.5 141q0 33 7 65q25 122 108.5 190.5t199.5 68.5q69 0 113 -21t44 -62q0 -4 -2 -16q-3 -13 -14 -25
t-26 -12q-16 0 -23 9.5t-5 22.5q2 6 5 13.5t4 12.5q3 16 -22.5 29.5t-60.5 13.5q-90 0 -151 -59.5t-83 -169.5q-6 -30 -6 -61q0 -70 35.5 -114t110.5 -44q38 0 81 13.5t76 35.5l2 -26q-32 -25 -81.5 -41t-107.5 -16q-97 0 -150.5 52z" />
    <glyph glyph-name="ccedilla" unicode="&#xe7;" horiz-adv-x="476" 
d="M461 486q44 -21 44 -62q0 -4 -2 -16q-3 -13 -14 -25t-26 -12q-16 0 -23 9.5t-5 22.5q2 6 5 13.5t4 12.5q3 16 -22.5 29.5t-60.5 13.5q-90 0 -151 -59.5t-83 -169.5q-6 -30 -6 -61q0 -70 35.5 -114t110.5 -44q38 0 81 13.5t76 35.5l2 -26q-28 -22 -70 -37t-91 -19l-36 -56
q88 0 88 -53q0 -9 -1 -14q-9 -42 -45 -64.5t-87 -22.5q-46 0 -76 18l21 29q24 -12 57 -12t55 12.5t27 39.5q4 19 -11 28t-37 9q-10 0 -24 -2l-16 28l41 59q-89 4 -138.5 55.5t-49.5 136.5q0 34 7 66q25 122 108.5 190.5t199.5 68.5q69 0 113 -21z" />
    <glyph glyph-name="ccircumflex" unicode="&#x109;" horiz-adv-x="476" 
d="M229 610q35 22 80 58t70 64h41q15 -29 45 -65t56 -57l-43 -32q-24 22 -48 52.5t-36 56.5h-5q-24 -26 -61 -56.5t-71 -52.5zM86.5 42q-53.5 52 -53.5 141q0 33 7 65q25 122 108.5 190.5t199.5 68.5q69 0 113 -21t44 -62q0 -4 -2 -16q-3 -13 -14 -25t-26 -12q-16 0 -23 9.5
t-5 22.5q2 6 5 13.5t4 12.5q3 16 -22.5 29.5t-60.5 13.5q-90 0 -151 -59.5t-83 -169.5q-6 -30 -6 -61q0 -70 35.5 -114t110.5 -44q38 0 81 13.5t76 35.5l2 -26q-32 -25 -81.5 -41t-107.5 -16q-97 0 -150.5 52z" />
    <glyph glyph-name="cdotaccent" unicode="&#x10b;" horiz-adv-x="476" 
d="M340 592q-9 9 -9 24q0 8 1 12q5 21 19 34t34 13q16 0 25 -9.5t9 -26.5q0 -7 -1 -11q-5 -20 -19 -32.5t-33 -12.5q-17 0 -26 9zM86.5 42q-53.5 52 -53.5 141q0 33 7 65q25 122 108.5 190.5t199.5 68.5q69 0 113 -21t44 -62q0 -4 -2 -16q-3 -13 -14 -25t-26 -12
q-16 0 -23 9.5t-5 22.5q2 6 5 13.5t4 12.5q3 16 -22.5 29.5t-60.5 13.5q-90 0 -151 -59.5t-83 -169.5q-6 -30 -6 -61q0 -70 35.5 -114t110.5 -44q38 0 81 13.5t76 35.5l2 -26q-32 -25 -81.5 -41t-107.5 -16q-97 0 -150.5 52z" />
    <glyph glyph-name="d" unicode="d" horiz-adv-x="568" 
d="M60.5 32q-31.5 42 -31.5 112q0 34 8 76q15 74 54 139t102.5 106.5t148.5 41.5q41 0 72 -14t46 -33l42 206q-36 8 -62 17l1 8l157 16l-127 -620q-3 -15 -3 -28q0 -26 17 -26q18 0 46 38.5t42 76.5l20 -10q-25 -64 -65.5 -106t-88.5 -42q-26 0 -40.5 21.5t-14.5 55.5
q0 11 4 35l16 79q-52 -94 -115.5 -142.5t-130.5 -48.5q-66 0 -97.5 42zM296 79.5q48 48.5 85.5 113t44.5 103.5l26 125q-10 22 -38.5 37.5t-61.5 15.5q-57 0 -104 -36.5t-78.5 -94.5t-45.5 -123q-6 -30 -6 -59q0 -57 22.5 -93.5t66.5 -36.5q41 0 89 48.5z" />
    <glyph glyph-name="eth" unicode="&#xf0;" horiz-adv-x="573" 
d="M449 671q53 -61 81.5 -138t28.5 -157q0 -41 -8 -84q-29 -142 -109.5 -222t-205.5 -80q-92 0 -140 53.5t-48 138.5q0 35 7 66q13 62 50.5 120.5t99 96t141.5 37.5q44 0 81.5 -19t55.5 -57q-5 57 -26.5 113.5t-59.5 104.5l-177 -93l-6 42l52 28q63 32 103 55q-40 40 -93 68
l32 33q63 -30 111 -75l106 58l35 20l18 -41zM465 319q0 63 -33 105t-89 42q-45 0 -86.5 -28t-72 -78t-43.5 -112q-8 -40 -8 -72q0 -68 28.5 -109.5t84.5 -41.5q76 0 134 70t80 175q5 28 5 49z" />
    <glyph glyph-name="dcaron" unicode="&#x10f;" horiz-adv-x="685" 
d="M60.5 32q-31.5 42 -31.5 112q0 34 8 76q15 74 54 139t102.5 106.5t148.5 41.5q41 0 72 -14t46 -33l42 206q-36 8 -62 17l1 8l157 16l-127 -620q-3 -15 -3 -28q0 -26 17 -26q18 0 46 38.5t42 76.5l20 -10q-25 -64 -65.5 -106t-88.5 -42q-26 0 -40.5 21.5t-14.5 55.5
q0 11 4 35l16 79q-52 -94 -115.5 -142.5t-130.5 -48.5q-66 0 -97.5 42zM632 498q23 22 41.5 51.5t27.5 59.5l-10 -1q-17 0 -27.5 10t-10.5 27q0 28 19 44.5t44 16.5q24 0 35 -12t11 -33q0 -14 -2 -21q-8 -42 -37.5 -90t-65.5 -77zM296 79.5q48 48.5 85.5 113t44.5 103.5
l26 125q-10 22 -38.5 37.5t-61.5 15.5q-57 0 -104 -36.5t-78.5 -94.5t-45.5 -123q-6 -30 -6 -59q0 -57 22.5 -93.5t66.5 -36.5q41 0 89 48.5z" />
    <glyph glyph-name="dcroat" unicode="&#x111;" horiz-adv-x="568" 
d="M398.5 11.5q-14.5 21.5 -14.5 55.5q0 11 4 35l16 79q-52 -93 -114.5 -141t-130.5 -48q-66 0 -98 41.5t-32 111.5q0 33 8 75q15 73 54 138t102.5 106t148.5 41q42 0 73 -13t45 -32l23 110h-150l8 37h150l11 59q-36 8 -62 17l1 8l157 16l-20 -100h50l-8 -37h-50l-99 -483
q-3 -15 -3 -28q0 -26 17 -26q18 0 46 38.5t42 76.5l20 -10q-25 -64 -65.5 -106t-88.5 -42q-26 0 -40.5 21.5zM297 81q48 48 85 112t44 103l26 125q-10 22 -38 36.5t-62 14.5q-57 0 -104 -36t-78.5 -93.5t-45.5 -122.5q-6 -30 -6 -58q0 -57 23 -93t67 -36q41 0 89 48z" />
    <glyph glyph-name="uni1E0D" unicode="&#x1e0d;" horiz-adv-x="568" 
d="M91 359q39 65 102.5 106.5t148.5 41.5q41 0 72 -14t46 -33l42 206q-36 8 -62 17l1 8l157 16l-127 -620q-3 -15 -3 -28q0 -26 17 -26q18 0 46 38.5t42 76.5l20 -10q-25 -64 -65.5 -106t-88.5 -42q-26 0 -40.5 21.5t-14.5 55.5q0 11 4 35l16 79q-52 -94 -115.5 -142.5
t-130.5 -48.5q-66 0 -97.5 42t-31.5 112q0 34 8 76q15 74 54 139zM118 161q0 -57 22.5 -93.5t66.5 -36.5q41 0 89 48.5t85.5 113t44.5 103.5l26 125q-10 22 -38.5 37.5t-61.5 15.5q-57 0 -104 -36.5t-78.5 -94.5t-45.5 -123q-6 -30 -6 -59zM187.5 -76q15.5 17 38.5 17
q16 0 25 -9t9 -25q0 -25 -15.5 -41.5t-38.5 -16.5q-16 0 -25 9t-9 24q0 25 15.5 42z" />
    <glyph glyph-name="uni1E0F" unicode="&#x1e0f;" horiz-adv-x="568" 
d="M91 359q39 65 102.5 106.5t148.5 41.5q41 0 72 -14t46 -33l42 206q-36 8 -62 17l1 8l157 16l-127 -620q-3 -15 -3 -28q0 -26 17 -26q18 0 46 38.5t42 76.5l20 -10q-25 -64 -65.5 -106t-88.5 -42q-26 0 -40.5 21.5t-14.5 55.5q0 11 4 35l16 79q-52 -94 -115.5 -142.5
t-130.5 -48.5q-66 0 -97.5 42t-31.5 112q0 34 8 76q15 74 54 139zM118 161q0 -57 22.5 -93.5t66.5 -36.5q41 0 89 48.5t85.5 113t44.5 103.5l26 125q-10 22 -38.5 37.5t-61.5 15.5q-57 0 -104 -36.5t-78.5 -94.5t-45.5 -123q-6 -30 -6 -59zM68 -69h319l-8 -35h-319z" />
    <glyph glyph-name="e" unicode="e" horiz-adv-x="514" 
d="M477.5 479q46.5 -28 46.5 -79q0 -14 -3 -29q-20 -99 -140.5 -139.5t-257.5 -44.5q-2 -74 34 -118.5t111 -44.5q38 0 82.5 13.5t79.5 35.5l2 -26q-32 -24 -83.5 -40.5t-109.5 -16.5q-97 0 -151 52t-54 141q0 33 7 65q25 119 103.5 189t190.5 70q96 0 142.5 -28zM446 388
q0 36 -26.5 59.5t-84.5 23.5q-81 0 -134 -65.5t-71 -154.5q-4 -20 -5 -29q118 7 211 40.5t108 105.5q2 14 2 20z" />
    <glyph glyph-name="eacute" unicode="&#xe9;" horiz-adv-x="513" 
d="M278 584l-10 23l130 106q14 11 24.5 17t23.5 6q15 0 21 -8t3 -19q-3 -23 -39 -43zM477.5 479q46.5 -28 46.5 -79q0 -14 -3 -29q-20 -99 -140.5 -139.5t-257.5 -44.5q-2 -74 34 -118.5t111 -44.5q38 0 82.5 13.5t79.5 35.5l2 -26q-32 -24 -83.5 -40.5t-109.5 -16.5
q-97 0 -151 52t-54 141q0 33 7 65q25 119 103.5 189t190.5 70q96 0 142.5 -28zM446 388q0 36 -26.5 59.5t-84.5 23.5q-81 0 -134 -65.5t-71 -154.5q-4 -20 -5 -29q118 7 211 40.5t108 105.5q2 14 2 20z" />
    <glyph glyph-name="ebreve" unicode="&#x115;" horiz-adv-x="513" 
d="M243 602q-33 27 -33 81l1 16h53q-1 -6 -1 -16q0 -42 22.5 -56.5t57.5 -14.5q37 0 67 18t45 69h54q-20 -62 -65.5 -93t-108.5 -31q-59 0 -92 27zM477.5 479q46.5 -28 46.5 -79q0 -14 -3 -29q-20 -99 -140.5 -139.5t-257.5 -44.5q-2 -74 34 -118.5t111 -44.5
q38 0 82.5 13.5t79.5 35.5l2 -26q-32 -24 -83.5 -40.5t-109.5 -16.5q-97 0 -151 52t-54 141q0 33 7 65q25 119 103.5 189t190.5 70q96 0 142.5 -28zM446 388q0 36 -26.5 59.5t-84.5 23.5q-81 0 -134 -65.5t-71 -154.5q-4 -20 -5 -29q118 7 211 40.5t108 105.5q2 14 2 20z
" />
    <glyph glyph-name="ecaron" unicode="&#x11b;" horiz-adv-x="513" 
d="M285 649q-30 36 -56 58l42 32q25 -23 49 -53.5t36 -55.5h5q24 26 61 57t70 52l29 -32q-36 -21 -80.5 -57.5t-69.5 -65.5h-42q-14 29 -44 65zM477.5 479q46.5 -28 46.5 -79q0 -14 -3 -29q-20 -99 -140.5 -139.5t-257.5 -44.5q-2 -74 34 -118.5t111 -44.5q38 0 82.5 13.5
t79.5 35.5l2 -26q-32 -24 -83.5 -40.5t-109.5 -16.5q-97 0 -151 52t-54 141q0 33 7 65q25 119 103.5 189t190.5 70q96 0 142.5 -28zM446 388q0 36 -26.5 59.5t-84.5 23.5q-81 0 -134 -65.5t-71 -154.5q-4 -20 -5 -29q118 7 211 40.5t108 105.5q2 14 2 20z" />
    <glyph glyph-name="ecircumflex" unicode="&#xea;" horiz-adv-x="513" 
d="M300 630.5q-37 -30.5 -71 -52.5l-27 32q35 22 79.5 58t69.5 64h42q15 -29 44.5 -65t55.5 -57l-43 -32q-24 22 -48 52.5t-36 56.5h-5q-24 -26 -61 -56.5zM477.5 479q46.5 -28 46.5 -79q0 -14 -3 -29q-20 -99 -140.5 -139.5t-257.5 -44.5q-2 -74 34 -118.5t111 -44.5
q38 0 82.5 13.5t79.5 35.5l2 -26q-32 -24 -83.5 -40.5t-109.5 -16.5q-97 0 -151 52t-54 141q0 33 7 65q25 119 103.5 189t190.5 70q96 0 142.5 -28zM446 388q0 36 -26.5 59.5t-84.5 23.5q-81 0 -134 -65.5t-71 -154.5q-4 -20 -5 -29q118 7 211 40.5t108 105.5q2 14 2 20z
" />
    <glyph glyph-name="uni1EBF" unicode="&#x1ebf;" horiz-adv-x="513" 
d="M642.5 824.5q5.5 -6.5 3.5 -16.5q-2 -13 -15.5 -27t-38.5 -26l-111 -57l-11 21l94 79q18 16 34.5 24.5t28.5 8.5q10 0 15.5 -6.5zM301 630.5q-37 -30.5 -69 -52.5l-29 32q35 21 79.5 57t70.5 65h41q15 -28 44.5 -64t54.5 -58l-41 -32q-24 22 -48 52.5t-37 56.5h-4
q-25 -26 -62 -56.5zM477.5 479q46.5 -28 46.5 -79q0 -14 -3 -29q-20 -99 -140.5 -139.5t-257.5 -44.5q-2 -74 34 -118.5t111 -44.5q38 0 82.5 13.5t79.5 35.5l2 -26q-32 -24 -83.5 -40.5t-109.5 -16.5q-97 0 -151 52t-54 141q0 33 7 65q25 119 103.5 189t190.5 70
q96 0 142.5 -28zM446 388q0 36 -26.5 59.5t-84.5 23.5q-81 0 -134 -65.5t-71 -154.5q-4 -20 -5 -29q118 7 211 40.5t108 105.5q2 14 2 20z" />
    <glyph glyph-name="uni1EC7" unicode="&#x1ec7;" horiz-adv-x="513" 
d="M300 630.5q-37 -30.5 -71 -52.5l-27 32q35 22 79.5 58t69.5 64h42q15 -29 44.5 -65t55.5 -57l-43 -32q-24 22 -48 52.5t-36 56.5h-5q-24 -26 -61 -56.5zM477.5 479q46.5 -28 46.5 -79q0 -14 -3 -29q-20 -99 -140.5 -139.5t-257.5 -44.5q-2 -74 34 -118.5t111 -44.5
q38 0 82.5 13.5t79.5 35.5l2 -26q-32 -24 -83.5 -40.5t-109.5 -16.5q-97 0 -151 52t-54 141q0 33 7 65q25 119 103.5 189t190.5 70q96 0 142.5 -28zM446 388q0 36 -26.5 59.5t-84.5 23.5q-81 0 -134 -65.5t-71 -154.5q-4 -20 -5 -29q118 7 211 40.5t108 105.5q2 14 2 20z
M237.5 -68.5q9.5 -9.5 9.5 -25.5q0 -24 -15.5 -40.5t-38.5 -16.5q-16 0 -25.5 9.5t-9.5 24.5q0 7 1 11q5 21 19.5 34t33.5 13q16 0 25.5 -9.5z" />
    <glyph glyph-name="uni1EC1" unicode="&#x1ec1;" horiz-adv-x="513" 
d="M148.5 776q-11.5 14 -11.5 27q0 11 9 19.5t21 8.5q13 0 27.5 -11t29.5 -30l54 -71l-19 -21l-79 51q-20 13 -31.5 27zM203 610q35 21 79.5 57t70.5 65h41q15 -28 44.5 -64t54.5 -58l-41 -32q-24 22 -48 52.5t-37 56.5h-4q-25 -26 -62 -56.5t-69 -52.5zM477.5 479
q46.5 -28 46.5 -79q0 -14 -3 -29q-20 -99 -140.5 -139.5t-257.5 -44.5q-2 -74 34 -118.5t111 -44.5q38 0 82.5 13.5t79.5 35.5l2 -26q-32 -24 -83.5 -40.5t-109.5 -16.5q-97 0 -151 52t-54 141q0 33 7 65q25 119 103.5 189t190.5 70q96 0 142.5 -28zM446 388
q0 36 -26.5 59.5t-84.5 23.5q-81 0 -134 -65.5t-71 -154.5q-4 -20 -5 -29q118 7 211 40.5t108 105.5q2 14 2 20z" />
    <glyph glyph-name="uni1EC3" unicode="&#x1ec3;" horiz-adv-x="513" 
d="M580.5 858q20.5 -13 20.5 -38q0 -5 -2 -15q-13 -57 -83 -63l-20 -53h-32l11 75h19q25 0 40.5 11t20.5 31q3 17 -7 27t-33 10q-25 0 -50 -13v27q32 14 65 14q30 0 50.5 -13zM301 630.5q-37 -30.5 -69 -52.5l-29 32q35 21 79.5 57t70.5 65h41q15 -28 44.5 -64t54.5 -58
l-41 -32q-24 22 -48 52.5t-37 56.5h-4q-25 -26 -62 -56.5zM477.5 479q46.5 -28 46.5 -79q0 -14 -3 -29q-20 -99 -140.5 -139.5t-257.5 -44.5q-2 -74 34 -118.5t111 -44.5q38 0 82.5 13.5t79.5 35.5l2 -26q-32 -24 -83.5 -40.5t-109.5 -16.5q-97 0 -151 52t-54 141q0 33 7 65
q25 119 103.5 189t190.5 70q96 0 142.5 -28zM446 388q0 36 -26.5 59.5t-84.5 23.5q-81 0 -134 -65.5t-71 -154.5q-4 -20 -5 -29q118 7 211 40.5t108 105.5q2 14 2 20z" />
    <glyph glyph-name="uni1EC5" unicode="&#x1ec5;" horiz-adv-x="513" 
d="M284.5 802.5q-18.5 -15.5 -30.5 -41.5h-29q33 100 110 100q19 0 35.5 -8t36.5 -23q15 -12 26.5 -18t23.5 -6q44 0 71 60h29q-16 -49 -44.5 -76.5t-67.5 -27.5q-16 0 -30 7t-37 23q-17 13 -29.5 19.5t-24.5 6.5q-21 0 -39.5 -15.5zM301 630.5q-37 -30.5 -69 -52.5l-29 32
q35 21 79.5 57t70.5 65h41q15 -28 44.5 -64t54.5 -58l-41 -32q-24 22 -48 52.5t-37 56.5h-4q-25 -26 -62 -56.5zM477.5 479q46.5 -28 46.5 -79q0 -14 -3 -29q-20 -99 -140.5 -139.5t-257.5 -44.5q-2 -74 34 -118.5t111 -44.5q38 0 82.5 13.5t79.5 35.5l2 -26
q-32 -24 -83.5 -40.5t-109.5 -16.5q-97 0 -151 52t-54 141q0 33 7 65q25 119 103.5 189t190.5 70q96 0 142.5 -28zM446 388q0 36 -26.5 59.5t-84.5 23.5q-81 0 -134 -65.5t-71 -154.5q-4 -20 -5 -29q118 7 211 40.5t108 105.5q2 14 2 20z" />
    <glyph glyph-name="edieresis" unicode="&#xeb;" horiz-adv-x="513" 
d="M212 592.5q-9 9.5 -9 24.5q0 7 1 11q5 21 18.5 34t32.5 13q16 0 25.5 -9.5t9.5 -25.5q0 -24 -15.5 -40.5t-38.5 -16.5q-15 0 -24 9.5zM422 591.5q-9 8.5 -9 23.5q0 5 2 13q4 21 18.5 34t33.5 13q16 0 25 -9.5t9 -25.5q0 -24 -15.5 -40.5t-38.5 -16.5q-16 0 -25 8.5z
M477.5 479q46.5 -28 46.5 -79q0 -14 -3 -29q-20 -99 -140.5 -139.5t-257.5 -44.5q-2 -74 34 -118.5t111 -44.5q38 0 82.5 13.5t79.5 35.5l2 -26q-32 -24 -83.5 -40.5t-109.5 -16.5q-97 0 -151 52t-54 141q0 33 7 65q25 119 103.5 189t190.5 70q96 0 142.5 -28zM446 388
q0 36 -26.5 59.5t-84.5 23.5q-81 0 -134 -65.5t-71 -154.5q-4 -20 -5 -29q118 7 211 40.5t108 105.5q2 14 2 20z" />
    <glyph glyph-name="edotaccent" unicode="&#x117;" horiz-adv-x="513" 
d="M321 592q-9 9 -9 24q0 8 1 12q5 21 19 34t34 13q16 0 24.5 -9t8.5 -25q0 -25 -15 -41.5t-37 -16.5q-17 0 -26 9zM477.5 479q46.5 -28 46.5 -79q0 -14 -3 -29q-20 -99 -140.5 -139.5t-257.5 -44.5q-2 -74 34 -118.5t111 -44.5q38 0 82.5 13.5t79.5 35.5l2 -26
q-32 -24 -83.5 -40.5t-109.5 -16.5q-97 0 -151 52t-54 141q0 33 7 65q25 119 103.5 189t190.5 70q96 0 142.5 -28zM446 388q0 36 -26.5 59.5t-84.5 23.5q-81 0 -134 -65.5t-71 -154.5q-4 -20 -5 -29q118 7 211 40.5t108 105.5q2 14 2 20z" />
    <glyph glyph-name="uni1EB9" unicode="&#x1eb9;" horiz-adv-x="513" 
d="M477.5 479q46.5 -28 46.5 -79q0 -14 -3 -29q-20 -99 -140.5 -139.5t-257.5 -44.5q-2 -74 34 -118.5t111 -44.5q38 0 82.5 13.5t79.5 35.5l2 -26q-32 -24 -83.5 -40.5t-109.5 -16.5q-97 0 -151 52t-54 141q0 33 7 65q25 119 103.5 189t190.5 70q96 0 142.5 -28zM446 388
q0 36 -26.5 59.5t-84.5 23.5q-81 0 -134 -65.5t-71 -154.5q-4 -20 -5 -29q118 7 211 40.5t108 105.5q2 14 2 20zM238.5 -68.5q9.5 -9.5 9.5 -26.5q0 -7 -1 -11q-5 -20 -19.5 -32.5t-33.5 -12.5q-16 0 -25.5 9.5t-9.5 24.5q0 7 1 11q5 21 19.5 34t33.5 13q16 0 25.5 -9.5z
" />
    <glyph glyph-name="egrave" unicode="&#xe8;" horiz-adv-x="513" 
d="M275 709q2 10 12 18.5t24 8.5q23 0 37 -22l91 -107l-20 -23l-120 82q-28 19 -24 43zM477.5 479q46.5 -28 46.5 -79q0 -14 -3 -29q-20 -99 -140.5 -139.5t-257.5 -44.5q-2 -74 34 -118.5t111 -44.5q38 0 82.5 13.5t79.5 35.5l2 -26q-32 -24 -83.5 -40.5t-109.5 -16.5
q-97 0 -151 52t-54 141q0 33 7 65q25 119 103.5 189t190.5 70q96 0 142.5 -28zM446 388q0 36 -26.5 59.5t-84.5 23.5q-81 0 -134 -65.5t-71 -154.5q-4 -20 -5 -29q118 7 211 40.5t108 105.5q2 14 2 20z" />
    <glyph glyph-name="uni1EBB" unicode="&#x1ebb;" horiz-adv-x="513" 
d="M402 685q19 14 23 38q1 3 1 9q0 17 -12 27t-36 10q-27 0 -58 -16l-1 30q15 7 36 12t41 5q35 0 57.5 -15.5t22.5 -46.5q0 -5 -2 -17q-7 -34 -32 -53t-64 -23l-23 -64h-37l13 90h23q29 0 48 14zM477.5 479q46.5 -28 46.5 -79q0 -14 -3 -29q-20 -99 -140.5 -139.5
t-257.5 -44.5q-2 -74 34 -118.5t111 -44.5q38 0 82.5 13.5t79.5 35.5l2 -26q-32 -24 -83.5 -40.5t-109.5 -16.5q-97 0 -151 52t-54 141q0 33 7 65q25 119 103.5 189t190.5 70q96 0 142.5 -28zM446 388q0 36 -26.5 59.5t-84.5 23.5q-81 0 -134 -65.5t-71 -154.5
q-4 -20 -5 -29q118 7 211 40.5t108 105.5q2 14 2 20z" />
    <glyph glyph-name="emacron" unicode="&#x113;" horiz-adv-x="513" 
d="M499 584h-319l7 35h319zM477.5 479q46.5 -28 46.5 -79q0 -14 -3 -29q-20 -99 -140.5 -139.5t-257.5 -44.5q-2 -74 34 -118.5t111 -44.5q38 0 82.5 13.5t79.5 35.5l2 -26q-32 -24 -83.5 -40.5t-109.5 -16.5q-97 0 -151 52t-54 141q0 33 7 65q25 119 103.5 189t190.5 70
q96 0 142.5 -28zM446 388q0 36 -26.5 59.5t-84.5 23.5q-81 0 -134 -65.5t-71 -154.5q-4 -20 -5 -29q118 7 211 40.5t108 105.5q2 14 2 20z" />
    <glyph glyph-name="eogonek" unicode="&#x119;" horiz-adv-x="513" 
d="M477.5 479q46.5 -28 46.5 -79q0 -14 -3 -29q-20 -99 -140.5 -139.5t-257.5 -44.5q-2 -74 34 -118.5t111 -44.5q38 0 82.5 13.5t79.5 35.5l2 -26q-22 -16 -40 -24q-25 -17 -43 -39t-23 -45q-1 -4 -1 -11q0 -20 13.5 -30t35.5 -10q27 0 55 14l-9 -41q-37 -17 -82 -17
q-41 0 -62 18.5t-21 46.5q0 22 11.5 44.5t31.5 41.5q-32 -5 -59 -5q-97 0 -151 52t-54 141q0 33 7 65q25 119 103.5 189t190.5 70q96 0 142.5 -28zM446 388q0 36 -26.5 59.5t-84.5 23.5q-81 0 -134 -65.5t-71 -154.5q-4 -20 -5 -29q118 7 211 40.5t108 105.5q2 14 2 20z" />
    <glyph glyph-name="uni1EBD" unicode="&#x1ebd;" horiz-adv-x="513" 
d="M243.5 625.5q-19.5 -15.5 -30.5 -41.5h-32q17 50 46.5 75t68.5 25q20 0 37 -8t38 -23q16 -12 28.5 -18t24.5 -6q23 0 42.5 14.5t32.5 45.5h30q-15 -49 -44.5 -76.5t-70.5 -27.5q-17 0 -33.5 8t-37.5 22q-20 13 -33 19.5t-25 6.5q-22 0 -41.5 -15.5zM477.5 479
q46.5 -28 46.5 -79q0 -14 -3 -29q-20 -99 -140.5 -139.5t-257.5 -44.5q-2 -74 34 -118.5t111 -44.5q38 0 82.5 13.5t79.5 35.5l2 -26q-32 -24 -83.5 -40.5t-109.5 -16.5q-97 0 -151 52t-54 141q0 33 7 65q25 119 103.5 189t190.5 70q96 0 142.5 -28zM446 388
q0 36 -26.5 59.5t-84.5 23.5q-81 0 -134 -65.5t-71 -154.5q-4 -20 -5 -29q118 7 211 40.5t108 105.5q2 14 2 20z" />
    <glyph glyph-name="f" unicode="f" horiz-adv-x="385" 
d="M466 697.5q30 -19.5 30 -51.5q0 -5 -2 -15q-3 -16 -14 -25.5t-25 -9.5q-13 0 -20.5 6.5t-5.5 17.5q1 5 4.5 10.5t4.5 12.5q4 18 -11.5 27t-39.5 9q-41 0 -69 -33t-40 -87l-12 -61h144l-7 -35h-144l-87 -430q-20 -94 -69.5 -143.5t-128.5 -49.5q-57 0 -85 19t-28 51
q0 4 2 16q3 13 12.5 23.5t23.5 10.5q27 0 27 -22q0 -5 -1 -8q-1 -4 -4.5 -10t-3.5 -11q0 -15 15.5 -23t36.5 -8q41 0 69 33t39 87l95 465h-91l6 35h92l9 44q16 81 64 128t126 47q58 0 88 -19.5z" />
    <glyph glyph-name="g" unicode="g" horiz-adv-x="505" 
d="M567 500q12 -10 12 -28q0 -19 -12 -33t-29 -14q-14 0 -19 6t-7.5 19.5t-10.5 13.5q-7 0 -17 -8t-19 -16q15 -25 15 -61q0 -20 -4 -37q-16 -78 -79 -121t-158 -43q-61 0 -102 18q-33 -22 -39 -46q-4 -23 17.5 -34.5t63.5 -11.5h138q53 0 87 -22.5t34 -66.5q0 -15 -2 -23
q-15 -74 -85.5 -109t-182.5 -35q-87 0 -133 25t-46 75q0 32 18 62t55 48q-14 10 -21 24.5t-7 29.5q0 58 73 102q-43 34 -43 92q0 10 4 36q16 78 79.5 121.5t158.5 43.5q94 0 140 -43q23 21 44 33.5t45 12.5q20 0 32 -10zM394 378q0 42 -23.5 67.5t-70.5 25.5
q-58 0 -96 -36.5t-49 -92.5q-4 -17 -4 -36q0 -43 24 -68t72 -25q57 0 94 36.5t49 92.5q4 24 4 36zM128 41q-12 0 -28 2q-39 -27 -47 -68q-2 -12 -2 -18q0 -38 37 -56.5t95 -18.5q73 0 124 24t62 72q1 5 1 14q0 27 -25.5 38t-77.5 11h-139z" />
    <glyph glyph-name="gbreve" unicode="&#x11f;" horiz-adv-x="505" 
d="M236.5 606q-32.5 31 -28.5 93h53q-1 -6 -1 -16q0 -42 22.5 -56.5t57.5 -14.5q37 0 67 18t45 69h54q-20 -62 -65.5 -93t-108.5 -31t-95.5 31zM567 500q12 -10 12 -28q0 -19 -12 -33t-29 -14q-14 0 -19 6t-7.5 19.5t-10.5 13.5q-7 0 -17 -8t-19 -16q15 -25 15 -61
q0 -20 -4 -37q-16 -78 -79 -121t-158 -43q-61 0 -102 18q-33 -22 -39 -46q-4 -23 17.5 -34.5t63.5 -11.5h138q53 0 87 -22.5t34 -66.5q0 -15 -2 -23q-15 -74 -85.5 -109t-182.5 -35q-87 0 -133 25t-46 75q0 32 18 62t55 48q-14 10 -21 24.5t-7 29.5q0 58 73 102
q-43 34 -43 92q0 10 4 36q16 78 79.5 121.5t158.5 43.5q94 0 140 -43q23 21 44 33.5t45 12.5q20 0 32 -10zM394 378q0 42 -23.5 67.5t-70.5 25.5q-58 0 -96 -36.5t-49 -92.5q-4 -17 -4 -36q0 -43 24 -68t72 -25q57 0 94 36.5t49 92.5q4 24 4 36zM128 41q-12 0 -28 2
q-39 -27 -47 -68q-2 -12 -2 -18q0 -38 37 -56.5t95 -18.5q73 0 124 24t62 72q1 5 1 14q0 27 -25.5 38t-77.5 11h-139z" />
    <glyph glyph-name="gcaron" unicode="&#x1e7;" horiz-adv-x="505" 
d="M267 649q-30 36 -56 58l41 32q25 -22 49.5 -52.5t36.5 -56.5h5q23 26 59.5 56.5t70.5 52.5l30 -32q-35 -21 -80 -57t-71 -66h-41q-14 29 -44 65zM567 500q12 -10 12 -28q0 -19 -12 -33t-29 -14q-14 0 -19 6t-7.5 19.5t-10.5 13.5q-7 0 -17 -8t-19 -16q15 -25 15 -61
q0 -20 -4 -37q-16 -78 -79 -121t-158 -43q-61 0 -102 18q-33 -22 -39 -46q-4 -23 17.5 -34.5t63.5 -11.5h138q53 0 87 -22.5t34 -66.5q0 -15 -2 -23q-15 -74 -85.5 -109t-182.5 -35q-87 0 -133 25t-46 75q0 32 18 62t55 48q-14 10 -21 24.5t-7 29.5q0 58 73 102
q-43 34 -43 92q0 10 4 36q16 78 79.5 121.5t158.5 43.5q94 0 140 -43q23 21 44 33.5t45 12.5q20 0 32 -10zM394 378q0 42 -23.5 67.5t-70.5 25.5q-58 0 -96 -36.5t-49 -92.5q-4 -17 -4 -36q0 -43 24 -68t72 -25q57 0 94 36.5t49 92.5q4 24 4 36zM128 41q-12 0 -28 2
q-39 -27 -47 -68q-2 -12 -2 -18q0 -38 37 -56.5t95 -18.5q73 0 124 24t62 72q1 5 1 14q0 27 -25.5 38t-77.5 11h-139z" />
    <glyph glyph-name="gcircumflex" unicode="&#x11d;" horiz-adv-x="505" 
d="M293 631.5q-37 -30.5 -71 -53.5l-28 32q35 22 80 58t70 64h41q15 -29 45 -65t56 -57l-43 -32q-24 22 -48.5 52.5t-36.5 56.5h-5q-23 -25 -60 -55.5zM567 500q12 -10 12 -28q0 -19 -12 -33t-29 -14q-14 0 -19 6t-7.5 19.5t-10.5 13.5q-7 0 -17 -8t-19 -16q15 -25 15 -61
q0 -20 -4 -37q-16 -78 -79 -121t-158 -43q-61 0 -102 18q-33 -22 -39 -46q-4 -23 17.5 -34.5t63.5 -11.5h138q53 0 87 -22.5t34 -66.5q0 -15 -2 -23q-15 -74 -85.5 -109t-182.5 -35q-87 0 -133 25t-46 75q0 32 18 62t55 48q-14 10 -21 24.5t-7 29.5q0 58 73 102
q-43 34 -43 92q0 10 4 36q16 78 79.5 121.5t158.5 43.5q94 0 140 -43q23 21 44 33.5t45 12.5q20 0 32 -10zM394 378q0 42 -23.5 67.5t-70.5 25.5q-58 0 -96 -36.5t-49 -92.5q-4 -17 -4 -36q0 -43 24 -68t72 -25q57 0 94 36.5t49 92.5q4 24 4 36zM128 41q-12 0 -28 2
q-39 -27 -47 -68q-2 -12 -2 -18q0 -38 37 -56.5t95 -18.5q73 0 124 24t62 72q1 5 1 14q0 27 -25.5 38t-77.5 11h-139z" />
    <glyph glyph-name="gcommaaccent" unicode="&#x123;" horiz-adv-x="505" 
d="M297 593q-11 12 -11 33q0 14 2 21q9 42 38.5 90t65.5 77l25 -25q-23 -22 -42 -51.5t-27 -59.5q3 1 9 1q18 0 28.5 -10.5t10.5 -28.5q0 -6 -1 -10q-5 -23 -23 -36t-40 -13q-24 0 -35 12zM567 500q12 -10 12 -28q0 -19 -12 -33t-29 -14q-14 0 -19 6t-7.5 19.5t-10.5 13.5
q-7 0 -17 -8t-19 -16q15 -25 15 -61q0 -20 -4 -37q-16 -78 -79 -121t-158 -43q-61 0 -102 18q-33 -22 -39 -46q-4 -23 17.5 -34.5t63.5 -11.5h138q53 0 87 -22.5t34 -66.5q0 -15 -2 -23q-15 -74 -85.5 -109t-182.5 -35q-87 0 -133 25t-46 75q0 32 18 62t55 48
q-14 10 -21 24.5t-7 29.5q0 58 73 102q-43 34 -43 92q0 10 4 36q16 78 79.5 121.5t158.5 43.5q94 0 140 -43q23 21 44 33.5t45 12.5q20 0 32 -10zM394 378q0 42 -23.5 67.5t-70.5 25.5q-58 0 -96 -36.5t-49 -92.5q-4 -17 -4 -36q0 -43 24 -68t72 -25q57 0 94 36.5t49 92.5
q4 24 4 36zM128 41q-12 0 -28 2q-39 -27 -47 -68q-2 -12 -2 -18q0 -38 37 -56.5t95 -18.5q73 0 124 24t62 72q1 5 1 14q0 27 -25.5 38t-77.5 11h-139z" />
    <glyph glyph-name="gdotaccent" unicode="&#x121;" horiz-adv-x="505" 
d="M302.5 592q-9.5 9 -9.5 23q0 5 2 13q4 21 18.5 34t34.5 13q15 0 24 -9.5t9 -25.5q0 -24 -15.5 -40.5t-37.5 -16.5q-16 0 -25.5 9zM567 500q12 -10 12 -28q0 -19 -12 -33t-29 -14q-14 0 -19 6t-7.5 19.5t-10.5 13.5q-7 0 -17 -8t-19 -16q15 -25 15 -61q0 -20 -4 -37
q-16 -78 -79 -121t-158 -43q-61 0 -102 18q-33 -22 -39 -46q-4 -23 17.5 -34.5t63.5 -11.5h138q53 0 87 -22.5t34 -66.5q0 -15 -2 -23q-15 -74 -85.5 -109t-182.5 -35q-87 0 -133 25t-46 75q0 32 18 62t55 48q-14 10 -21 24.5t-7 29.5q0 58 73 102q-43 34 -43 92q0 10 4 36
q16 78 79.5 121.5t158.5 43.5q94 0 140 -43q23 21 44 33.5t45 12.5q20 0 32 -10zM394 378q0 42 -23.5 67.5t-70.5 25.5q-58 0 -96 -36.5t-49 -92.5q-4 -17 -4 -36q0 -43 24 -68t72 -25q57 0 94 36.5t49 92.5q4 24 4 36zM128 41q-12 0 -28 2q-39 -27 -47 -68q-2 -12 -2 -18
q0 -38 37 -56.5t95 -18.5q73 0 124 24t62 72q1 5 1 14q0 27 -25.5 38t-77.5 11h-139z" />
    <glyph glyph-name="uni1E21" unicode="&#x1e21;" horiz-adv-x="505" 
d="M486 584h-319l7 35h318zM567 500q12 -10 12 -28q0 -19 -12 -33t-29 -14q-14 0 -19 6t-7.5 19.5t-10.5 13.5q-7 0 -17 -8t-19 -16q15 -25 15 -61q0 -20 -4 -37q-16 -78 -79 -121t-158 -43q-61 0 -102 18q-33 -22 -39 -46q-4 -23 17.5 -34.5t63.5 -11.5h138q53 0 87 -22.5
t34 -66.5q0 -15 -2 -23q-15 -74 -85.5 -109t-182.5 -35q-87 0 -133 25t-46 75q0 32 18 62t55 48q-14 10 -21 24.5t-7 29.5q0 58 73 102q-43 34 -43 92q0 10 4 36q16 78 79.5 121.5t158.5 43.5q94 0 140 -43q23 21 44 33.5t45 12.5q20 0 32 -10zM394 378q0 42 -23.5 67.5
t-70.5 25.5q-58 0 -96 -36.5t-49 -92.5q-4 -17 -4 -36q0 -43 24 -68t72 -25q57 0 94 36.5t49 92.5q4 24 4 36zM128 41q-12 0 -28 2q-39 -27 -47 -68q-2 -12 -2 -18q0 -38 37 -56.5t95 -18.5q73 0 124 24t62 72q1 5 1 14q0 27 -25.5 38t-77.5 11h-139z" />
    <glyph glyph-name="h" unicode="h" horiz-adv-x="635" 
d="M633 138q-26 -64 -67 -106t-88 -42q-27 0 -39.5 23.5t-12.5 60.5q0 23 5 50l34 164q12 59 12 97q0 45 -18 65.5t-56 20.5t-88 -45t-99 -126l-61 -300l-90 -10l139 676q-40 8 -63 17l1 8l157 16l-69 -339q39 61 91.5 100t111.5 39q63 0 98.5 -29.5t35.5 -91.5
q0 -25 -6 -55l-49 -239q-3 -15 -3 -29q0 -30 15 -30q18 0 46.5 38t42.5 77z" />
    <glyph glyph-name="hbar" unicode="&#x127;" horiz-adv-x="634" 
d="M633 138q-26 -64 -67 -106t-88 -42q-27 0 -39.5 23.5t-12.5 60.5q0 23 5 50l34 164q12 59 12 97q0 45 -18 65.5t-56 20.5t-88 -45t-99 -126l-61 -300l-90 -10l119 578h-59l7 38h60l12 60q-40 8 -63 17l1 8l157 16l-21 -101h142l-8 -38h-141l-41 -200q39 61 91.5 100
t111.5 39q63 0 98.5 -29.5t35.5 -91.5q0 -25 -6 -55l-49 -239q-3 -15 -3 -29q0 -30 15 -30q18 0 46.5 38t42.5 77z" />
    <glyph glyph-name="uni1E2B" unicode="&#x1e2b;" horiz-adv-x="634" 
d="M633 138q-26 -64 -67 -106t-88 -42q-27 0 -39.5 23.5t-12.5 60.5q0 23 5 50l34 164q12 59 12 97q0 45 -18 65.5t-56 20.5t-88 -45t-99 -126l-61 -300l-90 -10l139 676q-40 8 -63 17l1 8l157 16l-69 -339q39 61 91.5 100t111.5 39q63 0 98.5 -29.5t35.5 -91.5
q0 -25 -6 -55l-49 -239q-3 -15 -3 -29q0 -30 15 -30q18 0 46.5 38t42.5 77zM368 -50h53q-19 -62 -64.5 -93t-107.5 -31q-60 0 -93 27t-33 82l1 15h54q-1 -6 -1 -17q0 -71 78 -71q86 0 113 88z" />
    <glyph glyph-name="hcircumflex" unicode="&#x125;" horiz-adv-x="634" 
d="M407.5 833q-37.5 -30 -71.5 -53l-28 32q35 22 80 58t70 64h41q15 -29 45 -65t56 -57l-43 -32q-24 21 -48 52t-37 57h-4q-23 -26 -60.5 -56zM633 138q-26 -64 -67 -106t-88 -42q-27 0 -39.5 23.5t-12.5 60.5q0 23 5 50l34 164q12 59 12 97q0 45 -18 65.5t-56 20.5t-88 -45
t-99 -126l-61 -300l-90 -10l139 676q-40 8 -63 17l1 8l157 16l-69 -339q39 61 91.5 100t111.5 39q63 0 98.5 -29.5t35.5 -91.5q0 -25 -6 -55l-49 -239q-3 -15 -3 -29q0 -30 15 -30q18 0 46.5 38t42.5 77z" />
    <glyph glyph-name="uni1E25" unicode="&#x1e25;" horiz-adv-x="634" 
d="M633 138q-26 -64 -67 -106t-88 -42q-27 0 -39.5 23.5t-12.5 60.5q0 23 5 50l34 164q12 59 12 97q0 45 -18 65.5t-56 20.5t-88 -45t-99 -126l-61 -300l-90 -10l139 676q-40 8 -63 17l1 8l157 16l-69 -339q39 61 91.5 100t111.5 39q63 0 98.5 -29.5t35.5 -91.5
q0 -25 -6 -55l-49 -239q-3 -15 -3 -29q0 -30 15 -30q18 0 46.5 38t42.5 77zM298 -68q9 -9 9 -25q0 -25 -15.5 -41.5t-38.5 -16.5q-15 0 -24.5 9t-9.5 24q0 8 1 12q5 21 19.5 34t33.5 13q16 0 25 -9z" />
    <glyph glyph-name="i" unicode="i" horiz-adv-x="291" 
d="M180 562q-12 11 -12 30q0 29 19.5 49t46.5 20q21 0 32.5 -11t11.5 -30q0 -4 -2 -14q-5 -25 -22 -40t-42 -15q-20 0 -32 11zM95.5 11.5q-15.5 21.5 -15.5 55.5q0 15 3 31l74 366q-37 6 -62 16l1 8l157 16l-83 -407q-4 -24 -4 -36q0 -28 14 -28q20 0 47.5 37.5t42.5 77.5
l19 -10q-26 -65 -65 -106.5t-86 -41.5q-27 0 -42.5 21.5z" />
    <glyph glyph-name="dotlessi" unicode="&#x131;" horiz-adv-x="310" 
d="M105 12q-16 22 -16 57q0 14 3 29l75 366q-36 6 -62 16l1 8l157 16l-83 -407q-4 -24 -4 -36q0 -28 14 -28q20 0 47.5 37.5t41.5 77.5l20 -10q-26 -65 -65 -106.5t-86 -41.5q-27 0 -43 22z" />
    <glyph glyph-name="iacute" unicode="&#xed;" horiz-adv-x="310" 
d="M145 607l131 106q26 23 48 23q13 0 18.5 -6.5t5.5 -15.5q0 -26 -40 -48l-152 -82zM105 12q-16 22 -16 57q0 14 3 29l75 366q-36 6 -62 16l1 8l157 16l-83 -407q-4 -24 -4 -36q0 -28 14 -28q20 0 47.5 37.5t41.5 77.5l20 -10q-26 -65 -65 -106.5t-86 -41.5q-27 0 -43 22z
" />
    <glyph glyph-name="ibreve" unicode="&#x12d;" horiz-adv-x="310" 
d="M137 612q-33 31 -29 93h54q-4 -51 19 -69t60 -18t67 18t45 69h54q-20 -62 -65.5 -93t-108.5 -31t-96 31zM105 12q-16 22 -16 57q0 14 3 29l75 366q-36 6 -62 16l1 8l157 16l-83 -407q-4 -24 -4 -36q0 -28 14 -28q20 0 47.5 37.5t41.5 77.5l20 -10q-26 -65 -65 -106.5
t-86 -41.5q-27 0 -43 22z" />
    <glyph glyph-name="uni01D0" unicode="&#x1d0;" horiz-adv-x="310" 
d="M169.5 649q-30.5 36 -56.5 58l43 32q24 -22 48.5 -52.5t36.5 -56.5h5q24 26 60.5 56.5t69.5 52.5l30 -32q-36 -22 -80.5 -58t-70.5 -65h-41q-14 29 -44.5 65zM105 12q-16 22 -16 57q0 14 3 29l75 366q-36 6 -62 16l1 8l157 16l-83 -407q-4 -24 -4 -36q0 -28 14 -28
q20 0 47.5 37.5t41.5 77.5l20 -10q-26 -65 -65 -106.5t-86 -41.5q-27 0 -43 22z" />
    <glyph glyph-name="icircumflex" unicode="&#xee;" horiz-adv-x="310" 
d="M94 610q35 22 80 58t70 64h41q15 -29 45 -65t56 -57l-43 -32q-24 21 -48 52t-37 57h-5q-23 -25 -60 -55.5t-71 -53.5zM105 12q-16 22 -16 57q0 14 3 29l75 366q-36 6 -62 16l1 8l157 16l-83 -407q-4 -24 -4 -36q0 -28 14 -28q20 0 47.5 37.5t41.5 77.5l20 -10
q-26 -65 -65 -106.5t-86 -41.5q-27 0 -43 22z" />
    <glyph glyph-name="idieresis" unicode="&#xef;" horiz-adv-x="310" 
d="M104 592.5q-9 9.5 -9 23.5q0 8 1 12q5 21 18.5 34t32.5 13q16 0 25 -9t9 -25q0 -25 -15 -41.5t-38 -16.5q-15 0 -24 9.5zM314 592q-9 9 -9 24q0 8 1 12q5 21 19 34t33 13q16 0 25.5 -9.5t9.5 -26.5q0 -7 -1 -11q-5 -20 -19.5 -32.5t-33.5 -12.5q-16 0 -25 9zM105 12
q-16 22 -16 57q0 14 3 29l75 366q-36 6 -62 16l1 8l157 16l-83 -407q-4 -24 -4 -36q0 -28 14 -28q20 0 47.5 37.5t41.5 77.5l20 -10q-26 -65 -65 -106.5t-86 -41.5q-27 0 -43 22z" />
    <glyph glyph-name="uni1ECB" unicode="&#x1ecb;" horiz-adv-x="291" 
d="M180 562q-12 11 -12 30q0 29 19.5 49t46.5 20q21 0 32.5 -11t11.5 -30q0 -4 -2 -14q-5 -25 -22 -40t-42 -15q-20 0 -32 11zM95.5 11.5q-15.5 21.5 -15.5 55.5q0 15 3 31l74 366q-37 6 -62 16l1 8l157 16l-83 -407q-4 -24 -4 -36q0 -28 14 -28q20 0 47.5 37.5t42.5 77.5
l19 -10q-26 -65 -65 -106.5t-86 -41.5q-27 0 -42.5 21.5zM49.5 -141.5q-9.5 9.5 -9.5 24.5q0 7 1 11q5 21 19.5 34t33.5 13q16 0 25.5 -9.5t9.5 -26.5q0 -7 -1 -11q-5 -20 -19.5 -32.5t-33.5 -12.5q-16 0 -25.5 9.5z" />
    <glyph glyph-name="igrave" unicode="&#xec;" horiz-adv-x="310" 
d="M170 666q-28 20 -24 43q2 11 12 19t24 8q21 0 38 -22l90 -107l-20 -23zM105 12q-16 22 -16 57q0 14 3 29l75 366q-36 6 -62 16l1 8l157 16l-83 -407q-4 -24 -4 -36q0 -28 14 -28q20 0 47.5 37.5t41.5 77.5l20 -10q-26 -65 -65 -106.5t-86 -41.5q-27 0 -43 22z" />
    <glyph glyph-name="uni1EC9" unicode="&#x1ec9;" horiz-adv-x="310" 
d="M219 671h23q28 0 47 14t24 38q1 3 1 9q0 16 -12.5 26.5t-35.5 10.5q-28 0 -59 -16l-1 30q38 17 78 17q35 0 57.5 -15.5t22.5 -46.5q0 -5 -2 -17q-14 -68 -96 -76l-23 -64h-38zM105 12q-16 22 -16 57q0 14 3 29l75 366q-36 6 -62 16l1 8l157 16l-83 -407q-4 -24 -4 -36
q0 -28 14 -28q20 0 47.5 37.5t41.5 77.5l20 -10q-26 -65 -65 -106.5t-86 -41.5q-27 0 -43 22z" />
    <glyph glyph-name="ij" unicode="&#x133;" horiz-adv-x="588" 
d="M180 562q-12 11 -12 30q0 29 19.5 49t46.5 20q21 0 32.5 -11t11.5 -30q0 -4 -2 -14q-5 -25 -22 -40t-42 -15q-20 0 -32 11zM495 562q-12 11 -12 30q0 29 19.5 49t47.5 20q20 0 32 -11.5t12 -29.5q0 -4 -2 -14q-4 -25 -22 -40t-42 -15q-21 0 -33 11zM95.5 11.5
q-15.5 21.5 -15.5 55.5q0 15 3 31l74 366q-37 6 -62 16l1 8l157 16l-83 -407q-4 -24 -4 -36q0 -28 14 -28q20 0 47.5 37.5t42.5 77.5l19 -10q-26 -65 -65 -106.5t-86 -41.5q-27 0 -42.5 21.5zM189 -144.5q-28 19.5 -28 51.5q0 10 1 15q3 12 13 23t24 11q17 0 22 -8.5
t4 -22.5q-1 -3 -3 -6.5t-4 -8.5q3 -36 51 -36q41 0 69.5 33.5t38.5 86.5l96 470q-35 6 -63 16l1 8l157 16l-104 -510q-15 -76 -66 -117t-123 -41q-58 0 -86 19.5z" />
    <glyph glyph-name="imacron" unicode="&#x12b;" horiz-adv-x="310" 
d="M83 619h318l-6 -35h-319zM105 12q-16 22 -16 57q0 14 3 29l75 366q-36 6 -62 16l1 8l157 16l-83 -407q-4 -24 -4 -36q0 -28 14 -28q20 0 47.5 37.5t41.5 77.5l20 -10q-26 -65 -65 -106.5t-86 -41.5q-27 0 -43 22z" />
    <glyph glyph-name="iogonek" unicode="&#x12f;" horiz-adv-x="291" 
d="M180 562q-12 11 -12 30q0 29 19.5 49t46.5 20q21 0 32.5 -11t11.5 -30q0 -4 -2 -14q-5 -25 -22 -40t-42 -15q-20 0 -32 11zM119 -50q-21 -28 -21 -54q0 -19 13.5 -29t35.5 -10q26 0 55 14l-9 -41q-39 -17 -83 -17q-40 0 -61.5 18t-21.5 46q0 6 2 16q5 30 29 57.5t58 43.5
q-17 8 -26.5 27t-9.5 45q0 16 3 32l74 366q-37 6 -62 16l1 8l157 16l-83 -407q-4 -24 -4 -36q0 -28 14 -28q20 0 47.5 37.5t42.5 77.5l19 -10q-22 -54 -52 -92t-67 -51q-30 -17 -51 -45z" />
    <glyph glyph-name="itilde" unicode="&#x129;" horiz-adv-x="310" 
d="M118 659q29 25 68 25q21 0 38 -8t38 -23q18 -13 29.5 -18.5t23.5 -5.5q23 0 42.5 14.5t32.5 45.5h30q-16 -49 -45.5 -76.5t-70.5 -27.5q-16 0 -31.5 7.5t-39.5 22.5q-18 13 -31.5 19.5t-25.5 6.5q-23 0 -42.5 -15.5t-29.5 -41.5h-32q17 50 46 75zM105 12q-16 22 -16 57
q0 14 3 29l75 366q-36 6 -62 16l1 8l157 16l-83 -407q-4 -24 -4 -36q0 -28 14 -28q20 0 47.5 37.5t41.5 77.5l20 -10q-26 -65 -65 -106.5t-86 -41.5q-27 0 -43 22z" />
    <glyph glyph-name="j" unicode="j" horiz-adv-x="297" 
d="M204 562q-12 11 -12 30q0 29 19.5 49t47.5 20q20 0 32 -11.5t12 -29.5q0 -4 -2 -14q-4 -25 -22 -40t-42 -15q-21 0 -33 11zM-102 -144.5q-28 19.5 -28 51.5q0 10 1 15q3 12 13 23t24 11q17 0 22 -8.5t4 -22.5q-1 -3 -3 -6.5t-4 -8.5q3 -36 51 -36q42 0 70 33t38 87
l96 470q-35 6 -63 16l1 8l157 16l-104 -510q-15 -76 -66 -117t-123 -41q-58 0 -86 19.5z" />
    <glyph glyph-name="uni0237" unicode="&#x237;" horiz-adv-x="297" 
d="M-102 -144.5q-28 19.5 -28 51.5q0 10 1 15q3 12 13 23t24 11q17 0 22 -8.5t4 -22.5q-1 -3 -3 -6.5t-4 -8.5q3 -36 51 -36q42 0 70 33t38 87l96 470q-35 6 -63 16l1 8l157 16l-104 -510q-15 -76 -66 -117t-123 -41q-58 0 -86 19.5z" />
    <glyph glyph-name="jcircumflex" unicode="&#x135;" horiz-adv-x="297" 
d="M93 610q35 22 80 58t70 64h41q15 -29 45 -65t56 -57l-43 -32q-24 22 -48 52.5t-37 56.5h-5q-23 -25 -60 -55.5t-71 -53.5zM-102 -144.5q-28 19.5 -28 51.5q0 10 1 15q3 12 13 23t24 11q17 0 22 -8.5t4 -22.5q-1 -3 -3 -6.5t-4 -8.5q3 -36 51 -36q42 0 70 33t38 87l96 470
q-35 6 -63 16l1 8l157 16l-104 -510q-15 -76 -66 -117t-123 -41q-58 0 -86 19.5z" />
    <glyph glyph-name="k" unicode="k" horiz-adv-x="598" 
d="M590 500q12 -10 12 -28q0 -19 -12 -33t-29 -14q-14 0 -19 6t-7.5 19.5t-10.5 13.5q-11 0 -27 -15.5l-19 -18.5l-154 -135l107 -213q10 -18 22 -26t29 -8q21 0 40.5 31t35.5 77l18 -11q-15 -56 -49 -105.5t-81 -49.5q-30 0 -49 21t-44 70l-85 166l-75 -66l-37 -181
l-91 -10l139 676q-40 8 -63 17l1 8l158 16l-97 -475l251 219q4 4 23 21.5t40 27.5t41 10t32 -10z" />
    <glyph glyph-name="kcommaaccent" unicode="&#x137;" horiz-adv-x="598" 
d="M590 500q12 -10 12 -28q0 -19 -12 -33t-29 -14q-14 0 -19 6t-7.5 19.5t-10.5 13.5q-11 0 -27 -15.5l-19 -18.5l-154 -135l107 -213q10 -18 22 -26t29 -8q21 0 40.5 31t35.5 77l18 -11q-15 -56 -49 -105.5t-81 -49.5q-30 0 -49 21t-44 70l-85 166l-75 -66l-37 -181
l-91 -10l139 676q-40 8 -63 17l1 8l158 16l-97 -475l251 219q4 4 23 21.5t40 27.5t41 10t32 -10zM301 -81q11 -12 11 -33q0 -42 -32 -98.5t-74 -89.5l-25 25q23 22 42 51.5t28 59.5q-3 -1 -10 -1q-17 0 -27.5 9.5t-10.5 27.5q0 28 19 44.5t44 16.5q24 0 35 -12z" />
    <glyph glyph-name="kgreenlandic" unicode="&#x138;" horiz-adv-x="598" 
d="M590 500q12 -10 12 -28q0 -19 -12 -33t-29 -14q-14 0 -19 6t-7.5 19.5t-10.5 13.5q-11 0 -27 -15.5l-19 -18.5l-154 -135l107 -213q10 -18 22 -26t29 -8q21 0 40.5 31t35.5 77l18 -11q-15 -56 -49 -105.5t-81 -49.5q-30 0 -49 21t-44 70l-85 166l-76 -67l-36 -180
l-91 -10l98 476q-37 7 -63 17l2 8l156 16l-55 -275l251 219q4 4 23 21.5t40 27.5t41 10t32 -10z" />
    <glyph glyph-name="l" unicode="l" horiz-adv-x="300" 
d="M100 12q-16 22 -16 57q0 14 3 29l117 568q-40 8 -63 17l1 8l158 16l-125 -610q-4 -24 -4 -36q0 -28 14 -28q20 0 47.5 37.5t42.5 77.5l19 -10q-26 -65 -65 -106.5t-86 -41.5q-27 0 -43 22z" />
    <glyph glyph-name="lacute" unicode="&#x13a;" horiz-adv-x="300" 
d="M195 795l130 106q14 11 24.5 17t23.5 6q15 0 21 -8t3 -19q-3 -23 -39 -43l-153 -82zM100 12q-16 22 -16 57q0 14 3 29l117 568q-40 8 -63 17l1 8l158 16l-125 -610q-4 -24 -4 -36q0 -28 14 -28q20 0 47.5 37.5t42.5 77.5l19 -10q-26 -65 -65 -106.5t-86 -41.5
q-27 0 -43 22z" />
    <glyph glyph-name="lcaron" unicode="&#x13e;" horiz-adv-x="431" 
d="M354 496q23 22 42 51.5t28 59.5q-4 -1 -10 -1q-19 0 -29 11t-10 28q0 8 1 12q5 24 22.5 38.5t40.5 14.5q25 0 36.5 -13.5t11.5 -36.5q0 -42 -33 -99t-75 -90zM100 12q-16 22 -16 57q0 14 3 29l117 568q-40 8 -63 17l1 8l158 16l-125 -610q-4 -24 -4 -36q0 -28 14 -28
q20 0 47.5 37.5t42.5 77.5l19 -10q-26 -65 -65 -106.5t-86 -41.5q-27 0 -43 22z" />
    <glyph glyph-name="lcommaaccent" unicode="&#x13c;" horiz-adv-x="300" 
d="M100 12q-16 22 -16 57q0 14 3 29l117 568q-40 8 -63 17l1 8l158 16l-125 -610q-4 -24 -4 -36q0 -28 14 -28q20 0 47.5 37.5t42.5 77.5l19 -10q-26 -65 -65 -106.5t-86 -41.5q-27 0 -43 22zM10 -277q23 22 41.5 51.5t27.5 59.5q-3 -1 -10 -1q-17 0 -27.5 9.5t-10.5 27.5
q0 28 19 44.5t44 16.5q24 0 35 -12t11 -33q0 -14 -2 -21q-8 -42 -37.5 -90t-65.5 -77z" />
    <glyph glyph-name="ldot" unicode="&#x140;" horiz-adv-x="403" 
d="M100 12q-16 22 -16 57q0 14 3 29l117 568q-40 8 -63 17l1 8l158 16l-125 -610q-4 -24 -4 -36q0 -28 14 -28q20 0 47.5 37.5t42.5 77.5l19 -10q-26 -65 -65 -106.5t-86 -41.5q-27 0 -43 22zM305.5 306.5q-9.5 9.5 -9.5 25.5q0 9 1 13q4 22 19 35.5t36 13.5q18 0 28 -9.5
t10 -26.5q0 -26 -16 -43.5t-41 -17.5q-18 0 -27.5 9.5z" />
    <glyph glyph-name="uni1E37" unicode="&#x1e37;" horiz-adv-x="300" 
d="M100 12q-16 22 -16 57q0 14 3 29l117 568q-40 8 -63 17l1 8l158 16l-125 -610q-4 -24 -4 -36q0 -28 14 -28q20 0 47.5 37.5t42.5 77.5l19 -10q-26 -65 -65 -106.5t-86 -41.5q-27 0 -43 22zM92.5 -135q-9.5 9 -9.5 26q0 23 15.5 39.5t37.5 16.5q16 0 26 -9.5t10 -25.5
q0 -6 -1 -10q-4 -21 -18.5 -33.5t-34.5 -12.5q-16 0 -25.5 9z" />
    <glyph glyph-name="uni1E39" unicode="&#x1e39;" horiz-adv-x="300" 
d="M117 819h320l-8 -34h-320zM100 12q-16 22 -16 57q0 14 3 29l117 568q-40 8 -63 17l1 8l158 16l-125 -610q-4 -24 -4 -36q0 -28 14 -28q20 0 47.5 37.5t42.5 77.5l19 -10q-26 -65 -65 -106.5t-86 -41.5q-27 0 -43 22zM92.5 -135q-9.5 9 -9.5 26q0 23 15.5 39.5t37.5 16.5
q16 0 26 -9.5t10 -25.5q0 -6 -1 -10q-4 -21 -18.5 -33.5t-34.5 -12.5q-16 0 -25.5 9z" />
    <glyph glyph-name="uni1E3B" unicode="&#x1e3b;" horiz-adv-x="300" 
d="M100 12q-16 22 -16 57q0 14 3 29l117 568q-40 8 -63 17l1 8l158 16l-125 -610q-4 -24 -4 -36q0 -28 14 -28q20 0 47.5 37.5t42.5 77.5l19 -10q-26 -65 -65 -106.5t-86 -41.5q-27 0 -43 22zM-63 -69h318l-7 -35h-319z" />
    <glyph glyph-name="lslash" unicode="&#x142;" horiz-adv-x="305" 
d="M176 97q-4 -24 -4 -36q0 -28 14 -28q20 0 47.5 37.5t42.5 77.5l19 -10q-26 -65 -65 -106.5t-86 -41.5q-27 0 -43 22t-16 57q0 14 3 29l34 168l-98 -37l10 47l98 37l72 353q-39 8 -62 17l1 8l157 16l-73 -357l106 40l-9 -48l-106 -40z" />
    <glyph glyph-name="m" unicode="m" horiz-adv-x="911" 
d="M919 138q-26 -64 -67 -106t-88 -42q-27 0 -39.5 23.5t-12.5 60.5q0 23 5 50l34 164q13 67 13 100q0 44 -17 63.5t-54 19.5q-36 0 -78.5 -40t-86.5 -115l-64 -316l-86 -10l76 369q5 27 5 41q0 71 -70 71q-39 0 -81.5 -38.5t-86.5 -111.5l-65 -321l-91 -10l97 475
q-39 8 -62 17l2 8l156 16l-24 -119q37 54 83.5 87t100.5 33q61 0 92.5 -27t31.5 -77q0 -14 -1 -22q36 57 82.5 91.5t100.5 34.5q128 0 128 -118q0 -25 -6 -58l-49 -239q-3 -15 -3 -28q0 -14 4 -22.5t12 -8.5q18 0 46.5 38t42.5 77z" />
    <glyph glyph-name="uni1E43" unicode="&#x1e43;" horiz-adv-x="910" 
d="M919 138q-26 -64 -67 -106t-88 -42q-27 0 -39.5 23.5t-12.5 60.5q0 23 5 50l34 164q13 67 13 100q0 44 -17 63.5t-54 19.5q-36 0 -78.5 -40t-86.5 -115l-64 -316l-86 -10l76 369q5 27 5 41q0 71 -70 71q-39 0 -81.5 -38.5t-86.5 -111.5l-65 -321l-91 -10l97 475
q-39 8 -62 17l2 8l156 16l-24 -119q37 54 83.5 87t100.5 33q61 0 92.5 -27t31.5 -77q0 -14 -1 -22q36 57 82.5 91.5t100.5 34.5q128 0 128 -118q0 -25 -6 -58l-49 -239q-3 -15 -3 -28q0 -14 4 -22.5t12 -8.5q18 0 46.5 38t42.5 77zM435.5 -68.5q9.5 -9.5 9.5 -26.5
q0 -7 -1 -11q-5 -20 -19.5 -32.5t-33.5 -12.5q-16 0 -25.5 9t-9.5 24q0 8 1 12q5 21 19.5 34t33.5 13q16 0 25.5 -9.5z" />
    <glyph glyph-name="n" unicode="n" horiz-adv-x="634" 
d="M636 138q-26 -64 -67 -106t-88 -42q-27 0 -40 23.5t-13 59.5q0 27 6 51l34 164q12 59 12 96q0 46 -18 66.5t-56 20.5q-40 0 -91 -46.5t-100 -131.5l-59 -293l-91 -10l97 475q-39 8 -62 17l2 8l156 16l-29 -145q38 63 91.5 104.5t114.5 41.5q64 0 99 -29.5t35 -91.5
q0 -25 -6 -55l-49 -239q-3 -15 -3 -29q0 -30 15 -30q19 0 47 38.5t42 76.5z" />
    <glyph glyph-name="nacute" unicode="&#x144;" horiz-adv-x="634" 
d="M316 584l-11 23l131 106q26 23 48 23q14 0 20 -8t4 -19q-4 -24 -40 -43zM636 138q-26 -64 -67 -106t-88 -42q-27 0 -40 23.5t-13 59.5q0 27 6 51l34 164q12 59 12 96q0 46 -18 66.5t-56 20.5q-40 0 -91 -46.5t-100 -131.5l-59 -293l-91 -10l97 475q-39 8 -62 17l2 8
l156 16l-29 -145q38 63 91.5 104.5t114.5 41.5q64 0 99 -29.5t35 -91.5q0 -25 -6 -55l-49 -239q-3 -15 -3 -29q0 -30 15 -30q19 0 47 38.5t42 76.5z" />
    <glyph glyph-name="napostrophe" unicode="&#x149;" horiz-adv-x="797" 
d="M205 615q11 -12 11 -33q0 -42 -32 -98.5t-74 -89.5l-25 25q23 22 42 51.5t28 59.5l-10 -1q-17 0 -27.5 9.5t-10.5 27.5q0 28 19 44.5t44 16.5q24 0 35 -12zM799 138q-26 -64 -67 -106t-88 -42q-27 0 -39.5 23.5t-12.5 60.5q0 23 5 50l34 164q12 59 12 97q0 45 -18 65.5
t-56 20.5q-40 0 -91 -46.5t-100 -131.5l-59 -293l-91 -10l97 475q-39 8 -62 17l2 8l156 16l-29 -145q38 63 91.5 104.5t114.5 41.5q64 0 99 -29.5t35 -91.5q0 -25 -6 -55l-49 -239q-3 -15 -3 -29q0 -30 15 -30q18 0 46.5 38t43.5 77z" />
    <glyph glyph-name="ncaron" unicode="&#x148;" horiz-adv-x="634" 
d="M320 649q-30 36 -56 58l41 32q24 -22 48.5 -52.5t37.5 -56.5h5q23 26 59.5 56.5t70.5 52.5l30 -32q-35 -21 -80 -57t-71 -66h-41q-14 29 -44 65zM636 138q-26 -64 -67 -106t-88 -42q-27 0 -40 23.5t-13 59.5q0 27 6 51l34 164q12 59 12 96q0 46 -18 66.5t-56 20.5
q-40 0 -91 -46.5t-100 -131.5l-59 -293l-91 -10l97 475q-39 8 -62 17l2 8l156 16l-29 -145q38 63 91.5 104.5t114.5 41.5q64 0 99 -29.5t35 -91.5q0 -25 -6 -55l-49 -239q-3 -15 -3 -29q0 -30 15 -30q19 0 47 38.5t42 76.5z" />
    <glyph glyph-name="ncommaaccent" unicode="&#x146;" horiz-adv-x="634" 
d="M636 138q-26 -64 -67 -106t-88 -42q-27 0 -40 23.5t-13 59.5q0 27 6 51l34 164q12 59 12 96q0 46 -18 66.5t-56 20.5q-40 0 -91 -46.5t-100 -131.5l-59 -293l-91 -10l97 475q-39 8 -62 17l2 8l156 16l-29 -145q38 63 91.5 104.5t114.5 41.5q64 0 99 -29.5t35 -91.5
q0 -25 -6 -55l-49 -239q-3 -15 -3 -29q0 -30 15 -30q19 0 47 38.5t42 76.5zM295 -115q0 -6 -2 -20q-9 -42 -38.5 -90t-65.5 -77l-25 25q23 22 42 51.5t27 59.5q-3 -1 -9 -1q-18 0 -28.5 10t-10.5 28q0 27 19.5 43.5t44.5 16.5q46 0 46 -46z" />
    <glyph glyph-name="uni1E45" unicode="&#x1e45;" horiz-adv-x="634" 
d="M363 592q-9 9 -9 24q0 8 1 12q5 21 19 34t34 13q16 0 25 -9.5t9 -26.5q0 -7 -1 -11q-5 -20 -19 -32.5t-33 -12.5q-17 0 -26 9zM636 138q-26 -64 -67 -106t-88 -42q-27 0 -40 23.5t-13 59.5q0 27 6 51l34 164q12 59 12 96q0 46 -18 66.5t-56 20.5q-40 0 -91 -46.5
t-100 -131.5l-59 -293l-91 -10l97 475q-39 8 -62 17l2 8l156 16l-29 -145q38 63 91.5 104.5t114.5 41.5q64 0 99 -29.5t35 -91.5q0 -25 -6 -55l-49 -239q-3 -15 -3 -29q0 -30 15 -30q19 0 47 38.5t42 76.5z" />
    <glyph glyph-name="uni1E47" unicode="&#x1e47;" horiz-adv-x="634" 
d="M636 138q-26 -64 -67 -106t-88 -42q-27 0 -40 23.5t-13 59.5q0 27 6 51l34 164q12 59 12 96q0 46 -18 66.5t-56 20.5q-40 0 -91 -46.5t-100 -131.5l-59 -293l-91 -10l97 475q-39 8 -62 17l2 8l156 16l-29 -145q38 63 91.5 104.5t114.5 41.5q64 0 99 -29.5t35 -91.5
q0 -25 -6 -55l-49 -239q-3 -15 -3 -29q0 -30 15 -30q19 0 47 38.5t42 76.5zM279.5 -68.5q9.5 -9.5 9.5 -25.5q0 -24 -15.5 -40.5t-38.5 -16.5q-16 0 -25 9t-9 24q0 8 1 12q4 21 18.5 34t33.5 13q16 0 25.5 -9.5z" />
    <glyph glyph-name="eng" unicode="&#x14b;" horiz-adv-x="634" 
d="M534 477.5q35 -29.5 35 -91.5q0 -25 -6 -55l-90 -436q-15 -76 -66 -117t-123 -41q-57 0 -86 19t-29 51q0 6 2 16q3 12 12.5 23t23.5 11q17 0 22 -8.5t4 -22.5q-1 -2 -3 -6.5t-3 -8.5q1 -36 51 -36q42 0 70 33t39 87l81 393q12 59 12 96q0 46 -18 66.5t-56 20.5
q-40 0 -91 -46.5t-100 -131.5l-59 -293l-91 -10l97 475q-39 8 -62 17l2 8l156 16l-29 -145q38 63 91.5 104.5t114.5 41.5q64 0 99 -29.5z" />
    <glyph glyph-name="uni1E49" unicode="&#x1e49;" horiz-adv-x="634" 
d="M636 138q-26 -64 -67 -106t-88 -42q-27 0 -40 23.5t-13 59.5q0 27 6 51l34 164q12 59 12 96q0 46 -18 66.5t-56 20.5q-40 0 -91 -46.5t-100 -131.5l-59 -293l-91 -10l97 475q-39 8 -62 17l2 8l156 16l-29 -145q38 63 91.5 104.5t114.5 41.5q64 0 99 -29.5t35 -91.5
q0 -25 -6 -55l-49 -239q-3 -15 -3 -29q0 -30 15 -30q19 0 47 38.5t42 76.5zM87 -69h319l-8 -35h-318z" />
    <glyph glyph-name="ntilde" unicode="&#xf1;" horiz-adv-x="634" 
d="M283.5 625.5q-19.5 -15.5 -30.5 -41.5h-31q17 50 46 75t68 25q20 0 37 -8t39 -23q19 -13 30 -18.5t23 -5.5q22 0 41.5 14.5t33.5 45.5h29q-16 -49 -45 -76.5t-70 -27.5q-17 0 -33.5 8t-37.5 22q-20 13 -33 19.5t-25 6.5q-22 0 -41.5 -15.5zM636 138q-26 -64 -67 -106
t-88 -42q-27 0 -40 23.5t-13 59.5q0 27 6 51l34 164q12 59 12 96q0 46 -18 66.5t-56 20.5q-40 0 -91 -46.5t-100 -131.5l-59 -293l-91 -10l97 475q-39 8 -62 17l2 8l156 16l-29 -145q38 63 91.5 104.5t114.5 41.5q64 0 99 -29.5t35 -91.5q0 -25 -6 -55l-49 -239
q-3 -15 -3 -29q0 -30 15 -30q19 0 47 38.5t42 76.5z" />
    <glyph glyph-name="o" unicode="o" horiz-adv-x="557" 
d="M82.5 39q-53.5 49 -53.5 139q0 35 7 70q26 122 106.5 190.5t200.5 68.5q100 0 154 -49t54 -138q0 -30 -8 -72q-24 -121 -105.5 -189.5t-200.5 -68.5q-101 0 -154.5 49zM378.5 84.5q56.5 59.5 77.5 163.5q8 36 8 76q0 70 -33.5 108.5t-94.5 38.5q-77 0 -133.5 -59.5
t-78.5 -163.5q-8 -43 -8 -74q0 -71 34 -110t95 -39q77 0 133.5 59.5z" />
    <glyph glyph-name="oacute" unicode="&#xf3;" horiz-adv-x="557" 
d="M276 607l130 106q14 11 24.5 17t23.5 6q14 0 20 -8t4 -19q-4 -23 -39 -43l-153 -82zM82.5 39q-53.5 49 -53.5 139q0 35 7 70q26 122 106.5 190.5t200.5 68.5q100 0 154 -49t54 -138q0 -30 -8 -72q-24 -121 -105.5 -189.5t-200.5 -68.5q-101 0 -154.5 49zM378.5 84.5
q56.5 59.5 77.5 163.5q8 36 8 76q0 70 -33.5 108.5t-94.5 38.5q-77 0 -133.5 -59.5t-78.5 -163.5q-8 -43 -8 -74q0 -71 34 -110t95 -39q77 0 133.5 59.5z" />
    <glyph glyph-name="obreve" unicode="&#x14f;" horiz-adv-x="557" 
d="M261.5 606q-32.5 31 -28.5 93h53q-1 -6 -1 -16q0 -42 22.5 -56.5t57.5 -14.5q37 0 67 18t45 69h54q-20 -62 -65.5 -93t-108.5 -31t-95.5 31zM82.5 39q-53.5 49 -53.5 139q0 35 7 70q26 122 106.5 190.5t200.5 68.5q100 0 154 -49t54 -138q0 -30 -8 -72
q-24 -121 -105.5 -189.5t-200.5 -68.5q-101 0 -154.5 49zM378.5 84.5q56.5 59.5 77.5 163.5q8 36 8 76q0 70 -33.5 108.5t-94.5 38.5q-77 0 -133.5 -59.5t-78.5 -163.5q-8 -43 -8 -74q0 -71 34 -110t95 -39q77 0 133.5 59.5z" />
    <glyph glyph-name="uni01D2" unicode="&#x1d2;" horiz-adv-x="557" 
d="M293.5 649q-30.5 36 -56.5 58l43 32q25 -23 49 -53.5t36 -55.5h5q23 26 59.5 56.5t70.5 52.5l30 -32q-36 -22 -80.5 -58t-70.5 -65h-41q-14 29 -44.5 65zM82.5 39q-53.5 49 -53.5 139q0 35 7 70q26 122 106.5 190.5t200.5 68.5q100 0 154 -49t54 -138q0 -30 -8 -72
q-24 -121 -105.5 -189.5t-200.5 -68.5q-101 0 -154.5 49zM378.5 84.5q56.5 59.5 77.5 163.5q8 36 8 76q0 70 -33.5 108.5t-94.5 38.5q-77 0 -133.5 -59.5t-78.5 -163.5q-8 -43 -8 -74q0 -71 34 -110t95 -39q77 0 133.5 59.5z" />
    <glyph glyph-name="ocircumflex" unicode="&#xf4;" horiz-adv-x="557" 
d="M218 610q35 22 80 58t70 64h41q15 -29 45 -65t56 -57l-43 -32q-24 22 -48.5 52.5t-36.5 56.5h-5q-23 -25 -60 -55.5t-71 -53.5zM82.5 39q-53.5 49 -53.5 139q0 35 7 70q26 122 106.5 190.5t200.5 68.5q100 0 154 -49t54 -138q0 -30 -8 -72q-24 -121 -105.5 -189.5
t-200.5 -68.5q-101 0 -154.5 49zM378.5 84.5q56.5 59.5 77.5 163.5q8 36 8 76q0 70 -33.5 108.5t-94.5 38.5q-77 0 -133.5 -59.5t-78.5 -163.5q-8 -43 -8 -74q0 -71 34 -110t95 -39q77 0 133.5 59.5z" />
    <glyph glyph-name="uni1ED1" unicode="&#x1ed1;" horiz-adv-x="557" 
d="M486 719l93 79q37 33 63 33q11 0 16 -6.5t3 -16.5q-2 -13 -15.5 -27t-37.5 -26l-112 -57zM218 610q34 21 79 57t72 65h40q15 -28 45 -64t55 -58l-41 -32q-24 22 -48.5 52.5t-37.5 56.5h-4q-23 -26 -60 -56t-70 -53zM82.5 39q-53.5 49 -53.5 139q0 35 7 70
q26 122 106.5 190.5t200.5 68.5q100 0 154 -49t54 -138q0 -30 -8 -72q-24 -121 -105.5 -189.5t-200.5 -68.5q-101 0 -154.5 49zM378.5 84.5q56.5 59.5 77.5 163.5q8 36 8 76q0 70 -33.5 108.5t-94.5 38.5q-77 0 -133.5 -59.5t-78.5 -163.5q-8 -43 -8 -74q0 -71 34 -110
t95 -39q77 0 133.5 59.5z" />
    <glyph glyph-name="uni1ED9" unicode="&#x1ed9;" horiz-adv-x="557" 
d="M298 668q45 36 70 64h41q15 -29 45 -65t56 -57l-43 -32q-24 22 -48.5 52.5t-36.5 56.5h-5q-23 -25 -60 -55.5t-71 -53.5l-28 32q35 22 80 58zM142.5 438.5q80.5 68.5 200.5 68.5q100 0 154 -49t54 -138q0 -30 -8 -72q-24 -121 -105.5 -189.5t-200.5 -68.5
q-101 0 -154.5 49t-53.5 139q0 35 7 70q26 122 106.5 190.5zM116 174q0 -71 34 -110t95 -39q77 0 133.5 59.5t77.5 163.5q8 36 8 76q0 70 -33.5 108.5t-94.5 38.5q-77 0 -133.5 -59.5t-78.5 -163.5q-8 -43 -8 -74zM193.5 -72q14.5 13 34.5 13q16 0 25 -9.5t9 -25.5
q0 -24 -15.5 -40.5t-38.5 -16.5q-16 0 -25 9t-9 24q0 8 1 12q4 21 18.5 34z" />
    <glyph glyph-name="uni1ED3" unicode="&#x1ed3;" horiz-adv-x="557" 
d="M195 749q-22 14 -33 30t-8 29q2 10 10 16.5t18 6.5q13 0 28 -11t29 -30l55 -71l-19 -21zM218 610q34 21 79 57t72 65h40q15 -28 45 -64t55 -58l-41 -32q-24 22 -48.5 52.5t-37.5 56.5h-4q-23 -26 -60 -56t-70 -53zM82.5 39q-53.5 49 -53.5 139q0 35 7 70
q26 122 106.5 190.5t200.5 68.5q100 0 154 -49t54 -138q0 -30 -8 -72q-24 -121 -105.5 -189.5t-200.5 -68.5q-101 0 -154.5 49zM378.5 84.5q56.5 59.5 77.5 163.5q8 36 8 76q0 70 -33.5 108.5t-94.5 38.5q-77 0 -133.5 -59.5t-78.5 -163.5q-8 -43 -8 -74q0 -71 34 -110
t95 -39q77 0 133.5 59.5z" />
    <glyph glyph-name="uni1ED5" unicode="&#x1ed5;" horiz-adv-x="557" 
d="M491 764h19q24 0 39.5 11t20.5 31q3 17 -6.5 27t-33.5 10q-25 0 -50 -13v27q32 14 65 14q31 0 51 -12.5t20 -38.5q0 -5 -2 -15q-11 -56 -83 -63l-19 -53h-33zM218 610q34 21 79 57t72 65h40q15 -28 45 -64t55 -58l-41 -32q-24 22 -48.5 52.5t-37.5 56.5h-4
q-23 -26 -60 -56t-70 -53zM82.5 39q-53.5 49 -53.5 139q0 35 7 70q26 122 106.5 190.5t200.5 68.5q100 0 154 -49t54 -138q0 -30 -8 -72q-24 -121 -105.5 -189.5t-200.5 -68.5q-101 0 -154.5 49zM378.5 84.5q56.5 59.5 77.5 163.5q8 36 8 76q0 70 -33.5 108.5t-94.5 38.5
q-77 0 -133.5 -59.5t-78.5 -163.5q-8 -43 -8 -74q0 -71 34 -110t95 -39q77 0 133.5 59.5z" />
    <glyph glyph-name="uni1ED7" unicode="&#x1ed7;" horiz-adv-x="557" 
d="M350 861q19 0 35.5 -8t36.5 -23q15 -12 26.5 -18t23.5 -6q44 0 71 60h29q-35 -104 -111 -104q-14 0 -27.5 6.5t-25.5 14t-15 9.5q-17 13 -29.5 19.5t-24.5 6.5q-21 0 -39.5 -15.5t-29.5 -41.5h-30q33 100 110 100zM218 610q34 21 79 57t72 65h40q15 -28 45 -64t55 -58
l-41 -32q-24 22 -48.5 52.5t-37.5 56.5h-4q-23 -26 -60 -56t-70 -53zM82.5 39q-53.5 49 -53.5 139q0 35 7 70q26 122 106.5 190.5t200.5 68.5q100 0 154 -49t54 -138q0 -30 -8 -72q-24 -121 -105.5 -189.5t-200.5 -68.5q-101 0 -154.5 49zM378.5 84.5q56.5 59.5 77.5 163.5
q8 36 8 76q0 70 -33.5 108.5t-94.5 38.5q-77 0 -133.5 -59.5t-78.5 -163.5q-8 -43 -8 -74q0 -71 34 -110t95 -39q77 0 133.5 59.5z" />
    <glyph glyph-name="odieresis" unicode="&#xf6;" horiz-adv-x="557" 
d="M228 592.5q-9 9.5 -9 23.5q0 8 1 12q5 21 18.5 34t32.5 13q16 0 25 -9t9 -25q0 -25 -15.5 -41.5t-37.5 -16.5q-15 0 -24 9.5zM438 592q-9 9 -9 24q0 8 1 12q5 21 19 34t33 13q16 0 25.5 -9.5t9.5 -26.5q0 -7 -1 -11q-5 -20 -19.5 -32.5t-33.5 -12.5q-16 0 -25 9zM82.5 39
q-53.5 49 -53.5 139q0 35 7 70q26 122 106.5 190.5t200.5 68.5q100 0 154 -49t54 -138q0 -30 -8 -72q-24 -121 -105.5 -189.5t-200.5 -68.5q-101 0 -154.5 49zM378.5 84.5q56.5 59.5 77.5 163.5q8 36 8 76q0 70 -33.5 108.5t-94.5 38.5q-77 0 -133.5 -59.5t-78.5 -163.5
q-8 -43 -8 -74q0 -71 34 -110t95 -39q77 0 133.5 59.5z" />
    <glyph glyph-name="uni1ECD" unicode="&#x1ecd;" horiz-adv-x="557" 
d="M142.5 438.5q80.5 68.5 200.5 68.5q100 0 154 -49t54 -138q0 -30 -8 -72q-24 -121 -105.5 -189.5t-200.5 -68.5q-101 0 -154.5 49t-53.5 139q0 35 7 70q26 122 106.5 190.5zM116 174q0 -71 34 -110t95 -39q77 0 133.5 59.5t77.5 163.5q8 36 8 76q0 70 -33.5 108.5
t-94.5 38.5q-77 0 -133.5 -59.5t-78.5 -163.5q-8 -43 -8 -74zM193.5 -72q14.5 13 34.5 13q16 0 25 -9.5t9 -25.5q0 -24 -15.5 -40.5t-38.5 -16.5q-16 0 -25 9t-9 24q0 8 1 12q4 21 18.5 34z" />
    <glyph glyph-name="ograve" unicode="&#xf2;" horiz-adv-x="557" 
d="M312 666q-28 20 -24 43q2 11 12 19t24 8q21 0 38 -22l90 -107l-20 -23zM82.5 39q-53.5 49 -53.5 139q0 35 7 70q26 122 106.5 190.5t200.5 68.5q100 0 154 -49t54 -138q0 -30 -8 -72q-24 -121 -105.5 -189.5t-200.5 -68.5q-101 0 -154.5 49zM378.5 84.5
q56.5 59.5 77.5 163.5q8 36 8 76q0 70 -33.5 108.5t-94.5 38.5q-77 0 -133.5 -59.5t-78.5 -163.5q-8 -43 -8 -74q0 -71 34 -110t95 -39q77 0 133.5 59.5z" />
    <glyph glyph-name="uni1ECF" unicode="&#x1ecf;" horiz-adv-x="557" 
d="M351 671h23q29 0 48 14t23 38q1 3 1 9q0 17 -12 27t-36 10q-27 0 -58 -16l-1 30q15 7 36 12t42 5q35 0 57 -15t22 -46q0 -6 -2 -18q-7 -34 -32 -53t-64 -23l-23 -64h-37zM82.5 39q-53.5 49 -53.5 139q0 35 7 70q26 122 106.5 190.5t200.5 68.5q100 0 154 -49t54 -138
q0 -30 -8 -72q-24 -121 -105.5 -189.5t-200.5 -68.5q-101 0 -154.5 49zM378.5 84.5q56.5 59.5 77.5 163.5q8 36 8 76q0 70 -33.5 108.5t-94.5 38.5q-77 0 -133.5 -59.5t-78.5 -163.5q-8 -43 -8 -74q0 -71 34 -110t95 -39q77 0 133.5 59.5z" />
    <glyph glyph-name="ohorn" unicode="&#x1a1;" horiz-adv-x="602" 
d="M671 494q0 -14 -3 -26q-6 -34 -36 -72.5t-81 -73.5q0 -39 -8 -74q-24 -121 -105.5 -189.5t-200.5 -68.5q-101 0 -154.5 49t-53.5 139q0 35 7 70q26 122 106.5 190.5t200.5 68.5q89 0 141.5 -38.5t63.5 -110.5q53 43 67 87q-7 -5 -19 -5q-16 0 -25.5 9.5t-9.5 25.5
q0 23 16 43t47 20q47 0 47 -44zM464 324q0 70 -33.5 108.5t-94.5 38.5q-77 0 -133.5 -59.5t-78.5 -163.5q-8 -43 -8 -74q0 -71 34 -110t95 -39q77 0 133.5 59.5t77.5 163.5q8 36 8 76z" />
    <glyph glyph-name="uni1EDB" unicode="&#x1edb;" horiz-adv-x="602" 
d="M287 584l-11 23l131 106q14 11 24.5 17t23.5 6q14 0 20 -8t4 -19q-4 -23 -39 -43zM671 494q0 -14 -3 -26q-6 -34 -36 -72.5t-81 -73.5q0 -39 -8 -74q-24 -121 -105.5 -189.5t-200.5 -68.5q-101 0 -154.5 49t-53.5 139q0 35 7 70q26 122 106.5 190.5t200.5 68.5
q89 0 141.5 -38.5t63.5 -110.5q53 43 67 87q-7 -5 -19 -5q-16 0 -25.5 9.5t-9.5 25.5q0 23 16 43t47 20q47 0 47 -44zM464 324q0 70 -33.5 108.5t-94.5 38.5q-77 0 -133.5 -59.5t-78.5 -163.5q-8 -43 -8 -74q0 -71 34 -110t95 -39q77 0 133.5 59.5t77.5 163.5q8 36 8 76z
" />
    <glyph glyph-name="uni1EE3" unicode="&#x1ee3;" horiz-adv-x="602" 
d="M671 494q0 -14 -3 -26q-6 -34 -36 -72.5t-81 -73.5q0 -39 -8 -74q-24 -121 -105.5 -189.5t-200.5 -68.5q-101 0 -154.5 49t-53.5 139q0 35 7 70q26 122 106.5 190.5t200.5 68.5q89 0 141.5 -38.5t63.5 -110.5q53 43 67 87q-7 -5 -19 -5q-16 0 -25.5 9.5t-9.5 25.5
q0 23 16 43t47 20q47 0 47 -44zM464 324q0 70 -33.5 108.5t-94.5 38.5q-77 0 -133.5 -59.5t-78.5 -163.5q-8 -43 -8 -74q0 -71 34 -110t95 -39q77 0 133.5 59.5t77.5 163.5q8 36 8 76zM253 -68.5q9 -9.5 9 -25.5q0 -24 -15.5 -40.5t-38.5 -16.5q-16 0 -25 9t-9 24q0 8 1 12
q4 21 18.5 34t34.5 13q16 0 25 -9.5z" />
    <glyph glyph-name="uni1EDD" unicode="&#x1edd;" horiz-adv-x="602" 
d="M289 709q2 11 12 19t24 8q22 0 38 -22l90 -107l-20 -23l-120 82q-28 20 -24 43zM671 494q0 -14 -3 -26q-6 -34 -36 -72.5t-81 -73.5q0 -39 -8 -74q-24 -121 -105.5 -189.5t-200.5 -68.5q-101 0 -154.5 49t-53.5 139q0 35 7 70q26 122 106.5 190.5t200.5 68.5
q89 0 141.5 -38.5t63.5 -110.5q53 43 67 87q-7 -5 -19 -5q-16 0 -25.5 9.5t-9.5 25.5q0 23 16 43t47 20q47 0 47 -44zM464 324q0 70 -33.5 108.5t-94.5 38.5q-77 0 -133.5 -59.5t-78.5 -163.5q-8 -43 -8 -74q0 -71 34 -110t95 -39q77 0 133.5 59.5t77.5 163.5q8 36 8 76z
" />
    <glyph glyph-name="uni1EDF" unicode="&#x1edf;" horiz-adv-x="602" 
d="M424 685q19 14 23 38q1 3 1 9q0 17 -12 27t-36 10q-27 0 -58 -16l-1 30q15 7 36 12t42 5q35 0 57 -15t22 -46q0 -6 -2 -18q-7 -34 -32 -53t-64 -23l-23 -64h-37l13 90h23q29 0 48 14zM671 494q0 -14 -3 -26q-6 -34 -36 -72.5t-81 -73.5q0 -39 -8 -74
q-24 -121 -105.5 -189.5t-200.5 -68.5q-101 0 -154.5 49t-53.5 139q0 35 7 70q26 122 106.5 190.5t200.5 68.5q89 0 141.5 -38.5t63.5 -110.5q53 43 67 87q-7 -5 -19 -5q-16 0 -25.5 9.5t-9.5 25.5q0 23 16 43t47 20q47 0 47 -44zM464 324q0 70 -33.5 108.5t-94.5 38.5
q-77 0 -133.5 -59.5t-78.5 -163.5q-8 -43 -8 -74q0 -71 34 -110t95 -39q77 0 133.5 59.5t77.5 163.5q8 36 8 76z" />
    <glyph glyph-name="uni1EE1" unicode="&#x1ee1;" horiz-adv-x="602" 
d="M257.5 625.5q-19.5 -15.5 -29.5 -41.5h-32q17 50 46 75t68 25q20 0 37 -8t39 -23q19 -13 30 -18.5t23 -5.5q22 0 41.5 14.5t33.5 45.5h29q-16 -49 -45 -76.5t-70 -27.5q-16 0 -31.5 7.5t-39.5 22.5q-18 13 -31.5 19.5t-25.5 6.5q-23 0 -42.5 -15.5zM671 494q0 -14 -3 -26
q-6 -34 -36 -72.5t-81 -73.5q0 -39 -8 -74q-24 -121 -105.5 -189.5t-200.5 -68.5q-101 0 -154.5 49t-53.5 139q0 35 7 70q26 122 106.5 190.5t200.5 68.5q89 0 141.5 -38.5t63.5 -110.5q53 43 67 87q-7 -5 -19 -5q-16 0 -25.5 9.5t-9.5 25.5q0 23 16 43t47 20q47 0 47 -44z
M464 324q0 70 -33.5 108.5t-94.5 38.5q-77 0 -133.5 -59.5t-78.5 -163.5q-8 -43 -8 -74q0 -71 34 -110t95 -39q77 0 133.5 59.5t77.5 163.5q8 36 8 76z" />
    <glyph glyph-name="ohungarumlaut" unicode="&#x151;" horiz-adv-x="557" 
d="M223 606l130 106q27 24 48 24q12 0 19 -6.5t7 -15.5q0 -27 -41 -48l-153 -83zM412 606l131 106q8 8 21.5 16t26.5 8t19.5 -6t6.5 -16q0 -27 -41 -48l-154 -83zM82.5 39q-53.5 49 -53.5 139q0 35 7 70q26 122 106.5 190.5t200.5 68.5q100 0 154 -49t54 -138q0 -30 -8 -72
q-24 -121 -105.5 -189.5t-200.5 -68.5q-101 0 -154.5 49zM378.5 84.5q56.5 59.5 77.5 163.5q8 36 8 76q0 70 -33.5 108.5t-94.5 38.5q-77 0 -133.5 -59.5t-78.5 -163.5q-8 -43 -8 -74q0 -71 34 -110t95 -39q77 0 133.5 59.5z" />
    <glyph glyph-name="omacron" unicode="&#x14d;" horiz-adv-x="557" 
d="M205 619h319l-7 -35h-318zM82.5 39q-53.5 49 -53.5 139q0 35 7 70q26 122 106.5 190.5t200.5 68.5q100 0 154 -49t54 -138q0 -30 -8 -72q-24 -121 -105.5 -189.5t-200.5 -68.5q-101 0 -154.5 49zM378.5 84.5q56.5 59.5 77.5 163.5q8 36 8 76q0 70 -33.5 108.5t-94.5 38.5
q-77 0 -133.5 -59.5t-78.5 -163.5q-8 -43 -8 -74q0 -71 34 -110t95 -39q77 0 133.5 59.5z" />
    <glyph glyph-name="oslash" unicode="&#xf8;" horiz-adv-x="557" 
d="M550 321q0 -31 -8 -73q-24 -121 -105 -189.5t-200 -68.5q-83 0 -133 33l-52 -56l-25 23l50 54q-48 48 -48 134q0 35 7 70q26 122 106.5 190.5t200.5 68.5q80 0 130 -32l46 50l27 -24l-44 -48q48 -48 48 -132zM114 173q0 -41 13 -74l305 331q-33 41 -96 41
q-77 0 -134 -59.5t-79 -163.5q-9 -40 -9 -75zM465 323q0 42 -14 75l-306 -330q35 -43 100 -43q76 0 132.5 59.5t78.5 163.5q9 41 9 75z" />
    <glyph glyph-name="oslashacute" unicode="&#x1ff;" horiz-adv-x="557" 
d="M285 584l-10 23l130 106q14 11 24.5 17t23.5 6q14 0 20 -8t4 -19q-4 -23 -39 -43zM550 321q0 -31 -8 -73q-24 -121 -105 -189.5t-200 -68.5q-83 0 -133 33l-52 -56l-25 23l50 54q-48 48 -48 134q0 35 7 70q26 122 106.5 190.5t200.5 68.5q80 0 130 -32l46 50l27 -24
l-44 -48q48 -48 48 -132zM114 173q0 -41 13 -74l305 331q-33 41 -96 41q-77 0 -134 -59.5t-79 -163.5q-9 -40 -9 -75zM465 323q0 42 -14 75l-306 -330q35 -43 100 -43q76 0 132.5 59.5t78.5 163.5q9 41 9 75z" />
    <glyph glyph-name="otilde" unicode="&#xf5;" horiz-adv-x="557" 
d="M241 659q29 25 68 25q20 0 37 -8t39 -23q19 -13 30 -18.5t23 -5.5q22 0 41.5 14.5t33.5 45.5h29q-16 -49 -45 -76.5t-70 -27.5q-16 0 -31.5 7.5t-39.5 22.5q-18 13 -31.5 19.5t-25.5 6.5q-23 0 -42.5 -15.5t-29.5 -41.5h-32q17 50 46 75zM82.5 39q-53.5 49 -53.5 139
q0 35 7 70q26 122 106.5 190.5t200.5 68.5q100 0 154 -49t54 -138q0 -30 -8 -72q-24 -121 -105.5 -189.5t-200.5 -68.5q-101 0 -154.5 49zM378.5 84.5q56.5 59.5 77.5 163.5q8 36 8 76q0 70 -33.5 108.5t-94.5 38.5q-77 0 -133.5 -59.5t-78.5 -163.5q-8 -43 -8 -74
q0 -71 34 -110t95 -39q77 0 133.5 59.5z" />
    <glyph glyph-name="oe" unicode="&#x153;" horiz-adv-x="878" 
d="M81.5 39.5q-52.5 49.5 -52.5 138.5q0 35 7 70q25 121 105.5 190t195.5 69q56 0 97 -21t62 -59q40 39 91.5 59.5t110.5 20.5q96 0 142.5 -28t46.5 -80q0 -13 -3 -28q-20 -100 -141 -140t-259 -44q-2 -74 34.5 -118.5t112.5 -44.5q38 0 82.5 13.5t79.5 35.5l2 -26
q-32 -24 -83.5 -40.5t-109.5 -16.5q-120 0 -175 79q-82 -79 -196 -79q-97 0 -149.5 49.5zM332.5 48.5q42.5 23.5 73.5 66.5q-9 30 -9 65q0 26 7 68q16 76 56 134q-15 42 -48 65.5t-78 23.5q-76 0 -132 -59.5t-78 -163.5q-9 -42 -9 -76q0 -71 33.5 -109t94.5 -38
q47 0 89.5 23.5zM699 262q92 33 107 106q2 14 2 21q0 36 -26.5 59t-83.5 23q-81 0 -134 -65.5t-72 -154.5l-4 -29q119 7 211 40z" />
    <glyph glyph-name="p" unicode="p" horiz-adv-x="579" 
d="M141 465q-39 8 -62 17l2 8l155 16l-35 -176q39 80 103.5 128.5t132.5 48.5q65 0 103.5 -37t38.5 -114q0 -39 -8 -76q-29 -140 -105 -215t-180 -75q-51 0 -88 18.5t-52 55.5l-59 -287l-88 -10zM411.5 93q49.5 68 71.5 175q11 50 11 94q0 109 -86 109q-32 0 -75 -29.5
t-84 -82t-67 -118.5l-15 -72q-3 -16 -3 -32q0 -49 30.5 -80.5t87.5 -31.5q80 0 129.5 68z" />
    <glyph glyph-name="thorn" unicode="&#xfe;" horiz-adv-x="579" 
d="M182 667q-39 8 -62 17l2 8l155 16l-76 -378q39 80 103.5 128.5t132.5 48.5q65 0 103.5 -37t38.5 -114q0 -39 -8 -76q-29 -140 -105 -215t-180 -75q-51 0 -88 18.5t-52 55.5l-59 -287l-88 -10zM411.5 93q49.5 68 71.5 175q11 50 11 94q0 109 -86 109q-32 0 -75 -29.5
t-84 -82t-67 -118.5l-15 -72q-3 -16 -3 -32q0 -49 30.5 -80.5t87.5 -31.5q80 0 129.5 68z" />
    <glyph glyph-name="q" unicode="q" horiz-adv-x="580" 
d="M406 181q-52 -92 -118.5 -141.5t-131.5 -49.5q-66 0 -97.5 42t-31.5 111q0 35 8 77q14 73 54.5 138.5t105.5 107t149 41.5q38 0 68 -16t48 -44l10 54h88l-148 -724l-88 -10zM294.5 78q49.5 49 88 114t45.5 104l20 97q-8 35 -34.5 57.5t-63.5 22.5q-56 0 -103.5 -37
t-80 -95t-45.5 -121q-6 -30 -6 -60q0 -57 22.5 -94t66.5 -37q41 0 90.5 49z" />
    <glyph glyph-name="r" unicode="r" horiz-adv-x="399" 
d="M430.5 500q12.5 -10 12.5 -29q0 -18 -12 -32t-30 -14q-14 0 -19 6t-8 19.5t-12 13.5q-65 0 -149 -129l-68 -335l-90 -10l97 475q-39 8 -63 17l1 7l158 17l-23 -112q31 51 77.5 83.5t92.5 32.5q23 0 35.5 -10z" />
    <glyph glyph-name="racute" unicode="&#x155;" horiz-adv-x="399" 
d="M197 584l-11 23l131 106q26 23 48 23q14 0 20 -8t4 -19q-4 -23 -40 -43zM430.5 500q12.5 -10 12.5 -29q0 -18 -12 -32t-30 -14q-14 0 -19 6t-8 19.5t-12 13.5q-65 0 -149 -129l-68 -335l-90 -10l97 475q-39 8 -63 17l1 7l158 17l-23 -112q31 51 77.5 83.5t92.5 32.5
q23 0 35.5 -10z" />
    <glyph glyph-name="rcaron" unicode="&#x159;" horiz-adv-x="399" 
d="M216 649q-30 36 -56 58l42 32q25 -23 49 -53.5t36 -55.5h5q23 26 59.5 56.5t70.5 52.5l30 -32q-35 -21 -80 -57t-71 -66h-41q-14 29 -44 65zM430.5 500q12.5 -10 12.5 -29q0 -18 -12 -32t-30 -14q-14 0 -19 6t-8 19.5t-12 13.5q-65 0 -149 -129l-68 -335l-90 -10l97 475
q-39 8 -63 17l1 7l158 17l-23 -112q31 51 77.5 83.5t92.5 32.5q23 0 35.5 -10z" />
    <glyph glyph-name="rcommaaccent" unicode="&#x157;" horiz-adv-x="399" 
d="M430.5 500q12.5 -10 12.5 -29q0 -18 -12 -32t-30 -14q-14 0 -19 6t-8 19.5t-12 13.5q-65 0 -149 -129l-68 -335l-90 -10l97 475q-39 8 -63 17l1 7l158 17l-23 -112q31 51 77.5 83.5t92.5 32.5q23 0 35.5 -10zM134 -115q0 -6 -2 -20q-9 -42 -38.5 -90t-65.5 -77l-25 25
q23 21 41.5 51t27.5 60q-3 -1 -9 -1q-18 0 -28.5 10t-10.5 28q0 28 19 44t44 16q47 0 47 -46z" />
    <glyph glyph-name="uni1E5B" unicode="&#x1e5b;" horiz-adv-x="399" 
d="M430.5 500q12.5 -10 12.5 -29q0 -18 -12 -32t-30 -14q-14 0 -19 6t-8 19.5t-12 13.5q-65 0 -149 -129l-68 -335l-90 -10l97 475q-39 8 -63 17l1 7l158 17l-23 -112q31 51 77.5 83.5t92.5 32.5q23 0 35.5 -10zM115.5 -68.5q9.5 -9.5 9.5 -25.5q0 -24 -15.5 -40.5
t-38.5 -16.5q-16 0 -25.5 9.5t-9.5 24.5q0 7 1 11q5 21 19.5 34t33.5 13q16 0 25.5 -9.5z" />
    <glyph glyph-name="uni1E5D" unicode="&#x1e5d;" horiz-adv-x="399" 
d="M428 584h-319l7 35h319zM430.5 500q12.5 -10 12.5 -29q0 -18 -12 -32t-30 -14q-14 0 -19 6t-8 19.5t-12 13.5q-65 0 -149 -129l-68 -335l-90 -10l97 475q-39 8 -63 17l1 7l158 17l-23 -112q31 51 77.5 83.5t92.5 32.5q23 0 35.5 -10zM115.5 -68.5q9.5 -9.5 9.5 -25.5
q0 -24 -15.5 -40.5t-38.5 -16.5q-16 0 -25.5 9.5t-9.5 24.5q0 7 1 11q5 21 19.5 34t33.5 13q16 0 25.5 -9.5z" />
    <glyph glyph-name="uni1E5F" unicode="&#x1e5f;" horiz-adv-x="399" 
d="M430.5 500q12.5 -10 12.5 -29q0 -18 -12 -32t-30 -14q-14 0 -19 6t-8 19.5t-12 13.5q-65 0 -149 -129l-68 -335l-90 -10l97 475q-39 8 -63 17l1 7l158 17l-23 -112q31 51 77.5 83.5t92.5 32.5q23 0 35.5 -10zM-50 -69h319l-8 -35h-319z" />
    <glyph glyph-name="s" unicode="s" horiz-adv-x="445" 
d="M59 11q-50 21 -50 65q0 4 2 16t13.5 23.5t27.5 11.5q15 0 24 -9.5t7 -22.5q-1 -6 -4 -14t-3 -11q0 -16 28 -30.5t65 -14.5q60 0 97 27t47 75q2 10 2 15q0 31 -26 49.5t-80 39.5q-42 17 -69 32t-45.5 38.5t-18.5 57.5q0 73 60 110.5t146 37.5q69 0 117 -19t48 -62
q0 -4 -2 -16q-2 -11 -13.5 -21t-28.5 -10q-14 0 -23 8t-8 21q2 5 4 11t4 11q3 16 -22.5 29.5t-64.5 13.5q-52 0 -85 -18t-42 -57q-2 -10 -2 -15q0 -33 27 -52.5t81 -41.5q43 -18 69.5 -33t45 -38.5t18.5 -57.5q0 -12 -3 -27q-14 -70 -75.5 -106.5t-148.5 -36.5
q-69 0 -119 21z" />
    <glyph glyph-name="sacute" unicode="&#x15b;" horiz-adv-x="445" 
d="M217 607l131 106q26 23 48 23q12 0 18 -6.5t6 -15.5q0 -26 -40 -48l-152 -82zM59 11q-50 21 -50 65q0 4 2 16t13.5 23.5t27.5 11.5q15 0 24 -9.5t7 -22.5q-1 -6 -4 -14t-3 -11q0 -16 28 -30.5t65 -14.5q60 0 97 27t47 75q2 10 2 15q0 31 -26 49.5t-80 39.5q-42 17 -69 32
t-45.5 38.5t-18.5 57.5q0 73 60 110.5t146 37.5q69 0 117 -19t48 -62q0 -4 -2 -16q-2 -11 -13.5 -21t-28.5 -10q-14 0 -23 8t-8 21q2 5 4 11t4 11q3 16 -22.5 29.5t-64.5 13.5q-52 0 -85 -18t-42 -57q-2 -10 -2 -15q0 -33 27 -52.5t81 -41.5q43 -18 69.5 -33t45 -38.5
t18.5 -57.5q0 -12 -3 -27q-14 -70 -75.5 -106.5t-148.5 -36.5q-69 0 -119 21z" />
    <glyph glyph-name="scaron" unicode="&#x161;" horiz-adv-x="445" 
d="M238 649q-30 36 -56 58l42 32q25 -23 49 -53.5t36 -55.5h5q24 26 60.5 56.5t69.5 52.5l30 -32q-36 -21 -80.5 -57.5t-69.5 -65.5h-42q-14 29 -44 65zM59 11q-50 21 -50 65q0 4 2 16t13.5 23.5t27.5 11.5q15 0 24 -9.5t7 -22.5q-1 -6 -4 -14t-3 -11q0 -16 28 -30.5
t65 -14.5q60 0 97 27t47 75q2 10 2 15q0 31 -26 49.5t-80 39.5q-42 17 -69 32t-45.5 38.5t-18.5 57.5q0 73 60 110.5t146 37.5q69 0 117 -19t48 -62q0 -4 -2 -16q-2 -11 -13.5 -21t-28.5 -10q-14 0 -23 8t-8 21q2 5 4 11t4 11q3 16 -22.5 29.5t-64.5 13.5q-52 0 -85 -18
t-42 -57q-2 -10 -2 -15q0 -33 27 -52.5t81 -41.5q43 -18 69.5 -33t45 -38.5t18.5 -57.5q0 -12 -3 -27q-14 -70 -75.5 -106.5t-148.5 -36.5q-69 0 -119 21z" />
    <glyph glyph-name="scedilla" unicode="&#x15f;" horiz-adv-x="445" 
d="M399 488q48 -19 48 -62q0 -4 -2 -16q-2 -11 -13.5 -21t-28.5 -10q-14 0 -23 8t-8 21q2 5 4 11t4 11q3 16 -22.5 29.5t-64.5 13.5q-52 0 -85 -18t-42 -57q-2 -10 -2 -15q0 -33 27 -52.5t81 -41.5q43 -18 69.5 -33t45 -38.5t18.5 -57.5q0 -12 -3 -27q-13 -64 -66.5 -100
t-131.5 -42l-36 -56q88 0 88 -52q0 -5 -2 -15q-8 -42 -44.5 -64.5t-86.5 -22.5q-21 0 -41.5 4.5t-35.5 13.5l21 29q26 -12 58 -12q33 0 55 13t26 39q4 19 -11 28t-37 9q-10 0 -24 -2l-15 28l41 59q-64 3 -107.5 24.5t-43.5 61.5q0 4 2 16t13.5 23.5t27.5 11.5q15 0 24 -9.5
t7 -22.5q-1 -6 -4 -14t-3 -11q0 -16 28 -30.5t65 -14.5q60 0 97 27t47 75q2 10 2 15q0 31 -26 49.5t-80 39.5q-42 17 -69 32t-45.5 38.5t-18.5 57.5q0 73 60 110.5t146 37.5q69 0 117 -19z" />
    <glyph glyph-name="scircumflex" unicode="&#x15d;" horiz-adv-x="445" 
d="M162 610q35 22 80 58t70 64h41q15 -29 45 -65t56 -57l-43 -32q-24 22 -48 52.5t-37 56.5h-4q-23 -26 -60.5 -56t-71.5 -53zM59 11q-50 21 -50 65q0 4 2 16t13.5 23.5t27.5 11.5q15 0 24 -9.5t7 -22.5q-1 -6 -4 -14t-3 -11q0 -16 28 -30.5t65 -14.5q60 0 97 27t47 75
q2 10 2 15q0 31 -26 49.5t-80 39.5q-42 17 -69 32t-45.5 38.5t-18.5 57.5q0 73 60 110.5t146 37.5q69 0 117 -19t48 -62q0 -4 -2 -16q-2 -11 -13.5 -21t-28.5 -10q-14 0 -23 8t-8 21q2 5 4 11t4 11q3 16 -22.5 29.5t-64.5 13.5q-52 0 -85 -18t-42 -57q-2 -10 -2 -15
q0 -33 27 -52.5t81 -41.5q43 -18 69.5 -33t45 -38.5t18.5 -57.5q0 -12 -3 -27q-14 -70 -75.5 -106.5t-148.5 -36.5q-69 0 -119 21z" />
    <glyph glyph-name="scommaaccent" unicode="&#x219;" horiz-adv-x="445" 
d="M59 11q-50 21 -50 65q0 4 2 16t13.5 23.5t27.5 11.5q15 0 24 -9.5t7 -22.5q-1 -6 -4 -14t-3 -11q0 -16 28 -30.5t65 -14.5q60 0 97 27t47 75q2 10 2 15q0 31 -26 49.5t-80 39.5q-42 17 -69 32t-45.5 38.5t-18.5 57.5q0 73 60 110.5t146 37.5q69 0 117 -19t48 -62
q0 -4 -2 -16q-2 -11 -13.5 -21t-28.5 -10q-14 0 -23 8t-8 21q2 5 4 11t4 11q3 16 -22.5 29.5t-64.5 13.5q-52 0 -85 -18t-42 -57q-2 -10 -2 -15q0 -33 27 -52.5t81 -41.5q43 -18 69.5 -33t45 -38.5t18.5 -57.5q0 -12 -3 -27q-14 -70 -75.5 -106.5t-148.5 -36.5
q-69 0 -119 21zM83 -267q23 23 42.5 52.5t28.5 59.5q-5 -2 -12 -2q-17 0 -27.5 11t-10.5 28q0 27 19.5 45.5t44.5 18.5q24 0 36 -13.5t12 -35.5q0 -41 -33 -98t-75 -91z" />
    <glyph glyph-name="uni1E61" unicode="&#x1e61;" horiz-adv-x="445" 
d="M275 592q-9 9 -9 24q0 8 1 12q5 21 19 34t34 13q16 0 25 -9.5t9 -26.5q0 -7 -1 -11q-5 -20 -19 -32.5t-33 -12.5q-17 0 -26 9zM59 11q-50 21 -50 65q0 4 2 16q3 12 14 23.5t27 11.5q15 0 24 -9.5t7 -22.5q-1 -6 -4 -14t-3 -11q0 -16 28 -30.5t65 -14.5q60 0 97.5 27.5
t46.5 74.5q2 10 2 15q0 31 -26 49.5t-80 39.5q-42 17 -69 32t-45.5 38.5t-18.5 57.5q0 73 60 110.5t147 37.5q68 0 116.5 -19t48.5 -63q0 -5 -2 -15q-3 -11 -14.5 -21t-28.5 -10q-15 0 -23.5 8t-6.5 21q1 4 3.5 11t3.5 11q3 16 -22.5 29.5t-64.5 13.5q-51 0 -84.5 -18
t-42.5 -57q-2 -10 -2 -15q0 -33 27 -52t82 -42q43 -18 69.5 -33t45 -38.5t18.5 -57.5q0 -13 -3 -27q-15 -70 -76.5 -106.5t-148.5 -36.5q-69 0 -119 21z" />
    <glyph glyph-name="uni1E63" unicode="&#x1e63;" horiz-adv-x="445" 
d="M59 11q-50 21 -50 65q0 4 2 16q3 12 14 23.5t27 11.5q15 0 24 -9.5t7 -22.5q-1 -6 -4 -14t-3 -11q0 -16 28 -30.5t65 -14.5q60 0 97.5 27.5t46.5 74.5q2 10 2 15q0 31 -26 49.5t-80 39.5q-42 17 -69 32t-45.5 38.5t-18.5 57.5q0 73 60 110.5t147 37.5q68 0 116.5 -19
t48.5 -63q0 -5 -2 -15q-3 -11 -14.5 -21t-28.5 -10q-15 0 -23.5 8t-6.5 21q1 4 3.5 11t3.5 11q3 16 -22.5 29.5t-64.5 13.5q-51 0 -84.5 -18t-42.5 -57q-2 -10 -2 -15q0 -33 27 -52t82 -42q43 -18 69.5 -33t45 -38.5t18.5 -57.5q0 -13 -3 -27q-15 -70 -76.5 -106.5
t-148.5 -36.5q-69 0 -119 21zM126.5 -141.5q-9.5 9.5 -9.5 24.5q0 7 1 11q5 21 19.5 34t33.5 13q16 0 25.5 -9.5t9.5 -25.5q0 -24 -15.5 -40.5t-38.5 -16.5q-16 0 -25.5 9.5z" />
    <glyph glyph-name="germandbls" unicode="&#xdf;" horiz-adv-x="680" 
d="M450 331.5q23 -18.5 72 -42.5q39 -18 62.5 -33t40 -38.5t16.5 -56.5q0 -14 -3 -29q-14 -69 -72.5 -105.5t-138.5 -36.5q-69 0 -119.5 21.5t-50.5 65.5q0 5 2 15q3 12 14 23.5t27 11.5q15 0 24 -9.5t7 -22.5q-1 -6 -4 -13.5t-3 -10.5q0 -16 28.5 -31t65.5 -15
q54 0 87 26.5t41 68.5q2 12 2 18q0 32 -23.5 51.5t-70.5 41.5q-37 17 -59.5 31.5t-38 37t-15.5 55.5q0 15 3 31q10 53 57 81t106 33q8 38 8 77q0 53 -23 88.5t-82 35.5q-45 0 -81.5 -30t-49.5 -89l-111 -549q-20 -94 -69.5 -143.5t-128.5 -49.5q-57 0 -85 19t-28 51
q0 4 2 16q3 13 12.5 23.5t23.5 10.5q27 0 27 -22q0 -5 -1 -8q-1 -4 -3.5 -9t-3.5 -8q-3 -17 12.5 -26t38.5 -9q41 0 69.5 33.5t38.5 86.5l95 464h-91l7 36h91l11 53q18 91 80 138.5t153 47.5q99 0 137.5 -47.5t38.5 -117.5q0 -29 -4.5 -54.5t-5.5 -30.5l-3 -16
q-68 0 -111.5 -22t-43.5 -68q0 -31 23 -49.5z" />
    <glyph glyph-name="uni0259" unicode="&#x259;" horiz-adv-x="513" 
d="M445 455.5q54 -51.5 54 -140.5q0 -34 -7 -66q-24 -118 -103 -188.5t-190 -70.5q-96 0 -143 28t-47 80q0 13 3 28q20 99 141 139.5t258 44.5q2 74 -34 118.5t-111 44.5q-38 0 -82.5 -13.5t-79.5 -35.5l-2 26q32 24 83.5 40.5t109.5 16.5q96 0 150 -51.5zM333 91.5
q53 65.5 71 154.5q4 20 5 29q-119 -7 -211.5 -40.5t-107.5 -105.5q-2 -14 -2 -20q0 -36 26.5 -59.5t84.5 -23.5q81 0 134 65.5z" />
    <glyph glyph-name="t" unicode="t" horiz-adv-x="368" 
d="M167 97q-3 -15 -3 -25q0 -39 39 -39q27 0 54 32.5t48 82.5l22 -11q-26 -66 -67.5 -106.5t-100.5 -40.5q-33 0 -58 18.5t-25 56.5q0 13 3 26l76 372h-84l7 35h84l11 56q42 15 61 79h42l-27 -135h143l-7 -35h-144z" />
    <glyph glyph-name="tbar" unicode="&#x167;" horiz-adv-x="368" 
d="M241 463l-32 -161h126l-8 -35h-125l-35 -170q-3 -15 -3 -25q0 -39 39 -39q27 0 54 32.5t48 82.5l22 -11q-26 -66 -67.5 -106.5t-100.5 -40.5q-33 0 -58 18.5t-25 56.5q0 13 3 26l36 176h-73l8 35h72l33 161h-84l7 35h84l11 56q42 15 61 79h42l-27 -135h143l-7 -35h-144z
" />
    <glyph glyph-name="tcaron" unicode="&#x165;" horiz-adv-x="517" 
d="M557.5 653q11.5 -13 11.5 -35q0 -42 -33 -99t-75 -91l-25 25q23 22 42 51.5t28 59.5q-8 -2 -11 -2q-17 0 -27.5 11t-10.5 28q0 8 1 12q5 24 22 38.5t40 14.5q26 0 37.5 -13zM249 498h143l-7 -35h-144l-74 -366q-3 -15 -3 -25q0 -39 39 -39q27 0 54 32.5t48 82.5l22 -11
q-26 -66 -67.5 -106.5t-100.5 -40.5q-33 0 -58 18.5t-25 56.5q0 13 3 26l76 372h-84l7 35h84l11 56q42 15 61 79h42z" />
    <glyph glyph-name="uni0163" unicode="&#x163;" horiz-adv-x="368" 
d="M167 97q-3 -15 -3 -25q0 -39 39 -39q27 0 54 32.5t48 82.5l22 -11q-22 -57 -57 -96t-82 -48l-38 -58q4 1 14 1q37 -1 56.5 -15t19.5 -38q0 -5 -2 -15q-9 -42 -45 -64.5t-87 -22.5q-46 0 -78 18l21 29q24 -12 58 -12q33 0 55.5 13t27.5 39q4 19 -11 28t-39 9q-9 0 -23 -2
l-15 28l40 60q-28 4 -47 22.5t-19 51.5q0 13 3 26l76 372h-84l7 35h84l11 56q42 15 61 79h42l-27 -135h143l-7 -35h-144z" />
    <glyph glyph-name="uni021B" unicode="&#x21b;" horiz-adv-x="368" 
d="M167 97q-3 -15 -3 -25q0 -39 39 -39q27 0 54 32.5t48 82.5l22 -11q-26 -66 -67.5 -106.5t-100.5 -40.5q-33 0 -58 18.5t-25 56.5q0 13 3 26l76 372h-84l7 35h84l11 56q42 15 61 79h42l-27 -135h143l-7 -35h-144zM204 -115q0 -6 -2 -20q-9 -42 -38.5 -90t-65.5 -77l-25 25
q23 22 42 51.5t27 59.5q-3 -1 -9 -1q-18 0 -28.5 10t-10.5 28q0 27 19.5 43.5t43.5 16.5q47 0 47 -46z" />
    <glyph glyph-name="uni1E97" unicode="&#x1e97;" horiz-adv-x="368" 
d="M134.5 698q-8.5 9 -8.5 24q0 8 1 12q4 21 18 34t33 13q16 0 25 -9t9 -25q0 -25 -15.5 -41.5t-38.5 -16.5q-15 0 -23.5 9zM414 772q9 -9 9 -25q0 -25 -15 -41.5t-38 -16.5q-16 0 -25 9t-9 24q0 8 1 12q5 21 19 34t33 13q16 0 25 -9zM249 498h143l-7 -35h-144l-74 -366
q-3 -15 -3 -25q0 -39 39 -39q27 0 54 32.5t48 82.5l22 -11q-26 -66 -67.5 -106.5t-100.5 -40.5q-33 0 -58 18.5t-25 56.5q0 13 3 26l76 372h-84l7 35h84l11 56q42 15 61 79h42z" />
    <glyph glyph-name="uni1E6D" unicode="&#x1e6d;" horiz-adv-x="368" 
d="M167 97q-3 -15 -3 -25q0 -39 39 -39q27 0 54 32.5t48 82.5l22 -11q-26 -66 -67.5 -106.5t-100.5 -40.5q-33 0 -58 18.5t-25 56.5q0 13 3 26l76 372h-84l7 35h84l11 56q42 15 61 79h42l-27 -135h143l-7 -35h-144zM202 -68q9 -9 9 -25q0 -25 -15.5 -41.5t-38.5 -16.5
q-15 0 -24.5 9t-9.5 24q0 8 1 12q5 21 19.5 34t33.5 13q16 0 25 -9z" />
    <glyph glyph-name="uni1E6F" unicode="&#x1e6f;" horiz-adv-x="368" 
d="M167 97q-3 -15 -3 -25q0 -39 39 -39q27 0 54 32.5t48 82.5l22 -11q-26 -66 -67.5 -106.5t-100.5 -40.5q-33 0 -58 18.5t-25 56.5q0 13 3 26l76 372h-84l7 35h84l11 56q42 15 61 79h42l-27 -135h143l-7 -35h-144zM-22 -69h319l-8 -35h-319z" />
    <glyph glyph-name="u" unicode="u" horiz-adv-x="608" 
d="M620 138q-26 -65 -66 -106.5t-87 -41.5q-26 0 -42 19t-16 51q0 13 3 28l12 57q-39 -66 -95.5 -110.5t-118.5 -44.5q-63 0 -98 29t-35 89q0 20 7 57l60 300q-37 7 -63 17l2 8l156 16l-68 -335q-7 -34 -7 -62q0 -44 19.5 -64t57.5 -20q41 0 94 50t102 138l58 285h87
l-83 -406q-3 -15 -3 -29q0 -30 16 -30q18 0 46.5 38t42.5 77z" />
    <glyph glyph-name="uacute" unicode="&#xfa;" horiz-adv-x="608" 
d="M320 584l-11 23l131 106q26 23 48 23q14 0 20 -8t4 -19q-4 -23 -40 -43zM620 138q-26 -65 -66 -106.5t-87 -41.5q-26 0 -42 19t-16 51q0 13 3 28l12 57q-39 -66 -95.5 -110.5t-118.5 -44.5q-63 0 -98 29t-35 89q0 20 7 57l60 300q-37 7 -63 17l2 8l156 16l-68 -335
q-7 -34 -7 -62q0 -44 19.5 -64t57.5 -20q41 0 94 50t102 138l58 285h87l-83 -406q-3 -15 -3 -29q0 -30 16 -30q18 0 46.5 38t42.5 77z" />
    <glyph glyph-name="ubreve" unicode="&#x16d;" horiz-adv-x="608" 
d="M286.5 606q-32.5 31 -28.5 93h53q-1 -6 -1 -16q0 -42 22.5 -56.5t57.5 -14.5q37 0 67 18t45 69h54q-20 -62 -65.5 -93t-108.5 -31t-95.5 31zM620 138q-26 -65 -66 -106.5t-87 -41.5q-26 0 -42 19t-16 51q0 13 3 28l12 57q-39 -66 -95.5 -110.5t-118.5 -44.5q-63 0 -98 29
t-35 89q0 20 7 57l60 300q-37 7 -63 17l2 8l156 16l-68 -335q-7 -34 -7 -62q0 -44 19.5 -64t57.5 -20q41 0 94 50t102 138l58 285h87l-83 -406q-3 -15 -3 -29q0 -30 16 -30q18 0 46.5 38t42.5 77z" />
    <glyph glyph-name="uni01D4" unicode="&#x1d4;" horiz-adv-x="608" 
d="M318 649q-30 36 -56 58l43 32q24 -22 48 -52.5t36 -56.5h5q25 26 62 56.5t69 52.5l30 -32q-36 -22 -81 -58t-70 -65h-41q-15 29 -45 65zM620 138q-26 -65 -66 -106.5t-87 -41.5q-26 0 -42 19t-16 51q0 13 3 28l12 57q-39 -66 -95.5 -110.5t-118.5 -44.5q-63 0 -98 29
t-35 89q0 20 7 57l60 300q-37 7 -63 17l2 8l156 16l-68 -335q-7 -34 -7 -62q0 -44 19.5 -64t57.5 -20q41 0 94 50t102 138l58 285h87l-83 -406q-3 -15 -3 -29q0 -30 16 -30q18 0 46.5 38t42.5 77z" />
    <glyph glyph-name="ucircumflex" unicode="&#xfb;" horiz-adv-x="608" 
d="M336 631.5q-37 -30.5 -71 -53.5l-28 32q35 22 80 58t70 64h41q15 -29 45 -65t56 -57l-43 -32q-24 22 -48 52.5t-37 56.5h-5q-23 -25 -60 -55.5zM620 138q-26 -65 -66 -106.5t-87 -41.5q-26 0 -42 19t-16 51q0 13 3 28l12 57q-39 -66 -95.5 -110.5t-118.5 -44.5
q-63 0 -98 29t-35 89q0 20 7 57l60 300q-37 7 -63 17l2 8l156 16l-68 -335q-7 -34 -7 -62q0 -44 19.5 -64t57.5 -20q41 0 94 50t102 138l58 285h87l-83 -406q-3 -15 -3 -29q0 -30 16 -30q18 0 46.5 38t42.5 77z" />
    <glyph glyph-name="udieresis" unicode="&#xfc;" horiz-adv-x="608" 
d="M247 592.5q-9 9.5 -9 23.5q0 8 1 12q5 21 18.5 34t32.5 13q16 0 25.5 -9.5t9.5 -26.5q0 -7 -1 -11q-5 -20 -19.5 -32.5t-33.5 -12.5q-15 0 -24 9.5zM457 592.5q-9 9.5 -9 24.5q0 7 1 11q5 21 19 34t33 13q16 0 25.5 -9.5t9.5 -26.5q0 -7 -1 -11q-5 -20 -19.5 -32.5
t-33.5 -12.5q-16 0 -25 9.5zM620 138q-26 -65 -66 -106.5t-87 -41.5q-26 0 -42 19t-16 51q0 13 3 28l12 57q-39 -66 -95.5 -110.5t-118.5 -44.5q-63 0 -98 29t-35 89q0 20 7 57l60 300q-37 7 -63 17l2 8l156 16l-68 -335q-7 -34 -7 -62q0 -44 19.5 -64t57.5 -20q41 0 94 50
t102 138l58 285h87l-83 -406q-3 -15 -3 -29q0 -30 16 -30q18 0 46.5 38t42.5 77z" />
    <glyph glyph-name="uni01D8" unicode="&#x1d8;" horiz-adv-x="608" 
d="M394 678l-11 23l111 93q14 11 24.5 17t23.5 6q14 0 20 -8.5t4 -19.5q-3 -23 -39 -42zM251.5 593q-9.5 9 -9.5 25q0 24 15.5 40.5t38.5 16.5q16 0 24.5 -9t8.5 -24q0 -9 -1 -13q-4 -20 -18 -32.5t-33 -12.5q-16 0 -25.5 9zM469 658.5q16 16.5 37 16.5q17 0 26 -9t9 -25
q0 -8 -1 -12q-4 -20 -18 -32.5t-34 -12.5q-16 0 -25.5 9t-9.5 25q0 24 16 40.5zM620 138q-26 -65 -66 -106.5t-87 -41.5q-26 0 -42 19t-16 51q0 13 3 28l12 57q-39 -66 -95.5 -110.5t-118.5 -44.5q-63 0 -98 29t-35 89q0 20 7 57l60 300q-37 7 -63 17l2 8l156 16l-68 -335
q-7 -34 -7 -62q0 -44 19.5 -64t57.5 -20q41 0 94 50t102 138l58 285h87l-83 -406q-3 -15 -3 -29q0 -30 16 -30q18 0 46.5 38t42.5 77z" />
    <glyph glyph-name="uni01DA" unicode="&#x1da;" horiz-adv-x="608" 
d="M342.5 755q-28.5 33 -57.5 57l43 31q25 -22 48 -50t37 -53h4q44 49 126 103l30 -31q-38 -24 -80 -57t-68 -62h-40q-14 29 -42.5 62zM251 592.5q-9 9.5 -9 25.5q0 7 1 11q5 20 19.5 33t33.5 13q15 0 24 -9.5t9 -24.5q0 -8 -1 -12q-3 -20 -18 -33t-34 -13q-16 0 -25 9.5z
M473.5 662q14.5 13 32.5 13q17 0 26 -9.5t9 -24.5q0 -8 -1 -12q-3 -20 -18 -33t-35 -13q-16 0 -25 9.5t-9 25.5q0 7 1 11q5 20 19.5 33zM620 138q-26 -65 -66 -106.5t-87 -41.5q-26 0 -42 19t-16 51q0 13 3 28l12 57q-39 -66 -95.5 -110.5t-118.5 -44.5q-63 0 -98 29t-35 89
q0 20 7 57l60 300q-37 7 -63 17l2 8l156 16l-68 -335q-7 -34 -7 -62q0 -44 19.5 -64t57.5 -20q41 0 94 50t102 138l58 285h87l-83 -406q-3 -15 -3 -29q0 -30 16 -30q18 0 46.5 38t42.5 77z" />
    <glyph glyph-name="uni01DC" unicode="&#x1dc;" horiz-adv-x="608" 
d="M296 782q0 13 10 24t26 11q13 0 23.5 -8t15.5 -15l74 -93l-20 -23l-106 69q-23 15 -23 35zM249.5 593q-9.5 9 -9.5 25q0 7 1 11q5 20 19.5 33t33.5 13q16 0 24.5 -9t8.5 -24q0 -9 -1 -13q-4 -20 -18 -32.5t-32 -12.5q-17 0 -26.5 9zM460.5 593q-9.5 9 -9.5 25
q0 24 16 40.5t37 16.5q17 0 26.5 -9.5t9.5 -25.5q0 -7 -1 -11q-5 -20 -19 -32.5t-34 -12.5q-16 0 -25.5 9zM620 138q-26 -65 -66 -106.5t-87 -41.5q-26 0 -42 19t-16 51q0 13 3 28l12 57q-39 -66 -95.5 -110.5t-118.5 -44.5q-63 0 -98 29t-35 89q0 20 7 57l60 300
q-37 7 -63 17l2 8l156 16l-68 -335q-7 -34 -7 -62q0 -44 19.5 -64t57.5 -20q41 0 94 50t102 138l58 285h87l-83 -406q-3 -15 -3 -29q0 -30 16 -30q18 0 46.5 38t42.5 77z" />
    <glyph glyph-name="uni01D6" unicode="&#x1d6;" horiz-adv-x="608" 
d="M567 734h-308l7 35h308zM250.5 593q-9.5 9 -9.5 25q0 24 15.5 40.5t38.5 16.5q16 0 25 -9t9 -25q0 -8 -1 -12q-4 -20 -18 -32.5t-34 -12.5q-16 0 -25.5 9zM468 658.5q15 16.5 38 16.5q16 0 25.5 -9.5t9.5 -25.5q0 -7 -1 -11q-5 -20 -19 -32.5t-33 -12.5q-16 0 -25.5 9
t-9.5 24q0 25 15 41.5zM620 138q-26 -65 -66 -106.5t-87 -41.5q-26 0 -42 19t-16 51q0 13 3 28l12 57q-39 -66 -95.5 -110.5t-118.5 -44.5q-63 0 -98 29t-35 89q0 20 7 57l60 300q-37 7 -63 17l2 8l156 16l-68 -335q-7 -34 -7 -62q0 -44 19.5 -64t57.5 -20q41 0 94 50
t102 138l58 285h87l-83 -406q-3 -15 -3 -29q0 -30 16 -30q18 0 46.5 38t42.5 77z" />
    <glyph glyph-name="uni1EE5" unicode="&#x1ee5;" horiz-adv-x="608" 
d="M620 138q-26 -65 -66 -106.5t-87 -41.5q-26 0 -42 19t-16 51q0 13 3 28l12 57q-39 -66 -95.5 -110.5t-118.5 -44.5q-63 0 -98 29t-35 89q0 20 7 57l60 300q-37 7 -63 17l2 8l156 16l-68 -335q-7 -34 -7 -62q0 -44 19.5 -64t57.5 -20q41 0 94 50t102 138l58 285h87
l-83 -406q-3 -15 -3 -29q0 -30 16 -30q18 0 46.5 38t42.5 77zM277.5 -68.5q9.5 -9.5 9.5 -25.5q0 -24 -15.5 -40.5t-38.5 -16.5q-16 0 -25 9t-9 24q0 8 1 12q4 21 18.5 34t33.5 13q16 0 25.5 -9.5z" />
    <glyph glyph-name="ugrave" unicode="&#xf9;" horiz-adv-x="608" 
d="M311 709q2 11 12 19t25 8q20 0 37 -22l90 -107l-20 -23l-120 82q-28 20 -24 43zM620 138q-26 -65 -66 -106.5t-87 -41.5q-26 0 -42 19t-16 51q0 13 3 28l12 57q-39 -66 -95.5 -110.5t-118.5 -44.5q-63 0 -98 29t-35 89q0 20 7 57l60 300q-37 7 -63 17l2 8l156 16
l-68 -335q-7 -34 -7 -62q0 -44 19.5 -64t57.5 -20q41 0 94 50t102 138l58 285h87l-83 -406q-3 -15 -3 -29q0 -30 16 -30q18 0 46.5 38t42.5 77z" />
    <glyph glyph-name="uni1EE7" unicode="&#x1ee7;" horiz-adv-x="608" 
d="M434 685q19 14 24 38q1 3 1 9q0 16 -12.5 26.5t-35.5 10.5q-28 0 -59 -16l-1 30q38 17 78 17q35 0 57.5 -15.5t22.5 -46.5q0 -5 -2 -17q-14 -68 -96 -76l-23 -64h-38l14 90h23q28 0 47 14zM620 138q-26 -65 -66 -106.5t-87 -41.5q-26 0 -42 19t-16 51q0 13 3 28l12 57
q-39 -66 -95.5 -110.5t-118.5 -44.5q-63 0 -98 29t-35 89q0 20 7 57l60 300q-37 7 -63 17l2 8l156 16l-68 -335q-7 -34 -7 -62q0 -44 19.5 -64t57.5 -20q41 0 94 50t102 138l58 285h87l-83 -406q-3 -15 -3 -29q0 -30 16 -30q18 0 46.5 38t42.5 77z" />
    <glyph glyph-name="uhorn" unicode="&#x1b0;" horiz-adv-x="633" 
d="M728 599q0 -7 -2 -23q-9 -41 -51.5 -75t-102.5 -45l-74 -364q-3 -15 -3 -29q0 -30 16 -30q18 0 46.5 38t42.5 77l19 -10q-25 -64 -65.5 -106t-87.5 -42q-26 0 -42 19t-16 51q0 13 3 28l11 55q-38 -66 -93.5 -109.5t-118.5 -43.5t-98 29t-35 89q0 20 7 57l60 300
q-37 7 -63 17l2 8l156 16l-68 -335q-7 -34 -7 -62q0 -44 19.5 -64t57.5 -20q41 0 93.5 49t101.5 137l52 253q-39 8 -63 18l2 9h121q51 0 81 14.5t42 44.5q-6 -5 -19 -5q-16 0 -25.5 9.5t-9.5 25.5q0 25 15.5 44.5t47.5 19.5q48 0 48 -45z" />
    <glyph glyph-name="uni1EE9" unicode="&#x1ee9;" horiz-adv-x="633" 
d="M329 584l-10 23l130 106q14 11 24.5 17t23.5 6q14 0 20 -8t4 -19q-4 -23 -39 -43zM728 599q0 -7 -2 -23q-9 -41 -51.5 -75t-102.5 -45l-74 -364q-3 -15 -3 -29q0 -30 16 -30q18 0 46.5 38t42.5 77l19 -10q-25 -64 -65.5 -106t-87.5 -42q-26 0 -42 19t-16 51q0 13 3 28
l11 55q-38 -66 -93.5 -109.5t-118.5 -43.5t-98 29t-35 89q0 20 7 57l60 300q-37 7 -63 17l2 8l156 16l-68 -335q-7 -34 -7 -62q0 -44 19.5 -64t57.5 -20q41 0 93.5 49t101.5 137l52 253q-39 8 -63 18l2 9h121q51 0 81 14.5t42 44.5q-6 -5 -19 -5q-16 0 -25.5 9.5t-9.5 25.5
q0 25 15.5 44.5t47.5 19.5q48 0 48 -45z" />
    <glyph glyph-name="uni1EF1" unicode="&#x1ef1;" horiz-adv-x="633" 
d="M728 599q0 -7 -2 -23q-9 -41 -51.5 -75t-102.5 -45l-74 -364q-3 -15 -3 -29q0 -30 16 -30q18 0 46.5 38t42.5 77l19 -10q-25 -64 -65.5 -106t-87.5 -42q-26 0 -42 19t-16 51q0 13 3 28l11 55q-38 -66 -93.5 -109.5t-118.5 -43.5t-98 29t-35 89q0 20 7 57l60 300
q-37 7 -63 17l2 8l156 16l-68 -335q-7 -34 -7 -62q0 -44 19.5 -64t57.5 -20q41 0 93.5 49t101.5 137l52 253q-39 8 -63 18l2 9h121q51 0 81 14.5t42 44.5q-6 -5 -19 -5q-16 0 -25.5 9.5t-9.5 25.5q0 25 15.5 44.5t47.5 19.5q48 0 48 -45zM285.5 -68.5q9.5 -9.5 9.5 -25.5
q0 -24 -15.5 -40.5t-38.5 -16.5q-16 0 -25.5 9.5t-9.5 24.5q0 7 1 11q5 21 19.5 34t33.5 13q16 0 25.5 -9.5z" />
    <glyph glyph-name="uni1EEB" unicode="&#x1eeb;" horiz-adv-x="633" 
d="M310 709q2 11 12 19t25 8q21 0 37 -22l90 -107l-20 -23l-120 82q-28 20 -24 43zM728 599q0 -7 -2 -23q-9 -41 -51.5 -75t-102.5 -45l-74 -364q-3 -15 -3 -29q0 -30 16 -30q18 0 46.5 38t42.5 77l19 -10q-25 -64 -65.5 -106t-87.5 -42q-26 0 -42 19t-16 51q0 13 3 28
l11 55q-38 -66 -93.5 -109.5t-118.5 -43.5t-98 29t-35 89q0 20 7 57l60 300q-37 7 -63 17l2 8l156 16l-68 -335q-7 -34 -7 -62q0 -44 19.5 -64t57.5 -20q41 0 93.5 49t101.5 137l52 253q-39 8 -63 18l2 9h121q51 0 81 14.5t42 44.5q-6 -5 -19 -5q-16 0 -25.5 9.5t-9.5 25.5
q0 25 15.5 44.5t47.5 19.5q48 0 48 -45z" />
    <glyph glyph-name="uni1EED" unicode="&#x1eed;" horiz-adv-x="633" 
d="M440 685q19 14 24 38l1 8q0 17 -12 27.5t-36 10.5q-28 0 -59 -16l-1 30q15 7 36 12t42 5q35 0 57.5 -15.5t22.5 -46.5q0 -5 -2 -17q-14 -68 -96 -76l-23 -64h-38l14 90h23q28 0 47 14zM728 599q0 -7 -2 -23q-9 -41 -51.5 -75t-102.5 -45l-74 -364q-3 -15 -3 -29
q0 -30 16 -30q18 0 46.5 38t42.5 77l19 -10q-25 -64 -65.5 -106t-87.5 -42q-26 0 -42 19t-16 51q0 13 3 28l11 55q-38 -66 -93.5 -109.5t-118.5 -43.5t-98 29t-35 89q0 20 7 57l60 300q-37 7 -63 17l2 8l156 16l-68 -335q-7 -34 -7 -62q0 -44 19.5 -64t57.5 -20
q41 0 93.5 49t101.5 137l52 253q-39 8 -63 18l2 9h121q51 0 81 14.5t42 44.5q-6 -5 -19 -5q-16 0 -25.5 9.5t-9.5 25.5q0 25 15.5 44.5t47.5 19.5q48 0 48 -45z" />
    <glyph glyph-name="uni1EEF" unicode="&#x1eef;" horiz-adv-x="633" 
d="M283.5 625.5q-19.5 -15.5 -30.5 -41.5h-31q17 50 46 75t68 25q20 0 37 -8t39 -23q19 -13 30 -18.5t23 -5.5q22 0 41.5 14.5t33.5 45.5h29q-16 -49 -45 -76.5t-70 -27.5q-17 0 -33.5 8t-37.5 22q-20 13 -33 19.5t-25 6.5q-22 0 -41.5 -15.5zM728 599q0 -7 -2 -23
q-9 -41 -51.5 -75t-102.5 -45l-74 -364q-3 -15 -3 -29q0 -30 16 -30q18 0 46.5 38t42.5 77l19 -10q-25 -64 -65.5 -106t-87.5 -42q-26 0 -42 19t-16 51q0 13 3 28l11 55q-38 -66 -93.5 -109.5t-118.5 -43.5t-98 29t-35 89q0 20 7 57l60 300q-37 7 -63 17l2 8l156 16
l-68 -335q-7 -34 -7 -62q0 -44 19.5 -64t57.5 -20q41 0 93.5 49t101.5 137l52 253q-39 8 -63 18l2 9h121q51 0 81 14.5t42 44.5q-6 -5 -19 -5q-16 0 -25.5 9.5t-9.5 25.5q0 25 15.5 44.5t47.5 19.5q48 0 48 -45z" />
    <glyph glyph-name="uhungarumlaut" unicode="&#x171;" horiz-adv-x="608" 
d="M224 583l-11 23l131 106q8 8 21.5 16t26.5 8q12 0 19 -6.5t7 -15.5q0 -27 -42 -48zM402 606l132 106q6 7 20.5 15.5t27.5 8.5q12 0 19 -6.5t7 -15.5q0 -27 -42 -48l-153 -83zM620 138q-26 -65 -66 -106.5t-87 -41.5q-26 0 -42 19t-16 51q0 13 3 28l12 57
q-39 -66 -95.5 -110.5t-118.5 -44.5q-63 0 -98 29t-35 89q0 20 7 57l60 300q-37 7 -63 17l2 8l156 16l-68 -335q-7 -34 -7 -62q0 -44 19.5 -64t57.5 -20q41 0 94 50t102 138l58 285h87l-83 -406q-3 -15 -3 -29q0 -30 16 -30q18 0 46.5 38t42.5 77z" />
    <glyph glyph-name="umacron" unicode="&#x16b;" horiz-adv-x="608" 
d="M543 584h-318l6 35h319zM620 138q-26 -65 -66 -106.5t-87 -41.5q-26 0 -42 19t-16 51q0 13 3 28l12 57q-39 -66 -95.5 -110.5t-118.5 -44.5q-63 0 -98 29t-35 89q0 20 7 57l60 300q-37 7 -63 17l2 8l156 16l-68 -335q-7 -34 -7 -62q0 -44 19.5 -64t57.5 -20q41 0 94 50
t102 138l58 285h87l-83 -406q-3 -15 -3 -29q0 -30 16 -30q18 0 46.5 38t42.5 77z" />
    <glyph glyph-name="uogonek" unicode="&#x173;" horiz-adv-x="608" 
d="M443 -51q-16 -24 -16 -47q0 -19 13.5 -29t35.5 -10q27 0 55 14l-9 -41q-39 -17 -82 -17q-41 0 -62.5 18t-21.5 46q0 32 23 63.5t60 50.5q-30 17 -30 63q0 13 3 28l12 57q-39 -66 -95.5 -110.5t-118.5 -44.5q-63 0 -98 29t-35 89q0 20 7 57l60 300q-37 7 -63 17l2 8
l156 16l-68 -335q-7 -34 -7 -62q0 -44 19.5 -64t57.5 -20q41 0 94 50t102 138l58 285h87l-83 -406q-3 -15 -3 -29q0 -30 16 -30q18 0 46.5 38t42.5 77l19 -10q-23 -58 -58.5 -98.5t-76.5 -47.5q-26 -19 -42 -43z" />
    <glyph glyph-name="uring" unicode="&#x16f;" horiz-adv-x="608" 
d="M327 588q-20 18 -20 49q0 6 2 20q8 40 38 64.5t70 24.5q33 0 52.5 -18.5t19.5 -50.5q0 -6 -2 -20q-8 -39 -37.5 -63t-68.5 -24q-34 0 -54 18zM354 613q12 -11 33 -11q24 0 42 15t23 40q2 10 2 14q0 19 -12 30.5t-32 11.5q-28 0 -48 -19.5t-20 -49.5q0 -20 12 -31z
M620 138q-26 -65 -66 -106.5t-87 -41.5q-26 0 -42 19t-16 51q0 13 3 28l12 57q-39 -66 -95.5 -110.5t-118.5 -44.5q-63 0 -98 29t-35 89q0 20 7 57l60 300q-37 7 -63 17l2 8l156 16l-68 -335q-7 -34 -7 -62q0 -44 19.5 -64t57.5 -20q41 0 94 50t102 138l58 285h87l-83 -406
q-3 -15 -3 -29q0 -30 16 -30q18 0 46.5 38t42.5 77z" />
    <glyph glyph-name="utilde" unicode="&#x169;" horiz-adv-x="608" 
d="M282.5 625.5q-19.5 -15.5 -30.5 -41.5h-31q17 50 46 75t68 25q20 0 37 -8t39 -23q19 -13 30 -18.5t23 -5.5q22 0 41.5 14.5t33.5 45.5h29q-16 -49 -45 -76.5t-70 -27.5q-17 0 -33.5 8t-37.5 22q-20 13 -33 19.5t-25 6.5q-22 0 -41.5 -15.5zM620 138q-26 -65 -66 -106.5
t-87 -41.5q-26 0 -42 19t-16 51q0 13 3 28l12 57q-39 -66 -95.5 -110.5t-118.5 -44.5q-63 0 -98 29t-35 89q0 20 7 57l60 300q-37 7 -63 17l2 8l156 16l-68 -335q-7 -34 -7 -62q0 -44 19.5 -64t57.5 -20q41 0 94 50t102 138l58 285h87l-83 -406q-3 -15 -3 -29q0 -30 16 -30
q18 0 46.5 38t42.5 77z" />
    <glyph glyph-name="v" unicode="v" horiz-adv-x="543" 
d="M96.5 17q-25.5 27 -25.5 73q0 18 5 41l68 334q-37 7 -63 17l2 8l156 16l-75 -365q-4 -26 -4 -39q0 -35 14.5 -56t45.5 -21q40 0 89.5 51t89.5 127t54 145q9 47 9 76q0 43 -18 68q24 19 53 19q30 0 42.5 -17.5t12.5 -48.5q0 -26 -9 -69q-15 -80 -68.5 -170.5t-132 -153
t-166.5 -62.5q-54 0 -79.5 27z" />
    </font>
</defs>
</svg>
