<?xml version="1.0" standalone="no"?>
<!DOCTYPE svg PUBLIC "-//W3C//DTD SVG 1.1//EN" "http://www.w3.org/Graphics/SVG/1.1/DTD/svg11.dtd" >
<svg>
<metadata>
Created by FontForge 20090622 at Wed Nov  1 21:55:25 2017
 By deploy user
Copyright 2014 Pria Ravichandran (pria.ravichandran@gmail.com)
</metadata>
<defs>
<font id="Catamaran-SemiBold" horiz-adv-x="561" >
  <font-face 
    font-family="Catamaran SemiBold"
    font-weight="600"
    font-stretch="normal"
    units-per-em="1000"
    panose-1="0 0 7 0 0 0 0 0 0 0"
    ascent="770"
    descent="-230"
    x-height="485"
    cap-height="680"
    bbox="-564 -380 2563 1320"
    underline-thickness="50"
    underline-position="-75"
    unicode-range="U+000D-U+FB02"
  />
<missing-glyph horiz-adv-x="684" 
d="M94 696v-696h495v696h-495zM474 606l1 -517h-268v517h267z" />
    <glyph glyph-name=".notdef" horiz-adv-x="684" 
d="M94 696v-696h495v696h-495zM474 606l1 -517h-268v517h267z" />
    <glyph glyph-name="nonmarkingreturn" unicode="&#xd;" horiz-adv-x="0" 
 />
    <glyph glyph-name="space" unicode=" " horiz-adv-x="228" 
 />
    <glyph glyph-name="uni0000" horiz-adv-x="0" 
 />
    <glyph glyph-name="uni0000" horiz-adv-x="0" 
 />
    <glyph glyph-name="uni00A0" unicode="&#xa0;" horiz-adv-x="236" 
 />
    <glyph glyph-name="uni200C" unicode="&#x200c;" horiz-adv-x="0" 
d="M-30 -68h60v1305h-60v-1305z" />
    <glyph glyph-name="uni200D" unicode="&#x200d;" horiz-adv-x="0" 
d="M0 1246l-73 74l-40 -40l74 -74l-74 -74l39 -39l44 43v-1204h60v1205l45 -44l39 39l-74 74l74 74l-40 40z" />
    <glyph glyph-name="uni25CC" unicode="&#x25cc;" horiz-adv-x="605" 
d="M323 467q8 8 8 21t-8 21.5t-21 8.5t-21 -8.5t-8 -21.5t8 -21t21 -8t21 8zM192 494q-8 -8 -8 -21t8 -21t21 -8t21 8t8 21t-8 21t-21 8t-21 -8zM413 452q8 8 8 21t-8 21t-21 8t-21 -8t-8 -21t8 -21t21 -8t21 8zM115.5 443.5q-8.5 -8.5 -8.5 -21.5t8.5 -21t21.5 -8t21 8
t8 21t-8 21.5t-21 8.5t-21.5 -8.5zM489.5 401q8.5 8 8.5 21t-8.5 21.5t-21.5 8.5t-21 -8.5t-8 -21.5t8 -21t21 -8t21.5 8zM67.5 364.5q-8.5 -8.5 -8.5 -21.5t8.5 -21t21.5 -8t21 8t8 21t-8 21.5t-21 8.5t-21.5 -8.5zM537 322q8 8 8 21t-8 21.5t-21 8.5t-21 -8.5t-8 -21.5
t8 -21t21 -8t21 8zM53.5 278.5q-8.5 -8.5 -8.5 -21.5t8.5 -20.5t21.5 -7.5t21 7.5t8 20.5t-8 21.5t-21 8.5t-21.5 -8.5zM551.5 236.5q8.5 7.5 8.5 20.5t-8.5 21.5t-21.5 8.5t-21 -8.5t-8 -21.5t8 -20.5t21 -7.5t21.5 7.5zM67.5 195q-8.5 -8 -8.5 -21t8.5 -21t21.5 -8t21 8
t8 21t-8 21t-21 8t-21.5 -8zM537 153q8 8 8 21t-8 21t-21 8t-21 -8t-8 -21t8 -21t21 -8t21 8zM114.5 115q-8.5 -8 -8.5 -21t8.5 -21t21.5 -8t21 8t8 21t-8 21t-21 8t-21.5 -8zM490.5 73q8.5 8 8.5 21t-8.5 21t-21.5 8t-21 -8t-8 -21t8 -21t21 -8t21.5 8zM192 65.5
q-8 -8.5 -8 -21.5t8 -21t21 -8t21 8t8 21t-8 21.5t-21 8.5t-21 -8.5zM413 23q8 8 8 21t-8 21.5t-21 8.5t-21 -8.5t-8 -21.5t8 -21t21 -8t21 8zM323 8q8 8 8 21t-8 21.5t-21 8.5t-21 -8.5t-8 -21.5t8 -21t21 -8t21 8z" />
    <glyph glyph-name="A" unicode="A" horiz-adv-x="641" 
d="M270 680l-260 -680h111l65 171h267l67 -180l111 16l-262 673h-99zM419 262h-201l99 265z" />
    <glyph glyph-name="B" unicode="B" horiz-adv-x="616" 
d="M521.5 51q66.5 51 66.5 146q0 62 -30.5 104t-83.5 66q80 57 80 126q0 98 -60.5 142.5t-167.5 44.5h-238v-680h256q111 0 177.5 51zM405.5 565.5q31.5 -20.5 31.5 -73.5q0 -49 -39 -72t-104 -24h-94v190h112q62 0 93.5 -20.5zM438.5 277q33.5 -28 33.5 -82
q0 -51 -36.5 -76.5t-98.5 -25.5h-137v212h147q58 0 91.5 -28z" />
    <glyph glyph-name="C" unicode="C" 
d="M451 683q-52 11 -88 11q-98 0 -171.5 -46t-113.5 -127.5t-40 -184.5q0 -98 36.5 -177.5t108.5 -126t174 -46.5q44 0 97.5 12t89.5 30l-43 84q-71 -31 -149 -31q-61 0 -105.5 34.5t-68 92.5t-23.5 129q0 78 27 137.5t73.5 92t104.5 32.5q41 0 66.5 -5.5t78.5 -22.5l34 81
q-36 20 -88 31z" />
    <glyph glyph-name="D" unicode="D" horiz-adv-x="684" 
d="M505 43q70 43 106 120.5t36 180.5q0 152 -78 244t-230 92h-251v-680h249q98 0 168 43zM485 520.5q47 -63.5 47 -177.5q0 -124 -52.5 -186.5t-143.5 -62.5h-136v490h143q95 0 142 -63.5z" />
    <glyph glyph-name="E" unicode="E" 
d="M541 0l-17 88h-324v213h243l-17 88h-226v203h298l-16 88h-394v-680h453z" />
    <glyph glyph-name="F" unicode="F" horiz-adv-x="500" 
d="M417 383h-217v209h280l-17 88h-375v-680h112v297h232z" />
    <glyph glyph-name="G" unicode="G" horiz-adv-x="629" 
d="M479 278v-183q-52 -14 -105 -14q-64 0 -113.5 31.5t-77.5 89.5t-28 135q0 83 32 142.5t86 89.5t119 30q41 0 65.5 -5.5t78.5 -22.5l35 81q-37 20 -90.5 31t-90.5 11q-100 0 -180.5 -45.5t-126 -127.5t-45.5 -185q0 -98 41 -178t118 -126t180 -46q57 0 111.5 13.5
t92.5 35.5v329h-238l-9 -86h145z" />
    <glyph glyph-name="H" unicode="H" horiz-adv-x="685" 
d="M597 0v680h-112v-294h-285v299l-112 -5v-680h112v296h285v-296h112z" />
    <glyph glyph-name="I" unicode="I" horiz-adv-x="287" 
d="M200 0v680h-112v-680h112z" />
    <glyph glyph-name="J" unicode="J" horiz-adv-x="281" 
d="M84.5 31.5q-5.5 -16.5 -22 -27.5t-52.5 -24l45 -82q58 18 89.5 38.5t45 50t13.5 74.5v619h-113v-600q0 -32 -5.5 -48.5z" />
    <glyph glyph-name="K" unicode="K" horiz-adv-x="641" 
d="M493 0l-223 299l-70 -75v-224h-112v680h112v-300l303 315l81 -65l-237 -251l284 -379h-138z" />
    <glyph glyph-name="L" unicode="L" horiz-adv-x="529" 
d="M503 88h-303v592h-112v-680h431z" />
    <glyph glyph-name="M" unicode="M" horiz-adv-x="767" 
d="M418 218l148 215v-433h114v680h-69l-219 -325l-234 325h-70v-680h112v449l175 -237z" />
    <glyph glyph-name="N" unicode="N" horiz-adv-x="729" 
d="M200 0v482l334 -482h107v680h-113v-479l-334 479h-106v-680h112z" />
    <glyph glyph-name="O" unicode="O" horiz-adv-x="733" 
d="M196 647.5q-75 -46.5 -116.5 -127.5t-41.5 -183q0 -100 40.5 -180t115 -125.5t171.5 -45.5q96 1 171 47t117 127t42 184q0 100 -40.5 180t-115.5 126t-173 46q-95 -2 -170 -48.5zM183 474q28 60 77 93t108 33q62 0 109.5 -33t73.5 -91t26 -132q0 -80 -28 -139.5
t-76.5 -91.5t-108.5 -32q-62 0 -109.5 33t-73.5 91.5t-26 132.5q0 76 28 136z" />
    <glyph glyph-name="P" unicode="P" horiz-adv-x="582" 
d="M200 244h82q74 0 135.5 24t99 74t37.5 123q0 110 -72.5 162.5t-190.5 52.5h-203v-680h112v244zM398.5 557q37.5 -29 37.5 -98q-3 -62 -42.5 -92t-106.5 -30h-87v249h89q72 0 109.5 -29z" />
    <glyph glyph-name="Q" unicode="Q" horiz-adv-x="733" 
d="M673 206.5q-22 -63.5 -64 -110.5l70 -69l-65 -57l-72 67q-77 -50 -177 -51q-97 0 -171.5 45.5t-115 125.5t-40.5 180q0 102 41.5 183t116.5 127.5t170 48.5q98 0 173 -46t115.5 -126t40.5 -180q0 -74 -22 -137.5zM465 108l-85 79l77 59l75 -74q45 71 45 172q0 74 -26 132
t-73.5 91t-109.5 33q-59 0 -108 -33t-77 -93t-28 -136q0 -74 26 -132.5t73.5 -91.5t109.5 -33q56 0 101 27z" />
    <glyph glyph-name="R" unicode="R" horiz-adv-x="616" 
d="M88 0h112v265h82q35 0 55 3l148 -268h121l-169 296q53 24 85 70t32 109q0 102 -73 153.5t-190 51.5h-203v-680zM398 559q38 -27 38 -89q0 -59 -41 -86t-108 -27h-87v229h89q71 0 109 -27z" />
    <glyph glyph-name="S" unicode="S" horiz-adv-x="522" 
d="M139 4.5q63 -17.5 106 -17.5q79 0 135.5 23.5t85.5 65.5t29 96q0 50 -24.5 87.5t-63 64t-102.5 59.5q-61 31 -89.5 47.5t-46 38t-17.5 49.5q0 39 33 59t85 20q41 0 73.5 -10t70.5 -28l38 89q-42 21 -90.5 34.5t-95.5 13.5q-70 0 -121.5 -23.5t-79 -64t-27.5 -91.5
q0 -71 47.5 -118.5t141.5 -95.5q56 -28 85.5 -45t48.5 -38.5t19 -47.5q0 -41 -35 -63.5t-101 -22.5q-41 0 -88 14t-81 31l-25 -90q26 -19 89 -36.5z" />
    <glyph glyph-name="T" unicode="T" horiz-adv-x="581" 
d="M554 680h-544v-89h214v-591h114v591h233z" />
    <glyph glyph-name="U" unicode="U" horiz-adv-x="700" 
d="M78 680v-435q0 -73 33.5 -131.5t95 -91.5t143.5 -33t143.5 33t95 91.5t33.5 131.5v435h-113v-426q0 -82 -43 -127.5t-116 -45.5t-116 45t-43 128v426h-113z" />
    <glyph glyph-name="V" unicode="V" horiz-adv-x="641" 
d="M122 689l-112 -16l263 -673h98l260 680h-111l-196 -527z" />
    <glyph glyph-name="W" unicode="W" horiz-adv-x="909" 
d="M899 680l-201 -680h-98l-146 520l-143 -520h-98l-203 673l112 16l142 -536l136 527h111l140 -527l136 527h112z" />
    <glyph glyph-name="X" unicode="X" horiz-adv-x="620" 
d="M126 0l182 266l170 -266h119l-220 337l233 343h-117l-173 -265l-195 285l-95 -42l221 -314l-241 -344h116z" />
    <glyph glyph-name="Y" unicode="Y" horiz-adv-x="593" 
d="M346 0l1 266l236 414h-119l-175 -299l-169 315l-110 -36l224 -392v-268h112z" />
    <glyph glyph-name="Z" unicode="Z" horiz-adv-x="570" 
d="M539 88h-399l409 503l-13 89h-490l14 -89h359l-401 -503l13 -88h520z" />
    <glyph glyph-name="a" unicode="a" horiz-adv-x="498" 
d="M243 396q86 0 88 -101h-106q-81 0 -130.5 -40t-49.5 -113q0 -70 43.5 -112t127.5 -42q36 0 72 17t64 44l17 -49h75v324q0 49 -27 88.5t-73.5 62.5t-102.5 23q-34 0 -88.5 -13t-80.5 -30l31 -92q74 33 140 33zM164.5 197.5q21.5 22.5 58.5 22.5h109v-87q-25 -26 -56 -41
t-62 -15q-33 0 -52 19.5t-19 45.5q0 33 21.5 55.5z" />
    <glyph glyph-name="b" unicode="b" horiz-adv-x="545" 
d="M404 466.5q55 -31.5 84.5 -89.5t29.5 -136q0 -75 -30 -132.5t-85.5 -89.5t-129.5 -32q-27 0 -60.5 12t-62.5 32l-23 -31h-59v695l112 11v-234q49 26 95 26q74 0 129 -31.5zM367.5 128q34.5 44 34.5 113q0 72 -34 116.5t-95 44.5q-26 0 -48.5 -8t-44.5 -24v-256
q41 -30 93 -30q60 0 94.5 44z" />
    <glyph glyph-name="c" unicode="c" horiz-adv-x="468" 
d="M344 92q-30 -8 -67 -8q-61 0 -97.5 44t-36.5 115q1 69 38.5 114t97.5 45q35 0 64.5 -8t68.5 -25l32 80q-31 22 -81 35.5t-84 13.5q-76 0 -133 -32t-87.5 -89.5t-30.5 -133.5q0 -77 30.5 -134.5t86.5 -89.5t132 -32q35 0 85 13t81 35l-33 82q-36 -17 -66 -25z" />
    <glyph glyph-name="d" unicode="d" horiz-adv-x="558" 
d="M490 705v-705h-61l-24 40q-31 -25 -66.5 -39t-68.5 -14q-74 0 -128.5 32t-84 90t-29.5 135q0 76 29.5 133.5t85 89t129.5 31.5q23 0 51 -8.5t54 -24.5v230zM177.5 128q34.5 -44 94.5 -44q30 0 55 9.5t50 30.5v238q-24 21 -49 30.5t-56 9.5q-60 0 -94.5 -44t-34.5 -113
q0 -73 34.5 -117z" />
    <glyph glyph-name="e" unicode="e" horiz-adv-x="509" 
d="M482 246q0 110 -55 181t-162 71q-73 0 -126.5 -32t-82 -89.5t-28.5 -133.5q0 -118 69.5 -186.5t201.5 -68.5q98 0 179 56l-34 82q-43 -22 -73.5 -32.5t-69.5 -10.5q-140 0 -155 130h336v33zM184.5 372q29.5 30 77.5 30q47 0 75 -29t37 -85h-226q7 54 36.5 84z" />
    <glyph glyph-name="f" unicode="f" horiz-adv-x="348" 
d="M88 395v-395h113v395h126l-36 86h-90v37q0 40 16 63t50 23q18 0 50 -12l31 84q-14 11 -40.5 18.5t-48.5 7.5q-80 0 -125.5 -45.5t-45.5 -124.5v-51h-74v-86h74z" />
    <glyph glyph-name="g" unicode="g" horiz-adv-x="554" 
d="M490 485v-518q0 -91 -65.5 -144t-179.5 -53q-36 0 -93.5 14t-90.5 37l34 81q45 -21 77.5 -31t69.5 -10q60 0 97.5 28.5t37.5 78.5v52q-26 -16 -54 -24.5t-53 -8.5q-74 0 -128.5 32t-84 90t-29.5 135q0 76 29.5 133.5t85 89t129.5 31.5q30 0 67 -14t66 -38l24 39h61z
M327 93.5q25 9.5 50 30.5v238q-24 21 -49 30.5t-56 9.5q-60 0 -94.5 -44t-34.5 -113q0 -73 34.5 -117t94.5 -44q30 0 55 9.5z" />
    <glyph glyph-name="h" unicode="h" horiz-adv-x="563" 
d="M509 312v-312h-112v305q0 101 -76 101q-60 0 -141 -67v-339h-112v695l112 11v-266q41 28 85 44.5t83 16.5q161 0 161 -189z" />
    <glyph glyph-name="i" unicode="i" horiz-adv-x="228" 
d="M160.5 582.5q19.5 19.5 19.5 47.5q0 27 -19.5 46.5t-47.5 19.5q-27 0 -46 -19.5t-19 -46.5q0 -28 18.5 -47.5t46.5 -19.5t47.5 19.5zM171 0v485h-113v-485h113z" />
    <glyph glyph-name="j" unicode="j" horiz-adv-x="250" 
d="M82 582.5q-19 19.5 -19 47.5q0 27 19 46.5t47 19.5t48 -19.5t20 -46.5q0 -28 -20 -47.5t-48 -19.5t-47 19.5zM187 -4q0 -57 -10.5 -91.5t-42 -59.5t-93.5 -45l-43 84q34 12 50 27.5t20.5 35.5t4.5 56v482h114v-489z" />
    <glyph glyph-name="k" unicode="k" horiz-adv-x="502" 
d="M180 0v167l57 53l135 -220h130l-186 292l140 129l-64 77l-212 -201v409l-112 -11v-695h112z" />
    <glyph glyph-name="l" unicode="l" horiz-adv-x="247" 
d="M180 0v706l-112 -11v-695h112z" />
    <glyph glyph-name="m" unicode="m" horiz-adv-x="848" 
d="M757.5 454q37.5 -47 37.5 -132v-322h-113v305q0 50 -15.5 75.5t-52.5 25.5q-29 0 -61 -17t-69 -46q1 -7 1 -21v-322h-113v305q0 50 -15.5 75.5t-52.5 25.5q-53 0 -134 -67v-339h-112v485h75l20 -58q42 34 90 54t88 20q98 0 133 -73q42 33 89.5 53t87.5 20q79 0 116.5 -47
z" />
    <glyph glyph-name="n" unicode="n" horiz-adv-x="553" 
d="M170 339q81 67 142 67q75 0 75 -101v-305h113v312q0 88 -38 138.5t-123 50.5q-44 0 -94 -20t-92 -54l-20 58h-75v-485h112v339z" />
    <glyph glyph-name="o" unicode="o" horiz-adv-x="556" 
d="M498 109q-31 -58 -88 -90t-133 -32t-132 32t-86.5 89.5t-30.5 134.5q0 76 30.5 133.5t87.5 89.5t133 32t132.5 -31.5t87 -89.5t30.5 -134t-31 -134zM375.5 129q37.5 45 37.5 113q0 71 -36.5 115.5t-97.5 44.5q-60 0 -97.5 -45t-38.5 -114q0 -71 36.5 -115t97.5 -44
t98.5 45z" />
    <glyph glyph-name="p" unicode="p" horiz-adv-x="541" 
d="M400 466.5q55 -31.5 84.5 -89.5t29.5 -136q0 -75 -30 -132.5t-85.5 -89.5t-129.5 -32q-44 0 -93 26v-221l-112 -11v704h59l24 -32q29 22 62 33.5t62 11.5q74 0 129 -31.5zM363.5 128q34.5 44 34.5 113q0 72 -34 116.5t-95 44.5q-26 0 -48.5 -8t-44.5 -24v-256
q41 -30 93 -30q60 0 94.5 44z" />
    <glyph glyph-name="q" unicode="q" horiz-adv-x="554" 
d="M490 485v-694l-113 -10v239q-26 -16 -54 -24.5t-53 -8.5q-74 0 -128.5 32t-84 90t-29.5 135q0 76 29.5 133.5t85 89t129.5 31.5q29 0 66 -14t66 -37l25 38h61zM327 93.5q25 9.5 50 30.5v238q-24 21 -49 30.5t-56 9.5q-60 0 -94.5 -44t-34.5 -113q0 -73 34.5 -117
t94.5 -44q30 0 55 9.5z" />
    <glyph glyph-name="r" unicode="r" horiz-adv-x="352" 
d="M170 309q40 36 88 61t84 25l-23 90q-35 0 -81.5 -25t-82.5 -55l-37 80h-60v-485h112v309z" />
    <glyph glyph-name="s" unicode="s" horiz-adv-x="421" 
d="M109.5 -0.5q48.5 -12.5 84.5 -12.5q97 0 148.5 39t51.5 110q0 101 -165 160q-41 14 -64 28t-24 31q0 22 21 37t52 15q34 0 63.5 -8.5t64.5 -24.5l35 76q-32 22 -79.5 35t-81.5 13q-86 0 -136 -38.5t-50 -105.5q0 -96 160 -148q96 -31 96 -75q0 -24 -27 -38t-65 -14
q-60 0 -129 33l-34 -78q30 -22 78.5 -34.5z" />
    <glyph glyph-name="t" unicode="t" horiz-adv-x="360" 
d="M192 481v141l-112 -22v-119h-67v-86h67v-250q0 -79 46 -121t127 -42q22 0 48.5 7.5t41.5 17.5l-31 83q-27 -12 -50 -12q-35 0 -52.5 23.5t-17.5 62.5v231h122l-34 86h-88z" />
    <glyph glyph-name="u" unicode="u" horiz-adv-x="553" 
d="M383 146q-81 -67 -142 -67q-75 0 -75 101v305h-112v-312q0 -189 160 -189q44 0 94 20t92 54l20 -58h76v485h-113v-339z" />
    <glyph glyph-name="v" unicode="v" horiz-adv-x="487" 
d="M290 0l187 485h-117l-118 -323l-123 341l-109 -36l180 -467h100z" />
    <glyph glyph-name="w" unicode="w" horiz-adv-x="709" 
d="M546 0l153 485h-117l-83 -313l-87 313h-122l-83 -313l-88 330l-109 -35l146 -467h99l94 322l99 -322h98z" />
    <glyph glyph-name="x" unicode="x" horiz-adv-x="489" 
d="M135 0l104 160l101 -160h124l-151 230l166 255h-123l-108 -167l-118 184l-102 -36l146 -219l-164 -247h125z" />
    <glyph glyph-name="y" unicode="y" horiz-adv-x="488" 
d="M116.5 -91.5q-29.5 -18.5 -78.5 -39.5l39 -90q62 14 113.5 53t71.5 92l216 561h-118l-117 -322l-124 340l-109 -36l172 -444l-25 -66q-11 -30 -40.5 -48.5z" />
    <glyph glyph-name="z" unicode="z" horiz-adv-x="438" 
d="M411 485h-379l23 -92h218l-257 -334l14 -59h393l-10 90h-257l261 332z" />
    <glyph glyph-name="fi" unicode="&#xfb01;" horiz-adv-x="576" 
d="M88 395v-395h113v395h126l-36 86h-90v37q0 40 16 63t50 23q18 0 50 -12l31 84q-14 11 -40.5 18.5t-48.5 7.5q-80 0 -125.5 -45.5t-45.5 -124.5v-51h-74v-86h74zM508.5 582.5q19.5 19.5 19.5 47.5q0 27 -19.5 46.5t-47.5 19.5q-27 0 -46 -19.5t-19 -46.5q0 -28 18.5 -47.5
t46.5 -19.5t47.5 19.5zM519 0v485h-113v-485h113z" />
    <glyph glyph-name="fl" unicode="&#xfb02;" horiz-adv-x="595" 
d="M88 395v-395h113v395h126l-36 86h-90v37q0 40 16 63t50 23q18 0 50 -12l31 84q-14 11 -40.5 18.5t-48.5 7.5q-80 0 -125.5 -45.5t-45.5 -124.5v-51h-74v-86h74zM528 0v706l-112 -11v-695h112z" />
    <glyph glyph-name="zero" unicode="0" horiz-adv-x="601" 
d="M63 132.5q35 -68.5 97.5 -107t140.5 -38.5t140.5 38.5t97.5 107.5t35 155q0 83 -35 149.5t-97.5 104t-140.5 37.5t-140.5 -37.5t-97.5 -104.5t-35 -151q0 -85 35 -153.5zM154.5 389q21.5 44 60 69t86.5 25t86.5 -25.5t60.5 -71t22 -102.5q0 -58 -21.5 -103.5t-60 -71.5
t-87.5 -26q-48 0 -86.5 26.5t-60 73.5t-21.5 106q0 56 21.5 100z" />
    <glyph glyph-name="one" unicode="1" horiz-adv-x="346" 
d="M278 0v566h-75l-193 -89l46 -87l110 51v-441h112z" />
    <glyph glyph-name="two" unicode="2" horiz-adv-x="484" 
d="M38 527l23 -90q39 23 76 37t81 14q54 0 85.5 -22t31.5 -64q0 -33 -25 -67.5t-78 -81.5l-207 -178v-75h439l-15 86h-272l112 93q81 67 112.5 118t31.5 114q0 77 -56 122.5t-152 45.5q-100 0 -187 -52z" />
    <glyph glyph-name="three" unicode="3" horiz-adv-x="477" 
d="M118 561.5q-51 -17.5 -101 -49.5l53 -76q76 52 152 52q47 0 76 -24t29 -58q0 -42 -39 -67.5t-105 -25.5h-58l16 -87h36q83 0 122.5 -29t39.5 -81q0 -45 -37.5 -73t-88.5 -28q-45 0 -80.5 10.5t-75.5 34.5l-57 -76q49 -26 104.5 -43t106.5 -17q69 0 122 25.5t82 69.5
t29 98q0 40 -15 73t-38.5 54t-48.5 27q36 14 63 52.5t27 84.5q0 47 -23.5 86t-70.5 62t-113 23q-56 0 -107 -17.5z" />
    <glyph glyph-name="four" unicode="4" horiz-adv-x="548" 
d="M528 155h-105v416h-83l-330 -416l15 -92h285v-132h113v132h93zM310 387v-232h-179z" />
    <glyph glyph-name="five" unicode="5" horiz-adv-x="506" 
d="M206 245q25 15 58 15q49 0 79.5 -31.5t30.5 -86.5q0 -57 -37.5 -90.5t-96.5 -33.5q-46 0 -81 10.5t-76 33.5l-55 -79q46 -25 101 -42t107 -17q74 0 129 28t84.5 77.5t29.5 112.5q-1 58 -25.5 105t-73.5 75t-121 28q-47 0 -84 -21l7 145h248l13 92h-358l-17 -354h102
q11 18 36 33z" />
    <glyph glyph-name="six" unicode="6" horiz-adv-x="522" 
d="M389 368q50 -26 78 -72.5t28 -103.5q0 -59 -28 -106t-77 -73t-111 -26q-73 0 -130 30t-89 90t-32 145q0 110 59 193t147 130.5t176 58.5l18 -91q-92 -21 -167 -66t-107 -119q56 36 122 36q63 0 113 -26zM359.5 111q33.5 31 33.5 76q0 52 -33.5 85t-86.5 33
q-75 0 -139 -53q2 -84 41 -128t100 -44q51 0 84.5 31z" />
    <glyph glyph-name="seven" unicode="7" horiz-adv-x="462" 
d="M237 -69l205 589l-34 46h-398l14 -92h293l-185 -512z" />
    <glyph glyph-name="eight" unicode="8" horiz-adv-x="515" 
d="M149.5 619.5q-46.5 -23.5 -71 -62.5t-24.5 -86q0 -43 25.5 -78.5t66.5 -53.5q-30 -8 -57.5 -33t-44 -58.5t-16.5 -66.5q0 -54 27.5 -98t79.5 -70t123 -26q70 0 122 26t79.5 70t27.5 98q0 35 -16.5 68t-44 57t-57.5 33q40 19 66 54.5t26 77.5q0 47 -24.5 86t-70.5 62.5
t-108 23.5t-108.5 -23.5zM329.5 527.5q28.5 -23.5 28.5 -56.5q0 -36 -26 -61t-74 -32q-49 7 -75.5 32t-26.5 61q0 32 28.5 56t71.5 24q45 0 73.5 -23.5zM351 254q33 -32 33 -75q0 -45 -37.5 -73t-88.5 -28q-53 0 -90 27.5t-37 73.5q0 43 33 75t94 41q60 -9 93 -41z" />
    <glyph glyph-name="nine" unicode="9" horiz-adv-x="522" 
d="M374 549q57 -30 89 -90t32 -145q0 -110 -59 -193t-147 -130.5t-176 -58.5l-18 91q92 21 167 66t107 119q-56 -36 -122 -36q-63 0 -113 26t-78 72.5t-28 103.5q0 59 27.5 106t77 73t111.5 26q73 0 130 -30zM163 293.5q33 -32.5 87 -32.5q75 0 139 53q-2 84 -41 128
t-100 44q-51 0 -84.5 -31t-33.5 -76q0 -53 33 -85.5z" />
    <glyph glyph-name="grave" unicode="`" horiz-adv-x="190" 
d="M102 589l78 21l-52 140h-118z" />
    <glyph glyph-name="dieresis" unicode="&#xa8;" horiz-adv-x="321" 
d="M111.5 624q16.5 17 16.5 41q0 25 -16.5 42.5t-41.5 17.5t-42.5 -17.5t-17.5 -42.5q0 -24 17.5 -41t42.5 -17t41.5 17zM294 624q17 17 17 41q0 25 -17 42.5t-42 17.5q-24 0 -42 -17.5t-18 -42.5q0 -24 18 -41t42 -17q25 0 42 17z" />
    <glyph glyph-name="macron" unicode="&#xaf;" horiz-adv-x="276" 
d="M10 620h256l-9 89h-247v-89z" />
    <glyph glyph-name="acute" unicode="&#xb4;" horiz-adv-x="190" 
d="M88 589l92 161h-117l-53 -140z" />
    <glyph glyph-name="circumflex" unicode="&#x2c6;" horiz-adv-x="368" 
d="M186 665l70 -76l102 13l-140 148h-68l-140 -148l104 -13z" />
    <glyph glyph-name="caron" unicode="&#x2c7;" horiz-adv-x="368" 
d="M185 674l-71 76l-104 -13l140 -148h69l139 148l-102 13z" />
    <glyph glyph-name="breve" unicode="&#x2d8;" horiz-adv-x="305" 
d="M201.5 695.5q-17.5 -22.5 -49.5 -22.5t-48 22t-16 52h-78q0 -65 36.5 -109.5t105.5 -45.5q70 1 106.5 45.5t36.5 109.5h-76q0 -29 -17.5 -51.5z" />
    <glyph glyph-name="dotaccent" unicode="&#x2d9;" horiz-adv-x="153" 
d="M124 619.5q19 19.5 19 46.5q0 28 -19 48t-47 20t-47.5 -20t-19.5 -48q0 -27 19.5 -46.5t47.5 -19.5t47 19.5z" />
    <glyph glyph-name="ring" unicode="&#x2da;" horiz-adv-x="224" 
d="M40 756q-30 -28 -30 -69q0 -40 30 -66.5t72 -26.5t72 26.5t30 66.5q0 41 -30 69t-72 28t-72 -28zM83.5 659q-12.5 12 -12.5 28q0 17 12 29t29 12t28.5 -12t11.5 -29q0 -16 -12 -28t-28 -12t-28.5 12z" />
    <glyph glyph-name="tilde" unicode="&#x2dc;" horiz-adv-x="335" 
d="M243.5 687q-8.5 -10 -20.5 -10q-15 0 -26 4.5t-25 13.5q-15 10 -28 15t-33 5q-44 0 -72.5 -26.5t-28.5 -85.5h75q1 13 10.5 23.5t20.5 10.5q15 0 24.5 -4.5t24.5 -13.5q14 -10 27 -15.5t32 -5.5q44 0 72.5 27t28.5 86h-72q-1 -14 -9.5 -24z" />
    <glyph glyph-name="hungarumlaut" unicode="&#x2dd;" horiz-adv-x="373" 
d="M88 589l92 161h-117l-53 -140zM270 589l93 161h-118l-53 -140z" />
    <glyph glyph-name="ogonek" unicode="&#x2db;" horiz-adv-x="229" 
d="M23.5 -44.5q-13.5 -31.5 -13.5 -54.5q0 -46 31.5 -77t81.5 -31q55 0 96 32l-33 69q-11 -8 -23.5 -13t-21.5 -5q-17 0 -26.5 9.5t-9.5 25.5q0 20 16.5 49t34.5 44h-103q-16 -17 -29.5 -48.5z" />
    <glyph glyph-name="cedilla" unicode="&#xb8;" horiz-adv-x="232" 
d="M115 -93.5q25 -12.5 25 -30.5q0 -11 -12.5 -17t-28.5 -6q-12 0 -30.5 6t-32.5 13l-26 -68q14 -11 41.5 -18t47.5 -7q51 0 87 25.5t36 73.5q0 27 -21 51.5t-52 34.5l20 49h-82l-36 -90q39 -4 64 -16.5z" />
    <glyph glyph-name="commaaccent" unicode="&#xf6c3;" horiz-adv-x="0" 
d="M-124 -42q-20 -21 -20 -46q0 -24 17 -45t35 -21q-5 -21 -20 -37.5t-33 -24.5l25 -53q47 22 78.5 68.5t31.5 98.5q0 36 -19.5 58.5t-47.5 22.5q-27 0 -47 -21z" />
    <glyph glyph-name="grave.case" horiz-adv-x="190" 
d="M102 739l78 21l-52 140h-118z" />
    <glyph glyph-name="dieresis.case" horiz-adv-x="321" 
d="M111.5 774q16.5 17 16.5 41q0 25 -16.5 42.5t-41.5 17.5t-42.5 -17.5t-17.5 -42.5q0 -24 17.5 -41t42.5 -17t41.5 17zM294 774q17 17 17 41q0 25 -17 42.5t-42 17.5q-24 0 -42 -17.5t-18 -42.5q0 -24 18 -41t42 -17q25 0 42 17z" />
    <glyph glyph-name="macron.case" horiz-adv-x="276" 
d="M10 770h256l-10 89h-246v-89z" />
    <glyph glyph-name="acute.case" horiz-adv-x="190" 
d="M88 739l92 161h-117l-53 -140z" />
    <glyph glyph-name="circumflex.case" horiz-adv-x="368" 
d="M186 815l70 -76l102 13l-140 148h-68l-140 -148l104 -13z" />
    <glyph glyph-name="caron.case" horiz-adv-x="368" 
d="M185 824l-71 76l-104 -13l140 -148h69l139 148l-102 13z" />
    <glyph glyph-name="breve.case" horiz-adv-x="305" 
d="M201.5 845.5q-17.5 -22.5 -49.5 -22.5t-48 22t-16 52h-78q0 -65 36.5 -109.5t105.5 -45.5q70 1 106.5 45.5t36.5 109.5h-76q0 -29 -17.5 -51.5z" />
    <glyph glyph-name="dotaccent.case" horiz-adv-x="153" 
d="M124 769.5q19 19.5 19 46.5q0 28 -19 48t-47 20t-47.5 -20t-19.5 -48q0 -27 19.5 -46.5t47.5 -19.5t47 19.5z" />
    <glyph glyph-name="ring.case" horiz-adv-x="224" 
d="M40 906q-30 -28 -30 -69q0 -40 30 -66.5t72 -26.5t72 26.5t30 66.5q0 41 -30 69t-72 28t-72 -28zM83.5 809q-12.5 12 -12.5 28q0 17 12 29t29 12t28.5 -12t11.5 -29q0 -16 -12 -28t-28 -12t-28.5 12z" />
    <glyph glyph-name="tilde.case" horiz-adv-x="335" 
d="M243.5 837q-8.5 -10 -20.5 -10q-17 0 -28.5 4.5t-25.5 13.5q-14 10 -26.5 15t-31.5 5q-44 0 -72.5 -26.5t-28.5 -85.5h75q1 13 10.5 23.5t20.5 10.5q18 0 29 -5t23 -14q13 -10 25 -15t31 -5q44 0 72.5 27t28.5 86h-72q-1 -14 -9.5 -24z" />
    <glyph glyph-name="hungarumlaut.case" horiz-adv-x="373" 
d="M88 739l92 161h-117l-53 -140zM270 739l93 161h-118l-53 -140z" />
    <glyph glyph-name="Thorn" unicode="&#xde;" horiz-adv-x="589" 
d="M481.5 547.5q72.5 -52.5 72.5 -162.5q0 -73 -37.5 -123t-99 -74t-135.5 -24h-82v-164h-112v680h112v-80h91q118 0 190.5 -52.5zM393.5 287q39.5 30 42.5 92q0 69 -37.5 98t-109.5 29h-89v-249h87q67 0 106.5 30z" />
    <glyph glyph-name="Eth" unicode="&#xd0;" horiz-adv-x="684" 
d="M569 588q78 -92 78 -244q0 -103 -36.5 -180.5t-106 -120.5t-167.5 -43h-249v296h-59l-10 87h69v297h251q152 0 230 -92zM479.5 156.5q52.5 62.5 52.5 186.5q0 114 -47 177.5t-142 63.5h-143v-201h81l9 -87h-90v-202h136q91 0 143.5 62.5z" />
    <glyph glyph-name="AE" unicode="&#xc6;" horiz-adv-x="934" 
d="M112 -10l114 181h234v-171h454l-16 88h-324v213h243l-17 88h-226v203h298l-16 88h-408l-443 -674zM460 526v-264h-174z" />
    <glyph glyph-name="Dcroat" unicode="&#x110;" horiz-adv-x="684" 
d="M569 588q78 -92 78 -244q0 -103 -36 -180.5t-106 -120.5t-168 -43h-249v296h-59l-10 87h69v297h251q152 0 230 -92zM479.5 156.5q52.5 62.5 52.5 186.5q0 114 -47 177.5t-142 63.5h-143v-201h81l9 -87h-90v-202h136q91 0 143.5 62.5z" />
    <glyph glyph-name="Lslash" unicode="&#x141;" horiz-adv-x="535" 
d="M88 0v219l-33 -26l-45 77l78 61v349h112v-262l108 85l45 -77l-153 -120v-218h303l16 -88h-431z" />
    <glyph glyph-name="OE" unicode="&#x152;" horiz-adv-x="968" 
d="M495 0v9q-74 -23 -138 -23q-102 0 -174 46.5t-108.5 126t-36.5 177.5q0 103 40 184.5t113.5 127.5t171.5 46q25 0 61.5 -6t70.5 -17v9h394l17 -88h-299v-203h227l17 -88h-244v-213h325l16 -88h-453zM495 109v465q-46 14 -71 19.5t-64 5.5q-58 0 -104.5 -32.5t-73.5 -92
t-27 -137.5q0 -71 23.5 -129t68 -92.5t105.5 -34.5q72 0 143 28z" />
    <glyph glyph-name="Oslash" unicode="&#xd8;" horiz-adv-x="733" 
d="M539 650q75 -46 115.5 -126t40.5 -180q0 -103 -42 -184t-117 -127t-171 -47q-97 0 -171.5 45.5t-115 125.5t-40.5 180q0 102 41.5 183t116.5 127.5t170 48.5q98 0 173 -46zM260 567q-49 -33 -77 -93t-28 -136q0 -63 18.5 -114.5t53.5 -86.5l192 457q-24 6 -51 6
q-59 0 -108 -33zM472.5 113q48.5 32 76.5 91.5t28 139.5q0 58 -16.5 107t-46.5 84l-193 -450q28 -4 43 -4q60 0 108.5 32z" />
    <glyph glyph-name="germandbls" unicode="&#xdf;" horiz-adv-x="608" 
d="M180 0v472q0 58 33 92.5t88 34.5q48 0 80.5 -26.5t32.5 -72.5q0 -47 -33.5 -75.5t-95.5 -28.5h-33v-90h81q54 0 89.5 -30t35.5 -81q0 -48 -38 -75t-96 -27h-81v-93h87q111 0 178.5 50.5t67.5 142.5q0 63 -37.5 111t-90.5 64q37 17 60 56t23 82q0 91 -65.5 140.5
t-168.5 49.5q-106 0 -167.5 -60.5t-61.5 -162.5v-473h112z" />
    <glyph glyph-name="eth" unicode="&#xf0;" horiz-adv-x="556" 
d="M477.5 460.5q51.5 -96.5 51.5 -200.5q0 -82 -30 -143.5t-87 -95.5t-135 -34q-76 0 -132 32t-86.5 89.5t-30.5 134.5q0 75 30.5 133t86 90t129.5 32q23 0 54 -7q-35 44 -92 89l-128 -67l-42 77l84 43q-26 15 -74 35l39 82q68 -22 139 -63l108 55l42 -75l-69 -36
q91 -74 142.5 -170.5zM375.5 129q37.5 45 37.5 113t-19 126q-49 34 -115 34q-60 0 -97.5 -45t-38.5 -114q0 -71 36.5 -115t97.5 -44t98.5 45z" />
    <glyph glyph-name="thorn" unicode="&#xfe;" horiz-adv-x="541" 
d="M400 466.5q55 -31.5 84.5 -89.5t29.5 -136q0 -75 -30 -132.5t-85.5 -89.5t-129.5 -32q-18 0 -43.5 7t-49.5 20v-222l-112 -11v914l112 11v-235q50 27 95 27q74 0 129 -31.5zM363.5 128q34.5 44 34.5 113q0 72 -34 116.5t-95 44.5q-50 0 -93 -32v-256q40 -30 93 -30
q60 0 94.5 44z" />
    <glyph glyph-name="florin" unicode="&#x192;" horiz-adv-x="407" 
d="M73 393h74v-319q0 -40 -16 -62.5t-50 -22.5q-17 0 -51 12l-30 -83q14 -11 41 -18.5t49 -7.5q80 0 125 45.5t45 123.5v332h127l-36 86h-91v39q0 40 16 63t50 23q17 0 51 -12l30 84q-14 11 -40.5 18.5t-48.5 7.5q-80 0 -125.5 -46t-45.5 -124v-53h-74v-86z" />
    <glyph glyph-name="ae" unicode="&#xe6;" horiz-adv-x="812" 
d="M785 213h-336q17 -130 155 -130q39 0 69.5 10.5t73.5 32.5l34 -82q-80 -56 -179 -56q-139 0 -210 77q-34 -34 -75.5 -55.5t-100.5 -21.5q-84 0 -127.5 42t-43.5 112q0 73 49.5 113t130.5 40h106q-1 47 -22 74t-66 27q-66 0 -140 -33l-31 92q26 17 80.5 30t88.5 13
q48 0 89.5 -17t69.5 -48q65 65 169 65q107 0 161.5 -72.5t54.5 -183.5v-29zM677 288q-9 55 -37 84.5t-74 29.5q-48 0 -77.5 -29.5t-37.5 -84.5h226zM292 93.5q30 16.5 55 46.5q-12 36 -15 80h-109q-37 0 -58.5 -22.5t-21.5 -55.5q0 -26 19 -45.5t52 -19.5q48 0 78 16.5z" />
    <glyph glyph-name="dcroat" unicode="&#x111;" horiz-adv-x="558" 
d="M563 550h-73v-550h-61l-25 41q-31 -25 -67.5 -39.5t-66.5 -14.5q-74 0 -128.5 32t-84 90t-29.5 135q0 76 29.5 133.5t85 89t129.5 31.5q21 0 50 -9t55 -24v85h-72l-11 82h83v63l113 10v-73h63zM177.5 128q34.5 -44 94.5 -44q30 0 55 9.5t50 30.5v238q-24 21 -49 30.5
t-56 9.5q-60 0 -94.5 -44t-34.5 -113q0 -73 34.5 -117z" />
    <glyph glyph-name="oe" unicode="&#x153;" horiz-adv-x="826" 
d="M798 213h-335q15 -130 154 -130q39 0 70 10.5t74 32.5l34 -82q-82 -56 -179 -56q-108 0 -174 46q-31 -21 -81 -34t-84 -13q-76 0 -132 32t-86.5 89.5t-30.5 134.5q0 76 30.5 133.5t87.5 89.5t133 32q32 0 79 -12t79 -32q60 44 145 44q107 0 161.5 -71t54.5 -181v-33z
M179.5 128q36.5 -44 97.5 -44q52 0 101 19q-34 58 -34 140q0 81 32 140q-48 19 -97 19q-60 0 -97.5 -45t-38.5 -114q0 -71 36.5 -115zM691 288q-20 114 -112 114q-48 0 -77.5 -30t-37.5 -84h227z" />
    <glyph glyph-name="lacute" unicode="&#x13a;" horiz-adv-x="247" 
d="M165 739l93 161h-118l-52 -140zM180 0v685l-112 -12v-673h112z" />
    <glyph glyph-name="lslash" unicode="&#x142;" horiz-adv-x="343" 
d="M297 524l-69 -55v237l-112 -11v-313l-116 -91l45 -77l71 55v-269h112v357l115 91z" />
    <glyph glyph-name="dotlessi" unicode="&#x131;" horiz-adv-x="228" 
d="M171 0v485h-113v-485h113z" />
    <glyph glyph-name="oslash" unicode="&#xf8;" horiz-adv-x="563" 
d="M411.5 466.5q56.5 -31.5 87 -89.5t30.5 -134t-31 -134t-88 -90t-133 -32t-132 32t-86.5 89.5t-30.5 134.5q0 76 30.5 133.5t87.5 89.5t133 32t132.5 -31.5zM181.5 357q-37.5 -45 -38.5 -114q0 -64 29 -105l143 259q-18 5 -36 5q-60 0 -97.5 -45zM375.5 129
q37.5 45 37.5 113q0 53 -22 94l-140 -250q16 -2 26 -2q61 0 98.5 45z" />
    <glyph glyph-name="Agrave" unicode="&#xc0;" horiz-adv-x="641" 
d="M270 680l-260 -680h111l65 171h267l67 -180l111 16l-262 673h-99zM419 262h-201l99 265zM293 739l78 21l-52 140h-118z" />
    <glyph glyph-name="Aacute" unicode="&#xc1;" horiz-adv-x="641" 
d="M270 680l-260 -680h111l65 171h267l67 -180l111 16l-262 673h-99zM419 262h-201l99 265zM348 739l92 161h-117l-53 -140z" />
    <glyph glyph-name="Acircumflex" unicode="&#xc2;" horiz-adv-x="641" 
d="M270 680l-260 -680h111l65 171h267l67 -180l111 16l-262 673h-99zM419 262h-201l99 265zM315 815l70 -76l102 13l-140 148h-68l-140 -148l104 -13z" />
    <glyph glyph-name="Atilde" unicode="&#xc3;" horiz-adv-x="641" 
d="M270 680l-260 -680h111l65 171h267l67 -180l111 16l-262 673h-99zM419 262h-201l99 265zM386.5 837q-8.5 -10 -20.5 -10q-17 0 -28.5 4.5t-25.5 13.5q-14 10 -26.5 15t-31.5 5q-44 0 -72.5 -26.5t-28.5 -85.5h75q1 13 10.5 23.5t20.5 10.5q18 0 29 -5t23 -14
q13 -10 25 -15t31 -5q44 0 72.5 27t28.5 86h-72q-1 -14 -9.5 -24z" />
    <glyph glyph-name="Adieresis" unicode="&#xc4;" horiz-adv-x="641" 
d="M270 680l-260 -680h111l65 171h267l67 -180l111 16l-262 673h-99zM419 262h-201l99 265zM265.5 774q16.5 17 16.5 41q0 25 -16.5 42.5t-41.5 17.5t-42.5 -17.5t-17.5 -42.5q0 -24 17.5 -41t42.5 -17t41.5 17zM448 774q17 17 17 41q0 25 -17 42.5t-42 17.5
q-24 0 -42 -17.5t-18 -42.5q0 -24 18 -41t42 -17q25 0 42 17z" />
    <glyph glyph-name="Aring" unicode="&#xc5;" horiz-adv-x="641" 
d="M270 680l-260 -680h111l65 171h267l67 -180l111 16l-262 673h-99zM419 262h-201l99 265zM243 906q-30 -28 -30 -69q0 -40 30 -66.5t72 -26.5t72 26.5t30 66.5q0 41 -30 69t-72 28t-72 -28zM286.5 809q-12.5 12 -12.5 28q0 17 12 29t29 12t28.5 -12t11.5 -29
q0 -16 -12 -28t-28 -12t-28.5 12z" />
    <glyph glyph-name="Abreve" unicode="&#x102;" horiz-adv-x="641" 
d="M270 680l-260 -680h111l65 171h267l67 -180l111 16l-262 673h-99zM419 262h-201l99 265zM366.5 845.5q-17.5 -22.5 -49.5 -22.5t-48 22t-16 52h-78q0 -65 36.5 -109.5t105.5 -45.5q70 1 106.5 45.5t36.5 109.5h-76q0 -29 -17.5 -51.5z" />
    <glyph glyph-name="Aogonek" unicode="&#x104;" horiz-adv-x="641" 
d="M694 -173q-41 -32 -96 -32q-50 0 -82.5 31.5t-32.5 77.5q0 20 10.5 46.5t24.5 46.5l-65 174h-267l-65 -171h-111l260 680h99l262 -673q-18 -15 -34.5 -44t-16.5 -50q0 -16 9.5 -25t26.5 -9q10 0 22 4.5t23 13.5zM218 262h201l-102 265z" />
    <glyph glyph-name="Amacron" unicode="&#x100;" horiz-adv-x="641" 
d="M270 680l-260 -680h111l65 171h267l67 -180l111 16l-262 673h-99zM419 262h-201l99 265zM183 770h256l-10 89h-246v-89z" />
    <glyph glyph-name="Ccedilla" unicode="&#xc7;" 
d="M435 -70.5q21 -24.5 21 -51.5q0 -48 -36 -73.5t-87 -25.5q-20 0 -47.5 7t-41.5 18l26 68q14 -7 32.5 -13t30.5 -6q16 0 28.5 6t12.5 17q0 18 -25 30.5t-64 16.5l26 66q-87 10 -148.5 58t-93 123t-31.5 166q0 103 40 184.5t113.5 127.5t171.5 46q36 0 88 -11t88 -31
l-34 -81q-53 17 -78.5 22.5t-66.5 5.5q-58 0 -104.5 -32.5t-73.5 -92t-27 -137.5q0 -71 23.5 -129t68 -92.5t105.5 -34.5q78 0 149 31l43 -84q-28 -15 -69.5 -25.5t-81.5 -14.5l-10 -24q31 -10 52 -34.5z" />
    <glyph glyph-name="Cacute" unicode="&#x106;" 
d="M451 683q-52 11 -88 11q-98 0 -171.5 -46t-113.5 -127.5t-40 -184.5q0 -98 36.5 -177.5t108.5 -126t174 -46.5q44 0 97.5 12t89.5 30l-43 84q-71 -31 -149 -31q-61 0 -105.5 34.5t-68 92.5t-23.5 129q0 78 27 137.5t73.5 92t104.5 32.5q41 0 66.5 -5.5t78.5 -22.5l34 81
q-36 20 -88 31zM394 739l92 161h-117l-53 -140z" />
    <glyph glyph-name="Ccaron" unicode="&#x10c;" 
d="M451 683q-52 11 -88 11q-98 0 -171.5 -46t-113.5 -127.5t-40 -184.5q0 -98 36.5 -177.5t108.5 -126t174 -46.5q44 0 97.5 12t89.5 30l-43 84q-71 -31 -149 -31q-61 0 -105.5 34.5t-68 92.5t-23.5 129q0 78 27 137.5t73.5 92t104.5 32.5q41 0 66.5 -5.5t78.5 -22.5l34 81
q-36 20 -88 31zM365 824l-71 76l-104 -13l140 -148h69l139 148l-102 13z" />
    <glyph glyph-name="Dcaron" unicode="&#x10e;" horiz-adv-x="684" 
d="M505 43q70 43 106 120.5t36 180.5q0 152 -78 244t-230 92h-251v-680h249q98 0 168 43zM485 520.5q47 -63.5 47 -177.5q0 -124 -52.5 -186.5t-143.5 -62.5h-136v490h143q95 0 142 -63.5zM328 824l-71 76l-104 -13l140 -148h69l139 148l-102 13z" />
    <glyph glyph-name="Egrave" unicode="&#xc8;" 
d="M541 0l-17 88h-324v213h243l-17 88h-226v203h298l-16 88h-394v-680h453zM274 739l78 21l-52 140h-118z" />
    <glyph glyph-name="Eacute" unicode="&#xc9;" 
d="M541 0l-17 88h-324v213h243l-17 88h-226v203h298l-16 88h-394v-680h453zM329 739l92 161h-117l-53 -140z" />
    <glyph glyph-name="Ecircumflex" unicode="&#xca;" 
d="M541 0l-17 88h-324v213h243l-17 88h-226v203h298l-16 88h-394v-680h453zM296 815l70 -76l102 13l-140 148h-68l-140 -148l104 -13z" />
    <glyph glyph-name="Edieresis" unicode="&#xcb;" 
d="M541 0l-17 88h-324v213h243l-17 88h-226v203h298l-16 88h-394v-680h453zM246.5 774q16.5 17 16.5 41q0 25 -16.5 42.5t-41.5 17.5t-42.5 -17.5t-17.5 -42.5q0 -24 17.5 -41t42.5 -17t41.5 17zM429 774q17 17 17 41q0 25 -17 42.5t-42 17.5q-24 0 -42 -17.5t-18 -42.5
q0 -24 18 -41t42 -17q25 0 42 17z" />
    <glyph glyph-name="Emacron" unicode="&#x112;" 
d="M541 0l-17 88h-324v213h243l-17 88h-226v203h298l-16 88h-394v-680h453zM164 770h256l-10 89h-246v-89z" />
    <glyph glyph-name="Edotaccent" unicode="&#x116;" 
d="M541 0l-17 88h-324v213h243l-17 88h-226v203h298l-16 88h-394v-680h453zM344 769.5q19 19.5 19 46.5q0 28 -19 48t-47 20t-47.5 -20t-19.5 -48q0 -27 19.5 -46.5t47.5 -19.5t47 19.5z" />
    <glyph glyph-name="Eogonek" unicode="&#x118;" 
d="M545 -175q-41 -32 -96 -32q-50 0 -81.5 31t-31.5 77q0 22 12 51t27 48h-287v680h394l16 -88h-298v-203h226l17 -88h-243v-213h324l17 -88h-64q-17 -17 -31.5 -44t-14.5 -45q0 -16 9.5 -25.5t26.5 -9.5q9 0 21.5 5t23.5 13z" />
    <glyph glyph-name="Ecaron" unicode="&#x11a;" 
d="M541 0l-17 88h-324v213h243l-17 88h-226v203h298l-16 88h-394v-680h453zM300 824l-71 76l-104 -13l140 -148h69l139 148l-102 13z" />
    <glyph glyph-name="Gbreve" unicode="&#x11e;" horiz-adv-x="629" 
d="M479 278v-183q-52 -14 -105 -14q-64 0 -113.5 31.5t-77.5 89.5t-28 135q0 83 32 142.5t86 89.5t119 30q41 0 65.5 -5.5t78.5 -22.5l35 81q-37 20 -90.5 31t-90.5 11q-100 0 -180.5 -45.5t-126 -127.5t-45.5 -185q0 -98 41 -178t118 -126t180 -46q57 0 111.5 13.5
t92.5 35.5v329h-238l-9 -86h145zM425.5 845.5q-17.5 -22.5 -49.5 -22.5t-48 22t-16 52h-78q0 -65 36.5 -109.5t105.5 -45.5q70 1 106.5 45.5t36.5 109.5h-76q0 -29 -17.5 -51.5z" />
    <glyph glyph-name="Igrave" unicode="&#xcc;" horiz-adv-x="287" 
d="M200 0v680h-112v-680h112zM122 739l78 21l-52 140h-118z" />
    <glyph glyph-name="Iacute" unicode="&#xcd;" horiz-adv-x="287" 
d="M200 0v680h-112v-680h112zM177 739l92 161h-117l-53 -140z" />
    <glyph glyph-name="Icircumflex" unicode="&#xce;" horiz-adv-x="287" 
d="M200 0v680h-112v-680h112zM144 815l70 -76l102 13l-140 148h-68l-140 -148l104 -13z" />
    <glyph glyph-name="Idieresis" unicode="&#xcf;" horiz-adv-x="287" 
d="M200 0v680h-112v-680h112zM94.5 774q16.5 17 16.5 41q0 25 -16.5 42.5t-41.5 17.5t-42.5 -17.5t-17.5 -42.5q0 -24 17.5 -41t42.5 -17t41.5 17zM277 774q17 17 17 41q0 25 -17 42.5t-42 17.5q-24 0 -42 -17.5t-18 -42.5q0 -24 18 -41t42 -17q25 0 42 17z" />
    <glyph glyph-name="Imacron" unicode="&#x12a;" horiz-adv-x="287" 
d="M200 0v680h-112v-680h112zM12 770h256l-10 89h-246v-89z" />
    <glyph glyph-name="Iogonek" unicode="&#x12e;" horiz-adv-x="287" 
d="M263 -180q-41 -31 -97 -31q-50 0 -82.5 31t-32.5 77q0 24 10.5 53.5t26.5 49.5v680h112v-680q-19 -15 -35.5 -44t-16.5 -50q0 -16 10 -25t27 -9q9 0 21 4.5t23 13.5z" />
    <glyph glyph-name="Idotaccent" unicode="&#x130;" horiz-adv-x="287" 
d="M200 0v680h-112v-680h112zM192 769.5q19 19.5 19 46.5q0 28 -19 48t-47 20t-47.5 -20t-19.5 -48q0 -27 19.5 -46.5t47.5 -19.5t47 19.5z" />
    <glyph glyph-name="Lacute" unicode="&#x139;" horiz-adv-x="529" 
d="M503 88h-303v592h-112v-680h431zM231 739l92 161h-117l-53 -140z" />
    <glyph glyph-name="Lcaron" unicode="&#x13d;" horiz-adv-x="529" 
d="M503 88h-303v592h-112v-680h431zM372.5 710.5q-19.5 -21.5 -19.5 -46.5q0 -24 17 -44t35 -21q-5 -28 -19.5 -45.5t-44.5 -43.5l25 -53q52 28 87 84t35 110q0 35 -20.5 58t-48.5 23q-27 0 -46.5 -21.5z" />
    <glyph glyph-name="Ntilde" unicode="&#xd1;" horiz-adv-x="729" 
d="M200 0v482l334 -482h107v680h-113v-479l-334 479h-106v-680h112zM439.5 837q-8.5 -10 -20.5 -10q-17 0 -28.5 4.5t-25.5 13.5q-14 10 -26.5 15t-31.5 5q-44 0 -72.5 -26.5t-28.5 -85.5h75q1 13 10.5 23.5t20.5 10.5q18 0 29 -5t23 -14q13 -10 25 -15t31 -5q44 0 72.5 27
t28.5 86h-72q-1 -14 -9.5 -24z" />
    <glyph glyph-name="Nacute" unicode="&#x143;" horiz-adv-x="729" 
d="M200 0v482l334 -482h107v680h-113v-479l-334 479h-106v-680h112zM401 739l92 161h-117l-53 -140z" />
    <glyph glyph-name="Ncaron" unicode="&#x147;" horiz-adv-x="729" 
d="M200 0v482l334 -482h107v680h-113v-479l-334 479h-106v-680h112zM372 824l-71 76l-104 -13l140 -148h69l139 148l-102 13z" />
    <glyph glyph-name="Ograve" unicode="&#xd2;" horiz-adv-x="733" 
d="M196 647.5q-75 -46.5 -116.5 -127.5t-41.5 -183q0 -100 40.5 -180t115 -125.5t171.5 -45.5q96 1 171 47t117 127t42 184q0 100 -40.5 180t-115.5 126t-173 46q-95 -2 -170 -48.5zM183 474q28 60 77 93t108 33q62 0 109.5 -33t73.5 -91t26 -132q0 -80 -28 -139.5
t-76.5 -91.5t-108.5 -32q-62 0 -109.5 33t-73.5 91.5t-26 132.5q0 76 28 136zM342 739l78 21l-52 140h-118z" />
    <glyph glyph-name="Oacute" unicode="&#xd3;" horiz-adv-x="733" 
d="M196 647.5q-75 -46.5 -116.5 -127.5t-41.5 -183q0 -100 40.5 -180t115 -125.5t171.5 -45.5q96 1 171 47t117 127t42 184q0 100 -40.5 180t-115.5 126t-173 46q-95 -2 -170 -48.5zM183 474q28 60 77 93t108 33q62 0 109.5 -33t73.5 -91t26 -132q0 -80 -28 -139.5
t-76.5 -91.5t-108.5 -32q-62 0 -109.5 33t-73.5 91.5t-26 132.5q0 76 28 136zM397 739l92 161h-117l-53 -140z" />
    <glyph glyph-name="Ocircumflex" unicode="&#xd4;" horiz-adv-x="733" 
d="M196 647.5q-75 -46.5 -116.5 -127.5t-41.5 -183q0 -100 40.5 -180t115 -125.5t171.5 -45.5q96 1 171 47t117 127t42 184q0 100 -40.5 180t-115.5 126t-173 46q-95 -2 -170 -48.5zM183 474q28 60 77 93t108 33q62 0 109.5 -33t73.5 -91t26 -132q0 -80 -28 -139.5
t-76.5 -91.5t-108.5 -32q-62 0 -109.5 33t-73.5 91.5t-26 132.5q0 76 28 136zM364 815l70 -76l102 13l-140 148h-68l-140 -148l104 -13z" />
    <glyph glyph-name="Otilde" unicode="&#xd5;" horiz-adv-x="733" 
d="M196 647.5q-75 -46.5 -116.5 -127.5t-41.5 -183q0 -100 40.5 -180t115 -125.5t171.5 -45.5q96 1 171 47t117 127t42 184q0 100 -40.5 180t-115.5 126t-173 46q-95 -2 -170 -48.5zM183 474q28 60 77 93t108 33q62 0 109.5 -33t73.5 -91t26 -132q0 -80 -28 -139.5
t-76.5 -91.5t-108.5 -32q-62 0 -109.5 33t-73.5 91.5t-26 132.5q0 76 28 136zM435.5 837q-8.5 -10 -20.5 -10q-17 0 -28.5 4.5t-25.5 13.5q-14 10 -26.5 15t-31.5 5q-44 0 -72.5 -26.5t-28.5 -85.5h75q1 13 10.5 23.5t20.5 10.5q18 0 29 -5t23 -14q13 -10 25 -15t31 -5
q44 0 72.5 27t28.5 86h-72q-1 -14 -9.5 -24z" />
    <glyph glyph-name="Odieresis" unicode="&#xd6;" horiz-adv-x="733" 
d="M196 647.5q-75 -46.5 -116.5 -127.5t-41.5 -183q0 -100 40.5 -180t115 -125.5t171.5 -45.5q96 1 171 47t117 127t42 184q0 100 -40.5 180t-115.5 126t-173 46q-95 -2 -170 -48.5zM183 474q28 60 77 93t108 33q62 0 109.5 -33t73.5 -91t26 -132q0 -80 -28 -139.5
t-76.5 -91.5t-108.5 -32q-62 0 -109.5 33t-73.5 91.5t-26 132.5q0 76 28 136zM314.5 774q16.5 17 16.5 41q0 25 -16.5 42.5t-41.5 17.5t-42.5 -17.5t-17.5 -42.5q0 -24 17.5 -41t42.5 -17t41.5 17zM497 774q17 17 17 41q0 25 -17 42.5t-42 17.5q-24 0 -42 -17.5t-18 -42.5
q0 -24 18 -41t42 -17q25 0 42 17z" />
    <glyph glyph-name="Omacron" unicode="&#x14c;" horiz-adv-x="733" 
d="M196 647.5q-75 -46.5 -116.5 -127.5t-41.5 -183q0 -100 40.5 -180t115 -125.5t171.5 -45.5q96 1 171 47t117 127t42 184q0 100 -40.5 180t-115.5 126t-173 46q-95 -2 -170 -48.5zM183 474q28 60 77 93t108 33q62 0 109.5 -33t73.5 -91t26 -132q0 -80 -28 -139.5
t-76.5 -91.5t-108.5 -32q-62 0 -109.5 33t-73.5 91.5t-26 132.5q0 76 28 136zM232 770h256l-10 89h-246v-89z" />
    <glyph glyph-name="Ohungarumlaut" unicode="&#x150;" horiz-adv-x="733" 
d="M196 647.5q-75 -46.5 -116.5 -127.5t-41.5 -183q0 -100 40.5 -180t115 -125.5t171.5 -45.5q96 1 171 47t117 127t42 184q0 100 -40.5 180t-115.5 126t-173 46q-95 -2 -170 -48.5zM183 474q28 60 77 93t108 33q62 0 109.5 -33t73.5 -91t26 -132q0 -80 -28 -139.5
t-76.5 -91.5t-108.5 -32q-62 0 -109.5 33t-73.5 91.5t-26 132.5q0 76 28 136zM302 739l92 161h-117l-53 -140zM484 739l93 161h-118l-53 -140z" />
    <glyph glyph-name="Racute" unicode="&#x154;" horiz-adv-x="616" 
d="M88 0h112v265h82q35 0 55 3l148 -268h121l-169 296q53 24 85 70t32 109q0 102 -73 153.5t-190 51.5h-203v-680zM398 559q38 -27 38 -89q0 -59 -41 -86t-108 -27h-87v229h89q71 0 109 -27zM324 739l92 161h-117l-53 -140z" />
    <glyph glyph-name="Rcaron" unicode="&#x158;" horiz-adv-x="616" 
d="M88 0h112v265h82q35 0 55 3l148 -268h121l-169 296q53 24 85 70t32 109q0 102 -73 153.5t-190 51.5h-203v-680zM398 559q38 -27 38 -89q0 -59 -41 -86t-108 -27h-87v229h89q71 0 109 -27zM295 824l-71 76l-104 -13l140 -148h69l139 148l-102 13z" />
    <glyph glyph-name="Sacute" unicode="&#x15a;" horiz-adv-x="522" 
d="M139 4.5q63 -17.5 106 -17.5q79 0 135.5 23.5t85.5 65.5t29 96q0 50 -24.5 87.5t-63 64t-102.5 59.5q-61 31 -89.5 47.5t-46 38t-17.5 49.5q0 39 33 59t85 20q41 0 73.5 -10t70.5 -28l38 89q-42 21 -90.5 34.5t-95.5 13.5q-70 0 -121.5 -23.5t-79 -64t-27.5 -91.5
q0 -71 47.5 -118.5t141.5 -95.5q56 -28 85.5 -45t48.5 -38.5t19 -47.5q0 -41 -35 -63.5t-101 -22.5q-41 0 -88 14t-81 31l-25 -90q26 -19 89 -36.5zM297 739l92 161h-117l-53 -140z" />
    <glyph glyph-name="Scaron" unicode="&#x160;" horiz-adv-x="522" 
d="M139 4.5q63 -17.5 106 -17.5q79 0 135.5 23.5t85.5 65.5t29 96q0 50 -24.5 87.5t-63 64t-102.5 59.5q-61 31 -89.5 47.5t-46 38t-17.5 49.5q0 39 33 59t85 20q41 0 73.5 -10t70.5 -28l38 89q-42 21 -90.5 34.5t-95.5 13.5q-70 0 -121.5 -23.5t-79 -64t-27.5 -91.5
q0 -71 47.5 -118.5t141.5 -95.5q56 -28 85.5 -45t48.5 -38.5t19 -47.5q0 -41 -35 -63.5t-101 -22.5q-41 0 -88 14t-81 31l-25 -90q26 -19 89 -36.5zM268 824l-71 76l-104 -13l140 -148h69l139 148l-102 13z" />
    <glyph glyph-name="Tcaron" unicode="&#x164;" horiz-adv-x="581" 
d="M554 680h-544v-89h214v-591h114v591h233zM284 824l-71 76l-104 -13l140 -148h69l139 148l-102 13z" />
    <glyph glyph-name="Ugrave" unicode="&#xd9;" horiz-adv-x="700" 
d="M78 680v-435q0 -73 33.5 -131.5t95 -91.5t143.5 -33t143.5 33t95 91.5t33.5 131.5v435h-113v-426q0 -82 -43 -127.5t-116 -45.5t-116 45t-43 128v426h-113zM326 739l78 21l-52 140h-118z" />
    <glyph glyph-name="Uacute" unicode="&#xda;" horiz-adv-x="700" 
d="M78 680v-435q0 -73 33.5 -131.5t95 -91.5t143.5 -33t143.5 33t95 91.5t33.5 131.5v435h-113v-426q0 -82 -43 -127.5t-116 -45.5t-116 45t-43 128v426h-113zM381 739l92 161h-117l-53 -140z" />
    <glyph glyph-name="Ucircumflex" unicode="&#xdb;" horiz-adv-x="700" 
d="M78 680v-435q0 -73 33.5 -131.5t95 -91.5t143.5 -33t143.5 33t95 91.5t33.5 131.5v435h-113v-426q0 -82 -43 -127.5t-116 -45.5t-116 45t-43 128v426h-113zM348 815l70 -76l102 13l-140 148h-68l-140 -148l104 -13z" />
    <glyph glyph-name="Udieresis" unicode="&#xdc;" horiz-adv-x="700" 
d="M78 680v-435q0 -73 33.5 -131.5t95 -91.5t143.5 -33t143.5 33t95 91.5t33.5 131.5v435h-113v-426q0 -82 -43 -127.5t-116 -45.5t-116 45t-43 128v426h-113zM298.5 774q16.5 17 16.5 41q0 25 -16.5 42.5t-41.5 17.5t-42.5 -17.5t-17.5 -42.5q0 -24 17.5 -41t42.5 -17
t41.5 17zM481 774q17 17 17 41q0 25 -17 42.5t-42 17.5q-24 0 -42 -17.5t-18 -42.5q0 -24 18 -41t42 -17q25 0 42 17z" />
    <glyph glyph-name="Umacron" unicode="&#x16a;" horiz-adv-x="700" 
d="M78 680v-435q0 -73 33.5 -131.5t95 -91.5t143.5 -33t143.5 33t95 91.5t33.5 131.5v435h-113v-426q0 -82 -43 -127.5t-116 -45.5t-116 45t-43 128v426h-113zM216 770h256l-10 89h-246v-89z" />
    <glyph glyph-name="Uring" unicode="&#x16e;" horiz-adv-x="700" 
d="M78 680v-435q0 -73 33.5 -131.5t95 -91.5t143.5 -33t143.5 33t95 91.5t33.5 131.5v435h-113v-426q0 -82 -43 -127.5t-116 -45.5t-116 45t-43 128v426h-113zM276 906q-30 -28 -30 -69q0 -40 30 -66.5t72 -26.5t72 26.5t30 66.5q0 41 -30 69t-72 28t-72 -28zM319.5 809
q-12.5 12 -12.5 28q0 17 12 29t29 12t28.5 -12t11.5 -29q0 -16 -12 -28t-28 -12t-28.5 12z" />
    <glyph glyph-name="Uhungarumlaut" unicode="&#x170;" horiz-adv-x="700" 
d="M78 680v-435q0 -73 33.5 -131.5t95 -91.5t143.5 -33t143.5 33t95 91.5t33.5 131.5v435h-113v-426q0 -82 -43 -127.5t-116 -45.5t-116 45t-43 128v426h-113zM286 739l92 161h-117l-53 -140zM468 739l93 161h-118l-53 -140z" />
    <glyph glyph-name="Uogonek" unicode="&#x172;" horiz-adv-x="700" 
d="M622 680v-435q0 -66 -27.5 -120.5t-79 -89t-120.5 -43.5q-16 -18 -27.5 -41.5t-11.5 -39.5t9.5 -25.5t26.5 -9.5q9 0 21.5 5t23.5 13l33 -69q-41 -32 -96 -32q-50 0 -81.5 31t-31.5 77q0 20 10 46.5t24 45.5q-100 16 -158.5 84.5t-58.5 167.5v435h113v-426q0 -83 43 -128
t116 -45t116 45.5t43 127.5v426h113z" />
    <glyph glyph-name="Yacute" unicode="&#xdd;" horiz-adv-x="593" 
d="M346 0l1 266l236 414h-119l-175 -299l-169 315l-110 -36l224 -392v-268h112zM320 739l92 161h-117l-53 -140z" />
    <glyph glyph-name="Ydieresis" unicode="&#x178;" horiz-adv-x="593" 
d="M346 0l1 266l236 414h-119l-175 -299l-169 315l-110 -36l224 -392v-268h112zM237.5 774q16.5 17 16.5 41q0 25 -16.5 42.5t-41.5 17.5t-42.5 -17.5t-17.5 -42.5q0 -24 17.5 -41t42.5 -17t41.5 17zM420 774q17 17 17 41q0 25 -17 42.5t-42 17.5q-24 0 -42 -17.5t-18 -42.5
q0 -24 18 -41t42 -17q25 0 42 17z" />
    <glyph glyph-name="Zacute" unicode="&#x179;" horiz-adv-x="570" 
d="M539 88h-399l409 503l-13 89h-490l14 -89h359l-401 -503l13 -88h520zM326 739l92 161h-117l-53 -140z" />
    <glyph glyph-name="Zdotaccent" unicode="&#x17b;" horiz-adv-x="570" 
d="M539 88h-399l409 503l-13 89h-490l14 -89h359l-401 -503l13 -88h520zM341 769.5q19 19.5 19 46.5q0 28 -19 48t-47 20t-47.5 -20t-19.5 -48q0 -27 19.5 -46.5t47.5 -19.5t47 19.5z" />
    <glyph glyph-name="Zcaron" unicode="&#x17d;" horiz-adv-x="570" 
d="M539 88h-399l409 503l-13 89h-490l14 -89h359l-401 -503l13 -88h520zM297 824l-71 76l-104 -13l140 -148h69l139 148l-102 13z" />
    <glyph glyph-name="Scedilla" unicode="&#x15e;" horiz-adv-x="522" 
d="M439 46q-56 -50 -157 -58l-10 -24q31 -10 52 -34.5t21 -51.5q0 -48 -36 -73.5t-87 -25.5q-20 0 -47.5 7t-41.5 18l26 68q14 -7 32.5 -13t30.5 -6q16 0 28.5 6t12.5 17q0 18 -25 30.5t-64 16.5l27 68q-42 6 -86.5 20.5t-64.5 29.5l25 90q34 -17 81 -31t88 -14
q66 0 101 22.5t35 63.5q0 26 -19 47.5t-48.5 38.5t-85.5 45q-94 48 -141.5 95.5t-47.5 118.5q0 51 27.5 91.5t79 64t121.5 23.5q47 0 95.5 -13.5t90.5 -34.5l-38 -89q-38 18 -70.5 28t-73.5 10q-52 0 -85 -20t-33 -59q0 -28 17.5 -49.5t46 -38t89.5 -47.5
q64 -33 102.5 -59.5t63 -64t24.5 -87.5q0 -76 -56 -126z" />
    <glyph glyph-name="Tcedilla" unicode="&#x162;" horiz-adv-x="581" 
d="M362 -70.5q21 -24.5 21 -51.5q0 -48 -36 -73.5t-87 -25.5q-20 0 -47.5 7t-41.5 18l26 68q14 -7 32.5 -13t30.5 -6q16 0 28.5 6t12.5 17q0 18 -25 30.5t-64 16.5l31 77h-19v591h-214v89h544l17 -89h-233v-591h-13l-15 -36q31 -10 52 -34.5z" />
    <glyph glyph-name="Scommaaccent" unicode="&#x218;" horiz-adv-x="522" 
d="M139 4.5q63 -17.5 106 -17.5q79 0 135.5 23.5t85.5 65.5t29 96q0 50 -24.5 87.5t-63 64t-102.5 59.5q-61 31 -89.5 47.5t-46 38t-17.5 49.5q0 39 33 59t85 20q41 0 73.5 -10t70.5 -28l38 89q-42 21 -90.5 34.5t-95.5 13.5q-70 0 -121.5 -23.5t-79 -64t-27.5 -91.5
q0 -71 47.5 -118.5t141.5 -95.5q56 -28 85.5 -45t48.5 -38.5t19 -47.5q0 -41 -35 -63.5t-101 -22.5q-41 0 -88 14t-81 31l-25 -90q26 -19 89 -36.5zM201 -42q-20 -21 -20 -46q0 -24 17 -45t35 -21q-5 -21 -20 -37.5t-33 -24.5l25 -53q47 22 78.5 68.5t31.5 98.5
q0 36 -19.5 58.5t-47.5 22.5q-27 0 -47 -21z" />
    <glyph glyph-name="agrave" unicode="&#xe0;" horiz-adv-x="498" 
d="M243 396q86 0 88 -101h-106q-81 0 -130.5 -40t-49.5 -113q0 -70 43.5 -112t127.5 -42q36 0 72 17t64 44l17 -49h75v324q0 49 -27 88.5t-73.5 62.5t-102.5 23q-34 0 -88.5 -13t-80.5 -30l31 -92q74 33 140 33zM164.5 197.5q21.5 22.5 58.5 22.5h109v-87q-25 -26 -56 -41
t-62 -15q-33 0 -52 19.5t-19 45.5q0 33 21.5 55.5zM232 589l78 21l-52 140h-118z" />
    <glyph glyph-name="aacute" unicode="&#xe1;" horiz-adv-x="498" 
d="M243 396q86 0 88 -101h-106q-81 0 -130.5 -40t-49.5 -113q0 -70 43.5 -112t127.5 -42q36 0 72 17t64 44l17 -49h75v324q0 49 -27 88.5t-73.5 62.5t-102.5 23q-34 0 -88.5 -13t-80.5 -30l31 -92q74 33 140 33zM164.5 197.5q21.5 22.5 58.5 22.5h109v-87q-25 -26 -56 -41
t-62 -15q-33 0 -52 19.5t-19 45.5q0 33 21.5 55.5zM253 589l92 161h-117l-53 -140z" />
    <glyph glyph-name="acircumflex" unicode="&#xe2;" horiz-adv-x="498" 
d="M243 396q86 0 88 -101h-106q-81 0 -130.5 -40t-49.5 -113q0 -70 43.5 -112t127.5 -42q36 0 72 17t64 44l17 -49h75v324q0 49 -27 88.5t-73.5 62.5t-102.5 23q-34 0 -88.5 -13t-80.5 -30l31 -92q74 33 140 33zM164.5 197.5q21.5 22.5 58.5 22.5h109v-87q-25 -26 -56 -41
t-62 -15q-33 0 -52 19.5t-19 45.5q0 33 21.5 55.5zM244 665l70 -76l102 13l-140 148h-68l-140 -148l104 -13z" />
    <glyph glyph-name="atilde" unicode="&#xe3;" horiz-adv-x="498" 
d="M243 396q86 0 88 -101h-106q-81 0 -130.5 -40t-49.5 -113q0 -70 43.5 -112t127.5 -42q36 0 72 17t64 44l17 -49h75v324q0 49 -27 88.5t-73.5 62.5t-102.5 23q-34 0 -88.5 -13t-80.5 -30l31 -92q74 33 140 33zM164.5 197.5q21.5 22.5 58.5 22.5h109v-87q-25 -26 -56 -41
t-62 -15q-33 0 -52 19.5t-19 45.5q0 33 21.5 55.5zM321.5 687q-8.5 -10 -20.5 -10q-15 0 -26 4.5t-25 13.5q-15 10 -28 15t-33 5q-44 0 -72.5 -26.5t-28.5 -85.5h75q1 13 10.5 23.5t20.5 10.5q15 0 24.5 -4.5t24.5 -13.5q14 -10 27 -15.5t32 -5.5q44 0 72.5 27t28.5 86h-72
q-1 -14 -9.5 -24z" />
    <glyph glyph-name="adieresis" unicode="&#xe4;" horiz-adv-x="498" 
d="M243 396q86 0 88 -101h-106q-81 0 -130.5 -40t-49.5 -113q0 -70 43.5 -112t127.5 -42q36 0 72 17t64 44l17 -49h75v324q0 49 -27 88.5t-73.5 62.5t-102.5 23q-34 0 -88.5 -13t-80.5 -30l31 -92q74 33 140 33zM164.5 197.5q21.5 22.5 58.5 22.5h109v-87q-25 -26 -56 -41
t-62 -15q-33 0 -52 19.5t-19 45.5q0 33 21.5 55.5zM186.5 624q16.5 17 16.5 41q0 25 -16.5 42.5t-41.5 17.5t-42.5 -17.5t-17.5 -42.5q0 -24 17.5 -41t42.5 -17t41.5 17zM369 624q17 17 17 41q0 25 -17 42.5t-42 17.5q-24 0 -42 -17.5t-18 -42.5q0 -24 18 -41t42 -17
q25 0 42 17z" />
    <glyph glyph-name="aring" unicode="&#xe5;" horiz-adv-x="498" 
d="M243 396q86 0 88 -101h-106q-81 0 -130.5 -40t-49.5 -113q0 -70 43.5 -112t127.5 -42q36 0 72 17t64 44l17 -49h75v324q0 49 -27 88.5t-73.5 62.5t-102.5 23q-34 0 -88.5 -13t-80.5 -30l31 -92q74 33 140 33zM164.5 197.5q21.5 22.5 58.5 22.5h109v-87q-25 -26 -56 -41
t-62 -15q-33 0 -52 19.5t-19 45.5q0 33 21.5 55.5zM170 756q-30 -28 -30 -69q0 -40 30 -66.5t72 -26.5t72 26.5t30 66.5q0 41 -30 69t-72 28t-72 -28zM213.5 659q-12.5 12 -12.5 28q0 17 12 29t29 12t28.5 -12t11.5 -29q0 -16 -12 -28t-28 -12t-28.5 12z" />
    <glyph glyph-name="amacron" unicode="&#x101;" horiz-adv-x="498" 
d="M243 396q86 0 88 -101h-106q-81 0 -130.5 -40t-49.5 -113q0 -70 43.5 -112t127.5 -42q36 0 72 17t64 44l17 -49h75v324q0 49 -27 88.5t-73.5 62.5t-102.5 23q-34 0 -88.5 -13t-80.5 -30l31 -92q74 33 140 33zM164.5 197.5q21.5 22.5 58.5 22.5h109v-87q-25 -26 -56 -41
t-62 -15q-33 0 -52 19.5t-19 45.5q0 33 21.5 55.5zM113 620h256l-9 89h-247v-89z" />
    <glyph glyph-name="abreve" unicode="&#x103;" horiz-adv-x="498" 
d="M243 396q86 0 88 -101h-106q-81 0 -130.5 -40t-49.5 -113q0 -70 43.5 -112t127.5 -42q36 0 72 17t64 44l17 -49h75v324q0 49 -27 88.5t-73.5 62.5t-102.5 23q-34 0 -88.5 -13t-80.5 -30l31 -92q74 33 140 33zM164.5 197.5q21.5 22.5 58.5 22.5h109v-87q-25 -26 -56 -41
t-62 -15q-33 0 -52 19.5t-19 45.5q0 33 21.5 55.5zM295.5 695.5q-17.5 -22.5 -49.5 -22.5t-48 22t-16 52h-78q0 -65 36.5 -109.5t105.5 -45.5q70 1 106.5 45.5t36.5 109.5h-76q0 -29 -17.5 -51.5z" />
    <glyph glyph-name="aogonek" unicode="&#x105;" horiz-adv-x="498" 
d="M507 -180q-39 -31 -96 -31q-50 0 -81.5 31t-31.5 77q0 56 61 132l-7 20q-28 -27 -64 -44t-72 -17q-84 0 -127.5 42t-43.5 112q0 73 49.5 113t130.5 40h106q-2 101 -88 101q-66 0 -140 -33l-31 92q26 17 80.5 30t88.5 13q56 0 102.5 -23t73.5 -62.5t27 -88.5v-324
q-18 -15 -34.5 -44t-16.5 -50q0 -16 9.5 -25t26.5 -9q10 0 22 4.5t23 13.5zM332 220h-109q-37 0 -58.5 -22.5t-21.5 -55.5q0 -26 19 -45.5t52 -19.5q31 0 62 15t56 41v87z" />
    <glyph glyph-name="ccedilla" unicode="&#xe7;" horiz-adv-x="468" 
d="M381.5 6q-37.5 -12 -74.5 -17l-10 -25q31 -10 52 -34.5t21 -51.5q0 -48 -36 -73.5t-87 -25.5q-20 0 -47.5 7t-41.5 18l26 68q14 -7 32.5 -13t30.5 -6q16 0 28.5 6t12.5 17q0 18 -25 30.5t-64 16.5l27 68q-92 15 -145 82.5t-53 169.5q0 76 30.5 133.5t87.5 89.5t133 32
q34 0 84 -13.5t81 -35.5l-32 -80q-39 17 -68.5 25t-64.5 8q-60 0 -97.5 -45t-38.5 -114q0 -71 36.5 -115t97.5 -44q37 0 67 8t66 25l33 -82q-24 -17 -61.5 -29z" />
    <glyph glyph-name="cacute" unicode="&#x107;" horiz-adv-x="468" 
d="M344 92q-30 -8 -67 -8q-61 0 -97.5 44t-36.5 115q1 69 38.5 114t97.5 45q35 0 64.5 -8t68.5 -25l32 80q-31 22 -81 35.5t-84 13.5q-76 0 -133 -32t-87.5 -89.5t-30.5 -133.5q0 -77 30.5 -134.5t86.5 -89.5t132 -32q35 0 85 13t81 35l-33 82q-36 -17 -66 -25zM259 589
l92 161h-117l-53 -140z" />
    <glyph glyph-name="ccaron" unicode="&#x10d;" horiz-adv-x="468" 
d="M344 92q-30 -8 -67 -8q-61 0 -97.5 44t-36.5 115q1 69 38.5 114t97.5 45q35 0 64.5 -8t68.5 -25l32 80q-31 22 -81 35.5t-84 13.5q-76 0 -133 -32t-87.5 -89.5t-30.5 -133.5q0 -77 30.5 -134.5t86.5 -89.5t132 -32q35 0 85 13t81 35l-33 82q-36 -17 -66 -25zM255 674
l-71 76l-104 -13l140 -148h69l139 148l-102 13z" />
    <glyph glyph-name="dcaron" unicode="&#x10f;" horiz-adv-x="736" 
d="M685.5 709q20.5 -23 20.5 -58q0 -53 -35 -109.5t-87 -84.5l-26 53q30 25 44.5 43t19.5 46q-18 1 -35 21.5t-17 43.5q0 25 20 46.5t47 21.5q28 0 48.5 -23zM377 695l113 10v-705h-61l-24 40q-31 -25 -66.5 -39t-68.5 -14q-74 0 -128.5 32t-84 90t-29.5 135
q0 76 29.5 133.5t85 89t129.5 31.5q23 0 51 -8.5t54 -24.5v230zM177.5 128q34.5 -44 94.5 -44q30 0 55 9.5t50 30.5v238q-24 21 -49 30.5t-56 9.5q-60 0 -94.5 -44t-34.5 -113q0 -73 34.5 -117z" />
    <glyph glyph-name="egrave" unicode="&#xe8;" horiz-adv-x="509" 
d="M482 246q0 110 -55 181t-162 71q-73 0 -126.5 -32t-82 -89.5t-28.5 -133.5q0 -118 69.5 -186.5t201.5 -68.5q98 0 179 56l-34 82q-43 -22 -73.5 -32.5t-69.5 -10.5q-140 0 -155 130h336v33zM184.5 372q29.5 30 77.5 30q47 0 75 -29t37 -85h-226q7 54 36.5 84zM249 589
l78 21l-52 140h-118z" />
    <glyph glyph-name="eacute" unicode="&#xe9;" horiz-adv-x="509" 
d="M482 246q0 110 -55 181t-162 71q-73 0 -126.5 -32t-82 -89.5t-28.5 -133.5q0 -118 69.5 -186.5t201.5 -68.5q98 0 179 56l-34 82q-43 -22 -73.5 -32.5t-69.5 -10.5q-140 0 -155 130h336v33zM184.5 372q29.5 30 77.5 30q47 0 75 -29t37 -85h-226q7 54 36.5 84zM270 589
l92 161h-117l-53 -140z" />
    <glyph glyph-name="ecircumflex" unicode="&#xea;" horiz-adv-x="509" 
d="M482 246q0 110 -55 181t-162 71q-73 0 -126.5 -32t-82 -89.5t-28.5 -133.5q0 -118 69.5 -186.5t201.5 -68.5q98 0 179 56l-34 82q-43 -22 -73.5 -32.5t-69.5 -10.5q-140 0 -155 130h336v33zM184.5 372q29.5 30 77.5 30q47 0 75 -29t37 -85h-226q7 54 36.5 84zM261 665
l70 -76l102 13l-140 148h-68l-140 -148l104 -13z" />
    <glyph glyph-name="edieresis" unicode="&#xeb;" horiz-adv-x="509" 
d="M482 246q0 110 -55 181t-162 71q-73 0 -126.5 -32t-82 -89.5t-28.5 -133.5q0 -118 69.5 -186.5t201.5 -68.5q98 0 179 56l-34 82q-43 -22 -73.5 -32.5t-69.5 -10.5q-140 0 -155 130h336v33zM184.5 372q29.5 30 77.5 30q47 0 75 -29t37 -85h-226q7 54 36.5 84zM203.5 624
q16.5 17 16.5 41q0 25 -16.5 42.5t-41.5 17.5t-42.5 -17.5t-17.5 -42.5q0 -24 17.5 -41t42.5 -17t41.5 17zM386 624q17 17 17 41q0 25 -17 42.5t-42 17.5q-24 0 -42 -17.5t-18 -42.5q0 -24 18 -41t42 -17q25 0 42 17z" />
    <glyph glyph-name="emacron" unicode="&#x113;" horiz-adv-x="509" 
d="M482 246q0 110 -55 181t-162 71q-73 0 -126.5 -32t-82 -89.5t-28.5 -133.5q0 -118 69.5 -186.5t201.5 -68.5q98 0 179 56l-34 82q-43 -22 -73.5 -32.5t-69.5 -10.5q-140 0 -155 130h336v33zM184.5 372q29.5 30 77.5 30q47 0 75 -29t37 -85h-226q7 54 36.5 84zM130 620
h256l-9 89h-247v-89z" />
    <glyph glyph-name="edotaccent" unicode="&#x117;" horiz-adv-x="509" 
d="M482 246q0 110 -55 181t-162 71q-73 0 -126.5 -32t-82 -89.5t-28.5 -133.5q0 -118 69.5 -186.5t201.5 -68.5q98 0 179 56l-34 82q-43 -22 -73.5 -32.5t-69.5 -10.5q-140 0 -155 130h336v33zM184.5 372q29.5 30 77.5 30q47 0 75 -29t37 -85h-226q7 54 36.5 84zM309 619.5
q19 19.5 19 46.5q0 28 -19 48t-47 20t-47.5 -20t-19.5 -48q0 -27 19.5 -46.5t47.5 -19.5t47 19.5z" />
    <glyph glyph-name="eogonek" unicode="&#x119;" horiz-adv-x="509" 
d="M482 213h-336q15 -130 155 -130q39 0 69.5 10.5t73.5 32.5l34 -82q-39 -27 -81 -41q-18 -16 -34 -44t-16 -48q0 -16 9.5 -25.5t26.5 -9.5q9 0 21.5 5t23.5 13l33 -69q-41 -32 -96 -32q-50 0 -81.5 31t-31.5 77q0 19 9 43.5t22 43.5q-124 4 -189.5 72.5t-65.5 182.5
q0 76 28.5 133.5t82 89.5t126.5 32q107 0 162 -71t55 -181v-33zM374 288q-9 56 -37 85t-75 29q-48 0 -77.5 -30t-36.5 -84h226z" />
    <glyph glyph-name="ecaron" unicode="&#x11b;" horiz-adv-x="509" 
d="M482 246q0 110 -55 181t-162 71q-73 0 -126.5 -32t-82 -89.5t-28.5 -133.5q0 -118 69.5 -186.5t201.5 -68.5q98 0 179 56l-34 82q-43 -22 -73.5 -32.5t-69.5 -10.5q-140 0 -155 130h336v33zM184.5 372q29.5 30 77.5 30q47 0 75 -29t37 -85h-226q7 54 36.5 84zM266 674
l-71 76l-104 -13l140 -148h69l139 148l-102 13z" />
    <glyph glyph-name="gbreve" unicode="&#x11f;" horiz-adv-x="554" 
d="M490 485v-518q0 -91 -65.5 -144t-179.5 -53q-36 0 -93.5 14t-90.5 37l34 81q45 -21 77.5 -31t69.5 -10q60 0 97.5 28.5t37.5 78.5v52q-26 -16 -54 -24.5t-53 -8.5q-74 0 -128.5 32t-84 90t-29.5 135q0 76 29.5 133.5t85 89t129.5 31.5q30 0 67 -14t66 -38l24 39h61z
M327 93.5q25 9.5 50 30.5v238q-24 21 -49 30.5t-56 9.5q-60 0 -94.5 -44t-34.5 -113q0 -73 34.5 -117t94.5 -44q30 0 55 9.5zM308.5 695.5q-17.5 -22.5 -49.5 -22.5t-48 22t-16 52h-78q0 -65 36.5 -109.5t105.5 -45.5q70 1 106.5 45.5t36.5 109.5h-76q0 -29 -17.5 -51.5z
" />
    <glyph glyph-name="igrave" unicode="&#xec;" horiz-adv-x="228" 
d="M171 0v485h-113v-485h113zM99 589l78 21l-52 140h-118z" />
    <glyph glyph-name="iacute" unicode="&#xed;" horiz-adv-x="228" 
d="M171 0v485h-113v-485h113zM120 589l92 161h-117l-53 -140z" />
    <glyph glyph-name="icircumflex" unicode="&#xee;" horiz-adv-x="228" 
d="M171 0v485h-113v-485h113zM111 665l70 -76l102 13l-140 148h-68l-140 -148l104 -13z" />
    <glyph glyph-name="idieresis" unicode="&#xef;" horiz-adv-x="228" 
d="M171 0v485h-113v-485h113zM53.5 624q16.5 17 16.5 41q0 25 -16.5 42.5t-41.5 17.5t-42.5 -17.5t-17.5 -42.5q0 -24 17.5 -41t42.5 -17t41.5 17zM236 624q17 17 17 41q0 25 -17 42.5t-42 17.5q-24 0 -42 -17.5t-18 -42.5q0 -24 18 -41t42 -17q25 0 42 17z" />
    <glyph glyph-name="imacron" unicode="&#x12b;" horiz-adv-x="228" 
d="M171 0v485h-113v-485h113zM-20 620h256l-9 89h-247v-89z" />
    <glyph glyph-name="iogonek" unicode="&#x12f;" horiz-adv-x="228" 
d="M64.5 619.5q-19.5 19.5 -19.5 46.5q0 28 19.5 48t47.5 20t47 -20t19 -48q0 -27 -19 -46.5t-47 -19.5t-47.5 19.5zM234 -180q-41 -31 -97 -31q-50 0 -82.5 31t-32.5 77q0 25 10 54t26 49v485h113v-485q-19 -15 -35.5 -44t-16.5 -50q0 -16 10 -25t27 -9q9 0 21 4.5t23 13.5
z" />
    <glyph glyph-name="lcaron" unicode="&#x13e;" horiz-adv-x="424" 
d="M279 710.5q-20 -21.5 -20 -46.5q0 -24 17 -44t35 -21q-5 -28 -19.5 -46t-44.5 -43l25 -53q52 28 87 84t35 110q0 35 -20.5 58t-48.5 23q-26 0 -46 -21.5zM180 0v706l-112 -11v-695h112z" />
    <glyph glyph-name="ntilde" unicode="&#xf1;" horiz-adv-x="553" 
d="M170 339q81 67 142 67q75 0 75 -101v-305h113v312q0 88 -38 138.5t-123 50.5q-44 0 -94 -20t-92 -54l-20 58h-75v-485h112v339zM362.5 687q-8.5 -10 -20.5 -10q-15 0 -26 4.5t-25 13.5q-15 10 -28 15t-33 5q-44 0 -72.5 -26.5t-28.5 -85.5h75q1 13 10.5 23.5t20.5 10.5
q15 0 24.5 -4.5t24.5 -13.5q14 -10 27 -15.5t32 -5.5q44 0 72.5 27t28.5 86h-72q-1 -14 -9.5 -24z" />
    <glyph glyph-name="nacute" unicode="&#x144;" horiz-adv-x="553" 
d="M170 339q81 67 142 67q75 0 75 -101v-305h113v312q0 88 -38 138.5t-123 50.5q-44 0 -94 -20t-92 -54l-20 58h-75v-485h112v339zM294 589l92 161h-117l-53 -140z" />
    <glyph glyph-name="ncaron" unicode="&#x148;" horiz-adv-x="553" 
d="M170 339q81 67 142 67q75 0 75 -101v-305h113v312q0 88 -38 138.5t-123 50.5q-44 0 -94 -20t-92 -54l-20 58h-75v-485h112v339zM290 674l-71 76l-104 -13l140 -148h69l139 148l-102 13z" />
    <glyph glyph-name="ograve" unicode="&#xf2;" horiz-adv-x="556" 
d="M498 109q-31 -58 -88 -90t-133 -32t-132 32t-86.5 89.5t-30.5 134.5q0 76 30.5 133.5t87.5 89.5t133 32t132.5 -31.5t87 -89.5t30.5 -134t-31 -134zM375.5 129q37.5 45 37.5 113q0 71 -36.5 115.5t-97.5 44.5q-60 0 -97.5 -45t-38.5 -114q0 -71 36.5 -115t97.5 -44
t98.5 45zM263 589l78 21l-52 140h-118z" />
    <glyph glyph-name="oacute" unicode="&#xf3;" horiz-adv-x="556" 
d="M498 109q-31 -58 -88 -90t-133 -32t-132 32t-86.5 89.5t-30.5 134.5q0 76 30.5 133.5t87.5 89.5t133 32t132.5 -31.5t87 -89.5t30.5 -134t-31 -134zM375.5 129q37.5 45 37.5 113q0 71 -36.5 115.5t-97.5 44.5q-60 0 -97.5 -45t-38.5 -114q0 -71 36.5 -115t97.5 -44
t98.5 45zM284 589l92 161h-117l-53 -140z" />
    <glyph glyph-name="ocircumflex" unicode="&#xf4;" horiz-adv-x="556" 
d="M498 109q-31 -58 -88 -90t-133 -32t-132 32t-86.5 89.5t-30.5 134.5q0 76 30.5 133.5t87.5 89.5t133 32t132.5 -31.5t87 -89.5t30.5 -134t-31 -134zM375.5 129q37.5 45 37.5 113q0 71 -36.5 115.5t-97.5 44.5q-60 0 -97.5 -45t-38.5 -114q0 -71 36.5 -115t97.5 -44
t98.5 45zM275 665l70 -76l102 13l-140 148h-68l-140 -148l104 -13z" />
    <glyph glyph-name="otilde" unicode="&#xf5;" horiz-adv-x="556" 
d="M498 109q-31 -58 -88 -90t-133 -32t-132 32t-86.5 89.5t-30.5 134.5q0 76 30.5 133.5t87.5 89.5t133 32t132.5 -31.5t87 -89.5t30.5 -134t-31 -134zM375.5 129q37.5 45 37.5 113q0 71 -36.5 115.5t-97.5 44.5q-60 0 -97.5 -45t-38.5 -114q0 -71 36.5 -115t97.5 -44
t98.5 45zM352.5 687q-8.5 -10 -20.5 -10q-15 0 -26 4.5t-25 13.5q-15 10 -28 15t-33 5q-44 0 -72.5 -26.5t-28.5 -85.5h75q1 13 10.5 23.5t20.5 10.5q15 0 24.5 -4.5t24.5 -13.5q14 -10 27 -15.5t32 -5.5q44 0 72.5 27t28.5 86h-72q-1 -14 -9.5 -24z" />
    <glyph glyph-name="odieresis" unicode="&#xf6;" horiz-adv-x="556" 
d="M498 109q-31 -58 -88 -90t-133 -32t-132 32t-86.5 89.5t-30.5 134.5q0 76 30.5 133.5t87.5 89.5t133 32t132.5 -31.5t87 -89.5t30.5 -134t-31 -134zM375.5 129q37.5 45 37.5 113q0 71 -36.5 115.5t-97.5 44.5q-60 0 -97.5 -45t-38.5 -114q0 -71 36.5 -115t97.5 -44
t98.5 45zM217.5 624q16.5 17 16.5 41q0 25 -16.5 42.5t-41.5 17.5t-42.5 -17.5t-17.5 -42.5q0 -24 17.5 -41t42.5 -17t41.5 17zM400 624q17 17 17 41q0 25 -17 42.5t-42 17.5q-24 0 -42 -17.5t-18 -42.5q0 -24 18 -41t42 -17q25 0 42 17z" />
    <glyph glyph-name="omacron" unicode="&#x14d;" horiz-adv-x="556" 
d="M498 109q-31 -58 -88 -90t-133 -32t-132 32t-86.5 89.5t-30.5 134.5q0 76 30.5 133.5t87.5 89.5t133 32t132.5 -31.5t87 -89.5t30.5 -134t-31 -134zM375.5 129q37.5 45 37.5 113q0 71 -36.5 115.5t-97.5 44.5q-60 0 -97.5 -45t-38.5 -114q0 -71 36.5 -115t97.5 -44
t98.5 45zM144 620h256l-9 89h-247v-89z" />
    <glyph glyph-name="ohungarumlaut" unicode="&#x151;" horiz-adv-x="556" 
d="M498 109q-31 -58 -88 -90t-133 -32t-132 32t-86.5 89.5t-30.5 134.5q0 76 30.5 133.5t87.5 89.5t133 32t132.5 -31.5t87 -89.5t30.5 -134t-31 -134zM375.5 129q37.5 45 37.5 113q0 71 -36.5 115.5t-97.5 44.5q-60 0 -97.5 -45t-38.5 -114q0 -71 36.5 -115t97.5 -44
t98.5 45zM216 589l92 161h-117l-53 -140zM398 589l93 161h-118l-53 -140z" />
    <glyph glyph-name="racute" unicode="&#x155;" horiz-adv-x="352" 
d="M170 309q40 36 88 61t84 25l-23 90q-35 0 -81.5 -25t-82.5 -55l-37 80h-60v-485h112v309zM191 589l92 161h-117l-53 -140z" />
    <glyph glyph-name="rcaron" unicode="&#x159;" horiz-adv-x="352" 
d="M170 309q40 36 88 61t84 25l-23 90q-35 0 -81.5 -25t-82.5 -55l-37 80h-60v-485h112v309zM187 674l-71 76l-104 -13l140 -148h69l139 148l-102 13z" />
    <glyph glyph-name="sacute" unicode="&#x15b;" horiz-adv-x="421" 
d="M109.5 -0.5q48.5 -12.5 84.5 -12.5q97 0 148.5 39t51.5 110q0 101 -165 160q-41 14 -64 28t-24 31q0 22 21 37t52 15q34 0 63.5 -8.5t64.5 -24.5l35 76q-32 22 -79.5 35t-81.5 13q-86 0 -136 -38.5t-50 -105.5q0 -96 160 -148q96 -31 96 -75q0 -24 -27 -38t-65 -14
q-60 0 -129 33l-34 -78q30 -22 78.5 -34.5zM221 589l92 161h-117l-53 -140z" />
    <glyph glyph-name="scaron" unicode="&#x161;" horiz-adv-x="421" 
d="M109.5 -0.5q48.5 -12.5 84.5 -12.5q97 0 148.5 39t51.5 110q0 101 -165 160q-41 14 -64 28t-24 31q0 22 21 37t52 15q34 0 63.5 -8.5t64.5 -24.5l35 76q-32 22 -79.5 35t-81.5 13q-86 0 -136 -38.5t-50 -105.5q0 -96 160 -148q96 -31 96 -75q0 -24 -27 -38t-65 -14
q-60 0 -129 33l-34 -78q30 -22 78.5 -34.5zM217 674l-71 76l-104 -13l140 -148h69l139 148l-102 13z" />
    <glyph glyph-name="tcaron" unicode="&#x165;" horiz-adv-x="510" 
d="M365 710.5q-20 -21.5 -20 -46.5q0 -23 17 -43.5t35 -21.5q-5 -28 -19.5 -46t-44.5 -43l26 -53q51 28 86 84t35 110q0 35 -20 58t-48 23q-27 0 -47 -21.5zM192 481v141l-112 -22v-119h-67v-86h67v-250q0 -79 46 -121t127 -42q22 0 48.5 7.5t41.5 17.5l-31 83
q-27 -12 -50 -12q-35 0 -52.5 23.5t-17.5 62.5v231h122l-34 86h-88z" />
    <glyph glyph-name="ugrave" unicode="&#xf9;" horiz-adv-x="553" 
d="M383 146q-81 -67 -142 -67q-75 0 -75 101v305h-112v-312q0 -189 160 -189q44 0 94 20t92 54l20 -58h76v485h-113v-339zM262 589l78 21l-52 140h-118z" />
    <glyph glyph-name="uacute" unicode="&#xfa;" horiz-adv-x="553" 
d="M383 146q-81 -67 -142 -67q-75 0 -75 101v305h-112v-312q0 -189 160 -189q44 0 94 20t92 54l20 -58h76v485h-113v-339zM283 589l92 161h-117l-53 -140z" />
    <glyph glyph-name="ucircumflex" unicode="&#xfb;" horiz-adv-x="553" 
d="M383 146q-81 -67 -142 -67q-75 0 -75 101v305h-112v-312q0 -189 160 -189q44 0 94 20t92 54l20 -58h76v485h-113v-339zM274 665l70 -76l102 13l-140 148h-68l-140 -148l104 -13z" />
    <glyph glyph-name="udieresis" unicode="&#xfc;" horiz-adv-x="553" 
d="M383 146q-81 -67 -142 -67q-75 0 -75 101v305h-112v-312q0 -189 160 -189q44 0 94 20t92 54l20 -58h76v485h-113v-339zM216.5 624q16.5 17 16.5 41q0 25 -16.5 42.5t-41.5 17.5t-42.5 -17.5t-17.5 -42.5q0 -24 17.5 -41t42.5 -17t41.5 17zM399 624q17 17 17 41
q0 25 -17 42.5t-42 17.5q-24 0 -42 -17.5t-18 -42.5q0 -24 18 -41t42 -17q25 0 42 17z" />
    <glyph glyph-name="umacron" unicode="&#x16b;" horiz-adv-x="553" 
d="M383 146q-81 -67 -142 -67q-75 0 -75 101v305h-112v-312q0 -189 160 -189q44 0 94 20t92 54l20 -58h76v485h-113v-339zM143 620h256l-9 89h-247v-89z" />
    <glyph glyph-name="uring" unicode="&#x16f;" horiz-adv-x="553" 
d="M383 146q-81 -67 -142 -67q-75 0 -75 101v305h-112v-312q0 -189 160 -189q44 0 94 20t92 54l20 -58h76v485h-113v-339zM200 756q-30 -28 -30 -69q0 -40 30 -66.5t72 -26.5t72 26.5t30 66.5q0 41 -30 69t-72 28t-72 -28zM243.5 659q-12.5 12 -12.5 28q0 17 12 29t29 12
t28.5 -12t11.5 -29q0 -16 -12 -28t-28 -12t-28.5 12z" />
    <glyph glyph-name="uhungarumlaut" unicode="&#x171;" horiz-adv-x="553" 
d="M383 146q-81 -67 -142 -67q-75 0 -75 101v305h-112v-312q0 -189 160 -189q44 0 94 20t92 54l20 -58h76v485h-113v-339zM215 589l92 161h-117l-53 -140zM397 589l93 161h-118l-53 -140z" />
    <glyph glyph-name="uogonek" unicode="&#x173;" horiz-adv-x="553" 
d="M558 -180q-39 -31 -96 -31q-50 0 -81.5 31t-31.5 77q0 56 61 132l-10 29q-42 -34 -92 -54t-94 -20q-160 0 -160 189v312h112v-305q0 -101 75 -101q61 0 142 67v339h113v-485q-19 -15 -35.5 -44t-16.5 -50q0 -16 9.5 -25t26.5 -9q10 0 22 4.5t23 13.5z" />
    <glyph glyph-name="yacute" unicode="&#xfd;" horiz-adv-x="488" 
d="M116.5 -91.5q-29.5 -18.5 -78.5 -39.5l39 -90q62 14 113.5 53t71.5 92l216 561h-118l-117 -322l-124 340l-109 -36l172 -444l-25 -66q-11 -30 -40.5 -48.5zM244 589l92 161h-117l-53 -140z" />
    <glyph glyph-name="ydieresis" unicode="&#xff;" horiz-adv-x="488" 
d="M116.5 -91.5q-29.5 -18.5 -78.5 -39.5l39 -90q62 14 113.5 53t71.5 92l216 561h-118l-117 -322l-124 340l-109 -36l172 -444l-25 -66q-11 -30 -40.5 -48.5zM177.5 624q16.5 17 16.5 41q0 25 -16.5 42.5t-41.5 17.5t-42.5 -17.5t-17.5 -42.5q0 -24 17.5 -41t42.5 -17
t41.5 17zM360 624q17 17 17 41q0 25 -17 42.5t-42 17.5q-24 0 -42 -17.5t-18 -42.5q0 -24 18 -41t42 -17q25 0 42 17z" />
    <glyph glyph-name="zacute" unicode="&#x17a;" horiz-adv-x="438" 
d="M411 485h-379l23 -92h218l-257 -334l14 -59h393l-10 90h-257l261 332zM225 589l92 161h-117l-53 -140z" />
    <glyph glyph-name="zdotaccent" unicode="&#x17c;" horiz-adv-x="438" 
d="M411 485h-379l23 -92h218l-257 -334l14 -59h393l-10 90h-257l261 332zM264 619.5q19 19.5 19 46.5q0 28 -19 48t-47 20t-47.5 -20t-19.5 -48q0 -27 19.5 -46.5t47.5 -19.5t47 19.5z" />
    <glyph glyph-name="zcaron" unicode="&#x17e;" horiz-adv-x="438" 
d="M411 485h-379l23 -92h218l-257 -334l14 -59h393l-10 90h-257l261 332zM221 674l-71 76l-104 -13l140 -148h69l139 148l-102 13z" />
    <glyph glyph-name="scedilla" unicode="&#x15f;" horiz-adv-x="421" 
d="M352 34q-42 -38 -122 -45l-10 -25q31 -10 52 -34.5t21 -51.5q0 -48 -36 -73.5t-87 -25.5q-20 0 -47.5 7t-41.5 18l26 68q14 -7 32.5 -13t30.5 -6q16 0 28.5 6t12.5 17q0 18 -25 30.5t-64 16.5l27 68q-32 5 -64.5 16t-53.5 27l34 78q69 -33 129 -33q38 0 65 14t27 38
q0 44 -96 75q-160 52 -160 148q0 67 50 105.5t136 38.5q34 0 81.5 -13t79.5 -35l-35 -76q-35 16 -64.5 24.5t-63.5 8.5q-31 0 -52 -15t-21 -37q1 -17 24 -31t64 -28q165 -59 165 -160q0 -64 -42 -102z" />
    <glyph glyph-name="tcedilla" unicode="&#x163;" horiz-adv-x="360" 
d="M296 -70.5q21 -24.5 21 -51.5q0 -48 -36 -73.5t-87 -25.5q-20 0 -47.5 7t-41.5 18l26 68q14 -7 32.5 -13t30.5 -6q16 0 28.5 6t12.5 17q0 18 -25 30.5t-64 16.5l29 72q-46 17 -70.5 55t-24.5 95v250h-67v86h67v119l112 22v-141h88l34 -86h-122v-231q0 -39 17.5 -62.5
t52.5 -23.5q23 0 50 12l31 -83q-15 -10 -41.5 -17.5t-48.5 -7.5h-2l-7 -18q31 -10 52 -34.5z" />
    <glyph glyph-name="scommaaccent" unicode="&#x219;" horiz-adv-x="421" 
d="M109.5 -0.5q48.5 -12.5 84.5 -12.5q97 0 148.5 39t51.5 110q0 101 -165 160q-41 14 -64 28t-24 31q0 22 21 37t52 15q34 0 63.5 -8.5t64.5 -24.5l35 76q-32 22 -79.5 35t-81.5 13q-86 0 -136 -38.5t-50 -105.5q0 -96 160 -148q96 -31 96 -75q0 -24 -27 -38t-65 -14
q-60 0 -129 33l-34 -78q30 -22 78.5 -34.5zM149 -42q-20 -21 -20 -46q0 -24 17 -45t35 -21q-5 -21 -20 -37.5t-33 -24.5l25 -53q47 22 78.5 68.5t31.5 98.5q0 36 -19.5 58.5t-47.5 22.5q-27 0 -47 -21z" />
    <glyph glyph-name="softhyphen" unicode="&#xad;" horiz-adv-x="120" 
 />
    <glyph glyph-name="mu" unicode="&#xb5;" horiz-adv-x="563" 
d="M506 485v-485h-76l-20 58q-42 -34 -92 -54t-94 -20q-25 0 -48 5v-197l-112 -11v704h112v-305q0 -101 75 -101q61 0 142 67v339h113z" />
    <glyph glyph-name="uni02C9" unicode="&#x2c9;" horiz-adv-x="276" 
d="M10 620h256l-10 89h-246v-89z" />
    <glyph glyph-name="litre" unicode="&#x2113;" horiz-adv-x="398" 
d="M78 186v-24q0 -173 156 -173q30 0 60.5 12t56.5 35l-39 71q-29 -21 -66 -21q-31 0 -42.5 23t-11.5 65v99q78 69 127 145t49 142q0 65 -39.5 103.5t-99.5 38.5q-64 0 -107.5 -40.5t-43.5 -108.5v-244q-23 -18 -68 -48l27 -100q20 9 41 25zM192 411v137q0 28 9 41.5
t24 14.5q14 0 23 -12.5t9 -37.5q0 -64 -65 -143z" />
    <glyph glyph-name="Ohm" unicode="&#x2126;" horiz-adv-x="710" 
d="M520.5 188q-30.5 -71 -81.5 -97l-1 -91h229l6 91h-95q42 41 66.5 111t24.5 143q0 104 -37 182.5t-108 122.5t-169 46q-98 -2 -168.5 -46t-107.5 -122.5t-37 -182.5q0 -74 24 -143.5t66 -110.5h-94l5 -91h229l-2 91q-51 26 -81 97t-30 154q0 78 24.5 136.5t69 90
t102.5 31.5t102.5 -31.5t69 -90t24.5 -136.5q0 -83 -30.5 -154z" />
    <glyph glyph-name="Delta" unicode="&#x2206;" horiz-adv-x="641" 
d="M270 680l-260 -680h621v16l-262 664h-99zM485 90h-331l163 437z" />
    <glyph glyph-name="divisionslash" unicode="&#x2215;" horiz-adv-x="436" 
d="M311 710l-301 -710l114 -4l302 710z" />
    <glyph glyph-name="bulletmath" unicode="&#x2219;" horiz-adv-x="263" 
d="M203.5 258q29.5 29 29.5 71t-29.5 71.5t-72.5 29.5q-42 0 -71.5 -30t-29.5 -71q0 -42 29.5 -71t71.5 -29q43 0 72.5 29z" />
    <glyph glyph-name="Turkishlira" unicode="&#x20ba;" horiz-adv-x="529" 
d="M187 0q89 0 162.5 39.5t116.5 112t43 167.5h-115q0 -60 -26 -109t-71 -77.5t-99 -28.5v251l176 63l-16 85l-160 -55v44l176 62l-16 86l-160 -56v122l-112 -11v-152l-86 -30l16 -86l70 25v-44l-86 -31l16 -86l70 25v-316h101z" />
    <glyph glyph-name="Ruble" unicode="&#x20bd;" horiz-adv-x="582" 
d="M200 244v-43h270l10 -88h-280v-113h-112v113h-51l-10 88h61v45h-51l-10 88h61v346h203q118 0 190.5 -52.5t72.5 -162.5q0 -73 -37.5 -123t-99 -74t-135.5 -24h-82zM200 337h87q67 0 106.5 30t42.5 92q0 69 -37.5 98t-109.5 29h-89v-249z" />
    <glyph glyph-name="cent" unicode="&#xa2;" horiz-adv-x="468" 
d="M443 35q-39 -27 -100 -39v-110h-108v104q-96 13 -151.5 81t-55.5 172q0 102 55 170t150 82v103l109 11v-119q65 -16 102 -41l-32 -80q-39 17 -68.5 25t-64.5 8q-60 0 -97.5 -45t-38.5 -114q0 -71 36.5 -115t97.5 -44q37 0 67 8t66 25z" />
    <glyph glyph-name="sterling" unicode="&#xa3;" horiz-adv-x="486" 
d="M476 0l-16 88h-249q25 37 25 118v95h160l-38 85h-122v115q0 39 16 62t50 23q21 0 50 -11l31 82q-14 11 -40 19t-49 8q-83 0 -127.5 -47.5t-44.5 -131.5v-119h-74v-85h74v-128q0 -41 -16.5 -63t-55.5 -22l9 -88h417z" />
    <glyph glyph-name="currency" unicode="&#xa4;" horiz-adv-x="691" 
d="M661 3l-98 100q39 61 40 139q-2 80 -39 139l97 99l-68 82l-105 -106q-65 41 -140 42q-76 -1 -143 -43l-107 107l-68 -82l101 -102q-18 -27 -28.5 -62.5t-10.5 -73.5q0 -76 37 -137l-99 -102l68 -81l106 107q65 -41 141 -42q79 0 142 41l106 -106zM467.5 166
q-19.5 -34 -52 -54t-70.5 -20t-69 20.5t-49.5 55t-18.5 75.5q0 40 19 74t51 54t69 20q38 0 70 -19.5t51 -54t19 -76.5q0 -41 -19.5 -75z" />
    <glyph glyph-name="yen" unicode="&#xa5;" horiz-adv-x="593" 
d="M522 228h-175v-75h166l9 -84h-176v-69h-112v69h-154l-10 84h164v75h-154l-10 84h139l-199 348l110 36l169 -315l175 299h119l-210 -368h140z" />
    <glyph glyph-name="Euro" unicode="&#x20ac;" horiz-adv-x="612" 
d="M595 28q-36 -18 -89.5 -30t-97.5 -12q-116 0 -194 60t-108 161h-95l-11 84h90q-2 30 -2 45q0 26 3 50h-80l-11 83h108q32 104 112.5 164.5t193.5 60.5q36 0 87.5 -11t88.5 -31l-35 -81q-54 17 -78.5 22.5t-65.5 5.5q-59 0 -107.5 -34.5t-73.5 -95.5h212l9 -83h-243
q-3 -24 -3 -49q0 -23 3 -46h234l9 -84h-222q24 -58 69 -92t105 -34q78 0 149 31z" />
    <glyph glyph-name="dollar" unicode="$" horiz-adv-x="522" 
d="M376 678q37 -11 76 -30l-38 -89q-38 18 -70.5 28t-73.5 10q-52 0 -85 -20t-33 -59q0 -28 17.5 -49.5t46 -38t89.5 -47.5q64 -33 102.5 -59.5t63 -64t24.5 -87.5q0 -57 -32 -100t-92 -65v-130h-78v113q-22 -3 -44 -3h-16v-110h-77v123q-71 18 -106 41l25 90q34 -17 81 -31
t88 -14q66 0 101 22.5t35 63.5q0 26 -19 47.5t-48.5 38.5t-85.5 45q-94 48 -141.5 95.5t-47.5 118.5q0 55 32 98t91 64v115l77 12v-110h21q18 0 38 -2v100l79 12v-128z" />
    <glyph glyph-name="comma" unicode="," horiz-adv-x="198" 
d="M52.5 112.5q-19.5 -20.5 -19.5 -46.5q0 -24 17 -44.5t35 -21.5q-5 -28 -20 -46.5t-45 -42.5l26 -53q52 28 87 84.5t35 109.5q0 35 -20 58t-49 23q-27 0 -46.5 -20.5z" />
    <glyph glyph-name="period" unicode="." horiz-adv-x="193" 
d="M144 19q19 19 19 47t-19 47.5t-47 19.5t-47.5 -19.5t-19.5 -47.5t19.5 -47t47.5 -19t47 19z" />
    <glyph glyph-name="exclam" unicode="!" horiz-adv-x="194" 
d="M54 237l88 -41l15 506h-120zM49.5 113.5q-19.5 -19.5 -19.5 -47.5t19.5 -47t47.5 -19t47.5 19t19.5 47t-19.5 47.5t-47.5 19.5t-47.5 -19.5z" />
    <glyph glyph-name="exclamdown" unicode="&#xa1;" horiz-adv-x="194" 
d="M144.5 587.5q19.5 19.5 19.5 47.5t-19.5 47.5t-47.5 19.5t-47.5 -19.5t-19.5 -47.5t19.5 -47.5t47.5 -19.5t47.5 19.5zM142 465l-89 40l-16 -505h119z" />
    <glyph glyph-name="colon" unicode=":" horiz-adv-x="193" 
d="M144 353.5q19 19.5 19 47.5q0 27 -19.5 47t-46.5 20q-28 0 -47.5 -20t-19.5 -47q0 -28 19.5 -47.5t47.5 -19.5t47 19.5zM144 28.5q19 19.5 19 47.5t-19 47t-47 19t-47.5 -19t-19.5 -47t19.5 -47.5t47.5 -19.5t47 19.5z" />
    <glyph glyph-name="semicolon" unicode=";" horiz-adv-x="199" 
d="M54 448q-20 -20 -20 -47q0 -28 20 -47.5t48 -19.5t47.5 19.5t19.5 47.5q0 27 -19.5 47t-47.5 20t-48 -20zM52.5 121.5q-19.5 -20.5 -19.5 -46.5q0 -24 17 -44.5t35 -21.5q-5 -28 -20 -46.5t-45 -42.5l26 -53q52 28 87 84.5t35 109.5q0 36 -20 58.5t-49 22.5
q-27 0 -46.5 -20.5z" />
    <glyph glyph-name="question" unicode="?" horiz-adv-x="427" 
d="M100.5 687q-44.5 -14 -90.5 -43l14 -100q94 63 172 63q44 0 70 -21.5t26 -61.5q0 -44 -46 -83t-121 -63l8 -176l80 -33l15 151q74 37 121.5 94.5t47.5 111.5q0 81 -50.5 128t-147.5 47q-54 0 -98.5 -14zM120.5 113.5q-19.5 -19.5 -19.5 -47.5t19.5 -47t46.5 -19
q28 0 47.5 19t19.5 47t-19.5 47.5t-47.5 19.5q-27 0 -46.5 -19.5z" />
    <glyph glyph-name="questiondown" unicode="&#xbf;" horiz-adv-x="426" 
d="M306.5 538.5q19.5 19.5 19.5 47.5t-19.5 47.5t-47.5 19.5t-47.5 -19.5t-19.5 -47.5t19.5 -47.5t47.5 -19.5t47.5 19.5zM326 -34q45 14 90 43l-14 101q-91 -64 -172 -64q-44 0 -69.5 21.5t-25.5 60.5q0 45 45.5 84t121.5 64l-9 175l-80 33l-14 -150q-74 -38 -121.5 -95
t-47.5 -112q0 -80 50 -127.5t146 -47.5q55 0 100 14z" />
    <glyph glyph-name="asterisk" unicode="*" horiz-adv-x="375" 
d="M232 769h-88l-2 -104l-107 23l-25 -77l107 -22l-74 -104l68 -52l77 104l77 -104l67 52l-74 105l107 21l-25 77l-107 -23z" />
    <glyph glyph-name="quotedbl" unicode="&#x22;" horiz-adv-x="371" 
d="M51.5 710.5q-19.5 -21.5 -19.5 -46.5q0 -24 17 -44t35 -21q-5 -28 -19.5 -45.5t-44.5 -43.5l25 -53q52 28 87 84t35 110q0 35 -20.5 58t-48.5 23q-27 0 -46.5 -21.5zM227 710.5q-20 -21.5 -20 -46.5q0 -24 17 -44t36 -21q-5 -28 -20 -46t-46 -43l27 -53q51 28 85.5 84
t34.5 110q0 35 -19.5 58t-47.5 23q-27 0 -47 -21.5z" />
    <glyph glyph-name="quotesingle" unicode="'" horiz-adv-x="197" 
d="M51.5 710.5q-19.5 -21.5 -19.5 -46.5q0 -24 17 -44t35 -21q-5 -28 -19.5 -45.5t-44.5 -43.5l25 -53q52 28 87 84t35 110q0 35 -20.5 58t-48.5 23q-27 0 -46.5 -21.5z" />
    <glyph glyph-name="quoteleft" unicode="&#x2018;" horiz-adv-x="198" 
d="M139.5 477.5q19.5 20.5 19.5 46.5q0 24 -17 45t-35 21q5 28 20 46t46 43l-27 53q-51 -28 -86 -84t-35 -110q0 -35 19.5 -58t48.5 -23q27 0 46.5 20.5z" />
    <glyph glyph-name="quoteright" unicode="&#x2019;" horiz-adv-x="197" 
d="M51.5 710.5q-19.5 -21.5 -19.5 -46.5q0 -24 17 -44t35 -21q-5 -28 -19.5 -45.5t-44.5 -43.5l25 -53q52 28 87 84t35 110q0 35 -20.5 58t-48.5 23q-27 0 -46.5 -21.5z" />
    <glyph glyph-name="quotesinglbase" unicode="&#x201a;" horiz-adv-x="197" 
d="M51.5 112.5q-19.5 -20.5 -19.5 -46.5q0 -24 17 -44.5t35 -21.5q-5 -28 -19.5 -45.5t-44.5 -43.5l25 -53q52 28 87 84.5t35 109.5q0 35 -20.5 58t-48.5 23q-27 0 -46.5 -20.5z" />
    <glyph glyph-name="quotedblleft" unicode="&#x201c;" horiz-adv-x="373" 
d="M144.5 477.5q19.5 20.5 19.5 46.5q0 24 -17 45t-35 21q5 28 20 46t46 43l-27 53q-51 -28 -86 -84t-35 -110q0 -35 19.5 -58t48.5 -23q27 0 46.5 20.5zM319.5 478q20.5 21 20.5 46q0 24 -17.5 45t-34.5 21q5 28 20 46.5t45 42.5l-27 53q-51 -28 -86 -84t-35 -110
q0 -35 19.5 -58t47.5 -23q27 0 47.5 21z" />
    <glyph glyph-name="quotedblright" unicode="&#x201d;" horiz-adv-x="371" 
d="M51.5 710.5q-19.5 -21.5 -19.5 -46.5q0 -24 17 -44t35 -21q-5 -28 -19.5 -45.5t-44.5 -43.5l25 -53q52 28 87 84t35 110q0 35 -20.5 58t-48.5 23q-27 0 -46.5 -21.5zM227 710.5q-20 -21.5 -20 -46.5q0 -24 17 -44t36 -21q-5 -28 -20 -46t-46 -43l27 -53q51 28 85.5 84
t34.5 110q0 35 -19.5 58t-47.5 23q-27 0 -47 -21.5z" />
    <glyph glyph-name="quotedblbase" unicode="&#x201e;" horiz-adv-x="371" 
d="M51.5 112.5q-19.5 -20.5 -19.5 -46.5q0 -24 17 -44.5t35 -21.5q-5 -27 -19 -44.5t-45 -43.5l25 -54q52 28 87 84.5t35 109.5q0 35 -20.5 58t-48.5 23q-27 0 -46.5 -20.5zM227 112q-20 -21 -20 -46q0 -24 17 -44.5t36 -21.5q-5 -28 -20 -46t-46 -43l27 -53
q51 28 85.5 84.5t34.5 109.5q0 35 -19.5 58t-47.5 23q-27 0 -47 -21z" />
    <glyph glyph-name="periodcentered" unicode="&#xb7;" horiz-adv-x="193" 
d="M144 214.5q19 19.5 19 47.5t-19 47t-47 19t-47.5 -19t-19.5 -47t19.5 -47.5t47.5 -19.5t47 19.5z" />
    <glyph glyph-name="parenleft" unicode="(" horiz-adv-x="293" 
d="M188 144q-33 100 -33 177q0 74 32.5 172.5t75.5 154.5l-88 32q-61 -85 -93 -176.5t-32 -183.5q0 -94 32.5 -187t92.5 -171l88 32q-42 50 -75 150z" />
    <glyph glyph-name="parenright" unicode=")" horiz-adv-x="293" 
d="M104.5 496.5q32.5 -100.5 32.5 -176.5q0 -74 -32 -172.5t-75 -154.5l88 -31q61 86 93 177t32 181q0 94 -32.5 187.5t-92.5 172.5l-88 -33q42 -50 74.5 -150.5z" />
    <glyph glyph-name="bracketleft" unicode="[" horiz-adv-x="339" 
d="M100 -88h229l-17 87h-102v609h102l17 88h-229v-784z" />
    <glyph glyph-name="bracketright" unicode="]" horiz-adv-x="339" 
d="M239 696h-229l15 -88h102v-609h-102l-15 -87h229v784z" />
    <glyph glyph-name="braceleft" unicode="{" horiz-adv-x="286" 
d="M208 349.5q10 24.5 10 61.5q0 19 -5 34.5t-14 35.5q-8 20 -12 32t-4 27q0 12 12 22.5t35 10.5h35l11 86h-42q-71 0 -107.5 -30t-36.5 -86q0 -28 16 -76q14 -44 14 -65q0 -25 -14 -41t-34 -16h-42v-74h42q20 0 35.5 -15.5t15.5 -38.5q0 -22 -17 -67q-6 -18 -11.5 -37.5
t-5.5 -33.5q0 -121 145 -121h42l-11 86h-35q-22 0 -34.5 10t-12.5 23q0 15 4 28.5t13 35.5q9 19 13.5 34t4.5 31q0 70 -42 104q22 15 32 39.5z" />
    <glyph glyph-name="braceright" unicode="}" horiz-adv-x="285" 
d="M67 206q0 -16 4.5 -31t13.5 -34q9 -22 13 -35.5t4 -28.5q0 -13 -12.5 -23t-34.5 -10h-36l-10 -86h42q145 0 145 121q0 14 -5.5 33.5t-11.5 37.5q-17 45 -17 67q0 23 15.5 38.5t35.5 15.5h42v74h-42q-20 0 -34 16t-14 41q0 21 14 65q16 48 16 76q0 56 -36.5 86t-107.5 30
h-42l10 -86h36q23 0 35 -10.5t12 -22.5q0 -15 -4 -27t-12 -32q-9 -20 -14 -35.5t-5 -34.5q0 -37 10 -61.5t32 -39.5q-42 -34 -42 -104z" />
    <glyph glyph-name="slash" unicode="/" horiz-adv-x="436" 
d="M311 710l-301 -710l114 -4l302 710z" />
    <glyph glyph-name="backslash" unicode="\" horiz-adv-x="436" 
d="M426 0l-301 710l-115 -4l301 -710z" />
    <glyph glyph-name="bar" unicode="|" horiz-adv-x="287" 
d="M88 712v-712l111 -8v712z" />
    <glyph glyph-name="brokenbar" unicode="&#xa6;" horiz-adv-x="287" 
d="M88 712v-297l111 -9v298zM88 295v-295l111 -8v296z" />
    <glyph glyph-name="guillemotleft" unicode="&#xab;" horiz-adv-x="391" 
d="M30 222l155 -139l22 75l-92 87l92 87l-22 75l-155 -139v-46zM194 222l156 -139l21 75l-92 87l92 87l-21 75l-156 -139v-46z" />
    <glyph glyph-name="guillemotright" unicode="&#xbb;" horiz-adv-x="393" 
d="M197 268l-154 139l-23 -75l92 -87l-92 -87l23 -75l154 139v46zM363 268l-156 139l-22 -75l93 -87l-93 -87l22 -75l156 139v46z" />
    <glyph glyph-name="pi" unicode="&#x3c0;" horiz-adv-x="638" 
d="M223 0v397h191v-397h113v397h101v88h-618v-88h101v-397h112z" />
    <glyph glyph-name="dagger" unicode="&#x2020;" horiz-adv-x="427" 
d="M155 783v-158h-125l19 -103h106l10 -522l100 -4l11 526h121l-18 103h-103v155z" />
    <glyph glyph-name="daggerdbl" unicode="&#x2021;" horiz-adv-x="437" 
d="M283 1l-5 161h129l-18 103h-108l1 246h125l-18 103h-108l4 166l-130 3l5 -169h-130l19 -103h109l-3 -246h-125l19 -103h109l-5 -168z" />
    <glyph glyph-name="bullet" unicode="&#x2022;" horiz-adv-x="263" 
d="M203.5 258q29.5 29 29.5 71t-29.5 71.5t-72.5 29.5q-42 0 -71.5 -30t-29.5 -71q0 -42 29.5 -71t71.5 -29q43 0 72.5 29z" />
    <glyph glyph-name="ellipsis" unicode="&#x2026;" horiz-adv-x="513" 
d="M135.5 17.5q17.5 17.5 17.5 42.5q0 26 -18 44.5t-43 18.5q-26 0 -44 -18.5t-18 -44.5q0 -25 18 -42.5t44 -17.5t43.5 17.5zM301.5 17.5q17.5 17.5 17.5 42.5q0 26 -17.5 44.5t-42.5 18.5q-26 0 -44 -18.5t-18 -44.5q0 -25 18 -42.5t44 -17.5q25 0 42.5 17.5zM465.5 17.5
q17.5 17.5 17.5 42.5q0 26 -18 44.5t-43 18.5t-43 -18.5t-18 -44.5q0 -25 17.5 -42.5t43.5 -17.5t43.5 17.5z" />
    <glyph glyph-name="guilsinglleft" unicode="&#x2039;" horiz-adv-x="227" 
d="M30 221l155 -138l22 79l-88 83l88 83l-22 80l-155 -139v-48z" />
    <glyph glyph-name="guilsinglright" unicode="&#x203a;" horiz-adv-x="227" 
d="M197 269l-155 139l-22 -80l87 -83l-87 -83l22 -79l155 138v48z" />
    <glyph glyph-name="hyphen" unicode="-" horiz-adv-x="328" 
d="M288 318h-258l10 -89h258z" />
    <glyph glyph-name="underscore" unicode="_" horiz-adv-x="441" 
d="M401 88h-371l10 -88h371z" />
    <glyph glyph-name="endash" unicode="&#x2013;" horiz-adv-x="441" 
d="M401 318h-371l10 -89h371z" />
    <glyph glyph-name="emdash" unicode="&#x2014;" horiz-adv-x="545" 
d="M506 318h-476l10 -89h475z" />
    <glyph glyph-name="numbersign" unicode="#" 
d="M402 515l-26 -117h-124l27 115l-95 2l-28 -117h-126l10 -84h96l-27 -118h-79l10 -84h50l-27 -118l95 -5l28 123h124l-26 -118l95 -5l27 123h125l-9 84h-96l27 118h78l-9 84h-49l26 115zM356 314l-27 -118h-123l27 118h123z" />
    <glyph glyph-name="percent" unicode="%" horiz-adv-x="908" 
d="M546 710l-301 -710l113 -4l300 710zM50.5 442q22.5 -38 59.5 -58.5t81 -20.5q43 0 80.5 21t60 59.5t22.5 88.5q0 52 -22 90.5t-59.5 59t-81.5 20.5q-43 0 -80.5 -21t-60 -60t-22.5 -89q0 -52 22.5 -90zM144.5 596.5q19.5 22.5 46.5 22.5q29 0 48 -22.5t19 -64.5
t-20 -64.5t-47 -22.5q-29 0 -47.5 22.5t-18.5 65.5q0 41 19.5 63.5zM577.5 78.5q22.5 -38.5 60 -58.5t81.5 -20q42 0 79 21t59.5 59.5t22.5 88.5q0 52 -22 90.5t-58.5 58.5t-80.5 20t-81.5 -20.5t-60 -59t-22.5 -89.5q0 -52 22.5 -90.5zM672 233.5q20 22.5 47 22.5
q28 0 47 -23t19 -64q0 -42 -19.5 -65t-46.5 -23q-29 0 -48 23t-19 66q0 41 20 63.5z" />
    <glyph glyph-name="plus" unicode="+" horiz-adv-x="537" 
d="M497 317h-172v214l-105 3v-217h-190l8 -86h182v-223l105 -4v227h182z" />
    <glyph glyph-name="divide" unicode="&#xf7;" horiz-adv-x="506" 
d="M303 381q21 21 21 50q0 30 -21 51t-51 21t-51 -21t-21 -51q0 -29 21 -50t51 -21t51 21zM466 318h-436l9 -89h437zM303.5 53.5q21.5 21.5 21.5 50.5q0 30 -21.5 51t-51.5 21q-29 0 -50 -21t-21 -51q0 -29 21 -50.5t50 -21.5q30 0 51.5 21.5z" />
    <glyph glyph-name="multiply" unicode="&#xd7;" horiz-adv-x="548" 
d="M327 253l175 -223h-115l-114 146l-128 -146h-115l190 225l-174 224h115l114 -146l127 146h116z" />
    <glyph glyph-name="plusminus" unicode="&#xb1;" horiz-adv-x="475" 
d="M436 377h-148v154l-97 3v-157h-161l9 -78h152v-162l97 -5v167h157zM440 79h-408l7 -79h406z" />
    <glyph glyph-name="less" unicode="&#x3c;" horiz-adv-x="341" 
d="M321 111l-180 134l180 134l-23 91l-268 -198v-55l268 -198z" />
    <glyph glyph-name="equal" unicode="=" horiz-adv-x="511" 
d="M472 398h-442l10 -84h441zM472 196h-442l10 -84h441z" />
    <glyph glyph-name="greater" unicode="&#x3e;" horiz-adv-x="341" 
d="M311 272l-268 198l-23 -91l180 -134l-180 -134l23 -92l268 198v55z" />
    <glyph glyph-name="degree" unicode="&#xb0;" horiz-adv-x="252" 
d="M44 685.5q-34 -32.5 -34 -78.5q0 -47 34 -78.5t82 -31.5q47 0 81.5 31.5t34.5 78.5q0 46 -34.5 78.5t-81.5 32.5q-48 0 -82 -32.5zM127 573q-17 0 -26 14q-7 7 -7 19q0 16 13 26q8 5 20 5q16 0 25 -12q6 -9 6 -20q0 -17 -13 -26q-7 -6 -18 -6z" />
    <glyph glyph-name="onesuperior" unicode="&#xb9;" horiz-adv-x="293" 
d="M225 336v428h-66l-149 -68l40 -72l73 36v-324h102z" />
    <glyph glyph-name="twosuperior" unicode="&#xb2;" horiz-adv-x="367" 
d="M87 758q-38 -13 -72 -32l38 -73q30 15 58.5 25t57.5 10q28 0 44.5 -14.5t16.5 -34.5q0 -32 -14.5 -57.5t-48.5 -54.5l-142 -118v-73h322l-12 79h-176l70 58q56 48 80.5 85.5t24.5 80.5q0 33 -17.5 63t-53.5 49.5t-89 19.5q-49 0 -87 -13z" />
    <glyph glyph-name="threesuperior" unicode="&#xb3;" horiz-adv-x="366" 
d="M89 758q-37 -13 -76 -38l41 -71q23 18 46.5 28t54.5 10q33 0 50 -12.5t17 -33.5q0 -28 -19.5 -46t-65.5 -18h-42l11 -78h26q98 0 98 -76q0 -28 -22.5 -45t-58.5 -17q-29 0 -51 7.5t-55 26.5l-43 -71q33 -20 75.5 -33t82.5 -13q53 0 93 19t61.5 52.5t21.5 74.5
q0 44 -23.5 76.5t-52.5 38.5q27 10 47.5 39.5t20.5 63.5q0 56 -41 92.5t-116 36.5q-43 0 -80 -13z" />
    <glyph glyph-name="onequarter" unicode="&#xbc;" horiz-adv-x="867" 
d="M225 336v428h-66l-149 -68l40 -72l73 36v-324h102zM595 700l-550 -834h120l551 834h-121zM760 -79h78l9 82h-87v318h-71l-248 -318l10 -82h207v-85h102v85zM658 147v-144h-113z" />
    <glyph glyph-name="onehalf" unicode="&#xbd;" horiz-adv-x="884" 
d="M225 336v428h-66l-149 -68l40 -72l73 36v-324h102zM590 700l-550 -834h120l550 834h-120zM605 312q-37 -13 -73 -32l38 -74q65 35 116 35q29 0 45.5 -16t16.5 -37q0 -31 -14.5 -54t-49.5 -54l-142 -118v-72h322l-12 78h-176l70 58q56 48 81 86t25 80q0 33 -17.5 63.5
t-54 50t-89.5 19.5q-49 0 -86 -13z" />
    <glyph glyph-name="threequarters" unicode="&#xbe;" horiz-adv-x="864" 
d="M89 758q-37 -13 -76 -38l41 -71q23 18 46.5 28t54.5 10q33 0 50 -13t17 -33q0 -29 -22.5 -46.5t-62.5 -17.5h-42l11 -78h26q98 0 98 -76q0 -28 -22.5 -45t-58.5 -17q-29 0 -51 7.5t-55 26.5l-43 -71q33 -20 75.5 -33t82.5 -13q53 0 93 19t61.5 52.5t21.5 74.5
q0 44 -23.5 76.5t-52.5 38.5q27 10 47.5 39.5t20.5 63.5q0 56 -41 92.5t-116 36.5q-43 0 -80 -13zM642 700l-550 -834h119l551 834h-120zM758 321h-71l-249 -318l11 -82h207v-85h102v85h78l8 82h-86v318zM542 3l114 144v-144h-114z" />
    <glyph glyph-name="estimated" unicode="&#x212e;" horiz-adv-x="509" 
d="M482 246q0 110 -55 181t-162 71q-73 0 -126.5 -32t-82 -89.5t-28.5 -133.5q0 -118 69.5 -186.5t201.5 -68.5q98 0 179 56l-34 82q-43 -22 -73.5 -32.5t-69.5 -10.5q-140 0 -155 130h336v33zM184.5 372q29.5 30 77.5 30q47 0 75 -29t37 -85h-226q7 54 36.5 84z" />
    <glyph glyph-name="partialdiff" unicode="&#x2202;" horiz-adv-x="556" 
d="M328 636q94 -75 147.5 -172.5t53.5 -203.5q0 -82 -30 -143.5t-87 -95.5t-135 -34q-76 0 -132 32t-86.5 89.5t-30.5 134.5q0 75 30.5 133t86 90t129.5 32q23 0 54 -7q-86 109 -252 177l39 82q119 -39 213 -114zM375.5 129q37.5 45 37.5 113t-19 126q-49 34 -115 34
q-60 0 -97.5 -45t-38.5 -114q0 -71 36.5 -115t97.5 -44t98.5 45z" />
    <glyph glyph-name="product" unicode="&#x220f;" horiz-adv-x="653" 
d="M88 0h110v593h255v-593h112v680h-477v-680z" />
    <glyph glyph-name="summation" unicode="&#x2211;" horiz-adv-x="480" 
d="M403 680h-371v-88l176 -248l-178 -256v-88h430l-17 88h-293l161 238v39l-157 227h266z" />
    <glyph glyph-name="minus" unicode="&#x2212;" horiz-adv-x="478" 
d="M437 318h-407l8 -89h410z" />
    <glyph glyph-name="radical" unicode="&#x221a;" horiz-adv-x="605" 
d="M482 710l-247 -592l-110 203l-115 -4l168 -317l122 -4l295 710z" />
    <glyph glyph-name="infinity" unicode="&#x221e;" horiz-adv-x="822" 
d="M131.5 435.5q-48.5 -29.5 -76 -79.5t-27.5 -110q0 -61 27.5 -108t76.5 -73.5t111 -26.5q49 0 90 24.5t70 64.5q35 -42 80.5 -65t97.5 -23q61 0 110 29t76.5 79t27.5 111t-27.5 108t-77 73.5t-111.5 26.5q-49 0 -90 -24t-70 -64q-35 41 -81 64t-97 23q-61 0 -109.5 -29.5z
M501 333.5q34 40.5 78 40.5q51 0 83.5 -33t32.5 -81q0 -53 -32.5 -90.5t-83.5 -37.5q-41 1 -75.5 23.5t-55.5 59.5l6 22q13 56 47 96.5zM322 170q-33 -40 -79 -40q-51 0 -83 33t-32 81q0 53 32.5 90t83.5 37q40 -1 74.5 -23t55.5 -58l-5 -22q-14 -58 -47 -98z" />
    <glyph glyph-name="integral" unicode="&#x222b;" horiz-adv-x="392" 
d="M313 686q20 0 47 -11l32 83q-14 11 -39 18t-47 7q-80 0 -123.5 -44.5t-43.5 -124.5v-610q0 -40 -14 -62.5t-48 -22.5q-10 0 -23 3.5t-24 7.5l-30 -83q14 -11 38.5 -18.5t46.5 -7.5q80 0 123 45t43 125v611q0 84 62 84z" />
    <glyph glyph-name="approxequal" unicode="&#x2248;" horiz-adv-x="522" 
d="M391 393.5q-13 -10.5 -28 -11.5q-46 0 -103 21q-62 21 -96 21q-134 0 -134 -116l85 -18q1 22 15 32.5t29 10.5q51 0 106 -20q53 -22 92 -22q54 0 94.5 24.5t40.5 91.5l-86 19q-2 -22 -15 -32.5zM391 199.5q-13 -10.5 -28 -11.5q-46 0 -103 21q-60 22 -96 22
q-53 0 -93.5 -25.5t-40.5 -91.5l85 -17q1 21 15 31t29 10q51 0 106 -20q53 -22 92 -22q53 0 94 25t41 92l-86 19q-2 -22 -15 -32.5z" />
    <glyph glyph-name="notequal" unicode="&#x2260;" horiz-adv-x="511" 
d="M323 520l-55 -122h-238l10 -84h192l-53 -118h-149l10 -84h102l-54 -122l99 -5l58 127h236l-9 84h-189l51 118h147l-9 84h-101l53 119z" />
    <glyph glyph-name="lessequal" unicode="&#x2264;" horiz-adv-x="356" 
d="M336 203l-182 103l182 104l-21 93l-285 -161v-72l285 -160zM329 80h-298l7 -80h296z" />
    <glyph glyph-name="greaterequal" unicode="&#x2265;" horiz-adv-x="357" 
d="M327 342l-284 161l-23 -93l183 -104l-183 -103l23 -93l284 160v72zM318 80h-297l7 -80h296z" />
    <glyph glyph-name="perthousand" unicode="&#x2030;" horiz-adv-x="1287" 
d="M547 710l-300 -710l112 -4l301 710zM110.5 681q-37.5 -21 -60 -60t-22.5 -89q0 -52 22.5 -90t59.5 -58.5t81 -20.5q43 0 80.5 21t60 59.5t22.5 88.5q0 52 -22 90.5t-59.5 59t-81.5 20.5q-43 0 -80.5 -21zM239 596.5q19 -22.5 19 -64.5t-20 -64.5t-47 -22.5
q-29 0 -47.5 22.5t-18.5 65.5q0 41 19.5 63.5t46.5 22.5q29 0 48 -22.5zM637.5 317.5q-37.5 -20.5 -60 -59t-22.5 -89.5q0 -52 22.5 -90.5t60 -58.5t81.5 -20q42 0 79 21t59.5 59.5t22.5 88.5q0 52 -22 90.5t-58.5 58.5t-80.5 20t-81.5 -20.5zM1015.5 317.5
q-37.5 -20.5 -60 -59t-22.5 -89.5q0 -52 22 -90.5t59.5 -58.5t82.5 -20q42 0 79.5 21t60.5 59.5t23 88.5q0 52 -22.5 90.5t-60 58.5t-80.5 20q-44 0 -81.5 -20.5zM766 233q19 -23 19 -64q0 -42 -19.5 -65t-46.5 -23q-29 0 -48 23t-19 66q0 41 20 63.5t47 22.5q28 0 47 -23z
M1143.5 233q18.5 -23 18.5 -64q0 -42 -19 -65t-46 -23q-30 0 -49 23t-19 66q0 41 20.5 63.5t47.5 22.5q28 0 46.5 -23z" />
    <glyph glyph-name="fraction" unicode="&#x2044;" horiz-adv-x="436" 
d="M311 710l-301 -710l114 -4l302 710z" />
    <glyph glyph-name="lozenge" unicode="&#x25ca;" horiz-adv-x="565" 
d="M305 0l230 284v31l-230 284h-45l-230 -284v-31l230 -284h45zM282 476l142 -177l-142 -175l-141 175z" />
    <glyph glyph-name="copyright" unicode="&#xa9;" horiz-adv-x="815" 
d="M740 526.5q-47 85.5 -133 135.5t-200 50t-200 -50t-132.5 -135.5t-46.5 -190.5q0 -104 46.5 -189.5t132.5 -135.5t200 -50t200 50t133 135.5t47 189.5q0 105 -47 190.5zM141 495q37 70 106 110t160 40q92 0 160.5 -40t105.5 -110t37 -158t-37 -158t-105.5 -110
t-160.5 -40q-91 0 -160 40t-106 110t-37 158t37 158zM501 115q44 12 72 33l-32 83q-33 -17 -57.5 -24.5t-57.5 -7.5q-56 0 -84.5 36t-28.5 104q0 62 30 99t84 37q34 0 57 -7t59 -25l31 85q-30 20 -73 32t-75 12q-67 0 -118.5 -29t-80.5 -82t-29 -123q0 -107 60 -171t166 -64
q33 0 77 12z" />
    <glyph glyph-name="registered" unicode="&#xae;" horiz-adv-x="726" 
d="M657 657q-41 76 -117 119.5t-177 43.5t-177 -44t-117 -119.5t-41 -169.5q0 -92 41 -167.5t117.5 -119.5t176.5 -44q101 0 177 44t117 119.5t41 167.5q0 94 -41 170zM131 626.5q32 60.5 91.5 94.5t140.5 34q80 0 139.5 -34t91.5 -95t32 -138q0 -76 -32 -136.5t-91.5 -95.5
t-139.5 -35q-81 0 -140.5 35t-91.5 95.5t-32 136.5q0 78 32 138.5zM448 468q29 14 46.5 39t17.5 61q0 56 -39.5 84t-104.5 28h-136v-376h81v147h58l70 -147h91zM408.5 604.5q19.5 -9.5 19.5 -40.5q0 -28 -21 -38t-61 -10h-33v98h34q42 0 61.5 -9.5z" />
    <glyph glyph-name="trademark" unicode="&#x2122;" horiz-adv-x="753" 
d="M324 680h-314v-65h116v-310h82v310h126zM564 408l69 91v-194h83v375h-38l-128 -172l-138 172h-40v-375h83v202l85 -103z" />
    <glyph glyph-name="ampersand" unicode="&#x26;" horiz-adv-x="678" 
d="M312 696q-61 0 -107 -25.5t-71 -68t-25 -93.5q0 -54 29 -96q-45 -36 -72.5 -88.5t-27.5 -108.5q0 -73 34.5 -124t94 -77t133.5 -27q129 0 207 72l78 -71l65 82l-80 71q41 83 47 192l-99 40q-4 -88 -33 -155l-173 159q-48 42 -68 72t-20 64q0 35 24 59.5t65 24.5
q40 0 68.5 -9.5t69.5 -29.5l38 89q-92 48 -177 48zM300 88q-61 0 -103 33t-42 97q1 35 15 65.5t38 52.5q14 -16 32 -32l187 -171q-51 -45 -127 -45z" />
    <glyph glyph-name="at" unicode="@" horiz-adv-x="764" 
d="M520 427h-78q-60 0 -112.5 -26t-84.5 -73t-32 -108q0 -73 43.5 -115.5t129.5 -42.5q23 0 46 7.5t42 18.5q32 -27 80 -27q82 0 132.5 63.5t50.5 181.5q0 84 -41 151t-113 105t-162 38q-117 0 -206.5 -51t-138 -137.5t-48.5 -189.5q0 -94 46.5 -167.5t122.5 -114t159 -40.5
q58 0 107.5 9t96.5 33l-28 86q-36 -19 -80 -27.5t-86 -8.5q-64 0 -118.5 28t-86.5 80.5t-32 121.5q0 86 40.5 152t107.5 101.5t142 35.5q65 0 116 -27t79.5 -75t28.5 -109q0 -45 -11.5 -79.5t-30.5 -53t-41 -18.5q-12 0 -22 10.5t-9 28.5l23 199zM330.5 170
q-17.5 21 -17.5 50q0 57 38 91t92 34h12l-19 -148q-4 -22 -17.5 -35t-33.5 -13q-37 0 -54.5 21z" />
    <glyph glyph-name="asciicircum" unicode="^" horiz-adv-x="443" 
d="M221 280l97 -137h115l-174 247h-74l-175 -247h115z" />
    <glyph glyph-name="asciitilde" unicode="~" horiz-adv-x="454" 
d="M128 180q1 20 10.5 29.5t20.5 9.5q20 0 35 -4.5t33 -12.5q22 -10 39 -14.5t41 -4.5q51 0 84 36t33 113h-98q-1 -21 -11 -30.5t-21 -9.5q-19 0 -33 4t-32 13q-22 9 -39 14t-42 5q-52 0 -85 -36.5t-33 -111.5h98z" />
    <glyph glyph-name="section" unicode="&#xa7;" horiz-adv-x="592" 
d="M544.5 176.5q-19.5 -35.5 -56.5 -60.5q7 -21 7 -50q0 -54 -29 -96t-85.5 -65.5t-135.5 -23.5q-43 0 -106 17.5t-89 36.5l25 90q34 -17 81 -31t88 -14q66 0 101 22.5t35 63.5q0 26 -19 47.5t-48.5 38.5t-85.5 45q-94 48 -141.5 95.5t-47.5 118.5q0 43 20 78.5t57 60.5
q-8 24 -8 51q0 51 27.5 91.5t79 64t121.5 23.5q47 0 96 -14t90 -34l-37 -89q-38 18 -70.5 28t-73.5 10q-53 0 -86 -20t-33 -59q0 -28 17.5 -49.5t46 -38t89.5 -47.5q64 -33 102.5 -59.5t63 -64t24.5 -87.5q0 -44 -19.5 -79.5zM379 236q25 -15 46 -33q24 21 24 53
q0 26 -19 47.5t-48.5 38.5t-85.5 45q-82 43 -121 76q-23 -21 -23 -51q0 -28 17.5 -49.5t46 -38t89.5 -47.5q49 -26 74 -41z" />
    <glyph glyph-name="ordfeminine" unicode="&#xaa;" horiz-adv-x="329" 
d="M160 622q25 0 38 -14t15 -37h-63q-54 1 -88 -27.5t-34 -76.5q0 -47 30.5 -75.5t85.5 -28.5q23 0 46.5 11t42.5 26l21 -29h47v211q0 51 -39 85.5t-103 34.5q-27 0 -61 -9t-52 -20l20 -72q56 21 94 21zM125 494.5q12 8.5 33 8.5h57v-34q-30 -27 -68 -27q-16 0 -25 8.5
t-9 21.5q0 14 12 22.5z" />
    <glyph glyph-name="logicalnot" unicode="&#xac;" horiz-adv-x="514" 
d="M476 406h-466l8 -89h370v-200l96 -5v244z" />
    <glyph glyph-name="paragraph" unicode="&#xb6;" horiz-adv-x="885" 
d="M440 591h209v-591h113v591h95v89h-568q-117 0 -189 -52.5t-72 -162.5q0 -73 36.5 -123t98.5 -74t137 -24h28v-244h112v591z" />
    <glyph glyph-name="ordmasculine" unicode="&#xba;" horiz-adv-x="384" 
d="M72.5 656q-44.5 -46 -44.5 -124t42.5 -123.5t117.5 -45.5q76 0 122.5 45.5t46.5 122.5q0 79 -44.5 125t-121.5 46q-74 0 -118.5 -46zM259 531q0 -45 -18 -67t-51 -22q-32 0 -48.5 22.5t-16.5 67.5q0 46 18.5 68t49.5 22q66 0 66 -91z" />
    <glyph glyph-name="Gcommaaccent" unicode="&#x122;" horiz-adv-x="629" 
d="M479 278v-183q-52 -14 -105 -14q-64 0 -113.5 31.5t-77.5 89.5t-28 135q0 83 32 142.5t86 89.5t119 30q41 0 65.5 -5.5t78.5 -22.5l35 81q-37 20 -90.5 31t-90.5 11q-100 0 -180.5 -45.5t-126 -127.5t-45.5 -185q0 -98 41 -178t118 -126t180 -46q57 0 111.5 13.5
t92.5 35.5v329h-238l-9 -86h145zM332 -42q-20 -21 -20 -46q0 -24 17 -45t35 -21q-5 -21 -20 -37.5t-33 -24.5l25 -53q47 22 78.5 68.5t31.5 98.5q0 36 -19.5 58.5t-47.5 22.5q-27 0 -47 -21z" />
    <glyph glyph-name="Kcommaaccent" unicode="&#x136;" horiz-adv-x="641" 
d="M493 0l-223 299l-70 -75v-224h-112v680h112v-300l303 315l81 -65l-237 -251l284 -379h-138zM302 -42q-20 -21 -20 -46q0 -24 17 -45t35 -21q-5 -21 -20 -37.5t-33 -24.5l25 -53q47 22 78.5 68.5t31.5 98.5q0 36 -19.5 58.5t-47.5 22.5q-27 0 -47 -21z" />
    <glyph glyph-name="Lcommaaccent" unicode="&#x13b;" horiz-adv-x="529" 
d="M503 88h-303v592h-112v-680h431zM310 -42q-20 -21 -20 -46q0 -24 17 -45t35 -21q-5 -21 -20 -37.5t-33 -24.5l25 -53q47 22 78.5 68.5t31.5 98.5q0 36 -19.5 58.5t-47.5 22.5q-27 0 -47 -21z" />
    <glyph glyph-name="Ncommaaccent" unicode="&#x145;" horiz-adv-x="729" 
d="M200 0v482l334 -482h107v680h-113v-479l-334 479h-106v-680h112zM326 -42q-20 -21 -20 -46q0 -24 17 -45t35 -21q-5 -21 -20 -37.5t-33 -24.5l25 -53q47 22 78.5 68.5t31.5 98.5q0 36 -19.5 58.5t-47.5 22.5q-27 0 -47 -21z" />
    <glyph glyph-name="Rcommaaccent" unicode="&#x156;" horiz-adv-x="616" 
d="M88 0h112v265h82q35 0 55 3l148 -268h121l-169 296q53 24 85 70t32 109q0 102 -73 153.5t-190 51.5h-203v-680zM398 559q38 -27 38 -89q0 -59 -41 -86t-108 -27h-87v229h89q71 0 109 -27zM291 -42q-20 -21 -20 -46q0 -24 17 -45t35 -21q-5 -21 -20 -37.5t-33 -24.5
l25 -53q47 22 78.5 68.5t31.5 98.5q0 36 -19.5 58.5t-47.5 22.5q-27 0 -47 -21z" />
    <glyph glyph-name="Tcommaaccent" unicode="&#x21a;" horiz-adv-x="581" 
d="M554 680h-544v-89h214v-591h114v591h233zM239 -42q-20 -21 -20 -46q0 -24 17 -45t35 -21q-5 -21 -20 -37.5t-33 -24.5l25 -53q47 22 78.5 68.5t31.5 98.5q0 36 -19.5 58.5t-47.5 22.5q-27 0 -47 -21z" />
    <glyph glyph-name="gcommaaccent" unicode="&#x123;" horiz-adv-x="554" 
d="M219.5 570q-19.5 23 -19.5 58q0 51 31.5 97t77.5 70l26 -54q-18 -8 -33.5 -24t-19.5 -37q17 0 35 -21t18 -44q0 -25 -20.5 -46.5t-47.5 -21.5q-28 0 -47.5 23zM490 485v-518q0 -91 -65.5 -144t-179.5 -53q-36 0 -93.5 14t-90.5 37l34 81q45 -21 77.5 -31t69.5 -10
q60 0 97.5 28.5t37.5 78.5v53q-27 -16 -55 -25t-52 -9q-74 0 -128.5 32t-84 90t-29.5 135q0 76 29.5 133.5t85 89t129.5 31.5q28 0 65.5 -14t67.5 -38l24 39h61zM327 93.5q25 9.5 50 30.5v238q-24 21 -49 30.5t-56 9.5q-60 0 -94.5 -44t-34.5 -113q0 -73 34.5 -117t94.5 -44
q30 0 55 9.5z" />
    <glyph glyph-name="kcommaaccent" unicode="&#x137;" horiz-adv-x="502" 
d="M180 0v167l57 53l135 -220h130l-186 292l140 129l-64 77l-212 -201v409l-112 -11v-695h112zM228 -42q-20 -21 -20 -46q0 -24 17 -45t35 -21q-5 -21 -20 -37.5t-33 -24.5l25 -53q47 22 78.5 68.5t31.5 98.5q0 36 -19.5 58.5t-47.5 22.5q-27 0 -47 -21z" />
    <glyph glyph-name="lcommaaccent" unicode="&#x13c;" horiz-adv-x="247" 
d="M180 0v706l-112 -11v-695h112zM83 -42q-20 -21 -20 -46q0 -24 17 -45t35 -21q-5 -21 -20 -37.5t-33 -24.5l25 -53q47 22 78.5 68.5t31.5 98.5q0 36 -19.5 58.5t-47.5 22.5q-27 0 -47 -21z" />
    <glyph glyph-name="ncommaaccent" unicode="&#x146;" horiz-adv-x="553" 
d="M170 339q81 67 142 67q75 0 75 -101v-305h113v312q0 88 -38 138.5t-123 50.5q-44 0 -94 -20t-92 -54l-20 58h-75v-485h112v339zM242 -42q-20 -21 -20 -46q0 -24 17 -45t35 -21q-5 -21 -20 -37.5t-33 -24.5l25 -53q47 22 78.5 68.5t31.5 98.5q0 36 -19.5 58.5t-47.5 22.5
q-27 0 -47 -21z" />
    <glyph glyph-name="rcommaaccent" unicode="&#x157;" horiz-adv-x="352" 
d="M170 309q40 36 88 61t84 25l-23 90q-35 0 -81.5 -25t-82.5 -55l-37 80h-60v-485h112v309zM71 -42q-20 -21 -20 -46q0 -24 17 -45t35 -21q-5 -21 -20 -37.5t-33 -24.5l25 -53q47 22 78.5 68.5t31.5 98.5q0 36 -19.5 58.5t-47.5 22.5q-27 0 -47 -21z" />
    <glyph glyph-name="tcommaaccent" unicode="&#x21b;" horiz-adv-x="360" 
d="M192 481v141l-112 -22v-119h-67v-86h67v-250q0 -79 46 -121t127 -42q22 0 48.5 7.5t41.5 17.5l-31 83q-27 -12 -50 -12q-35 0 -52.5 23.5t-17.5 62.5v231h122l-34 86h-88zM173 -42q-20 -21 -20 -46q0 -24 17 -45t35 -21q-5 -21 -20 -37.5t-33 -24.5l25 -53
q47 22 78.5 68.5t31.5 98.5q0 36 -19.5 58.5t-47.5 22.5q-27 0 -47 -21z" />
    <glyph glyph-name="tm_A" unicode="&#xb85;" horiz-adv-x="1087" 
d="M1000 513v-639h-101v181h-193q-49 -93 -148 -146t-234 -53q-85 0 -152.5 22t-105.5 60.5t-38 87.5t35.5 78t105.5 29h458q14 45 14 94q0 63 -23.5 113t-66.5 78t-101 28q-24 0 -49 -5q35 -14 55.5 -43t20.5 -66q0 -58 -38 -95t-98 -37q-61 0 -101 36.5t-40 92.5
q0 58 32 104t89 72t129 26q88 0 155.5 -39.5t104.5 -108.5t37 -156q0 -47 -11 -94h163v380h101zM372.5 295.5q13.5 13.5 13.5 33.5t-13 32.5t-33 12.5q-21 0 -34.5 -12.5t-13.5 -32.5t13.5 -33.5t33.5 -13.5t33.5 13.5zM478.5 -29q67.5 30 108.5 84h-421q-17 0 -25 -8
t-8 -21q0 -23 24 -42.5t67.5 -31t99.5 -11.5q87 0 154.5 30z" />
    <glyph glyph-name="tm_Aa" unicode="&#xb86;" horiz-adv-x="1290" 
d="M1231 56.5q49 -49.5 49 -129.5q0 -87 -50.5 -156.5t-140 -108.5t-203.5 -39q-73 0 -129 20.5t-87 56.5t-31 81q0 56 41 90.5t109 34.5h21v-79h-21q-21 0 -35 -12.5t-14 -33.5q0 -31 41.5 -52t104.5 -21q84 0 149.5 28t102 78t36.5 113q0 40 -22 67t-60 27
q-41 0 -66.5 -26.5t-25.5 -66.5v-54h-101v181h-193q-49 -93 -148 -146t-234 -53q-85 0 -152.5 22t-105.5 60.5t-38 87.5t35.5 78t105.5 29h458q14 45 14 94q0 63 -23.5 113t-66.5 78t-101 28q-24 0 -49 -5q35 -14 55.5 -43t20.5 -66q0 -58 -38 -95t-98 -37q-61 0 -101 36.5
t-40 92.5q0 58 32 104t89 72t129 26q88 0 155.5 -39.5t104.5 -108.5t37 -156q0 -47 -11 -94h163v380h101v-437q44 30 103 30q79 0 128 -49.5zM372.5 295.5q13.5 13.5 13.5 33.5t-13 32.5t-33 12.5q-21 0 -34.5 -12.5t-13.5 -32.5t13.5 -33.5t33.5 -13.5t33.5 13.5z
M478.5 -29q67.5 30 108.5 84h-421q-17 0 -25 -8t-8 -21q0 -23 24 -42.5t67.5 -31t99.5 -11.5q87 0 154.5 30z" />
    <glyph glyph-name="tm_Ai" unicode="&#xb90;" horiz-adv-x="816" 
d="M716 101q20 -38 29 -69.5t9 -63.5q0 -50 -24 -89t-67 -61.5t-98 -22.5q-50 0 -88 18t-63 51q-26 -33 -66.5 -51t-92.5 -18q-59 0 -106.5 23.5t-74 65t-26.5 93.5q0 89 63.5 143.5t206.5 74.5l180 24q82 11 123 47t42 89q0 40 -23 65.5t-61 25.5q-46 0 -73.5 -29.5
t-27.5 -73.5v-69h-100v69q0 45 -31.5 74t-84.5 29q-37 0 -69 -19q44 -5 71 -34t27 -71q0 -47 -34 -78.5t-86 -31.5t-86 34.5t-34 86.5q0 55 27.5 100t75.5 71.5t108 26.5q51 0 93 -20t72 -56q28 36 66.5 56t85.5 20q55 0 98 -22.5t67 -62.5t24 -91q0 -88 -67.5 -146.5
t-202.5 -76.5l-180 -24q-90 -12 -127.5 -44.5t-37.5 -88.5q0 -41 28.5 -68t73.5 -27q46 0 76.5 29.5t30.5 73.5v69h101v-69q0 -44 29 -73.5t73 -29.5q41 0 62.5 26t21.5 67q0 22 -9 56.5t-27 65.5zM207 351.5q-12 12.5 -31 12.5q-20 0 -32.5 -12.5t-12.5 -31.5t12.5 -31
t32.5 -12q19 0 31 12t12 31t-12 31.5z" />
    <glyph glyph-name="tm_Au" unicode="&#xb94;" horiz-adv-x="2074" 
d="M581.5 64q29.5 -20 84.5 -20h79v-79h-79q-14 0 -38 2v-13q0 -50 -25.5 -89.5t-72.5 -61.5t-110 -22q-64 0 -112 22t-74 61.5t-26 89.5v46h101v-46q0 -39 29 -63t82 -24t82 24t29 63v45q-37 23 -56.5 60t-19.5 83v127h92q1 -33 20 -53.5t49 -20.5q28 0 45 23t17 61
q0 48 -35.5 86.5t-97 60.5t-138.5 22q-101 0 -174.5 -36.5t-95.5 -96.5q33 27 79 27q58 0 95.5 -34.5t37.5 -87.5q0 -56 -39 -91.5t-100 -35.5q-77 0 -122 48.5t-45 126.5q0 76 46 137t128.5 95t189.5 34q108 0 193.5 -33t134 -91t48.5 -131q0 -75 -46.5 -122t-119.5 -47
q-38 0 -69 17q4 -43 33.5 -63zM173.5 255.5q-14.5 -13.5 -14.5 -35.5t14.5 -36.5t36.5 -14.5q23 0 37.5 14.5t14.5 36.5t-14 35.5t-37 13.5t-37.5 -13.5zM2064 434h-183v-434h-100v434h-225v-434h-101v228q0 62 -31 112t-86 78t-125 28q-72 0 -125 -27t-81 -74.5t-28 -107.5
q0 -56 26 -97v4q0 46 21.5 83t59.5 58t86 21q52 0 93 -21t64.5 -58.5t23.5 -83.5t-24.5 -82.5t-68 -57.5t-97.5 -21q-85 0 -150.5 33.5t-102 91.5t-36.5 130q0 85 42 152t118.5 104.5t178.5 37.5q74 0 136.5 -26.5t105.5 -73.5v82h594zM1114.5 202.5
q-23.5 -23.5 -23.5 -59.5q0 -35 23.5 -58t58.5 -23q36 0 59.5 23t23.5 58q0 36 -23.5 59.5t-59.5 23.5q-35 0 -58.5 -23.5z" />
    <glyph glyph-name="tm_Ca" unicode="&#xb9a;" horiz-adv-x="703" 
d="M676 228h-180v-23q0 -64 -30 -115t-86 -79.5t-131 -28.5q-63 0 -111 21t-74 58.5t-26 84.5q0 52 30.5 90t86.5 57v220h506l15 -79h-180v-127h165zM395 434h-139v-127h139v127zM395 228h-139q-54 0 -83.5 -22t-29.5 -60q0 -35 28.5 -57t77.5 -22q69 0 107.5 38t38.5 100
v23z" />
    <glyph glyph-name="tm_E" unicode="&#xb8e;" horiz-adv-x="895" 
d="M885 434h-182v-434h-101v434h-202q-125 0 -186 -53t-61 -144q0 -56 26 -97v4q0 46 21.5 83t59.5 58t86 21q52 0 93 -21t64.5 -58.5t23.5 -83.5t-24.5 -82.5t-68 -57.5t-97.5 -21q-85 0 -150.5 33.5t-102 91.5t-36.5 130q0 81 39 143.5t116 97.5t188 35h480zM288.5 202.5
q-23.5 -23.5 -23.5 -59.5q0 -35 23.5 -58t58.5 -23q36 0 59.5 23t23.5 58q0 36 -23.5 59.5t-59.5 23.5q-35 0 -58.5 -23.5z" />
    <glyph glyph-name="tm_Ee" unicode="&#xb8f;" horiz-adv-x="895" 
d="M885 434h-182v-422q0 -63 -12.5 -97t-55.5 -48l-374 -117l-38 77l328 106q33 10 42 33.5t9 77.5v390h-202q-125 0 -186 -53t-61 -144q0 -56 26 -97v4q0 46 21.5 83t59.5 58t86 21q52 0 93 -21t64.5 -58.5t23.5 -83.5t-24.5 -82.5t-68 -57.5t-97.5 -21q-85 0 -150.5 33.5
t-102 91.5t-36.5 130q0 81 39 143.5t116 97.5t188 35h480zM288.5 202.5q-23.5 -23.5 -23.5 -59.5q0 -35 23.5 -58t58.5 -23q36 0 59.5 23t23.5 58q0 36 -23.5 59.5t-59.5 23.5q-35 0 -58.5 -23.5z" />
    <glyph glyph-name="tm_Ha" unicode="&#xbb9;" horiz-adv-x="1652" 
d="M1543.5 449q61.5 -82 61.5 -216q0 -123 -37.5 -216t-114 -145.5t-190.5 -52.5h-968q-69 0 -107 -15.5t-58 -46.5l-82 49q21 42 83.5 66.5t157.5 24.5h974q119 0 177.5 91t58.5 245q0 98 -31.5 155.5t-97.5 57.5q-52 0 -80.5 -36.5t-28.5 -106.5v-303h-101v292
q0 67 -28.5 110.5t-80.5 43.5q-96 0 -96 -141v-305h-379v79q53 80 53 176q0 85 -61 138t-172 53q-73 0 -128.5 -27t-85 -74.5t-29.5 -107.5q0 -56 26 -97v4q0 46 21.5 83t59.5 58t86 21q52 0 93 -21t64.5 -58.5t23.5 -83.5t-24.5 -82.5t-68 -57.5t-97.5 -21
q-85 0 -150.5 33.5t-102 91.5t-36.5 130q0 85 43.5 152t122.5 104.5t182 37.5q99 0 176.5 -35.5t120 -98.5t42.5 -142q0 -95 -47 -176h167v236q0 98 50 157t140 59q50 0 90.5 -22t67.5 -62q28 40 71.5 62t95.5 22q112 0 173.5 -82zM288.5 202.5q-23.5 -23.5 -23.5 -59.5
q0 -35 23.5 -58t58.5 -23q36 0 59.5 23t23.5 58q0 36 -23.5 59.5t-59.5 23.5q-35 0 -58.5 -23.5z" />
    <glyph glyph-name="tm_I" unicode="&#xb87;" horiz-adv-x="1056" 
d="M765.5 664q96.5 -47 150 -131t53.5 -189v-492h-101v490q0 82 -40.5 146.5t-114 101t-167.5 36.5q-106 0 -185 -37t-122 -103t-43 -151q0 -110 52 -206q81 23 177 23q85 0 162 -22q41 82 41 176q0 63 -35 101.5t-97 38.5q-24 0 -41 -4q37 -13 59 -43t22 -70
q-1 -56 -39.5 -92.5t-97.5 -36.5q-61 0 -100.5 36.5t-39.5 92.5q0 58 29 104t83 72t125 26t124 -29t81 -80t28 -116q0 -112 -54 -212q58 -31 90 -75.5t32 -95.5q0 -53 -42.5 -87t-109.5 -34q-115 0 -227 52q-115 -52 -238 -52q-67 0 -109.5 34t-42.5 87q0 51 34.5 95.5
t95.5 75.5q-63 113 -63 241q0 109 56 194.5t158 133.5t237 48q123 0 219.5 -47zM438 288q16 16 16 41q0 24 -16 39.5t-40 15.5q-25 0 -41.5 -15.5t-16.5 -39.5q0 -25 16 -41t41 -16t41 16zM298 54q52 -64 120 -105q71 42 121 105q-57 13 -114 13q-64 0 -127 -13zM326 -92
q-70 50 -120 113q-73 -39 -73 -94q0 -17 17 -28.5t43 -11.5q69 0 133 21zM675 -22.5q-17 23.5 -48 42.5q-49 -64 -118 -113q62 -20 123 -20q25 0 42.5 11.5t17.5 28.5q0 27 -17 50.5z" />
    <glyph glyph-name="tm_Ii" unicode="&#xb88;" horiz-adv-x="784" 
d="M437 0v434h-249v-434h-100v513h671l15 -79h-236v-434h-101zM356.5 170.5q17.5 17.5 17.5 44.5q0 26 -17.5 43.5t-44.5 17.5q-26 0 -43.5 -17.5t-17.5 -43.5q0 -27 17.5 -44.5t43.5 -17.5q27 0 44.5 17.5zM706 170.5q18 17.5 18 44.5q0 26 -18 43.5t-45 17.5
q-25 0 -42.5 -17.5t-17.5 -43.5q0 -27 17 -44.5t43 -17.5q27 0 45 17.5z" />
    <glyph glyph-name="tm_Ja" unicode="&#xb9c;" horiz-adv-x="816" 
d="M725 55q43 -42 43 -110q0 -42 -23 -75.5t-65 -52.5t-97 -19h-94v79h94q34 0 57 19.5t23 48.5q0 30 -16.5 48.5t-41.5 18.5q-38 0 -66.5 -22t-69.5 -69q-35 -40 -62.5 -65t-67 -43t-89.5 -18q-59 0 -105 23.5t-71.5 64.5t-25.5 94q0 89 63.5 143.5t206.5 74.5l180 24
q82 11 123 47t42 89q0 40 -23 65.5t-61 25.5q-46 0 -73.5 -29.5t-27.5 -73.5v-69h-100v69q0 45 -31.5 74t-84.5 29q-37 0 -69 -19q44 -5 71 -34t27 -71q0 -47 -34 -78.5t-86 -31.5t-86 34.5t-34 86.5q0 55 27.5 100t75.5 71.5t108 26.5q51 0 93 -20t72 -56q28 36 66.5 56
t85.5 20q55 0 98 -22.5t67 -62.5t24 -91q0 -88 -67.5 -146.5t-202.5 -76.5l-180 -24q-89 -12 -126.5 -44t-38.5 -87q0 -42 26 -69.5t71 -27.5q39 0 71 23.5t78 72.5q37 39 65 63t64.5 41t80.5 17q73 0 116 -42zM207 351.5q-12 12.5 -31 12.5q-20 0 -32.5 -12.5t-12.5 -31.5
t12.5 -31t32.5 -12q19 0 31 12t12 31t-12 31.5z" />
    <glyph glyph-name="tm_Ka" unicode="&#xb95;" horiz-adv-x="768" 
d="M683.5 261.5q57.5 -45.5 57.5 -118.5q0 -47 -27 -83.5t-78.5 -57t-122.5 -20.5v80q61 0 91.5 21.5t30.5 59.5q0 39 -27 62t-82 23h-30v-23q0 -64 -30 -115t-86 -79.5t-131 -28.5q-63 0 -111 21t-74 58.5t-26 84.5q0 52 30.5 90t86.5 57v220h506l15 -79h-180v-127h29
q101 0 158.5 -45.5zM395 434h-139v-127h139v127zM395 228h-139q-54 0 -83.5 -22t-29.5 -60q0 -35 28.5 -57t77.5 -22q69 0 107.5 38t38.5 100v23z" />
    <glyph glyph-name="tm_La" unicode="&#xbb2;" horiz-adv-x="1066" 
d="M996.5 379.5q21.5 -78.5 21.5 -142.5q0 -117 -55.5 -186t-161.5 -69q-97 0 -150 60t-53 167v46q0 88 -57 139t-156 51q-72 0 -124.5 -27t-80 -74t-27.5 -107q0 -57 27 -99v6q0 46 21.5 82.5t59.5 57.5t85 21q52 0 93 -21t64.5 -58t23.5 -83t-24.5 -82.5t-68 -57.5
t-97.5 -21q-85 0 -150.5 33.5t-102 91.5t-36.5 130q0 83 41 150t117.5 105.5t178.5 38.5q94 0 165 -34t109.5 -96.5t38.5 -145.5v-46q0 -70 27 -105.5t79 -35.5q56 0 82.5 45t26.5 124q0 63 -21.5 141t-60.5 135l102 14q42 -69 63.5 -147.5zM288.5 202.5
q-23.5 -23.5 -23.5 -59.5q0 -35 23.5 -58t58.5 -23q36 0 59.5 23t23.5 58q0 36 -23.5 59.5t-59.5 23.5q-35 0 -58.5 -23.5z" />
    <glyph glyph-name="tm_Lla" unicode="&#xbb3;" horiz-adv-x="1248" 
d="M1238 434h-183v-434h-100v434h-225v-434h-101v228q0 62 -31 112t-86 78t-125 28q-72 0 -125 -27t-81 -74.5t-28 -107.5q0 -56 26 -97v4q0 46 21.5 83t59.5 58t86 21q52 0 93 -21t64.5 -58.5t23.5 -83.5t-24.5 -82.5t-68 -57.5t-97.5 -21q-85 0 -150.5 33.5t-102 91.5
t-36.5 130q0 85 42 152t118.5 104.5t178.5 37.5q74 0 136.5 -26.5t105.5 -73.5v82h594zM288.5 202.5q-23.5 -23.5 -23.5 -59.5q0 -35 23.5 -58t58.5 -23q36 0 59.5 23t23.5 58q0 36 -23.5 59.5t-59.5 23.5q-35 0 -58.5 -23.5z" />
    <glyph glyph-name="tm_Llla" unicode="&#xbb4;" horiz-adv-x="872" 
d="M483 0v-27q0 -39 17 -56t50 -17h149l15 -78h-171q-26 -55 -83.5 -89.5t-130.5 -34.5q-61 0 -109 23t-75 65t-27 96h101q0 -44 31 -71t79 -27q45 0 75.5 17.5t42.5 46.5q-30 15 -47.5 44t-17.5 68v40h-294v513l100 5v-439h194v227q0 105 53 165t149 60q73 0 127.5 -38
t83.5 -105t29 -153q0 -108 -55.5 -171.5t-167.5 -63.5h-118zM483 79h118q66 0 92 40.5t26 115.5q0 95 -35 153t-100 58q-101 0 -101 -143v-224z" />
    <glyph glyph-name="tm_Ma" unicode="&#xbae;" horiz-adv-x="872" 
d="M711.5 493q54.5 -38 83.5 -105t29 -153q0 -108 -55.5 -171.5t-167.5 -63.5h-513v513l100 5v-439h194v227q0 105 53 165t149 60q73 0 127.5 -38zM693 119.5q26 40.5 26 115.5q0 95 -35 153t-100 58q-101 0 -101 -143v-224h118q66 0 92 40.5z" />
    <glyph glyph-name="tm_Na" unicode="&#xba8;" horiz-adv-x="794" 
d="M653 317.5q45 -31.5 69.5 -87t24.5 -126.5q0 -83 -31 -147.5t-90 -101t-138 -36.5h-153q-69 0 -107 -15.5t-59 -46.5l-81 49q45 91 240 91h160q73 0 113.5 57.5t40.5 149.5q0 71 -26 114.5t-74 43.5q-41 0 -68 -28.5t-27 -71.5v-162h-100v434h-159v-434h-100v513h527
l15 -79h-183v-119q45 34 103 34t103 -31.5z" />
    <glyph glyph-name="tm_Nga" unicode="&#xb99;" horiz-adv-x="1022" 
d="M934 513v-513h-587v79h146q65 0 97 31t32 84q0 39 -22.5 66t-59.5 27q-41 0 -67 -26.5t-26 -65.5v-39h-100v278h-159v-434h-100v513h527l15 -79h-183v-91q46 30 104 30q79 0 127.5 -49.5t48.5 -129.5q0 -69 -40 -115h147v434h100z" />
    <glyph glyph-name="tm_Nna" unicode="&#xba3;" horiz-adv-x="1755" 
d="M1745 434h-182v-434h-101v434h-89q-62 0 -116 -20q45 -48 69 -108t24 -128q0 -87 -49.5 -141.5t-132.5 -54.5q-55 0 -97 25t-64.5 69.5t-22.5 101.5q0 69 29.5 130.5t82.5 107.5q-63 30 -135 30q-78 0 -141 -34q56 -47 86.5 -107.5t30.5 -126.5q0 -87 -50 -141.5
t-133 -54.5q-55 0 -97 25t-64.5 69.5t-22.5 101.5q0 64 24 123t68 106q-87 39 -195 39q-95 0 -166 -28t-109.5 -77t-38.5 -111q0 -55 26 -95v9q0 46 21.5 83t59.5 58t86 21q52 0 93 -21t64.5 -58.5t23.5 -83.5t-24.5 -82.5t-68 -57.5t-97.5 -21q-85 0 -150.5 32t-102 88.5
t-36.5 127.5q0 86 52 154.5t147 107.5t220 39q75 0 143.5 -16.5t125.5 -46.5q99 63 225 63t222 -59q87 41 190 41h357zM1225.5 279q-19.5 47 -54.5 84q-39 -35 -60 -82.5t-21 -102.5q0 -50 20 -80.5t58 -30.5t57.5 30.5t19.5 80.5q0 54 -19.5 101zM811.5 97.5
q19.5 30.5 19.5 80.5q0 51 -22.5 96t-64.5 81q-32 -36 -50 -81t-18 -96q0 -50 20 -80.5t58 -30.5t57.5 30.5zM288.5 202.5q-23.5 -23.5 -23.5 -59.5q0 -35 23.5 -58t58.5 -23q36 0 59.5 23t23.5 58q0 36 -23.5 59.5t-59.5 23.5q-35 0 -58.5 -23.5z" />
    <glyph glyph-name="tm_Nnna" unicode="&#xba9;" horiz-adv-x="1342" 
d="M1332 434h-182v-434h-101v434h-90q-71 0 -133 -27q53 -47 82 -106t29 -123q0 -87 -50 -141.5t-133 -54.5q-55 0 -97 25t-64.5 69.5t-22.5 101.5q0 65 25.5 122.5t72.5 102.5q-88 43 -201 43q-95 0 -166 -28t-109.5 -77t-38.5 -111q0 -55 26 -95v9q0 46 21.5 83t59.5 58
t86 21q52 0 93 -21t64.5 -58.5t23.5 -83.5t-24.5 -82.5t-68 -57.5t-97.5 -21q-85 0 -150.5 32t-102 88.5t-36.5 127.5q0 86 52 154.5t147 107.5t220 39q78 0 149.5 -18t131.5 -51q96 51 211 51h358zM811.5 97.5q19.5 30.5 19.5 80.5t-22 95t-62 80q-34 -34 -52.5 -79
t-18.5 -96q0 -50 20 -80.5t58 -30.5t57.5 30.5zM288.5 202.5q-23.5 -23.5 -23.5 -59.5q0 -35 23.5 -58t58.5 -23q36 0 59.5 23t23.5 58q0 36 -23.5 59.5t-59.5 23.5q-35 0 -58.5 -23.5z" />
    <glyph glyph-name="tm_Nya" unicode="&#xb9e;" horiz-adv-x="1280" 
d="M1180.5 285.5q51.5 -63.5 51.5 -162.5q0 -117 -68.5 -205t-196.5 -136t-302 -48q-179 0 -314.5 55t-209 156t-73.5 235q0 94 40.5 189t104.5 154l103 -10q-63 -54 -103 -145.5t-40 -189.5q0 -108 62 -189.5t173.5 -125.5t256.5 -44q140 0 244.5 36.5t161 105t56.5 162.5
q0 63 -23 101.5t-73 38.5q-41 0 -69 -31t-28 -75v-157h-100v434h-177q-125 0 -185.5 -53t-60.5 -144q0 -56 26 -97v4q0 46 21.5 83t59.5 58t86 21q52 0 93 -21t64 -58.5t23 -83.5t-24.5 -82.5t-67.5 -57.5t-97 -21q-85 0 -151 33.5t-102.5 91.5t-36.5 130q0 81 39 143.5
t116 97.5t188 35h454l15 -79h-183v-120q45 35 101 35q94 0 145.5 -63.5zM546 202.5q-23 -23.5 -23 -59.5q0 -35 23 -58t59 -23t59.5 23t23.5 58q0 36 -23.5 59.5t-59.5 23.5t-59 -23.5z" />
    <glyph glyph-name="tm_O" unicode="&#xb92;" horiz-adv-x="826" 
d="M581.5 64q29.5 -20 84.5 -20h79v-79h-79q-14 0 -38 2v-13q0 -50 -25.5 -89.5t-72.5 -61.5t-110 -22q-64 0 -112 22t-74 61.5t-26 89.5v46h101v-46q0 -39 29 -63t82 -24t82 24t29 63v45q-37 23 -56.5 60t-19.5 83v127h92q1 -33 20 -53.5t49 -20.5q28 0 45 23t17 61
q0 48 -35.5 86.5t-97 60.5t-138.5 22q-101 0 -174.5 -36.5t-95.5 -96.5q33 27 79 27q58 0 95.5 -34.5t37.5 -87.5q0 -56 -39 -91.5t-100 -35.5q-77 0 -122 48.5t-45 126.5q0 76 46 137t128.5 95t189.5 34q108 0 193.5 -33t134 -91t48.5 -131q0 -75 -46.5 -122t-119.5 -47
q-38 0 -69 17q4 -43 33.5 -63zM173.5 255.5q-14.5 -13.5 -14.5 -35.5t14.5 -36.5t36.5 -14.5q23 0 37.5 14.5t14.5 36.5t-14 35.5t-37 13.5t-37.5 -13.5z" />
    <glyph glyph-name="tm_Om" unicode="&#xbd0;" horiz-adv-x="836" 
d="M581.5 64q29.5 -20 84.5 -20h79v-79h-79q-14 0 -38 2v-13q0 -50 -25.5 -89.5t-72.5 -61.5t-110 -22q-64 0 -112 22t-74 61.5t-26 89.5v46h101v-46q0 -39 29 -63t82 -24t82 24t29 63v45q-37 23 -56.5 60t-19.5 83v127h92q1 -33 20 -53.5t49 -20.5q28 0 45 23t17 61
q0 48 -35.5 86.5t-97 60.5t-138.5 22q-101 0 -174.5 -36.5t-95.5 -96.5q33 27 79 27q58 0 95.5 -34.5t37.5 -87.5q0 -56 -39 -91.5t-100 -35.5q-77 0 -122 48.5t-45 126.5q0 76 46 137t128.5 95t189.5 34q108 0 193.5 -33t134 -91t48.5 -131q0 -75 -46.5 -122t-119.5 -47
q-38 0 -69 17q4 -43 33.5 -63zM173.5 255.5q-14.5 -13.5 -14.5 -35.5t14.5 -36.5t36.5 -14.5q23 0 37.5 14.5t14.5 36.5t-14 35.5t-37 13.5t-37.5 -13.5zM415.5 30.5q-4.5 4.5 -4.5 11.5t4.5 12t11.5 5t11.5 -5t4.5 -12t-4.5 -11.5t-11.5 -4.5t-11.5 4.5zM394 13v-68h21v31
q0 17 10 28t27 11q21 0 32 -13.5t11 -35.5q0 -20 -12 -33t-33 -13h-82v92zM442 -55h10q9 0 13.5 6t4.5 15q0 26 -16 26q-12 0 -12 -17v-30z" />
    <glyph glyph-name="tm_Oo" unicode="&#xb93;" horiz-adv-x="826" 
d="M581.5 64q29.5 -20 84.5 -20h79v-79h-79q-21 0 -38 3v-14q0 -49 -29 -88.5t-81 -62t-117 -22.5q-61 0 -109.5 18.5t-76 51.5t-27.5 74q0 56 41 91t109 35h21v-78h-21q-20 0 -33.5 -14t-13.5 -34q0 -25 31 -41.5t79 -16.5q57 0 93.5 24.5t36.5 62.5v45q-37 24 -56.5 60
t-19.5 83v127h92q1 -33 20 -53.5t49 -20.5q28 0 45 23t17 61q0 48 -35.5 86.5t-97 60.5t-138.5 22q-101 0 -174.5 -36.5t-95.5 -96.5q33 27 79 27q58 0 95.5 -34.5t37.5 -87.5q0 -56 -39 -91.5t-100 -35.5q-77 0 -122 48.5t-45 126.5q0 76 46 137t128.5 95t189.5 34
q108 0 193.5 -33t134 -91t48.5 -131q0 -75 -46.5 -122t-119.5 -47q-38 0 -69 17q4 -43 33.5 -63zM173.5 255.5q-14.5 -13.5 -14.5 -35.5t14.5 -36.5t36.5 -14.5q23 0 37.5 14.5t14.5 36.5t-14 35.5t-37 13.5t-37.5 -13.5z" />
    <glyph glyph-name="tm_Pa" unicode="&#xbaa;" horiz-adv-x="737" 
d="M650 513v-513h-562v513l100 5v-439h361v434h101z" />
    <glyph glyph-name="tm_Ra" unicode="&#xbb0;" horiz-adv-x="706" 
d="M514 434v-422q0 -41 -4 -66.5t-19 -45.5t-46 -33l-283 -117l-38 84l238 99q33 14 42 36.5t9 74.5v390h-225v-434h-100v513h593l15 -79h-182z" />
    <glyph glyph-name="tm_Rra" unicode="&#xbb1;" horiz-adv-x="875" 
d="M766.5 449q61.5 -82 61.5 -216q0 -123 -37.5 -216t-114.5 -145.5t-191 -52.5h-160q-69 0 -107 -15.5t-59 -46.5l-81 49q21 42 83.5 66.5t157.5 24.5h166q119 0 178 91t59 245q0 98 -31.5 155.5t-98.5 57.5q-52 0 -80.5 -36.5t-28.5 -106.5v-303h-101v292q0 67 -28 110.5
t-81 43.5q-48 0 -71.5 -36.5t-23.5 -104.5v-305h-100v315q0 98 49.5 157t139.5 59q50 0 90.5 -22t67.5 -62q28 40 71.5 62t95.5 22q113 0 174.5 -82z" />
    <glyph glyph-name="tm_Sa" unicode="&#xbb8;" horiz-adv-x="1371" 
d="M1301.5 379.5q21.5 -78.5 21.5 -142.5q0 -117 -55 -186t-161 -69q-98 0 -151 59.5t-53 167.5v105q0 62 -21 96.5t-70 34.5q-54 0 -84 -52.5t-30 -137.5v-255h-100v255q0 88 -57 139t-156 51q-72 0 -124.5 -27t-80 -74t-27.5 -107q0 -57 27 -99v6q0 46 21.5 82.5
t59.5 57.5t85 21q52 0 93 -21t64.5 -58t23.5 -83t-24.5 -82.5t-68 -57.5t-97.5 -21q-85 0 -150.5 33.5t-102 91.5t-36.5 130q0 83 41 150t117.5 105.5t178.5 38.5q87 0 154.5 -29.5t107.5 -83.5q25 54 68 83.5t100 29.5q93 0 141 -58t48 -155v-109q0 -70 26.5 -105.5
t78.5 -35.5q56 0 82 45t26 124q0 64 -21 141.5t-61 134.5l103 14q42 -69 63.5 -147.5zM288.5 202.5q-23.5 -23.5 -23.5 -59.5q0 -35 23.5 -58t58.5 -23q36 0 59.5 23t23.5 58q0 36 -23.5 59.5t-59.5 23.5q-35 0 -58.5 -23.5z" />
    <glyph glyph-name="tm_Sha" unicode="&#xbb6;" horiz-adv-x="1107" 
d="M1003.5 449.5q55.5 -63.5 55.5 -170.5q0 -86 -29 -153.5t-83.5 -105.5t-127.5 -38q-96 0 -149.5 59.5t-53.5 165.5v227h-128v-234q0 -102 -54.5 -160t-150.5 -58t-150.5 58t-54.5 160v313l100 5v-316q0 -135 105 -135q104 0 104 135v311h448q113 0 168.5 -63.5z
M918.5 125q34.5 58 34.5 154q0 75 -25.5 115t-92.5 40h-117v-223q0 -144 101 -144q65 0 99.5 58z" />
    <glyph glyph-name="tm_Ssa" unicode="&#xbb7;" horiz-adv-x="1434" 
d="M1357 0h-221v-243h-101v243h-459v79q53 80 53 176q0 85 -61 138t-172 53q-73 0 -128.5 -27t-85 -74.5t-29.5 -107.5q0 -56 26 -97v4q0 46 21.5 83t59.5 58t86 21q52 0 93 -21t64.5 -58.5t23.5 -83.5t-24.5 -82.5t-68 -57.5t-97.5 -21q-85 0 -150.5 33.5t-102 91.5
t-36.5 130q0 85 43.5 152t122.5 104.5t182 37.5q99 0 176.5 -35.5t120 -98.5t42.5 -142q0 -47 -12.5 -92.5t-34.5 -83.5h347v116q-30 -2 -46 -2q-62 0 -110.5 22.5t-76 62t-27.5 88.5q0 74 50.5 119.5t133.5 45.5q80 0 128.5 -46t48.5 -120v-47q38 21 68.5 51t51.5 65h101
v-434zM1035 282v78q0 39 -20 62.5t-56 23.5q-37 0 -57.5 -22t-20.5 -58q0 -37 29.5 -62.5t78.5 -25.5q26 0 46 4zM1256 79v216q-53 -50 -120 -75v-141h120zM288.5 202.5q-23.5 -23.5 -23.5 -59.5q0 -35 23.5 -58t58.5 -23q36 0 59.5 23t23.5 58q0 36 -23.5 59.5t-59.5 23.5
q-35 0 -58.5 -23.5z" />
    <glyph glyph-name="tm_Ta" unicode="&#xba4;" horiz-adv-x="787" 
d="M634.5 277.5q54.5 -29.5 85 -82.5t30.5 -119q0 -74 -36.5 -132.5t-102 -92t-147.5 -33.5h-180q-68 0 -106 -15.5t-58 -46.5l-82 49q21 42 83.5 67t157.5 25h185q52 0 93 23t64 64t23 92q0 66 -37 109t-95 43h-16v-23q0 -64 -30 -115t-86 -79.5t-131 -28.5q-63 0 -111 21
t-74 58.5t-26 84.5q0 52 30.5 90t86.5 57v220h506l15 -79h-180v-127h15q69 0 123.5 -29.5zM395 434h-139v-127h139v127zM395 228h-139q-54 0 -83.5 -22t-29.5 -60q0 -35 28.5 -57t77.5 -22q69 0 107.5 38t38.5 100v23z" />
    <glyph glyph-name="tm_Tta" unicode="&#xb9f;" horiz-adv-x="726" 
d="M701 79h-513v439l-100 -5v-513h628z" />
    <glyph glyph-name="tm_U" unicode="&#xb89;" horiz-adv-x="999" 
d="M989 79v-79h-915v79h222q62 0 109 25t73 69t26 100q0 50 -23 89t-65 61.5t-97 22.5q-76 0 -131 -37h9q67 0 109 -39t42 -99q0 -40 -20.5 -72.5t-56.5 -51t-81 -18.5q-71 0 -116.5 42.5t-45.5 108.5q0 71 38 128.5t104.5 90t148.5 32.5q85 0 151 -33.5t103 -92t37 -132.5
q0 -59 -23 -109t-66 -85h468zM239 322q-20 20 -51 20t-51 -20t-20 -50v-1q0 -30 20 -50t51 -20t51 20t20 50q0 31 -20 51z" />
    <glyph glyph-name="tm_Uu" unicode="&#xb8a;" horiz-adv-x="1647" 
d="M1637 79v-79h-1563v79h222q62 0 109 25t73 69t26 100q0 50 -23 89t-65 61.5t-97 22.5q-76 0 -131 -37h9q67 0 109 -39t42 -99q0 -40 -20.5 -72.5t-56.5 -51t-81 -18.5q-71 0 -116.5 42.5t-45.5 108.5q0 71 38 128.5t104.5 90t148.5 32.5q85 0 151 -33.5t103 -92
t37 -132.5q0 -59 -23.5 -108.5t-66.5 -85.5h1117zM787.5 141.5q-52.5 24.5 -82.5 68t-30 97.5q0 64 32.5 114.5t91.5 79t136 28.5q52 0 97.5 -18t78.5 -51v53h471l15 -79h-132v-303h-101v303h-152v-303h-101v158q0 44 -22.5 79.5t-63 55.5t-90.5 20q-69 0 -112.5 -38.5
t-43.5 -98.5q0 -30 12 -56q1 52 37 84t91 32q60 0 98.5 -33.5t38.5 -87.5q0 -55 -41.5 -92t-107.5 -37q-67 0 -119.5 24.5zM239 322q-20 20 -51 20t-51 -20t-20 -50v-1q0 -30 20 -50t51 -20t51 20t20 50q0 31 -20 51zM877.5 282.5q-15.5 -14.5 -15.5 -37.5t15.5 -38.5
t39.5 -15.5q22 0 37 15.5t15 38.5t-14.5 37.5t-37.5 14.5q-24 0 -39.5 -14.5z" />
    <glyph glyph-name="tm_Va" unicode="&#xbb5;" horiz-adv-x="1074" 
d="M987 513v-513h-411v79q53 80 53 176q0 86 -60.5 138.5t-172.5 52.5q-73 0 -128.5 -27t-85 -74.5t-29.5 -107.5q0 -56 26 -97v4q0 46 22 83t60 58t85 21q52 0 93 -21t64.5 -58.5t23.5 -83.5t-24.5 -82.5t-68 -57.5t-97.5 -21q-85 0 -150.5 33.5t-102 91.5t-36.5 130
q0 85 43.5 152t122.5 104.5t182 37.5q99 0 176.5 -35.5t120 -98.5t42.5 -142q0 -47 -12.5 -92.5t-34.5 -83.5h198v434h101zM288.5 202.5q-23.5 -23.5 -23.5 -59.5q0 -35 23.5 -58t58.5 -23q36 0 59.5 23t23.5 58q0 36 -23.5 59.5t-59.5 23.5q-35 0 -58.5 -23.5z" />
    <glyph glyph-name="tm_Visarga" unicode="&#xb83;" horiz-adv-x="682" 
d="M402.5 304q28.5 16 46 43t17.5 59q0 34 -17.5 61.5t-46 43.5t-61.5 16t-61.5 -16t-46 -43.5t-17.5 -61.5q0 -32 17.5 -59t46 -43t61.5 -16t61.5 16zM306.5 374q-13.5 13 -13.5 33q0 21 13.5 34t34.5 13q20 0 33.5 -13t13.5 -34q0 -20 -13.5 -33t-33.5 -13q-21 0 -34.5 13
zM234 2q29 16 46.5 43t17.5 60t-17.5 60.5t-46.5 43.5t-62 16q-32 0 -60.5 -16t-46 -43.5t-17.5 -60.5t17.5 -60t46 -43t60.5 -16q33 0 62 16zM571 2q29 16 46.5 43t17.5 60t-17.5 60.5t-46.5 43.5t-62 16q-32 0 -61 -16t-46.5 -43.5t-17.5 -60.5t17.5 -60t46.5 -43t61 -16
q33 0 62 16zM138.5 72q-13.5 13 -13.5 33t13.5 34t33.5 14q21 0 34.5 -14t13.5 -34t-13.5 -33t-34.5 -13q-20 0 -33.5 13zM475.5 72q-13.5 13 -13.5 33t13.5 34t33.5 14q21 0 34.5 -14t13.5 -34t-13.5 -33t-34.5 -13q-20 0 -33.5 13z" />
    <glyph glyph-name="tm_Ya" unicode="&#xbaf;" horiz-adv-x="955" 
d="M867 513v-513h-462v32q-52 -50 -125 -50q-97 0 -149.5 58t-52.5 160v313l100 5v-316q0 -67 25.5 -101t79.5 -34q60 0 91 42.5t31 113.5v290h101v-434h260v434h101z" />
    <glyph glyph-name="tm_Eight" unicode="&#xbee;" horiz-adv-x="1087" 
d="M1000 513v-639h-101v181h-193q-49 -93 -148 -146t-234 -53q-85 0 -152.5 22t-105.5 60.5t-38 87.5t35.5 78t105.5 29h90q-30 31 -47 72t-17 88q0 68 34 122.5t94 85t136 30.5q86 0 151.5 -39t101 -108.5t35.5 -156.5q0 -49 -12 -94h164v380h101zM641 227
q0 98 -48.5 158.5t-133.5 60.5q-68 0 -113 -43t-45 -110q0 -71 38.5 -115.5t97.5 -44.5h189q15 44 15 94zM478 -29q67 30 108 84h-420q-17 0 -25 -8t-8 -21q0 -23 24 -42.5t67.5 -31t99.5 -11.5q87 0 154 30z" />
    <glyph glyph-name="tm_Five" unicode="&#xbeb;" horiz-adv-x="1335" 
d="M1147 0v307q0 119 -60.5 208t-171 137.5t-256.5 48.5q-148 0 -258 -60t-169 -166t-59 -242q0 -118 50.5 -212t146 -147t225.5 -53q106 0 187.5 35.5t126.5 99.5t45 148q0 71 -26 114.5t-73 43.5q-41 0 -68.5 -28.5t-27.5 -71.5v-162h-100v434h-169v-434h-101v513h538
l15 -79h-183v-119q45 34 103 34q59 0 104 -31.5t69.5 -87t24.5 -126.5q0 -109 -59 -193t-164.5 -130.5t-241.5 -46.5q-160 0 -279.5 64.5t-183.5 178.5t-64 258q0 160 72.5 285.5t206.5 196.5t312 71q174 0 307.5 -59.5t207 -168t73.5 -251.5v-309h-100z" />
    <glyph glyph-name="tm_Four" unicode="&#xbea;" horiz-adv-x="884" 
d="M847 228h-351v-23q0 -64 -30 -115t-86 -79.5t-131 -28.5q-63 0 -111 21t-74 58.5t-26 84.5q0 52 30.5 90t86.5 57v220h506l15 -79h-180v-127h255v206h96v-285zM395 434h-139v-127h139v127zM395 228h-139q-54 0 -83.5 -22t-29.5 -60q0 -35 28.5 -57t77.5 -22
q69 0 107.5 38t38.5 100v23z" />
    <glyph glyph-name="tm_Nine" unicode="&#xbef;" horiz-adv-x="1039" 
d="M914 303.5q46 -23.5 72 -65t26 -93.5q0 -42 -9 -75.5t-29 -75.5l-103 6q16 33 26 73t10 72q0 45 -26 70.5t-70 25.5q-16 0 -24 -1q50 -53 50 -124q0 -58 -40.5 -96t-102.5 -38q-61 0 -101.5 38t-40.5 96q0 61 38 112h-94v-23q0 -64 -30 -115t-86 -79.5t-131 -28.5
q-63 0 -111 21t-74 58.5t-26 84.5q0 52 30.5 90t86.5 57v220h506l15 -79h-180v-127h130q31 0 56 -7q60 27 129 27q57 0 103 -23.5zM395 434h-139v-127h139v127zM395 228h-139q-54 0 -83.5 -22t-29.5 -60q0 -35 28.5 -57t77.5 -22q69 0 107.5 38t38.5 100v23zM730 169
q-13 24 -36 39q-23 -17 -35.5 -40.5t-12.5 -51.5q0 -24 13.5 -40t34.5 -16t35 16t14 40q0 29 -13 53z" />
    <glyph glyph-name="tm_One" unicode="&#xbe7;" horiz-adv-x="768" 
d="M683.5 261.5q57.5 -45.5 57.5 -118.5q0 -47 -27 -83.5t-78.5 -57t-122.5 -20.5v80q61 0 91.5 21.5t30.5 59.5q0 39 -27 62t-82 23h-30v-23q0 -64 -30 -115t-86 -79.5t-131 -28.5q-63 0 -111 21t-74 58.5t-26 84.5q0 52 30.5 90t86.5 57v220h506l15 -79h-180v-127h29
q101 0 158.5 -45.5zM395 434h-139v-127h139v127zM395 228h-139q-54 0 -83.5 -22t-29.5 -60q0 -35 28.5 -57t77.5 -22q69 0 107.5 38t38.5 100v23z" />
    <glyph glyph-name="tm_Seven" unicode="&#xbed;" horiz-adv-x="794" 
d="M706 0h-101v434h-203q-125 0 -185.5 -53t-60.5 -144q0 -56 25 -96v3q0 46 21.5 83t60 58t86.5 21q51 0 92 -21t64.5 -58.5t23.5 -83.5t-24.5 -82.5t-68 -57.5t-97.5 -21q-84 0 -150 33.5t-102.5 91.5t-36.5 130q0 81 39 143.5t116 97.5t188 35h313v-513zM290.5 202.5
q-23.5 -23.5 -23.5 -59.5q0 -35 23.5 -58t59.5 -23t59.5 23t23.5 58q0 36 -23.5 59.5t-59.5 23.5t-59.5 -23.5z" />
    <glyph glyph-name="tm_Six" unicode="&#xbec;" horiz-adv-x="1100" 
d="M1090 79v-79h-301v79q47 0 72 23t25 60q0 34 -22.5 56t-59.5 22q-46 0 -74 -29t-28 -73v-138h-100v138q0 87 -106 90v-23q0 -64 -30 -115t-86 -79.5t-131 -28.5q-63 0 -111 21t-74 58.5t-26 84.5q0 52 30.5 90t86.5 57v220h506l15 -79h-180v-127q100 -1 156 -51
q27 33 68 51t91 18q54 0 95 -20.5t63.5 -56.5t22.5 -81q0 -50 -30 -88h128zM395 434h-139v-127h139v127zM356.5 105q38.5 38 38.5 100v23h-139q-54 0 -83.5 -22t-29.5 -60q0 -35 28.5 -57t77.5 -22q69 0 107.5 38z" />
    <glyph glyph-name="tm_Three" unicode="&#xbe9;" horiz-adv-x="853" 
d="M843 79v-79h-496v79h146q65 0 97 31t32 84q0 39 -22.5 66t-59.5 27q-41 0 -67 -26.5t-26 -65.5v-39h-100v278h-159v-434h-100v513h527l15 -79h-183v-91q46 30 104 30q79 0 127.5 -49.5t48.5 -129.5q0 -69 -41 -115h157z" />
    <glyph glyph-name="tm_Two" unicode="&#xbe8;" horiz-adv-x="787" 
d="M777 79v-79h-703v79h222q62 0 109 25t73 69t26 100q0 50 -23 89t-65 61.5t-97 22.5q-76 0 -131 -37h9q67 0 109 -39t42 -99q0 -40 -20.5 -72.5t-56.5 -51t-81 -18.5q-71 0 -116.5 42.5t-45.5 108.5q0 71 38 128.5t104.5 90t148.5 32.5q85 0 151 -33.5t103 -92t37 -132.5
q0 -59 -23 -109t-66 -85h256zM239 322q-20 20 -51 20t-51 -20t-20 -50v-1q0 -30 20 -50t51 -20t51 20t20 50q0 31 -20 51z" />
    <glyph glyph-name="tm_Zero" unicode="&#xbe6;" horiz-adv-x="709" 
d="M511 495.5q70 -35.5 110 -97.5t41 -141q-1 -79 -41 -141.5t-110 -98t-157 -35.5t-156.5 35.5t-109.5 98t-40 141.5q0 78 40 140.5t110 98t156 35.5q87 0 157 -35.5zM457.5 91.5q45.5 24.5 72 67.5t26.5 98q0 54 -26.5 97t-72 67.5t-103.5 24.5q-57 0 -102.5 -24.5
t-72 -67.5t-26.5 -97q0 -55 26.5 -98t72 -67.5t102.5 -24.5q58 0 103.5 24.5z" />
    <glyph glyph-name="tm_Hundred" unicode="&#xbf1;" horiz-adv-x="1024" 
d="M832 434v-434h-101v434h-225v-434h-101v290q0 71 -31 113.5t-91 42.5q-54 0 -79.5 -34t-25.5 -101v-311h-100v313q0 102 52.5 160t149.5 58q72 0 125 -51v33h594l15 -79h-182z" />
    <glyph glyph-name="tm_Ten" unicode="&#xbf0;" horiz-adv-x="834" 
d="M765.5 379.5q21.5 -78.5 21.5 -142.5q0 -117 -54.5 -186t-160.5 -69q-98 0 -155 66q-27 -32 -66 -49t-89 -17q-106 0 -160 68.5t-54 186.5q0 64 21 142.5t63 147.5l103 -14q-40 -57 -61 -134.5t-21 -141.5q0 -79 26 -124t82 -45q52 0 78.5 35.5t26.5 105.5v129h101v-129
q0 -70 27 -105.5t79 -35.5q56 0 82 45t26 124q0 64 -21 141.5t-61 134.5l103 14q42 -69 63.5 -147.5z" />
    <glyph glyph-name="tm_Thousand" unicode="&#xbf2;" horiz-adv-x="1122" 
d="M999 124.5q45 -24.5 70 -68t25 -97.5q0 -59 -28 -105.5t-79 -73t-118 -26.5h-153q-59 0 -90 -10t-44 -29l-71 53q18 34 63.5 49.5t134.5 15.5h160q57 0 91 35.5t34 90.5q0 46 -24.5 76t-66.5 30h-12v-2q0 -82 -58 -128t-147 -46q-81 0 -128 37.5t-47 95.5q0 57 45.5 92
t120.5 35h114v79h-295v-23q0 -64 -30 -115t-86 -79.5t-131 -28.5q-63 0 -111 21t-74 58.5t-26 84.5q0 52 30.5 90t86.5 57v220h506l15 -79h-180v-127h553l11 -79h-169v-79h5q58 0 103 -24.5zM395 434h-139v-127h139v127zM395 228h-139q-54 0 -83.5 -22t-29.5 -60
q0 -35 28.5 -57t77.5 -22q69 0 107.5 38t38.5 100v23zM760.5 -2q29.5 24 30.5 67h-114q-29 0 -45 -12.5t-16 -32.5q0 -18 19 -32t51 -14q45 0 74.5 24z" />
    <glyph glyph-name="tm_Rupee" unicode="&#xbf9;" horiz-adv-x="1137" 
d="M996 317.5q45 -31.5 69.5 -87t24.5 -126.5q0 -110 -60 -194t-168 -130t-246 -46q-167 0 -291 68t-190.5 192t-66.5 289q0 168 71 304t201 213.5t299 77.5q122 0 212 -26.5t138 -73.5t48 -106q0 -52 -35.5 -85.5t-90.5 -33.5t-91 34t-36 85q0 31 12.5 56t35.5 41
q-76 22 -185 22q-142 0 -249.5 -66t-166 -182t-58.5 -261q0 -139 53.5 -243.5t153.5 -161t236 -56.5q108 0 191.5 35t130 99t46.5 149q0 71 -26 114.5t-73 43.5q-42 0 -69 -28t-27 -72v-162h-100v434h-189v-434h-101v513h558l15 -79h-183v-119q45 34 103 34q59 0 104 -31.5z
M947 636.5q14 13.5 14 34.5t-14 35t-36 14q-21 0 -35 -14t-14 -35t14 -34.5t35 -13.5q22 0 36 13.5z" />
    <glyph glyph-name="tm_Enn" unicode="&#xbfa;" horiz-adv-x="1052" 
d="M1052 629v-78h-278v78q32 0 50.5 21.5t18.5 54.5q0 39 -30 63t-80 24q-22 0 -43 -3q47 -53 47 -118q0 -59 -40 -96.5t-101 -37.5q-62 0 -102.5 37.5t-40.5 96.5q0 64 54 120q-8 1 -26 1q-67 0 -107.5 -39t-40.5 -101q0 -61 36.5 -100t92.5 -39h153l15 -79h-183v-119
q45 34 103 34t103 -31.5t69.5 -87t24.5 -126.5q0 -83 -31 -147.5t-90 -101t-138 -36.5h-153q-69 0 -107 -15.5t-59 -46.5l-81 49q45 91 240 91h160q73 0 113.5 57.5t40.5 149.5q0 71 -26 114.5t-74 43.5q-41 0 -68 -28.5t-27 -71.5v-162h-100v434h-159v-434h-100v513h190
q-51 59 -51 139q0 65 32 116.5t89.5 80.5t132.5 29q66 0 122 -25q61 25 134 25q61 0 109.5 -22.5t76 -62t27.5 -88.5q0 -39 -24 -76h126zM600 761q-53 -32 -53 -90q0 -23 14 -38.5t35 -15.5q20 0 33.5 15.5t13.5 38.5q0 58 -43 90z" />
    <glyph glyph-name="tm_Maatham" unicode="&#xbf4;" horiz-adv-x="1284" 
d="M1284 629v-78h-278v78q32 0 51 21.5t19 54.5q0 39 -30.5 63t-80.5 24q-22 0 -43 -3q47 -53 47 -118q0 -59 -40 -96.5t-101 -37.5q-62 0 -102.5 37.5t-40.5 96.5q0 64 54 120q-8 1 -26 1q-67 0 -107.5 -39t-40.5 -101q0 -45 20.5 -79t55.5 -48q85 -21 134 -99.5t49 -190.5
q0 -108 -55.5 -171.5t-167.5 -63.5h-513v513l100 5v-439h194v227q0 81 32 136t92 76q-46 57 -46 134q0 65 31.5 116.5t89 80.5t132.5 29q66 0 122 -25q63 25 135 25q61 0 109 -22.5t75 -62t27 -88.5q0 -41 -23 -76h126zM832 761q-53 -33 -53 -90q0 -23 14 -38.5t35 -15.5
q20 0 33.5 15.5t13.5 38.5q0 58 -43 90zM684 388q-35 58 -100 58q-101 0 -101 -143v-224h118q66 0 92 40.5t26 115.5q0 95 -35 153z" />
    <glyph glyph-name="tm_Merpadi" unicode="&#xbf8;" horiz-adv-x="1938" 
d="M1850 0h-221v-243h-100v243h-460v79q20 48 30 99t10 93q0 79 -44 127t-129 48q-64 0 -121 -30q58 -48 90 -109.5t32 -128.5q0 -87 -50 -141.5t-133 -54.5q-55 0 -97 25t-64.5 69.5t-22.5 101.5q0 64 24.5 122.5t67.5 106.5q-87 39 -195 39q-95 0 -166 -28t-109.5 -77
t-38.5 -111q0 -55 26 -95v9q0 46 21.5 83t59.5 58t86 21q52 0 93 -21t64.5 -58.5t23.5 -83.5t-24.5 -82.5t-68 -57.5t-97.5 -21q-85 0 -150.5 32t-102 88.5t-36.5 127.5q0 86 52 154.5t147 107.5t220 39q147 0 268 -62q45 30 96.5 46t104.5 16q88 0 150.5 -33t95 -92
t32.5 -135q0 -91 -39 -192h354v117q-22 -3 -47 -3q-62 0 -110 22.5t-75.5 62t-27.5 88.5q0 74 50.5 119.5t132.5 45.5q80 0 128.5 -46t48.5 -120v-48q77 44 120 117h101v-434zM1529 282v78q0 39 -20 62.5t-57 23.5t-57 -22t-20 -58q0 -37 29 -62.5t78 -25.5q27 0 47 4z
M811.5 97.5q19.5 30.5 19.5 80.5q0 52 -23 97.5t-66 81.5q-31 -36 -48.5 -82t-17.5 -97q0 -50 20 -80.5t58 -30.5t57.5 30.5zM1749 79v215q-54 -49 -120 -74v-141h120zM288.5 202.5q-23.5 -23.5 -23.5 -59.5q0 -35 23.5 -58t58.5 -23q36 0 59.5 23t23.5 58q0 36 -23.5 59.5
t-59.5 23.5q-35 0 -58.5 -23.5z" />
    <glyph glyph-name="tm_Naal" unicode="&#xbf3;" horiz-adv-x="896" 
d="M886 79v-79h-310v79q53 80 53 176q0 85 -61 138t-172 53q-73 0 -128.5 -27t-85 -74.5t-29.5 -107.5q0 -56 26 -97v4q0 46 21.5 83t59.5 58t86 21q52 0 93 -21t64.5 -58.5t23.5 -83.5t-24.5 -82.5t-68 -57.5t-97.5 -21q-85 0 -150.5 33.5t-102 91.5t-36.5 130
q0 85 43.5 152t122.5 104.5t182 37.5q99 0 176.5 -35.5t120 -98.5t42.5 -142q0 -47 -12.5 -92.5t-34.5 -83.5h198zM288.5 202.5q-23.5 -23.5 -23.5 -59.5q0 -35 23.5 -58t58.5 -23q36 0 59.5 23t23.5 58q0 36 -23.5 59.5t-59.5 23.5q-35 0 -58.5 -23.5z" />
    <glyph glyph-name="tm_Patru" unicode="&#xbf6;" horiz-adv-x="1017" 
d="M929 -162h-286q-23 -85 -111 -136t-217 -51q-69 0 -120.5 18t-79 49.5t-27.5 72.5q0 56 43 90.5t119 34.5h299v84h-461v513l100 5v-439h361v434h101v-597h179v597h100v-675zM455 -236q58 27 81 74h-285q-30 0 -44 -12.5t-14 -34.5q0 -25 32.5 -39.5t89.5 -14.5
q82 0 140 27z" />
    <glyph glyph-name="tm_Varavu" unicode="&#xbf7;" horiz-adv-x="1405" 
d="M1395 79v-79h-278v79q32 0 51 21.5t19 53.5q0 40 -30 63.5t-87 23.5q-29 0 -50 -4q51 -51 51 -121q0 -58 -40.5 -96t-101.5 -38q-62 0 -102.5 37.5t-40.5 96.5q0 62 42 112h-6h-119v-228h-101v434h-202q-125 0 -186 -53t-61 -144q0 -56 26 -97v4q0 46 21.5 83t59.5 58
t86 21q52 0 93 -21t64.5 -58.5t23.5 -83.5t-24.5 -82.5t-68 -57.5t-97.5 -21q-85 0 -150.5 33.5t-102 91.5t-36.5 130q0 81 39 143.5t116 97.5t188 35h480l14 -79h-182v-127h128q48 0 87 -12q72 32 157 32q66 0 115 -22t75.5 -61.5t26.5 -89.5q0 -41 -23 -75h126z
M288.5 202.5q-23.5 -23.5 -23.5 -59.5q0 -35 23.5 -58t58.5 -23q36 0 59.5 23t23.5 58q0 36 -23.5 59.5t-59.5 23.5q-35 0 -58.5 -23.5zM929 204q-48 -34 -48 -88q0 -23 13.5 -38.5t34.5 -15.5t34.5 15.5t13.5 38.5q0 59 -48 88z" />
    <glyph glyph-name="tm_Varudam" unicode="&#xbf5;" horiz-adv-x="1826" 
d="M1684 317.5q45 -31.5 69.5 -87t24.5 -126.5q0 -118 -64.5 -203.5t-185.5 -131t-288 -45.5h-613q-170 0 -296.5 54t-194.5 154.5t-68 237.5q0 95 41 195t104 158l103 -10q-62 -53 -102.5 -149.5t-40.5 -195.5q0 -111 55.5 -193.5t158 -127t240.5 -44.5h613q134 0 231 36
t149 104t52 161q0 71 -26 114.5t-73 43.5q-41 0 -68.5 -28.5t-27.5 -71.5v-162h-100v434h-166v-434h-378v79q54 82 54 176q0 86 -60.5 138.5t-172.5 52.5q-73 0 -128.5 -27t-85 -74.5t-29.5 -107.5q0 -56 26 -97v4q0 46 21.5 83t59.5 58t86 21q52 0 93 -21t64 -58.5
t23 -83.5t-24.5 -82.5t-67.5 -57.5t-97 -21q-85 0 -151 33.5t-102.5 91.5t-36.5 130q0 85 43.5 152t123 104.5t182.5 37.5q99 0 176.5 -35.5t120 -98.5t42.5 -142q0 -47 -12.5 -92.5t-34.5 -83.5h164v434h535l15 -79h-183v-119q47 34 103 34q59 0 104 -31.5zM546 202.5
q-23 -23.5 -23 -59.5q0 -35 23 -58t59 -23t59.5 23t23.5 58q0 36 -23.5 59.5t-59.5 23.5t-59 -23.5z" />
    <glyph glyph-name="tm_AuLengthMark" unicode="&#xbd7;" horiz-adv-x="1248" 
d="M1238 434h-183v-434h-100v434h-225v-434h-101v228q0 62 -31 112t-86 78t-125 28q-72 0 -125 -27t-81 -74.5t-28 -107.5q0 -56 26 -97v4q0 46 21.5 83t59.5 58t86 21q52 0 93 -21t64.5 -58.5t23.5 -83.5t-24.5 -82.5t-68 -57.5t-97.5 -21q-85 0 -150.5 33.5t-102 91.5
t-36.5 130q0 85 42 152t118.5 104.5t178.5 37.5q75 0 137 -26.5t105 -73.5v82h594zM288.5 202.5q-23.5 -23.5 -23.5 -59.5q0 -35 23.5 -58t58.5 -23q36 0 59.5 23t23.5 58q0 36 -23.5 59.5t-59.5 23.5q-35 0 -58.5 -23.5z" />
    <glyph glyph-name="tm_VowelAa" unicode="&#xbbe;" horiz-adv-x="686" 
d="M494 434v-434h-101v434h-205v-434h-100v513h573l15 -79h-182z" />
    <glyph glyph-name="tm_VowelAi" unicode="&#xbc8;" horiz-adv-x="1262" 
d="M1086.5 498q62.5 -33 95 -92t32.5 -135q0 -63 -21 -139t-63 -146l-103 14q40 57 61 132.5t21 138.5q0 79 -44 127t-129 48q-64 0 -121 -30q58 -48 90 -109.5t32 -128.5q0 -87 -50 -141.5t-133 -54.5q-55 0 -97 25t-64.5 69.5t-22.5 101.5q0 64 24.5 122.5t67.5 106.5
q-87 39 -195 39q-95 0 -166 -28t-109.5 -77t-38.5 -111q0 -55 26 -95v9q0 46 21.5 83t59.5 58t86 21q52 0 93 -21t64.5 -58.5t23.5 -83.5t-24.5 -82.5t-68 -57.5t-97.5 -21q-85 0 -150.5 32t-102 88.5t-36.5 127.5q0 86 52 154.5t147 107.5t220 39q147 0 268 -62
q45 30 96.5 46t104.5 16q88 0 150.5 -33zM811.5 97.5q19.5 30.5 19.5 80.5q0 52 -23 97.5t-66 81.5q-31 -36 -48.5 -82t-17.5 -97q0 -50 20 -80.5t58 -30.5t57.5 30.5zM288.5 202.5q-23.5 -23.5 -23.5 -59.5q0 -35 23.5 -58t58.5 -23q36 0 59.5 23t23.5 58q0 36 -23.5 59.5
t-59.5 23.5q-35 0 -58.5 -23.5z" />
    <glyph glyph-name="tm_VowelAu" unicode="&#xbcc;" horiz-adv-x="2573" 
d="M579 633.5q75 -41.5 115.5 -117.5t40.5 -175v-341h-101v341q0 114 -61.5 181.5t-167.5 67.5q-75 0 -131 -34t-86 -95t-30 -139q0 -92 31 -154q8 61 53.5 99.5t111.5 38.5q52 0 92.5 -21t63 -58t22.5 -84q0 -46 -24.5 -82.5t-68 -57.5t-97.5 -21q-83 0 -149 43.5
t-103 120.5t-37 176q0 102 43.5 182t123.5 125.5t185 45.5q99 0 174 -41.5zM293.5 202.5q-23.5 -23.5 -23.5 -59.5q0 -35 23.5 -58t58.5 -23q36 0 59.5 23t23.5 58q0 36 -23.5 59.5t-59.5 23.5q-35 0 -58.5 -23.5zM2563 434h-183v-434h-100v434h-225v-434h-101v228
q0 62 -31 112t-86 78t-125 28q-72 0 -125 -27t-81 -74.5t-28 -107.5q0 -56 26 -97v4q0 46 21.5 83t59.5 58t86 21q52 0 93 -21t64.5 -58.5t23.5 -83.5t-24.5 -82.5t-68 -57.5t-97.5 -21q-85 0 -150.5 33.5t-102 91.5t-36.5 130q0 85 42 152t118.5 104.5t178.5 37.5
q75 0 137 -26.5t105 -73.5v82h594zM1613.5 202.5q-23.5 -23.5 -23.5 -59.5q0 -35 23.5 -58t58.5 -23q36 0 59.5 23t23.5 58q0 36 -23.5 59.5t-59.5 23.5q-35 0 -58.5 -23.5zM1081 467q8 8 8 21t-8 21.5t-21 8.5t-21 -8.5t-8 -21.5t8 -21t21 -8t21 8zM950 494q-8 -8 -8 -21
t8 -21t21 -8t21 8t8 21t-8 21t-21 8t-21 -8zM1171 452q8 8 8 21t-8 21t-21 8t-21 -8t-8 -21t8 -21t21 -8t21 8zM873.5 443.5q-8.5 -8.5 -8.5 -21.5t8.5 -21t21.5 -8t21 8t8 21t-8 21.5t-21 8.5t-21.5 -8.5zM1247.5 401q8.5 8 8.5 21t-8.5 21.5t-21.5 8.5t-21 -8.5t-8 -21.5
t8 -21t21 -8t21.5 8zM825.5 364.5q-8.5 -8.5 -8.5 -21.5t8.5 -21t21.5 -8t21 8t8 21t-8 21.5t-21 8.5t-21.5 -8.5zM1295 322q8 8 8 21t-8 21.5t-21 8.5t-21 -8.5t-8 -21.5t8 -21t21 -8t21 8zM811.5 278.5q-8.5 -8.5 -8.5 -21.5t8.5 -20.5t21.5 -7.5t21 7.5t8 20.5t-8 21.5
t-21 8.5t-21.5 -8.5zM1309.5 236.5q8.5 7.5 8.5 20.5t-8.5 21.5t-21.5 8.5t-21 -8.5t-8 -21.5t8 -20.5t21 -7.5t21.5 7.5zM825.5 195q-8.5 -8 -8.5 -21t8.5 -21t21.5 -8t21 8t8 21t-8 21t-21 8t-21.5 -8zM1295 153q8 8 8 21t-8 21t-21 8t-21 -8t-8 -21t8 -21t21 -8t21 8z
M872.5 115q-8.5 -8 -8.5 -21t8.5 -21t21.5 -8t21 8t8 21t-8 21t-21 8t-21.5 -8zM1248.5 73q8.5 8 8.5 21t-8.5 21t-21.5 8t-21 -8t-8 -21t8 -21t21 -8t21.5 8zM950 65.5q-8 -8.5 -8 -21.5t8 -21t21 -8t21 8t8 21t-8 21.5t-21 8.5t-21 -8.5zM1171 23q8 8 8 21t-8 21.5
t-21 8.5t-21 -8.5t-8 -21.5t8 -21t21 -8t21 8zM1081 8q8 8 8 21t-8 21.5t-21 8.5t-21 -8.5t-8 -21.5t8 -21t21 -8t21 8z" />
    <glyph glyph-name="tm_VowelE" unicode="&#xbc6;" horiz-adv-x="818" 
d="M574 633.5q75 -41.5 115.5 -117.5t40.5 -175v-341h-101v341q0 114 -61.5 181.5t-167.5 67.5q-75 0 -131 -34t-86 -95t-30 -139q0 -92 31 -154q8 61 53.5 99.5t111.5 38.5q52 0 92.5 -21t63 -58t22.5 -84q0 -46 -24.5 -82.5t-68 -57.5t-97.5 -21q-83 0 -149 43.5
t-103 120.5t-37 176q0 102 43.5 182t123.5 125.5t185 45.5q99 0 174 -41.5zM288.5 202.5q-23.5 -23.5 -23.5 -59.5q0 -35 23.5 -58t58.5 -23q36 0 59.5 23t23.5 58q0 36 -23.5 59.5t-59.5 23.5q-35 0 -58.5 -23.5z" />
    <glyph glyph-name="tm_VowelEe" unicode="&#xbc7;" horiz-adv-x="686" 
d="M593.5 250.5q45.5 -40.5 45.5 -102.5q0 -48 -28 -85.5t-81.5 -59t-125.5 -21.5q-104 0 -185 44.5t-126 123.5t-45 179q0 99 45 178t126 123.5t185 44.5q72 0 125.5 -21.5t81.5 -59t28 -85.5q0 -62 -45.5 -102.5t-114.5 -40.5q-66 0 -108 40.5t-42 103.5q0 47 31 81
q-94 -10 -149.5 -81.5t-57.5 -180.5q2 -110 57.5 -181.5t149.5 -81.5q-31 34 -31 81q0 63 42 103.5t108 40.5q69 0 114.5 -40.5zM529 464.5q18 18.5 18 46.5t-18 46t-46 18t-46.5 -18t-18.5 -46t18 -46.5t46 -18.5q29 0 47 18.5zM436 192.5q-18 -18.5 -18 -46.5t18.5 -46
t46.5 -18t46 18t18 46q0 29 -18 47t-47 18q-28 0 -46 -18.5z" />
    <glyph glyph-name="tm_VowelI" unicode="&#xbbf;" horiz-adv-x="276" 
d="M38 759.5q72 -37.5 111 -104.5t39 -152v-503h-100v503q0 94 -58.5 151.5t-158.5 57.5q-69 0 -107.5 -27t-38.5 -73q0 -45 25.5 -72t74.5 -27h19l1 -72h-20q-92 0 -145.5 47.5t-54.5 123.5q0 54 30 96t85.5 65.5t130.5 23.5q95 0 167 -37.5z" />
    <glyph glyph-name="tm_VowelO" unicode="&#xbca;" horiz-adv-x="2000" 
d="M574 633.5q75 -41.5 115.5 -117.5t40.5 -175v-341h-101v341q0 114 -61.5 181.5t-167.5 67.5q-75 0 -131 -34t-86 -95t-30 -139q0 -92 31 -154q8 61 53.5 99.5t111.5 38.5q52 0 92.5 -21t63 -58t22.5 -84q0 -46 -24.5 -82.5t-68 -57.5t-97.5 -21q-83 0 -149 43.5
t-103 120.5t-37 176q0 102 43.5 182t123.5 125.5t185 45.5q99 0 174 -41.5zM288.5 202.5q-23.5 -23.5 -23.5 -59.5q0 -35 23.5 -58t58.5 -23q36 0 59.5 23t23.5 58q0 36 -23.5 59.5t-59.5 23.5q-35 0 -58.5 -23.5zM1788 434v-434h-101v434h-205v-434h-100v513h573l15 -79
h-182zM1072 467q8 8 8 21t-8 21.5t-21 8.5t-21 -8.5t-8 -21.5t8 -21t21 -8t21 8zM941 494q-8 -8 -8 -21t8 -21t21 -8t21 8t8 21t-8 21t-21 8t-21 -8zM1162 452q8 8 8 21t-8 21t-21 8t-21 -8t-8 -21t8 -21t21 -8t21 8zM864.5 443.5q-8.5 -8.5 -8.5 -21.5t8.5 -21t21.5 -8
t21 8t8 21t-8 21.5t-21 8.5t-21.5 -8.5zM1238.5 401q8.5 8 8.5 21t-8.5 21.5t-21.5 8.5t-21 -8.5t-8 -21.5t8 -21t21 -8t21.5 8zM816.5 364.5q-8.5 -8.5 -8.5 -21.5t8.5 -21t21.5 -8t21 8t8 21t-8 21.5t-21 8.5t-21.5 -8.5zM1286 322q8 8 8 21t-8 21.5t-21 8.5t-21 -8.5
t-8 -21.5t8 -21t21 -8t21 8zM802.5 278.5q-8.5 -8.5 -8.5 -21.5t8.5 -20.5t21.5 -7.5t21 7.5t8 20.5t-8 21.5t-21 8.5t-21.5 -8.5zM1300.5 236.5q8.5 7.5 8.5 20.5t-8.5 21.5t-21.5 8.5t-21 -8.5t-8 -21.5t8 -20.5t21 -7.5t21.5 7.5zM816.5 195q-8.5 -8 -8.5 -21t8.5 -21
t21.5 -8t21 8t8 21t-8 21t-21 8t-21.5 -8zM1286 153q8 8 8 21t-8 21t-21 8t-21 -8t-8 -21t8 -21t21 -8t21 8zM863.5 115q-8.5 -8 -8.5 -21t8.5 -21t21.5 -8t21 8t8 21t-8 21t-21 8t-21.5 -8zM1239.5 73q8.5 8 8.5 21t-8.5 21t-21.5 8t-21 -8t-8 -21t8 -21t21 -8t21.5 8z
M941 65.5q-8 -8.5 -8 -21.5t8 -21t21 -8t21 8t8 21t-8 21.5t-21 8.5t-21 -8.5zM1162 23q8 8 8 21t-8 21.5t-21 8.5t-21 -8.5t-8 -21.5t8 -21t21 -8t21 8zM1072 8q8 8 8 21t-8 21.5t-21 8.5t-21 -8.5t-8 -21.5t8 -21t21 -8t21 8z" />
    <glyph glyph-name="tm_VowelOo" unicode="&#xbcb;" horiz-adv-x="1911" 
d="M593.5 250.5q45.5 -40.5 45.5 -102.5q0 -48 -28 -85.5t-81.5 -59t-125.5 -21.5q-104 0 -185 44.5t-126 123.5t-45 179q0 99 45 178t126 123.5t185 44.5q72 0 125.5 -21.5t81.5 -59t28 -85.5q0 -62 -45.5 -102.5t-114.5 -40.5q-66 0 -108 40.5t-42 103.5q0 47 31 81
q-94 -10 -149.5 -81.5t-57.5 -180.5q2 -110 57.5 -181.5t149.5 -81.5q-31 34 -31 81q0 63 42 103.5t108 40.5q69 0 114.5 -40.5zM529 464.5q18 18.5 18 46.5t-18 46t-46 18t-46.5 -18t-18.5 -46t18 -46.5t46 -18.5q29 0 47 18.5zM436 192.5q-18 -18.5 -18 -46.5t18.5 -46
t46.5 -18t46 18t18 46q0 29 -18 47t-47 18q-28 0 -46 -18.5zM1699 434v-434h-101v434h-205v-434h-100v513h573l15 -79h-182zM976 467q8 8 8 21t-8 21.5t-21 8.5t-21 -8.5t-8 -21.5t8 -21t21 -8t21 8zM845 494q-8 -8 -8 -21t8 -21t21 -8t21 8t8 21t-8 21t-21 8t-21 -8z
M1066 452q8 8 8 21t-8 21t-21 8t-21 -8t-8 -21t8 -21t21 -8t21 8zM768.5 443.5q-8.5 -8.5 -8.5 -21.5t8.5 -21t21.5 -8t21 8t8 21t-8 21.5t-21 8.5t-21.5 -8.5zM1142.5 401q8.5 8 8.5 21t-8.5 21.5t-21.5 8.5t-21 -8.5t-8 -21.5t8 -21t21 -8t21.5 8zM720.5 364.5
q-8.5 -8.5 -8.5 -21.5t8.5 -21t21.5 -8t21 8t8 21t-8 21.5t-21 8.5t-21.5 -8.5zM1190 322q8 8 8 21t-8 21.5t-21 8.5t-21 -8.5t-8 -21.5t8 -21t21 -8t21 8zM706.5 278.5q-8.5 -8.5 -8.5 -21.5t8.5 -20.5t21.5 -7.5t21 7.5t8 20.5t-8 21.5t-21 8.5t-21.5 -8.5zM1204.5 236.5
q8.5 7.5 8.5 20.5t-8.5 21.5t-21.5 8.5t-21 -8.5t-8 -21.5t8 -20.5t21 -7.5t21.5 7.5zM720.5 195q-8.5 -8 -8.5 -21t8.5 -21t21.5 -8t21 8t8 21t-8 21t-21 8t-21.5 -8zM1190 153q8 8 8 21t-8 21t-21 8t-21 -8t-8 -21t8 -21t21 -8t21 8zM767.5 115q-8.5 -8 -8.5 -21t8.5 -21
t21.5 -8t21 8t8 21t-8 21t-21 8t-21.5 -8zM1143.5 73q8.5 8 8.5 21t-8.5 21t-21.5 8t-21 -8t-8 -21t8 -21t21 -8t21.5 8zM845 65.5q-8 -8.5 -8 -21.5t8 -21t21 -8t21 8t8 21t-8 21.5t-21 8.5t-21 -8.5zM1066 23q8 8 8 21t-8 21.5t-21 8.5t-21 -8.5t-8 -21.5t8 -21t21 -8
t21 8zM976 8q8 8 8 21t-8 21.5t-21 8.5t-21 -8.5t-8 -21.5t8 -21t21 -8t21 8z" />
    <glyph glyph-name="tm_VowelU" unicode="&#xbc1;" horiz-adv-x="472" 
d="M352 492.5q43 -20.5 67.5 -57.5t24.5 -83t-23 -83.5t-64 -58.5t-93 -21q-49 0 -88.5 21t-62 58t-22.5 83t25 83h-304v79h443q54 0 97 -20.5zM324.5 292.5q23.5 23.5 23.5 59.5t-23.5 59t-59.5 23t-59 -23t-23 -59t23 -59.5t59 -23.5t59.5 23.5z" />
    <glyph glyph-name="tm_VowelUu" unicode="&#xbc2;" horiz-adv-x="687" 
d="M521 577.5q65 -34.5 102 -95.5t37 -137q0 -81 -42 -145t-118 -100t-173 -36h-66v79h66q67 0 118.5 26t80 72t28.5 104q0 53 -23 95.5t-64 66.5t-93 24q-50 0 -91 -19q70 -6 115.5 -50.5t45.5 -109.5q0 -46 -22.5 -82.5t-62.5 -57t-91 -20.5q-50 0 -89 22t-61 60.5
t-22 87.5q0 34 10 72h-294v79h335q37 47 96 73t132 26q81 0 146 -34.5zM323.5 411.5q-24.5 22.5 -69.5 22.5h-52q-16 -34 -16 -71q0 -41 23 -66.5t60 -25.5q35 0 57 22.5t22 58.5q0 37 -24.5 59.5z" />
    <glyph glyph-name="tm_Anusvara" unicode="&#xb82;" horiz-adv-x="0" 
d="M62 639.5q29 15.5 46.5 42.5t17.5 60t-17.5 60.5t-46.5 43.5t-62 16q-32 0 -61 -16t-46.5 -43.5t-17.5 -60.5t17.5 -60t46.5 -42.5t61 -15.5q33 0 62 15.5zM-34 709q-13 13 -13 33q0 21 13 34.5t34 13.5t34.5 -13.5t13.5 -34.5q0 -20 -13.5 -33t-34.5 -13t-34 13z" />
    <glyph glyph-name="tm_Virama" unicode="&#xbcd;" horiz-adv-x="0" 
d="M45 641.5q18 18.5 18 43.5q0 26 -18 44t-45 18q-26 0 -43.5 -18t-17.5 -44t17.5 -44t43.5 -18q27 0 45 18.5z" />
    <glyph glyph-name="tm_VowelIi" unicode="&#xbc0;" horiz-adv-x="0" 
d="M-32.5 852.5q54.5 -25.5 86.5 -69.5t32 -95q0 -55 -36 -91t-92 -36t-93 33.5t-37 85.5q0 36 18.5 65t51.5 43q-20 4 -48 4q-71 0 -114 -39t-43 -101q0 -61 36.5 -100t92.5 -39v-77q-67 0 -120.5 27.5t-84 77t-30.5 111.5q0 65 33 116.5t93 80.5t137 29q63 0 117.5 -25.5z
M-7.5 645q13.5 14 13.5 35q0 20 -13.5 34t-34.5 14t-35 -14t-14 -34q0 -21 14 -35t35 -14t34.5 14z" />
    <glyph glyph-name="tm_VowelAi.alt" horiz-adv-x="380" 
d="M519 228q0 -71 -26.5 -127t-75 -87.5t-112.5 -31.5q-78 0 -127.5 42t-49.5 107q0 43 21.5 76.5t78.5 94.5l59 63q27 29 40 55t13 56q0 35 -26 57.5t-68 22.5q-40 0 -72 -19q39 -8 63.5 -36t24.5 -66q0 -46 -33 -76.5t-82 -30.5q-51 0 -85 33.5t-34 84.5q0 55 28 100
t78 70.5t112 25.5q56 0 101.5 -22t71.5 -60t26 -86q0 -45 -23.5 -85.5t-65.5 -84.5l-59 -63q-34 -36 -49 -59.5t-15 -47.5q0 -30 21 -48.5t55 -18.5q54 0 87.5 45.5t31.5 115.5h91zM169 411.5q9 8.5 9 21.5q0 14 -8.5 23t-22.5 9t-23 -9t-9 -22t9 -22t23 -9q13 0 22 8.5z
" />
    <glyph glyph-name="tm_VowelI.alt1" horiz-adv-x="276" 
d="M38 759.5q72 -37.5 111 -104.5t39 -152v-503h-100v503q0 94 -58.5 151.5t-158.5 57.5q-69 0 -107.5 -29.5t-38.5 -75.5q0 -36 16 -62.5t46 -35.5l-89 -43q-34 22 -53 59.5t-20 81.5q0 54 30 97.5t86 68t130 24.5q95 0 167 -37.5z" />
    <glyph glyph-name="tm_VowelU.alt1" horiz-adv-x="0" 
d="M-88 -187l-100 -10v237l100 1v-228z" />
    <glyph glyph-name="tm_VowelUu.alt1" horiz-adv-x="430" 
d="M237 434v-596h-100v596h-326v79h594l15 -79h-183z" />
    <glyph glyph-name="tm_VowelI.alt2" horiz-adv-x="276" 
d="M-21.5 759.5q99.5 -37.5 154.5 -104.5t55 -152v-503h-100v503q0 62 -42 109t-118.5 73.5t-177.5 26.5q-105 0 -159 -30.5t-54 -78.5q0 -32 14 -56.5t41 -34.5l-68 -55q-42 22 -64.5 60t-23.5 86q0 55 36.5 99t107.5 69.5t170 25.5q129 0 228.5 -37.5z" />
    <glyph glyph-name="tm_VowelU.alt2" horiz-adv-x="472" 
d="M352 492.5q43 -20.5 67.5 -57.5t24.5 -83t-23 -83.5t-64 -58.5t-93 -21q-49 0 -88.5 21t-62 58t-22.5 83t25 83h-385v79h524q54 0 97 -20.5zM324.5 292.5q23.5 23.5 23.5 59.5t-23.5 59t-59.5 23t-59 -23t-23 -59t23 -59.5t59 -23.5t59.5 23.5z" />
    <glyph glyph-name="tm_VowelUu.alt2" horiz-adv-x="687" 
d="M521 577.5q65 -34.5 102 -95.5t37 -137q0 -81 -42 -145t-118 -100t-173 -36h-66v79h66q67 0 118.5 26t80 72t28.5 104q0 53 -23 95.5t-64 66.5t-93 24q-50 0 -91 -19q70 -6 115.5 -50.5t45.5 -109.5q0 -46 -22.5 -82.5t-62.5 -57t-91 -20.5q-50 0 -89 22t-61 60.5
t-22 87.5q0 34 10 72h-382v79h423q37 47 96 73t132 26q81 0 146 -34.5zM323.5 411.5q-24.5 22.5 -69.5 22.5h-52q-16 -34 -16 -71q0 -41 23 -66.5t60 -25.5q35 0 57 22.5t22 58.5q0 37 -24.5 59.5z" />
    <glyph glyph-name="tm_VowelI.alt3" horiz-adv-x="266" 
d="M19.5 759.5q81.5 -37.5 125 -104t43.5 -152.5v-503h-100v503q0 95 -68.5 152t-193.5 57q-69 0 -107.5 -27t-38.5 -73q0 -45 25.5 -72t74.5 -27v-72q-92 0 -145.5 47.5t-54.5 123.5q0 54 30 96t85.5 65.5t130.5 23.5q112 0 193.5 -37.5z" />
    <glyph glyph-name="tm_VowelU.alt3" horiz-adv-x="472" 
d="M352 492.5q43 -20.5 67.5 -57.5t24.5 -83t-23 -83.5t-64 -58.5t-93 -21q-49 0 -88.5 21t-62 58t-22.5 83t25 83h-321v79h460q54 0 97 -20.5zM324.5 292.5q23.5 23.5 23.5 59.5t-23.5 59t-59.5 23t-59 -23t-23 -59t23 -59.5t59 -23.5t59.5 23.5z" />
    <glyph glyph-name="tm_VowelUu.alt3" horiz-adv-x="687" 
d="M521 577.5q65 -34.5 102 -95.5t37 -137q0 -81 -42 -145t-118 -100t-173 -36h-66v79h66q67 0 118.5 26t80 72t28.5 104q0 53 -23 95.5t-64 66.5t-93 24q-50 0 -91 -19q70 -6 115.5 -50.5t45.5 -109.5q0 -46 -22.5 -82.5t-62.5 -57t-91 -20.5q-50 0 -89 22t-61 60.5
t-22 87.5q0 34 10 72h-308v79h349q37 47 96 73t132 26q81 0 146 -34.5zM323.5 411.5q-24.5 22.5 -69.5 22.5h-52q-16 -34 -16 -71q0 -41 23 -66.5t60 -25.5q35 0 57 22.5t22 58.5q0 37 -24.5 59.5z" />
    <glyph glyph-name="tm_VowelI.alt4" horiz-adv-x="276" 
d="M17 759.5q83 -37.5 127 -104t44 -152.5v-503h-100v503q0 95 -70 152t-197 57q-99 0 -151.5 -30t-52.5 -79q0 -44 25 -67t75 -23v-72q-93 0 -146 43.5t-54 118.5q0 56 36 100t104.5 69t163.5 25q113 0 196 -37.5z" />
    <glyph glyph-name="tm_KU" horiz-adv-x="1099" 
d="M930.5 274q58.5 -33 90 -89.5t31.5 -125.5q0 -97 -57 -170.5t-162.5 -114t-247.5 -40.5q-159 0 -276 54.5t-179 153t-62 228.5q0 95 41 195t104 158l103 -10q-62 -53 -102.5 -149.5t-40.5 -195.5q0 -105 48.5 -183t141.5 -120.5t222 -42.5q112 0 193.5 29t124.5 82.5
t43 125.5t-40 120.5t-111 48.5h-3v-23q0 -64 -30 -115t-86 -79.5t-131 -28.5q-63 0 -111.5 21t-74.5 58.5t-26 84.5q0 52 31 90.5t87 56.5v220h506l15 -79h-180v-127h2q78 0 136.5 -33zM692 434h-140v-127h140v127zM692 228h-140q-53 0 -83 -22t-30 -60q0 -34 29 -56.5
t77 -22.5q68 0 107.5 38.5t39.5 99.5v23z" />
    <glyph glyph-name="tm_CU" horiz-adv-x="829" 
d="M701 228v-228h-101v228h-104v-23q0 -64 -30 -115t-86 -79.5t-131 -28.5q-63 0 -111 21t-74 58.5t-26 84.5q0 52 30.5 90t86.5 57v220h506l15 -79h-180v-127h294l12 -79h-101zM395 434h-139v-127h139v127zM395 228h-139q-54 0 -83.5 -22t-29.5 -60q0 -35 28.5 -57
t77.5 -22q69 0 107.5 38t38.5 100v23z" />
    <glyph glyph-name="tm_NyU" horiz-adv-x="1282" 
d="M1194 -162h-321q-80 -89 -212.5 -138t-300.5 -49q-134 0 -205 37t-71 106q0 55 43.5 88.5t123.5 33.5h559q60 83 60 188q0 71 -26 114.5t-72 43.5q-41 0 -68.5 -28.5t-27.5 -71.5v-162h-101v434h-175q-125 0 -186 -53t-61 -144q0 -56 26 -97v4q0 46 21.5 83t59.5 58
t86 21q52 0 93 -21t64.5 -58.5t23.5 -83.5t-24.5 -82.5t-68 -57.5t-97.5 -21q-85 0 -150.5 33.5t-102 91.5t-36.5 130q0 81 39 143.5t116 97.5t188 35h453l14 -79h-182v-119q45 34 103 34t103 -31.5t69.5 -87t24.5 -126.5q0 -103 -47 -188h165v597h100v-675zM288.5 202.5
q-23.5 -23.5 -23.5 -59.5q0 -35 23.5 -58t58.5 -23q36 0 59.5 23t23.5 58q0 36 -23.5 59.5t-59.5 23.5q-35 0 -58.5 -23.5zM571.5 -237q94.5 26 160.5 75h-480q-34 0 -50.5 -12t-16.5 -32q0 -57 175 -57q117 0 211.5 26z" />
    <glyph glyph-name="tm_TtU" horiz-adv-x="863" 
d="M722 316.5q45 -32.5 69 -90t24 -131.5q0 -109 -44 -190.5t-127 -126t-196 -44.5q-115 0 -201 49.5t-132.5 140t-46.5 210.5q0 64 18 139t50 142.5t72 107.5l103 -10q-39 -36 -70.5 -100t-49.5 -139t-18 -142q0 -94 33 -164.5t95 -108.5t147 -38q124 0 192.5 73.5
t68.5 200.5q0 75 -25.5 121t-72.5 46q-42 0 -69 -28t-27 -72v-162h-101v513h101v-198q45 34 102 34q60 0 105 -32.5z" />
    <glyph glyph-name="tm_NnU" horiz-adv-x="1992" 
d="M1904 -162h-508q-139 -90 -360 -138.5t-520 -48.5q-224 0 -328 41.5t-104 114.5q0 49 41 79t115 30h1110q173 123 173 320q0 210 -173 210q-54 0 -104 -22q50 -47 77 -110.5t27 -135.5q0 -87 -49.5 -141.5t-132.5 -54.5t-133 54.5t-50 141.5q0 68 27.5 130t76.5 112
q-58 26 -128 26q-78 0 -141 -34q56 -47 86.5 -107.5t30.5 -126.5q0 -87 -50 -141.5t-133 -54.5q-55 0 -97 25t-64.5 69.5t-22.5 101.5q0 64 24 123t68 106q-87 39 -195 39q-95 0 -166 -28t-109.5 -77t-38.5 -111q0 -55 26 -95v9q0 46 21.5 83t59.5 58t86 21q52 0 93 -21
t64.5 -58.5t23.5 -83.5t-24.5 -82.5t-68 -57.5t-97.5 -21q-85 0 -150.5 32t-102 88.5t-36.5 127.5q0 86 52 154.5t147 107.5t220 39q75 0 143.5 -16.5t125.5 -46.5q99 63 225 63q115 0 207 -50q86 50 182 50q134 0 206.5 -77.5t72.5 -217.5q0 -186 -135 -320h309v597h101
v-675zM1225.5 97.5q19.5 30.5 19.5 80.5q0 56 -20.5 104.5t-58.5 85.5q-36 -37 -56 -86t-20 -104q0 -50 20 -80.5t58 -30.5t57.5 30.5zM811.5 97.5q19.5 30.5 19.5 80.5q0 51 -22.5 96t-64.5 81q-32 -36 -50 -81t-18 -96q0 -50 20 -80.5t58 -30.5t57.5 30.5zM288.5 202.5
q-23.5 -23.5 -23.5 -59.5q0 -35 23.5 -58t58.5 -23q36 0 59.5 23t23.5 58q0 36 -23.5 59.5t-59.5 23.5q-35 0 -58.5 -23.5zM1205 -162h-963q-26 0 -41.5 -8.5t-15.5 -22.5q0 -33 84 -52t247 -19q433 0 689 102z" />
    <glyph glyph-name="tm_TU" horiz-adv-x="1066" 
d="M978 -162h-272q-54 -89 -158.5 -138t-251.5 -49q-121 0 -189.5 40t-68.5 106q0 54 40.5 86.5t115.5 32.5h435q21 54 21 118q0 86 -40 140t-107 54h-3v-23q0 -64 -30 -115t-86 -79.5t-131 -28.5q-63 0 -111.5 21t-74.5 58.5t-26 84.5q0 52 31 90.5t87 56.5v220h506l15 -79
h-180v-127h2q75 0 132.5 -35t89.5 -97t32 -141q0 -60 -16 -118h137v597h101v-675zM399 434h-139v-127h139v127zM399 228h-139q-54 0 -83.5 -22t-29.5 -60q0 -35 28.5 -57t77.5 -22q68 0 107 38.5t39 99.5v23zM582 -162h-386q-26 0 -41.5 -11t-15.5 -30q0 -28 40 -44t117 -16
q195 0 286 101z" />
    <glyph glyph-name="tm_NU" horiz-adv-x="1057" 
d="M969 -162h-285q-52 -89 -143 -138t-218 -49q-112 0 -173.5 39t-61.5 102q0 57 41 90.5t121 33.5h362q30 76 30 188q0 72 -25 115t-75 43q-41 0 -68 -28.5t-27 -71.5v-162h-100v434h-159v-434h-100v513h527l15 -79h-183v-117q45 32 103 32q61 0 105.5 -31.5t68 -87
t23.5 -126.5q0 -105 -28 -188h150v597h100v-675zM569 -162h-318q-31 0 -46.5 -12.5t-15.5 -33.5q0 -25 36 -40t98 -15q165 0 246 101z" />
    <glyph glyph-name="tm_NnnU" horiz-adv-x="1577" 
d="M1490 -162h-458q-103 -89 -258 -138t-354 -49q-168 0 -252 40t-84 108q0 53 40 85t116 32h737q65 63 98.5 144.5t33.5 175.5q0 210 -173 210q-64 0 -121 -30q58 -48 90 -109.5t32 -128.5q0 -87 -50 -141.5t-133 -54.5q-55 0 -97 25t-64.5 69.5t-22.5 101.5
q0 64 24.5 122.5t67.5 106.5q-87 39 -195 39q-95 0 -166 -28t-109.5 -77t-38.5 -111q0 -55 26 -95v9q0 46 21.5 83t59.5 58t86 21q52 0 93 -21t64.5 -58.5t23.5 -83.5t-24.5 -82.5t-68 -57.5t-97.5 -21q-85 0 -150.5 32t-102 88.5t-36.5 127.5q0 86 52 154.5t147 107.5
t220 39q147 0 268 -62q45 30 96.5 46t104.5 16q134 0 206 -77.5t72 -217.5q0 -89 -27.5 -170.5t-80.5 -149.5h283v597h101v-675zM811.5 97.5q19.5 30.5 19.5 80.5q0 52 -23 97.5t-66 81.5q-31 -36 -48.5 -82t-17.5 -97q0 -50 20 -80.5t58 -30.5t57.5 30.5zM288.5 202.5
q-23.5 -23.5 -23.5 -59.5q0 -35 23.5 -58t58.5 -23q36 0 59.5 23t23.5 58q0 36 -23.5 59.5t-59.5 23.5q-35 0 -58.5 -23.5zM872 -162h-630q-28 0 -42.5 -11t-14.5 -28q0 -28 58.5 -45t176.5 -17q275 0 452 101z" />
    <glyph glyph-name="tm_MU" horiz-adv-x="1184" 
d="M1024 493q54 -38 83 -105t29 -153q0 -108 -55.5 -171.5t-168.5 -63.5h-121q-10 -81 -56 -141t-120.5 -92.5t-170.5 -32.5q-109 0 -194.5 49t-133.5 141.5t-48 219.5q0 105 37.5 212t98.5 167l103 -10q-59 -56 -96.5 -159.5t-37.5 -211.5q0 -102 34.5 -174.5t95.5 -110.5
t141 -38q105 0 171 48.5t77 132.5h-293v513l101 5v-439h194v227q0 106 53 165.5t150 59.5q73 0 127 -38zM1005 119.5q26 40.5 26 115.5q0 95 -35 153t-99 58q-103 0 -103 -143v-224h118q67 0 93 40.5z" />
    <glyph glyph-name="tm_RU" horiz-adv-x="1137" 
d="M996 317.5q45 -31.5 69.5 -87t24.5 -126.5q0 -111 -61 -194.5t-175 -129.5t-269 -46q-154 0 -271.5 54.5t-181.5 153.5t-64 228q0 95 41 195t104 158l103 -10q-62 -53 -102.5 -149.5t-40.5 -195.5q0 -104 50.5 -182.5t144 -121.5t217.5 -43q125 0 215 34.5t137 98.5
t47 150q0 71 -26 114.5t-73 43.5q-42 0 -69 -28t-27 -72v-162h-100v434h-189v-434h-101v513h558l15 -79h-183v-119q45 34 103 34q59 0 104 -31.5z" />
    <glyph glyph-name="tm_RrU" horiz-adv-x="1155" 
d="M1067 -162h-327q-62 -91 -163 -139t-241 -48q-80 0 -138 18.5t-89 51.5t-31 76q0 54 40 86.5t116 32.5h438q64 121 64 317q0 98 -31.5 155.5t-98.5 57.5q-51 0 -80 -36.5t-29 -106.5v-303h-101v292q0 67 -28 110.5t-81 43.5q-48 0 -71.5 -36.5t-23.5 -104.5v-305h-101
v315q0 98 50 157t141 59q49 0 89.5 -22t67.5 -62q29 40 72.5 62t94.5 22q113 0 174.5 -82t61.5 -216q0 -184 -59 -317h184v597h100v-675zM615 -162h-379q-28 0 -42.5 -11t-14.5 -30q0 -28 40.5 -44t116.5 -16q183 0 279 101z" />
    <glyph glyph-name="tm_LU" horiz-adv-x="1318" 
d="M1230 -162h-435q-64 -88 -181.5 -137.5t-266.5 -49.5q-123 0 -195.5 38t-72.5 103q0 56 44.5 90t127.5 34h482q15 30 23 70q-76 14 -117 71.5t-41 151.5v46q0 88 -57 139t-156 51q-72 0 -124.5 -27t-80 -74t-27.5 -107q0 -57 27 -99v6q0 46 21.5 82.5t59.5 57.5t85 21
q52 0 93 -21t64.5 -58t23.5 -83t-24.5 -82.5t-68 -57.5t-97.5 -21q-85 0 -150.5 33.5t-102 91.5t-36.5 130q0 83 41 150t117.5 105.5t178.5 38.5q94 0 165 -34t109.5 -96.5t38.5 -145.5v-46q0 -70 27 -105.5t79 -35.5q56 0 82.5 45t26.5 124q0 63 -21.5 141t-60.5 135
l102 14q42 -69 63.5 -147.5t21.5 -142.5q0 -100 -41 -165.5t-120 -83.5q-4 -31 -18 -72h290v597h101v-675zM288.5 202.5q-23.5 -23.5 -23.5 -59.5q0 -35 23.5 -58t58.5 -23q36 0 59.5 23t23.5 58q0 36 -23.5 59.5t-59.5 23.5q-35 0 -58.5 -23.5zM539.5 -236.5
q82.5 26.5 134.5 74.5h-421q-73 0 -73 -46q0 -27 44.5 -41t122.5 -14q110 0 192.5 26.5z" />
    <glyph glyph-name="tm_LlU" horiz-adv-x="1661" 
d="M1520 317.5q45 -31.5 69.5 -87t24.5 -126.5q0 -118 -64.5 -203.5t-185.5 -131t-287 -45.5h-450q-170 0 -296.5 54t-194.5 154.5t-68 237.5q0 95 41 195t104 158l103 -10q-62 -53 -102.5 -149.5t-40.5 -195.5q0 -111 55.5 -192t158 -125.5t240.5 -47.5h450q133 0 230 36
t149 104t52 161q0 71 -26 114.5t-72 43.5q-35 0 -60 -20t-33 -53v-189h-100v434h-225v-434h-101v228q0 62 -31 112t-86 78t-125 28q-72 0 -125 -27t-81 -74.5t-28 -107.5q0 -56 26 -97v4q0 46 21.5 83t59.5 58t86 21q52 0 93 -21t64.5 -58.5t23.5 -83.5t-24.5 -82.5
t-68 -57.5t-97.5 -21q-85 0 -150.5 33.5t-102 91.5t-36.5 130q0 85 42 152t118.5 104.5t178.5 37.5q74 0 136.5 -26.5t105.5 -73.5v82h594l15 -79h-183v-115q44 30 99 30q59 0 104 -31.5zM550.5 202.5q-23.5 -23.5 -23.5 -59.5q0 -35 23.5 -58t58.5 -23q36 0 59.5 23
t23.5 58q0 36 -23.5 59.5t-59.5 23.5q-35 0 -58.5 -23.5z" />
    <glyph glyph-name="tm_LllU" horiz-adv-x="1184" 
d="M794 0v-7q0 -30 18.5 -51t49.5 -21h149l15 -79h-158q-41 -51 -128.5 -79.5t-194.5 -28.5q-146 0 -254 53t-165.5 149t-57.5 224q0 100 37.5 201t98.5 162l103 -10q-59 -56 -96.5 -154t-37.5 -201q0 -102 44.5 -178.5t128.5 -118.5t199 -42q158 0 213 49q-29 15 -46.5 44
t-17.5 68v20h-295v513l101 5v-439h194v227q0 106 53 165.5t150 59.5q73 0 127 -38t83 -105t29 -153q0 -108 -55.5 -171.5t-168.5 -63.5h-118zM794 79h118q67 0 93 40.5t26 115.5q0 95 -35 153t-99 58q-103 0 -103 -143v-224z" />
    <glyph glyph-name="tm_KUu" horiz-adv-x="1162" 
d="M1152 79v-79h-281q16 33 26 73t10 72q0 45 -26 70.5t-70 25.5q-16 0 -24 -1q50 -53 50 -124q0 -58 -40.5 -96t-102.5 -38q-61 0 -101.5 38t-40.5 96q0 61 38 112h-94v-23q0 -64 -30 -115t-86 -79.5t-131 -28.5q-63 0 -111 21t-74 58.5t-26 84.5q0 52 30.5 90t86.5 57v220
h506l15 -79h-180v-127h130q31 0 56 -7q60 27 129 27q57 0 103 -23.5t72 -65t26 -93.5q0 -38 -7 -66h147zM395 434h-139v-127h139v127zM395 228h-139q-54 0 -83.5 -22t-29.5 -60q0 -35 28.5 -57t77.5 -22q69 0 107.5 38t38.5 100v23zM730 169q-13 24 -36 39
q-23 -17 -35.5 -40.5t-12.5 -51.5q0 -24 13.5 -40t34.5 -16t35 16t14 40q0 29 -13 53z" />
    <glyph glyph-name="tm_NgUu" horiz-adv-x="1225" 
d="M1166 38.5q49 -49.5 49 -129.5q0 -87 -50 -152.5t-139.5 -101t-204.5 -35.5h-515q-113 0 -179.5 38t-66.5 105q0 57 42 93.5t112 36.5h531v-79h-531q-23 0 -38 -14.5t-15 -36.5q0 -30 40 -47t105 -17h516q84 0 149 26t101.5 73.5t36.5 110.5q0 40 -22 67t-59 27
q-41 0 -67.5 -26.5t-26.5 -66.5v-101h-100v191h-487v79h146q65 0 97 31t32 84q0 39 -22.5 66t-59.5 27q-41 0 -67 -26.5t-26 -65.5v-39h-100v278h-159v-434h-100v513h527l15 -79h-183v-91q46 30 104 30q79 0 127.5 -49.5t48.5 -129.5q0 -69 -40 -115h147v434h100v-455
q46 30 104 30q79 0 128 -49.5z" />
    <glyph glyph-name="tm_CUu" horiz-adv-x="1277" 
d="M1185.5 134.5q43.5 -45.5 43.5 -118.5q0 -92 -67 -155t-192 -95t-296 -32q-189 0 -325 51.5t-208.5 149.5t-72.5 235q0 95 41 195t104 158l103 -10q-62 -53 -102.5 -149.5t-40.5 -195.5q0 -111 59 -189t171.5 -118t270.5 -40q212 0 330.5 48t118.5 147q0 35 -17.5 57
t-45.5 22q-31 0 -52.5 -23t-21.5 -56v-16h-100v228h-105v-23q0 -64 -30 -115t-86 -79.5t-131 -28.5q-63 0 -111.5 21t-74.5 58.5t-26 84.5q0 52 31 90.5t87 56.5v220h506l14 -79h-179v-127h295l10 -79h-100v-70q36 22 79 22q77 0 120.5 -45.5zM680 434h-139v-127h139v127z
M680 228h-139q-54 0 -83.5 -22t-29.5 -60q0 -35 28.5 -57t77.5 -22q68 0 107 38.5t39 99.5v23z" />
    <glyph glyph-name="tm_TtUu" horiz-adv-x="932" 
d="M666 586q35 33 90 33h7q-36 38 -97 60t-139 22q-109 0 -189 -62t-122.5 -169t-42.5 -241q0 -125 34.5 -217t97.5 -141.5t148 -49.5q122 0 189 73.5t67 200.5q0 75 -25.5 121t-72.5 46q-42 0 -69 -28t-27 -72v-162h-101v513h101v-198q43 34 102 34q60 0 105 -32.5t69 -90
t24 -131.5q0 -109 -43.5 -190.5t-125 -126t-193.5 -44.5q-116 0 -203 60.5t-134.5 173t-47.5 263.5q0 158 55 284.5t158 199.5t240 73q100 0 183.5 -36.5t131.5 -99.5t48 -140q0 -58 -34.5 -94.5t-91.5 -36.5q-55 0 -91 34t-36 86t35 85zM795 535.5q-15 14.5 -37 14.5
t-36 -14.5t-14 -35.5q0 -22 14 -36.5t36 -14.5t37 14.5t15 36.5q0 21 -15 35.5z" />
    <glyph glyph-name="tm_PUu" horiz-adv-x="940" 
d="M881 38.5q49 -49.5 49 -129.5q0 -87 -50 -152.5t-139.5 -101t-203.5 -35.5h-231q-113 0 -179.5 38t-66.5 105q0 57 42 93.5t112 36.5h246v-79h-246q-23 0 -38 -14.5t-15 -36.5q0 -30 40 -47t105 -17h231q84 0 149.5 26t102 73.5t36.5 110.5q0 40 -22 67t-60 27
q-41 0 -67 -26.5t-26 -66.5v-101h-101v191h-461v513l100 5v-439h361v434h101v-455q46 30 103 30q79 0 128 -49.5z" />
    <glyph glyph-name="tm_MUu" horiz-adv-x="1326" 
d="M1165 493q55 -38 84 -105t29 -153q0 -108 -55.5 -171.5t-168.5 -63.5h-122q-13 -81 -66 -141t-139.5 -92.5t-200.5 -32.5q-135 0 -239 57.5t-161.5 158.5t-57.5 229q0 94 36.5 175t100 129t139.5 48q62 0 99 -35t37 -90q0 -53 -35.5 -87.5t-90.5 -34.5q-48 0 -82 27.5
t-41 71.5q-28 -39 -43 -92.5t-15 -112.5q0 -103 43.5 -184t123.5 -127t186 -46q128 0 207 47t97 132h-290v513l101 5v-439h194v227q0 105 53 165t149 60q73 0 128 -38zM389 442.5q-14 14.5 -35 14.5q-23 0 -37.5 -14.5t-14.5 -36.5t14.5 -36t37.5 -14q21 0 35 14t14 36
t-14 36.5zM1146 119.5q26 40.5 26 115.5q0 95 -35 153t-100 58q-101 0 -101 -143v-224h118q66 0 92 40.5z" />
    <glyph glyph-name="tm_YUu" horiz-adv-x="1158" 
d="M1099 38.5q49 -49.5 49 -129.5q0 -87 -50 -152.5t-139.5 -101t-204.5 -35.5h-448q-113 0 -179.5 38t-66.5 105q0 57 42 93.5t112 36.5h464v-79h-464q-23 0 -38 -14.5t-15 -36.5q0 -30 40 -47t105 -17h448q84 0 149.5 26t102 73.5t36.5 110.5q0 40 -22 67t-60 27
q-41 0 -67 -26.5t-26 -66.5v-101h-101v191h-361v32q-52 -50 -125 -50q-97 0 -149.5 58t-52.5 160v313l100 5v-316q0 -67 25.5 -101t79.5 -34q60 0 91 42.5t31 113.5v290h101v-434h260v434h101v-455q46 30 104 30q79 0 128 -49.5z" />
    <glyph glyph-name="tm_RUu" horiz-adv-x="1278" 
d="M1136.5 317.5q44.5 -31.5 69 -87t24.5 -126.5q0 -110 -71 -194t-200.5 -130t-297.5 -46q-181 0 -314.5 54t-206 156.5t-72.5 244.5q0 92 37 170.5t101 125t143 46.5q58 0 94.5 -35t36.5 -90q0 -53 -35.5 -87.5t-90.5 -34.5q-49 0 -83 28t-41 73q-27 -38 -42 -89.5
t-15 -107.5q0 -117 58.5 -199.5t168.5 -125t261 -42.5q139 0 244 34.5t162.5 99t57.5 149.5q0 71 -26 114.5t-73 43.5q-41 0 -68 -28.5t-27 -71.5v-162h-101v434h-189v-434h-101v513h558l15 -79h-182v-117q45 32 102 32q59 0 103.5 -31.5zM389 442.5q-14 14.5 -35 14.5
q-23 0 -37.5 -14.5t-14.5 -36.5t14.5 -36t37.5 -14q21 0 35 14t14 36t-14 36.5z" />
    <glyph glyph-name="tm_LlUu" horiz-adv-x="1843" 
d="M1701 317.5q45 -31.5 69.5 -87t24.5 -126.5q0 -118 -64.5 -203.5t-185.5 -131t-287 -45.5h-637q-165 0 -290 51.5t-194 149t-69 229.5q0 109 35.5 195t98 134t142.5 48q58 0 94.5 -35t36.5 -90q0 -53 -35.5 -87.5t-90.5 -34.5q-48 0 -81.5 27t-41.5 72q-53 -82 -53 -230
q0 -109 55.5 -188t157 -120.5t235.5 -41.5h637q133 0 230 36t149 104t52 161q0 71 -26 114.5t-72 43.5q-34 0 -59 -19t-33 -50v-193h-100v434h-225v-434h-101v228q0 62 -31 112t-86 78t-125 28q-72 0 -125 -27t-81 -74.5t-28 -107.5q0 -56 26 -97v4q0 46 21.5 83t59.5 58
t86 21q52 0 93 -21t64.5 -58.5t23.5 -83.5t-24.5 -82.5t-68 -57.5t-97.5 -21q-85 0 -150.5 33.5t-102 91.5t-36.5 130q0 85 42 152t118.5 104.5t178.5 37.5q74 0 136.5 -26.5t105.5 -73.5v82h594l15 -79h-183v-115q43 30 98 30q59 0 104 -31.5zM380.5 439q-12.5 13 -31.5 13
q-20 0 -33.5 -13t-13.5 -33t13.5 -33t33.5 -13q19 0 31.5 13t12.5 33t-12.5 33zM732.5 202.5q-23.5 -23.5 -23.5 -59.5q0 -35 23.5 -58t58.5 -23q36 0 59.5 23t23.5 58q0 36 -23.5 59.5t-59.5 23.5q-35 0 -58.5 -23.5z" />
    <glyph glyph-name="tm_LllUu" horiz-adv-x="1326" 
d="M936 0v-2q0 -39 17 -55.5t50 -16.5h150l14 -79h-157q-50 -52 -151 -82.5t-237 -30.5q-162 0 -288 58t-196 160.5t-70 231.5q0 92 38 172t102.5 127.5t140.5 47.5q62 0 99 -35t37 -90q0 -53 -35.5 -87.5t-90.5 -34.5q-49 0 -83 28.5t-41 73.5q-29 -40 -45.5 -93
t-16.5 -110q0 -105 56.5 -187t158.5 -128.5t234 -46.5q201 0 278 52q-30 15 -47.5 44t-17.5 68v15h-295v513l101 5v-439h194v227q0 105 53 165t149 60q73 0 128 -38t84 -105t29 -153q0 -108 -55.5 -171.5t-168.5 -63.5h-118zM394 442.5q-14 14.5 -35 14.5q-23 0 -37.5 -14.5
t-14.5 -36.5t14.5 -36t37.5 -14q21 0 35 14t14 36t-14 36.5zM936 79h118q66 0 92 40.5t26 115.5q0 95 -35 153t-100 58q-101 0 -101 -143v-224z" />
    <glyph glyph-name="tm_VUu" horiz-adv-x="1277" 
d="M1218.5 38.5q48.5 -49.5 48.5 -129.5q0 -87 -50 -152.5t-139 -101t-204 -35.5h-568q-113 0 -179.5 38t-66.5 105q0 57 42 93.5t112 36.5h584v-79h-584q-23 0 -38 -14.5t-15 -36.5q0 -30 40 -47t105 -17h568q84 0 149.5 26t102 73.5t36.5 110.5q0 40 -22 67t-60 27
q-41 0 -67 -26.5t-26 -66.5v-101h-101v191h-310v79q53 80 53 176q0 86 -60.5 138.5t-172.5 52.5q-73 0 -128.5 -27t-85 -74.5t-29.5 -107.5q0 -56 26 -97v4q0 46 22 83t60 58t85 21q52 0 93 -21t64.5 -58.5t23.5 -83.5t-24.5 -82.5t-68 -57.5t-97.5 -21q-85 0 -150.5 33.5
t-102 91.5t-36.5 130q0 85 43.5 152t122.5 104.5t182 37.5q99 0 176.5 -35.5t120 -98.5t42.5 -142q0 -47 -12.5 -92.5t-34.5 -83.5h198v434h101v-455q46 30 104 30q79 0 127.5 -49.5zM288.5 202.5q-23.5 -23.5 -23.5 -59.5q0 -35 23.5 -58t58.5 -23q36 0 59.5 23t23.5 58
q0 36 -23.5 59.5t-59.5 23.5q-35 0 -58.5 -23.5z" />
    <glyph glyph-name="tm_KSsa" horiz-adv-x="1669" 
d="M1592 0h-221v-243h-101v243h-399q16 33 26 73t10 72q0 45 -26 70.5t-70 25.5q-16 0 -24 -1q50 -53 50 -124q0 -58 -40.5 -96t-102.5 -38q-61 0 -101.5 38t-40.5 96q0 61 38 112h-94v-23q0 -64 -30 -115t-86 -79.5t-131 -28.5q-63 0 -111 21t-74 58.5t-26 84.5
q0 52 30.5 90t86.5 57v220h506l15 -79h-180v-127h130q31 0 56 -7q60 27 129 27q57 0 103 -23.5t72 -65t26 -93.5q0 -38 -7 -66h265v116q-30 -2 -47 -2q-62 0 -110 22.5t-75.5 62t-27.5 88.5q0 74 50.5 119.5t132.5 45.5q80 0 129 -46t49 -120v-47q76 43 119 116h102v-434z
M1270 282v78q0 39 -20 62.5t-57 23.5t-57 -22t-20 -58q0 -37 29 -62.5t78 -25.5q27 0 47 4zM395 434h-139v-127h139v127zM1490 79v215q-54 -50 -119 -74v-141h119zM395 228h-139q-54 0 -83.5 -22t-29.5 -60q0 -35 28.5 -57t77.5 -22q69 0 107.5 38t38.5 100v23zM730 169
q-13 24 -36 39q-23 -17 -35.5 -40.5t-12.5 -51.5q0 -24 13.5 -40t34.5 -16t35 16t14 40q0 29 -13 53z" />
    <glyph glyph-name="tm_TtI" horiz-adv-x="865" 
d="M713 0v-243h-101v243h-524v513l100 5v-439h191q-38 36 -58.5 87.5t-21.5 116.5q0 72 26.5 128.5t76 88t116.5 31.5q60 0 104 -27t67.5 -74t23.5 -108v-243h127l15 -79h-142zM612 79v243q0 56 -24 90t-70 34q-55 0 -84.5 -45t-29.5 -118q0 -58 21 -105t58 -73t83 -26h46z
" />
    <glyph glyph-name="tm_TtIi" horiz-adv-x="833" 
d="M823 0h-735v513l100 5v-439h141q-50 58 -50 139q0 65 33 116t93 80t137 29q63 0 117 -25.5t86.5 -69t32.5 -94.5q0 -55 -36.5 -91t-91.5 -36q-57 0 -93.5 33.5t-36.5 85.5q0 36 18.5 65t51.5 43q-20 4 -48 4q-71 0 -114 -39t-43 -101q0 -61 36.5 -100t92.5 -39h294z
M685 211q14 14 14 34q0 21 -14 35t-35 14t-35 -14t-14 -35q0 -20 14 -34t35 -14t35 14z" />
    <glyph glyph-name="tm_Shree" horiz-adv-x="1893" 
d="M1752 317.5q45 -31.5 69.5 -87t24.5 -126.5q0 -118 -65 -203.5t-186 -131t-287 -45.5h-681q-170 0 -296.5 54t-194.5 154.5t-68 237.5q0 95 41 195t104 158l103 -10q-62 -53 -102.5 -149.5t-40.5 -195.5q0 -111 55.5 -192.5t158 -126t240.5 -46.5h681q133 0 230.5 36
t149.5 104t52 161q0 71 -26 114.5t-74 43.5q-41 0 -68 -28.5t-27 -71.5v-162h-100v434h-225v-434h-101v290q0 71 -31 113.5t-91 42.5q-55 0 -80.5 -34t-25.5 -101v-311h-508v513l101 5v-439h306v234q0 102 53 160t151 58q72 0 125 -51v33h259q-50 58 -50 139q0 65 33 116.5
t92.5 80.5t136.5 29q63 0 117.5 -25.5t86.5 -69.5t32 -95q0 -55 -36 -91t-92 -36t-92.5 33.5t-36.5 85.5q0 36 18.5 65t50.5 43q-20 4 -48 4q-71 0 -114 -39t-43 -101q0 -61 36.5 -100t92.5 -39h151l15 -79h-183v-118q44 33 103 33t104 -31.5zM1733 645q14 14 14 35
q0 20 -14 34t-35 14t-35 -14t-14 -34q0 -21 14 -35t35 -14t35 14z" />
  </font>
</defs>
</svg>
