<?xml version="1.0" standalone="no"?>
<!DOCTYPE svg PUBLIC "-//W3C//DTD SVG 1.1//EN" "http://www.w3.org/Graphics/SVG/1.1/DTD/svg11.dtd" >
<svg>
<metadata>
Created by FontForge 20090622 at Wed Nov  1 21:08:46 2017
 By deploy user
Copyright (c) 2015, Cadson Demak (info@cadsondemak.com)
</metadata>
<defs>
<font id="Trirong-Regular" horiz-adv-x="0" >
  <font-face 
    font-family="Trirong"
    font-weight="400"
    font-stretch="normal"
    units-per-em="1000"
    panose-1="0 0 5 0 0 0 0 0 0 0"
    ascent="750"
    descent="-250"
    x-height="498"
    cap-height="700"
    bbox="-638 -487 1387 1133"
    underline-thickness="50"
    underline-position="-50"
    unicode-range="U+000D-U+FB02"
  />
<missing-glyph horiz-adv-x="600" 
d="M90 714h420v-714h-420v714zM479 31v652h-358v-652h358z" />
    <glyph glyph-name="fi" unicode="fi" horiz-adv-x="699" 
d="M40 11q51 16 81 19v432h-95v36h95v42q0 86 38.5 131t112.5 45q54 0 102 -16l-7 -34q-34 13 -65 13q-42 0 -66.5 -29.5t-24.5 -90.5v-61h325l56 4v-472q48 -9 81 -19v-11h-251v11q19 6 80 19v432h-291v-432q43 -7 80 -19v-11h-251v11zM500.5 566q-15.5 15 -15.5 39
t15.5 39.5t40.5 15.5t40.5 -15.5t15.5 -39.5t-15.5 -39t-40.5 -15t-40.5 15z" />
    <glyph glyph-name="fl" unicode="fl" horiz-adv-x="692" 
d="M40 11q51 16 81 19v432h-95v36h95v61q0 79 46 117.5t141 38.5q21 0 72 -8t83 -20l116 24v-681q42 -6 81 -19v-11h-251v11q22 7 80 19v614q-34 17 -75.5 26t-82.5 9q-60 0 -90 -29t-30 -91v-61h151v-36h-151v-432q43 -7 80 -19v-11h-251v11z" />
    <glyph glyph-name="ru_lakkhangyaothai" unicode="&#xe24;&#xe45;" horiz-adv-x="869" 
d="M760.5 522.5q45.5 -41.5 45.5 -126.5v-571h-89v574q0 129 -104 129q-37 0 -68 -24t-44 -64q9 -25 9 -59v-556h-90v572q0 54 -37.5 91t-107.5 37q-51 0 -92.5 -23t-67.5 -67q30 -10 63 -30t54 -42v-8q-45 -26 -62 -56.5t-17 -84.5v-60q13 8 33 8q32 0 55 -22t23 -63
t-26 -64t-70 -23q-55 0 -80.5 28.5t-25.5 78.5v118q0 98 89 145q-41 33 -108 55v12q30 60 93 98.5t147 38.5q63 0 115 -20.5t81 -59.5q22 38 61.5 59t90.5 21q84 0 129.5 -41.5zM136.5 120q-13.5 -15 -13.5 -42t13.5 -42.5t34.5 -15.5t35 15.5t14 42.5t-14 42t-35 15
t-34.5 -15z" />
    <glyph glyph-name="lu_lakkhangyaothai" unicode="&#xe26;&#xe45;" horiz-adv-x="906" 
d="M797.5 522.5q45.5 -41.5 45.5 -126.5v-571h-90v574q0 129 -104 129q-35 0 -65.5 -23t-44.5 -62q10 -26 10 -62v-556h-91v572q0 55 -36 91.5t-106 36.5q-51 0 -91.5 -22.5t-66.5 -67.5q32 -10 67.5 -30.5t55.5 -41.5v-8q-40 -25 -53 -54.5t-13 -86.5v-117
q0 -107 -109 -107q-45 0 -70.5 23t-25.5 64q0 43 25.5 64.5t63.5 21.5q16 0 26 -5v57q0 50 14.5 85.5t60.5 59.5q-36 28 -114 55v12q29 61 91 99t147 38q63 0 113.5 -19.5t79.5 -58.5q22 37 60.5 57.5t89.5 20.5q85 0 130.5 -41.5zM137.5 35.5q13.5 15.5 13.5 42.5t-13.5 42
t-34.5 15t-35 -15t-14 -42t14 -42.5t35 -15.5t34.5 15.5z" />
    <glyph glyph-name=".notdef" horiz-adv-x="600" 
d="M90 714h420v-714h-420v714zM479 31v652h-358v-652h358z" />
    <glyph glyph-name=".null" horiz-adv-x="503" 
 />
    <glyph glyph-name="nonmarkingreturn" unicode="&#xd;" horiz-adv-x="261" 
 />
    <glyph glyph-name="space" unicode=" " horiz-adv-x="261" 
 />
    <glyph glyph-name="A" unicode="A" horiz-adv-x="723" 
d="M716 12v-12h-250v12q35 13 81 18l-54 152h-300l-55 -152q44 -5 83 -19v-11h-214v13q17 6 40 11.5t38 7.5l245 672h63l245 -673q44 -7 78 -19zM481 217l-137 387l-139 -387h276z" />
    <glyph glyph-name="Aacute" unicode="&#xc1;" horiz-adv-x="723" 
d="M321 786l-16 23l114 106q23 23 45 23q15 0 23 -8t8 -19q0 -23 -32 -43zM716 12v-12h-250v12q35 13 81 18l-54 152h-300l-55 -152q44 -5 83 -19v-11h-214v13q17 6 40 11.5t38 7.5l245 672h63l245 -673q44 -7 78 -19zM481 217l-137 387l-139 -387h276z" />
    <glyph glyph-name="Abreve" unicode="&#x102;" horiz-adv-x="723" 
d="M254 806q-41 31 -49 93h56q5 -51 33 -69t67 -18t66.5 18t32.5 69h56q-7 -62 -48.5 -93t-106.5 -31q-66 0 -107 31zM716 12v-12h-250v12q35 13 81 18l-54 152h-300l-55 -152q44 -5 83 -19v-11h-214v13q17 6 40 11.5t38 7.5l245 672h63l245 -673q44 -7 78 -19zM481 217
l-137 387l-139 -387h276z" />
    <glyph glyph-name="uni1EAE" unicode="&#x1eae;" horiz-adv-x="723" 
d="M342 905l-15 21l80 79q35 33 59 33q12 0 19 -6.5t7 -16.5q0 -13 -11.5 -27t-34.5 -26zM259.5 817q-41.5 31 -48.5 92h56q5 -51 32.5 -68.5t66.5 -17.5q40 0 67.5 17.5t32.5 68.5h56q-8 -61 -49 -92t-107 -31q-65 0 -106.5 31zM716 12v-12h-250v12q35 13 81 18l-54 152
h-300l-55 -152q44 -5 83 -19v-11h-214v13q17 6 40 11.5t38 7.5l245 672h63l245 -673q44 -7 78 -19zM481 217l-137 387l-139 -387h276z" />
    <glyph glyph-name="uni1EB6" unicode="&#x1eb6;" horiz-adv-x="723" 
d="M246 806q-41 31 -49 93h56q5 -51 33 -69t67 -18t66.5 18t32.5 69h56q-7 -62 -48.5 -93t-106.5 -31q-66 0 -107 31zM716 12v-12h-250v12q35 13 81 18l-54 152h-300l-55 -152q44 -5 83 -19v-11h-214v13q17 6 40 11.5t38 7.5l245 672h63l245 -673q44 -7 78 -19zM481 217
l-137 387l-139 -387h276zM390.5 -72q12.5 -13 12.5 -34q0 -20 -12.5 -32.5t-32.5 -12.5t-32.5 12.5t-12.5 32.5q0 21 12.5 34t32.5 13t32.5 -13z" />
    <glyph glyph-name="uni1EB0" unicode="&#x1eb0;" horiz-adv-x="723" 
d="M251 988q-11 14 -11 27q0 10 7 16.5t18 6.5q25 0 59 -33l81 -79l-15 -21l-105 57q-23 12 -34 26zM260.5 817q-41.5 31 -48.5 92h56q5 -51 32.5 -68.5t66.5 -17.5q40 0 67.5 17.5t32.5 68.5h56q-8 -61 -49 -92t-107 -31q-65 0 -106.5 31zM716 12v-12h-250v12q35 13 81 18
l-54 152h-300l-55 -152q44 -5 83 -19v-11h-214v13q17 6 40 11.5t38 7.5l245 672h63l245 -673q44 -7 78 -19zM481 217l-137 387l-139 -387h276z" />
    <glyph glyph-name="uni1EB2" unicode="&#x1eb2;" horiz-adv-x="723" 
d="M313 1037l-6 27q32 14 66 14q36 0 61 -16.5t25 -49.5q0 -57 -73 -63l-9 -53h-35l-4 75h21q26 0 40 11t14 31q0 17 -12.5 27t-37.5 10t-50 -13zM259.5 817q-41.5 31 -48.5 92h56q5 -51 32.5 -68.5t66.5 -17.5q40 0 67.5 17.5t32.5 68.5h56q-8 -61 -49 -92t-107 -31
q-65 0 -106.5 31zM716 12v-12h-250v12q35 13 81 18l-54 152h-300l-55 -152q44 -5 83 -19v-11h-214v13q17 6 40 11.5t38 7.5l245 672h63l245 -673q44 -7 78 -19zM481 217l-137 387l-139 -387h276z" />
    <glyph glyph-name="uni1EB4" unicode="&#x1eb4;" horiz-adv-x="723" 
d="M258 1009.5q-16 -15.5 -21 -41.5h-32q7 50 31 75t63 25q20 0 36.5 -8t40.5 -23q18 -12 30 -18t24 -6q23 0 40 14.5t24 45.5h30q-6 -49 -30 -76.5t-65 -27.5q-17 0 -33.5 7.5t-40.5 22.5q-19 13 -33 19.5t-26 6.5q-22 0 -38 -15.5zM433.5 840.5q27.5 17.5 32.5 68.5h56
q-8 -61 -49 -92t-107 -31q-65 0 -106.5 31t-48.5 92h56q5 -51 32.5 -68.5t66.5 -17.5q40 0 67.5 17.5zM716 12v-12h-250v12q35 13 81 18l-54 152h-300l-55 -152q44 -5 83 -19v-11h-214v13q17 6 40 11.5t38 7.5l245 672h63l245 -673q44 -7 78 -19zM481 217l-137 387
l-139 -387h276z" />
    <glyph glyph-name="uni01CD" unicode="&#x1cd;" horiz-adv-x="723" 
d="M280 851q-39 36 -71 58l37 32q30 -22 62 -52.5t51 -56.5h5q19 26 50.5 56.5t61.5 52.5l38 -32q-32 -21 -71 -57t-60 -66h-43q-21 29 -60 65zM716 12v-12h-250v12q35 13 81 18l-54 152h-300l-55 -152q44 -5 83 -19v-11h-214v13q17 6 40 11.5t38 7.5l245 672h63l245 -673
q44 -7 78 -19zM481 217l-137 387l-139 -387h276z" />
    <glyph glyph-name="Acircumflex" unicode="&#xc2;" horiz-adv-x="723" 
d="M308 832.5q-32 -30.5 -62 -52.5l-37 32q32 22 71 57.5t60 64.5h43q21 -29 60 -65t71 -57l-38 -32q-30 22 -61.5 52.5t-50.5 56.5h-5q-19 -26 -51 -56.5zM716 12v-12h-250v12q35 13 81 18l-54 152h-300l-55 -152q44 -5 83 -19v-11h-214v13q17 6 40 11.5t38 7.5l245 672h63
l245 -673q44 -7 78 -19zM481 217l-137 387l-139 -387h276z" />
    <glyph glyph-name="uni1EA4" unicode="&#x1ea4;" horiz-adv-x="723" 
d="M480 900l-15 21l81 79q32 33 59 33q11 0 18 -6.5t7 -16.5q0 -13 -11 -27t-34 -26zM308 832.5q-32 -30.5 -61 -52.5l-38 32q31 21 70 57t61 65h42q21 -29 60.5 -64.5t70.5 -57.5l-37 -32q-30 22 -61.5 52.5t-51.5 56.5h-4q-19 -26 -51 -56.5zM716 12v-12h-250v12
q35 13 81 18l-54 152h-300l-55 -152q44 -5 83 -19v-11h-214v13q17 6 40 11.5t38 7.5l245 672h63l245 -673q44 -7 78 -19zM481 217l-137 387l-139 -387h276z" />
    <glyph glyph-name="uni1EAC" unicode="&#x1eac;" horiz-adv-x="723" 
d="M308 831.5q-32 -30.5 -62 -52.5l-37 32q32 22 71 57.5t60 64.5h43q21 -29 60 -65t71 -57l-38 -32q-30 22 -61.5 52.5t-50.5 56.5h-5q-19 -26 -51 -56.5zM716 12v-12h-250v12q35 13 81 18l-54 152h-300l-55 -152q44 -5 83 -19v-11h-214v13q17 6 40 11.5t38 7.5l245 672h63
l245 -673q44 -7 78 -19zM481 217l-137 387l-139 -387h276zM393.5 -72q12.5 -13 12.5 -34q0 -20 -12.5 -32.5t-32.5 -12.5t-32.5 12.5t-12.5 32.5q0 21 12.5 34t32.5 13t32.5 -13z" />
    <glyph glyph-name="uni1EA6" unicode="&#x1ea6;" horiz-adv-x="723" 
d="M114.5 981q-14.5 16 -14.5 29q0 10 7 16.5t18 6.5q27 0 68 -41l72 -71l-16 -21l-94 51q-26 14 -40.5 30zM209 812q31 21 70 57t61 65h42q21 -29 60.5 -64.5t70.5 -57.5l-37 -32q-30 22 -61.5 52.5t-51.5 56.5h-4q-19 -26 -51 -56.5t-61 -52.5zM716 12v-12h-250v12
q35 13 81 18l-54 152h-300l-55 -152q44 -5 83 -19v-11h-214v13q17 6 40 11.5t38 7.5l245 672h63l245 -673q44 -7 78 -19zM481 217l-137 387l-139 -387h276z" />
    <glyph glyph-name="uni1EA8" unicode="&#x1ea8;" horiz-adv-x="723" 
d="M435 1032l-6 27q32 14 66 14q36 0 61 -16.5t25 -49.5q0 -57 -73 -63l-9 -53h-35l-4 75h21q26 0 40 11t14 31q0 17 -12.5 27t-37.5 10t-50 -13zM308 832.5q-32 -30.5 -61 -52.5l-38 32q31 21 70 57t61 65h42q21 -29 60.5 -64.5t70.5 -57.5l-37 -32q-30 22 -61.5 52.5
t-51.5 56.5h-4q-19 -26 -51 -56.5zM716 12v-12h-250v12q35 13 81 18l-54 152h-300l-55 -152q44 -5 83 -19v-11h-214v13q17 6 40 11.5t38 7.5l245 672h63l245 -673q44 -7 78 -19zM481 217l-137 387l-139 -387h276z" />
    <glyph glyph-name="uni1EAA" unicode="&#x1eaa;" horiz-adv-x="723" 
d="M253 1004.5q-16 -15.5 -22 -41.5h-31q7 51 31 75.5t62 24.5q20 0 38.5 -8t42.5 -23q19 -12 32.5 -18t25.5 -6q22 0 38.5 14.5t23.5 45.5h30q-6 -49 -29.5 -76.5t-64.5 -27.5q-15 0 -30 6.5t-29 14t-18 9.5q-22 13 -36 19.5t-26 6.5q-22 0 -38 -15.5zM442.5 869.5
q39.5 -35.5 70.5 -57.5l-37 -32q-30 22 -61.5 52.5t-51.5 56.5h-4q-19 -26 -51 -56.5t-61 -52.5l-38 32q31 21 70 57t61 65h42q21 -29 60.5 -64.5zM716 12v-12h-250v12q35 13 81 18l-54 152h-300l-55 -152q44 -5 83 -19v-11h-214v13q17 6 40 11.5t38 7.5l245 672h63
l245 -673q44 -7 78 -19zM481 217l-137 387l-139 -387h276z" />
    <glyph glyph-name="Adieresis" unicode="&#xc4;" horiz-adv-x="723" 
d="M210.5 797.5q-12.5 12.5 -12.5 32.5q0 21 12 34t32 13t32.5 -13t12.5 -34q0 -20 -12.5 -32.5t-32.5 -12.5q-19 0 -31.5 12.5zM430 797.5q-12 12.5 -12 32.5q0 21 12 34t32 13t32.5 -13t12.5 -34q0 -20 -12.5 -32.5t-32.5 -12.5t-32 12.5zM716 12v-12h-250v12q35 13 81 18
l-54 152h-300l-55 -152q44 -5 83 -19v-11h-214v13q17 6 40 11.5t38 7.5l245 672h63l245 -673q44 -7 78 -19zM481 217l-137 387l-139 -387h276z" />
    <glyph glyph-name="uni1EA0" unicode="&#x1ea0;" horiz-adv-x="723" 
d="M716 12v-12h-250v12q35 13 81 18l-54 152h-300l-55 -152q44 -5 83 -19v-11h-214v13q17 6 40 11.5t38 7.5l245 672h63l245 -673q44 -7 78 -19zM481 217l-137 387l-139 -387h276zM393.5 -72q12.5 -13 12.5 -34q0 -20 -12.5 -32.5t-32.5 -12.5t-32.5 12.5t-12.5 32.5
q0 21 12.5 34t32.5 13t32.5 -13z" />
    <glyph glyph-name="Agrave" unicode="&#xc0;" horiz-adv-x="723" 
d="M232 911q0 11 8.5 19t23.5 8q22 0 44 -22l116 -107l-16 -23l-142 82q-34 20 -34 43zM716 12v-12h-250v12q35 13 81 18l-54 152h-300l-55 -152q44 -5 83 -19v-11h-214v13q17 6 40 11.5t38 7.5l245 672h63l245 -673q44 -7 78 -19zM481 217l-137 387l-139 -387h276z" />
    <glyph glyph-name="uni1EA2" unicode="&#x1ea2;" horiz-adv-x="723" 
d="M312 951l-7 30q34 17 77 17q41 0 69.5 -20t28.5 -59q0 -34 -22 -53t-62 -23l-10 -64h-39l-5 90h24q30 0 46.5 14t16.5 38q0 20 -15.5 33t-43.5 13q-29 0 -58 -16zM716 12v-12h-250v12q35 13 81 18l-54 152h-300l-55 -152q44 -5 83 -19v-11h-214v13q17 6 40 11.5t38 7.5
l245 672h63l245 -673q44 -7 78 -19zM481 217l-137 387l-139 -387h276z" />
    <glyph glyph-name="Amacron" unicode="&#x100;" horiz-adv-x="723" 
d="M528 784h-333v35h333v-35zM716 12v-12h-250v12q35 13 81 18l-54 152h-300l-55 -152q44 -5 83 -19v-11h-214v13q17 6 40 11.5t38 7.5l245 672h63l245 -673q44 -7 78 -19zM481 217l-137 387l-139 -387h276z" />
    <glyph glyph-name="Aogonek" unicode="&#x104;" horiz-adv-x="723" 
d="M765 -129v-41q-37 -17 -84 -17q-48 0 -75 23.5t-27 56.5q0 34 22.5 63t60.5 44h-196v12q35 13 81 18l-54 152h-300l-55 -152q44 -5 83 -19v-11h-214v13q17 6 40 11.5t38 7.5l245 672h63l245 -673q44 -7 78 -19v-12h-4q-27 -16 -45 -41t-18 -51q0 -25 17.5 -38t44.5 -13
t54 14zM481 217l-137 387l-139 -387h276z" />
    <glyph glyph-name="Aring" unicode="&#xc5;" horiz-adv-x="723" 
d="M294 763q-26 24 -26 63q0 40 26 64.5t67 24.5t66.5 -24.5t25.5 -64.5q0 -39 -25.5 -63t-66.5 -24t-67 24zM319.5 866.5q-16.5 -15.5 -16.5 -40.5t16.5 -40t41.5 -15t40.5 15t15.5 40t-15.5 40.5t-40.5 15.5t-41.5 -15.5zM716 12v-12h-250v12q35 13 81 18l-54 152h-300
l-55 -152q44 -5 83 -19v-11h-214v13q17 6 40 11.5t38 7.5l245 672h63l245 -673q44 -7 78 -19zM481 217l-137 387l-139 -387h276z" />
    <glyph glyph-name="Aringacute" unicode="&#x1fa;" horiz-adv-x="723" 
d="M318 939l-16 23l114 106q23 23 45 23q15 0 23 -8t8 -19q0 -23 -32 -43zM294 761q-26 24 -26 63q0 40 26 64.5t67 24.5t66.5 -24.5t25.5 -64.5q0 -39 -25.5 -63t-66.5 -24t-67 24zM319.5 864.5q-16.5 -15.5 -16.5 -40.5t16.5 -40t41.5 -15t40.5 15t15.5 40t-15.5 40.5
t-40.5 15.5t-41.5 -15.5zM716 12v-12h-250v12q35 13 81 18l-54 152h-300l-55 -152q44 -5 83 -19v-11h-214v13q17 6 40 11.5t38 7.5l245 672h63l245 -673q44 -7 78 -19zM481 217l-137 387l-139 -387h276z" />
    <glyph glyph-name="Atilde" unicode="&#xc3;" horiz-adv-x="723" 
d="M245 827.5q-17 -15.5 -23 -41.5h-33q7 51 32.5 75.5t65.5 24.5q21 0 40.5 -8t45.5 -23q19 -12 33 -18t27 -6q23 0 40.5 14.5t24.5 45.5h32q-7 -49 -31.5 -76.5t-67.5 -27.5q-17 0 -33.5 7t-47.5 23q-22 13 -37 19.5t-28 6.5q-23 0 -40 -15.5zM716 12v-12h-250v12
q35 13 81 18l-54 152h-300l-55 -152q44 -5 83 -19v-11h-214v13q17 6 40 11.5t38 7.5l245 672h63l245 -673q44 -7 78 -19zM481 217l-137 387l-139 -387h276z" />
    <glyph glyph-name="AE" unicode="&#xc6;" horiz-adv-x="998" 
d="M7 12q34 12 74 20l389 642q-5 1 -21 4.5t-28 9.5v12h515v-146h-22q-8 14 -16.5 51t-10.5 58h-287v-286h209q2 17 7 42t11 41h17v-202h-17q-6 18 -11 42t-7 41h-209v-306h290q2 21 15 57.5t23 51.5h22l-15 -144h-510v12q42 13 83 18v152h-279l-90 -152q49 -5 86 -19v-11
h-218v12zM508 217v433h-5l-252 -433h257z" />
    <glyph glyph-name="AEacute" unicode="&#x1fc;" horiz-adv-x="998" 
d="M618 809l114 106q23 23 45 23q15 0 23 -8t8 -19q0 -23 -32 -43l-142 -82zM7 12q34 12 74 20l389 642q-5 1 -21 4.5t-28 9.5v12h515v-146h-22q-8 14 -16.5 51t-10.5 58h-287v-286h209q2 17 7 42t11 41h17v-202h-17q-6 18 -11 42t-7 41h-209v-306h290q2 21 15 57.5t23 51.5
h22l-15 -144h-510v12q42 13 83 18v152h-279l-90 -152q49 -5 86 -19v-11h-218v12zM508 217v433h-5l-252 -433h257z" />
    <glyph glyph-name="B" unicode="B" horiz-adv-x="605" 
d="M36 12q24 9 41.5 13t39.5 6v638q-50 8 -81 18v13h287q119 0 171 -40t52 -125q0 -57 -32.5 -103t-97.5 -59v-5q85 -14 122 -64t37 -113q0 -96 -52 -143.5t-169 -47.5h-318v12zM309 386q71 0 108 39t37 107t-33.5 99.5t-107.5 31.5h-103v-277h99zM344 35q72 0 106.5 40
t34.5 119q0 75 -40 115.5t-114 40.5h-121v-315h134z" />
    <glyph glyph-name="C" unicode="C" horiz-adv-x="619" 
d="M128.5 85q-81.5 95 -81.5 265q0 169 83 264.5t237 95.5q131 0 207 -69l-9 -122h-24q-12 35 -19 112q-24 19 -58 30.5t-73 11.5q-125 0 -187.5 -88t-62.5 -235q0 -149 58.5 -236t184.5 -87q38 0 86.5 14t88.5 40l13 -27q-35 -31 -88.5 -47.5t-115.5 -16.5
q-158 0 -239.5 95z" />
    <glyph glyph-name="Cacute" unicode="&#x106;" horiz-adv-x="619" 
d="M296 809l114 106q23 23 45 23q15 0 23 -8t8 -19q0 -23 -32 -43l-142 -82zM128.5 85q-81.5 95 -81.5 265q0 169 83 264.5t237 95.5q131 0 207 -69l-9 -122h-24q-12 35 -19 112q-24 19 -58 30.5t-73 11.5q-125 0 -187.5 -88t-62.5 -235q0 -149 58.5 -236t184.5 -87
q38 0 86.5 14t88.5 40l13 -27q-35 -31 -88.5 -47.5t-115.5 -16.5q-158 0 -239.5 95z" />
    <glyph glyph-name="Ccaron" unicode="&#x10c;" horiz-adv-x="619" 
d="M302 851q-39 36 -71 58l37 32q30 -22 62 -52.5t51 -56.5h5q19 26 50.5 56.5t61.5 52.5l38 -32q-32 -21 -71 -57t-60 -66h-43q-21 29 -60 65zM128.5 85q-81.5 95 -81.5 265q0 169 83 264.5t237 95.5q131 0 207 -69l-9 -122h-24q-12 35 -19 112q-24 19 -58 30.5t-73 11.5
q-125 0 -187.5 -88t-62.5 -235q0 -149 58.5 -236t184.5 -87q38 0 86.5 14t88.5 40l13 -27q-35 -31 -88.5 -47.5t-115.5 -16.5q-158 0 -239.5 95z" />
    <glyph glyph-name="Ccedilla" unicode="&#xc7;" horiz-adv-x="619" 
d="M486 7.5q-51 -16.5 -112 -17.5l-27 -58q51 0 78.5 -16.5t27.5 -50.5q0 -42 -33.5 -64.5t-86.5 -22.5q-48 0 -84 18l16 29q29 -12 63 -12t54.5 13t20.5 39q0 19 -17.5 28t-41.5 9q-11 0 -25 -2l-22 28l32 64q-139 11 -210.5 105t-71.5 253q0 169 83 264.5t237 95.5
q131 0 207 -69l-9 -122h-24q-12 35 -19 112q-24 19 -58 30.5t-73 11.5q-125 0 -187.5 -88t-62.5 -235q0 -149 58.5 -236t184.5 -87q38 0 86.5 14t88.5 40l13 -27q-35 -30 -86 -46.5z" />
    <glyph glyph-name="Ccircumflex" unicode="&#x108;" horiz-adv-x="619" 
d="M223 812q32 22 71 57.5t60 64.5h43q21 -29 60 -65t71 -57l-38 -32q-30 22 -61.5 52.5t-50.5 56.5h-5q-19 -26 -51 -56.5t-62 -52.5zM128.5 85q-81.5 95 -81.5 265q0 169 83 264.5t237 95.5q131 0 207 -69l-9 -122h-24q-12 35 -19 112q-24 19 -58 30.5t-73 11.5
q-125 0 -187.5 -88t-62.5 -235q0 -149 58.5 -236t184.5 -87q38 0 86.5 14t88.5 40l13 -27q-35 -31 -88.5 -47.5t-115.5 -16.5q-158 0 -239.5 95z" />
    <glyph glyph-name="Cdotaccent" unicode="&#x10a;" horiz-adv-x="619" 
d="M351 797.5q-12 12.5 -12 32.5q0 21 12 34t33 13q20 0 32 -13t12 -34q0 -20 -12.5 -32.5t-31.5 -12.5q-21 0 -33 12.5zM128.5 85q-81.5 95 -81.5 265q0 169 83 264.5t237 95.5q131 0 207 -69l-9 -122h-24q-12 35 -19 112q-24 19 -58 30.5t-73 11.5q-125 0 -187.5 -88
t-62.5 -235q0 -149 58.5 -236t184.5 -87q38 0 86.5 14t88.5 40l13 -27q-35 -31 -88.5 -47.5t-115.5 -16.5q-158 0 -239.5 95z" />
    <glyph glyph-name="D" unicode="D" horiz-adv-x="669" 
d="M40 12q39 14 79 18v639q-38 6 -79 19v12h300q152 0 221.5 -88.5t69.5 -261.5q0 -172 -70 -261t-222 -89h-299v12zM337 35q109 0 154.5 81.5t45.5 233.5q0 151 -45.5 232t-152.5 81h-128v-628h126z" />
    <glyph glyph-name="Eth" unicode="&#xd0;" horiz-adv-x="669" 
d="M561.5 611.5q69.5 -88.5 69.5 -261.5q0 -172 -70 -261t-222 -89h-299v12q39 14 79 18v285h-72v35h72v319q-38 6 -79 19v12h300q152 0 221.5 -88.5zM491.5 116.5q45.5 81.5 45.5 233.5q0 151 -45.5 232t-152.5 81h-128v-313h168v-35h-168v-280h126q109 0 154.5 81.5z" />
    <glyph glyph-name="Dcaron" unicode="&#x10e;" horiz-adv-x="669" 
d="M252 851q-39 36 -71 58l37 32q30 -22 62 -52.5t51 -56.5h5q19 26 50.5 56.5t61.5 52.5l38 -32q-32 -21 -71 -57t-60 -66h-43q-21 29 -60 65zM40 12q39 14 79 18v639q-38 6 -79 19v12h300q152 0 221.5 -88.5t69.5 -261.5q0 -172 -70 -261t-222 -89h-299v12zM337 35
q109 0 154.5 81.5t45.5 233.5q0 151 -45.5 232t-152.5 81h-128v-628h126z" />
    <glyph glyph-name="Dcroat" unicode="&#x110;" horiz-adv-x="669" 
d="M561.5 611.5q69.5 -88.5 69.5 -261.5q0 -172 -70 -261t-222 -89h-299v12q39 14 79 18v285h-72v35h72v319q-38 6 -79 19v12h300q152 0 221.5 -88.5zM491.5 116.5q45.5 81.5 45.5 233.5q0 151 -45.5 232t-152.5 81h-128v-313h168v-35h-168v-280h126q109 0 154.5 81.5z" />
    <glyph glyph-name="uni1E0C" unicode="&#x1e0c;" horiz-adv-x="669" 
d="M40 12q39 14 79 18v639q-38 6 -79 19v12h300q152 0 221.5 -88.5t69.5 -261.5q0 -172 -70 -261t-222 -89h-299v12zM337 35q109 0 154.5 81.5t45.5 233.5q0 151 -45.5 232t-152.5 81h-128v-628h126zM291.5 -138.5q-12.5 12.5 -12.5 32.5q0 21 12.5 34t32.5 13t32.5 -13
t12.5 -34q0 -20 -12.5 -32.5t-32.5 -12.5t-32.5 12.5z" />
    <glyph glyph-name="uni1E0E" unicode="&#x1e0e;" horiz-adv-x="669" 
d="M40 12q39 14 79 18v639q-38 6 -79 19v12h300q152 0 221.5 -88.5t69.5 -261.5q0 -172 -70 -261t-222 -89h-299v12zM337 35q109 0 154.5 81.5t45.5 233.5q0 151 -45.5 232t-152.5 81h-128v-628h126zM142 -69h333v-35h-333v35z" />
    <glyph glyph-name="E" unicode="E" horiz-adv-x="613" 
d="M565 144l-14 -144h-511v12q41 15 83 19v638q-36 4 -83 19v12h511v-146h-21q-8 14 -16.5 51t-10.5 58h-287v-301h208q2 18 7 42.5t12 40.5h16v-202h-16q-7 17 -12 41.5t-7 41.5h-208v-291h290q1 21 14 57t23 52h22z" />
    <glyph glyph-name="Eacute" unicode="&#xc9;" horiz-adv-x="613" 
d="M248 786l-16 23l114 106q23 23 45 23q15 0 23 -8t8 -19q0 -23 -32 -43zM565 144l-14 -144h-511v12q41 15 83 19v638q-36 4 -83 19v12h511v-146h-21q-8 14 -16.5 51t-10.5 58h-287v-301h208q2 18 7 42.5t12 40.5h16v-202h-16q-7 17 -12 41.5t-7 41.5h-208v-291h290
q1 21 14 57t23 52h22z" />
    <glyph glyph-name="Ebreve" unicode="&#x114;" horiz-adv-x="613" 
d="M235 808q-41 31 -49 93h56q5 -51 33 -69t67 -18t66.5 18t32.5 69h56q-7 -62 -48.5 -93t-106.5 -31q-66 0 -107 31zM565 144l-14 -144h-511v12q41 15 83 19v638q-36 4 -83 19v12h511v-146h-21q-8 14 -16.5 51t-10.5 58h-287v-301h208q2 18 7 42.5t12 40.5h16v-202h-16
q-7 17 -12 41.5t-7 41.5h-208v-291h290q1 21 14 57t23 52h22z" />
    <glyph glyph-name="Ecaron" unicode="&#x11a;" horiz-adv-x="613" 
d="M258 851q-39 36 -71 58l37 32q30 -22 62 -52.5t51 -56.5h5q19 26 50.5 56.5t61.5 52.5l38 -32q-32 -21 -71 -57t-60 -66h-43q-21 29 -60 65zM565 144l-14 -144h-511v12q41 15 83 19v638q-36 4 -83 19v12h511v-146h-21q-8 14 -16.5 51t-10.5 58h-287v-301h208q2 18 7 42.5
t12 40.5h16v-202h-16q-7 17 -12 41.5t-7 41.5h-208v-291h290q1 21 14 57t23 52h22z" />
    <glyph glyph-name="Ecircumflex" unicode="&#xca;" horiz-adv-x="613" 
d="M287 832.5q-32 -30.5 -62 -52.5l-37 32q32 22 71 57.5t60 64.5h43q21 -29 60 -65t71 -57l-38 -32q-30 22 -61.5 52.5t-50.5 56.5h-5q-19 -26 -51 -56.5zM565 144l-14 -144h-511v12q41 15 83 19v638q-36 4 -83 19v12h511v-146h-21q-8 14 -16.5 51t-10.5 58h-287v-301h208
q2 18 7 42.5t12 40.5h16v-202h-16q-7 17 -12 41.5t-7 41.5h-208v-291h290q1 21 14 57t23 52h22z" />
    <glyph glyph-name="uni1EBE" unicode="&#x1ebe;" horiz-adv-x="613" 
d="M595 1026.5q7 -6.5 7 -16.5q0 -13 -11 -27t-34 -26l-105 -57l-15 21l81 79q32 33 59 33q11 0 18 -6.5zM280 832.5q-32 -30.5 -61 -52.5l-38 32q31 21 70 57t61 65h42q21 -29 60.5 -64.5t70.5 -57.5l-37 -32q-30 22 -61.5 52.5t-51.5 56.5h-4q-19 -26 -51 -56.5zM520 92
q13 36 23 52h22l-14 -144h-511v12q41 15 83 19v638q-36 4 -83 19v12h511v-146h-21q-8 14 -16.5 51t-10.5 58h-287v-301h208q2 18 7 42.5t12 40.5h16v-202h-16q-7 17 -12 41.5t-7 41.5h-208v-291h290q1 21 14 57z" />
    <glyph glyph-name="uni1EC6" unicode="&#x1ec6;" horiz-adv-x="613" 
d="M280 832.5q-32 -30.5 -62 -52.5l-37 32q32 22 71 57.5t60 64.5h43q21 -29 60 -65t71 -57l-38 -32q-30 22 -61.5 52.5t-50.5 56.5h-5q-19 -26 -51 -56.5zM565 144l-14 -144h-511v12q41 15 83 19v638q-36 4 -83 19v12h511v-146h-21q-8 14 -16.5 51t-10.5 58h-287v-301h208
q2 18 7 42.5t12 40.5h16v-202h-16q-7 17 -12 41.5t-7 41.5h-208v-291h290q1 21 14 57t23 52h22zM367.5 -72q12.5 -13 12.5 -34q0 -20 -12.5 -32.5t-32.5 -12.5t-32.5 12.5t-12.5 32.5q0 21 12.5 34t32.5 13t32.5 -13z" />
    <glyph glyph-name="uni1EC0" unicode="&#x1ec0;" horiz-adv-x="613" 
d="M86.5 981q-14.5 16 -14.5 29q0 10 7 16.5t18 6.5q27 0 68 -41l72 -71l-16 -21l-94 51q-26 14 -40.5 30zM181 812q31 21 70 57t61 65h42q21 -29 60.5 -64.5t70.5 -57.5l-37 -32q-30 22 -61.5 52.5t-51.5 56.5h-4q-19 -26 -51 -56.5t-61 -52.5zM565 144l-14 -144h-511v12
q41 15 83 19v638q-36 4 -83 19v12h511v-146h-21q-8 14 -16.5 51t-10.5 58h-287v-301h208q2 18 7 42.5t12 40.5h16v-202h-16q-7 17 -12 41.5t-7 41.5h-208v-291h290q1 21 14 57t23 52h22z" />
    <glyph glyph-name="uni1EC2" unicode="&#x1ec2;" horiz-adv-x="613" 
d="M407 1032l-6 27q32 14 66 14q36 0 61 -16.5t25 -49.5q0 -57 -73 -63l-9 -53h-35l-4 75h21q26 0 40 11t14 31q0 17 -12.5 27t-37.5 10t-50 -13zM280 832.5q-32 -30.5 -61 -52.5l-38 32q31 21 70 57t61 65h42q21 -29 60.5 -64.5t70.5 -57.5l-37 -32q-30 22 -61.5 52.5
t-51.5 56.5h-4q-19 -26 -51 -56.5zM565 144l-14 -144h-511v12q41 15 83 19v638q-36 4 -83 19v12h511v-146h-21q-8 14 -16.5 51t-10.5 58h-287v-301h208q2 18 7 42.5t12 40.5h16v-202h-16q-7 17 -12 41.5t-7 41.5h-208v-291h290q1 21 14 57t23 52h22z" />
    <glyph glyph-name="uni1EC4" unicode="&#x1ec4;" horiz-adv-x="613" 
d="M225 1004.5q-16 -15.5 -22 -41.5h-31q7 51 31 75.5t62 24.5q20 0 38.5 -8t42.5 -23q19 -12 32.5 -18t25.5 -6q22 0 38.5 14.5t23.5 45.5h30q-6 -49 -29.5 -76.5t-64.5 -27.5q-15 0 -30 6.5t-29 14t-18 9.5q-22 13 -36 19.5t-26 6.5q-22 0 -38 -15.5zM414.5 869.5
q39.5 -35.5 70.5 -57.5l-37 -32q-30 22 -61.5 52.5t-51.5 56.5h-4q-19 -26 -51 -56.5t-61 -52.5l-38 32q31 21 70 57t61 65h42q21 -29 60.5 -64.5zM565 144l-14 -144h-511v12q41 15 83 19v638q-36 4 -83 19v12h511v-146h-21q-8 14 -16.5 51t-10.5 58h-287v-301h208
q2 18 7 42.5t12 40.5h16v-202h-16q-7 17 -12 41.5t-7 41.5h-208v-291h290q1 21 14 57t23 52h22z" />
    <glyph glyph-name="Edieresis" unicode="&#xcb;" horiz-adv-x="613" 
d="M200.5 797.5q-12.5 12.5 -12.5 32.5q0 21 12 34t32 13t32.5 -13t12.5 -34q0 -20 -12.5 -32.5t-32.5 -12.5q-19 0 -31.5 12.5zM420 797.5q-12 12.5 -12 32.5q0 21 12 34t32 13t32.5 -13t12.5 -34q0 -20 -12.5 -32.5t-32.5 -12.5t-32 12.5zM565 144l-14 -144h-511v12
q41 15 83 19v638q-36 4 -83 19v12h511v-146h-21q-8 14 -16.5 51t-10.5 58h-287v-301h208q2 18 7 42.5t12 40.5h16v-202h-16q-7 17 -12 41.5t-7 41.5h-208v-291h290q1 21 14 57t23 52h22z" />
    <glyph glyph-name="Edotaccent" unicode="&#x116;" horiz-adv-x="613" 
d="M314 797.5q-12 12.5 -12 32.5q0 21 12 34t33 13q20 0 32 -13t12 -34q0 -20 -12.5 -32.5t-31.5 -12.5q-21 0 -33 12.5zM565 144l-14 -144h-511v12q41 15 83 19v638q-36 4 -83 19v12h511v-146h-21q-8 14 -16.5 51t-10.5 58h-287v-301h208q2 18 7 42.5t12 40.5h16v-202h-16
q-7 17 -12 41.5t-7 41.5h-208v-291h290q1 21 14 57t23 52h22z" />
    <glyph glyph-name="uni1EB8" unicode="&#x1eb8;" horiz-adv-x="613" 
d="M565 144l-14 -144h-511v12q41 15 83 19v638q-36 4 -83 19v12h511v-146h-21q-8 14 -16.5 51t-10.5 58h-287v-301h208q2 18 7 42.5t12 40.5h16v-202h-16q-7 17 -12 41.5t-7 41.5h-208v-291h290q1 21 14 57t23 52h22zM346.5 -72q12.5 -13 12.5 -34q0 -20 -12.5 -32.5
t-32.5 -12.5t-32.5 12.5t-12.5 32.5q0 21 12.5 34t32.5 13t32.5 -13z" />
    <glyph glyph-name="Egrave" unicode="&#xc8;" horiz-adv-x="613" 
d="M243 911q0 11 8.5 19t23.5 8q22 0 44 -22l116 -107l-16 -23l-142 82q-34 20 -34 43zM565 144l-14 -144h-511v12q41 15 83 19v638q-36 4 -83 19v12h511v-146h-21q-8 14 -16.5 51t-10.5 58h-287v-301h208q2 18 7 42.5t12 40.5h16v-202h-16q-7 17 -12 41.5t-7 41.5h-208
v-291h290q1 21 14 57t23 52h22z" />
    <glyph glyph-name="uni1EBA" unicode="&#x1eba;" horiz-adv-x="613" 
d="M281 951l-7 30q34 17 77 17q41 0 69.5 -20t28.5 -59q0 -34 -22 -53t-62 -23l-10 -64h-39l-5 90h24q30 0 46.5 14t16.5 38q0 20 -15.5 33t-43.5 13q-29 0 -58 -16zM565 144l-14 -144h-511v12q41 15 83 19v638q-36 4 -83 19v12h511v-146h-21q-8 14 -16.5 51t-10.5 58h-287
v-301h208q2 18 7 42.5t12 40.5h16v-202h-16q-7 17 -12 41.5t-7 41.5h-208v-291h290q1 21 14 57t23 52h22z" />
    <glyph glyph-name="Emacron" unicode="&#x112;" horiz-adv-x="613" 
d="M502 784h-333v35h333v-35zM565 144l-14 -144h-511v12q41 15 83 19v638q-36 4 -83 19v12h511v-146h-21q-8 14 -16.5 51t-10.5 58h-287v-301h208q2 18 7 42.5t12 40.5h16v-202h-16q-7 17 -12 41.5t-7 41.5h-208v-291h290q1 21 14 57t23 52h22z" />
    <glyph glyph-name="Eogonek" unicode="&#x118;" horiz-adv-x="613" 
d="M577 -129v-41q-37 -17 -84 -17q-48 0 -75 23.5t-27 56.5q0 34 22.5 63t60.5 44h-434v12q41 15 83 19v638q-36 4 -83 19v12h511v-146h-21q-8 14 -16.5 51t-10.5 58h-287v-301h208q2 18 7 42.5t12 40.5h16v-202h-16q-7 17 -12 41.5t-7 41.5h-208v-291h290q1 21 14 57t23 52
h22l-14 -144h-27q-27 -16 -45 -41t-18 -51q0 -25 17.5 -38t44.5 -13t54 14z" />
    <glyph glyph-name="uni1EBC" unicode="&#x1ebc;" horiz-adv-x="613" 
d="M214 826.5q-17 -15.5 -23 -41.5h-33q7 51 32.5 75.5t65.5 24.5q21 0 40.5 -8t45.5 -23q19 -12 33 -18t27 -6q23 0 40.5 14.5t24.5 45.5h32q-7 -49 -31.5 -76.5t-67.5 -27.5q-17 0 -33.5 7t-47.5 23q-22 13 -37 19.5t-28 6.5q-23 0 -40 -15.5zM565 144l-14 -144h-511v12
q41 15 83 19v638q-36 4 -83 19v12h511v-146h-21q-8 14 -16.5 51t-10.5 58h-287v-301h208q2 18 7 42.5t12 40.5h16v-202h-16q-7 17 -12 41.5t-7 41.5h-208v-291h290q1 21 14 57t23 52h22z" />
    <glyph glyph-name="F" unicode="F" horiz-adv-x="570" 
d="M544 700v-146h-22q-8 14 -16.5 51t-10.5 58h-279v-301h208q2 18 7 42.5t12 40.5h16v-202h-16q-7 17 -12 41.5t-7 41.5h-208v-296q52 -8 84 -19v-11h-260v12q42 13 83 18v639q-51 8 -83 19v12h504z" />
    <glyph glyph-name="G" unicode="G" horiz-adv-x="671" 
d="M120 85q-83 95 -83 265q0 111 39 192t113.5 124.5t176.5 43.5q72 0 137 -19t99 -50l-9 -122h-24q-13 39 -19 112q-22 18 -70 30t-90 12q-126 0 -192.5 -88.5t-66.5 -234.5q0 -149 60 -236t185 -87q27 0 63.5 7t61.5 21v254q-47 9 -79 18v12h238v-10q-32 -17 -70 -22v-258
q-37 -28 -100.5 -43.5t-129.5 -15.5q-157 0 -240 95z" />
    <glyph glyph-name="Gbreve" unicode="&#x11e;" horiz-adv-x="671" 
d="M260 808q-41 31 -49 93h56q5 -51 33 -69t67 -18t66.5 18t32.5 69h56q-7 -62 -48.5 -93t-106.5 -31q-66 0 -107 31zM120 85q-83 95 -83 265q0 111 39 192t113.5 124.5t176.5 43.5q72 0 137 -19t99 -50l-9 -122h-24q-13 39 -19 112q-22 18 -70 30t-90 12
q-126 0 -192.5 -88.5t-66.5 -234.5q0 -149 60 -236t185 -87q27 0 63.5 7t61.5 21v254q-47 9 -79 18v12h238v-10q-32 -17 -70 -22v-258q-37 -28 -100.5 -43.5t-129.5 -15.5q-157 0 -240 95z" />
    <glyph glyph-name="Gcaron" unicode="&#x1e6;" horiz-adv-x="671" 
d="M289 862q-39 36 -71 58l37 32q30 -22 62 -52.5t51 -56.5h5q19 26 50.5 56.5t61.5 52.5l38 -32q-32 -21 -71 -57t-60 -66h-43q-21 29 -60 65zM120 85q-83 95 -83 265q0 111 39 192t113.5 124.5t176.5 43.5q72 0 137 -19t99 -50l-9 -122h-24q-13 39 -19 112q-22 18 -70 30
t-90 12q-126 0 -192.5 -88.5t-66.5 -234.5q0 -149 60 -236t185 -87q27 0 63.5 7t61.5 21v254q-47 9 -79 18v12h238v-10q-32 -17 -70 -22v-258q-37 -28 -100.5 -43.5t-129.5 -15.5q-157 0 -240 95z" />
    <glyph glyph-name="Gcircumflex" unicode="&#x11c;" horiz-adv-x="671" 
d="M229 812q32 22 71 57.5t60 64.5h43q21 -29 60 -65t71 -57l-38 -32q-30 22 -61.5 52.5t-50.5 56.5h-5q-19 -26 -51 -56.5t-62 -52.5zM120 85q-83 95 -83 265q0 111 39 192t113.5 124.5t176.5 43.5q72 0 137 -19t99 -50l-9 -122h-24q-13 39 -19 112q-22 18 -70 30t-90 12
q-126 0 -192.5 -88.5t-66.5 -234.5q0 -149 60 -236t185 -87q27 0 63.5 7t61.5 21v254q-47 9 -79 18v12h238v-10q-32 -17 -70 -22v-258q-37 -28 -100.5 -43.5t-129.5 -15.5q-157 0 -240 95z" />
    <glyph glyph-name="Gcommaaccent" unicode="&#x122;" horiz-adv-x="671" 
d="M120 85q-83 95 -83 265q0 111 39 192t113.5 124.5t176.5 43.5q72 0 137 -19t99 -50l-9 -122h-24q-13 39 -19 112q-22 18 -70 30t-90 12q-126 0 -192.5 -88.5t-66.5 -234.5q0 -149 60 -236t185 -87q27 0 63.5 7t61.5 21v254q-47 9 -79 18v12h238v-10q-32 -17 -70 -22v-258
q-37 -28 -100.5 -43.5t-129.5 -15.5q-157 0 -240 95zM322 -277q19 22 32.5 51.5t16.5 59.5q-3 -1 -10 -1q-21 0 -35 13.5t-14 35.5q0 23 16 36t38 13q31 0 45.5 -18t14.5 -48q0 -42 -20.5 -90t-51.5 -77z" />
    <glyph glyph-name="Gdotaccent" unicode="&#x120;" horiz-adv-x="671" 
d="M345 797.5q-12 12.5 -12 32.5q0 21 12 34t33 13q20 0 32 -13t12 -34q0 -20 -12.5 -32.5t-31.5 -12.5q-21 0 -33 12.5zM120 85q-83 95 -83 265q0 111 39 192t113.5 124.5t176.5 43.5q72 0 137 -19t99 -50l-9 -122h-24q-13 39 -19 112q-22 18 -70 30t-90 12
q-126 0 -192.5 -88.5t-66.5 -234.5q0 -149 60 -236t185 -87q27 0 63.5 7t61.5 21v254q-47 9 -79 18v12h238v-10q-32 -17 -70 -22v-258q-37 -28 -100.5 -43.5t-129.5 -15.5q-157 0 -240 95z" />
    <glyph glyph-name="uni1E20" unicode="&#x1e20;" horiz-adv-x="671" 
d="M193 819h333v-35h-333v35zM120 85q-83 95 -83 265q0 111 39 192t113.5 124.5t176.5 43.5q72 0 137 -19t99 -50l-9 -122h-24q-13 39 -19 112q-22 18 -70 30t-90 12q-126 0 -192.5 -88.5t-66.5 -234.5q0 -149 60 -236t185 -87q27 0 63.5 7t61.5 21v254q-47 9 -79 18v12h238
v-10q-32 -17 -70 -22v-258q-37 -28 -100.5 -43.5t-129.5 -15.5q-157 0 -240 95z" />
    <glyph glyph-name="H" unicode="H" horiz-adv-x="791" 
d="M670 668v-638q46 -7 81 -19v-11h-251v10q26 10 41 14t37 6v307h-366v-307q47 -9 78 -19v-11h-250v12q39 14 79 18v639q-43 7 -79 19v12h250v-12q-27 -10 -41.5 -13.5t-36.5 -5.5v-296h366v296q-33 5 -78 19v12h251v-13q-44 -15 -81 -19z" />
    <glyph glyph-name="Hbar" unicode="&#x126;" horiz-adv-x="791" 
d="M670 668v-128h61v-36h-61v-474q46 -7 81 -19v-11h-251v10q26 10 41 14t37 6v307h-366v-307q47 -9 78 -19v-11h-250v12q39 14 79 18v474h-60v36h60v129q-43 7 -79 19v12h250v-12q-27 -10 -41.5 -13.5t-36.5 -5.5v-129h366v129q-33 5 -78 19v12h251v-13q-44 -15 -81 -19z
M578 504h-366v-131h366v131z" />
    <glyph glyph-name="uni1E2A" unicode="&#x1e2a;" horiz-adv-x="791" 
d="M670 668v-638q46 -7 81 -19v-11h-251v10q26 10 41 14t37 6v307h-366v-307q47 -9 78 -19v-11h-250v12q39 14 79 18v639q-43 7 -79 19v12h250v-12q-27 -10 -41.5 -13.5t-36.5 -5.5v-296h366v296q-33 5 -78 19v12h251v-13q-44 -15 -81 -19zM461.5 -119.5
q27.5 18.5 32.5 69.5h56q-7 -62 -48.5 -93t-106.5 -31q-66 0 -107 31t-49 93h56q9 -88 100 -88q39 0 66.5 18.5z" />
    <glyph glyph-name="Hcircumflex" unicode="&#x124;" horiz-adv-x="791" 
d="M342 832.5q-32 -30.5 -62 -52.5l-37 32q32 22 71 57.5t60 64.5h43q21 -29 60 -65t71 -57l-38 -32q-30 22 -61.5 52.5t-50.5 56.5h-5q-19 -26 -51 -56.5zM670 668v-638q46 -7 81 -19v-11h-251v10q26 10 41 14t37 6v307h-366v-307q47 -9 78 -19v-11h-250v12q39 14 79 18
v639q-43 7 -79 19v12h250v-12q-27 -10 -41.5 -13.5t-36.5 -5.5v-296h366v296q-33 5 -78 19v12h251v-13q-44 -15 -81 -19z" />
    <glyph glyph-name="uni1E24" unicode="&#x1e24;" horiz-adv-x="791" 
d="M670 668v-638q46 -7 81 -19v-11h-251v10q26 10 41 14t37 6v307h-366v-307q47 -9 78 -19v-11h-250v12q39 14 79 18v639q-43 7 -79 19v12h250v-12q-27 -10 -41.5 -13.5t-36.5 -5.5v-296h366v296q-33 5 -78 19v12h251v-13q-44 -15 -81 -19zM423.5 -72q12.5 -13 12.5 -34
q0 -20 -12.5 -32.5t-32.5 -12.5t-32.5 12.5t-12.5 32.5q0 21 12.5 34t32.5 13t32.5 -13z" />
    <glyph glyph-name="I" unicode="I" horiz-adv-x="341" 
d="M43 12q43 13 81 18v639q-42 6 -81 19v12h255v-13q-34 -11 -82 -18v-639q41 -6 82 -19v-11h-255v12z" />
    <glyph glyph-name="IJ" unicode="&#x132;" horiz-adv-x="810" 
d="M43 12q43 13 81 18v639q-42 6 -81 19v12h255v-13q-34 -11 -82 -18v-639q41 -6 82 -19v-11h-255v12zM358 39l15 24q51 -30 112 -30q112 0 112 110v525q-42 6 -79 18v14h251v-13q-43 -15 -79 -19v-525q0 -74 -48.5 -113.5t-129.5 -39.5q-94 0 -154 49z" />
    <glyph glyph-name="Iacute" unicode="&#xcd;" horiz-adv-x="341" 
d="M73 809l114 106q23 23 45 23q15 0 23 -8t8 -19q0 -23 -32 -43l-142 -82zM43 12q43 13 81 18v639q-42 6 -81 19v12h255v-13q-34 -11 -82 -18v-639q41 -6 82 -19v-11h-255v12z" />
    <glyph glyph-name="Ibreve" unicode="&#x12c;" horiz-adv-x="341" 
d="M63 808q-41 31 -49 93h56q5 -51 33 -69t67 -18t66.5 18t32.5 69h56q-7 -62 -48.5 -93t-106.5 -31q-66 0 -107 31zM43 12q43 13 81 18v639q-42 6 -81 19v12h255v-13q-34 -11 -82 -18v-639q41 -6 82 -19v-11h-255v12z" />
    <glyph glyph-name="uni01CF" unicode="&#x1cf;" horiz-adv-x="341" 
d="M88 851q-39 36 -71 58l37 32q30 -22 62 -52.5t51 -56.5h5q19 26 50.5 56.5t61.5 52.5l38 -32q-32 -21 -71 -57t-60 -66h-43q-21 29 -60 65zM43 12q43 13 81 18v639q-42 6 -81 19v12h255v-13q-34 -11 -82 -18v-639q41 -6 82 -19v-11h-255v12z" />
    <glyph glyph-name="Icircumflex" unicode="&#xce;" horiz-adv-x="341" 
d="M17 812q32 22 71 57.5t60 64.5h43q21 -29 60 -65t71 -57l-38 -32q-30 22 -61.5 52.5t-50.5 56.5h-5q-19 -26 -51 -56.5t-62 -52.5zM43 12q43 13 81 18v639q-42 6 -81 19v12h255v-13q-34 -11 -82 -18v-639q41 -6 82 -19v-11h-255v12z" />
    <glyph glyph-name="Idieresis" unicode="&#xcf;" horiz-adv-x="341" 
d="M27.5 797.5q-12.5 12.5 -12.5 32.5q0 21 12 34t32 13t32.5 -13t12.5 -34q0 -20 -12.5 -32.5t-32.5 -12.5q-19 0 -31.5 12.5zM247 797.5q-12 12.5 -12 32.5q0 21 12 34t32 13t32.5 -13t12.5 -34q0 -20 -12.5 -32.5t-32.5 -12.5t-32 12.5zM43 12q43 13 81 18v639
q-42 6 -81 19v12h255v-13q-34 -11 -82 -18v-639q41 -6 82 -19v-11h-255v12z" />
    <glyph glyph-name="Idotaccent" unicode="&#x130;" horiz-adv-x="341" 
d="M136 797.5q-12 12.5 -12 32.5q0 21 12 34t33 13q20 0 32 -13t12 -34q0 -20 -12.5 -32.5t-31.5 -12.5q-21 0 -33 12.5zM43 12q43 13 81 18v639q-42 6 -81 19v12h255v-13q-34 -11 -82 -18v-639q41 -6 82 -19v-11h-255v12z" />
    <glyph glyph-name="uni1ECA" unicode="&#x1eca;" horiz-adv-x="341" 
d="M43 12q43 13 81 18v639q-42 6 -81 19v12h255v-13q-34 -11 -82 -18v-639q41 -6 82 -19v-11h-255v12zM136.5 -138.5q-12.5 12.5 -12.5 32.5q0 21 12.5 34t32.5 13t32.5 -13t12.5 -34q0 -20 -12.5 -32.5t-32.5 -12.5t-32.5 12.5z" />
    <glyph glyph-name="Igrave" unicode="&#xcc;" horiz-adv-x="341" 
d="M107 868q-34 20 -34 43q0 11 8.5 19t23.5 8q22 0 44 -22l116 -107l-16 -23zM43 12q43 13 81 18v639q-42 6 -81 19v12h255v-13q-34 -11 -82 -18v-639q41 -6 82 -19v-11h-255v12z" />
    <glyph glyph-name="uni1EC8" unicode="&#x1ec8;" horiz-adv-x="341" 
d="M149 869h24q30 0 46.5 14t16.5 38q0 20 -15.5 33t-43.5 13q-29 0 -58 -16l-7 30q34 17 77 17q41 0 69.5 -20t28.5 -59q0 -34 -22 -53t-62 -23l-10 -64h-39zM43 12q43 13 81 18v639q-42 6 -81 19v12h255v-13q-34 -11 -82 -18v-639q41 -6 82 -19v-11h-255v12z" />
    <glyph glyph-name="Imacron" unicode="&#x12a;" horiz-adv-x="341" 
d="M-6 820h353v-35h-353v35zM43 12q43 13 81 18v639q-42 6 -81 19v12h255v-13q-34 -11 -82 -18v-639q41 -6 82 -19v-11h-255v12z" />
    <glyph glyph-name="Iogonek" unicode="&#x12e;" horiz-adv-x="341" 
d="M327 -129v-41q-37 -17 -84 -17q-48 0 -75 23.5t-27 56.5q0 34 22.5 63t60.5 44h-181v12q43 13 81 18v639q-42 6 -81 19v12h255v-13q-34 -11 -82 -18v-639q41 -6 82 -19v-11h-24q-27 -16 -45 -41t-18 -51q0 -25 17.5 -38t44.5 -13t54 14z" />
    <glyph glyph-name="Itilde" unicode="&#x128;" horiz-adv-x="341" 
d="M31.5 861.5q25.5 24.5 65.5 24.5q21 0 40.5 -8t45.5 -23q19 -12 33 -18t27 -6q23 0 40.5 14.5t24.5 45.5h32q-7 -49 -31.5 -76.5t-67.5 -27.5q-17 0 -33.5 7t-47.5 23q-22 13 -37 19.5t-28 6.5q-23 0 -40 -15.5t-23 -41.5h-33q7 51 32.5 75.5zM43 12q43 13 81 18v639
q-42 6 -81 19v12h255v-13q-34 -11 -82 -18v-639q41 -6 82 -19v-11h-255v12z" />
    <glyph glyph-name="J" unicode="J" horiz-adv-x="473" 
d="M21 39l15 24q51 -30 112 -30q112 0 112 110v525q-42 6 -79 18v14h251v-13q-43 -15 -79 -19v-525q0 -74 -48.5 -113.5t-129.5 -39.5q-94 0 -154 49z" />
    <glyph glyph-name="Jcircumflex" unicode="&#x134;" horiz-adv-x="473" 
d="M154 812q32 22 71 57.5t60 64.5h43q21 -29 60 -65t71 -57l-38 -32q-30 22 -61.5 52.5t-50.5 56.5h-5q-19 -26 -51 -56.5t-62 -52.5zM21 39l15 24q51 -30 112 -30q112 0 112 110v525q-42 6 -79 18v14h251v-13q-43 -15 -79 -19v-525q0 -74 -48.5 -113.5t-129.5 -39.5
q-94 0 -154 49z" />
    <glyph glyph-name="K" unicode="K" horiz-adv-x="736" 
d="M40 12q18 6 41 11t39 7v639q-48 7 -80 19v12h254v-13q-36 -12 -81 -18v-343l302 329q6 6 6 10q0 8 -24.5 13t-48.5 6v16h201v-16q-9 -2 -23.5 -4t-25.5 -5.5t-19 -12.5l-235 -253l297 -379q50 -9 83 -19v-11h-160l-275 351l-78 -86v-235q40 -6 81 -19v-11h-254v12z" />
    <glyph glyph-name="Kcommaaccent" unicode="&#x136;" horiz-adv-x="736" 
d="M40 12q18 6 41 11t39 7v639q-48 7 -80 19v12h254v-13q-36 -12 -81 -18v-343l302 329q6 6 6 10q0 8 -24.5 13t-48.5 6v16h201v-16q-9 -2 -23.5 -4t-25.5 -5.5t-19 -12.5l-235 -253l297 -379q50 -9 83 -19v-11h-160l-275 351l-78 -86v-235q40 -6 81 -19v-11h-254v12z
M344 -277q19 22 32.5 51.5t16.5 59.5q-3 -1 -10 -1q-21 0 -35 13.5t-14 35.5q0 23 16 36t38 13q31 0 45.5 -18t14.5 -48q0 -42 -20.5 -90t-51.5 -77z" />
    <glyph glyph-name="L" unicode="L" horiz-adv-x="599" 
d="M40 12q41 13 84 18v639q-46 7 -81 19v12h254v-13q-36 -11 -80 -18v-634h281q1 21 14.5 57.5t23.5 51.5h21l-14 -144h-503v12z" />
    <glyph glyph-name="Lacute" unicode="&#x139;" horiz-adv-x="599" 
d="M121 809l114 106q23 23 45 23q15 0 23 -8t8 -19q0 -23 -32 -43l-142 -82zM40 12q41 13 84 18v639q-46 7 -81 19v12h254v-13q-36 -11 -80 -18v-634h281q1 21 14.5 57.5t23.5 51.5h21l-14 -144h-503v12z" />
    <glyph glyph-name="Lcaron" unicode="&#x13d;" horiz-adv-x="599" 
d="M406 496q19 22 33 52t17 59l-10 -1q-20 0 -35.5 12.5t-15.5 37.5q0 23 14.5 38.5t40.5 15.5q33 0 47.5 -20t14.5 -51q0 -41 -21.5 -89.5t-52.5 -78.5zM40 12q41 13 84 18v639q-46 7 -81 19v12h254v-13q-36 -11 -80 -18v-634h281q1 21 14.5 57.5t23.5 51.5h21l-14 -144
h-503v12z" />
    <glyph glyph-name="Lcommaaccent" unicode="&#x13b;" horiz-adv-x="599" 
d="M40 12q41 13 84 18v639q-46 7 -81 19v12h254v-13q-36 -11 -80 -18v-634h281q1 21 14.5 57.5t23.5 51.5h21l-14 -144h-503v12zM272 -277q19 22 32.5 51.5t16.5 59.5q-3 -1 -10 -1q-21 0 -35 13.5t-14 35.5q0 23 16 36t38 13q31 0 45.5 -18t14.5 -48q0 -42 -20.5 -90
t-51.5 -77z" />
    <glyph glyph-name="Ldot" unicode="&#x13f;" horiz-adv-x="599" 
d="M40 12q41 13 84 18v639q-46 7 -81 19v12h254v-13q-36 -11 -80 -18v-634h281q1 21 14.5 57.5t23.5 51.5h21l-14 -144h-503v12zM364.5 343.5q-12.5 12.5 -12.5 33.5q0 20 12.5 32.5t32.5 12.5t32.5 -12.5t12.5 -32.5q0 -21 -12.5 -33.5t-32.5 -12.5t-32.5 12.5z" />
    <glyph glyph-name="uni1E36" unicode="&#x1e36;" horiz-adv-x="599" 
d="M40 12q41 13 84 18v639q-46 7 -81 19v12h254v-13q-36 -11 -80 -18v-634h281q1 21 14.5 57.5t23.5 51.5h21l-14 -144h-503v12zM292 -131.5q-12 12.5 -12 33.5q0 20 12 32.5t33 12.5q19 0 31.5 -12.5t12.5 -32.5q0 -21 -12 -33.5t-32 -12.5q-21 0 -33 12.5z" />
    <glyph glyph-name="uni1E38" unicode="&#x1e38;" horiz-adv-x="599" 
d="M3 819h333v-34h-333v34zM40 12q41 13 84 18v639q-46 7 -81 19v12h254v-13q-36 -11 -80 -18v-634h281q1 21 14.5 57.5t23.5 51.5h21l-14 -144h-503v12zM291 -131.5q-12 12.5 -12 33.5q0 20 12.5 32.5t31.5 12.5q20 0 32.5 -12.5t12.5 -32.5q0 -21 -12.5 -33.5t-32.5 -12.5
t-32 12.5z" />
    <glyph glyph-name="uni1E3A" unicode="&#x1e3a;" horiz-adv-x="599" 
d="M40 12q41 13 84 18v639q-46 7 -81 19v12h254v-13q-36 -11 -80 -18v-634h281q1 21 14.5 57.5t23.5 51.5h21l-14 -144h-503v12zM140 -69h333v-35h-333v35z" />
    <glyph glyph-name="Lslash" unicode="&#x141;" horiz-adv-x="599" 
d="M557 144l-14 -144h-503v12q41 13 84 18v243l-87 -31v48l87 31v348q-46 7 -81 19v12h254v-13q-36 -11 -80 -18v-314l209 75v-48l-209 -75v-272h281q1 21 14.5 57.5t23.5 51.5h21z" />
    <glyph glyph-name="M" unicode="M" horiz-adv-x="913" 
d="M40 11q37 11 80 18v640q-48 7 -80 19v12h187l224 -544l237 544h185v-12q-37 -12 -80 -20v-639q43 -7 80 -18v-11h-253v11q34 11 80 19v600l-242 -553h-54l-238 559v-606q46 -8 80 -19v-11h-206v11z" />
    <glyph glyph-name="uni1E42" unicode="&#x1e42;" horiz-adv-x="913" 
d="M40 11q37 11 80 18v640q-48 7 -80 19v12h187l224 -544l237 544h185v-12q-37 -12 -80 -20v-639q43 -7 80 -18v-11h-253v11q34 11 80 19v600l-242 -553h-54l-238 559v-606q46 -8 80 -19v-11h-206v11zM422.5 -138.5q-12.5 12.5 -12.5 32.5q0 21 12.5 34t32.5 13t32.5 -13
t12.5 -34q0 -20 -12.5 -32.5t-32.5 -12.5t-32.5 12.5z" />
    <glyph glyph-name="N" unicode="N" horiz-adv-x="778" 
d="M40 11q37 11 80 18v640q-48 7 -80 19v12h182l390 -583v553q-41 6 -80 18v12h206v-12q-35 -11 -81 -19v-669h-53l-438 649v-619q46 -8 80 -19v-11h-206v11z" />
    <glyph glyph-name="Nacute" unicode="&#x143;" horiz-adv-x="778" 
d="M328 809l114 106q23 23 45 23q15 0 23 -8t8 -19q0 -23 -32 -43l-142 -82zM40 11q37 11 80 18v640q-48 7 -80 19v12h182l390 -583v553q-41 6 -80 18v12h206v-12q-35 -11 -81 -19v-669h-53l-438 649v-619q46 -8 80 -19v-11h-206v11z" />
    <glyph glyph-name="Ncaron" unicode="&#x147;" horiz-adv-x="778" 
d="M306 851q-39 36 -71 58l37 32q30 -22 62 -52.5t51 -56.5h5q19 26 50.5 56.5t61.5 52.5l38 -32q-32 -21 -71 -57t-60 -66h-43q-21 29 -60 65zM40 11q37 11 80 18v640q-48 7 -80 19v12h182l390 -583v553q-41 6 -80 18v12h206v-12q-35 -11 -81 -19v-669h-53l-438 649v-619
q46 -8 80 -19v-11h-206v11z" />
    <glyph glyph-name="Ncommaaccent" unicode="&#x145;" horiz-adv-x="778" 
d="M40 11q37 11 80 18v640q-48 7 -80 19v12h182l390 -583v553q-41 6 -80 18v12h206v-12q-35 -11 -81 -19v-669h-53l-438 649v-619q46 -8 80 -19v-11h-206v11zM344 -277q19 22 32.5 51.5t16.5 59.5q-3 -1 -10 -1q-21 0 -35 13.5t-14 35.5q0 23 16 36t38 13q31 0 45.5 -18
t14.5 -48q0 -42 -20.5 -90t-51.5 -77z" />
    <glyph glyph-name="uni1E44" unicode="&#x1e44;" horiz-adv-x="778" 
d="M359 797.5q-12 12.5 -12 32.5q0 21 12 34t33 13q20 0 32 -13t12 -34q0 -20 -12.5 -32.5t-31.5 -12.5q-21 0 -33 12.5zM40 11q37 11 80 18v640q-48 7 -80 19v12h182l390 -583v553q-41 6 -80 18v12h206v-12q-35 -11 -81 -19v-669h-53l-438 649v-619q46 -8 80 -19v-11h-206
v11z" />
    <glyph glyph-name="uni1E46" unicode="&#x1e46;" horiz-adv-x="778" 
d="M40 11q37 11 80 18v640q-48 7 -80 19v12h182l390 -583v553q-41 6 -80 18v12h206v-12q-35 -11 -81 -19v-669h-53l-438 649v-619q46 -8 80 -19v-11h-206v11zM346.5 -138.5q-12.5 12.5 -12.5 32.5q0 21 12.5 34t32.5 13t32.5 -13t12.5 -34q0 -20 -12.5 -32.5t-32.5 -12.5
t-32.5 12.5z" />
    <glyph glyph-name="Eng" unicode="&#x14a;" horiz-adv-x="778" 
d="M383 -215l8 25q44 -19 101 -19q55 0 88 24.5t33 78.5v102l-447 653v-619q46 -8 80 -19v-11h-206v11q37 11 80 18v640q-48 7 -80 19v12h182l390 -583v553q-41 6 -80 18v12h206v-12q-35 -11 -81 -19v-777q0 -68 -39 -104.5t-109 -36.5q-66 0 -126 34z" />
    <glyph glyph-name="uni1E48" unicode="&#x1e48;" horiz-adv-x="778" 
d="M40 11q37 11 80 18v640q-48 7 -80 19v12h182l390 -583v553q-41 6 -80 18v12h206v-12q-35 -11 -81 -19v-669h-53l-438 649v-619q46 -8 80 -19v-11h-206v11zM224 -69h333v-35h-333v35z" />
    <glyph glyph-name="Ntilde" unicode="&#xd1;" horiz-adv-x="778" 
d="M254.5 861.5q25.5 24.5 65.5 24.5q21 0 40.5 -8t45.5 -23q19 -12 33 -18t27 -6q23 0 40.5 14.5t24.5 45.5h32q-7 -49 -31.5 -76.5t-67.5 -27.5q-17 0 -33.5 7t-47.5 23q-22 13 -37 19.5t-28 6.5q-23 0 -40 -15.5t-23 -41.5h-33q7 51 32.5 75.5zM40 11q37 11 80 18v640
q-48 7 -80 19v12h182l390 -583v553q-41 6 -80 18v12h206v-12q-35 -11 -81 -19v-669h-53l-438 649v-619q46 -8 80 -19v-11h-206v11z" />
    <glyph glyph-name="O" unicode="O" horiz-adv-x="715" 
d="M119.5 85q-82.5 95 -82.5 265q0 169 82.5 264.5t237.5 95.5q154 0 237.5 -95.5t83.5 -264.5t-83.5 -264.5t-237.5 -95.5q-155 0 -237.5 95zM527 115.5q58 88.5 58 234.5t-58 234.5t-170 88.5t-169.5 -88.5t-57.5 -234.5q0 -147 57.5 -235t169.5 -88t170 88.5z" />
    <glyph glyph-name="Oacute" unicode="&#xd3;" horiz-adv-x="715" 
d="M265 809l114 106q23 23 45 23q15 0 23 -8t8 -19q0 -23 -32 -43l-142 -82zM119.5 85q-82.5 95 -82.5 265q0 169 82.5 264.5t237.5 95.5q154 0 237.5 -95.5t83.5 -264.5t-83.5 -264.5t-237.5 -95.5q-155 0 -237.5 95zM527 115.5q58 88.5 58 234.5t-58 234.5t-170 88.5
t-169.5 -88.5t-57.5 -234.5q0 -147 57.5 -235t169.5 -88t170 88.5z" />
    <glyph glyph-name="Obreve" unicode="&#x14e;" horiz-adv-x="715" 
d="M250 806q-41 31 -49 93h56q5 -51 33 -69t67 -18t66.5 18t32.5 69h56q-7 -62 -48.5 -93t-106.5 -31q-66 0 -107 31zM119.5 85q-82.5 95 -82.5 265q0 169 82.5 264.5t237.5 95.5q154 0 237.5 -95.5t83.5 -264.5t-83.5 -264.5t-237.5 -95.5q-155 0 -237.5 95zM527 115.5
q58 88.5 58 234.5t-58 234.5t-170 88.5t-169.5 -88.5t-57.5 -234.5q0 -147 57.5 -235t169.5 -88t170 88.5z" />
    <glyph glyph-name="uni01D1" unicode="&#x1d1;" horiz-adv-x="715" 
d="M276 851q-39 36 -71 58l37 32q30 -22 62 -52.5t51 -56.5h5q19 26 50.5 56.5t61.5 52.5l38 -32q-32 -21 -71 -57t-60 -66h-43q-21 29 -60 65zM119.5 85q-82.5 95 -82.5 265q0 169 82.5 264.5t237.5 95.5q154 0 237.5 -95.5t83.5 -264.5t-83.5 -264.5t-237.5 -95.5
q-155 0 -237.5 95zM527 115.5q58 88.5 58 234.5t-58 234.5t-170 88.5t-169.5 -88.5t-57.5 -234.5q0 -147 57.5 -235t169.5 -88t170 88.5z" />
    <glyph glyph-name="Ocircumflex" unicode="&#xd4;" horiz-adv-x="715" 
d="M204 812q32 22 71 57.5t60 64.5h43q21 -29 60 -65t71 -57l-38 -32q-30 22 -61.5 52.5t-50.5 56.5h-5q-19 -26 -51 -56.5t-62 -52.5zM119.5 85q-82.5 95 -82.5 265q0 169 82.5 264.5t237.5 95.5q154 0 237.5 -95.5t83.5 -264.5t-83.5 -264.5t-237.5 -95.5
q-155 0 -237.5 95zM527 115.5q58 88.5 58 234.5t-58 234.5t-170 88.5t-169.5 -88.5t-57.5 -234.5q0 -147 57.5 -235t169.5 -88t170 88.5z" />
    <glyph glyph-name="uni1ED0" unicode="&#x1ed0;" horiz-adv-x="715" 
d="M460 921l81 79q32 33 59 33q11 0 18 -6.5t7 -16.5q0 -13 -11 -27t-34 -26l-105 -57zM204 812q31 21 70 57t61 65h42q21 -29 60.5 -64.5t70.5 -57.5l-37 -32q-30 22 -61.5 52.5t-51.5 56.5h-4q-19 -26 -51 -56.5t-61 -52.5zM119.5 85q-82.5 95 -82.5 265q0 169 82.5 264.5
t237.5 95.5q154 0 237.5 -95.5t83.5 -264.5t-83.5 -264.5t-237.5 -95.5q-155 0 -237.5 95zM527 115.5q58 88.5 58 234.5t-58 234.5t-170 88.5t-169.5 -88.5t-57.5 -234.5q0 -147 57.5 -235t169.5 -88t170 88.5z" />
    <glyph glyph-name="uni1ED8" unicode="&#x1ed8;" horiz-adv-x="715" 
d="M204 812q32 22 71 57.5t60 64.5h43q21 -29 60 -65t71 -57l-38 -32q-30 22 -61.5 52.5t-50.5 56.5h-5q-19 -26 -51 -56.5t-62 -52.5zM119.5 85q-82.5 95 -82.5 265q0 169 82.5 264.5t237.5 95.5q154 0 237.5 -95.5t83.5 -264.5t-83.5 -264.5t-237.5 -95.5
q-155 0 -237.5 95zM527 115.5q58 88.5 58 234.5t-58 234.5t-170 88.5t-169.5 -88.5t-57.5 -234.5q0 -147 57.5 -235t169.5 -88t170 88.5zM323.5 -138.5q-12.5 12.5 -12.5 32.5q0 21 12.5 34t32.5 13t32.5 -13t12.5 -34q0 -20 -12.5 -32.5t-32.5 -12.5t-32.5 12.5z" />
    <glyph glyph-name="uni1ED2" unicode="&#x1ed2;" horiz-adv-x="715" 
d="M150 951q-26 14 -40.5 30t-14.5 29q0 10 7 16.5t18 6.5q27 0 68 -41l72 -71l-16 -21zM204 812q31 21 70 57t61 65h42q21 -29 60.5 -64.5t70.5 -57.5l-37 -32q-30 22 -61.5 52.5t-51.5 56.5h-4q-19 -26 -51 -56.5t-61 -52.5zM119.5 85q-82.5 95 -82.5 265
q0 169 82.5 264.5t237.5 95.5q154 0 237.5 -95.5t83.5 -264.5t-83.5 -264.5t-237.5 -95.5q-155 0 -237.5 95zM527 115.5q58 88.5 58 234.5t-58 234.5t-170 88.5t-169.5 -88.5t-57.5 -234.5q0 -147 57.5 -235t169.5 -88t170 88.5z" />
    <glyph glyph-name="uni1ED4" unicode="&#x1ed4;" horiz-adv-x="715" 
d="M455 971h21q26 0 40 11t14 31q0 17 -12.5 27t-37.5 10t-50 -13l-6 27q32 14 66 14q36 0 61 -16.5t25 -49.5q0 -57 -73 -63l-9 -53h-35zM204 817q31 21 70 57t61 65h42q21 -29 60.5 -64.5t70.5 -57.5l-37 -32q-30 22 -61.5 52.5t-51.5 56.5h-4q-19 -26 -51 -56.5
t-61 -52.5zM119.5 85q-82.5 95 -82.5 265q0 169 82.5 264.5t237.5 95.5q154 0 237.5 -95.5t83.5 -264.5t-83.5 -264.5t-237.5 -95.5q-155 0 -237.5 95zM527 115.5q58 88.5 58 234.5t-58 234.5t-170 88.5t-169.5 -88.5t-57.5 -234.5q0 -147 57.5 -235t169.5 -88t170 88.5z
" />
    <glyph glyph-name="uni1ED6" unicode="&#x1ed6;" horiz-adv-x="715" 
d="M226 1038.5q24 24.5 62 24.5q20 0 38.5 -8t42.5 -23q19 -12 32.5 -18t25.5 -6q22 0 38.5 14.5t23.5 45.5h30q-6 -49 -29.5 -76.5t-64.5 -27.5q-15 0 -30 6.5t-29 14t-18 9.5q-22 13 -36 19.5t-26 6.5q-22 0 -38 -15.5t-22 -41.5h-31q7 51 31 75.5zM204 812q31 21 70 57
t61 65h42q21 -29 60.5 -64.5t70.5 -57.5l-37 -32q-30 22 -61.5 52.5t-51.5 56.5h-4q-19 -26 -51 -56.5t-61 -52.5zM119.5 85q-82.5 95 -82.5 265q0 169 82.5 264.5t237.5 95.5q154 0 237.5 -95.5t83.5 -264.5t-83.5 -264.5t-237.5 -95.5q-155 0 -237.5 95zM527 115.5
q58 88.5 58 234.5t-58 234.5t-170 88.5t-169.5 -88.5t-57.5 -234.5q0 -147 57.5 -235t169.5 -88t170 88.5z" />
    <glyph glyph-name="Odieresis" unicode="&#xd6;" horiz-adv-x="715" 
d="M214.5 797.5q-12.5 12.5 -12.5 32.5q0 21 12 34t32 13t32.5 -13t12.5 -34q0 -20 -12.5 -32.5t-32.5 -12.5q-19 0 -31.5 12.5zM434 797.5q-12 12.5 -12 32.5q0 21 12 34t32 13t32.5 -13t12.5 -34q0 -20 -12.5 -32.5t-32.5 -12.5t-32 12.5zM119.5 85q-82.5 95 -82.5 265
q0 169 82.5 264.5t237.5 95.5q154 0 237.5 -95.5t83.5 -264.5t-83.5 -264.5t-237.5 -95.5q-155 0 -237.5 95zM527 115.5q58 88.5 58 234.5t-58 234.5t-170 88.5t-169.5 -88.5t-57.5 -234.5q0 -147 57.5 -235t169.5 -88t170 88.5z" />
    <glyph glyph-name="uni1ECC" unicode="&#x1ecc;" horiz-adv-x="715" 
d="M119.5 85q-82.5 95 -82.5 265q0 169 82.5 264.5t237.5 95.5q154 0 237.5 -95.5t83.5 -264.5t-83.5 -264.5t-237.5 -95.5q-155 0 -237.5 95zM527 115.5q58 88.5 58 234.5t-58 234.5t-170 88.5t-169.5 -88.5t-57.5 -234.5q0 -147 57.5 -235t169.5 -88t170 88.5z
M323.5 -138.5q-12.5 12.5 -12.5 32.5q0 21 12.5 34t32.5 13t32.5 -13t12.5 -34q0 -20 -12.5 -32.5t-32.5 -12.5t-32.5 12.5z" />
    <glyph glyph-name="Ograve" unicode="&#xd2;" horiz-adv-x="715" 
d="M290 868q-34 20 -34 43q0 11 8.5 19t23.5 8q22 0 44 -22l116 -107l-16 -23zM119.5 85q-82.5 95 -82.5 265q0 169 82.5 264.5t237.5 95.5q154 0 237.5 -95.5t83.5 -264.5t-83.5 -264.5t-237.5 -95.5q-155 0 -237.5 95zM527 115.5q58 88.5 58 234.5t-58 234.5t-170 88.5
t-169.5 -88.5t-57.5 -234.5q0 -147 57.5 -235t169.5 -88t170 88.5z" />
    <glyph glyph-name="uni1ECE" unicode="&#x1ece;" horiz-adv-x="715" 
d="M330 869h24q30 0 46.5 14t16.5 38q0 20 -15.5 33t-43.5 13q-29 0 -58 -16l-7 30q34 17 77 17q41 0 69.5 -20t28.5 -59q0 -34 -22 -53t-62 -23l-10 -64h-39zM119.5 85q-82.5 95 -82.5 265q0 169 82.5 264.5t237.5 95.5q154 0 237.5 -95.5t83.5 -264.5t-83.5 -264.5
t-237.5 -95.5q-155 0 -237.5 95zM527 115.5q58 88.5 58 234.5t-58 234.5t-170 88.5t-169.5 -88.5t-57.5 -234.5q0 -147 57.5 -235t169.5 -88t170 88.5z" />
    <glyph glyph-name="Ohorn" unicode="&#x1a0;" horiz-adv-x="738" 
d="M721.5 592q-23.5 -40 -70.5 -75q27 -72 27 -167q0 -169 -83.5 -264.5t-237.5 -95.5q-155 0 -237.5 95t-82.5 265q0 169 82.5 264.5t237.5 95.5q100 0 171 -41.5t109 -118.5q22 19 38.5 43.5t19.5 49.5q-7 -5 -19 -5q-21 0 -33.5 13t-12.5 35q0 21 13 35.5t41 14.5
q61 0 61 -70q0 -34 -23.5 -74zM527 115.5q58 88.5 58 234.5t-58 234.5t-170 88.5t-169.5 -88.5t-57.5 -234.5q0 -147 57.5 -235t169.5 -88t170 88.5z" />
    <glyph glyph-name="uni1EDA" unicode="&#x1eda;" horiz-adv-x="738" 
d="M282 785l-16 23l114 106q23 23 45 23q15 0 23 -8t8 -19q0 -23 -32 -43zM721.5 592q-23.5 -40 -70.5 -75q27 -72 27 -167q0 -169 -83.5 -264.5t-237.5 -95.5q-155 0 -237.5 95t-82.5 265q0 169 82.5 264.5t237.5 95.5q100 0 171 -41.5t109 -118.5q22 19 38.5 43.5
t19.5 49.5q-7 -5 -19 -5q-21 0 -33.5 13t-12.5 35q0 21 13 35.5t41 14.5q61 0 61 -70q0 -34 -23.5 -74zM527 115.5q58 88.5 58 234.5t-58 234.5t-170 88.5t-169.5 -88.5t-57.5 -234.5q0 -147 57.5 -235t169.5 -88t170 88.5z" />
    <glyph glyph-name="uni1EE2" unicode="&#x1ee2;" horiz-adv-x="738" 
d="M721.5 592q-23.5 -40 -70.5 -75q27 -72 27 -167q0 -169 -83.5 -264.5t-237.5 -95.5q-155 0 -237.5 95t-82.5 265q0 169 82.5 264.5t237.5 95.5q100 0 171 -41.5t109 -118.5q22 19 38.5 43.5t19.5 49.5q-7 -5 -19 -5q-21 0 -33.5 13t-12.5 35q0 21 13 35.5t41 14.5
q61 0 61 -70q0 -34 -23.5 -74zM527 115.5q58 88.5 58 234.5t-58 234.5t-170 88.5t-169.5 -88.5t-57.5 -234.5q0 -147 57.5 -235t169.5 -88t170 88.5zM388.5 -72q12.5 -13 12.5 -34q0 -20 -12.5 -32.5t-32.5 -12.5t-32.5 12.5t-12.5 32.5q0 21 12.5 34t32.5 13t32.5 -13z" />
    <glyph glyph-name="uni1EDC" unicode="&#x1edc;" horiz-adv-x="738" 
d="M257 910q0 11 8.5 19t23.5 8q22 0 44 -22l116 -107l-16 -23l-142 82q-34 20 -34 43zM721.5 592q-23.5 -40 -70.5 -75q27 -72 27 -167q0 -169 -83.5 -264.5t-237.5 -95.5q-155 0 -237.5 95t-82.5 265q0 169 82.5 264.5t237.5 95.5q100 0 171 -41.5t109 -118.5
q22 19 38.5 43.5t19.5 49.5q-7 -5 -19 -5q-21 0 -33.5 13t-12.5 35q0 21 13 35.5t41 14.5q61 0 61 -70q0 -34 -23.5 -74zM527 115.5q58 88.5 58 234.5t-58 234.5t-170 88.5t-169.5 -88.5t-57.5 -234.5q0 -147 57.5 -235t169.5 -88t170 88.5z" />
    <glyph glyph-name="uni1EDE" unicode="&#x1ede;" horiz-adv-x="738" 
d="M299 950l-7 30q34 17 77 17q41 0 69.5 -20t28.5 -59q0 -34 -22 -53t-62 -23l-10 -64h-39l-5 90h24q30 0 46.5 14t16.5 38q0 20 -15.5 33t-43.5 13q-29 0 -58 -16zM721.5 592q-23.5 -40 -70.5 -75q27 -72 27 -167q0 -169 -83.5 -264.5t-237.5 -95.5q-155 0 -237.5 95
t-82.5 265q0 169 82.5 264.5t237.5 95.5q100 0 171 -41.5t109 -118.5q22 19 38.5 43.5t19.5 49.5q-7 -5 -19 -5q-21 0 -33.5 13t-12.5 35q0 21 13 35.5t41 14.5q61 0 61 -70q0 -34 -23.5 -74zM527 115.5q58 88.5 58 234.5t-58 234.5t-170 88.5t-169.5 -88.5t-57.5 -234.5
q0 -147 57.5 -235t169.5 -88t170 88.5z" />
    <glyph glyph-name="uni1EE0" unicode="&#x1ee0;" horiz-adv-x="738" 
d="M243 827.5q-17 -15.5 -23 -41.5h-33q7 51 32.5 75.5t65.5 24.5q21 0 40.5 -8t45.5 -23q19 -12 33 -18t27 -6q23 0 40.5 14.5t24.5 45.5h32q-7 -49 -31.5 -76.5t-67.5 -27.5q-17 0 -33.5 7t-47.5 23q-22 13 -37 19.5t-28 6.5q-23 0 -40 -15.5zM721.5 592
q-23.5 -40 -70.5 -75q27 -72 27 -167q0 -169 -83.5 -264.5t-237.5 -95.5q-155 0 -237.5 95t-82.5 265q0 169 82.5 264.5t237.5 95.5q100 0 171 -41.5t109 -118.5q22 19 38.5 43.5t19.5 49.5q-7 -5 -19 -5q-21 0 -33.5 13t-12.5 35q0 21 13 35.5t41 14.5q61 0 61 -70
q0 -34 -23.5 -74zM527 115.5q58 88.5 58 234.5t-58 234.5t-170 88.5t-169.5 -88.5t-57.5 -234.5q0 -147 57.5 -235t169.5 -88t170 88.5z" />
    <glyph glyph-name="Ohungarumlaut" unicode="&#x150;" horiz-adv-x="715" 
d="M210 808l114 106q24 24 45 24q15 0 23.5 -8.5t8.5 -19.5q0 -23 -33 -42l-142 -83zM408 808l114 106q7 8 19 16t26 8q15 0 23.5 -8.5t8.5 -19.5q0 -23 -33 -42l-142 -83zM119.5 85q-82.5 95 -82.5 265q0 169 82.5 264.5t237.5 95.5q154 0 237.5 -95.5t83.5 -264.5
t-83.5 -264.5t-237.5 -95.5q-155 0 -237.5 95zM527 115.5q58 88.5 58 234.5t-58 234.5t-170 88.5t-169.5 -88.5t-57.5 -234.5q0 -147 57.5 -235t169.5 -88t170 88.5z" />
    <glyph glyph-name="Omacron" unicode="&#x14c;" horiz-adv-x="715" 
d="M189 832h333v-35h-333v35zM119.5 85q-82.5 95 -82.5 265q0 169 82.5 264.5t237.5 95.5q154 0 237.5 -95.5t83.5 -264.5t-83.5 -264.5t-237.5 -95.5q-155 0 -237.5 95zM527 115.5q58 88.5 58 234.5t-58 234.5t-170 88.5t-169.5 -88.5t-57.5 -234.5q0 -147 57.5 -235
t169.5 -88t170 88.5z" />
    <glyph glyph-name="Oslash" unicode="&#xd8;" horiz-adv-x="715" 
d="M651.5 516q26.5 -72 26.5 -166q0 -169 -83.5 -264.5t-237.5 -95.5q-116 0 -195 56l-53 -76l-30 22l55 78q-48 47 -72.5 118t-24.5 162q0 169 82.5 264.5t237.5 95.5q110 0 187 -51l42 61l32 -22l-44 -63q51 -47 77.5 -119zM177 132l331 476q-57 65 -151 65
q-112 0 -169.5 -88.5t-57.5 -234.5q0 -134 47 -218zM527 115.5q58 88.5 58 234.5q0 141 -52 226l-334 -477q58 -72 158 -72q112 0 170 88.5z" />
    <glyph glyph-name="Oslashacute" unicode="&#x1fe;" horiz-adv-x="715" 
d="M292 786l-16 23l114 106q23 23 45 23q15 0 23 -8t8 -19q0 -23 -32 -43zM651.5 516q26.5 -72 26.5 -166q0 -169 -83.5 -264.5t-237.5 -95.5q-116 0 -195 56l-53 -76l-30 22l55 78q-48 47 -72.5 118t-24.5 162q0 169 82.5 264.5t237.5 95.5q110 0 187 -51l42 61l32 -22
l-44 -63q51 -47 77.5 -119zM177 132l331 476q-57 65 -151 65q-112 0 -169.5 -88.5t-57.5 -234.5q0 -134 47 -218zM527 115.5q58 88.5 58 234.5q0 141 -52 226l-334 -477q58 -72 158 -72q112 0 170 88.5z" />
    <glyph glyph-name="Otilde" unicode="&#xd5;" horiz-adv-x="715" 
d="M218.5 861.5q25.5 24.5 65.5 24.5q21 0 40.5 -8t45.5 -23q19 -12 33 -18t27 -6q23 0 40.5 14.5t24.5 45.5h32q-7 -49 -31.5 -76.5t-67.5 -27.5q-17 0 -33.5 7t-47.5 23q-22 13 -37 19.5t-28 6.5q-23 0 -40 -15.5t-23 -41.5h-33q7 51 32.5 75.5zM119.5 85
q-82.5 95 -82.5 265q0 169 82.5 264.5t237.5 95.5q154 0 237.5 -95.5t83.5 -264.5t-83.5 -264.5t-237.5 -95.5q-155 0 -237.5 95zM527 115.5q58 88.5 58 234.5t-58 234.5t-170 88.5t-169.5 -88.5t-57.5 -234.5q0 -147 57.5 -235t169.5 -88t170 88.5z" />
    <glyph glyph-name="OE" unicode="&#x152;" horiz-adv-x="1002" 
d="M174 36.5q-69 46.5 -103 127.5t-34 186q0 104 34 185t103 128t170 47q103 0 168 -57v47h429v-146h-22q-8 14 -16.5 51t-10.5 58h-287v-286h209q6 54 18 83h16v-202h-16q-12 31 -18 83h-209v-306h290q2 22 15 58t23 51h21l-14 -144h-428v44q-33 -28 -73.5 -41t-94.5 -13
q-101 0 -170 46.5zM512 100v498q-26 34 -66.5 54.5t-88.5 20.5q-111 0 -168.5 -88.5t-57.5 -234.5q0 -147 57.5 -235t168.5 -88q97 0 155 73z" />
    <glyph glyph-name="P" unicode="P" horiz-adv-x="609" 
d="M36 12q19 6 43 11t38 7v639q-43 7 -79 19v12h298q129 0 185.5 -53.5t56.5 -154.5q0 -96 -54.5 -155.5t-162.5 -59.5h-151v-247q42 -6 81 -19v-11h-255v12zM341 312q74 0 110 50t36 131q0 80 -36 125t-110 45h-131v-351h131z" />
    <glyph glyph-name="Thorn" unicode="&#xde;" horiz-adv-x="609" 
d="M36 12q48 14 82 18v639q-41 6 -80 19v12h172v-138h151q114 0 166 -56t52 -151q0 -96 -54.5 -155.5t-162.5 -59.5h-152v-110q40 -6 81 -19v-11h-255v12zM341 175q75 0 110.5 50t35.5 131t-36.5 126t-112.5 45h-128v-352h131z" />
    <glyph glyph-name="Q" unicode="Q" horiz-adv-x="715" 
d="M475 -89q45 -32 116 -38v-32q-113 9 -178 47.5t-82 102.5q-143 8 -218.5 102.5t-75.5 256.5q0 169 82.5 264.5t237.5 95.5q154 0 237.5 -95.5t83.5 -264.5q0 -151 -66.5 -244t-192.5 -112q11 -51 56 -83zM187.5 115.5q57.5 -88.5 169.5 -88.5t170 88.5t58 234.5
t-58 234.5t-170 88.5q-111 0 -169 -88.5t-58 -234.5t57.5 -234.5z" />
    <glyph glyph-name="R" unicode="R" horiz-adv-x="668" 
d="M643 12v-12h-146l-164 300h-119v-270q39 -6 81 -19v-11h-255v12q18 6 41 11t40 7v639q-42 6 -79 19v12h329q114 0 164.5 -52t50.5 -146q0 -84 -43.5 -136t-127.5 -63l155 -273q51 -9 73 -18zM214 336h131q77 0 113 44t36 123t-36 119.5t-113 40.5h-131v-327z" />
    <glyph glyph-name="Racute" unicode="&#x154;" horiz-adv-x="668" 
d="M255 786l-16 23l114 106q23 23 45 23q15 0 23 -8t8 -19q0 -23 -32 -43zM643 12v-12h-146l-164 300h-119v-270q39 -6 81 -19v-11h-255v12q18 6 41 11t40 7v639q-42 6 -79 19v12h329q114 0 164.5 -52t50.5 -146q0 -84 -43.5 -136t-127.5 -63l155 -273q51 -9 73 -18z
M214 336h131q77 0 113 44t36 123t-36 119.5t-113 40.5h-131v-327z" />
    <glyph glyph-name="Rcaron" unicode="&#x158;" horiz-adv-x="668" 
d="M247 851q-39 36 -71 58l37 32q30 -22 62 -52.5t51 -56.5h5q19 26 50.5 56.5t61.5 52.5l38 -32q-32 -21 -71 -57t-60 -66h-43q-21 29 -60 65zM643 12v-12h-146l-164 300h-119v-270q39 -6 81 -19v-11h-255v12q18 6 41 11t40 7v639q-42 6 -79 19v12h329q114 0 164.5 -52
t50.5 -146q0 -84 -43.5 -136t-127.5 -63l155 -273q51 -9 73 -18zM214 336h131q77 0 113 44t36 123t-36 119.5t-113 40.5h-131v-327z" />
    <glyph glyph-name="Rcommaaccent" unicode="&#x156;" horiz-adv-x="668" 
d="M643 12v-12h-146l-164 300h-119v-270q39 -6 81 -19v-11h-255v12q18 6 41 11t40 7v639q-42 6 -79 19v12h329q114 0 164.5 -52t50.5 -146q0 -84 -43.5 -136t-127.5 -63l155 -273q51 -9 73 -18zM214 336h131q77 0 113 44t36 123t-36 119.5t-113 40.5h-131v-327zM395.5 -87
q14.5 -18 14.5 -48q0 -42 -20.5 -90t-51.5 -77l-32 25q19 22 32.5 51.5t16.5 59.5q-3 -1 -10 -1q-21 0 -35 13.5t-14 35.5q0 23 16 36t38 13q31 0 45.5 -18z" />
    <glyph glyph-name="uni1E5A" unicode="&#x1e5a;" horiz-adv-x="668" 
d="M643 12v-12h-146l-164 300h-119v-270q39 -6 81 -19v-11h-255v12q18 6 41 11t40 7v639q-42 6 -79 19v12h329q114 0 164.5 -52t50.5 -146q0 -84 -43.5 -136t-127.5 -63l155 -273q51 -9 73 -18zM214 336h131q77 0 113 44t36 123t-36 119.5t-113 40.5h-131v-327zM377.5 -72
q12.5 -13 12.5 -34q0 -20 -12.5 -32.5t-32.5 -12.5t-32.5 12.5t-12.5 32.5q0 21 12.5 34t32.5 13t32.5 -13z" />
    <glyph glyph-name="uni1E5C" unicode="&#x1e5c;" horiz-adv-x="668" 
d="M474 785h-354v35h354v-35zM643 12v-12h-146l-164 300h-119v-270q39 -6 81 -19v-11h-255v12q18 6 41 11t40 7v639q-42 6 -79 19v12h329q114 0 164.5 -52t50.5 -146q0 -84 -43.5 -136t-127.5 -63l155 -273q51 -9 73 -18zM214 336h131q77 0 113 44t36 123t-36 119.5
t-113 40.5h-131v-327zM378.5 -72q12.5 -13 12.5 -34q0 -20 -12.5 -32.5t-33.5 -12.5q-19 0 -31.5 12.5t-12.5 32.5q0 21 12 34t32 13q21 0 33.5 -13z" />
    <glyph glyph-name="uni1E5E" unicode="&#x1e5e;" horiz-adv-x="668" 
d="M643 12v-12h-146l-164 300h-119v-270q39 -6 81 -19v-11h-255v12q18 6 41 11t40 7v639q-42 6 -79 19v12h329q114 0 164.5 -52t50.5 -146q0 -84 -43.5 -136t-127.5 -63l155 -273q51 -9 73 -18zM214 336h131q77 0 113 44t36 123t-36 119.5t-113 40.5h-131v-327zM164 -69h333
v-35h-333v35z" />
    <glyph glyph-name="S" unicode="S" horiz-adv-x="545" 
d="M128.5 15.5q-61.5 25.5 -94.5 66.5l10 136h23q9 -25 18 -123q26 -31 67 -49.5t93 -18.5q71 0 121 37.5t50 105.5q0 45 -24 76.5t-59 51.5t-94 46q-64 28 -102 50t-64.5 58.5t-26.5 90.5q0 82 63 124.5t170 42.5q137 0 206 -72l-10 -117h-23q-13 37 -19 108
q-23 21 -56.5 32.5t-74.5 11.5q-80 0 -121 -30t-41 -87q0 -33 20.5 -57.5t51 -42t83.5 -40.5q69 -30 111.5 -55.5t73 -69t30.5 -107.5q0 -59 -31.5 -103t-86.5 -67.5t-124 -23.5q-78 0 -139.5 25.5z" />
    <glyph glyph-name="Sacute" unicode="&#x15a;" horiz-adv-x="545" 
d="M198 809l114 106q23 23 45 23q15 0 23 -8t8 -19q0 -23 -32 -43l-142 -82zM128.5 15.5q-61.5 25.5 -94.5 66.5l10 136h23q9 -25 18 -123q26 -31 67 -49.5t93 -18.5q71 0 121 37.5t50 105.5q0 45 -24 76.5t-59 51.5t-94 46q-64 28 -102 50t-64.5 58.5t-26.5 90.5
q0 82 63 124.5t170 42.5q137 0 206 -72l-10 -117h-23q-13 37 -19 108q-23 21 -56.5 32.5t-74.5 11.5q-80 0 -121 -30t-41 -87q0 -33 20.5 -57.5t51 -42t83.5 -40.5q69 -30 111.5 -55.5t73 -69t30.5 -107.5q0 -59 -31.5 -103t-86.5 -67.5t-124 -23.5q-78 0 -139.5 25.5z" />
    <glyph glyph-name="Scaron" unicode="&#x160;" horiz-adv-x="545" 
d="M190 851q-39 36 -71 58l37 32q30 -22 62 -52.5t51 -56.5h5q19 26 50.5 56.5t61.5 52.5l38 -32q-32 -21 -71 -57t-60 -66h-43q-21 29 -60 65zM128.5 15.5q-61.5 25.5 -94.5 66.5l10 136h23q9 -25 18 -123q26 -31 67 -49.5t93 -18.5q71 0 121 37.5t50 105.5q0 45 -24 76.5
t-59 51.5t-94 46q-64 28 -102 50t-64.5 58.5t-26.5 90.5q0 82 63 124.5t170 42.5q137 0 206 -72l-10 -117h-23q-13 37 -19 108q-23 21 -56.5 32.5t-74.5 11.5q-80 0 -121 -30t-41 -87q0 -33 20.5 -57.5t51 -42t83.5 -40.5q69 -30 111.5 -55.5t73 -69t30.5 -107.5
q0 -59 -31.5 -103t-86.5 -67.5t-124 -23.5q-78 0 -139.5 25.5z" />
    <glyph glyph-name="Scedilla" unicode="&#x15e;" horiz-adv-x="545" 
d="M450 49.5q-60 -51.5 -156 -58.5l-26 -56q51 0 78.5 -16.5t27.5 -50.5q0 -42 -33.5 -64.5t-86.5 -22.5q-48 0 -84 18l16 29q29 -12 63 -12t54.5 13t20.5 39q0 19 -17.5 28t-41.5 9q-11 0 -25 -2l-22 28l30 59q-71 4 -127.5 29t-86.5 63l10 136h23q9 -25 18 -123
q26 -31 67 -49.5t93 -18.5q71 0 121 37.5t50 105.5q0 45 -24 76.5t-59 51.5t-94 46q-64 28 -102 50t-64.5 58.5t-26.5 90.5q0 82 63 124.5t170 42.5q137 0 206 -72l-10 -117h-23q-13 37 -19 108q-23 21 -56.5 32.5t-74.5 11.5q-80 0 -121 -30t-41 -87q0 -33 20.5 -57.5
t51 -42t83.5 -40.5q69 -30 111.5 -55.5t73 -69t30.5 -107.5q0 -83 -60 -134.5z" />
    <glyph glyph-name="Scircumflex" unicode="&#x15c;" horiz-adv-x="545" 
d="M119 812q32 22 71 57.5t60 64.5h43q21 -29 60 -65t71 -57l-38 -32q-30 22 -61.5 52.5t-50.5 56.5h-5q-19 -26 -51 -56.5t-62 -52.5zM128.5 15.5q-61.5 25.5 -94.5 66.5l10 136h23q9 -25 18 -123q26 -31 67 -49.5t93 -18.5q71 0 121 37.5t50 105.5q0 45 -24 76.5t-59 51.5
t-94 46q-64 28 -102 50t-64.5 58.5t-26.5 90.5q0 82 63 124.5t170 42.5q137 0 206 -72l-10 -117h-23q-13 37 -19 108q-23 21 -56.5 32.5t-74.5 11.5q-80 0 -121 -30t-41 -87q0 -33 20.5 -57.5t51 -42t83.5 -40.5q69 -30 111.5 -55.5t73 -69t30.5 -107.5q0 -59 -31.5 -103
t-86.5 -67.5t-124 -23.5q-78 0 -139.5 25.5z" />
    <glyph glyph-name="Scommaaccent" unicode="&#x218;" horiz-adv-x="545" 
d="M128.5 15.5q-61.5 25.5 -94.5 66.5l10 136h23q9 -25 18 -123q26 -31 67 -49.5t93 -18.5q71 0 121 37.5t50 105.5q0 45 -24 76.5t-59 51.5t-94 46q-64 28 -102 50t-64.5 58.5t-26.5 90.5q0 82 63 124.5t170 42.5q137 0 206 -72l-10 -117h-23q-13 37 -19 108
q-23 21 -56.5 32.5t-74.5 11.5q-80 0 -121 -30t-41 -87q0 -33 20.5 -57.5t51 -42t83.5 -40.5q69 -30 111.5 -55.5t73 -69t30.5 -107.5q0 -59 -31.5 -103t-86.5 -67.5t-124 -23.5q-78 0 -139.5 25.5zM225 -267q19 23 33 52.5t17 59.5q-4 -2 -11 -2q-20 0 -35 14.5t-15 35.5
q0 23 16 38t39 15q31 0 47 -19.5t16 -49.5q0 -41 -21.5 -90t-52.5 -79z" />
    <glyph glyph-name="uni1E60" unicode="&#x1e60;" horiz-adv-x="545" 
d="M249 797.5q-12 12.5 -12 32.5q0 21 12 34t33 13q20 0 32 -13t12 -34q0 -20 -12.5 -32.5t-31.5 -12.5q-21 0 -33 12.5zM128.5 15.5q-61.5 25.5 -94.5 66.5l10 136h23q9 -25 18 -123q26 -31 67 -49.5t93 -18.5q71 0 121 37.5t50 105.5q0 45 -24 76.5t-59 51.5t-94 46
q-64 28 -102 50t-64.5 58.5t-26.5 90.5q0 82 63 124.5t170 42.5q137 0 206 -72l-10 -117h-23q-13 37 -19 108q-23 21 -56.5 32.5t-74.5 11.5q-80 0 -121 -30t-41 -87q0 -33 20.5 -57.5t51 -42t83.5 -40.5q69 -30 111.5 -55.5t73 -69t30.5 -107.5q0 -59 -31.5 -103
t-86.5 -67.5t-124 -23.5q-78 0 -139.5 25.5z" />
    <glyph glyph-name="uni1E62" unicode="&#x1e62;" horiz-adv-x="545" 
d="M128.5 15.5q-61.5 25.5 -94.5 66.5l10 136h23q9 -25 18 -123q26 -31 67 -49.5t93 -18.5q71 0 121 37.5t50 105.5q0 45 -24 76.5t-59 51.5t-94 46q-64 28 -102 50t-64.5 58.5t-26.5 90.5q0 82 63 124.5t170 42.5q137 0 206 -72l-10 -117h-23q-13 37 -19 108
q-23 21 -56.5 32.5t-74.5 11.5q-80 0 -121 -30t-41 -87q0 -33 20.5 -57.5t51 -42t83.5 -40.5q69 -30 111.5 -55.5t73 -69t30.5 -107.5q0 -59 -31.5 -103t-86.5 -67.5t-124 -23.5q-78 0 -139.5 25.5zM236.5 -138.5q-12.5 12.5 -12.5 32.5q0 21 12.5 34t32.5 13t32.5 -13
t12.5 -34q0 -20 -12.5 -32.5t-32.5 -12.5t-32.5 12.5z" />
    <glyph glyph-name="uni1E9E" unicode="&#x1e9e;" horiz-adv-x="705" 
d="M277 14v38q69 -27 142 -27q78 0 121.5 49t43.5 129q0 73 -46 116.5t-132 43.5h-60v24l175 186q-18 44 -65 72t-110 28q-79 0 -122 -47t-43 -130v-466q15 -3 32.5 -8.5t26.5 -10.5v-11h-232v12q47 13 82 18v440q0 113 66 176.5t196 63.5q64 0 114 -22.5t81.5 -58
t43.5 -75.5l-150 -157q110 -7 172 -59t62 -135q0 -93 -63 -153t-189 -60q-86 0 -146 24z" />
    <glyph glyph-name="uni018F" unicode="&#x18f;" horiz-adv-x="711" 
d="M502.5 663.5q82.5 -46.5 127 -129.5t44.5 -190q0 -172 -91 -263t-249 -91q-100 0 -167 43t-99 115.5t-32 162.5v27h549q-2 90 -35.5 165.5t-98.5 121t-156 45.5q-123 0 -223 -66q-4 10 -6 17t-5 15q40 31 102 52.5t147 21.5q110 0 192.5 -46.5zM512.5 103
q64.5 78 71.5 197h-460q0 -70 21 -132.5t67.5 -102.5t116.5 -40q119 0 183.5 78z" />
    <glyph glyph-name="T" unicode="T" horiz-adv-x="639" 
d="M188 12q34 9 85 18v633h-185q-2 -23 -10.5 -64.5t-16.5 -55.5h-21v157h558v-157h-21q-8 14 -16.5 55.5t-10.5 64.5h-185v-633q49 -8 85 -19v-11h-262v12z" />
    <glyph glyph-name="Tbar" unicode="&#x166;" horiz-adv-x="639" 
d="M598 700v-157h-21q-8 14 -16.5 55.5t-10.5 64.5h-185v-305h152v-35h-152v-293q49 -8 85 -19v-11h-262v12q34 9 85 18v293h-148v35h148v305h-185q-2 -23 -10.5 -64.5t-16.5 -55.5h-21v157h558z" />
    <glyph glyph-name="Tcaron" unicode="&#x164;" horiz-adv-x="639" 
d="M236 851q-39 36 -71 58l37 32q30 -22 62 -52.5t51 -56.5h5q19 26 50.5 56.5t61.5 52.5l38 -32q-32 -21 -71 -57t-60 -66h-43q-21 29 -60 65zM188 12q34 9 85 18v633h-185q-2 -23 -10.5 -64.5t-16.5 -55.5h-21v157h558v-157h-21q-8 14 -16.5 55.5t-10.5 64.5h-185v-633
q49 -8 85 -19v-11h-262v12z" />
    <glyph glyph-name="uni0162" unicode="&#x162;" horiz-adv-x="639" 
d="M598 700v-157h-21q-8 14 -16.5 55.5t-10.5 64.5h-185v-633q49 -8 85 -19v-11h-115l-30 -65q5 1 15 1q44 -1 68 -19.5t24 -48.5q0 -42 -33.5 -64.5t-86.5 -22.5q-47 0 -85 18l16 29q29 -12 64 -12q34 0 54.5 13t20.5 39q0 19 -17.5 28t-42.5 9q-10 0 -24 -2l-22 28l34 69
h-102v12q34 9 85 18v633h-185q-2 -23 -10.5 -64.5t-16.5 -55.5h-21v157h558z" />
    <glyph glyph-name="uni021A" unicode="&#x21a;" horiz-adv-x="639" 
d="M188 12q34 9 85 18v633h-185q-2 -23 -10.5 -64.5t-16.5 -55.5h-21v157h558v-157h-21q-8 14 -16.5 55.5t-10.5 64.5h-185v-633q49 -8 85 -19v-11h-262v12zM272 -277q19 22 32.5 51.5t16.5 59.5q-3 -1 -10 -1q-21 0 -35 13.5t-14 35.5q0 23 16 36t38 13q31 0 45.5 -18
t14.5 -48q0 -42 -20.5 -90t-51.5 -77z" />
    <glyph glyph-name="uni1E6C" unicode="&#x1e6c;" horiz-adv-x="639" 
d="M188 12q34 9 85 18v633h-185q-2 -23 -10.5 -64.5t-16.5 -55.5h-21v157h558v-157h-21q-8 14 -16.5 55.5t-10.5 64.5h-185v-633q49 -8 85 -19v-11h-262v12zM285.5 -138.5q-12.5 12.5 -12.5 32.5q0 21 12.5 34t32.5 13t32.5 -13t12.5 -34q0 -20 -12.5 -32.5t-32.5 -12.5
t-32.5 12.5z" />
    <glyph glyph-name="uni1E6E" unicode="&#x1e6e;" horiz-adv-x="639" 
d="M188 12q34 9 85 18v633h-185q-2 -23 -10.5 -64.5t-16.5 -55.5h-21v157h558v-157h-21q-8 14 -16.5 55.5t-10.5 64.5h-185v-633q49 -8 85 -19v-11h-262v12zM151 -69h333v-35h-333v35z" />
    <glyph glyph-name="U" unicode="U" horiz-adv-x="770" 
d="M119 213v456q-46 7 -81 19v12h254v-13q-35 -12 -81 -18v-466q0 -176 200 -176q88 0 141.5 41.5t53.5 134.5v467q-41 4 -82 18v12h208v-12q-46 -15 -82 -20v-455q0 -223 -262 -223q-269 0 -269 223z" />
    <glyph glyph-name="Uacute" unicode="&#xda;" horiz-adv-x="770" 
d="M313 809l114 106q23 23 45 23q15 0 23 -8t8 -19q0 -23 -32 -43l-142 -82zM119 213v456q-46 7 -81 19v12h254v-13q-35 -12 -81 -18v-466q0 -176 200 -176q88 0 141.5 41.5t53.5 134.5v467q-41 4 -82 18v12h208v-12q-46 -15 -82 -20v-455q0 -223 -262 -223q-269 0 -269 223
z" />
    <glyph glyph-name="Ubreve" unicode="&#x16c;" horiz-adv-x="770" 
d="M283 806q-41 31 -49 93h56q5 -51 33 -69t67 -18t66.5 18t32.5 69h56q-7 -62 -48.5 -93t-106.5 -31q-66 0 -107 31zM119 213v456q-46 7 -81 19v12h254v-13q-35 -12 -81 -18v-466q0 -176 200 -176q88 0 141.5 41.5t53.5 134.5v467q-41 4 -82 18v12h208v-12q-46 -15 -82 -20
v-455q0 -223 -262 -223q-269 0 -269 223z" />
    <glyph glyph-name="uni01D3" unicode="&#x1d3;" horiz-adv-x="770" 
d="M301 851q-39 36 -71 58l37 32q30 -22 62 -52.5t51 -56.5h5q19 26 50.5 56.5t61.5 52.5l38 -32q-32 -21 -71 -57t-60 -66h-43q-21 29 -60 65zM119 213v456q-46 7 -81 19v12h254v-13q-35 -12 -81 -18v-466q0 -176 200 -176q88 0 141.5 41.5t53.5 134.5v467q-41 4 -82 18v12
h208v-12q-46 -15 -82 -20v-455q0 -223 -262 -223q-269 0 -269 223z" />
    <glyph glyph-name="Ucircumflex" unicode="&#xdb;" horiz-adv-x="770" 
d="M232 812q32 22 71 57.5t60 64.5h43q21 -29 60 -65t71 -57l-38 -32q-30 22 -61.5 52.5t-50.5 56.5h-5q-19 -26 -51 -56.5t-62 -52.5zM119 213v456q-46 7 -81 19v12h254v-13q-35 -12 -81 -18v-466q0 -176 200 -176q88 0 141.5 41.5t53.5 134.5v467q-41 4 -82 18v12h208v-12
q-46 -15 -82 -20v-455q0 -223 -262 -223q-269 0 -269 223z" />
    <glyph glyph-name="Udieresis" unicode="&#xdc;" horiz-adv-x="770" 
d="M253.5 797.5q-12.5 12.5 -12.5 32.5q0 21 12 34t32 13t32.5 -13t12.5 -34q0 -20 -12.5 -32.5t-32.5 -12.5q-19 0 -31.5 12.5zM473 797.5q-12 12.5 -12 32.5q0 21 12 34t32 13t32.5 -13t12.5 -34q0 -20 -12.5 -32.5t-32.5 -12.5t-32 12.5zM119 213v456q-46 7 -81 19v12
h254v-13q-35 -12 -81 -18v-466q0 -176 200 -176q88 0 141.5 41.5t53.5 134.5v467q-41 4 -82 18v12h208v-12q-46 -15 -82 -20v-455q0 -223 -262 -223q-269 0 -269 223z" />
    <glyph glyph-name="uni01D7" unicode="&#x1d7;" horiz-adv-x="770" 
d="M373 924l102 96q11 11 20.5 18t23.5 7t23 -9t9 -21q0 -23 -33 -41l-129 -73zM257 797.5q-12 12.5 -12 32.5t12 33t32 13t32.5 -13t12.5 -33t-12.5 -32.5t-32.5 -12.5t-32 12.5zM476.5 797.5q-12.5 12.5 -12.5 32.5t12.5 33t32.5 13t32.5 -13t12.5 -33t-12.5 -32.5
t-32.5 -12.5t-32.5 12.5zM119 213v456q-46 7 -81 19v12h254v-13q-35 -12 -81 -18v-466q0 -176 200 -176q88 0 141.5 41.5t53.5 134.5v467q-41 4 -82 18v12h208v-12q-46 -15 -82 -20v-455q0 -223 -262 -223q-269 0 -269 223z" />
    <glyph glyph-name="uni01D9" unicode="&#x1d9;" horiz-adv-x="770" 
d="M323.5 956q-36.5 33 -71.5 57l38 31q31 -23 61 -50.5t49 -52.5h4q19 25 49 52.5t61 50.5l38 -31q-35 -24 -71.5 -57t-57.5 -62h-42q-21 29 -57.5 62zM259.5 797q-12.5 13 -12.5 33t12.5 33t32.5 13q19 0 31.5 -13t12.5 -33t-12.5 -33t-31.5 -13q-20 0 -32.5 13z
M479.5 797q-12.5 13 -12.5 33t12.5 33t31.5 13q21 0 33.5 -13t12.5 -33t-12.5 -33t-33.5 -13q-19 0 -31.5 13zM119 213v456q-46 7 -81 19v12h254v-13q-35 -12 -81 -18v-466q0 -176 200 -176q88 0 141.5 41.5t53.5 134.5v467q-41 4 -82 18v12h208v-12q-46 -15 -82 -20v-455
q0 -223 -262 -223q-269 0 -269 223z" />
    <glyph glyph-name="uni01DB" unicode="&#x1db;" horiz-adv-x="770" 
d="M300 948q-32 18 -32 42q0 11 8.5 19.5t22.5 8.5q22 0 45 -23l97 -93l-16 -23zM256.5 797.5q-12.5 12.5 -12.5 32.5t12.5 33t32.5 13q19 0 31.5 -13t12.5 -33t-12 -32.5t-32 -12.5t-32.5 12.5zM476 797.5q-12 12.5 -12 32.5t12.5 33t31.5 13q21 0 33.5 -13t12.5 -33
t-12.5 -32.5t-33.5 -12.5q-20 0 -32 12.5zM119 213v456q-46 7 -81 19v12h254v-13q-35 -12 -81 -18v-466q0 -176 200 -176q88 0 141.5 41.5t53.5 134.5v467q-41 4 -82 18v12h208v-12q-46 -15 -82 -20v-455q0 -223 -262 -223q-269 0 -269 223z" />
    <glyph glyph-name="uni01D5" unicode="&#x1d5;" horiz-adv-x="770" 
d="M238 977h321v-35h-321v35zM257 797.5q-12 12.5 -12 32.5t12 33t32 13t32.5 -13t12.5 -33t-12.5 -32.5t-32.5 -12.5t-32 12.5zM476.5 797.5q-12.5 12.5 -12.5 32.5t12.5 33t32.5 13t32.5 -13t12.5 -33t-12.5 -32.5t-32.5 -12.5t-32.5 12.5zM119 213v456q-46 7 -81 19v12
h254v-13q-35 -12 -81 -18v-466q0 -176 200 -176q88 0 141.5 41.5t53.5 134.5v467q-41 4 -82 18v12h208v-12q-46 -15 -82 -20v-455q0 -223 -262 -223q-269 0 -269 223z" />
    <glyph glyph-name="uni1EE4" unicode="&#x1ee4;" horiz-adv-x="770" 
d="M119 213v456q-46 7 -81 19v12h254v-13q-35 -12 -81 -18v-466q0 -176 200 -176q88 0 141.5 41.5t53.5 134.5v467q-41 4 -82 18v12h208v-12q-46 -15 -82 -20v-455q0 -223 -262 -223q-269 0 -269 223zM360.5 -138.5q-12.5 12.5 -12.5 32.5q0 21 12.5 34t32.5 13t32.5 -13
t12.5 -34q0 -20 -12.5 -32.5t-32.5 -12.5t-32.5 12.5z" />
    <glyph glyph-name="Ugrave" unicode="&#xd9;" horiz-adv-x="770" 
d="M323 868q-34 20 -34 43q0 11 8.5 19t23.5 8q22 0 44 -22l116 -107l-16 -23zM119 213v456q-46 7 -81 19v12h254v-13q-35 -12 -81 -18v-466q0 -176 200 -176q88 0 141.5 41.5t53.5 134.5v467q-41 4 -82 18v12h208v-12q-46 -15 -82 -20v-455q0 -223 -262 -223
q-269 0 -269 223z" />
    <glyph glyph-name="uni1EE6" unicode="&#x1ee6;" horiz-adv-x="770" 
d="M375 869h24q30 0 46.5 14t16.5 38q0 20 -15.5 33t-43.5 13q-29 0 -58 -16l-7 30q34 17 77 17q41 0 69.5 -20t28.5 -59q0 -34 -22 -53t-62 -23l-10 -64h-39zM119 213v456q-46 7 -81 19v12h254v-13q-35 -12 -81 -18v-466q0 -176 200 -176q88 0 141.5 41.5t53.5 134.5v467
q-41 4 -82 18v12h208v-12q-46 -15 -82 -20v-455q0 -223 -262 -223q-269 0 -269 223z" />
    <glyph glyph-name="Uhorn" unicode="&#x1af;" horiz-adv-x="770" 
d="M119 213v456q-46 7 -81 19v12h254v-13q-35 -12 -81 -18v-466q0 -176 200 -176q88 0 141.5 41.5t53.5 134.5v467q-41 4 -82 18v12h135q40 0 69.5 12.5t33.5 37.5q-7 -5 -19 -5q-20 0 -33.5 13.5t-13.5 35.5q0 20 14.5 35t41.5 15q60 0 60 -66q0 -45 -44 -74.5t-118 -35.5
v-455q0 -223 -262 -223q-269 0 -269 223z" />
    <glyph glyph-name="uni1EE8" unicode="&#x1ee8;" horiz-adv-x="770" 
d="M331 807l114 106q23 23 45 23q15 0 23 -8t8 -19q0 -23 -32 -43l-142 -82zM119 213v456q-46 7 -81 19v12h254v-13q-35 -12 -81 -18v-466q0 -176 200 -176q88 0 141.5 41.5t53.5 134.5v467q-41 4 -82 18v12h135q40 0 69.5 12.5t33.5 37.5q-7 -5 -19 -5q-20 0 -33.5 13.5
t-13.5 35.5q0 20 14.5 35t41.5 15q60 0 60 -66q0 -45 -44 -74.5t-118 -35.5v-455q0 -223 -262 -223q-269 0 -269 223z" />
    <glyph glyph-name="uni1EF0" unicode="&#x1ef0;" horiz-adv-x="770" 
d="M119 213v456q-46 7 -81 19v12h254v-13q-35 -12 -81 -18v-466q0 -176 200 -176q88 0 141.5 41.5t53.5 134.5v467q-41 4 -82 18v12h135q40 0 69.5 12.5t33.5 37.5q-7 -5 -19 -5q-20 0 -33.5 13.5t-13.5 35.5q0 20 14.5 35t41.5 15q60 0 60 -66q0 -45 -44 -74.5t-118 -35.5
v-455q0 -223 -262 -223q-269 0 -269 223zM360.5 -138.5q-12.5 12.5 -12.5 32.5q0 21 12.5 34t32.5 13t32.5 -13t12.5 -34q0 -20 -12.5 -32.5t-32.5 -12.5t-32.5 12.5z" />
    <glyph glyph-name="uni1EEA" unicode="&#x1eea;" horiz-adv-x="770" 
d="M326 866q-34 20 -34 43q0 11 8.5 19t23.5 8q22 0 44 -22l116 -107l-16 -23zM119 213v456q-46 7 -81 19v12h254v-13q-35 -12 -81 -18v-466q0 -176 200 -176q88 0 141.5 41.5t53.5 134.5v467q-41 4 -82 18v12h135q40 0 69.5 12.5t33.5 37.5q-7 -5 -19 -5q-20 0 -33.5 13.5
t-13.5 35.5q0 20 14.5 35t41.5 15q60 0 60 -66q0 -45 -44 -74.5t-118 -35.5v-455q0 -223 -262 -223q-269 0 -269 223z" />
    <glyph glyph-name="uni1EEC" unicode="&#x1eec;" horiz-adv-x="770" 
d="M376 869h24q30 0 46.5 14t16.5 38q0 20 -15.5 33t-43.5 13q-29 0 -58 -16l-7 30q34 17 77 17q41 0 69.5 -20t28.5 -59q0 -34 -22 -53t-62 -23l-10 -64h-39zM119 213v456q-46 7 -81 19v12h254v-13q-35 -12 -81 -18v-466q0 -176 200 -176q88 0 141.5 41.5t53.5 134.5v467
q-41 4 -82 18v12h135q40 0 69.5 12.5t33.5 37.5q-7 -5 -19 -5q-20 0 -33.5 13.5t-13.5 35.5q0 20 14.5 35t41.5 15q60 0 60 -66q0 -45 -44 -74.5t-118 -35.5v-455q0 -223 -262 -223q-269 0 -269 223z" />
    <glyph glyph-name="uni1EEE" unicode="&#x1eee;" horiz-adv-x="770" 
d="M255.5 855.5q25.5 24.5 65.5 24.5q21 0 40.5 -8t45.5 -23q19 -12 33 -18t27 -6q23 0 40.5 14.5t24.5 45.5h32q-7 -49 -31.5 -76.5t-67.5 -27.5q-17 0 -33.5 7t-47.5 23q-22 13 -37 19.5t-28 6.5q-23 0 -40 -15.5t-23 -41.5h-33q7 51 32.5 75.5zM119 213v456q-46 7 -81 19
v12h254v-13q-35 -12 -81 -18v-466q0 -176 200 -176q88 0 141.5 41.5t53.5 134.5v467q-41 4 -82 18v12h135q40 0 69.5 12.5t33.5 37.5q-7 -5 -19 -5q-20 0 -33.5 13.5t-13.5 35.5q0 20 14.5 35t41.5 15q60 0 60 -66q0 -45 -44 -74.5t-118 -35.5v-455q0 -223 -262 -223
q-269 0 -269 223z" />
    <glyph glyph-name="Uhungarumlaut" unicode="&#x170;" horiz-adv-x="770" 
d="M210 808l114 106q24 24 45 24q15 0 23.5 -8.5t8.5 -19.5q0 -23 -33 -42l-142 -83zM408 808l114 106q7 8 19 16t26 8q15 0 23.5 -8.5t8.5 -19.5q0 -23 -33 -42l-142 -83zM119 213v456q-46 7 -81 19v12h254v-13q-35 -12 -81 -18v-466q0 -176 200 -176q88 0 141.5 41.5
t53.5 134.5v467q-41 4 -82 18v12h208v-12q-46 -15 -82 -20v-455q0 -223 -262 -223q-269 0 -269 223z" />
    <glyph glyph-name="Umacron" unicode="&#x16a;" horiz-adv-x="770" 
d="M217 821h333v-35h-333v35zM119 213v456q-46 7 -81 19v12h254v-13q-35 -12 -81 -18v-466q0 -176 200 -176q88 0 141.5 41.5t53.5 134.5v467q-41 4 -82 18v12h208v-12q-46 -15 -82 -20v-455q0 -223 -262 -223q-269 0 -269 223z" />
    <glyph glyph-name="Uogonek" unicode="&#x172;" horiz-adv-x="770" 
d="M732 700v-12q-46 -15 -82 -20v-455q0 -181 -171 -215q-26 -16 -43 -40.5t-17 -49.5t17.5 -38t44.5 -13t54 14v-41q-37 -17 -84 -17q-48 0 -75 23.5t-27 56.5q0 29 16.5 55t46.5 42h-24q-269 0 -269 223v456q-46 7 -81 19v12h254v-13q-35 -12 -81 -18v-466
q0 -176 200 -176q88 0 141.5 41.5t53.5 134.5v467q-41 4 -82 18v12h208z" />
    <glyph glyph-name="Uring" unicode="&#x16e;" horiz-adv-x="770" 
d="M318 796q-26 24 -26 63q0 40 26 64.5t67 24.5t66.5 -24.5t25.5 -64.5q0 -39 -25.5 -63t-66.5 -24t-67 24zM425.5 819q15.5 15 15.5 40t-15.5 40.5t-40.5 15.5t-41.5 -15.5t-16.5 -40.5t16.5 -40t41.5 -15t40.5 15zM119 213v456q-46 7 -81 19v12h254v-13q-35 -12 -81 -18
v-466q0 -176 200 -176q88 0 141.5 41.5t53.5 134.5v467q-41 4 -82 18v12h208v-12q-46 -15 -82 -20v-455q0 -223 -262 -223q-269 0 -269 223z" />
    <glyph glyph-name="Utilde" unicode="&#x168;" horiz-adv-x="770" 
d="M246.5 861.5q25.5 24.5 65.5 24.5q21 0 40.5 -8t45.5 -23q19 -12 33 -18t27 -6q23 0 40.5 14.5t24.5 45.5h32q-7 -49 -31.5 -76.5t-67.5 -27.5q-17 0 -33.5 7t-47.5 23q-22 13 -37 19.5t-28 6.5q-23 0 -40 -15.5t-23 -41.5h-33q7 51 32.5 75.5zM119 213v456q-46 7 -81 19
v12h254v-13q-35 -12 -81 -18v-466q0 -176 200 -176q88 0 141.5 41.5t53.5 134.5v467q-41 4 -82 18v12h208v-12q-46 -15 -82 -20v-455q0 -223 -262 -223q-269 0 -269 223z" />
    <glyph glyph-name="V" unicode="V" horiz-adv-x="725" 
d="M93 668q-43 7 -76 20v12h249v-13q-35 -13 -83 -18l197 -595l197 595q-52 7 -84 20v11h214v-13q-40 -15 -76 -21l-232 -671h-74z" />
    <glyph glyph-name="W" unicode="W" horiz-adv-x="1014" 
d="M94 667q-34 6 -77 21v12h248v-13q-34 -14 -82 -19l136 -556l175 554h45l196 -589l156 595q-28 5 -65 15v13h170v-11q-31 -14 -59 -18l-178 -676h-79l-180 541l-170 -541h-65z" />
    <glyph glyph-name="Wacute" unicode="&#x1e82;" horiz-adv-x="1014" 
d="M440 809l114 106q23 23 45 23q15 0 23 -8t8 -19q0 -23 -32 -43l-142 -82zM94 667q-34 6 -77 21v12h248v-13q-34 -14 -82 -19l136 -556l175 554h45l196 -589l156 595q-28 5 -65 15v13h170v-11q-31 -14 -59 -18l-178 -676h-79l-180 541l-170 -541h-65z" />
    <glyph glyph-name="Wcircumflex" unicode="&#x174;" horiz-adv-x="1014" 
d="M367 812q32 22 71 57.5t60 64.5h43q21 -29 60 -65t71 -57l-38 -32q-30 22 -61.5 52.5t-50.5 56.5h-5q-19 -26 -51 -56.5t-62 -52.5zM94 667q-34 6 -77 21v12h248v-13q-34 -14 -82 -19l136 -556l175 554h45l196 -589l156 595q-28 5 -65 15v13h170v-11q-31 -14 -59 -18
l-178 -676h-79l-180 541l-170 -541h-65z" />
    <glyph glyph-name="Wdieresis" unicode="&#x1e84;" horiz-adv-x="1014" 
d="M376.5 797.5q-12.5 12.5 -12.5 32.5q0 21 12 34t32 13t32.5 -13t12.5 -34q0 -20 -12.5 -32.5t-32.5 -12.5q-19 0 -31.5 12.5zM596 797.5q-12 12.5 -12 32.5q0 21 12 34t32 13t32.5 -13t12.5 -34q0 -20 -12.5 -32.5t-32.5 -12.5t-32 12.5zM94 667q-34 6 -77 21v12h248v-13
q-34 -14 -82 -19l136 -556l175 554h45l196 -589l156 595q-28 5 -65 15v13h170v-11q-31 -14 -59 -18l-178 -676h-79l-180 541l-170 -541h-65z" />
    <glyph glyph-name="Wgrave" unicode="&#x1e80;" horiz-adv-x="1014" 
d="M441 868q-34 20 -34 43q0 11 8.5 19t23.5 8q22 0 44 -22l116 -107l-16 -23zM94 667q-34 6 -77 21v12h248v-13q-34 -14 -82 -19l136 -556l175 554h45l196 -589l156 595q-28 5 -65 15v13h170v-11q-31 -14 -59 -18l-178 -676h-79l-180 541l-170 -541h-65z" />
    <glyph glyph-name="X" unicode="X" horiz-adv-x="688" 
d="M678 12v-12h-250v10q42 18 88 22l-187 289l-213 -293q35 -7 65 -17v-11h-168v12q22 9 55 16l239 327l-201 312q-40 8 -72 20v13h249v-14q-42 -15 -88 -19l159 -247l183 250q-37 7 -64 18v12h169v-12q-35 -14 -58 -18l-207 -285l228 -354q39 -8 73 -19z" />
    <glyph glyph-name="Y" unicode="Y" horiz-adv-x="710" 
d="M231 11q46 15 81 19v272l-218 365q-39 6 -77 20v13h251v-14q-43 -15 -85 -19l193 -325l205 328q-29 6 -64 18v12h175v-14q-23 -10 -55 -15l-233 -370v-271q41 -6 82 -19v-11h-255v11z" />
    <glyph glyph-name="Yacute" unicode="&#xdd;" horiz-adv-x="710" 
d="M283 809l114 106q23 23 45 23q15 0 23 -8t8 -19q0 -23 -32 -43l-142 -82zM231 11q46 15 81 19v272l-218 365q-39 6 -77 20v13h251v-14q-43 -15 -85 -19l193 -325l205 328q-29 6 -64 18v12h175v-14q-23 -10 -55 -15l-233 -370v-271q41 -6 82 -19v-11h-255v11z" />
    <glyph glyph-name="Ycircumflex" unicode="&#x176;" horiz-adv-x="710" 
d="M204 812q32 22 71 57.5t60 64.5h43q21 -29 60 -65t71 -57l-38 -32q-30 22 -61.5 52.5t-50.5 56.5h-5q-19 -26 -51 -56.5t-62 -52.5zM231 11q46 15 81 19v272l-218 365q-39 6 -77 20v13h251v-14q-43 -15 -85 -19l193 -325l205 328q-29 6 -64 18v12h175v-14
q-23 -10 -55 -15l-233 -370v-271q41 -6 82 -19v-11h-255v11z" />
    <glyph glyph-name="Ydieresis" unicode="&#x178;" horiz-adv-x="710" 
d="M228.5 797.5q-12.5 12.5 -12.5 32.5q0 21 12 34t32 13t32.5 -13t12.5 -34q0 -20 -12.5 -32.5t-32.5 -12.5q-19 0 -31.5 12.5zM448 797.5q-12 12.5 -12 32.5q0 21 12 34t32 13t32.5 -13t12.5 -34q0 -20 -12.5 -32.5t-32.5 -12.5t-32 12.5zM231 11q46 15 81 19v272
l-218 365q-39 6 -77 20v13h251v-14q-43 -15 -85 -19l193 -325l205 328q-29 6 -64 18v12h175v-14q-23 -10 -55 -15l-233 -370v-271q41 -6 82 -19v-11h-255v11z" />
    <glyph glyph-name="uni1E8E" unicode="&#x1e8e;" horiz-adv-x="710" 
d="M324 797.5q-12 12.5 -12 32.5q0 21 12 34t33 13q20 0 32 -13t12 -34q0 -20 -12.5 -32.5t-31.5 -12.5q-21 0 -33 12.5zM231 11q46 15 81 19v272l-218 365q-39 6 -77 20v13h251v-14q-43 -15 -85 -19l193 -325l205 328q-29 6 -64 18v12h175v-14q-23 -10 -55 -15l-233 -370
v-271q41 -6 82 -19v-11h-255v11z" />
    <glyph glyph-name="uni1EF4" unicode="&#x1ef4;" horiz-adv-x="710" 
d="M231 11q46 15 81 19v272l-218 365q-39 6 -77 20v13h251v-14q-43 -15 -85 -19l193 -325l205 328q-29 6 -64 18v12h175v-14q-23 -10 -55 -15l-233 -370v-271q41 -6 82 -19v-11h-255v11zM320.5 -138.5q-12.5 12.5 -12.5 32.5q0 21 12.5 34t32.5 13t32.5 -13t12.5 -34
q0 -20 -12.5 -32.5t-32.5 -12.5t-32.5 12.5z" />
    <glyph glyph-name="Ygrave" unicode="&#x1ef2;" horiz-adv-x="710" 
d="M282 868q-34 20 -34 43q0 11 8.5 19t23.5 8q22 0 44 -22l116 -107l-16 -23zM231 11q46 15 81 19v272l-218 365q-39 6 -77 20v13h251v-14q-43 -15 -85 -19l193 -325l205 328q-29 6 -64 18v12h175v-14q-23 -10 -55 -15l-233 -370v-271q41 -6 82 -19v-11h-255v11z" />
    <glyph glyph-name="uni1EF6" unicode="&#x1ef6;" horiz-adv-x="710" 
d="M355 873h24q30 0 46.5 14t16.5 38q0 20 -15.5 33t-43.5 13q-29 0 -58 -16l-7 30q34 17 77 17q41 0 69.5 -20t28.5 -59q0 -34 -22 -53t-62 -23l-10 -64h-39zM231 11q46 15 81 19v272l-218 365q-39 6 -77 20v13h251v-14q-43 -15 -85 -19l193 -325l205 328q-29 6 -64 18v12
h175v-14q-23 -10 -55 -15l-233 -370v-271q41 -6 82 -19v-11h-255v11z" />
    <glyph glyph-name="uni1EF8" unicode="&#x1ef8;" horiz-adv-x="710" 
d="M221.5 861.5q25.5 24.5 65.5 24.5q21 0 40.5 -8t45.5 -23q19 -12 33 -18t27 -6q23 0 40.5 14.5t24.5 45.5h32q-7 -49 -31.5 -76.5t-67.5 -27.5q-17 0 -33.5 7t-47.5 23q-22 13 -37 19.5t-28 6.5q-23 0 -40 -15.5t-23 -41.5h-33q7 51 32.5 75.5zM231 11q46 15 81 19v272
l-218 365q-39 6 -77 20v13h251v-14q-43 -15 -85 -19l193 -325l205 328q-29 6 -64 18v12h175v-14q-23 -10 -55 -15l-233 -370v-271q41 -6 82 -19v-11h-255v11z" />
    <glyph glyph-name="Z" unicode="Z" horiz-adv-x="577" 
d="M26 23l417 640h-330q-2 -21 -10.5 -58t-16.5 -51h-22v146h479v-17l-419 -648h356q2 22 15 58t23 51h22l-15 -144h-499v23z" />
    <glyph glyph-name="Zacute" unicode="&#x179;" horiz-adv-x="577" 
d="M238 809l114 106q23 23 45 23q15 0 23 -8t8 -19q0 -23 -32 -43l-142 -82zM26 23l417 640h-330q-2 -21 -10.5 -58t-16.5 -51h-22v146h479v-17l-419 -648h356q2 22 15 58t23 51h22l-15 -144h-499v23z" />
    <glyph glyph-name="Zcaron" unicode="&#x17d;" horiz-adv-x="577" 
d="M214 851q-39 36 -71 58l37 32q30 -22 62 -52.5t51 -56.5h5q19 26 50.5 56.5t61.5 52.5l38 -32q-32 -21 -71 -57t-60 -66h-43q-21 29 -60 65zM26 23l417 640h-330q-2 -21 -10.5 -58t-16.5 -51h-22v146h479v-17l-419 -648h356q2 22 15 58t23 51h22l-15 -144h-499v23z" />
    <glyph glyph-name="Zdotaccent" unicode="&#x17b;" horiz-adv-x="577" 
d="M260 797.5q-12 12.5 -12 32.5q0 21 12 34t33 13q20 0 32 -13t12 -34q0 -20 -12.5 -32.5t-31.5 -12.5q-21 0 -33 12.5zM26 23l417 640h-330q-2 -21 -10.5 -58t-16.5 -51h-22v146h479v-17l-419 -648h356q2 22 15 58t23 51h22l-15 -144h-499v23z" />
    <glyph glyph-name="uni1E92" unicode="&#x1e92;" horiz-adv-x="577" 
d="M26 23l417 640h-330q-2 -21 -10.5 -58t-16.5 -51h-22v146h479v-17l-419 -648h356q2 22 15 58t23 51h22l-15 -144h-499v23zM250.5 -138.5q-12.5 12.5 -12.5 32.5q0 21 12.5 34t32.5 13t32.5 -13t12.5 -34q0 -20 -12.5 -32.5t-32.5 -12.5t-32.5 12.5z" />
    <glyph glyph-name="a" unicode="a" horiz-adv-x="538" 
d="M72 27q-42 37 -42 107q0 77 55 111.5t140 34.5h148v80q0 57 -34 84t-96 27q-39 0 -80.5 -11.5t-76.5 -29.5l-7 31q40 21 90.5 33.5t103.5 12.5q89 0 140 -38.5t51 -102.5v-328q35 -7 69 -16v-8l-160 -16v73q-41 -44 -87.5 -62.5t-91.5 -18.5q-80 0 -122 37zM309.5 52.5
q42.5 25.5 63.5 59.5v132h-126q-64 0 -96 -28.5t-32 -80.5q0 -54 29.5 -81t77.5 -27q41 0 83.5 25.5z" />
    <glyph glyph-name="aacute" unicode="&#xe1;" horiz-adv-x="538" 
d="M183 607l114 106q23 23 45 23q15 0 23 -8t8 -19q0 -23 -32 -43l-142 -82zM72 27q-42 37 -42 107q0 77 55 111.5t140 34.5h148v80q0 57 -34 84t-96 27q-39 0 -80.5 -11.5t-76.5 -29.5l-7 31q40 21 90.5 33.5t103.5 12.5q89 0 140 -38.5t51 -102.5v-328q35 -7 69 -16v-8
l-160 -16v73q-41 -44 -87.5 -62.5t-91.5 -18.5q-80 0 -122 37zM309.5 52.5q42.5 25.5 63.5 59.5v132h-126q-64 0 -96 -28.5t-32 -80.5q0 -54 29.5 -81t77.5 -27q41 0 83.5 25.5z" />
    <glyph glyph-name="abreve" unicode="&#x103;" horiz-adv-x="538" 
d="M167 610q-41 31 -49 93h56q5 -51 33 -69t67 -18t66.5 18t32.5 69h56q-7 -62 -48.5 -93t-106.5 -31q-66 0 -107 31zM72 27q-42 37 -42 107q0 77 55 111.5t140 34.5h148v80q0 57 -34 84t-96 27q-39 0 -80.5 -11.5t-76.5 -29.5l-7 31q40 21 90.5 33.5t103.5 12.5
q89 0 140 -38.5t51 -102.5v-328q35 -7 69 -16v-8l-160 -16v73q-41 -44 -87.5 -62.5t-91.5 -18.5q-80 0 -122 37zM309.5 52.5q42.5 25.5 63.5 59.5v132h-126q-64 0 -96 -28.5t-32 -80.5q0 -54 29.5 -81t77.5 -27q41 0 83.5 25.5z" />
    <glyph glyph-name="uni1EAF" unicode="&#x1eaf;" horiz-adv-x="538" 
d="M235 719l80 79q34 33 59 33q12 0 19 -6.5t7 -16.5q0 -13 -11.5 -27t-34.5 -26l-104 -57zM167.5 610q-41.5 31 -48.5 92h56q5 -51 32.5 -68.5t66.5 -17.5q40 0 67.5 17.5t32.5 68.5h56q-8 -61 -49 -92t-107 -31q-65 0 -106.5 31zM72 27q-42 37 -42 107q0 77 55 111.5
t140 34.5h148v80q0 57 -34 84t-96 27q-39 0 -80.5 -11.5t-76.5 -29.5l-7 31q40 21 90.5 33.5t103.5 12.5q89 0 140 -38.5t51 -102.5v-328q35 -7 69 -16v-8l-160 -16v73q-41 -44 -87.5 -62.5t-91.5 -18.5q-80 0 -122 37zM309.5 52.5q42.5 25.5 63.5 59.5v132h-126
q-64 0 -96 -28.5t-32 -80.5q0 -54 29.5 -81t77.5 -27q41 0 83.5 25.5z" />
    <glyph glyph-name="uni1EB7" unicode="&#x1eb7;" horiz-adv-x="538" 
d="M167 610q-41 31 -49 93h56q5 -51 33 -69t67 -18t66.5 18t32.5 69h56q-7 -62 -48.5 -93t-106.5 -31q-66 0 -107 31zM72 27q-42 37 -42 107q0 77 55 111.5t140 34.5h148v80q0 57 -34 84t-96 27q-39 0 -80.5 -11.5t-76.5 -29.5l-7 31q40 21 90.5 33.5t103.5 12.5
q89 0 140 -38.5t51 -102.5v-328q35 -7 69 -16v-8l-160 -16v73q-41 -44 -87.5 -62.5t-91.5 -18.5q-80 0 -122 37zM309.5 52.5q42.5 25.5 63.5 59.5v132h-126q-64 0 -96 -28.5t-32 -80.5q0 -54 29.5 -81t77.5 -27q41 0 83.5 25.5zM231.5 -138.5q-12.5 12.5 -12.5 32.5
q0 21 12.5 34t32.5 13t32.5 -13t12.5 -34q0 -20 -12.5 -32.5t-32.5 -12.5t-32.5 12.5z" />
    <glyph glyph-name="uni1EB1" unicode="&#x1eb1;" horiz-adv-x="538" 
d="M192 755q-23 12 -34 26t-11 27q0 10 7 16.5t18 6.5q25 0 59 -33l81 -79l-15 -21zM167.5 610q-41.5 31 -48.5 92h56q5 -51 32.5 -68.5t66.5 -17.5q40 0 67.5 17.5t32.5 68.5h56q-8 -61 -49 -92t-107 -31q-65 0 -106.5 31zM72 27q-42 37 -42 107q0 77 55 111.5t140 34.5
h148v80q0 57 -34 84t-96 27q-39 0 -80.5 -11.5t-76.5 -29.5l-7 31q40 21 90.5 33.5t103.5 12.5q89 0 140 -38.5t51 -102.5v-328q35 -7 69 -16v-8l-160 -16v73q-41 -44 -87.5 -62.5t-91.5 -18.5q-80 0 -122 37zM309.5 52.5q42.5 25.5 63.5 59.5v132h-126q-64 0 -96 -28.5
t-32 -80.5q0 -54 29.5 -81t77.5 -27q41 0 83.5 25.5z" />
    <glyph glyph-name="uni1EB3" unicode="&#x1eb3;" horiz-adv-x="538" 
d="M246 764h21q26 0 40 11t14 31q0 17 -12.5 27t-37.5 10t-50 -13l-6 27q32 14 66 14q36 0 61 -16.5t25 -49.5q0 -57 -73 -63l-9 -53h-35zM167.5 610q-41.5 31 -48.5 92h56q5 -51 32.5 -68.5t66.5 -17.5q40 0 67.5 17.5t32.5 68.5h56q-8 -61 -49 -92t-107 -31
q-65 0 -106.5 31zM72 27q-42 37 -42 107q0 77 55 111.5t140 34.5h148v80q0 57 -34 84t-96 27q-39 0 -80.5 -11.5t-76.5 -29.5l-7 31q40 21 90.5 33.5t103.5 12.5q89 0 140 -38.5t51 -102.5v-328q35 -7 69 -16v-8l-160 -16v73q-41 -44 -87.5 -62.5t-91.5 -18.5q-80 0 -122 37
zM309.5 52.5q42.5 25.5 63.5 59.5v132h-126q-64 0 -96 -28.5t-32 -80.5q0 -54 29.5 -81t77.5 -27q41 0 83.5 25.5z" />
    <glyph glyph-name="uni1EB5" unicode="&#x1eb5;" horiz-adv-x="538" 
d="M144 836q24 25 63 25q20 0 36.5 -8t40.5 -23q18 -12 30 -18t24 -6q23 0 40 14.5t24 45.5h30q-6 -49 -30 -76.5t-65 -27.5q-17 0 -33.5 7.5t-40.5 22.5q-19 13 -33 19.5t-26 6.5q-22 0 -38 -15.5t-21 -41.5h-32q7 50 31 75zM167.5 610q-41.5 31 -48.5 92h56
q5 -51 32.5 -68.5t66.5 -17.5q40 0 67.5 17.5t32.5 68.5h56q-8 -61 -49 -92t-107 -31q-65 0 -106.5 31zM72 27q-42 37 -42 107q0 77 55 111.5t140 34.5h148v80q0 57 -34 84t-96 27q-39 0 -80.5 -11.5t-76.5 -29.5l-7 31q40 21 90.5 33.5t103.5 12.5q89 0 140 -38.5
t51 -102.5v-328q35 -7 69 -16v-8l-160 -16v73q-41 -44 -87.5 -62.5t-91.5 -18.5q-80 0 -122 37zM309.5 52.5q42.5 25.5 63.5 59.5v132h-126q-64 0 -96 -28.5t-32 -80.5q0 -54 29.5 -81t77.5 -27q41 0 83.5 25.5z" />
    <glyph glyph-name="uni01CE" unicode="&#x1ce;" horiz-adv-x="538" 
d="M185 649q-39 36 -71 58l38 32q30 -22 61.5 -52.5t50.5 -56.5h5q20 27 51.5 57.5t60.5 51.5l38 -32q-32 -22 -71 -58t-60 -65h-43q-21 29 -60 65zM72 27q-42 37 -42 107q0 77 55 111.5t140 34.5h148v80q0 57 -34 84t-96 27q-39 0 -80.5 -11.5t-76.5 -29.5l-7 31
q40 21 90.5 33.5t103.5 12.5q89 0 140 -38.5t51 -102.5v-328q35 -7 69 -16v-8l-160 -16v73q-41 -44 -87.5 -62.5t-91.5 -18.5q-80 0 -122 37zM309.5 52.5q42.5 25.5 63.5 59.5v132h-126q-64 0 -96 -28.5t-32 -80.5q0 -54 29.5 -81t77.5 -27q41 0 83.5 25.5z" />
    <glyph glyph-name="acircumflex" unicode="&#xe2;" horiz-adv-x="538" 
d="M120 610q32 22 71 57.5t60 64.5h43q21 -29 60 -65t71 -57l-38 -32q-30 22 -61.5 52.5t-50.5 56.5h-5q-19 -26 -51 -56.5t-62 -52.5zM72 27q-42 37 -42 107q0 77 55 111.5t140 34.5h148v80q0 57 -34 84t-96 27q-39 0 -80.5 -11.5t-76.5 -29.5l-7 31q40 21 90.5 33.5
t103.5 12.5q89 0 140 -38.5t51 -102.5v-328q35 -7 69 -16v-8l-160 -16v73q-41 -44 -87.5 -62.5t-91.5 -18.5q-80 0 -122 37zM309.5 52.5q42.5 25.5 63.5 59.5v132h-126q-64 0 -96 -28.5t-32 -80.5q0 -54 29.5 -81t77.5 -27q41 0 83.5 25.5z" />
    <glyph glyph-name="uni1EA5" unicode="&#x1ea5;" horiz-adv-x="538" 
d="M377 719l81 79q32 33 59 33q11 0 18 -6.5t7 -16.5q0 -13 -11 -27t-34 -26l-105 -57zM121 610q31 21 70 57t61 65h42q21 -29 60.5 -64.5t70.5 -57.5l-37 -32q-30 22 -61.5 52.5t-51.5 56.5h-4q-19 -26 -51 -56.5t-61 -52.5zM72 27q-42 37 -42 107q0 77 55 111.5t140 34.5
h148v80q0 57 -34 84t-96 27q-39 0 -80.5 -11.5t-76.5 -29.5l-7 31q40 21 90.5 33.5t103.5 12.5q89 0 140 -38.5t51 -102.5v-328q35 -7 69 -16v-8l-160 -16v73q-41 -44 -87.5 -62.5t-91.5 -18.5q-80 0 -122 37zM309.5 52.5q42.5 25.5 63.5 59.5v132h-126q-64 0 -96 -28.5
t-32 -80.5q0 -54 29.5 -81t77.5 -27q41 0 83.5 25.5z" />
    <glyph glyph-name="uni1EAD" unicode="&#x1ead;" horiz-adv-x="538" 
d="M120 610q32 22 71 57.5t60 64.5h43q21 -29 60 -65t71 -57l-38 -32q-30 22 -61.5 52.5t-50.5 56.5h-5q-19 -26 -51 -56.5t-62 -52.5zM72 27q-42 37 -42 107q0 77 55 111.5t140 34.5h148v80q0 57 -34 84t-96 27q-39 0 -80.5 -11.5t-76.5 -29.5l-7 31q40 21 90.5 33.5
t103.5 12.5q89 0 140 -38.5t51 -102.5v-328q35 -7 69 -16v-8l-160 -16v73q-41 -44 -87.5 -62.5t-91.5 -18.5q-80 0 -122 37zM309.5 52.5q42.5 25.5 63.5 59.5v132h-126q-64 0 -96 -28.5t-32 -80.5q0 -54 29.5 -81t77.5 -27q41 0 83.5 25.5zM241.5 -138.5
q-12.5 12.5 -12.5 32.5q0 21 12.5 34t32.5 13t32.5 -13t12.5 -34q0 -20 -12.5 -32.5t-32.5 -12.5t-32.5 12.5z" />
    <glyph glyph-name="uni1EA7" unicode="&#x1ea7;" horiz-adv-x="538" 
d="M67 749q-26 14 -40.5 30t-14.5 29q0 10 7 16.5t18 6.5q27 0 68 -41l72 -71l-16 -21zM121 610q31 21 70 57t61 65h42q21 -29 60.5 -64.5t70.5 -57.5l-37 -32q-30 22 -61.5 52.5t-51.5 56.5h-4q-19 -26 -51 -56.5t-61 -52.5zM72 27q-42 37 -42 107q0 77 55 111.5t140 34.5
h148v80q0 57 -34 84t-96 27q-39 0 -80.5 -11.5t-76.5 -29.5l-7 31q40 21 90.5 33.5t103.5 12.5q89 0 140 -38.5t51 -102.5v-328q35 -7 69 -16v-8l-160 -16v73q-41 -44 -87.5 -62.5t-91.5 -18.5q-80 0 -122 37zM309.5 52.5q42.5 25.5 63.5 59.5v132h-126q-64 0 -96 -28.5
t-32 -80.5q0 -54 29.5 -81t77.5 -27q41 0 83.5 25.5z" />
    <glyph glyph-name="uni1EA9" unicode="&#x1ea9;" horiz-adv-x="538" 
d="M372 764h21q26 0 40 11t14 31q0 17 -12.5 27t-37.5 10t-50 -13l-6 27q32 14 66 14q36 0 61 -16.5t25 -49.5q0 -57 -73 -63l-9 -53h-35zM121 610q31 21 70 57t61 65h42q21 -29 60.5 -64.5t70.5 -57.5l-37 -32q-30 22 -61.5 52.5t-51.5 56.5h-4q-19 -26 -51 -56.5
t-61 -52.5zM72 27q-42 37 -42 107q0 77 55 111.5t140 34.5h148v80q0 57 -34 84t-96 27q-39 0 -80.5 -11.5t-76.5 -29.5l-7 31q40 21 90.5 33.5t103.5 12.5q89 0 140 -38.5t51 -102.5v-328q35 -7 69 -16v-8l-160 -16v73q-41 -44 -87.5 -62.5t-91.5 -18.5q-80 0 -122 37z
M309.5 52.5q42.5 25.5 63.5 59.5v132h-126q-64 0 -96 -28.5t-32 -80.5q0 -54 29.5 -81t77.5 -27q41 0 83.5 25.5z" />
    <glyph glyph-name="uni1EAB" unicode="&#x1eab;" horiz-adv-x="538" 
d="M143 836.5q24 24.5 62 24.5q20 0 38.5 -8t42.5 -23q19 -12 32.5 -18t25.5 -6q22 0 38.5 14.5t23.5 45.5h30q-6 -49 -29.5 -76.5t-64.5 -27.5q-15 0 -30 6.5t-29 14t-18 9.5q-22 13 -36 19.5t-26 6.5q-22 0 -38 -15.5t-22 -41.5h-31q7 51 31 75.5zM121 610q31 21 70 57
t61 65h42q21 -29 60.5 -64.5t70.5 -57.5l-37 -32q-30 22 -61.5 52.5t-51.5 56.5h-4q-19 -26 -51 -56.5t-61 -52.5zM72 27q-42 37 -42 107q0 77 55 111.5t140 34.5h148v80q0 57 -34 84t-96 27q-39 0 -80.5 -11.5t-76.5 -29.5l-7 31q40 21 90.5 33.5t103.5 12.5
q89 0 140 -38.5t51 -102.5v-328q35 -7 69 -16v-8l-160 -16v73q-41 -44 -87.5 -62.5t-91.5 -18.5q-80 0 -122 37zM309.5 52.5q42.5 25.5 63.5 59.5v132h-126q-64 0 -96 -28.5t-32 -80.5q0 -54 29.5 -81t77.5 -27q41 0 83.5 25.5z" />
    <glyph glyph-name="adieresis" unicode="&#xe4;" horiz-adv-x="538" 
d="M121.5 595.5q-12.5 12.5 -12.5 32.5q0 21 12 34t32 13t32.5 -13t12.5 -34q0 -20 -12.5 -32.5t-32.5 -12.5q-19 0 -31.5 12.5zM341 595.5q-12 12.5 -12 32.5q0 21 12 34t32 13t32.5 -13t12.5 -34q0 -20 -12.5 -32.5t-32.5 -12.5t-32 12.5zM72 27q-42 37 -42 107
q0 77 55 111.5t140 34.5h148v80q0 57 -34 84t-96 27q-39 0 -80.5 -11.5t-76.5 -29.5l-7 31q40 21 90.5 33.5t103.5 12.5q89 0 140 -38.5t51 -102.5v-328q35 -7 69 -16v-8l-160 -16v73q-41 -44 -87.5 -62.5t-91.5 -18.5q-80 0 -122 37zM309.5 52.5q42.5 25.5 63.5 59.5v132
h-126q-64 0 -96 -28.5t-32 -80.5q0 -54 29.5 -81t77.5 -27q41 0 83.5 25.5z" />
    <glyph glyph-name="uni1EA1" unicode="&#x1ea1;" horiz-adv-x="538" 
d="M72 27q-42 37 -42 107q0 77 55 111.5t140 34.5h148v80q0 57 -34 84t-96 27q-39 0 -80.5 -11.5t-76.5 -29.5l-7 31q40 21 90.5 33.5t103.5 12.5q89 0 140 -38.5t51 -102.5v-328q35 -7 69 -16v-8l-160 -16v73q-41 -44 -87.5 -62.5t-91.5 -18.5q-80 0 -122 37zM309.5 52.5
q42.5 25.5 63.5 59.5v132h-126q-64 0 -96 -28.5t-32 -80.5q0 -54 29.5 -81t77.5 -27q41 0 83.5 25.5zM235.5 -138.5q-12.5 12.5 -12.5 32.5q0 21 12.5 34t32.5 13t32.5 -13t12.5 -34q0 -20 -12.5 -32.5t-32.5 -12.5t-32.5 12.5z" />
    <glyph glyph-name="agrave" unicode="&#xe0;" horiz-adv-x="538" 
d="M200 666q-34 20 -34 43q0 11 8.5 19t23.5 8q22 0 44 -22l116 -107l-16 -23zM72 27q-42 37 -42 107q0 77 55 111.5t140 34.5h148v80q0 57 -34 84t-96 27q-39 0 -80.5 -11.5t-76.5 -29.5l-7 31q40 21 90.5 33.5t103.5 12.5q89 0 140 -38.5t51 -102.5v-328q35 -7 69 -16v-8
l-160 -16v73q-41 -44 -87.5 -62.5t-91.5 -18.5q-80 0 -122 37zM309.5 52.5q42.5 25.5 63.5 59.5v132h-126q-64 0 -96 -28.5t-32 -80.5q0 -54 29.5 -81t77.5 -27q41 0 83.5 25.5z" />
    <glyph glyph-name="uni1EA3" unicode="&#x1ea3;" horiz-adv-x="538" 
d="M247 671h24q30 0 46.5 14t16.5 38q0 20 -15.5 33t-43.5 13q-29 0 -58 -16l-7 30q34 17 77 17q41 0 69.5 -20t28.5 -59q0 -34 -22 -53t-62 -23l-10 -64h-39zM72 27q-42 37 -42 107q0 77 55 111.5t140 34.5h148v80q0 57 -34 84t-96 27q-39 0 -80.5 -11.5t-76.5 -29.5l-7 31
q40 21 90.5 33.5t103.5 12.5q89 0 140 -38.5t51 -102.5v-328q35 -7 69 -16v-8l-160 -16v73q-41 -44 -87.5 -62.5t-91.5 -18.5q-80 0 -122 37zM309.5 52.5q42.5 25.5 63.5 59.5v132h-126q-64 0 -96 -28.5t-32 -80.5q0 -54 29.5 -81t77.5 -27q41 0 83.5 25.5z" />
    <glyph glyph-name="uni0251" unicode="&#x251;" horiz-adv-x="588" 
d="M26 258q0 79 36.5 135.5t96.5 85t129 28.5q65 0 125 -22.5t100 -68.5v-378q40 -7 70 -16v-8l-153 -17q-5 27 -7 76q-23 -40 -72 -61.5t-100 -21.5q-225 0 -225 268zM354 45.5q34 20.5 51.5 54.5t17.5 73v231q-51 67 -136 67t-128.5 -55.5t-43.5 -159.5q0 -105 37.5 -168
t120.5 -63q47 0 81 20.5z" />
    <glyph glyph-name="amacron" unicode="&#x101;" horiz-adv-x="538" 
d="M96 619h333v-35h-333v35zM72 27q-42 37 -42 107q0 77 55 111.5t140 34.5h148v80q0 57 -34 84t-96 27q-39 0 -80.5 -11.5t-76.5 -29.5l-7 31q40 21 90.5 33.5t103.5 12.5q89 0 140 -38.5t51 -102.5v-328q35 -7 69 -16v-8l-160 -16v73q-41 -44 -87.5 -62.5t-91.5 -18.5
q-80 0 -122 37zM309.5 52.5q42.5 25.5 63.5 59.5v132h-126q-64 0 -96 -28.5t-32 -80.5q0 -54 29.5 -81t77.5 -27q41 0 83.5 25.5z" />
    <glyph glyph-name="aogonek" unicode="&#x105;" horiz-adv-x="538" 
d="M556 -121v-41q-37 -17 -84 -17q-48 0 -75 23.5t-27 56.5q0 32 20.5 60.5t56.5 43.5l-74 -7v73q-41 -44 -87.5 -62.5t-91.5 -18.5q-80 0 -122 37t-42 107q0 77 55 111.5t140 34.5h148v80q0 57 -34 84t-96 27q-39 0 -80.5 -11.5t-76.5 -29.5l-7 31q40 21 90.5 33.5
t103.5 12.5q89 0 140 -38.5t51 -102.5v-328q35 -7 69 -16v-8l-32 -3q-25 -16 -43 -43t-18 -52t17.5 -38t44.5 -13t54 14zM373 244h-126q-64 0 -96 -28.5t-32 -80.5q0 -54 29.5 -81t77.5 -27q41 0 83.5 25.5t63.5 59.5v132z" />
    <glyph glyph-name="aring" unicode="&#xe5;" horiz-adv-x="538" 
d="M202 594q-26 24 -26 63q0 40 26 64.5t67 24.5t66.5 -24.5t25.5 -64.5q0 -39 -25.5 -63t-66.5 -24t-67 24zM309.5 617q15.5 15 15.5 40t-15.5 40.5t-40.5 15.5t-41.5 -15.5t-16.5 -40.5t16.5 -40t41.5 -15t40.5 15zM72 27q-42 37 -42 107q0 77 55 111.5t140 34.5h148v80
q0 57 -34 84t-96 27q-39 0 -80.5 -11.5t-76.5 -29.5l-7 31q40 21 90.5 33.5t103.5 12.5q89 0 140 -38.5t51 -102.5v-328q35 -7 69 -16v-8l-160 -16v73q-41 -44 -87.5 -62.5t-91.5 -18.5q-80 0 -122 37zM309.5 52.5q42.5 25.5 63.5 59.5v132h-126q-64 0 -96 -28.5t-32 -80.5
q0 -54 29.5 -81t77.5 -27q41 0 83.5 25.5z" />
    <glyph glyph-name="aringacute" unicode="&#x1fb;" horiz-adv-x="538" 
d="M209 783l114 106q23 23 45 23q15 0 23 -8t8 -19q0 -23 -32 -43l-142 -82zM202 581q-26 24 -26 63q0 40 26 64.5t67 24.5t66.5 -24.5t25.5 -64.5q0 -39 -25.5 -63t-66.5 -24t-67 24zM309.5 604q15.5 15 15.5 40t-15.5 40.5t-40.5 15.5t-41.5 -15.5t-16.5 -40.5t16.5 -40
t41.5 -15t40.5 15zM72 27q-42 37 -42 107q0 77 55 111.5t140 34.5h148v80q0 57 -34 84t-96 27q-39 0 -80.5 -11.5t-76.5 -29.5l-7 31q40 21 90.5 33.5t103.5 12.5q89 0 140 -38.5t51 -102.5v-328q35 -7 69 -16v-8l-160 -16v73q-41 -44 -87.5 -62.5t-91.5 -18.5
q-80 0 -122 37zM309.5 52.5q42.5 25.5 63.5 59.5v132h-126q-64 0 -96 -28.5t-32 -80.5q0 -54 29.5 -81t77.5 -27q41 0 83.5 25.5z" />
    <glyph glyph-name="atilde" unicode="&#xe3;" horiz-adv-x="538" 
d="M126.5 659.5q25.5 24.5 65.5 24.5q21 0 40.5 -8t45.5 -23q19 -12 33 -18t27 -6q23 0 40.5 14.5t24.5 45.5h32q-7 -49 -31.5 -76.5t-67.5 -27.5q-17 0 -33.5 7t-47.5 23q-22 13 -37 19.5t-28 6.5q-23 0 -40 -15.5t-23 -41.5h-33q7 51 32.5 75.5zM72 27q-42 37 -42 107
q0 77 55 111.5t140 34.5h148v80q0 57 -34 84t-96 27q-39 0 -80.5 -11.5t-76.5 -29.5l-7 31q40 21 90.5 33.5t103.5 12.5q89 0 140 -38.5t51 -102.5v-328q35 -7 69 -16v-8l-160 -16v73q-41 -44 -87.5 -62.5t-91.5 -18.5q-80 0 -122 37zM309.5 52.5q42.5 25.5 63.5 59.5v132
h-126q-64 0 -96 -28.5t-32 -80.5q0 -54 29.5 -81t77.5 -27q41 0 83.5 25.5z" />
    <glyph glyph-name="ae" unicode="&#xe6;" horiz-adv-x="872" 
d="M76.5 26.5q-46.5 36.5 -46.5 107.5q0 77 58 114t143 37h136q1 13 5 39q4 27 5 36q0 55 -36.5 83t-97.5 28q-39 0 -80.5 -11.5t-76.5 -29.5l-7 31q40 21 90.5 33.5t103.5 12.5q59 0 100.5 -20.5t60.5 -55.5q32 36 80 56t107 20q74 0 123.5 -31.5t73.5 -84.5t24 -118v-24
h-387q2 -105 54.5 -165t146.5 -60q40 0 81 13.5t72 35.5l9 -26q-30 -25 -77 -41t-107 -16q-68 0 -122.5 25.5t-89.5 73.5q-43 -54 -103.5 -76.5t-119.5 -22.5q-76 0 -122.5 36.5zM762 286q-1 75 -35.5 131t-106.5 56q-77 0 -118 -53t-46 -134h306zM325.5 52.5
q49.5 25.5 75.5 62.5q-33 58 -35 134h-113q-64 0 -99 -31t-35 -83q0 -55 31 -81.5t80 -26.5q46 0 95.5 25.5z" />
    <glyph glyph-name="aeacute" unicode="&#x1fd;" horiz-adv-x="872" 
d="M397 607l114 106q23 23 45 23q15 0 23 -8t8 -19q0 -23 -32 -43l-142 -82zM76.5 26.5q-46.5 36.5 -46.5 107.5q0 77 58 114t143 37h136q1 13 5 39q4 27 5 36q0 55 -36.5 83t-97.5 28q-39 0 -80.5 -11.5t-76.5 -29.5l-7 31q40 21 90.5 33.5t103.5 12.5q59 0 100.5 -20.5
t60.5 -55.5q32 36 80 56t107 20q74 0 123.5 -31.5t73.5 -84.5t24 -118v-24h-387q2 -105 54.5 -165t146.5 -60q40 0 81 13.5t72 35.5l9 -26q-30 -25 -77 -41t-107 -16q-68 0 -122.5 25.5t-89.5 73.5q-43 -54 -103.5 -76.5t-119.5 -22.5q-76 0 -122.5 36.5zM762 286
q-1 75 -35.5 131t-106.5 56q-77 0 -118 -53t-46 -134h306zM325.5 52.5q49.5 25.5 75.5 62.5q-33 58 -35 134h-113q-64 0 -99 -31t-35 -83q0 -55 31 -81.5t80 -26.5q46 0 95.5 25.5z" />
    <glyph glyph-name="b" unicode="b" horiz-adv-x="598" 
d="M227.5 13q-46.5 23 -68.5 63q-5 -32 -19 -76h-59v665q-42 8 -70 18v7l160 17v-270q42 42 86 56t90 14q64 0 114 -28t78.5 -83.5t28.5 -134.5q0 -138 -62 -204.5t-173 -66.5q-59 0 -105.5 23zM441 88q37 63 37 168q0 107 -38 161t-123 54q-43 0 -81.5 -22.5t-64.5 -55.5
v-224q0 -60 40 -102t110 -42q83 0 120 63z" />
    <glyph glyph-name="c" unicode="c" horiz-adv-x="496" 
d="M151.5 22q-58.5 32 -90 90.5t-31.5 135.5q0 122 71.5 190.5t191.5 68.5q108 0 179 -60l-7 -109h-20q-6 15 -10 44.5t-5 53.5q-53 35 -112 35q-95 0 -146 -59t-51 -170q0 -57 20.5 -106.5t63.5 -80.5t108 -31q40 0 81.5 13.5t71.5 35.5l9 -26q-30 -25 -78 -41t-108 -16
q-79 0 -137.5 32z" />
    <glyph glyph-name="cacute" unicode="&#x107;" horiz-adv-x="496" 
d="M226 607l114 106q23 23 45 23q15 0 23 -8t8 -19q0 -23 -32 -43l-142 -82zM151.5 22q-58.5 32 -90 90.5t-31.5 135.5q0 122 71.5 190.5t191.5 68.5q108 0 179 -60l-7 -109h-20q-6 15 -10 44.5t-5 53.5q-53 35 -112 35q-95 0 -146 -59t-51 -170q0 -57 20.5 -106.5
t63.5 -80.5t108 -31q40 0 81.5 13.5t71.5 35.5l9 -26q-30 -25 -78 -41t-108 -16q-79 0 -137.5 32z" />
    <glyph glyph-name="ccaron" unicode="&#x10d;" horiz-adv-x="496" 
d="M223 649q-39 36 -71 58l37 32q30 -22 62 -52.5t51 -56.5h5q19 26 50.5 56.5t61.5 52.5l38 -32q-32 -21 -71 -57t-60 -66h-43q-21 29 -60 65zM151.5 22q-58.5 32 -90 90.5t-31.5 135.5q0 122 71.5 190.5t191.5 68.5q108 0 179 -60l-7 -109h-20q-6 15 -10 44.5t-5 53.5
q-53 35 -112 35q-95 0 -146 -59t-51 -170q0 -57 20.5 -106.5t63.5 -80.5t108 -31q40 0 81.5 13.5t71.5 35.5l9 -26q-30 -25 -78 -41t-108 -16q-79 0 -137.5 32z" />
    <glyph glyph-name="ccedilla" unicode="&#xe7;" horiz-adv-x="496" 
d="M370.5 -81.5q27.5 -16.5 27.5 -50.5q0 -42 -33.5 -64.5t-86.5 -22.5q-48 0 -84 18l16 29q29 -12 63 -12t54.5 13t20.5 39q0 19 -17.5 28t-41.5 9q-11 0 -25 -2l-22 28l30 59q-74 4 -128.5 37t-84 90t-29.5 131q0 122 71.5 190.5t191.5 68.5q108 0 179 -60l-7 -109h-20
q-6 15 -10 44.5t-5 53.5q-53 35 -112 35q-95 0 -146 -59t-51 -170q0 -57 20.5 -106.5t63.5 -80.5t108 -31q40 0 81.5 13.5t71.5 35.5l9 -26q-26 -22 -66.5 -37t-90.5 -19l-26 -56q51 0 78.5 -16.5z" />
    <glyph glyph-name="ccircumflex" unicode="&#x109;" horiz-adv-x="496" 
d="M149 610q32 22 71 57.5t60 64.5h43q21 -29 60 -65t71 -57l-38 -32q-30 22 -61.5 52.5t-50.5 56.5h-5q-19 -26 -51 -56.5t-62 -52.5zM151.5 22q-58.5 32 -90 90.5t-31.5 135.5q0 122 71.5 190.5t191.5 68.5q108 0 179 -60l-7 -109h-20q-6 15 -10 44.5t-5 53.5
q-53 35 -112 35q-95 0 -146 -59t-51 -170q0 -57 20.5 -106.5t63.5 -80.5t108 -31q40 0 81.5 13.5t71.5 35.5l9 -26q-30 -25 -78 -41t-108 -16q-79 0 -137.5 32z" />
    <glyph glyph-name="cdotaccent" unicode="&#x10b;" horiz-adv-x="496" 
d="M265 595.5q-12 12.5 -12 32.5q0 21 12 34t33 13q20 0 32 -13t12 -34q0 -20 -12.5 -32.5t-31.5 -12.5q-21 0 -33 12.5zM151.5 22q-58.5 32 -90 90.5t-31.5 135.5q0 122 71.5 190.5t191.5 68.5q108 0 179 -60l-7 -109h-20q-6 15 -10 44.5t-5 53.5q-53 35 -112 35
q-95 0 -146 -59t-51 -170q0 -57 20.5 -106.5t63.5 -80.5t108 -31q40 0 81.5 13.5t71.5 35.5l9 -26q-30 -25 -78 -41t-108 -16q-79 0 -137.5 32z" />
    <glyph glyph-name="d" unicode="d" horiz-adv-x="591" 
d="M88.5 52.5q-58.5 62.5 -58.5 193.5q0 122 63 191.5t171 69.5q46 0 86.5 -14t76.5 -54v226q-42 8 -69 18v7l159 17v-669q40 -8 69 -16v-7l-139 -20q-5 32 -9 88q-26 -46 -75 -69.5t-111 -23.5q-105 0 -163.5 62.5zM385.5 66.5q41.5 41.5 41.5 104.5v223q-65 77 -142 77
q-84 0 -124.5 -64.5t-40.5 -161.5q0 -104 38 -162t119 -58q67 0 108.5 41.5z" />
    <glyph glyph-name="eth" unicode="&#xf0;" horiz-adv-x="597" 
d="M502.5 492.5q49.5 -100.5 49.5 -200.5q0 -142 -66.5 -222t-196.5 -80q-77 0 -132 35.5t-83.5 94t-28.5 128.5q0 62 27 120.5t83 96t139 37.5q46 0 89.5 -19t69.5 -57q-16 56 -51 113t-85 105l-165 -93l-15 42l145 83q-52 41 -112 68l26 33q73 -30 131 -75l131 78l27 -41
l-120 -68q88 -78 137.5 -178.5zM383 57.5q39 32.5 59 88.5t20 124q0 51 -21 96.5t-58.5 72.5t-84.5 27t-84.5 -28t-58 -78t-20.5 -112q0 -60 18.5 -111t53.5 -81.5t84 -30.5q53 0 92 32.5z" />
    <glyph glyph-name="dcaron" unicode="&#x10f;" horiz-adv-x="714" 
d="M88.5 52.5q-58.5 62.5 -58.5 193.5q0 122 63 191.5t171 69.5q46 0 86.5 -14t76.5 -54v226q-42 8 -69 18v7l159 17v-669q40 -8 69 -16v-7l-139 -20q-5 32 -9 88q-26 -46 -75 -69.5t-111 -23.5q-105 0 -163.5 62.5zM593 498q19 22 32.5 51.5t16.5 59.5l-10 -1
q-21 0 -35 13.5t-14 35.5q0 23 16 36t38 13q31 0 45.5 -18t14.5 -48q0 -42 -20.5 -90t-51.5 -77zM385.5 66.5q41.5 41.5 41.5 104.5v223q-65 77 -142 77q-84 0 -124.5 -64.5t-40.5 -161.5q0 -104 38 -162t119 -58q67 0 108.5 41.5z" />
    <glyph glyph-name="dcroat" unicode="&#x111;" horiz-adv-x="591" 
d="M88.5 52.5q-58.5 62.5 -58.5 193.5q0 122 63 191.5t171 69.5q46 0 86.5 -14t76.5 -54v131h-161v37h161v79q-41 8 -69 17v8l159 17v-121h48v-37h-48v-532q40 -8 69 -16v-7l-139 -20q-5 32 -9 88q-26 -46 -75 -69.5t-111 -23.5q-105 0 -163.5 62.5zM385.5 66.5
q41.5 41.5 41.5 104.5v223q-65 77 -142 77q-84 0 -124.5 -64.5t-40.5 -161.5q0 -104 38 -162t119 -58q67 0 108.5 41.5z" />
    <glyph glyph-name="uni1E0D" unicode="&#x1e0d;" horiz-adv-x="591" 
d="M88.5 52.5q-58.5 62.5 -58.5 193.5q0 122 63 191.5t171 69.5q46 0 86.5 -14t76.5 -54v226q-42 8 -69 18v7l159 17v-669q40 -8 69 -16v-7l-139 -20q-5 32 -9 88q-26 -46 -75 -69.5t-111 -23.5q-105 0 -163.5 62.5zM385.5 66.5q41.5 41.5 41.5 104.5v223q-65 77 -142 77
q-84 0 -124.5 -64.5t-40.5 -161.5q0 -104 38 -162t119 -58q67 0 108.5 41.5zM254.5 -138.5q-12.5 12.5 -12.5 32.5q0 21 12.5 34t32.5 13t32.5 -13t12.5 -34q0 -20 -12.5 -32.5t-32.5 -12.5t-32.5 12.5z" />
    <glyph glyph-name="uni1E0F" unicode="&#x1e0f;" horiz-adv-x="591" 
d="M88.5 52.5q-58.5 62.5 -58.5 193.5q0 122 63 191.5t171 69.5q46 0 86.5 -14t76.5 -54v226q-42 8 -69 18v7l159 17v-669q40 -8 69 -16v-7l-139 -20q-5 32 -9 88q-26 -46 -75 -69.5t-111 -23.5q-105 0 -163.5 62.5zM385.5 66.5q41.5 41.5 41.5 104.5v223q-65 77 -142 77
q-84 0 -124.5 -64.5t-40.5 -161.5q0 -104 38 -162t119 -58q67 0 108.5 41.5zM125 -69h333v-35h-333v35z" />
    <glyph glyph-name="e" unicode="e" horiz-adv-x="534" 
d="M503 248h-385q1 -98 50.5 -161t143.5 -63q40 0 83.5 13.5t75.5 35.5l9 -26q-29 -24 -79.5 -40.5t-110.5 -16.5q-79 0 -138.5 32.5t-92 91t-32.5 134.5q0 123 67.5 191t185.5 68q75 0 125 -32t74 -85.5t24 -118.5v-23zM423 283q0 45 -14 88t-45.5 71.5t-81.5 28.5
q-75 0 -115.5 -53t-47.5 -135h304z" />
    <glyph glyph-name="eacute" unicode="&#xe9;" horiz-adv-x="534" 
d="M205 584l-16 23l114 106q23 23 45 23q15 0 23 -8t8 -19q0 -23 -32 -43zM503 248h-385q1 -98 50.5 -161t143.5 -63q40 0 83.5 13.5t75.5 35.5l9 -26q-29 -24 -79.5 -40.5t-110.5 -16.5q-79 0 -138.5 32.5t-92 91t-32.5 134.5q0 123 67.5 191t185.5 68q75 0 125 -32
t74 -85.5t24 -118.5v-23zM423 283q0 45 -14 88t-45.5 71.5t-81.5 28.5q-75 0 -115.5 -53t-47.5 -135h304z" />
    <glyph glyph-name="ebreve" unicode="&#x115;" horiz-adv-x="534" 
d="M160 606q-41 31 -49 93h56q5 -51 33 -69t67 -18t66.5 18t32.5 69h56q-7 -62 -48.5 -93t-106.5 -31q-66 0 -107 31zM503 248h-385q1 -98 50.5 -161t143.5 -63q40 0 83.5 13.5t75.5 35.5l9 -26q-29 -24 -79.5 -40.5t-110.5 -16.5q-79 0 -138.5 32.5t-92 91t-32.5 134.5
q0 123 67.5 191t185.5 68q75 0 125 -32t74 -85.5t24 -118.5v-23zM423 283q0 45 -14 88t-45.5 71.5t-81.5 28.5q-75 0 -115.5 -53t-47.5 -135h304z" />
    <glyph glyph-name="ecaron" unicode="&#x11b;" horiz-adv-x="534" 
d="M199 649q-39 36 -71 58l37 32q30 -22 62 -52.5t51 -56.5h5q19 26 50.5 56.5t61.5 52.5l38 -32q-32 -21 -71 -57t-60 -66h-43q-21 29 -60 65zM503 248h-385q1 -98 50.5 -161t143.5 -63q40 0 83.5 13.5t75.5 35.5l9 -26q-29 -24 -79.5 -40.5t-110.5 -16.5
q-79 0 -138.5 32.5t-92 91t-32.5 134.5q0 123 67.5 191t185.5 68q75 0 125 -32t74 -85.5t24 -118.5v-23zM423 283q0 45 -14 88t-45.5 71.5t-81.5 28.5q-75 0 -115.5 -53t-47.5 -135h304z" />
    <glyph glyph-name="ecircumflex" unicode="&#xea;" horiz-adv-x="534" 
d="M219 630.5q-32 -30.5 -62 -52.5l-37 32q32 22 71 57.5t60 64.5h43q21 -29 60 -65t71 -57l-38 -32q-30 22 -61.5 52.5t-50.5 56.5h-5q-19 -26 -51 -56.5zM503 248h-385q1 -98 50.5 -161t143.5 -63q40 0 83.5 13.5t75.5 35.5l9 -26q-29 -24 -79.5 -40.5t-110.5 -16.5
q-79 0 -138.5 32.5t-92 91t-32.5 134.5q0 123 67.5 191t185.5 68q75 0 125 -32t74 -85.5t24 -118.5v-23zM423 283q0 45 -14 88t-45.5 71.5t-81.5 28.5q-75 0 -115.5 -53t-47.5 -135h304z" />
    <glyph glyph-name="uni1EBF" unicode="&#x1ebf;" horiz-adv-x="534" 
d="M535 824.5q7 -6.5 7 -16.5q0 -13 -11 -27t-34 -26l-105 -57l-15 21l81 79q32 33 59 33q11 0 18 -6.5zM220 630.5q-32 -30.5 -61 -52.5l-38 32q31 21 70 57t61 65h42q21 -29 60.5 -64.5t70.5 -57.5l-37 -32q-30 22 -61.5 52.5t-51.5 56.5h-4q-19 -26 -51 -56.5zM405 475
q50 -32 74 -85.5t24 -118.5v-23h-385q1 -98 50.5 -161t143.5 -63q40 0 83.5 13.5t75.5 35.5l9 -26q-29 -24 -79.5 -40.5t-110.5 -16.5q-79 0 -138.5 32.5t-92 91t-32.5 134.5q0 123 67.5 191t185.5 68q75 0 125 -32zM423 283q0 45 -14 88t-45.5 71.5t-81.5 28.5
q-75 0 -115.5 -53t-47.5 -135h304z" />
    <glyph glyph-name="uni1EC7" unicode="&#x1ec7;" horiz-adv-x="534" 
d="M219 630.5q-32 -30.5 -62 -52.5l-37 32q32 22 71 57.5t60 64.5h43q21 -29 60 -65t71 -57l-38 -32q-30 22 -61.5 52.5t-50.5 56.5h-5q-19 -26 -51 -56.5zM503 248h-385q1 -98 50.5 -161t143.5 -63q40 0 83.5 13.5t75.5 35.5l9 -26q-29 -24 -79.5 -40.5t-110.5 -16.5
q-79 0 -138.5 32.5t-92 91t-32.5 134.5q0 123 67.5 191t185.5 68q75 0 125 -32t74 -85.5t24 -118.5v-23zM423 283q0 45 -14 88t-45.5 71.5t-81.5 28.5q-75 0 -115.5 -53t-47.5 -135h304zM305.5 -72q12.5 -13 12.5 -34q0 -20 -12.5 -32.5t-32.5 -12.5t-32.5 12.5t-12.5 32.5
q0 21 12.5 34t32.5 13t32.5 -13z" />
    <glyph glyph-name="uni1EC1" unicode="&#x1ec1;" horiz-adv-x="534" 
d="M26.5 779q-14.5 16 -14.5 29q0 10 7 16.5t18 6.5q27 0 68 -41l72 -71l-16 -21l-94 51q-26 14 -40.5 30zM121 610q31 21 70 57t61 65h42q21 -29 60.5 -64.5t70.5 -57.5l-37 -32q-30 22 -61.5 52.5t-51.5 56.5h-4q-19 -26 -51 -56.5t-61 -52.5zM503 248h-385
q1 -98 50.5 -161t143.5 -63q40 0 83.5 13.5t75.5 35.5l9 -26q-29 -24 -79.5 -40.5t-110.5 -16.5q-79 0 -138.5 32.5t-92 91t-32.5 134.5q0 123 67.5 191t185.5 68q75 0 125 -32t74 -85.5t24 -118.5v-23zM423 283q0 45 -14 88t-45.5 71.5t-81.5 28.5q-75 0 -115.5 -53
t-47.5 -135h304z" />
    <glyph glyph-name="uni1EC3" unicode="&#x1ec3;" horiz-adv-x="534" 
d="M347 830l-6 27q32 14 66 14q36 0 61 -16.5t25 -49.5q0 -57 -73 -63l-9 -53h-35l-4 75h21q26 0 40 11t14 31q0 17 -12.5 27t-37.5 10t-50 -13zM220 630.5q-32 -30.5 -61 -52.5l-38 32q31 21 70 57t61 65h42q21 -29 60.5 -64.5t70.5 -57.5l-37 -32q-30 22 -61.5 52.5
t-51.5 56.5h-4q-19 -26 -51 -56.5zM503 248h-385q1 -98 50.5 -161t143.5 -63q40 0 83.5 13.5t75.5 35.5l9 -26q-29 -24 -79.5 -40.5t-110.5 -16.5q-79 0 -138.5 32.5t-92 91t-32.5 134.5q0 123 67.5 191t185.5 68q75 0 125 -32t74 -85.5t24 -118.5v-23zM423 283q0 45 -14 88
t-45.5 71.5t-81.5 28.5q-75 0 -115.5 -53t-47.5 -135h304z" />
    <glyph glyph-name="uni1EC5" unicode="&#x1ec5;" horiz-adv-x="534" 
d="M165 802.5q-16 -15.5 -22 -41.5h-31q7 51 31 75.5t62 24.5q20 0 38.5 -8t42.5 -23q19 -12 32.5 -18t25.5 -6q22 0 38.5 14.5t23.5 45.5h30q-6 -49 -29.5 -76.5t-64.5 -27.5q-15 0 -30 6.5t-29 14t-18 9.5q-22 13 -36 19.5t-26 6.5q-22 0 -38 -15.5zM354.5 667.5
q39.5 -35.5 70.5 -57.5l-37 -32q-30 22 -61.5 52.5t-51.5 56.5h-4q-19 -26 -51 -56.5t-61 -52.5l-38 32q31 21 70 57t61 65h42q21 -29 60.5 -64.5zM503 248h-385q1 -98 50.5 -161t143.5 -63q40 0 83.5 13.5t75.5 35.5l9 -26q-29 -24 -79.5 -40.5t-110.5 -16.5
q-79 0 -138.5 32.5t-92 91t-32.5 134.5q0 123 67.5 191t185.5 68q75 0 125 -32t74 -85.5t24 -118.5v-23zM423 283q0 45 -14 88t-45.5 71.5t-81.5 28.5q-75 0 -115.5 -53t-47.5 -135h304z" />
    <glyph glyph-name="edieresis" unicode="&#xeb;" horiz-adv-x="534" 
d="M131.5 595.5q-12.5 12.5 -12.5 32.5q0 21 12 34t32 13t32.5 -13t12.5 -34q0 -20 -12.5 -32.5t-32.5 -12.5q-19 0 -31.5 12.5zM351 595.5q-12 12.5 -12 32.5q0 21 12 34t32 13t32.5 -13t12.5 -34q0 -20 -12.5 -32.5t-32.5 -12.5t-32 12.5zM503 248h-385q1 -98 50.5 -161
t143.5 -63q40 0 83.5 13.5t75.5 35.5l9 -26q-29 -24 -79.5 -40.5t-110.5 -16.5q-79 0 -138.5 32.5t-92 91t-32.5 134.5q0 123 67.5 191t185.5 68q75 0 125 -32t74 -85.5t24 -118.5v-23zM423 283q0 45 -14 88t-45.5 71.5t-81.5 28.5q-75 0 -115.5 -53t-47.5 -135h304z" />
    <glyph glyph-name="edotaccent" unicode="&#x117;" horiz-adv-x="534" 
d="M245 595.5q-12 12.5 -12 32.5q0 21 12 34t33 13q20 0 32 -13t12 -34q0 -20 -12.5 -32.5t-31.5 -12.5q-21 0 -33 12.5zM503 248h-385q1 -98 50.5 -161t143.5 -63q40 0 83.5 13.5t75.5 35.5l9 -26q-29 -24 -79.5 -40.5t-110.5 -16.5q-79 0 -138.5 32.5t-92 91t-32.5 134.5
q0 123 67.5 191t185.5 68q75 0 125 -32t74 -85.5t24 -118.5v-23zM423 283q0 45 -14 88t-45.5 71.5t-81.5 28.5q-75 0 -115.5 -53t-47.5 -135h304z" />
    <glyph glyph-name="uni1EB9" unicode="&#x1eb9;" horiz-adv-x="534" 
d="M503 248h-385q1 -98 50.5 -161t143.5 -63q40 0 83.5 13.5t75.5 35.5l9 -26q-29 -24 -79.5 -40.5t-110.5 -16.5q-79 0 -138.5 32.5t-92 91t-32.5 134.5q0 123 67.5 191t185.5 68q75 0 125 -32t74 -85.5t24 -118.5v-23zM423 283q0 45 -14 88t-45.5 71.5t-81.5 28.5
q-75 0 -115.5 -53t-47.5 -135h304zM306.5 -72q12.5 -13 12.5 -34q0 -20 -12.5 -32.5t-32.5 -12.5t-32.5 12.5t-12.5 32.5q0 21 12.5 34t32.5 13t32.5 -13z" />
    <glyph glyph-name="egrave" unicode="&#xe8;" horiz-adv-x="534" 
d="M175 709q0 11 8.5 19t23.5 8q22 0 44 -22l116 -107l-16 -23l-142 82q-34 20 -34 43zM503 248h-385q1 -98 50.5 -161t143.5 -63q40 0 83.5 13.5t75.5 35.5l9 -26q-29 -24 -79.5 -40.5t-110.5 -16.5q-79 0 -138.5 32.5t-92 91t-32.5 134.5q0 123 67.5 191t185.5 68
q75 0 125 -32t74 -85.5t24 -118.5v-23zM423 283q0 45 -14 88t-45.5 71.5t-81.5 28.5q-75 0 -115.5 -53t-47.5 -135h304z" />
    <glyph glyph-name="uni1EBB" unicode="&#x1ebb;" horiz-adv-x="534" 
d="M212 753l-7 30q34 17 77 17q41 0 69.5 -20t28.5 -59q0 -34 -22 -53t-62 -23l-10 -64h-39l-5 90h24q30 0 46.5 14t16.5 38q0 20 -15.5 33t-43.5 13q-29 0 -58 -16zM503 248h-385q1 -98 50.5 -161t143.5 -63q40 0 83.5 13.5t75.5 35.5l9 -26q-29 -24 -79.5 -40.5
t-110.5 -16.5q-79 0 -138.5 32.5t-92 91t-32.5 134.5q0 123 67.5 191t185.5 68q75 0 125 -32t74 -85.5t24 -118.5v-23zM423 283q0 45 -14 88t-45.5 71.5t-81.5 28.5q-75 0 -115.5 -53t-47.5 -135h304z" />
    <glyph glyph-name="emacron" unicode="&#x113;" horiz-adv-x="534" 
d="M436 584h-333v35h333v-35zM503 248h-385q1 -98 50.5 -161t143.5 -63q40 0 83.5 13.5t75.5 35.5l9 -26q-29 -24 -79.5 -40.5t-110.5 -16.5q-79 0 -138.5 32.5t-92 91t-32.5 134.5q0 123 67.5 191t185.5 68q75 0 125 -32t74 -85.5t24 -118.5v-23zM423 283q0 45 -14 88
t-45.5 71.5t-81.5 28.5q-75 0 -115.5 -53t-47.5 -135h304z" />
    <glyph glyph-name="eogonek" unicode="&#x119;" horiz-adv-x="534" 
d="M509 -98v-41q-37 -17 -84 -17q-48 0 -75 23.5t-27 56.5q0 39 29 71q-32 -5 -62 -5q-79 0 -138.5 32.5t-92 91t-32.5 134.5q0 123 67.5 191t185.5 68q75 0 125 -32t74 -85.5t24 -118.5v-23h-385q1 -98 50.5 -161t143.5 -63q40 0 83.5 13.5t75.5 35.5l9 -26q-12 -9 -32 -21
q-24 -17 -39.5 -40t-15.5 -47q0 -25 17.5 -38t44.5 -13t54 14zM166.5 418q-40.5 -53 -47.5 -135h304q0 45 -14 88t-45.5 71.5t-81.5 28.5q-75 0 -115.5 -53z" />
    <glyph glyph-name="uni1EBD" unicode="&#x1ebd;" horiz-adv-x="534" 
d="M160 625.5q-17 -15.5 -23 -41.5h-33q7 51 32.5 75.5t65.5 24.5q21 0 40.5 -8t45.5 -23q19 -12 33 -18t27 -6q23 0 40.5 14.5t24.5 45.5h32q-7 -49 -31.5 -76.5t-67.5 -27.5q-17 0 -33.5 7t-47.5 23q-22 13 -37 19.5t-28 6.5q-23 0 -40 -15.5zM503 248h-385
q1 -98 50.5 -161t143.5 -63q40 0 83.5 13.5t75.5 35.5l9 -26q-29 -24 -79.5 -40.5t-110.5 -16.5q-79 0 -138.5 32.5t-92 91t-32.5 134.5q0 123 67.5 191t185.5 68q75 0 125 -32t74 -85.5t24 -118.5v-23zM423 283q0 45 -14 88t-45.5 71.5t-81.5 28.5q-75 0 -115.5 -53
t-47.5 -135h304z" />
    <glyph glyph-name="f" unicode="f" horiz-adv-x="400" 
d="M235.5 649.5q-24.5 -29.5 -24.5 -90.5v-61h151v-36h-151v-432q47 -7 84 -19v-11h-255v11q51 16 81 19v432h-95v36h95v42q0 86 38.5 131t112.5 45q54 0 102 -16l-7 -34q-34 13 -65 13q-42 0 -66.5 -29.5z" />
    <glyph glyph-name="g" unicode="g" horiz-adv-x="526" 
d="M461.5 83q34.5 -34 34.5 -93q0 -143 -248 -143q-98 0 -154.5 32.5t-56.5 92.5q0 55 53 88q-21 11 -31 28.5t-10 37.5q0 54 57 88q-33 20 -50 53t-17 75q0 78 56.5 121.5t155.5 43.5t154 -43q14 15 23.5 33t9.5 29h68q-5 -24 -22.5 -49t-47.5 -45q27 -36 27 -90
q0 -78 -56.5 -121t-155.5 -43q-54 0 -99 14q-32 -20 -32 -43q0 -19 18 -25.5t57 -6.5h169q63 0 97.5 -34zM159.5 434.5q-31.5 -36.5 -31.5 -92.5t31.5 -92.5t91.5 -36.5t91.5 36.5t31.5 92.5t-31.5 92.5t-91.5 36.5t-91.5 -36.5zM371 -92.5q43 22.5 43 69.5q0 32 -21 49.5
t-63 17.5h-165q-11 0 -31 2q-25 -27 -25 -68q0 -45 39.5 -69t106.5 -24q73 0 116 22.5z" />
    <glyph glyph-name="gbreve" unicode="&#x11f;" horiz-adv-x="526" 
d="M157 606q-41 31 -49 93h56q5 -51 33 -69t67 -18t66.5 18t32.5 69h56q-7 -62 -48.5 -93t-106.5 -31q-66 0 -107 31zM461.5 83q34.5 -34 34.5 -93q0 -143 -248 -143q-98 0 -154.5 32.5t-56.5 92.5q0 55 53 88q-21 11 -31 28.5t-10 37.5q0 54 57 88q-33 20 -50 53t-17 75
q0 78 56.5 121.5t155.5 43.5t154 -43q14 15 23.5 33t9.5 29h68q-5 -24 -22.5 -49t-47.5 -45q27 -36 27 -90q0 -78 -56.5 -121t-155.5 -43q-54 0 -99 14q-32 -20 -32 -43q0 -19 18 -25.5t57 -6.5h169q63 0 97.5 -34zM159.5 434.5q-31.5 -36.5 -31.5 -92.5t31.5 -92.5
t91.5 -36.5t91.5 36.5t31.5 92.5t-31.5 92.5t-91.5 36.5t-91.5 -36.5zM371 -92.5q43 22.5 43 69.5q0 32 -21 49.5t-63 17.5h-165q-11 0 -31 2q-25 -27 -25 -68q0 -45 39.5 -69t106.5 -24q73 0 116 22.5z" />
    <glyph glyph-name="gcaron" unicode="&#x1e7;" horiz-adv-x="526" 
d="M180 649q-39 36 -71 58l37 32q30 -22 62 -52.5t51 -56.5h5q19 26 50.5 56.5t61.5 52.5l38 -32q-32 -21 -71 -57t-60 -66h-43q-21 29 -60 65zM461.5 83q34.5 -34 34.5 -93q0 -143 -248 -143q-98 0 -154.5 32.5t-56.5 92.5q0 55 53 88q-21 11 -31 28.5t-10 37.5q0 54 57 88
q-33 20 -50 53t-17 75q0 78 56.5 121.5t155.5 43.5t154 -43q14 15 23.5 33t9.5 29h68q-5 -24 -22.5 -49t-47.5 -45q27 -36 27 -90q0 -78 -56.5 -121t-155.5 -43q-54 0 -99 14q-32 -20 -32 -43q0 -19 18 -25.5t57 -6.5h169q63 0 97.5 -34zM159.5 434.5
q-31.5 -36.5 -31.5 -92.5t31.5 -92.5t91.5 -36.5t91.5 36.5t31.5 92.5t-31.5 92.5t-91.5 36.5t-91.5 -36.5zM371 -92.5q43 22.5 43 69.5q0 32 -21 49.5t-63 17.5h-165q-11 0 -31 2q-25 -27 -25 -68q0 -45 39.5 -69t106.5 -24q73 0 116 22.5z" />
    <glyph glyph-name="gcircumflex" unicode="&#x11d;" horiz-adv-x="526" 
d="M211 630.5q-32 -30.5 -62 -52.5l-37 32q32 22 71 57.5t60 64.5h43q21 -29 60 -65t71 -57l-38 -32q-30 22 -61.5 52.5t-50.5 56.5h-5q-19 -26 -51 -56.5zM461.5 83q34.5 -34 34.5 -93q0 -143 -248 -143q-98 0 -154.5 32.5t-56.5 92.5q0 55 53 88q-21 11 -31 28.5t-10 37.5
q0 54 57 88q-33 20 -50 53t-17 75q0 78 56.5 121.5t155.5 43.5t154 -43q14 15 23.5 33t9.5 29h68q-5 -24 -22.5 -49t-47.5 -45q27 -36 27 -90q0 -78 -56.5 -121t-155.5 -43q-54 0 -99 14q-32 -20 -32 -43q0 -19 18 -25.5t57 -6.5h169q63 0 97.5 -34zM159.5 434.5
q-31.5 -36.5 -31.5 -92.5t31.5 -92.5t91.5 -36.5t91.5 36.5t31.5 92.5t-31.5 92.5t-91.5 36.5t-91.5 -36.5zM371 -92.5q43 22.5 43 69.5q0 32 -21 49.5t-63 17.5h-165q-11 0 -31 2q-25 -27 -25 -68q0 -45 39.5 -69t106.5 -24q73 0 116 22.5z" />
    <glyph glyph-name="gcommaaccent" unicode="&#x123;" horiz-adv-x="526" 
d="M217.5 599q-14.5 18 -14.5 48q0 42 20.5 90t51.5 77l32 -25q-19 -22 -32.5 -51.5t-16.5 -59.5q4 1 10 1q21 0 35 -13.5t14 -35.5q0 -23 -16 -36t-38 -13q-31 0 -45.5 18zM461.5 83q34.5 -34 34.5 -93q0 -143 -248 -143q-98 0 -154.5 32.5t-56.5 92.5q0 55 53 88
q-21 11 -31 28.5t-10 37.5q0 54 57 88q-33 20 -50 53t-17 75q0 78 56.5 121.5t155.5 43.5t154 -43q14 15 23.5 33t9.5 29h68q-5 -24 -22.5 -49t-47.5 -45q27 -36 27 -90q0 -78 -56.5 -121t-155.5 -43q-54 0 -99 14q-32 -20 -32 -43q0 -19 18 -25.5t57 -6.5h169
q63 0 97.5 -34zM159.5 434.5q-31.5 -36.5 -31.5 -92.5t31.5 -92.5t91.5 -36.5t91.5 36.5t31.5 92.5t-31.5 92.5t-91.5 36.5t-91.5 -36.5zM371 -92.5q43 22.5 43 69.5q0 32 -21 49.5t-63 17.5h-165q-11 0 -31 2q-25 -27 -25 -68q0 -45 39.5 -69t106.5 -24q73 0 116 22.5z" />
    <glyph glyph-name="gdotaccent" unicode="&#x121;" horiz-adv-x="526" 
d="M226 595.5q-12 12.5 -12 32.5q0 21 12 34t33 13q20 0 32 -13t12 -34q0 -20 -12.5 -32.5t-31.5 -12.5q-21 0 -33 12.5zM461.5 83q34.5 -34 34.5 -93q0 -143 -248 -143q-98 0 -154.5 32.5t-56.5 92.5q0 55 53 88q-21 11 -31 28.5t-10 37.5q0 54 57 88q-33 20 -50 53t-17 75
q0 78 56.5 121.5t155.5 43.5t154 -43q14 15 23.5 33t9.5 29h68q-5 -24 -22.5 -49t-47.5 -45q27 -36 27 -90q0 -78 -56.5 -121t-155.5 -43q-54 0 -99 14q-32 -20 -32 -43q0 -19 18 -25.5t57 -6.5h169q63 0 97.5 -34zM159.5 434.5q-31.5 -36.5 -31.5 -92.5t31.5 -92.5
t91.5 -36.5t91.5 36.5t31.5 92.5t-31.5 92.5t-91.5 36.5t-91.5 -36.5zM371 -92.5q43 22.5 43 69.5q0 32 -21 49.5t-63 17.5h-165q-11 0 -31 2q-25 -27 -25 -68q0 -45 39.5 -69t106.5 -24q73 0 116 22.5z" />
    <glyph glyph-name="uni1E21" unicode="&#x1e21;" horiz-adv-x="526" 
d="M422 584h-333v35h333v-35zM461.5 83q34.5 -34 34.5 -93q0 -143 -248 -143q-98 0 -154.5 32.5t-56.5 92.5q0 55 53 88q-21 11 -31 28.5t-10 37.5q0 54 57 88q-33 20 -50 53t-17 75q0 78 56.5 121.5t155.5 43.5t154 -43q14 15 23.5 33t9.5 29h68q-5 -24 -22.5 -49
t-47.5 -45q27 -36 27 -90q0 -78 -56.5 -121t-155.5 -43q-54 0 -99 14q-32 -20 -32 -43q0 -19 18 -25.5t57 -6.5h169q63 0 97.5 -34zM159.5 434.5q-31.5 -36.5 -31.5 -92.5t31.5 -92.5t91.5 -36.5t91.5 36.5t31.5 92.5t-31.5 92.5t-91.5 36.5t-91.5 -36.5zM371 -92.5
q43 22.5 43 69.5q0 32 -21 49.5t-63 17.5h-165q-11 0 -31 2q-25 -27 -25 -68q0 -45 39.5 -69t106.5 -24q73 0 116 22.5z" />
    <glyph glyph-name="h" unicode="h" horiz-adv-x="660" 
d="M640 11v-11h-247v11q39 14 77 19v328q0 60 -29 86.5t-77 26.5q-40 0 -84 -20.5t-79 -58.5v-362q38 -6 76 -19v-11h-246v11q40 15 80 19v635q-42 8 -70 18v7l160 17v-277q35 34 85.5 55.5t108.5 21.5q74 0 119.5 -38t45.5 -103v-336q40 -6 80 -19z" />
    <glyph glyph-name="hbar" unicode="&#x127;" horiz-adv-x="660" 
d="M640 11v-11h-247v11q39 14 77 19v328q0 60 -29 86.5t-77 26.5q-40 0 -84 -20.5t-79 -58.5v-362q38 -6 76 -19v-11h-246v11q40 15 80 19v538h-61v38h61v59q-42 8 -70 18v7l160 17v-101h148v-38h-148v-138q35 34 85.5 55.5t108.5 21.5q74 0 119.5 -38t45.5 -103v-336
q40 -6 80 -19z" />
    <glyph glyph-name="uni1E2B" unicode="&#x1e2b;" horiz-adv-x="660" 
d="M640 11v-11h-247v11q39 14 77 19v328q0 60 -29 86.5t-77 26.5q-40 0 -84 -20.5t-79 -58.5v-362q38 -6 76 -19v-11h-246v11q40 15 80 19v635q-42 8 -70 18v7l160 17v-277q35 34 85.5 55.5t108.5 21.5q74 0 119.5 -38t45.5 -103v-336q40 -6 80 -19zM401.5 -119.5
q27.5 18.5 32.5 69.5h56q-7 -62 -48.5 -93t-106.5 -31q-66 0 -107 31t-49 93h56q9 -88 100 -88q39 0 66.5 18.5z" />
    <glyph glyph-name="hcircumflex" unicode="&#x125;" horiz-adv-x="660" 
d="M288 832.5q-32 -30.5 -62 -52.5l-37 32q32 22 71 57.5t60 64.5h43q21 -29 60 -65t71 -57l-38 -32q-30 22 -61.5 52.5t-50.5 56.5h-5q-19 -26 -51 -56.5zM640 11v-11h-247v11q39 14 77 19v328q0 60 -29 86.5t-77 26.5q-40 0 -84 -20.5t-79 -58.5v-362q38 -6 76 -19v-11
h-246v11q40 15 80 19v635q-42 8 -70 18v7l160 17v-277q35 34 85.5 55.5t108.5 21.5q74 0 119.5 -38t45.5 -103v-336q40 -6 80 -19z" />
    <glyph glyph-name="uni1E25" unicode="&#x1e25;" horiz-adv-x="660" 
d="M640 11v-11h-247v11q39 14 77 19v328q0 60 -29 86.5t-77 26.5q-40 0 -84 -20.5t-79 -58.5v-362q38 -6 76 -19v-11h-246v11q40 15 80 19v635q-42 8 -70 18v7l160 17v-277q35 34 85.5 55.5t108.5 21.5q74 0 119.5 -38t45.5 -103v-336q40 -6 80 -19zM368.5 -72
q12.5 -13 12.5 -34q0 -20 -12.5 -32.5t-32.5 -12.5t-32.5 12.5t-12.5 32.5q0 21 12.5 34t32.5 13t32.5 -13z" />
    <glyph glyph-name="i" unicode="i" horiz-adv-x="303" 
d="M103.5 566q-15.5 15 -15.5 39t15.5 39.5t40.5 15.5t40.5 -15.5t15.5 -39.5t-15.5 -39t-40.5 -15t-40.5 15zM26 11q19 7 46 12.5t34 6.5v433q-40 7 -70 17v8l160 16v-474q46 -8 80 -19v-11h-250v11z" />
    <glyph glyph-name="dotlessi" unicode="&#x131;" horiz-adv-x="323" 
d="M36 11q19 7 46 12.5t34 6.5v433q-40 7 -70 17v8l160 16v-474q46 -8 80 -19v-11h-250v11z" />
    <glyph glyph-name="iacute" unicode="&#xed;" horiz-adv-x="323" 
d="M61 607l114 106q23 23 45 23q15 0 23 -8t8 -19q0 -23 -32 -43l-142 -82zM36 11q19 7 46 12.5t34 6.5v433q-40 7 -70 17v8l160 16v-474q46 -8 80 -19v-11h-250v11z" />
    <glyph glyph-name="ibreve" unicode="&#x12d;" horiz-adv-x="323" 
d="M53 612q-41 31 -49 93h56q6 -51 33.5 -69t66.5 -18t66.5 18t32.5 69h56q-7 -62 -48.5 -93t-106.5 -31q-66 0 -107 31zM36 11q19 7 46 12.5t34 6.5v433q-40 7 -70 17v8l160 16v-474q46 -8 80 -19v-11h-250v11z" />
    <glyph glyph-name="uni01D0" unicode="&#x1d0;" horiz-adv-x="323" 
d="M79 649q-39 36 -71 58l38 32q30 -22 61.5 -52.5t50.5 -56.5h5q20 27 51.5 57.5t60.5 51.5l38 -32q-32 -22 -71 -58t-60 -65h-43q-21 29 -60 65zM36 11q19 7 46 12.5t34 6.5v433q-40 7 -70 17v8l160 16v-474q46 -8 80 -19v-11h-250v11z" />
    <glyph glyph-name="icircumflex" unicode="&#xee;" horiz-adv-x="323" 
d="M8 610q32 22 71 57.5t60 64.5h43q21 -29 60 -65t71 -57l-38 -32q-30 22 -61.5 52.5t-50.5 56.5h-5q-19 -26 -51 -56.5t-62 -52.5zM36 11q19 7 46 12.5t34 6.5v433q-40 7 -70 17v8l160 16v-474q46 -8 80 -19v-11h-250v11z" />
    <glyph glyph-name="idieresis" unicode="&#xef;" horiz-adv-x="323" 
d="M18.5 595.5q-12.5 12.5 -12.5 32.5q0 21 12 34t32 13t32.5 -13t12.5 -34q0 -20 -12.5 -32.5t-32.5 -12.5q-19 0 -31.5 12.5zM238 595.5q-12 12.5 -12 32.5q0 21 12 34t32 13t32.5 -13t12.5 -34q0 -20 -12.5 -32.5t-32.5 -12.5t-32 12.5zM36 11q19 7 46 12.5t34 6.5v433
q-40 7 -70 17v8l160 16v-474q46 -8 80 -19v-11h-250v11z" />
    <glyph glyph-name="uni1ECB" unicode="&#x1ecb;" horiz-adv-x="303" 
d="M103.5 566q-15.5 15 -15.5 39t15.5 39.5t40.5 15.5t40.5 -15.5t15.5 -39.5t-15.5 -39t-40.5 -15t-40.5 15zM26 11q19 7 46 12.5t34 6.5v433q-40 7 -70 17v8l160 16v-474q46 -8 80 -19v-11h-250v11zM117.5 -138.5q-12.5 12.5 -12.5 32.5q0 21 12.5 34t32.5 13t32.5 -13
t12.5 -34q0 -20 -12.5 -32.5t-32.5 -12.5t-32.5 12.5z" />
    <glyph glyph-name="igrave" unicode="&#xec;" horiz-adv-x="323" 
d="M75 666q-34 20 -34 43q0 11 8.5 19t23.5 8q22 0 44 -22l116 -107l-16 -23zM36 11q19 7 46 12.5t34 6.5v433q-40 7 -70 17v8l160 16v-474q46 -8 80 -19v-11h-250v11z" />
    <glyph glyph-name="uni1EC9" unicode="&#x1ec9;" horiz-adv-x="323" 
d="M125 671h24q30 0 46.5 14t16.5 38q0 20 -15.5 33t-43.5 13q-29 0 -58 -16l-7 30q34 17 77 17q41 0 69.5 -20t28.5 -59q0 -34 -22 -53t-62 -23l-10 -64h-39zM36 11q19 7 46 12.5t34 6.5v433q-40 7 -70 17v8l160 16v-474q46 -8 80 -19v-11h-250v11z" />
    <glyph glyph-name="ij" unicode="&#x133;" horiz-adv-x="612" 
d="M103.5 566q-15.5 15 -15.5 39t15.5 39.5t40.5 15.5t40.5 -15.5t15.5 -39.5t-15.5 -39t-40.5 -15t-40.5 15zM432 566q-15 15 -15 39t15 39.5t40 15.5t40.5 -15.5t15.5 -39.5t-15.5 -39t-40.5 -15t-40 15zM26 11q19 7 46 12.5t34 6.5v433q-40 7 -70 17v8l160 16v-474
q46 -8 80 -19v-11h-250v11zM285 -104l6 33q28 -14 64 -14q39 0 59 23t20 67v458q-43 8 -69 17v8l160 16v-495q0 -67 -38 -99.5t-101 -32.5q-57 0 -101 19z" />
    <glyph glyph-name="imacron" unicode="&#x12b;" horiz-adv-x="323" 
d="M-6 619h333v-35h-333v35zM36 11q19 7 46 12.5t34 6.5v433q-40 7 -70 17v8l160 16v-474q46 -8 80 -19v-11h-250v11z" />
    <glyph glyph-name="iogonek" unicode="&#x12f;" horiz-adv-x="303" 
d="M103.5 566q-15.5 15 -15.5 39t15.5 39.5t40.5 15.5t40.5 -15.5t15.5 -39.5t-15.5 -39t-40.5 -15t-40.5 15zM322 -129v-41q-37 -17 -84 -17q-48 0 -75 23.5t-27 56.5q0 34 22.5 63t60.5 44h-193v11q19 7 46 12.5t34 6.5v433q-40 7 -70 17v8l160 16v-474q46 -8 80 -19v-11
h-7q-27 -16 -45 -41t-18 -51q0 -25 17.5 -38t44.5 -13t54 14z" />
    <glyph glyph-name="itilde" unicode="&#x129;" horiz-adv-x="323" 
d="M22.5 659.5q25.5 24.5 65.5 24.5q21 0 40.5 -8t45.5 -23q19 -12 33 -18t27 -6q23 0 40.5 14.5t24.5 45.5h32q-7 -49 -31.5 -76.5t-67.5 -27.5q-17 0 -33.5 7t-47.5 23q-22 13 -37 19.5t-28 6.5q-23 0 -40 -15.5t-23 -41.5h-33q7 51 32.5 75.5zM36 11q19 7 46 12.5t34 6.5
v433q-40 7 -70 17v8l160 16v-474q46 -8 80 -19v-11h-250v11z" />
    <glyph glyph-name="j" unicode="j" horiz-adv-x="309" 
d="M129 566q-15 15 -15 39t15 39.5t40 15.5t40.5 -15.5t15.5 -39.5t-15.5 -39t-40.5 -15t-40 15zM-18 -104l6 33q28 -14 64 -14q39 0 59 23t20 67v458q-43 8 -69 17v8l160 16v-495q0 -67 -38 -99.5t-101 -32.5q-57 0 -101 19z" />
    <glyph glyph-name="uni0237" unicode="&#x237;" horiz-adv-x="309" 
d="M-18 -104l6 33q28 -14 64 -14q39 0 59 23t20 67v458q-43 8 -69 17v8l160 16v-495q0 -67 -38 -99.5t-101 -32.5q-57 0 -101 19z" />
    <glyph glyph-name="jcircumflex" unicode="&#x135;" horiz-adv-x="309" 
d="M7 610q32 22 71 57.5t60 64.5h43q21 -29 60 -65t71 -57l-38 -32q-30 22 -61.5 52.5t-50.5 56.5h-5q-19 -26 -51 -56.5t-62 -52.5zM-18 -104l6 33q28 -14 64 -14q39 0 59 23t20 67v458q-43 8 -69 17v8l160 16v-495q0 -67 -38 -99.5t-101 -32.5q-57 0 -101 19z" />
    <glyph glyph-name="k" unicode="k" horiz-adv-x="630" 
d="M613 11v-11h-143l-204 243l-65 -65v-148q43 -7 80 -19v-11h-250v11q44 15 80 19v635q-42 8 -70 18v7l160 17v-476l216 219q5 3 5 6q2 4 2 8q-10 4 -26 8q-8 3 -22 7.5t-21 7.5v11h212v-11q-11 -6 -51 -17q-31 -8 -36 -11l-164 -165l218 -264q37 -5 79 -19z" />
    <glyph glyph-name="kcommaaccent" unicode="&#x137;" horiz-adv-x="630" 
d="M613 11v-11h-143l-204 243l-65 -65v-148q43 -7 80 -19v-11h-250v11q44 15 80 19v635q-42 8 -70 18v7l160 17v-476l216 219q5 3 5 6q2 4 2 8q-10 4 -26 8q-8 3 -22 7.5t-21 7.5v11h212v-11q-11 -6 -51 -17q-31 -8 -36 -11l-164 -165l218 -264q37 -5 79 -19zM377.5 -87
q14.5 -18 14.5 -48q0 -42 -20.5 -90t-51.5 -77l-32 25q19 22 32.5 51.5t16.5 59.5q-3 -1 -10 -1q-21 0 -35 13.5t-14 35.5q0 23 16 36t38 13q31 0 45.5 -18z" />
    <glyph glyph-name="kgreenlandic" unicode="&#x138;" horiz-adv-x="630" 
d="M613 11v-11h-143l-204 243l-65 -65v-148q43 -7 80 -19v-11h-250v11q44 15 80 19v438q-40 7 -70 17v8l160 16v-279l216 220q9 9 11 13l-27 9q-29 7 -46 15v11h212v-11q-11 -6 -51 -17q-31 -8 -36 -11l-164 -165l218 -264q37 -5 79 -19z" />
    <glyph glyph-name="l" unicode="l" horiz-adv-x="313" 
d="M31 11q22 7 80 19v635q-42 8 -70 18v7l160 17v-677q43 -7 80 -19v-11h-250v11z" />
    <glyph glyph-name="lacute" unicode="&#x13a;" horiz-adv-x="313" 
d="M74 795l114 106q23 23 45 23q15 0 23 -8t8 -19q0 -23 -32 -43l-142 -82zM31 11q22 7 80 19v635q-42 8 -70 18v7l160 17v-677q43 -7 80 -19v-11h-250v11z" />
    <glyph glyph-name="lcaron" unicode="&#x13e;" horiz-adv-x="449" 
d="M304 496q19 22 32.5 51.5t16.5 59.5q-4 -1 -10 -1q-23 0 -36.5 14.5t-13.5 36.5q0 24 15 38.5t39 14.5q32 0 47.5 -20.5t15.5 -51.5q0 -42 -21.5 -90t-53.5 -77zM31 11q22 7 80 19v635q-42 8 -70 18v7l160 17v-677q43 -7 80 -19v-11h-250v11z" />
    <glyph glyph-name="lcommaaccent" unicode="&#x13c;" horiz-adv-x="313" 
d="M31 11q22 7 80 19v635q-42 8 -70 18v7l160 17v-677q43 -7 80 -19v-11h-250v11zM109 -277q19 22 32.5 51.5t16.5 59.5q-3 -1 -10 -1q-21 0 -35 13.5t-14 35.5q0 23 16 36t38 13q31 0 45.5 -18t14.5 -48q0 -42 -20.5 -90t-51.5 -77z" />
    <glyph glyph-name="ldot" unicode="&#x140;" horiz-adv-x="420" 
d="M31 11q22 7 80 19v635q-42 8 -70 18v7l160 17v-677q43 -7 80 -19v-11h-250v11zM289 310.5q-13 13.5 -13 34.5q0 22 13 35.5t35 13.5t35 -13.5t13 -35.5q0 -21 -13 -34.5t-35 -13.5t-35 13.5z" />
    <glyph glyph-name="uni1E37" unicode="&#x1e37;" horiz-adv-x="313" 
d="M31 11q22 7 80 19v635q-42 8 -70 18v7l160 17v-677q43 -7 80 -19v-11h-250v11zM122.5 -131.5q-12.5 12.5 -12.5 33.5q0 20 12.5 32.5t32.5 12.5t32.5 -12.5t12.5 -32.5q0 -21 -12.5 -33.5t-32.5 -12.5t-32.5 12.5z" />
    <glyph glyph-name="uni1E39" unicode="&#x1e39;" horiz-adv-x="313" 
d="M-12 819h333v-34h-333v34zM31 11q22 7 80 19v635q-42 8 -70 18v7l160 17v-677q43 -7 80 -19v-11h-250v11zM122.5 -131.5q-12.5 12.5 -12.5 33.5q0 20 12.5 32.5t32.5 12.5t32.5 -12.5t12.5 -32.5q0 -21 -12.5 -33.5t-32.5 -12.5t-32.5 12.5z" />
    <glyph glyph-name="uni1E3B" unicode="&#x1e3b;" horiz-adv-x="313" 
d="M31 11q22 7 80 19v635q-42 8 -70 18v7l160 17v-677q43 -7 80 -19v-11h-250v11zM-12 -69h333v-35h-333v35z" />
    <glyph glyph-name="lslash" unicode="&#x142;" horiz-adv-x="318" 
d="M203 302v-272q40 -6 80 -19v-11h-251v11q20 6 81 19v237l-96 -38v47l96 38v351q-44 8 -70 18v7l160 17v-357l102 40v-48z" />
    <glyph glyph-name="m" unicode="m" horiz-adv-x="948" 
d="M928 11v-11h-247v11q46 15 76 19v328q0 60 -28.5 86.5t-76.5 26.5q-36 0 -70 -20.5t-62 -54.5q3 -15 3 -30v-336q39 -6 75 -19v-11h-237v11q47 15 75 19v328q0 113 -103 113q-36 0 -70.5 -20.5t-61.5 -55.5v-365q40 -6 80 -19v-11h-250v11q40 13 80 19v434q-42 8 -70 18
v7l160 17v-72q29 30 69.5 51.5t89.5 21.5q56 0 95.5 -21.5t56.5 -61.5q29 35 73 59t98 24q74 0 119.5 -38t45.5 -103v-336q40 -6 80 -19z" />
    <glyph glyph-name="uni1E43" unicode="&#x1e43;" horiz-adv-x="948" 
d="M928 11v-11h-247v11q46 15 76 19v328q0 60 -28.5 86.5t-76.5 26.5q-36 0 -70 -20.5t-62 -54.5q3 -15 3 -30v-336q39 -6 75 -19v-11h-237v11q47 15 75 19v328q0 113 -103 113q-36 0 -70.5 -20.5t-61.5 -55.5v-365q40 -6 80 -19v-11h-250v11q40 13 80 19v434q-42 8 -70 18
v7l160 17v-72q29 30 69.5 51.5t89.5 21.5q56 0 95.5 -21.5t56.5 -61.5q29 35 73 59t98 24q74 0 119.5 -38t45.5 -103v-336q40 -6 80 -19zM511.5 -72q12.5 -13 12.5 -34q0 -20 -12.5 -32.5t-32.5 -12.5t-32.5 12.5t-12.5 32.5q0 21 12.5 34t32.5 13t32.5 -13z" />
    <glyph glyph-name="n" unicode="n" horiz-adv-x="660" 
d="M640 11v-11h-246v11q43 14 76 19v328q0 60 -29 86.5t-77 26.5q-40 0 -84 -20.5t-79 -58.5v-362q40 -6 80 -19v-11h-250v11q40 13 80 19v434q-42 8 -70 18v7l160 17v-76q35 34 85.5 55.5t108.5 21.5q74 0 119.5 -38t45.5 -103v-336q47 -7 80 -19z" />
    <glyph glyph-name="nacute" unicode="&#x144;" horiz-adv-x="660" 
d="M244 584l-16 23l114 106q23 23 45 23q15 0 23 -8t8 -19q0 -23 -32 -43zM640 11v-11h-246v11q43 14 76 19v328q0 60 -29 86.5t-77 26.5q-40 0 -84 -20.5t-79 -58.5v-362q40 -6 80 -19v-11h-250v11q40 13 80 19v434q-42 8 -70 18v7l160 17v-76q35 34 85.5 55.5t108.5 21.5
q74 0 119.5 -38t45.5 -103v-336q47 -7 80 -19z" />
    <glyph glyph-name="napostrophe" unicode="&#x149;" horiz-adv-x="830" 
d="M129.5 609q14.5 -18 14.5 -48q0 -42 -20.5 -90t-51.5 -77l-32 25q19 22 32.5 51.5t16.5 59.5l-10 -1q-21 0 -35 13.5t-14 35.5q0 23 16 36t38 13q31 0 45.5 -18zM810 11v-11h-246v11q43 14 76 19v328q0 60 -29 86.5t-77 26.5q-40 0 -84 -20.5t-79 -58.5v-362
q40 -6 80 -19v-11h-250v11q40 13 80 19v434q-42 8 -70 18v7l160 17v-76q35 34 85.5 55.5t108.5 21.5q74 0 119.5 -38t45.5 -103v-336q47 -7 80 -19z" />
    <glyph glyph-name="ncaron" unicode="&#x148;" horiz-adv-x="660" 
d="M235 649q-39 36 -71 58l37 32q30 -22 62 -52.5t51 -56.5h5q19 26 50.5 56.5t61.5 52.5l38 -32q-32 -21 -71 -57t-60 -66h-43q-21 29 -60 65zM640 11v-11h-246v11q43 14 76 19v328q0 60 -29 86.5t-77 26.5q-40 0 -84 -20.5t-79 -58.5v-362q40 -6 80 -19v-11h-250v11
q40 13 80 19v434q-42 8 -70 18v7l160 17v-76q35 34 85.5 55.5t108.5 21.5q74 0 119.5 -38t45.5 -103v-336q47 -7 80 -19z" />
    <glyph glyph-name="ncommaaccent" unicode="&#x146;" horiz-adv-x="660" 
d="M640 11v-11h-246v11q43 14 76 19v328q0 60 -29 86.5t-77 26.5q-40 0 -84 -20.5t-79 -58.5v-362q40 -6 80 -19v-11h-250v11q40 13 80 19v434q-42 8 -70 18v7l160 17v-76q35 34 85.5 55.5t108.5 21.5q74 0 119.5 -38t45.5 -103v-336q47 -7 80 -19zM359.5 -87
q14.5 -18 14.5 -48q0 -42 -20.5 -90t-51.5 -77l-32 25q19 22 32.5 51.5t16.5 59.5q-3 -1 -10 -1q-21 0 -35 13.5t-14 35.5q0 23 16 36t38 13q31 0 45.5 -18z" />
    <glyph glyph-name="uni1E45" unicode="&#x1e45;" horiz-adv-x="660" 
d="M289 595.5q-12 12.5 -12 32.5q0 21 12 34t33 13q20 0 32 -13t12 -34q0 -20 -12.5 -32.5t-31.5 -12.5q-21 0 -33 12.5zM640 11v-11h-246v11q43 14 76 19v328q0 60 -29 86.5t-77 26.5q-40 0 -84 -20.5t-79 -58.5v-362q40 -6 80 -19v-11h-250v11q40 13 80 19v434
q-42 8 -70 18v7l160 17v-76q35 34 85.5 55.5t108.5 21.5q74 0 119.5 -38t45.5 -103v-336q47 -7 80 -19z" />
    <glyph glyph-name="uni1E47" unicode="&#x1e47;" horiz-adv-x="660" 
d="M640 11v-11h-246v11q43 14 76 19v328q0 60 -29 86.5t-77 26.5q-40 0 -84 -20.5t-79 -58.5v-362q40 -6 80 -19v-11h-250v11q40 13 80 19v434q-42 8 -70 18v7l160 17v-76q35 34 85.5 55.5t108.5 21.5q74 0 119.5 -38t45.5 -103v-336q47 -7 80 -19zM349.5 -72
q12.5 -13 12.5 -34q0 -20 -12.5 -32.5t-32.5 -12.5t-32.5 12.5t-12.5 32.5q0 21 12.5 34t32.5 13t32.5 -13z" />
    <glyph glyph-name="eng" unicode="&#x14b;" horiz-adv-x="647" 
d="M320 -187l7 32q29 -13 63 -13q39 0 59.5 23t20.5 67v436q0 60 -29 86.5t-77 26.5q-40 0 -85.5 -20.5t-77.5 -55.5v-365q40 -6 80 -19v-11h-250v11q40 13 80 19v434q-42 8 -70 18v7l160 17v-74q35 32 86 53.5t108 21.5q74 0 119.5 -38t45.5 -103v-441q0 -67 -37.5 -99
t-100.5 -32q-60 0 -102 19z" />
    <glyph glyph-name="uni1E49" unicode="&#x1e49;" horiz-adv-x="660" 
d="M640 11v-11h-246v11q43 14 76 19v328q0 60 -29 86.5t-77 26.5q-40 0 -84 -20.5t-79 -58.5v-362q40 -6 80 -19v-11h-250v11q40 13 80 19v434q-42 8 -70 18v7l160 17v-76q35 34 85.5 55.5t108.5 21.5q74 0 119.5 -38t45.5 -103v-336q47 -7 80 -19zM145 -69h333v-35h-333v35
z" />
    <glyph glyph-name="ntilde" unicode="&#xf1;" horiz-adv-x="660" 
d="M202 625.5q-17 -15.5 -23 -41.5h-33q7 51 32.5 75.5t65.5 24.5q21 0 40.5 -8t45.5 -23q19 -12 33 -18t27 -6q23 0 40.5 14.5t24.5 45.5h32q-7 -49 -31.5 -76.5t-67.5 -27.5q-17 0 -33.5 7t-47.5 23q-22 13 -37 19.5t-28 6.5q-23 0 -40 -15.5zM640 11v-11h-246v11
q43 14 76 19v328q0 60 -29 86.5t-77 26.5q-40 0 -84 -20.5t-79 -58.5v-362q40 -6 80 -19v-11h-250v11q40 13 80 19v434q-42 8 -70 18v7l160 17v-76q35 34 85.5 55.5t108.5 21.5q74 0 119.5 -38t45.5 -103v-336q47 -7 80 -19z" />
    <glyph glyph-name="o" unicode="o" horiz-adv-x="580" 
d="M95.5 58q-69.5 68 -69.5 190t69.5 190.5t194.5 68.5q124 0 193.5 -68.5t69.5 -190.5t-69.5 -190t-193.5 -68q-125 0 -194.5 68zM416 84.5q47 59.5 47 163.5t-47 163.5t-126 59.5q-81 0 -127.5 -59.5t-46.5 -163.5t46.5 -163.5t127.5 -59.5q79 0 126 59.5z" />
    <glyph glyph-name="oacute" unicode="&#xf3;" horiz-adv-x="580" 
d="M197 607l114 106q23 23 45 23q15 0 23 -8t8 -19q0 -23 -32 -43l-142 -82zM95.5 58q-69.5 68 -69.5 190t69.5 190.5t194.5 68.5q124 0 193.5 -68.5t69.5 -190.5t-69.5 -190t-193.5 -68q-125 0 -194.5 68zM416 84.5q47 59.5 47 163.5t-47 163.5t-126 59.5
q-81 0 -127.5 -59.5t-46.5 -163.5t46.5 -163.5t127.5 -59.5q79 0 126 59.5z" />
    <glyph glyph-name="obreve" unicode="&#x14f;" horiz-adv-x="580" 
d="M183 606q-41 31 -49 93h56q5 -51 33 -69t67 -18t66.5 18t32.5 69h56q-7 -62 -48.5 -93t-106.5 -31q-66 0 -107 31zM95.5 58q-69.5 68 -69.5 190t69.5 190.5t194.5 68.5q124 0 193.5 -68.5t69.5 -190.5t-69.5 -190t-193.5 -68q-125 0 -194.5 68zM416 84.5
q47 59.5 47 163.5t-47 163.5t-126 59.5q-81 0 -127.5 -59.5t-46.5 -163.5t46.5 -163.5t127.5 -59.5q79 0 126 59.5z" />
    <glyph glyph-name="uni01D2" unicode="&#x1d2;" horiz-adv-x="580" 
d="M175 739q30 -23 62 -53.5t50 -55.5h5q19 26 50.5 56.5t61.5 52.5l38 -32q-32 -22 -71 -58t-60 -65h-43q-21 29 -60 65t-71 58zM95.5 438.5q69.5 68.5 194.5 68.5q124 0 193.5 -68.5t69.5 -190.5t-69.5 -190t-193.5 -68q-125 0 -194.5 68t-69.5 190t69.5 190.5z
M162.5 84.5q46.5 -59.5 127.5 -59.5q79 0 126 59.5t47 163.5t-47 163.5t-126 59.5q-81 0 -127.5 -59.5t-46.5 -163.5t46.5 -163.5z" />
    <glyph glyph-name="ocircumflex" unicode="&#xf4;" horiz-adv-x="580" 
d="M137 610q32 22 71 57.5t60 64.5h43q21 -29 60 -65t71 -57l-38 -32q-30 22 -61.5 52.5t-50.5 56.5h-5q-19 -26 -51 -56.5t-62 -52.5zM95.5 58q-69.5 68 -69.5 190t69.5 190.5t194.5 68.5q124 0 193.5 -68.5t69.5 -190.5t-69.5 -190t-193.5 -68q-125 0 -194.5 68zM416 84.5
q47 59.5 47 163.5t-47 163.5t-126 59.5q-81 0 -127.5 -59.5t-46.5 -163.5t46.5 -163.5t127.5 -59.5q79 0 126 59.5z" />
    <glyph glyph-name="uni1ED1" unicode="&#x1ed1;" horiz-adv-x="580" 
d="M393 719l81 79q32 33 59 33q11 0 18 -6.5t7 -16.5q0 -13 -11 -27t-34 -26l-105 -57zM137 610q31 21 70 57t61 65h42q21 -29 60.5 -64.5t70.5 -57.5l-37 -32q-30 22 -61.5 52.5t-51.5 56.5h-4q-19 -26 -51 -56.5t-61 -52.5zM95.5 58q-69.5 68 -69.5 190t69.5 190.5
t194.5 68.5q124 0 193.5 -68.5t69.5 -190.5t-69.5 -190t-193.5 -68q-125 0 -194.5 68zM416 84.5q47 59.5 47 163.5t-47 163.5t-126 59.5q-81 0 -127.5 -59.5t-46.5 -163.5t46.5 -163.5t127.5 -59.5q79 0 126 59.5z" />
    <glyph glyph-name="uni1ED9" unicode="&#x1ed9;" horiz-adv-x="580" 
d="M208 667.5q39 35.5 60 64.5h43q21 -29 60 -65t71 -57l-38 -32q-30 22 -61.5 52.5t-50.5 56.5h-5q-19 -26 -51 -56.5t-62 -52.5l-37 32q32 22 71 57.5zM95.5 438.5q69.5 68.5 194.5 68.5q124 0 193.5 -68.5t69.5 -190.5t-69.5 -190t-193.5 -68q-125 0 -194.5 68t-69.5 190
t69.5 190.5zM162.5 84.5q46.5 -59.5 127.5 -59.5q79 0 126 59.5t47 163.5t-47 163.5t-126 59.5q-81 0 -127.5 -59.5t-46.5 -163.5t46.5 -163.5zM256.5 -72q12.5 13 32.5 13t32.5 -13t12.5 -34q0 -20 -12.5 -32.5t-32.5 -12.5t-32.5 12.5t-12.5 32.5q0 21 12.5 34z" />
    <glyph glyph-name="uni1ED3" unicode="&#x1ed3;" horiz-adv-x="580" 
d="M83 749q-26 14 -40.5 30t-14.5 29q0 10 7 16.5t18 6.5q27 0 68 -41l72 -71l-16 -21zM137 610q31 21 70 57t61 65h42q21 -29 60.5 -64.5t70.5 -57.5l-37 -32q-30 22 -61.5 52.5t-51.5 56.5h-4q-19 -26 -51 -56.5t-61 -52.5zM95.5 58q-69.5 68 -69.5 190t69.5 190.5
t194.5 68.5q124 0 193.5 -68.5t69.5 -190.5t-69.5 -190t-193.5 -68q-125 0 -194.5 68zM416 84.5q47 59.5 47 163.5t-47 163.5t-126 59.5q-81 0 -127.5 -59.5t-46.5 -163.5t46.5 -163.5t127.5 -59.5q79 0 126 59.5z" />
    <glyph glyph-name="uni1ED5" unicode="&#x1ed5;" horiz-adv-x="580" 
d="M388 764h21q26 0 40 11t14 31q0 17 -12.5 27t-37.5 10t-50 -13l-6 27q32 14 66 14q36 0 61 -16.5t25 -49.5q0 -57 -73 -63l-9 -53h-35zM137 610q31 21 70 57t61 65h42q21 -29 60.5 -64.5t70.5 -57.5l-37 -32q-30 22 -61.5 52.5t-51.5 56.5h-4q-19 -26 -51 -56.5
t-61 -52.5zM95.5 58q-69.5 68 -69.5 190t69.5 190.5t194.5 68.5q124 0 193.5 -68.5t69.5 -190.5t-69.5 -190t-193.5 -68q-125 0 -194.5 68zM416 84.5q47 59.5 47 163.5t-47 163.5t-126 59.5q-81 0 -127.5 -59.5t-46.5 -163.5t46.5 -163.5t127.5 -59.5q79 0 126 59.5z" />
    <glyph glyph-name="uni1ED7" unicode="&#x1ed7;" horiz-adv-x="580" 
d="M159 836.5q24 24.5 62 24.5q20 0 38.5 -8t42.5 -23q19 -12 32.5 -18t25.5 -6q22 0 38.5 14.5t23.5 45.5h30q-6 -49 -29.5 -76.5t-64.5 -27.5q-15 0 -30 6.5t-29 14t-18 9.5q-22 13 -36 19.5t-26 6.5q-22 0 -38 -15.5t-22 -41.5h-31q7 51 31 75.5zM137 610q31 21 70 57
t61 65h42q21 -29 60.5 -64.5t70.5 -57.5l-37 -32q-30 22 -61.5 52.5t-51.5 56.5h-4q-19 -26 -51 -56.5t-61 -52.5zM95.5 58q-69.5 68 -69.5 190t69.5 190.5t194.5 68.5q124 0 193.5 -68.5t69.5 -190.5t-69.5 -190t-193.5 -68q-125 0 -194.5 68zM416 84.5q47 59.5 47 163.5
t-47 163.5t-126 59.5q-81 0 -127.5 -59.5t-46.5 -163.5t46.5 -163.5t127.5 -59.5q79 0 126 59.5z" />
    <glyph glyph-name="odieresis" unicode="&#xf6;" horiz-adv-x="580" 
d="M147.5 595.5q-12.5 12.5 -12.5 32.5q0 21 12 34t32 13t32.5 -13t12.5 -34q0 -20 -12.5 -32.5t-32.5 -12.5q-19 0 -31.5 12.5zM367 595.5q-12 12.5 -12 32.5q0 21 12 34t32 13t32.5 -13t12.5 -34q0 -20 -12.5 -32.5t-32.5 -12.5t-32 12.5zM95.5 58q-69.5 68 -69.5 190
t69.5 190.5t194.5 68.5q124 0 193.5 -68.5t69.5 -190.5t-69.5 -190t-193.5 -68q-125 0 -194.5 68zM416 84.5q47 59.5 47 163.5t-47 163.5t-126 59.5q-81 0 -127.5 -59.5t-46.5 -163.5t46.5 -163.5t127.5 -59.5q79 0 126 59.5z" />
    <glyph glyph-name="uni1ECD" unicode="&#x1ecd;" horiz-adv-x="580" 
d="M95.5 438.5q69.5 68.5 194.5 68.5q124 0 193.5 -68.5t69.5 -190.5t-69.5 -190t-193.5 -68q-125 0 -194.5 68t-69.5 190t69.5 190.5zM162.5 84.5q46.5 -59.5 127.5 -59.5q79 0 126 59.5t47 163.5t-47 163.5t-126 59.5q-81 0 -127.5 -59.5t-46.5 -163.5t46.5 -163.5z
M256.5 -72q12.5 13 32.5 13t32.5 -13t12.5 -34q0 -20 -12.5 -32.5t-32.5 -12.5t-32.5 12.5t-12.5 32.5q0 21 12.5 34z" />
    <glyph glyph-name="ograve" unicode="&#xf2;" horiz-adv-x="580" 
d="M223 666q-34 20 -34 43q0 11 8.5 19t23.5 8q22 0 44 -22l116 -107l-16 -23zM95.5 58q-69.5 68 -69.5 190t69.5 190.5t194.5 68.5q124 0 193.5 -68.5t69.5 -190.5t-69.5 -190t-193.5 -68q-125 0 -194.5 68zM416 84.5q47 59.5 47 163.5t-47 163.5t-126 59.5
q-81 0 -127.5 -59.5t-46.5 -163.5t46.5 -163.5t127.5 -59.5q79 0 126 59.5z" />
    <glyph glyph-name="uni1ECF" unicode="&#x1ecf;" horiz-adv-x="580" 
d="M263 671h24q30 0 46.5 14t16.5 38q0 20 -15.5 33t-43.5 13q-29 0 -58 -16l-7 30q34 17 77 17q41 0 69.5 -20t28.5 -59q0 -34 -22 -53t-62 -23l-10 -64h-39zM95.5 58q-69.5 68 -69.5 190t69.5 190.5t194.5 68.5q124 0 193.5 -68.5t69.5 -190.5t-69.5 -190t-193.5 -68
q-125 0 -194.5 68zM416 84.5q47 59.5 47 163.5t-47 163.5t-126 59.5q-81 0 -127.5 -59.5t-46.5 -163.5t46.5 -163.5t127.5 -59.5q79 0 126 59.5z" />
    <glyph glyph-name="ohorn" unicode="&#x1a1;" horiz-adv-x="627" 
d="M614.5 395q-22.5 -39 -68.5 -74q7 -38 7 -73q0 -122 -69.5 -190t-193.5 -68q-125 0 -194.5 68t-69.5 190t69.5 190.5t194.5 68.5q93 0 156 -39t89 -111q20 19 34.5 41.5t17.5 46.5q-7 -5 -19 -5q-21 0 -33.5 13t-12.5 35q0 21 13 35.5t41 14.5q61 0 61 -70
q0 -34 -22.5 -73zM416 84.5q47 59.5 47 163.5t-47 163.5t-126 59.5q-81 0 -127.5 -59.5t-46.5 -163.5t46.5 -163.5t127.5 -59.5q79 0 126 59.5z" />
    <glyph glyph-name="uni1EDB" unicode="&#x1edb;" horiz-adv-x="627" 
d="M214 584l-16 23l114 106q23 23 45 23q15 0 23 -8t8 -19q0 -23 -32 -43zM614.5 395q-22.5 -39 -68.5 -74q7 -38 7 -73q0 -122 -69.5 -190t-193.5 -68q-125 0 -194.5 68t-69.5 190t69.5 190.5t194.5 68.5q93 0 156 -39t89 -111q20 19 34.5 41.5t17.5 46.5q-7 -5 -19 -5
q-21 0 -33.5 13t-12.5 35q0 21 13 35.5t41 14.5q61 0 61 -70q0 -34 -22.5 -73zM416 84.5q47 59.5 47 163.5t-47 163.5t-126 59.5q-81 0 -127.5 -59.5t-46.5 -163.5t46.5 -163.5t127.5 -59.5q79 0 126 59.5z" />
    <glyph glyph-name="uni1EE3" unicode="&#x1ee3;" horiz-adv-x="627" 
d="M614.5 395q-22.5 -39 -68.5 -74q7 -38 7 -73q0 -122 -69.5 -190t-193.5 -68q-125 0 -194.5 68t-69.5 190t69.5 190.5t194.5 68.5q93 0 156 -39t89 -111q20 19 34.5 41.5t17.5 46.5q-7 -5 -19 -5q-21 0 -33.5 13t-12.5 35q0 21 13 35.5t41 14.5q61 0 61 -70
q0 -34 -22.5 -73zM416 84.5q47 59.5 47 163.5t-47 163.5t-126 59.5q-81 0 -127.5 -59.5t-46.5 -163.5t46.5 -163.5t127.5 -59.5q79 0 126 59.5zM321.5 -72q12.5 -13 12.5 -34q0 -20 -12.5 -32.5t-32.5 -12.5t-32.5 12.5t-12.5 32.5q0 21 12.5 34t32.5 13t32.5 -13z" />
    <glyph glyph-name="uni1EDD" unicode="&#x1edd;" horiz-adv-x="627" 
d="M190 709q0 11 8.5 19t23.5 8q22 0 44 -22l116 -107l-16 -23l-142 82q-34 20 -34 43zM614.5 395q-22.5 -39 -68.5 -74q7 -38 7 -73q0 -122 -69.5 -190t-193.5 -68q-125 0 -194.5 68t-69.5 190t69.5 190.5t194.5 68.5q93 0 156 -39t89 -111q20 19 34.5 41.5t17.5 46.5
q-7 -5 -19 -5q-21 0 -33.5 13t-12.5 35q0 21 13 35.5t41 14.5q61 0 61 -70q0 -34 -22.5 -73zM416 84.5q47 59.5 47 163.5t-47 163.5t-126 59.5q-81 0 -127.5 -59.5t-46.5 -163.5t46.5 -163.5t127.5 -59.5q79 0 126 59.5z" />
    <glyph glyph-name="uni1EDF" unicode="&#x1edf;" horiz-adv-x="627" 
d="M235 753l-7 30q34 17 77 17q41 0 69.5 -20t28.5 -59q0 -34 -22 -53t-62 -23l-10 -64h-39l-5 90h24q30 0 46.5 14t16.5 38q0 20 -15.5 33t-43.5 13q-29 0 -58 -16zM614.5 395q-22.5 -39 -68.5 -74q7 -38 7 -73q0 -122 -69.5 -190t-193.5 -68q-125 0 -194.5 68t-69.5 190
t69.5 190.5t194.5 68.5q93 0 156 -39t89 -111q20 19 34.5 41.5t17.5 46.5q-7 -5 -19 -5q-21 0 -33.5 13t-12.5 35q0 21 13 35.5t41 14.5q61 0 61 -70q0 -34 -22.5 -73zM416 84.5q47 59.5 47 163.5t-47 163.5t-126 59.5q-81 0 -127.5 -59.5t-46.5 -163.5t46.5 -163.5
t127.5 -59.5q79 0 126 59.5z" />
    <glyph glyph-name="uni1EE1" unicode="&#x1ee1;" horiz-adv-x="627" 
d="M175 625.5q-17 -15.5 -23 -41.5h-33q7 51 32.5 75.5t65.5 24.5q21 0 40.5 -8t45.5 -23q19 -12 33 -18t27 -6q23 0 40.5 14.5t24.5 45.5h32q-7 -49 -31.5 -76.5t-67.5 -27.5q-17 0 -33.5 7t-47.5 23q-22 13 -37 19.5t-28 6.5q-23 0 -40 -15.5zM614.5 395
q-22.5 -39 -68.5 -74q7 -38 7 -73q0 -122 -69.5 -190t-193.5 -68q-125 0 -194.5 68t-69.5 190t69.5 190.5t194.5 68.5q93 0 156 -39t89 -111q20 19 34.5 41.5t17.5 46.5q-7 -5 -19 -5q-21 0 -33.5 13t-12.5 35q0 21 13 35.5t41 14.5q61 0 61 -70q0 -34 -22.5 -73zM416 84.5
q47 59.5 47 163.5t-47 163.5t-126 59.5q-81 0 -127.5 -59.5t-46.5 -163.5t46.5 -163.5t127.5 -59.5q79 0 126 59.5z" />
    <glyph glyph-name="ohungarumlaut" unicode="&#x151;" horiz-adv-x="580" 
d="M143 606l114 106q24 24 45 24q15 0 23.5 -8.5t8.5 -19.5q0 -23 -33 -42l-142 -83zM341 606l114 106q7 8 19 16t26 8q15 0 23.5 -8.5t8.5 -19.5q0 -23 -33 -42l-142 -83zM95.5 58q-69.5 68 -69.5 190t69.5 190.5t194.5 68.5q124 0 193.5 -68.5t69.5 -190.5t-69.5 -190
t-193.5 -68q-125 0 -194.5 68zM416 84.5q47 59.5 47 163.5t-47 163.5t-126 59.5q-81 0 -127.5 -59.5t-46.5 -163.5t46.5 -163.5t127.5 -59.5q79 0 126 59.5z" />
    <glyph glyph-name="omacron" unicode="&#x14d;" horiz-adv-x="580" 
d="M122 619h333v-35h-333v35zM95.5 58q-69.5 68 -69.5 190t69.5 190.5t194.5 68.5q124 0 193.5 -68.5t69.5 -190.5t-69.5 -190t-193.5 -68q-125 0 -194.5 68zM416 84.5q47 59.5 47 163.5t-47 163.5t-126 59.5q-81 0 -127.5 -59.5t-46.5 -163.5t46.5 -163.5t127.5 -59.5
q79 0 126 59.5z" />
    <glyph glyph-name="oslash" unicode="&#xf8;" horiz-adv-x="580" 
d="M531 368q22 -52 22 -120q0 -122 -69.5 -190t-193.5 -68q-86 0 -146 33l-42 -56l-31 23l40 54q-41 33 -63 85t-22 119q0 122 69.5 190.5t194.5 68.5q84 0 143 -32l37 50l33 -24l-36 -48q42 -33 64 -85zM152 99l247 331q-43 41 -109 41q-81 0 -127.5 -59.5t-46.5 -163.5
q0 -91 36 -149zM416 84.5q47 59.5 47 163.5q0 91 -37 150l-248 -330q45 -43 112 -43q79 0 126 59.5z" />
    <glyph glyph-name="oslashacute" unicode="&#x1ff;" horiz-adv-x="580" 
d="M212 584l-16 23l114 106q23 23 45 23q15 0 23 -8t8 -19q0 -23 -32 -43zM531 368q22 -52 22 -120q0 -122 -69.5 -190t-193.5 -68q-86 0 -146 33l-42 -56l-31 23l40 54q-41 33 -63 85t-22 119q0 122 69.5 190.5t194.5 68.5q84 0 143 -32l37 50l33 -24l-36 -48
q42 -33 64 -85zM152 99l247 331q-43 41 -109 41q-81 0 -127.5 -59.5t-46.5 -163.5q0 -91 36 -149zM416 84.5q47 59.5 47 163.5q0 91 -37 150l-248 -330q45 -43 112 -43q79 0 126 59.5z" />
    <glyph glyph-name="otilde" unicode="&#xf5;" horiz-adv-x="580" 
d="M150.5 659.5q25.5 24.5 65.5 24.5q21 0 40.5 -8t45.5 -23q19 -12 33 -18t27 -6q23 0 40.5 14.5t24.5 45.5h32q-7 -49 -31.5 -76.5t-67.5 -27.5q-17 0 -33.5 7t-47.5 23q-22 13 -37 19.5t-28 6.5q-23 0 -40 -15.5t-23 -41.5h-33q7 51 32.5 75.5zM95.5 58
q-69.5 68 -69.5 190t69.5 190.5t194.5 68.5q124 0 193.5 -68.5t69.5 -190.5t-69.5 -190t-193.5 -68q-125 0 -194.5 68zM416 84.5q47 59.5 47 163.5t-47 163.5t-126 59.5q-81 0 -127.5 -59.5t-46.5 -163.5t46.5 -163.5t127.5 -59.5q79 0 126 59.5z" />
    <glyph glyph-name="oe" unicode="&#x153;" horiz-adv-x="915" 
d="M95 58.5q-69 68.5 -69 189.5t69 190t189 69q58 0 105.5 -21t78.5 -59q32 39 81.5 59.5t112.5 20.5q74 0 124 -32t74 -85.5t24 -118.5v-23h-386q1 -62 23 -113t65.5 -81t106.5 -30q41 0 84.5 13.5t74.5 35.5l9 -26q-29 -24 -79 -40.5t-110 -16.5q-63 0 -114 21t-85 60
q-69 -81 -189 -81t-189 68.5zM377 48.5q39 23.5 62 66.5q-30 57 -30 133q0 81 28 136q-24 42 -62.5 64.5t-86.5 22.5q-80 0 -125.5 -59.5t-45.5 -163.5q0 -105 45.5 -164t125.5 -59q50 0 89 23.5zM804 283q-2 77 -35.5 132.5t-105.5 55.5q-75 0 -116 -53t-48 -135h305z" />
    <glyph glyph-name="p" unicode="p" horiz-adv-x="602" 
d="M8 -231q31 9 81 18v677q-43 8 -70 17v8l160 17v-73q38 43 83.5 58.5t86.5 15.5q108 0 167.5 -62t59.5 -184q0 -139 -61.5 -205t-174.5 -66q-51 0 -94.5 18t-66.5 56v-277q40 -6 80 -19v-12h-251v13zM448 88q37 63 37 168q0 108 -36.5 161.5t-120.5 53.5q-44 0 -82.5 -23
t-66.5 -60v-219q0 -39 17.5 -72t51.5 -52.5t80 -19.5q83 0 120 63z" />
    <glyph glyph-name="thorn" unicode="&#xfe;" horiz-adv-x="602" 
d="M8 -231q31 9 81 18v879q-40 7 -70 16v9l160 16v-274q38 43 83.5 58.5t86.5 15.5q108 0 167.5 -62t59.5 -184q0 -139 -61.5 -205t-174.5 -66q-51 0 -94.5 18t-66.5 56v-277q40 -6 80 -19v-12h-251v13zM448 88q37 63 37 168q0 108 -36.5 161.5t-120.5 53.5q-44 0 -82.5 -23
t-66.5 -60v-219q0 -39 17.5 -72t51.5 -52.5t80 -19.5q83 0 120 63z" />
    <glyph glyph-name="q" unicode="q" horiz-adv-x="603" 
d="M343 -233q42 15 81 20v279q-23 -39 -66.5 -57.5t-94.5 -18.5q-110 0 -173.5 63.5t-63.5 201.5q0 81 29 138t79.5 85.5t113.5 28.5q110 0 176 -73v72l160 -17v-7q-30 -10 -70 -18v-678q44 -7 80 -18v-12h-251v11zM354 44.5q34 19.5 52 52.5t18 72v223q-26 34 -65.5 56.5
t-80.5 22.5q-84 0 -122.5 -54.5t-38.5 -160.5t37 -168.5t120 -62.5q46 0 80 19.5z" />
    <glyph glyph-name="r" unicode="r" horiz-adv-x="416" 
d="M20 11q34 13 80 19v434q-44 8 -69 18v7l149 17l8 -86h4q16 36 50 61.5t74 25.5q49 0 83 -22l-17 -47q-25 19 -56 19q-41 0 -76 -27.5t-60 -69.5v-330q44 -7 80 -19v-11h-250v11z" />
    <glyph glyph-name="racute" unicode="&#x155;" horiz-adv-x="416" 
d="M104 607l114 106q23 23 45 23q15 0 23 -8t8 -19q0 -23 -32 -43l-142 -82zM20 11q34 13 80 19v434q-44 8 -69 18v7l149 17l8 -86h4q16 36 50 61.5t74 25.5q49 0 83 -22l-17 -47q-25 19 -56 19q-41 0 -76 -27.5t-60 -69.5v-330q44 -7 80 -19v-11h-250v11z" />
    <glyph glyph-name="rcaron" unicode="&#x159;" horiz-adv-x="416" 
d="M127 649q-39 36 -71 58l37 32q30 -22 62 -52.5t51 -56.5h5q19 26 50.5 56.5t61.5 52.5l38 -32q-32 -21 -71 -57t-60 -66h-43q-21 29 -60 65zM20 11q34 13 80 19v434q-44 8 -69 18v7l149 17l8 -86h4q16 36 50 61.5t74 25.5q49 0 83 -22l-17 -47q-25 19 -56 19
q-41 0 -76 -27.5t-60 -69.5v-330q44 -7 80 -19v-11h-250v11z" />
    <glyph glyph-name="rcommaaccent" unicode="&#x157;" horiz-adv-x="416" 
d="M20 11q34 13 80 19v434q-44 8 -69 18v7l149 17l8 -86h4q16 36 50 61.5t74 25.5q49 0 83 -22l-17 -47q-25 19 -56 19q-41 0 -76 -27.5t-60 -69.5v-330q44 -7 80 -19v-11h-250v11zM102 -277q19 22 32.5 51.5t16.5 59.5q-3 -1 -10 -1q-21 0 -35 13.5t-14 35.5q0 23 16 36
t38 13q31 0 45.5 -18t14.5 -48q0 -42 -20.5 -90t-51.5 -77z" />
    <glyph glyph-name="uni1E5B" unicode="&#x1e5b;" horiz-adv-x="416" 
d="M20 11q34 13 80 19v434q-44 8 -69 18v7l149 17l8 -86h4q16 36 50 61.5t74 25.5q49 0 83 -22l-17 -47q-25 19 -56 19q-41 0 -76 -27.5t-60 -69.5v-330q44 -7 80 -19v-11h-250v11zM113.5 -138.5q-12.5 12.5 -12.5 32.5q0 21 12.5 34t32.5 13t32.5 -13t12.5 -34
q0 -20 -12.5 -32.5t-32.5 -12.5t-32.5 12.5z" />
    <glyph glyph-name="uni1E5D" unicode="&#x1e5d;" horiz-adv-x="416" 
d="M29 619h333v-35h-333v35zM20 11q34 13 80 19v434q-44 8 -69 18v7l149 17l8 -86h4q16 36 50 61.5t74 25.5q49 0 83 -22l-17 -47q-25 19 -56 19q-41 0 -76 -27.5t-60 -69.5v-330q44 -7 80 -19v-11h-250v11zM113.5 -138.5q-12.5 12.5 -12.5 32.5q0 21 12.5 34t32.5 13
t32.5 -13t12.5 -34q0 -20 -12.5 -32.5t-32.5 -12.5t-32.5 12.5z" />
    <glyph glyph-name="uni1E5F" unicode="&#x1e5f;" horiz-adv-x="416" 
d="M20 11q34 13 80 19v434q-44 8 -69 18v7l149 17l8 -86h4q16 36 50 61.5t74 25.5q49 0 83 -22l-17 -47q-25 19 -56 19q-41 0 -76 -27.5t-60 -69.5v-330q44 -7 80 -19v-11h-250v11zM2 -69h333v-35h-333v35z" />
    <glyph glyph-name="s" unicode="s" horiz-adv-x="464" 
d="M121 6q-50 16 -81 44l7 125h21q5 -14 9.5 -50t5.5 -62q45 -38 122 -38q62 0 97.5 27.5t35.5 73.5q0 38 -32 59.5t-98 44.5q-55 21 -88 37.5t-56.5 45.5t-23.5 73q0 60 53 90.5t133 30.5q113 0 175 -52l-9 -103h-22q-6 15 -9.5 41t-3.5 49q-45 30 -112 30q-53 0 -85 -18.5
t-32 -56.5q0 -27 17.5 -46t43.5 -32t71 -30q55 -21 88 -38.5t56.5 -46.5t23.5 -72q0 -69 -54 -105.5t-137 -36.5q-66 0 -116 16z" />
    <glyph glyph-name="sacute" unicode="&#x15b;" horiz-adv-x="464" 
d="M136 607l114 106q23 23 45 23q15 0 23 -8t8 -19q0 -23 -32 -43l-142 -82zM121 6q-50 16 -81 44l7 125h21q5 -14 9.5 -50t5.5 -62q45 -38 122 -38q62 0 97.5 27.5t35.5 73.5q0 38 -32 59.5t-98 44.5q-55 21 -88 37.5t-56.5 45.5t-23.5 73q0 60 53 90.5t133 30.5
q113 0 175 -52l-9 -103h-22q-6 15 -9.5 41t-3.5 49q-45 30 -112 30q-53 0 -85 -18.5t-32 -56.5q0 -27 17.5 -46t43.5 -32t71 -30q55 -21 88 -38.5t56.5 -46.5t23.5 -72q0 -69 -54 -105.5t-137 -36.5q-66 0 -116 16z" />
    <glyph glyph-name="scaron" unicode="&#x161;" horiz-adv-x="464" 
d="M150 649q-39 36 -71 58l37 32q30 -22 62 -52.5t51 -56.5h5q19 26 50.5 56.5t61.5 52.5l38 -32q-32 -21 -71 -57t-60 -66h-43q-21 29 -60 65zM121 6q-50 16 -81 44l7 125h21q5 -14 9.5 -50t5.5 -62q45 -38 122 -38q62 0 97.5 27.5t35.5 73.5q0 38 -32 59.5t-98 44.5
q-55 21 -88 37.5t-56.5 45.5t-23.5 73q0 60 53 90.5t133 30.5q113 0 175 -52l-9 -103h-22q-6 15 -9.5 41t-3.5 49q-45 30 -112 30q-53 0 -85 -18.5t-32 -56.5q0 -27 17.5 -46t43.5 -32t71 -30q55 -21 88 -38.5t56.5 -46.5t23.5 -72q0 -69 -54 -105.5t-137 -36.5
q-66 0 -116 16z" />
    <glyph glyph-name="scedilla" unicode="&#x15f;" horiz-adv-x="464" 
d="M379.5 30.5q-48.5 -36.5 -125.5 -40.5l-26 -55q51 0 78.5 -16.5t27.5 -50.5q0 -42 -33.5 -64.5t-86.5 -22.5q-48 0 -84 18l16 29q29 -12 63 -12t54.5 13t20.5 39q0 19 -17.5 28t-41.5 9q-11 0 -25 -2l-22 28l30 60q-108 6 -168 59l7 125h21q5 -14 9.5 -50t5.5 -62
q45 -38 122 -38q62 0 97.5 27.5t35.5 73.5q0 38 -32 59.5t-98 44.5q-55 21 -88 37.5t-56.5 45.5t-23.5 73q0 60 53 90.5t133 30.5q113 0 175 -52l-9 -103h-22q-6 15 -9.5 41t-3.5 49q-45 30 -112 30q-53 0 -85 -18.5t-32 -56.5q0 -27 17.5 -46t43.5 -32t71 -30
q55 -21 88 -38.5t56.5 -46.5t23.5 -72q0 -65 -48.5 -101.5z" />
    <glyph glyph-name="scircumflex" unicode="&#x15d;" horiz-adv-x="464" 
d="M79 610q32 22 71 57.5t60 64.5h43q21 -29 60 -65t71 -57l-38 -32q-30 22 -61.5 52.5t-50.5 56.5h-5q-19 -26 -51 -56.5t-62 -52.5zM121 6q-50 16 -81 44l7 125h21q5 -14 9.5 -50t5.5 -62q45 -38 122 -38q62 0 97.5 27.5t35.5 73.5q0 38 -32 59.5t-98 44.5
q-55 21 -88 37.5t-56.5 45.5t-23.5 73q0 60 53 90.5t133 30.5q113 0 175 -52l-9 -103h-22q-6 15 -9.5 41t-3.5 49q-45 30 -112 30q-53 0 -85 -18.5t-32 -56.5q0 -27 17.5 -46t43.5 -32t71 -30q55 -21 88 -38.5t56.5 -46.5t23.5 -72q0 -69 -54 -105.5t-137 -36.5
q-66 0 -116 16z" />
    <glyph glyph-name="scommaaccent" unicode="&#x219;" horiz-adv-x="464" 
d="M121 6q-50 16 -81 44l7 125h21q5 -14 9.5 -50t5.5 -62q45 -38 122 -38q62 0 97.5 27.5t35.5 73.5q0 38 -32 59.5t-98 44.5q-55 21 -88 37.5t-56.5 45.5t-23.5 73q0 60 53 90.5t133 30.5q113 0 175 -52l-9 -103h-22q-6 15 -9.5 41t-3.5 49q-45 30 -112 30q-53 0 -85 -18.5
t-32 -56.5q0 -27 17.5 -46t43.5 -32t71 -30q55 -21 88 -38.5t56.5 -46.5t23.5 -72q0 -69 -54 -105.5t-137 -36.5q-66 0 -116 16zM183 -267q19 23 33 52.5t17 59.5q-4 -2 -11 -2q-20 0 -35 14.5t-15 35.5q0 23 16 38t39 15q31 0 47 -19.5t16 -49.5q0 -41 -21.5 -90t-52.5 -79
z" />
    <glyph glyph-name="uni1E61" unicode="&#x1e61;" horiz-adv-x="464" 
d="M197 595.5q-12 12.5 -12 32.5q0 21 12 34t33 13q20 0 32 -13t12 -34q0 -20 -12.5 -32.5t-31.5 -12.5q-21 0 -33 12.5zM121 6q-50 16 -81 44l7 125h21q5 -14 9.5 -50t5.5 -62q45 -38 122 -38q62 0 97.5 27.5t35.5 73.5q0 38 -32 59.5t-98 44.5q-55 21 -88 37.5t-56.5 45.5
t-23.5 73q0 60 53 90.5t133 30.5q113 0 175 -52l-9 -103h-22q-6 15 -9.5 41t-3.5 49q-45 30 -112 30q-53 0 -85 -18.5t-32 -56.5q0 -27 17.5 -46t43.5 -32t71 -30q55 -21 88 -38.5t56.5 -46.5t23.5 -72q0 -69 -54 -105.5t-137 -36.5q-66 0 -116 16z" />
    <glyph glyph-name="uni1E63" unicode="&#x1e63;" horiz-adv-x="464" 
d="M121 6q-50 16 -81 44l7 125h21q5 -14 9.5 -50t5.5 -62q45 -38 122 -38q62 0 97.5 27.5t35.5 73.5q0 38 -32 59.5t-98 44.5q-55 21 -88 37.5t-56.5 45.5t-23.5 73q0 60 53 90.5t133 30.5q113 0 175 -52l-9 -103h-22q-6 15 -9.5 41t-3.5 49q-45 30 -112 30q-53 0 -85 -18.5
t-32 -56.5q0 -27 17.5 -46t43.5 -32t71 -30q55 -21 88 -38.5t56.5 -46.5t23.5 -72q0 -69 -54 -105.5t-137 -36.5q-66 0 -116 16zM197.5 -138.5q-12.5 12.5 -12.5 32.5q0 21 12.5 34t32.5 13t32.5 -13t12.5 -34q0 -20 -12.5 -32.5t-32.5 -12.5t-32.5 12.5z" />
    <glyph glyph-name="germandbls" unicode="&#xdf;" horiz-adv-x="700" 
d="M419 350.5q16 -19.5 40 -32t65 -29.5q50 -21 80 -38.5t51.5 -46.5t21.5 -72q0 -70 -50 -106t-132 -36q-60 0 -102 15.5t-74 44.5l8 125h21q6 -15 10 -51.5t4 -60.5q23 -19 48 -28.5t60 -9.5q57 0 85.5 26.5t28.5 68.5q0 28 -16 48t-40 33t-64 30q-48 20 -77.5 37t-50 46
t-20.5 72q0 53 42.5 81t103.5 33q0 73 -29 137t-115 64q-47 0 -79 -30t-32 -89v-552q42 -6 81 -19v-11h-252v11q54 16 81 19v432h-95v36h95v53q0 91 54 138.5t149 47.5q144 0 185 -80t41 -170v-16q-64 0 -103.5 -18t-39.5 -56q0 -27 16 -46.5z" />
    <glyph glyph-name="uni0259" unicode="&#x259;" horiz-adv-x="534" 
d="M379.5 474.5q59.5 -32.5 92 -91t32.5 -134.5q0 -123 -67.5 -191t-185.5 -68q-75 0 -125 32t-74 85.5t-24 118.5v23h385q-1 98 -50.5 161t-143.5 63q-40 0 -83.5 -13.5t-75.5 -35.5l-9 26q29 24 79.5 40.5t110.5 16.5q79 0 138.5 -32.5zM364.5 79q40.5 53 47.5 135h-304
q0 -45 14 -88t45.5 -71.5t81.5 -28.5q75 0 115.5 53z" />
    <glyph glyph-name="t" unicode="t" horiz-adv-x="383" 
d="M356 5q-45 -15 -102 -15q-71 0 -111 36t-40 111v325h-87v36h87v55q38 16 47 80h43v-135h150v-36h-150v-325q0 -60 23.5 -85t67.5 -25q29 0 65 12z" />
    <glyph glyph-name="tbar" unicode="&#x167;" horiz-adv-x="383" 
d="M356 5q-45 -15 -102 -15q-71 0 -111 36t-40 111v130h-75v35h75v160h-87v36h87v55q38 16 47 80h43v-135h150v-36h-150v-160h132v-35h-132v-130q0 -60 23.5 -85t67.5 -25q29 0 65 12z" />
    <glyph glyph-name="tcaron" unicode="&#x165;" horiz-adv-x="539" 
d="M489 646q15 -20 15 -51q0 -41 -21.5 -89.5t-52.5 -77.5l-32 25q20 22 33.5 51.5t16.5 59.5q-8 -2 -11 -2q-22 0 -36 14.5t-14 36.5q0 24 15 38.5t39 14.5q33 0 48 -20zM349 39l7 -34q-45 -15 -102 -15q-71 0 -111 36t-40 111v325h-87v36h87v55q38 16 47 80h43v-135h150
v-36h-150v-325q0 -60 23.5 -85t67.5 -25q29 0 65 12z" />
    <glyph glyph-name="uni0163" unicode="&#x163;" horiz-adv-x="383" 
d="M319 -83.5q24 -18.5 24 -48.5q0 -42 -33.5 -64.5t-86.5 -22.5q-47 0 -85 18l16 29q29 -12 64 -12q34 0 54.5 13t20.5 39q0 19 -17.5 28t-42.5 9q-10 0 -24 -2l-22 28l30 62q-54 8 -84 43.5t-30 100.5v325h-87v36h87v55q38 16 47 80h43v-135h150v-36h-150v-325
q0 -60 23.5 -85t67.5 -25q29 0 65 12l7 -34q-40 -13 -94 -15l-26 -55q5 1 15 1q44 -1 68 -19.5z" />
    <glyph glyph-name="uni021B" unicode="&#x21b;" horiz-adv-x="383" 
d="M254 -10q-71 0 -111 36t-40 111v325h-87v36h87v55q38 16 47 80h43v-135h150v-36h-150v-325q0 -60 23.5 -85t67.5 -25q29 0 65 12l7 -34q-45 -15 -102 -15zM264.5 -87q14.5 -18 14.5 -48q0 -42 -20.5 -90t-51.5 -77l-32 25q19 22 32.5 51.5t16.5 59.5q-3 -1 -10 -1
q-21 0 -35 13.5t-14 35.5q0 23 16 36t38 13q31 0 45.5 -18z" />
    <glyph glyph-name="uni1E97" unicode="&#x1e97;" horiz-adv-x="383" 
d="M28.5 701.5q-12.5 12.5 -12.5 32.5q0 21 12 34t32 13t32.5 -13t12.5 -34q0 -20 -12.5 -32.5t-32.5 -12.5q-19 0 -31.5 12.5zM248 701.5q-12 12.5 -12 32.5q0 21 12 34t32 13t32.5 -13t12.5 -34q0 -20 -12.5 -32.5t-32.5 -12.5t-32 12.5zM356 5q-45 -15 -102 -15
q-71 0 -111 36t-40 111v325h-87v36h87v55q38 16 47 80h43v-135h150v-36h-150v-325q0 -60 23.5 -85t67.5 -25q29 0 65 12z" />
    <glyph glyph-name="uni1E6D" unicode="&#x1e6d;" horiz-adv-x="383" 
d="M254 -10q-71 0 -111 36t-40 111v325h-87v36h87v55q38 16 47 80h43v-135h150v-36h-150v-325q0 -60 23.5 -85t67.5 -25q29 0 65 12l7 -34q-45 -15 -102 -15zM268.5 -72q12.5 -13 12.5 -34q0 -20 -12.5 -32.5t-32.5 -12.5t-32.5 12.5t-12.5 32.5q0 21 12.5 34t32.5 13
t32.5 -13z" />
    <glyph glyph-name="uni1E6F" unicode="&#x1e6f;" horiz-adv-x="383" 
d="M103 462h-87v36h87v55q38 16 47 80h43v-135h150v-36h-150v-325q0 -60 23.5 -85t67.5 -25q29 0 65 12l7 -34q-45 -15 -102 -15q-71 0 -111 36t-40 111v325zM364 -69v-35h-333v35h333z" />
    <glyph glyph-name="u" unicode="u" horiz-adv-x="633" 
d="M610 15v-8l-160 -16v65q-37 -28 -85.5 -47t-101.5 -19q-79 0 -125 37.5t-46 101.5v335q-44 8 -70 18v7l160 17v-367q0 -60 28.5 -87t77.5 -27q37 0 82.5 19t79.5 49v371q-42 8 -69 18v7l159 17v-475q29 -4 70 -16z" />
    <glyph glyph-name="uacute" unicode="&#xfa;" horiz-adv-x="633" 
d="M248 584l-16 23l114 106q23 23 45 23q15 0 23 -8t8 -19q0 -23 -32 -43zM610 15v-8l-160 -16v65q-37 -28 -85.5 -47t-101.5 -19q-79 0 -125 37.5t-46 101.5v335q-44 8 -70 18v7l160 17v-367q0 -60 28.5 -87t77.5 -27q37 0 82.5 19t79.5 49v371q-42 8 -69 18v7l159 17v-475
q29 -4 70 -16z" />
    <glyph glyph-name="ubreve" unicode="&#x16d;" horiz-adv-x="633" 
d="M209 606q-41 31 -49 93h56q5 -51 33 -69t67 -18t66.5 18t32.5 69h56q-7 -62 -48.5 -93t-106.5 -31q-66 0 -107 31zM610 15v-8l-160 -16v65q-37 -28 -85.5 -47t-101.5 -19q-79 0 -125 37.5t-46 101.5v335q-44 8 -70 18v7l160 17v-367q0 -60 28.5 -87t77.5 -27
q37 0 82.5 19t79.5 49v371q-42 8 -69 18v7l159 17v-475q29 -4 70 -16z" />
    <glyph glyph-name="uni01D4" unicode="&#x1d4;" horiz-adv-x="633" 
d="M234 649q-39 36 -71 58l38 32q30 -22 61.5 -52.5t50.5 -56.5h5q20 27 51.5 57.5t60.5 51.5l38 -32q-32 -22 -71 -58t-60 -65h-43q-21 29 -60 65zM610 15v-8l-160 -16v65q-37 -28 -85.5 -47t-101.5 -19q-79 0 -125 37.5t-46 101.5v335q-44 8 -70 18v7l160 17v-367
q0 -60 28.5 -87t77.5 -27q37 0 82.5 19t79.5 49v371q-42 8 -69 18v7l159 17v-475q29 -4 70 -16z" />
    <glyph glyph-name="ucircumflex" unicode="&#xfb;" horiz-adv-x="633" 
d="M256 630.5q-32 -30.5 -62 -52.5l-37 32q32 22 71 57.5t60 64.5h43q21 -29 60 -65t71 -57l-38 -32q-30 22 -61.5 52.5t-50.5 56.5h-5q-19 -26 -51 -56.5zM610 15v-8l-160 -16v65q-37 -28 -85.5 -47t-101.5 -19q-79 0 -125 37.5t-46 101.5v335q-44 8 -70 18v7l160 17v-367
q0 -60 28.5 -87t77.5 -27q37 0 82.5 19t79.5 49v371q-42 8 -69 18v7l159 17v-475q29 -4 70 -16z" />
    <glyph glyph-name="udieresis" unicode="&#xfc;" horiz-adv-x="633" 
d="M167.5 595.5q-12.5 12.5 -12.5 32.5q0 21 12 34t32 13t32.5 -13t12.5 -34q0 -20 -12.5 -32.5t-32.5 -12.5q-19 0 -31.5 12.5zM387 595.5q-12 12.5 -12 32.5q0 21 12 34t32 13t32.5 -13t12.5 -34q0 -20 -12.5 -32.5t-32.5 -12.5t-32 12.5zM610 15v-8l-160 -16v65
q-37 -28 -85.5 -47t-101.5 -19q-79 0 -125 37.5t-46 101.5v335q-44 8 -70 18v7l160 17v-367q0 -60 28.5 -87t77.5 -27q37 0 82.5 19t79.5 49v371q-42 8 -69 18v7l159 17v-475q29 -4 70 -16z" />
    <glyph glyph-name="uni01D8" unicode="&#x1d8;" horiz-adv-x="633" 
d="M301 677l-16 23l97 93q23 23 45 23q14 0 22.5 -8.5t8.5 -19.5q0 -24 -32 -42zM167.5 595.5q-12.5 12.5 -12.5 32.5t12.5 33t32.5 13q19 0 31.5 -13t12.5 -33t-12 -32.5t-32 -12.5t-32.5 12.5zM452.5 661q12.5 -13 12.5 -33t-12.5 -32.5t-33.5 -12.5q-20 0 -32 12.5
t-12 32.5t12.5 33t31.5 13q21 0 33.5 -13zM610 15v-8l-160 -16v65q-37 -28 -85.5 -47t-101.5 -19q-79 0 -125 37.5t-46 101.5v335q-44 8 -70 18v7l160 17v-367q0 -60 28.5 -87t77.5 -27q37 0 82.5 19t79.5 49v371q-42 8 -69 18v7l159 17v-475q29 -4 70 -16z" />
    <glyph glyph-name="uni01DA" unicode="&#x1da;" horiz-adv-x="633" 
d="M237.5 755q-36.5 33 -71.5 57l38 31q31 -23 61 -50.5t49 -52.5h4q19 25 49 52.5t61 50.5l38 -31q-35 -24 -71.5 -57t-57.5 -62h-42q-21 29 -57.5 62zM173.5 596q-12.5 13 -12.5 33t12.5 33t32.5 13q19 0 31.5 -13t12.5 -33t-12.5 -33t-31.5 -13q-20 0 -32.5 13z
M458.5 662q12.5 -13 12.5 -33t-12.5 -33t-33.5 -13q-19 0 -31.5 13t-12.5 33t12.5 33t31.5 13q21 0 33.5 -13zM610 15v-8l-160 -16v65q-37 -28 -85.5 -47t-101.5 -19q-79 0 -125 37.5t-46 101.5v335q-44 8 -70 18v7l160 17v-367q0 -60 28.5 -87t77.5 -27q37 0 82.5 19
t79.5 49v371q-42 8 -69 18v7l159 17v-475q29 -4 70 -16z" />
    <glyph glyph-name="uni01DC" unicode="&#x1dc;" horiz-adv-x="633" 
d="M182 789q0 11 8.5 19.5t22.5 8.5q22 0 45 -23l97 -93l-16 -23l-125 69q-32 18 -32 42zM170.5 596.5q-12.5 12.5 -12.5 32.5t12.5 33t32.5 13q19 0 31.5 -13t12.5 -33t-12 -32.5t-32 -12.5t-32.5 12.5zM390 596.5q-12 12.5 -12 32.5t12.5 33t31.5 13q21 0 33.5 -13
t12.5 -33t-12.5 -32.5t-33.5 -12.5q-20 0 -32 12.5zM610 15v-8l-160 -16v65q-37 -28 -85.5 -47t-101.5 -19q-79 0 -125 37.5t-46 101.5v335q-44 8 -70 18v7l160 17v-367q0 -60 28.5 -87t77.5 -27q37 0 82.5 19t79.5 49v371q-42 8 -69 18v7l159 17v-475q29 -4 70 -16z" />
    <glyph glyph-name="uni01D6" unicode="&#x1d6;" horiz-adv-x="633" 
d="M475 734h-321v35h321v-35zM171.5 662q12.5 13 32.5 13t32.5 -13t12.5 -33t-12.5 -32.5t-32.5 -12.5t-32.5 12.5t-12.5 32.5t12.5 33zM392 662q12 13 32 13t32.5 -13t12.5 -33t-12.5 -32.5t-32.5 -12.5t-32 12.5t-12 32.5t12 33zM610 15v-8l-160 -16v65q-37 -28 -85.5 -47
t-101.5 -19q-79 0 -125 37.5t-46 101.5v335q-44 8 -70 18v7l160 17v-367q0 -60 28.5 -87t77.5 -27q37 0 82.5 19t79.5 49v371q-42 8 -69 18v7l159 17v-475q29 -4 70 -16z" />
    <glyph glyph-name="uni1EE5" unicode="&#x1ee5;" horiz-adv-x="633" 
d="M610 15v-8l-160 -16v65q-37 -28 -85.5 -47t-101.5 -19q-79 0 -125 37.5t-46 101.5v335q-44 8 -70 18v7l160 17v-367q0 -60 28.5 -87t77.5 -27q37 0 82.5 19t79.5 49v371q-42 8 -69 18v7l159 17v-475q29 -4 70 -16zM347.5 -72q12.5 -13 12.5 -34q0 -20 -12.5 -32.5
t-32.5 -12.5t-32.5 12.5t-12.5 32.5q0 21 12.5 34t32.5 13t32.5 -13z" />
    <glyph glyph-name="ugrave" unicode="&#xf9;" horiz-adv-x="633" 
d="M213 709q0 11 8.5 19t23.5 8q22 0 44 -22l116 -107l-16 -23l-142 82q-34 20 -34 43zM610 15v-8l-160 -16v65q-37 -28 -85.5 -47t-101.5 -19q-79 0 -125 37.5t-46 101.5v335q-44 8 -70 18v7l160 17v-367q0 -60 28.5 -87t77.5 -27q37 0 82.5 19t79.5 49v371q-42 8 -69 18v7
l159 17v-475q29 -4 70 -16z" />
    <glyph glyph-name="uni1EE7" unicode="&#x1ee7;" horiz-adv-x="633" 
d="M246 753l-7 30q34 17 77 17q41 0 69.5 -20t28.5 -59q0 -34 -22 -53t-62 -23l-10 -64h-39l-5 90h24q30 0 46.5 14t16.5 38q0 20 -15.5 33t-43.5 13q-29 0 -58 -16zM610 15v-8l-160 -16v65q-37 -28 -85.5 -47t-101.5 -19q-79 0 -125 37.5t-46 101.5v335q-44 8 -70 18v7
l160 17v-367q0 -60 28.5 -87t77.5 -27q37 0 82.5 19t79.5 49v371q-42 8 -69 18v7l159 17v-475q29 -4 70 -16z" />
    <glyph glyph-name="uhorn" unicode="&#x1b0;" horiz-adv-x="659" 
d="M138 27.5q-46 37.5 -46 101.5v335q-44 8 -70 18v7l160 17v-367q0 -60 28.5 -87t77.5 -27q38 0 83.5 19.5t78.5 49.5v370q-42 8 -69 18v9h126q54 0 81.5 14.5t34.5 44.5q-6 -5 -19 -5q-21 0 -33.5 13t-12.5 35q0 21 13 36t41 15q62 0 62 -68q0 -41 -37.5 -75t-96.5 -45
v-425q29 -4 70 -16v-8l-160 -16v67q-36 -29 -85 -48.5t-102 -19.5q-79 0 -125 37.5z" />
    <glyph glyph-name="uni1EE9" unicode="&#x1ee9;" horiz-adv-x="659" 
d="M242 607l114 106q23 23 45 23q15 0 23 -8t8 -19q0 -23 -32 -43l-142 -82zM138 27.5q-46 37.5 -46 101.5v335q-44 8 -70 18v7l160 17v-367q0 -60 28.5 -87t77.5 -27q38 0 83.5 19.5t78.5 49.5v370q-42 8 -69 18v9h126q54 0 81.5 14.5t34.5 44.5q-6 -5 -19 -5
q-21 0 -33.5 13t-12.5 35q0 21 13 36t41 15q62 0 62 -68q0 -41 -37.5 -75t-96.5 -45v-425q29 -4 70 -16v-8l-160 -16v67q-36 -29 -85 -48.5t-102 -19.5q-79 0 -125 37.5z" />
    <glyph glyph-name="uni1EF1" unicode="&#x1ef1;" horiz-adv-x="659" 
d="M138 27.5q-46 37.5 -46 101.5v335q-44 8 -70 18v7l160 17v-367q0 -60 28.5 -87t77.5 -27q38 0 83.5 19.5t78.5 49.5v370q-42 8 -69 18v9h126q54 0 81.5 14.5t34.5 44.5q-6 -5 -19 -5q-21 0 -33.5 13t-12.5 35q0 21 13 36t41 15q62 0 62 -68q0 -41 -37.5 -75t-96.5 -45
v-425q29 -4 70 -16v-8l-160 -16v67q-36 -29 -85 -48.5t-102 -19.5q-79 0 -125 37.5zM290.5 -138.5q-12.5 12.5 -12.5 32.5q0 21 12.5 34t32.5 13t32.5 -13t12.5 -34q0 -20 -12.5 -32.5t-32.5 -12.5t-32.5 12.5z" />
    <glyph glyph-name="uni1EEB" unicode="&#x1eeb;" horiz-adv-x="659" 
d="M246 666q-34 20 -34 43q0 11 8.5 19t23.5 8q22 0 44 -22l116 -107l-16 -23zM138 27.5q-46 37.5 -46 101.5v335q-44 8 -70 18v7l160 17v-367q0 -60 28.5 -87t77.5 -27q38 0 83.5 19.5t78.5 49.5v370q-42 8 -69 18v9h126q54 0 81.5 14.5t34.5 44.5q-6 -5 -19 -5
q-21 0 -33.5 13t-12.5 35q0 21 13 36t41 15q62 0 62 -68q0 -41 -37.5 -75t-96.5 -45v-425q29 -4 70 -16v-8l-160 -16v67q-36 -29 -85 -48.5t-102 -19.5q-79 0 -125 37.5z" />
    <glyph glyph-name="uni1EED" unicode="&#x1eed;" horiz-adv-x="659" 
d="M282 671h24q30 0 46.5 14t16.5 38q0 20 -15.5 33t-43.5 13q-29 0 -58 -16l-7 30q34 17 77 17q41 0 69.5 -20t28.5 -59q0 -34 -22 -53t-62 -23l-10 -64h-39zM138 27.5q-46 37.5 -46 101.5v335q-44 8 -70 18v7l160 17v-367q0 -60 28.5 -87t77.5 -27q38 0 83.5 19.5
t78.5 49.5v370q-42 8 -69 18v9h126q54 0 81.5 14.5t34.5 44.5q-6 -5 -19 -5q-21 0 -33.5 13t-12.5 35q0 21 13 36t41 15q62 0 62 -68q0 -41 -37.5 -75t-96.5 -45v-425q29 -4 70 -16v-8l-160 -16v67q-36 -29 -85 -48.5t-102 -19.5q-79 0 -125 37.5z" />
    <glyph glyph-name="uni1EEF" unicode="&#x1eef;" horiz-adv-x="659" 
d="M178.5 659.5q25.5 24.5 65.5 24.5q21 0 40.5 -8t45.5 -23q19 -12 33 -18t27 -6q23 0 40.5 14.5t24.5 45.5h32q-7 -49 -31.5 -76.5t-67.5 -27.5q-17 0 -33.5 7t-47.5 23q-22 13 -37 19.5t-28 6.5q-23 0 -40 -15.5t-23 -41.5h-33q7 51 32.5 75.5zM138 27.5
q-46 37.5 -46 101.5v335q-44 8 -70 18v7l160 17v-367q0 -60 28.5 -87t77.5 -27q38 0 83.5 19.5t78.5 49.5v370q-42 8 -69 18v9h126q54 0 81.5 14.5t34.5 44.5q-6 -5 -19 -5q-21 0 -33.5 13t-12.5 35q0 21 13 36t41 15q62 0 62 -68q0 -41 -37.5 -75t-96.5 -45v-425
q29 -4 70 -16v-8l-160 -16v67q-36 -29 -85 -48.5t-102 -19.5q-79 0 -125 37.5z" />
    <glyph glyph-name="uhungarumlaut" unicode="&#x171;" horiz-adv-x="633" 
d="M149 583l-16 23l114 106q24 24 45 24q15 0 23.5 -8.5t8.5 -19.5q0 -23 -33 -42zM347 583l-16 23l114 106q7 8 19 16t26 8q15 0 23.5 -8.5t8.5 -19.5q0 -23 -33 -42zM610 15v-8l-160 -16v65q-37 -28 -85.5 -47t-101.5 -19q-79 0 -125 37.5t-46 101.5v335q-44 8 -70 18v7
l160 17v-367q0 -60 28.5 -87t77.5 -27q37 0 82.5 19t79.5 49v371q-42 8 -69 18v7l159 17v-475q29 -4 70 -16z" />
    <glyph glyph-name="umacron" unicode="&#x16b;" horiz-adv-x="633" 
d="M482 584h-333v35h333v-35zM610 15v-8l-160 -16v65q-37 -28 -85.5 -47t-101.5 -19q-79 0 -125 37.5t-46 101.5v335q-44 8 -70 18v7l160 17v-367q0 -60 28.5 -87t77.5 -27q37 0 82.5 19t79.5 49v371q-42 8 -69 18v7l159 17v-475q29 -4 70 -16z" />
    <glyph glyph-name="uogonek" unicode="&#x173;" horiz-adv-x="633" 
d="M645 -123v-41q-37 -17 -84 -17q-48 0 -75 23.5t-27 56.5q0 29 18 56t49 44l-76 -8v65q-37 -28 -85.5 -47t-101.5 -19q-79 0 -125 37.5t-46 101.5v335q-44 8 -70 18v7l160 17v-367q0 -60 28.5 -87t77.5 -27q37 0 82.5 19t79.5 49v371q-42 8 -69 18v7l159 17v-475
q29 -4 70 -16v-8l-20 -2q-26 -16 -43.5 -41t-17.5 -50t17.5 -38t44.5 -13t54 14z" />
    <glyph glyph-name="uring" unicode="&#x16f;" horiz-adv-x="633" 
d="M249 594q-26 24 -26 63q0 40 26 64.5t67 24.5t66.5 -24.5t25.5 -64.5q0 -39 -25.5 -63t-66.5 -24t-67 24zM274.5 697.5q-16.5 -15.5 -16.5 -40.5t16.5 -40t41.5 -15t40.5 15t15.5 40t-15.5 40.5t-40.5 15.5t-41.5 -15.5zM610 15v-8l-160 -16v65q-37 -28 -85.5 -47
t-101.5 -19q-79 0 -125 37.5t-46 101.5v335q-44 8 -70 18v7l160 17v-367q0 -60 28.5 -87t77.5 -27q37 0 82.5 19t79.5 49v371q-42 8 -69 18v7l159 17v-475q29 -4 70 -16z" />
    <glyph glyph-name="utilde" unicode="&#x169;" horiz-adv-x="633" 
d="M201 625.5q-17 -15.5 -23 -41.5h-33q7 51 32.5 75.5t65.5 24.5q21 0 40.5 -8t45.5 -23q19 -12 33 -18t27 -6q23 0 40.5 14.5t24.5 45.5h32q-7 -49 -31.5 -76.5t-67.5 -27.5q-17 0 -33.5 7t-47.5 23q-22 13 -37 19.5t-28 6.5q-23 0 -40 -15.5zM610 15v-8l-160 -16v65
q-37 -28 -85.5 -47t-101.5 -19q-79 0 -125 37.5t-46 101.5v335q-44 8 -70 18v7l160 17v-367q0 -60 28.5 -87t77.5 -27q37 0 82.5 19t79.5 49v371q-42 8 -69 18v7l159 17v-475q29 -4 70 -16z" />
    <glyph glyph-name="v" unicode="v" horiz-adv-x="565" 
d="M75 470q-45 7 -67 17v11h231v-12q-24 -11 -77 -18l132 -395l144 396q-48 6 -75 17v12h193v-11q-24 -10 -66 -17l-176 -470h-73z" />
    <glyph glyph-name="w" unicode="w" horiz-adv-x="790" 
d="M76 470q-4 1 -28 5t-40 11v12h233v-13q-34 -12 -76 -17l96 -369l122 349h53l125 -367l101 387q-41 7 -76 19v11h195v-11q-25 -10 -68 -17l-128 -470h-65l-125 366l-128 -366h-63z" />
    <glyph glyph-name="wacute" unicode="&#x1e83;" horiz-adv-x="790" 
d="M331 607l114 106q23 23 45 23q15 0 23 -8t8 -19q0 -23 -32 -43l-142 -82zM76 470q-4 1 -28 5t-40 11v12h233v-13q-34 -12 -76 -17l96 -369l122 349h53l125 -367l101 387q-41 7 -76 19v11h195v-11q-25 -10 -68 -17l-128 -470h-65l-125 366l-128 -366h-63z" />
    <glyph glyph-name="wcircumflex" unicode="&#x175;" horiz-adv-x="790" 
d="M259 610q32 22 71 57.5t60 64.5h43q21 -29 60 -65t71 -57l-38 -32q-30 22 -61.5 52.5t-50.5 56.5h-5q-19 -26 -51 -56.5t-62 -52.5zM76 470q-4 1 -28 5t-40 11v12h233v-13q-34 -12 -76 -17l96 -369l122 349h53l125 -367l101 387q-41 7 -76 19v11h195v-11q-25 -10 -68 -17
l-128 -470h-65l-125 366l-128 -366h-63z" />
    <glyph glyph-name="wdieresis" unicode="&#x1e85;" horiz-adv-x="790" 
d="M269.5 595.5q-12.5 12.5 -12.5 32.5q0 21 12 34t32 13t32.5 -13t12.5 -34q0 -20 -12.5 -32.5t-32.5 -12.5q-19 0 -31.5 12.5zM489 595.5q-12 12.5 -12 32.5q0 21 12 34t32 13t32.5 -13t12.5 -34q0 -20 -12.5 -32.5t-32.5 -12.5t-32 12.5zM76 470q-4 1 -28 5t-40 11v12
h233v-13q-34 -12 -76 -17l96 -369l122 349h53l125 -367l101 387q-41 7 -76 19v11h195v-11q-25 -10 -68 -17l-128 -470h-65l-125 366l-128 -366h-63z" />
    <glyph glyph-name="wgrave" unicode="&#x1e81;" horiz-adv-x="790" 
d="M330 666q-34 20 -34 43q0 11 8.5 19t23.5 8q22 0 44 -22l116 -107l-16 -23zM76 470q-4 1 -28 5t-40 11v12h233v-13q-34 -12 -76 -17l96 -369l122 349h53l125 -367l101 387q-41 7 -76 19v11h195v-11q-25 -10 -68 -17l-128 -470h-65l-125 366l-128 -366h-63z" />
    <glyph glyph-name="x" unicode="x" horiz-adv-x="575" 
d="M572 11v-11h-233v11q40 13 72 18l-135 183l-151 -183q38 -6 76 -18v-11h-198v10q32 12 71 17l178 218l-166 224q-42 7 -70 18v11h230v-12q-34 -12 -70 -18l122 -166l137 167q-49 7 -73 18v11h197v-11q-27 -12 -73 -18l-164 -200l178 -242q41 -7 72 -16z" />
    <glyph glyph-name="y" unicode="y" horiz-adv-x="564" 
d="M559 498v-11q-25 -9 -69 -17l-193 -516q-20 -54 -37.5 -84t-45.5 -46t-74 -16q-48 0 -92 18l14 44q44 -14 77 -14q30 0 48 10t33 34.5t33 72.5l11 30l-192 468q-44 5 -67 16v11h232v-12q-24 -9 -79 -17l141 -372l138 374q-40 3 -73 15v12h195z" />
    <glyph glyph-name="yacute" unicode="&#xfd;" horiz-adv-x="564" 
d="M226 584l-16 23l114 106q23 23 45 23q15 0 23 -8t8 -19q0 -23 -32 -43zM559 498v-11q-25 -9 -69 -17l-193 -516q-20 -54 -37.5 -84t-45.5 -46t-74 -16q-48 0 -92 18l14 44q44 -14 77 -14q30 0 48 10t33 34.5t33 72.5l11 30l-192 468q-44 5 -67 16v11h232v-12
q-24 -9 -79 -17l141 -372l138 374q-40 3 -73 15v12h195z" />
    <glyph glyph-name="ycircumflex" unicode="&#x177;" horiz-adv-x="564" 
d="M244 630.5q-32 -30.5 -62 -52.5l-37 32q32 22 71 57.5t60 64.5h43q21 -29 60 -65t71 -57l-38 -32q-30 22 -61.5 52.5t-50.5 56.5h-5q-19 -26 -51 -56.5zM559 498v-11q-25 -9 -69 -17l-193 -516q-20 -54 -37.5 -84t-45.5 -46t-74 -16q-48 0 -92 18l14 44q44 -14 77 -14
q30 0 48 10t33 34.5t33 72.5l11 30l-192 468q-44 5 -67 16v11h232v-12q-24 -9 -79 -17l141 -372l138 374q-40 3 -73 15v12h195z" />
    <glyph glyph-name="ydieresis" unicode="&#xff;" horiz-adv-x="564" 
d="M150.5 595.5q-12.5 12.5 -12.5 32.5q0 21 12 34t32 13t32.5 -13t12.5 -34q0 -20 -12.5 -32.5t-32.5 -12.5q-19 0 -31.5 12.5zM370 595.5q-12 12.5 -12 32.5q0 21 12 34t32 13t32.5 -13t12.5 -34q0 -20 -12.5 -32.5t-32.5 -12.5t-32 12.5zM559 498v-11q-25 -9 -69 -17
l-193 -516q-20 -54 -37.5 -84t-45.5 -46t-74 -16q-48 0 -92 18l14 44q44 -14 77 -14q30 0 48 10t33 34.5t33 72.5l11 30l-192 468q-44 5 -67 16v11h232v-12q-24 -9 -79 -17l141 -372l138 374q-40 3 -73 15v12h195z" />
    <glyph glyph-name="uni1E8F" unicode="&#x1e8f;" horiz-adv-x="564" 
d="M254 595.5q-12 12.5 -12 32.5q0 21 12 34t33 13q20 0 32 -13t12 -34q0 -20 -12.5 -32.5t-31.5 -12.5q-21 0 -33 12.5zM559 498v-11q-25 -9 -69 -17l-193 -516q-20 -54 -37.5 -84t-45.5 -46t-74 -16q-48 0 -92 18l14 44q44 -14 77 -14q30 0 48 10t33 34.5t33 72.5l11 30
l-192 468q-44 5 -67 16v11h232v-12q-24 -9 -79 -17l141 -372l138 374q-40 3 -73 15v12h195z" />
    <glyph glyph-name="uni1EF5" unicode="&#x1ef5;" horiz-adv-x="564" 
d="M559 498v-11q-25 -9 -69 -17l-193 -516q-20 -54 -37.5 -84t-45.5 -46t-74 -16q-48 0 -92 18l14 44q44 -14 77 -14q30 0 48 10t33 34.5t33 72.5l11 30l-192 468q-44 5 -67 16v11h232v-12q-24 -9 -79 -17l141 -372l138 374q-40 3 -73 15v12h195zM432.5 -72
q12.5 -13 12.5 -34q0 -20 -12.5 -32.5t-32.5 -12.5t-32.5 12.5t-12.5 32.5q0 21 12.5 34t32.5 13t32.5 -13z" />
    <glyph glyph-name="ygrave" unicode="&#x1ef3;" horiz-adv-x="564" 
d="M180 709q0 11 8.5 19t23.5 8q22 0 44 -22l116 -107l-16 -23l-142 82q-34 20 -34 43zM559 498v-11q-25 -9 -69 -17l-193 -516q-20 -54 -37.5 -84t-45.5 -46t-74 -16q-48 0 -92 18l14 44q44 -14 77 -14q30 0 48 10t33 34.5t33 72.5l11 30l-192 468q-44 5 -67 16v11h232v-12
q-24 -9 -79 -17l141 -372l138 374q-40 3 -73 15v12h195z" />
    <glyph glyph-name="uni1EF7" unicode="&#x1ef7;" horiz-adv-x="564" 
d="M236 753l-7 30q34 17 77 17q41 0 69.5 -20t28.5 -59q0 -34 -22 -53t-62 -23l-10 -64h-39l-5 90h24q30 0 46.5 14t16.5 38q0 20 -15.5 33t-43.5 13q-29 0 -58 -16zM559 498v-11q-25 -9 -69 -17l-193 -516q-20 -54 -37.5 -84t-45.5 -46t-74 -16q-48 0 -92 18l14 44
q44 -14 77 -14q30 0 48 10t33 34.5t33 72.5l11 30l-192 468q-44 5 -67 16v11h232v-12q-24 -9 -79 -17l141 -372l138 374q-40 3 -73 15v12h195z" />
    <glyph glyph-name="uni1EF9" unicode="&#x1ef9;" horiz-adv-x="564" 
d="M175 625.5q-17 -15.5 -23 -41.5h-33q7 51 32.5 75.5t65.5 24.5q21 0 40.5 -8t45.5 -23q19 -12 33 -18t27 -6q23 0 40.5 14.5t24.5 45.5h32q-7 -49 -31.5 -76.5t-67.5 -27.5q-17 0 -33.5 7t-47.5 23q-22 13 -37 19.5t-28 6.5q-23 0 -40 -15.5zM559 498v-11q-25 -9 -69 -17
l-193 -516q-20 -54 -37.5 -84t-45.5 -46t-74 -16q-48 0 -92 18l14 44q44 -14 77 -14q30 0 48 10t33 34.5t33 72.5l11 30l-192 468q-44 5 -67 16v11h232v-12q-24 -9 -79 -17l141 -372l138 374q-40 3 -73 15v12h195z" />
    <glyph glyph-name="z" unicode="z" horiz-adv-x="470" 
d="M22 21l333 441h-252q-9 -64 -20 -90h-26v126h391v-28l-330 -436h263q3 18 12.5 47t16.5 43h27l-10 -124h-405v21z" />
    <glyph glyph-name="zacute" unicode="&#x17a;" horiz-adv-x="470" 
d="M180 607l114 106q23 23 45 23q15 0 23 -8t8 -19q0 -23 -32 -43l-142 -82zM22 21l333 441h-252q-9 -64 -20 -90h-26v126h391v-28l-330 -436h263q3 18 12.5 47t16.5 43h27l-10 -124h-405v21z" />
    <glyph glyph-name="zcaron" unicode="&#x17e;" horiz-adv-x="470" 
d="M160 649q-39 36 -71 58l37 32q30 -22 62 -52.5t51 -56.5h5q19 26 50.5 56.5t61.5 52.5l38 -32q-32 -21 -71 -57t-60 -66h-43q-21 29 -60 65zM22 21l333 441h-252q-9 -64 -20 -90h-26v126h391v-28l-330 -436h263q3 18 12.5 47t16.5 43h27l-10 -124h-405v21z" />
    <glyph glyph-name="zdotaccent" unicode="&#x17c;" horiz-adv-x="470" 
d="M212 595.5q-12 12.5 -12 32.5q0 21 12 34t33 13q20 0 32 -13t12 -34q0 -20 -12.5 -32.5t-31.5 -12.5q-21 0 -33 12.5zM22 21l333 441h-252q-9 -64 -20 -90h-26v126h391v-28l-330 -436h263q3 18 12.5 47t16.5 43h27l-10 -124h-405v21z" />
    <glyph glyph-name="uni1E93" unicode="&#x1e93;" horiz-adv-x="470" 
d="M22 21l333 441h-252q-9 -64 -20 -90h-26v126h391v-28l-330 -436h263q3 18 12.5 47t16.5 43h27l-10 -124h-405v21zM203.5 -138.5q-12.5 12.5 -12.5 32.5q0 21 12.5 34t32.5 13t32.5 -13t12.5 -34q0 -20 -12.5 -32.5t-32.5 -12.5t-32.5 12.5z" />
    <glyph glyph-name="ordfeminine" unicode="&#xaa;" horiz-adv-x="364" 
d="M50.5 412q-26.5 26 -26.5 66q0 44 30 70t85 26h102v39q0 37 -22 53t-63 16q-51 0 -100 -23l-5 25q52 26 121 26q64 0 97.5 -25t33.5 -73v-190l49 -11v-7l-111 -13v49q-21 -27 -50 -40.5t-61 -13.5q-53 0 -79.5 26zM198.5 429.5q23.5 14.5 42.5 42.5v75h-88
q-36 0 -52 -18.5t-16 -48.5q0 -29 16 -47t50 -18q24 0 47.5 14.5z" />
    <glyph glyph-name="ordmasculine" unicode="&#xba;" horiz-adv-x="362" 
d="M60 429.5q-43 43.5 -43 118.5t43 118.5t121 43.5t121 -43.5t43 -118.5t-43 -118.5t-121 -43.5t-121 43.5zM251.5 455q25.5 34 25.5 93t-25.5 93t-70.5 34q-44 0 -70 -34t-26 -93t26 -93t70 -34q45 0 70.5 34z" />
    <glyph glyph-name="uni207F" unicode="&#x207f;" horiz-adv-x="406" 
d="M397 402v-8h-165v8q5 1 18 5.5t32 6.5v202q0 35 -17 51t-44 16q-23 0 -49.5 -12t-47.5 -34v-222q26 -5 53 -13v-8h-169v8q3 1 17.5 5.5t35.5 6.5v265q-30 5 -48 13v6l111 12v-42q23 19 53.5 30.5t63.5 11.5q46 0 75 -24t29 -65v-206q34 -6 52 -13z" />
    <glyph glyph-name="uni0394" unicode="&#x394;" horiz-adv-x="632" 
d="M29 38l255 669h67l251 -669v-38h-573v38zM510 69l-207 545l-207 -545h414z" />
    <glyph glyph-name="uni03A9" unicode="&#x3a9;" horiz-adv-x="747" 
d="M55 134h16q8 -13 18 -39.5t14 -46.5h152v86q-55 5 -100 42t-71.5 96t-26.5 126q0 81 36 144t107 99t173 36t173 -36t107 -99t36 -144q0 -67 -26.5 -126t-72 -96t-99.5 -42v-86h152q4 19 14 46t18 40h17l-12 -134h-240v164q48 7 84 40t55 83t19 106q0 69 -28 122.5t-79 83
t-118 29.5t-117.5 -29.5t-78.5 -83t-28 -122.5q0 -56 19 -106t54.5 -83t83.5 -40v-164h-240z" />
    <glyph glyph-name="uni03BC" unicode="&#x3bc;" horiz-adv-x="633" 
d="M92 464q-44 8 -70 18v7l160 17v-360q0 -61 30 -91t78 -30q36 0 81 19t79 49v371q-42 8 -69 18v7l159 17v-475q29 -4 70 -16v-8l-160 -16v65q-83 -66 -176 -66q-29 0 -54.5 10t-39.5 30v-216h-88v650z" />
    <glyph glyph-name="pi" unicode="&#x3c0;" horiz-adv-x="672" 
d="M463 18q-26 28 -26 76v368h-214v-462h-89v462h-119v36h633v-36h-121v-363q0 -66 57 -66q29 0 49 15v-36q-21 -12 -41.5 -17t-49.5 -5q-53 0 -79 28z" />
    <glyph glyph-name="uni0E01" unicode="&#xe01;" horiz-adv-x="573" 
d="M62 215q0 98 89 145q-41 33 -108 55v12q30 60 93 98.5t147 38.5q98 0 162.5 -47t64.5 -136v-381h-90v397q0 55 -37 91.5t-108 36.5q-51 0 -92.5 -23t-67.5 -67q30 -10 63 -30t54 -42v-8q-45 -26 -62 -56.5t-17 -84.5v-214h-91v215z" />
    <glyph glyph-name="uni0E16" unicode="&#xe16;" horiz-adv-x="573" 
d="M87 18.5q-25 28.5 -25 78.5v118q0 98 89 145q-41 33 -108 55v12q30 60 93 98.5t147 38.5q98 0 162.5 -47t64.5 -136v-381h-90v397q0 54 -37.5 91t-107.5 37q-51 0 -92.5 -23t-67.5 -67q30 -10 63 -30t54 -42v-8q-45 -26 -62 -56.5t-17 -84.5v-58q16 7 31 7q31 0 54.5 -22
t23.5 -64q0 -41 -26 -64t-70 -23q-54 0 -79 28.5zM205 35.5q14 15.5 14 42.5t-14 42t-35 15t-34.5 -15t-13.5 -42t13.5 -42.5t34.5 -15.5t35 15.5z" />
    <glyph glyph-name="uni0E20" unicode="&#xe20;" horiz-adv-x="611" 
d="M35.5 13q-25.5 23 -25.5 64q0 43 25.5 64.5t63.5 21.5q17 0 26 -4v56q0 50 14.5 85.5t60.5 59.5q-36 28 -114 55v12q29 61 91 99t147 38q98 0 161.5 -47t63.5 -136v-381h-91v397q0 55 -36 91.5t-106 36.5q-105 0 -158 -90q32 -10 67.5 -30.5t55.5 -41.5v-8
q-40 -25 -53 -54.5t-13 -86.5v-117q0 -107 -109 -107q-45 0 -70.5 23zM137.5 35.5q13.5 15.5 13.5 42.5t-13.5 42t-34.5 15t-35 -15t-14 -42t14 -42.5t35 -15.5t34.5 15.5z" />
    <glyph glyph-name="uni0E24" unicode="&#xe24;" horiz-adv-x="573" 
d="M420 397q0 54 -37.5 91t-107.5 37q-51 0 -92.5 -23t-67.5 -67q30 -10 63 -30t54 -42v-8q-45 -26 -62 -56.5t-17 -84.5v-60q13 8 33 8q32 0 55 -22t23 -63t-26 -64t-70 -23q-55 0 -80.5 28.5t-25.5 78.5v118q0 98 89 145q-41 33 -108 55v12q30 60 93 98.5t147 38.5
q98 0 162.5 -47t64.5 -136v-556h-90v572zM206 35.5q14 15.5 14 42.5t-14 42t-35 15t-34.5 -15t-13.5 -42t13.5 -42.5t34.5 -15.5t35 15.5z" />
    <glyph glyph-name="uni0E24.short" horiz-adv-x="573" 
d="M420 397q0 54 -37.5 91t-107.5 37q-51 0 -92.5 -23t-67.5 -67q30 -10 63 -30t54 -42v-8q-45 -26 -62 -56.5t-17 -84.5v-60q13 8 33 8q32 0 55 -22t23 -63t-26 -64t-70 -23q-55 0 -80.5 28.5t-25.5 78.5v118q0 98 89 145q-41 33 -108 55v12q30 60 93 98.5t147 38.5
q98 0 162.5 -47t64.5 -136v-556h-90v572zM206 35.5q14 15.5 14 42.5t-14 42t-35 15t-34.5 -15t-13.5 -42t13.5 -42.5t34.5 -15.5t35 15.5z" />
    <glyph glyph-name="uni0E26" unicode="&#xe26;" horiz-adv-x="611" 
d="M458 397q0 55 -36 91.5t-106 36.5q-51 0 -91.5 -22.5t-66.5 -67.5q32 -10 67.5 -30.5t55.5 -41.5v-8q-40 -25 -53 -54.5t-13 -86.5v-117q0 -107 -109 -107q-45 0 -70.5 23t-25.5 64q0 43 25.5 64.5t63.5 21.5q16 0 26 -5v57q0 50 14.5 85.5t60.5 59.5q-36 28 -114 55v12
q29 61 91 99t147 38q98 0 161.5 -47t63.5 -136v-556h-91v572zM137.5 35.5q13.5 15.5 13.5 42.5t-13.5 42t-34.5 15t-35 -15t-14 -42t14 -42.5t35 -15.5t34.5 15.5z" />
    <glyph glyph-name="uni0E26.short" horiz-adv-x="611" 
d="M458 397q0 55 -36 91.5t-106 36.5q-51 0 -91.5 -22.5t-66.5 -67.5q32 -10 67.5 -30.5t55.5 -41.5v-8q-40 -25 -53 -54.5t-13 -86.5v-117q0 -107 -109 -107q-45 0 -70.5 23t-25.5 64q0 43 25.5 64.5t63.5 21.5q16 0 26 -5v57q0 50 14.5 85.5t60.5 59.5q-36 28 -114 55v12
q29 61 91 99t147 38q98 0 161.5 -47t63.5 -136v-556h-91v572zM137.5 35.5q13.5 15.5 13.5 42.5t-13.5 42t-34.5 15t-35 -15t-14 -42t14 -42.5t35 -15.5t34.5 15.5z" />
    <glyph glyph-name="uni0E0E" unicode="&#xe0e;" horiz-adv-x="611" 
d="M485.5 517q63.5 -47 63.5 -136v-625h-84q-21 59 -90 100q-22 -56 -68.5 -87.5t-103.5 -31.5q-61 0 -97.5 24t-36.5 68q0 46 40 74t111 28q60 0 124 -24q4 17 4 44h45q0 -30 -7 -63q47 -25 72 -56v565q0 55 -36 91.5t-106 36.5q-51 0 -91.5 -22.5t-66.5 -67.5
q32 -10 67.5 -30.5t55.5 -41.5v-8q-40 -25 -53 -54.5t-13 -86.5v-117q0 -107 -109 -107q-45 0 -70.5 23t-25.5 64q0 43 25.5 64.5t63.5 21.5q15 0 26 -4v56q0 50 14.5 85.5t60.5 59.5q-36 28 -114 55v12q29 61 91 99t147 38q98 0 161.5 -47zM137.5 35.5q13.5 15.5 13.5 42.5
t-13.5 42t-34.5 15t-35 -15t-14 -42t14 -42.5t35 -15.5t34.5 15.5zM280.5 -203q37.5 28 55.5 78q-58 23 -113 23q-44 0 -74.5 -17t-30.5 -49q0 -33 24 -48t58 -15q43 0 80.5 28z" />
    <glyph glyph-name="doChadathai.short" horiz-adv-x="614" 
d="M487 517q64 -47 64 -136v-554h-84q-22 62 -88 100q-22 -53 -65 -83t-97 -30q-59 0 -94 22.5t-35 64.5q0 44 38.5 70t106.5 26q57 0 115 -21q3 19 3 40h44q0 -30 -6 -57q46 -25 72 -55v493q0 55 -37 91.5t-107 36.5q-52 0 -92.5 -22.5t-66.5 -67.5q32 -10 67.5 -30.5
t55.5 -41.5v-8q-40 -25 -53 -54.5t-13 -86.5v-90q0 -108 -109 -108q-45 0 -70.5 23t-25.5 65t25.5 64t63.5 22q16 0 26 -5v30q0 50 14 85t61 60q-36 28 -114 55v12q29 60 91.5 98.5t147.5 38.5q98 0 162 -47zM137 62q14 16 14 43t-13.5 41.5t-34.5 14.5t-35 -14.5t-14 -41.5
t14 -43t35 -16q20 0 34 16zM289 -129.5q35 27.5 51 75.5q-52 21 -104 21q-43 0 -71.5 -16t-28.5 -47t21.5 -46t55.5 -15q41 0 76 27.5z" />
    <glyph glyph-name="uni0E0F" unicode="&#xe0f;" horiz-adv-x="611" 
d="M485.5 517q63.5 -47 63.5 -136v-625h-83l-65 66l-58 -66h-20q-18 36 -32 55q-22 -31 -54.5 -49t-73.5 -18q-48 0 -78 19t-30 61q0 37 31 59t89 22q52 0 96 -32q5 20 7 49h45q0 -45 -16 -81q19 -21 30 -44l64 69l57 -57v588q0 55 -36 91.5t-106 36.5q-105 0 -158 -90
q32 -10 67.5 -30.5t55.5 -41.5v-8q-40 -25 -53 -54.5t-13 -86.5v-117q0 -107 -109 -107q-45 0 -70.5 23t-25.5 64q0 43 25.5 64.5t63.5 21.5q15 0 26 -4v56q0 50 14.5 85.5t60.5 59.5q-36 28 -114 55v12q29 61 91 99t147 38q98 0 161.5 -47zM137.5 35.5q13.5 15.5 13.5 42.5
t-13.5 42t-34.5 15t-35 -15t-14 -42t14 -42.5t35 -15.5t34.5 15.5zM221 -208.5q25 17.5 40 50.5q-39 32 -89 32q-31 0 -51.5 -13.5t-20.5 -37.5t19 -36.5t46 -12.5q31 0 56 17.5z" />
    <glyph glyph-name="toPatakthai.short" horiz-adv-x="614" 
d="M487 517q64 -47 64 -136v-554h-83l-64 66l-58 -66h-20q-13 28 -33 55q-21 -31 -53.5 -49t-73.5 -18q-48 0 -78 19t-30 61q0 37 31 59t89 22q50 0 96 -32q5 20 7 49h45q0 -41 -16 -81q19 -21 30 -44l64 69l57 -57v517q0 55 -37 91.5t-107 36.5q-51 0 -92 -23t-67 -67
q32 -10 67.5 -30.5t55.5 -41.5v-8q-37 -24 -51.5 -50.5t-14.5 -71.5v-109q0 -108 -109 -108q-45 0 -70.5 23t-25.5 65t25.5 64t63.5 22q16 0 26 -5v30q0 50 14.5 85.5t60.5 59.5q-36 28 -114 55v12q29 60 91.5 98.5t147.5 38.5q98 0 162 -47zM137 62q14 16 14 43t-13.5 41.5
t-34.5 14.5t-35 -14.5t-14 -41.5t14 -43t35 -16q20 0 34 16zM223 -137.5q25 17.5 40 50.5q-39 32 -88 32q-31 0 -51.5 -13.5t-20.5 -37.5t18.5 -36.5t45.5 -12.5q31 0 56 17.5z" />
    <glyph glyph-name="uni0E0D" unicode="&#xe0d;" horiz-adv-x="828" 
d="M43 427q31 64 89.5 100.5t143.5 36.5q100 0 160.5 -46.5t60.5 -136.5v-343h117q37 0 49 18t12 50v447h91v-446q0 -59 -28.5 -83t-99.5 -24h-279v38h47v359q0 56 -33 92t-105 36q-102 0 -153 -90q30 -10 63 -30t54 -42v-8q-45 -27 -62 -54.5t-17 -77.5v-68q13 8 32 8
q31 0 54 -22t23 -64q0 -41 -26 -64t-70 -23q-54 0 -79 28.5t-25 78.5v127q0 90 89 136q-41 33 -108 55v12zM135.5 35.5q13.5 -15.5 34.5 -15.5t35 15.5t14 42.5t-14 42t-35 15t-34.5 -15t-13.5 -42t13.5 -42.5zM401.5 -71.5q24.5 24.5 61.5 24.5q43 0 67 -24t24 -61
q0 -26 -14.5 -48t-43.5 -31q14 -7 44 -7q62 0 102 45t52 120h67q-36 -204 -217 -204q-87 0 -127 34t-40 89q0 38 24.5 62.5zM429.5 -175q13.5 -15 35.5 -15q23 0 36.5 14.5t13.5 41.5t-13.5 41.5t-36.5 14.5q-22 0 -35.5 -14.5t-13.5 -41.5q0 -26 13.5 -41z" />
    <glyph glyph-name="yoYingthai.less" horiz-adv-x="828" 
d="M87 18.5q-25 28.5 -25 78.5v127q0 90 89 136q-41 33 -108 55v12q31 64 89.5 100.5t143.5 36.5q100 0 160.5 -46.5t60.5 -136.5v-343h117q37 0 49 18t12 50v447h91v-446q0 -59 -28.5 -83t-99.5 -24h-279v38h47v359q0 56 -33 92t-105 36q-102 0 -153 -90q30 -10 63 -30
t54 -42v-8q-45 -27 -62 -54.5t-17 -77.5v-68q13 8 32 8q31 0 54 -22t23 -64q0 -41 -26 -64t-70 -23q-54 0 -79 28.5zM205 35.5q14 15.5 14 42.5t-14 42t-35 15t-34.5 -15t-13.5 -42t13.5 -42.5t34.5 -15.5t35 15.5z" />
    <glyph glyph-name="uni0E02" unicode="&#xe02;" horiz-adv-x="573" 
d="M200.5 20.5q-55.5 30.5 -55.5 95.5v66q0 39 17.5 68.5t53.5 71.5q30 34 45 58t15 51q0 45 -26 70.5t-76 25.5q-37 0 -64 -22t-36 -54q6 6 17.5 10t24.5 4q39 0 59 -24t20 -61q0 -36 -23.5 -61t-62.5 -25q-46 0 -70 33t-24 84q0 40 20 75t57 56.5t88 21.5q75 0 116.5 -36
t41.5 -98q0 -36 -14 -65t-42 -68q-24 -36 -35.5 -58t-11.5 -49v-87q0 -38 28 -56t67 -18q38 0 64 17.5t26 56.5v450h91v-437q0 -65 -55.5 -95.5t-127.5 -30.5t-127.5 30.5zM141.5 338.5q13.5 15.5 13.5 41.5q0 27 -13.5 41.5t-33.5 14.5t-33 -14.5t-13 -41.5
q0 -26 13.5 -41.5t32.5 -15.5q20 0 33.5 15.5z" />
    <glyph glyph-name="uni0E03" unicode="&#xe03;" horiz-adv-x="581" 
d="M207.5 20.5q-55.5 30.5 -55.5 95.5v66q0 39 19 70t54 69q31 35 46.5 59.5t15.5 53.5q0 65 -37 85l-60 -54l-58 54q-19 -10 -34 -32.5t-19 -43.5q14 17 45 17q38 0 58 -24t20 -61q0 -36 -23.5 -61t-62.5 -25q-46 0 -70 33t-24 84q0 48 28.5 94t78.5 64l61 -59l68 59
q46 -15 68.5 -49.5t22.5 -81.5q0 -36 -14.5 -65.5t-43.5 -69.5q-25 -35 -37 -58t-12 -50v-87q0 -38 28 -56t67 -18q38 0 64.5 17.5t26.5 56.5v450h90v-437q0 -65 -55.5 -95.5t-127.5 -30.5t-127.5 30.5zM149 333.5q14 15.5 14 41.5t-14 41t-33 15q-20 0 -33.5 -14.5
t-13.5 -41.5q0 -26 13.5 -41.5t33.5 -15.5q19 0 33 15.5z" />
    <glyph glyph-name="uni0E0A" unicode="&#xe0a;" horiz-adv-x="584" 
d="M203 20.5q-58 30.5 -58 95.5v66q0 39 17.5 68.5t53.5 71.5q30 34 45 58t15 51q0 45 -26 70.5t-76 25.5q-37 0 -64 -22t-36 -54q6 6 17.5 10t24.5 4q39 0 59 -24t20 -61q0 -36 -23.5 -61t-62.5 -25q-46 0 -70 33t-24 84q0 40 20 75t57 56.5t88 21.5q75 0 116.5 -36
t41.5 -98q0 -36 -14 -65t-42 -68q-24 -36 -35.5 -58t-11.5 -49v-87q0 -38 30.5 -56t70.5 -18q39 0 67.5 18t28.5 56v218q0 27 -19.5 45t-41.5 22v39q23 6 45.5 26t37 50.5t14.5 67.5h83q0 -67 -31.5 -105.5t-68.5 -56.5q30 -11 50.5 -36.5t20.5 -56.5v-200
q0 -65 -57.5 -95.5t-130.5 -30.5t-131 30.5zM141.5 338.5q13.5 15.5 13.5 41.5q0 27 -13.5 41.5t-33.5 14.5t-33 -14.5t-13 -41.5q0 -26 13.5 -41.5t32.5 -15.5q20 0 33.5 15.5z" />
    <glyph glyph-name="uni0E0B" unicode="&#xe0b;" horiz-adv-x="592" 
d="M210 20.5q-58 30.5 -58 95.5v66q0 39 19 70t54 69q31 35 46.5 59.5t15.5 53.5q0 65 -37 85l-60 -54l-58 54q-19 -10 -34 -32.5t-19 -43.5q14 17 45 17q38 0 58 -24t20 -61q0 -36 -23.5 -61t-62.5 -25q-46 0 -70 33t-24 84q0 48 28.5 94t78.5 64l61 -59l68 59
q46 -15 68.5 -49.5t22.5 -81.5q0 -36 -14.5 -65.5t-43.5 -69.5q-25 -35 -37 -58t-12 -50v-87q0 -38 30.5 -56t70.5 -18q39 0 67.5 18t28.5 56v218q0 27 -19.5 45t-40.5 22v39q22 6 44.5 26t37 50.5t14.5 67.5h83q0 -67 -31.5 -105.5t-67.5 -56.5q29 -11 49.5 -36.5
t20.5 -56.5v-200q0 -65 -57.5 -95.5t-130.5 -30.5t-131 30.5zM149 333.5q14 15.5 14 41.5t-14 41t-33 15q-20 0 -33.5 -14.5t-13.5 -41.5q0 -26 13.5 -41.5t33.5 -15.5q19 0 33 15.5z" />
    <glyph glyph-name="uni0E04" unicode="&#xe04;" horiz-adv-x="610" 
d="M62 351q0 100 58.5 156.5t184.5 56.5q125 0 184 -56.5t59 -156.5v-351h-91v373q0 69 -38 110.5t-114 41.5t-114.5 -41.5t-38.5 -110.5v-242q20 66 63 167q19 42 41.5 62.5t55.5 20.5q39 0 59.5 -24.5t20.5 -62.5q0 -36 -21 -61t-58 -25q-23 0 -42 13t-26 42
q-19 -33 -49.5 -121.5t-44.5 -141.5h-89v351zM347.5 253.5q13.5 14.5 13.5 41.5q0 26 -13.5 40t-33.5 14t-33 -14t-13 -40q0 -27 13 -41.5t33 -14.5t33.5 14.5z" />
    <glyph glyph-name="uni0E05" unicode="&#xe05;" horiz-adv-x="611" 
d="M62 351q0 94 30 143t111 70l103 -79l102 79q81 -21 111 -70t30 -143v-351h-91v363q0 63 -13 95t-53 51l-86 -65l-88 65q-40 -19 -53 -51t-13 -95v-232q8 30 42 105l21 47q19 42 41.5 62.5t55.5 20.5q39 0 59.5 -24.5t20.5 -62.5q0 -36 -21 -61t-58 -25q-23 0 -42 13
t-26 42q-20 -35 -51 -118t-43 -130h-89v351zM347.5 238.5q13.5 14.5 13.5 41.5q0 26 -13.5 40t-33.5 14t-33 -14t-13 -40q0 -27 13 -41.5t33 -14.5t33.5 14.5z" />
    <glyph glyph-name="uni0E28" unicode="&#xe28;" horiz-adv-x="610" 
d="M501 495q47 -53 47 -144v-351h-91v373q0 69 -38 110.5t-114 41.5t-114 -41.5t-38 -110.5v-242q28 88 62 167q19 42 41.5 62.5t55.5 20.5q39 0 59.5 -24.5t20.5 -62.5q0 -36 -21 -61t-58 -25q-23 0 -42 13t-26 42q-19 -33 -49.5 -121.5t-44.5 -141.5h-89v351
q0 100 58.5 156.5t184.5 56.5q98 0 157 -36q37 26 46 68h72q-13 -66 -79 -101zM281 335q-13 -14 -13 -40q0 -27 13 -41.5t33 -14.5t33.5 14.5t13.5 41.5q0 26 -13.5 40t-33.5 14t-33 -14z" />
    <glyph glyph-name="uni0E14" unicode="&#xe14;" horiz-adv-x="606" 
d="M62 351q0 100 58 156.5t183 56.5t183 -56.5t58 -156.5v-351h-91v348q0 85 -34 131t-116 46t-116 -45t-34 -129v-296q34 16 91 69.5t72 86.5q-6 -2 -14 -2q-35 0 -56 25t-21 61q0 38 21.5 62t58.5 24q40 0 61 -26t21 -67q0 -70 -69.5 -147t-172.5 -141h-83v351z
M338.5 253.5q13.5 14.5 13.5 41.5q0 26 -13.5 40t-33.5 14t-33.5 -14t-13.5 -40q0 -27 13.5 -41.5t33.5 -14.5t33.5 14.5z" />
    <glyph glyph-name="uni0E15" unicode="&#xe15;" horiz-adv-x="610" 
d="M62 387q0 69 31.5 114.5t111.5 62.5l99 -70l99 70q80 -17 111.5 -62.5t31.5 -114.5v-387h-90v363q0 64 -11 94.5t-49 48.5l-91 -64l-92 64q-38 -18 -49 -48t-11 -95v-308q36 17 92.5 63t71.5 78q-5 -2 -14 -2q-34 0 -55.5 25t-21.5 61q0 38 21.5 62t58.5 24
q40 0 61.5 -26t21.5 -67q0 -123 -244 -273h-83v387zM339.5 239q13.5 15 13.5 41t-13.5 40t-32.5 14q-20 0 -33.5 -14t-13.5 -40q0 -27 13.5 -41.5t33.5 -14.5q19 0 32.5 15z" />
    <glyph glyph-name="uni0E17" unicode="&#xe17;" horiz-adv-x="610" 
d="M124 394q-8 -6 -29 -6q-36 0 -60.5 23t-24.5 65q0 41 25.5 64.5t69.5 23.5q109 0 109 -108v-335l174 432h68q92 0 92 -104v-449h-90v466q0 22 -5.5 32.5t-21.5 10.5h-16l-205 -509h-86v394zM136.5 433q13.5 15 13.5 42t-13.5 42.5t-34.5 15.5t-35 -15.5t-14 -42.5t14 -42
t35 -15t34.5 15z" />
    <glyph glyph-name="uni0E11" unicode="&#xe11;" horiz-adv-x="647" 
d="M152 182q0 39 18.5 70t52.5 69q31 36 46 60t15 53q0 64 -36 85l-60 -54l-56 54q-19 -10 -34 -32.5t-19 -43.5q14 17 45 17q38 0 58 -24t20 -61q0 -36 -23.5 -61t-62.5 -25q-46 0 -70 33t-24 84q0 48 28.5 94t78.5 64l59 -59l68 59q46 -15 68 -49.5t22 -81.5
q0 -36 -14 -65.5t-42 -69.5q-24 -35 -35.5 -58t-11.5 -50v-97l192 460h65q45 0 66 -24.5t21 -71.5v-457h-90v469q0 20 -5 30t-21 10h-16l-213 -509h-90v182zM149 333.5q14 15.5 14 41.5t-14 41t-33 15q-20 0 -33.5 -14.5t-13.5 -41.5q0 -26 13.5 -41.5t33.5 -15.5
q19 0 33 15.5z" />
    <glyph glyph-name="uni0E19" unicode="&#xe19;" horiz-adv-x="604" 
d="M393.5 15.5q-26.5 25.5 -26.5 68.5q0 14 5 27l-55 -24.5t-73 -42t-33 -44.5h-87v394q-8 -6 -29 -6q-36 0 -60.5 23t-24.5 65q0 41 25.5 64.5t69.5 23.5q109 0 109 -108v-383q16 18 39.5 30.5t69.5 32.5q63 26 95.5 49.5t32.5 64.5v303h91v-300q0 -43 -46 -80
q35 -8 53 -31.5t18 -57.5q0 -43 -26 -68.5t-73 -25.5q-48 0 -74.5 25.5zM136.5 433q13.5 15 13.5 42t-13.5 42.5t-34.5 15.5t-35 -15.5t-14 -42.5t14 -42t35 -15t34.5 15zM502.5 41q13.5 15 13.5 44q0 28 -13.5 43.5t-34.5 15.5q-23 0 -36.5 -17t-13.5 -42q0 -29 14 -44
t36 -15q21 0 34.5 15z" />
    <glyph glyph-name="uni0E21" unicode="&#xe21;" horiz-adv-x="598" 
d="M536 553v-553h-83q-26 44 -87 93.5t-130 71.5v-47q0 -58 -24 -93t-85 -35q-52 0 -75.5 30.5t-23.5 75.5q0 46 28.5 78t89.5 35v184q-9 -5 -29 -5q-36 0 -60.5 23t-24.5 65q0 41 25.5 64.5t69.5 23.5q109 0 109 -108v-257q67 -17 125 -54.5t84 -71.5v480h91zM158.5 433
q13.5 15 13.5 42t-13.5 42.5t-34.5 15.5t-35 -15.5t-14 -42.5t14 -42t35 -15t34.5 15zM136 41.5q10 15.5 10 43.5v92q-42 -4 -61.5 -26t-19.5 -57q0 -30 11 -49t31 -19q19 0 29 15.5z" />
    <glyph glyph-name="uni0E0C" unicode="&#xe0c;" horiz-adv-x="832" 
d="M769 553v-553h-82q-29 53 -73 98t-102 64v-81q0 -43 -26 -67t-72 -24q-102 0 -102 106q0 44 29 75t81 35v191q0 56 -35.5 92t-111.5 36q-51 0 -92.5 -22.5t-67.5 -67.5q30 -10 63 -30t54 -42v-8q-45 -27 -62 -54.5t-17 -77.5v-68q13 8 32 8q31 0 54 -22t23 -64
q0 -41 -26 -64t-70 -23q-54 0 -79 28.5t-25 78.5v127q0 90 89 136q-41 33 -108 55v12q30 61 92.5 99t147.5 38q104 0 166.5 -46.5t62.5 -136.5v-185q57 -16 99 -49t68 -68v474h90zM413 40q9 14 9 35v98q-35 -4 -55 -23t-20 -53q0 -31 10 -51t31 -20q16 0 25 14zM135.5 120
q-13.5 -15 -13.5 -42t13.5 -42.5t34.5 -15.5t35 15.5t14 42.5t-14 42t-35 15t-34.5 -15z" />
    <glyph glyph-name="uni0E13" unicode="&#xe13;" horiz-adv-x="842" 
d="M787 143q18 -24 18 -59q0 -43 -26 -68.5t-74 -25.5q-47 0 -73 25.5t-26 68.5q0 12 1 17q-57 -27 -87 -48.5t-38 -52.5h-87v397q0 57 -31 92.5t-102 35.5q-48 0 -85.5 -23t-61.5 -67q30 -10 63 -30t54 -42v-8q-45 -27 -62 -54.5t-17 -77.5v-68q13 8 32 8q31 0 54 -22
t23 -64q0 -41 -26 -64t-70 -23q-54 0 -79 28.5t-25 78.5v127q0 90 89 136q-41 33 -108 55v12q30 63 86.5 100t140.5 37q99 0 157 -45.5t58 -136.5v-309q16 18 37.5 31t56.5 30q37 18 58.5 31.5t36.5 34.5t15 50v303h90v-268q0 -27 -4 -47q-7 -35 -39 -64q33 -7 51 -31z
M741 41q14 15 14 44q0 28 -14 43.5t-36 15.5q-8 0 -16 -3l-14 -7q-20 -17 -20 -49q0 -29 14 -44t36 -15t36 15zM135.5 120q-13.5 -15 -13.5 -42t13.5 -42.5t34.5 -15.5t35 15.5t14 42.5t-14 42t-35 15t-34.5 -15z" />
    <glyph glyph-name="uni0E12" unicode="&#xe12;" horiz-adv-x="861" 
d="M798 553v-553h-82q-29 53 -72.5 97.5t-101.5 64.5v-81q0 -43 -26.5 -67t-72.5 -24q-102 0 -102 106q0 44 29 75t81 35v157q0 63 -13.5 95t-53.5 51l-82 -65l-84 65q-40 -19 -53 -51t-13 -95v-307q35 16 85 61t66 79q-7 -2 -17 -2q-33 0 -54.5 25.5t-21.5 60.5q0 38 21 62
t58 24q40 0 61.5 -26t21.5 -67q0 -70 -62 -140t-165 -133h-83v351q0 63 12 103.5t41.5 67t84.5 42.5l102 -77l101 77q55 -16 85 -42.5t42 -67t12 -103.5v-156q57 -15 99 -48t67 -68v474h90zM323 238.5q13 14.5 13 41.5q0 26 -13 40t-33 14t-33.5 -14t-13.5 -40
q0 -27 13.5 -41.5t33.5 -14.5t33 14.5zM442 40q9 14 9 35v98q-35 -4 -55 -23t-20 -53q0 -31 10 -51t31 -20q16 0 25 14z" />
    <glyph glyph-name="uni0E06" unicode="&#xe06;" horiz-adv-x="595" 
d="M532 553v-553h-82q-22 40 -79.5 84.5t-124.5 66.5v-57q0 -49 -27 -76.5t-82 -27.5q-52 0 -76 31t-24 75q0 49 32 77.5t83 28.5h4q1 37 19 65t50 61q30 32 44.5 54.5t14.5 51.5q0 64 -36 85l-61 -54l-58 54q-18 -10 -32.5 -32.5t-18.5 -43.5q14 17 44 17q38 0 58 -24
t20 -61q0 -36 -23.5 -61t-62.5 -25q-46 0 -70 33t-24 84q0 48 28.5 94t78.5 64l60 -59l69 59q46 -15 68.5 -49.5t22.5 -81.5q0 -37 -14 -64.5t-41 -65.5q-23 -30 -34.5 -53t-11.5 -49v-13q59 -17 111 -49t85 -66v480h90zM80 416.5q-13 -14.5 -13 -41.5q0 -26 13.5 -41.5
t32.5 -15.5q20 0 33.5 15.5t13.5 41.5q0 27 -13.5 41.5t-33.5 14.5t-33 -14.5zM156 167h-1q-38 0 -59.5 -19t-21.5 -54q0 -30 11 -49t32 -19q19 0 29 15.5t10 43.5v82z" />
    <glyph glyph-name="uni0E18" unicode="&#xe18;" horiz-adv-x="548" 
d="M25 38h55v226h90v-226h148q77 0 77 82v133q0 35 -8 55t-30 30t-65 10q-46 0 -132 -2t-111 -6v37q0 84 50 135.5t152 51.5q27 0 87 -12q54 -10 73 -10q18 0 31.5 5t31.5 20l26 -39q-39 -33 -79 -33q-26 0 -68 11q-54 14 -98 14q-51 0 -84.5 -35t-35.5 -101q39 3 156 3
q70 0 111.5 -11t62.5 -40t21 -83v-136q0 -59 -28.5 -88t-88.5 -29h-344v38z" />
    <glyph glyph-name="uni0E23" unicode="&#xe23;" horiz-adv-x="501" 
d="M234.5 13q-25.5 23 -25.5 64q0 42 25.5 64t63.5 22q17 0 25 -5v112q0 49 -27 69t-95 20q-38 0 -91.5 -2.5t-76.5 -5.5v36q0 84 48 130.5t149 46.5q35 0 77 -11q7 -1 27 -5t38 -4q19 0 33 5t30 18l26 -41q-16 -15 -35.5 -22.5t-37.5 -7.5q-19 0 -34.5 3t-36.5 9
q-24 6 -40 9t-38 3q-55 0 -91 -30t-38 -96q33 4 101 4q75 0 118 -11.5t64 -42.5t21 -91v-156q0 -107 -109 -107q-45 0 -70.5 23zM336.5 35.5q13.5 15.5 13.5 42.5t-13.5 42t-34.5 15t-35 -15t-14 -42t14 -42.5t35 -15.5t34.5 15.5z" />
    </font>
</defs>
</svg>
