<?xml version="1.0" standalone="no"?>
<!DOCTYPE svg PUBLIC "-//W3C//DTD SVG 1.1//EN" "http://www.w3.org/Graphics/SVG/1.1/DTD/svg11.dtd" >
<svg>
<metadata>
Created by FontForge 20090622 at Wed Nov  1 21:10:00 2017
 By deploy user
Copyright (c) 2015, Cadson Demak (info@cadsondemak.com)
</metadata>
<defs>
<font id="Trirong-SemiBoldItalic" horiz-adv-x="0" >
  <font-face 
    font-family="Trirong SemiBold"
    font-weight="600"
    font-style="italic"
    font-stretch="normal"
    units-per-em="1000"
    panose-1="0 0 7 0 0 0 0 0 0 0"
    ascent="750"
    descent="-250"
    x-height="498"
    cap-height="700"
    bbox="-551 -499 1426 1154"
    underline-thickness="50"
    underline-position="-50"
    slope="-12"
    unicode-range="U+000D-U+FB02"
  />
<missing-glyph horiz-adv-x="576" 
d="M40 714h403v-714h-403v714zM413 31v652h-343v-652h343z" />
    <glyph glyph-name="fi" unicode="fi" horiz-adv-x="733" 
d="M615 498l76 9l-103 -507l-129 -10l95 464h-269l-90 -442q-19 -91 -77 -138t-147 -47q-72 0 -106 22t-34 61q0 11 3 25q2 16 16 30t32 14q17 0 25 -8t8 -21l-1 -8q-2 -6 -5 -13.5t-4 -12.5q-3 -40 51 -40q43 0 71 32t38 84l93 462h-89l8 44h90l8 38q19 91 74.5 138
t144.5 47q74 0 110 -23t36 -64q0 -14 -2 -21q-3 -16 -17 -30t-32 -14q-17 0 -24.5 8t-7.5 21l1 9q1 5 4.5 13t4.5 13q3 40 -53 40q-42 0 -70 -32t-38 -84l-12 -59h321zM698 667.5q15 -14.5 15 -38.5q0 -6 -2 -16q-7 -30 -29.5 -49t-53.5 -19q-25 0 -39.5 13.5t-14.5 36.5
q0 6 2 18q5 30 27.5 49.5t52.5 19.5q27 0 42 -14.5z" />
    <glyph glyph-name="fl" unicode="fl" horiz-adv-x="719" 
d="M713 712l-145 -712l-129 -10l126 613q1 4 1 10q0 32 -40 46t-89 14q-53 0 -87 -32t-44 -84l-12 -59h142l-9 -44h-142l-90 -442q-19 -91 -77 -138t-147 -47q-72 0 -106 22t-34 61q0 11 3 25q2 16 16 30t32 14q17 0 25 -8t8 -21l-1 -8q-2 -6 -5 -13.5t-4 -12.5
q-3 -40 51 -40q43 0 71 32t38 84l93 462h-89l8 44h90l8 38q21 99 85.5 143t159.5 44q41 0 80.5 -8.5t68.5 -22.5z" />
    <glyph glyph-name="ru_lakkhangyaothai" unicode="&#xe24;&#xe45;" horiz-adv-x="882" 
d="M824.5 533q40.5 -31 40.5 -92q0 -27 -5 -48l-118 -577h-126l119 580q5 30 5 49q0 36 -16 55t-52 19q-34 0 -66.5 -25.5t-51.5 -66.5q2 -24 -4 -49l-115 -562h-126l120 584q3 14 3 25q0 40 -26 64.5t-76 24.5q-45 0 -85 -20t-71 -58q29 -10 57.5 -30.5t45.5 -43.5l-2 -10
q-45 -25 -66.5 -55t-32.5 -82l-9 -46q4 1 12 1q12 0 21 -4q20 -5 33.5 -20.5t13.5 -39.5q0 -10 -3 -22q-9 -45 -41 -69.5t-81 -24.5q-50 0 -74 21t-24 58q0 19 4 35l22 112q8 42 37 79.5t79 61.5q-30 31 -94 54l2 12q44 62 117 101.5t161 39.5q66 0 115.5 -20.5t71.5 -61.5
q30 39 73 60.5t97 21.5q75 0 115.5 -31zM196 99q0 19 -10.5 29.5t-27.5 10.5q-20 0 -36 -14.5t-22 -41.5q-2 -12 -2 -16q0 -20 10.5 -30.5t26.5 -10.5q20 0 36.5 15t22.5 42q2 12 2 16z" />
    <glyph glyph-name="lu_lakkhangyaothai" unicode="&#xe26;&#xe45;" horiz-adv-x="917" 
d="M858.5 533q40.5 -31 40.5 -92q0 -27 -5 -48l-118 -577h-126l119 580q5 30 5 49q0 36 -16 55t-53 19q-34 0 -65.5 -24.5t-50.5 -65.5q2 -26 -4 -51l-115 -562h-126l120 584q3 14 3 26q0 39 -25.5 63.5t-75.5 24.5q-45 0 -84 -20t-69 -58q29 -10 59 -31t46 -43l-2 -10
q-39 -24 -55.5 -53t-27.5 -84l-22 -111q-26 -114 -146 -114q-43 0 -65 18t-22 53q0 15 2 23q8 35 32 56t56 27q16 6 31 5l8 44q11 49 31.5 83.5t69.5 57.5q-28 28 -98 54l2 12q44 62 116.5 101.5t159.5 39.5q66 0 114.5 -20.5t70.5 -60.5q31 39 74 60t96 21q75 0 115.5 -31z
M127 101q0 19 -10 28.5t-26 9.5q-20 0 -36.5 -14.5t-22.5 -41.5q-2 -12 -2 -16q0 -19 11 -30t27 -11q20 0 36 15t21 42q2 12 2 18z" />
    <glyph glyph-name=".notdef" horiz-adv-x="576" 
d="M40 714h403v-714h-403v714zM413 31v652h-343v-652h343z" />
    <glyph glyph-name=".null" horiz-adv-x="486" 
 />
    <glyph glyph-name="nonmarkingreturn" unicode="&#xd;" horiz-adv-x="252" 
 />
    <glyph glyph-name="space" unicode=" " horiz-adv-x="252" 
 />
    <glyph glyph-name="A" unicode="A" horiz-adv-x="729" 
d="M678 16l-2 -16h-281l3 17q40 14 81 20l-19 142h-271l-79 -143q39 -5 74 -22l-2 -14h-223l3 18q19 6 43 12t38 9l371 665h93l100 -667q39 -8 71 -21zM454 224l-47 352l-194 -352h241z" />
    <glyph glyph-name="Aacute" unicode="&#xc1;" horiz-adv-x="729" 
d="M415 786l-15 31l140 119q10 10 27 20.5t36 10.5q16 0 24 -8t8 -20q0 -6 -1 -9q-6 -29 -53 -55zM678 16l-2 -16h-281l3 17q40 14 81 20l-19 142h-271l-79 -143q39 -5 74 -22l-2 -14h-223l3 18q19 6 43 12t38 9l371 665h93l100 -667q39 -8 71 -21zM454 224l-47 352
l-194 -352h241z" />
    <glyph glyph-name="Abreve" unicode="&#x102;" horiz-adv-x="729" 
d="M369.5 812q-36.5 33 -32.5 98h72q-1 -6 -1 -17q0 -40 21 -53.5t55 -13.5q38 0 66 17t44 67h73q-23 -65 -73 -98t-119 -33t-105.5 33zM678 16l-2 -16h-281l3 17q40 14 81 20l-19 142h-271l-79 -143q39 -5 74 -22l-2 -14h-223l3 18q19 6 43 12t38 9l371 665h93l100 -667
q39 -8 71 -21zM454 224l-47 352l-194 -352h241z" />
    <glyph glyph-name="uni1EAE" unicode="&#x1eae;" horiz-adv-x="729" 
d="M481 914l-14 27l87 82q45 42 76 42q17 0 24.5 -10t4.5 -23q-3 -16 -20.5 -33.5t-47.5 -32.5zM369 812q-37 33 -33 98h73q-1 -6 -1 -17q0 -40 21 -53.5t55 -13.5q37 0 66 17t45 67h72q-24 -65 -73.5 -98t-118.5 -33t-106 33zM678 16l-2 -16h-281l3 17q40 14 81 20l-19 142
h-271l-79 -143q39 -5 74 -22l-2 -14h-223l3 18q19 6 43 12t38 9l371 665h93l100 -667q39 -8 71 -21zM454 224l-47 352l-194 -352h241z" />
    <glyph glyph-name="uni1EB6" unicode="&#x1eb6;" horiz-adv-x="729" 
d="M369.5 811q-36.5 33 -32.5 98h72q-1 -6 -1 -17q0 -40 21 -53.5t56 -13.5q37 0 65.5 17t43.5 67h73q-23 -65 -73 -98t-119 -33t-105.5 33zM678 16l-2 -16h-281l3 17q40 14 81 20l-19 142h-271l-79 -143q39 -5 74 -22l-2 -14h-223l3 18q19 6 43 12t38 9l371 665h93
l100 -667q39 -8 71 -21zM454 224l-47 352l-194 -352h241zM334 -67.5q11 -11.5 11 -30.5q0 -5 -2 -15q-4 -24 -21.5 -40t-42.5 -16q-21 0 -32.5 12t-11.5 31q0 9 1 13q5 25 23.5 41t42.5 16q21 0 32 -11.5z" />
    <glyph glyph-name="uni1EB0" unicode="&#x1eb0;" horiz-adv-x="729" 
d="M410.5 993.5q-10.5 15.5 -10.5 30.5t12 28t31 13q33 0 59 -42l55 -82l-26 -27l-88 52q-22 12 -32.5 27.5zM369.5 812q-36.5 33 -32.5 98h73q-1 -6 -1 -17q0 -40 21 -53.5t55 -13.5q37 0 66 17t44 67h72q-23 -65 -72.5 -98t-119.5 -33q-69 0 -105.5 33zM678 16l-2 -16
h-281l3 17q40 14 81 20l-19 142h-271l-79 -143q39 -5 74 -22l-2 -14h-223l3 18q19 6 43 12t38 9l371 665h93l100 -667q39 -8 71 -21zM454 224l-47 352l-194 -352h241z" />
    <glyph glyph-name="uni1EB2" unicode="&#x1eb2;" horiz-adv-x="729" 
d="M555.5 1008q16.5 11 20.5 33q3 17 -7.5 27.5t-35.5 10.5q-24 0 -54 -12l1 33q38 14 73 14t58 -14.5t23 -44.5q0 -10 -1 -15q-15 -64 -90 -71l-20 -51h-46l12 79h28q22 0 38.5 11zM369 813q-37 33 -33 98h73q-1 -6 -1 -17q0 -40 21 -53.5t55 -13.5q37 0 66 17t45 67h72
q-24 -65 -73.5 -98t-118.5 -33t-106 33zM678 16l-2 -16h-281l3 17q40 14 81 20l-19 142h-271l-79 -143q39 -5 74 -22l-2 -14h-223l3 18q19 6 43 12t38 9l371 665h93l100 -667q39 -8 71 -21zM454 224l-47 352l-194 -352h241z" />
    <glyph glyph-name="uni1EB4" unicode="&#x1eb4;" horiz-adv-x="729" 
d="M412.5 1014.5q-19.5 -14.5 -29.5 -39.5h-44q37 110 131 110q23 0 39 -7.5t36 -22.5q14 -11 24 -16.5t22 -5.5q52 0 77 56h43q-16 -53 -50 -83t-82 -30q-19 0 -35 7.5t-36 21.5q-16 12 -28.5 18t-25.5 6q-22 0 -41.5 -14.5zM369 813q-37 33 -33 98h73q-1 -6 -1 -17
q0 -40 21 -53.5t55 -13.5q37 0 66 17t45 67h72q-24 -65 -73.5 -98t-118.5 -33t-106 33zM607 37q39 -8 71 -21l-2 -16h-281l3 17q40 14 81 20l-19 142h-271l-79 -143q39 -5 74 -22l-2 -14h-223l3 18q19 6 43 12t38 9l371 665h93zM454 224l-47 352l-194 -352h241z" />
    <glyph glyph-name="uni01CD" unicode="&#x1cd;" horiz-adv-x="729" 
d="M398.5 856.5q-36.5 43.5 -63.5 65.5l58 41q26 -25 53.5 -60.5t38.5 -61.5h4q23 26 65 61.5t77 60.5l45 -41q-37 -22 -91.5 -65t-77.5 -71h-60q-12 27 -48.5 70.5zM678 16l-2 -16h-281l3 17q40 14 81 20l-19 142h-271l-79 -143q39 -5 74 -22l-2 -14h-223l3 18q19 6 43 12
t38 9l371 665h93l100 -667q39 -8 71 -21zM454 224l-47 352l-194 -352h241z" />
    <glyph glyph-name="Acircumflex" unicode="&#xc2;" horiz-adv-x="729" 
d="M435.5 843.5q-41.5 -35.5 -77.5 -61.5l-44 41q36 22 90.5 65.5t77.5 70.5h59q13 -27 49.5 -71t63.5 -65l-59 -41q-26 24 -53 60t-39 62h-4q-22 -25 -63.5 -60.5zM678 16l-2 -16h-281l3 17q40 14 81 20l-19 142h-271l-79 -143q39 -5 74 -22l-2 -14h-223l3 18q19 6 43 12
t38 9l371 665h93l100 -667q39 -8 71 -21zM454 224l-47 352l-194 -352h241z" />
    <glyph glyph-name="uni1EA4" unicode="&#x1ea4;" horiz-adv-x="729" 
d="M806.5 1056q7.5 -10 4.5 -23q-3 -16 -21 -34t-48 -32l-110 -52l-13 27l86 82q45 42 77 42q17 0 24.5 -10zM435 842q-42 -36 -76 -60l-45 41q36 22 91 65.5t78 70.5h59q13 -27 49.5 -70.5t62.5 -65.5l-58 -41q-26 24 -53 60t-39 62h-4q-23 -26 -65 -62zM607 37
q39 -8 71 -21l-2 -16h-281l3 17q40 14 81 20l-19 142h-271l-79 -143q39 -5 74 -22l-2 -14h-223l3 18q19 6 43 12t38 9l371 665h93zM454 224l-47 352l-194 -352h241z" />
    <glyph glyph-name="uni1EAC" unicode="&#x1eac;" horiz-adv-x="729" 
d="M436.5 842.5q-41.5 -35.5 -77.5 -61.5l-44 41q36 22 90.5 65.5t77.5 70.5h59q13 -27 49.5 -71t63.5 -65l-59 -41q-26 24 -53 60t-39 62h-4q-22 -25 -63.5 -60.5zM678 16l-2 -16h-281l3 17q40 14 81 20l-19 142h-271l-79 -143q39 -5 74 -22l-2 -14h-223l3 18q19 6 43 12
t38 9l371 665h93l100 -667q39 -8 71 -21zM454 224l-47 352l-194 -352h241zM339.5 -67.5q11.5 -11.5 11.5 -30.5q0 -29 -19 -50t-47 -21q-21 0 -32.5 12t-11.5 31q0 29 19.5 49.5t47.5 20.5q20 0 31.5 -11.5z" />
    <glyph glyph-name="uni1EA6" unicode="&#x1ea6;" horiz-adv-x="729" 
d="M254.5 999.5q-10.5 17.5 -8.5 33.5q3 14 15 23.5t28 9.5q32 0 60 -42l54 -82l-26 -27l-87 52q-25 15 -35.5 32.5zM314 823q36 22 91 65.5t78 70.5h59q13 -27 49.5 -70.5t62.5 -65.5l-58 -41q-26 24 -53 60t-39 62h-4q-23 -26 -65 -62t-76 -60zM678 16l-2 -16h-281l3 17
q40 14 81 20l-19 142h-271l-79 -143q39 -5 74 -22l-2 -14h-223l3 18q19 6 43 12t38 9l371 665h93l100 -667q39 -8 71 -21zM454 224l-47 352l-194 -352h241z" />
    <glyph glyph-name="uni1EA8" unicode="&#x1ea8;" horiz-adv-x="729" 
d="M747 1099.5q24 -14.5 24 -44.5q0 -10 -1 -15q-15 -64 -92 -71l-19 -51h-45l11 79h27q22 0 38.5 11t21.5 33q3 16 -8 27t-35 11q-27 0 -53 -12l1 33q34 14 71 14q35 0 59 -14.5zM435 842q-42 -36 -76 -60l-45 41q36 22 91 65.5t78 70.5h59q13 -27 49.5 -70.5t62.5 -65.5
l-58 -41q-26 24 -53 60t-39 62h-4q-23 -26 -65 -62zM607 37q39 -8 71 -21l-2 -16h-281l3 17q40 14 81 20l-19 142h-271l-79 -143q39 -5 74 -22l-2 -14h-223l3 18q19 6 43 12t38 9l371 665h93zM454 224l-47 352l-194 -352h241z" />
    <glyph glyph-name="uni1EAA" unicode="&#x1eaa;" horiz-adv-x="729" 
d="M724 1101q-17 -53 -49.5 -82.5t-80.5 -29.5q-19 0 -36 7.5t-39 21.5q-19 12 -31.5 18t-25.5 6q-22 0 -41.5 -14.5t-29.5 -39.5h-44q18 55 51.5 82.5t79.5 27.5q23 0 40.5 -8t38.5 -23q14 -11 25 -16.5t23 -5.5q21 0 42 13t34 43h43zM435 842q-42 -36 -76 -60l-45 41
q36 22 91 65.5t78 70.5h59q13 -27 49.5 -70.5t62.5 -65.5l-58 -41q-26 24 -53 60t-39 62h-4q-23 -26 -65 -62zM607 37q39 -8 71 -21l-2 -16h-281l3 17q40 14 81 20l-19 142h-271l-79 -143q39 -5 74 -22l-2 -14h-223l3 18q19 6 43 12t38 9l371 665h93zM454 224l-47 352
l-194 -352h241z" />
    <glyph glyph-name="Adieresis" unicode="&#xc4;" horiz-adv-x="729" 
d="M320 797q-11 12 -11 31q0 29 19 49.5t45 20.5q21 0 33 -11.5t12 -30.5q0 -5 -2 -15q-4 -24 -22.5 -40t-43.5 -16q-19 0 -30 12zM542 797q-11 12 -11 32q0 8 1 12q5 25 23 41t43 16q20 0 32 -11.5t12 -31.5q0 -29 -19.5 -49.5t-47.5 -20.5q-22 0 -33 12zM678 16l-2 -16
h-281l3 17q40 14 81 20l-19 142h-271l-79 -143q39 -5 74 -22l-2 -14h-223l3 18q19 6 43 12t38 9l371 665h93l100 -667q39 -8 71 -21zM454 224l-47 352l-194 -352h241z" />
    <glyph glyph-name="uni1EA0" unicode="&#x1ea0;" horiz-adv-x="729" 
d="M678 16l-2 -16h-281l3 17q40 14 81 20l-19 142h-271l-79 -143q39 -5 74 -22l-2 -14h-223l3 18q19 6 43 12t38 9l371 665h93l100 -667q39 -8 71 -21zM454 224l-47 352l-194 -352h241zM338 -67.5q11 -11.5 11 -30.5q0 -30 -19 -50.5t-47 -20.5q-21 0 -32.5 12t-11.5 31
q0 29 19.5 49.5t47.5 20.5q21 0 32 -11.5z" />
    <glyph glyph-name="Agrave" unicode="&#xc0;" horiz-adv-x="729" 
d="M380 921q0 5 1 8q3 15 15.5 26.5t29.5 11.5q18 0 31.5 -10t21.5 -20l91 -120l-27 -31l-130 89q-33 23 -33 46zM678 16l-2 -16h-281l3 17q40 14 81 20l-19 142h-271l-79 -143q39 -5 74 -22l-2 -14h-223l3 18q19 6 43 12t38 9l371 665h93l100 -667q39 -8 71 -21zM454 224
l-47 352l-194 -352h241z" />
    <glyph glyph-name="uni1EA2" unicode="&#x1ea2;" horiz-adv-x="729" 
d="M545 894q19 13 25 39q1 3 1 9q0 17 -13 28t-37 11q-29 0 -62 -16l1 36q40 17 83 17q40 0 66 -16.5t26 -50.5q0 -6 -2 -20q-15 -74 -103 -82l-24 -68h-52l15 100h32q25 0 44 13zM678 16l-2 -16h-281l3 17q40 14 81 20l-19 142h-271l-79 -143q39 -5 74 -22l-2 -14h-223
l3 18q19 6 43 12t38 9l371 665h93l100 -667q39 -8 71 -21zM454 224l-47 352l-194 -352h241z" />
    <glyph glyph-name="Amacron" unicode="&#x100;" horiz-adv-x="729" 
d="M656 785h-355l9 44h355zM678 16l-2 -16h-281l3 17q40 14 81 20l-19 142h-271l-79 -143q39 -5 74 -22l-2 -14h-223l3 18q19 6 43 12t38 9l371 665h93l100 -667q39 -8 71 -21zM454 224l-47 352l-194 -352h241z" />
    <glyph glyph-name="Aogonek" unicode="&#x104;" horiz-adv-x="729" 
d="M710 -121l-11 -56q-20 -11 -47.5 -17t-55.5 -6q-49 0 -75.5 19.5t-26.5 51.5q0 38 32 76t80 53h-211l3 17q40 14 81 20l-19 142h-271l-79 -143q39 -5 74 -22l-2 -14h-223l3 18q19 6 43 12t38 9l371 665h93l100 -667q39 -8 71 -21l-2 -16h-7q-25 -15 -46 -39.5t-25 -48.5
q-1 -4 -1 -12q0 -19 13 -29.5t36 -10.5q27 0 64 19zM454 224l-47 352l-194 -352h241z" />
    <glyph glyph-name="Aring" unicode="&#xc5;" horiz-adv-x="729" 
d="M407 763q-22 20 -22 54q0 15 2 23q9 44 42 71t78 27q37 0 59 -20t22 -54q0 -53 -35 -87t-86 -34q-38 0 -60 20zM441.5 795.5q12.5 -11.5 33.5 -11.5q28 0 48 20t20 51q0 19 -12.5 30t-32.5 11q-28 0 -48.5 -19.5t-20.5 -49.5q0 -20 12.5 -31.5zM678 16l-2 -16h-281l3 17
q40 14 81 20l-19 142h-271l-79 -143q39 -5 74 -22l-2 -14h-223l3 18q19 6 43 12t38 9l371 665h93l100 -667q39 -8 71 -21zM454 224l-47 352l-194 -352h241z" />
    <glyph glyph-name="Aringacute" unicode="&#x1fa;" horiz-adv-x="729" 
d="M449 960l-15 31l140 119q8 9 25.5 20t36.5 11q17 0 25 -8t8 -20q0 -6 -1 -9q-6 -29 -53 -55zM407 761q-22 20 -22 54q0 15 2 23q9 44 42 71t78 27q37 0 59 -20t22 -54q0 -53 -35 -87t-86 -34q-38 0 -60 20zM441.5 793.5q12.5 -11.5 33.5 -11.5q28 0 48 20t20 51
q0 19 -12.5 30t-32.5 11q-28 0 -48.5 -19.5t-20.5 -49.5q0 -20 12.5 -31.5zM678 16l-2 -16h-281l3 17q40 14 81 20l-19 142h-271l-79 -143q39 -5 74 -22l-2 -14h-223l3 18q19 6 43 12t38 9l371 665h93l100 -667q39 -8 71 -21zM454 224l-47 352l-194 -352h241z" />
    <glyph glyph-name="Atilde" unicode="&#xc3;" horiz-adv-x="729" 
d="M371 825.5q-18 -14.5 -29 -39.5h-50q18 55 51.5 83t79.5 28q24 0 42 -8t42 -23q17 -11 28 -16.5t23 -5.5q49 0 73 56h49q-37 -114 -131 -114q-20 0 -39 8t-44 23q-19 11 -31.5 17t-23.5 6q-22 0 -40 -14.5zM607 37q39 -8 71 -21l-2 -16h-281l3 17q40 14 81 20l-19 142
h-271l-79 -143q39 -5 74 -22l-2 -14h-223l3 18q19 6 43 12t38 9l371 665h93zM454 224l-47 352l-194 -352h241z" />
    <glyph glyph-name="AE" unicode="&#xc6;" horiz-adv-x="981" 
d="M-38 16q32 11 78 22l491 631q-32 8 -47 15l3 16h533l-33 -167h-29q-5 11 -8 37.5t-3 52.5q0 15 2 31h-257l-56 -272h179q4 16 14.5 41.5t21.5 43.5h21l-44 -216h-21q-3 26 -3 55q0 23 1 30h-178l-60 -292h262q7 24 30.5 64t38.5 57h29l-50 -165h-529l3 16q50 15 85 20
l30 143h-244l-110 -143q46 -6 79 -22l-2 -14h-230zM475 224l80 389l-299 -389h219z" />
    <glyph glyph-name="AEacute" unicode="&#x1fc;" horiz-adv-x="981" 
d="M698 817l140 119q8 9 25.5 20t36.5 11q17 0 25 -8t8 -20q0 -6 -1 -9q-6 -29 -53 -55l-166 -89zM-38 16q32 11 78 22l491 631q-32 8 -47 15l3 16h533l-33 -167h-29q-5 11 -8 37.5t-3 52.5q0 15 2 31h-257l-56 -272h179q4 16 14.5 41.5t21.5 43.5h21l-44 -216h-21
q-3 26 -3 55q0 23 1 30h-178l-60 -292h262q7 24 30.5 64t38.5 57h29l-50 -165h-529l3 16q50 15 85 20l30 143h-244l-110 -143q46 -6 79 -22l-2 -14h-230zM475 224l80 389l-299 -389h219z" />
    <glyph glyph-name="B" unicode="B" horiz-adv-x="605" 
d="M-18 15q54 19 83 23l127 625q-38 7 -73 20l3 17h300q104 0 151.5 -29.5t47.5 -90.5q0 -17 -5 -44q-10 -56 -50.5 -101.5t-105.5 -61.5v-6q63 -13 91 -50.5t28 -86.5q0 -13 -4 -37q-20 -97 -82.5 -145t-182.5 -48h-330zM339 390q57 0 94.5 37t50.5 102q6 27 6 47
q0 40 -22.5 59t-70.5 19h-77l-54 -264h73zM302 44q114 0 145 154q5 28 5 47q0 49 -25.5 74.5t-75.5 25.5h-94l-61 -301h106z" />
    <glyph glyph-name="C" unicode="C" horiz-adv-x="623" 
d="M119 54.5q-66 64.5 -66 183.5q0 52 12 112q34 169 137 264.5t258 95.5q76 0 125.5 -19.5t79.5 -56.5l-39 -138h-32q-2 20 -2 36q0 34 6 90q-43 41 -114 41q-107 0 -182 -84.5t-105 -228.5q-14 -68 -14 -121q0 -92 40 -142t122 -50q40 0 90.5 14.5t97.5 44.5l11 -37
q-44 -33 -103 -51t-125 -18q-131 0 -197 64.5z" />
    <glyph glyph-name="Cacute" unicode="&#x106;" horiz-adv-x="623" 
d="M415 817l141 119q8 9 25.5 20t36.5 11q17 0 25 -8t8 -21q0 -18 -13.5 -33t-40.5 -30l-166 -89zM119 54.5q-66 64.5 -66 183.5q0 52 12 112q34 169 137 264.5t258 95.5q76 0 125.5 -19.5t79.5 -56.5l-39 -138h-32q-2 20 -2 36q0 34 6 90q-43 41 -114 41q-107 0 -182 -84.5
t-105 -228.5q-14 -68 -14 -121q0 -92 40 -142t122 -50q40 0 90.5 14.5t97.5 44.5l11 -37q-44 -33 -103 -51t-125 -18q-131 0 -197 64.5z" />
    <glyph glyph-name="Ccaron" unicode="&#x10c;" horiz-adv-x="623" 
d="M418.5 856.5q-36.5 43.5 -63.5 65.5l58 41q26 -24 53.5 -60t39.5 -62h3q23 26 65.5 62t77.5 60l44 -41q-37 -22 -91.5 -65.5t-77.5 -70.5h-60q-12 27 -48.5 70.5zM119 54.5q-66 64.5 -66 183.5q0 52 12 112q34 169 137 264.5t258 95.5q76 0 125.5 -19.5t79.5 -56.5
l-39 -138h-32q-2 20 -2 36q0 34 6 90q-43 41 -114 41q-107 0 -182 -84.5t-105 -228.5q-14 -68 -14 -121q0 -92 40 -142t122 -50q40 0 90.5 14.5t97.5 44.5l11 -37q-44 -33 -103 -51t-125 -18q-131 0 -197 64.5z" />
    <glyph glyph-name="Ccedilla" unicode="&#xc7;" horiz-adv-x="623" 
d="M585.5 690.5q49.5 -19.5 79.5 -56.5l-39 -138h-32q-2 20 -2 36q0 34 6 90q-43 41 -114 41q-107 0 -182 -84.5t-105 -228.5q-14 -68 -14 -121q0 -92 40 -142t122 -50q40 0 90.5 14.5t97.5 44.5l11 -37q-39 -31 -93 -48.5t-114 -20.5l-39 -57q48 0 72.5 -17.5t24.5 -46.5
q0 -5 -2 -15q-10 -48 -52 -74t-99 -26q-27 0 -52 7t-42 20l26 35q29 -16 68 -16q34 0 57.5 13t29.5 41q4 22 -12.5 31.5t-41.5 9.5q-9 0 -23 -2l-16 32l44 66q-113 9 -170 72.5t-57 174.5q0 52 12 112q34 169 137 264.5t258 95.5q76 0 125.5 -19.5z" />
    <glyph glyph-name="Ccircumflex" unicode="&#x108;" horiz-adv-x="623" 
d="M324 823q36 22 90.5 65.5t77.5 70.5h60q13 -28 49.5 -71.5t63.5 -64.5l-60 -41q-25 24 -52.5 60t-39.5 62h-4q-21 -25 -63 -60.5t-78 -61.5zM119 54.5q-66 64.5 -66 183.5q0 52 12 112q34 169 137 264.5t258 95.5q76 0 125.5 -19.5t79.5 -56.5l-39 -138h-32q-2 20 -2 36
q0 34 6 90q-43 41 -114 41q-107 0 -182 -84.5t-105 -228.5q-14 -68 -14 -121q0 -92 40 -142t122 -50q40 0 90.5 14.5t97.5 44.5l11 -37q-44 -33 -103 -51t-125 -18q-131 0 -197 64.5z" />
    <glyph glyph-name="Cdotaccent" unicode="&#x10a;" horiz-adv-x="623" 
d="M465 796.5q-11 11.5 -11 30.5q0 30 18.5 50.5t47.5 20.5q20 0 31.5 -11.5t11.5 -30.5q0 -5 -2 -15q-4 -24 -22 -40t-42 -16q-21 0 -32 11.5zM119 54.5q-66 64.5 -66 183.5q0 52 12 112q34 169 137 264.5t258 95.5q76 0 125.5 -19.5t79.5 -56.5l-39 -138h-32q-2 20 -2 36
q0 34 6 90q-43 41 -114 41q-107 0 -182 -84.5t-105 -228.5q-14 -68 -14 -121q0 -92 40 -142t122 -50q40 0 90.5 14.5t97.5 44.5l11 -37q-44 -33 -103 -51t-125 -18q-131 0 -197 64.5z" />
    <glyph glyph-name="D" unicode="D" horiz-adv-x="672" 
d="M-12 17q57 17 80 20l128 626q-36 8 -72 21l3 16h309q124 0 182 -57t58 -168q0 -53 -14 -125q-36 -173 -125.5 -261.5t-244.5 -88.5h-307zM299 44q91 0 145.5 79t85.5 227q18 90 18 147q0 76 -29 116.5t-93 40.5h-103l-125 -610h101z" />
    <glyph glyph-name="Eth" unicode="&#xd0;" horiz-adv-x="673" 
d="M618 643q58 -57 58 -168q0 -53 -14 -125q-36 -173 -125.5 -261.5t-244.5 -88.5h-307l3 17q57 17 80 20l56 274h-64l9 44h64l63 308q-36 8 -72 21l3 16h309q124 0 182 -57zM548 497q0 76 -29 116.5t-93 40.5h-103l-61 -299h146l-9 -44h-146l-55 -267h101q91 0 145.5 79
t85.5 227q18 90 18 147z" />
    <glyph glyph-name="Dcaron" unicode="&#x10e;" horiz-adv-x="672" 
d="M362.5 857q-36.5 43 -63.5 65l59 41q26 -26 53.5 -61.5t38.5 -60.5h4q22 25 64 61t78 61l44 -41q-37 -22 -91 -65t-78 -71h-59q-13 28 -49.5 71zM-12 17q57 17 80 20l128 626q-36 8 -72 21l3 16h309q124 0 182 -57t58 -168q0 -53 -14 -125q-36 -173 -125.5 -261.5
t-244.5 -88.5h-307zM299 44q91 0 145.5 79t85.5 227q18 90 18 147q0 76 -29 116.5t-93 40.5h-103l-125 -610h101z" />
    <glyph glyph-name="Dcroat" unicode="&#x110;" horiz-adv-x="672" 
d="M618 643q58 -57 58 -168q0 -53 -14 -125q-36 -173 -125.5 -261.5t-244.5 -88.5h-307l3 17q57 17 80 20l56 274h-64l9 44h64l63 308q-36 8 -72 21l3 16h309q124 0 182 -57zM548 497q0 76 -29 116.5t-93 40.5h-103l-61 -299h146l-9 -44h-146l-55 -267h101q91 0 145.5 79
t85.5 227q18 90 18 147z" />
    <glyph glyph-name="uni1E0C" unicode="&#x1e0c;" horiz-adv-x="672" 
d="M-12 17q57 17 80 20l128 626q-36 8 -72 21l3 16h309q124 0 182 -57t58 -168q0 -53 -14 -125q-36 -173 -125.5 -261.5t-244.5 -88.5h-307zM299 44q91 0 145.5 79t85.5 227q18 90 18 147q0 76 -29 116.5t-93 40.5h-103l-125 -610h101zM225 -76q20 20 47 20q20 0 31.5 -12
t11.5 -31q0 -29 -19 -49.5t-47 -20.5q-21 0 -32.5 12t-11.5 32q0 29 20 49z" />
    <glyph glyph-name="uni1E0E" unicode="&#x1e0e;" horiz-adv-x="672" 
d="M-12 17q57 17 80 20l128 626q-36 8 -72 21l3 16h309q124 0 182 -57t58 -168q0 -53 -14 -125q-36 -173 -125.5 -261.5t-244.5 -88.5h-307zM299 44q91 0 145.5 79t85.5 227q18 90 18 147q0 76 -29 116.5t-93 40.5h-103l-125 -610h101zM83 -64h355l-8 -43h-355z" />
    <glyph glyph-name="E" unicode="E" horiz-adv-x="618" 
d="M658 700l-33 -167h-29q-5 11 -8 37.5t-3 52.5q0 15 2 31h-256l-59 -286h178q18 55 36 85h22l-45 -216h-21q-4 20 -4 50q0 19 2 35h-177l-57 -278h261q7 24 30.5 64t38.5 57h29l-50 -165h-530l3 16q50 17 86 21l127 626q-35 6 -77 21l3 16h531z" />
    <glyph glyph-name="Eacute" unicode="&#xc9;" horiz-adv-x="618" 
d="M372 786l-15 31l140 119q10 10 27 20.5t35 10.5q17 0 25 -8t8 -20q0 -6 -1 -9q-6 -29 -53 -55zM658 700l-33 -167h-29q-5 11 -8 37.5t-3 52.5q0 15 2 31h-256l-59 -286h178q18 55 36 85h22l-45 -216h-21q-4 20 -4 50q0 19 2 35h-177l-57 -278h261q7 24 30.5 64t38.5 57
h29l-50 -165h-530l3 16q50 17 86 21l127 626q-35 6 -77 21l3 16h531z" />
    <glyph glyph-name="Ebreve" unicode="&#x114;" horiz-adv-x="618" 
d="M355.5 813q-36.5 33 -32.5 98h72q-1 -5 -1 -15q0 -40 21.5 -54.5t55.5 -14.5q37 0 65.5 17t43.5 67h73q-22 -65 -72.5 -98t-119.5 -33t-105.5 33zM658 700l-33 -167h-29q-5 11 -8 37.5t-3 52.5q0 15 2 31h-256l-59 -286h178q18 55 36 85h22l-45 -216h-21q-4 20 -4 50
q0 19 2 35h-177l-57 -278h261q7 24 30.5 64t38.5 57h29l-50 -165h-530l3 16q50 17 86 21l127 626q-35 6 -77 21l3 16h531z" />
    <glyph glyph-name="Ecaron" unicode="&#x11a;" horiz-adv-x="618" 
d="M380.5 857q-36.5 43 -63.5 65l59 41q26 -25 53.5 -60.5t38.5 -61.5h4q23 26 65 61.5t77 60.5l44 -41q-37 -22 -91 -65t-78 -71h-59q-13 28 -49.5 71zM127 700h531l-33 -167h-29q-5 11 -8 37.5t-3 52.5q0 15 2 31h-256l-59 -286h178q18 55 36 85h22l-45 -216h-21
q-4 20 -4 50q0 19 2 35h-177l-57 -278h261q7 24 30.5 64t38.5 57h29l-50 -165h-530l3 16q50 17 86 21l127 626q-35 6 -77 21z" />
    <glyph glyph-name="Ecircumflex" unicode="&#xca;" horiz-adv-x="618" 
d="M416.5 843.5q-41.5 -35.5 -77.5 -61.5l-45 41q37 22 91.5 66t76.5 70h60q13 -27 49.5 -71t63.5 -65l-59 -41q-26 24 -53 60t-39 62h-4q-22 -25 -63.5 -60.5zM658 700l-33 -167h-29q-5 11 -8 37.5t-3 52.5q0 15 2 31h-256l-59 -286h178q18 55 36 85h22l-45 -216h-21
q-4 20 -4 50q0 19 2 35h-177l-57 -278h261q7 24 30.5 64t38.5 57h29l-50 -165h-530l3 16q50 17 86 21l127 626q-35 6 -77 21l3 16h531z" />
    <glyph glyph-name="uni1EBE" unicode="&#x1ebe;" horiz-adv-x="618" 
d="M771.5 1056.5q7.5 -9.5 4.5 -23.5q-3 -16 -21 -34t-48 -32l-109 -52l-14 27l87 82q45 42 77 42q16 0 23.5 -9.5zM401 842.5q-42 -35.5 -77 -60.5l-45 41q36 22 91 65.5t78 70.5h60q13 -27 49.5 -70.5t62.5 -65.5l-59 -41q-26 25 -53.5 60.5t-38.5 61.5h-4
q-22 -26 -64 -61.5zM127 700h531l-33 -167h-29q-5 11 -8 37.5t-3 52.5q0 15 2 31h-256l-59 -286h178q18 55 36 85h22l-45 -216h-21q-4 20 -4 50q0 19 2 35h-177l-57 -278h261q7 24 30.5 64t38.5 57h29l-50 -165h-530l3 16q50 17 86 21l127 626q-35 6 -77 21z" />
    <glyph glyph-name="uni1EC6" unicode="&#x1ec6;" horiz-adv-x="618" 
d="M401.5 844q-41.5 -35 -78.5 -62l-44 41q36 22 90.5 65.5t77.5 70.5h60q13 -28 49.5 -71.5t63.5 -64.5l-60 -41q-26 25 -53.5 60.5t-38.5 61.5h-4q-21 -25 -62.5 -60zM658 700l-33 -167h-29q-5 11 -8 37.5t-3 52.5q0 15 2 31h-256l-59 -286h178q18 55 36 85h22l-45 -216
h-21q-4 20 -4 50q0 19 2 35h-177l-57 -278h261q7 24 30.5 64t38.5 57h29l-50 -165h-530l3 16q50 17 86 21l127 626q-35 6 -77 21l3 16h531zM305.5 -68q11.5 -12 11.5 -31q0 -29 -19 -49.5t-47 -20.5q-21 0 -32.5 12t-11.5 32q0 29 20 49t47 20q20 0 31.5 -12z" />
    <glyph glyph-name="uni1EC0" unicode="&#x1ec0;" horiz-adv-x="618" 
d="M219.5 999.5q-10.5 17.5 -7.5 33.5q3 14 14.5 23.5t27.5 9.5q31 0 61 -42l53 -82l-26 -27l-87 52q-25 15 -35.5 32.5zM279 823q36 22 91 65.5t78 70.5h60q13 -27 49.5 -70.5t62.5 -65.5l-59 -41q-26 25 -53.5 60.5t-38.5 61.5h-4q-22 -26 -64 -61.5t-77 -60.5zM658 700
l-33 -167h-29q-5 11 -8 37.5t-3 52.5q0 15 2 31h-256l-59 -286h178q18 55 36 85h22l-45 -216h-21q-4 20 -4 50q0 19 2 35h-177l-57 -278h261q7 24 30.5 64t38.5 57h29l-50 -165h-530l3 16q50 17 86 21l127 626q-35 6 -77 21l3 16h531z" />
    <glyph glyph-name="uni1EC2" unicode="&#x1ec2;" horiz-adv-x="618" 
d="M713 1099.5q24 -14.5 24 -44.5q0 -5 -2 -15q-15 -64 -91 -71l-19 -51h-45l10 79h28q22 0 38.5 11t20.5 33q3 17 -8 27.5t-35 10.5q-26 0 -53 -12l1 33q36 14 71 14q36 0 60 -14.5zM401 842.5q-42 -35.5 -77 -60.5l-45 41q36 22 91 65.5t78 70.5h60q13 -27 49.5 -70.5
t62.5 -65.5l-59 -41q-26 25 -53.5 60.5t-38.5 61.5h-4q-22 -26 -64 -61.5zM127 700h531l-33 -167h-29q-5 11 -8 37.5t-3 52.5q0 15 2 31h-256l-59 -286h178q18 55 36 85h22l-45 -216h-21q-4 20 -4 50q0 19 2 35h-177l-57 -278h261q7 24 30.5 64t38.5 57h29l-50 -165h-530
l3 16q50 17 86 21l127 626q-35 6 -77 21z" />
    <glyph glyph-name="uni1EC4" unicode="&#x1ec4;" horiz-adv-x="618" 
d="M386 1027.5q-19 -14.5 -29 -39.5h-44q18 55 51 82.5t79 27.5q24 0 41.5 -8t38.5 -23q14 -11 25 -16.5t23 -5.5q21 0 42 13t34 43h43q-17 -53 -49.5 -82.5t-81.5 -29.5q-19 0 -35 7t-40 22q-17 12 -30 18t-26 6q-23 0 -42 -14.5zM401 842.5q-42 -35.5 -77 -60.5l-45 41
q36 22 91 65.5t78 70.5h60q13 -27 49.5 -70.5t62.5 -65.5l-59 -41q-26 25 -53.5 60.5t-38.5 61.5h-4q-22 -26 -64 -61.5zM127 700h531l-33 -167h-29q-5 11 -8 37.5t-3 52.5q0 15 2 31h-256l-59 -286h178q18 55 36 85h22l-45 -216h-21q-4 20 -4 50q0 19 2 35h-177l-57 -278
h261q7 24 30.5 64t38.5 57h29l-50 -165h-530l3 16q50 17 86 21l127 626q-35 6 -77 21z" />
    <glyph glyph-name="Edieresis" unicode="&#xcb;" horiz-adv-x="618" 
d="M321 797q-11 12 -11 31q0 29 19 49.5t45 20.5q21 0 33 -11.5t12 -30.5q0 -5 -2 -15q-4 -24 -22.5 -40t-43.5 -16q-19 0 -30 12zM543 797q-11 12 -11 32q0 8 1 12q5 25 23 41t43 16q20 0 32 -11.5t12 -31.5q0 -29 -19.5 -49.5t-47.5 -20.5q-22 0 -33 12zM658 700l-33 -167
h-29q-5 11 -8 37.5t-3 52.5q0 15 2 31h-256l-59 -286h178q18 55 36 85h22l-45 -216h-21q-4 20 -4 50q0 19 2 35h-177l-57 -278h261q7 24 30.5 64t38.5 57h29l-50 -165h-530l3 16q50 17 86 21l127 626q-35 6 -77 21l3 16h531z" />
    <glyph glyph-name="Edotaccent" unicode="&#x116;" horiz-adv-x="618" 
d="M434.5 797q-11.5 12 -11.5 31q0 8 1 13q5 25 23 41t42 16q21 0 32 -12t11 -32q0 -28 -19.5 -48.5t-46.5 -20.5q-20 0 -31.5 12zM658 700l-33 -167h-29q-5 11 -8 37.5t-3 52.5q0 15 2 31h-256l-59 -286h178q18 55 36 85h22l-45 -216h-21q-4 20 -4 50q0 19 2 35h-177
l-57 -278h261q7 24 30.5 64t38.5 57h29l-50 -165h-530l3 16q50 17 86 21l127 626q-35 6 -77 21l3 16h531z" />
    <glyph glyph-name="uni1EB8" unicode="&#x1eb8;" horiz-adv-x="618" 
d="M658 700l-33 -167h-29q-5 11 -8 37.5t-3 52.5q0 15 2 31h-256l-59 -286h178q18 55 36 85h22l-45 -216h-21q-4 20 -4 50q0 19 2 35h-177l-57 -278h261q7 24 30.5 64t38.5 57h29l-50 -165h-530l3 16q50 17 86 21l127 626q-35 6 -77 21l3 16h531zM288 -67.5
q11 -11.5 11 -30.5q0 -5 -2 -15q-4 -24 -21.5 -40t-42.5 -16q-21 0 -32.5 12t-11.5 31q0 29 19.5 49.5t47.5 20.5q21 0 32 -11.5z" />
    <glyph glyph-name="Egrave" unicode="&#xc8;" horiz-adv-x="618" 
d="M385 901q-8 13 -5 28t15.5 26.5t29.5 11.5q18 0 31.5 -10t21.5 -20l91 -120l-27 -31l-130 89q-19 13 -27 26zM658 700l-33 -167h-29q-5 11 -8 37.5t-3 52.5q0 15 2 31h-256l-59 -286h178q18 55 36 85h22l-45 -216h-21q-4 20 -4 50q0 19 2 35h-177l-57 -278h261
q7 24 30.5 64t38.5 57h29l-50 -165h-530l3 16q50 17 86 21l127 626q-35 6 -77 21l3 16h531z" />
    <glyph glyph-name="uni1EBA" unicode="&#x1eba;" horiz-adv-x="618" 
d="M517 894q19 13 25 39q1 3 1 9q0 17 -13 28t-37 11q-29 0 -62 -16l1 36q40 17 83 17q40 0 66 -16.5t26 -50.5q0 -6 -2 -20q-15 -74 -103 -82l-24 -68h-52l15 100h32q25 0 44 13zM658 700l-33 -167h-29q-5 11 -8 37.5t-3 52.5q0 15 2 31h-256l-59 -286h178q18 55 36 85h22
l-45 -216h-21q-4 20 -4 50q0 19 2 35h-177l-57 -278h261q7 24 30.5 64t38.5 57h29l-50 -165h-530l3 16q50 17 86 21l127 626q-35 6 -77 21l3 16h531z" />
    <glyph glyph-name="Emacron" unicode="&#x112;" horiz-adv-x="618" 
d="M633 785h-355l9 44h355zM658 700l-33 -167h-29q-5 11 -8 37.5t-3 52.5q0 15 2 31h-256l-59 -286h178q18 55 36 85h22l-45 -216h-21q-4 20 -4 50q0 19 2 35h-177l-57 -278h261q7 24 30.5 64t38.5 57h29l-50 -165h-530l3 16q50 17 86 21l127 626q-35 6 -77 21l3 16h531z
" />
    <glyph glyph-name="Eogonek" unicode="&#x118;" horiz-adv-x="618" 
d="M658 700l-33 -167h-29q-5 11 -8 37.5t-3 52.5q0 15 2 31h-256l-59 -286h178q18 55 36 85h22l-45 -216h-21q-4 20 -4 50q0 19 2 35h-177l-57 -278h261q7 24 30.5 64t38.5 57h29l-50 -165h-30q-28 -17 -50 -45.5t-22 -53.5q0 -19 13.5 -30t35.5 -11q28 0 65 19l-12 -56
q-21 -11 -48 -17t-55 -6q-48 0 -74.5 19.5t-26.5 51.5q0 38 32 76t80 53h-438l3 16q50 17 86 21l127 626q-35 6 -77 21l3 16h531z" />
    <glyph glyph-name="uni1EBC" unicode="&#x1ebc;" horiz-adv-x="618" 
d="M341 824.5q-18 -14.5 -28 -39.5h-51q18 55 51.5 83t79.5 28q24 0 42 -8t43 -23q17 -11 28 -16.5t23 -5.5q48 0 73 56h49q-39 -114 -132 -114q-20 0 -39 8t-44 23q-19 11 -31.5 17t-23.5 6q-22 0 -40 -14.5zM658 700l-33 -167h-29q-5 11 -8 37.5t-3 52.5q0 15 2 31h-256
l-59 -286h178q18 55 36 85h22l-45 -216h-21q-4 20 -4 50q0 19 2 35h-177l-57 -278h261q7 24 30.5 64t38.5 57h29l-50 -165h-530l3 16q50 17 86 21l127 626q-35 6 -77 21l3 16h531z" />
    <glyph glyph-name="F" unicode="F" horiz-adv-x="575" 
d="M646 700l-34 -167h-29q-4 12 -7 38t-3 51q0 16 2 32h-244l-61 -296h178q4 16 14.5 41.5t21.5 43.5h22l-45 -217h-21q-3 26 -3 55q0 23 1 30h-177l-57 -275q47 -8 79 -21l-3 -15h-295l3 16q52 16 86 20l127 627q-45 8 -77 21l3 16h519z" />
    <glyph glyph-name="G" unicode="G" horiz-adv-x="677" 
d="M115 55.5q-68 65.5 -68 185.5q0 51 12 109q22 111 78 192t140 124.5t188 43.5q78 0 139 -20.5t90 -55.5l-40 -138h-31q-2 22 -2 38q0 32 6 88q-20 19 -60 30t-79 11q-110 0 -188.5 -85t-107.5 -228q-14 -67 -14 -119q0 -92 41 -143t124 -51q20 0 47.5 4.5t47.5 13.5
l51 249q-52 13 -72 20l4 16h269l-3 -12q-13 -8 -34 -15.5t-38 -10.5l-52 -254q-40 -27 -109.5 -42.5t-138.5 -15.5q-132 0 -200 65.5z" />
    <glyph glyph-name="Gbreve" unicode="&#x11e;" horiz-adv-x="677" 
d="M376 812.5q-36 32.5 -33 98.5h72q-1 -5 -1 -15q0 -40 21.5 -54.5t55.5 -14.5q38 0 66 17t44 67h73q-23 -65 -73 -98t-119 -33q-70 0 -106 32.5zM115 55.5q-68 65.5 -68 185.5q0 51 12 109q22 111 78 192t140 124.5t188 43.5q78 0 139 -20.5t90 -55.5l-40 -138h-31
q-2 22 -2 38q0 32 6 88q-20 19 -60 30t-79 11q-110 0 -188.5 -85t-107.5 -228q-14 -67 -14 -119q0 -92 41 -143t124 -51q20 0 47.5 4.5t47.5 13.5l51 249q-52 13 -72 20l4 16h269l-3 -12q-13 -8 -34 -15.5t-38 -10.5l-52 -254q-40 -27 -109.5 -42.5t-138.5 -15.5
q-132 0 -200 65.5z" />
    <glyph glyph-name="Gcaron" unicode="&#x1e6;" horiz-adv-x="677" 
d="M401.5 862.5q-36.5 43.5 -63.5 65.5l58 41q26 -25 53.5 -60.5t38.5 -61.5h4q23 26 65 61.5t77 60.5l44 -41q-37 -22 -91 -65t-78 -71h-59q-12 27 -48.5 70.5zM115 55.5q-68 65.5 -68 185.5q0 51 12 109q22 111 78 192t140 124.5t188 43.5q78 0 139 -20.5t90 -55.5
l-40 -138h-31q-2 22 -2 38q0 32 6 88q-20 19 -60 30t-79 11q-110 0 -188.5 -85t-107.5 -228q-14 -67 -14 -119q0 -92 41 -143t124 -51q20 0 47.5 4.5t47.5 13.5l51 249q-52 13 -72 20l4 16h269l-3 -12q-13 -8 -34 -15.5t-38 -10.5l-52 -254q-40 -27 -109.5 -42.5
t-138.5 -15.5q-132 0 -200 65.5z" />
    <glyph glyph-name="Gcircumflex" unicode="&#x11c;" horiz-adv-x="677" 
d="M333 823q36 22 90.5 65.5t77.5 70.5h59q14 -28 50.5 -71.5t63.5 -64.5l-60 -41q-26 24 -53 60t-39 62h-4q-22 -25 -63.5 -60.5t-77.5 -61.5zM115 55.5q-68 65.5 -68 185.5q0 51 12 109q22 111 78 192t140 124.5t188 43.5q78 0 139 -20.5t90 -55.5l-40 -138h-31
q-2 22 -2 38q0 32 6 88q-20 19 -60 30t-79 11q-110 0 -188.5 -85t-107.5 -228q-14 -67 -14 -119q0 -92 41 -143t124 -51q20 0 47.5 4.5t47.5 13.5l51 249q-52 13 -72 20l4 16h269l-3 -12q-13 -8 -34 -15.5t-38 -10.5l-52 -254q-40 -27 -109.5 -42.5t-138.5 -15.5
q-132 0 -200 65.5z" />
    <glyph glyph-name="Gcommaaccent" unicode="&#x122;" horiz-adv-x="677" 
d="M115 55.5q-68 65.5 -68 185.5q0 51 12 109q22 111 78 192t140 124.5t188 43.5q78 0 139 -20.5t90 -55.5l-40 -138h-31q-2 22 -2 38q0 32 6 88q-20 19 -60 30t-79 11q-110 0 -188.5 -85t-107.5 -228q-14 -67 -14 -119q0 -92 41 -143t124 -51q20 0 47.5 4.5t47.5 13.5
l51 249q-52 13 -72 20l4 16h269l-3 -12q-13 -8 -34 -15.5t-38 -10.5l-52 -254q-40 -27 -109.5 -42.5t-138.5 -15.5q-132 0 -200 65.5zM205 -314q26 24 49 54.5t33 59.5q-25 1 -39.5 13t-14.5 33q0 35 24 56t55 21q29 0 42.5 -14t13.5 -38q0 -10 -3 -22q-10 -51 -45.5 -105.5
t-79.5 -89.5z" />
    <glyph glyph-name="Gdotaccent" unicode="&#x120;" horiz-adv-x="677" 
d="M464 796.5q-11 11.5 -11 30.5q0 30 18.5 50.5t47.5 20.5q20 0 31.5 -11.5t11.5 -30.5q0 -5 -2 -15q-4 -24 -22 -40t-42 -16q-21 0 -32 11.5zM115 55.5q-68 65.5 -68 185.5q0 51 12 109q22 111 78 192t140 124.5t188 43.5q78 0 139 -20.5t90 -55.5l-40 -138h-31
q-2 22 -2 38q0 32 6 88q-20 19 -60 30t-79 11q-110 0 -188.5 -85t-107.5 -228q-14 -67 -14 -119q0 -92 41 -143t124 -51q20 0 47.5 4.5t47.5 13.5l51 249q-52 13 -72 20l4 16h269l-3 -12q-13 -8 -34 -15.5t-38 -10.5l-52 -254q-40 -27 -109.5 -42.5t-138.5 -15.5
q-132 0 -200 65.5z" />
    <glyph glyph-name="uni1E20" unicode="&#x1e20;" horiz-adv-x="677" 
d="M296 829h356l-9 -44h-355zM115 55.5q-68 65.5 -68 185.5q0 51 12 109q22 111 78 192t140 124.5t188 43.5q78 0 139 -20.5t90 -55.5l-40 -138h-31q-2 22 -2 38q0 32 6 88q-20 19 -60 30t-79 11q-110 0 -188.5 -85t-107.5 -228q-14 -67 -14 -119q0 -92 41 -143t124 -51
q20 0 47.5 4.5t47.5 13.5l51 249q-52 13 -72 20l4 16h269l-3 -12q-13 -8 -34 -15.5t-38 -10.5l-52 -254q-40 -27 -109.5 -42.5t-138.5 -15.5q-132 0 -200 65.5z" />
    <glyph glyph-name="H" unicode="H" horiz-adv-x="782" 
d="M846 700l-3 -18q-6 -2 -33.5 -10t-47.5 -11l-128 -625q43 -9 73 -21l-3 -15h-280l2 13q39 18 79 24l60 295h-306l-61 -296q43 -10 70 -21l-2 -15h-281l3 17q57 17 80 20l128 626q-41 8 -72 21l3 16h281l-3 -15q-32 -16 -79 -23l-58 -284h307l58 286q-30 5 -70 20l3 16
h280z" />
    <glyph glyph-name="Hbar" unicode="&#x126;" horiz-adv-x="782" 
d="M809.5 672q-27.5 -8 -47.5 -11l-24 -119h58l-10 -45h-58l-94 -461q43 -9 73 -21l-3 -15h-280l2 13q35 14 48.5 17.5t30.5 6.5l60 295h-306l-61 -296q43 -10 70 -21l-2 -15h-281l3 17q57 17 80 20l94 460h-58l10 45h57l25 121q-41 8 -72 21l3 16h281l-3 -15
q-32 -16 -79 -23l-25 -120h307l25 122q-30 5 -70 20l3 16h280l-3 -18q-6 -2 -33.5 -10zM599 497h-307l-24 -119h307z" />
    <glyph glyph-name="uni1E2A" unicode="&#x1e2a;" horiz-adv-x="782" 
d="M846 700l-3 -18q-6 -2 -33.5 -10t-47.5 -11l-128 -625q43 -9 73 -21l-3 -15h-280l2 13q39 18 79 24l60 295h-306l-61 -296q43 -10 70 -21l-2 -15h-281l3 17q57 17 80 20l128 626q-41 8 -72 21l3 16h281l-3 -15q-32 -16 -79 -23l-58 -284h307l58 286q-30 5 -70 20l3 16
h280zM382 -117.5q28 17.5 44 67.5h73q-23 -66 -73 -98.5t-118 -32.5q-69 0 -106 32.5t-33 98.5h73q-1 -6 -1 -17q0 -40 21 -54t55 -14q37 0 65 17.5z" />
    <glyph glyph-name="Hcircumflex" unicode="&#x124;" horiz-adv-x="782" 
d="M462.5 843.5q-41.5 -35.5 -77.5 -61.5l-45 41q37 22 91.5 65.5t76.5 70.5h60q13 -27 49.5 -71t63.5 -65l-59 -41q-26 24 -53 60t-39 62h-4q-22 -25 -63.5 -60.5zM846 700l-3 -18q-6 -2 -33.5 -10t-47.5 -11l-128 -625q43 -9 73 -21l-3 -15h-280l2 13q39 18 79 24l60 295
h-306l-61 -296q43 -10 70 -21l-2 -15h-281l3 17q57 17 80 20l128 626q-41 8 -72 21l3 16h281l-3 -15q-32 -16 -79 -23l-58 -284h307l58 286q-30 5 -70 20l3 16h280z" />
    <glyph glyph-name="uni1E24" unicode="&#x1e24;" horiz-adv-x="782" 
d="M846 700l-3 -18q-6 -2 -33.5 -10t-47.5 -11l-128 -625q43 -9 73 -21l-3 -15h-280l2 13q39 18 79 24l60 295h-306l-61 -296q43 -10 70 -21l-2 -15h-281l3 17q57 17 80 20l128 626q-41 8 -72 21l3 16h281l-3 -15q-32 -16 -79 -23l-58 -284h307l58 286q-30 5 -70 20l3 16
h280zM363 -67.5q11 -11.5 11 -30.5q0 -29 -19 -50t-47 -21q-21 0 -32.5 12t-11.5 31q0 29 19.5 49.5t47.5 20.5q21 0 32 -11.5z" />
    <glyph glyph-name="I" unicode="I" horiz-adv-x="352" 
d="M-10 17q35 10 81 20l127 626q-30 6 -72 20l3 17h285l-3 -18q-19 -8 -46.5 -13t-35.5 -7l-128 -626q31 -6 74 -20l-3 -16h-285z" />
    <glyph glyph-name="IJ" unicode="&#x132;" horiz-adv-x="831" 
d="M-10 17q35 10 81 20l127 626q-30 6 -72 20l3 17h285l-3 -18q-19 -8 -46.5 -13t-35.5 -7l-128 -626q31 -6 74 -20l-3 -16h-285zM391 4q-41 14 -65 41l26 33q19 -15 46 -24.5t57 -9.5q44 0 77 26t45 82l103 510q-38 6 -72 20l4 18h281l-3 -18q-60 -18 -79 -21l-103 -505
q-17 -82 -80 -124t-147 -42q-49 0 -90 14z" />
    <glyph glyph-name="Iacute" unicode="&#xcd;" horiz-adv-x="352" 
d="M188 817l140 119q10 10 27 20.5t35 10.5q17 0 25 -8t8 -20q0 -6 -1 -9q-6 -29 -53 -55l-166 -89zM-10 17q35 10 81 20l127 626q-30 6 -72 20l3 17h285l-3 -18q-19 -8 -46.5 -13t-35.5 -7l-128 -626q31 -6 74 -20l-3 -16h-285z" />
    <glyph glyph-name="Ibreve" unicode="&#x12c;" horiz-adv-x="352" 
d="M181 812.5q-36 32.5 -33 98.5h72q-1 -5 -1 -15q0 -40 21.5 -54.5t55.5 -14.5q38 0 66 17t44 67h73q-23 -65 -73 -98t-119 -33q-70 0 -106 32.5zM-10 17q35 10 81 20l127 626q-30 6 -72 20l3 17h285l-3 -18q-19 -8 -46.5 -13t-35.5 -7l-128 -626q31 -6 74 -20l-3 -16h-285
z" />
    <glyph glyph-name="uni01CF" unicode="&#x1cf;" horiz-adv-x="352" 
d="M209.5 856.5q-36.5 43.5 -63.5 65.5l58 41q26 -25 53.5 -60.5t38.5 -61.5h4q23 26 65 61.5t77 60.5l44 -41q-37 -22 -91 -65t-78 -71h-59q-12 27 -48.5 70.5zM-10 17q35 10 81 20l127 626q-30 6 -72 20l3 17h285l-3 -18q-19 -8 -46.5 -13t-35.5 -7l-128 -626
q31 -6 74 -20l-3 -16h-285z" />
    <glyph glyph-name="Icircumflex" unicode="&#xce;" horiz-adv-x="352" 
d="M124 823q37 22 91.5 65.5t76.5 70.5h60q13 -27 49.5 -71t63.5 -65l-59 -41q-26 24 -53 60t-39 62h-4q-22 -25 -63.5 -60.5t-77.5 -61.5zM-10 17q35 10 81 20l127 626q-30 6 -72 20l3 17h285l-3 -18q-19 -8 -46.5 -13t-35.5 -7l-128 -626q31 -6 74 -20l-3 -16h-285z" />
    <glyph glyph-name="Idieresis" unicode="&#xcf;" horiz-adv-x="352" 
d="M144 797q-11 12 -11 31q0 29 19 49.5t45 20.5q21 0 33 -12t12 -32q0 -29 -19.5 -49t-48.5 -20q-19 0 -30 12zM367 796.5q-11 11.5 -11 30.5q0 9 1 14q5 25 22.5 41t42.5 16q21 0 32.5 -11.5t11.5 -30.5q0 -5 -2 -15q-4 -24 -22 -40t-43 -16q-21 0 -32 11.5zM-10 17
q35 10 81 20l127 626q-30 6 -72 20l3 17h285l-3 -18q-19 -8 -46.5 -13t-35.5 -7l-128 -626q31 -6 74 -20l-3 -16h-285z" />
    <glyph glyph-name="Idotaccent" unicode="&#x130;" horiz-adv-x="352" 
d="M254 797q-11 12 -11 32q0 8 1 12q5 25 23 41t43 16q20 0 31.5 -11.5t11.5 -31.5q0 -29 -19.5 -49.5t-46.5 -20.5q-22 0 -33 12zM-10 17q35 10 81 20l127 626q-30 6 -72 20l3 17h285l-3 -18q-19 -8 -46.5 -13t-35.5 -7l-128 -626q31 -6 74 -20l-3 -16h-285z" />
    <glyph glyph-name="uni1ECA" unicode="&#x1eca;" horiz-adv-x="352" 
d="M-10 17q35 10 81 20l127 626q-30 6 -72 20l3 17h285l-3 -18q-19 -8 -46.5 -13t-35.5 -7l-128 -626q31 -6 74 -20l-3 -16h-285zM62.5 -157q-11.5 12 -11.5 31q0 29 19.5 49.5t47.5 20.5q20 0 31.5 -11.5t11.5 -30.5q0 -29 -19 -50t-47 -21q-21 0 -32.5 12z" />
    <glyph glyph-name="Igrave" unicode="&#xcc;" horiz-adv-x="352" 
d="M244 875q-20 13 -28 26t-5 28t15.5 26.5t29.5 11.5q18 0 31.5 -10t21.5 -20l91 -120l-27 -31zM-10 17q35 10 81 20l127 626q-30 6 -72 20l3 17h285l-3 -18q-19 -8 -46.5 -13t-35.5 -7l-128 -626q31 -6 74 -20l-3 -16h-285z" />
    <glyph glyph-name="uni1EC8" unicode="&#x1ec8;" horiz-adv-x="352" 
d="M283 881h32q24 0 43.5 13t25.5 39q3 20 -9.5 34t-39.5 14q-30 0 -63 -16l1 36q40 17 84 17q40 0 66 -16.5t26 -50.5q0 -6 -2 -20q-15 -74 -104 -82l-24 -68h-51zM-10 17q35 10 81 20l127 626q-30 6 -72 20l3 17h285l-3 -18q-19 -8 -46.5 -13t-35.5 -7l-128 -626
q31 -6 74 -20l-3 -16h-285z" />
    <glyph glyph-name="Imacron" unicode="&#x12a;" horiz-adv-x="352" 
d="M108 829h386l-10 -44h-385zM-10 17q35 10 81 20l127 626q-30 6 -72 20l3 17h285l-3 -18q-19 -8 -46.5 -13t-35.5 -7l-128 -626q31 -6 74 -20l-3 -16h-285z" />
    <glyph glyph-name="Iogonek" unicode="&#x12e;" horiz-adv-x="352" 
d="M414 700l-3 -18q-19 -8 -46.5 -13t-35.5 -7l-128 -626q31 -6 74 -20l-3 -16h-18q-29 -17 -50.5 -45.5t-21.5 -54.5q0 -19 13 -29.5t36 -10.5q27 0 64 19l-11 -56q-21 -11 -48 -17t-55 -6q-49 0 -75 19.5t-26 52.5q0 10 1 15q8 35 38 67t73 46h-205l3 17q35 10 81 20
l127 626q-30 6 -72 20l3 17h285z" />
    <glyph glyph-name="Itilde" unicode="&#x128;" horiz-adv-x="352" 
d="M158 869q34 28 80 28q24 0 42 -8t42 -23q17 -11 28 -16.5t23 -5.5q49 0 73 56h49q-37 -114 -131 -114q-20 0 -38.5 8t-43.5 23q-21 12 -33.5 17.5t-23.5 5.5q-21 0 -39 -14.5t-29 -39.5h-51q18 55 52 83zM-10 17q35 10 81 20l127 626q-30 6 -72 20l3 17h285l-3 -18
q-19 -8 -46.5 -13t-35.5 -7l-128 -626q31 -6 74 -20l-3 -16h-285z" />
    <glyph glyph-name="J" unicode="J" horiz-adv-x="485" 
d="M45 4q-41 14 -65 41l26 33q19 -15 46 -24.5t57 -9.5q45 0 78 26t44 82l104 510q-37 6 -72 20l4 18h281l-4 -18q-60 -18 -79 -21l-102 -505q-17 -83 -80 -124.5t-148 -41.5q-49 0 -90 14z" />
    <glyph glyph-name="Jcircumflex" unicode="&#x134;" horiz-adv-x="485" 
d="M261 823q36 22 90.5 65.5t77.5 70.5h59q14 -28 50.5 -71.5t63.5 -64.5l-60 -41q-26 24 -53 60t-39 62h-4q-22 -25 -63.5 -60.5t-77.5 -61.5zM45 4q-41 14 -65 41l26 33q19 -15 46 -24.5t57 -9.5q45 0 78 26t44 82l104 510q-37 6 -72 20l4 18h281l-4 -18q-60 -18 -79 -21
l-102 -505q-17 -83 -80 -124.5t-148 -41.5q-49 0 -90 14z" />
    <glyph glyph-name="K" unicode="K" horiz-adv-x="751" 
d="M744 674q-3 -1 -21.5 -4.5t-33.5 -13.5l-267 -240l200 -380q35 -7 78 -20l-2 -16h-194l-174 333l-86 -77l-45 -220q31 -6 74 -20l-3 -16h-285l3 17q35 10 81 20l127 626q-26 5 -72 20l3 17h285l-3 -18q-19 -8 -46.5 -13t-35.5 -7l-67 -329l362 326q-9 6 -25.5 9.5
t-20.5 4.5q-12 1 -25 5l4 22h213l-4 -22q-8 -2 -20 -4z" />
    <glyph glyph-name="Kcommaaccent" unicode="&#x136;" horiz-adv-x="751" 
d="M744 674q-3 -1 -21.5 -4.5t-33.5 -13.5l-267 -240l200 -380q35 -7 78 -20l-2 -16h-194l-174 333l-86 -77l-45 -220q31 -6 74 -20l-3 -16h-285l3 17q35 10 81 20l127 626q-26 5 -72 20l3 17h285l-3 -18q-19 -8 -46.5 -13t-35.5 -7l-67 -329l362 326q-9 6 -25.5 9.5
t-20.5 4.5q-12 1 -25 5l4 22h213l-4 -22q-8 -2 -20 -4zM370.5 -91.5q13.5 -14.5 13.5 -38.5q0 -7 -2 -21q-10 -51 -45.5 -105.5t-80.5 -89.5l-35 32q26 25 49 55t33 59q-25 1 -39 13.5t-14 34.5q0 34 23.5 54.5t54.5 20.5q29 0 42.5 -14.5z" />
    <glyph glyph-name="L" unicode="L" horiz-adv-x="611" 
d="M-12 16q52 15 87 20l127 627q-45 10 -72 21l3 16h283l-4 -18q-17 -6 -79 -20l-126 -618h255q7 25 30.5 64.5t39.5 56.5h28l-50 -165h-525z" />
    <glyph glyph-name="Lacute" unicode="&#x139;" horiz-adv-x="611" 
d="M224 817l140 119q10 10 27 20.5t36 10.5q17 0 25 -8t8 -21q0 -18 -13.5 -33t-40.5 -30l-166 -89zM-12 16q52 15 87 20l127 627q-45 10 -72 21l3 16h283l-4 -18q-17 -6 -79 -20l-126 -618h255q7 25 30.5 64.5t39.5 56.5h28l-50 -165h-525z" />
    <glyph glyph-name="Lcaron" unicode="&#x13d;" horiz-adv-x="611" 
d="M462 479q26 23 49 53.5t33 59.5q-24 0 -40 11.5t-16 35.5q0 33 22.5 59t59.5 26q31 0 45 -16.5t14 -43.5q0 -8 -2 -22q-11 -51 -48 -106t-83 -90zM-12 16q52 15 87 20l127 627q-45 10 -72 21l3 16h283l-4 -18q-17 -6 -79 -20l-126 -618h255q7 25 30.5 64.5t39.5 56.5h28
l-50 -165h-525z" />
    <glyph glyph-name="Lcommaaccent" unicode="&#x13b;" horiz-adv-x="611" 
d="M-12 16q52 15 87 20l127 627q-45 10 -72 21l3 16h283l-4 -18q-17 -6 -79 -20l-126 -618h255q7 25 30.5 64.5t39.5 56.5h28l-50 -165h-525zM148 -314q26 25 49 55t33 59q-25 1 -39 13.5t-14 34.5q0 34 23.5 54.5t54.5 20.5q29 0 42.5 -14.5t13.5 -38.5q0 -7 -2 -21
q-10 -51 -45.5 -105.5t-80.5 -89.5z" />
    <glyph glyph-name="Ldot" unicode="&#x13f;" horiz-adv-x="611" 
d="M-12 16q52 15 87 20l127 627q-45 10 -72 21l3 16h283l-4 -18q-17 -6 -79 -20l-126 -618h255q7 25 30.5 64.5t39.5 56.5h28l-50 -165h-525zM411 339.5q-12 11.5 -12 31.5q0 28 20 49t47 21q21 0 32.5 -11.5t11.5 -30.5q0 -4 -2 -14q-5 -25 -22.5 -41t-42.5 -16
q-20 0 -32 11.5z" />
    <glyph glyph-name="uni1E36" unicode="&#x1e36;" horiz-adv-x="611" 
d="M-12 16q52 15 87 20l127 627q-45 10 -72 21l3 16h283l-4 -18q-17 -6 -79 -20l-126 -618h255q7 25 30.5 64.5t39.5 56.5h28l-50 -165h-525zM207 -153.5q-11 11.5 -11 31.5q0 29 18.5 49.5t47.5 20.5q20 0 31.5 -12.5t11.5 -31.5q0 -8 -1 -12q-5 -25 -23.5 -41t-41.5 -16
q-21 0 -32 11.5z" />
    <glyph glyph-name="uni1E38" unicode="&#x1e38;" horiz-adv-x="611" 
d="M122 828h356l-9 -43h-356zM-12 16q52 15 87 20l127 627q-45 10 -72 21l3 16h283l-4 -18q-17 -6 -79 -20l-126 -618h255q7 25 30.5 64.5t39.5 56.5h28l-50 -165h-525zM205 -153.5q-11 11.5 -11 30.5q0 5 2 15q4 24 21.5 40t41.5 16q21 0 33 -12.5t12 -31.5q0 -8 -1 -12
q-5 -25 -23.5 -41t-43.5 -16q-20 0 -31 11.5z" />
    <glyph glyph-name="uni1E3A" unicode="&#x1e3a;" horiz-adv-x="611" 
d="M-12 16q52 15 87 20l127 627q-45 10 -72 21l3 16h283l-4 -18q-17 -6 -79 -20l-126 -618h255q7 25 30.5 64.5t39.5 56.5h28l-50 -165h-525zM70 -64h355l-9 -43h-355z" />
    <glyph glyph-name="Lslash" unicode="&#x141;" horiz-adv-x="611" 
d="M560 165l-50 -165h-525l3 16q52 15 87 20l45 222l-84 -29l13 61l83 29l70 344q-45 10 -72 21l3 16h283l-4 -18q-17 -6 -79 -20l-60 -294l208 72l-13 -61l-207 -72l-54 -263h255q7 25 30.5 64.5t39.5 56.5h28z" />
    <glyph glyph-name="M" unicode="M" horiz-adv-x="910" 
d="M-11 15q33 11 80 20l127 628q-48 11 -72 21l3 16h216l94 -519l321 519h215l-3 -16q-29 -9 -80 -23l-128 -626q42 -9 72 -20l-3 -15h-282l3 15q37 12 79 20l115 562l-324 -521h-76l-105 531l-117 -572q42 -9 72 -20l-3 -15h-207z" />
    <glyph glyph-name="uni1E42" unicode="&#x1e42;" horiz-adv-x="910" 
d="M-11 15q33 11 80 20l127 628q-48 11 -72 21l3 16h216l94 -519l321 519h215l-3 -16q-29 -9 -80 -23l-128 -626q42 -9 72 -20l-3 -15h-282l3 15q37 12 79 20l115 562l-324 -521h-76l-105 531l-117 -572q42 -9 72 -20l-3 -15h-207zM340.5 -157q-11.5 12 -11.5 31q0 30 20 50
t47 20q21 0 32 -11.5t11 -30.5q0 -5 -2 -15q-4 -24 -22 -40t-42 -16q-21 0 -32.5 12z" />
    <glyph glyph-name="N" unicode="N" horiz-adv-x="752" 
d="M-11 15q33 11 80 20l127 628q-45 10 -72 21l3 16h211l238 -535l101 499q-42 9 -72 20l3 16h208l-3 -16q-37 -12 -81 -20l-135 -664h-68l-285 630l-120 -595q42 -9 72 -20l-3 -15h-207z" />
    <glyph glyph-name="Nacute" unicode="&#x143;" horiz-adv-x="752" 
d="M427 817l140 119q10 10 27 20.5t35 10.5q17 0 25 -8t8 -20q0 -6 -1 -9q-6 -29 -53 -55l-166 -89zM-11 15q33 11 80 20l127 628q-45 10 -72 21l3 16h211l238 -535l101 499q-42 9 -72 20l3 16h208l-3 -16q-37 -12 -81 -20l-135 -664h-68l-285 630l-120 -595q42 -9 72 -20
l-3 -15h-207z" />
    <glyph glyph-name="Ncaron" unicode="&#x147;" horiz-adv-x="752" 
d="M408.5 857q-36.5 43 -63.5 65l59 41q26 -26 53.5 -61.5t38.5 -60.5h4q23 26 65 61.5t77 60.5l44 -41q-37 -22 -91 -65t-78 -71h-59q-13 28 -49.5 71zM-11 15q33 11 80 20l127 628q-45 10 -72 21l3 16h211l238 -535l101 499q-42 9 -72 20l3 16h208l-3 -16q-37 -12 -81 -20
l-135 -664h-68l-285 630l-120 -595q42 -9 72 -20l-3 -15h-207z" />
    <glyph glyph-name="Ncommaaccent" unicode="&#x145;" horiz-adv-x="752" 
d="M-11 15q33 11 80 20l127 628q-45 10 -72 21l3 16h211l238 -535l101 499q-42 9 -72 20l3 16h208l-3 -16q-37 -12 -81 -20l-135 -664h-68l-285 630l-120 -595q42 -9 72 -20l-3 -15h-207zM210 -314q26 24 49 54.5t33 59.5q-25 1 -39.5 13t-14.5 33q0 35 24 56t54 21
q29 0 43 -14t14 -38q0 -12 -3 -22q-10 -51 -45.5 -105.5t-80.5 -89.5z" />
    <glyph glyph-name="uni1E44" unicode="&#x1e44;" horiz-adv-x="752" 
d="M457.5 797q-11.5 12 -11.5 31q0 8 1 13q5 25 23 41t42 16q21 0 32 -12t11 -32q0 -28 -19.5 -48.5t-46.5 -20.5q-20 0 -31.5 12zM-11 15q33 11 80 20l127 628q-45 10 -72 21l3 16h211l238 -535l101 499q-42 9 -72 20l3 16h208l-3 -16q-37 -12 -81 -20l-135 -664h-68
l-285 630l-120 -595q42 -9 72 -20l-3 -15h-207z" />
    <glyph glyph-name="uni1E46" unicode="&#x1e46;" horiz-adv-x="752" 
d="M-11 15q33 11 80 20l127 628q-45 10 -72 21l3 16h211l238 -535l101 499q-42 9 -72 20l3 16h208l-3 -16q-37 -12 -81 -20l-135 -664h-68l-285 630l-120 -595q42 -9 72 -20l-3 -15h-207zM257 -156.5q-12 12.5 -12 32.5q0 7 1 11q5 25 23.5 41t43.5 16q20 0 31.5 -11.5
t11.5 -30.5q0 -29 -19 -50t-47 -21q-21 0 -33 12.5z" />
    <glyph glyph-name="Eng" unicode="&#x14a;" horiz-adv-x="752" 
d="M286 -220l15 35q35 -16 87 -16q50 0 86.5 23t46.5 72l20 100l-297 636l-120 -595q42 -9 72 -20l-3 -15h-207l3 15q33 11 80 20l127 628q-45 10 -72 21l3 16h211l238 -535l101 499q-42 9 -72 20l3 16h208l-3 -16q-37 -12 -81 -20l-157 -769q-14 -72 -61.5 -108.5
t-114.5 -36.5q-61 0 -113 30z" />
    <glyph glyph-name="uni1E48" unicode="&#x1e48;" horiz-adv-x="752" 
d="M-11 15q33 11 80 20l127 628q-45 10 -72 21l3 16h211l238 -535l101 499q-42 9 -72 20l3 16h208l-3 -16q-37 -12 -81 -20l-135 -664h-68l-285 630l-120 -595q42 -9 72 -20l-3 -15h-207zM140 -64h355l-9 -43h-355z" />
    <glyph glyph-name="Ntilde" unicode="&#xd1;" horiz-adv-x="752" 
d="M364.5 869q33.5 28 79.5 28q24 0 42 -8t42 -23q17 -11 28.5 -16.5t23.5 -5.5q48 0 72 56h49q-37 -114 -131 -114q-20 0 -39 8t-44 23q-19 11 -31.5 17t-23.5 6q-22 0 -40 -14.5t-28 -39.5h-51q18 55 51.5 83zM-11 15q33 11 80 20l127 628q-45 10 -72 21l3 16h211
l238 -535l101 499q-42 9 -72 20l3 16h208l-3 -16q-37 -12 -81 -20l-135 -664h-68l-285 630l-120 -595q42 -9 72 -20l-3 -15h-207z" />
    <glyph glyph-name="O" unicode="O" horiz-adv-x="719" 
d="M113 55.5q-67 65.5 -67 185.5q0 51 12 109q34 169 137.5 264.5t261.5 95.5q130 0 197.5 -66.5t67.5 -187.5q0 -49 -12 -106q-35 -169 -139 -264.5t-261 -95.5q-130 0 -197 65.5zM482.5 122q66.5 85 96.5 228q13 64 13 122q0 90 -36 140.5t-109 50.5q-96 0 -162.5 -85.5
t-94.5 -227.5q-15 -69 -15 -127q0 -88 36 -137t108 -49q97 0 163.5 85z" />
    <glyph glyph-name="Oacute" unicode="&#xd3;" horiz-adv-x="719" 
d="M378 817l140 119q10 10 27 20.5t35 10.5q17 0 25 -8t8 -20q0 -6 -1 -9q-6 -29 -53 -55l-166 -89zM113 55.5q-67 65.5 -67 185.5q0 51 12 109q34 169 137.5 264.5t261.5 95.5q130 0 197.5 -66.5t67.5 -187.5q0 -49 -12 -106q-35 -169 -139 -264.5t-261 -95.5
q-130 0 -197 65.5zM482.5 122q66.5 85 96.5 228q13 64 13 122q0 90 -36 140.5t-109 50.5q-96 0 -162.5 -85.5t-94.5 -227.5q-15 -69 -15 -127q0 -88 36 -137t108 -49q97 0 163.5 85z" />
    <glyph glyph-name="Obreve" unicode="&#x14e;" horiz-adv-x="719" 
d="M364.5 812q-36.5 33 -32.5 98h72q-1 -6 -1 -17q0 -40 21 -53.5t56 -13.5q37 0 65.5 17t43.5 67h73q-23 -65 -73 -98t-119 -33t-105.5 33zM113 55.5q-67 65.5 -67 185.5q0 51 12 109q34 169 137.5 264.5t261.5 95.5q130 0 197.5 -66.5t67.5 -187.5q0 -49 -12 -106
q-35 -169 -139 -264.5t-261 -95.5q-130 0 -197 65.5zM482.5 122q66.5 85 96.5 228q13 64 13 122q0 90 -36 140.5t-109 50.5q-96 0 -162.5 -85.5t-94.5 -227.5q-15 -69 -15 -127q0 -88 36 -137t108 -49q97 0 163.5 85z" />
    <glyph glyph-name="uni01D1" unicode="&#x1d1;" horiz-adv-x="719" 
d="M393.5 856.5q-36.5 43.5 -63.5 65.5l58 41q26 -24 53.5 -60t39.5 -62h3q23 26 65.5 62t77.5 60l44 -41q-37 -22 -91.5 -65.5t-77.5 -70.5h-60q-12 27 -48.5 70.5zM113 55.5q-67 65.5 -67 185.5q0 51 12 109q34 169 137.5 264.5t261.5 95.5q130 0 197.5 -66.5t67.5 -187.5
q0 -49 -12 -106q-35 -169 -139 -264.5t-261 -95.5q-130 0 -197 65.5zM482.5 122q66.5 85 96.5 228q13 64 13 122q0 90 -36 140.5t-109 50.5q-96 0 -162.5 -85.5t-94.5 -227.5q-15 -69 -15 -127q0 -88 36 -137t108 -49q97 0 163.5 85z" />
    <glyph glyph-name="Ocircumflex" unicode="&#xd4;" horiz-adv-x="719" 
d="M308 823q36 22 90.5 65.5t77.5 70.5h59q14 -28 50.5 -71.5t63.5 -64.5l-60 -41q-26 24 -53 60t-39 62h-4q-22 -25 -63.5 -60.5t-77.5 -61.5zM113 55.5q-67 65.5 -67 185.5q0 51 12 109q34 169 137.5 264.5t261.5 95.5q130 0 197.5 -66.5t67.5 -187.5q0 -49 -12 -106
q-35 -169 -139 -264.5t-261 -95.5q-130 0 -197 65.5zM482.5 122q66.5 85 96.5 228q13 64 13 122q0 90 -36 140.5t-109 50.5q-96 0 -162.5 -85.5t-94.5 -227.5q-15 -69 -15 -127q0 -88 36 -137t108 -49q97 0 163.5 85z" />
    <glyph glyph-name="uni1ED0" unicode="&#x1ed0;" horiz-adv-x="719" 
d="M613 942l87 82q44 42 76 42q17 0 24.5 -10t4.5 -23q-3 -16 -21 -34t-48 -32l-109 -52zM308 823q36 22 91 65.5t78 70.5h59q14 -27 50.5 -71t62.5 -65l-59 -41q-26 24 -53 60t-39 62h-4q-23 -26 -65 -62t-76 -60zM113 55.5q-67 65.5 -67 185.5q0 51 12 109
q34 169 137.5 264.5t261.5 95.5q130 0 197.5 -66.5t67.5 -187.5q0 -49 -12 -106q-35 -169 -139 -264.5t-261 -95.5q-130 0 -197 65.5zM482.5 122q66.5 85 96.5 228q13 64 13 122q0 90 -36 140.5t-109 50.5q-96 0 -162.5 -85.5t-94.5 -227.5q-15 -69 -15 -127q0 -88 36 -137
t108 -49q97 0 163.5 85z" />
    <glyph glyph-name="uni1ED8" unicode="&#x1ed8;" horiz-adv-x="719" 
d="M398.5 888.5q54.5 43.5 77.5 70.5h59q14 -28 50.5 -71.5t63.5 -64.5l-60 -41q-26 24 -53 60t-39 62h-4q-22 -25 -63.5 -60.5t-77.5 -61.5l-44 41q36 22 90.5 65.5zM195.5 614.5q103.5 95.5 261.5 95.5q130 0 197.5 -66.5t67.5 -187.5q0 -49 -12 -106
q-35 -169 -139 -264.5t-261 -95.5q-130 0 -197 65.5t-67 185.5q0 51 12 109q34 169 137.5 264.5zM175 223q0 -88 36 -137t108 -49q97 0 163.5 85t96.5 228q13 64 13 122q0 90 -36 140.5t-109 50.5q-96 0 -162.5 -85.5t-94.5 -227.5q-15 -69 -15 -127zM258.5 -72
q18.5 16 42.5 16q21 0 32 -11.5t11 -30.5q0 -5 -2 -15q-4 -24 -21.5 -40t-42.5 -16q-21 0 -32.5 12t-11.5 31q0 9 1 13q5 25 23.5 41z" />
    <glyph glyph-name="uni1ED2" unicode="&#x1ed2;" horiz-adv-x="719" 
d="M284 967q-44 28 -44 59q0 15 12 27.5t31 12.5q32 0 60 -42l54 -82l-26 -27zM308 823q36 22 91 65.5t78 70.5h59q14 -27 50.5 -71t62.5 -65l-59 -41q-26 24 -53 60t-39 62h-4q-23 -26 -65 -62t-76 -60zM113 55.5q-67 65.5 -67 185.5q0 51 12 109q34 169 137.5 264.5
t261.5 95.5q130 0 197.5 -66.5t67.5 -187.5q0 -49 -12 -106q-35 -169 -139 -264.5t-261 -95.5q-130 0 -197 65.5zM482.5 122q66.5 85 96.5 228q13 64 13 122q0 90 -36 140.5t-109 50.5q-96 0 -162.5 -85.5t-94.5 -227.5q-15 -69 -15 -127q0 -88 36 -137t108 -49
q97 0 163.5 85z" />
    <glyph glyph-name="uni1ED4" unicode="&#x1ed4;" horiz-adv-x="719" 
d="M620 1000h28q22 0 38 11t21 33q3 17 -8 27.5t-35 10.5q-27 0 -53 -12l1 33q34 14 71 14q35 0 59 -14.5t24 -44.5q0 -10 -1 -15q-15 -64 -91 -71l-20 -51h-45zM309 826q36 22 91 65.5t78 70.5h59q14 -27 50.5 -71t62.5 -65l-59 -41q-26 24 -53 60t-39 62h-4
q-23 -26 -65 -62t-76 -60zM113 55.5q-67 65.5 -67 185.5q0 51 12 109q34 169 137.5 264.5t261.5 95.5q130 0 197.5 -66.5t67.5 -187.5q0 -49 -12 -106q-35 -169 -139 -264.5t-261 -95.5q-130 0 -197 65.5zM482.5 122q66.5 85 96.5 228q13 64 13 122q0 90 -36 140.5
t-109 50.5q-96 0 -162.5 -85.5t-94.5 -227.5q-15 -69 -15 -127q0 -88 36 -137t108 -49q97 0 163.5 85z" />
    <glyph glyph-name="uni1ED6" unicode="&#x1ed6;" horiz-adv-x="719" 
d="M392.5 1070.5q33.5 27.5 79.5 27.5q23 0 40.5 -8t38.5 -23q15 -11 26 -16.5t23 -5.5q21 0 41.5 13t34.5 43h43q-17 -53 -50 -82.5t-81 -29.5q-19 0 -36 7.5t-39 21.5q-19 12 -31 18t-25 6q-23 0 -42 -14.5t-29 -39.5h-45q18 55 51.5 82.5zM308 823q36 22 91 65.5t78 70.5
h59q14 -27 50.5 -71t62.5 -65l-59 -41q-26 24 -53 60t-39 62h-4q-23 -26 -65 -62t-76 -60zM113 55.5q-67 65.5 -67 185.5q0 51 12 109q34 169 137.5 264.5t261.5 95.5q130 0 197.5 -66.5t67.5 -187.5q0 -49 -12 -106q-35 -169 -139 -264.5t-261 -95.5q-130 0 -197 65.5z
M482.5 122q66.5 85 96.5 228q13 64 13 122q0 90 -36 140.5t-109 50.5q-96 0 -162.5 -85.5t-94.5 -227.5q-15 -69 -15 -127q0 -88 36 -137t108 -49q97 0 163.5 85z" />
    <glyph glyph-name="Odieresis" unicode="&#xd6;" horiz-adv-x="719" 
d="M327 797q-11 12 -11 32q0 8 1 12q5 25 23 41t41 16q21 0 33 -11.5t12 -31.5q0 -29 -20 -49.5t-48 -20.5q-20 0 -31 12zM550.5 797q-11.5 12 -11.5 31q0 8 1 13q5 25 23 41t42 16q21 0 32.5 -12t11.5 -32q0 -29 -19.5 -49t-47.5 -20q-20 0 -31.5 12zM113 55.5
q-67 65.5 -67 185.5q0 51 12 109q34 169 137.5 264.5t261.5 95.5q130 0 197.5 -66.5t67.5 -187.5q0 -49 -12 -106q-35 -169 -139 -264.5t-261 -95.5q-130 0 -197 65.5zM482.5 122q66.5 85 96.5 228q13 64 13 122q0 90 -36 140.5t-109 50.5q-96 0 -162.5 -85.5t-94.5 -227.5
q-15 -69 -15 -127q0 -88 36 -137t108 -49q97 0 163.5 85z" />
    <glyph glyph-name="uni1ECC" unicode="&#x1ecc;" horiz-adv-x="719" 
d="M195.5 614.5q103.5 95.5 261.5 95.5q130 0 197.5 -66.5t67.5 -187.5q0 -49 -12 -106q-35 -169 -139 -264.5t-261 -95.5q-130 0 -197 65.5t-67 185.5q0 51 12 109q34 169 137.5 264.5zM175 223q0 -88 36 -137t108 -49q97 0 163.5 85t96.5 228q13 64 13 122q0 90 -36 140.5
t-109 50.5q-96 0 -162.5 -85.5t-94.5 -227.5q-15 -69 -15 -127zM258.5 -72q18.5 16 42.5 16q21 0 32 -11.5t11 -30.5q0 -5 -2 -15q-4 -24 -21.5 -40t-42.5 -16q-21 0 -32.5 12t-11.5 31q0 9 1 13q5 25 23.5 41z" />
    <glyph glyph-name="Ograve" unicode="&#xd2;" horiz-adv-x="719" 
d="M421 875q-19 13 -27 26t-6 28q3 14 16 26t30 12t31.5 -10.5t20.5 -19.5l92 -120l-27 -31zM113 55.5q-67 65.5 -67 185.5q0 51 12 109q34 169 137.5 264.5t261.5 95.5q130 0 197.5 -66.5t67.5 -187.5q0 -49 -12 -106q-35 -169 -139 -264.5t-261 -95.5q-130 0 -197 65.5z
M482.5 122q66.5 85 96.5 228q13 64 13 122q0 90 -36 140.5t-109 50.5q-96 0 -162.5 -85.5t-94.5 -227.5q-15 -69 -15 -127q0 -88 36 -137t108 -49q97 0 163.5 85z" />
    <glyph glyph-name="uni1ECE" unicode="&#x1ece;" horiz-adv-x="719" 
d="M462 881h32q25 0 44.5 13t24.5 39q1 3 1 9q0 17 -13 28t-37 11q-29 0 -62 -16l1 36q40 17 83 17q40 0 66.5 -16.5t26.5 -51.5q0 -5 -2 -19q-16 -74 -104 -82l-24 -68h-52zM113 55.5q-67 65.5 -67 185.5q0 51 12 109q34 169 137.5 264.5t261.5 95.5q130 0 197.5 -66.5
t67.5 -187.5q0 -49 -12 -106q-35 -169 -139 -264.5t-261 -95.5q-130 0 -197 65.5zM482.5 122q66.5 85 96.5 228q13 64 13 122q0 90 -36 140.5t-109 50.5q-96 0 -162.5 -85.5t-94.5 -227.5q-15 -69 -15 -127q0 -88 36 -137t108 -49q97 0 163.5 85z" />
    <glyph glyph-name="Ohorn" unicode="&#x1a0;" horiz-adv-x="756" 
d="M864 687q0 -15 -3 -27q-7 -37 -42 -80t-99 -86q2 -24 2 -37q0 -50 -12 -107q-35 -169 -139 -264.5t-261 -95.5q-130 0 -197 65.5t-67 185.5q0 51 12 109q34 169 137.5 264.5t261.5 95.5q106 0 170.5 -45t85.5 -129q25 19 46 42t31 46q-9 -4 -18 -4q-20 0 -31.5 12
t-11.5 32q0 9 1 14q6 25 24 43t53 18q57 0 57 -52zM592 472q0 90 -36 140.5t-109 50.5q-96 0 -162.5 -85.5t-94.5 -227.5q-15 -69 -15 -127q0 -88 36 -137t108 -49q97 0 163.5 85t96.5 228q13 64 13 122z" />
    <glyph glyph-name="uni1EDA" unicode="&#x1eda;" horiz-adv-x="756" 
d="M394 785l-15 31l140 119q10 10 27 20.5t35 10.5q17 0 25 -8t8 -20q0 -6 -1 -9q-6 -29 -53 -55zM864 687q0 -15 -3 -27q-7 -37 -42 -80t-99 -86q2 -24 2 -37q0 -50 -12 -107q-35 -169 -139 -264.5t-261 -95.5q-130 0 -197 65.5t-67 185.5q0 51 12 109q34 169 137.5 264.5
t261.5 95.5q106 0 170.5 -45t85.5 -129q25 19 46 42t31 46q-9 -4 -18 -4q-20 0 -31.5 12t-11.5 32q0 9 1 14q6 25 24 43t53 18q57 0 57 -52zM592 472q0 90 -36 140.5t-109 50.5q-96 0 -162.5 -85.5t-94.5 -227.5q-15 -69 -15 -127q0 -88 36 -137t108 -49q97 0 163.5 85
t96.5 228q13 64 13 122z" />
    <glyph glyph-name="uni1EE2" unicode="&#x1ee2;" horiz-adv-x="756" 
d="M864 687q0 -15 -3 -27q-7 -37 -42 -80t-99 -86q2 -24 2 -37q0 -50 -12 -107q-35 -169 -139 -264.5t-261 -95.5q-130 0 -197 65.5t-67 185.5q0 51 12 109q34 169 137.5 264.5t261.5 95.5q106 0 170.5 -45t85.5 -129q25 19 46 42t31 46q-9 -4 -18 -4q-20 0 -31.5 12
t-11.5 32q0 9 1 14q6 25 24 43t53 18q57 0 57 -52zM592 472q0 90 -36 140.5t-109 50.5q-96 0 -162.5 -85.5t-94.5 -227.5q-15 -69 -15 -127q0 -88 36 -137t108 -49q97 0 163.5 85t96.5 228q13 64 13 122zM333 -67.5q11 -11.5 11 -30.5q0 -5 -2 -15q-4 -24 -21.5 -40
t-42.5 -16q-21 0 -32.5 12t-11.5 31q0 9 1 13q5 25 23.5 41t42.5 16q21 0 32 -11.5z" />
    <glyph glyph-name="uni1EDC" unicode="&#x1edc;" horiz-adv-x="756" 
d="M395 900q-8 13 -6 28q3 14 16 26t30 12t31.5 -10.5t20.5 -19.5l92 -120l-27 -31l-130 89q-19 13 -27 26zM864 687q0 -15 -3 -27q-7 -37 -42 -80t-99 -86q2 -24 2 -37q0 -50 -12 -107q-35 -169 -139 -264.5t-261 -95.5q-130 0 -197 65.5t-67 185.5q0 51 12 109
q34 169 137.5 264.5t261.5 95.5q106 0 170.5 -45t85.5 -129q25 19 46 42t31 46q-9 -4 -18 -4q-20 0 -31.5 12t-11.5 32q0 9 1 14q6 25 24 43t53 18q57 0 57 -52zM592 472q0 90 -36 140.5t-109 50.5q-96 0 -162.5 -85.5t-94.5 -227.5q-15 -69 -15 -127q0 -88 36 -137t108 -49
q97 0 163.5 85t96.5 228q13 64 13 122z" />
    <glyph glyph-name="uni1EDE" unicode="&#x1ede;" horiz-adv-x="756" 
d="M532.5 892q19.5 13 24.5 39q1 3 1 9q0 17 -13 28t-37 11q-29 0 -62 -16l1 36q40 17 84 17q40 0 66 -17t26 -51q0 -5 -2 -19q-16 -74 -104 -82l-24 -68h-52l16 100h31q25 0 44.5 13zM864 687q0 -15 -3 -27q-7 -37 -42 -80t-99 -86q2 -24 2 -37q0 -50 -12 -107
q-35 -169 -139 -264.5t-261 -95.5q-130 0 -197 65.5t-67 185.5q0 51 12 109q34 169 137.5 264.5t261.5 95.5q106 0 170.5 -45t85.5 -129q25 19 46 42t31 46q-9 -4 -18 -4q-20 0 -31.5 12t-11.5 32q0 9 1 14q6 25 24 43t53 18q57 0 57 -52zM592 472q0 90 -36 140.5t-109 50.5
q-96 0 -162.5 -85.5t-94.5 -227.5q-15 -69 -15 -127q0 -88 36 -137t108 -49q97 0 163.5 85t96.5 228q13 64 13 122z" />
    <glyph glyph-name="uni1EE0" unicode="&#x1ee0;" horiz-adv-x="756" 
d="M370 825.5q-18 -14.5 -29 -39.5h-50q18 55 51.5 83t79.5 28q24 0 42 -8t42 -23q17 -11 28 -16.5t23 -5.5q49 0 73 56h49q-37 -114 -131 -114q-20 0 -39 8t-44 23q-19 11 -31.5 17t-23.5 6q-22 0 -40 -14.5zM864 687q0 -15 -3 -27q-7 -37 -42 -80t-99 -86q2 -24 2 -37
q0 -50 -12 -107q-35 -169 -139 -264.5t-261 -95.5q-130 0 -197 65.5t-67 185.5q0 51 12 109q34 169 137.5 264.5t261.5 95.5q106 0 170.5 -45t85.5 -129q25 19 46 42t31 46q-9 -4 -18 -4q-20 0 -31.5 12t-11.5 32q0 9 1 14q6 25 24 43t53 18q57 0 57 -52zM592 472
q0 90 -36 140.5t-109 50.5q-96 0 -162.5 -85.5t-94.5 -227.5q-15 -69 -15 -127q0 -88 36 -137t108 -49q97 0 163.5 85t96.5 228q13 64 13 122z" />
    <glyph glyph-name="Ohungarumlaut" unicode="&#x150;" horiz-adv-x="719" 
d="M316 816l138 119q10 10 26.5 20.5t34.5 10.5q21 0 29.5 -11.5t5.5 -25.5q-5 -28 -54 -55l-165 -90zM519 816l138 119q35 31 63 31q20 0 28 -11.5t5 -25.5q-5 -28 -53 -55l-167 -90zM113 55.5q-67 65.5 -67 185.5q0 51 12 109q34 169 137.5 264.5t261.5 95.5
q130 0 197.5 -66.5t67.5 -187.5q0 -49 -12 -106q-35 -169 -139 -264.5t-261 -95.5q-130 0 -197 65.5zM482.5 122q66.5 85 96.5 228q13 64 13 122q0 90 -36 140.5t-109 50.5q-96 0 -162.5 -85.5t-94.5 -227.5q-15 -69 -15 -127q0 -88 36 -137t108 -49q97 0 163.5 85z" />
    <glyph glyph-name="Omacron" unicode="&#x14c;" horiz-adv-x="719" 
d="M304 836h355l-8 -44h-356zM113 55.5q-67 65.5 -67 185.5q0 51 12 109q34 169 137.5 264.5t261.5 95.5q130 0 197.5 -66.5t67.5 -187.5q0 -49 -12 -106q-35 -169 -139 -264.5t-261 -95.5q-130 0 -197 65.5zM482.5 122q66.5 85 96.5 228q13 64 13 122q0 90 -36 140.5
t-109 50.5q-96 0 -162.5 -85.5t-94.5 -227.5q-15 -69 -15 -127q0 -88 36 -137t108 -49q97 0 163.5 85z" />
    <glyph glyph-name="Oslash" unicode="&#xd8;" horiz-adv-x="719" 
d="M669 627q52 -64 52 -171q0 -54 -11 -106q-35 -169 -139 -264.5t-261 -95.5q-122 0 -188 58l-78 -82l-30 29l79 84q-47 62 -47 162q0 51 12 109q34 169 137.5 264.5t261.5 95.5q116 0 181 -53l62 66l33 -29zM176 222q0 -28 3 -52l392 416q-35 77 -124 77
q-96 0 -162.5 -85.5t-94.5 -227.5q-14 -73 -14 -128zM592 472q0 36 -6 67l-394 -417q31 -85 127 -85q97 0 163.5 85t96.5 228q13 72 13 122z" />
    <glyph glyph-name="Oslashacute" unicode="&#x1fe;" horiz-adv-x="719" 
d="M400 786l-15 31l140 119q10 10 26.5 20.5t35.5 10.5q17 0 25 -8t8 -20q0 -6 -1 -9q-6 -29 -53 -55zM669 627q52 -64 52 -171q0 -54 -11 -106q-35 -169 -139 -264.5t-261 -95.5q-122 0 -188 58l-78 -82l-30 29l79 84q-47 62 -47 162q0 51 12 109q34 169 137.5 264.5
t261.5 95.5q116 0 181 -53l62 66l33 -29zM176 222q0 -28 3 -52l392 416q-35 77 -124 77q-96 0 -162.5 -85.5t-94.5 -227.5q-14 -73 -14 -128zM592 472q0 36 -6 67l-394 -417q31 -85 127 -85q97 0 163.5 85t96.5 228q13 72 13 122z" />
    <glyph glyph-name="Otilde" unicode="&#xd5;" horiz-adv-x="719" 
d="M341.5 869q33.5 28 79.5 28q24 0 42 -8t42 -23q17 -11 28 -16.5t23 -5.5q49 0 73 56h49q-37 -114 -131 -114q-20 0 -39 8t-44 23q-19 11 -31.5 17t-23.5 6q-22 0 -40 -14.5t-29 -39.5h-50q18 55 51.5 83zM113 55.5q-67 65.5 -67 185.5q0 51 12 109q34 169 137.5 264.5
t261.5 95.5q130 0 197.5 -66.5t67.5 -187.5q0 -49 -12 -106q-35 -169 -139 -264.5t-261 -95.5q-130 0 -197 65.5zM482.5 122q66.5 85 96.5 228q13 64 13 122q0 90 -36 140.5t-109 50.5q-96 0 -162.5 -85.5t-94.5 -227.5q-15 -69 -15 -127q0 -88 36 -137t108 -49
q97 0 163.5 85z" />
    <glyph glyph-name="OE" unicode="&#x152;" horiz-adv-x="1007" 
d="M106.5 59.5q-59.5 69.5 -59.5 184.5q0 48 11 106q20 99 69.5 180.5t128 130.5t180.5 49q103 0 151 -64l11 54h449l-34 -167h-28q-5 11 -8 37.5t-3 52.5q0 15 2 31h-256l-56 -272h178q4 16 14.5 41t20.5 44h21l-44 -216h-21q-3 23 -3 47q0 22 2 38h-178l-59 -292h261
q7 25 30 65t39 56h29l-50 -165h-448l9 50q-39 -32 -80.5 -46t-95.5 -14q-123 0 -182.5 69.5zM480 121l93 456q-14 37 -47 61.5t-79 24.5q-95 0 -161.5 -85.5t-94.5 -227.5q-15 -69 -15 -127q0 -88 35.5 -137t107.5 -49q92 0 161 84z" />
    <glyph glyph-name="P" unicode="P" horiz-adv-x="608" 
d="M-18 17q49 14 82 20l128 626q-39 8 -71 20l3 17h313q110 0 159 -38t49 -109q0 -23 -7 -60q-19 -96 -87 -158t-175 -62h-133l-49 -237q29 -5 74 -20l-3 -16h-285zM352 317q62 0 102 49.5t56 128.5q7 37 7 58q0 48 -24 74.5t-72 26.5h-101l-69 -337h101z" />
    <glyph glyph-name="Thorn" unicode="&#xde;" horiz-adv-x="607" 
d="M-18 17q54 15 82 20l128 626q-39 8 -71 20l3 17h205l-26 -129h133q96 0 139.5 -39t43.5 -107q0 -22 -7 -59q-19 -96 -87.5 -158.5t-174.5 -62.5h-134l-22 -109q29 -5 74 -20l-3 -16h-285zM326 190q62 0 102 49.5t56 127.5q7 37 7 59q0 101 -96 101h-101l-69 -337h101z
" />
    <glyph glyph-name="Q" unicode="Q" horiz-adv-x="719" 
d="M654.5 643.5q67.5 -66.5 67.5 -187.5q0 -49 -12 -106q-30 -146 -113.5 -238.5t-208.5 -114.5q3 -49 39.5 -79t100.5 -35l-9 -42q-120 10 -184.5 49.5t-71.5 101.5q-107 12 -162 76.5t-55 173.5q0 50 12 108q34 169 137.5 264.5t261.5 95.5q130 0 197.5 -66.5zM592 472
q0 90 -36 140.5t-109 50.5q-96 0 -162.5 -85.5t-94.5 -227.5q-14 -70 -14 -126q0 -88 35.5 -137.5t107.5 -49.5q96 0 163 85t97 228q13 64 13 122z" />
    <glyph glyph-name="R" unicode="R" horiz-adv-x="675" 
d="M584.5 371.5q-51.5 -52.5 -128.5 -67.5l87 -268q40 -8 69 -20l-3 -16h-176l-89 299h-90l-54 -263q32 -6 73 -20l-3 -16h-285l3 17q49 14 82 20l127 626q-39 8 -71 20l3 17h349q96 0 138.5 -35.5t42.5 -100.5q0 -22 -7 -61q-16 -79 -67.5 -131.5zM530 558q0 96 -103 96
h-100l-63 -310h100q126 0 160 161q6 29 6 53z" />
    <glyph glyph-name="Racute" unicode="&#x154;" horiz-adv-x="675" 
d="M368 786l-15 31l140 119q10 10 27 20.5t36 10.5q16 0 24 -8t8 -20q0 -6 -1 -9q-6 -29 -53 -55zM584.5 371.5q-51.5 -52.5 -128.5 -67.5l87 -268q40 -8 69 -20l-3 -16h-176l-89 299h-90l-54 -263q32 -6 73 -20l-3 -16h-285l3 17q49 14 82 20l127 626q-39 8 -71 20l3 17
h349q96 0 138.5 -35.5t42.5 -100.5q0 -22 -7 -61q-16 -79 -67.5 -131.5zM530 558q0 96 -103 96h-100l-63 -310h100q126 0 160 161q6 29 6 53z" />
    <glyph glyph-name="Rcaron" unicode="&#x158;" horiz-adv-x="675" 
d="M367.5 856.5q-36.5 43.5 -63.5 65.5l59 41q26 -25 53.5 -60.5t38.5 -61.5h4q22 26 64 62t78 60l44 -41q-37 -22 -91.5 -65.5t-77.5 -70.5h-60q-12 27 -48.5 70.5zM584.5 371.5q-51.5 -52.5 -128.5 -67.5l87 -268q40 -8 69 -20l-3 -16h-176l-89 299h-90l-54 -263
q32 -6 73 -20l-3 -16h-285l3 17q49 14 82 20l127 626q-39 8 -71 20l3 17h349q96 0 138.5 -35.5t42.5 -100.5q0 -22 -7 -61q-16 -79 -67.5 -131.5zM530 558q0 96 -103 96h-100l-63 -310h100q126 0 160 161q6 29 6 53z" />
    <glyph glyph-name="Rcommaaccent" unicode="&#x156;" horiz-adv-x="675" 
d="M584.5 371.5q-51.5 -52.5 -128.5 -67.5l87 -268q40 -8 69 -20l-3 -16h-176l-89 299h-90l-54 -263q32 -6 73 -20l-3 -16h-285l3 17q49 14 82 20l127 626q-39 8 -71 20l3 17h349q96 0 138.5 -35.5t42.5 -100.5q0 -22 -7 -61q-16 -79 -67.5 -131.5zM530 558q0 96 -103 96
h-100l-63 -310h100q126 0 160 161q6 29 6 53zM334 -91q14 -14 14 -38q0 -12 -3 -22q-10 -51 -45.5 -105.5t-79.5 -89.5l-35 32q26 24 49 54.5t33 59.5q-25 1 -39.5 13t-14.5 33q0 35 24 56t55 21q28 0 42 -14z" />
    <glyph glyph-name="uni1E5A" unicode="&#x1e5a;" horiz-adv-x="675" 
d="M584.5 371.5q-51.5 -52.5 -128.5 -67.5l87 -268q40 -8 69 -20l-3 -16h-176l-89 299h-90l-54 -263q32 -6 73 -20l-3 -16h-285l3 17q49 14 82 20l127 626q-39 8 -71 20l3 17h349q96 0 138.5 -35.5t42.5 -100.5q0 -22 -7 -61q-16 -79 -67.5 -131.5zM530 558q0 96 -103 96
h-100l-63 -310h100q126 0 160 161q6 29 6 53zM318.5 -67.5q11.5 -11.5 11.5 -30.5q0 -29 -19 -50t-47 -21q-21 0 -33 12.5t-12 32.5q0 7 1 11q5 25 23.5 41t43.5 16q20 0 31.5 -11.5z" />
    <glyph glyph-name="uni1E5C" unicode="&#x1e5c;" horiz-adv-x="675" 
d="M606 785h-386l9 44h387zM584.5 371.5q-51.5 -52.5 -128.5 -67.5l87 -268q40 -8 69 -20l-3 -16h-176l-89 299h-90l-54 -263q32 -6 73 -20l-3 -16h-285l3 17q49 14 82 20l127 626q-39 8 -71 20l3 17h349q96 0 138.5 -35.5t42.5 -100.5q0 -22 -7 -61q-16 -79 -67.5 -131.5z
M530 558q0 96 -103 96h-100l-63 -310h100q126 0 160 161q6 29 6 53zM318.5 -67.5q11.5 -11.5 11.5 -30.5q0 -29 -19.5 -50t-47.5 -21q-21 0 -32.5 12t-11.5 32q0 8 1 12q5 25 23.5 41t42.5 16q21 0 32.5 -11.5z" />
    <glyph glyph-name="uni1E5E" unicode="&#x1e5e;" horiz-adv-x="675" 
d="M584.5 371.5q-51.5 -52.5 -128.5 -67.5l87 -268q40 -8 69 -20l-3 -16h-176l-89 299h-90l-54 -263q32 -6 73 -20l-3 -16h-285l3 17q49 14 82 20l127 626q-39 8 -71 20l3 17h349q96 0 138.5 -35.5t42.5 -100.5q0 -22 -7 -61q-16 -79 -67.5 -131.5zM530 558q0 96 -103 96
h-100l-63 -310h100q126 0 160 161q6 29 6 53zM86 -64h355l-8 -43h-356z" />
    <glyph glyph-name="S" unicode="S" horiz-adv-x="559" 
d="M85 16q-58 26 -82 68l42 143h31q1 -7 1 -23q0 -48 -9 -107q19 -27 52.5 -43.5t77.5 -16.5q65 0 117.5 35t65.5 101q3 14 3 26q0 32 -17.5 55t-43.5 38t-70 35q-50 23 -80.5 41.5t-52 49t-21.5 74.5q0 17 5 42q18 86 93 131t187 45q74 0 122.5 -17.5t77.5 -55.5l-38 -130
h-32q-2 22 -2 38q0 37 6 79q-18 19 -48 29t-67 10q-66 0 -108.5 -27t-53.5 -81q-2 -12 -2 -17q0 -25 15 -43.5t37.5 -31t63.5 -32.5q54 -25 87.5 -46.5t57 -56.5t23.5 -86q0 -24 -6 -51q-13 -62 -55.5 -107.5t-105 -69.5t-134.5 -24q-79 0 -137 26z" />
    <glyph glyph-name="Sacute" unicode="&#x15a;" horiz-adv-x="559" 
d="M305 817l140 119q10 10 27 20.5t36 10.5q16 0 24 -8t8 -20q0 -6 -1 -9q-6 -29 -53 -55l-166 -89zM85 16q-58 26 -82 68l42 143h31q1 -7 1 -23q0 -48 -9 -107q19 -27 52.5 -43.5t77.5 -16.5q65 0 117.5 35t65.5 101q3 14 3 26q0 32 -17.5 55t-43.5 38t-70 35
q-50 23 -80.5 41.5t-52 49t-21.5 74.5q0 17 5 42q18 86 93 131t187 45q74 0 122.5 -17.5t77.5 -55.5l-38 -130h-32q-2 22 -2 38q0 37 6 79q-18 19 -48 29t-67 10q-66 0 -108.5 -27t-53.5 -81q-2 -12 -2 -17q0 -25 15 -43.5t37.5 -31t63.5 -32.5q54 -25 87.5 -46.5t57 -56.5
t23.5 -86q0 -24 -6 -51q-13 -62 -55.5 -107.5t-105 -69.5t-134.5 -24q-79 0 -137 26z" />
    <glyph glyph-name="Scaron" unicode="&#x160;" horiz-adv-x="559" 
d="M312.5 857q-36.5 43 -63.5 65l59 41q26 -26 53.5 -61.5t38.5 -60.5h4q23 26 65 61.5t77 60.5l44 -41q-37 -22 -91 -65t-78 -71h-59q-13 28 -49.5 71zM85 16q-58 26 -82 68l42 143h31q1 -7 1 -23q0 -48 -9 -107q19 -27 52.5 -43.5t77.5 -16.5q65 0 117.5 35t65.5 101
q3 14 3 26q0 32 -17.5 55t-43.5 38t-70 35q-50 23 -80.5 41.5t-52 49t-21.5 74.5q0 17 5 42q18 86 93 131t187 45q74 0 122.5 -17.5t77.5 -55.5l-38 -130h-32q-2 22 -2 38q0 37 6 79q-18 19 -48 29t-67 10q-66 0 -108.5 -27t-53.5 -81q-2 -12 -2 -17q0 -25 15 -43.5
t37.5 -31t63.5 -32.5q54 -25 87.5 -46.5t57 -56.5t23.5 -86q0 -24 -6 -51q-13 -62 -55.5 -107.5t-105 -69.5t-134.5 -24q-79 0 -137 26z" />
    <glyph glyph-name="Scedilla" unicode="&#x15e;" horiz-adv-x="559" 
d="M512 545q0 37 6 79q-18 19 -48 29t-67 10q-66 0 -108.5 -27t-53.5 -81q-2 -12 -2 -17q0 -25 15 -43.5t37.5 -31t63.5 -32.5q54 -25 87.5 -46.5t57 -56.5t23.5 -86q0 -24 -6 -51q-17 -85 -87.5 -137.5t-169.5 -61.5l-36 -54q48 0 72.5 -17.5t24.5 -46.5q0 -5 -2 -15
q-10 -48 -52 -74t-99 -26q-27 0 -52 7t-42 20l26 35q29 -16 68 -16q34 0 57.5 13t29.5 41q4 22 -12.5 31.5t-41.5 9.5q-9 0 -23 -2l-16 32l40 60q-72 4 -124.5 29t-74.5 65l42 143h31q1 -7 1 -23q0 -48 -9 -107q19 -27 52.5 -43.5t77.5 -16.5q65 0 117.5 35t65.5 101
q3 14 3 26q0 32 -17.5 55t-43.5 38t-70 35q-50 23 -80.5 41.5t-52 49t-21.5 74.5q0 17 5 42q18 86 93 131t187 45q74 0 122.5 -17.5t77.5 -55.5l-38 -130h-32q-2 22 -2 38z" />
    <glyph glyph-name="Scircumflex" unicode="&#x15c;" horiz-adv-x="559" 
d="M228 823q36 22 90.5 65.5t77.5 70.5h60q13 -28 49.5 -71.5t63.5 -64.5l-60 -41q-25 24 -52.5 60t-39.5 62h-4q-21 -25 -63 -60.5t-78 -61.5zM85 16q-58 26 -82 68l42 143h31q1 -7 1 -23q0 -48 -9 -107q19 -27 52.5 -43.5t77.5 -16.5q65 0 117.5 35t65.5 101q3 14 3 26
q0 32 -17.5 55t-43.5 38t-70 35q-50 23 -80.5 41.5t-52 49t-21.5 74.5q0 17 5 42q18 86 93 131t187 45q74 0 122.5 -17.5t77.5 -55.5l-38 -130h-32q-2 22 -2 38q0 37 6 79q-18 19 -48 29t-67 10q-66 0 -108.5 -27t-53.5 -81q-2 -12 -2 -17q0 -25 15 -43.5t37.5 -31
t63.5 -32.5q54 -25 87.5 -46.5t57 -56.5t23.5 -86q0 -24 -6 -51q-13 -62 -55.5 -107.5t-105 -69.5t-134.5 -24q-79 0 -137 26z" />
    <glyph glyph-name="Scommaaccent" unicode="&#x218;" horiz-adv-x="559" 
d="M85 16q-58 26 -82 68l42 143h31q1 -7 1 -23q0 -48 -9 -107q19 -27 52.5 -43.5t77.5 -16.5q65 0 117.5 35t65.5 101q3 14 3 26q0 32 -17.5 55t-43.5 38t-70 35q-50 23 -80.5 41.5t-52 49t-21.5 74.5q0 17 5 42q18 86 93 131t187 45q74 0 122.5 -17.5t77.5 -55.5l-38 -130
h-32q-2 22 -2 38q0 37 6 79q-18 19 -48 29t-67 10q-66 0 -108.5 -27t-53.5 -81q-2 -12 -2 -17q0 -25 15 -43.5t37.5 -31t63.5 -32.5q54 -25 87.5 -46.5t57 -56.5t23.5 -86q0 -24 -6 -51q-13 -62 -55.5 -107.5t-105 -69.5t-134.5 -24q-79 0 -137 26zM113 -294q25 22 49 53.5
t34 62.5q-22 0 -38 13.5t-16 35.5q0 34 23.5 55t54.5 21q29 0 43.5 -15t14.5 -40q0 -13 -2 -20q-10 -51 -46.5 -107.5t-81.5 -91.5z" />
    <glyph glyph-name="uni1E60" unicode="&#x1e60;" horiz-adv-x="559" 
d="M373 796.5q-11 11.5 -11 30.5q0 30 18.5 50.5t47.5 20.5q20 0 31.5 -11.5t11.5 -30.5q0 -29 -19.5 -50t-46.5 -21q-21 0 -32 11.5zM85 16q-58 26 -82 68l42 143h31q1 -7 1 -23q0 -48 -9 -107q19 -27 52.5 -43.5t77.5 -16.5q65 0 117.5 35t65.5 101q3 14 3 26
q0 32 -17.5 55t-43.5 38t-70 35q-50 23 -80.5 41.5t-52 49t-21.5 74.5q0 17 5 42q18 86 93 131t187 45q74 0 122.5 -17.5t77.5 -55.5l-38 -130h-32q-2 22 -2 38q0 37 6 79q-18 19 -48 29t-67 10q-66 0 -108.5 -27t-53.5 -81q-2 -12 -2 -17q0 -25 15 -43.5t37.5 -31
t63.5 -32.5q54 -25 87.5 -46.5t57 -56.5t23.5 -86q0 -24 -6 -51q-13 -62 -55.5 -107.5t-105 -69.5t-134.5 -24q-79 0 -137 26z" />
    <glyph glyph-name="uni1E62" unicode="&#x1e62;" horiz-adv-x="559" 
d="M85 16q-58 26 -82 68l42 143h31q1 -7 1 -23q0 -48 -9 -107q19 -27 52.5 -43.5t77.5 -16.5q65 0 117.5 35t65.5 101q3 14 3 26q0 32 -17.5 55t-43.5 38t-70 35q-50 23 -80.5 41.5t-52 49t-21.5 74.5q0 17 5 42q18 86 93 131t187 45q74 0 122.5 -17.5t77.5 -55.5l-38 -130
h-32q-2 22 -2 38q0 37 6 79q-18 19 -48 29t-67 10q-66 0 -108.5 -27t-53.5 -81q-2 -12 -2 -17q0 -25 15 -43.5t37.5 -31t63.5 -32.5q54 -25 87.5 -46.5t57 -56.5t23.5 -86q0 -24 -6 -51q-13 -62 -55.5 -107.5t-105 -69.5t-134.5 -24q-79 0 -137 26zM169.5 -157
q-11.5 12 -11.5 32q0 29 20 49t47 20q20 0 31.5 -12t11.5 -31q0 -29 -19 -49.5t-47 -20.5q-21 0 -32.5 12z" />
    <glyph glyph-name="uni1E9E" unicode="&#x1e9e;" horiz-adv-x="717" 
d="M260 8l9 47q56 -21 116 -21q63 0 108.5 47t61.5 124q4 20 4 42q0 52 -30.5 81.5t-90.5 29.5h-78l4 26l212 188q-10 40 -45.5 65.5t-91.5 25.5q-63 0 -106 -39t-57 -109l-98 -478q38 -9 49 -17l-4 -20h-257l3 17q44 12 82 20l90 442q23 110 101 170.5t212 60.5
q68 0 116 -23t74 -59t30 -75l-173 -153q88 -10 137 -51.5t49 -105.5q0 -21 -4 -38q-19 -94 -97 -154.5t-207 -60.5q-71 0 -119 18z" />
    <glyph glyph-name="uni018F" unicode="&#x18f;" horiz-adv-x="713" 
d="M576 676q68 -34 103 -96t35 -145q0 -45 -10 -91q-35 -172 -146 -263t-271 -91q-125 0 -186.5 63.5t-61.5 169.5q0 37 10 89l5 31h524q7 38 7 80q0 105 -50 171.5t-147 66.5q-63 0 -121.5 -16.5t-125.5 -56.5l-7 43q119 79 278 79q96 0 164 -34zM465.5 108.5
q71.5 74.5 101.5 187.5h-396q-9 -43 -9 -87q0 -77 31.5 -126t98.5 -49q102 0 173.5 74.5z" />
    <glyph glyph-name="T" unicode="T" horiz-adv-x="638" 
d="M127 17l53 12l34 8l126 617h-159q-8 -25 -29.5 -75t-32.5 -64h-29l37 185h574l-37 -185h-29q-7 18 -7 88q0 29 2 51h-159l-127 -618q44 -8 80 -20l-3 -16h-297z" />
    <glyph glyph-name="Tbar" unicode="&#x166;" horiz-adv-x="638" 
d="M701 700l-37 -185h-29q-7 18 -7 88q0 29 2 51h-159l-62 -304h144l-9 -44h-145l-55 -270q44 -8 80 -20l-3 -16h-297l3 17l53 12l34 8l55 269h-135l9 44h135l62 304h-159q-8 -25 -29.5 -75t-32.5 -64h-29l37 185h574z" />
    <glyph glyph-name="Tcaron" unicode="&#x164;" horiz-adv-x="638" 
d="M351.5 856.5q-36.5 43.5 -63.5 65.5l58 41q26 -25 53.5 -60.5t38.5 -61.5h4q23 26 65 61.5t77 60.5l44 -41q-37 -22 -91 -65.5t-77 -70.5h-60q-12 27 -48.5 70.5zM127 17l53 12l34 8l126 617h-159q-8 -25 -29.5 -75t-32.5 -64h-29l37 185h574l-37 -185h-29q-7 18 -7 88
q0 29 2 51h-159l-127 -618q44 -8 80 -20l-3 -16h-297z" />
    <glyph glyph-name="uni0162" unicode="&#x162;" horiz-adv-x="638" 
d="M701 700l-37 -185h-29q-7 18 -7 88q0 29 2 51h-159l-127 -618q44 -8 80 -20l-3 -16h-130l-42 -62h10q44 -1 65.5 -18.5t21.5 -45.5q0 -10 -1 -15q-10 -48 -52.5 -74t-99.5 -26q-26 0 -52 7t-43 20l26 35q29 -16 69 -16q34 0 57.5 13t29.5 41q4 22 -12.5 31.5t-42.5 9.5
q-8 0 -22 -2l-17 32l47 70h-109l3 17l53 12l34 8l126 617h-159q-8 -25 -29.5 -75t-32.5 -64h-29l37 185h574z" />
    <glyph glyph-name="uni021A" unicode="&#x21a;" horiz-adv-x="638" 
d="M127 17l53 12l34 8l126 617h-159q-8 -25 -29.5 -75t-32.5 -64h-29l37 185h574l-37 -185h-29q-7 18 -7 88q0 29 2 51h-159l-127 -618q44 -8 80 -20l-3 -16h-297zM148 -314q64 62 81 114q-25 1 -39 13.5t-14 34.5q0 34 23.5 54.5t54.5 20.5q29 0 42.5 -14.5t13.5 -38.5
q0 -7 -2 -21q-10 -51 -45.5 -105.5t-80.5 -89.5z" />
    <glyph glyph-name="uni1E6C" unicode="&#x1e6c;" horiz-adv-x="638" 
d="M127 17l53 12l34 8l126 617h-159q-8 -25 -29.5 -75t-32.5 -64h-29l37 185h574l-37 -185h-29q-7 18 -7 88q0 29 2 51h-159l-127 -618q44 -8 80 -20l-3 -16h-297zM205.5 -157q-11.5 12 -11.5 31q0 29 19.5 49.5t47.5 20.5q20 0 31.5 -11.5t11.5 -30.5q0 -29 -19 -50
t-47 -21q-21 0 -32.5 12z" />
    <glyph glyph-name="uni1E6E" unicode="&#x1e6e;" horiz-adv-x="638" 
d="M127 17l53 12l34 8l126 617h-159q-8 -25 -29.5 -75t-32.5 -64h-29l37 185h574l-37 -185h-29q-7 18 -7 88q0 29 2 51h-159l-127 -618q44 -8 80 -20l-3 -16h-297zM80 -64h356l-9 -43h-355z" />
    <glyph glyph-name="U" unicode="U" horiz-adv-x="759" 
d="M97 158q0 27 6 60l91 445q-45 10 -72 21l2 16h285l-4 -18q-22 -7 -81 -20l-93 -457q-5 -22 -5 -49q0 -119 152 -119q79 0 138.5 40t77.5 128l94 459q-39 6 -74 20l3 16h209l-3 -16q-56 -19 -82 -22l-90 -444q-23 -114 -102.5 -171t-212.5 -57q-239 0 -239 168z" />
    <glyph glyph-name="Uacute" unicode="&#xda;" horiz-adv-x="759" 
d="M431 817l140 119q10 10 26.5 20.5t35.5 10.5q17 0 25 -8t8 -20q0 -6 -1 -9q-6 -29 -53 -55l-166 -89zM97 158q0 27 6 60l91 445q-45 10 -72 21l2 16h285l-4 -18q-22 -7 -81 -20l-93 -457q-5 -22 -5 -49q0 -119 152 -119q79 0 138.5 40t77.5 128l94 459q-39 6 -74 20l3 16
h209l-3 -16q-56 -19 -82 -22l-90 -444q-23 -114 -102.5 -171t-212.5 -57q-239 0 -239 168z" />
    <glyph glyph-name="Ubreve" unicode="&#x16c;" horiz-adv-x="759" 
d="M393.5 812q-36.5 33 -32.5 98h72q-1 -6 -1 -17q0 -40 21 -53.5t55 -13.5q38 0 66 17t44 67h73q-23 -65 -73 -98t-119 -33t-105.5 33zM97 158q0 27 6 60l91 445q-45 10 -72 21l2 16h285l-4 -18q-22 -7 -81 -20l-93 -457q-5 -22 -5 -49q0 -119 152 -119q79 0 138.5 40
t77.5 128l94 459q-39 6 -74 20l3 16h209l-3 -16q-56 -19 -82 -22l-90 -444q-23 -114 -102.5 -171t-212.5 -57q-239 0 -239 168z" />
    <glyph glyph-name="uni01D3" unicode="&#x1d3;" horiz-adv-x="759" 
d="M411.5 856.5q-36.5 43.5 -63.5 65.5l59 41q26 -26 53.5 -61.5t38.5 -60.5h4q22 25 64 61t78 61l44 -41q-37 -22 -91 -65t-78 -71h-60q-12 27 -48.5 70.5zM97 158q0 27 6 60l91 445q-45 10 -72 21l2 16h285l-4 -18q-22 -7 -81 -20l-93 -457q-5 -22 -5 -49q0 -119 152 -119
q79 0 138.5 40t77.5 128l94 459q-39 6 -74 20l3 16h209l-3 -16q-56 -19 -82 -22l-90 -444q-23 -114 -102.5 -171t-212.5 -57q-239 0 -239 168z" />
    <glyph glyph-name="Ucircumflex" unicode="&#xdb;" horiz-adv-x="759" 
d="M329 823q36 22 90.5 65.5t77.5 70.5h59q14 -28 50.5 -71.5t63.5 -64.5l-60 -41q-26 25 -53.5 60.5t-38.5 61.5h-4q-21 -25 -62.5 -60t-78.5 -62zM97 158q0 27 6 60l91 445q-45 10 -72 21l2 16h285l-4 -18q-22 -7 -81 -20l-93 -457q-5 -22 -5 -49q0 -119 152 -119
q79 0 138.5 40t77.5 128l94 459q-39 6 -74 20l3 16h209l-3 -16q-56 -19 -82 -22l-90 -444q-23 -114 -102.5 -171t-212.5 -57q-239 0 -239 168z" />
    <glyph glyph-name="Udieresis" unicode="&#xdc;" horiz-adv-x="759" 
d="M367 797q-11 12 -11 31q0 29 19 49.5t45 20.5q21 0 33 -11.5t12 -30.5q0 -5 -2 -15q-4 -24 -22.5 -40t-43.5 -16q-19 0 -30 12zM590 796.5q-11 11.5 -11 30.5q0 30 18.5 50.5t47.5 20.5q20 0 32 -11.5t12 -31.5q0 -29 -19.5 -49.5t-47.5 -20.5q-21 0 -32 11.5zM97 158
q0 27 6 60l91 445q-45 10 -72 21l2 16h285l-4 -18q-22 -7 -81 -20l-93 -457q-5 -22 -5 -49q0 -119 152 -119q79 0 138.5 40t77.5 128l94 459q-39 6 -74 20l3 16h209l-3 -16q-56 -19 -82 -22l-90 -444q-23 -114 -102.5 -171t-212.5 -57q-239 0 -239 168z" />
    <glyph glyph-name="uni01D7" unicode="&#x1d7;" horiz-adv-x="759" 
d="M497 960l125 110q32 32 60 32q20 0 28.5 -12.5t5.5 -26.5q-6 -29 -53 -55l-152 -79zM368.5 796q-11.5 11 -11.5 30q0 30 19 51t48 21q21 0 32.5 -12t11.5 -31q0 -29 -19.5 -49.5t-47.5 -20.5q-21 0 -32.5 11zM592.5 797q-11.5 12 -11.5 31q0 29 19.5 49.5t47.5 20.5
q20 0 32 -12t12 -31q0 -29 -20 -49.5t-47 -20.5q-21 0 -32.5 12zM97 158q0 27 6 60l91 445q-45 10 -72 21l2 16h285l-4 -18q-22 -7 -81 -20l-93 -457q-5 -22 -5 -49q0 -119 152 -119q79 0 138.5 40t77.5 128l94 459q-39 6 -74 20l3 16h209l-3 -16q-56 -19 -82 -22l-90 -444
q-23 -114 -102.5 -171t-212.5 -57q-239 0 -239 168z" />
    <glyph glyph-name="uni01D9" unicode="&#x1d9;" horiz-adv-x="759" 
d="M459 981.5q-37 43.5 -65 65.5l61 41q26 -26 53.5 -61.5t38.5 -60.5h4q23 26 64.5 62t76.5 60l44 -41q-36 -21 -90 -64.5t-79 -71.5h-59q-12 27 -49 70.5zM368 796q-11 11 -11 30q0 5 2 15q4 24 21.5 40t41.5 16q21 0 32.5 -12t11.5 -31q0 -30 -19 -49.5t-47 -19.5
q-21 0 -32 11zM592 796.5q-11 11.5 -11 30.5q0 30 18.5 50t46.5 20q21 0 33 -12t12 -32q0 -8 -1 -12q-5 -25 -23 -40.5t-43 -15.5q-21 0 -32 11.5zM97 158q0 27 6 60l91 445q-45 10 -72 21l2 16h285l-4 -18q-22 -7 -81 -20l-93 -457q-5 -22 -5 -49q0 -119 152 -119
q79 0 138.5 40t77.5 128l94 459q-39 6 -74 20l3 16h209l-3 -16q-56 -19 -82 -22l-90 -444q-23 -114 -102.5 -171t-212.5 -57q-239 0 -239 168z" />
    <glyph glyph-name="uni01DB" unicode="&#x1db;" horiz-adv-x="759" 
d="M453 968q-17 11 -25 21.5t-8 22.5q0 15 13.5 29.5t32.5 14.5q25 0 51 -31l68 -93l-28 -32zM368 796q-11 11 -11 30q0 5 2 15q4 24 21.5 40t41.5 16q21 0 32.5 -12t11.5 -31q0 -30 -19 -49.5t-47 -19.5q-21 0 -32 11zM592 796.5q-11 11.5 -11 30.5q0 30 18.5 50t46.5 20
q21 0 33 -12t12 -32q0 -8 -1 -12q-5 -25 -23 -40.5t-43 -15.5q-21 0 -32 11.5zM97 158q0 27 6 60l91 445q-45 10 -72 21l2 16h285l-4 -18q-22 -7 -81 -20l-93 -457q-5 -22 -5 -49q0 -119 152 -119q79 0 138.5 40t77.5 128l94 459q-39 6 -74 20l3 16h209l-3 -16
q-56 -19 -82 -22l-90 -444q-23 -114 -102.5 -171t-212.5 -57q-239 0 -239 168z" />
    <glyph glyph-name="uni01D5" unicode="&#x1d5;" horiz-adv-x="759" 
d="M382 1005h349l-8 -44h-350zM368.5 796q-11.5 11 -11.5 30q0 30 19 51t48 21q21 0 32.5 -12t11.5 -31q0 -29 -19.5 -49.5t-47.5 -20.5q-21 0 -32.5 11zM592.5 797q-11.5 12 -11.5 31q0 29 19.5 49.5t47.5 20.5q20 0 32 -12t12 -31q0 -29 -20 -49.5t-47 -20.5
q-21 0 -32.5 12zM97 158q0 27 6 60l91 445q-45 10 -72 21l2 16h285l-4 -18q-22 -7 -81 -20l-93 -457q-5 -22 -5 -49q0 -119 152 -119q79 0 138.5 40t77.5 128l94 459q-39 6 -74 20l3 16h209l-3 -16q-56 -19 -82 -22l-90 -444q-23 -114 -102.5 -171t-212.5 -57
q-239 0 -239 168z" />
    <glyph glyph-name="uni1EE4" unicode="&#x1ee4;" horiz-adv-x="759" 
d="M97 158q0 27 6 60l91 445q-45 10 -72 21l2 16h285l-4 -18q-22 -7 -81 -20l-93 -457q-5 -22 -5 -49q0 -119 152 -119q79 0 138.5 40t77.5 128l94 459q-39 6 -74 20l3 16h209l-3 -16q-56 -19 -82 -22l-90 -444q-23 -114 -102.5 -171t-212.5 -57q-239 0 -239 168z
M280 -156.5q-12 12.5 -12 32.5q0 7 1 11q5 25 23.5 41t43.5 16q20 0 31.5 -11.5t11.5 -30.5q0 -29 -19 -50t-47 -21q-21 0 -33 12.5z" />
    <glyph glyph-name="Ugrave" unicode="&#xd9;" horiz-adv-x="759" 
d="M449 875q-20 13 -28 26t-5 28t15.5 26.5t29.5 11.5q18 0 31.5 -10t21.5 -20l91 -120l-26 -31zM97 158q0 27 6 60l91 445q-45 10 -72 21l2 16h285l-4 -18q-22 -7 -81 -20l-93 -457q-5 -22 -5 -49q0 -119 152 -119q79 0 138.5 40t77.5 128l94 459q-39 6 -74 20l3 16h209
l-3 -16q-56 -19 -82 -22l-90 -444q-23 -114 -102.5 -171t-212.5 -57q-239 0 -239 168z" />
    <glyph glyph-name="uni1EE6" unicode="&#x1ee6;" horiz-adv-x="759" 
d="M508 881h31q25 0 44.5 13t24.5 39q1 3 1 9q0 17 -13 28t-37 11q-29 0 -62 -16l1 36q40 17 83 17q40 0 66.5 -16.5t26.5 -51.5q0 -5 -2 -19q-16 -74 -104 -82l-24 -68h-52zM97 158q0 27 6 60l91 445q-45 10 -72 21l2 16h285l-4 -18q-22 -7 -81 -20l-93 -457q-5 -22 -5 -49
q0 -119 152 -119q79 0 138.5 40t77.5 128l94 459q-39 6 -74 20l3 16h209l-3 -16q-56 -19 -82 -22l-90 -444q-23 -114 -102.5 -171t-212.5 -57q-239 0 -239 168z" />
    <glyph glyph-name="Uhorn" unicode="&#x1af;" horiz-adv-x="759" 
d="M97 158q0 27 6 60l91 445q-45 10 -72 21l2 16h285l-4 -18q-22 -7 -81 -20l-93 -457q-5 -22 -5 -49q0 -119 152 -119q79 0 138.5 40t77.5 128l94 459q-39 6 -74 20l3 16h135q42 0 74 13t44 41q-8 -4 -17 -4q-20 0 -32.5 12t-12.5 32q0 15 8 32.5t26 30t46 12.5
q56 0 56 -50q0 -36 -21.5 -69.5t-67 -57.5t-114.5 -31l-90 -443q-23 -114 -102.5 -171t-212.5 -57q-239 0 -239 168z" />
    <glyph glyph-name="uni1EE8" unicode="&#x1ee8;" horiz-adv-x="759" 
d="M460 816l141 119q8 9 25.5 20t36.5 11q17 0 25 -8t8 -20q0 -6 -1 -9q-6 -29 -53 -55l-166 -89zM97 158q0 27 6 60l91 445q-45 10 -72 21l2 16h285l-4 -18q-22 -7 -81 -20l-93 -457q-5 -22 -5 -49q0 -119 152 -119q79 0 138.5 40t77.5 128l94 459q-39 6 -74 20l3 16h135
q42 0 74 13t44 41q-8 -4 -17 -4q-20 0 -32.5 12t-12.5 32q0 15 8 32.5t26 30t46 12.5q56 0 56 -50q0 -36 -21.5 -69.5t-67 -57.5t-114.5 -31l-90 -443q-23 -114 -102.5 -171t-212.5 -57q-239 0 -239 168z" />
    <glyph glyph-name="uni1EF0" unicode="&#x1ef0;" horiz-adv-x="759" 
d="M97 158q0 27 6 60l91 445q-45 10 -72 21l2 16h285l-4 -18q-22 -7 -81 -20l-93 -457q-5 -22 -5 -49q0 -119 152 -119q79 0 138.5 40t77.5 128l94 459q-39 6 -74 20l3 16h135q42 0 74 13t44 41q-8 -4 -17 -4q-20 0 -32.5 12t-12.5 32q0 15 8 32.5t26 30t46 12.5
q56 0 56 -50q0 -36 -21.5 -69.5t-67 -57.5t-114.5 -31l-90 -443q-23 -114 -102.5 -171t-212.5 -57q-239 0 -239 168zM281 -156.5q-12 12.5 -12 32.5q0 7 1 11q5 25 23.5 41t43.5 16q20 0 31.5 -11.5t11.5 -30.5q0 -29 -19 -50t-47 -21q-21 0 -33 12.5z" />
    <glyph glyph-name="uni1EEA" unicode="&#x1eea;" horiz-adv-x="759" 
d="M454 873q-20 13 -28 26t-5 28t15.5 26.5t29.5 11.5q18 0 31.5 -10t21.5 -20l91 -120l-27 -31zM97 158q0 27 6 60l91 445q-45 10 -72 21l2 16h285l-4 -18q-22 -7 -81 -20l-93 -457q-5 -22 -5 -49q0 -119 152 -119q79 0 138.5 40t77.5 128l94 459q-39 6 -74 20l3 16h135
q42 0 74 13t44 41q-8 -4 -17 -4q-20 0 -32.5 12t-12.5 32q0 15 8 32.5t26 30t46 12.5q56 0 56 -50q0 -36 -21.5 -69.5t-67 -57.5t-114.5 -31l-90 -443q-23 -114 -102.5 -171t-212.5 -57q-239 0 -239 168z" />
    <glyph glyph-name="uni1EEC" unicode="&#x1eec;" horiz-adv-x="759" 
d="M508 881h32q25 0 44.5 13t24.5 39q1 3 1 9q0 17 -13 28t-37 11q-29 0 -62 -16l1 36q40 17 83 17q40 0 66.5 -16.5t26.5 -51.5q0 -5 -2 -19q-16 -74 -104 -82l-24 -68h-52zM97 158q0 27 6 60l91 445q-45 10 -72 21l2 16h285l-4 -18q-22 -7 -81 -20l-93 -457q-5 -22 -5 -49
q0 -119 152 -119q79 0 138.5 40t77.5 128l94 459q-39 6 -74 20l3 16h135q42 0 74 13t44 41q-8 -4 -17 -4q-20 0 -32.5 12t-12.5 32q0 15 8 32.5t26 30t46 12.5q56 0 56 -50q0 -36 -21.5 -69.5t-67 -57.5t-114.5 -31l-90 -443q-23 -114 -102.5 -171t-212.5 -57
q-239 0 -239 168z" />
    <glyph glyph-name="uni1EEE" unicode="&#x1eee;" horiz-adv-x="759" 
d="M377 865q34 28 80 28q24 0 42 -8t42 -23q17 -11 28 -16.5t23 -5.5q49 0 73 56h49q-37 -114 -132 -114q-19 0 -37.5 8t-43.5 23q-21 12 -33.5 17.5t-23.5 5.5q-22 0 -40 -14.5t-28 -39.5h-51q18 55 52 83zM97 158q0 27 6 60l91 445q-45 10 -72 21l2 16h285l-4 -18
q-22 -7 -81 -20l-93 -457q-5 -22 -5 -49q0 -119 152 -119q79 0 138.5 40t77.5 128l94 459q-39 6 -74 20l3 16h135q42 0 74 13t44 41q-8 -4 -17 -4q-20 0 -32.5 12t-12.5 32q0 15 8 32.5t26 30t46 12.5q56 0 56 -50q0 -36 -21.5 -69.5t-67 -57.5t-114.5 -31l-90 -443
q-23 -114 -102.5 -171t-212.5 -57q-239 0 -239 168z" />
    <glyph glyph-name="Uhungarumlaut" unicode="&#x170;" horiz-adv-x="759" 
d="M324 816l137 119q35 31 62 31q18 0 26.5 -8.5t8.5 -20.5q0 -5 -1 -8q-4 -27 -53 -55l-165 -90zM527 816l138 119q35 31 62 31q20 0 28.5 -11.5t5.5 -25.5q-5 -28 -54 -55l-166 -90zM97 158q0 27 6 60l91 445q-45 10 -72 21l2 16h285l-4 -18q-22 -7 -81 -20l-93 -457
q-5 -22 -5 -49q0 -119 152 -119q79 0 138.5 40t77.5 128l94 459q-39 6 -74 20l3 16h209l-3 -16q-56 -19 -82 -22l-90 -444q-23 -114 -102.5 -171t-212.5 -57q-239 0 -239 168z" />
    <glyph glyph-name="Umacron" unicode="&#x16a;" horiz-adv-x="759" 
d="M323 830h355l-8 -44h-355zM97 158q0 27 6 60l91 445q-45 10 -72 21l2 16h285l-4 -18q-22 -7 -81 -20l-93 -457q-5 -22 -5 -49q0 -119 152 -119q79 0 138.5 40t77.5 128l94 459q-39 6 -74 20l3 16h209l-3 -16q-56 -19 -82 -22l-90 -444q-23 -114 -102.5 -171t-212.5 -57
q-239 0 -239 168z" />
    <glyph glyph-name="Uogonek" unicode="&#x172;" horiz-adv-x="759" 
d="M826 700l-3 -16q-56 -19 -82 -22l-90 -444q-37 -185 -223 -220q-28 -17 -48.5 -45t-20.5 -53q0 -19 13 -29.5t36 -10.5q27 0 64 19l-12 -56q-20 -11 -47 -17t-55 -6q-49 0 -75.5 19.5t-26.5 51.5q0 4 2 16q7 30 29.5 58t56.5 45h-8q-239 0 -239 168q0 27 6 60l91 445
q-45 10 -72 21l2 16h285l-4 -18q-22 -7 -81 -20l-93 -457q-5 -22 -5 -49q0 -119 152 -119q79 0 138.5 40t77.5 128l94 459q-39 6 -74 20l3 16h209z" />
    <glyph glyph-name="Uring" unicode="&#x16e;" horiz-adv-x="759" 
d="M466 797q-22 20 -22 55q0 6 2 22q10 44 43 71t77 27q38 0 59.5 -20.5t21.5 -54.5q0 -15 -2 -23q-9 -43 -41.5 -70t-76.5 -27q-39 0 -61 20zM582 837.5q20 19.5 20 49.5q0 20 -12 31.5t-33 11.5q-24 0 -43 -15.5t-25 -40.5q-1 -4 -1 -12q0 -20 13 -32t33 -12q28 0 48 19.5
zM97 158q0 27 6 60l91 445q-45 10 -72 21l2 16h285l-4 -18q-22 -7 -81 -20l-93 -457q-5 -22 -5 -49q0 -119 152 -119q79 0 138.5 40t77.5 128l94 459q-39 6 -74 20l3 16h209l-3 -16q-56 -19 -82 -22l-90 -444q-23 -114 -102.5 -171t-212.5 -57q-239 0 -239 168z" />
    <glyph glyph-name="Utilde" unicode="&#x168;" horiz-adv-x="759" 
d="M362.5 869q33.5 28 79.5 28q24 0 42 -8t43 -23q17 -11 28 -16.5t23 -5.5q48 0 73 56h49q-39 -114 -132 -114q-20 0 -39 8t-44 23q-19 11 -31.5 17t-23.5 6q-22 0 -40 -14.5t-28 -39.5h-51q18 55 51.5 83zM97 158q0 27 6 60l91 445q-45 10 -72 21l2 16h285l-4 -18
q-22 -7 -81 -20l-93 -457q-5 -22 -5 -49q0 -119 152 -119q79 0 138.5 40t77.5 128l94 459q-39 6 -74 20l3 16h209l-3 -16q-56 -19 -82 -22l-90 -444q-23 -114 -102.5 -171t-212.5 -57q-239 0 -239 168z" />
    <glyph glyph-name="V" unicode="V" horiz-adv-x="735" 
d="M177 662q-31 5 -69 22l3 16h277l-3 -19q-46 -15 -82 -20l67 -553l295 555q-41 7 -75 22l3 15h223l-4 -19q-58 -19 -79 -21l-365 -666h-98z" />
    <glyph glyph-name="W" unicode="W" horiz-adv-x="995" 
d="M175 662q-23 4 -67 22l3 16h277l-3 -17q-16 -7 -41.5 -13.5t-43.5 -8.5l11 -508l268 517h56l65 -573l252 571q-37 6 -61 15l2 17h181l-3 -14q-31 -16 -60 -19l-302 -671h-111l-56 485l-250 -485h-94z" />
    <glyph glyph-name="Wacute" unicode="&#x1e82;" horiz-adv-x="995" 
d="M556 817l141 119q8 9 25.5 20t36.5 11q17 0 25 -8t8 -20q0 -6 -1 -9q-6 -29 -53 -55l-166 -89zM175 662q-23 4 -67 22l3 16h277l-3 -17q-16 -7 -41.5 -13.5t-43.5 -8.5l11 -508l268 517h56l65 -573l252 571q-37 6 -61 15l2 17h181l-3 -14q-31 -16 -60 -19l-302 -671h-111
l-56 485l-250 -485h-94z" />
    <glyph glyph-name="Wcircumflex" unicode="&#x174;" horiz-adv-x="995" 
d="M468 823q36 22 90.5 65.5t77.5 70.5h60q13 -28 49.5 -71.5t63.5 -64.5l-60 -41q-25 24 -52.5 60t-39.5 62h-4q-21 -25 -63 -60.5t-78 -61.5zM175 662q-23 4 -67 22l3 16h277l-3 -17q-16 -7 -41.5 -13.5t-43.5 -8.5l11 -508l268 517h56l65 -573l252 571q-37 6 -61 15l2 17
h181l-3 -14q-31 -16 -60 -19l-302 -671h-111l-56 485l-250 -485h-94z" />
    <glyph glyph-name="Wdieresis" unicode="&#x1e84;" horiz-adv-x="995" 
d="M486 797q-11 12 -11 31q0 29 19 49.5t45 20.5q21 0 33 -11.5t12 -30.5q0 -5 -2 -15q-4 -24 -22.5 -40t-43.5 -16q-19 0 -30 12zM709 796.5q-11 11.5 -11 30.5q0 30 18.5 50.5t47.5 20.5q20 0 32 -11.5t12 -31.5q0 -29 -19.5 -49.5t-47.5 -20.5q-21 0 -32 11.5zM175 662
q-23 4 -67 22l3 16h277l-3 -17q-16 -7 -41.5 -13.5t-43.5 -8.5l11 -508l268 517h56l65 -573l252 571q-37 6 -61 15l2 17h181l-3 -14q-31 -16 -60 -19l-302 -671h-111l-56 485l-250 -485h-94z" />
    <glyph glyph-name="Wgrave" unicode="&#x1e80;" horiz-adv-x="995" 
d="M560 875q-33 23 -33 46q0 5 1 8q3 15 15.5 26.5t29.5 11.5q18 0 31.5 -10t21.5 -20l91 -120l-27 -31zM175 662q-23 4 -67 22l3 16h277l-3 -17q-16 -7 -41.5 -13.5t-43.5 -8.5l11 -508l268 517h56l65 -573l252 571q-37 6 -61 15l2 17h181l-3 -14q-31 -16 -60 -19
l-302 -671h-111l-56 485l-250 -485h-94z" />
    <glyph glyph-name="X" unicode="X" horiz-adv-x="677" 
d="M734 700l-3 -15q-38 -16 -61 -21l-256 -275l147 -352q44 -12 68 -21l-2 -16h-279l2 13q48 21 89 26l-109 259l-246 -264q9 -3 27.5 -8t31.5 -10l-3 -16h-179l3 17l61 18l286 307l-134 319q-34 8 -66 22l3 17h279l-4 -19q-54 -17 -88 -21l95 -227l215 231q-25 7 -59 19
l3 17h179z" />
    <glyph glyph-name="Y" unicode="Y" horiz-adv-x="714" 
d="M175 15q55 19 80 21l55 269l-131 356q-41 9 -71 22l3 17h281l-4 -19q-51 -16 -85 -21l112 -301l246 306q-30 7 -58 19l2 16h190l-4 -19q-17 -7 -59 -17l-292 -360l-54 -268q31 -6 74 -20l-3 -16h-285z" />
    <glyph glyph-name="Yacute" unicode="&#xdd;" horiz-adv-x="714" 
d="M409 817l140 119q10 10 26.5 20.5t35.5 10.5q17 0 25 -8t8 -20q0 -6 -1 -9q-6 -29 -53 -55l-166 -89zM175 15q55 19 80 21l55 269l-131 356q-41 9 -71 22l3 17h281l-4 -19q-51 -16 -85 -21l112 -301l246 306q-30 7 -58 19l2 16h190l-4 -19q-17 -7 -59 -17l-292 -360
l-54 -268q31 -6 74 -20l-3 -16h-285z" />
    <glyph glyph-name="Ycircumflex" unicode="&#x176;" horiz-adv-x="714" 
d="M305 823q36 22 90.5 65.5t77.5 70.5h59q14 -28 50.5 -71.5t63.5 -64.5l-60 -41q-26 25 -53.5 60.5t-38.5 61.5h-4q-21 -25 -62.5 -60t-78.5 -62zM175 15q55 19 80 21l55 269l-131 356q-41 9 -71 22l3 17h281l-4 -19q-51 -16 -85 -21l112 -301l246 306q-30 7 -58 19l2 16
h190l-4 -19q-17 -7 -59 -17l-292 -360l-54 -268q31 -6 74 -20l-3 -16h-285z" />
    <glyph glyph-name="Ydieresis" unicode="&#x178;" horiz-adv-x="714" 
d="M351 797q-11 12 -11 32q0 8 1 12q5 25 23 41t41 16q21 0 33 -11.5t12 -31.5q0 -29 -20 -49.5t-48 -20.5q-20 0 -31 12zM574.5 797q-11.5 12 -11.5 31q0 8 1 13q5 25 23 41t42 16q21 0 32.5 -12t11.5 -32q0 -29 -19.5 -49t-47.5 -20q-20 0 -31.5 12zM175 15q55 19 80 21
l55 269l-131 356q-41 9 -71 22l3 17h281l-4 -19q-51 -16 -85 -21l112 -301l246 306q-30 7 -58 19l2 16h190l-4 -19q-17 -7 -59 -17l-292 -360l-54 -268q31 -6 74 -20l-3 -16h-285z" />
    <glyph glyph-name="uni1E8E" unicode="&#x1e8e;" horiz-adv-x="714" 
d="M445 796.5q-11 11.5 -11 30.5q0 30 18.5 50.5t47.5 20.5q20 0 31.5 -11.5t11.5 -30.5q0 -29 -19.5 -50t-46.5 -21q-21 0 -32 11.5zM175 15q55 19 80 21l55 269l-131 356q-41 9 -71 22l3 17h281l-4 -19q-51 -16 -85 -21l112 -301l246 306q-30 7 -58 19l2 16h190l-4 -19
q-17 -7 -59 -17l-292 -360l-54 -268q31 -6 74 -20l-3 -16h-285z" />
    <glyph glyph-name="uni1EF4" unicode="&#x1ef4;" horiz-adv-x="714" 
d="M175 15q55 19 80 21l55 269l-131 356q-41 9 -71 22l3 17h281l-4 -19q-51 -16 -85 -21l112 -301l246 306q-30 7 -58 19l2 16h190l-4 -19q-17 -7 -59 -17l-292 -360l-54 -268q31 -6 74 -20l-3 -16h-285zM242.5 -157q-11.5 12 -11.5 32q0 29 20 49t47 20q20 0 31.5 -12
t11.5 -31q0 -29 -19 -49.5t-47 -20.5q-21 0 -32.5 12z" />
    <glyph glyph-name="Ygrave" unicode="&#x1ef2;" horiz-adv-x="714" 
d="M410 875q-20 13 -28 26t-5 28t15.5 26.5t29.5 11.5q18 0 31.5 -10t21.5 -20l91 -120l-27 -31zM175 15q55 19 80 21l55 269l-131 356q-41 9 -71 22l3 17h281l-4 -19q-51 -16 -85 -21l112 -301l246 306q-30 7 -58 19l2 16h190l-4 -19q-17 -7 -59 -17l-292 -360l-54 -268
q31 -6 74 -20l-3 -16h-285z" />
    <glyph glyph-name="uni1EF6" unicode="&#x1ef6;" horiz-adv-x="714" 
d="M492 884h32q25 0 44 13t25 39q1 3 1 9q0 17 -13 28t-37 11q-29 0 -62 -16l1 36q40 17 83 17q40 0 66 -16.5t26 -50.5q0 -6 -2 -20q-15 -74 -103 -82l-24 -68h-52zM175 15q55 19 80 21l55 269l-131 356q-41 9 -71 22l3 17h281l-4 -19q-51 -16 -85 -21l112 -301l246 306
q-30 7 -58 19l2 16h190l-4 -19q-17 -7 -59 -17l-292 -360l-54 -268q31 -6 74 -20l-3 -16h-285z" />
    <glyph glyph-name="uni1EF8" unicode="&#x1ef8;" horiz-adv-x="714" 
d="M348 869q34 28 80 28q24 0 42 -8t42 -23q17 -11 28 -16.5t23 -5.5q49 0 73 56h49q-37 -114 -131 -114q-20 0 -38.5 8t-43.5 23q-21 12 -33.5 17.5t-23.5 5.5q-21 0 -39 -14.5t-29 -39.5h-51q18 55 52 83zM175 15q55 19 80 21l55 269l-131 356q-41 9 -71 22l3 17h281
l-4 -19q-51 -16 -85 -21l112 -301l246 306q-30 7 -58 19l2 16h190l-4 -19q-17 -7 -59 -17l-292 -360l-54 -268q31 -6 74 -20l-3 -16h-285z" />
    <glyph glyph-name="Z" unicode="Z" horiz-adv-x="580" 
d="M-19 29l518 625h-295q-6 -21 -26 -62.5t-32 -58.5h-29l33 167h497l-4 -19l-522 -637h318q7 25 30.5 64.5t39.5 56.5h29l-51 -165h-511z" />
    <glyph glyph-name="Zacute" unicode="&#x179;" horiz-adv-x="580" 
d="M355 817l140 119q10 10 27 20.5t35 10.5q17 0 25 -8t8 -20q0 -6 -1 -9q-6 -29 -53 -55l-166 -89zM-19 29l518 625h-295q-6 -21 -26 -62.5t-32 -58.5h-29l33 167h497l-4 -19l-522 -637h318q7 25 30.5 64.5t39.5 56.5h29l-51 -165h-511z" />
    <glyph glyph-name="Zcaron" unicode="&#x17d;" horiz-adv-x="580" 
d="M335.5 857q-36.5 43 -63.5 65l59 41q26 -25 53.5 -60.5t38.5 -61.5h4q23 26 65 61.5t77 60.5l44 -41q-37 -22 -91 -65t-78 -71h-59q-13 28 -49.5 71zM-19 29l518 625h-295q-6 -21 -26 -62.5t-32 -58.5h-29l33 167h497l-4 -19l-522 -637h318q7 25 30.5 64.5t39.5 56.5h29
l-51 -165h-511z" />
    <glyph glyph-name="Zdotaccent" unicode="&#x17b;" horiz-adv-x="580" 
d="M377 797q-11 12 -11 32q0 8 1 12q5 25 23 41t43 16q20 0 31.5 -11.5t11.5 -31.5q0 -29 -19.5 -49.5t-46.5 -20.5q-22 0 -33 12zM-19 29l518 625h-295q-6 -21 -26 -62.5t-32 -58.5h-29l33 167h497l-4 -19l-522 -637h318q7 25 30.5 64.5t39.5 56.5h29l-51 -165h-511z" />
    <glyph glyph-name="uni1E92" unicode="&#x1e92;" horiz-adv-x="580" 
d="M-19 29l518 625h-295q-6 -21 -26 -62.5t-32 -58.5h-29l33 167h497l-4 -19l-522 -637h318q7 25 30.5 64.5t39.5 56.5h29l-51 -165h-511zM173.5 -157q-11.5 12 -11.5 31q0 9 1 13q5 25 23.5 41t42.5 16q21 0 32 -11.5t11 -30.5q0 -5 -2 -15q-4 -24 -21.5 -40t-42.5 -16
q-21 0 -32.5 12z" />
    <glyph glyph-name="a" unicode="a" horiz-adv-x="570" 
d="M46.5 28q-27.5 38 -27.5 99q0 31 9 76q25 124 100 214t209 90q48 0 85 -30l4 21h126l-82 -400q-3 -15 -3 -26q0 -24 16 -24q18 0 43 34t42 73l23 -12q-28 -66 -73 -109.5t-101 -43.5q-32 0 -53.5 22t-21.5 62q0 14 3 29l20 98q-99 -211 -229 -211q-62 0 -89.5 38zM272 97
q41 50 74.5 116t41.5 104l24 120q-29 33 -69 33q-66 0 -113.5 -69t-68.5 -165q-11 -49 -11 -98q0 -91 48 -91q33 0 74 50z" />
    <glyph glyph-name="aacute" unicode="&#xe1;" horiz-adv-x="570" 
d="M263 615l140 119q10 10 26.5 20.5t35.5 10.5q17 0 25 -8t8 -20q0 -6 -1 -9q-6 -29 -53 -55l-166 -89zM46.5 28q-27.5 38 -27.5 99q0 31 9 76q25 124 100 214t209 90q48 0 85 -30l4 21h126l-82 -400q-3 -15 -3 -26q0 -24 16 -24q18 0 43 34t42 73l23 -12
q-28 -66 -73 -109.5t-101 -43.5q-32 0 -53.5 22t-21.5 62q0 14 3 29l20 98q-99 -211 -229 -211q-62 0 -89.5 38zM272 97q41 50 74.5 116t41.5 104l24 120q-29 33 -69 33q-66 0 -113.5 -69t-68.5 -165q-11 -49 -11 -98q0 -91 48 -91q33 0 74 50z" />
    <glyph glyph-name="abreve" unicode="&#x103;" horiz-adv-x="570" 
d="M231 610.5q-36 32.5 -33 98.5h72q-1 -5 -1 -15q0 -40 21.5 -54.5t55.5 -14.5q38 0 66 17t44 67h73q-23 -65 -73 -98t-119 -33q-70 0 -106 32.5zM46.5 28q-27.5 38 -27.5 99q0 31 9 76q25 124 100 214t209 90q48 0 85 -30l4 21h126l-82 -400q-3 -15 -3 -26q0 -24 16 -24
q18 0 43 34t42 73l23 -12q-28 -66 -73 -109.5t-101 -43.5q-32 0 -53.5 22t-21.5 62q0 14 3 29l20 98q-99 -211 -229 -211q-62 0 -89.5 38zM272 97q41 50 74.5 116t41.5 104l24 120q-29 33 -69 33q-66 0 -113.5 -69t-68.5 -165q-11 -49 -11 -98q0 -91 48 -91q33 0 74 50z" />
    <glyph glyph-name="uni1EAF" unicode="&#x1eaf;" horiz-adv-x="570" 
d="M340 740l87 82q45 42 76 42q14 0 22 -7.5t8 -19.5q0 -17 -18.5 -36.5t-51.5 -35.5l-109 -52zM241.5 611q-36.5 33 -32.5 98h73q-1 -7 -1 -18q0 -39 21 -52.5t55 -13.5q37 0 66 17t44 67h72q-23 -65 -73 -98t-119 -33t-105.5 33zM46.5 28q-27.5 38 -27.5 99q0 31 9 76
q25 124 100 214t209 90q48 0 85 -30l4 21h126l-82 -400q-3 -15 -3 -26q0 -24 16 -24q18 0 43 34t42 73l23 -12q-28 -66 -73 -109.5t-101 -43.5q-32 0 -53.5 22t-21.5 62q0 14 3 29l20 98q-99 -211 -229 -211q-62 0 -89.5 38zM272 97q41 50 74.5 116t41.5 104l24 120
q-29 33 -69 33q-66 0 -113.5 -69t-68.5 -165q-11 -49 -11 -98q0 -91 48 -91q33 0 74 50z" />
    <glyph glyph-name="uni1EB7" unicode="&#x1eb7;" horiz-adv-x="570" 
d="M280 709q-1 -6 -1 -17q0 -40 21 -53.5t55 -13.5q38 0 66 17t44 67h73q-23 -65 -73 -98t-119 -33t-105.5 33t-32.5 98h72zM128 417q75 90 209 90q48 0 85 -30l4 21h126l-82 -400q-3 -15 -3 -26q0 -24 16 -24q18 0 43 34t42 73l23 -12q-28 -66 -73 -109.5t-101 -43.5
q-32 0 -53.5 22t-21.5 62q0 14 3 29l20 98q-99 -211 -229 -211q-62 0 -89.5 38t-27.5 99q0 31 9 76q25 124 100 214zM150 138q0 -91 48 -91q33 0 74 50t74.5 116t41.5 104l24 120q-29 33 -69 33q-66 0 -113.5 -69t-68.5 -165q-11 -49 -11 -98zM164.5 -72q18.5 16 42.5 16
q21 0 32 -11.5t11 -30.5q0 -5 -2 -15q-4 -24 -21.5 -40t-42.5 -16q-21 0 -32.5 12t-11.5 31q0 9 1 13q5 25 23.5 41z" />
    <glyph glyph-name="uni1EB1" unicode="&#x1eb1;" horiz-adv-x="570" 
d="M314 765q-25 14 -35.5 31.5t-7.5 34.5q3 14 14.5 23.5t28.5 9.5q33 0 59 -42l55 -82l-26 -27zM240.5 611q-36.5 33 -32.5 98h73q-1 -7 -1 -18q0 -39 21 -52.5t55 -13.5q37 0 66 17t44 67h72q-24 -65 -73.5 -98t-118.5 -33t-105.5 33zM46.5 28q-27.5 38 -27.5 99
q0 31 9 76q25 124 100 214t209 90q48 0 85 -30l4 21h126l-82 -400q-3 -15 -3 -26q0 -24 16 -24q18 0 43 34t42 73l23 -12q-28 -66 -73 -109.5t-101 -43.5q-32 0 -53.5 22t-21.5 62q0 14 3 29l20 98q-99 -211 -229 -211q-62 0 -89.5 38zM272 97q41 50 74.5 116t41.5 104
l24 120q-29 33 -69 33q-66 0 -113.5 -69t-68.5 -165q-11 -49 -11 -98q0 -91 48 -91q33 0 74 50z" />
    <glyph glyph-name="uni1EB3" unicode="&#x1eb3;" horiz-adv-x="570" 
d="M362 795h27q22 0 38.5 11t21.5 33q3 17 -8 27.5t-35 10.5q-25 0 -54 -12l1 33q38 14 73 14t58 -14.5t23 -44.5q0 -10 -1 -15q-15 -64 -91 -71l-19 -51h-46zM241.5 611q-36.5 33 -32.5 98h73q-1 -7 -1 -18q0 -39 21 -52.5t55 -13.5q37 0 66 17t44 67h72q-23 -65 -73 -98
t-119 -33t-105.5 33zM46.5 28q-27.5 38 -27.5 99q0 31 9 76q25 124 100 214t209 90q48 0 85 -30l4 21h126l-82 -400q-3 -15 -3 -26q0 -24 16 -24q18 0 43 34t42 73l23 -12q-28 -66 -73 -109.5t-101 -43.5q-32 0 -53.5 22t-21.5 62q0 14 3 29l20 98q-99 -211 -229 -211
q-62 0 -89.5 38zM272 97q41 50 74.5 116t41.5 104l24 120q-29 33 -69 33q-66 0 -113.5 -69t-68.5 -165q-11 -49 -11 -98q0 -91 48 -91q33 0 74 50z" />
    <glyph glyph-name="uni1EB5" unicode="&#x1eb5;" horiz-adv-x="570" 
d="M342 883q24 0 40.5 -8t35.5 -23q15 -11 24.5 -16t20.5 -5q22 0 43 12.5t35 43.5h42q-16 -53 -49.5 -83t-81.5 -30q-19 0 -34.5 7.5t-37.5 21.5q-17 12 -28.5 18t-24.5 6q-23 0 -42 -14.5t-29 -39.5h-44q37 110 130 110zM241.5 611q-36.5 33 -32.5 98h73q-1 -7 -1 -18
q0 -39 21 -52.5t55 -13.5q37 0 66 17t44 67h72q-23 -65 -73 -98t-119 -33t-105.5 33zM46.5 28q-27.5 38 -27.5 99q0 31 9 76q25 124 100 214t209 90q48 0 85 -30l4 21h126l-82 -400q-3 -15 -3 -26q0 -24 16 -24q18 0 43 34t42 73l23 -12q-28 -66 -73 -109.5t-101 -43.5
q-32 0 -53.5 22t-21.5 62q0 14 3 29l20 98q-99 -211 -229 -211q-62 0 -89.5 38zM272 97q41 50 74.5 116t41.5 104l24 120q-29 33 -69 33q-66 0 -113.5 -69t-68.5 -165q-11 -49 -11 -98q0 -91 48 -91q33 0 74 50z" />
    <glyph glyph-name="uni01CE" unicode="&#x1ce;" horiz-adv-x="570" 
d="M268 654.5q-37 43.5 -64 65.5l60 41q26 -24 53 -60t39 -62h4q23 26 65 62t76 60l45 -41q-37 -22 -91 -65t-78 -71h-59q-13 27 -50 70.5zM46.5 28q-27.5 38 -27.5 99q0 31 9 76q25 124 100 214t209 90q48 0 85 -30l4 21h126l-82 -400q-3 -15 -3 -26q0 -24 16 -24
q18 0 43 34t42 73l23 -12q-28 -66 -73 -109.5t-101 -43.5q-32 0 -53.5 22t-21.5 62q0 14 3 29l20 98q-99 -211 -229 -211q-62 0 -89.5 38zM272 97q41 50 74.5 116t41.5 104l24 120q-29 33 -69 33q-66 0 -113.5 -69t-68.5 -165q-11 -49 -11 -98q0 -91 48 -91q33 0 74 50z" />
    <glyph glyph-name="acircumflex" unicode="&#xe2;" horiz-adv-x="570" 
d="M187 621q37 22 91.5 66t76.5 70h60q13 -27 49.5 -71t63.5 -65l-59 -41q-25 24 -53 60t-40 62h-3q-22 -25 -64 -61t-78 -61zM46.5 28q-27.5 38 -27.5 99q0 31 9 76q25 124 100 214t209 90q48 0 85 -30l4 21h126l-82 -400q-3 -15 -3 -26q0 -24 16 -24q18 0 43 34t42 73
l23 -12q-28 -66 -73 -109.5t-101 -43.5q-32 0 -53.5 22t-21.5 62q0 14 3 29l20 98q-99 -211 -229 -211q-62 0 -89.5 38zM272 97q41 50 74.5 116t41.5 104l24 120q-29 33 -69 33q-66 0 -113.5 -69t-68.5 -165q-11 -49 -11 -98q0 -91 48 -91q33 0 74 50z" />
    <glyph glyph-name="uni1EA5" unicode="&#x1ea5;" horiz-adv-x="570" 
d="M488 740l87 82q45 42 77 42q16 0 23.5 -9.5t4.5 -23.5q-3 -16 -21 -34t-48 -32l-109 -52zM183 621q36 22 91 65.5t78 70.5h60q13 -27 49.5 -70.5t62.5 -65.5l-59 -41q-26 25 -53.5 60.5t-38.5 61.5h-4q-22 -26 -64 -61.5t-77 -60.5zM46.5 28q-27.5 38 -27.5 99q0 31 9 76
q25 124 100 214t209 90q48 0 85 -30l4 21h126l-82 -400q-3 -15 -3 -26q0 -24 16 -24q18 0 43 34t42 73l23 -12q-28 -66 -73 -109.5t-101 -43.5q-32 0 -53.5 22t-21.5 62q0 14 3 29l20 98q-99 -211 -229 -211q-62 0 -89.5 38zM272 97q41 50 74.5 116t41.5 104l24 120
q-29 33 -69 33q-66 0 -113.5 -69t-68.5 -165q-11 -49 -11 -98q0 -91 48 -91q33 0 74 50z" />
    <glyph glyph-name="uni1EAD" unicode="&#x1ead;" horiz-adv-x="570" 
d="M183 621q36 22 90.5 65.5t77.5 70.5h60q13 -28 49.5 -71.5t63.5 -64.5l-60 -41q-26 25 -53.5 60.5t-38.5 61.5h-4q-21 -25 -62.5 -60t-78.5 -62zM46.5 28q-27.5 38 -27.5 99q0 31 9 76q25 124 100 214t209 90q48 0 85 -30l4 21h126l-82 -400q-3 -15 -3 -26q0 -24 16 -24
q18 0 43 34t42 73l23 -12q-28 -66 -73 -109.5t-101 -43.5q-32 0 -53.5 22t-21.5 62q0 14 3 29l20 98q-99 -211 -229 -211q-62 0 -89.5 38zM272 97q41 50 74.5 116t41.5 104l24 120q-29 33 -69 33q-66 0 -113.5 -69t-68.5 -165q-11 -49 -11 -98q0 -91 48 -91q33 0 74 50z
M162 -156.5q-12 12.5 -12 32.5q0 7 1 11q5 25 23.5 41t43.5 16q20 0 31.5 -11.5t11.5 -30.5q0 -29 -19 -50t-47 -21q-21 0 -33 12.5z" />
    <glyph glyph-name="uni1EA7" unicode="&#x1ea7;" horiz-adv-x="570" 
d="M159 765q-25 15 -35.5 32.5t-7.5 33.5q3 14 14.5 23.5t27.5 9.5q31 0 61 -42l53 -82l-26 -27zM183 621q36 22 91 65.5t78 70.5h60q13 -27 49.5 -70.5t62.5 -65.5l-59 -41q-26 25 -53.5 60.5t-38.5 61.5h-4q-22 -26 -64 -61.5t-77 -60.5zM46.5 28q-27.5 38 -27.5 99
q0 31 9 76q25 124 100 214t209 90q48 0 85 -30l4 21h126l-82 -400q-3 -15 -3 -26q0 -24 16 -24q18 0 43 34t42 73l23 -12q-28 -66 -73 -109.5t-101 -43.5q-32 0 -53.5 22t-21.5 62q0 14 3 29l20 98q-99 -211 -229 -211q-62 0 -89.5 38zM272 97q41 50 74.5 116t41.5 104
l24 120q-29 33 -69 33q-66 0 -113.5 -69t-68.5 -165q-11 -49 -11 -98q0 -91 48 -91q33 0 74 50z" />
    <glyph glyph-name="uni1EA9" unicode="&#x1ea9;" horiz-adv-x="570" 
d="M494 795h28q22 0 38.5 11t20.5 33q3 17 -8 27.5t-35 10.5q-26 0 -53 -12l1 33q36 14 71 14q36 0 60 -14.5t24 -44.5q0 -5 -2 -15q-15 -64 -91 -71l-19 -51h-45zM183 621q36 22 91 65.5t78 70.5h60q13 -27 49.5 -70.5t62.5 -65.5l-59 -41q-26 25 -53.5 60.5t-38.5 61.5h-4
q-22 -26 -64 -61.5t-77 -60.5zM46.5 28q-27.5 38 -27.5 99q0 31 9 76q25 124 100 214t209 90q48 0 85 -30l4 21h126l-82 -400q-3 -15 -3 -26q0 -24 16 -24q18 0 43 34t42 73l23 -12q-28 -66 -73 -109.5t-101 -43.5q-32 0 -53.5 22t-21.5 62q0 14 3 29l20 98
q-99 -211 -229 -211q-62 0 -89.5 38zM272 97q41 50 74.5 116t41.5 104l24 120q-29 33 -69 33q-66 0 -113.5 -69t-68.5 -165q-11 -49 -11 -98q0 -91 48 -91q33 0 74 50z" />
    <glyph glyph-name="uni1EAB" unicode="&#x1eab;" horiz-adv-x="570" 
d="M268 868.5q33 27.5 79 27.5q24 0 41.5 -8t38.5 -23q14 -11 25 -16.5t23 -5.5q21 0 42 13t34 43h43q-17 -53 -49.5 -82.5t-81.5 -29.5q-19 0 -35 7t-40 22q-17 12 -30 18t-26 6q-23 0 -42 -14.5t-29 -39.5h-44q18 55 51 82.5zM183 621q36 22 91 65.5t78 70.5h60
q13 -27 49.5 -70.5t62.5 -65.5l-59 -41q-26 25 -53.5 60.5t-38.5 61.5h-4q-22 -26 -64 -61.5t-77 -60.5zM46.5 28q-27.5 38 -27.5 99q0 31 9 76q25 124 100 214t209 90q48 0 85 -30l4 21h126l-82 -400q-3 -15 -3 -26q0 -24 16 -24q18 0 43 34t42 73l23 -12
q-28 -66 -73 -109.5t-101 -43.5q-32 0 -53.5 22t-21.5 62q0 14 3 29l20 98q-99 -211 -229 -211q-62 0 -89.5 38zM272 97q41 50 74.5 116t41.5 104l24 120q-29 33 -69 33q-66 0 -113.5 -69t-68.5 -165q-11 -49 -11 -98q0 -91 48 -91q33 0 74 50z" />
    <glyph glyph-name="adieresis" unicode="&#xe4;" horiz-adv-x="570" 
d="M193 595q-11 12 -11 31q0 29 19 49.5t45 20.5q21 0 33 -12t12 -32q0 -29 -19.5 -49t-48.5 -20q-19 0 -30 12zM416 594.5q-11 11.5 -11 30.5q0 30 18.5 50.5t47.5 20.5q21 0 32.5 -11.5t11.5 -30.5q0 -5 -2 -15q-4 -24 -22 -40t-43 -16q-21 0 -32 11.5zM46.5 28
q-27.5 38 -27.5 99q0 31 9 76q25 124 100 214t209 90q48 0 85 -30l4 21h126l-82 -400q-3 -15 -3 -26q0 -24 16 -24q18 0 43 34t42 73l23 -12q-28 -66 -73 -109.5t-101 -43.5q-32 0 -53.5 22t-21.5 62q0 14 3 29l20 98q-99 -211 -229 -211q-62 0 -89.5 38zM272 97
q41 50 74.5 116t41.5 104l24 120q-29 33 -69 33q-66 0 -113.5 -69t-68.5 -165q-11 -49 -11 -98q0 -91 48 -91q33 0 74 50z" />
    <glyph glyph-name="uni1EA1" unicode="&#x1ea1;" horiz-adv-x="570" 
d="M128 417q75 90 209 90q48 0 85 -30l4 21h126l-82 -400q-3 -15 -3 -26q0 -24 16 -24q18 0 43 34t42 73l23 -12q-28 -66 -73 -109.5t-101 -43.5q-32 0 -53.5 22t-21.5 62q0 14 3 29l20 98q-99 -211 -229 -211q-62 0 -89.5 38t-27.5 99q0 31 9 76q25 124 100 214zM150 138
q0 -91 48 -91q33 0 74 50t74.5 116t41.5 104l24 120q-29 33 -69 33q-66 0 -113.5 -69t-68.5 -165q-11 -49 -11 -98zM171.5 -72q18.5 16 43.5 16q20 0 31.5 -11.5t11.5 -30.5q0 -29 -19 -50t-47 -21q-21 0 -33 12.5t-12 32.5q0 7 1 11q5 25 23.5 41z" />
    <glyph glyph-name="agrave" unicode="&#xe0;" horiz-adv-x="570" 
d="M292 673q-20 13 -28 26t-5 28t15.5 26.5t29.5 11.5q18 0 31.5 -10t21.5 -20l91 -120l-27 -31zM46.5 28q-27.5 38 -27.5 99q0 31 9 76q25 124 100 214t209 90q48 0 85 -30l4 21h126l-82 -400q-3 -15 -3 -26q0 -24 16 -24q18 0 43 34t42 73l23 -12q-28 -66 -73 -109.5
t-101 -43.5q-32 0 -53.5 22t-21.5 62q0 14 3 29l20 98q-99 -211 -229 -211q-62 0 -89.5 38zM272 97q41 50 74.5 116t41.5 104l24 120q-29 33 -69 33q-66 0 -113.5 -69t-68.5 -165q-11 -49 -11 -98q0 -91 48 -91q33 0 74 50z" />
    <glyph glyph-name="uni1EA3" unicode="&#x1ea3;" horiz-adv-x="570" 
d="M335 682h31q25 0 44.5 13t25.5 39q3 20 -9.5 34t-39.5 14q-30 0 -63 -16l1 36q40 17 84 17q40 0 66 -17t26 -51q0 -5 -2 -19q-16 -74 -104 -82l-24 -68h-52zM46.5 28q-27.5 38 -27.5 99q0 31 9 76q25 124 100 214t209 90q48 0 85 -30l4 21h126l-82 -400q-3 -15 -3 -26
q0 -24 16 -24q18 0 43 34t42 73l23 -12q-28 -66 -73 -109.5t-101 -43.5q-32 0 -53.5 22t-21.5 62q0 14 3 29l20 98q-99 -211 -229 -211q-62 0 -89.5 38zM272 97q41 50 74.5 116t41.5 104l24 120q-29 33 -69 33q-66 0 -113.5 -69t-68.5 -165q-11 -49 -11 -98q0 -91 48 -91
q33 0 74 50z" />
    <glyph glyph-name="uni0251" unicode="&#x251;" horiz-adv-x="597" 
d="M60.5 30.5q-44.5 40.5 -44.5 124.5q0 39 11 96q17 83 66 141t116 86.5t136 28.5q72 0 132 -23t86 -63l-77 -378q41 -9 63 -17l-2 -11l-193 -20l3 24q4 30 7 45q-28 -35 -77.5 -54.5t-91.5 -19.5q-90 0 -134.5 40.5zM334 75q41 41 53 99l48 235q-32 53 -97 53
q-70 0 -117.5 -56t-68.5 -156q-11 -53 -11 -95q0 -121 96 -121q56 0 97 41z" />
    <glyph glyph-name="amacron" unicode="&#x101;" horiz-adv-x="570" 
d="M169 628h355l-9 -44h-355zM46.5 28q-27.5 38 -27.5 99q0 31 9 76q25 124 100 214t209 90q48 0 85 -30l4 21h126l-82 -400q-3 -15 -3 -26q0 -24 16 -24q18 0 43 34t42 73l23 -12q-28 -66 -73 -109.5t-101 -43.5q-32 0 -53.5 22t-21.5 62q0 14 3 29l20 98
q-99 -211 -229 -211q-62 0 -89.5 38zM272 97q41 50 74.5 116t41.5 104l24 120q-29 33 -69 33q-66 0 -113.5 -69t-68.5 -165q-11 -49 -11 -98q0 -91 48 -91q33 0 74 50z" />
    <glyph glyph-name="aogonek" unicode="&#x105;" horiz-adv-x="570" 
d="M384 -76q-1 -4 -1 -12q0 -19 13 -29.5t36 -10.5q27 0 64 19l-12 -56q-20 -11 -47 -17t-55 -6q-49 0 -75.5 19.5t-26.5 51.5q0 34 25.5 68.5t66.5 52.5q-30 23 -30 70q0 14 3 29l20 98q-99 -211 -229 -211q-62 0 -89.5 38t-27.5 99q0 31 9 76q25 124 100 214t209 90
q48 0 85 -30l4 21h126l-82 -400q-3 -15 -3 -26q0 -24 16 -24q18 0 43 34t42 73l23 -12q-27 -64 -69.5 -106.5t-95.5 -46.5q-36 -33 -42 -66zM272 97q41 50 74.5 116t41.5 104l24 120q-29 33 -69 33q-66 0 -113.5 -69t-68.5 -165q-11 -49 -11 -98q0 -91 48 -91q33 0 74 50z
" />
    <glyph glyph-name="aring" unicode="&#xe5;" horiz-adv-x="570" 
d="M284 595q-22 20 -22 54q0 15 2 23q9 44 42 71t78 27q37 0 59 -20t22 -54q0 -53 -35 -87t-86 -34q-38 0 -60 20zM395 631.5q19 15.5 23 40.5q2 10 2 15q0 19 -12.5 30t-32.5 11q-24 0 -43 -15.5t-25 -40.5q-1 -5 -1 -13q0 -20 12.5 -31.5t33.5 -11.5q24 0 43 15.5z
M46.5 28q-27.5 38 -27.5 99q0 31 9 76q25 124 100 214t209 90q48 0 85 -30l4 21h126l-82 -400q-3 -15 -3 -26q0 -24 16 -24q18 0 43 34t42 73l23 -12q-28 -66 -73 -109.5t-101 -43.5q-32 0 -53.5 22t-21.5 62q0 14 3 29l20 98q-99 -211 -229 -211q-62 0 -89.5 38zM272 97
q41 50 74.5 116t41.5 104l24 120q-29 33 -69 33q-66 0 -113.5 -69t-68.5 -165q-11 -49 -11 -98q0 -91 48 -91q33 0 74 50z" />
    <glyph glyph-name="aringacute" unicode="&#x1fb;" horiz-adv-x="570" 
d="M307 815l140 119q10 10 27 20.5t35 10.5q17 0 25 -8t8 -20q0 -6 -1 -9q-6 -29 -53 -55l-166 -89zM282 587q-22 20 -22 54q0 15 2 23q9 44 42 71t78 27q37 0 59 -20t22 -54q0 -53 -35 -87t-86 -34q-38 0 -60 20zM393 623.5q19 15.5 23 40.5q2 10 2 15q0 19 -12.5 30
t-32.5 11q-24 0 -43 -15.5t-25 -40.5q-1 -5 -1 -13q0 -20 12.5 -31.5t33.5 -11.5q24 0 43 15.5zM46.5 28q-27.5 38 -27.5 99q0 31 9 76q25 124 100 214t209 90q48 0 85 -30l4 21h126l-82 -400q-3 -15 -3 -26q0 -24 16 -24q18 0 43 34t42 73l23 -12q-28 -66 -73 -109.5
t-101 -43.5q-32 0 -53.5 22t-21.5 62q0 14 3 29l20 98q-99 -211 -229 -211q-62 0 -89.5 38zM272 97q41 50 74.5 116t41.5 104l24 120q-29 33 -69 33q-66 0 -113.5 -69t-68.5 -165q-11 -49 -11 -98q0 -91 48 -91q33 0 74 50z" />
    <glyph glyph-name="atilde" unicode="&#xe3;" horiz-adv-x="570" 
d="M209 667q34 28 80 28q24 0 42 -8t42 -23q17 -11 28 -16.5t23 -5.5q49 0 73 56h49q-37 -114 -132 -114q-19 0 -37.5 8t-43.5 23q-21 12 -33.5 17.5t-23.5 5.5q-22 0 -40 -14.5t-28 -39.5h-51q18 55 52 83zM46.5 28q-27.5 38 -27.5 99q0 31 9 76q25 124 100 214t209 90
q48 0 85 -30l4 21h126l-82 -400q-3 -15 -3 -26q0 -24 16 -24q18 0 43 34t42 73l23 -12q-28 -66 -73 -109.5t-101 -43.5q-32 0 -53.5 22t-21.5 62q0 14 3 29l20 98q-99 -211 -229 -211q-62 0 -89.5 38zM272 97q41 50 74.5 116t41.5 104l24 120q-29 33 -69 33
q-66 0 -113.5 -69t-68.5 -165q-11 -49 -11 -98q0 -91 48 -91q33 0 74 50z" />
    <glyph glyph-name="ae" unicode="&#xe6;" horiz-adv-x="863" 
d="M41 18.5q-41 28.5 -41 83.5q0 18 4 34q16 79 82.5 116t154.5 37h119q14 45 34 77q5 45 -29.5 70.5t-83.5 25.5q-38 0 -82.5 -12t-82.5 -30v38q46 23 102 36t111 13q52 0 89 -15.5t54 -42.5q82 58 190 58q106 0 156.5 -26.5t50.5 -80.5q0 -13 -3 -30q-20 -97 -137 -138.5
t-260 -45.5q-2 -69 30 -111t100 -42q40 0 87.5 14t85.5 39l5 -33q-37 -27 -94.5 -45t-121.5 -18q-66 0 -113.5 21.5t-74.5 61.5q-45 -43 -106 -63t-119 -20q-66 0 -107 28.5zM672 274.5q84 36.5 84 115.5q0 33 -23 52.5t-72 19.5q-72 0 -119 -62t-64 -149q-4 -16 -4 -24
q114 11 198 47.5zM282 56.5q44 19.5 75 47.5q-15 36 -15 81q0 28 6 59h-86q-51 0 -87 -29.5t-46 -77.5q-3 -16 -3 -31q0 -36 20.5 -52.5t54.5 -16.5q37 0 81 19.5z" />
    <glyph glyph-name="aeacute" unicode="&#x1fd;" horiz-adv-x="863" 
d="M458 615l140 119q8 9 25.5 20t36.5 11q17 0 25 -8t8 -20q0 -6 -1 -9q-6 -29 -53 -55l-166 -89zM41 18.5q-41 28.5 -41 83.5q0 18 4 34q16 79 82.5 116t154.5 37h119q14 45 34 77q5 45 -29.5 70.5t-83.5 25.5q-38 0 -82.5 -12t-82.5 -30v38q46 23 102 36t111 13
q52 0 89 -15.5t54 -42.5q82 58 190 58q106 0 156.5 -26.5t50.5 -80.5q0 -13 -3 -30q-20 -97 -137 -138.5t-260 -45.5q-2 -69 30 -111t100 -42q40 0 87.5 14t85.5 39l5 -33q-37 -27 -94.5 -45t-121.5 -18q-66 0 -113.5 21.5t-74.5 61.5q-45 -43 -106 -63t-119 -20
q-66 0 -107 28.5zM672 274.5q84 36.5 84 115.5q0 33 -23 52.5t-72 19.5q-72 0 -119 -62t-64 -149q-4 -16 -4 -24q114 11 198 47.5zM282 56.5q44 19.5 75 47.5q-15 36 -15 81q0 28 6 59h-86q-51 0 -87 -29.5t-46 -77.5q-3 -16 -3 -31q0 -36 20.5 -52.5t54.5 -16.5
q37 0 81 19.5z" />
    <glyph glyph-name="b" unicode="b" horiz-adv-x="607" 
d="M202 13.5q-35 23.5 -46 60.5q-10 -24 -37 -78l-89 6l134 655q-36 8 -63 18l2 11l197 20l-74 -359q39 74 100 117t125 43t104 -39.5t40 -116.5q0 -38 -8 -74q-28 -140 -106 -213.5t-189 -73.5q-55 0 -90 23.5zM396 94.5q43 60.5 63 161.5q12 62 12 106q0 100 -63 100
q-29 0 -69.5 -31.5t-77.5 -83t-56 -105.5l-14 -71q-4 -24 -4 -35q0 -45 25 -73.5t73 -28.5q68 0 111 60.5z" />
    <glyph glyph-name="c" unicode="c" horiz-adv-x="509" 
d="M82 42q-57 52 -57 142q0 33 7 64q25 122 113 190.5t210 68.5q82 0 127.5 -24.5t45.5 -71.5q0 -6 -2 -20q-4 -17 -18.5 -31.5t-32.5 -14.5t-27 9t-9 22q0 8 6 21t7 19q4 17 -19.5 32t-60.5 15q-78 0 -134 -55.5t-78 -161.5q-7 -31 -7 -64q0 -66 32 -107.5t99 -41.5
q39 0 84 14t80 39l6 -33q-37 -27 -92 -45t-118 -18q-105 0 -162 52z" />
    <glyph glyph-name="cacute" unicode="&#x107;" horiz-adv-x="509" 
d="M297 615l140 119q10 10 27 20.5t36 10.5q17 0 25 -8t8 -21q0 -18 -13.5 -33t-40.5 -30l-166 -89zM82 42q-57 52 -57 142q0 33 7 64q25 122 113 190.5t210 68.5q82 0 127.5 -24.5t45.5 -71.5q0 -6 -2 -20q-4 -17 -18.5 -31.5t-32.5 -14.5t-27 9t-9 22q0 8 6 21t7 19
q4 17 -19.5 32t-60.5 15q-78 0 -134 -55.5t-78 -161.5q-7 -31 -7 -64q0 -66 32 -107.5t99 -41.5q39 0 84 14t80 39l6 -33q-37 -27 -92 -45t-118 -18q-105 0 -162 52z" />
    <glyph glyph-name="ccaron" unicode="&#x10d;" horiz-adv-x="509" 
d="M305.5 654.5q-36.5 43.5 -63.5 65.5l58 41q26 -25 53.5 -60.5t38.5 -61.5h4q23 26 65 61.5t77 60.5l44 -41q-37 -22 -91 -65t-78 -71h-59q-12 27 -48.5 70.5zM82 42q-57 52 -57 142q0 33 7 64q25 122 113 190.5t210 68.5q82 0 127.5 -24.5t45.5 -71.5q0 -6 -2 -20
q-4 -17 -18.5 -31.5t-32.5 -14.5t-27 9t-9 22q0 8 6 21t7 19q4 17 -19.5 32t-60.5 15q-78 0 -134 -55.5t-78 -161.5q-7 -31 -7 -64q0 -66 32 -107.5t99 -41.5q39 0 84 14t80 39l6 -33q-37 -27 -92 -45t-118 -18q-105 0 -162 52z" />
    <glyph glyph-name="ccedilla" unicode="&#xe7;" horiz-adv-x="509" 
d="M482.5 482.5q45.5 -24.5 45.5 -71.5q0 -6 -2 -20q-4 -17 -18.5 -31.5t-32.5 -14.5t-27 9t-9 22q0 8 6 21t7 19q4 17 -19.5 32t-60.5 15q-78 0 -134 -55.5t-78 -161.5q-7 -31 -7 -64q0 -66 32 -107.5t99 -41.5q39 0 84 14t80 39l6 -33q-31 -23 -75.5 -39.5t-96.5 -21.5
l-36 -54q48 0 72.5 -17.5t24.5 -46.5q0 -5 -2 -15q-10 -48 -52 -74t-99 -26q-27 0 -52 7t-42 20l27 35q13 -7 31 -11.5t36 -4.5q34 0 57.5 13t29.5 41q4 22 -12.5 31.5t-41.5 9.5q-9 0 -23 -2l-16 32l40 61q-96 4 -147.5 55.5t-51.5 137.5q0 32 7 64q25 122 113 190.5
t210 68.5q82 0 127.5 -24.5z" />
    <glyph glyph-name="ccircumflex" unicode="&#x109;" horiz-adv-x="509" 
d="M215 621q36 22 90.5 65.5t77.5 70.5h59q13 -28 50 -71.5t64 -64.5l-60 -41q-26 24 -53 60t-39 62h-4q-22 -25 -63.5 -60.5t-77.5 -61.5zM82 42q-57 52 -57 142q0 33 7 64q25 122 113 190.5t210 68.5q82 0 127.5 -24.5t45.5 -71.5q0 -6 -2 -20q-4 -17 -18.5 -31.5
t-32.5 -14.5t-27 9t-9 22q0 8 6 21t7 19q4 17 -19.5 32t-60.5 15q-78 0 -134 -55.5t-78 -161.5q-7 -31 -7 -64q0 -66 32 -107.5t99 -41.5q39 0 84 14t80 39l6 -33q-37 -27 -92 -45t-118 -18q-105 0 -162 52z" />
    <glyph glyph-name="cdotaccent" unicode="&#x10b;" horiz-adv-x="509" 
d="M344 594.5q-11 11.5 -11 30.5q0 30 18.5 50.5t47.5 20.5q20 0 31.5 -11.5t11.5 -30.5q0 -5 -2 -15q-4 -24 -22 -40t-42 -16q-21 0 -32 11.5zM82 42q-57 52 -57 142q0 33 7 64q25 122 113 190.5t210 68.5q82 0 127.5 -24.5t45.5 -71.5q0 -6 -2 -20q-4 -17 -18.5 -31.5
t-32.5 -14.5t-27 9t-9 22q0 8 6 21t7 19q4 17 -19.5 32t-60.5 15q-78 0 -134 -55.5t-78 -161.5q-7 -31 -7 -64q0 -66 32 -107.5t99 -41.5q39 0 84 14t80 39l6 -33q-37 -27 -92 -45t-118 -18q-105 0 -162 52z" />
    <glyph glyph-name="d" unicode="d" horiz-adv-x="604" 
d="M49 30q-29 40 -29 104q0 35 8 75q15 75 55.5 142.5t108.5 111.5t161 44q32 0 57 -10.5t41 -26.5l38 187q-37 8 -61 18l2 11l196 20l-125 -608q-3 -13 -3 -25q0 -26 16 -26q18 0 43.5 34.5t42.5 73.5l24 -12q-28 -66 -73 -109.5t-101 -43.5q-32 0 -54 22.5t-22 61.5
q0 14 3 29l18 89q-48 -90 -115 -146t-138 -56q-64 0 -93 40zM285.5 95.5q47.5 48.5 86.5 112.5t46 99l25 122q-11 16 -31.5 27t-44.5 11q-51 0 -95 -37.5t-74 -96.5t-43 -122q-6 -27 -6 -59q0 -45 13.5 -75t42.5 -30q33 0 80.5 48.5z" />
    <glyph glyph-name="eth" unicode="&#xf0;" horiz-adv-x="588" 
d="M459 661q56 -63 85.5 -138.5t29.5 -153.5q0 -36 -8 -78q-29 -142 -112 -221.5t-218 -79.5q-101 0 -153.5 54.5t-52.5 141.5q0 25 7 62q13 63 51.5 121t103.5 95.5t153 37.5q34 0 67.5 -13t49.5 -37q-13 91 -74 172l-186 -97l-7 58l156 83q-43 41 -93 67l42 43
q64 -29 116 -75l151 83l24 -56zM442 322q0 59 -27.5 97t-74.5 38q-39 0 -75 -27t-63 -74.5t-39 -107.5q-8 -42 -8 -76q0 -62 23.5 -100t68.5 -38q66 0 117.5 67t71.5 168q6 27 6 53z" />
    <glyph glyph-name="dcaron" unicode="&#x10f;" horiz-adv-x="734" 
d="M49 30q-29 40 -29 104q0 35 8 75q15 75 55.5 142.5t108.5 111.5t161 44q32 0 57 -10.5t41 -26.5l38 187q-37 8 -61 18l2 11l196 20l-125 -608q-3 -13 -3 -25q0 -26 16 -26q18 0 43.5 34.5t42.5 73.5l24 -12q-28 -66 -73 -109.5t-101 -43.5q-32 0 -54 22.5t-22 61.5
q0 14 3 29l18 89q-48 -90 -115 -146t-138 -56q-64 0 -93 40zM642 468q26 24 49 54.5t33 59.5q-25 1 -39.5 13t-14.5 33q0 35 24 56t54 21q29 0 43 -14t14 -38q0 -11 -3 -22q-10 -51 -45.5 -105.5t-80.5 -89.5zM285.5 95.5q47.5 48.5 86.5 112.5t46 99l25 122
q-11 16 -31.5 27t-44.5 11q-51 0 -95 -37.5t-74 -96.5t-43 -122q-6 -27 -6 -59q0 -45 13.5 -75t42.5 -30q33 0 80.5 48.5z" />
    <glyph glyph-name="dcroat" unicode="&#x111;" horiz-adv-x="604" 
d="M49 30q-29 40 -29 104q0 35 8 75q15 75 55.5 142.5t108.5 111.5t161 44q32 0 57 -10.5t41 -26.5l19 90h-150l9 46h150l10 51q-37 8 -61 18l2 11l196 20l-22 -100h48l-8 -46h-48l-95 -462q-3 -13 -3 -25q0 -26 16 -26q18 0 43.5 34.5t42.5 73.5l24 -12q-28 -66 -73 -109.5
t-101 -43.5q-32 0 -54 22.5t-22 61.5q0 14 3 29l18 89q-48 -90 -115 -146t-138 -56q-64 0 -93 40zM285.5 95.5q47.5 48.5 86.5 112.5t46 99l25 122q-11 16 -31.5 27t-44.5 11q-51 0 -95 -37.5t-74 -96.5t-43 -122q-6 -27 -6 -59q0 -45 13.5 -75t42.5 -30q33 0 80.5 48.5z
" />
    <glyph glyph-name="uni1E0D" unicode="&#x1e0d;" horiz-adv-x="604" 
d="M83.5 351.5q40.5 67.5 108.5 111.5t161 44q32 0 57 -10.5t41 -26.5l38 187q-37 8 -61 18l2 11l196 20l-125 -608q-3 -13 -3 -25q0 -26 16 -26q18 0 43.5 34.5t42.5 73.5l24 -12q-28 -66 -73 -109.5t-101 -43.5q-32 0 -54 22.5t-22 61.5q0 14 3 29l18 89
q-48 -90 -115 -146t-138 -56q-64 0 -93 40t-29 104q0 35 8 75q15 75 55.5 142.5zM149 152q0 -45 13.5 -75t42.5 -30q33 0 80.5 48.5t86.5 112.5t46 99l25 122q-11 16 -31.5 27t-44.5 11q-51 0 -95 -37.5t-74 -96.5t-43 -122q-6 -27 -6 -59zM195.5 -72q18.5 16 43.5 16
q20 0 31.5 -11.5t11.5 -30.5q0 -29 -19 -50t-47 -21q-21 0 -33 12.5t-12 32.5q0 7 1 11q5 25 23.5 41z" />
    <glyph glyph-name="uni1E0F" unicode="&#x1e0f;" horiz-adv-x="604" 
d="M49 30q-29 40 -29 104q0 35 8 75q15 75 55.5 142.5t108.5 111.5t161 44q32 0 57 -10.5t41 -26.5l38 187q-37 8 -61 18l2 11l196 20l-125 -608q-3 -13 -3 -25q0 -26 16 -26q18 0 43.5 34.5t42.5 73.5l24 -12q-28 -66 -73 -109.5t-101 -43.5q-32 0 -54 22.5t-22 61.5
q0 14 3 29l18 89q-48 -90 -115 -146t-138 -56q-64 0 -93 40zM285.5 95.5q47.5 48.5 86.5 112.5t46 99l25 122q-11 16 -31.5 27t-44.5 11q-51 0 -95 -37.5t-74 -96.5t-43 -122q-6 -27 -6 -59q0 -45 13.5 -75t42.5 -30q33 0 80.5 48.5zM62 -64h355l-8 -43h-356z" />
    <glyph glyph-name="e" unicode="e" horiz-adv-x="544" 
d="M499.5 480.5q50.5 -26.5 50.5 -80.5q0 -13 -3 -30q-19 -96 -136 -137.5t-260 -46.5q-2 -69 30 -111t99 -42q40 0 87.5 14t85.5 39l6 -33q-37 -27 -95 -45t-121 -18q-105 0 -162.5 52t-57.5 143q0 25 7 63q25 120 108 189.5t205 69.5q106 0 156.5 -26.5zM414.5 442
q-22.5 20 -72.5 20q-71 0 -118.5 -62.5t-64.5 -148.5q-2 -7 -4 -23q282 27 282 160q0 34 -22.5 54z" />
    <glyph glyph-name="eacute" unicode="&#xe9;" horiz-adv-x="544" 
d="M290 584l-16 31l140 119q10 10 27 20.5t36 10.5q32 0 32 -28q0 -6 -1 -9q-4 -28 -52 -55zM499.5 480.5q50.5 -26.5 50.5 -80.5q0 -13 -3 -30q-19 -96 -136 -137.5t-260 -46.5q-2 -69 30 -111t99 -42q40 0 87.5 14t85.5 39l6 -33q-37 -27 -95 -45t-121 -18
q-105 0 -162.5 52t-57.5 143q0 25 7 63q25 120 108 189.5t205 69.5q106 0 156.5 -26.5zM414.5 442q-22.5 20 -72.5 20q-71 0 -118.5 -62.5t-64.5 -148.5q-2 -7 -4 -23q282 27 282 160q0 34 -22.5 54z" />
    <glyph glyph-name="ebreve" unicode="&#x115;" horiz-adv-x="544" 
d="M236.5 611q-36.5 33 -32.5 98h72q-1 -6 -1 -16q0 -40 21.5 -54t55.5 -14q37 0 65.5 17t43.5 67h73q-22 -65 -72.5 -98t-119.5 -33t-105.5 33zM499.5 480.5q50.5 -26.5 50.5 -80.5q0 -13 -3 -30q-19 -96 -136 -137.5t-260 -46.5q-2 -69 30 -111t99 -42q40 0 87.5 14
t85.5 39l6 -33q-37 -27 -95 -45t-121 -18q-105 0 -162.5 52t-57.5 143q0 25 7 63q25 120 108 189.5t205 69.5q106 0 156.5 -26.5zM414.5 442q-22.5 20 -72.5 20q-71 0 -118.5 -62.5t-64.5 -148.5q-2 -7 -4 -23q282 27 282 160q0 34 -22.5 54z" />
    <glyph glyph-name="ecaron" unicode="&#x11b;" horiz-adv-x="544" 
d="M281.5 654.5q-36.5 43.5 -63.5 65.5l58 41q26 -25 53.5 -60.5t38.5 -61.5h4q23 26 65 61.5t77 60.5l44 -41q-37 -22 -91 -65t-78 -71h-59q-12 27 -48.5 70.5zM499.5 480.5q50.5 -26.5 50.5 -80.5q0 -13 -3 -30q-19 -96 -136 -137.5t-260 -46.5q-2 -69 30 -111t99 -42
q40 0 87.5 14t85.5 39l6 -33q-37 -27 -95 -45t-121 -18q-105 0 -162.5 52t-57.5 143q0 25 7 63q25 120 108 189.5t205 69.5q106 0 156.5 -26.5zM414.5 442q-22.5 20 -72.5 20q-71 0 -118.5 -62.5t-64.5 -148.5q-2 -7 -4 -23q282 27 282 160q0 34 -22.5 54z" />
    <glyph glyph-name="ecircumflex" unicode="&#xea;" horiz-adv-x="544" 
d="M312.5 641.5q-41.5 -35.5 -77.5 -61.5l-44 41q36 22 90.5 65.5t77.5 70.5h59q13 -28 50 -71.5t64 -64.5l-60 -41q-26 24 -53 60t-39 62h-4q-22 -25 -63.5 -60.5zM499.5 480.5q50.5 -26.5 50.5 -80.5q0 -13 -3 -30q-19 -96 -136 -137.5t-260 -46.5q-2 -69 30 -111t99 -42
q40 0 87.5 14t85.5 39l6 -33q-37 -27 -95 -45t-121 -18q-105 0 -162.5 52t-57.5 143q0 25 7 63q25 120 108 189.5t205 69.5q106 0 156.5 -26.5zM414.5 442q-22.5 20 -72.5 20q-71 0 -118.5 -62.5t-64.5 -148.5q-2 -7 -4 -23q282 27 282 160q0 34 -22.5 54z" />
    <glyph glyph-name="uni1EBF" unicode="&#x1ebf;" horiz-adv-x="544" 
d="M683.5 854q7.5 -10 4.5 -23q-3 -16 -21 -34t-48 -32l-110 -52l-13 27l86 82q45 42 77 42q17 0 24.5 -10zM312 640q-42 -36 -76 -60l-45 41q36 22 91 65.5t78 70.5h59q13 -27 49.5 -70.5t63.5 -65.5l-59 -41q-26 24 -53 60t-39 62h-4q-23 -26 -65 -62zM499.5 480.5
q50.5 -26.5 50.5 -80.5q0 -13 -3 -30q-19 -96 -136 -137.5t-260 -46.5q-2 -69 30 -111t99 -42q40 0 87.5 14t85.5 39l6 -33q-37 -27 -95 -45t-121 -18q-105 0 -162.5 52t-57.5 143q0 25 7 63q25 120 108 189.5t205 69.5q106 0 156.5 -26.5zM414.5 442q-22.5 20 -72.5 20
q-71 0 -118.5 -62.5t-64.5 -148.5q-2 -7 -4 -23q282 27 282 160q0 34 -22.5 54z" />
    <glyph glyph-name="uni1EC7" unicode="&#x1ec7;" horiz-adv-x="544" 
d="M312.5 641.5q-41.5 -35.5 -77.5 -61.5l-44 41q36 22 90.5 65.5t77.5 70.5h59q13 -28 50 -71.5t64 -64.5l-60 -41q-26 24 -53 60t-39 62h-4q-22 -25 -63.5 -60.5zM499.5 480.5q50.5 -26.5 50.5 -80.5q0 -13 -3 -30q-19 -96 -136 -137.5t-260 -46.5q-2 -69 30 -111t99 -42
q40 0 87.5 14t85.5 39l6 -33q-37 -27 -95 -45t-121 -18q-105 0 -162.5 52t-57.5 143q0 25 7 63q25 120 108 189.5t205 69.5q106 0 156.5 -26.5zM414.5 442q-22.5 20 -72.5 20q-71 0 -118.5 -62.5t-64.5 -148.5q-2 -7 -4 -23q282 27 282 160q0 34 -22.5 54zM256.5 -68
q11.5 -12 11.5 -31q0 -29 -19 -49.5t-47 -20.5q-21 0 -32.5 12t-11.5 32q0 29 20 49t47 20q20 0 31.5 -12z" />
    <glyph glyph-name="uni1EC1" unicode="&#x1ec1;" horiz-adv-x="544" 
d="M123 824q0 15 12 27.5t31 12.5q32 0 60 -42l54 -82l-26 -27l-87 52q-44 28 -44 59zM191 621q36 22 91 65.5t78 70.5h59q13 -27 49.5 -70.5t63.5 -65.5l-59 -41q-26 24 -53 60t-39 62h-4q-23 -26 -65 -62t-76 -60zM499.5 480.5q50.5 -26.5 50.5 -80.5q0 -13 -3 -30
q-19 -96 -136 -137.5t-260 -46.5q-2 -69 30 -111t99 -42q40 0 87.5 14t85.5 39l6 -33q-37 -27 -95 -45t-121 -18q-105 0 -162.5 52t-57.5 143q0 25 7 63q25 120 108 189.5t205 69.5q106 0 156.5 -26.5zM414.5 442q-22.5 20 -72.5 20q-71 0 -118.5 -62.5t-64.5 -148.5
q-2 -7 -4 -23q282 27 282 160q0 34 -22.5 54z" />
    <glyph glyph-name="uni1EC3" unicode="&#x1ec3;" horiz-adv-x="544" 
d="M624 897.5q24 -14.5 24 -44.5q0 -10 -1 -15q-15 -64 -91 -71l-20 -51h-45l11 79h28q21 0 37.5 11t21.5 33q3 17 -8 27.5t-35 10.5q-27 0 -53 -12l1 33q34 14 71 14q35 0 59 -14.5zM312 640q-42 -36 -76 -60l-45 41q36 22 91 65.5t78 70.5h59q13 -27 49.5 -70.5
t63.5 -65.5l-59 -41q-26 24 -53 60t-39 62h-4q-23 -26 -65 -62zM499.5 480.5q50.5 -26.5 50.5 -80.5q0 -13 -3 -30q-19 -96 -136 -137.5t-260 -46.5q-2 -69 30 -111t99 -42q40 0 87.5 14t85.5 39l6 -33q-37 -27 -95 -45t-121 -18q-105 0 -162.5 52t-57.5 143q0 25 7 63
q25 120 108 189.5t205 69.5q106 0 156.5 -26.5zM414.5 442q-22.5 20 -72.5 20q-71 0 -118.5 -62.5t-64.5 -148.5q-2 -7 -4 -23q282 27 282 160q0 34 -22.5 54z" />
    <glyph glyph-name="uni1EC5" unicode="&#x1ec5;" horiz-adv-x="544" 
d="M602 899q-17 -53 -50 -82.5t-81 -29.5q-19 0 -36 7.5t-39 21.5q-19 12 -31 18t-25 6q-22 0 -41.5 -14.5t-30.5 -39.5h-44q18 55 51.5 82.5t79.5 27.5q23 0 40.5 -8t38.5 -23q15 -11 26 -16.5t23 -5.5q21 0 41.5 13t33.5 43h44zM312 640q-42 -36 -76 -60l-45 41
q36 22 91 65.5t78 70.5h59q13 -27 49.5 -70.5t63.5 -65.5l-59 -41q-26 24 -53 60t-39 62h-4q-23 -26 -65 -62zM499.5 480.5q50.5 -26.5 50.5 -80.5q0 -13 -3 -30q-19 -96 -136 -137.5t-260 -46.5q-2 -69 30 -111t99 -42q40 0 87.5 14t85.5 39l6 -33q-37 -27 -95 -45
t-121 -18q-105 0 -162.5 52t-57.5 143q0 25 7 63q25 120 108 189.5t205 69.5q106 0 156.5 -26.5zM414.5 442q-22.5 20 -72.5 20q-71 0 -118.5 -62.5t-64.5 -148.5q-2 -7 -4 -23q282 27 282 160q0 34 -22.5 54z" />
    <glyph glyph-name="edieresis" unicode="&#xeb;" horiz-adv-x="544" 
d="M211 595q-11 12 -11 32q0 8 1 12q5 25 23 41t41 16q21 0 33 -11.5t12 -31.5q0 -29 -20 -49.5t-48 -20.5q-20 0 -31 12zM434.5 595q-11.5 12 -11.5 31q0 8 1 13q5 25 23 41t42 16q21 0 32.5 -12t11.5 -32q0 -29 -19.5 -49t-47.5 -20q-20 0 -31.5 12zM499.5 480.5
q50.5 -26.5 50.5 -80.5q0 -13 -3 -30q-19 -96 -136 -137.5t-260 -46.5q-2 -69 30 -111t99 -42q40 0 87.5 14t85.5 39l6 -33q-37 -27 -95 -45t-121 -18q-105 0 -162.5 52t-57.5 143q0 25 7 63q25 120 108 189.5t205 69.5q106 0 156.5 -26.5zM414.5 442q-22.5 20 -72.5 20
q-71 0 -118.5 -62.5t-64.5 -148.5q-2 -7 -4 -23q282 27 282 160q0 34 -22.5 54z" />
    <glyph glyph-name="edotaccent" unicode="&#x117;" horiz-adv-x="544" 
d="M328 595q-11 12 -11 32q0 8 1 12q5 25 23 41t43 16q20 0 31.5 -11.5t11.5 -31.5q0 -29 -19.5 -49.5t-46.5 -20.5q-22 0 -33 12zM499.5 480.5q50.5 -26.5 50.5 -80.5q0 -13 -3 -30q-19 -96 -136 -137.5t-260 -46.5q-2 -69 30 -111t99 -42q40 0 87.5 14t85.5 39l6 -33
q-37 -27 -95 -45t-121 -18q-105 0 -162.5 52t-57.5 143q0 25 7 63q25 120 108 189.5t205 69.5q106 0 156.5 -26.5zM414.5 442q-22.5 20 -72.5 20q-71 0 -118.5 -62.5t-64.5 -148.5q-2 -7 -4 -23q282 27 282 160q0 34 -22.5 54z" />
    <glyph glyph-name="uni1EB9" unicode="&#x1eb9;" horiz-adv-x="544" 
d="M499.5 480.5q50.5 -26.5 50.5 -80.5q0 -13 -3 -30q-19 -96 -136 -137.5t-260 -46.5q-2 -69 30 -111t99 -42q40 0 87.5 14t85.5 39l6 -33q-37 -27 -95 -45t-121 -18q-105 0 -162.5 52t-57.5 143q0 25 7 63q25 120 108 189.5t205 69.5q106 0 156.5 -26.5zM414.5 442
q-22.5 20 -72.5 20q-71 0 -118.5 -62.5t-64.5 -148.5q-2 -7 -4 -23q282 27 282 160q0 34 -22.5 54zM250.5 -67.5q11.5 -11.5 11.5 -30.5q0 -29 -19 -50t-47 -21q-21 0 -33 12.5t-12 32.5q0 7 1 11q5 25 23.5 41t43.5 16q20 0 31.5 -11.5z" />
    <glyph glyph-name="egrave" unicode="&#xe8;" horiz-adv-x="544" 
d="M281 699q-8 13 -5 28t15.5 26.5t29.5 11.5q18 0 31.5 -10t21.5 -20l91 -120l-27 -31l-129 89q-20 13 -28 26zM499.5 480.5q50.5 -26.5 50.5 -80.5q0 -13 -3 -30q-19 -96 -136 -137.5t-260 -46.5q-2 -69 30 -111t99 -42q40 0 87.5 14t85.5 39l6 -33q-37 -27 -95 -45
t-121 -18q-105 0 -162.5 52t-57.5 143q0 25 7 63q25 120 108 189.5t205 69.5q106 0 156.5 -26.5zM414.5 442q-22.5 20 -72.5 20q-71 0 -118.5 -62.5t-64.5 -148.5q-2 -7 -4 -23q282 27 282 160q0 34 -22.5 54z" />
    <glyph glyph-name="uni1EBB" unicode="&#x1ebb;" horiz-adv-x="544" 
d="M411.5 695q19.5 13 24.5 39q1 3 1 9q0 17 -12.5 28t-36.5 11q-30 0 -63 -16l1 36q40 17 84 17q40 0 66 -17t26 -51q0 -5 -2 -19q-16 -74 -104 -82l-24 -68h-52l16 100h31q25 0 44.5 13zM499.5 480.5q50.5 -26.5 50.5 -80.5q0 -13 -3 -30q-19 -96 -136 -137.5t-260 -46.5
q-2 -69 30 -111t99 -42q40 0 87.5 14t85.5 39l6 -33q-37 -27 -95 -45t-121 -18q-105 0 -162.5 52t-57.5 143q0 25 7 63q25 120 108 189.5t205 69.5q106 0 156.5 -26.5zM414.5 442q-22.5 20 -72.5 20q-71 0 -118.5 -62.5t-64.5 -148.5q-2 -7 -4 -23q282 27 282 160
q0 34 -22.5 54z" />
    <glyph glyph-name="emacron" unicode="&#x113;" horiz-adv-x="544" 
d="M528 584h-356l9 44h355zM499.5 480.5q50.5 -26.5 50.5 -80.5q0 -13 -3 -30q-19 -96 -136 -137.5t-260 -46.5q-2 -69 30 -111t99 -42q40 0 87.5 14t85.5 39l6 -33q-37 -27 -95 -45t-121 -18q-105 0 -162.5 52t-57.5 143q0 25 7 63q25 120 108 189.5t205 69.5
q106 0 156.5 -26.5zM414.5 442q-22.5 20 -72.5 20q-71 0 -118.5 -62.5t-64.5 -148.5q-2 -7 -4 -23q282 27 282 160q0 34 -22.5 54z" />
    <glyph glyph-name="eogonek" unicode="&#x119;" horiz-adv-x="544" 
d="M499.5 480.5q50.5 -26.5 50.5 -80.5q0 -13 -3 -30q-19 -96 -136 -137.5t-260 -46.5q-2 -69 30 -111t99 -42q40 0 87.5 14t85.5 39l6 -33q-13 -9 -30 -18q-23 -16 -41.5 -39t-23.5 -45q-1 -4 -1 -11q0 -19 13.5 -30t35.5 -11q28 0 65 19l-12 -56q-21 -11 -48 -17t-54 -6
q-49 0 -75.5 19.5t-26.5 51.5q0 20 10.5 42.5t29.5 41.5q-25 -4 -58 -4q-105 0 -162.5 52t-57.5 143q0 25 7 63q25 120 108 189.5t205 69.5q106 0 156.5 -26.5zM414.5 442q-22.5 20 -72.5 20q-71 0 -118.5 -62.5t-64.5 -148.5q-2 -7 -4 -23q282 27 282 160q0 34 -22.5 54z
" />
    <glyph glyph-name="uni1EBD" unicode="&#x1ebd;" horiz-adv-x="544" 
d="M245 623.5q-18 -14.5 -28 -39.5h-51q18 55 51.5 83t79.5 28q24 0 42 -8t43 -23q17 -11 28 -16.5t23 -5.5q48 0 73 56h49q-39 -114 -132 -114q-20 0 -39 8t-44 23q-19 11 -31.5 17t-23.5 6q-22 0 -40 -14.5zM499.5 480.5q50.5 -26.5 50.5 -80.5q0 -13 -3 -30
q-19 -96 -136 -137.5t-260 -46.5q-2 -69 30 -111t99 -42q40 0 87.5 14t85.5 39l6 -33q-37 -27 -95 -45t-121 -18q-105 0 -162.5 52t-57.5 143q0 25 7 63q25 120 108 189.5t205 69.5q106 0 156.5 -26.5zM414.5 442q-22.5 20 -72.5 20q-71 0 -118.5 -62.5t-64.5 -148.5
q-2 -7 -4 -23q282 27 282 160q0 34 -22.5 54z" />
    <glyph glyph-name="f" unicode="f" horiz-adv-x="417" 
d="M504 698q36 -23 36 -64q0 -14 -2 -21q-3 -16 -17 -30t-32 -14q-33 0 -33 25q0 15 7 27q1 2 3 8t2 12q0 16 -15 24t-39 8q-42 0 -70 -32t-38 -84l-12 -59h142l-9 -44h-142l-90 -442q-19 -91 -77 -138t-147 -47q-72 0 -106 22t-34 61q0 11 3 25q3 16 16 30t32 14
q17 0 25 -8t8 -20q0 -6 -1 -9q-2 -6 -6 -15t-4 -19q0 -16 14 -24t38 -8q43 0 71 32t38 84l93 462h-89l8 44h90l8 38q19 91 74.5 138t144.5 47q74 0 110 -23z" />
    <glyph glyph-name="g" unicode="g" horiz-adv-x="533" 
d="M599.5 514q12.5 -13 12.5 -34q0 -12 -2 -19q-3 -17 -17.5 -31t-32.5 -14q-17 0 -23 8t-8 22q-2 9 -4.5 13.5t-9.5 4.5q-8 0 -31 -20q19 -30 19 -66q0 -20 -4 -37q-16 -79 -83 -121.5t-172 -42.5q-57 0 -101 14q-29 -19 -29 -46q0 -17 20 -23.5t59 -6.5h138q58 0 95 -26
t37 -73q0 -11 -3 -25q-16 -74 -89 -111t-198 -37q-194 0 -194 100q0 16 2 24q5 23 21.5 44.5t43.5 34.5q-21 18 -21 52q0 8 2 20q5 26 23.5 50.5t50.5 42.5q-48 34 -48 94q0 19 4 36q16 80 83 123t172 43q94 0 144 -35q33 27 57.5 41t51.5 14q22 0 34.5 -13zM378 379
q0 38 -19 60.5t-56 22.5q-47 0 -78.5 -34t-42.5 -87q-4 -17 -4 -37q0 -39 18.5 -61.5t56.5 -22.5q47 0 79 34t42 87q4 17 4 38zM116 24q-13 0 -18 1q-31 -27 -31 -69q0 -39 36 -56t90 -17q63 0 112.5 21.5t58.5 64.5q1 4 1 12q0 26 -25 34.5t-78 8.5h-146z" />
    <glyph glyph-name="gbreve" unicode="&#x11f;" horiz-adv-x="533" 
d="M233.5 611q-36.5 33 -32.5 98h72q-1 -5 -1 -15q0 -40 21.5 -54.5t55.5 -14.5q37 0 66 17t44 67h73q-23 -65 -73 -98t-119 -33q-70 0 -106.5 33zM599.5 514q12.5 -13 12.5 -34q0 -12 -2 -19q-3 -17 -17.5 -31t-32.5 -14q-17 0 -23 8t-8 22q-2 9 -4.5 13.5t-9.5 4.5
q-8 0 -31 -20q19 -30 19 -66q0 -20 -4 -37q-16 -79 -83 -121.5t-172 -42.5q-57 0 -101 14q-29 -19 -29 -46q0 -17 20 -23.5t59 -6.5h138q58 0 95 -26t37 -73q0 -11 -3 -25q-16 -74 -89 -111t-198 -37q-194 0 -194 100q0 16 2 24q5 23 21.5 44.5t43.5 34.5q-21 18 -21 52
q0 8 2 20q5 26 23.5 50.5t50.5 42.5q-48 34 -48 94q0 19 4 36q16 80 83 123t172 43q94 0 144 -35q33 27 57.5 41t51.5 14q22 0 34.5 -13zM378 379q0 38 -19 60.5t-56 22.5q-47 0 -78.5 -34t-42.5 -87q-4 -17 -4 -37q0 -39 18.5 -61.5t56.5 -22.5q47 0 79 34t42 87q4 17 4 38
zM116 24q-13 0 -18 1q-31 -27 -31 -69q0 -39 36 -56t90 -17q63 0 112.5 21.5t58.5 64.5q1 4 1 12q0 26 -25 34.5t-78 8.5h-146z" />
    <glyph glyph-name="gcaron" unicode="&#x1e7;" horiz-adv-x="533" 
d="M259.5 654.5q-36.5 43.5 -63.5 65.5l58 41q26 -25 53.5 -60.5t38.5 -61.5h4q23 26 65 61.5t77 60.5l44 -41q-37 -22 -91 -65t-78 -71h-59q-12 27 -48.5 70.5zM599.5 514q12.5 -13 12.5 -34q0 -12 -2 -19q-3 -17 -17.5 -31t-32.5 -14q-17 0 -23 8t-8 22q-2 9 -4.5 13.5
t-9.5 4.5q-8 0 -31 -20q19 -30 19 -66q0 -20 -4 -37q-16 -79 -83 -121.5t-172 -42.5q-57 0 -101 14q-29 -19 -29 -46q0 -17 20 -23.5t59 -6.5h138q58 0 95 -26t37 -73q0 -11 -3 -25q-16 -74 -89 -111t-198 -37q-194 0 -194 100q0 16 2 24q5 23 21.5 44.5t43.5 34.5
q-21 18 -21 52q0 8 2 20q5 26 23.5 50.5t50.5 42.5q-48 34 -48 94q0 19 4 36q16 80 83 123t172 43q94 0 144 -35q33 27 57.5 41t51.5 14q22 0 34.5 -13zM378 379q0 38 -19 60.5t-56 22.5q-47 0 -78.5 -34t-42.5 -87q-4 -17 -4 -37q0 -39 18.5 -61.5t56.5 -22.5q47 0 79 34
t42 87q4 17 4 38zM116 24q-13 0 -18 1q-31 -27 -31 -69q0 -39 36 -56t90 -17q63 0 112.5 21.5t58.5 64.5q1 4 1 12q0 26 -25 34.5t-78 8.5h-146z" />
    <glyph glyph-name="gcircumflex" unicode="&#x11d;" horiz-adv-x="533" 
d="M300 641q-42 -36 -78 -61l-44 41q37 22 91.5 66t76.5 70h60q13 -27 49.5 -71t63.5 -65l-59 -41q-25 24 -53 60t-40 62h-3q-22 -25 -64 -61zM599.5 514q12.5 -13 12.5 -34q0 -12 -2 -19q-3 -17 -17.5 -31t-32.5 -14q-17 0 -23 8t-8 22q-2 9 -4.5 13.5t-9.5 4.5
q-8 0 -31 -20q19 -30 19 -66q0 -20 -4 -37q-16 -79 -83 -121.5t-172 -42.5q-57 0 -101 14q-29 -19 -29 -46q0 -17 20 -23.5t59 -6.5h138q58 0 95 -26t37 -73q0 -11 -3 -25q-16 -74 -89 -111t-198 -37q-194 0 -194 100q0 16 2 24q5 23 21.5 44.5t43.5 34.5q-21 18 -21 52
q0 8 2 20q5 26 23.5 50.5t50.5 42.5q-48 34 -48 94q0 19 4 36q16 80 83 123t172 43q94 0 144 -35q33 27 57.5 41t51.5 14q22 0 34.5 -13zM378 379q0 38 -19 60.5t-56 22.5q-47 0 -78.5 -34t-42.5 -87q-4 -17 -4 -37q0 -39 18.5 -61.5t56.5 -22.5q47 0 79 34t42 87q4 17 4 38
zM116 24q-13 0 -18 1q-31 -27 -31 -69q0 -39 36 -56t90 -17q63 0 112.5 21.5t58.5 64.5q1 4 1 12q0 26 -25 34.5t-78 8.5h-146z" />
    <glyph glyph-name="gcommaaccent" unicode="&#x123;" horiz-adv-x="533" 
d="M295 593q-14 14 -14 38q0 12 3 22q10 51 45.5 105.5t80.5 89.5l34 -32q-26 -24 -48.5 -54.5t-32.5 -59.5q25 -1 39 -12.5t14 -33.5q0 -35 -24 -56t-54 -21q-29 0 -43 14zM599.5 514q12.5 -13 12.5 -34q0 -12 -2 -19q-3 -17 -17.5 -31t-32.5 -14q-17 0 -23 8t-8 22
q-2 9 -4.5 13.5t-9.5 4.5q-8 0 -31 -20q19 -30 19 -66q0 -20 -4 -37q-16 -79 -83 -121.5t-172 -42.5q-57 0 -101 14q-29 -19 -29 -46q0 -17 20 -23.5t59 -6.5h138q58 0 95 -26t37 -73q0 -11 -3 -25q-16 -74 -89 -111t-198 -37q-194 0 -194 100q0 16 2 24q5 23 21.5 44.5
t43.5 34.5q-21 18 -21 52q0 8 2 20q5 26 23.5 50.5t50.5 42.5q-48 34 -48 94q0 19 4 36q16 80 83 123t172 43q94 0 144 -35q33 27 57.5 41t51.5 14q22 0 34.5 -13zM378 379q0 38 -19 60.5t-56 22.5q-47 0 -78.5 -34t-42.5 -87q-4 -17 -4 -37q0 -39 18.5 -61.5t56.5 -22.5
q47 0 79 34t42 87q4 17 4 38zM116 24q-13 0 -18 1q-31 -27 -31 -69q0 -39 36 -56t90 -17q63 0 112.5 21.5t58.5 64.5q1 4 1 12q0 26 -25 34.5t-78 8.5h-146z" />
    <glyph glyph-name="gdotaccent" unicode="&#x121;" horiz-adv-x="533" 
d="M302 595q-11 12 -11 32q0 8 1 12q5 25 23 41t43 16q20 0 31.5 -11.5t11.5 -31.5q0 -29 -19.5 -49.5t-46.5 -20.5q-22 0 -33 12zM599.5 514q12.5 -13 12.5 -34q0 -12 -2 -19q-3 -17 -17.5 -31t-32.5 -14q-17 0 -23 8t-8 22q-2 9 -4.5 13.5t-9.5 4.5q-8 0 -31 -20
q19 -30 19 -66q0 -20 -4 -37q-16 -79 -83 -121.5t-172 -42.5q-57 0 -101 14q-29 -19 -29 -46q0 -17 20 -23.5t59 -6.5h138q58 0 95 -26t37 -73q0 -11 -3 -25q-16 -74 -89 -111t-198 -37q-194 0 -194 100q0 16 2 24q5 23 21.5 44.5t43.5 34.5q-21 18 -21 52q0 8 2 20
q5 26 23.5 50.5t50.5 42.5q-48 34 -48 94q0 19 4 36q16 80 83 123t172 43q94 0 144 -35q33 27 57.5 41t51.5 14q22 0 34.5 -13zM378 379q0 38 -19 60.5t-56 22.5q-47 0 -78.5 -34t-42.5 -87q-4 -17 -4 -37q0 -39 18.5 -61.5t56.5 -22.5q47 0 79 34t42 87q4 17 4 38zM116 24
q-13 0 -18 1q-31 -27 -31 -69q0 -39 36 -56t90 -17q63 0 112.5 21.5t58.5 64.5q1 4 1 12q0 26 -25 34.5t-78 8.5h-146z" />
    <glyph glyph-name="uni1E21" unicode="&#x1e21;" horiz-adv-x="533" 
d="M512 584h-355l9 44h355zM599.5 514q12.5 -13 12.5 -34q0 -12 -2 -19q-3 -17 -17.5 -31t-32.5 -14q-17 0 -23 8t-8 22q-2 9 -4.5 13.5t-9.5 4.5q-8 0 -31 -20q19 -30 19 -66q0 -20 -4 -37q-16 -79 -83 -121.5t-172 -42.5q-57 0 -101 14q-29 -19 -29 -46q0 -17 20 -23.5
t59 -6.5h138q58 0 95 -26t37 -73q0 -11 -3 -25q-16 -74 -89 -111t-198 -37q-194 0 -194 100q0 16 2 24q5 23 21.5 44.5t43.5 34.5q-21 18 -21 52q0 8 2 20q5 26 23.5 50.5t50.5 42.5q-48 34 -48 94q0 19 4 36q16 80 83 123t172 43q94 0 144 -35q33 27 57.5 41t51.5 14
q22 0 34.5 -13zM378 379q0 38 -19 60.5t-56 22.5q-47 0 -78.5 -34t-42.5 -87q-4 -17 -4 -37q0 -39 18.5 -61.5t56.5 -22.5q47 0 79 34t42 87q4 17 4 38zM116 24q-13 0 -18 1q-31 -27 -31 -69q0 -39 36 -56t90 -17q63 0 112.5 21.5t58.5 64.5q1 4 1 12q0 26 -25 34.5t-78 8.5
h-146z" />
    <glyph glyph-name="h" unicode="h" horiz-adv-x="673" 
d="M666 143q-28 -66 -73 -109.5t-101 -43.5q-33 0 -53 26t-20 67q0 15 3 33l33 160q17 82 17 121q0 35 -13 50t-43 15q-33 0 -79 -41.5t-93 -111.5l-63 -309l-129 -10l136 667q-35 8 -62 19l2 10l197 20l-67 -329q40 56 92.5 93t111.5 37q67 0 102.5 -28.5t35.5 -86.5
q0 -25 -5 -48l-50 -243q-4 -20 -4 -29q0 -25 15 -25q18 0 44.5 35t41.5 73z" />
    <glyph glyph-name="hbar" unicode="&#x127;" horiz-adv-x="673" 
d="M666 143q-28 -66 -73 -109.5t-101 -43.5q-33 0 -53 26t-20 67q0 15 3 33l33 160q17 82 17 121q0 35 -13 50t-43 15q-33 0 -79 -41.5t-93 -111.5l-63 -309l-129 -10l116 567h-67l10 47h66l11 53q-35 8 -62 19l2 10l197 20l-21 -102h131l-10 -47h-130l-37 -180
q40 56 92.5 93t111.5 37q67 0 102.5 -28.5t35.5 -86.5q0 -25 -5 -48l-50 -243q-4 -20 -4 -29q0 -25 15 -25q18 0 44.5 35t41.5 73z" />
    <glyph glyph-name="uni1E2B" unicode="&#x1e2b;" horiz-adv-x="673" 
d="M666 143q-28 -66 -73 -109.5t-101 -43.5q-33 0 -53 26t-20 67q0 15 3 33l33 160q17 82 17 121q0 35 -13 50t-43 15q-33 0 -79 -41.5t-93 -111.5l-63 -309l-129 -10l136 667q-35 8 -62 19l2 10l197 20l-67 -329q40 56 92.5 93t111.5 37q67 0 102.5 -28.5t35.5 -86.5
q0 -25 -5 -48l-50 -243q-4 -20 -4 -29q0 -25 15 -25q18 0 44.5 35t41.5 73zM330 -117.5q28 17.5 44 67.5h73q-23 -66 -73 -98.5t-118 -32.5q-69 0 -106 32.5t-33 98.5h73q-1 -6 -1 -17q0 -40 21.5 -54t55.5 -14q36 0 64 17.5z" />
    <glyph glyph-name="hcircumflex" unicode="&#x125;" horiz-adv-x="673" 
d="M411.5 830.5q-41.5 -35.5 -77.5 -61.5l-44 41q36 22 90.5 65.5t77.5 70.5h59q13 -27 49.5 -71t63.5 -65l-59 -41q-26 24 -53 60t-39 62h-4q-22 -25 -63.5 -60.5zM666 143q-28 -66 -73 -109.5t-101 -43.5q-33 0 -53 26t-20 67q0 15 3 33l33 160q17 82 17 121q0 35 -13 50
t-43 15q-33 0 -79 -41.5t-93 -111.5l-63 -309l-129 -10l136 667q-35 8 -62 19l2 10l197 20l-67 -329q40 56 92.5 93t111.5 37q67 0 102.5 -28.5t35.5 -86.5q0 -25 -5 -48l-50 -243q-4 -20 -4 -29q0 -25 15 -25q18 0 44.5 35t41.5 73z" />
    <glyph glyph-name="uni1E25" unicode="&#x1e25;" horiz-adv-x="673" 
d="M666 143q-28 -66 -73 -109.5t-101 -43.5q-33 0 -53 26t-20 67q0 15 3 33l33 160q17 82 17 121q0 35 -13 50t-43 15q-33 0 -79 -41.5t-93 -111.5l-63 -309l-129 -10l136 667q-35 8 -62 19l2 10l197 20l-67 -329q40 56 92.5 93t111.5 37q67 0 102.5 -28.5t35.5 -86.5
q0 -25 -5 -48l-50 -243q-4 -20 -4 -29q0 -25 15 -25q18 0 44.5 35t41.5 73zM314 -67.5q11 -11.5 11 -30.5q0 -30 -19 -50.5t-47 -20.5q-21 0 -32.5 12t-11.5 31q0 29 19.5 49.5t47.5 20.5q21 0 32 -11.5z" />
    <glyph glyph-name="i" unicode="i" horiz-adv-x="324" 
d="M177.5 559q-14.5 14 -14.5 38q0 36 24 60.5t59 24.5q26 0 41 -14.5t15 -38.5q0 -35 -24.5 -59.5t-58.5 -24.5q-27 0 -41.5 14zM92.5 11.5q-22.5 21.5 -22.5 59.5q0 14 3 30l73 356q-26 6 -64 18l3 11l196 19l-82 -401q-3 -16 -3 -32q0 -25 14 -25q19 0 43.5 33.5
t41.5 74.5l24 -12q-27 -66 -72 -109.5t-100 -43.5q-32 0 -54.5 21.5z" />
    <glyph glyph-name="dotlessi" unicode="&#x131;" horiz-adv-x="343" 
d="M100 11.5q-22 21.5 -22 60.5q0 14 3 29l73 356q-23 5 -63 18l3 11l196 19l-82 -401q-4 -22 -4 -32q0 -25 15 -25q18 0 43 34t42 74l24 -12q-28 -67 -72.5 -110t-100.5 -43q-33 0 -55 21.5z" />
    <glyph glyph-name="iacute" unicode="&#xed;" horiz-adv-x="343" 
d="M142 615l140 119q10 10 27 20.5t35 10.5q17 0 25 -8t8 -20q0 -6 -1 -9q-6 -29 -53 -55l-166 -89zM100 11.5q-22 21.5 -22 60.5q0 14 3 29l73 356q-23 5 -63 18l3 11l196 19l-82 -401q-4 -22 -4 -32q0 -25 15 -25q18 0 43 34t42 74l24 -12q-28 -67 -72.5 -110t-100.5 -43
q-33 0 -55 21.5z" />
    <glyph glyph-name="ibreve" unicode="&#x12d;" horiz-adv-x="343" 
d="M135.5 614.5q-36.5 32.5 -33.5 98.5h73q-1 -5 -1 -15q0 -40 21.5 -54.5t55.5 -14.5q38 0 66 17t44 67h73q-23 -66 -73 -98.5t-119 -32.5q-70 0 -106.5 32.5zM100 11.5q-22 21.5 -22 60.5q0 14 3 29l73 356q-23 5 -63 18l3 11l196 19l-82 -401q-4 -22 -4 -32q0 -25 15 -25
q18 0 43 34t42 74l24 -12q-28 -67 -72.5 -110t-100.5 -43q-33 0 -55 21.5z" />
    <glyph glyph-name="uni01D0" unicode="&#x1d0;" horiz-adv-x="343" 
d="M164 654.5q-37 43.5 -64 65.5l60 41q26 -24 53 -60t39 -62h4q23 26 65 62t76 60l45 -41q-37 -22 -91 -65t-78 -71h-59q-13 27 -50 70.5zM100 11.5q-22 21.5 -22 60.5q0 14 3 29l73 356q-23 5 -63 18l3 11l196 19l-82 -401q-4 -22 -4 -32q0 -25 15 -25q18 0 43 34t42 74
l24 -12q-28 -67 -72.5 -110t-100.5 -43q-33 0 -55 21.5z" />
    <glyph glyph-name="icircumflex" unicode="&#xee;" horiz-adv-x="343" 
d="M79 621q37 22 91.5 66t76.5 70h60q13 -27 49.5 -71t63.5 -65l-59 -41q-25 24 -53 60t-40 62h-3q-22 -25 -63.5 -60.5t-77.5 -61.5zM100 11.5q-22 21.5 -22 60.5q0 14 3 29l73 356q-23 5 -63 18l3 11l196 19l-82 -401q-4 -22 -4 -32q0 -25 15 -25q18 0 43 34t42 74l24 -12
q-28 -67 -72.5 -110t-100.5 -43q-33 0 -55 21.5z" />
    <glyph glyph-name="idieresis" unicode="&#xef;" horiz-adv-x="343" 
d="M99 595q-11 12 -11 31q0 29 19 49.5t45 20.5q21 0 33 -12t12 -32q0 -29 -19.5 -49t-48.5 -20q-19 0 -30 12zM322 594.5q-11 11.5 -11 30.5q0 30 18.5 50.5t47.5 20.5q21 0 32.5 -11.5t11.5 -30.5q0 -29 -19.5 -50t-47.5 -21q-21 0 -32 11.5zM100 11.5q-22 21.5 -22 60.5
q0 14 3 29l73 356q-23 5 -63 18l3 11l196 19l-82 -401q-4 -22 -4 -32q0 -25 15 -25q18 0 43 34t42 74l24 -12q-28 -67 -72.5 -110t-100.5 -43q-33 0 -55 21.5z" />
    <glyph glyph-name="uni1ECB" unicode="&#x1ecb;" horiz-adv-x="324" 
d="M177.5 559q-14.5 14 -14.5 38q0 36 24 60.5t59 24.5q26 0 41 -14.5t15 -38.5q0 -35 -24.5 -59.5t-58.5 -24.5q-27 0 -41.5 14zM92.5 11.5q-22.5 21.5 -22.5 59.5q0 14 3 30l73 356q-26 6 -64 18l3 11l196 19l-82 -401q-3 -16 -3 -32q0 -25 14 -25q19 0 43.5 33.5
t41.5 74.5l24 -12q-27 -66 -72 -109.5t-100 -43.5q-32 0 -54.5 21.5zM47.5 -157q-11.5 12 -11.5 32q0 29 20 49t47 20q20 0 31.5 -12t11.5 -31q0 -29 -19 -49.5t-47 -20.5q-21 0 -32.5 12z" />
    <glyph glyph-name="igrave" unicode="&#xec;" horiz-adv-x="343" 
d="M186 673q-20 13 -28 26t-5 28t15.5 26.5t29.5 11.5q18 0 31.5 -10t21.5 -20l91 -120l-26 -31zM100 11.5q-22 21.5 -22 60.5q0 14 3 29l73 356q-23 5 -63 18l3 11l196 19l-82 -401q-4 -22 -4 -32q0 -25 15 -25q18 0 43 34t42 74l24 -12q-28 -67 -72.5 -110t-100.5 -43
q-33 0 -55 21.5z" />
    <glyph glyph-name="uni1EC9" unicode="&#x1ec9;" horiz-adv-x="343" 
d="M222 682h32q25 0 44.5 13t24.5 39q1 3 1 9q0 17 -13 28t-37 11q-29 0 -62 -16l1 36q40 17 83 17q40 0 66.5 -16.5t26.5 -51.5q0 -5 -2 -19q-16 -74 -104 -82l-24 -68h-52zM100 11.5q-22 21.5 -22 60.5q0 14 3 29l73 356q-23 5 -63 18l3 11l196 19l-82 -401q-4 -22 -4 -32
q0 -25 15 -25q18 0 43 34t42 74l24 -12q-28 -67 -72.5 -110t-100.5 -43q-33 0 -55 21.5z" />
    <glyph glyph-name="ij" unicode="&#x133;" horiz-adv-x="654" 
d="M177.5 559q-14.5 14 -14.5 38q0 36 24 60.5t59 24.5q26 0 41 -14.5t15 -38.5q0 -35 -24.5 -59.5t-58.5 -24.5q-27 0 -41.5 14zM526 559.5q-14 14.5 -14 38.5q0 36 24 60t58 24q26 0 41 -15t15 -40q0 -34 -25 -58t-59 -24q-26 0 -40 14.5zM92.5 11.5
q-22.5 21.5 -22.5 59.5q0 14 3 30l73 356q-26 6 -64 18l3 11l196 19l-82 -401q-3 -16 -3 -32q0 -25 14 -25q19 0 43.5 33.5t41.5 74.5l24 -12q-27 -66 -72 -109.5t-100 -43.5q-32 0 -54.5 21.5zM197 -158q-34 22 -34 62q0 12 3 24q3 16 17 30t32 14q16 0 24 -7.5t8 -19.5
q0 -7 -1 -11q0 -5 -5 -15.5t-5 -18.5q0 -16 14.5 -24t38.5 -8q41 0 69 32t38 84l97 473q-28 7 -62 18l3 11l195 19l-106 -521q-16 -80 -74.5 -122t-145.5 -42q-72 0 -106 22z" />
    <glyph glyph-name="imacron" unicode="&#x12b;" horiz-adv-x="343" 
d="M75 628h355l-9 -44h-355zM100 11.5q-22 21.5 -22 60.5q0 14 3 29l73 356q-23 5 -63 18l3 11l196 19l-82 -401q-4 -22 -4 -32q0 -25 15 -25q18 0 43 34t42 74l24 -12q-28 -67 -72.5 -110t-100.5 -43q-33 0 -55 21.5z" />
    <glyph glyph-name="iogonek" unicode="&#x12f;" horiz-adv-x="324" 
d="M177.5 559q-14.5 14 -14.5 38q0 36 24 60.5t59 24.5q26 0 41 -14.5t15 -38.5q0 -35 -24.5 -59.5t-58.5 -24.5q-27 0 -41.5 14zM146 -88q0 -19 13 -29.5t36 -10.5q27 0 64 19l-12 -56q-21 -11 -48 -17t-54 -6q-49 0 -75.5 19.5t-26.5 51.5q0 29 20.5 60t54.5 52
q-22 9 -35.5 28t-13.5 48q0 8 4 30l73 356q-26 6 -64 18l3 11l196 19l-82 -401q-3 -16 -3 -32q0 -25 14 -25q19 0 43.5 33.5t41.5 74.5l24 -12q-19 -47 -48 -83.5t-64 -54.5q-22 -16 -39 -38t-21 -43q-1 -4 -1 -12z" />
    <glyph glyph-name="itilde" unicode="&#x129;" horiz-adv-x="343" 
d="M112 667q34 28 80 28q24 0 42 -8t42 -23q17 -11 28 -16.5t23 -5.5q49 0 73 56h49q-37 -114 -132 -114q-19 0 -37.5 8t-43.5 23q-21 12 -33.5 17.5t-23.5 5.5q-22 0 -40 -14.5t-28 -39.5h-51q18 55 52 83zM100 11.5q-22 21.5 -22 60.5q0 14 3 29l73 356q-23 5 -63 18l3 11
l196 19l-82 -401q-4 -22 -4 -32q0 -25 15 -25q18 0 43 34t42 74l24 -12q-28 -67 -72.5 -110t-100.5 -43q-33 0 -55 21.5z" />
    <glyph glyph-name="j" unicode="j" horiz-adv-x="330" 
d="M202.5 559q-14.5 14 -14.5 38q0 36 24 60.5t58 24.5q26 0 41.5 -14.5t15.5 -38.5q0 -35 -25 -59.5t-59 -24.5q-26 0 -40.5 14zM-160 -95q0 7 2 23q3 16 17 30t32 14q33 0 33 -27q0 -7 -1 -11q0 -5 -5.5 -15t-5.5 -18q0 -17 14.5 -25t38.5 -8q42 0 69.5 32t38.5 84l97 473
q-28 6 -63 18l3 11l196 19l-107 -521q-16 -80 -74.5 -122t-144.5 -42q-140 0 -140 85z" />
    <glyph glyph-name="uni0237" unicode="&#x237;" horiz-adv-x="330" 
d="M-160 -95q0 7 2 23q3 16 17 30t32 14q33 0 33 -27q0 -7 -1 -11q0 -5 -5.5 -15t-5.5 -18q0 -17 14.5 -25t38.5 -8q42 0 69.5 32t38.5 84l97 473q-28 6 -63 18l3 11l196 19l-107 -521q-16 -80 -74.5 -122t-144.5 -42q-140 0 -140 85z" />
    <glyph glyph-name="jcircumflex" unicode="&#x135;" horiz-adv-x="330" 
d="M76 621q37 22 91.5 65.5t76.5 70.5h60q13 -27 49.5 -71t63.5 -65l-59 -41q-26 24 -53 60t-39 62h-4q-22 -25 -63.5 -60.5t-77.5 -61.5zM-160 -95q0 7 2 23q3 16 17 30t32 14q33 0 33 -27q0 -7 -1 -11q0 -5 -5.5 -15t-5.5 -18q0 -17 14.5 -25t38.5 -8q42 0 69.5 32
t38.5 84l97 473q-28 6 -63 18l3 11l196 19l-107 -521q-16 -80 -74.5 -122t-144.5 -42q-140 0 -140 85z" />
    <glyph glyph-name="k" unicode="k" horiz-adv-x="647" 
d="M634.5 499.5q12.5 -13.5 12.5 -36.5q0 -4 -2 -16q-4 -17 -18.5 -31t-32.5 -14q-17 0 -23 8t-8 22q-2 9 -4.5 13.5t-9.5 4.5q-8 0 -20 -10t-15 -13l-147 -122l107 -198q19 -35 49 -35q22 0 41.5 28.5t34.5 67.5l22 -15q-9 -32 -30 -70t-52 -65.5t-69 -27.5q-29 0 -51 20.5
t-46 65.5l-87 162l-68 -57l-37 -181l-129 -10l137 667q-35 8 -63 19l2 10l197 20l-94 -460l253 208q35 28 61 43.5t54 15.5q23 0 35.5 -13.5z" />
    <glyph glyph-name="kcommaaccent" unicode="&#x137;" horiz-adv-x="647" 
d="M634.5 499.5q12.5 -13.5 12.5 -36.5q0 -4 -2 -16q-4 -17 -18.5 -31t-32.5 -14q-17 0 -23 8t-8 22q-2 9 -4.5 13.5t-9.5 4.5q-8 0 -20 -10t-15 -13l-147 -122l107 -198q19 -35 49 -35q22 0 41.5 28.5t34.5 67.5l22 -15q-9 -32 -30 -70t-52 -65.5t-69 -27.5q-29 0 -51 20.5
t-46 65.5l-87 162l-68 -57l-37 -181l-129 -10l137 667q-35 8 -63 19l2 10l197 20l-94 -460l253 208q35 28 61 43.5t54 15.5q23 0 35.5 -13.5zM317 -91q14 -14 14 -38q0 -12 -3 -22q-10 -51 -45.5 -105.5t-80.5 -89.5l-34 32q64 62 81 114q-25 1 -39 13.5t-14 34.5
q0 34 24 54.5t54 20.5q29 0 43 -14z" />
    <glyph glyph-name="kgreenlandic" unicode="&#x138;" horiz-adv-x="647" 
d="M634.5 499.5q12.5 -13.5 12.5 -36.5q0 -4 -2 -16q-4 -17 -18.5 -31t-32.5 -14q-17 0 -23 8t-8 22q-2 9 -4.5 13.5t-9.5 4.5q-8 0 -20 -10t-15 -13l-147 -122l107 -198q19 -35 49 -35q22 0 41.5 28.5t34.5 67.5l22 -15q-9 -32 -30 -70t-52 -65.5t-69 -27.5q-29 0 -51 20.5
t-46 65.5l-87 162l-68 -57l-37 -181l-129 -10l96 468q-36 8 -62 19l2 10l196 20l-53 -261l253 208q35 28 61 43.5t54 15.5q23 0 35.5 -13.5z" />
    <glyph glyph-name="l" unicode="l" horiz-adv-x="330" 
d="M94 11q-22 21 -22 59q0 9 4 31l113 556q-35 8 -63 19l2 10l197 20l-123 -602q-4 -22 -4 -31q0 -26 15 -26q19 0 43.5 33.5t41.5 74.5l24 -12q-27 -66 -72 -109.5t-101 -43.5q-33 0 -55 21z" />
    <glyph glyph-name="lacute" unicode="&#x13a;" horiz-adv-x="330" 
d="M181 794l140 119q10 10 27 20.5t36 10.5q16 0 24 -8t8 -20q0 -6 -1 -9q-4 -28 -52 -55l-167 -89zM94 11q-22 21 -22 59q0 9 4 31l113 556q-35 8 -63 19l2 10l197 20l-123 -602q-4 -22 -4 -31q0 -26 15 -26q19 0 43.5 33.5t41.5 74.5l24 -12q-27 -66 -72 -109.5
t-101 -43.5q-33 0 -55 21z" />
    <glyph glyph-name="lcaron" unicode="&#x13e;" horiz-adv-x="491" 
d="M368 464q26 24 48.5 54t32.5 60q-10 0 -13 1q-20 1 -31.5 14t-11.5 32q0 6 2 16q6 30 28 49.5t52 19.5q31 0 45 -16.5t14 -42.5q0 -16 -2 -24q-10 -51 -47.5 -105.5t-82.5 -89.5zM94 11q-22 21 -22 59q0 9 4 31l113 556q-35 8 -63 19l2 10l197 20l-123 -602
q-4 -22 -4 -31q0 -26 15 -26q19 0 43.5 33.5t41.5 74.5l24 -12q-27 -66 -72 -109.5t-101 -43.5q-33 0 -55 21z" />
    <glyph glyph-name="lcommaaccent" unicode="&#x13c;" horiz-adv-x="329" 
d="M94 11q-22 21 -22 59q0 9 4 31l113 556q-35 8 -63 19l2 10l197 20l-123 -602q-4 -22 -4 -31q0 -26 15 -26q19 0 43.5 33.5t41.5 74.5l24 -12q-27 -66 -72 -109.5t-101 -43.5q-33 0 -55 21zM-7 -314q26 24 49 54.5t33 59.5q-25 1 -39.5 13t-14.5 33q0 35 24 56t55 21
q28 0 42 -14t14 -38q0 -12 -3 -22q-10 -51 -45.5 -105.5t-79.5 -89.5z" />
    <glyph glyph-name="ldot" unicode="&#x140;" horiz-adv-x="458" 
d="M94 11q-22 21 -22 59q0 9 4 31l113 556q-35 8 -63 19l2 10l197 20l-123 -602q-4 -22 -4 -31q0 -26 15 -26q19 0 43.5 33.5t41.5 74.5l24 -12q-27 -66 -72 -109.5t-101 -43.5q-33 0 -55 21zM334.5 301q-12.5 12 -12.5 31q0 31 20.5 52t49.5 21q22 0 33.5 -12t11.5 -33
q0 -9 -1 -14q-5 -25 -23.5 -41t-44.5 -16q-21 0 -33.5 12z" />
    <glyph glyph-name="uni1E37" unicode="&#x1e37;" horiz-adv-x="329" 
d="M94 11q-22 21 -22 59q0 9 4 31l113 556q-35 8 -63 19l2 10l197 20l-123 -602q-4 -22 -4 -31q0 -26 15 -26q19 0 43.5 33.5t41.5 74.5l24 -12q-27 -66 -72 -109.5t-101 -43.5q-33 0 -55 21zM68.5 -153.5q-11.5 11.5 -11.5 30.5q0 29 19.5 50t47.5 21q21 0 32.5 -12.5
t11.5 -32.5q0 -7 -1 -11q-5 -25 -23.5 -41t-43.5 -16q-20 0 -31.5 11.5z" />
    <glyph glyph-name="uni1E39" unicode="&#x1e39;" horiz-adv-x="329" 
d="M107 828h356l-8 -43h-356zM94 11q-22 21 -22 59q0 9 4 31l113 556q-35 8 -63 19l2 10l197 20l-123 -602q-4 -22 -4 -31q0 -26 15 -26q19 0 43.5 33.5t41.5 74.5l24 -12q-27 -66 -72 -109.5t-101 -43.5q-33 0 -55 21zM69.5 -153.5q-11.5 11.5 -11.5 30.5q0 29 19.5 50
t46.5 21q21 0 33 -12.5t12 -32.5q0 -7 -1 -11q-5 -25 -23.5 -41t-43.5 -16q-20 0 -31.5 11.5z" />
    <glyph glyph-name="uni1E3B" unicode="&#x1e3b;" horiz-adv-x="329" 
d="M94 11q-22 21 -22 59q0 9 4 31l113 556q-35 8 -63 19l2 10l197 20l-123 -602q-4 -22 -4 -31q0 -26 15 -26q19 0 43.5 33.5t41.5 74.5l24 -12q-27 -66 -72 -109.5t-101 -43.5q-33 0 -55 21zM-74 -64h355l-9 -43h-355z" />
    <glyph glyph-name="lslash" unicode="&#x142;" horiz-adv-x="338" 
d="M204 104q-4 -22 -4 -32q0 -25 15 -25q19 0 43.5 33.5t41.5 74.5l24 -12q-27 -66 -72 -109.5t-101 -43.5q-33 0 -55 21.5t-22 60.5q0 14 3 29l30 147l-91 -34l12 61l92 35l71 347q-38 8 -63 19l2 10l197 20l-70 -345l100 38l-13 -62l-100 -38z" />
    <glyph glyph-name="m" unicode="m" horiz-adv-x="973" 
d="M974 143q-28 -66 -73 -109.5t-101 -43.5q-33 0 -53 26t-20 67q0 17 3 33l33 160q18 83 18 124q0 34 -12.5 48t-41.5 14q-31 0 -71.5 -37t-85.5 -103l-65 -322l-124 -10l76 370q5 23 5 46q0 31 -13.5 43.5t-39.5 12.5q-33 0 -75.5 -38t-87.5 -104l-65 -320l-129 -10
l96 470q-28 5 -62 18l2 10l196 20l-25 -121q39 53 88.5 86.5t106.5 33.5q64 0 96.5 -26.5t32.5 -77.5l-1 -16q39 53 87.5 86.5t104.5 33.5q134 0 134 -114q0 -26 -5 -49l-50 -243q-4 -20 -4 -29q0 -25 16 -25q18 0 43.5 34.5t41.5 73.5z" />
    <glyph glyph-name="uni1E43" unicode="&#x1e43;" horiz-adv-x="972" 
d="M974 143q-28 -66 -73 -109.5t-101 -43.5q-33 0 -53 26t-20 67q0 17 3 33l33 160q18 83 18 124q0 34 -12.5 48t-41.5 14q-31 0 -71.5 -37t-85.5 -103l-65 -322l-124 -10l76 370q5 23 5 46q0 31 -13.5 43.5t-39.5 12.5q-33 0 -75.5 -38t-87.5 -104l-65 -320l-129 -10
l96 470q-28 5 -62 18l2 10l196 20l-25 -121q39 53 88.5 86.5t106.5 33.5q64 0 96.5 -26.5t32.5 -77.5l-1 -16q39 53 87.5 86.5t104.5 33.5q134 0 134 -114q0 -26 -5 -49l-50 -243q-4 -20 -4 -29q0 -25 16 -25q18 0 43.5 34.5t41.5 73.5zM463.5 -67.5q11.5 -11.5 11.5 -30.5
q0 -29 -19 -50t-47 -21q-21 0 -33 12.5t-12 32.5q0 7 1 11q5 25 23.5 41t43.5 16q20 0 31.5 -11.5z" />
    <glyph glyph-name="n" unicode="n" horiz-adv-x="673" 
d="M670 143q-28 -66 -73 -109.5t-101 -43.5q-33 0 -53 26t-20 67q0 15 3 33l33 160q17 82 17 121q0 35 -13 50t-43 15q-34 0 -82 -44.5t-96 -118.5l-61 -299l-129 -10l96 470q-28 5 -62 18l2 10l196 20l-28 -139q40 59 94.5 98.5t116.5 39.5q66 0 102 -28.5t36 -86.5
q0 -27 -5 -48l-50 -243q-4 -20 -4 -29q0 -25 15 -25q17 0 43.5 35t42.5 73z" />
    <glyph glyph-name="nacute" unicode="&#x144;" horiz-adv-x="672" 
d="M327 584l-15 31l140 119q10 10 26.5 20.5t35.5 10.5q17 0 25 -8t8 -20q0 -6 -1 -9q-6 -29 -53 -55zM670 143q-28 -66 -73 -109.5t-101 -43.5q-33 0 -53 26t-20 67q0 15 3 33l33 160q17 82 17 121q0 35 -13 50t-43 15q-34 0 -82 -44.5t-96 -118.5l-61 -299l-129 -10
l96 470q-28 5 -62 18l2 10l196 20l-28 -139q40 59 94.5 98.5t116.5 39.5q66 0 102 -28.5t36 -86.5q0 -27 -5 -48l-50 -243q-4 -20 -4 -29q0 -25 15 -25q17 0 43.5 35t42.5 73z" />
    <glyph glyph-name="napostrophe" unicode="&#x149;" horiz-adv-x="850" 
d="M219 642q14 -14 14 -38q0 -11 -3 -22q-10 -51 -45.5 -105.5t-80.5 -89.5l-34 32q26 24 48.5 54.5t32.5 59.5q-25 1 -39 12.5t-14 33.5q0 35 24 56t54 21q29 0 43 -14zM847 143q-27 -66 -72.5 -109.5t-100.5 -43.5q-33 0 -53.5 25.5t-20.5 66.5q0 18 4 34l32 160
q17 82 17 121q0 35 -13 50t-42 15q-33 0 -81.5 -45t-97.5 -119l-60 -298l-129 -10l96 470q-28 5 -62 18l2 10l195 20l-28 -139q40 59 95 98.5t117 39.5q66 0 101.5 -28.5t35.5 -86.5q0 -25 -5 -48l-50 -243q-3 -15 -3 -28q0 -26 15 -26q17 0 43 34.5t42 73.5z" />
    <glyph glyph-name="ncaron" unicode="&#x148;" horiz-adv-x="672" 
d="M321.5 654.5q-36.5 43.5 -63.5 65.5l58 41q26 -24 53.5 -60t39.5 -62h3q23 26 65.5 62t77.5 60l44 -41q-37 -22 -91.5 -65.5t-77.5 -70.5h-60q-12 27 -48.5 70.5zM670 143q-28 -66 -73 -109.5t-101 -43.5q-33 0 -53 26t-20 67q0 15 3 33l33 160q17 82 17 121q0 35 -13 50
t-43 15q-34 0 -82 -44.5t-96 -118.5l-61 -299l-129 -10l96 470q-28 5 -62 18l2 10l196 20l-28 -139q40 59 94.5 98.5t116.5 39.5q66 0 102 -28.5t36 -86.5q0 -27 -5 -48l-50 -243q-4 -20 -4 -29q0 -25 15 -25q17 0 43.5 35t42.5 73z" />
    <glyph glyph-name="ncommaaccent" unicode="&#x146;" horiz-adv-x="672" 
d="M670 143q-28 -66 -73 -109.5t-101 -43.5q-33 0 -53 26t-20 67q0 15 3 33l33 160q17 82 17 121q0 35 -13 50t-43 15q-34 0 -82 -44.5t-96 -118.5l-61 -299l-129 -10l96 470q-28 5 -62 18l2 10l196 20l-28 -139q40 59 94.5 98.5t116.5 39.5q66 0 102 -28.5t36 -86.5
q0 -27 -5 -48l-50 -243q-4 -20 -4 -29q0 -25 15 -25q17 0 43.5 35t42.5 73zM307.5 -91q13.5 -14 13.5 -38q0 -10 -3 -22q-10 -51 -45.5 -105.5t-79.5 -89.5l-35 32q26 24 49 54.5t33 59.5q-25 1 -39.5 13t-14.5 33q0 35 24 56t55 21q29 0 42.5 -14z" />
    <glyph glyph-name="uni1E45" unicode="&#x1e45;" horiz-adv-x="672" 
d="M371 594.5q-11 11.5 -11 30.5q0 30 18.5 50.5t47.5 20.5q20 0 31.5 -11.5t11.5 -30.5q0 -29 -19 -50t-47 -21q-21 0 -32 11.5zM670 143q-28 -66 -73 -109.5t-101 -43.5q-33 0 -53 26t-20 67q0 15 3 33l33 160q17 82 17 121q0 35 -13 50t-43 15q-34 0 -82 -44.5
t-96 -118.5l-61 -299l-129 -10l96 470q-28 5 -62 18l2 10l196 20l-28 -139q40 59 94.5 98.5t116.5 39.5q66 0 102 -28.5t36 -86.5q0 -27 -5 -48l-50 -243q-4 -20 -4 -29q0 -25 15 -25q17 0 43.5 35t42.5 73z" />
    <glyph glyph-name="uni1E47" unicode="&#x1e47;" horiz-adv-x="672" 
d="M670 143q-28 -66 -73 -109.5t-101 -43.5q-33 0 -53 26t-20 67q0 15 3 33l33 160q17 82 17 121q0 35 -13 50t-43 15q-34 0 -82 -44.5t-96 -118.5l-61 -299l-129 -10l96 470q-28 5 -62 18l2 10l196 20l-28 -139q40 59 94.5 98.5t116.5 39.5q66 0 102 -28.5t36 -86.5
q0 -27 -5 -48l-50 -243q-4 -20 -4 -29q0 -25 15 -25q17 0 43.5 35t42.5 73zM301.5 -68q11.5 -12 11.5 -31q0 -29 -19 -49.5t-47 -20.5q-21 0 -32.5 12t-11.5 32q0 29 20 49t47 20q20 0 31.5 -12z" />
    <glyph glyph-name="eng" unicode="&#x14b;" horiz-adv-x="673" 
d="M569 478.5q36 -28.5 36 -86.5q0 -27 -5 -48l-82 -398q-16 -81 -74.5 -122.5t-145.5 -41.5q-140 0 -140 85q0 7 2 23q3 16 16.5 30t31.5 14q34 0 34 -30l-1 -8q-2 -6 -6.5 -15t-4.5 -19q0 -16 14.5 -24t39.5 -8q41 0 69 32t38 84l68 330q17 82 17 121q0 35 -13 50t-43 15
q-34 0 -82 -44.5t-96 -118.5l-61 -299l-129 -10l96 470q-28 5 -62 18l2 10l196 20l-28 -139q40 59 94.5 98.5t116.5 39.5q66 0 102 -28.5z" />
    <glyph glyph-name="uni1E49" unicode="&#x1e49;" horiz-adv-x="672" 
d="M670 143q-28 -66 -73 -109.5t-101 -43.5q-33 0 -53 26t-20 67q0 15 3 33l33 160q17 82 17 121q0 35 -13 50t-43 15q-34 0 -82 -44.5t-96 -118.5l-61 -299l-129 -10l96 470q-28 5 -62 18l2 10l196 20l-28 -139q40 59 94.5 98.5t116.5 39.5q66 0 102 -28.5t36 -86.5
q0 -27 -5 -48l-50 -243q-4 -20 -4 -29q0 -25 15 -25q17 0 43.5 35t42.5 73zM88 -64h355l-8 -43h-356z" />
    <glyph glyph-name="ntilde" unicode="&#xf1;" horiz-adv-x="672" 
d="M297 623.5q-18 -14.5 -29 -39.5h-50q18 55 51.5 83t79.5 28q24 0 42 -8t42 -23q17 -11 28 -16.5t23 -5.5q49 0 73 56h49q-37 -114 -131 -114q-20 0 -39 8t-44 23q-19 11 -31.5 17t-23.5 6q-22 0 -40 -14.5zM670 143q-28 -66 -73 -109.5t-101 -43.5q-33 0 -53 26t-20 67
q0 15 3 33l33 160q17 82 17 121q0 35 -13 50t-43 15q-34 0 -82 -44.5t-96 -118.5l-61 -299l-129 -10l96 470q-28 5 -62 18l2 10l196 20l-28 -139q40 59 94.5 98.5t116.5 39.5q66 0 102 -28.5t36 -86.5q0 -27 -5 -48l-50 -243q-4 -20 -4 -29q0 -25 15 -25q17 0 43.5 35
t42.5 73z" />
    <glyph glyph-name="o" unicode="o" horiz-adv-x="588" 
d="M77 39q-58 49 -58 140q0 29 8 69q25 123 109 191t214 68q110 0 168 -49t58 -140q0 -30 -8 -70q-25 -122 -109.5 -190t-214.5 -68q-109 0 -167 49zM370.5 91q50.5 57 70.5 157q9 42 9 78q0 65 -28.5 100.5t-80.5 35.5q-66 0 -116.5 -57t-71.5 -157q-8 -37 -8 -75
q0 -66 28.5 -102.5t80.5 -36.5q66 0 116.5 57z" />
    <glyph glyph-name="oacute" unicode="&#xf3;" horiz-adv-x="588" 
d="M272 615l140 119q10 10 27 20.5t36 10.5q17 0 25 -8t8 -21q0 -18 -13.5 -33t-40.5 -30l-166 -89zM77 39q-58 49 -58 140q0 29 8 69q25 123 109 191t214 68q110 0 168 -49t58 -140q0 -30 -8 -70q-25 -122 -109.5 -190t-214.5 -68q-109 0 -167 49zM370.5 91
q50.5 57 70.5 157q9 42 9 78q0 65 -28.5 100.5t-80.5 35.5q-66 0 -116.5 -57t-71.5 -157q-8 -37 -8 -75q0 -66 28.5 -102.5t80.5 -36.5q66 0 116.5 57z" />
    <glyph glyph-name="obreve" unicode="&#x14f;" horiz-adv-x="588" 
d="M258.5 611q-36.5 33 -32.5 98h72q-1 -5 -1 -15q0 -40 21.5 -54.5t55.5 -14.5q37 0 65.5 17t44.5 67h72q-22 -65 -72.5 -98t-119.5 -33t-105.5 33zM77 39q-58 49 -58 140q0 29 8 69q25 123 109 191t214 68q110 0 168 -49t58 -140q0 -30 -8 -70q-25 -122 -109.5 -190
t-214.5 -68q-109 0 -167 49zM370.5 91q50.5 57 70.5 157q9 42 9 78q0 65 -28.5 100.5t-80.5 35.5q-66 0 -116.5 -57t-71.5 -157q-8 -37 -8 -75q0 -66 28.5 -102.5t80.5 -36.5q66 0 116.5 57z" />
    <glyph glyph-name="uni01D2" unicode="&#x1d2;" horiz-adv-x="588" 
d="M287 654.5q-37 43.5 -64 65.5l60 41q26 -24 53 -60t39 -62h4q23 26 65 62t76 60l45 -41q-37 -22 -91 -65t-78 -71h-59q-13 27 -50 70.5zM77 39q-58 49 -58 140q0 29 8 69q25 123 109 191t214 68q110 0 168 -49t58 -140q0 -30 -8 -70q-25 -122 -109.5 -190t-214.5 -68
q-109 0 -167 49zM370.5 91q50.5 57 70.5 157q9 42 9 78q0 65 -28.5 100.5t-80.5 35.5q-66 0 -116.5 -57t-71.5 -157q-8 -37 -8 -75q0 -66 28.5 -102.5t80.5 -36.5q66 0 116.5 57z" />
    <glyph glyph-name="ocircumflex" unicode="&#xf4;" horiz-adv-x="588" 
d="M202 621q37 22 91.5 66t76.5 70h60q13 -27 49.5 -71t63.5 -65l-59 -41q-25 24 -53 60t-40 62h-3q-22 -25 -64 -61t-78 -61zM77 39q-58 49 -58 140q0 29 8 69q25 123 109 191t214 68q110 0 168 -49t58 -140q0 -30 -8 -70q-25 -122 -109.5 -190t-214.5 -68q-109 0 -167 49z
M370.5 91q50.5 57 70.5 157q9 42 9 78q0 65 -28.5 100.5t-80.5 35.5q-66 0 -116.5 -57t-71.5 -157q-8 -37 -8 -75q0 -66 28.5 -102.5t80.5 -36.5q66 0 116.5 57z" />
    <glyph glyph-name="uni1ED1" unicode="&#x1ed1;" horiz-adv-x="588" 
d="M508 740l86 82q45 42 77 42q14 0 22 -7.5t8 -19.5q0 -17 -18.5 -36.5t-52.5 -35.5l-109 -52zM202 621q37 22 92 65.5t77 70.5h60q13 -27 49.5 -70.5t62.5 -65.5l-59 -41q-25 24 -52.5 60t-39.5 62h-4q-23 -26 -64.5 -62t-76.5 -60zM77 39q-58 49 -58 140q0 29 8 69
q25 123 109 191t214 68q110 0 168 -49t58 -140q0 -30 -8 -70q-25 -122 -109.5 -190t-214.5 -68q-109 0 -167 49zM370.5 91q50.5 57 70.5 157q9 42 9 78q0 65 -28.5 100.5t-80.5 35.5q-66 0 -116.5 -57t-71.5 -157q-8 -37 -8 -75q0 -66 28.5 -102.5t80.5 -36.5q66 0 116.5 57
z" />
    <glyph glyph-name="uni1ED9" unicode="&#x1ed9;" horiz-adv-x="588" 
d="M293.5 687q54.5 44 76.5 70h60q13 -27 49.5 -71t63.5 -65l-59 -41q-25 24 -53 60t-40 62h-3q-22 -25 -64 -61t-78 -61l-44 41q37 22 91.5 66zM136 439q84 68 214 68q110 0 168 -49t58 -140q0 -30 -8 -70q-25 -122 -109.5 -190t-214.5 -68q-109 0 -167 49t-58 140
q0 29 8 69q25 123 109 191zM145 173q0 -66 28.5 -102.5t80.5 -36.5q66 0 116.5 57t70.5 157q9 42 9 78q0 65 -28.5 100.5t-80.5 35.5q-66 0 -116.5 -57t-71.5 -157q-8 -37 -8 -75zM188.5 -76.5q19.5 20.5 47.5 20.5q20 0 31.5 -11.5t11.5 -30.5q0 -29 -19 -50t-47 -21
q-21 0 -32.5 12t-11.5 31q0 29 19.5 49.5z" />
    <glyph glyph-name="uni1ED3" unicode="&#x1ed3;" horiz-adv-x="588" 
d="M178 765q-24 15 -35 32.5t-8 33.5q3 14 14.5 23.5t27.5 9.5t32 -11t29 -31l54 -82l-26 -27zM202 621q37 22 92 65.5t77 70.5h60q13 -27 49.5 -70.5t62.5 -65.5l-59 -41q-25 24 -52.5 60t-39.5 62h-4q-23 -26 -64.5 -62t-76.5 -60zM77 39q-58 49 -58 140q0 29 8 69
q25 123 109 191t214 68q110 0 168 -49t58 -140q0 -30 -8 -70q-25 -122 -109.5 -190t-214.5 -68q-109 0 -167 49zM370.5 91q50.5 57 70.5 157q9 42 9 78q0 65 -28.5 100.5t-80.5 35.5q-66 0 -116.5 -57t-71.5 -157q-8 -37 -8 -75q0 -66 28.5 -102.5t80.5 -36.5q66 0 116.5 57
z" />
    <glyph glyph-name="uni1ED5" unicode="&#x1ed5;" horiz-adv-x="588" 
d="M513 795h28q22 0 38.5 11t21.5 33q2 17 -9 27.5t-35 10.5q-26 0 -52 -12l1 33q34 14 71 14q35 0 59 -14.5t24 -43.5q0 -4 -2 -16q-13 -64 -91 -71l-19 -51h-45zM202 621q37 22 92 65.5t77 70.5h60q13 -27 49.5 -70.5t62.5 -65.5l-59 -41q-25 24 -52.5 60t-39.5 62h-4
q-23 -26 -64.5 -62t-76.5 -60zM77 39q-58 49 -58 140q0 29 8 69q25 123 109 191t214 68q110 0 168 -49t58 -140q0 -30 -8 -70q-25 -122 -109.5 -190t-214.5 -68q-109 0 -167 49zM370.5 91q50.5 57 70.5 157q9 42 9 78q0 65 -28.5 100.5t-80.5 35.5q-66 0 -116.5 -57
t-71.5 -157q-8 -37 -8 -75q0 -66 28.5 -102.5t80.5 -36.5q66 0 116.5 57z" />
    <glyph glyph-name="uni1ED7" unicode="&#x1ed7;" horiz-adv-x="588" 
d="M287 868.5q33 27.5 79 27.5q24 0 41.5 -8t38.5 -23q14 -11 25 -16.5t23 -5.5q21 0 42 13t34 43h43q-17 -53 -49.5 -82.5t-80.5 -29.5q-19 0 -35.5 7t-40.5 22q-17 12 -30 18t-26 6q-23 0 -42 -14.5t-29 -39.5h-44q18 55 51 82.5zM202 621q37 22 92 65.5t77 70.5h60
q13 -27 49.5 -70.5t62.5 -65.5l-59 -41q-25 24 -52.5 60t-39.5 62h-4q-23 -26 -64.5 -62t-76.5 -60zM77 39q-58 49 -58 140q0 29 8 69q25 123 109 191t214 68q110 0 168 -49t58 -140q0 -30 -8 -70q-25 -122 -109.5 -190t-214.5 -68q-109 0 -167 49zM370.5 91
q50.5 57 70.5 157q9 42 9 78q0 65 -28.5 100.5t-80.5 35.5q-66 0 -116.5 -57t-71.5 -157q-8 -37 -8 -75q0 -66 28.5 -102.5t80.5 -36.5q66 0 116.5 57z" />
    <glyph glyph-name="odieresis" unicode="&#xf6;" horiz-adv-x="588" 
d="M222 595q-11 12 -11 31q0 29 19 49.5t45 20.5q21 0 33 -11.5t12 -30.5q0 -5 -2 -15q-4 -24 -22.5 -40t-43.5 -16q-19 0 -30 12zM445 594.5q-11 11.5 -11 30.5q0 30 18.5 50.5t47.5 20.5q20 0 32 -11.5t12 -31.5q0 -29 -19.5 -49.5t-47.5 -20.5q-21 0 -32 11.5zM77 39
q-58 49 -58 140q0 29 8 69q25 123 109 191t214 68q110 0 168 -49t58 -140q0 -30 -8 -70q-25 -122 -109.5 -190t-214.5 -68q-109 0 -167 49zM370.5 91q50.5 57 70.5 157q9 42 9 78q0 65 -28.5 100.5t-80.5 35.5q-66 0 -116.5 -57t-71.5 -157q-8 -37 -8 -75q0 -66 28.5 -102.5
t80.5 -36.5q66 0 116.5 57z" />
    <glyph glyph-name="uni1ECD" unicode="&#x1ecd;" horiz-adv-x="588" 
d="M136 439q84 68 214 68q110 0 168 -49t58 -140q0 -30 -8 -70q-25 -122 -109.5 -190t-214.5 -68q-109 0 -167 49t-58 140q0 29 8 69q25 123 109 191zM145 173q0 -66 28.5 -102.5t80.5 -36.5q66 0 116.5 57t70.5 157q9 42 9 78q0 65 -28.5 100.5t-80.5 35.5
q-66 0 -116.5 -57t-71.5 -157q-8 -37 -8 -75zM187.5 -76.5q19.5 20.5 47.5 20.5q21 0 32 -11.5t11 -30.5q0 -29 -19 -50t-47 -21q-21 0 -32.5 12t-11.5 31q0 29 19.5 49.5z" />
    <glyph glyph-name="ograve" unicode="&#xf2;" horiz-adv-x="588" 
d="M316 673q-20 13 -28 26t-5 28t15.5 26.5t29.5 11.5q18 0 31.5 -10t21.5 -20l91 -120l-27 -31zM77 39q-58 49 -58 140q0 29 8 69q25 123 109 191t214 68q110 0 168 -49t58 -140q0 -30 -8 -70q-25 -122 -109.5 -190t-214.5 -68q-109 0 -167 49zM370.5 91q50.5 57 70.5 157
q9 42 9 78q0 65 -28.5 100.5t-80.5 35.5q-66 0 -116.5 -57t-71.5 -157q-8 -37 -8 -75q0 -66 28.5 -102.5t80.5 -36.5q66 0 116.5 57z" />
    <glyph glyph-name="uni1ECF" unicode="&#x1ecf;" horiz-adv-x="588" 
d="M352 682h32q24 0 43.5 13t25.5 39q1 3 1 9q0 17 -13 28t-37 11q-30 0 -63 -16l1 36q42 17 84 17q40 0 66 -16.5t26 -50.5q0 -6 -2 -20q-15 -74 -104 -82l-24 -68h-51zM77 39q-58 49 -58 140q0 29 8 69q25 123 109 191t214 68q110 0 168 -49t58 -140q0 -30 -8 -70
q-25 -122 -109.5 -190t-214.5 -68q-109 0 -167 49zM370.5 91q50.5 57 70.5 157q9 42 9 78q0 65 -28.5 100.5t-80.5 35.5q-66 0 -116.5 -57t-71.5 -157q-8 -37 -8 -75q0 -66 28.5 -102.5t80.5 -36.5q66 0 116.5 57z" />
    <glyph glyph-name="ohorn" unicode="&#x1a1;" horiz-adv-x="650" 
d="M718 492q0 -15 -3 -27q-7 -37 -42 -79.5t-98 -85.5q-2 -29 -7 -52q-25 -122 -109.5 -190t-214.5 -68q-109 0 -167 49t-58 140q0 29 8 69q25 123 109 191t214 68q101 0 158 -41.5t66 -118.5q53 43 70 82q-9 -4 -17 -4q-21 0 -32.5 12t-11.5 32q0 9 1 14q6 25 24 43t53 18
q57 0 57 -52zM450 326q0 65 -28.5 100.5t-80.5 35.5q-66 0 -116.5 -57t-71.5 -157q-8 -37 -8 -75q0 -66 28.5 -102.5t80.5 -36.5q66 0 116.5 57t70.5 157q9 42 9 78z" />
    <glyph glyph-name="uni1EDB" unicode="&#x1edb;" horiz-adv-x="650" 
d="M288 584l-16 31l140 119q10 10 27 20.5t36 10.5q17 0 25 -8t8 -21q0 -18 -13.5 -33t-40.5 -30zM718 492q0 -15 -3 -27q-7 -37 -42 -79.5t-98 -85.5q-2 -29 -7 -52q-25 -122 -109.5 -190t-214.5 -68q-109 0 -167 49t-58 140q0 29 8 69q25 123 109 191t214 68
q101 0 158 -41.5t66 -118.5q53 43 70 82q-9 -4 -17 -4q-21 0 -32.5 12t-11.5 32q0 9 1 14q6 25 24 43t53 18q57 0 57 -52zM450 326q0 65 -28.5 100.5t-80.5 35.5q-66 0 -116.5 -57t-71.5 -157q-8 -37 -8 -75q0 -66 28.5 -102.5t80.5 -36.5q66 0 116.5 57t70.5 157q9 42 9 78
z" />
    <glyph glyph-name="uni1EE3" unicode="&#x1ee3;" horiz-adv-x="650" 
d="M718 492q0 -15 -3 -27q-7 -37 -42 -79.5t-98 -85.5q-2 -29 -7 -52q-25 -122 -109.5 -190t-214.5 -68q-109 0 -167 49t-58 140q0 29 8 69q25 123 109 191t214 68q101 0 158 -41.5t66 -118.5q53 43 70 82q-9 -4 -17 -4q-21 0 -32.5 12t-11.5 32q0 9 1 14q6 25 24 43t53 18
q57 0 57 -52zM450 326q0 65 -28.5 100.5t-80.5 35.5q-66 0 -116.5 -57t-71.5 -157q-8 -37 -8 -75q0 -66 28.5 -102.5t80.5 -36.5q66 0 116.5 57t70.5 157q9 42 9 78zM267.5 -67.5q11.5 -11.5 11.5 -30.5q0 -29 -19 -50t-47 -21q-21 0 -32.5 12t-11.5 31q0 29 19.5 49.5
t47.5 20.5q20 0 31.5 -11.5z" />
    <glyph glyph-name="uni1EDD" unicode="&#x1edd;" horiz-adv-x="650" 
d="M289 699q-8 13 -5 28t15.5 26.5t29.5 11.5q18 0 31.5 -10t21.5 -20l91 -120l-27 -31l-130 89q-19 13 -27 26zM718 492q0 -15 -3 -27q-7 -37 -42 -79.5t-98 -85.5q-2 -29 -7 -52q-25 -122 -109.5 -190t-214.5 -68q-109 0 -167 49t-58 140q0 29 8 69q25 123 109 191t214 68
q101 0 158 -41.5t66 -118.5q53 43 70 82q-9 -4 -17 -4q-21 0 -32.5 12t-11.5 32q0 9 1 14q6 25 24 43t53 18q57 0 57 -52zM450 326q0 65 -28.5 100.5t-80.5 35.5q-66 0 -116.5 -57t-71.5 -157q-8 -37 -8 -75q0 -66 28.5 -102.5t80.5 -36.5q66 0 116.5 57t70.5 157q9 42 9 78
z" />
    <glyph glyph-name="uni1EDF" unicode="&#x1edf;" horiz-adv-x="650" 
d="M431.5 695q19.5 13 25.5 39q3 20 -9.5 34t-39.5 14q-30 0 -63 -16l1 36q40 17 84 17q40 0 66 -17t26 -51q0 -5 -2 -19q-16 -74 -104 -82l-24 -68h-52l16 100h32q24 0 43.5 13zM718 492q0 -15 -3 -27q-7 -37 -42 -79.5t-98 -85.5q-2 -29 -7 -52q-25 -122 -109.5 -190
t-214.5 -68q-109 0 -167 49t-58 140q0 29 8 69q25 123 109 191t214 68q101 0 158 -41.5t66 -118.5q53 43 70 82q-9 -4 -17 -4q-21 0 -32.5 12t-11.5 32q0 9 1 14q6 25 24 43t53 18q57 0 57 -52zM450 326q0 65 -28.5 100.5t-80.5 35.5q-66 0 -116.5 -57t-71.5 -157
q-8 -37 -8 -75q0 -66 28.5 -102.5t80.5 -36.5q66 0 116.5 57t70.5 157q9 42 9 78z" />
    <glyph glyph-name="uni1EE1" unicode="&#x1ee1;" horiz-adv-x="650" 
d="M263 623.5q-18 -14.5 -28 -39.5h-51q18 55 52 83t80 28q24 0 42 -8t42 -23q17 -11 28 -16.5t23 -5.5q49 0 73 56h49q-17 -54 -50 -84t-82 -30q-19 0 -37.5 8t-43.5 23q-21 12 -33.5 17.5t-23.5 5.5q-22 0 -40 -14.5zM718 492q0 -15 -3 -27q-7 -37 -42 -79.5t-98 -85.5
q-2 -29 -7 -52q-25 -122 -109.5 -190t-214.5 -68q-109 0 -167 49t-58 140q0 29 8 69q25 123 109 191t214 68q101 0 158 -41.5t66 -118.5q53 43 70 82q-9 -4 -17 -4q-21 0 -32.5 12t-11.5 32q0 9 1 14q6 25 24 43t53 18q57 0 57 -52zM450 326q0 65 -28.5 100.5t-80.5 35.5
q-66 0 -116.5 -57t-71.5 -157q-8 -37 -8 -75q0 -66 28.5 -102.5t80.5 -36.5q66 0 116.5 57t70.5 157q9 42 9 78z" />
    <glyph glyph-name="ohungarumlaut" unicode="&#x151;" horiz-adv-x="588" 
d="M218 614l137 119q15 13 29 22t32 9q21 0 29.5 -11.5t5.5 -25.5q-5 -28 -54 -55l-165 -90zM420 614l138 119q35 31 63 31q17 0 25.5 -8.5t8.5 -20.5q0 -5 -1 -8q-4 -27 -53 -55l-166 -90zM77 39q-58 49 -58 140q0 29 8 69q25 123 109 191t214 68q110 0 168 -49t58 -140
q0 -30 -8 -70q-25 -122 -109.5 -190t-214.5 -68q-109 0 -167 49zM370.5 91q50.5 57 70.5 157q9 42 9 78q0 65 -28.5 100.5t-80.5 35.5q-66 0 -116.5 -57t-71.5 -157q-8 -37 -8 -75q0 -66 28.5 -102.5t80.5 -36.5q66 0 116.5 57z" />
    <glyph glyph-name="omacron" unicode="&#x14d;" horiz-adv-x="588" 
d="M196 628h356l-9 -44h-355zM77 39q-58 49 -58 140q0 29 8 69q25 123 109 191t214 68q110 0 168 -49t58 -140q0 -30 -8 -70q-25 -122 -109.5 -190t-214.5 -68q-109 0 -167 49zM370.5 91q50.5 57 70.5 157q9 42 9 78q0 65 -28.5 100.5t-80.5 35.5q-66 0 -116.5 -57
t-71.5 -157q-8 -37 -8 -75q0 -66 28.5 -102.5t80.5 -36.5q66 0 116.5 57z" />
    <glyph glyph-name="oslash" unicode="&#xf8;" horiz-adv-x="588" 
d="M530 446q46 -48 46 -127q0 -31 -8 -71q-25 -122 -109.5 -190t-214.5 -68q-92 0 -148 35l-61 -59l-29 31l57 55q-44 49 -44 128q0 34 7 68q25 122 109.5 190.5t214.5 68.5q90 0 145 -33l54 53l31 -32zM145 171q0 -14 2 -36l284 276q-28 51 -90 51q-66 0 -116.5 -57
t-71.5 -157q-8 -37 -8 -77zM449 325q0 22 -3 40l-285 -276q28 -55 93 -55t115.5 57t70.5 157q9 42 9 77z" />
    <glyph glyph-name="oslashacute" unicode="&#x1ff;" horiz-adv-x="588" 
d="M285 584l-16 31l141 119q8 9 25.5 20t36.5 11q17 0 25 -8t8 -20q0 -6 -1 -9q-6 -29 -53 -55zM530 446q46 -48 46 -127q0 -31 -8 -71q-25 -122 -109.5 -190t-214.5 -68q-92 0 -148 35l-61 -59l-29 31l57 55q-44 49 -44 128q0 34 7 68q25 122 109.5 190.5t214.5 68.5
q90 0 145 -33l54 53l31 -32zM145 171q0 -14 2 -36l284 276q-28 51 -90 51q-66 0 -116.5 -57t-71.5 -157q-8 -37 -8 -77zM449 325q0 22 -3 40l-285 -276q28 -55 93 -55t115.5 57t70.5 157q9 42 9 77z" />
    <glyph glyph-name="otilde" unicode="&#xf5;" horiz-adv-x="588" 
d="M235 667q34 28 80 28q24 0 42 -8t42 -23q17 -11 28 -16.5t23 -5.5q49 0 73 56h49q-17 -54 -50 -84t-82 -30q-19 0 -37.5 8t-43.5 23q-21 12 -33.5 17.5t-23.5 5.5q-22 0 -40 -14.5t-28 -39.5h-51q18 55 52 83zM77 39q-58 49 -58 140q0 29 8 69q25 123 109 191t214 68
q110 0 168 -49t58 -140q0 -30 -8 -70q-25 -122 -109.5 -190t-214.5 -68q-109 0 -167 49zM370.5 91q50.5 57 70.5 157q9 42 9 78q0 65 -28.5 100.5t-80.5 35.5q-66 0 -116.5 -57t-71.5 -157q-8 -37 -8 -75q0 -66 28.5 -102.5t80.5 -36.5q66 0 116.5 57z" />
    <glyph glyph-name="oe" unicode="&#x153;" horiz-adv-x="912" 
d="M75.5 40q-56.5 50 -56.5 140q0 34 7 68q25 121 109 190t206 69q54 0 96 -19.5t65 -54.5q85 74 209 74q106 0 156.5 -26.5t50.5 -80.5q0 -13 -3 -30q-20 -97 -137 -138.5t-260 -45.5q-2 -69 30 -111t100 -42q40 0 87.5 14t84.5 39l6 -33q-37 -27 -94.5 -45t-121.5 -18
q-62 0 -108 19t-72 54q-86 -73 -194 -73q-104 0 -160.5 50zM331 56.5q40 22.5 69 63.5q-9 29 -9 64q0 33 7 64q18 79 54 129q-13 39 -44 62t-69 23q-66 0 -115.5 -57t-70.5 -157q-9 -43 -9 -78q0 -65 28 -100.5t79 -35.5q40 0 80 22.5zM721 274.5q84 36.5 84 115.5
q0 33 -23 52.5t-72 19.5q-72 0 -119 -62t-64 -149q-4 -16 -4 -24q114 11 198 47.5z" />
    <glyph glyph-name="p" unicode="p" horiz-adv-x="614" 
d="M136 460q-28 5 -62 17l2 11l195 20l-32 -161q39 74 100 117t124 43q64 0 104.5 -40t40.5 -118q0 -30 -8 -72q-29 -140 -107 -213.5t-189 -73.5q-45 0 -78 16t-48 45l-54 -270l-128 -10zM407 94.5q43 60.5 63 161.5q13 61 13 107q0 48 -16 73.5t-47 25.5
q-28 0 -68.5 -31.5t-77.5 -83t-56 -105.5l-15 -71q-3 -16 -3 -33q0 -46 24.5 -75t71.5 -29q68 0 111 60.5z" />
    <glyph glyph-name="thorn" unicode="&#xfe;" horiz-adv-x="614" 
d="M176 656q-28 5 -62 17l2 11l196 20l-73 -357q39 74 100 117t124 43q64 0 104.5 -40t40.5 -118q0 -30 -8 -72q-29 -140 -107 -213.5t-189 -73.5q-45 0 -78 16t-48 45l-54 -270l-128 -10zM407 94.5q43 60.5 63 161.5q13 61 13 107q0 48 -16 73.5t-47 25.5
q-28 0 -68.5 -31.5t-77.5 -83t-56 -105.5l-15 -71q-3 -16 -3 -33q0 -46 24.5 -75t71.5 -29q68 0 111 60.5z" />
    <glyph glyph-name="q" unicode="q" horiz-adv-x="615" 
d="M392 192q-49 -90 -118.5 -146t-139.5 -56q-62 0 -90 39t-28 103q0 35 8 77q15 74 56 142t109.5 112t161.5 44q30 0 55.5 -12.5t41.5 -32.5l7 36h125l-145 -717l-128 -10zM281 95.5q48 48.5 88 112.5t47 99l21 106q-9 23 -29.5 36.5t-46.5 13.5q-50 0 -93.5 -37.5
t-74 -95.5t-43.5 -119q-5 -30 -5 -58q0 -45 13.5 -75.5t41.5 -30.5q33 0 81 48.5z" />
    <glyph glyph-name="r" unicode="r" horiz-adv-x="455" 
d="M480.5 500.5q13.5 -12.5 13.5 -34.5q0 -5 -2 -19q-4 -17 -18.5 -31t-32.5 -14q-17 0 -23.5 8t-9.5 22q-2 9 -4.5 13.5t-9.5 4.5q-68 0 -153 -124l-66 -326l-129 -10l96 470q-29 6 -62 18l2 10l196 20l-22 -111q30 49 80.5 82.5t103.5 33.5q27 0 40.5 -12.5z" />
    <glyph glyph-name="racute" unicode="&#x155;" horiz-adv-x="455" 
d="M213 584l-16 31l141 119q8 9 25.5 20t36.5 11q17 0 25 -8t8 -20q0 -6 -1 -9q-6 -29 -53 -55zM480.5 500.5q13.5 -12.5 13.5 -34.5q0 -5 -2 -19q-4 -17 -18.5 -31t-32.5 -14q-17 0 -23.5 8t-9.5 22q-2 9 -4.5 13.5t-9.5 4.5q-68 0 -153 -124l-66 -326l-129 -10l96 470
q-29 6 -62 18l2 10l196 20l-22 -111q30 49 80.5 82.5t103.5 33.5q27 0 40.5 -12.5z" />
    <glyph glyph-name="rcaron" unicode="&#x159;" horiz-adv-x="455" 
d="M223.5 654.5q-36.5 43.5 -63.5 65.5l59 41q26 -25 53.5 -60.5t38.5 -61.5h4q22 26 64 62t78 60l44 -41q-37 -22 -91.5 -65.5t-77.5 -70.5h-60q-12 27 -48.5 70.5zM480.5 500.5q13.5 -12.5 13.5 -34.5q0 -5 -2 -19q-4 -17 -18.5 -31t-32.5 -14q-17 0 -23.5 8t-9.5 22
q-2 9 -4.5 13.5t-9.5 4.5q-68 0 -153 -124l-66 -326l-129 -10l96 470q-29 6 -62 18l2 10l196 20l-22 -111q30 49 80.5 82.5t103.5 33.5q27 0 40.5 -12.5z" />
    <glyph glyph-name="rcommaaccent" unicode="&#x157;" horiz-adv-x="455" 
d="M480.5 500.5q13.5 -12.5 13.5 -34.5q0 -5 -2 -19q-4 -17 -18.5 -31t-32.5 -14q-17 0 -23.5 8t-9.5 22q-2 9 -4.5 13.5t-9.5 4.5q-68 0 -153 -124l-66 -326l-129 -10l96 470q-29 6 -62 18l2 10l196 20l-22 -111q30 49 80.5 82.5t103.5 33.5q27 0 40.5 -12.5zM144 -91
q14 -14 14 -38q0 -12 -3 -22q-10 -51 -45.5 -105.5t-80.5 -89.5l-34 32q26 24 48.5 54.5t32.5 59.5q-25 1 -39 12.5t-14 33.5q0 35 24 56t54 21q29 0 43 -14z" />
    <glyph glyph-name="uni1E5B" unicode="&#x1e5b;" horiz-adv-x="455" 
d="M480.5 500.5q13.5 -12.5 13.5 -34.5q0 -5 -2 -19q-4 -17 -18.5 -31t-32.5 -14q-17 0 -23.5 8t-9.5 22q-2 9 -4.5 13.5t-9.5 4.5q-68 0 -153 -124l-66 -326l-129 -10l96 470q-29 6 -62 18l2 10l196 20l-22 -111q30 49 80.5 82.5t103.5 33.5q27 0 40.5 -12.5zM131.5 -67.5
q11.5 -11.5 11.5 -30.5q0 -29 -19.5 -50t-47.5 -21q-21 0 -32.5 12.5t-11.5 32.5q0 7 1 11q5 25 23.5 41t43.5 16q20 0 31.5 -11.5z" />
    <glyph glyph-name="uni1E5D" unicode="&#x1e5d;" horiz-adv-x="455" 
d="M455 584h-355l8 44h355zM480.5 500.5q13.5 -12.5 13.5 -34.5q0 -5 -2 -19q-4 -17 -18.5 -31t-32.5 -14q-17 0 -23.5 8t-9.5 22q-2 9 -4.5 13.5t-9.5 4.5q-68 0 -153 -124l-66 -326l-129 -10l96 470q-29 6 -62 18l2 10l196 20l-22 -111q30 49 80.5 82.5t103.5 33.5
q27 0 40.5 -12.5zM131.5 -67.5q11.5 -11.5 11.5 -30.5q0 -29 -19.5 -50t-47.5 -21q-21 0 -32.5 12.5t-11.5 32.5q0 7 1 11q5 25 23.5 41t43.5 16q20 0 31.5 -11.5z" />
    <glyph glyph-name="uni1E5F" unicode="&#x1e5f;" horiz-adv-x="455" 
d="M480.5 500.5q13.5 -12.5 13.5 -34.5q0 -5 -2 -19q-4 -17 -18.5 -31t-32.5 -14q-17 0 -23.5 8t-9.5 22q-2 9 -4.5 13.5t-9.5 4.5q-68 0 -153 -124l-66 -326l-129 -10l96 470q-29 6 -62 18l2 10l196 20l-22 -111q30 49 80.5 82.5t103.5 33.5q27 0 40.5 -12.5zM-65 -64h356
l-9 -43h-355z" />
    <glyph glyph-name="s" unicode="s" horiz-adv-x="478" 
d="M52 13.5q-52 23.5 -52 74.5q0 6 2 20q3 14 17.5 28t35.5 14q19 0 30.5 -12t8.5 -27q-1 -5 -4 -12.5t-4 -12.5q-3 -11 7.5 -23t31.5 -20.5t47 -8.5q54 0 87 24t41 69q1 5 1 13q0 28 -23.5 44t-75.5 37q-43 17 -70 31.5t-46 38.5t-19 59q0 14 3 30q13 62 75 94.5t146 32.5
q79 0 130 -21t51 -71q0 -6 -2 -20q-3 -13 -16.5 -24t-35.5 -11q-19 0 -30 8.5t-8 23.5q1 5 3.5 11.5t3.5 13.5q3 17 -18 32t-60 15q-45 0 -75 -16t-37 -51q-1 -5 -1 -13q0 -28 24.5 -44.5t75.5 -37.5q44 -18 71.5 -32.5t46.5 -39.5t19 -62q0 -14 -3 -31
q-15 -74 -81.5 -110.5t-164.5 -36.5q-80 0 -132 23.5z" />
    <glyph glyph-name="sacute" unicode="&#x15b;" horiz-adv-x="477" 
d="M211 615l140 119q10 10 27 20.5t35 10.5q17 0 25 -8t8 -20q0 -6 -1 -9q-6 -29 -53 -55l-166 -89zM52 13.5q-52 23.5 -52 74.5q0 6 2 20q3 14 17.5 28t35.5 14q19 0 30.5 -12t8.5 -27q-1 -5 -4 -12.5t-4 -12.5q-3 -11 7.5 -23t31.5 -20.5t47 -8.5q54 0 87 24t41 69
q1 5 1 13q0 28 -23.5 44t-75.5 37q-43 17 -70 31.5t-46 38.5t-19 59q0 14 3 30q13 62 75 94.5t146 32.5q79 0 130 -21t51 -71q0 -6 -2 -20q-3 -13 -16.5 -24t-35.5 -11q-19 0 -30 8.5t-8 23.5q1 5 3.5 11.5t3.5 13.5q3 17 -18 32t-60 15q-45 0 -75 -16t-37 -51q-1 -5 -1 -13
q0 -28 24.5 -44.5t75.5 -37.5q44 -18 71.5 -32.5t46.5 -39.5t19 -62q0 -14 -3 -31q-15 -74 -81.5 -110.5t-164.5 -36.5q-80 0 -132 23.5z" />
    <glyph glyph-name="scaron" unicode="&#x161;" horiz-adv-x="477" 
d="M232.5 654.5q-36.5 43.5 -63.5 65.5l58 41q26 -25 53.5 -60.5t38.5 -61.5h4q23 26 65 61.5t77 60.5l44 -41q-37 -22 -91 -65t-78 -71h-59q-12 27 -48.5 70.5zM52 13.5q-52 23.5 -52 74.5q0 6 2 20q3 14 17.5 28t35.5 14q19 0 30.5 -12t8.5 -27q-1 -5 -4 -12.5t-4 -12.5
q-3 -11 7.5 -23t31.5 -20.5t47 -8.5q54 0 87 24t41 69q1 5 1 13q0 28 -23.5 44t-75.5 37q-43 17 -70 31.5t-46 38.5t-19 59q0 14 3 30q13 62 75 94.5t146 32.5q79 0 130 -21t51 -71q0 -6 -2 -20q-3 -13 -16.5 -24t-35.5 -11q-19 0 -30 8.5t-8 23.5q1 5 3.5 11.5t3.5 13.5
q3 17 -18 32t-60 15q-45 0 -75 -16t-37 -51q-1 -5 -1 -13q0 -28 24.5 -44.5t75.5 -37.5q44 -18 71.5 -32.5t46.5 -39.5t19 -62q0 -14 -3 -31q-15 -74 -81.5 -110.5t-164.5 -36.5q-80 0 -132 23.5z" />
    <glyph glyph-name="scedilla" unicode="&#x15f;" horiz-adv-x="477" 
d="M421 486q51 -21 51 -71q0 -6 -2 -20q-3 -13 -16.5 -24t-35.5 -11q-19 0 -30 8.5t-8 23.5q1 5 3.5 11.5t3.5 13.5q3 17 -18 32t-60 15q-45 0 -75 -16t-37 -51q-1 -5 -1 -13q0 -28 24.5 -44.5t75.5 -37.5q44 -18 71.5 -32.5t46.5 -39.5t19 -62q0 -14 -3 -31
q-14 -67 -70 -103.5t-140 -42.5l-36 -53q48 0 72.5 -17.5t24.5 -46.5q0 -5 -2 -15q-10 -48 -52.5 -74t-99.5 -26q-26 0 -51.5 7t-42.5 20l27 35q13 -7 31 -11.5t36 -4.5q76 0 88 54q3 22 -13 31.5t-41 9.5q-9 0 -23 -2l-16 32l40 60q-72 4 -117 27.5t-45 69.5q0 14 2 21
q3 14 17.5 28t35.5 14q19 0 30.5 -12t8.5 -27q-1 -5 -4 -12.5t-4 -12.5q-3 -11 7.5 -23t31.5 -20.5t47 -8.5q54 0 87 24t41 69q1 5 1 13q0 28 -23.5 44t-75.5 37q-43 17 -70 31.5t-46 38.5t-19 59q0 14 3 30q13 62 75 94.5t146 32.5q79 0 130 -21z" />
    <glyph glyph-name="scircumflex" unicode="&#x15d;" horiz-adv-x="477" 
d="M148 621q36 22 90.5 65.5t77.5 70.5h59q13 -27 49.5 -71t63.5 -65l-59 -41q-26 24 -53 60t-39 62h-4q-22 -25 -63.5 -60.5t-77.5 -61.5zM52 13.5q-52 23.5 -52 74.5q0 6 2 20q3 14 17.5 28t35.5 14q19 0 30.5 -12t8.5 -27q-1 -5 -4 -12.5t-4 -12.5q-3 -11 7.5 -23
t31.5 -20.5t47 -8.5q54 0 87 24t41 69q1 5 1 13q0 28 -23.5 44t-75.5 37q-43 17 -70 31.5t-46 38.5t-19 59q0 14 3 30q13 62 75 94.5t146 32.5q79 0 130 -21t51 -71q0 -6 -2 -20q-3 -13 -16.5 -24t-35.5 -11q-19 0 -30 8.5t-8 23.5q1 5 3.5 11.5t3.5 13.5q3 17 -18 32
t-60 15q-45 0 -75 -16t-37 -51q-1 -5 -1 -13q0 -28 24.5 -44.5t75.5 -37.5q44 -18 71.5 -32.5t46.5 -39.5t19 -62q0 -14 -3 -31q-15 -74 -81.5 -110.5t-164.5 -36.5q-80 0 -132 23.5z" />
    <glyph glyph-name="scommaaccent" unicode="&#x219;" horiz-adv-x="477" 
d="M52 13.5q-52 23.5 -52 74.5q0 6 2 20q3 14 17.5 28t35.5 14q19 0 30.5 -12t8.5 -27q-1 -5 -4 -12.5t-4 -12.5q-3 -11 7.5 -23t31.5 -20.5t47 -8.5q54 0 87 24t41 69q1 5 1 13q0 28 -23.5 44t-75.5 37q-43 17 -70 31.5t-46 38.5t-19 59q0 14 3 30q13 62 75 94.5t146 32.5
q79 0 130 -21t51 -71q0 -6 -2 -20q-3 -13 -16.5 -24t-35.5 -11q-19 0 -30 8.5t-8 23.5q1 5 3.5 11.5t3.5 13.5q3 17 -18 32t-60 15q-45 0 -75 -16t-37 -51q-1 -5 -1 -13q0 -28 24.5 -44.5t75.5 -37.5q44 -18 71.5 -32.5t46.5 -39.5t19 -62q0 -14 -3 -31
q-15 -74 -81.5 -110.5t-164.5 -36.5q-80 0 -132 23.5zM69 -294q25 22 49 53.5t34 62.5q-22 0 -38 13.5t-16 35.5q0 34 23.5 55t54.5 21q29 0 43.5 -15t14.5 -40q0 -13 -2 -20q-10 -51 -46.5 -107.5t-81.5 -91.5z" />
    <glyph glyph-name="uni1E61" unicode="&#x1e61;" horiz-adv-x="477" 
d="M277 594.5q-11 11.5 -11 30.5q0 30 18.5 50.5t47.5 20.5q20 0 31.5 -11.5t11.5 -30.5q0 -5 -2 -15q-4 -24 -22 -40t-42 -16q-21 0 -32 11.5zM52 13.5q-52 23.5 -52 74.5q0 6 2 20q4 15 18.5 28.5t35.5 13.5q18 0 29.5 -12t8.5 -27q-1 -5 -4 -12.5t-4 -12.5
q-3 -11 7.5 -23t31.5 -20.5t47 -8.5q54 0 87 24t41 69q1 5 1 13q0 28 -23.5 44t-75.5 37q-43 17 -70 31.5t-46 38.5t-19 59q0 14 3 30q13 62 75 94.5t146 32.5q79 0 130 -21t51 -71q0 -6 -2 -20q-3 -13 -16.5 -24t-35.5 -11q-19 0 -30 8.5t-8 23.5q1 5 3.5 11.5t3.5 13.5
q4 17 -17.5 32t-60.5 15q-45 0 -75 -16t-36 -51q-1 -5 -1 -13q0 -28 24.5 -45t75.5 -37q44 -18 71 -32.5t46 -39.5t19 -62q0 -14 -3 -31q-15 -74 -81.5 -110.5t-164.5 -36.5q-80 0 -132 23.5z" />
    <glyph glyph-name="uni1E63" unicode="&#x1e63;" horiz-adv-x="477" 
d="M52 13.5q-52 23.5 -52 74.5q0 6 2 20q4 15 18.5 28.5t35.5 13.5q18 0 29.5 -12t8.5 -27q-1 -5 -4 -12.5t-4 -12.5q-3 -11 7.5 -23t31.5 -20.5t47 -8.5q54 0 87 24t41 69q1 5 1 13q0 28 -23.5 44t-75.5 37q-43 17 -70 31.5t-46 38.5t-19 59q0 14 3 30q13 62 75 94.5
t146 32.5q79 0 130 -21t51 -71q0 -6 -2 -20q-3 -13 -16.5 -24t-35.5 -11q-19 0 -30 8.5t-8 23.5q1 5 3.5 11.5t3.5 13.5q4 17 -17.5 32t-60.5 15q-45 0 -75 -16t-36 -51q-1 -5 -1 -13q0 -28 24.5 -45t75.5 -37q44 -18 71 -32.5t46 -39.5t19 -62q0 -14 -3 -31
q-15 -74 -81.5 -110.5t-164.5 -36.5q-80 0 -132 23.5zM125.5 -157q-11.5 12 -11.5 32q0 29 20 49t47 20q20 0 31.5 -12t11.5 -31q0 -29 -19 -49.5t-47 -20.5q-21 0 -32.5 12z" />
    <glyph glyph-name="germandbls" unicode="&#xdf;" horiz-adv-x="717" 
d="M494.5 338q21.5 -17 67.5 -37q39 -18 62 -32.5t40 -38.5t17 -59q0 -18 -4 -34q-15 -75 -81 -111t-154 -36q-79 0 -131.5 24t-52.5 75q0 5 2 19q4 15 18.5 28.5t35.5 13.5q18 0 29.5 -12t8.5 -27q-1 -5 -4 -12.5t-4 -12.5q-2 -11 8.5 -23t31 -20.5t46.5 -8.5q47 0 76.5 24
t37.5 62q2 12 2 16q0 29 -21.5 46.5t-65.5 38.5q-36 17 -58.5 31t-38 37t-15.5 57q0 15 3 33q10 50 53 79t97 39q8 38 8 73q0 50 -20.5 83t-70.5 33q-38 0 -70 -25.5t-43 -80.5l-116 -568q-19 -91 -77 -138t-147 -47q-72 0 -106 22t-34 61q0 11 3 25q4 17 16.5 30.5
t31.5 13.5q34 0 34 -29l-1 -8q-2 -6 -6.5 -15t-4.5 -19q0 -16 15 -24t39 -8q41 0 69 32t38 84l94 461h-90l9 45h91l8 41q19 96 89 144.5t171 48.5q109 0 151 -49.5t42 -121.5q0 -41 -9 -79l-4 -20q-58 0 -97.5 -19t-39.5 -60q0 -28 21.5 -45z" />
    <glyph glyph-name="uni0259" unicode="&#x259;" horiz-adv-x="545" 
d="M469.5 455q57.5 -52 57.5 -142q0 -32 -7 -64q-25 -120 -108 -189.5t-205 -69.5q-105 0 -156 26.5t-51 79.5q0 9 4 31q19 96 135.5 137.5t259.5 46.5q2 69 -29.5 111t-99.5 42q-40 0 -87.5 -14t-84.5 -39l-6 33q36 27 94.5 45t121.5 18q104 0 161.5 -52zM327 97
q47 62 64 149q2 7 4 23q-115 -11 -198.5 -47t-83.5 -115q0 -33 23 -52.5t72 -19.5q72 0 119 62z" />
    <glyph glyph-name="t" unicode="t" horiz-adv-x="389" 
d="M185 104q-3 -12 -3 -21q0 -36 37 -36q26 0 51.5 31t45.5 77l27 -15q-61 -150 -187 -150q-39 0 -70.5 19.5t-31.5 62.5q0 11 3 24l73 358h-78l9 44h78l7 33q58 18 85 102h61l-27 -135h140l-9 -44h-140z" />
    <glyph glyph-name="tbar" unicode="&#x167;" horiz-adv-x="389" 
d="M256 454l-30 -148h124l-10 -44h-123l-32 -158q-3 -12 -3 -21q0 -36 37 -36q26 0 51.5 31t45.5 77l27 -15q-61 -150 -187 -150q-39 0 -70.5 19.5t-31.5 62.5q0 11 3 24l34 166h-72l9 44h72l30 148h-78l9 44h78l7 33q58 18 85 102h61l-27 -135h140l-9 -44h-140z" />
    <glyph glyph-name="tcaron" unicode="&#x165;" horiz-adv-x="563" 
d="M590 667q14 -16 14 -42q0 -11 -3 -23q-10 -51 -47 -106t-82 -90l-35 32q26 25 49 55t33 59q-10 0 -13 1q-21 2 -32 15t-11 34q0 8 1 13q7 30 28.5 49t51.5 19q32 0 46 -16zM265 498h140l-9 -44h-140l-71 -350q-3 -12 -3 -21q0 -36 37 -36q26 0 51.5 31t45.5 77l27 -15
q-61 -150 -187 -150q-39 0 -70.5 19.5t-31.5 62.5q0 11 3 24l73 358h-78l9 44h78l7 33q58 18 85 102h61z" />
    <glyph glyph-name="uni0163" unicode="&#x163;" horiz-adv-x="389" 
d="M185 104q-3 -12 -3 -21q0 -36 37 -36q26 0 51.5 31t45.5 77l27 -15q-55 -134 -160 -148l-36 -54h10q44 -1 65.5 -18.5t21.5 -45.5q0 -10 -1 -15q-10 -48 -52.5 -74t-99.5 -26q-26 0 -52 7t-43 20l26 35q29 -16 69 -16q34 0 57.5 13t29.5 41q4 22 -12.5 31.5t-42.5 9.5
q-8 0 -22 -2l-17 32l43 63q-31 7 -52 26t-21 52q0 12 3 25l73 358h-78l9 44h78l7 33q58 18 85 102h61l-27 -135h140l-9 -44h-140z" />
    <glyph glyph-name="uni021B" unicode="&#x21b;" horiz-adv-x="389" 
d="M185 104q-3 -12 -3 -21q0 -36 37 -36q26 0 51.5 31t45.5 77l27 -15q-61 -150 -187 -150q-39 0 -70.5 19.5t-31.5 62.5q0 11 3 24l73 358h-78l9 44h78l7 33q58 18 85 102h61l-27 -135h140l-9 -44h-140zM197 -91q14 -14 14 -38q0 -12 -3 -22q-10 -51 -45.5 -105.5
t-80.5 -89.5l-34 32q64 62 81 114q-25 1 -39 13.5t-14 34.5q0 34 24 54.5t54 20.5q29 0 43 -14z" />
    <glyph glyph-name="uni1E97" unicode="&#x1e97;" horiz-adv-x="389" 
d="M132 702q-11 12 -11 31q0 29 19 49.5t45 20.5q21 0 33 -11.5t12 -30.5q0 -30 -19.5 -50.5t-48.5 -20.5q-19 0 -30 12zM442 791.5q12 -11.5 12 -31.5q0 -29 -19.5 -49.5t-47.5 -20.5q-22 0 -33 12t-11 32q0 8 1 12q5 25 23 41t43 16q20 0 32 -11.5zM265 498h140l-9 -44
h-140l-71 -350q-3 -12 -3 -21q0 -36 37 -36q26 0 51.5 31t45.5 77l27 -15q-61 -150 -187 -150q-39 0 -70.5 19.5t-31.5 62.5q0 11 3 24l73 358h-78l9 44h78l7 33q58 18 85 102h61z" />
    <glyph glyph-name="uni1E6D" unicode="&#x1e6d;" horiz-adv-x="389" 
d="M185 104q-3 -12 -3 -21q0 -36 37 -36q26 0 51.5 31t45.5 77l27 -15q-61 -150 -187 -150q-39 0 -70.5 19.5t-31.5 62.5q0 11 3 24l73 358h-78l9 44h78l7 33q58 18 85 102h61l-27 -135h140l-9 -44h-140zM203.5 -67.5q11.5 -11.5 11.5 -30.5q0 -29 -19.5 -50t-47.5 -21
q-21 0 -32.5 12.5t-11.5 32.5q0 7 1 11q5 25 23.5 41t43.5 16q20 0 31.5 -11.5z" />
    <glyph glyph-name="uni1E6F" unicode="&#x1e6f;" horiz-adv-x="389" 
d="M185 104q-3 -12 -3 -21q0 -36 37 -36q26 0 51.5 31t45.5 77l27 -15q-61 -150 -187 -150q-39 0 -70.5 19.5t-31.5 62.5q0 11 3 24l73 358h-78l9 44h78l7 33q58 18 85 102h61l-27 -135h140l-9 -44h-140zM-40 -64h356l-9 -43h-355z" />
    <glyph glyph-name="u" unicode="u" horiz-adv-x="642" 
d="M653 143q-27 -66 -73 -109.5t-101 -43.5q-32 0 -54.5 20t-22.5 57q0 13 3 28l7 33q-41 -59 -96.5 -98.5t-117.5 -39.5q-66 0 -101 28t-35 86q0 26 5 48l62 308q-28 5 -62 18l2 10l197 20l-71 -352q-8 -38 -8 -59q0 -33 14.5 -48t43.5 -15q34 0 82.5 44.5t98.5 118.5
l60 301h127l-81 -397q-3 -15 -3 -28q0 -26 15 -26q17 0 43 34.5t42 73.5z" />
    <glyph glyph-name="uacute" unicode="&#xfa;" horiz-adv-x="641" 
d="M333 584l-16 31l141 119q8 9 25.5 20t36.5 11q17 0 25 -8t8 -20q0 -6 -1 -9q-6 -29 -53 -55zM653 143q-27 -66 -73 -109.5t-101 -43.5q-32 0 -54.5 20t-22.5 57q0 13 3 28l7 33q-41 -59 -96.5 -98.5t-117.5 -39.5q-66 0 -101 28t-35 86q0 26 5 48l62 308q-28 5 -62 18
l2 10l197 20l-71 -352q-8 -38 -8 -59q0 -33 14.5 -48t43.5 -15q34 0 82.5 44.5t98.5 118.5l60 301h127l-81 -397q-3 -15 -3 -28q0 -26 15 -26q17 0 43 34.5t42 73.5z" />
    <glyph glyph-name="ubreve" unicode="&#x16d;" horiz-adv-x="641" 
d="M285.5 611q-36.5 33 -32.5 98h72q-1 -6 -1 -16q0 -40 21.5 -54t55.5 -14q37 0 65.5 17t43.5 67h73q-22 -65 -72.5 -98t-119.5 -33t-105.5 33zM653 143q-27 -66 -73 -109.5t-101 -43.5q-32 0 -54.5 20t-22.5 57q0 13 3 28l7 33q-41 -59 -96.5 -98.5t-117.5 -39.5
q-66 0 -101 28t-35 86q0 26 5 48l62 308q-28 5 -62 18l2 10l197 20l-71 -352q-8 -38 -8 -59q0 -33 14.5 -48t43.5 -15q34 0 82.5 44.5t98.5 118.5l60 301h127l-81 -397q-3 -15 -3 -28q0 -26 15 -26q17 0 43 34.5t42 73.5z" />
    <glyph glyph-name="uni01D4" unicode="&#x1d4;" horiz-adv-x="641" 
d="M305.5 654q-36.5 43 -64.5 66l59 41q26 -24 53 -60t39 -62h4q23 26 65 62t76 60l45 -41q-37 -22 -91 -65t-78 -71h-59q-12 27 -48.5 70zM653 143q-27 -66 -73 -109.5t-101 -43.5q-32 0 -54.5 20t-22.5 57q0 13 3 28l7 33q-41 -59 -96.5 -98.5t-117.5 -39.5q-66 0 -101 28
t-35 86q0 26 5 48l62 308q-28 5 -62 18l2 10l197 20l-71 -352q-8 -38 -8 -59q0 -33 14.5 -48t43.5 -15q34 0 82.5 44.5t98.5 118.5l60 301h127l-81 -397q-3 -15 -3 -28q0 -26 15 -26q17 0 43 34.5t42 73.5z" />
    <glyph glyph-name="ucircumflex" unicode="&#xfb;" horiz-adv-x="641" 
d="M348 641q-42 -36 -78 -61l-44 41q37 22 91.5 66t76.5 70h60q13 -27 49.5 -71t63.5 -65l-59 -41q-25 24 -53 60t-40 62h-3q-22 -25 -64 -61zM653 143q-27 -66 -73 -109.5t-101 -43.5q-32 0 -54.5 20t-22.5 57q0 13 3 28l7 33q-41 -59 -96.5 -98.5t-117.5 -39.5
q-66 0 -101 28t-35 86q0 26 5 48l62 308q-28 5 -62 18l2 10l197 20l-71 -352q-8 -38 -8 -59q0 -33 14.5 -48t43.5 -15q34 0 82.5 44.5t98.5 118.5l60 301h127l-81 -397q-3 -15 -3 -28q0 -26 15 -26q17 0 43 34.5t42 73.5z" />
    <glyph glyph-name="udieresis" unicode="&#xfc;" horiz-adv-x="641" 
d="M246 595q-11 12 -11 31q0 29 19 49.5t45 20.5q21 0 33 -11.5t12 -30.5q0 -5 -2 -15q-4 -24 -22.5 -40t-43.5 -16q-19 0 -30 12zM469 594.5q-11 11.5 -11 30.5q0 30 18.5 50.5t47.5 20.5q20 0 32 -11.5t12 -31.5q0 -29 -19.5 -49.5t-47.5 -20.5q-21 0 -32 11.5zM653 143
q-27 -66 -73 -109.5t-101 -43.5q-32 0 -54.5 20t-22.5 57q0 13 3 28l7 33q-41 -59 -96.5 -98.5t-117.5 -39.5q-66 0 -101 28t-35 86q0 26 5 48l62 308q-28 5 -62 18l2 10l197 20l-71 -352q-8 -38 -8 -59q0 -33 14.5 -48t43.5 -15q34 0 82.5 44.5t98.5 118.5l60 301h127
l-81 -397q-3 -15 -3 -28q0 -26 15 -26q17 0 43 34.5t42 73.5z" />
    <glyph glyph-name="uni01D8" unicode="&#x1d8;" horiz-adv-x="641" 
d="M401 699l-14 32l106 93q36 31 63 31q14 0 22 -8.5t8 -20.5q0 -17 -12.5 -31t-39.5 -28zM247 595q-11 11 -11 30q0 30 18.5 50.5t46.5 20.5q21 0 32.5 -12t11.5 -31q0 -30 -19 -49.5t-47 -19.5q-21 0 -32 11zM558 684q12 -12 12 -32q0 -8 -1 -12q-5 -25 -23 -40.5
t-43 -15.5q-21 0 -32 11.5t-11 30.5q0 30 18.5 50t46.5 20q21 0 33 -12zM653 143q-27 -66 -73 -109.5t-101 -43.5q-32 0 -54.5 20t-22.5 57q0 13 3 28l7 33q-41 -59 -96.5 -98.5t-117.5 -39.5q-66 0 -101 28t-35 86q0 26 5 48l62 308q-28 5 -62 18l2 10l197 20l-71 -352
q-8 -38 -8 -59q0 -33 14.5 -48t43.5 -15q34 0 82.5 44.5t98.5 118.5l60 301h127l-81 -397q-3 -15 -3 -28q0 -26 15 -26q17 0 43 34.5t42 73.5z" />
    <glyph glyph-name="uni01DA" unicode="&#x1da;" horiz-adv-x="641" 
d="M337 780.5q-37 43.5 -65 65.5l61 41q26 -26 53.5 -61.5t38.5 -60.5h4q23 26 64.5 62t76.5 60l44 -41q-36 -21 -90 -64.5t-79 -71.5h-59q-12 27 -49 70.5zM246 595q-11 11 -11 30q0 29 18.5 50t46.5 21q21 0 32.5 -12t11.5 -31q0 -30 -19 -49.5t-47 -19.5q-21 0 -32 11z
M477.5 676q18.5 20 46.5 20q21 0 33 -12t12 -32q0 -8 -1 -12q-5 -25 -23 -40.5t-43 -15.5q-21 0 -32 11.5t-11 30.5q0 30 18.5 50zM653 143q-27 -66 -73 -109.5t-101 -43.5q-32 0 -54.5 20t-22.5 57q0 13 3 28l7 33q-41 -59 -96.5 -98.5t-117.5 -39.5q-66 0 -101 28t-35 86
q0 26 5 48l62 308q-28 5 -62 18l2 10l197 20l-71 -352q-8 -38 -8 -59q0 -33 14.5 -48t43.5 -15q34 0 82.5 44.5t98.5 118.5l60 301h127l-81 -397q-3 -15 -3 -28q0 -26 15 -26q17 0 43 34.5t42 73.5z" />
    <glyph glyph-name="uni01DC" unicode="&#x1dc;" horiz-adv-x="641" 
d="M307 788.5q-8 10.5 -8 22.5q0 15 13.5 29.5t32.5 14.5q25 0 51 -31l68 -93l-28 -32l-104 68q-17 11 -25 21.5zM247 595q-11 11 -11 30q0 30 18.5 50.5t46.5 20.5q21 0 32.5 -12t11.5 -31q0 -30 -19 -49.5t-47 -19.5q-21 0 -32 11zM471 595.5q-11 11.5 -11 30.5
q0 30 18.5 50t46.5 20q21 0 33 -12t12 -32q0 -8 -1 -12q-5 -25 -23 -40.5t-43 -15.5q-21 0 -32 11.5zM653 143q-27 -66 -73 -109.5t-101 -43.5q-32 0 -54.5 20t-22.5 57q0 13 3 28l7 33q-41 -59 -96.5 -98.5t-117.5 -39.5q-66 0 -101 28t-35 86q0 26 5 48l62 308
q-28 5 -62 18l2 10l197 20l-71 -352q-8 -38 -8 -59q0 -33 14.5 -48t43.5 -15q34 0 82.5 44.5t98.5 118.5l60 301h127l-81 -397q-3 -15 -3 -28q0 -26 15 -26q17 0 43 34.5t42 73.5z" />
    <glyph glyph-name="uni01D6" unicode="&#x1d6;" horiz-adv-x="641" 
d="M602 754h-350l9 44h349zM247.5 595q-11.5 11 -11.5 30q0 30 19 50.5t47 20.5q21 0 32.5 -12t11.5 -31q0 -30 -19 -49.5t-47 -19.5q-21 0 -32.5 11zM479.5 676q18.5 20 46.5 20q21 0 32.5 -12t11.5 -32q0 -8 -1 -12q-5 -25 -23 -40.5t-42 -15.5q-21 0 -32 11.5t-11 30.5
q0 30 18.5 50zM653 143q-27 -66 -73 -109.5t-101 -43.5q-32 0 -54.5 20t-22.5 57q0 13 3 28l7 33q-41 -59 -96.5 -98.5t-117.5 -39.5q-66 0 -101 28t-35 86q0 26 5 48l62 308q-28 5 -62 18l2 10l197 20l-71 -352q-8 -38 -8 -59q0 -33 14.5 -48t43.5 -15q34 0 82.5 44.5
t98.5 118.5l60 301h127l-81 -397q-3 -15 -3 -28q0 -26 15 -26q17 0 43 34.5t42 73.5z" />
    <glyph glyph-name="uni1EE5" unicode="&#x1ee5;" horiz-adv-x="641" 
d="M653 143q-27 -66 -73 -109.5t-101 -43.5q-32 0 -54.5 20t-22.5 57q0 13 3 28l7 33q-41 -59 -96.5 -98.5t-117.5 -39.5q-66 0 -101 28t-35 86q0 26 5 48l62 308q-28 5 -62 18l2 10l197 20l-71 -352q-8 -38 -8 -59q0 -33 14.5 -48t43.5 -15q34 0 82.5 44.5t98.5 118.5
l60 301h127l-81 -397q-3 -15 -3 -28q0 -26 15 -26q17 0 43 34.5t42 73.5zM293.5 -67.5q11.5 -11.5 11.5 -30.5q0 -29 -19 -50t-47 -21q-21 0 -32.5 12t-11.5 31q0 29 19.5 49.5t47.5 20.5q20 0 31.5 -11.5z" />
    <glyph glyph-name="ugrave" unicode="&#xf9;" horiz-adv-x="641" 
d="M312 719q0 5 1 8q3 14 15.5 26t29.5 12q18 0 31.5 -10t21.5 -20l91 -120l-27 -31l-130 89q-33 23 -33 46zM653 143q-27 -66 -73 -109.5t-101 -43.5q-32 0 -54.5 20t-22.5 57q0 13 3 28l7 33q-41 -59 -96.5 -98.5t-117.5 -39.5q-66 0 -101 28t-35 86q0 26 5 48l62 308
q-28 5 -62 18l2 10l197 20l-71 -352q-8 -38 -8 -59q0 -33 14.5 -48t43.5 -15q34 0 82.5 44.5t98.5 118.5l60 301h127l-81 -397q-3 -15 -3 -28q0 -26 15 -26q17 0 43 34.5t42 73.5z" />
    <glyph glyph-name="uni1EE7" unicode="&#x1ee7;" horiz-adv-x="641" 
d="M445 695q19 13 25 39q1 3 1 9q0 17 -13 28t-37 11q-29 0 -62 -16l1 36q40 17 83 17q40 0 66 -16.5t26 -50.5q0 -6 -2 -20q-15 -74 -103 -82l-24 -68h-52l15 100h32q25 0 44 13zM653 143q-27 -66 -73 -109.5t-101 -43.5q-32 0 -54.5 20t-22.5 57q0 13 3 28l7 33
q-41 -59 -96.5 -98.5t-117.5 -39.5q-66 0 -101 28t-35 86q0 26 5 48l62 308q-28 5 -62 18l2 10l197 20l-71 -352q-8 -38 -8 -59q0 -33 14.5 -48t43.5 -15q34 0 82.5 44.5t98.5 118.5l60 301h127l-81 -397q-3 -15 -3 -28q0 -26 15 -26q17 0 43 34.5t42 73.5z" />
    <glyph glyph-name="uhorn" unicode="&#x1b0;" horiz-adv-x="684" 
d="M781 615q0 -14 -3 -26q-6 -29 -28.5 -59t-60.5 -53.5t-86 -33.5l-71 -342q-3 -15 -3 -28q0 -26 15 -26q17 0 43 34.5t42 73.5l24 -12q-27 -66 -73 -109.5t-101 -43.5q-32 0 -54.5 20t-22.5 57q0 13 3 28l7 33q-41 -59 -96.5 -98.5t-117.5 -39.5q-66 0 -101 28t-35 86
q0 26 5 48l62 308q-28 5 -62 18l2 10l197 20l-71 -352q-8 -38 -8 -59q0 -33 14.5 -48t43.5 -15q34 0 83.5 45t97.5 119l53 261q-40 9 -62 19l3 13h161q50 0 79.5 14t44.5 46q-7 -3 -17 -3q-20 0 -32 11.5t-12 31.5q0 27 19 51.5t60 24.5q58 0 58 -52z" />
    <glyph glyph-name="uni1EE9" unicode="&#x1ee9;" horiz-adv-x="684" 
d="M342 584l-15 31l140 119q10 10 27 20.5t36 10.5q16 0 24 -8t8 -20q0 -6 -1 -9q-6 -29 -53 -55zM781 615q0 -14 -3 -26q-6 -29 -28.5 -59t-60.5 -53.5t-86 -33.5l-71 -342q-3 -15 -3 -28q0 -26 15 -26q17 0 43 34.5t42 73.5l24 -12q-27 -66 -73 -109.5t-101 -43.5
q-32 0 -54.5 20t-22.5 57q0 13 3 28l7 33q-41 -59 -96.5 -98.5t-117.5 -39.5q-66 0 -101 28t-35 86q0 26 5 48l62 308q-28 5 -62 18l2 10l197 20l-71 -352q-8 -38 -8 -59q0 -33 14.5 -48t43.5 -15q34 0 83.5 45t97.5 119l53 261q-40 9 -62 19l3 13h161q50 0 79.5 14t44.5 46
q-7 -3 -17 -3q-20 0 -32 11.5t-12 31.5q0 27 19 51.5t60 24.5q58 0 58 -52z" />
    <glyph glyph-name="uni1EF1" unicode="&#x1ef1;" horiz-adv-x="684" 
d="M781 615q0 -14 -3 -26q-6 -29 -28.5 -59t-60.5 -53.5t-86 -33.5l-71 -342q-3 -15 -3 -28q0 -26 15 -26q17 0 43 34.5t42 73.5l24 -12q-27 -66 -73 -109.5t-101 -43.5q-32 0 -54.5 20t-22.5 57q0 13 3 28l7 33q-41 -59 -96.5 -98.5t-117.5 -39.5q-66 0 -101 28t-35 86
q0 26 5 48l62 308q-28 5 -62 18l2 10l197 20l-71 -352q-8 -38 -8 -59q0 -33 14.5 -48t43.5 -15q34 0 83.5 45t97.5 119l53 261q-40 9 -62 19l3 13h161q50 0 79.5 14t44.5 46q-7 -3 -17 -3q-20 0 -32 11.5t-12 31.5q0 27 19 51.5t60 24.5q58 0 58 -52zM305.5 -68
q11.5 -12 11.5 -31q0 -29 -19 -49.5t-47 -20.5q-21 0 -32.5 12t-11.5 32q0 29 20 49t47 20q20 0 31.5 -12z" />
    <glyph glyph-name="uni1EEB" unicode="&#x1eeb;" horiz-adv-x="684" 
d="M309 699q-8 13 -5 28t15.5 26.5t29.5 11.5q18 0 31.5 -10t21.5 -20l91 -120l-27 -31l-129 89q-20 13 -28 26zM781 615q0 -14 -3 -26q-6 -29 -28.5 -59t-60.5 -53.5t-86 -33.5l-71 -342q-3 -15 -3 -28q0 -26 15 -26q17 0 43 34.5t42 73.5l24 -12q-27 -66 -73 -109.5
t-101 -43.5q-32 0 -54.5 20t-22.5 57q0 13 3 28l7 33q-41 -59 -96.5 -98.5t-117.5 -39.5q-66 0 -101 28t-35 86q0 26 5 48l62 308q-28 5 -62 18l2 10l197 20l-71 -352q-8 -38 -8 -59q0 -33 14.5 -48t43.5 -15q34 0 83.5 45t97.5 119l53 261q-40 9 -62 19l3 13h161
q50 0 79.5 14t44.5 46q-7 -3 -17 -3q-20 0 -32 11.5t-12 31.5q0 27 19 51.5t60 24.5q58 0 58 -52z" />
    <glyph glyph-name="uni1EED" unicode="&#x1eed;" horiz-adv-x="684" 
d="M446 695q19 13 25 39q1 3 1 9q0 17 -13 28t-37 11q-29 0 -62 -16l1 36q40 17 83 17q40 0 66 -16.5t26 -50.5q0 -6 -2 -20q-15 -74 -103 -82l-24 -68h-52l15 100h32q25 0 44 13zM781 615q0 -14 -3 -26q-6 -29 -28.5 -59t-60.5 -53.5t-86 -33.5l-71 -342q-3 -15 -3 -28
q0 -26 15 -26q17 0 43 34.5t42 73.5l24 -12q-27 -66 -73 -109.5t-101 -43.5q-32 0 -54.5 20t-22.5 57q0 13 3 28l7 33q-41 -59 -96.5 -98.5t-117.5 -39.5q-66 0 -101 28t-35 86q0 26 5 48l62 308q-28 5 -62 18l2 10l197 20l-71 -352q-8 -38 -8 -59q0 -33 14.5 -48t43.5 -15
q34 0 83.5 45t97.5 119l53 261q-40 9 -62 19l3 13h161q50 0 79.5 14t44.5 46q-7 -3 -17 -3q-20 0 -32 11.5t-12 31.5q0 27 19 51.5t60 24.5q58 0 58 -52z" />
    <glyph glyph-name="uni1EEF" unicode="&#x1eef;" horiz-adv-x="684" 
d="M290 623.5q-18 -14.5 -28 -39.5h-51q18 55 51.5 83t79.5 28q24 0 42 -8t43 -23q17 -11 28 -16.5t23 -5.5q49 0 73 56h49q-17 -54 -50 -84t-82 -30q-20 0 -39 8t-44 23q-19 11 -31.5 17t-23.5 6q-22 0 -40 -14.5zM781 615q0 -14 -3 -26q-6 -29 -28.5 -59t-60.5 -53.5
t-86 -33.5l-71 -342q-3 -15 -3 -28q0 -26 15 -26q17 0 43 34.5t42 73.5l24 -12q-27 -66 -73 -109.5t-101 -43.5q-32 0 -54.5 20t-22.5 57q0 13 3 28l7 33q-41 -59 -96.5 -98.5t-117.5 -39.5q-66 0 -101 28t-35 86q0 26 5 48l62 308q-28 5 -62 18l2 10l197 20l-71 -352
q-8 -38 -8 -59q0 -33 14.5 -48t43.5 -15q34 0 83.5 45t97.5 119l53 261q-40 9 -62 19l3 13h161q50 0 79.5 14t44.5 46q-7 -3 -17 -3q-20 0 -32 11.5t-12 31.5q0 27 19 51.5t60 24.5q58 0 58 -52z" />
    <glyph glyph-name="uhungarumlaut" unicode="&#x171;" horiz-adv-x="641" 
d="M226 582l-14 32l137 119q35 31 62 31q20 0 28.5 -11.5t5.5 -25.5q-5 -28 -54 -55zM414 614l139 119q10 10 27 20.5t35 10.5t26.5 -8.5t8.5 -21.5q0 -18 -13.5 -32.5t-41.5 -29.5l-166 -90zM653 143q-27 -66 -73 -109.5t-101 -43.5q-32 0 -54.5 20t-22.5 57q0 13 3 28
l7 33q-41 -59 -96.5 -98.5t-117.5 -39.5q-66 0 -101 28t-35 86q0 26 5 48l62 308q-28 5 -62 18l2 10l197 20l-71 -352q-8 -38 -8 -59q0 -33 14.5 -48t43.5 -15q34 0 82.5 44.5t98.5 118.5l60 301h127l-81 -397q-3 -15 -3 -28q0 -26 15 -26q17 0 43 34.5t42 73.5z" />
    <glyph glyph-name="umacron" unicode="&#x16b;" horiz-adv-x="641" 
d="M571 584h-355l8 44h356zM653 143q-27 -66 -73 -109.5t-101 -43.5q-32 0 -54.5 20t-22.5 57q0 13 3 28l7 33q-41 -59 -96.5 -98.5t-117.5 -39.5q-66 0 -101 28t-35 86q0 26 5 48l62 308q-28 5 -62 18l2 10l197 20l-71 -352q-8 -38 -8 -59q0 -33 14.5 -48t43.5 -15
q34 0 82.5 44.5t98.5 118.5l60 301h127l-81 -397q-3 -15 -3 -28q0 -26 15 -26q17 0 43 34.5t42 73.5z" />
    <glyph glyph-name="uogonek" unicode="&#x173;" horiz-adv-x="641" 
d="M478 -47q-17 -24 -17 -46q0 -19 13.5 -30t35.5 -11q28 0 65 19l-12 -56q-21 -11 -48 -17t-55 -6q-48 0 -74.5 19.5t-26.5 51.5q0 33 24.5 66.5t63.5 52.5q-21 8 -33 25.5t-12 44.5q0 14 3 29l7 33q-41 -59 -96.5 -98.5t-117.5 -39.5q-66 0 -101 28t-35 86q0 26 5 48
l62 308q-28 5 -62 18l2 10l197 20l-71 -352q-8 -38 -8 -59q0 -33 14.5 -48t43.5 -15q34 0 82.5 44.5t98.5 118.5l60 301h127l-81 -397q-3 -15 -3 -28q0 -26 15 -26q17 0 43 34.5t42 73.5l24 -12q-21 -53 -56 -92.5t-78 -53.5q-24 -20 -41 -44z" />
    <glyph glyph-name="uring" unicode="&#x16f;" horiz-adv-x="641" 
d="M331 595q-22 20 -22 54q0 15 2 23q9 44 42 71t78 27q37 0 59 -20t22 -54q0 -53 -35 -87t-86 -34q-38 0 -60 20zM353 659q0 -20 12.5 -31.5t33.5 -11.5q24 0 43 15.5t23 40.5q2 10 2 15q0 19 -12.5 30t-32.5 11q-24 0 -43 -15.5t-25 -40.5q-1 -5 -1 -13zM653 143
q-27 -66 -73 -109.5t-101 -43.5q-32 0 -54.5 20t-22.5 57q0 13 3 28l7 33q-41 -59 -96.5 -98.5t-117.5 -39.5q-66 0 -101 28t-35 86q0 26 5 48l62 308q-28 5 -62 18l2 10l197 20l-71 -352q-8 -38 -8 -59q0 -33 14.5 -48t43.5 -15q34 0 82.5 44.5t98.5 118.5l60 301h127
l-81 -397q-3 -15 -3 -28q0 -26 15 -26q17 0 43 34.5t42 73.5z" />
    <glyph glyph-name="utilde" unicode="&#x169;" horiz-adv-x="641" 
d="M289 623.5q-18 -14.5 -28 -39.5h-51q18 55 51.5 83t79.5 28q24 0 42 -8t43 -23q17 -11 28 -16.5t23 -5.5q49 0 73 56h49q-17 -54 -50 -84t-82 -30q-20 0 -39 8t-44 23q-19 11 -31.5 17t-23.5 6q-22 0 -40 -14.5zM653 143q-27 -66 -73 -109.5t-101 -43.5q-32 0 -54.5 20
t-22.5 57q0 13 3 28l7 33q-41 -59 -96.5 -98.5t-117.5 -39.5q-66 0 -101 28t-35 86q0 26 5 48l62 308q-28 5 -62 18l2 10l197 20l-71 -352q-8 -38 -8 -59q0 -33 14.5 -48t43.5 -15q34 0 82.5 44.5t98.5 118.5l60 301h127l-81 -397q-3 -15 -3 -28q0 -26 15 -26q17 0 43 34.5
t42 73.5z" />
    <glyph glyph-name="v" unicode="v" horiz-adv-x="573" 
d="M86.5 19q-27.5 29 -27.5 76q0 20 4 37l66 328q-28 5 -62 18l2 10l197 20l-73 -362q-5 -22 -5 -42q0 -31 12 -50.5t38 -19.5q42 0 85.5 50t78 124t47.5 140q9 47 9 80q0 35 -11 62q35 23 73 23q39 0 55 -17t16 -47q0 -20 -7 -52q-18 -89 -74 -183.5t-143.5 -159
t-194.5 -64.5q-58 0 -85.5 29z" />
    <glyph glyph-name="w" unicode="w" horiz-adv-x="787" 
d="M779.5 489q15.5 -24 15.5 -63q0 -27 -6 -56q-19 -90 -60 -175.5t-114.5 -145t-180.5 -59.5q-90 0 -99 76q-74 -76 -151 -76q-66 0 -93.5 25t-27.5 80q0 40 12 97l54 268q-28 5 -62 18l2 10l197 20l-72 -354q-9 -43 -9 -69q0 -27 10.5 -39t34.5 -12q42 0 106 76q2 16 4 22
l74 366h117l-77 -380q-6 -27 -6 -46t8 -28.5t28 -9.5q29 0 62.5 35t61 91t39.5 114q16 80 16 146q0 44 -8 70q35 23 74 23q35 0 50.5 -24z" />
    </font>
</defs>
</svg>
