<?xml version="1.0" standalone="no"?>
<!DOCTYPE svg PUBLIC "-//W3C//DTD SVG 1.1//EN" "http://www.w3.org/Graphics/SVG/1.1/DTD/svg11.dtd" >
<svg>
<metadata>
Created by FontForge 20090622 at Wed Nov  1 21:03:21 2017
 By deploy user
Copyright (c) 2015, Cadson Demak (info@cadsondemak.com)
</metadata>
<defs>
<font id="Trirong-ExtraBoldItalic" horiz-adv-x="0" >
  <font-face 
    font-family="Trirong ExtraBold"
    font-weight="800"
    font-style="italic"
    font-stretch="normal"
    units-per-em="1000"
    panose-1="0 0 9 0 0 0 0 0 0 0"
    ascent="750"
    descent="-250"
    x-height="498"
    cap-height="700"
    bbox="-598 -515 1495 1192"
    underline-thickness="50"
    underline-position="-50"
    slope="-12"
    unicode-range="U+000D-U+FB02"
  />
<missing-glyph horiz-adv-x="576" 
d="M40 714h403v-714h-403v714zM413 31v652h-343v-652h343z" />
    <glyph glyph-name="fi" unicode="fi" horiz-adv-x="796" 
d="M-152 -160.5q-39 25.5 -39 73.5q0 14 3 31q4 20 21.5 37t38.5 17t31 -10t10 -25q0 -6 -1 -9q-2 -6 -8.5 -20t-6.5 -26q0 -35 57 -35q42 0 69 30.5t36 81.5l94 460h-89l11 53h89l10 50q21 105 114.5 141t221.5 36q100 0 181 -21.5t81 -79.5q0 -5 -2 -15
q-7 -35 -32.5 -52.5t-63.5 -17.5q-33 0 -51 15t-18 42q0 5 2 17q0 2 2 9.5t3 10.5q-15 16 -43.5 25t-63.5 9q-61 0 -106.5 -28t-57.5 -84l-11 -57h341l86 9l-103 -507l-169 -10l94 455h-260l-92 -453q-19 -89 -88 -133.5t-164 -44.5q-88 0 -127 25.5z" />
    <glyph glyph-name="fl" unicode="fl" horiz-adv-x="773" 
d="M772 713l-144 -713l-169 -10l125 613q3 16 -10.5 30.5t-38.5 23t-53 8.5q-50 0 -89 -26.5t-52 -83.5l-12 -57h140l-10 -53h-140l-92 -453q-18 -88 -84 -133t-168 -45q-88 0 -127 25.5t-39 73.5q0 14 3 31q4 20 21.5 37t38.5 17t31 -10t10 -25q0 -6 -1 -9q-2 -6 -8.5 -20
t-6.5 -26q0 -17 15 -26t42 -9q42 0 69 30.5t36 81.5l94 460h-89l11 53h89l10 50q18 88 81 133t164 45q102 0 151 -39z" />
    <glyph glyph-name="ru_lakkhangyaothai" unicode="&#xe24;&#xe45;" horiz-adv-x="927" 
d="M870 532q45 -32 45 -96q0 -18 -5 -45l-120 -584h-166l120 587q6 29 6 51q0 32 -14.5 49t-46.5 17q-30 0 -60 -25t-47 -63q2 -21 -3 -47l-117 -569h-165l122 595q3 12 3 24q0 34 -23 55.5t-64 21.5q-83 0 -139 -67q32 -9 61 -30t48 -46l-2 -11q-43 -24 -63.5 -54
t-30.5 -80l-7 -32q34 -1 53 -21.5t19 -51.5q0 -6 -2 -20q-10 -48 -45 -74t-92 -26q-60 0 -88.5 23t-28.5 65q0 9 4 33l21 105q8 39 38 77.5t81 61.5q-35 32 -97 52l3 12q45 64 123 104.5t173 40.5q69 0 121.5 -20.5t77.5 -60.5q32 39 76.5 60t100.5 21q85 0 130 -32z
M212 104q0 19 -10.5 29t-27.5 10q-20 0 -36 -14t-21 -41q-2 -12 -2 -18q0 -19 10 -28.5t26 -9.5q20 0 36.5 14.5t22.5 41.5q2 12 2 16z" />
    <glyph glyph-name="lu_lakkhangyaothai" unicode="&#xe26;&#xe45;" horiz-adv-x="960" 
d="M901.5 532q45.5 -32 45.5 -97q0 -17 -5 -44l-120 -584h-166l120 587q7 33 7 52q0 65 -61 65q-29 0 -58 -24t-48 -60q1 -5 1 -16q0 -19 -4 -35l-116 -569h-166l122 595q2 8 2 23q0 35 -22 56.5t-64 21.5q-81 0 -137 -67q31 -9 60.5 -30t48.5 -46l-1 -11q-36 -23 -50.5 -51
t-25.5 -83l-21 -104q-26 -121 -165 -121q-99 0 -99 74q0 13 3 26q7 38 38.5 64.5t70.5 28.5l7 33q9 46 30 81.5t70 57.5q-37 32 -98 52l2 12q47 64 124.5 104.5t171.5 40.5q69 0 121 -20t78 -59q31 38 75.5 58.5t99.5 20.5q84 0 129.5 -32zM139 105q0 19 -10 28.5t-27 9.5
q-20 0 -36 -14t-22 -41q-2 -12 -2 -17q0 -19 10.5 -29t26.5 -10q20 0 36 14.5t22 41.5q2 12 2 17z" />
    <glyph glyph-name=".notdef" horiz-adv-x="576" 
d="M40 714h403v-714h-403v714zM413 31v652h-343v-652h343z" />
    <glyph glyph-name=".null" horiz-adv-x="488" 
 />
    <glyph glyph-name="nonmarkingreturn" unicode="&#xd;" horiz-adv-x="253" 
 />
    <glyph glyph-name="space" unicode=" " horiz-adv-x="253" 
 />
    <glyph glyph-name="A" unicode="A" horiz-adv-x="763" 
d="M714 20l-4 -20h-321l4 22q58 19 81 22l-18 133h-254l-74 -135q22 -3 44.5 -12t29.5 -12l-3 -18h-240l4 23l47 13.5t34 8.5l372 659h123l105 -661q36 -10 70 -23zM449 231l-42 317l-175 -317h217z" />
    <glyph glyph-name="Aacute" unicode="&#xc1;" horiz-adv-x="763" 
d="M410 786l-20 39l146 133q44 38 76 38q22 0 32 -10.5t10 -25.5q0 -7 -1 -10q-3 -20 -19 -36t-46 -32zM714 20l-4 -20h-321l4 22q58 19 81 22l-18 133h-254l-74 -135q22 -3 44.5 -12t29.5 -12l-3 -18h-240l4 23l47 13.5t34 8.5l372 659h123l105 -661q36 -10 70 -23z
M449 231l-42 317l-175 -317h217z" />
    <glyph glyph-name="Abreve" unicode="&#x102;" horiz-adv-x="763" 
d="M378 817q-39 34 -38 103h91q-1 -6 -1 -17q0 -38 20.5 -51t54.5 -13q37 0 64 16t41 65h92q-24 -68 -78.5 -102.5t-130.5 -34.5t-115 34zM714 20l-4 -20h-321l4 22q58 19 81 22l-18 133h-254l-74 -135q22 -3 44.5 -12t29.5 -12l-3 -18h-240l4 23l47 13.5t34 8.5l372 659
h123l105 -661q36 -10 70 -23zM449 231l-42 317l-175 -317h217z" />
    <glyph glyph-name="uni1EAE" unicode="&#x1eae;" horiz-adv-x="763" 
d="M505 928l-19 35l92 93q49 47 81 47q22 0 32 -11.5t10 -27.5q0 -21 -20.5 -42t-55.5 -38zM378 817.5q-40 34.5 -39 102.5h93q-1 -6 -1 -17q0 -38 20 -51t54 -13q37 0 64 16t42 65h91q-25 -68 -79 -102.5t-130 -34.5q-75 0 -115 34.5zM714 20l-4 -20h-321l4 22q58 19 81 22
l-18 133h-254l-74 -135q22 -3 44.5 -12t29.5 -12l-3 -18h-240l4 23l47 13.5t34 8.5l372 659h123l105 -661q36 -10 70 -23zM449 231l-42 317l-175 -317h217z" />
    <glyph glyph-name="uni1EB6" unicode="&#x1eb6;" horiz-adv-x="763" 
d="M378.5 817.5q-39.5 34.5 -38.5 102.5h91q-1 -6 -1 -16q0 -39 20.5 -52t54.5 -13q37 0 64 16t42 65h92q-25 -68 -80 -102.5t-130 -34.5t-114.5 34.5zM714 20l-4 -20h-321l4 22q58 19 81 22l-18 133h-254l-74 -135q22 -3 44.5 -12t29.5 -12l-3 -18h-240l4 23l47 13.5
t34 8.5l372 659h123l105 -661q36 -10 70 -23zM449 231l-42 317l-175 -317h217zM357 -66.5q14 -14.5 14 -36.5q0 -34 -23 -59t-57 -25q-25 0 -38.5 14t-13.5 36q0 35 22.5 60t55.5 25q26 0 40 -14.5z" />
    <glyph glyph-name="uni1EB0" unicode="&#x1eb0;" horiz-adv-x="763" 
d="M394 1046q0 6 1 9q3 18 19.5 33t41.5 15q34 0 62 -47l54 -93l-33 -35l-96 56q-49 29 -49 62zM378 817.5q-40 34.5 -39 102.5h93q-1 -6 -1 -17q0 -38 20 -51t54 -13q37 0 64 16t42 65h91q-25 -68 -79 -102.5t-130 -34.5q-75 0 -115 34.5zM714 20l-4 -20h-321l4 22
q58 19 81 22l-18 133h-254l-74 -135q22 -3 44.5 -12t29.5 -12l-3 -18h-240l4 23l47 13.5t34 8.5l372 659h123l105 -661q36 -10 70 -23zM449 231l-42 317l-175 -317h217z" />
    <glyph glyph-name="uni1EB2" unicode="&#x1eb2;" horiz-adv-x="763" 
d="M580.5 1037q16.5 11 21.5 35q1 3 1 9q0 15 -11.5 24.5t-33.5 9.5q-29 0 -55 -13l2 39q36 16 77 16q39 0 65.5 -16.5t26.5 -50.5q0 -5 -2 -19q-8 -40 -33.5 -58t-64.5 -22l-18 -44h-59l12 79h36q19 0 35.5 11zM378 817.5q-40 34.5 -39 102.5h93q-1 -6 -1 -17q0 -38 20 -51
t54 -13q37 0 64 16t42 65h91q-25 -68 -79 -102.5t-130 -34.5q-75 0 -115 34.5zM714 20l-4 -20h-321l4 22q58 19 81 22l-18 133h-254l-74 -135q22 -3 44.5 -12t29.5 -12l-3 -18h-240l4 23l47 13.5t34 8.5l372 659h123l105 -661q36 -10 70 -23zM449 231l-42 317l-175 -317h217
z" />
    <glyph glyph-name="uni1EB4" unicode="&#x1eb4;" horiz-adv-x="763" 
d="M428 1018.5q-19 -13.5 -27 -36.5h-56q19 58 56.5 88t88.5 30q27 0 44.5 -8t37.5 -23q13 -10 21.5 -14.5t19.5 -4.5q54 0 77 52h55q-17 -56 -53 -88t-90 -32q-21 0 -37 7t-36 20q-19 12 -31 17.5t-27 5.5q-24 0 -43 -13.5zM378 817.5q-40 34.5 -39 102.5h93q-1 -6 -1 -17
q0 -38 20 -51t54 -13q37 0 64 16t42 65h91q-25 -68 -79 -102.5t-130 -34.5q-75 0 -115 34.5zM644 43q36 -10 70 -23l-4 -20h-321l4 22q58 19 81 22l-18 133h-254l-74 -135q22 -3 44.5 -12t29.5 -12l-3 -18h-240l4 23l47 13.5t34 8.5l372 659h123zM449 231l-42 317l-175 -317
h217z" />
    <glyph glyph-name="uni01CD" unicode="&#x1cd;" horiz-adv-x="763" 
d="M401 862q-43 51 -72 73l78 50q27 -26 57.5 -67.5t40.5 -67.5h3q22 27 69.5 68t84.5 67l58 -50q-38 -22 -102 -73t-85 -76h-78q-11 25 -54 76zM644 43q36 -10 70 -23l-4 -20h-321l4 22q58 19 81 22l-18 133h-254l-74 -135q22 -3 44.5 -12t29.5 -12l-3 -18h-240l4 23
l47 13.5t34 8.5l372 659h123zM449 231l-42 317l-175 -317h217z" />
    <glyph glyph-name="Acircumflex" unicode="&#xc2;" horiz-adv-x="763" 
d="M452 853q-47 -41 -86 -69l-57 51q37 21 100.5 72t85.5 77h79q10 -25 53.5 -76.5t72.5 -72.5l-79 -51q-28 27 -58 68t-40 68h-4q-20 -26 -67 -67zM714 20l-4 -20h-321l4 22q58 19 81 22l-18 133h-254l-74 -135q22 -3 44.5 -12t29.5 -12l-3 -18h-240l4 23l47 13.5t34 8.5
l372 659h123l105 -661q36 -10 70 -23zM449 231l-42 317l-175 -317h217z" />
    <glyph glyph-name="uni1EA4" unicode="&#x1ea4;" horiz-adv-x="763" 
d="M852 1086.5q12 -10.5 12 -28.5q0 -22 -18 -38t-58 -35l-119 -56l-19 35l93 93q40 40 77 40q20 0 32 -10.5zM454 853q-47 -41 -86 -69l-57 51q36 21 100 72t87 77h78q10 -25 53 -76.5t71 -72.5l-77 -51q-28 28 -58 69t-40 67h-3q-21 -26 -68 -67zM644 43q36 -10 70 -23
l-4 -20h-321l4 22q58 19 81 22l-18 133h-254l-74 -135q22 -3 44.5 -12t29.5 -12l-3 -18h-240l4 23l47 13.5t34 8.5l372 659h123zM449 231l-42 317l-175 -317h217z" />
    <glyph glyph-name="uni1EAC" unicode="&#x1eac;" horiz-adv-x="763" 
d="M453 852q-47 -41 -86 -69l-57 51q37 21 100.5 72t85.5 77h79q10 -25 53 -76.5t72 -72.5l-78 -51q-28 27 -58 68t-40 68h-4q-20 -26 -67 -67zM714 20l-4 -20h-321l4 22q58 19 81 22l-18 133h-254l-74 -135q22 -3 44.5 -12t29.5 -12l-3 -18h-240l4 23l47 13.5t34 8.5
l372 659h123l105 -661q36 -10 70 -23zM449 231l-42 317l-175 -317h217zM364.5 -66.5q14.5 -14.5 14.5 -37.5q0 -34 -23 -58.5t-58 -24.5q-24 0 -37.5 14.5t-13.5 37.5q0 10 1 15q6 29 27 48.5t50 19.5q25 0 39.5 -14.5z" />
    <glyph glyph-name="uni1EA6" unicode="&#x1ea6;" horiz-adv-x="763" 
d="M243.5 1012.5q-12.5 12.5 -12.5 27.5q0 5 1 8q5 22 23.5 35.5t40.5 13.5q20 0 34 -11t26 -29l55 -93l-33 -35l-96 56q-26 15 -38.5 27.5zM311 835q36 21 100 72t87 77h78q10 -25 53 -76.5t71 -72.5l-77 -51q-28 28 -58 69t-40 67h-3q-21 -26 -68 -67t-86 -69zM714 20
l-4 -20h-321l4 22q58 19 81 22l-18 133h-254l-74 -135q22 -3 44.5 -12t29.5 -12l-3 -18h-240l4 23l47 13.5t34 8.5l372 659h123l105 -661q36 -10 70 -23zM449 231l-42 317l-175 -317h217z" />
    <glyph glyph-name="uni1EA8" unicode="&#x1ea8;" horiz-adv-x="763" 
d="M801 1142q26 -16 26 -50q0 -13 -2 -20q-8 -40 -33.5 -58t-65.5 -22l-17 -44h-59l12 79h36q19 0 35.5 11t21.5 35q1 3 1 9q0 15 -11.5 24.5t-33.5 9.5q-29 0 -56 -13l2 39q36 16 78 16q40 0 66 -16zM454 853q-47 -41 -86 -69l-57 51q36 21 100 72t87 77h78
q10 -25 53 -76.5t71 -72.5l-77 -51q-28 28 -58 69t-40 67h-3q-21 -26 -68 -67zM644 43q36 -10 70 -23l-4 -20h-321l4 22q58 19 81 22l-18 133h-254l-74 -135q22 -3 44.5 -12t29.5 -12l-3 -18h-240l4 23l47 13.5t34 8.5l372 659h123zM449 231l-42 317l-175 -317h217z" />
    <glyph glyph-name="uni1EAA" unicode="&#x1eaa;" horiz-adv-x="763" 
d="M766 1142q-16 -56 -52 -88t-91 -32q-21 0 -37 7t-36 20q-19 12 -31 17.5t-27 5.5q-24 0 -42.5 -13.5t-27.5 -36.5h-56q19 58 56.5 88t88.5 30q27 0 44.5 -8t37.5 -23q13 -10 21.5 -14.5t19.5 -4.5q22 0 43 11t34 41h55zM454 853q-47 -41 -86 -69l-57 51q36 21 100 72
t87 77h78q10 -25 53 -76.5t71 -72.5l-77 -51q-28 28 -58 69t-40 67h-3q-21 -26 -68 -67zM644 43q36 -10 70 -23l-4 -20h-321l4 22q58 19 81 22l-18 133h-254l-74 -135q22 -3 44.5 -12t29.5 -12l-3 -18h-240l4 23l47 13.5t34 8.5l372 659h123zM449 231l-42 317l-175 -317h217
z" />
    <glyph glyph-name="Adieresis" unicode="&#xc4;" horiz-adv-x="763" 
d="M319.5 799q-13.5 14 -13.5 36q0 35 23 60t56 25q25 0 38.5 -14.5t13.5 -38.5q0 -33 -23.5 -57.5t-55.5 -24.5q-25 0 -38.5 14zM555.5 799q-13.5 14 -13.5 36q0 35 22.5 60t56.5 25q26 0 39.5 -14.5t13.5 -38.5q0 -33 -24 -57.5t-57 -24.5q-24 0 -37.5 14zM714 20l-4 -20
h-321l4 22q58 19 81 22l-18 133h-254l-74 -135q22 -3 44.5 -12t29.5 -12l-3 -18h-240l4 23l47 13.5t34 8.5l372 659h123l105 -661q36 -10 70 -23zM449 231l-42 317l-175 -317h217z" />
    <glyph glyph-name="uni1EA0" unicode="&#x1ea0;" horiz-adv-x="763" 
d="M714 20l-4 -20h-321l4 22q58 19 81 22l-18 133h-254l-74 -135q22 -3 44.5 -12t29.5 -12l-3 -18h-240l4 23l47 13.5t34 8.5l372 659h123l105 -661q36 -10 70 -23zM449 231l-42 317l-175 -317h217zM363 -66.5q14 -14.5 14 -36.5q0 -34 -23.5 -59t-57.5 -25
q-24 0 -37.5 14.5t-13.5 37.5q0 10 1 15q6 29 27 48.5t50 19.5q26 0 40 -14.5z" />
    <glyph glyph-name="Agrave" unicode="&#xc0;" horiz-adv-x="763" 
d="M400 940q0 7 1 10q4 18 20.5 32t41.5 14q23 0 38 -13t22 -25l93 -133l-35 -39l-140 96q-41 30 -41 58zM714 20l-4 -20h-321l4 22q58 19 81 22l-18 133h-254l-74 -135q22 -3 44.5 -12t29.5 -12l-3 -18h-240l4 23l47 13.5t34 8.5l372 659h123l105 -661q36 -10 70 -23z
M449 231l-42 317l-175 -317h217z" />
    <glyph glyph-name="uni1EA2" unicode="&#x1ea2;" horiz-adv-x="763" 
d="M570 905.5q19 12.5 25 39.5q1 3 1 9q0 18 -13.5 29.5t-38.5 11.5q-34 0 -63 -16l2 42q40 19 89 19q45 0 75 -18.5t30 -57.5q0 -6 -2 -20q-9 -45 -38 -65t-74 -24l-25 -71h-67l18 109h41q21 0 40 12.5zM714 20l-4 -20h-321l4 22q58 19 81 22l-18 133h-254l-74 -135
q22 -3 44.5 -12t29.5 -12l-3 -18h-240l4 23l47 13.5t34 8.5l372 659h123l105 -661q36 -10 70 -23zM449 231l-42 317l-175 -317h217z" />
    <glyph glyph-name="Amacron" unicode="&#x100;" horiz-adv-x="763" 
d="M694 785h-392l11 52h391zM714 20l-4 -20h-321l4 22q58 19 81 22l-18 133h-254l-74 -135q22 -3 44.5 -12t29.5 -12l-3 -18h-240l4 23l47 13.5t34 8.5l372 659h123l105 -661q36 -10 70 -23zM449 231l-42 317l-175 -317h217z" />
    <glyph glyph-name="Aogonek" unicode="&#x104;" horiz-adv-x="763" 
d="M759 -113l-13 -70q-22 -13 -55.5 -21t-67.5 -8q-57 0 -88 19.5t-31 55.5q0 24 15 52t42.5 51.5t62.5 33.5h-235l4 22q58 19 81 22l-18 133h-254l-74 -135q22 -3 44.5 -12t29.5 -12l-3 -18h-240l4 23l47 13.5t34 8.5l372 659h123l105 -661q36 -10 70 -23l-4 -20h-9
q-21 -15 -39.5 -38.5t-22.5 -45.5q-1 -4 -1 -12q0 -18 13.5 -29t35.5 -11q33 0 72 23zM449 231l-42 317l-175 -317h217z" />
    <glyph glyph-name="Aring" unicode="&#xc5;" horiz-adv-x="763" 
d="M419 769q-24 22 -24 59q0 12 3 25q10 48 45.5 77.5t85.5 29.5q42 0 65.5 -22.5t23.5 -60.5q0 -16 -2 -24q-10 -47 -46 -76.5t-85 -29.5q-42 0 -66 22zM462 808q13 -12 33 -12q28 0 48.5 20t20.5 51q0 20 -12 31.5t-33 11.5q-28 0 -49 -20.5t-21 -50.5q0 -19 13 -31z
M714 20l-4 -20h-321l4 22q58 19 81 22l-18 133h-254l-74 -135q22 -3 44.5 -12t29.5 -12l-3 -18h-240l4 23l47 13.5t34 8.5l372 659h123l105 -661q36 -10 70 -23zM449 231l-42 317l-175 -317h217z" />
    <glyph glyph-name="Aringacute" unicode="&#x1fa;" horiz-adv-x="763" 
d="M449 982l-19 39l146 133q10 10 32.5 24t43.5 14t31.5 -10.5t10.5 -25.5q0 -7 -1 -10q-4 -20 -19.5 -36t-45.5 -32zM419 769q-24 22 -24 59q0 12 3 25q10 48 45.5 77.5t85.5 29.5q42 0 65.5 -22.5t23.5 -60.5q0 -16 -2 -24q-10 -47 -46 -76.5t-85 -29.5q-42 0 -66 22z
M462 808q13 -12 33 -12q28 0 48.5 20t20.5 51q0 20 -12 31.5t-33 11.5q-28 0 -49 -20.5t-21 -50.5q0 -19 13 -31zM714 20l-4 -20h-321l4 22q58 19 81 22l-18 133h-254l-74 -135q22 -3 44.5 -12t29.5 -12l-3 -18h-240l4 23l47 13.5t34 8.5l372 659h123l105 -661
q36 -10 70 -23zM449 231l-42 317l-175 -317h217z" />
    <glyph glyph-name="Atilde" unicode="&#xc3;" horiz-adv-x="763" 
d="M389 823.5q-16 -13.5 -25 -37.5h-76q21 60 59 91t90 31q28 0 48 -8t45 -23q14 -10 25 -15t23 -5q21 0 36.5 10.5t29.5 42.5h75q-37 -124 -148 -124q-23 0 -44.5 8t-47.5 23q-36 20 -53 20q-21 0 -37 -13.5zM644 43q36 -10 70 -23l-4 -20h-321l4 22q58 19 81 22l-18 133
h-254l-74 -135q22 -3 44.5 -12t29.5 -12l-3 -18h-240l4 23l47 13.5t34 8.5l372 659h123zM449 231l-42 317l-175 -317h217z" />
    <glyph glyph-name="AE" unicode="&#xc6;" horiz-adv-x="1004" 
d="M-37 20q51 17 80 24l477 620q-30 7 -48 16l4 20h570l-37 -187h-37q-6 13 -10.5 47t-4.5 62q0 17 1 23h-239l-53 -259h156q6 17 16.5 42t21.5 45h27l-47 -229h-27q-3 32 -3 63q0 19 1 25h-157l-56 -278h246q7 27 34 70.5t45 60.5h37l-57 -185h-568l4 20q44 15 87 22
l28 135h-221l-101 -135q30 -4 79 -24l-3 -18h-249zM465 231l70 345l-260 -345h190z" />
    <glyph glyph-name="AEacute" unicode="&#x1fc;" horiz-adv-x="1004" 
d="M684 825l146 133q44 38 76 38q21 0 31.5 -10.5t10.5 -25.5q0 -7 -1 -10q-4 -20 -19.5 -36t-45.5 -32l-179 -96zM-37 20q51 17 80 24l477 620q-30 7 -48 16l4 20h570l-37 -187h-37q-6 13 -10.5 47t-4.5 62q0 17 1 23h-239l-53 -259h156q6 17 16.5 42t21.5 45h27l-47 -229
h-27q-3 32 -3 63q0 19 1 25h-157l-56 -278h246q7 27 34 70.5t45 60.5h37l-57 -185h-568l4 20q44 15 87 22l28 135h-221l-101 -135q30 -4 79 -24l-3 -18h-249zM465 231l70 345l-260 -345h190z" />
    <glyph glyph-name="B" unicode="B" horiz-adv-x="630" 
d="M-25 19q62 23 81 26l125 612q-31 6 -72 22l4 21h326q112 0 162 -30.5t50 -91.5q0 -21 -4 -41q-13 -57 -52.5 -101t-103.5 -63l-1 -6q61 -15 89.5 -53t28.5 -85q0 -12 -4 -34q-19 -98 -84 -146.5t-193 -48.5h-356zM349 394q47 0 79.5 36t44.5 97q5 23 5 47q0 37 -17.5 54
t-55.5 17h-55l-52 -251h51zM314 54q90 0 121 148q6 29 6 51q0 43 -21 65.5t-60 22.5h-72l-59 -287h85z" />
    <glyph glyph-name="C" unicode="C" horiz-adv-x="652" 
d="M118.5 56q-71.5 66 -71.5 187q0 50 12 107q34 169 141 264.5t272 95.5q85 0 138 -20.5t86 -61.5l-46 -154h-41q-2 26 -2 45q0 47 6 95q-43 39 -109 39q-63 0 -117.5 -36.5t-94 -105t-58.5 -161.5q-14 -70 -14 -121q0 -88 36.5 -135t107.5 -47q43 0 95 15.5t102 49.5
l15 -48q-47 -35 -111.5 -54.5t-134.5 -19.5q-140 0 -211.5 66z" />
    <glyph glyph-name="Cacute" unicode="&#x106;" horiz-adv-x="652" 
d="M430 825l146 133q10 10 32.5 24t43.5 14t31.5 -10.5t10.5 -25.5q0 -7 -1 -10q-4 -20 -19.5 -36t-45.5 -32l-179 -96zM118.5 56q-71.5 66 -71.5 187q0 50 12 107q34 169 141 264.5t272 95.5q85 0 138 -20.5t86 -61.5l-46 -154h-41q-2 26 -2 45q0 47 6 95q-43 39 -109 39
q-63 0 -117.5 -36.5t-94 -105t-58.5 -161.5q-14 -70 -14 -121q0 -88 36.5 -135t107.5 -47q43 0 95 15.5t102 49.5l15 -48q-47 -35 -111.5 -54.5t-134.5 -19.5q-140 0 -211.5 66z" />
    <glyph glyph-name="Ccaron" unicode="&#x10c;" horiz-adv-x="652" 
d="M421 862.5q-43 50.5 -72 72.5l78 50q27 -26 57.5 -67.5t40.5 -67.5h4q21 27 68 68t85 67l58 -50q-38 -22 -102 -73t-84 -76h-79q-11 26 -54 76.5zM118.5 56q-71.5 66 -71.5 187q0 50 12 107q34 169 141 264.5t272 95.5q85 0 138 -20.5t86 -61.5l-46 -154h-41q-2 26 -2 45
q0 47 6 95q-43 39 -109 39q-63 0 -117.5 -36.5t-94 -105t-58.5 -161.5q-14 -70 -14 -121q0 -88 36.5 -135t107.5 -47q43 0 95 15.5t102 49.5l15 -48q-47 -35 -111.5 -54.5t-134.5 -19.5q-140 0 -211.5 66z" />
    <glyph glyph-name="Ccedilla" unicode="&#xc7;" horiz-adv-x="652" 
d="M610 689.5q53 -20.5 86 -61.5l-46 -154h-41q-2 26 -2 45q0 47 6 95q-43 39 -109 39q-63 0 -117.5 -36.5t-94 -105t-58.5 -161.5q-14 -70 -14 -121q0 -88 36.5 -135t107.5 -47q43 0 95 15.5t102 49.5l15 -48q-45 -34 -106.5 -53t-128.5 -21l-38 -56q53 0 77.5 -21.5
t24.5 -53.5q0 -11 -1 -16q-12 -54 -59.5 -83.5t-110.5 -29.5q-30 0 -61.5 9.5t-50.5 25.5l33 43q13 -10 33.5 -15.5t43.5 -5.5q35 0 60 13t31 43q1 3 1 9q0 19 -17.5 27.5t-41.5 8.5q-16 0 -22 -1l-20 35l50 71q-112 13 -169 77.5t-57 172.5q0 50 12 107q34 169 141 264.5
t272 95.5q85 0 138 -20.5z" />
    <glyph glyph-name="Ccircumflex" unicode="&#x108;" horiz-adv-x="652" 
d="M317 835q37 21 101 72t86 77h78q10 -25 53.5 -76.5t72.5 -72.5l-79 -51q-27 27 -57 68.5t-40 67.5h-4q-20 -26 -67 -67t-86 -69zM118.5 56q-71.5 66 -71.5 187q0 50 12 107q34 169 141 264.5t272 95.5q85 0 138 -20.5t86 -61.5l-46 -154h-41q-2 26 -2 45q0 47 6 95
q-43 39 -109 39q-63 0 -117.5 -36.5t-94 -105t-58.5 -161.5q-14 -70 -14 -121q0 -88 36.5 -135t107.5 -47q43 0 95 15.5t102 49.5l15 -48q-47 -35 -111.5 -54.5t-134.5 -19.5q-140 0 -211.5 66z" />
    <glyph glyph-name="Cdotaccent" unicode="&#x10a;" horiz-adv-x="652" 
d="M479.5 799q-13.5 14 -13.5 36q0 35 23 60t57 25q25 0 38.5 -14.5t13.5 -38.5q0 -33 -23.5 -57.5t-56.5 -24.5q-25 0 -38.5 14zM118.5 56q-71.5 66 -71.5 187q0 50 12 107q34 169 141 264.5t272 95.5q85 0 138 -20.5t86 -61.5l-46 -154h-41q-2 26 -2 45q0 47 6 95
q-43 39 -109 39q-63 0 -117.5 -36.5t-94 -105t-58.5 -161.5q-14 -70 -14 -121q0 -88 36.5 -135t107.5 -47q43 0 95 15.5t102 49.5l15 -48q-47 -35 -111.5 -54.5t-134.5 -19.5q-140 0 -211.5 66z" />
    <glyph glyph-name="D" unicode="D" horiz-adv-x="705" 
d="M-17 21q65 21 80 23l125 613q-17 4 -70 23l4 20h329q133 0 195.5 -58t62.5 -172q0 -52 -14 -120q-36 -173 -129.5 -261.5t-257.5 -88.5h-328zM316 54q78 0 126.5 77t77.5 219q19 92 19 154q0 69 -24 105t-76 36h-82l-121 -591h80z" />
    <glyph glyph-name="Eth" unicode="&#xd0;" horiz-adv-x="705" 
d="M646.5 642q62.5 -58 62.5 -172q0 -52 -14 -120q-36 -173 -129.5 -261.5t-257.5 -88.5h-328l3 21q65 21 80 23l54 263h-60l11 53h59l61 297q-17 4 -70 23l4 20h329q133 0 195.5 -58zM539 504q0 69 -24 105t-76 36h-82l-58 -285h131l-11 -53h-131l-52 -253h80
q78 0 126.5 77t77.5 219q19 92 19 154z" />
    <glyph glyph-name="Dcaron" unicode="&#x10e;" horiz-adv-x="705" 
d="M356 862q-43 51 -72 73l78 50q27 -26 57.5 -67.5t40.5 -67.5h3q22 27 69.5 68t84.5 67l58 -50q-38 -22 -102 -73t-85 -76h-78q-11 25 -54 76zM-17 21q65 21 80 23l125 613q-17 4 -70 23l4 20h329q133 0 195.5 -58t62.5 -172q0 -52 -14 -120q-36 -173 -129.5 -261.5
t-257.5 -88.5h-328zM316 54q78 0 126.5 77t77.5 219q19 92 19 154q0 69 -24 105t-76 36h-82l-121 -591h80z" />
    <glyph glyph-name="Dcroat" unicode="&#x110;" horiz-adv-x="705" 
d="M646.5 642q62.5 -58 62.5 -172q0 -52 -14 -120q-36 -173 -129.5 -261.5t-257.5 -88.5h-328l3 21q65 21 80 23l54 263h-60l11 53h59l61 297q-17 4 -70 23l4 20h329q133 0 195.5 -58zM539 504q0 69 -24 105t-76 36h-82l-58 -285h131l-11 -53h-131l-52 -253h80
q78 0 126.5 77t77.5 219q19 92 19 154z" />
    <glyph glyph-name="uni1E0C" unicode="&#x1e0c;" horiz-adv-x="705" 
d="M-17 21q65 21 80 23l125 613q-17 4 -70 23l4 20h329q133 0 195.5 -58t62.5 -172q0 -52 -14 -120q-36 -173 -129.5 -261.5t-257.5 -88.5h-328zM316 54q78 0 126.5 77t77.5 219q19 92 19 154q0 69 -24 105t-76 36h-82l-121 -591h80zM234.5 -77q22.5 25 56.5 25
q25 0 39 -14.5t14 -36.5q0 -34 -23 -59t-57 -25q-25 0 -38.5 14t-13.5 36q0 35 22.5 60z" />
    <glyph glyph-name="uni1E0E" unicode="&#x1e0e;" horiz-adv-x="705" 
d="M-17 21q65 21 80 23l125 613q-17 4 -70 23l4 20h329q133 0 195.5 -58t62.5 -172q0 -52 -14 -120q-36 -173 -129.5 -261.5t-257.5 -88.5h-328zM316 54q78 0 126.5 77t77.5 219q19 92 19 154q0 69 -24 105t-76 36h-82l-121 -591h80zM91 -58h392l-11 -53h-392z" />
    <glyph glyph-name="E" unicode="E" horiz-adv-x="649" 
d="M691 700l-38 -187h-36q-7 13 -11.5 45.5t-4.5 61.5q0 11 2 25h-238l-54 -262h155q1 3 12 32t27 55h27l-47 -229h-26q-7 41 -4 87h-155l-56 -274h244q8 27 35 70.5t45 60.5h36l-56 -185h-568l3 20q42 14 88 22l125 615q-39 7 -78 23l4 20h569z" />
    <glyph glyph-name="Eacute" unicode="&#xc9;" horiz-adv-x="649" 
d="M393 786l-19 39l146 133q44 38 76 38q21 0 31.5 -10.5t10.5 -25.5q0 -7 -1 -10q-4 -20 -19.5 -36t-45.5 -32zM691 700l-38 -187h-36q-7 13 -11.5 45.5t-4.5 61.5q0 11 2 25h-238l-54 -262h155q1 3 12 32t27 55h27l-47 -229h-26q-7 41 -4 87h-155l-56 -274h244
q8 27 35 70.5t45 60.5h36l-56 -185h-568l3 20q42 14 88 22l125 615q-39 7 -78 23l4 20h569z" />
    <glyph glyph-name="Ebreve" unicode="&#x114;" horiz-adv-x="649" 
d="M368.5 818q-39.5 34 -38.5 103h91q-1 -6 -1 -16q0 -39 20.5 -52t54.5 -13q37 0 64.5 16.5t41.5 64.5h92q-25 -68 -79.5 -102.5t-129.5 -34.5q-76 0 -115.5 34zM122 700h569l-38 -187h-36q-7 13 -11.5 45.5t-4.5 61.5q0 11 2 25h-238l-54 -262h155q1 3 12 32t27 55h27
l-47 -229h-26q-7 41 -4 87h-155l-56 -274h244q8 27 35 70.5t45 60.5h36l-56 -185h-568l3 20q42 14 88 22l125 615q-39 7 -78 23z" />
    <glyph glyph-name="Ecaron" unicode="&#x11a;" horiz-adv-x="649" 
d="M388 862q-43 51 -72 73l77 50q28 -26 58.5 -67t39.5 -68h4q22 27 69.5 68t84.5 67l57 -50q-38 -22 -101.5 -73t-84.5 -76h-79q-10 25 -53 76zM122 700h569l-38 -187h-36q-7 13 -11.5 45.5t-4.5 61.5q0 11 2 25h-238l-54 -262h155q1 3 12 32t27 55h27l-47 -229h-26
q-7 41 -4 87h-155l-56 -274h244q8 27 35 70.5t45 60.5h36l-56 -185h-568l3 20q42 14 88 22l125 615q-39 7 -78 23z" />
    <glyph glyph-name="Ecircumflex" unicode="&#xca;" horiz-adv-x="649" 
d="M433 853q-47 -41 -86 -69l-57 51q37 21 100.5 72t85.5 77h79q10 -25 53 -76.5t72 -72.5l-78 -51q-28 27 -58 68t-40 68h-4q-20 -26 -67 -67zM691 700l-38 -187h-36q-7 13 -11.5 45.5t-4.5 61.5q0 11 2 25h-238l-54 -262h155q1 3 12 32t27 55h27l-47 -229h-26q-7 41 -4 87
h-155l-56 -274h244q8 27 35 70.5t45 60.5h36l-56 -185h-568l3 20q42 14 88 22l125 615q-39 7 -78 23l4 20h569z" />
    <glyph glyph-name="uni1EBE" unicode="&#x1ebe;" horiz-adv-x="649" 
d="M807.5 1086.5q12.5 -10.5 12.5 -28.5q0 -22 -18 -38t-58 -35l-119 -56l-20 35l94 93q40 40 76 40q20 0 32.5 -10.5zM410 853q-47 -41 -86 -69l-57 51q36 21 100 72t87 77h78q10 -25 53 -76.5t71 -72.5l-77 -51q-28 28 -58 69t-40 67h-3q-21 -26 -68 -67zM122 700h569
l-38 -187h-36q-7 13 -11.5 45.5t-4.5 61.5q0 11 2 25h-238l-54 -262h155q1 3 12 32t27 55h27l-47 -229h-26q-7 41 -4 87h-155l-56 -274h244q8 27 35 70.5t45 60.5h36l-56 -185h-568l3 20q42 14 88 22l125 615q-39 7 -78 23z" />
    <glyph glyph-name="uni1EC6" unicode="&#x1ec6;" horiz-adv-x="649" 
d="M410 853q-47 -41 -86 -69l-57 51q36 21 100 72t86 77h79q10 -25 53 -76.5t72 -72.5l-78 -51q-28 27 -58 68t-40 68h-4q-20 -26 -67 -67zM691 700l-38 -187h-36q-7 13 -11.5 45.5t-4.5 61.5q0 11 2 25h-238l-54 -262h155q1 3 12 32t27 55h27l-47 -229h-26q-7 41 -4 87
h-155l-56 -274h244q8 27 35 70.5t45 60.5h36l-56 -185h-568l3 20q42 14 88 22l125 615q-39 7 -78 23l4 20h569zM323.5 -66.5q13.5 -14.5 13.5 -38.5q0 -33 -23.5 -57.5t-56.5 -24.5q-24 0 -38 14.5t-14 36.5q0 4 2 16q6 29 27 48.5t50 19.5q26 0 39.5 -14.5z" />
    <glyph glyph-name="uni1EC0" unicode="&#x1ec0;" horiz-adv-x="649" 
d="M199.5 1012.5q-12.5 12.5 -12.5 27.5q0 5 1 8q5 22 23 35.5t41 13.5q20 0 34 -11t26 -29l54 -93l-32 -35l-96 56q-26 15 -38.5 27.5zM267 835q36 21 100 72t87 77h78q10 -25 53 -76.5t71 -72.5l-77 -51q-28 28 -58 69t-40 67h-3q-21 -26 -68 -67t-86 -69zM691 700
l-38 -187h-36q-7 13 -11.5 45.5t-4.5 61.5q0 11 2 25h-238l-54 -262h155q1 3 12 32t27 55h27l-47 -229h-26q-7 41 -4 87h-155l-56 -274h244q8 27 35 70.5t45 60.5h36l-56 -185h-568l3 20q42 14 88 22l125 615q-39 7 -78 23l4 20h569z" />
    <glyph glyph-name="uni1EC2" unicode="&#x1ec2;" horiz-adv-x="649" 
d="M757 1142q26 -16 26 -50q0 -13 -2 -20q-8 -40 -33.5 -58t-65.5 -22l-17 -44h-60l13 79h35q20 0 36.5 10.5t21.5 35.5q1 3 1 9q0 15 -11.5 24.5t-33.5 9.5q-30 0 -56 -13l2 39q36 16 78 16q40 0 66 -16zM410 853q-47 -41 -86 -69l-57 51q36 21 100 72t87 77h78
q10 -25 53 -76.5t71 -72.5l-77 -51q-28 28 -58 69t-40 67h-3q-21 -26 -68 -67zM122 700h569l-38 -187h-36q-7 13 -11.5 45.5t-4.5 61.5q0 11 2 25h-238l-54 -262h155q1 3 12 32t27 55h27l-47 -229h-26q-7 41 -4 87h-155l-56 -274h244q8 27 35 70.5t45 60.5h36l-56 -185h-568
l3 20q42 14 88 22l125 615q-39 7 -78 23z" />
    <glyph glyph-name="uni1EC4" unicode="&#x1ec4;" horiz-adv-x="649" 
d="M405 1058.5q-19 -13.5 -27 -36.5h-56q19 58 56.5 88t88.5 30q27 0 44.5 -8t37.5 -23q13 -10 21.5 -14.5t19.5 -4.5q22 0 43 11t34 41h55q-17 -56 -53 -88t-90 -32q-21 0 -37 7t-36 20q-19 12 -31 17.5t-27 5.5q-24 0 -43 -13.5zM410 853q-47 -41 -86 -69l-57 51
q36 21 100 72t87 77h78q10 -25 53 -76.5t71 -72.5l-77 -51q-28 28 -58 69t-40 67h-3q-21 -26 -68 -67zM122 700h569l-38 -187h-36q-7 13 -11.5 45.5t-4.5 61.5q0 11 2 25h-238l-54 -262h155q1 3 12 32t27 55h27l-47 -229h-26q-7 41 -4 87h-155l-56 -274h244q8 27 35 70.5
t45 60.5h36l-56 -185h-568l3 20q42 14 88 22l125 615q-39 7 -78 23z" />
    <glyph glyph-name="Edieresis" unicode="&#xcb;" horiz-adv-x="649" 
d="M331.5 799.5q-13.5 14.5 -13.5 37.5q0 34 23 58.5t55 24.5q25 0 39 -14.5t14 -36.5q0 -34 -23.5 -59t-56.5 -25q-24 0 -37.5 14.5zM567 799q-13 14 -13 36q0 34 22.5 59.5t55.5 25.5q26 0 40 -14t14 -37q0 -34 -23.5 -59t-58.5 -25q-24 0 -37 14zM691 700l-38 -187h-36
q-7 13 -11.5 45.5t-4.5 61.5q0 11 2 25h-238l-54 -262h155q1 3 12 32t27 55h27l-47 -229h-26q-7 41 -4 87h-155l-56 -274h244q8 27 35 70.5t45 60.5h36l-56 -185h-568l3 20q42 14 88 22l125 615q-39 7 -78 23l4 20h569z" />
    <glyph glyph-name="Edotaccent" unicode="&#x116;" horiz-adv-x="649" 
d="M448.5 799q-13.5 14 -13.5 37q0 35 23 59.5t57 24.5q25 0 39 -14.5t14 -36.5q0 -34 -23.5 -59t-57.5 -25q-25 0 -38.5 14zM691 700l-38 -187h-36q-7 13 -11.5 45.5t-4.5 61.5q0 11 2 25h-238l-54 -262h155q1 3 12 32t27 55h27l-47 -229h-26q-7 41 -4 87h-155l-56 -274
h244q8 27 35 70.5t45 60.5h36l-56 -185h-568l3 20q42 14 88 22l125 615q-39 7 -78 23l4 20h569z" />
    <glyph glyph-name="uni1EB8" unicode="&#x1eb8;" horiz-adv-x="649" 
d="M691 700l-38 -187h-36q-7 13 -11.5 45.5t-4.5 61.5q0 11 2 25h-238l-54 -262h155q1 3 12 32t27 55h27l-47 -229h-26q-7 41 -4 87h-155l-56 -274h244q8 27 35 70.5t45 60.5h36l-56 -185h-568l3 20q42 14 88 22l125 615q-39 7 -78 23l4 20h569zM307 -66.5
q14 -14.5 14 -36.5q0 -34 -23 -59t-57 -25q-25 0 -38.5 14t-13.5 36q0 35 22.5 60t56.5 25q25 0 39 -14.5z" />
    <glyph glyph-name="Egrave" unicode="&#xc8;" horiz-adv-x="649" 
d="M397.5 911q-10.5 14 -10.5 31l1 8q4 18 20.5 32t42.5 14q23 0 39 -14t20 -24l94 -133l-35 -39l-140 96q-21 15 -31.5 29zM691 700l-38 -187h-36q-7 13 -11.5 45.5t-4.5 61.5q0 11 2 25h-238l-54 -262h155q1 3 12 32t27 55h27l-47 -229h-26q-7 41 -4 87h-155l-56 -274h244
q8 27 35 70.5t45 60.5h36l-56 -185h-568l3 20q42 14 88 22l125 615q-39 7 -78 23l4 20h569z" />
    <glyph glyph-name="uni1EBA" unicode="&#x1eba;" horiz-adv-x="649" 
d="M535 905.5q19 12.5 24 39.5q1 3 1 9q0 18 -13 29.5t-39 11.5q-34 0 -63 -16l2 42q18 8 42 13.5t47 5.5q45 0 75 -18.5t30 -56.5q0 -7 -2 -21q-8 -44 -37.5 -64.5t-73.5 -24.5l-25 -71h-67l18 109h40q22 0 41 12.5zM691 700l-38 -187h-36q-7 13 -11.5 45.5t-4.5 61.5
q0 11 2 25h-238l-54 -262h155q1 3 12 32t27 55h27l-47 -229h-26q-7 41 -4 87h-155l-56 -274h244q8 27 35 70.5t45 60.5h36l-56 -185h-568l3 20q42 14 88 22l125 615q-39 7 -78 23l4 20h569z" />
    <glyph glyph-name="Emacron" unicode="&#x112;" horiz-adv-x="649" 
d="M673 785h-392l11 52h391zM691 700l-38 -187h-36q-7 13 -11.5 45.5t-4.5 61.5q0 11 2 25h-238l-54 -262h155q1 3 12 32t27 55h27l-47 -229h-26q-7 41 -4 87h-155l-56 -274h244q8 27 35 70.5t45 60.5h36l-56 -185h-568l3 20q42 14 88 22l125 615q-39 7 -78 23l4 20h569z
" />
    <glyph glyph-name="Eogonek" unicode="&#x118;" horiz-adv-x="649" 
d="M691 700l-38 -187h-36q-7 13 -11.5 45.5t-4.5 61.5q0 11 2 25h-238l-54 -262h155q1 3 12 32t27 55h27l-47 -229h-26q-7 41 -4 87h-155l-56 -274h244q8 27 35 70.5t45 60.5h36l-56 -185h-34q-21 -15 -39.5 -38.5t-22.5 -45.5q-1 -4 -1 -12q0 -18 13 -29t36 -11q33 0 72 23
l-14 -70q-22 -13 -55 -21t-67 -8q-58 0 -89 20t-31 56q0 23 15.5 51.5t43 51.5t61.5 33h-456l3 20q42 14 88 22l125 615q-39 7 -78 23l4 20h569z" />
    <glyph glyph-name="uni1EBC" unicode="&#x1ebc;" horiz-adv-x="649" 
d="M359 822.5q-16 -13.5 -24 -37.5h-77q21 60 59 91t91 31q28 0 47.5 -8t44.5 -23q16 -10 26.5 -15t21.5 -5q21 0 36.5 10.5t29.5 42.5h75q-37 -124 -148 -124q-22 0 -43.5 8t-47.5 23q-5 2 -17 8t-21 9t-16 3q-21 0 -37 -13.5zM691 700l-38 -187h-36q-7 13 -11.5 45.5
t-4.5 61.5q0 11 2 25h-238l-54 -262h155q1 3 12 32t27 55h27l-47 -229h-26q-7 41 -4 87h-155l-56 -274h244q8 27 35 70.5t45 60.5h36l-56 -185h-568l3 20q42 14 88 22l125 615q-39 7 -78 23l4 20h569z" />
    <glyph glyph-name="F" unicode="F" horiz-adv-x="602" 
d="M675 700l-38 -187h-36q-7 14 -11.5 47t-4.5 62q0 17 1 23h-221l-60 -294h155q17 52 39 87h27l-47 -229h-27q-4 28 -4 65q0 17 1 23h-155l-52 -255q41 -7 80 -23l-4 -19h-338l3 20q46 15 88 22l125 615q-39 7 -78 23l4 20h553z" />
    <glyph glyph-name="G" unicode="G" horiz-adv-x="709" 
d="M118.5 56.5q-72.5 66.5 -72.5 189.5q-1 46 11 104q22 111 80.5 192t146.5 124.5t198 43.5q88 0 150.5 -21.5t93.5 -60.5l-46 -154h-40q-2 30 -2 47q0 47 6 93q-22 20 -58 29.5t-73 9.5q-64 0 -121.5 -36.5t-99 -105t-60.5 -161.5q-13 -61 -13 -115q0 -90 38 -139t109 -49
q39 0 66 8l50 245q-9 2 -31.5 8t-38.5 12l3 22h308l-3 -16q-13 -8 -36 -17t-36 -12l-51 -249q-42 -27 -116 -42.5t-148 -15.5q-142 0 -214.5 66.5z" />
    <glyph glyph-name="Gbreve" unicode="&#x11e;" horiz-adv-x="709" 
d="M384.5 818q-39.5 34 -38.5 103h91q-1 -5 -1 -15q0 -39 20.5 -52.5t54.5 -13.5q37 0 64.5 16t41.5 65h92q-24 -68 -78.5 -102.5t-130.5 -34.5t-115.5 34zM118.5 56.5q-72.5 66.5 -72.5 189.5q-1 46 11 104q22 111 80.5 192t146.5 124.5t198 43.5q88 0 150.5 -21.5
t93.5 -60.5l-46 -154h-40q-2 30 -2 47q0 47 6 93q-22 20 -58 29.5t-73 9.5q-64 0 -121.5 -36.5t-99 -105t-60.5 -161.5q-13 -61 -13 -115q0 -90 38 -139t109 -49q39 0 66 8l50 245q-9 2 -31.5 8t-38.5 12l3 22h308l-3 -16q-13 -8 -36 -17t-36 -12l-51 -249
q-42 -27 -116 -42.5t-148 -15.5q-142 0 -214.5 66.5z" />
    <glyph glyph-name="Gcaron" unicode="&#x1e6;" horiz-adv-x="709" 
d="M384 864q-43 51 -72 73l77 50q28 -26 58.5 -67t39.5 -68h4q22 27 69.5 68t84.5 67l57 -50q-38 -22 -101.5 -73t-84.5 -76h-79q-10 25 -53 76zM118.5 56.5q-72.5 66.5 -72.5 189.5q-1 46 11 104q22 111 80.5 192t146.5 124.5t198 43.5q88 0 150.5 -21.5t93.5 -60.5
l-46 -154h-40q-2 30 -2 47q0 47 6 93q-22 20 -58 29.5t-73 9.5q-64 0 -121.5 -36.5t-99 -105t-60.5 -161.5q-13 -61 -13 -115q0 -90 38 -139t109 -49q39 0 66 8l50 245q-9 2 -31.5 8t-38.5 12l3 22h308l-3 -16q-13 -8 -36 -17t-36 -12l-51 -249q-42 -27 -116 -42.5
t-148 -15.5q-142 0 -214.5 66.5z" />
    <glyph glyph-name="Gcircumflex" unicode="&#x11c;" horiz-adv-x="709" 
d="M328 835q37 21 100.5 72t85.5 77h79q10 -25 53.5 -76.5t72.5 -72.5l-79 -51q-28 27 -58 68t-40 68h-4q-20 -26 -67 -67t-85 -69zM118.5 56.5q-72.5 66.5 -72.5 189.5q-1 46 11 104q22 111 80.5 192t146.5 124.5t198 43.5q88 0 150.5 -21.5t93.5 -60.5l-46 -154h-40
q-2 30 -2 47q0 47 6 93q-22 20 -58 29.5t-73 9.5q-64 0 -121.5 -36.5t-99 -105t-60.5 -161.5q-13 -61 -13 -115q0 -90 38 -139t109 -49q39 0 66 8l50 245q-9 2 -31.5 8t-38.5 12l3 22h308l-3 -16q-13 -8 -36 -17t-36 -12l-51 -249q-42 -27 -116 -42.5t-148 -15.5
q-142 0 -214.5 66.5z" />
    <glyph glyph-name="Gcommaaccent" unicode="&#x122;" horiz-adv-x="709" 
d="M118.5 56.5q-72.5 66.5 -72.5 189.5q-1 46 11 104q22 111 80.5 192t146.5 124.5t198 43.5q88 0 150.5 -21.5t93.5 -60.5l-46 -154h-40q-2 30 -2 47q0 47 6 93q-22 20 -58 29.5t-73 9.5q-64 0 -121.5 -36.5t-99 -105t-60.5 -161.5q-13 -61 -13 -115q0 -90 38 -139t109 -49
q39 0 66 8l50 245q-9 2 -31.5 8t-38.5 12l3 22h308l-3 -16q-13 -8 -36 -17t-36 -12l-51 -249q-42 -27 -116 -42.5t-148 -15.5q-142 0 -214.5 66.5zM205 -350q73 63 93 116q-26 2 -42.5 18.5t-16.5 41.5q0 6 2 16q6 32 33 52.5t58 20.5q34 0 50.5 -17t16.5 -45q0 -6 -2 -20
q-12 -61 -54 -122t-95 -101z" />
    <glyph glyph-name="Gdotaccent" unicode="&#x120;" horiz-adv-x="709" 
d="M478.5 799q-13.5 14 -13.5 37q0 35 23 59.5t57 24.5q24 0 38.5 -14.5t14.5 -37.5q0 -33 -24 -58t-57 -25q-25 0 -38.5 14zM118.5 56.5q-72.5 66.5 -72.5 189.5q-1 46 11 104q22 111 80.5 192t146.5 124.5t198 43.5q88 0 150.5 -21.5t93.5 -60.5l-46 -154h-40q-2 30 -2 47
q0 47 6 93q-22 20 -58 29.5t-73 9.5q-64 0 -121.5 -36.5t-99 -105t-60.5 -161.5q-13 -61 -13 -115q0 -90 38 -139t109 -49q39 0 66 8l50 245q-9 2 -31.5 8t-38.5 12l3 22h308l-3 -16q-13 -8 -36 -17t-36 -12l-51 -249q-42 -27 -116 -42.5t-148 -15.5q-142 0 -214.5 66.5z
" />
    <glyph glyph-name="uni1E20" unicode="&#x1e20;" horiz-adv-x="709" 
d="M287 837h391l-10 -52h-392zM118.5 56.5q-72.5 66.5 -72.5 189.5q-1 46 11 104q22 111 80.5 192t146.5 124.5t198 43.5q88 0 150.5 -21.5t93.5 -60.5l-46 -154h-40q-2 30 -2 47q0 47 6 93q-22 20 -58 29.5t-73 9.5q-64 0 -121.5 -36.5t-99 -105t-60.5 -161.5
q-13 -61 -13 -115q0 -90 38 -139t109 -49q39 0 66 8l50 245q-9 2 -31.5 8t-38.5 12l3 22h308l-3 -16q-13 -8 -36 -17t-36 -12l-51 -249q-42 -27 -116 -42.5t-148 -15.5q-142 0 -214.5 66.5z" />
    <glyph glyph-name="H" unicode="H" horiz-adv-x="805" 
d="M875 700l-4 -22q-68 -21 -80 -23l-126 -613q33 -7 72 -23l-4 -19h-321l3 17q20 8 43.5 15.5t36.5 10.5l58 285h-261l-59 -287q23 -6 70 -22l-4 -19h-319l3 21q65 21 80 23l125 613q-31 7 -70 23l4 20h319l-4 -18q-52 -19 -78 -26l-56 -274h261l56 276q-31 7 -69 22l4 20
h320z" />
    <glyph glyph-name="Hbar" unicode="&#x126;" horiz-adv-x="805" 
d="M791 655l-23 -111h56l-10 -54h-57l-92 -448q33 -7 72 -23l-4 -19h-321l3 17q20 8 43.5 15.5t36.5 10.5l58 285h-261l-59 -287q23 -6 70 -22l-4 -19h-319l3 21q65 21 80 23l91 446h-57l10 54h58l23 113q-31 7 -70 23l4 20h319l-4 -18q-52 -19 -78 -26l-23 -112h261l23 114
q-31 7 -69 22l4 20h320l-4 -22q-68 -21 -80 -23zM586 490h-261l-22 -108h261z" />
    <glyph glyph-name="uni1E2A" unicode="&#x1e2a;" horiz-adv-x="805" 
d="M875 700l-4 -22q-68 -21 -80 -23l-126 -613q33 -7 72 -23l-4 -19h-321l3 17q20 8 43.5 15.5t36.5 10.5l58 285h-261l-59 -287q23 -6 70 -22l-4 -19h-319l3 21q65 21 80 23l125 613q-31 7 -70 23l4 20h319l-4 -18q-52 -19 -78 -26l-56 -274h261l56 276q-31 7 -69 22l4 20
h320zM392.5 -115.5q27.5 16.5 42.5 65.5h92q-26 -69 -80 -103.5t-129 -34.5t-115.5 34.5t-38.5 103.5h92q-1 -6 -1 -17q0 -39 20.5 -52t53.5 -13q36 0 63.5 16.5z" />
    <glyph glyph-name="Hcircumflex" unicode="&#x124;" horiz-adv-x="805" 
d="M473 853q-47 -41 -85 -69l-58 51q37 21 100.5 72t85.5 77h79q10 -25 53.5 -76.5t72.5 -72.5l-79 -51q-28 27 -58 68t-40 68h-4q-20 -26 -67 -67zM875 700l-4 -22q-68 -21 -80 -23l-126 -613q33 -7 72 -23l-4 -19h-321l3 17q20 8 43.5 15.5t36.5 10.5l58 285h-261
l-59 -287q23 -6 70 -22l-4 -19h-319l3 21q65 21 80 23l125 613q-31 7 -70 23l4 20h319l-4 -18q-52 -19 -78 -26l-56 -274h261l56 276q-31 7 -69 22l4 20h320z" />
    <glyph glyph-name="uni1E24" unicode="&#x1e24;" horiz-adv-x="805" 
d="M875 700l-4 -22q-68 -21 -80 -23l-126 -613q33 -7 72 -23l-4 -19h-321l3 17q20 8 43.5 15.5t36.5 10.5l58 285h-261l-59 -287q23 -6 70 -22l-4 -19h-319l3 21q65 21 80 23l125 613q-31 7 -70 23l4 20h319l-4 -18q-52 -19 -78 -26l-56 -274h261l56 276q-31 7 -69 22l4 20
h320zM383 -66.5q14 -14.5 14 -36.5q0 -34 -23.5 -59t-57.5 -25q-24 0 -37.5 14t-13.5 36q0 35 22.5 60t55.5 25q26 0 40 -14.5z" />
    <glyph glyph-name="I" unicode="I" horiz-adv-x="377" 
d="M-17 22q52 15 82 21l125 614q-15 3 -72 22l4 21h325l-5 -23l-28.5 -7.5l-24.5 -6.5l-28 -7l-126 -614q10 -2 26 -7t25 -7q13 -5 23 -8l-4 -20h-325z" />
    <glyph glyph-name="IJ" unicode="&#x132;" horiz-adv-x="885" 
d="M-17 22q52 15 82 21l125 614q-15 3 -72 22l4 21h325l-5 -23l-28.5 -7.5l-24.5 -6.5l-28 -7l-126 -614q10 -2 26 -7t25 -7q13 -5 23 -8l-4 -20h-325zM421.5 6q-46.5 16 -73.5 45l34 43q17 -16 44.5 -27t57.5 -11q40 0 72 25t44 79l100 496q-27 5 -71 22l4 22h321l-4 -22
q-69 -22 -79 -23l-99 -486q-18 -91 -89.5 -135t-162.5 -44q-52 0 -98.5 16z" />
    <glyph glyph-name="Iacute" unicode="&#xcd;" horiz-adv-x="377" 
d="M189 825l146 133q10 10 32.5 24t43.5 14t31.5 -10.5t10.5 -25.5q0 -7 -1 -10q-4 -20 -19.5 -36t-45.5 -32l-179 -96zM-17 22q52 15 82 21l125 614q-15 3 -72 22l4 21h325l-5 -23l-28.5 -7.5l-24.5 -6.5l-28 -7l-126 -614q10 -2 26 -7t25 -7q13 -5 23 -8l-4 -20h-325z" />
    <glyph glyph-name="Ibreve" unicode="&#x12c;" horiz-adv-x="377" 
d="M185 818q-39 34 -38 103h91q-1 -6 -1 -17q0 -38 20.5 -51t54.5 -13q37 0 64 16t41 65h92q-24 -68 -78.5 -102.5t-130.5 -34.5t-115 34zM-17 22q52 15 82 21l125 614q-15 3 -72 22l4 21h325l-5 -23l-28.5 -7.5l-24.5 -6.5l-28 -7l-126 -614q10 -2 26 -7t25 -7q13 -5 23 -8
l-4 -20h-325z" />
    <glyph glyph-name="uni01CF" unicode="&#x1cf;" horiz-adv-x="377" 
d="M208 862q-43 51 -72 73l78 50q27 -26 57.5 -67.5t40.5 -67.5h4q21 27 68 68t85 67l58 -50q-38 -22 -102 -73t-85 -76h-78q-11 25 -54 76zM-17 22q52 15 82 21l125 614q-15 3 -72 22l4 21h325l-5 -23l-28.5 -7.5l-24.5 -6.5l-28 -7l-126 -614q10 -2 26 -7t25 -7
q13 -5 23 -8l-4 -20h-325z" />
    <glyph glyph-name="Icircumflex" unicode="&#xce;" horiz-adv-x="377" 
d="M116 835q37 21 100.5 72t85.5 77h79q10 -25 53.5 -76.5t72.5 -72.5l-79 -51q-28 27 -58 68t-40 68h-4q-20 -26 -67 -67t-86 -69zM-17 22q52 15 82 21l125 614q-15 3 -72 22l4 21h325l-5 -23l-28.5 -7.5l-24.5 -6.5l-28 -7l-126 -614q10 -2 26 -7t25 -7q13 -5 23 -8
l-4 -20h-325z" />
    <glyph glyph-name="Idieresis" unicode="&#xcf;" horiz-adv-x="377" 
d="M144 799.5q-14 14.5 -14 36.5q0 34 23.5 59t55.5 25q24 0 38.5 -14.5t14.5 -37.5q0 -33 -24 -58t-56 -25q-24 0 -38 14.5zM379.5 799.5q-13.5 14.5 -13.5 36.5q0 35 23 59.5t56 24.5q25 0 39.5 -14.5t14.5 -37.5q0 -34 -23.5 -58.5t-58.5 -24.5q-24 0 -37.5 14.5zM-17 22
q52 15 82 21l125 614q-15 3 -72 22l4 21h325l-5 -23l-28.5 -7.5l-24.5 -6.5l-28 -7l-126 -614q10 -2 26 -7t25 -7q13 -5 23 -8l-4 -20h-325z" />
    <glyph glyph-name="Idotaccent" unicode="&#x130;" horiz-adv-x="377" 
d="M259.5 799q-13.5 14 -13.5 37q0 35 23 59.5t57 24.5q24 0 38.5 -14.5t14.5 -37.5q0 -34 -23.5 -58.5t-57.5 -24.5q-25 0 -38.5 14zM-17 22q52 15 82 21l125 614q-15 3 -72 22l4 21h325l-5 -23l-28.5 -7.5l-24.5 -6.5l-28 -7l-126 -614q10 -2 26 -7t25 -7q13 -5 23 -8
l-4 -20h-325z" />
    <glyph glyph-name="uni1ECA" unicode="&#x1eca;" horiz-adv-x="377" 
d="M-17 22q52 15 82 21l125 614q-15 3 -72 22l4 21h325l-5 -23l-28.5 -7.5l-24.5 -6.5l-28 -7l-126 -614q10 -2 26 -7t25 -7q13 -5 23 -8l-4 -20h-325zM65.5 -172.5q-13.5 14.5 -13.5 37.5q0 10 1 15q6 29 27 48.5t50 19.5q26 0 40 -14.5t14 -36.5q0 -34 -23.5 -59
t-57.5 -25q-24 0 -37.5 14.5z" />
    <glyph glyph-name="Igrave" unicode="&#xcc;" horiz-adv-x="377" 
d="M254 882q-41 28 -41 58q0 7 1 10q4 18 20.5 32t41.5 14q23 0 38 -13t22 -25l93 -133l-35 -39zM-17 22q52 15 82 21l125 614q-15 3 -72 22l4 21h325l-5 -23l-28.5 -7.5l-24.5 -6.5l-28 -7l-126 -614q10 -2 26 -7t25 -7q13 -5 23 -8l-4 -20h-325z" />
    <glyph glyph-name="uni1EC8" unicode="&#x1ec8;" horiz-adv-x="377" 
d="M292 893h40q21 0 40 12.5t25 39.5q1 3 1 9q0 18 -13 29.5t-39 11.5q-34 0 -63 -16l2 42q40 19 89 19q45 0 75 -18.5t30 -56.5q0 -7 -2 -21q-9 -45 -38 -65t-74 -24l-25 -71h-67zM-17 22q52 15 82 21l125 614q-15 3 -72 22l4 21h325l-5 -23l-28.5 -7.5l-24.5 -6.5l-28 -7
l-126 -614q10 -2 26 -7t25 -7q13 -5 23 -8l-4 -20h-325z" />
    <glyph glyph-name="Imacron" unicode="&#x12a;" horiz-adv-x="377" 
d="M98 838h431l-12 -53h-431zM-17 22q52 15 82 21l125 614q-15 3 -72 22l4 21h325l-5 -23l-28.5 -7.5l-24.5 -6.5l-28 -7l-126 -614q10 -2 26 -7t25 -7q13 -5 23 -8l-4 -20h-325z" />
    <glyph glyph-name="Iogonek" unicode="&#x12e;" horiz-adv-x="377" 
d="M447 700l-5 -23l-28.5 -7.5l-24.5 -6.5l-28 -7l-126 -614q10 -2 26 -7t25 -7q13 -5 23 -8l-4 -20h-13q-21 -15 -40 -38.5t-23 -45.5q-1 -4 -1 -12q0 -18 13.5 -29t35.5 -11q33 0 72 23l-13 -70q-22 -13 -55.5 -21t-67.5 -8q-57 0 -88 19.5t-31 55.5q0 24 15 52t42.5 51.5
t62.5 33.5h-234l3 22q52 15 82 21l125 614q-15 3 -72 22l4 21h325z" />
    <glyph glyph-name="Itilde" unicode="&#x128;" horiz-adv-x="377" 
d="M157 877q38 31 91 31q29 0 49.5 -8.5t43.5 -23.5q15 -10 25.5 -14.5t21.5 -4.5q21 0 37 10.5t30 42.5h75q-17 -58 -53.5 -91t-94.5 -33q-22 0 -43 8t-50 23q-36 20 -52 20q-21 0 -37 -13.5t-25 -37.5h-76q20 60 58 91zM-17 22q52 15 82 21l125 614q-15 3 -72 22l4 21h325
l-5 -23l-28.5 -7.5l-24.5 -6.5l-28 -7l-126 -614q10 -2 26 -7t25 -7q13 -5 23 -8l-4 -20h-325z" />
    <glyph glyph-name="J" unicode="J" horiz-adv-x="516" 
d="M52 6q-46 16 -72 45l33 43q17 -16 44.5 -27t57.5 -11q41 0 73 25t43 79l101 496q-30 5 -71 22l4 22h320l-4 -22q-65 -21 -78 -23l-100 -486q-18 -91 -89 -135t-163 -44q-53 0 -99 16z" />
    <glyph glyph-name="Jcircumflex" unicode="&#x134;" horiz-adv-x="516" 
d="M256 835q37 21 100.5 72t85.5 77h79q10 -25 53.5 -76.5t72.5 -72.5l-79 -51q-28 27 -58 68t-40 68h-4q-20 -26 -67 -67t-85 -69zM52 6q-46 16 -72 45l33 43q17 -16 44.5 -27t57.5 -11q41 0 73 25t43 79l101 496q-30 5 -71 22l4 22h320l-4 -22q-65 -21 -78 -23l-100 -486
q-18 -91 -89 -135t-163 -44q-53 0 -99 16z" />
    <glyph glyph-name="K" unicode="K" horiz-adv-x="795" 
d="M796.5 668.5q-8.5 -1.5 -12.5 -2.5q-20 -4 -32 -8t-23 -12l-253 -224l191 -380q36 -7 81 -22l-4 -20h-234l-155 315l-79 -69l-42 -204q14 -3 51 -15l21 -7l-4 -20h-322l3 22q76 21 81 21l125 614q-33 8 -71 23l4 20h322l-5 -23l-23 -6q-27 -9 -56 -15l-65 -316l357 315
q-26 7 -45 11l-29 6l5 28h233l-6 -28q-5 -2 -13.5 -3.5z" />
    <glyph glyph-name="Kcommaaccent" unicode="&#x136;" horiz-adv-x="795" 
d="M796.5 668.5q-8.5 -1.5 -12.5 -2.5q-20 -4 -32 -8t-23 -12l-253 -224l191 -380q36 -7 81 -22l-4 -20h-234l-155 315l-79 -69l-42 -204q14 -3 51 -15l21 -7l-4 -20h-322l3 22q76 21 81 21l125 614q-33 8 -71 23l4 20h322l-5 -23l-23 -6q-27 -9 -56 -15l-65 -316l357 315
q-26 7 -45 11l-29 6l5 28h233l-6 -28q-5 -2 -13.5 -3.5zM393 -102.5q17 -17.5 17 -45.5q0 -7 -2 -19q-13 -61 -54.5 -122t-94.5 -101l-43 40q74 66 93 116q-27 2 -43 18.5t-16 42.5q0 39 28.5 63.5t63.5 24.5q34 0 51 -17.5z" />
    <glyph glyph-name="L" unicode="L" horiz-adv-x="646" 
d="M-17 20q44 15 88 22l125 615q-31 7 -71 23l4 20h324l-5 -23q-60 -16 -81 -21l-123 -602h243q8 28 35 71.5t45 59.5h36l-56 -185h-567z" />
    <glyph glyph-name="Lacute" unicode="&#x139;" horiz-adv-x="646" 
d="M217 825l146 133q10 10 32.5 24t42.5 14q22 0 32.5 -11t10.5 -26q0 -23 -16.5 -41t-50.5 -36l-178 -96zM-17 20q44 15 88 22l125 615q-31 7 -71 23l4 20h324l-5 -23q-60 -16 -81 -21l-123 -602h243q8 28 35 71.5t45 59.5h36l-56 -185h-567z" />
    <glyph glyph-name="Lcaron" unicode="&#x13d;" horiz-adv-x="646" 
d="M475 433q75 64 93 116q-29 0 -46 16t-17 42q0 5 2 17q7 36 32.5 61t64.5 25q38 0 54.5 -20t16.5 -50q0 -8 -2 -22q-13 -59 -57 -121t-98 -104zM-17 20q44 15 88 22l125 615q-31 7 -71 23l4 20h324l-5 -23q-60 -16 -81 -21l-123 -602h243q8 28 35 71.5t45 59.5h36
l-56 -185h-567z" />
    <glyph glyph-name="Lcommaaccent" unicode="&#x13b;" horiz-adv-x="646" 
d="M-17 20q44 15 88 22l125 615q-31 7 -71 23l4 20h324l-5 -23q-60 -16 -81 -21l-123 -602h243q8 28 35 71.5t45 59.5h36l-56 -185h-567zM141 -350q73 63 93 116q-26 2 -42.5 19t-16.5 42q0 39 28.5 63.5t64.5 24.5q34 0 50.5 -17.5t16.5 -45.5q0 -7 -2 -19
q-12 -61 -54 -122t-95 -101z" />
    <glyph glyph-name="Ldot" unicode="&#x13f;" horiz-adv-x="646" 
d="M-17 20q44 15 88 22l125 615q-31 7 -71 23l4 20h324l-5 -23q-60 -16 -81 -21l-123 -602h243q8 28 35 71.5t45 59.5h36l-56 -185h-567zM446.5 340q-13.5 14 -13.5 36q0 34 22.5 59t56.5 25q25 0 39 -14.5t14 -36.5q0 -34 -23.5 -58.5t-56.5 -24.5q-25 0 -38.5 14z" />
    <glyph glyph-name="uni1E36" unicode="&#x1e36;" horiz-adv-x="646" 
d="M-17 20q44 15 88 22l125 615q-31 7 -71 23l4 20h324l-5 -23q-60 -16 -81 -21l-123 -602h243q8 28 35 71.5t45 59.5h36l-56 -185h-567zM204 -171.5q-14 13.5 -14 36.5q0 34 23 59t57 25q25 0 38.5 -14t13.5 -36q0 -35 -23 -59.5t-56 -24.5q-25 0 -39 13.5z" />
    <glyph glyph-name="uni1E38" unicode="&#x1e38;" horiz-adv-x="646" 
d="M120 837h392l-10 -52h-393zM-17 20q44 15 88 22l125 615q-31 7 -71 23l4 20h324l-5 -23q-60 -16 -81 -21l-123 -602h243q8 28 35 71.5t45 59.5h36l-56 -185h-567zM204 -171.5q-14 13.5 -14 36.5q0 34 23 59t57 25q25 0 38.5 -14t13.5 -36q0 -35 -23 -59.5t-56 -24.5
q-25 0 -39 13.5z" />
    <glyph glyph-name="uni1E3A" unicode="&#x1e3a;" horiz-adv-x="646" 
d="M-17 20q44 15 88 22l125 615q-31 7 -71 23l4 20h324l-5 -23q-60 -16 -81 -21l-123 -602h243q8 28 35 71.5t45 59.5h36l-56 -185h-567zM64 -58h392l-11 -53h-392z" />
    <glyph glyph-name="Lslash" unicode="&#x141;" horiz-adv-x="646" 
d="M603 185l-56 -185h-567l3 20q44 15 88 22l41 200l-77 -26l16 74l76 26l69 341q-31 7 -71 23l4 20h324l-5 -23q-60 -16 -81 -21l-56 -276l200 70l-15 -75l-201 -69l-51 -252h243q8 28 35 71.5t45 59.5h36z" />
    <glyph glyph-name="M" unicode="M" horiz-adv-x="943" 
d="M-16 19q37 12 79 22l126 616q-33 8 -71 23l4 20h251l83 -494l304 494h252l-3 -20l-81 -25l-126 -614q33 -9 72 -22l-4 -19h-321l4 19q40 13 78 22l108 524l-304 -490h-100l-96 504l-111 -538q28 -7 72 -22l-4 -19h-216z" />
    <glyph glyph-name="uni1E42" unicode="&#x1e42;" horiz-adv-x="943" 
d="M-16 19q37 12 79 22l126 616q-33 8 -71 23l4 20h251l83 -494l304 494h252l-3 -20l-81 -25l-126 -614q33 -9 72 -22l-4 -19h-321l4 19q40 13 78 22l108 524l-304 -490h-100l-96 504l-111 -538q28 -7 72 -22l-4 -19h-216zM347.5 -173q-13.5 14 -13.5 36q0 35 22.5 60
t55.5 25q26 0 40 -14.5t14 -36.5q0 -34 -23 -59t-57 -25q-25 0 -38.5 14z" />
    <glyph glyph-name="N" unicode="N" horiz-adv-x="757" 
d="M-16 19q37 12 79 22l126 616q-31 7 -71 23l4 20h244l221 -487l90 445l-71 22l4 20h217l-4 -20q-51 -15 -80 -22l-134 -658h-84l-281 611l-116 -570q28 -7 72 -22l-4 -19h-216z" />
    <glyph glyph-name="Nacute" unicode="&#x143;" horiz-adv-x="757" 
d="M422 825l146 133q44 38 76 38q21 0 31.5 -10.5t10.5 -25.5q0 -7 -1 -10q-4 -20 -19.5 -36t-45.5 -32l-179 -96zM-16 19q37 12 79 22l126 616q-31 7 -71 23l4 20h244l221 -487l90 445l-71 22l4 20h217l-4 -20q-51 -15 -80 -22l-134 -658h-84l-281 611l-116 -570
q28 -7 72 -22l-4 -19h-216z" />
    <glyph glyph-name="Ncaron" unicode="&#x147;" horiz-adv-x="757" 
d="M397 862.5q-43 50.5 -72 72.5l78 50q27 -26 57.5 -67.5t40.5 -67.5h4q21 27 68 68t85 67l58 -50q-38 -22 -102 -73t-84 -76h-79q-11 26 -54 76.5zM-16 19q37 12 79 22l126 616q-31 7 -71 23l4 20h244l221 -487l90 445l-71 22l4 20h217l-4 -20q-51 -15 -80 -22l-134 -658
h-84l-281 611l-116 -570q28 -7 72 -22l-4 -19h-216z" />
    <glyph glyph-name="Ncommaaccent" unicode="&#x145;" horiz-adv-x="757" 
d="M-16 19q37 12 79 22l126 616q-31 7 -71 23l4 20h244l221 -487l90 445l-71 22l4 20h217l-4 -20q-51 -15 -80 -22l-134 -658h-84l-281 611l-116 -570q28 -7 72 -22l-4 -19h-216zM195 -350q72 65 93 116q-27 2 -43.5 18.5t-16.5 41.5q0 39 29 64t64 25q34 0 51 -17.5
t17 -45.5q0 -7 -2 -19q-13 -61 -54.5 -122t-94.5 -101z" />
    <glyph glyph-name="uni1E44" unicode="&#x1e44;" horiz-adv-x="757" 
d="M451.5 799q-13.5 14 -13.5 37q0 35 23 59.5t57 24.5q24 0 38.5 -14.5t14.5 -37.5q0 -34 -23.5 -58.5t-57.5 -24.5q-25 0 -38.5 14zM-16 19q37 12 79 22l126 616q-31 7 -71 23l4 20h244l221 -487l90 445l-71 22l4 20h217l-4 -20q-51 -15 -80 -22l-134 -658h-84l-281 611
l-116 -570q28 -7 72 -22l-4 -19h-216z" />
    <glyph glyph-name="uni1E46" unicode="&#x1e46;" horiz-adv-x="757" 
d="M-16 19q37 12 79 22l126 616q-31 7 -71 23l4 20h244l221 -487l90 445l-71 22l4 20h217l-4 -20q-51 -15 -80 -22l-134 -658h-84l-281 611l-116 -570q28 -7 72 -22l-4 -19h-216zM253.5 -173q-13.5 14 -13.5 36q0 35 22.5 60t55.5 25q26 0 40 -14.5t14 -36.5q0 -34 -23 -59
t-57 -25q-25 0 -38.5 14z" />
    <glyph glyph-name="Eng" unicode="&#x14a;" horiz-adv-x="757" 
d="M294 -225l18 45q34 -13 80 -13q48 0 84.5 21t46.5 66l21 104l-300 613l-116 -570q28 -7 72 -22l-4 -19h-216l4 19q37 12 79 22l126 616q-31 7 -71 23l4 20h244l221 -487l90 445l-71 22l4 20h217l-4 -20q-51 -15 -80 -22l-155 -760q-16 -76 -64.5 -112t-115.5 -36
q-57 0 -114 25z" />
    <glyph glyph-name="uni1E48" unicode="&#x1e48;" horiz-adv-x="757" 
d="M-16 19q37 12 79 22l126 616q-31 7 -71 23l4 20h244l221 -487l90 445l-71 22l4 20h217l-4 -20q-51 -15 -80 -22l-134 -658h-84l-281 611l-116 -570q28 -7 72 -22l-4 -19h-216zM124 -58h392l-10 -53h-392z" />
    <glyph glyph-name="Ntilde" unicode="&#xd1;" horiz-adv-x="757" 
d="M356 877q38 31 91 31q29 0 49.5 -8.5t43.5 -23.5q15 -10 25.5 -14.5t21.5 -4.5q21 0 36.5 10.5t29.5 42.5h75q-37 -124 -148 -124q-22 0 -41 7.5t-51 23.5q-36 20 -52 20q-21 0 -37 -13.5t-25 -37.5h-77q21 60 59 91zM-16 19q37 12 79 22l126 616q-31 7 -71 23l4 20h244
l221 -487l90 445l-71 22l4 20h217l-4 -20q-51 -15 -80 -22l-134 -658h-84l-281 611l-116 -570q28 -7 72 -22l-4 -19h-216z" />
    <glyph glyph-name="O" unicode="O" horiz-adv-x="752" 
d="M116 57q-72 67 -72 189q0 49 12 104q34 169 142.5 264.5t275.5 95.5q138 0 210 -68t72 -190q0 -45 -11 -102q-35 -169 -144 -264.5t-274 -95.5q-139 0 -211 67zM482.5 129.5q59.5 82.5 88.5 220.5q14 73 14 128q0 83 -30.5 129t-92.5 46q-85 0 -144.5 -82.5t-87.5 -220.5
q-15 -72 -15 -131q0 -82 30.5 -127t93.5 -45q84 0 143.5 82.5z" />
    <glyph glyph-name="Oacute" unicode="&#xd3;" horiz-adv-x="752" 
d="M386 825l146 133q10 10 32.5 24t42.5 14q22 0 32.5 -11t10.5 -26q0 -23 -16.5 -41t-50.5 -36l-178 -96zM116 57q-72 67 -72 189q0 49 12 104q34 169 142.5 264.5t275.5 95.5q138 0 210 -68t72 -190q0 -45 -11 -102q-35 -169 -144 -264.5t-274 -95.5q-139 0 -211 67z
M482.5 129.5q59.5 82.5 88.5 220.5q14 73 14 128q0 83 -30.5 129t-92.5 46q-85 0 -144.5 -82.5t-87.5 -220.5q-15 -72 -15 -131q0 -82 30.5 -127t93.5 -45q84 0 143.5 82.5z" />
    <glyph glyph-name="Obreve" unicode="&#x14e;" horiz-adv-x="752" 
d="M372 817q-39 34 -38 103h91q-1 -6 -1 -16q0 -39 20.5 -52t54.5 -13q37 0 64 16t41 65h93q-25 -68 -80 -102.5t-130 -34.5q-76 0 -115 34zM116 57q-72 67 -72 189q0 49 12 104q34 169 142.5 264.5t275.5 95.5q138 0 210 -68t72 -190q0 -45 -11 -102q-35 -169 -144 -264.5
t-274 -95.5q-139 0 -211 67zM482.5 129.5q59.5 82.5 88.5 220.5q14 73 14 128q0 83 -30.5 129t-92.5 46q-85 0 -144.5 -82.5t-87.5 -220.5q-15 -72 -15 -131q0 -82 30.5 -127t93.5 -45q84 0 143.5 82.5z" />
    <glyph glyph-name="uni01D1" unicode="&#x1d1;" horiz-adv-x="752" 
d="M395.5 862q-43.5 51 -72.5 73l78 50q27 -26 57.5 -67t40.5 -68h4q21 27 68 68t85 67l58 -50q-38 -22 -101.5 -73t-84.5 -76h-79q-10 25 -53.5 76zM116 57q-72 67 -72 189q0 49 12 104q34 169 142.5 264.5t275.5 95.5q138 0 210 -68t72 -190q0 -45 -11 -102
q-35 -169 -144 -264.5t-274 -95.5q-139 0 -211 67zM482.5 129.5q59.5 82.5 88.5 220.5q14 73 14 128q0 83 -30.5 129t-92.5 46q-85 0 -144.5 -82.5t-87.5 -220.5q-15 -72 -15 -131q0 -82 30.5 -127t93.5 -45q84 0 143.5 82.5z" />
    <glyph glyph-name="Ocircumflex" unicode="&#xd4;" horiz-adv-x="752" 
d="M303 835q37 21 100.5 72t85.5 77h79q10 -25 53.5 -76.5t72.5 -72.5l-79 -51q-27 26 -57 67.5t-41 68.5h-4q-20 -26 -67 -67t-85 -69zM116 57q-72 67 -72 189q0 49 12 104q34 169 142.5 264.5t275.5 95.5q138 0 210 -68t72 -190q0 -45 -11 -102q-35 -169 -144 -264.5
t-274 -95.5q-139 0 -211 67zM482.5 129.5q59.5 82.5 88.5 220.5q14 73 14 128q0 83 -30.5 129t-92.5 46q-85 0 -144.5 -82.5t-87.5 -220.5q-15 -72 -15 -131q0 -82 30.5 -127t93.5 -45q84 0 143.5 82.5z" />
    <glyph glyph-name="uni1ED0" unicode="&#x1ed0;" horiz-adv-x="752" 
d="M642 964l93 93q40 40 77 40q20 0 32 -10t12 -27q0 -8 -1 -12q-4 -18 -21.5 -32t-53.5 -31l-119 -56zM303 835q36 21 100 72t87 77h78q10 -25 53 -76.5t72 -72.5l-78 -51q-27 27 -57 68t-41 68h-3q-21 -26 -68 -67t-85 -69zM116 57q-72 67 -72 189q0 49 12 104
q34 169 142.5 264.5t275.5 95.5q138 0 210 -68t72 -190q0 -45 -11 -102q-35 -169 -144 -264.5t-274 -95.5q-139 0 -211 67zM482.5 129.5q59.5 82.5 88.5 220.5q14 73 14 128q0 83 -30.5 129t-92.5 46q-85 0 -144.5 -82.5t-87.5 -220.5q-15 -72 -15 -131q0 -82 30.5 -127
t93.5 -45q84 0 143.5 82.5z" />
    <glyph glyph-name="uni1ED8" unicode="&#x1ed8;" horiz-adv-x="752" 
d="M302 835q37 21 101 72t85 77h79q10 -25 53.5 -76.5t72.5 -72.5l-79 -51q-27 27 -57 68t-41 68h-4q-20 -26 -66.5 -66.5t-85.5 -69.5zM116 57q-72 67 -72 189q0 49 12 104q34 169 142.5 264.5t275.5 95.5q138 0 210 -68t72 -190q0 -45 -11 -102q-35 -169 -144 -264.5
t-274 -95.5q-139 0 -211 67zM482.5 129.5q59.5 82.5 88.5 220.5q14 73 14 128q0 83 -30.5 129t-92.5 46q-85 0 -144.5 -82.5t-87.5 -220.5q-15 -72 -15 -131q0 -82 30.5 -127t93.5 -45q84 0 143.5 82.5zM252.5 -173q-13.5 14 -13.5 36q0 35 22.5 60t55.5 25q26 0 40 -14.5
t14 -36.5q0 -34 -23 -59t-57 -25q-25 0 -38.5 14z" />
    <glyph glyph-name="uni1ED2" unicode="&#x1ed2;" horiz-adv-x="752" 
d="M274 985q-28 16 -40.5 30.5t-9.5 32.5q5 22 23.5 35.5t41.5 13.5q35 0 59 -40l55 -93l-33 -35zM303 835q36 21 100 72t87 77h78q10 -25 53 -76.5t72 -72.5l-78 -51q-27 27 -57 68t-41 68h-3q-21 -26 -68 -67t-85 -69zM116 57q-72 67 -72 189q0 49 12 104
q34 169 142.5 264.5t275.5 95.5q138 0 210 -68t72 -190q0 -45 -11 -102q-35 -169 -144 -264.5t-274 -95.5q-139 0 -211 67zM482.5 129.5q59.5 82.5 88.5 220.5q14 73 14 128q0 83 -30.5 129t-92.5 46q-85 0 -144.5 -82.5t-87.5 -220.5q-15 -72 -15 -131q0 -82 30.5 -127
t93.5 -45q84 0 143.5 82.5z" />
    <glyph glyph-name="uni1ED4" unicode="&#x1ed4;" horiz-adv-x="752" 
d="M655 1028h36q19 0 35.5 11t21.5 35q1 3 1 9q0 15 -11.5 24.5t-33.5 9.5q-29 0 -55 -13l2 39q36 16 77 16q40 0 66.5 -16.5t26.5 -50.5q0 -5 -2 -19q-8 -40 -34 -58t-65 -22l-18 -44h-59zM304 836q36 21 100 72t87 77h78q10 -25 53 -76.5t72 -72.5l-78 -51q-28 28 -58 69
t-40 67h-3q-21 -26 -68 -67t-85 -69zM116 57q-72 67 -72 189q0 49 12 104q34 169 142.5 264.5t275.5 95.5q138 0 210 -68t72 -190q0 -45 -11 -102q-35 -169 -144 -264.5t-274 -95.5q-139 0 -211 67zM482.5 129.5q59.5 82.5 88.5 220.5q14 73 14 128q0 83 -30.5 129t-92.5 46
q-85 0 -144.5 -82.5t-87.5 -220.5q-15 -72 -15 -131q0 -82 30.5 -127t93.5 -45q84 0 143.5 82.5z" />
    <glyph glyph-name="uni1ED6" unicode="&#x1ed6;" horiz-adv-x="752" 
d="M415.5 1110q37.5 30 88.5 30q27 0 44.5 -8t36.5 -23q15 -11 23 -15t19 -4q21 0 42 11t34 41h55q-16 -56 -52 -88t-91 -32q-20 0 -35.5 6.5t-37.5 20.5q-17 11 -30 17t-28 6q-23 0 -42 -13.5t-28 -36.5h-55q19 58 56.5 88zM303 835q36 21 100 72t87 77h78q10 -25 53 -76.5
t72 -72.5l-78 -51q-27 27 -57 68t-41 68h-3q-21 -26 -68 -67t-85 -69zM116 57q-72 67 -72 189q0 49 12 104q34 169 142.5 264.5t275.5 95.5q138 0 210 -68t72 -190q0 -45 -11 -102q-35 -169 -144 -264.5t-274 -95.5q-139 0 -211 67zM482.5 129.5q59.5 82.5 88.5 220.5
q14 73 14 128q0 83 -30.5 129t-92.5 46q-85 0 -144.5 -82.5t-87.5 -220.5q-15 -72 -15 -131q0 -82 30.5 -127t93.5 -45q84 0 143.5 82.5z" />
    <glyph glyph-name="Odieresis" unicode="&#xd6;" horiz-adv-x="752" 
d="M331.5 799.5q-13.5 14.5 -13.5 37.5q0 34 23 58.5t55 24.5q25 0 39 -14.5t14 -36.5q0 -34 -23.5 -59t-56.5 -25q-24 0 -37.5 14.5zM567 799q-13 14 -13 36q0 34 22.5 59.5t55.5 25.5q26 0 40 -14t14 -37q0 -34 -23.5 -59t-58.5 -25q-24 0 -37 14zM116 57q-72 67 -72 189
q0 49 12 104q34 169 142.5 264.5t275.5 95.5q138 0 210 -68t72 -190q0 -45 -11 -102q-35 -169 -144 -264.5t-274 -95.5q-139 0 -211 67zM482.5 129.5q59.5 82.5 88.5 220.5q14 73 14 128q0 83 -30.5 129t-92.5 46q-85 0 -144.5 -82.5t-87.5 -220.5q-15 -72 -15 -131
q0 -82 30.5 -127t93.5 -45q84 0 143.5 82.5z" />
    <glyph glyph-name="uni1ECC" unicode="&#x1ecc;" horiz-adv-x="752" 
d="M116 57q-72 67 -72 189q0 49 12 104q34 169 142.5 264.5t275.5 95.5q138 0 210 -68t72 -190q0 -45 -11 -102q-35 -169 -144 -264.5t-274 -95.5q-139 0 -211 67zM482.5 129.5q59.5 82.5 88.5 220.5q14 73 14 128q0 83 -30.5 129t-92.5 46q-85 0 -144.5 -82.5t-87.5 -220.5
q-15 -72 -15 -131q0 -82 30.5 -127t93.5 -45q84 0 143.5 82.5zM252.5 -173q-13.5 14 -13.5 36q0 35 22.5 60t55.5 25q26 0 40 -14.5t14 -36.5q0 -34 -23 -59t-57 -25q-25 0 -38.5 14z" />
    <glyph glyph-name="Ograve" unicode="&#xd2;" horiz-adv-x="752" 
d="M434 882q-42 29 -42 58q0 7 1 10q4 18 20.5 32t42.5 14q22 0 37 -13t22 -25l93 -133l-34 -39zM116 57q-72 67 -72 189q0 49 12 104q34 169 142.5 264.5t275.5 95.5q138 0 210 -68t72 -190q0 -45 -11 -102q-35 -169 -144 -264.5t-274 -95.5q-139 0 -211 67zM482.5 129.5
q59.5 82.5 88.5 220.5q14 73 14 128q0 83 -30.5 129t-92.5 46q-85 0 -144.5 -82.5t-87.5 -220.5q-15 -72 -15 -131q0 -82 30.5 -127t93.5 -45q84 0 143.5 82.5z" />
    <glyph glyph-name="uni1ECE" unicode="&#x1ece;" horiz-adv-x="752" 
d="M478 893h40q22 0 41 12.5t24 39.5q1 3 1 9q0 18 -13 29.5t-39 11.5q-34 0 -63 -16l2 42q18 8 42 13.5t47 5.5q45 0 75 -18.5t30 -56.5q0 -7 -2 -21q-8 -44 -37.5 -64.5t-73.5 -24.5l-25 -71h-67zM116 57q-72 67 -72 189q0 49 12 104q34 169 142.5 264.5t275.5 95.5
q138 0 210 -68t72 -190q0 -45 -11 -102q-35 -169 -144 -264.5t-274 -95.5q-139 0 -211 67zM482.5 129.5q59.5 82.5 88.5 220.5q14 73 14 128q0 83 -30.5 129t-92.5 46q-85 0 -144.5 -82.5t-87.5 -220.5q-15 -72 -15 -131q0 -82 30.5 -127t93.5 -45q84 0 143.5 82.5z" />
    <glyph glyph-name="Ohorn" unicode="&#x1a0;" horiz-adv-x="804" 
d="M923 685q0 -18 -3 -30q-8 -40 -48.5 -87t-116.5 -97q3 -57 -10 -121q-35 -169 -144 -264.5t-274 -95.5q-139 0 -211 67t-72 189q0 49 12 104q34 169 142.5 264.5t275.5 95.5q116 0 186 -49t89 -140q63 46 80 85q-5 -2 -14 -2q-25 0 -38.5 13t-13.5 36q0 29 21 59.5
t72 30.5q67 0 67 -58zM585 478q0 83 -30.5 129t-92.5 46q-85 0 -144.5 -82.5t-87.5 -220.5q-15 -72 -15 -131q0 -82 30.5 -127t93.5 -45q84 0 143.5 82.5t88.5 220.5q14 73 14 128z" />
    <glyph glyph-name="uni1EDA" unicode="&#x1eda;" horiz-adv-x="804" 
d="M406 785l-19 39l145 133q44 38 76 38q22 0 32.5 -11t10.5 -26q0 -23 -16.5 -41t-50.5 -36zM923 685q0 -18 -3 -30q-8 -40 -48.5 -87t-116.5 -97q3 -57 -10 -121q-35 -169 -144 -264.5t-274 -95.5q-139 0 -211 67t-72 189q0 49 12 104q34 169 142.5 264.5t275.5 95.5
q116 0 186 -49t89 -140q63 46 80 85q-5 -2 -14 -2q-25 0 -38.5 13t-13.5 36q0 29 21 59.5t72 30.5q67 0 67 -58zM585 478q0 83 -30.5 129t-92.5 46q-85 0 -144.5 -82.5t-87.5 -220.5q-15 -72 -15 -131q0 -82 30.5 -127t93.5 -45q84 0 143.5 82.5t88.5 220.5q14 73 14 128z
" />
    <glyph glyph-name="uni1EE2" unicode="&#x1ee2;" horiz-adv-x="804" 
d="M923 685q0 -18 -3 -30q-8 -40 -48.5 -87t-116.5 -97q3 -57 -10 -121q-35 -169 -144 -264.5t-274 -95.5q-139 0 -211 67t-72 189q0 49 12 104q34 169 142.5 264.5t275.5 95.5q116 0 186 -49t89 -140q63 46 80 85q-5 -2 -14 -2q-25 0 -38.5 13t-13.5 36q0 29 21 59.5
t72 30.5q67 0 67 -58zM585 478q0 83 -30.5 129t-92.5 46q-85 0 -144.5 -82.5t-87.5 -220.5q-15 -72 -15 -131q0 -82 30.5 -127t93.5 -45q84 0 143.5 82.5t88.5 220.5q14 73 14 128zM357 -66.5q14 -14.5 14 -36.5q0 -34 -23 -59t-57 -25q-25 0 -38.5 14t-13.5 36
q0 35 22.5 60t55.5 25q26 0 40 -14.5z" />
    <glyph glyph-name="uni1EDC" unicode="&#x1edc;" horiz-adv-x="804" 
d="M392 939q0 7 1 10q4 18 20.5 32t42.5 14q22 0 37 -13t22 -25l93 -133l-34 -39l-140 96q-42 29 -42 58zM923 685q0 -18 -3 -30q-8 -40 -48.5 -87t-116.5 -97q3 -57 -10 -121q-35 -169 -144 -264.5t-274 -95.5q-139 0 -211 67t-72 189q0 49 12 104q34 169 142.5 264.5
t275.5 95.5q116 0 186 -49t89 -140q63 46 80 85q-5 -2 -14 -2q-25 0 -38.5 13t-13.5 36q0 29 21 59.5t72 30.5q67 0 67 -58zM585 478q0 83 -30.5 129t-92.5 46q-85 0 -144.5 -82.5t-87.5 -220.5q-15 -72 -15 -131q0 -82 30.5 -127t93.5 -45q84 0 143.5 82.5t88.5 220.5
q14 73 14 128z" />
    <glyph glyph-name="uni1EDE" unicode="&#x1ede;" horiz-adv-x="804" 
d="M550 901.5q19 12.5 25 39.5q1 3 1 9q0 18 -13.5 29.5t-38.5 11.5q-33 0 -64 -16l2 42q18 9 42 14t48 5q44 0 74 -18.5t30 -55.5q0 -14 -2 -22q-8 -45 -37 -65t-74 -24l-25 -71h-67l18 109h40q22 0 41 12.5zM923 685q0 -18 -3 -30q-8 -40 -48.5 -87t-116.5 -97
q3 -57 -10 -121q-35 -169 -144 -264.5t-274 -95.5q-139 0 -211 67t-72 189q0 49 12 104q34 169 142.5 264.5t275.5 95.5q116 0 186 -49t89 -140q63 46 80 85q-5 -2 -14 -2q-25 0 -38.5 13t-13.5 36q0 29 21 59.5t72 30.5q67 0 67 -58zM585 478q0 83 -30.5 129t-92.5 46
q-85 0 -144.5 -82.5t-87.5 -220.5q-15 -72 -15 -131q0 -82 30.5 -127t93.5 -45q84 0 143.5 82.5t88.5 220.5q14 73 14 128z" />
    <glyph glyph-name="uni1EE0" unicode="&#x1ee0;" horiz-adv-x="804" 
d="M388 823.5q-16 -13.5 -24 -37.5h-77q21 60 59 91t90 31q28 0 48 -8t45 -23q14 -10 25 -15t23 -5q21 0 36.5 10.5t29.5 42.5h75q-37 -124 -148 -124q-23 0 -44.5 8t-47.5 23q-36 20 -53 20q-21 0 -37 -13.5zM923 685q0 -18 -3 -30q-8 -40 -48.5 -87t-116.5 -97
q3 -57 -10 -121q-35 -169 -144 -264.5t-274 -95.5q-139 0 -211 67t-72 189q0 49 12 104q34 169 142.5 264.5t275.5 95.5q116 0 186 -49t89 -140q63 46 80 85q-5 -2 -14 -2q-25 0 -38.5 13t-13.5 36q0 29 21 59.5t72 30.5q67 0 67 -58zM585 478q0 83 -30.5 129t-92.5 46
q-85 0 -144.5 -82.5t-87.5 -220.5q-15 -72 -15 -131q0 -82 30.5 -127t93.5 -45q84 0 143.5 82.5t88.5 220.5q14 73 14 128z" />
    <glyph glyph-name="Ohungarumlaut" unicode="&#x150;" horiz-adv-x="752" 
d="M314 824l145 132q8 10 30 24t44 14q26 0 36.5 -14t7.5 -32q-7 -35 -67 -68l-178 -96zM530 824l146 132q12 12 32.5 25t42.5 13q26 0 36.5 -14t7.5 -32q-7 -35 -68 -68l-179 -96zM116 57q-72 67 -72 189q0 49 12 104q34 169 142.5 264.5t275.5 95.5q138 0 210 -68t72 -190
q0 -45 -11 -102q-35 -169 -144 -264.5t-274 -95.5q-139 0 -211 67zM482.5 129.5q59.5 82.5 88.5 220.5q14 73 14 128q0 83 -30.5 129t-92.5 46q-85 0 -144.5 -82.5t-87.5 -220.5q-15 -72 -15 -131q0 -82 30.5 -127t93.5 -45q84 0 143.5 82.5z" />
    <glyph glyph-name="Omacron" unicode="&#x14c;" horiz-adv-x="752" 
d="M304 840h392l-11 -52h-392zM116 57q-72 67 -72 189q0 49 12 104q34 169 142.5 264.5t275.5 95.5q138 0 210 -68t72 -190q0 -45 -11 -102q-35 -169 -144 -264.5t-274 -95.5q-139 0 -211 67zM482.5 129.5q59.5 82.5 88.5 220.5q14 73 14 128q0 83 -30.5 129t-92.5 46
q-85 0 -144.5 -82.5t-87.5 -220.5q-15 -72 -15 -131q0 -82 30.5 -127t93.5 -45q84 0 143.5 82.5z" />
    <glyph glyph-name="Oslash" unicode="&#xd8;" horiz-adv-x="752" 
d="M705 619q51 -65 51 -168q0 -44 -11 -101q-35 -169 -144 -264.5t-274 -95.5q-131 0 -203 60l-89 -88l-33 36l89 87q-46 62 -46 161q0 53 11 104q34 169 142.5 264.5t275.5 95.5q124 0 194 -55l72 71l37 -36zM215 208l360 355q-27 90 -113 90q-85 0 -144.5 -82.5
t-87.5 -220.5q-17 -78 -15 -142zM585 501l-362 -355q11 -48 40 -73.5t76 -25.5q84 0 143.5 82.5t88.5 220.5q17 86 14 151z" />
    <glyph glyph-name="Oslashacute" unicode="&#x1fe;" horiz-adv-x="752" 
d="M407 786l-19 39l145 133q44 38 76 38q22 0 32.5 -11t10.5 -26q0 -23 -16.5 -41t-50.5 -36zM705 619q51 -65 51 -168q0 -44 -11 -101q-35 -169 -144 -264.5t-274 -95.5q-131 0 -203 60l-89 -88l-33 36l89 87q-46 62 -46 161q0 53 11 104q34 169 142.5 264.5t275.5 95.5
q124 0 194 -55l72 71l37 -36zM215 208l360 355q-27 90 -113 90q-85 0 -144.5 -82.5t-87.5 -220.5q-17 -78 -15 -142zM585 501l-362 -355q11 -48 40 -73.5t76 -25.5q84 0 143.5 82.5t88.5 220.5q17 86 14 151z" />
    <glyph glyph-name="Otilde" unicode="&#xd5;" horiz-adv-x="752" 
d="M345 877q38 31 91 31q28 0 48 -8t43 -23q16 -10 26.5 -15t22.5 -5q21 0 36.5 10.5t29.5 42.5h75q-37 -124 -148 -124q-23 0 -44.5 8t-47.5 23q-36 20 -53 20q-21 0 -37 -13.5t-24 -37.5h-77q21 60 59 91zM116 57q-72 67 -72 189q0 49 12 104q34 169 142.5 264.5
t275.5 95.5q138 0 210 -68t72 -190q0 -45 -11 -102q-35 -169 -144 -264.5t-274 -95.5q-139 0 -211 67zM482.5 129.5q59.5 82.5 88.5 220.5q14 73 14 128q0 83 -30.5 129t-92.5 46q-85 0 -144.5 -82.5t-87.5 -220.5q-15 -72 -15 -131q0 -82 30.5 -127t93.5 -45
q84 0 143.5 82.5z" />
    <glyph glyph-name="OE" unicode="&#x152;" horiz-adv-x="1052" 
d="M107 63q-61 73 -61 188q0 52 10 99q19 94 69 175.5t131 133t187 51.5q55 0 94 -18.5t60 -51.5l11 60h487l-37 -187h-37q-6 13 -10.5 47t-4.5 62q0 17 1 23h-238l-53 -259h155q4 15 15 41t23 46h27l-47 -229h-27q-3 29 -3 58q0 23 1 30h-156l-56 -278h244q8 27 34.5 70.5
t44.5 60.5h37l-56 -185h-486l11 56q-40 -36 -82 -51t-99 -15q-128 0 -189 73zM424 72.5q40 25.5 70 68.5l86 416q-10 41 -41.5 68.5t-76.5 27.5q-85 0 -145 -82.5t-88 -220.5q-15 -70 -15 -130q0 -82 31 -127.5t94 -45.5q45 0 85 25.5z" />
    <glyph glyph-name="P" unicode="P" horiz-adv-x="639" 
d="M-17 22q76 21 82 21l125 614q-34 8 -70 22l4 21h358q106 0 153.5 -39t47.5 -108q0 -23 -7 -58q-12 -62 -48 -113.5t-93 -82t-130 -30.5h-123l-47 -227q17 -3 41 -11l33 -11l-4 -20h-325zM368 323q53 0 88.5 49t51.5 125q7 39 7 59q0 89 -80 89h-76l-67 -322h76z" />
    <glyph glyph-name="Thorn" unicode="&#xde;" horiz-adv-x="639" 
d="M-16 22q76 21 81 21l125 614q-34 8 -70 22l4 21h247l-24 -119h119q192 0 192 -148q0 -27 -6 -57q-12 -62 -47.5 -113t-92.5 -81.5t-131 -30.5h-122l-23 -109q18 -3 53 -15q9 -4 20 -7l-4 -20h-325zM345 204q53 0 88.5 49.5t50.5 124.5q7 39 7 59q0 90 -80 90h-75
l-66 -323h75z" />
    <glyph glyph-name="Q" unicode="Q" horiz-adv-x="752" 
d="M684 642q72 -68 72 -190q0 -45 -11 -102q-29 -142 -112.5 -233.5t-209.5 -117.5q5 -45 40.5 -73t96.5 -33l-10 -52q-135 12 -208.5 51.5t-84.5 102.5q-105 16 -159 80.5t-54 169.5q0 50 12 105q34 169 142.5 264.5t275.5 95.5q138 0 210 -68zM585 478q0 83 -30.5 129
t-92.5 46q-85 0 -144.5 -82.5t-87.5 -220.5q-15 -72 -15 -131q0 -82 30.5 -127t93.5 -45q84 0 143.5 82.5t88.5 220.5q14 73 14 128z" />
    <glyph glyph-name="R" unicode="R" horiz-adv-x="709" 
d="M621 377q-50 -52 -123 -70l82 -265q39 -9 72 -22l-4 -20h-213l-82 298h-64l-53 -256q20 -4 49 -14l24 -8l-4 -20h-325l3 22q76 21 82 21l125 614q-31 7 -70 22l4 21h381q101 0 144.5 -36t43.5 -101q0 -28 -6 -58q-16 -76 -66 -128zM523 560q0 43 -21.5 64t-66.5 21h-75
l-61 -293h75q113 0 143 155q6 30 6 53z" />
    <glyph glyph-name="Racute" unicode="&#x154;" horiz-adv-x="709" 
d="M370 786l-19 39l146 133q44 38 76 38q21 0 31.5 -10.5t10.5 -25.5q0 -7 -1 -10q-4 -20 -19.5 -36t-45.5 -32zM621 377q-50 -52 -123 -70l82 -265q39 -9 72 -22l-4 -20h-213l-82 298h-64l-53 -256q20 -4 49 -14l24 -8l-4 -20h-325l3 22q76 21 82 21l125 614q-31 7 -70 22
l4 21h381q101 0 144.5 -36t43.5 -101q0 -28 -6 -58q-16 -76 -66 -128zM523 560q0 43 -21.5 64t-66.5 21h-75l-61 -293h75q113 0 143 155q6 30 6 53z" />
    <glyph glyph-name="Rcaron" unicode="&#x158;" horiz-adv-x="709" 
d="M367.5 862q-43.5 51 -72.5 73l78 50q28 -26 58.5 -67t39.5 -68h4q22 27 69 68.5t84 66.5l58 -50q-38 -22 -101.5 -73t-84.5 -76h-79q-10 25 -53.5 76zM621 377q-50 -52 -123 -70l82 -265q39 -9 72 -22l-4 -20h-213l-82 298h-64l-53 -256q20 -4 49 -14l24 -8l-4 -20h-325
l3 22q76 21 82 21l125 614q-31 7 -70 22l4 21h381q101 0 144.5 -36t43.5 -101q0 -28 -6 -58q-16 -76 -66 -128zM523 560q0 43 -21.5 64t-66.5 21h-75l-61 -293h75q113 0 143 155q6 30 6 53z" />
    <glyph glyph-name="Rcommaaccent" unicode="&#x156;" horiz-adv-x="709" 
d="M621 377q-50 -52 -123 -70l82 -265q39 -9 72 -22l-4 -20h-213l-82 298h-64l-53 -256q20 -4 49 -14l24 -8l-4 -20h-325l3 22q76 21 82 21l125 614q-31 7 -70 22l4 21h381q101 0 144.5 -36t43.5 -101q0 -28 -6 -58q-16 -76 -66 -128zM523 560q0 43 -21.5 64t-66.5 21h-75
l-61 -293h75q113 0 143 155q6 30 6 53zM349 -102.5q17 -17.5 17 -45.5q0 -7 -2 -19q-13 -61 -54.5 -122t-94.5 -101l-43 40q72 65 93 116q-27 2 -43.5 18.5t-16.5 41.5q0 39 29 64t64 25q34 0 51 -17.5z" />
    <glyph glyph-name="uni1E5A" unicode="&#x1e5a;" horiz-adv-x="709" 
d="M621 377q-50 -52 -123 -70l82 -265q39 -9 72 -22l-4 -20h-213l-82 298h-64l-53 -256q20 -4 49 -14l24 -8l-4 -20h-325l3 22q76 21 82 21l125 614q-31 7 -70 22l4 21h381q101 0 144.5 -36t43.5 -101q0 -28 -6 -58q-16 -76 -66 -128zM523 560q0 43 -21.5 64t-66.5 21h-75
l-61 -293h75q113 0 143 155q6 30 6 53zM338 -66.5q14 -14.5 14 -36.5q0 -34 -23.5 -59t-57.5 -25q-24 0 -37.5 14.5t-13.5 37.5q0 10 1 15q6 29 27 48.5t50 19.5q26 0 40 -14.5z" />
    <glyph glyph-name="uni1E5C" unicode="&#x1e5c;" horiz-adv-x="709" 
d="M647 785h-433l11 53h433zM621 377q-50 -52 -123 -70l82 -265q39 -9 72 -22l-4 -20h-213l-82 298h-64l-53 -256q20 -4 49 -14l24 -8l-4 -20h-325l3 22q76 21 82 21l125 614q-31 7 -70 22l4 21h381q101 0 144.5 -36t43.5 -101q0 -28 -6 -58q-16 -76 -66 -128zM523 560
q0 43 -21.5 64t-66.5 21h-75l-61 -293h75q113 0 143 155q6 30 6 53zM338 -66.5q14 -14.5 14 -36.5q0 -34 -23.5 -59t-57.5 -25q-24 0 -37.5 14.5t-13.5 37.5q0 10 1 15q6 29 27 48.5t50 19.5q26 0 40 -14.5z" />
    <glyph glyph-name="uni1E5E" unicode="&#x1e5e;" horiz-adv-x="709" 
d="M621 377q-50 -52 -123 -70l82 -265q39 -9 72 -22l-4 -20h-213l-82 298h-64l-53 -256q20 -4 49 -14l24 -8l-4 -20h-325l3 22q76 21 82 21l125 614q-31 7 -70 22l4 21h381q101 0 144.5 -36t43.5 -101q0 -28 -6 -58q-16 -76 -66 -128zM523 560q0 43 -21.5 64t-66.5 21h-75
l-61 -293h75q113 0 143 155q6 30 6 53zM66 -58h392l-11 -53h-392z" />
    <glyph glyph-name="S" unicode="S" horiz-adv-x="594" 
d="M90.5 16q-63.5 26 -86.5 70l45 149h39q2 -22 2 -35q0 -31 -8 -101q18 -24 50 -38t70 -14q62 0 111.5 32.5t62.5 95.5q3 12 3 23q0 29 -16.5 49t-40.5 33t-67 31q-51 20 -83 38t-54.5 49.5t-22.5 79.5q0 26 5 47q18 90 99 137.5t203 47.5q81 0 133.5 -17.5t85.5 -56.5
l-45 -143h-40q-3 26 -3 52q0 28 5 73q-16 17 -46 26t-66 9q-56 0 -95 -24t-50 -75q-2 -10 -2 -15q0 -22 14 -38t34.5 -27t60.5 -29q55 -23 89.5 -44t59.5 -57t25 -91q0 -24 -6 -54q-14 -66 -60 -113t-114 -71.5t-146 -24.5q-82 0 -145.5 26z" />
    <glyph glyph-name="Sacute" unicode="&#x15a;" horiz-adv-x="594" 
d="M303 825l146 133q44 38 76 38q21 0 31.5 -10.5t10.5 -25.5q0 -7 -1 -10q-4 -20 -19.5 -36t-45.5 -32l-179 -96zM90.5 16q-63.5 26 -86.5 70l45 149h39q2 -22 2 -35q0 -31 -8 -101q18 -24 50 -38t70 -14q62 0 111.5 32.5t62.5 95.5q3 12 3 23q0 29 -16.5 49t-40.5 33
t-67 31q-51 20 -83 38t-54.5 49.5t-22.5 79.5q0 26 5 47q18 90 99 137.5t203 47.5q81 0 133.5 -17.5t85.5 -56.5l-45 -143h-40q-3 26 -3 52q0 28 5 73q-16 17 -46 26t-66 9q-56 0 -95 -24t-50 -75q-2 -10 -2 -15q0 -22 14 -38t34.5 -27t60.5 -29q55 -23 89.5 -44t59.5 -57
t25 -91q0 -24 -6 -54q-14 -66 -60 -113t-114 -71.5t-146 -24.5q-82 0 -145.5 26z" />
    <glyph glyph-name="Scaron" unicode="&#x160;" horiz-adv-x="594" 
d="M316 862q-43 51 -72 73l77 50q28 -26 58.5 -67t39.5 -68h4q22 27 69.5 68t84.5 67l57 -50q-38 -22 -101.5 -73t-84.5 -76h-79q-10 25 -53 76zM90.5 16q-63.5 26 -86.5 70l45 149h39q2 -22 2 -35q0 -31 -8 -101q18 -24 50 -38t70 -14q62 0 111.5 32.5t62.5 95.5q3 12 3 23
q0 29 -16.5 49t-40.5 33t-67 31q-51 20 -83 38t-54.5 49.5t-22.5 79.5q0 26 5 47q18 90 99 137.5t203 47.5q81 0 133.5 -17.5t85.5 -56.5l-45 -143h-40q-3 26 -3 52q0 28 5 73q-16 17 -46 26t-66 9q-56 0 -95 -24t-50 -75q-2 -10 -2 -15q0 -22 14 -38t34.5 -27t60.5 -29
q55 -23 89.5 -44t59.5 -57t25 -91q0 -24 -6 -54q-14 -66 -60 -113t-114 -71.5t-146 -24.5q-82 0 -145.5 26z" />
    <glyph glyph-name="Scedilla" unicode="&#x15e;" horiz-adv-x="594" 
d="M533 545q0 28 5 73q-16 17 -46 26t-66 9q-56 0 -95 -24t-50 -75q-2 -10 -2 -15q0 -22 14 -38t34.5 -27t60.5 -29q55 -23 89.5 -44t59.5 -57t25 -91q0 -24 -6 -54q-18 -88 -91.5 -141.5t-177.5 -64.5l-35 -52q53 0 78 -21t25 -53q0 -5 -2 -17q-11 -54 -59 -83.5
t-111 -29.5q-30 0 -61.5 9.5t-50.5 25.5l33 43q14 -10 34.5 -15.5t42.5 -5.5q35 0 60 13t31 43q1 3 1 9q0 20 -17 28t-42 8q-16 0 -22 -1l-20 35l43 61q-76 4 -132.5 29.5t-78.5 66.5l45 149h39q2 -22 2 -35q0 -31 -8 -101q18 -24 50 -38t70 -14q62 0 111.5 32.5t62.5 95.5
q3 12 3 23q0 29 -16.5 49t-40.5 33t-67 31q-51 20 -83 38t-54.5 49.5t-22.5 79.5q0 26 5 47q18 90 99 137.5t203 47.5q81 0 133.5 -17.5t85.5 -56.5l-45 -143h-40q-3 26 -3 52z" />
    <glyph glyph-name="Scircumflex" unicode="&#x15c;" horiz-adv-x="594" 
d="M223 835q37 21 101 72t86 77h78q10 -25 53.5 -76.5t72.5 -72.5l-79 -51q-27 27 -57 68t-41 68h-3q-20 -26 -67 -67t-86 -69zM90.5 16q-63.5 26 -86.5 70l45 149h39q2 -22 2 -35q0 -31 -8 -101q18 -24 50 -38t70 -14q62 0 111.5 32.5t62.5 95.5q3 12 3 23q0 29 -16.5 49
t-40.5 33t-67 31q-51 20 -83 38t-54.5 49.5t-22.5 79.5q0 26 5 47q18 90 99 137.5t203 47.5q81 0 133.5 -17.5t85.5 -56.5l-45 -143h-40q-3 26 -3 52q0 28 5 73q-16 17 -46 26t-66 9q-56 0 -95 -24t-50 -75q-2 -10 -2 -15q0 -22 14 -38t34.5 -27t60.5 -29q55 -23 89.5 -44
t59.5 -57t25 -91q0 -24 -6 -54q-14 -66 -60 -113t-114 -71.5t-146 -24.5q-82 0 -145.5 26z" />
    <glyph glyph-name="Scommaaccent" unicode="&#x218;" horiz-adv-x="594" 
d="M90.5 16q-63.5 26 -86.5 70l45 149h39q2 -22 2 -35q0 -31 -8 -101q18 -24 50 -38t70 -14q62 0 111.5 32.5t62.5 95.5q3 12 3 23q0 29 -16.5 49t-40.5 33t-67 31q-51 20 -83 38t-54.5 49.5t-22.5 79.5q0 26 5 47q18 90 99 137.5t203 47.5q81 0 133.5 -17.5t85.5 -56.5
l-45 -143h-40q-3 26 -3 52q0 28 5 73q-16 17 -46 26t-66 9q-56 0 -95 -24t-50 -75q-2 -10 -2 -15q0 -22 14 -38t34.5 -27t60.5 -29q55 -23 89.5 -44t59.5 -57t25 -91q0 -24 -6 -54q-14 -66 -60 -113t-114 -71.5t-146 -24.5q-82 0 -145.5 26zM112 -322q27 24 55.5 57.5
t39.5 63.5q-25 2 -42 20t-17 43q0 8 1 13q7 34 33.5 54t59.5 20t50 -17.5t17 -44.5q0 -6 -2 -20q-12 -60 -55 -124t-96 -105z" />
    <glyph glyph-name="uni1E60" unicode="&#x1e60;" horiz-adv-x="594" 
d="M387.5 799q-13.5 14 -13.5 36q0 35 22.5 60t57.5 25q25 0 38.5 -14.5t13.5 -38.5q0 -33 -23.5 -57.5t-56.5 -24.5q-25 0 -38.5 14zM90.5 16q-63.5 26 -86.5 70l45 149h39q2 -22 2 -35q0 -31 -8 -101q18 -24 50 -38t70 -14q62 0 111.5 32.5t62.5 95.5q3 12 3 23
q0 29 -16.5 49t-40.5 33t-67 31q-51 20 -83 38t-54.5 49.5t-22.5 79.5q0 26 5 47q18 90 99 137.5t203 47.5q81 0 133.5 -17.5t85.5 -56.5l-45 -143h-40q-3 26 -3 52q0 28 5 73q-16 17 -46 26t-66 9q-56 0 -95 -24t-50 -75q-2 -10 -2 -15q0 -22 14 -38t34.5 -27t60.5 -29
q55 -23 89.5 -44t59.5 -57t25 -91q0 -24 -6 -54q-14 -66 -60 -113t-114 -71.5t-146 -24.5q-82 0 -145.5 26z" />
    <glyph glyph-name="uni1E62" unicode="&#x1e62;" horiz-adv-x="594" 
d="M90.5 16q-63.5 26 -86.5 70l45 149h39q2 -22 2 -35q0 -31 -8 -101q18 -24 50 -38t70 -14q62 0 111.5 32.5t62.5 95.5q3 12 3 23q0 29 -16.5 49t-40.5 33t-67 31q-51 20 -83 38t-54.5 49.5t-22.5 79.5q0 26 5 47q18 90 99 137.5t203 47.5q81 0 133.5 -17.5t85.5 -56.5
l-45 -143h-40q-3 26 -3 52q0 28 5 73q-16 17 -46 26t-66 9q-56 0 -95 -24t-50 -75q-2 -10 -2 -15q0 -22 14 -38t34.5 -27t60.5 -29q55 -23 89.5 -44t59.5 -57t25 -91q0 -24 -6 -54q-14 -66 -60 -113t-114 -71.5t-146 -24.5q-82 0 -145.5 26zM183.5 -173q-13.5 14 -13.5 36
q0 35 22.5 60t55.5 25q26 0 40 -14.5t14 -36.5q0 -34 -23.5 -59t-57.5 -25q-24 0 -37.5 14z" />
    <glyph glyph-name="uni1E9E" unicode="&#x1e9e;" horiz-adv-x="757" 
d="M299 2l12 56q48 -14 97 -14q54 0 93 44.5t54 118.5q5 27 5 44q0 48 -25.5 75t-75.5 27h-98l4 27l200 178q-4 42 -30.5 68.5t-77.5 26.5q-52 0 -86.5 -30.5t-46.5 -88.5l-99 -484l23 -7l-8 -43h-270l4 22l31 8q17 5 51 13l91 445q22 108 103 165t225 57q73 0 125.5 -23
t81 -59t32.5 -76l-171 -150q88 -14 136.5 -55.5t48.5 -104.5q0 -11 -4 -35q-12 -61 -52 -110t-109 -78t-163 -29q-57 0 -101 12z" />
    <glyph glyph-name="uni018F" unicode="&#x18f;" horiz-adv-x="744" 
d="M664.5 635q82.5 -75 82.5 -203q0 -41 -9 -88q-35 -172 -151 -263t-285 -91q-134 0 -199 64.5t-65 171.5q0 41 9 86l6 36h520q6 38 6 75q0 100 -45 164.5t-133 64.5q-67 0 -127 -17t-136 -63l-11 55q56 35 127 59t173 24q155 0 237.5 -75zM465 114q66 71 96 178h-352
q-9 -43 -9 -88q0 -71 26.5 -116t82.5 -45q90 0 156 71z" />
    <glyph glyph-name="T" unicode="T" horiz-adv-x="663" 
d="M119 22q38 10 89 21l123 602h-142q-7 -26 -34 -84t-40 -74h-37l44 213h610l-43 -213h-37q-4 12 -7 46.5t-3 68.5q0 23 2 43h-142l-124 -603q31 -6 82 -22l-4 -20h-341z" />
    <glyph glyph-name="Tbar" unicode="&#x166;" horiz-adv-x="663" 
d="M732 700l-43 -213h-37q-4 12 -7 46.5t-3 68.5q0 23 2 43h-142l-63 -304h141l-10 -53h-141l-51 -246q31 -6 82 -22l-4 -20h-341l4 22q38 10 89 21l50 245h-129l11 53h129l62 304h-142q-7 -26 -34 -84t-40 -74h-37l44 213h610z" />
    <glyph glyph-name="Tcaron" unicode="&#x164;" horiz-adv-x="663" 
d="M349 862.5q-43 50.5 -72 72.5l78 50q27 -26 57.5 -67.5t40.5 -67.5h4q21 27 68 68t85 67l58 -50q-38 -22 -102 -73t-84 -76h-79q-11 26 -54 76.5zM119 22q38 10 89 21l123 602h-142q-7 -26 -34 -84t-40 -74h-37l44 213h610l-43 -213h-37q-4 12 -7 46.5t-3 68.5q0 23 2 43
h-142l-124 -603q31 -6 82 -22l-4 -20h-341z" />
    <glyph glyph-name="uni0162" unicode="&#x162;" horiz-adv-x="663" 
d="M732 700l-43 -213h-37q-4 12 -7 46.5t-3 68.5q0 23 2 43h-142l-124 -603q31 -6 82 -22l-4 -20h-150l-39 -59l16 -1q44 -4 65 -24t21 -49q0 -5 -2 -17q-11 -54 -59 -83.5t-111 -29.5q-31 0 -62 9.5t-51 25.5l34 43q13 -10 33.5 -15.5t43.5 -5.5q79 0 92 56q4 25 -14 35
t-46 10q-15 0 -22 -1l-19 35l49 71h-120l4 22q38 10 89 21l123 602h-142q-7 -26 -34 -84t-40 -74h-37l44 213h610z" />
    <glyph glyph-name="uni021A" unicode="&#x21a;" horiz-adv-x="663" 
d="M119 22q38 10 89 21l123 602h-142q-7 -26 -34 -84t-40 -74h-37l44 213h610l-43 -213h-37q-4 12 -7 46.5t-3 68.5q0 23 2 43h-142l-124 -603q31 -6 82 -22l-4 -20h-341zM138 -350q73 63 93 116q-26 2 -42.5 19t-16.5 42q0 39 28.5 63.5t64.5 24.5q33 0 50 -17.5t17 -44.5
q0 -6 -2 -20q-12 -61 -54 -122t-95 -101z" />
    <glyph glyph-name="uni1E6C" unicode="&#x1e6c;" horiz-adv-x="663" 
d="M119 22q38 10 89 21l123 602h-142q-7 -26 -34 -84t-40 -74h-37l44 213h610l-43 -213h-37q-4 12 -7 46.5t-3 68.5q0 23 2 43h-142l-124 -603q31 -6 82 -22l-4 -20h-341zM207.5 -173q-13.5 14 -13.5 36q0 35 22.5 60t55.5 25q26 0 40 -14.5t14 -36.5q0 -34 -23.5 -59
t-57.5 -25q-24 0 -37.5 14z" />
    <glyph glyph-name="uni1E6E" unicode="&#x1e6e;" horiz-adv-x="663" 
d="M119 22q38 10 89 21l123 602h-142q-7 -26 -34 -84t-40 -74h-37l44 213h610l-43 -213h-37q-4 12 -7 46.5t-3 68.5q0 23 2 43h-142l-124 -603q31 -6 82 -22l-4 -20h-341zM76 -58h392l-10 -53h-392z" />
    <glyph glyph-name="U" unicode="U" horiz-adv-x="780" 
d="M90 163q0 22 7 59l88 435q-30 7 -72 23l4 20h324l-5 -23q-24 -7 -80 -21l-92 -449q-5 -27 -5 -44q0 -62 40 -89t104 -27q75 0 133 38.5t75 121.5l92 451q-31 6 -73 22l4 20h220l-4 -20q-47 -16 -81 -24l-89 -434q-23 -113 -107 -172.5t-224 -59.5q-259 0 -259 173z" />
    <glyph glyph-name="Uacute" unicode="&#xda;" horiz-adv-x="780" 
d="M444 825l146 133q44 38 76 38q21 0 31.5 -10.5t10.5 -25.5q0 -7 -1 -10q-4 -20 -19.5 -36t-45.5 -32l-179 -96zM90 163q0 22 7 59l88 435q-30 7 -72 23l4 20h324l-5 -23q-24 -7 -80 -21l-92 -449q-5 -27 -5 -44q0 -62 40 -89t104 -27q75 0 133 38.5t75 121.5l92 451
q-31 6 -73 22l4 20h220l-4 -20q-47 -16 -81 -24l-89 -434q-23 -113 -107 -172.5t-224 -59.5q-259 0 -259 173z" />
    <glyph glyph-name="Ubreve" unicode="&#x16c;" horiz-adv-x="780" 
d="M398 817q-39 34 -38 103h91q-1 -6 -1 -17q0 -38 20.5 -51t54.5 -13q37 0 64 16t41 65h93q-25 -68 -80 -102.5t-130 -34.5q-76 0 -115 34zM90 163q0 22 7 59l88 435q-30 7 -72 23l4 20h324l-5 -23q-24 -7 -80 -21l-92 -449q-5 -27 -5 -44q0 -62 40 -89t104 -27
q75 0 133 38.5t75 121.5l92 451q-31 6 -73 22l4 20h220l-4 -20q-47 -16 -81 -24l-89 -434q-23 -113 -107 -172.5t-224 -59.5q-259 0 -259 173z" />
    <glyph glyph-name="uni01D3" unicode="&#x1d3;" horiz-adv-x="780" 
d="M431 862q-43 51 -72 73l77 50q28 -26 58.5 -67t39.5 -68h4q22 27 69.5 68t84.5 67l57 -50q-38 -22 -101.5 -73t-84.5 -76h-79q-10 25 -53 76zM90 163q0 22 7 59l88 435q-30 7 -72 23l4 20h324l-5 -23q-24 -7 -80 -21l-92 -449q-5 -27 -5 -44q0 -62 40 -89t104 -27
q75 0 133 38.5t75 121.5l92 451q-31 6 -73 22l4 20h220l-4 -20q-47 -16 -81 -24l-89 -434q-23 -113 -107 -172.5t-224 -59.5q-259 0 -259 173z" />
    <glyph glyph-name="Ucircumflex" unicode="&#xdb;" horiz-adv-x="780" 
d="M318 835q37 21 101 72t86 77h78q10 -25 53.5 -76.5t72.5 -72.5l-79 -51q-27 27 -57 68t-41 68h-3q-20 -26 -67 -67t-86 -69zM90 163q0 22 7 59l88 435q-30 7 -72 23l4 20h324l-5 -23q-24 -7 -80 -21l-92 -449q-5 -27 -5 -44q0 -62 40 -89t104 -27q75 0 133 38.5t75 121.5
l92 451q-31 6 -73 22l4 20h220l-4 -20q-47 -16 -81 -24l-89 -434q-23 -113 -107 -172.5t-224 -59.5q-259 0 -259 173z" />
    <glyph glyph-name="Udieresis" unicode="&#xdc;" horiz-adv-x="780" 
d="M371.5 799q-13.5 14 -13.5 36q0 35 23 60t55 25q25 0 39 -14.5t14 -36.5q0 -33 -23 -58.5t-56 -25.5q-25 0 -38.5 14zM607 798.5q-13 13.5 -13 36.5q0 35 22.5 60t56.5 25q25 0 39 -14.5t14 -36.5q0 -34 -23.5 -59t-57.5 -25q-25 0 -38 13.5zM90 163q0 22 7 59l88 435
q-30 7 -72 23l4 20h324l-5 -23q-24 -7 -80 -21l-92 -449q-5 -27 -5 -44q0 -62 40 -89t104 -27q75 0 133 38.5t75 121.5l92 451q-31 6 -73 22l4 20h220l-4 -20q-47 -16 -81 -24l-89 -434q-23 -113 -107 -172.5t-224 -59.5q-259 0 -259 173z" />
    <glyph glyph-name="uni01D7" unicode="&#x1d7;" horiz-adv-x="780" 
d="M473 1012l142 130q20 17 35.5 27.5t38.5 10.5q22 0 33 -11t11 -26q0 -7 -1 -10q-4 -19 -20 -35t-46 -32l-175 -93zM373 798.5q-13 13.5 -13 36.5q0 5 2 17q5 28 26 48t50 20q25 0 39 -15t14 -38q0 -33 -23.5 -57.5t-56.5 -24.5q-25 0 -38 13.5zM609.5 799
q-13.5 14 -13.5 36q0 5 2 17q5 29 26.5 48.5t51.5 19.5q24 0 37.5 -15t13.5 -38q0 -33 -23 -57.5t-56 -24.5q-25 0 -38.5 14zM90 163q0 22 7 59l88 435q-30 7 -72 23l4 20h324l-5 -23q-24 -7 -80 -21l-92 -449q-5 -27 -5 -44q0 -62 40 -89t104 -27q75 0 133 38.5t75 121.5
l92 451q-31 6 -73 22l4 20h220l-4 -20q-47 -16 -81 -24l-89 -434q-23 -113 -107 -172.5t-224 -59.5q-259 0 -259 173z" />
    <glyph glyph-name="uni01D9" unicode="&#x1d9;" horiz-adv-x="780" 
d="M474.5 1018.5q-40.5 45.5 -70.5 68.5l77 52q28 -26 56 -63.5t38 -63.5h4q22 27 65 64t81 63l56 -52q-39 -22 -98 -68t-80 -71h-79q-9 25 -49.5 70.5zM374 799q-14 14 -14 36q0 34 23.5 59t56.5 25q25 0 38.5 -14.5t13.5 -38.5q0 -33 -23 -57t-56 -24q-25 0 -39 14z
M611.5 799q-13.5 14 -13.5 37q0 10 1 15q6 29 27 48.5t50 19.5q25 0 39.5 -14.5t14.5 -37.5q0 -33 -23.5 -57.5t-57.5 -24.5q-24 0 -37.5 14zM90 163q0 22 7 59l88 435q-30 7 -72 23l4 20h324l-5 -23q-24 -7 -80 -21l-92 -449q-5 -27 -5 -44q0 -62 40 -89t104 -27
q75 0 133 38.5t75 121.5l92 451q-31 6 -73 22l4 20h220l-4 -20q-47 -16 -81 -24l-89 -434q-23 -113 -107 -172.5t-224 -59.5q-259 0 -259 173z" />
    <glyph glyph-name="uni01DB" unicode="&#x1db;" horiz-adv-x="780" 
d="M455 1016q-41 26 -41 55q0 20 15 38t45 18q22 0 39 -14.5t20 -23.5l71 -109l-34 -37zM372 798.5q-14 13.5 -14 35.5q0 35 22.5 60t56.5 25q25 0 39 -14.5t14 -36.5q0 -34 -23 -58.5t-56 -24.5q-25 0 -39 13.5zM608.5 798.5q-13.5 13.5 -13.5 35.5q0 35 22.5 60t56.5 25
q25 0 39 -14.5t14 -36.5q0 -34 -23 -58.5t-57 -24.5q-25 0 -38.5 13.5zM90 163q0 22 7 59l88 435q-30 7 -72 23l4 20h324l-5 -23q-24 -7 -80 -21l-92 -449q-5 -27 -5 -44q0 -62 40 -89t104 -27q75 0 133 38.5t75 121.5l92 451q-31 6 -73 22l4 20h220l-4 -20q-47 -16 -81 -24
l-89 -434q-23 -113 -107 -172.5t-224 -59.5q-259 0 -259 173z" />
    <glyph glyph-name="uni01D5" unicode="&#x1d5;" horiz-adv-x="780" 
d="M384 1033h389l-10 -52h-390zM373 798.5q-13 13.5 -13 36.5q0 5 2 17q5 28 26 48t50 20q25 0 39 -15t14 -38q0 -33 -23.5 -57.5t-56.5 -24.5q-25 0 -38 13.5zM609.5 799q-13.5 14 -13.5 36q0 5 2 17q5 29 26.5 48.5t51.5 19.5q24 0 37.5 -15t13.5 -38q0 -33 -23 -57.5
t-56 -24.5q-25 0 -38.5 14zM90 163q0 22 7 59l88 435q-30 7 -72 23l4 20h324l-5 -23q-24 -7 -80 -21l-92 -449q-5 -27 -5 -44q0 -62 40 -89t104 -27q75 0 133 38.5t75 121.5l92 451q-31 6 -73 22l4 20h220l-4 -20q-47 -16 -81 -24l-89 -434q-23 -113 -107 -172.5t-224 -59.5
q-259 0 -259 173z" />
    <glyph glyph-name="uni1EE4" unicode="&#x1ee4;" horiz-adv-x="780" 
d="M90 163q0 22 7 59l88 435q-30 7 -72 23l4 20h324l-5 -23q-24 -7 -80 -21l-92 -449q-5 -27 -5 -44q0 -62 40 -89t104 -27q75 0 133 38.5t75 121.5l92 451q-31 6 -73 22l4 20h220l-4 -20q-47 -16 -81 -24l-89 -434q-23 -113 -107 -172.5t-224 -59.5q-259 0 -259 173z
M286.5 -172.5q-13.5 14.5 -13.5 37.5q0 10 1 15q6 29 27 48.5t50 19.5q25 0 39.5 -14.5t14.5 -37.5q0 -34 -23.5 -58.5t-57.5 -24.5q-24 0 -37.5 14.5z" />
    <glyph glyph-name="Ugrave" unicode="&#xd9;" horiz-adv-x="780" 
d="M458 882q-42 29 -42 58q0 7 1 10q4 18 20.5 32t42.5 14q22 0 37 -13t22 -25l93 -133l-34 -39zM90 163q0 22 7 59l88 435q-30 7 -72 23l4 20h324l-5 -23q-24 -7 -80 -21l-92 -449q-5 -27 -5 -44q0 -62 40 -89t104 -27q75 0 133 38.5t75 121.5l92 451q-31 6 -73 22l4 20
h220l-4 -20q-47 -16 -81 -24l-89 -434q-23 -113 -107 -172.5t-224 -59.5q-259 0 -259 173z" />
    <glyph glyph-name="uni1EE6" unicode="&#x1ee6;" horiz-adv-x="780" 
d="M525 893h40q22 0 41 12.5t24 39.5q1 3 1 9q0 18 -13 29.5t-38 11.5q-35 0 -64 -16l2 42q18 8 42 13.5t47 5.5q45 0 75 -18.5t30 -56.5q0 -7 -2 -21q-8 -45 -37 -65t-74 -24l-25 -71h-67zM90 163q0 22 7 59l88 435q-30 7 -72 23l4 20h324l-5 -23q-24 -7 -80 -21l-92 -449
q-5 -27 -5 -44q0 -62 40 -89t104 -27q75 0 133 38.5t75 121.5l92 451q-31 6 -73 22l4 20h220l-4 -20q-47 -16 -81 -24l-89 -434q-23 -113 -107 -172.5t-224 -59.5q-259 0 -259 173z" />
    <glyph glyph-name="Uhorn" unicode="&#x1af;" horiz-adv-x="780" 
d="M90 163q0 22 7 59l88 435q-30 7 -72 23l4 20h324l-5 -23q-24 -7 -80 -21l-92 -449q-5 -27 -5 -44q0 -62 40 -89t104 -27q75 0 133 38.5t75 121.5l92 451q-31 6 -73 22l4 20h142q99 0 126 58q-6 -2 -15 -2q-24 0 -37.5 13t-13.5 36q0 16 8 37t28.5 37t56.5 16q67 0 67 -57
q0 -14 -4 -30q-10 -54 -63 -98.5t-160 -54.5l-89 -433q-23 -113 -107 -172.5t-224 -59.5q-259 0 -259 173z" />
    <glyph glyph-name="uni1EE8" unicode="&#x1ee8;" horiz-adv-x="780" 
d="M485 824l146 133q44 38 76 38q22 0 32 -10.5t10 -25.5q0 -7 -1 -10q-3 -20 -19 -36t-46 -32l-178 -96zM90 163q0 22 7 59l88 435q-30 7 -72 23l4 20h324l-5 -23q-24 -7 -80 -21l-92 -449q-5 -27 -5 -44q0 -62 40 -89t104 -27q75 0 133 38.5t75 121.5l92 451q-31 6 -73 22
l4 20h142q99 0 126 58q-6 -2 -15 -2q-24 0 -37.5 13t-13.5 36q0 16 8 37t28.5 37t56.5 16q67 0 67 -57q0 -14 -4 -30q-10 -54 -63 -98.5t-160 -54.5l-89 -433q-23 -113 -107 -172.5t-224 -59.5q-259 0 -259 173z" />
    <glyph glyph-name="uni1EF0" unicode="&#x1ef0;" horiz-adv-x="780" 
d="M90 163q0 22 7 59l88 435q-30 7 -72 23l4 20h324l-5 -23q-24 -7 -80 -21l-92 -449q-5 -27 -5 -44q0 -62 40 -89t104 -27q75 0 133 38.5t75 121.5l92 451q-31 6 -73 22l4 20h142q99 0 126 58q-6 -2 -15 -2q-24 0 -37.5 13t-13.5 36q0 16 8 37t28.5 37t56.5 16q67 0 67 -57
q0 -14 -4 -30q-10 -54 -63 -98.5t-160 -54.5l-89 -433q-23 -113 -107 -172.5t-224 -59.5q-259 0 -259 173zM287.5 -172.5q-13.5 14.5 -13.5 37.5q0 10 1 15q6 29 27 48.5t50 19.5q25 0 39.5 -14.5t14.5 -37.5q0 -34 -23.5 -58.5t-57.5 -24.5q-24 0 -37.5 14.5z" />
    <glyph glyph-name="uni1EEA" unicode="&#x1eea;" horiz-adv-x="780" 
d="M464 880q-41 30 -41 58q0 7 1 10q4 18 20.5 32t41.5 14q23 0 38 -13t22 -25l93 -133l-35 -39zM90 163q0 22 7 59l88 435q-30 7 -72 23l4 20h324l-5 -23q-24 -7 -80 -21l-92 -449q-5 -27 -5 -44q0 -62 40 -89t104 -27q75 0 133 38.5t75 121.5l92 451q-31 6 -73 22l4 20
h142q99 0 126 58q-6 -2 -15 -2q-24 0 -37.5 13t-13.5 36q0 16 8 37t28.5 37t56.5 16q67 0 67 -57q0 -14 -4 -30q-10 -54 -63 -98.5t-160 -54.5l-89 -433q-23 -113 -107 -172.5t-224 -59.5q-259 0 -259 173z" />
    <glyph glyph-name="uni1EEC" unicode="&#x1eec;" horiz-adv-x="780" 
d="M527 892h40q22 0 41 12.5t24 39.5q1 3 1 9q0 18 -13 29.5t-39 11.5q-34 0 -63 -16l2 42q18 8 42 13.5t47 5.5q45 0 75 -18.5t30 -56.5q0 -7 -2 -21q-8 -44 -37.5 -64.5t-73.5 -24.5l-25 -71h-68zM90 163q0 22 7 59l88 435q-30 7 -72 23l4 20h324l-5 -23q-24 -7 -80 -21
l-92 -449q-5 -27 -5 -44q0 -62 40 -89t104 -27q75 0 133 38.5t75 121.5l92 451q-31 6 -73 22l4 20h142q99 0 126 58q-6 -2 -15 -2q-24 0 -37.5 13t-13.5 36q0 16 8 37t28.5 37t56.5 16q67 0 67 -57q0 -14 -4 -30q-10 -54 -63 -98.5t-160 -54.5l-89 -433
q-23 -113 -107 -172.5t-224 -59.5q-259 0 -259 173z" />
    <glyph glyph-name="uni1EEE" unicode="&#x1eee;" horiz-adv-x="780" 
d="M380 875q38 31 91 31q29 0 49.5 -8.5t43.5 -23.5q15 -10 25.5 -14.5t21.5 -4.5q21 0 36.5 10.5t29.5 42.5h75q-37 -124 -148 -124q-22 0 -41 7.5t-51 23.5q-36 20 -52 20q-21 0 -37 -13.5t-25 -37.5h-77q21 60 59 91zM90 163q0 22 7 59l88 435q-30 7 -72 23l4 20h324
l-5 -23q-24 -7 -80 -21l-92 -449q-5 -27 -5 -44q0 -62 40 -89t104 -27q75 0 133 38.5t75 121.5l92 451q-31 6 -73 22l4 20h142q99 0 126 58q-6 -2 -15 -2q-24 0 -37.5 13t-13.5 36q0 16 8 37t28.5 37t56.5 16q67 0 67 -57q0 -14 -4 -30q-10 -54 -63 -98.5t-160 -54.5
l-89 -433q-23 -113 -107 -172.5t-224 -59.5q-259 0 -259 173z" />
    <glyph glyph-name="Uhungarumlaut" unicode="&#x170;" horiz-adv-x="780" 
d="M329 824l145 132q12 12 32 25t43 13q22 0 33 -11t11 -27q0 -21 -17 -39t-50 -37l-179 -96zM545 824l147 132q12 12 32 25t43 13q22 0 33 -11t11 -27q0 -21 -17 -39.5t-51 -36.5l-180 -96zM90 163q0 22 7 59l88 435q-30 7 -72 23l4 20h324l-5 -23q-24 -7 -80 -21l-92 -449
q-5 -27 -5 -44q0 -62 40 -89t104 -27q75 0 133 38.5t75 121.5l92 451q-31 6 -73 22l4 20h220l-4 -20q-47 -16 -81 -24l-89 -434q-23 -113 -107 -172.5t-224 -59.5q-259 0 -259 173z" />
    <glyph glyph-name="Umacron" unicode="&#x16a;" horiz-adv-x="780" 
d="M318 838h392l-10 -52h-392zM90 163q0 22 7 59l88 435q-30 7 -72 23l4 20h324l-5 -23q-24 -7 -80 -21l-92 -449q-5 -27 -5 -44q0 -62 40 -89t104 -27q75 0 133 38.5t75 121.5l92 451q-31 6 -73 22l4 20h220l-4 -20q-47 -16 -81 -24l-89 -434q-23 -113 -107 -172.5
t-224 -59.5q-259 0 -259 173z" />
    <glyph glyph-name="Uogonek" unicode="&#x172;" horiz-adv-x="780" 
d="M854 700l-4 -20q-47 -16 -81 -24l-89 -434q-19 -93 -79 -150t-160 -75q-23 -17 -41.5 -43.5t-18.5 -49.5q0 -18 13 -29t36 -11q33 0 72 23l-14 -70q-22 -13 -55 -21t-68 -8q-57 0 -88 20t-31 56q0 5 2 17q7 31 32 61.5t60 47.5q-249 3 -249 173q0 28 6 59l88 435
q-30 7 -72 23l4 20h324l-5 -23q-24 -7 -80 -21l-92 -449q-5 -27 -5 -44q0 -62 40 -89t104 -27q75 0 133 38.5t75 121.5l92 451q-31 6 -73 22l4 20h220z" />
    <glyph glyph-name="Uring" unicode="&#x16e;" horiz-adv-x="780" 
d="M436 805q-24 22 -24 59q0 12 3 25q10 48 46 77.5t85 29.5q42 0 66 -22.5t24 -59.5q0 -11 -3 -25q-10 -47 -45.5 -76.5t-84.5 -29.5q-43 0 -67 22zM560.5 852q20.5 20 20.5 51q0 20 -12 31.5t-33 11.5q-27 0 -48.5 -20.5t-21.5 -50.5q0 -19 13 -31t33 -12q28 0 48.5 20z
M90 163q0 22 7 59l88 435q-30 7 -72 23l4 20h324l-5 -23q-24 -7 -80 -21l-92 -449q-5 -27 -5 -44q0 -62 40 -89t104 -27q75 0 133 38.5t75 121.5l92 451q-31 6 -73 22l4 20h220l-4 -20q-47 -16 -81 -24l-89 -434q-23 -113 -107 -172.5t-224 -59.5q-259 0 -259 173z" />
    <glyph glyph-name="Utilde" unicode="&#x168;" horiz-adv-x="780" 
d="M360 877q38 31 91 31q29 0 49.5 -8.5t43.5 -23.5q15 -10 25.5 -14.5t21.5 -4.5q21 0 36.5 10.5t29.5 42.5h75q-37 -124 -148 -124q-22 0 -43.5 8t-47.5 23q-5 2 -17 8t-21 9t-16 3q-20 0 -36.5 -14t-24.5 -37h-77q21 60 59 91zM90 163q0 22 7 59l88 435q-30 7 -72 23
l4 20h324l-5 -23q-24 -7 -80 -21l-92 -449q-5 -27 -5 -44q0 -62 40 -89t104 -27q75 0 133 38.5t75 121.5l92 451q-31 6 -73 22l4 20h220l-4 -20q-47 -16 -81 -24l-89 -434q-23 -113 -107 -172.5t-224 -59.5q-259 0 -259 173z" />
    <glyph glyph-name="V" unicode="V" horiz-adv-x="776" 
d="M176 657q-32 8 -71 24l5 20h318l-5 -23q-58 -19 -82 -22l69 -510l277 512q-26 5 -74 24l5 19h240l-6 -24l-45.5 -13.5t-34.5 -8.5l-369 -657h-126z" />
    <glyph glyph-name="W" unicode="W" horiz-adv-x="1016" 
d="M172 656q-21 5 -40.5 13l-26.5 11l4 20h315l-4 -21q-16 -7 -43.5 -14.5t-40.5 -9.5l4 -459l255 478h69l61 -555l235 545q-38 6 -65 15l4 21h198l-3 -17q-12 -7 -31 -12.5t-32 -7.5l-294 -665h-147l-50 428l-226 -428h-124z" />
    <glyph glyph-name="Wacute" unicode="&#x1e82;" horiz-adv-x="1016" 
d="M574 825l146 133q10 10 32.5 24t43.5 14t31.5 -10.5t10.5 -25.5q0 -7 -1 -10q-4 -20 -19.5 -36t-45.5 -32l-179 -96zM172 656q-21 5 -40.5 13l-26.5 11l4 20h315l-4 -21q-16 -7 -43.5 -14.5t-40.5 -9.5l4 -459l255 478h69l61 -555l235 545q-38 6 -65 15l4 21h198l-3 -17
q-12 -7 -31 -12.5t-32 -7.5l-294 -665h-147l-50 428l-226 -428h-124z" />
    <glyph glyph-name="Wcircumflex" unicode="&#x174;" horiz-adv-x="1016" 
d="M465 835q37 21 101 72t86 77h78q10 -25 53.5 -76.5t72.5 -72.5l-79 -51q-27 27 -57 68t-41 68h-3q-20 -26 -67 -67t-86 -69zM172 656q-21 5 -40.5 13l-26.5 11l4 20h315l-4 -21q-16 -7 -43.5 -14.5t-40.5 -9.5l4 -459l255 478h69l61 -555l235 545q-38 6 -65 15l4 21h198
l-3 -17q-12 -7 -31 -12.5t-32 -7.5l-294 -665h-147l-50 428l-226 -428h-124z" />
    <glyph glyph-name="Wdieresis" unicode="&#x1e84;" horiz-adv-x="1016" 
d="M492.5 799q-13.5 14 -13.5 36q0 35 23 60t55 25q25 0 39 -14.5t14 -36.5q0 -33 -23 -58.5t-56 -25.5q-25 0 -38.5 14zM728 798.5q-13 13.5 -13 36.5q0 35 22.5 60t56.5 25q25 0 39 -14.5t14 -36.5q0 -34 -23.5 -59t-57.5 -25q-25 0 -38 13.5zM172 656q-21 5 -40.5 13
l-26.5 11l4 20h315l-4 -21q-16 -7 -43.5 -14.5t-40.5 -9.5l4 -459l255 478h69l61 -555l235 545q-38 6 -65 15l4 21h198l-3 -17q-12 -7 -31 -12.5t-32 -7.5l-294 -665h-147l-50 428l-226 -428h-124z" />
    <glyph glyph-name="Wgrave" unicode="&#x1e80;" horiz-adv-x="1016" 
d="M567 882q-41 28 -41 58q0 7 1 10q4 18 20.5 32t41.5 14q23 0 38 -13t22 -25l93 -133l-35 -39zM172 656q-21 5 -40.5 13l-26.5 11l4 20h315l-4 -21q-16 -7 -43.5 -14.5t-40.5 -9.5l4 -459l255 478h69l61 -555l235 545q-38 6 -65 15l4 21h198l-3 -17q-12 -7 -31 -12.5
t-32 -7.5l-294 -665h-147l-50 428l-226 -428h-124z" />
    <glyph glyph-name="X" unicode="X" horiz-adv-x="688" 
d="M758 700l-4 -19q-43 -17 -65 -23l-252 -264l147 -351q40 -11 70 -23l-3 -20h-318l3 17q59 25 89 29l-98 232l-228 -238l59 -19l-4 -21h-196l4 22q19 7 37 12t27 7l278 290l-137 324q-35 8 -69 24l3 21h319l-5 -24q-60 -19 -87 -22l87 -207l202 211l-60 21l4 21h197z" />
    <glyph glyph-name="Y" unicode="Y" horiz-adv-x="747" 
d="M172 19q8 3 34 12t46 11l55 267l-129 346q-37 10 -73 24l4 21h323l-5 -24q-63 -19 -86 -22l104 -278l229 283q-32 10 -59 21l4 20h210l-5 -23q-28 -10 -62 -19l-284 -351l-55 -265q10 -2 26 -7t25 -7q13 -5 23 -8l-4 -20h-324z" />
    <glyph glyph-name="Yacute" unicode="&#xdd;" horiz-adv-x="747" 
d="M430 825l146 133q10 10 32.5 24t43.5 14t31.5 -10.5t10.5 -25.5q0 -7 -1 -10q-4 -20 -19.5 -36t-45.5 -32l-179 -96zM172 19q8 3 34 12t46 11l55 267l-129 346q-37 10 -73 24l4 21h323l-5 -24q-63 -19 -86 -22l104 -278l229 283q-32 10 -59 21l4 20h210l-5 -23
q-28 -10 -62 -19l-284 -351l-55 -265q10 -2 26 -7t25 -7q13 -5 23 -8l-4 -20h-324z" />
    <glyph glyph-name="Ycircumflex" unicode="&#x176;" horiz-adv-x="747" 
d="M300 835q37 21 101 72t85 77h79q11 -26 54 -77t72 -72l-79 -51q-27 27 -57 68t-41 68h-4q-20 -26 -66.5 -66.5t-85.5 -69.5zM172 19q8 3 34 12t46 11l55 267l-129 346q-37 10 -73 24l4 21h323l-5 -24q-63 -19 -86 -22l104 -278l229 283q-32 10 -59 21l4 20h210l-5 -23
q-28 -10 -62 -19l-284 -351l-55 -265q10 -2 26 -7t25 -7q13 -5 23 -8l-4 -20h-324z" />
    <glyph glyph-name="Ydieresis" unicode="&#x178;" horiz-adv-x="747" 
d="M365.5 799q-13.5 14 -13.5 36q0 35 23 60t56 25q25 0 38.5 -14.5t13.5 -38.5q0 -33 -23.5 -57.5t-55.5 -24.5q-25 0 -38.5 14zM601.5 799q-13.5 14 -13.5 36q0 35 23 60t56 25q26 0 39.5 -14.5t13.5 -38.5q0 -33 -24 -57.5t-57 -24.5q-24 0 -37.5 14zM172 19q8 3 34 12
t46 11l55 267l-129 346q-37 10 -73 24l4 21h323l-5 -24q-63 -19 -86 -22l104 -278l229 283q-32 10 -59 21l4 20h210l-5 -23q-28 -10 -62 -19l-284 -351l-55 -265q10 -2 26 -7t25 -7q13 -5 23 -8l-4 -20h-324z" />
    <glyph glyph-name="uni1E8E" unicode="&#x1e8e;" horiz-adv-x="747" 
d="M447 798.5q-13 13.5 -13 36.5q0 35 22.5 60t56.5 25q25 0 39 -14.5t14 -36.5q0 -34 -23.5 -59t-57.5 -25q-25 0 -38 13.5zM172 19q8 3 34 12t46 11l55 267l-129 346q-37 10 -73 24l4 21h323l-5 -24q-63 -19 -86 -22l104 -278l229 283q-32 10 -59 21l4 20h210l-5 -23
q-28 -10 -62 -19l-284 -351l-55 -265q10 -2 26 -7t25 -7q13 -5 23 -8l-4 -20h-324z" />
    <glyph glyph-name="uni1EF4" unicode="&#x1ef4;" horiz-adv-x="747" 
d="M172 19q8 3 34 12t46 11l55 267l-129 346q-37 10 -73 24l4 21h323l-5 -24q-63 -19 -86 -22l104 -278l229 283q-32 10 -59 21l4 20h210l-5 -23q-28 -10 -62 -19l-284 -351l-55 -265q10 -2 26 -7t25 -7q13 -5 23 -8l-4 -20h-324zM249.5 -173q-13.5 14 -13.5 36
q0 35 22.5 60t56.5 25q25 0 39 -14.5t14 -36.5q0 -34 -23 -59t-57 -25q-25 0 -38.5 14z" />
    <glyph glyph-name="Ygrave" unicode="&#x1ef2;" horiz-adv-x="747" 
d="M417 882q-41 30 -41 58q0 7 1 10q4 18 20.5 32t41.5 14q23 0 38 -13t22 -25l93 -133l-35 -39zM172 19q8 3 34 12t46 11l55 267l-129 346q-37 10 -73 24l4 21h323l-5 -24q-63 -19 -86 -22l104 -278l229 283q-32 10 -59 21l4 20h210l-5 -23q-28 -10 -62 -19l-284 -351
l-55 -265q10 -2 26 -7t25 -7q13 -5 23 -8l-4 -20h-324z" />
    <glyph glyph-name="uni1EF6" unicode="&#x1ef6;" horiz-adv-x="747" 
d="M513 894h41q21 0 40 12.5t25 39.5q1 3 1 9q0 18 -13.5 29.5t-38.5 11.5q-34 0 -63 -16l2 42q40 19 89 19q45 0 75 -18.5t30 -57.5q0 -6 -2 -20q-9 -45 -38 -65t-74 -24l-25 -71h-67zM172 19q8 3 34 12t46 11l55 267l-129 346q-37 10 -73 24l4 21h323l-5 -24
q-63 -19 -86 -22l104 -278l229 283q-32 10 -59 21l4 20h210l-5 -23q-28 -10 -62 -19l-284 -351l-55 -265q10 -2 26 -7t25 -7q13 -5 23 -8l-4 -20h-324z" />
    <glyph glyph-name="uni1EF8" unicode="&#x1ef8;" horiz-adv-x="747" 
d="M355 877q38 31 91 31q29 0 49.5 -8.5t43.5 -23.5q15 -10 25.5 -14.5t21.5 -4.5q21 0 36.5 10.5t29.5 42.5h75q-37 -124 -147 -124q-22 0 -43 8t-50 23q-36 20 -52 20q-21 0 -37 -13.5t-25 -37.5h-77q21 60 59 91zM172 19q8 3 34 12t46 11l55 267l-129 346q-37 10 -73 24
l4 21h323l-5 -24q-63 -19 -86 -22l104 -278l229 283q-32 10 -59 21l4 20h210l-5 -23q-28 -10 -62 -19l-284 -351l-55 -265q10 -2 26 -7t25 -7q13 -5 23 -8l-4 -20h-324z" />
    <glyph glyph-name="Z" unicode="Z" horiz-adv-x="606" 
d="M-20 35l504 610h-272q-7 -23 -30.5 -68.5t-37.5 -63.5h-37l38 187h531l-3 -21l-512 -625h298q7 27 34 70.5t45 60.5h37l-57 -185h-544z" />
    <glyph glyph-name="Zacute" unicode="&#x179;" horiz-adv-x="606" 
d="M364 825l146 133q44 38 76 38q22 0 32.5 -11t10.5 -26q0 -23 -16.5 -41t-50.5 -36l-178 -96zM-20 35l504 610h-272q-7 -23 -30.5 -68.5t-37.5 -63.5h-37l38 187h531l-3 -21l-512 -625h298q7 27 34 70.5t45 60.5h37l-57 -185h-544z" />
    <glyph glyph-name="Zcaron" unicode="&#x17d;" horiz-adv-x="606" 
d="M339 862q-43 51 -72 73l77 50q28 -26 58.5 -67t39.5 -68h4q22 27 69.5 68t84.5 67l57 -50q-38 -22 -101.5 -73t-84.5 -76h-79q-10 25 -53 76zM-20 35l504 610h-272q-7 -23 -30.5 -68.5t-37.5 -63.5h-37l38 187h531l-3 -21l-512 -625h298q7 27 34 70.5t45 60.5h37
l-57 -185h-544z" />
    <glyph glyph-name="Zdotaccent" unicode="&#x17b;" horiz-adv-x="606" 
d="M386.5 799q-13.5 14 -13.5 36q0 35 22.5 60t57.5 25q25 0 38.5 -14.5t13.5 -38.5q0 -33 -23.5 -57.5t-56.5 -24.5q-25 0 -38.5 14zM-20 35l504 610h-272q-7 -23 -30.5 -68.5t-37.5 -63.5h-37l38 187h531l-3 -21l-512 -625h298q7 27 34 70.5t45 60.5h37l-57 -185h-544z
" />
    <glyph glyph-name="uni1E92" unicode="&#x1e92;" horiz-adv-x="606" 
d="M-20 35l504 610h-272q-7 -23 -30.5 -68.5t-37.5 -63.5h-37l38 187h531l-3 -21l-512 -625h298q7 27 34 70.5t45 60.5h37l-57 -185h-544zM178.5 -173q-13.5 14 -13.5 36q0 35 22.5 60t56.5 25q25 0 39 -14.5t14 -36.5q0 -34 -23 -59t-57 -25q-25 0 -38.5 14z" />
    <glyph glyph-name="a" unicode="a" horiz-adv-x="610" 
d="M43 25.5q-25 36.5 -25 94.5q0 33 9 76q26 129 100 220t220 91q24 0 46 -6.5t33 -18.5l3 16h160l-79 -389q-3 -13 -3 -26q0 -22 15 -22q16 0 39.5 30.5t42.5 70.5l27 -15q-30 -68 -80 -112.5t-114 -44.5q-38 0 -67 21t-29 64q0 13 3 29l20 102q-49 -98 -104.5 -157.5
t-133.5 -59.5q-58 0 -83 36.5zM273.5 110.5q38.5 49.5 72 113.5t40.5 98l24 118q-22 20 -54 20q-60 0 -98.5 -72.5t-57.5 -160.5q-14 -70 -14 -111q0 -55 24 -55q25 0 63.5 49.5z" />
    <glyph glyph-name="aacute" unicode="&#xe1;" horiz-adv-x="610" 
d="M272 623l146 133q44 38 76 38q22 0 32 -10.5t10 -25.5q0 -7 -1 -10q-3 -19 -19 -35t-46 -33l-178 -96zM43 25.5q-25 36.5 -25 94.5q0 33 9 76q26 129 100 220t220 91q24 0 46 -6.5t33 -18.5l3 16h160l-79 -389q-3 -13 -3 -26q0 -22 15 -22q16 0 39.5 30.5t42.5 70.5
l27 -15q-30 -68 -80 -112.5t-114 -44.5q-38 0 -67 21t-29 64q0 13 3 29l20 102q-49 -98 -104.5 -157.5t-133.5 -59.5q-58 0 -83 36.5zM273.5 110.5q38.5 49.5 72 113.5t40.5 98l24 118q-22 20 -54 20q-60 0 -98.5 -72.5t-57.5 -160.5q-14 -70 -14 -111q0 -55 24 -55
q25 0 63.5 49.5z" />
    <glyph glyph-name="abreve" unicode="&#x103;" horiz-adv-x="610" 
d="M245 616q-40 34 -39 103h92q-1 -6 -1 -17q0 -38 20.5 -51t54.5 -13q37 0 64 16t41 65h92q-24 -68 -78.5 -102.5t-130.5 -34.5q-75 0 -115 34zM43 25.5q-25 36.5 -25 94.5q0 33 9 76q26 129 100 220t220 91q24 0 46 -6.5t33 -18.5l3 16h160l-79 -389q-3 -13 -3 -26
q0 -22 15 -22q16 0 39.5 30.5t42.5 70.5l27 -15q-30 -68 -80 -112.5t-114 -44.5q-38 0 -67 21t-29 64q0 13 3 29l20 102q-49 -98 -104.5 -157.5t-133.5 -59.5q-58 0 -83 36.5zM273.5 110.5q38.5 49.5 72 113.5t40.5 98l24 118q-22 20 -54 20q-60 0 -98.5 -72.5t-57.5 -160.5
q-14 -70 -14 -111q0 -55 24 -55q25 0 63.5 49.5z" />
    <glyph glyph-name="uni1EAF" unicode="&#x1eaf;" horiz-adv-x="610" 
d="M354 762l92 93q49 47 81 47q22 0 32 -11.5t10 -27.5q0 -21 -20.5 -42t-55.5 -38l-120 -56zM245 616.5q-40 34.5 -39 102.5h93q-1 -6 -1 -17q0 -38 20 -51t54 -13q37 0 64 16t42 65h91q-25 -68 -79 -102.5t-130 -34.5q-75 0 -115 34.5zM43 25.5q-25 36.5 -25 94.5
q0 33 9 76q26 129 100 220t220 91q24 0 46 -6.5t33 -18.5l3 16h160l-79 -389q-3 -13 -3 -26q0 -22 15 -22q16 0 39.5 30.5t42.5 70.5l27 -15q-30 -68 -80 -112.5t-114 -44.5q-38 0 -67 21t-29 64q0 13 3 29l20 102q-49 -98 -104.5 -157.5t-133.5 -59.5q-58 0 -83 36.5z
M273.5 110.5q38.5 49.5 72 113.5t40.5 98l24 118q-22 20 -54 20q-60 0 -98.5 -72.5t-57.5 -160.5q-14 -70 -14 -111q0 -55 24 -55q25 0 63.5 49.5z" />
    <glyph glyph-name="uni1EB7" unicode="&#x1eb7;" horiz-adv-x="610" 
d="M298 719q-1 -6 -1 -17q0 -38 20.5 -51t54.5 -13q37 0 64 16t41 65h93q-25 -68 -80 -102.5t-130 -34.5q-76 0 -115 34t-38 103h91zM127 416q74 91 220 91q24 0 46 -6.5t33 -18.5l3 16h160l-79 -389q-3 -13 -3 -26q0 -22 15 -22q16 0 39.5 30.5t42.5 70.5l27 -15
q-30 -68 -80 -112.5t-114 -44.5q-38 0 -67 21t-29 64q0 13 3 29l20 102q-49 -98 -104.5 -157.5t-133.5 -59.5q-58 0 -83 36.5t-25 94.5q0 33 9 76q26 129 100 220zM186 116q0 -55 24 -55q25 0 63.5 49.5t72 113.5t40.5 98l24 118q-22 20 -54 20q-60 0 -98.5 -72.5
t-57.5 -160.5q-14 -70 -14 -111zM162.5 -77q22.5 25 56.5 25q25 0 39 -14.5t14 -36.5q0 -34 -23 -59t-57 -25q-25 0 -38.5 14t-13.5 36q0 35 22.5 60z" />
    <glyph glyph-name="uni1EB1" unicode="&#x1eb1;" horiz-adv-x="610" 
d="M311 783q-49 29 -49 62q0 6 1 9q3 18 19.5 33t41.5 15q34 0 62 -47l54 -93l-33 -35zM246 616.5q-40 34.5 -39 102.5h93q-1 -6 -1 -17q0 -38 20 -51t54 -13q37 0 64 16t42 65h91q-25 -68 -79 -102.5t-130 -34.5q-75 0 -115 34.5zM43 25.5q-25 36.5 -25 94.5q0 33 9 76
q26 129 100 220t220 91q24 0 46 -6.5t33 -18.5l3 16h160l-79 -389q-3 -13 -3 -26q0 -22 15 -22q16 0 39.5 30.5t42.5 70.5l27 -15q-30 -68 -80 -112.5t-114 -44.5q-38 0 -67 21t-29 64q0 13 3 29l20 102q-49 -98 -104.5 -157.5t-133.5 -59.5q-58 0 -83 36.5zM273.5 110.5
q38.5 49.5 72 113.5t40.5 98l24 118q-22 20 -54 20q-60 0 -98.5 -72.5t-57.5 -160.5q-14 -70 -14 -111q0 -55 24 -55q25 0 63.5 49.5z" />
    <glyph glyph-name="uni1EB3" unicode="&#x1eb3;" horiz-adv-x="610" 
d="M377 825h36q19 0 35.5 11t21.5 35q1 3 1 9q0 15 -11.5 24.5t-33.5 9.5q-29 0 -55 -13l2 39q36 16 77 16q39 0 65.5 -16.5t26.5 -50.5q0 -5 -2 -19q-8 -40 -33.5 -58t-64.5 -22l-18 -44h-59zM246 616.5q-40 34.5 -39 102.5h93q-1 -6 -1 -17q0 -38 20 -51t54 -13
q37 0 64 16t42 65h91q-25 -68 -79 -102.5t-130 -34.5q-75 0 -115 34.5zM43 25.5q-25 36.5 -25 94.5q0 33 9 76q26 129 100 220t220 91q24 0 46 -6.5t33 -18.5l3 16h160l-79 -389q-3 -13 -3 -26q0 -22 15 -22q16 0 39.5 30.5t42.5 70.5l27 -15q-30 -68 -80 -112.5t-114 -44.5
q-38 0 -67 21t-29 64q0 13 3 29l20 102q-49 -98 -104.5 -157.5t-133.5 -59.5q-58 0 -83 36.5zM273.5 110.5q38.5 49.5 72 113.5t40.5 98l24 118q-22 20 -54 20q-60 0 -98.5 -72.5t-57.5 -160.5q-14 -70 -14 -111q0 -55 24 -55q25 0 63.5 49.5z" />
    <glyph glyph-name="uni1EB5" unicode="&#x1eb5;" horiz-adv-x="610" 
d="M269.5 869q37.5 30 88.5 30q27 0 44.5 -8t37.5 -23q13 -10 21.5 -14.5t19.5 -4.5q54 0 77 52h55q-17 -56 -53 -88t-90 -32q-21 0 -37 7t-36 20q-19 12 -31 17.5t-27 5.5q-24 0 -43 -13.5t-27 -36.5h-56q19 58 56.5 88zM246 616.5q-40 34.5 -39 102.5h93q-1 -6 -1 -17
q0 -38 20 -51t54 -13q37 0 64 16t42 65h91q-25 -68 -79 -102.5t-130 -34.5q-75 0 -115 34.5zM43 25.5q-25 36.5 -25 94.5q0 33 9 76q26 129 100 220t220 91q24 0 46 -6.5t33 -18.5l3 16h160l-79 -389q-3 -13 -3 -26q0 -22 15 -22q16 0 39.5 30.5t42.5 70.5l27 -15
q-30 -68 -80 -112.5t-114 -44.5q-38 0 -67 21t-29 64q0 13 3 29l20 102q-49 -98 -104.5 -157.5t-133.5 -59.5q-58 0 -83 36.5zM273.5 110.5q38.5 49.5 72 113.5t40.5 98l24 118q-22 20 -54 20q-60 0 -98.5 -72.5t-57.5 -160.5q-14 -70 -14 -111q0 -55 24 -55q25 0 63.5 49.5
z" />
    <glyph glyph-name="uni01CE" unicode="&#x1ce;" horiz-adv-x="610" 
d="M266.5 660.5q-43.5 50.5 -72.5 72.5l79 50q27 -26 57 -67t41 -68h4q21 27 68 68t85 67l58 -50q-38 -22 -102 -73t-84 -76h-79q-11 26 -54.5 76.5zM43 25.5q-25 36.5 -25 94.5q0 33 9 76q26 129 100 220t220 91q24 0 46 -6.5t33 -18.5l3 16h160l-79 -389q-3 -13 -3 -26
q0 -22 15 -22q16 0 39.5 30.5t42.5 70.5l27 -15q-30 -68 -80 -112.5t-114 -44.5q-38 0 -67 21t-29 64q0 13 3 29l20 102q-49 -98 -104.5 -157.5t-133.5 -59.5q-58 0 -83 36.5zM273.5 110.5q38.5 49.5 72 113.5t40.5 98l24 118q-22 20 -54 20q-60 0 -98.5 -72.5t-57.5 -160.5
q-14 -70 -14 -111q0 -55 24 -55q25 0 63.5 49.5z" />
    <glyph glyph-name="acircumflex" unicode="&#xe2;" horiz-adv-x="610" 
d="M169 633q37 21 100.5 72t85.5 77h79q10 -25 53 -76.5t72 -72.5l-78 -51q-28 27 -58 68t-40 68h-4q-20 -26 -67 -67t-86 -69zM43 25.5q-25 36.5 -25 94.5q0 33 9 76q26 129 100 220t220 91q24 0 46 -6.5t33 -18.5l3 16h160l-79 -389q-3 -13 -3 -26q0 -22 15 -22
q16 0 39.5 30.5t42.5 70.5l27 -15q-30 -68 -80 -112.5t-114 -44.5q-38 0 -67 21t-29 64q0 13 3 29l20 102q-49 -98 -104.5 -157.5t-133.5 -59.5q-58 0 -83 36.5zM273.5 110.5q38.5 49.5 72 113.5t40.5 98l24 118q-22 20 -54 20q-60 0 -98.5 -72.5t-57.5 -160.5
q-14 -70 -14 -111q0 -55 24 -55q25 0 63.5 49.5z" />
    <glyph glyph-name="uni1EA5" unicode="&#x1ea5;" horiz-adv-x="610" 
d="M512 762l93 93q42 40 77 40q20 0 32 -10t12 -27q0 -8 -1 -12q-3 -18 -20.5 -32t-53.5 -31l-119 -56zM173 633q36 21 100.5 72t87.5 77h77q11 -25 54 -76.5t71 -72.5l-78 -51q-27 28 -57 69t-40 67h-3q-21 -26 -68 -67t-86 -69zM43 25.5q-25 36.5 -25 94.5q0 33 9 76
q26 129 100 220t220 91q24 0 46 -6.5t33 -18.5l3 16h160l-79 -389q-3 -13 -3 -26q0 -22 15 -22q16 0 39.5 30.5t42.5 70.5l27 -15q-30 -68 -80 -112.5t-114 -44.5q-38 0 -67 21t-29 64q0 13 3 29l20 102q-49 -98 -104.5 -157.5t-133.5 -59.5q-58 0 -83 36.5zM273.5 110.5
q38.5 49.5 72 113.5t40.5 98l24 118q-22 20 -54 20q-60 0 -98.5 -72.5t-57.5 -160.5q-14 -70 -14 -111q0 -55 24 -55q25 0 63.5 49.5z" />
    <glyph glyph-name="uni1EAD" unicode="&#x1ead;" horiz-adv-x="610" 
d="M172 633q37 21 101 72t86 77h78q10 -25 53.5 -76.5t72.5 -72.5l-79 -51q-27 27 -57 68.5t-40 67.5h-4q-20 -26 -67 -67t-86 -69zM43 25.5q-25 36.5 -25 94.5q0 33 9 76q26 129 100 220t220 91q24 0 46 -6.5t33 -18.5l3 16h160l-79 -389q-3 -13 -3 -26q0 -22 15 -22
q16 0 39.5 30.5t42.5 70.5l27 -15q-30 -68 -80 -112.5t-114 -44.5q-38 0 -67 21t-29 64q0 13 3 29l20 102q-49 -98 -104.5 -157.5t-133.5 -59.5q-58 0 -83 36.5zM273.5 110.5q38.5 49.5 72 113.5t40.5 98l24 118q-22 20 -54 20q-60 0 -98.5 -72.5t-57.5 -160.5
q-14 -70 -14 -111q0 -55 24 -55q25 0 63.5 49.5zM164.5 -172.5q-13.5 14.5 -13.5 37.5q0 10 1 15q6 29 27 48.5t50 19.5q25 0 39.5 -14.5t14.5 -37.5q0 -34 -23 -58.5t-58 -24.5q-24 0 -37.5 14.5z" />
    <glyph glyph-name="uni1EA7" unicode="&#x1ea7;" horiz-adv-x="610" 
d="M145 783q-26 15 -38.5 27.5t-12.5 27.5q0 5 1 8q4 22 22.5 35.5t41.5 13.5q20 0 34 -11t26 -29l54 -93l-32 -35zM173 633q36 21 100.5 72t87.5 77h77q11 -25 54 -76.5t71 -72.5l-78 -51q-27 28 -57 69t-40 67h-3q-21 -26 -68 -67t-86 -69zM43 25.5q-25 36.5 -25 94.5
q0 33 9 76q26 129 100 220t220 91q24 0 46 -6.5t33 -18.5l3 16h160l-79 -389q-3 -13 -3 -26q0 -22 15 -22q16 0 39.5 30.5t42.5 70.5l27 -15q-30 -68 -80 -112.5t-114 -44.5q-38 0 -67 21t-29 64q0 13 3 29l20 102q-49 -98 -104.5 -157.5t-133.5 -59.5q-58 0 -83 36.5z
M273.5 110.5q38.5 49.5 72 113.5t40.5 98l24 118q-22 20 -54 20q-60 0 -98.5 -72.5t-57.5 -160.5q-14 -70 -14 -111q0 -55 24 -55q25 0 63.5 49.5z" />
    <glyph glyph-name="uni1EA9" unicode="&#x1ea9;" horiz-adv-x="610" 
d="M525 825h35q19 0 36 11t22 35q1 3 1 9q0 15 -11.5 24.5t-33.5 9.5q-30 0 -56 -13l2 39q36 16 78 16q40 0 66 -16.5t26 -50.5q0 -5 -2 -19q-8 -40 -34 -58t-65 -22l-17 -44h-60zM173 633q36 21 100.5 72t87.5 77h77q11 -25 54 -76.5t71 -72.5l-78 -51q-27 28 -57 69
t-40 67h-3q-21 -26 -68 -67t-86 -69zM43 25.5q-25 36.5 -25 94.5q0 33 9 76q26 129 100 220t220 91q24 0 46 -6.5t33 -18.5l3 16h160l-79 -389q-3 -13 -3 -26q0 -22 15 -22q16 0 39.5 30.5t42.5 70.5l27 -15q-30 -68 -80 -112.5t-114 -44.5q-38 0 -67 21t-29 64q0 13 3 29
l20 102q-49 -98 -104.5 -157.5t-133.5 -59.5q-58 0 -83 36.5zM273.5 110.5q38.5 49.5 72 113.5t40.5 98l24 118q-22 20 -54 20q-60 0 -98.5 -72.5t-57.5 -160.5q-14 -70 -14 -111q0 -55 24 -55q25 0 63.5 49.5z" />
    <glyph glyph-name="uni1EAB" unicode="&#x1eab;" horiz-adv-x="610" 
d="M285.5 908q37.5 30 88.5 30q27 0 44.5 -8t37.5 -23q13 -10 21.5 -14.5t19.5 -4.5q22 0 43 11t34 41h54q-16 -56 -52 -88t-91 -32q-20 0 -36 7t-36 20q-19 12 -31 17.5t-27 5.5q-24 0 -43 -13.5t-27 -36.5h-56q19 58 56.5 88zM173 633q36 21 100.5 72t87.5 77h77
q11 -25 54 -76.5t71 -72.5l-78 -51q-27 28 -57 69t-40 67h-3q-21 -26 -68 -67t-86 -69zM43 25.5q-25 36.5 -25 94.5q0 33 9 76q26 129 100 220t220 91q24 0 46 -6.5t33 -18.5l3 16h160l-79 -389q-3 -13 -3 -26q0 -22 15 -22q16 0 39.5 30.5t42.5 70.5l27 -15
q-30 -68 -80 -112.5t-114 -44.5q-38 0 -67 21t-29 64q0 13 3 29l20 102q-49 -98 -104.5 -157.5t-133.5 -59.5q-58 0 -83 36.5zM273.5 110.5q38.5 49.5 72 113.5t40.5 98l24 118q-22 20 -54 20q-60 0 -98.5 -72.5t-57.5 -160.5q-14 -70 -14 -111q0 -55 24 -55q25 0 63.5 49.5
z" />
    <glyph glyph-name="adieresis" unicode="&#xe4;" horiz-adv-x="610" 
d="M192 597.5q-14 14.5 -14 36.5q0 34 23.5 59t55.5 25q24 0 38.5 -14.5t14.5 -37.5q0 -33 -24 -58t-56 -25q-24 0 -38 14.5zM427.5 597.5q-13.5 14.5 -13.5 36.5q0 35 23 59.5t56 24.5q25 0 39.5 -14.5t14.5 -37.5q0 -34 -23.5 -58.5t-58.5 -24.5q-24 0 -37.5 14.5z
M43 25.5q-25 36.5 -25 94.5q0 33 9 76q26 129 100 220t220 91q24 0 46 -6.5t33 -18.5l3 16h160l-79 -389q-3 -13 -3 -26q0 -22 15 -22q16 0 39.5 30.5t42.5 70.5l27 -15q-30 -68 -80 -112.5t-114 -44.5q-38 0 -67 21t-29 64q0 13 3 29l20 102q-49 -98 -104.5 -157.5
t-133.5 -59.5q-58 0 -83 36.5zM273.5 110.5q38.5 49.5 72 113.5t40.5 98l24 118q-22 20 -54 20q-60 0 -98.5 -72.5t-57.5 -160.5q-14 -70 -14 -111q0 -55 24 -55q25 0 63.5 49.5z" />
    <glyph glyph-name="uni1EA1" unicode="&#x1ea1;" horiz-adv-x="610" 
d="M127 416q74 91 220 91q24 0 46 -6.5t33 -18.5l3 16h160l-79 -389q-3 -13 -3 -26q0 -22 15 -22q16 0 39.5 30.5t42.5 70.5l27 -15q-30 -68 -80 -112.5t-114 -44.5q-38 0 -67 21t-29 64q0 13 3 29l20 102q-49 -98 -104.5 -157.5t-133.5 -59.5q-58 0 -83 36.5t-25 94.5
q0 33 9 76q26 129 100 220zM186 116q0 -55 24 -55q25 0 63.5 49.5t72 113.5t40.5 98l24 118q-22 20 -54 20q-60 0 -98.5 -72.5t-57.5 -160.5q-14 -70 -14 -111zM179 -71.5q21 19.5 50 19.5q25 0 39.5 -14.5t14.5 -37.5q0 -34 -23 -58.5t-58 -24.5q-24 0 -37.5 14.5
t-13.5 37.5q0 10 1 15q6 29 27 48.5z" />
    <glyph glyph-name="agrave" unicode="&#xe0;" horiz-adv-x="610" 
d="M300 680q-41 28 -41 58q0 7 1 10q4 18 20.5 32t41.5 14q23 0 38 -13t22 -25l93 -133l-35 -39zM43 25.5q-25 36.5 -25 94.5q0 33 9 76q26 129 100 220t220 91q24 0 46 -6.5t33 -18.5l3 16h160l-79 -389q-3 -13 -3 -26q0 -22 15 -22q16 0 39.5 30.5t42.5 70.5l27 -15
q-30 -68 -80 -112.5t-114 -44.5q-38 0 -67 21t-29 64q0 13 3 29l20 102q-49 -98 -104.5 -157.5t-133.5 -59.5q-58 0 -83 36.5zM273.5 110.5q38.5 49.5 72 113.5t40.5 98l24 118q-22 20 -54 20q-60 0 -98.5 -72.5t-57.5 -160.5q-14 -70 -14 -111q0 -55 24 -55q25 0 63.5 49.5
z" />
    <glyph glyph-name="uni1EA3" unicode="&#x1ea3;" horiz-adv-x="610" 
d="M342 692h41q21 0 40 12.5t25 39.5q1 3 1 9q0 18 -13.5 29.5t-38.5 11.5q-34 0 -63 -16l2 42q40 19 89 19q45 0 75 -18.5t30 -57.5q0 -6 -2 -20q-9 -45 -38 -65t-74 -24l-25 -71h-67zM43 25.5q-25 36.5 -25 94.5q0 33 9 76q26 129 100 220t220 91q24 0 46 -6.5t33 -18.5
l3 16h160l-79 -389q-3 -13 -3 -26q0 -22 15 -22q16 0 39.5 30.5t42.5 70.5l27 -15q-30 -68 -80 -112.5t-114 -44.5q-38 0 -67 21t-29 64q0 13 3 29l20 102q-49 -98 -104.5 -157.5t-133.5 -59.5q-58 0 -83 36.5zM273.5 110.5q38.5 49.5 72 113.5t40.5 98l24 118
q-22 20 -54 20q-60 0 -98.5 -72.5t-57.5 -160.5q-14 -70 -14 -111q0 -55 24 -55q25 0 63.5 49.5z" />
    <glyph glyph-name="uni0251" unicode="&#x251;" horiz-adv-x="630" 
d="M59.5 32.5q-44.5 42.5 -44.5 127.5q0 41 11 98q17 85 68.5 141t122 82t146.5 26q78 0 143 -24t90 -63l-76 -371q33 -9 60 -19l-2 -13l-235 -24l12 63q-25 -30 -73.5 -48t-83.5 -18q-94 0 -138.5 42.5zM333.5 82.5q34.5 39.5 46.5 93.5l49 239q-30 38 -79 38
q-59 0 -99 -50.5t-60 -146.5q-12 -57 -12 -103q0 -110 75 -110q45 0 79.5 39.5z" />
    <glyph glyph-name="amacron" unicode="&#x101;" horiz-adv-x="610" 
d="M164 636h392l-11 -52h-392zM43 25.5q-25 36.5 -25 94.5q0 33 9 76q26 129 100 220t220 91q24 0 46 -6.5t33 -18.5l3 16h160l-79 -389q-3 -13 -3 -26q0 -22 15 -22q16 0 39.5 30.5t42.5 70.5l27 -15q-30 -68 -80 -112.5t-114 -44.5q-38 0 -67 21t-29 64q0 13 3 29l20 102
q-49 -98 -104.5 -157.5t-133.5 -59.5q-58 0 -83 36.5zM273.5 110.5q38.5 49.5 72 113.5t40.5 98l24 118q-22 20 -54 20q-60 0 -98.5 -72.5t-57.5 -160.5q-14 -70 -14 -111q0 -55 24 -55q25 0 63.5 49.5z" />
    <glyph glyph-name="aogonek" unicode="&#x105;" horiz-adv-x="610" 
d="M438.5 -39q-10.5 -17 -13.5 -32q-1 -4 -1 -12q0 -18 13 -29t36 -11q33 0 72 23l-14 -70q-22 -13 -55 -21t-68 -8q-57 0 -88 20t-31 56q0 5 2 17q7 30 31.5 61t59.5 48q-41 21 -41 72q0 14 3 29l20 102q-49 -98 -104.5 -157.5t-133.5 -59.5q-58 0 -83 36.5t-25 94.5
q0 33 9 76q26 129 100 220t220 91q24 0 46 -6.5t33 -18.5l3 16h160l-79 -389q-3 -13 -3 -26q0 -22 15 -22q16 0 39.5 30.5t42.5 70.5l27 -15q-26 -61 -69.5 -103.5t-98.5 -51.5q-14 -14 -24.5 -31zM273.5 110.5q38.5 49.5 72 113.5t40.5 98l24 118q-22 20 -54 20
q-60 0 -98.5 -72.5t-57.5 -160.5q-14 -70 -14 -111q0 -55 24 -55q25 0 63.5 49.5z" />
    <glyph glyph-name="aring" unicode="&#xe5;" horiz-adv-x="610" 
d="M294 603q-24 22 -24 59q0 12 3 25q10 48 46 77.5t85 29.5q42 0 66 -22.5t24 -59.5q0 -11 -3 -25q-10 -47 -45.5 -76.5t-84.5 -29.5q-43 0 -67 22zM418.5 650q20.5 20 20.5 51q0 20 -12 31.5t-33 11.5q-27 0 -48.5 -20.5t-21.5 -50.5q0 -19 13 -31t33 -12q28 0 48.5 20z
M43 25.5q-25 36.5 -25 94.5q0 33 9 76q26 129 100 220t220 91q24 0 46 -6.5t33 -18.5l3 16h160l-79 -389q-3 -13 -3 -26q0 -22 15 -22q16 0 39.5 30.5t42.5 70.5l27 -15q-30 -68 -80 -112.5t-114 -44.5q-38 0 -67 21t-29 64q0 13 3 29l20 102q-49 -98 -104.5 -157.5
t-133.5 -59.5q-58 0 -83 36.5zM273.5 110.5q38.5 49.5 72 113.5t40.5 98l24 118q-22 20 -54 20q-60 0 -98.5 -72.5t-57.5 -160.5q-14 -70 -14 -111q0 -55 24 -55q25 0 63.5 49.5z" />
    <glyph glyph-name="aringacute" unicode="&#x1fb;" horiz-adv-x="610" 
d="M301 847l146 133q44 38 76 38q21 0 31.5 -10.5t10.5 -25.5q0 -7 -1 -10q-4 -20 -19.5 -36t-45.5 -32l-179 -96zM293 600q-24 22 -24 59q0 12 3 25q10 48 46 77.5t85 29.5q42 0 66 -22.5t24 -59.5q0 -11 -3 -25q-10 -47 -45.5 -76.5t-84.5 -29.5q-43 0 -67 22zM417.5 647
q20.5 20 20.5 51q0 20 -12 31.5t-33 11.5q-27 0 -48.5 -20.5t-21.5 -50.5q0 -19 13 -31t33 -12q28 0 48.5 20zM43 25.5q-25 36.5 -25 94.5q0 33 9 76q26 129 100 220t220 91q24 0 46 -6.5t33 -18.5l3 16h160l-79 -389q-3 -13 -3 -26q0 -22 15 -22q16 0 39.5 30.5t42.5 70.5
l27 -15q-30 -68 -80 -112.5t-114 -44.5q-38 0 -67 21t-29 64q0 13 3 29l20 102q-49 -98 -104.5 -157.5t-133.5 -59.5q-58 0 -83 36.5zM273.5 110.5q38.5 49.5 72 113.5t40.5 98l24 118q-22 20 -54 20q-60 0 -98.5 -72.5t-57.5 -160.5q-14 -70 -14 -111q0 -55 24 -55
q25 0 63.5 49.5z" />
    <glyph glyph-name="atilde" unicode="&#xe3;" horiz-adv-x="610" 
d="M208 675q38 31 91 31q29 0 49.5 -8.5t43.5 -23.5q15 -10 25.5 -14.5t21.5 -4.5q21 0 37 10.5t30 42.5h74q-37 -124 -147 -124q-22 0 -43 8t-50 23q-36 20 -52 20q-21 0 -37 -13.5t-25 -37.5h-77q21 60 59 91zM43 25.5q-25 36.5 -25 94.5q0 33 9 76q26 129 100 220t220 91
q24 0 46 -6.5t33 -18.5l3 16h160l-79 -389q-3 -13 -3 -26q0 -22 15 -22q16 0 39.5 30.5t42.5 70.5l27 -15q-30 -68 -80 -112.5t-114 -44.5q-38 0 -67 21t-29 64q0 13 3 29l20 102q-49 -98 -104.5 -157.5t-133.5 -59.5q-58 0 -83 36.5zM273.5 110.5q38.5 49.5 72 113.5
t40.5 98l24 118q-22 20 -54 20q-60 0 -98.5 -72.5t-57.5 -160.5q-14 -70 -14 -111q0 -55 24 -55q25 0 63.5 49.5z" />
    <glyph glyph-name="ae" unicode="&#xe6;" horiz-adv-x="886" 
d="M41 19q-45 29 -45 87q0 16 3 32q16 80 85.5 117.5t164.5 37.5h101q13 38 28 65q1 6 1 16q0 39 -29 59.5t-71 20.5q-39 0 -85 -13t-86 -31l1 45q50 25 110.5 38.5t120.5 13.5q102 0 151 -44q80 44 178 44q104 0 155.5 -49t51.5 -128q0 -28 -6 -58l-5 -32h-362
q-7 -35 -7 -67q0 -66 30.5 -99t85.5 -33q40 0 91 14.5t92 41.5l7 -38q-41 -30 -99 -49.5t-126 -19.5q-67 0 -117.5 19.5t-80.5 55.5q-40 -36 -101 -55.5t-121 -19.5q-71 0 -116 29zM730 294q5 28 5 53q0 48 -18.5 77.5t-60.5 29.5q-50 0 -87.5 -45.5t-53.5 -114.5h215z
M291.5 61.5q37.5 14.5 63.5 35.5q-22 38 -22 91q0 22 5 52h-61q-41 0 -73 -28.5t-41 -72.5q-4 -16 -4 -32q0 -31 17.5 -45.5t46.5 -14.5q31 0 68.5 14.5z" />
    <glyph glyph-name="aeacute" unicode="&#x1fd;" horiz-adv-x="886" 
d="M458 623l146 133q10 10 32.5 24t42.5 14q22 0 32.5 -11t10.5 -26q0 -23 -16.5 -41t-50.5 -36l-178 -96zM41 19q-45 29 -45 87q0 16 3 32q16 80 85.5 117.5t164.5 37.5h101q13 38 28 65q1 6 1 16q0 39 -29 59.5t-71 20.5q-39 0 -85 -13t-86 -31l1 45q50 25 110.5 38.5
t120.5 13.5q102 0 151 -44q80 44 178 44q104 0 155.5 -49t51.5 -128q0 -28 -6 -58l-5 -32h-362q-7 -35 -7 -67q0 -66 30.5 -99t85.5 -33q40 0 91 14.5t92 41.5l7 -38q-41 -30 -99 -49.5t-126 -19.5q-67 0 -117.5 19.5t-80.5 55.5q-40 -36 -101 -55.5t-121 -19.5
q-71 0 -116 29zM730 294q5 28 5 53q0 48 -18.5 77.5t-60.5 29.5q-50 0 -87.5 -45.5t-53.5 -114.5h215zM291.5 61.5q37.5 14.5 63.5 35.5q-22 38 -22 91q0 22 5 52h-61q-41 0 -73 -28.5t-41 -72.5q-4 -16 -4 -32q0 -31 17.5 -45.5t46.5 -14.5q31 0 68.5 14.5z" />
    <glyph glyph-name="b" unicode="b" horiz-adv-x="639" 
d="M228 14q-31 24 -40 57l-20 -35l-21 -37l-120 -8l133 657q-38 10 -61 19l2 14l237 23l-70 -340q37 67 95 105t118 38q63 0 104.5 -42.5t41.5 -121.5q0 -34 -7 -69q-29 -140 -110 -212t-198 -72q-53 0 -84 24zM394.5 96q35.5 53 54.5 148q16 80 16 127q0 82 -43 82
q-24 0 -62 -34t-71 -83.5t-45 -92.5l-15 -71q-4 -24 -4 -36q0 -41 20 -67t57 -26q57 0 92.5 53z" />
    <glyph glyph-name="c" unicode="c" horiz-adv-x="541" 
d="M85.5 42.5q-60.5 52.5 -60.5 143.5q0 24 7 62q25 122 116.5 190.5t221.5 68.5q94 0 141 -27t47 -79q0 -13 -3 -27q-4 -20 -22 -37t-39 -17t-31.5 10.5t-10.5 25.5q0 10 8 28q4 7 7 19q4 18 -16.5 34.5t-58.5 16.5q-66 0 -118.5 -51.5t-73.5 -153.5q-7 -40 -7 -68
q0 -63 27.5 -101.5t86.5 -38.5q40 0 87.5 14.5t85.5 42.5l7 -39q-40 -30 -100.5 -49.5t-128.5 -19.5q-112 0 -172.5 52.5z" />
    <glyph glyph-name="cacute" unicode="&#x107;" horiz-adv-x="541" 
d="M301 623l146 133q44 38 76 38q21 0 31.5 -10.5t10.5 -25.5q0 -7 -1 -10q-4 -20 -19.5 -36t-45.5 -32l-179 -96zM85.5 42.5q-60.5 52.5 -60.5 143.5q0 24 7 62q25 122 116.5 190.5t221.5 68.5q94 0 141 -27t47 -79q0 -13 -3 -27q-4 -20 -22 -37t-39 -17t-31.5 10.5
t-10.5 25.5q0 10 8 28q4 7 7 19q4 18 -16.5 34.5t-58.5 16.5q-66 0 -118.5 -51.5t-73.5 -153.5q-7 -40 -7 -68q0 -63 27.5 -101.5t86.5 -38.5q40 0 87.5 14.5t85.5 42.5l7 -39q-40 -30 -100.5 -49.5t-128.5 -19.5q-112 0 -172.5 52.5z" />
    <glyph glyph-name="ccaron" unicode="&#x10d;" horiz-adv-x="541" 
d="M310 660q-43 51 -72 73l78 50q27 -27 57.5 -68t39.5 -67h4q22 27 69.5 68t84.5 67l57 -50q-38 -22 -101.5 -73t-84.5 -76h-78q-11 25 -54 76zM85.5 42.5q-60.5 52.5 -60.5 143.5q0 24 7 62q25 122 116.5 190.5t221.5 68.5q94 0 141 -27t47 -79q0 -13 -3 -27
q-4 -20 -22 -37t-39 -17t-31.5 10.5t-10.5 25.5q0 10 8 28q4 7 7 19q4 18 -16.5 34.5t-58.5 16.5q-66 0 -118.5 -51.5t-73.5 -153.5q-7 -40 -7 -68q0 -63 27.5 -101.5t86.5 -38.5q40 0 87.5 14.5t85.5 42.5l7 -39q-40 -30 -100.5 -49.5t-128.5 -19.5q-112 0 -172.5 52.5z
" />
    <glyph glyph-name="ccedilla" unicode="&#xe7;" horiz-adv-x="541" 
d="M511 480q47 -27 47 -79q0 -13 -3 -27q-4 -20 -22 -37t-39 -17t-31.5 10.5t-10.5 25.5q0 10 8 28q4 7 7 19q4 18 -16.5 34.5t-58.5 16.5q-66 0 -118.5 -51.5t-73.5 -153.5q-7 -40 -7 -68q0 -63 27.5 -101.5t86.5 -38.5q40 0 87.5 14.5t85.5 42.5l7 -39q-33 -24 -79 -42
t-99 -24l-35 -52q53 0 78 -21t25 -53q0 -5 -2 -17q-11 -54 -59 -83.5t-111 -29.5q-30 0 -61.5 9.5t-50.5 25.5l33 43q14 -10 34.5 -15.5t42.5 -5.5q35 0 60 13t31 43q1 3 1 9q0 20 -17 28t-42 8q-16 0 -22 -1l-19 35l42 61q-102 5 -157 57t-55 139q0 24 7 62
q25 122 116.5 190.5t221.5 68.5q94 0 141 -27z" />
    <glyph glyph-name="ccircumflex" unicode="&#x109;" horiz-adv-x="541" 
d="M210 633q37 21 100.5 72t85.5 77h79q10 -25 53.5 -76.5t72.5 -72.5l-79 -51q-28 27 -58 68t-40 68h-4q-20 -26 -67 -67t-85 -69zM85.5 42.5q-60.5 52.5 -60.5 143.5q0 24 7 62q25 122 116.5 190.5t221.5 68.5q94 0 141 -27t47 -79q0 -13 -3 -27q-4 -20 -22 -37t-39 -17
t-31.5 10.5t-10.5 25.5q0 10 8 28q4 7 7 19q4 18 -16.5 34.5t-58.5 16.5q-66 0 -118.5 -51.5t-73.5 -153.5q-7 -40 -7 -68q0 -63 27.5 -101.5t86.5 -38.5q40 0 87.5 14.5t85.5 42.5l7 -39q-40 -30 -100.5 -49.5t-128.5 -19.5q-112 0 -172.5 52.5z" />
    <glyph glyph-name="cdotaccent" unicode="&#x10b;" horiz-adv-x="541" 
d="M355.5 597q-13.5 14 -13.5 37q0 35 23 59.5t57 24.5q24 0 38.5 -14.5t14.5 -37.5q0 -34 -23.5 -58.5t-57.5 -24.5q-25 0 -38.5 14zM85.5 42.5q-60.5 52.5 -60.5 143.5q0 24 7 62q25 122 116.5 190.5t221.5 68.5q94 0 141 -27t47 -79q0 -13 -3 -27q-4 -20 -22 -37t-39 -17
t-31.5 10.5t-10.5 25.5q0 10 8 28q4 7 7 19q4 18 -16.5 34.5t-58.5 16.5q-66 0 -118.5 -51.5t-73.5 -153.5q-7 -40 -7 -68q0 -63 27.5 -101.5t86.5 -38.5q40 0 87.5 14.5t85.5 42.5l7 -39q-40 -30 -100.5 -49.5t-128.5 -19.5q-112 0 -172.5 52.5z" />
    <glyph glyph-name="d" unicode="d" horiz-adv-x="639" 
d="M46 26.5q-27 36.5 -27 94.5q0 32 9 77q15 76 56 145t113.5 114.5t174.5 45.5q44 0 78 -23l34 168q-34 9 -61 19l3 14l235 23l-121 -595q-3 -13 -3 -24q0 -24 17 -24t40 31t41 70l27 -15q-29 -68 -79.5 -112.5t-114.5 -44.5q-38 0 -67 21t-29 64q0 13 3 29l20 99
q-46 -86 -116 -149.5t-145 -63.5q-61 0 -88 36.5zM283 110.5q46 49.5 86.5 112.5t46.5 95l25 120q-23 20 -57 20q-43 0 -82 -39t-67 -98t-40 -119q-7 -33 -7 -77q0 -64 24 -64q25 0 71 49.5z" />
    <glyph glyph-name="eth" unicode="&#xf0;" horiz-adv-x="603" 
d="M477 652q59 -64 90 -139.5t31 -151.5q0 -38 -7 -70q-29 -142 -116 -221.5t-231 -79.5q-110 0 -166 55t-56 143q0 30 6 60q13 64 52 121.5t108 95t165 37.5q24 0 53 -6.5t43 -17.5q-16 68 -60 127l-197 -102l-9 74l48 25l109 58q-43 41 -94 66l54 54q64 -29 122 -76
l159 88l31 -70zM427 325q0 54 -21.5 88.5t-59.5 34.5q-49 0 -91.5 -56t-60.5 -144q-9 -43 -9 -84q0 -55 18 -88t54 -33q55 0 99.5 65t64.5 161q6 29 6 56z" />
    <glyph glyph-name="dcaron" unicode="&#x10f;" horiz-adv-x="783" 
d="M46 26.5q-27 36.5 -27 94.5q0 32 9 77q15 76 56 145t113.5 114.5t174.5 45.5q44 0 78 -23l34 168q-34 9 -61 19l3 14l235 23l-121 -595q-3 -13 -3 -24q0 -24 17 -24t40 31t41 70l27 -15q-29 -68 -79.5 -112.5t-114.5 -44.5q-38 0 -67 21t-29 64q0 13 3 29l20 99
q-46 -86 -116 -149.5t-145 -63.5q-61 0 -88 36.5zM660 439q73 63 93 116q-26 2 -42.5 18.5t-16.5 41.5q0 6 2 16q6 32 33 52.5t58 20.5q34 0 50.5 -17t16.5 -45q0 -6 -2 -20q-12 -61 -54 -122t-95 -101zM283 110.5q46 49.5 86.5 112.5t46.5 95l25 120q-23 20 -57 20
q-43 0 -82 -39t-67 -98t-40 -119q-7 -33 -7 -77q0 -64 24 -64q25 0 71 49.5z" />
    <glyph glyph-name="dcroat" unicode="&#x111;" horiz-adv-x="638" 
d="M46 26.5q-27 36.5 -27 94.5q0 32 9 77q15 76 56 145t113.5 114.5t174.5 45.5q44 0 78 -23l13 70h-148l11 55h149l9 43q-34 9 -61 19l3 14l235 23l-20 -99h46l-11 -55h-47l-89 -441q-3 -13 -3 -24q0 -24 17 -24t40 31t41 70l27 -15q-29 -68 -79.5 -112.5t-114.5 -44.5
q-38 0 -67 21t-29 64q0 13 3 29l20 99q-46 -86 -116 -149.5t-145 -63.5q-61 0 -88 36.5zM283 110.5q46 49.5 86.5 112.5t46.5 95l25 120q-23 20 -57 20q-43 0 -82 -39t-67 -98t-40 -119q-7 -33 -7 -77q0 -64 24 -64q25 0 71 49.5z" />
    <glyph glyph-name="uni1E0D" unicode="&#x1e0d;" horiz-adv-x="639" 
d="M46 26.5q-27 36.5 -27 94.5q0 32 9 77q15 76 56 145t113.5 114.5t174.5 45.5q44 0 78 -23l34 168q-34 9 -61 19l3 14l235 23l-121 -595q-3 -13 -3 -24q0 -24 17 -24t40 31t41 70l27 -15q-29 -68 -79.5 -112.5t-114.5 -44.5q-38 0 -67 21t-29 64q0 13 3 29l20 99
q-46 -86 -116 -149.5t-145 -63.5q-61 0 -88 36.5zM283 110.5q46 49.5 86.5 112.5t46.5 95l25 120q-23 20 -57 20q-43 0 -82 -39t-67 -98t-40 -119q-7 -33 -7 -77q0 -64 24 -64q25 0 71 49.5zM194 -172.5q-14 14.5 -14 36.5q0 34 23 59t56 25q26 0 39.5 -14.5t13.5 -38.5
q0 -33 -23.5 -57.5t-56.5 -24.5q-24 0 -38 14.5z" />
    <glyph glyph-name="uni1E0F" unicode="&#x1e0f;" horiz-adv-x="639" 
d="M46 26.5q-27 36.5 -27 94.5q0 32 9 77q15 76 56 145t113.5 114.5t174.5 45.5q44 0 78 -23l34 168q-34 9 -61 19l3 14l235 23l-121 -595q-3 -13 -3 -24q0 -24 17 -24t40 31t41 70l27 -15q-29 -68 -79.5 -112.5t-114.5 -44.5q-38 0 -67 21t-29 64q0 13 3 29l20 99
q-46 -86 -116 -149.5t-145 -63.5q-61 0 -88 36.5zM283 110.5q46 49.5 86.5 112.5t46.5 95l25 120q-23 20 -57 20q-43 0 -82 -39t-67 -98t-40 -119q-7 -33 -7 -77q0 -64 24 -64q25 0 71 49.5zM64 -58h392l-11 -53h-392z" />
    <glyph glyph-name="e" unicode="e" horiz-adv-x="576" 
d="M529.5 483q54.5 -24 54.5 -80q0 -18 -4 -34q-18 -93 -130.5 -136t-261.5 -47q-2 -65 25 -105t86 -40q41 0 92.5 14.5t92.5 42.5l7 -39q-40 -29 -104 -49t-133 -20q-112 0 -172.5 52t-60.5 143q0 32 7 63q25 123 112 191t219 68q116 0 170.5 -24zM359 453
q-63 0 -104 -58.5t-59 -144.5l-3 -15q244 30 244 153q0 65 -78 65z" />
    <glyph glyph-name="eacute" unicode="&#xe9;" horiz-adv-x="575" 
d="M309 584l-19 39l146 133q10 10 32.5 24t42.5 14q22 0 32.5 -11t10.5 -26q0 -23 -16.5 -41t-50.5 -36zM529.5 483q54.5 -24 54.5 -80q0 -18 -4 -34q-18 -93 -130.5 -136t-261.5 -47q-2 -65 25 -105t86 -40q41 0 92.5 14.5t92.5 42.5l7 -39q-40 -29 -104 -49t-133 -20
q-112 0 -172.5 52t-60.5 143q0 32 7 63q25 123 112 191t219 68q116 0 170.5 -24zM359 453q-63 0 -104 -58.5t-59 -144.5l-3 -15q244 30 244 153q0 65 -78 65z" />
    <glyph glyph-name="ebreve" unicode="&#x115;" horiz-adv-x="575" 
d="M243.5 616q-39.5 34 -38.5 103h91q-1 -5 -1 -15q0 -39 20.5 -52.5t54.5 -13.5q37 0 64.5 16t41.5 65h92q-25 -68 -79.5 -102.5t-129.5 -34.5q-76 0 -115.5 34zM529.5 483q54.5 -24 54.5 -80q0 -18 -4 -34q-18 -93 -130.5 -136t-261.5 -47q-2 -65 25 -105t86 -40
q41 0 92.5 14.5t92.5 42.5l7 -39q-40 -29 -104 -49t-133 -20q-112 0 -172.5 52t-60.5 143q0 32 7 63q25 123 112 191t219 68q116 0 170.5 -24zM359 453q-63 0 -104 -58.5t-59 -144.5l-3 -15q244 30 244 153q0 65 -78 65z" />
    <glyph glyph-name="ecaron" unicode="&#x11b;" horiz-adv-x="575" 
d="M285 660q-43 51 -72 73l78 50q27 -27 57.5 -68t39.5 -67h4q22 27 69.5 68t84.5 67l58 -50q-38 -22 -102 -73t-85 -76h-78q-11 25 -54 76zM529.5 483q54.5 -24 54.5 -80q0 -18 -4 -34q-18 -93 -130.5 -136t-261.5 -47q-2 -65 25 -105t86 -40q41 0 92.5 14.5t92.5 42.5
l7 -39q-40 -29 -104 -49t-133 -20q-112 0 -172.5 52t-60.5 143q0 32 7 63q25 123 112 191t219 68q116 0 170.5 -24zM359 453q-63 0 -104 -58.5t-59 -144.5l-3 -15q244 30 244 153q0 65 -78 65z" />
    <glyph glyph-name="ecircumflex" unicode="&#xea;" horiz-adv-x="575" 
d="M332 651q-47 -41 -86 -69l-57 51q37 21 100.5 72t85.5 77h79q10 -25 53.5 -76.5t72.5 -72.5l-79 -51q-28 27 -58 68t-40 68h-4q-20 -26 -67 -67zM529.5 483q54.5 -24 54.5 -80q0 -18 -4 -34q-18 -93 -130.5 -136t-261.5 -47q-2 -65 25 -105t86 -40q41 0 92.5 14.5
t92.5 42.5l7 -39q-40 -29 -104 -49t-133 -20q-112 0 -172.5 52t-60.5 143q0 32 7 63q25 123 112 191t219 68q116 0 170.5 -24zM359 453q-63 0 -104 -58.5t-59 -144.5l-3 -15q244 30 244 153q0 65 -78 65z" />
    <glyph glyph-name="uni1EBF" unicode="&#x1ebf;" horiz-adv-x="575" 
d="M731 884.5q12 -10.5 12 -28.5q0 -22 -18 -38t-58 -35l-119 -56l-19 35l93 93q40 40 77 40q20 0 32 -10.5zM333 651q-47 -41 -86 -69l-57 51q36 21 100 72t87 77h78q10 -25 53 -76.5t72 -72.5l-78 -51q-28 28 -58 69t-40 67h-3q-21 -26 -68 -67zM529.5 483
q54.5 -24 54.5 -80q0 -18 -4 -34q-18 -93 -130.5 -136t-261.5 -47q-2 -65 25 -105t86 -40q41 0 92.5 14.5t92.5 42.5l7 -39q-40 -29 -104 -49t-133 -20q-112 0 -172.5 52t-60.5 143q0 32 7 63q25 123 112 191t219 68q116 0 170.5 -24zM359 453q-63 0 -104 -58.5t-59 -144.5
l-3 -15q244 30 244 153q0 65 -78 65z" />
    <glyph glyph-name="uni1EC7" unicode="&#x1ec7;" horiz-adv-x="575" 
d="M332 651q-47 -41 -86 -69l-57 51q37 21 100.5 72t85.5 77h79q10 -25 53.5 -76.5t72.5 -72.5l-79 -51q-28 27 -58 68t-40 68h-4q-20 -26 -67 -67zM529.5 483q54.5 -24 54.5 -80q0 -18 -4 -34q-18 -93 -130.5 -136t-261.5 -47q-2 -65 25 -105t86 -40q41 0 92.5 14.5
t92.5 42.5l7 -39q-40 -29 -104 -49t-133 -20q-112 0 -172.5 52t-60.5 143q0 32 7 63q25 123 112 191t219 68q116 0 170.5 -24zM359 453q-63 0 -104 -58.5t-59 -144.5l-3 -15q244 30 244 153q0 65 -78 65zM285 -66.5q14 -14.5 14 -36.5q0 -34 -23 -59t-57 -25q-25 0 -38.5 14
t-13.5 36q0 35 22.5 60t55.5 25q26 0 40 -14.5z" />
    <glyph glyph-name="uni1EC1" unicode="&#x1ec1;" horiz-adv-x="575" 
d="M122.5 810.5q-12.5 12.5 -12.5 27.5q0 5 1 8q5 22 23.5 35.5t40.5 13.5q20 0 34 -11t26 -29l55 -93l-33 -35l-96 56q-26 15 -38.5 27.5zM190 633q36 21 100 72t87 77h78q10 -25 53 -76.5t72 -72.5l-78 -51q-28 28 -58 69t-40 67h-3q-21 -26 -68 -67t-86 -69zM529.5 483
q54.5 -24 54.5 -80q0 -18 -4 -34q-18 -93 -130.5 -136t-261.5 -47q-2 -65 25 -105t86 -40q41 0 92.5 14.5t92.5 42.5l7 -39q-40 -29 -104 -49t-133 -20q-112 0 -172.5 52t-60.5 143q0 32 7 63q25 123 112 191t219 68q116 0 170.5 -24zM359 453q-63 0 -104 -58.5t-59 -144.5
l-3 -15q244 30 244 153q0 65 -78 65z" />
    <glyph glyph-name="uni1EC3" unicode="&#x1ec3;" horiz-adv-x="575" 
d="M680 940q26 -16 26 -50q0 -13 -2 -20q-8 -40 -33.5 -58t-65.5 -22l-17 -44h-59l12 79h36q19 0 35.5 11t21.5 35q1 3 1 9q0 15 -11.5 24.5t-33.5 9.5q-29 0 -56 -13l2 39q36 16 78 16q40 0 66 -16zM333 651q-47 -41 -86 -69l-57 51q36 21 100 72t87 77h78q10 -25 53 -76.5
t72 -72.5l-78 -51q-28 28 -58 69t-40 67h-3q-21 -26 -68 -67zM529.5 483q54.5 -24 54.5 -80q0 -18 -4 -34q-18 -93 -130.5 -136t-261.5 -47q-2 -65 25 -105t86 -40q41 0 92.5 14.5t92.5 42.5l7 -39q-40 -29 -104 -49t-133 -20q-112 0 -172.5 52t-60.5 143q0 32 7 63
q25 123 112 191t219 68q116 0 170.5 -24zM359 453q-63 0 -104 -58.5t-59 -144.5l-3 -15q244 30 244 153q0 65 -78 65z" />
    <glyph glyph-name="uni1EC5" unicode="&#x1ec5;" horiz-adv-x="575" 
d="M645 940q-16 -56 -52 -88t-91 -32q-21 0 -37 7t-36 20q-19 12 -31 17.5t-27 5.5q-23 0 -42 -13.5t-28 -36.5h-56q19 58 56.5 88t88.5 30q27 0 44.5 -8t37.5 -23q13 -10 21.5 -14.5t19.5 -4.5q22 0 43 11t34 41h55zM333 651q-47 -41 -86 -69l-57 51q36 21 100 72t87 77h78
q10 -25 53 -76.5t72 -72.5l-78 -51q-28 28 -58 69t-40 67h-3q-21 -26 -68 -67zM529.5 483q54.5 -24 54.5 -80q0 -18 -4 -34q-18 -93 -130.5 -136t-261.5 -47q-2 -65 25 -105t86 -40q41 0 92.5 14.5t92.5 42.5l7 -39q-40 -29 -104 -49t-133 -20q-112 0 -172.5 52t-60.5 143
q0 32 7 63q25 123 112 191t219 68q116 0 170.5 -24zM359 453q-63 0 -104 -58.5t-59 -144.5l-3 -15q244 30 244 153q0 65 -78 65z" />
    <glyph glyph-name="edieresis" unicode="&#xeb;" horiz-adv-x="575" 
d="M220 597.5q-14 14.5 -14 36.5q0 34 23 59t56 25q25 0 38.5 -14.5t13.5 -38.5q0 -33 -23.5 -57.5t-55.5 -24.5q-24 0 -38 14.5zM455.5 597q-13.5 14 -13.5 36q0 35 23 60t56 25q26 0 39.5 -14.5t13.5 -38.5q0 -33 -24 -57.5t-57 -24.5q-24 0 -37.5 14zM529.5 483
q54.5 -24 54.5 -80q0 -18 -4 -34q-18 -93 -130.5 -136t-261.5 -47q-2 -65 25 -105t86 -40q41 0 92.5 14.5t92.5 42.5l7 -39q-40 -29 -104 -49t-133 -20q-112 0 -172.5 52t-60.5 143q0 32 7 63q25 123 112 191t219 68q116 0 170.5 -24zM359 453q-63 0 -104 -58.5t-59 -144.5
l-3 -15q244 30 244 153q0 65 -78 65z" />
    <glyph glyph-name="edotaccent" unicode="&#x117;" horiz-adv-x="575" 
d="M345.5 597q-13.5 14 -13.5 36q0 35 23 60t57 25q24 0 38 -14.5t14 -36.5q0 -34 -23.5 -59t-56.5 -25q-25 0 -38.5 14zM529.5 483q54.5 -24 54.5 -80q0 -18 -4 -34q-18 -93 -130.5 -136t-261.5 -47q-2 -65 25 -105t86 -40q41 0 92.5 14.5t92.5 42.5l7 -39
q-40 -29 -104 -49t-133 -20q-112 0 -172.5 52t-60.5 143q0 32 7 63q25 123 112 191t219 68q116 0 170.5 -24zM359 453q-63 0 -104 -58.5t-59 -144.5l-3 -15q244 30 244 153q0 65 -78 65z" />
    <glyph glyph-name="uni1EB9" unicode="&#x1eb9;" horiz-adv-x="575" 
d="M529.5 483q54.5 -24 54.5 -80q0 -18 -4 -34q-18 -93 -130.5 -136t-261.5 -47q-2 -65 25 -105t86 -40q41 0 92.5 14.5t92.5 42.5l7 -39q-40 -29 -104 -49t-133 -20q-112 0 -172.5 52t-60.5 143q0 32 7 63q25 123 112 191t219 68q116 0 170.5 -24zM359 453
q-63 0 -104 -58.5t-59 -144.5l-3 -15q244 30 244 153q0 65 -78 65zM269.5 -66.5q14.5 -14.5 14.5 -37.5q0 -34 -23 -58.5t-58 -24.5q-24 0 -37.5 14.5t-13.5 37.5q0 10 1 15q6 29 27 48.5t50 19.5q25 0 39.5 -14.5z" />
    <glyph glyph-name="egrave" unicode="&#xe8;" horiz-adv-x="575" 
d="M285 738q0 7 1 10q4 18 20.5 32t41.5 14q23 0 38 -13t22 -25l93 -133l-35 -39l-140 96q-41 28 -41 58zM529.5 483q54.5 -24 54.5 -80q0 -18 -4 -34q-18 -93 -130.5 -136t-261.5 -47q-2 -65 25 -105t86 -40q41 0 92.5 14.5t92.5 42.5l7 -39q-40 -29 -104 -49t-133 -20
q-112 0 -172.5 52t-60.5 143q0 32 7 63q25 123 112 191t219 68q116 0 170.5 -24zM359 453q-63 0 -104 -58.5t-59 -144.5l-3 -15q244 30 244 153q0 65 -78 65z" />
    <glyph glyph-name="uni1EBB" unicode="&#x1ebb;" horiz-adv-x="575" 
d="M402 704.5q19 12.5 25 39.5q1 3 1 9q0 18 -13.5 29.5t-38.5 11.5q-34 0 -63 -16l2 42q40 19 89 19q45 0 75 -18.5t30 -57.5q0 -6 -2 -20q-9 -45 -38 -65t-74 -24l-25 -71h-67l18 109h41q21 0 40 12.5zM529.5 483q54.5 -24 54.5 -80q0 -18 -4 -34q-18 -93 -130.5 -136
t-261.5 -47q-2 -65 25 -105t86 -40q41 0 92.5 14.5t92.5 42.5l7 -39q-40 -29 -104 -49t-133 -20q-112 0 -172.5 52t-60.5 143q0 32 7 63q25 123 112 191t219 68q116 0 170.5 -24zM359 453q-63 0 -104 -58.5t-59 -144.5l-3 -15q244 30 244 153q0 65 -78 65z" />
    <glyph glyph-name="emacron" unicode="&#x113;" horiz-adv-x="575" 
d="M564 584h-392l11 52h392zM529.5 483q54.5 -24 54.5 -80q0 -18 -4 -34q-18 -93 -130.5 -136t-261.5 -47q-2 -65 25 -105t86 -40q41 0 92.5 14.5t92.5 42.5l7 -39q-40 -29 -104 -49t-133 -20q-112 0 -172.5 52t-60.5 143q0 32 7 63q25 123 112 191t219 68q116 0 170.5 -24z
M359 453q-63 0 -104 -58.5t-59 -144.5l-3 -15q244 30 244 153q0 65 -78 65z" />
    <glyph glyph-name="eogonek" unicode="&#x119;" horiz-adv-x="575" 
d="M529.5 483q54.5 -24 54.5 -80q0 -18 -4 -34q-18 -93 -130.5 -136t-261.5 -47q-2 -65 25 -105t86 -40q41 0 92.5 14.5t92.5 42.5l7 -39q-13 -9 -25 -16q-21 -15 -39.5 -38.5t-22.5 -45.5q-1 -4 -1 -12q0 -18 13 -29t36 -11q33 0 72 23l-14 -70q-22 -13 -55 -21t-67 -8
q-58 0 -89 20t-31 56q0 5 2 17q8 37 39 69q-27 -3 -55 -3q-112 0 -172.5 52t-60.5 143q0 32 7 63q25 123 112 191t219 68q116 0 170.5 -24zM359 453q-63 0 -104 -58.5t-59 -144.5l-3 -15q244 30 244 153q0 65 -78 65z" />
    <glyph glyph-name="uni1EBD" unicode="&#x1ebd;" horiz-adv-x="575" 
d="M259 621.5q-16 -13.5 -24 -37.5h-77q21 60 59 91t91 31q29 0 49.5 -8.5t43.5 -23.5q15 -10 25.5 -14.5t21.5 -4.5q21 0 36.5 10.5t29.5 42.5h75q-37 -124 -148 -124q-22 0 -43.5 8t-47.5 23q-5 2 -17 8t-21 9t-16 3q-21 0 -37 -13.5zM529.5 483q54.5 -24 54.5 -80
q0 -18 -4 -34q-18 -93 -130.5 -136t-261.5 -47q-2 -65 25 -105t86 -40q41 0 92.5 14.5t92.5 42.5l7 -39q-40 -29 -104 -49t-133 -20q-112 0 -172.5 52t-60.5 143q0 32 7 63q25 123 112 191t219 68q116 0 170.5 -24zM359 453q-63 0 -104 -58.5t-59 -144.5l-3 -15
q244 30 244 153q0 65 -78 65z" />
    <glyph glyph-name="f" unicode="f" horiz-adv-x="449" 
d="M550.5 699.5q42.5 -26.5 42.5 -75.5q0 -13 -3 -28q-4 -20 -21 -37t-38 -17t-31.5 10t-10.5 25q0 6 1 9q1 6 7 18t8 19q4 21 -11.5 32.5t-45.5 11.5q-42 0 -69 -30.5t-38 -81.5l-12 -57h140l-10 -53h-140l-92 -453q-18 -88 -84 -133t-168 -45q-88 0 -127 25.5t-39 73.5
q0 14 3 31q4 20 21.5 37t38.5 17t31 -10t10 -25q0 -6 -1 -9q-2 -6 -8.5 -20t-6.5 -26q0 -17 15 -26t42 -9q42 0 69 30.5t36 81.5l94 460h-89l11 53h89l10 50q18 88 81 133t164 45q89 0 131.5 -26.5z" />
    <glyph glyph-name="g" unicode="g" horiz-adv-x="561" 
d="M631.5 512q13.5 -16 13.5 -42q0 -15 -2 -23q-5 -20 -23 -37t-39 -17q-20 0 -27 9t-10 26q-2 11 -5 16t-10 5q-6 0 -16 -6q22 -28 22 -68q0 -19 -4 -35q-17 -80 -88 -122.5t-184 -42.5q-55 0 -101 11q-15 -12 -18 -30q-5 -20 14 -25t61 -5h138q62 0 100.5 -28.5
t38.5 -78.5q0 -14 -3 -29q-31 -152 -303 -152q-107 0 -158 24.5t-51 75.5q0 11 3 25q3 20 17.5 40t39.5 33q-16 20 -16 49q0 33 21 66.5t61 57.5q-54 34 -54 96q0 11 4 35q17 81 87.5 124t185.5 43q96 0 150 -31q31 26 57.5 39t59.5 13q25 0 38.5 -16zM370 382
q0 33 -13.5 52t-40.5 19q-37 0 -63 -31.5t-35 -81.5q-5 -25 -5 -42q0 -33 14 -52t42 -19q36 0 61 31.5t35 81.5q5 25 5 42zM110 8h-2q-12 -18 -15 -36q-2 -12 -2 -18q0 -37 34.5 -53t83.5 -16q60 0 109 21t49 66q0 24 -24.5 30t-79.5 6h-153z" />
    <glyph glyph-name="gbreve" unicode="&#x11f;" horiz-adv-x="561" 
d="M240.5 616q-39.5 34 -38.5 103h91q-1 -5 -1 -15q0 -39 20.5 -52.5t54.5 -13.5q37 0 64.5 16t41.5 65h92q-24 -68 -78.5 -102.5t-130.5 -34.5t-115.5 34zM631.5 512q13.5 -16 13.5 -42q0 -15 -2 -23q-5 -20 -23 -37t-39 -17q-20 0 -27 9t-10 26q-2 11 -5 16t-10 5
q-6 0 -16 -6q22 -28 22 -68q0 -19 -4 -35q-17 -80 -88 -122.5t-184 -42.5q-55 0 -101 11q-15 -12 -18 -30q-5 -20 14 -25t61 -5h138q62 0 100.5 -28.5t38.5 -78.5q0 -14 -3 -29q-31 -152 -303 -152q-107 0 -158 24.5t-51 75.5q0 11 3 25q3 20 17.5 40t39.5 33q-16 20 -16 49
q0 33 21 66.5t61 57.5q-54 34 -54 96q0 11 4 35q17 81 87.5 124t185.5 43q96 0 150 -31q31 26 57.5 39t59.5 13q25 0 38.5 -16zM370 382q0 33 -13.5 52t-40.5 19q-37 0 -63 -31.5t-35 -81.5q-5 -25 -5 -42q0 -33 14 -52t42 -19q36 0 61 31.5t35 81.5q5 25 5 42zM110 8h-2
q-12 -18 -15 -36q-2 -12 -2 -18q0 -37 34.5 -53t83.5 -16q60 0 109 21t49 66q0 24 -24.5 30t-79.5 6h-153z" />
    <glyph glyph-name="gcaron" unicode="&#x1e7;" horiz-adv-x="561" 
d="M259 660q-43 51 -72 73l78 50q27 -26 57.5 -67.5t40.5 -67.5h3q22 27 69.5 68t84.5 67l58 -50q-38 -22 -102 -73t-85 -76h-78q-11 25 -54 76zM631.5 512q13.5 -16 13.5 -42q0 -15 -2 -23q-5 -20 -23 -37t-39 -17q-20 0 -27 9t-10 26q-2 11 -5 16t-10 5q-6 0 -16 -6
q22 -28 22 -68q0 -19 -4 -35q-17 -80 -88 -122.5t-184 -42.5q-55 0 -101 11q-15 -12 -18 -30q-5 -20 14 -25t61 -5h138q62 0 100.5 -28.5t38.5 -78.5q0 -14 -3 -29q-31 -152 -303 -152q-107 0 -158 24.5t-51 75.5q0 11 3 25q3 20 17.5 40t39.5 33q-16 20 -16 49
q0 33 21 66.5t61 57.5q-54 34 -54 96q0 11 4 35q17 81 87.5 124t185.5 43q96 0 150 -31q31 26 57.5 39t59.5 13q25 0 38.5 -16zM370 382q0 33 -13.5 52t-40.5 19q-37 0 -63 -31.5t-35 -81.5q-5 -25 -5 -42q0 -33 14 -52t42 -19q36 0 61 31.5t35 81.5q5 25 5 42zM110 8h-2
q-12 -18 -15 -36q-2 -12 -2 -18q0 -37 34.5 -53t83.5 -16q60 0 109 21t49 66q0 24 -24.5 30t-79.5 6h-153z" />
    <glyph glyph-name="gcircumflex" unicode="&#x11d;" horiz-adv-x="561" 
d="M315 651q-47 -41 -86 -69l-57 51q36 21 100 72t86 77h78q10 -25 53.5 -76.5t72.5 -72.5l-78 -51q-28 27 -58 68t-40 68h-4q-20 -26 -67 -67zM631.5 512q13.5 -16 13.5 -42q0 -15 -2 -23q-5 -20 -23 -37t-39 -17q-20 0 -27 9t-10 26q-2 11 -5 16t-10 5q-6 0 -16 -6
q22 -28 22 -68q0 -19 -4 -35q-17 -80 -88 -122.5t-184 -42.5q-55 0 -101 11q-15 -12 -18 -30q-5 -20 14 -25t61 -5h138q62 0 100.5 -28.5t38.5 -78.5q0 -14 -3 -29q-31 -152 -303 -152q-107 0 -158 24.5t-51 75.5q0 11 3 25q3 20 17.5 40t39.5 33q-16 20 -16 49
q0 33 21 66.5t61 57.5q-54 34 -54 96q0 11 4 35q17 81 87.5 124t185.5 43q96 0 150 -31q31 26 57.5 39t59.5 13q25 0 38.5 -16zM370 382q0 33 -13.5 52t-40.5 19q-37 0 -63 -31.5t-35 -81.5q-5 -25 -5 -42q0 -33 14 -52t42 -19q36 0 61 31.5t35 81.5q5 25 5 42zM110 8h-2
q-12 -18 -15 -36q-2 -12 -2 -18q0 -37 34.5 -53t83.5 -16q60 0 109 21t49 66q0 24 -24.5 30t-79.5 6h-153z" />
    <glyph glyph-name="gcommaaccent" unicode="&#x123;" horiz-adv-x="561" 
d="M305.5 594q-16.5 17 -16.5 45q0 6 2 20q12 61 53.5 122t94.5 101l44 -40q-73 -63 -94 -116q27 -2 43.5 -18.5t16.5 -41.5q0 -39 -29 -64t-64 -25q-34 0 -50.5 17zM631.5 512q13.5 -16 13.5 -42q0 -15 -2 -23q-5 -20 -23 -37t-39 -17q-20 0 -27 9t-10 26q-2 11 -5 16
t-10 5q-6 0 -16 -6q22 -28 22 -68q0 -19 -4 -35q-17 -80 -88 -122.5t-184 -42.5q-55 0 -101 11q-15 -12 -18 -30q-5 -20 14 -25t61 -5h138q62 0 100.5 -28.5t38.5 -78.5q0 -14 -3 -29q-31 -152 -303 -152q-107 0 -158 24.5t-51 75.5q0 11 3 25q3 20 17.5 40t39.5 33
q-16 20 -16 49q0 33 21 66.5t61 57.5q-54 34 -54 96q0 11 4 35q17 81 87.5 124t185.5 43q96 0 150 -31q31 26 57.5 39t59.5 13q25 0 38.5 -16zM370 382q0 33 -13.5 52t-40.5 19q-37 0 -63 -31.5t-35 -81.5q-5 -25 -5 -42q0 -33 14 -52t42 -19q36 0 61 31.5t35 81.5
q5 25 5 42zM110 8h-2q-12 -18 -15 -36q-2 -12 -2 -18q0 -37 34.5 -53t83.5 -16q60 0 109 21t49 66q0 24 -24.5 30t-79.5 6h-153z" />
    <glyph glyph-name="gdotaccent" unicode="&#x121;" horiz-adv-x="561" 
d="M315.5 597q-13.5 14 -13.5 36q0 35 22.5 60t57.5 25q25 0 38.5 -14.5t13.5 -38.5q0 -33 -23.5 -57.5t-56.5 -24.5q-25 0 -38.5 14zM631.5 512q13.5 -16 13.5 -42q0 -15 -2 -23q-5 -20 -23 -37t-39 -17q-20 0 -27 9t-10 26q-2 11 -5 16t-10 5q-6 0 -16 -6q22 -28 22 -68
q0 -19 -4 -35q-17 -80 -88 -122.5t-184 -42.5q-55 0 -101 11q-15 -12 -18 -30q-5 -20 14 -25t61 -5h138q62 0 100.5 -28.5t38.5 -78.5q0 -14 -3 -29q-31 -152 -303 -152q-107 0 -158 24.5t-51 75.5q0 11 3 25q3 20 17.5 40t39.5 33q-16 20 -16 49q0 33 21 66.5t61 57.5
q-54 34 -54 96q0 11 4 35q17 81 87.5 124t185.5 43q96 0 150 -31q31 26 57.5 39t59.5 13q25 0 38.5 -16zM370 382q0 33 -13.5 52t-40.5 19q-37 0 -63 -31.5t-35 -81.5q-5 -25 -5 -42q0 -33 14 -52t42 -19q36 0 61 31.5t35 81.5q5 25 5 42zM110 8h-2q-12 -18 -15 -36
q-2 -12 -2 -18q0 -37 34.5 -53t83.5 -16q60 0 109 21t49 66q0 24 -24.5 30t-79.5 6h-153z" />
    <glyph glyph-name="uni1E21" unicode="&#x1e21;" horiz-adv-x="561" 
d="M547 584h-392l11 52h391zM631.5 512q13.5 -16 13.5 -42q0 -15 -2 -23q-5 -20 -23 -37t-39 -17q-20 0 -27 9t-10 26q-2 11 -5 16t-10 5q-6 0 -16 -6q22 -28 22 -68q0 -19 -4 -35q-17 -80 -88 -122.5t-184 -42.5q-55 0 -101 11q-15 -12 -18 -30q-5 -20 14 -25t61 -5h138
q62 0 100.5 -28.5t38.5 -78.5q0 -14 -3 -29q-31 -152 -303 -152q-107 0 -158 24.5t-51 75.5q0 11 3 25q3 20 17.5 40t39.5 33q-16 20 -16 49q0 33 21 66.5t61 57.5q-54 34 -54 96q0 11 4 35q17 81 87.5 124t185.5 43q96 0 150 -31q31 26 57.5 39t59.5 13q25 0 38.5 -16z
M370 382q0 33 -13.5 52t-40.5 19q-37 0 -63 -31.5t-35 -81.5q-5 -25 -5 -42q0 -33 14 -52t42 -19q36 0 61 31.5t35 81.5q5 25 5 42zM110 8h-2q-12 -18 -15 -36q-2 -12 -2 -18q0 -37 34.5 -53t83.5 -16q60 0 109 21t49 66q0 24 -24.5 30t-79.5 6h-153z" />
    <glyph glyph-name="h" unicode="h" horiz-adv-x="712" 
d="M707 147q-30 -68 -80 -112.5t-114 -44.5q-39 0 -67 22t-28 66q0 15 3 31l32 156q10 48 16.5 86.5t6.5 57.5q0 24 -9 34t-30 10q-26 0 -68.5 -38t-89.5 -99l-64 -316l-169 -10l134 658q-35 9 -60 20l3 13l235 23l-65 -318q99 121 208 121q68 0 104.5 -27.5t36.5 -80.5
q0 -17 -5 -42l-50 -247q-4 -20 -4 -27q0 -22 16 -22t39 31t42 70z" />
    <glyph glyph-name="hbar" unicode="&#x127;" horiz-adv-x="711" 
d="M707 147q-30 -68 -80 -112.5t-114 -44.5q-39 0 -67 22t-28 66q0 15 3 31l32 156q10 48 16.5 86.5t6.5 57.5q0 24 -9 34t-30 10q-26 0 -68.5 -38t-89.5 -99l-64 -316l-169 -10l113 557h-73l11 55h74l9 46q-35 9 -60 20l3 13l235 23l-21 -102h120l-11 -55h-120l-33 -161
q99 121 208 121q68 0 104.5 -27.5t36.5 -80.5q0 -17 -5 -42l-50 -247q-4 -20 -4 -27q0 -22 16 -22t39 31t42 70z" />
    <glyph glyph-name="uni1E2B" unicode="&#x1e2b;" horiz-adv-x="711" 
d="M707 147q-30 -68 -80 -112.5t-114 -44.5q-39 0 -67 22t-28 66q0 15 3 31l32 156q10 48 16.5 86.5t6.5 57.5q0 24 -9 34t-30 10q-26 0 -68.5 -38t-89.5 -99l-64 -316l-169 -10l134 658q-35 9 -60 20l3 13l235 23l-65 -318q99 121 208 121q68 0 104.5 -27.5t36.5 -80.5
q0 -17 -5 -42l-50 -247q-4 -20 -4 -27q0 -22 16 -22t39 31t42 70zM346.5 -115.5q27.5 16.5 41.5 65.5h93q-26 -69 -80 -103.5t-129 -34.5q-76 0 -116 34.5t-38 103.5h92q-1 -6 -1 -17q0 -39 20.5 -52t53.5 -13q36 0 63.5 16.5z" />
    <glyph glyph-name="hcircumflex" unicode="&#x125;" horiz-adv-x="711" 
d="M423 828q-47 -41 -85 -69l-58 51q37 21 100.5 72t85.5 77h79q10 -25 53.5 -76.5t72.5 -72.5l-79 -51q-28 27 -58 68t-40 68h-4q-20 -26 -67 -67zM707 147q-30 -68 -80 -112.5t-114 -44.5q-39 0 -67 22t-28 66q0 15 3 31l32 156q10 48 16.5 86.5t6.5 57.5q0 24 -9 34
t-30 10q-26 0 -68.5 -38t-89.5 -99l-64 -316l-169 -10l134 658q-35 9 -60 20l3 13l235 23l-65 -318q99 121 208 121q68 0 104.5 -27.5t36.5 -80.5q0 -17 -5 -42l-50 -247q-4 -20 -4 -27q0 -22 16 -22t39 31t42 70z" />
    <glyph glyph-name="uni1E25" unicode="&#x1e25;" horiz-adv-x="711" 
d="M707 147q-30 -68 -80 -112.5t-114 -44.5q-39 0 -67 22t-28 66q0 15 3 31l32 156q10 48 16.5 86.5t6.5 57.5q0 24 -9 34t-30 10q-26 0 -68.5 -38t-89.5 -99l-64 -316l-169 -10l134 658q-35 9 -60 20l3 13l235 23l-65 -318q99 121 208 121q68 0 104.5 -27.5t36.5 -80.5
q0 -17 -5 -42l-50 -247q-4 -20 -4 -27q0 -22 16 -22t39 31t42 70zM338 -66.5q14 -14.5 14 -36.5q0 -34 -23.5 -59t-57.5 -25q-24 0 -37.5 14.5t-13.5 37.5q0 10 1 15q6 29 27 48.5t50 19.5q26 0 40 -14.5z" />
    <glyph glyph-name="i" unicode="i" horiz-adv-x="356" 
d="M184 556.5q-18 17.5 -18 46.5q0 41 30 71t71 30q31 0 48.5 -18t17.5 -46q0 -42 -29 -71.5t-71 -29.5q-31 0 -49 17.5zM95.5 10.5q-28.5 20.5 -28.5 64.5q0 13 3 29l70 347q-14 3 -62 19l3 13l236 23l-80 -395q-4 -20 -4 -29q0 -21 15 -21q16 0 39.5 30.5t42.5 70.5
l27 -15q-30 -68 -80.5 -112.5t-113.5 -44.5q-39 0 -67.5 20.5z" />
    <glyph glyph-name="dotlessi" unicode="&#x131;" horiz-adv-x="375" 
d="M105 10.5q-29 20.5 -29 64.5q0 13 3 29l70 347q-14 3 -33.5 9.5t-27.5 9.5l3 13l236 23l-81 -395q-3 -15 -3 -27q0 -23 15 -23q16 0 38.5 30t43.5 71l26 -15q-30 -68 -80 -112.5t-114 -44.5q-38 0 -67 20.5z" />
    <glyph glyph-name="iacute" unicode="&#xed;" horiz-adv-x="375" 
d="M148 623l145 133q44 38 76 38q22 0 32.5 -11t10.5 -26q0 -23 -16.5 -41t-50.5 -36l-178 -96zM105 10.5q-29 20.5 -29 64.5q0 13 3 29l70 347q-14 3 -33.5 9.5t-27.5 9.5l3 13l236 23l-81 -395q-3 -15 -3 -27q0 -23 15 -23q16 0 38.5 30t43.5 71l26 -15
q-30 -68 -80 -112.5t-114 -44.5q-38 0 -67 20.5z" />
    <glyph glyph-name="ibreve" unicode="&#x12d;" horiz-adv-x="375" 
d="M143 617.5q-40 34.5 -38 103.5h92q-1 -6 -1 -17q0 -39 20.5 -52t53.5 -13q37 0 64.5 16.5t42.5 65.5h92q-25 -69 -79.5 -103.5t-130.5 -34.5t-116 34.5zM105 10.5q-29 20.5 -29 64.5q0 13 3 29l70 347q-14 3 -33.5 9.5t-27.5 9.5l3 13l236 23l-81 -395q-3 -15 -3 -27
q0 -23 15 -23q16 0 38.5 30t43.5 71l26 -15q-30 -68 -80 -112.5t-114 -44.5q-38 0 -67 20.5z" />
    <glyph glyph-name="uni01D0" unicode="&#x1d0;" horiz-adv-x="375" 
d="M158.5 660.5q-43.5 50.5 -72.5 72.5l79 50q27 -26 57 -67t41 -68h4q21 27 68 68t85 67l58 -50q-38 -22 -102 -73t-84 -76h-79q-11 26 -54.5 76.5zM105 10.5q-29 20.5 -29 64.5q0 13 3 29l70 347q-14 3 -33.5 9.5t-27.5 9.5l3 13l236 23l-81 -395q-3 -15 -3 -27
q0 -23 15 -23q16 0 38.5 30t43.5 71l26 -15q-30 -68 -80 -112.5t-114 -44.5q-38 0 -67 20.5z" />
    <glyph glyph-name="icircumflex" unicode="&#xee;" horiz-adv-x="375" 
d="M74 633q37 21 100.5 72t85.5 77h79q10 -25 53 -76.5t72 -72.5l-78 -51q-28 27 -58 68t-40 68h-4q-20 -26 -67 -67t-86 -69zM105 10.5q-29 20.5 -29 64.5q0 13 3 29l70 347q-14 3 -33.5 9.5t-27.5 9.5l3 13l236 23l-81 -395q-3 -15 -3 -27q0 -23 15 -23q16 0 38.5 30
t43.5 71l26 -15q-30 -68 -80 -112.5t-114 -44.5q-38 0 -67 20.5z" />
    <glyph glyph-name="idieresis" unicode="&#xef;" horiz-adv-x="375" 
d="M102.5 597q-13.5 14 -13.5 36q0 35 23 60t56 25q25 0 38.5 -14.5t13.5 -38.5q0 -33 -23.5 -57.5t-55.5 -24.5q-25 0 -38.5 14zM338.5 597q-13.5 14 -13.5 36q0 35 22.5 60t56.5 25q26 0 39.5 -14.5t13.5 -38.5q0 -33 -24 -57.5t-57 -24.5q-24 0 -37.5 14zM105 10.5
q-29 20.5 -29 64.5q0 13 3 29l70 347q-14 3 -33.5 9.5t-27.5 9.5l3 13l236 23l-81 -395q-3 -15 -3 -27q0 -23 15 -23q16 0 38.5 30t43.5 71l26 -15q-30 -68 -80 -112.5t-114 -44.5q-38 0 -67 20.5z" />
    <glyph glyph-name="uni1ECB" unicode="&#x1ecb;" horiz-adv-x="356" 
d="M184 556.5q-18 17.5 -18 46.5q0 41 30 71t71 30q31 0 48.5 -18t17.5 -46q0 -42 -29 -71.5t-71 -29.5q-31 0 -49 17.5zM95.5 10.5q-28.5 20.5 -28.5 64.5q0 13 3 29l70 347q-14 3 -62 19l3 13l236 23l-80 -395q-4 -20 -4 -29q0 -21 15 -21q16 0 39.5 30.5t42.5 70.5
l27 -15q-30 -68 -80.5 -112.5t-113.5 -44.5q-39 0 -67.5 20.5zM53.5 -173q-13.5 14 -13.5 36q0 35 22.5 60t56.5 25q26 0 39.5 -14.5t13.5 -38.5q0 -33 -23.5 -57.5t-56.5 -24.5q-25 0 -38.5 14z" />
    <glyph glyph-name="igrave" unicode="&#xec;" horiz-adv-x="375" 
d="M209 680q-41 28 -41 58q0 7 1 10q3 17 19.5 31.5t42.5 14.5q23 0 38 -13t22 -25l93 -133l-35 -39zM105 10.5q-29 20.5 -29 64.5q0 13 3 29l70 347q-14 3 -33.5 9.5t-27.5 9.5l3 13l236 23l-81 -395q-3 -15 -3 -27q0 -23 15 -23q16 0 38.5 30t43.5 71l26 -15
q-30 -68 -80 -112.5t-114 -44.5q-38 0 -67 20.5z" />
    <glyph glyph-name="uni1EC9" unicode="&#x1ec9;" horiz-adv-x="375" 
d="M235 692h40q22 0 41 12.5t24 39.5q1 3 1 9q0 18 -13 29.5t-38 11.5q-35 0 -64 -16l2 42q18 8 42 13.5t47 5.5q45 0 75 -18.5t30 -55.5q0 -14 -2 -22q-8 -45 -37 -65t-74 -24l-25 -71h-67zM105 10.5q-29 20.5 -29 64.5q0 13 3 29l70 347q-14 3 -33.5 9.5t-27.5 9.5l3 13
l236 23l-81 -395q-3 -15 -3 -27q0 -23 15 -23q16 0 38.5 30t43.5 71l26 -15q-30 -68 -80 -112.5t-114 -44.5q-38 0 -67 20.5z" />
    <glyph glyph-name="ij" unicode="&#x133;" horiz-adv-x="720" 
d="M184 556.5q-18 17.5 -18 46.5q0 41 30 71t71 30q31 0 48.5 -18t17.5 -46q0 -42 -29 -71.5t-71 -29.5q-31 0 -49 17.5zM565 556.5q-18 17.5 -18 46.5q0 41 30 71t71 30q30 0 48 -17.5t18 -46.5q0 -42 -29.5 -71.5t-70.5 -29.5q-31 0 -49 17.5zM95.5 10.5
q-28.5 20.5 -28.5 64.5q0 13 3 29l70 347q-14 3 -62 19l3 13l236 23l-80 -395q-4 -20 -4 -29q0 -21 15 -21q16 0 39.5 30.5t42.5 70.5l27 -15q-30 -68 -80.5 -112.5t-113.5 -44.5q-39 0 -67.5 20.5zM212.5 -170.5q-39.5 25.5 -39.5 73.5q0 14 3 31q5 20 22.5 37t38.5 17
t30.5 -10t9.5 -25q0 -7 -1 -10q-1 -7 -7.5 -21t-6.5 -25q0 -34 55 -34q43 0 70.5 31t36.5 81l97 476q-14 3 -33.5 9.5t-27.5 9.5l2 13l237 23l-109 -531q-17 -85 -83 -128t-167 -43q-88 0 -127.5 25.5z" />
    <glyph glyph-name="imacron" unicode="&#x12b;" horiz-adv-x="375" 
d="M75 636h391l-10 -52h-392zM105 10.5q-29 20.5 -29 64.5q0 13 3 29l70 347q-14 3 -33.5 9.5t-27.5 9.5l3 13l236 23l-81 -395q-3 -15 -3 -27q0 -23 15 -23q16 0 38.5 30t43.5 71l26 -15q-30 -68 -80 -112.5t-114 -44.5q-38 0 -67 20.5z" />
    <glyph glyph-name="iogonek" unicode="&#x12f;" horiz-adv-x="356" 
d="M184 556.5q-18 17.5 -18 46.5q0 41 30 71t71 30q31 0 48.5 -18t17.5 -46q0 -42 -29 -71.5t-71 -29.5q-31 0 -49 17.5zM171 -46q-19 -27 -19 -49q0 -18 13 -29.5t36 -11.5q33 0 72 23l-13 -70q-22 -13 -55.5 -21t-67.5 -8q-57 0 -88 20t-31 55t30.5 75t76.5 58
q-26 7 -42 26.5t-16 52.5q0 13 3 29l70 347q-14 3 -62 19l3 13l236 23l-80 -395q-4 -20 -4 -29q0 -21 15 -21q16 0 39.5 30.5t42.5 70.5l27 -15q-24 -54 -61 -94t-83 -55q-23 -17 -42 -44z" />
    <glyph glyph-name="itilde" unicode="&#x129;" horiz-adv-x="375" 
d="M115 675q38 31 91 31q29 0 49.5 -8.5t43.5 -23.5q15 -10 25.5 -14.5t21.5 -4.5q21 0 36.5 10.5t29.5 42.5h75q-37 -124 -147 -124q-22 0 -43 8t-50 23q-36 20 -52 20q-21 0 -37 -13.5t-25 -37.5h-77q21 60 59 91zM105 10.5q-29 20.5 -29 64.5q0 13 3 29l70 347
q-14 3 -33.5 9.5t-27.5 9.5l3 13l236 23l-81 -395q-3 -15 -3 -27q0 -23 15 -23q16 0 38.5 30t43.5 71l26 -15q-30 -68 -80 -112.5t-114 -44.5q-38 0 -67 20.5z" />
    <glyph glyph-name="j" unicode="j" horiz-adv-x="364" 
d="M209 556.5q-18 17.5 -18 46.5q0 41 30 71t71 30q31 0 48.5 -18t17.5 -47q0 -42 -29.5 -71t-70.5 -29q-31 0 -49 17.5zM-143.5 -170.5q-39.5 25.5 -39.5 73.5q0 14 3 31q5 20 22.5 37t38.5 17q20 0 30 -10t10 -25q0 -7 -1 -10q-1 -6 -6.5 -17.5t-6.5 -18.5q-1 -4 -1 -10
q0 -34 55 -34q42 0 69.5 30.5t37.5 81.5l97 476q-14 3 -62 19l3 13l236 23l-108 -531q-17 -85 -83.5 -128t-167.5 -43q-87 0 -126.5 25.5z" />
    <glyph glyph-name="uni0237" unicode="&#x237;" horiz-adv-x="364" 
d="M-143.5 -170.5q-39.5 25.5 -39.5 73.5q0 14 3 31q5 20 22.5 37t38.5 17q20 0 30 -10t10 -25q0 -7 -1 -10q-1 -6 -7.5 -19.5t-6.5 -24.5q0 -36 55 -36q42 0 69.5 30.5t37.5 81.5l97 476q-14 3 -62 19l3 13l236 23l-108 -531q-17 -85 -83.5 -128t-167.5 -43
q-87 0 -126.5 25.5z" />
    <glyph glyph-name="jcircumflex" unicode="&#x135;" horiz-adv-x="364" 
d="M69 633q37 21 100.5 72t85.5 77h79q10 -25 53.5 -76.5t72.5 -72.5l-79 -51q-28 27 -58 68t-40 68h-4q-20 -26 -67 -67t-86 -69zM-143.5 -170.5q-39.5 25.5 -39.5 73.5q0 14 3 31q5 20 22.5 37t38.5 17q20 0 30 -10t10 -25q0 -7 -1 -10q-1 -6 -7.5 -19.5t-6.5 -24.5
q0 -36 55 -36q42 0 69.5 30.5t37.5 81.5l97 476q-14 3 -62 19l3 13l236 23l-108 -531q-17 -85 -83.5 -128t-167.5 -43q-87 0 -126.5 25.5z" />
    <glyph glyph-name="k" unicode="k" horiz-adv-x="696" 
d="M685 499q13 -16 13 -43q0 -6 -2 -22q-4 -19 -22.5 -36.5t-39.5 -17.5t-28 9t-10 26q-2 11 -5 16t-10 5q-8 0 -22 -11l-141 -111l108 -182q19 -36 47 -36q37 0 76 84l25 -18q-9 -30 -33 -70.5t-60.5 -71t-79.5 -30.5q-28 0 -52 20t-47 61l-92 157l-57 -45l-37 -183
l-169 -10l134 658q-35 9 -61 20l3 13l236 23l-90 -445l254 198q39 30 65 44t58 14q26 0 39 -16z" />
    <glyph glyph-name="kcommaaccent" unicode="&#x137;" horiz-adv-x="696" 
d="M685 499q13 -16 13 -43q0 -6 -2 -22q-4 -19 -22.5 -36.5t-39.5 -17.5t-28 9t-10 26q-2 11 -5 16t-10 5q-8 0 -22 -11l-141 -111l108 -182q19 -36 47 -36q37 0 76 84l25 -18q-9 -30 -33 -70.5t-60.5 -71t-79.5 -30.5q-28 0 -52 20t-47 61l-92 157l-57 -45l-37 -183
l-169 -10l134 658q-35 9 -61 20l3 13l236 23l-90 -445l254 198q39 30 65 44t58 14q26 0 39 -16zM340 -102.5q17 -17.5 17 -44.5q0 -6 -2 -20q-12 -61 -54 -122t-95 -101l-43 40q73 63 93 116q-26 2 -42.5 19t-16.5 42q0 39 28.5 63.5t64.5 24.5q33 0 50 -17.5z" />
    <glyph glyph-name="kgreenlandic" unicode="&#x138;" horiz-adv-x="696" 
d="M685 499q13 -16 13 -43q0 -6 -2 -22q-4 -19 -22.5 -36.5t-39.5 -17.5t-28 9t-10 26q-2 11 -5 16t-10 5q-8 0 -22 -11l-141 -111l108 -182q19 -36 47 -36q37 0 76 84l25 -18q-9 -30 -33 -70.5t-60.5 -71t-79.5 -30.5q-28 0 -52 20t-47 61l-92 157l-57 -45l-37 -183
l-169 -10l95 462q-38 9 -62 20l3 13l235 23l-50 -249l255 198q39 30 65 44t58 14q26 0 39 -16z" />
    <glyph glyph-name="l" unicode="l" horiz-adv-x="359" 
d="M96 10.5q-29 20.5 -29 63.5q0 8 4 30l110 544q-35 9 -61 20l3 13l236 23l-121 -593q-4 -20 -4 -29q0 -21 15 -21q16 0 39.5 30.5t42.5 70.5l27 -15q-30 -68 -80.5 -112.5t-113.5 -44.5q-39 0 -68 20.5z" />
    <glyph glyph-name="lacute" unicode="&#x13a;" horiz-adv-x="358" 
d="M177 793l146 133q44 38 76 38q22 0 32 -10.5t10 -25.5q0 -7 -1 -10q-3 -19 -19 -35t-46 -33l-179 -96zM96 10.5q-29 20.5 -29 63.5q0 8 4 30l110 544q-35 9 -61 20l3 13l236 23l-121 -593q-4 -20 -4 -29q0 -21 15 -21q16 0 39.5 30.5t42.5 70.5l27 -15
q-30 -68 -80.5 -112.5t-113.5 -44.5q-39 0 -68 20.5z" />
    <glyph glyph-name="lcaron" unicode="&#x13e;" horiz-adv-x="550" 
d="M390 432q28 23 55 54.5t39 61.5q-30 0 -47 17t-17 42q0 6 2 16q8 37 33.5 62t63.5 25q37 0 54.5 -19.5t17.5 -49.5q0 -12 -3 -24q-12 -60 -55.5 -121.5t-98.5 -103.5zM96 10.5q-29 20.5 -29 63.5q0 8 4 30l110 544q-35 9 -61 20l3 13l236 23l-121 -593q-4 -20 -4 -29
q0 -21 15 -21q16 0 39.5 30.5t42.5 70.5l27 -15q-30 -68 -80.5 -112.5t-113.5 -44.5q-39 0 -68 20.5z" />
    <glyph glyph-name="lcommaaccent" unicode="&#x13c;" horiz-adv-x="358" 
d="M96 10.5q-29 20.5 -29 63.5q0 8 4 30l110 544q-35 9 -61 20l3 13l236 23l-121 -593q-4 -20 -4 -29q0 -21 15 -21q16 0 39.5 30.5t42.5 70.5l27 -15q-30 -68 -80.5 -112.5t-113.5 -44.5q-39 0 -68 20.5zM-15 -350q73 63 93 116q-26 2 -42.5 18.5t-16.5 41.5q0 6 2 16
q6 32 33 52.5t58 20.5q34 0 50.5 -17t16.5 -45q0 -6 -2 -20q-13 -61 -54 -122t-95 -101z" />
    <glyph glyph-name="ldot" unicode="&#x140;" horiz-adv-x="512" 
d="M96 10.5q-29 20.5 -29 63.5q0 8 4 30l110 544q-35 9 -61 20l3 13l236 23l-121 -593q-4 -20 -4 -29q0 -21 15 -21q16 0 39.5 30.5t42.5 70.5l27 -15q-30 -68 -80.5 -112.5t-113.5 -44.5q-39 0 -68 20.5zM373 295q-14 14 -14 36q0 35 23 60t57 25q25 0 39 -14t14 -36
q0 -6 -2 -18q-5 -29 -26.5 -48t-51.5 -19q-25 0 -39 14z" />
    <glyph glyph-name="uni1E37" unicode="&#x1e37;" horiz-adv-x="358" 
d="M96 10.5q-29 20.5 -29 63.5q0 8 4 30l110 544q-35 9 -61 20l3 13l236 23l-121 -593q-4 -20 -4 -29q0 -21 15 -21q16 0 39.5 30.5t42.5 70.5l27 -15q-30 -68 -80.5 -112.5t-113.5 -44.5q-39 0 -68 20.5zM72 -171q-14 14 -14 36q0 34 23.5 59t56.5 25q25 0 38.5 -14.5
t13.5 -37.5q0 -34 -23 -58t-57 -24q-24 0 -38 14z" />
    <glyph glyph-name="uni1E39" unicode="&#x1e39;" horiz-adv-x="358" 
d="M105 837h393l-11 -52h-392zM96 10.5q-29 20.5 -29 63.5q0 8 4 30l110 544q-35 9 -61 20l3 13l236 23l-121 -593q-4 -20 -4 -29q0 -21 15 -21q16 0 39.5 30.5t42.5 70.5l27 -15q-30 -68 -80.5 -112.5t-113.5 -44.5q-39 0 -68 20.5zM72 -171q-14 14 -14 36q0 34 23.5 59
t56.5 25q25 0 38.5 -14.5t13.5 -37.5q0 -34 -23 -58t-57 -24q-24 0 -38 14z" />
    <glyph glyph-name="uni1E3B" unicode="&#x1e3b;" horiz-adv-x="358" 
d="M96 10.5q-29 20.5 -29 63.5q0 8 4 30l110 544q-35 9 -61 20l3 13l236 23l-121 -593q-4 -20 -4 -29q0 -21 15 -21q16 0 39.5 30.5t42.5 70.5l27 -15q-30 -68 -80.5 -112.5t-113.5 -44.5q-39 0 -68 20.5zM-77 -58h392l-11 -53h-392z" />
    <glyph glyph-name="lslash" unicode="&#x142;" horiz-adv-x="371" 
d="M242 111q-4 -20 -4 -29q0 -21 15 -21q16 0 39.5 30.5t42.5 70.5l27 -15q-30 -68 -80.5 -112.5t-113.5 -44.5q-39 0 -68 20.5t-29 63.5q0 8 4 30l26 126l-84 -31l15 75l84 32l69 342q-35 9 -61 20l2 13l237 23l-67 -330l92 35l-15 -76l-93 -35z" />
    <glyph glyph-name="m" unicode="m" horiz-adv-x="1036" 
d="M1037 147q-30 -68 -80 -112.5t-113 -44.5q-39 0 -67.5 22.5t-28.5 66.5q0 14 3 30l32 156q13 60 18.5 93t5.5 53q0 24 -8.5 33t-29.5 9q-26 0 -65.5 -35.5t-84.5 -93.5l-66 -324l-162 -10l76 371q7 31 7 52q0 23 -9 31.5t-29 8.5q-27 0 -68.5 -36.5t-87.5 -97.5l-64 -319
l-169 -10l95 465q-29 6 -62 19l3 13l236 23l-25 -121q98 118 205 118q141 0 132 -116q96 116 202 116q68 0 103.5 -27t35.5 -80q0 -18 -5 -43l-50 -247q-3 -13 -3 -26q0 -23 15 -23q16 0 39.5 30.5t42.5 70.5z" />
    <glyph glyph-name="uni1E43" unicode="&#x1e43;" horiz-adv-x="1036" 
d="M1037 147q-30 -68 -80 -112.5t-113 -44.5q-39 0 -67.5 22.5t-28.5 66.5q0 14 3 30l32 156q13 60 18.5 93t5.5 53q0 24 -8.5 33t-29.5 9q-26 0 -65.5 -35.5t-84.5 -93.5l-66 -324l-162 -10l76 371q7 31 7 52q0 23 -9 31.5t-29 8.5q-27 0 -68.5 -36.5t-87.5 -97.5l-64 -319
l-169 -10l95 465q-29 6 -62 19l3 13l236 23l-25 -121q98 118 205 118q141 0 132 -116q96 116 202 116q68 0 103.5 -27t35.5 -80q0 -18 -5 -43l-50 -247q-3 -13 -3 -26q0 -23 15 -23q16 0 39.5 30.5t42.5 70.5zM500 -66.5q14 -14.5 14 -36.5q0 -34 -23 -59t-57 -25
q-25 0 -38.5 14t-13.5 36q0 35 22.5 60t55.5 25q26 0 40 -14.5z" />
    <glyph glyph-name="n" unicode="n" horiz-adv-x="711" 
d="M713 147q-30 -68 -80.5 -112.5t-113.5 -44.5q-39 0 -67 22t-28 66q0 15 3 31l32 156q10 48 16.5 86.5t6.5 58.5q0 24 -9 33.5t-30 9.5q-28 0 -72 -40.5t-93 -106.5l-62 -306l-169 -10l95 465q-29 6 -62 19l3 13l236 23l-27 -133q103 130 215 130q68 0 104.5 -27.5
t36.5 -80.5q0 -17 -5 -42l-50 -247q-4 -20 -4 -27q0 -22 15 -22q16 0 39.5 30.5t42.5 70.5z" />
    <glyph glyph-name="nacute" unicode="&#x144;" horiz-adv-x="710" 
d="M348 584l-19 39l146 133q44 38 76 38q21 0 31.5 -10.5t10.5 -25.5q0 -7 -1 -10q-4 -20 -19.5 -36t-45.5 -32zM713 147q-30 -68 -80.5 -112.5t-113.5 -44.5q-39 0 -67 22t-28 66q0 15 3 31l32 156q10 48 16.5 86.5t6.5 58.5q0 24 -9 33.5t-30 9.5q-28 0 -72 -40.5
t-93 -106.5l-62 -306l-169 -10l95 465q-29 6 -62 19l3 13l236 23l-27 -133q103 130 215 130q68 0 104.5 -27.5t36.5 -80.5q0 -17 -5 -42l-50 -247q-4 -20 -4 -27q0 -22 15 -22q16 0 39.5 30.5t42.5 70.5z" />
    <glyph glyph-name="napostrophe" unicode="&#x149;" horiz-adv-x="903" 
d="M240 667.5q17 -17.5 17 -44.5q0 -6 -2 -20q-12 -61 -54 -122t-95 -101l-43 40q73 63 93 116q-26 2 -42.5 18.5t-16.5 41.5q0 6 2 16q6 33 32.5 53t58.5 20q33 0 50 -17.5zM905 147q-30 -68 -80.5 -112.5t-113.5 -44.5q-39 0 -67 22t-28 66q0 15 3 31l32 156
q10 48 16.5 86.5t6.5 58.5q0 24 -9 33.5t-30 9.5q-28 0 -72 -40.5t-93 -106.5l-62 -306l-169 -10l95 465q-29 6 -62 19l3 13l236 23l-27 -133q103 130 215 130q68 0 104.5 -27.5t36.5 -80.5q0 -17 -5 -42l-50 -247q-4 -20 -4 -27q0 -22 15 -22q16 0 39.5 30.5t42.5 70.5z
" />
    <glyph glyph-name="ncaron" unicode="&#x148;" horiz-adv-x="710" 
d="M331 660q-43 51 -72 73l78 50q27 -26 57.5 -67.5t40.5 -67.5h3q22 27 69.5 68t84.5 67l58 -50q-38 -22 -102 -73t-85 -76h-78q-11 25 -54 76zM713 147q-30 -68 -80.5 -112.5t-113.5 -44.5q-39 0 -67 22t-28 66q0 15 3 31l32 156q10 48 16.5 86.5t6.5 58.5q0 24 -9 33.5
t-30 9.5q-28 0 -72 -40.5t-93 -106.5l-62 -306l-169 -10l95 465q-29 6 -62 19l3 13l236 23l-27 -133q103 130 215 130q68 0 104.5 -27.5t36.5 -80.5q0 -17 -5 -42l-50 -247q-4 -20 -4 -27q0 -22 15 -22q16 0 39.5 30.5t42.5 70.5z" />
    <glyph glyph-name="ncommaaccent" unicode="&#x146;" horiz-adv-x="710" 
d="M713 147q-30 -68 -80.5 -112.5t-113.5 -44.5q-39 0 -67 22t-28 66q0 15 3 31l32 156q10 48 16.5 86.5t6.5 58.5q0 24 -9 33.5t-30 9.5q-28 0 -72 -40.5t-93 -106.5l-62 -306l-169 -10l95 465q-29 6 -62 19l3 13l236 23l-27 -133q103 130 215 130q68 0 104.5 -27.5
t36.5 -80.5q0 -17 -5 -42l-50 -247q-4 -20 -4 -27q0 -22 15 -22q16 0 39.5 30.5t42.5 70.5zM339 -102.5q17 -17.5 17 -44.5q0 -6 -2 -20q-12 -61 -54 -122t-95 -101l-43 40q73 63 93 116q-26 2 -42.5 19t-16.5 42q0 39 28.5 63.5t64.5 24.5q33 0 50 -17.5z" />
    <glyph glyph-name="uni1E45" unicode="&#x1e45;" horiz-adv-x="710" 
d="M386.5 597q-13.5 14 -13.5 36q0 35 22.5 60t57.5 25q25 0 38.5 -14.5t13.5 -38.5q0 -33 -23.5 -57.5t-56.5 -24.5q-25 0 -38.5 14zM713 147q-30 -68 -80.5 -112.5t-113.5 -44.5q-39 0 -67 22t-28 66q0 15 3 31l32 156q10 48 16.5 86.5t6.5 58.5q0 24 -9 33.5t-30 9.5
q-28 0 -72 -40.5t-93 -106.5l-62 -306l-169 -10l95 465q-29 6 -62 19l3 13l236 23l-27 -133q103 130 215 130q68 0 104.5 -27.5t36.5 -80.5q0 -17 -5 -42l-50 -247q-4 -20 -4 -27q0 -22 15 -22q16 0 39.5 30.5t42.5 70.5z" />
    <glyph glyph-name="uni1E47" unicode="&#x1e47;" horiz-adv-x="710" 
d="M713 147q-30 -68 -80.5 -112.5t-113.5 -44.5q-39 0 -67 22t-28 66q0 15 3 31l32 156q10 48 16.5 86.5t6.5 58.5q0 24 -9 33.5t-30 9.5q-28 0 -72 -40.5t-93 -106.5l-62 -306l-169 -10l95 465q-29 6 -62 19l3 13l236 23l-27 -133q103 130 215 130q68 0 104.5 -27.5
t36.5 -80.5q0 -17 -5 -42l-50 -247q-4 -20 -4 -27q0 -22 15 -22q16 0 39.5 30.5t42.5 70.5zM346.5 -66.5q13.5 -14.5 13.5 -38.5q0 -33 -23.5 -57.5t-56.5 -24.5q-24 0 -38 14.5t-14 36.5q0 34 23 59t56 25q26 0 39.5 -14.5z" />
    <glyph glyph-name="eng" unicode="&#x14b;" horiz-adv-x="711" 
d="M611.5 479.5q36.5 -27.5 36.5 -80.5q0 -17 -5 -42l-91 -447q-17 -85 -83.5 -128t-167.5 -43q-87 0 -127 25t-40 73q0 10 4 32q4 20 21.5 37t37.5 17q21 0 31.5 -10t10.5 -26q0 -6 -1 -9q-1 -6 -7 -17.5t-8 -18.5q-1 -3 -1 -8q0 -36 58 -36q42 0 69 30.5t37 81.5l73 355
q10 48 16.5 86.5t6.5 58.5q0 24 -9 33.5t-30 9.5q-28 0 -72 -40.5t-93 -106.5l-62 -306l-169 -10l95 465q-29 6 -62 19l3 13l236 23l-27 -133q103 130 215 130q68 0 104.5 -27.5z" />
    <glyph glyph-name="uni1E49" unicode="&#x1e49;" horiz-adv-x="710" 
d="M713 147q-30 -68 -80.5 -112.5t-113.5 -44.5q-39 0 -67 22t-28 66q0 15 3 31l32 156q10 48 16.5 86.5t6.5 58.5q0 24 -9 33.5t-30 9.5q-28 0 -72 -40.5t-93 -106.5l-62 -306l-169 -10l95 465q-29 6 -62 19l3 13l236 23l-27 -133q103 130 215 130q68 0 104.5 -27.5
t36.5 -80.5q0 -17 -5 -42l-50 -247q-4 -20 -4 -27q0 -22 15 -22q16 0 39.5 30.5t42.5 70.5zM97 -58h391l-10 -53h-392z" />
    <glyph glyph-name="ntilde" unicode="&#xf1;" horiz-adv-x="710" 
d="M323 621.5q-16 -13.5 -25 -37.5h-77q21 60 59 91t91 31q29 0 49.5 -8.5t43.5 -23.5q15 -10 25.5 -14.5t21.5 -4.5q21 0 37 10.5t30 42.5h74q-37 -124 -147 -124q-22 0 -43 8t-50 23q-36 20 -52 20q-21 0 -37 -13.5zM713 147q-30 -68 -80.5 -112.5t-113.5 -44.5
q-39 0 -67 22t-28 66q0 15 3 31l32 156q10 48 16.5 86.5t6.5 58.5q0 24 -9 33.5t-30 9.5q-28 0 -72 -40.5t-93 -106.5l-62 -306l-169 -10l95 465q-29 6 -62 19l3 13l236 23l-27 -133q103 130 215 130q68 0 104.5 -27.5t36.5 -80.5q0 -17 -5 -42l-50 -247q-4 -20 -4 -27
q0 -22 15 -22q16 0 39.5 30.5t42.5 70.5z" />
    <glyph glyph-name="o" unicode="o" horiz-adv-x="618" 
d="M79 39.5q-62 49.5 -62 141.5q0 33 7 67q25 123 113 191t228 68q120 0 182 -50t62 -142q0 -33 -7 -67q-25 -123 -113.5 -190.5t-228.5 -67.5q-119 0 -181 49.5zM370.5 98q44.5 55 63.5 150q9 45 9 81q0 59 -23 91.5t-65 32.5q-55 0 -99 -54.5t-64 -150.5q-9 -45 -9 -81
q0 -59 23 -91.5t65 -32.5q55 0 99.5 55z" />
    <glyph glyph-name="oacute" unicode="&#xf3;" horiz-adv-x="617" 
d="M278 623l146 133q44 38 76 38q21 0 31.5 -10.5t10.5 -25.5q0 -7 -1 -10q-4 -20 -19.5 -36t-45.5 -32l-179 -96zM79 39.5q-62 49.5 -62 141.5q0 33 7 67q25 123 113 191t228 68q120 0 182 -50t62 -142q0 -33 -7 -67q-25 -123 -113.5 -190.5t-228.5 -67.5q-119 0 -181 49.5
zM370.5 98q44.5 55 63.5 150q9 45 9 81q0 59 -23 91.5t-65 32.5q-55 0 -99 -54.5t-64 -150.5q-9 -45 -9 -81q0 -59 23 -91.5t65 -32.5q55 0 99.5 55z" />
    <glyph glyph-name="obreve" unicode="&#x14f;" horiz-adv-x="617" 
d="M265.5 616q-39.5 34 -38.5 103h91q-1 -5 -1 -15q0 -39 20.5 -52.5t54.5 -13.5q37 0 64.5 16t41.5 65h92q-25 -68 -79.5 -102.5t-129.5 -34.5q-76 0 -115.5 34zM79 39.5q-62 49.5 -62 141.5q0 33 7 67q25 123 113 191t228 68q120 0 182 -50t62 -142q0 -33 -7 -67
q-25 -123 -113.5 -190.5t-228.5 -67.5q-119 0 -181 49.5zM370.5 98q44.5 55 63.5 150q9 45 9 81q0 59 -23 91.5t-65 32.5q-55 0 -99 -54.5t-64 -150.5q-9 -45 -9 -81q0 -59 23 -91.5t65 -32.5q55 0 99.5 55z" />
    <glyph glyph-name="uni01D2" unicode="&#x1d2;" horiz-adv-x="617" 
d="M287.5 660q-43.5 51 -72.5 73l78 50q27 -26 57.5 -67t40.5 -68h4q22 27 69.5 68t84.5 67l57 -50q-38 -22 -101.5 -73t-84.5 -76h-79q-10 25 -53.5 76zM79 39.5q-62 49.5 -62 141.5q0 33 7 67q25 123 113 191t228 68q120 0 182 -50t62 -142q0 -33 -7 -67
q-25 -123 -113.5 -190.5t-228.5 -67.5q-119 0 -181 49.5zM370.5 98q44.5 55 63.5 150q9 45 9 81q0 59 -23 91.5t-65 32.5q-55 0 -99 -54.5t-64 -150.5q-9 -45 -9 -81q0 -59 23 -91.5t65 -32.5q55 0 99.5 55z" />
    <glyph glyph-name="ocircumflex" unicode="&#xf4;" horiz-adv-x="617" 
d="M196 633q36 21 100 72t86 77h78q10 -25 53.5 -76.5t72.5 -72.5l-78 -51q-28 27 -58 68t-40 68h-4q-20 -26 -67 -67t-86 -69zM79 39.5q-62 49.5 -62 141.5q0 33 7 67q25 123 113 191t228 68q120 0 182 -50t62 -142q0 -33 -7 -67q-25 -123 -113.5 -190.5t-228.5 -67.5
q-119 0 -181 49.5zM370.5 98q44.5 55 63.5 150q9 45 9 81q0 59 -23 91.5t-65 32.5q-55 0 -99 -54.5t-64 -150.5q-9 -45 -9 -81q0 -59 23 -91.5t65 -32.5q55 0 99.5 55z" />
    <glyph glyph-name="uni1ED1" unicode="&#x1ed1;" horiz-adv-x="618" 
d="M535 762l93 93q42 40 77 40q20 0 32 -10t12 -27q0 -8 -1 -12q-3 -18 -20.5 -32t-53.5 -31l-119 -56zM196 633q36 21 100.5 72t87.5 77h77q11 -25 54 -76.5t71 -72.5l-78 -51q-27 28 -57 69t-40 67h-3q-21 -26 -68 -67t-86 -69zM79 39.5q-62 49.5 -62 141.5q0 33 7 67
q25 123 113 191t228 68q120 0 182 -50t62 -142q0 -33 -7 -67q-25 -123 -113.5 -190.5t-228.5 -67.5q-119 0 -181 49.5zM370.5 98q44.5 55 63.5 150q9 45 9 81q0 59 -23 91.5t-65 32.5q-55 0 -99 -54.5t-64 -150.5q-9 -45 -9 -81q0 -59 23 -91.5t65 -32.5q55 0 99.5 55z" />
    <glyph glyph-name="uni1ED9" unicode="&#x1ed9;" horiz-adv-x="618" 
d="M196 633q36 21 100 72t86 77h78q10 -25 53.5 -76.5t72.5 -72.5l-78 -51q-28 27 -58 68t-40 68h-4q-20 -26 -67 -67t-86 -69zM79 39.5q-62 49.5 -62 141.5q0 33 7 67q25 123 113 191t228 68q120 0 182 -50t62 -142q0 -33 -7 -67q-25 -123 -113.5 -190.5t-228.5 -67.5
q-119 0 -181 49.5zM370.5 98q44.5 55 63.5 150q9 45 9 81q0 59 -23 91.5t-65 32.5q-55 0 -99 -54.5t-64 -150.5q-9 -45 -9 -81q0 -59 23 -91.5t65 -32.5q55 0 99.5 55zM186.5 -172.5q-13.5 14.5 -13.5 37.5q0 10 1 15q6 29 27 48.5t50 19.5q26 0 40 -14.5t14 -36.5
q0 -34 -23.5 -59t-57.5 -25q-24 0 -37.5 14.5z" />
    <glyph glyph-name="uni1ED3" unicode="&#x1ed3;" horiz-adv-x="618" 
d="M168 783q-26 15 -38.5 27.5t-12.5 27.5q0 5 1 8q4 22 22.5 35.5t41.5 13.5q20 0 34 -11t26 -29l54 -93l-32 -35zM196 633q36 21 100.5 72t87.5 77h77q11 -25 54 -76.5t71 -72.5l-78 -51q-27 28 -57 69t-40 67h-3q-21 -26 -68 -67t-86 -69zM79 39.5q-62 49.5 -62 141.5
q0 33 7 67q25 123 113 191t228 68q120 0 182 -50t62 -142q0 -33 -7 -67q-25 -123 -113.5 -190.5t-228.5 -67.5q-119 0 -181 49.5zM370.5 98q44.5 55 63.5 150q9 45 9 81q0 59 -23 91.5t-65 32.5q-55 0 -99 -54.5t-64 -150.5q-9 -45 -9 -81q0 -59 23 -91.5t65 -32.5
q55 0 99.5 55z" />
    <glyph glyph-name="uni1ED5" unicode="&#x1ed5;" horiz-adv-x="618" 
d="M548 825h35q19 0 36 11t22 35q1 3 1 9q0 15 -11.5 24.5t-33.5 9.5q-30 0 -56 -13l2 39q36 16 78 16q40 0 66 -16.5t26 -50.5q0 -5 -2 -19q-8 -40 -33.5 -58t-65.5 -22l-17 -44h-60zM196 633q36 21 100.5 72t87.5 77h77q11 -25 54 -76.5t71 -72.5l-78 -51q-27 28 -57 69
t-40 67h-3q-21 -26 -68 -67t-86 -69zM79 39.5q-62 49.5 -62 141.5q0 33 7 67q25 123 113 191t228 68q120 0 182 -50t62 -142q0 -33 -7 -67q-25 -123 -113.5 -190.5t-228.5 -67.5q-119 0 -181 49.5zM370.5 98q44.5 55 63.5 150q9 45 9 81q0 59 -23 91.5t-65 32.5
q-55 0 -99 -54.5t-64 -150.5q-9 -45 -9 -81q0 -59 23 -91.5t65 -32.5q55 0 99.5 55z" />
    <glyph glyph-name="uni1ED7" unicode="&#x1ed7;" horiz-adv-x="618" 
d="M308.5 908q37.5 30 88.5 30q27 0 44.5 -8t37.5 -23q13 -10 21.5 -14.5t19.5 -4.5q22 0 43 11t34 41h55q-17 -57 -53 -88.5t-91 -31.5q-20 0 -36 7t-36 20q-19 12 -31 17.5t-27 5.5q-24 0 -43 -13.5t-27 -36.5h-56q19 58 56.5 88zM196 633q36 21 100.5 72t87.5 77h77
q11 -25 54 -76.5t71 -72.5l-78 -51q-27 28 -57 69t-40 67h-3q-21 -26 -68 -67t-86 -69zM79 39.5q-62 49.5 -62 141.5q0 33 7 67q25 123 113 191t228 68q120 0 182 -50t62 -142q0 -33 -7 -67q-25 -123 -113.5 -190.5t-228.5 -67.5q-119 0 -181 49.5zM370.5 98
q44.5 55 63.5 150q9 45 9 81q0 59 -23 91.5t-65 32.5q-55 0 -99 -54.5t-64 -150.5q-9 -45 -9 -81q0 -59 23 -91.5t65 -32.5q55 0 99.5 55z" />
    <glyph glyph-name="odieresis" unicode="&#xf6;" horiz-adv-x="617" 
d="M224.5 597q-13.5 14 -13.5 36q0 35 23 60t56 25q24 0 38 -14.5t14 -36.5q0 -33 -23 -58.5t-56 -25.5q-25 0 -38.5 14zM460.5 597q-13.5 14 -13.5 36q0 35 22.5 60t56.5 25q26 0 39.5 -14.5t13.5 -38.5q0 -33 -24 -57.5t-57 -24.5q-24 0 -37.5 14zM79 39.5
q-62 49.5 -62 141.5q0 33 7 67q25 123 113 191t228 68q120 0 182 -50t62 -142q0 -33 -7 -67q-25 -123 -113.5 -190.5t-228.5 -67.5q-119 0 -181 49.5zM370.5 98q44.5 55 63.5 150q9 45 9 81q0 59 -23 91.5t-65 32.5q-55 0 -99 -54.5t-64 -150.5q-9 -45 -9 -81
q0 -59 23 -91.5t65 -32.5q55 0 99.5 55z" />
    <glyph glyph-name="uni1ECD" unicode="&#x1ecd;" horiz-adv-x="618" 
d="M79 39.5q-62 49.5 -62 141.5q0 33 7 67q25 123 113 191t228 68q120 0 182 -50t62 -142q0 -33 -7 -67q-25 -123 -113.5 -190.5t-228.5 -67.5q-119 0 -181 49.5zM370.5 98q44.5 55 63.5 150q9 45 9 81q0 59 -23 91.5t-65 32.5q-55 0 -99 -54.5t-64 -150.5q-9 -45 -9 -81
q0 -59 23 -91.5t65 -32.5q55 0 99.5 55zM185.5 -172.5q-13.5 14.5 -13.5 37.5q0 10 1 15q6 29 27 48.5t50 19.5q26 0 40 -14.5t14 -36.5q0 -34 -23.5 -59t-57.5 -25q-24 0 -37.5 14.5z" />
    <glyph glyph-name="ograve" unicode="&#xf2;" horiz-adv-x="617" 
d="M326 680q-41 28 -41 58q0 7 1 10q4 18 20.5 32t41.5 14q23 0 38 -13t22 -25l93 -133l-35 -39zM79 39.5q-62 49.5 -62 141.5q0 33 7 67q25 123 113 191t228 68q120 0 182 -50t62 -142q0 -33 -7 -67q-25 -123 -113.5 -190.5t-228.5 -67.5q-119 0 -181 49.5zM370.5 98
q44.5 55 63.5 150q9 45 9 81q0 59 -23 91.5t-65 32.5q-55 0 -99 -54.5t-64 -150.5q-9 -45 -9 -81q0 -59 23 -91.5t65 -32.5q55 0 99.5 55z" />
    <glyph glyph-name="uni1ECF" unicode="&#x1ecf;" horiz-adv-x="618" 
d="M363 692h40q22 0 41 12.5t24 39.5q1 3 1 9q0 18 -13 29.5t-39 11.5q-34 0 -63 -16l2 42q40 19 89 19q45 0 75 -18.5t30 -56.5q0 -7 -2 -21q-9 -45 -38 -65t-74 -24l-24 -71h-68zM79 39.5q-62 49.5 -62 141.5q0 33 7 67q25 123 113 191t228 68q120 0 182 -50t62 -142
q0 -33 -7 -67q-25 -123 -113.5 -190.5t-228.5 -67.5q-119 0 -181 49.5zM370.5 98q44.5 55 63.5 150q9 45 9 81q0 59 -23 91.5t-65 32.5q-55 0 -99 -54.5t-64 -150.5q-9 -45 -9 -81q0 -59 23 -91.5t65 -32.5q55 0 99.5 55z" />
    <glyph glyph-name="ohorn" unicode="&#x1a1;" horiz-adv-x="698" 
d="M774 490q0 -4 -3 -28q-9 -40 -49 -87t-115 -97l-5 -30q-25 -123 -113.5 -190.5t-228.5 -67.5q-119 0 -181 49.5t-62 141.5q0 33 7 67q25 123 113 191t228 68q113 0 175 -44.5t68 -127.5q56 42 71 78q-4 -2 -14 -2q-24 0 -38 13.5t-14 36.5q0 29 21 59t72 30q68 0 68 -60z
M443 329q0 59 -23 91.5t-65 32.5q-55 0 -99 -54.5t-64 -150.5q-9 -45 -9 -81q0 -59 23 -91.5t65 -32.5q55 0 99.5 55t63.5 150q9 45 9 81z" />
    <glyph glyph-name="uni1EDB" unicode="&#x1edb;" horiz-adv-x="698" 
d="M297 584l-19 39l146 133q44 38 76 38q21 0 31.5 -10.5t10.5 -25.5q0 -7 -1 -10q-4 -20 -19.5 -36t-45.5 -32zM774 490q0 -4 -3 -28q-9 -40 -49 -87t-115 -97l-5 -30q-25 -123 -113.5 -190.5t-228.5 -67.5q-119 0 -181 49.5t-62 141.5q0 33 7 67q25 123 113 191t228 68
q113 0 175 -44.5t68 -127.5q56 42 71 78q-4 -2 -14 -2q-24 0 -38 13.5t-14 36.5q0 29 21 59t72 30q68 0 68 -60zM443 329q0 59 -23 91.5t-65 32.5q-55 0 -99 -54.5t-64 -150.5q-9 -45 -9 -81q0 -59 23 -91.5t65 -32.5q55 0 99.5 55t63.5 150q9 45 9 81z" />
    <glyph glyph-name="uni1EE3" unicode="&#x1ee3;" horiz-adv-x="698" 
d="M774 490q0 -4 -3 -28q-9 -40 -49 -87t-115 -97l-5 -30q-25 -123 -113.5 -190.5t-228.5 -67.5q-119 0 -181 49.5t-62 141.5q0 33 7 67q25 123 113 191t228 68q113 0 175 -44.5t68 -127.5q56 42 71 78q-4 -2 -14 -2q-24 0 -38 13.5t-14 36.5q0 29 21 59t72 30q68 0 68 -60z
M443 329q0 59 -23 91.5t-65 32.5q-55 0 -99 -54.5t-64 -150.5q-9 -45 -9 -81q0 -59 23 -91.5t65 -32.5q55 0 99.5 55t63.5 150q9 45 9 81zM291 -66.5q14 -14.5 14 -36.5q0 -34 -23.5 -59t-57.5 -25q-24 0 -37.5 14.5t-13.5 37.5q0 10 1 15q6 29 27 48.5t50 19.5
q26 0 40 -14.5z" />
    <glyph glyph-name="uni1EDD" unicode="&#x1edd;" horiz-adv-x="698" 
d="M286 738q0 7 1 10q4 18 20.5 32t41.5 14q23 0 38 -13t22 -25l93 -133l-35 -39l-140 96q-41 28 -41 58zM774 490q0 -4 -3 -28q-9 -40 -49 -87t-115 -97l-5 -30q-25 -123 -113.5 -190.5t-228.5 -67.5q-119 0 -181 49.5t-62 141.5q0 33 7 67q25 123 113 191t228 68
q113 0 175 -44.5t68 -127.5q56 42 71 78q-4 -2 -14 -2q-24 0 -38 13.5t-14 36.5q0 29 21 59t72 30q68 0 68 -60zM443 329q0 59 -23 91.5t-65 32.5q-55 0 -99 -54.5t-64 -150.5q-9 -45 -9 -81q0 -59 23 -91.5t65 -32.5q55 0 99.5 55t63.5 150q9 45 9 81z" />
    <glyph glyph-name="uni1EDF" unicode="&#x1edf;" horiz-adv-x="698" 
d="M449 704.5q19 12.5 25 39.5q1 3 1 9q0 18 -13.5 29.5t-38.5 11.5q-34 0 -63 -16l2 42q40 19 89 19q45 0 75 -18.5t30 -57.5q0 -6 -2 -20q-9 -45 -38 -65t-74 -24l-25 -71h-67l18 109h41q21 0 40 12.5zM774 490q0 -4 -3 -28q-9 -40 -49 -87t-115 -97l-5 -30
q-25 -123 -113.5 -190.5t-228.5 -67.5q-119 0 -181 49.5t-62 141.5q0 33 7 67q25 123 113 191t228 68q113 0 175 -44.5t68 -127.5q56 42 71 78q-4 -2 -14 -2q-24 0 -38 13.5t-14 36.5q0 29 21 59t72 30q68 0 68 -60zM443 329q0 59 -23 91.5t-65 32.5q-55 0 -99 -54.5
t-64 -150.5q-9 -45 -9 -81q0 -59 23 -91.5t65 -32.5q55 0 99.5 55t63.5 150q9 45 9 81z" />
    <glyph glyph-name="uni1EE1" unicode="&#x1ee1;" horiz-adv-x="698" 
d="M281 621.5q-16 -13.5 -25 -37.5h-77q21 60 59 91t91 31q29 0 49.5 -8.5t43.5 -23.5q15 -10 25.5 -14.5t21.5 -4.5q21 0 36.5 10.5t29.5 42.5h75q-37 -124 -148 -124q-22 0 -43.5 8t-47.5 23q-5 2 -17 8t-21 9t-16 3q-20 0 -36 -13.5zM774 490q0 -4 -3 -28q-9 -40 -49 -87
t-115 -97l-5 -30q-25 -123 -113.5 -190.5t-228.5 -67.5q-119 0 -181 49.5t-62 141.5q0 33 7 67q25 123 113 191t228 68q113 0 175 -44.5t68 -127.5q56 42 71 78q-4 -2 -14 -2q-24 0 -38 13.5t-14 36.5q0 29 21 59t72 30q68 0 68 -60zM443 329q0 59 -23 91.5t-65 32.5
q-55 0 -99 -54.5t-64 -150.5q-9 -45 -9 -81q0 -59 23 -91.5t65 -32.5q55 0 99.5 55t63.5 150q9 45 9 81z" />
    <glyph glyph-name="ohungarumlaut" unicode="&#x151;" horiz-adv-x="617" 
d="M220 622l145 132q12 12 32.5 25t42.5 13q26 0 36.5 -14t7.5 -32q-7 -35 -67 -68l-178 -96zM436 622l147 132q12 12 32.5 25t42.5 13q23 0 33.5 -11t10.5 -26q0 -6 -1 -9q-3 -19 -19.5 -35t-47.5 -33l-179 -96zM79 39.5q-62 49.5 -62 141.5q0 33 7 67q25 123 113 191
t228 68q120 0 182 -50t62 -142q0 -33 -7 -67q-25 -123 -113.5 -190.5t-228.5 -67.5q-119 0 -181 49.5zM370.5 98q44.5 55 63.5 150q9 45 9 81q0 59 -23 91.5t-65 32.5q-55 0 -99 -54.5t-64 -150.5q-9 -45 -9 -81q0 -59 23 -91.5t65 -32.5q55 0 99.5 55z" />
    <glyph glyph-name="omacron" unicode="&#x14d;" horiz-adv-x="617" 
d="M196 636h391l-10 -52h-392zM79 39.5q-62 49.5 -62 141.5q0 33 7 67q25 123 113 191t228 68q120 0 182 -50t62 -142q0 -33 -7 -67q-25 -123 -113.5 -190.5t-228.5 -67.5q-119 0 -181 49.5zM370.5 98q44.5 55 63.5 150q9 45 9 81q0 59 -23 91.5t-65 32.5q-55 0 -99 -54.5
t-64 -150.5q-9 -45 -9 -81q0 -59 23 -91.5t65 -32.5q55 0 99.5 55z" />
    <glyph glyph-name="oslash" unicode="&#xf8;" horiz-adv-x="617" 
d="M566 439q42 -46 42 -123q0 -34 -7 -68q-25 -123 -113 -190.5t-228 -67.5q-101 0 -163 37l-69 -61l-35 37l64 57q-40 46 -40 121q0 33 7 67q25 123 112.5 191t228.5 68q97 0 157 -34l63 56l37 -40zM183 172l250 222q-10 29 -30 44t-48 15q-56 0 -100 -55t-63 -150
q-9 -42 -9 -76zM442 331l-252 -222q20 -66 81 -66q55 0 99 55t63 150q9 47 9 83z" />
    <glyph glyph-name="oslashacute" unicode="&#x1ff;" horiz-adv-x="617" 
d="M294 584l-19 39l146 133q44 38 76 38q21 0 31.5 -10.5t10.5 -25.5q0 -7 -1 -10q-4 -20 -19.5 -36t-45.5 -32zM566 439q42 -46 42 -123q0 -34 -7 -68q-25 -123 -113 -190.5t-228 -67.5q-101 0 -163 37l-69 -61l-35 37l64 57q-40 46 -40 121q0 33 7 67q25 123 112.5 191
t228.5 68q97 0 157 -34l63 56l37 -40zM183 172l250 222q-10 29 -30 44t-48 15q-56 0 -100 -55t-63 -150q-9 -42 -9 -76zM442 331l-252 -222q20 -66 81 -66q55 0 99 55t63 150q9 47 9 83z" />
    <glyph glyph-name="otilde" unicode="&#xf5;" horiz-adv-x="617" 
d="M236 675q38 31 91 31q29 0 49.5 -8.5t43.5 -23.5q15 -10 25.5 -14.5t21.5 -4.5q21 0 36.5 10.5t29.5 42.5h75q-37 -124 -148 -124q-22 0 -41 7.5t-51 23.5q-36 20 -52 20q-21 0 -37 -13.5t-25 -37.5h-77q21 60 59 91zM79 39.5q-62 49.5 -62 141.5q0 33 7 67
q25 123 113 191t228 68q120 0 182 -50t62 -142q0 -33 -7 -67q-25 -123 -113.5 -190.5t-228.5 -67.5q-119 0 -181 49.5zM370.5 98q44.5 55 63.5 150q9 45 9 81q0 59 -23 91.5t-65 32.5q-55 0 -99 -54.5t-64 -150.5q-9 -45 -9 -81q0 -59 23 -91.5t65 -32.5q55 0 99.5 55z" />
    <glyph glyph-name="oe" unicode="&#x153;" horiz-adv-x="944" 
d="M77 40q-60 50 -60 142q0 34 7 66q25 122 112 190.5t217 68.5q54 0 94.5 -17.5t62.5 -48.5q86 66 216 66q117 0 171.5 -24.5t54.5 -81.5q0 -8 -4 -32q-19 -94 -131.5 -137t-260.5 -47q-2 -65 24.5 -104.5t86.5 -39.5q41 0 92 14.5t92 42.5l8 -39q-40 -29 -104 -49
t-133 -20q-125 0 -186 64q-87 -64 -189 -64q-110 0 -170 50zM337 64q35 21 60 58q-8 30 -8 64q0 29 6 62q15 73 51 125q-10 38 -36 59t-59 21q-55 0 -97.5 -54.5t-61.5 -150.5q-9 -46 -9 -84q0 -58 22 -89.5t63 -31.5q34 0 69 21zM801 363q3 14 3 26q0 64 -78 64
q-63 0 -104 -59t-58 -144l-4 -16q220 26 241 129z" />
    <glyph glyph-name="p" unicode="p" horiz-adv-x="650" 
d="M138 455q-26 6 -61 18l3 14l236 23l-30 -146q37 67 94.5 105t116.5 38q64 0 105.5 -42.5t41.5 -122.5q0 -33 -7 -68q-29 -140 -109.5 -212t-198.5 -72q-39 0 -66.5 13.5t-42.5 35.5l-52 -255l-169 -10zM410.5 96q35.5 53 54.5 148q16 80 16 128q0 81 -42 81
q-25 0 -63 -34t-71 -83.5t-44 -92.5l-15 -71q-4 -24 -4 -36q0 -41 19.5 -67t56.5 -26q57 0 92.5 53z" />
    <glyph glyph-name="thorn" unicode="&#xfe;" horiz-adv-x="650" 
d="M178 651q-27 6 -60 18l3 14l235 23l-70 -342q37 67 94.5 105t116.5 38q64 0 105.5 -42.5t41.5 -122.5q0 -33 -7 -68q-29 -140 -109.5 -212t-198.5 -72q-39 0 -66.5 13.5t-42.5 35.5l-52 -255l-169 -10zM410.5 96q35.5 53 54.5 148q16 80 16 128q0 81 -42 81
q-25 0 -63 -34t-71 -83.5t-44 -92.5l-15 -71q-4 -24 -4 -36q0 -41 19.5 -67t56.5 -26q57 0 92.5 53z" />
    <glyph glyph-name="q" unicode="q" horiz-adv-x="651" 
d="M388 203q-47 -86 -117.5 -149.5t-146.5 -63.5q-60 0 -86 36.5t-26 95.5q0 31 9 76q15 76 57 146t115 116.5t174 46.5q24 0 48 -8.5t32 -21.5l6 30h162l-147 -723l-168 -10zM276.5 110.5q46.5 49.5 87 112.5t47.5 95l23 114q-11 11 -25 18.5t-30 7.5q-44 0 -83 -38.5
t-67 -98t-41 -119.5q-7 -33 -7 -76q0 -28 5.5 -46.5t18.5 -18.5q25 0 71.5 49.5z" />
    <glyph glyph-name="r" unicode="r" horiz-adv-x="511" 
d="M537.5 499.5q14.5 -15.5 14.5 -41.5q0 -16 -2 -24q-4 -19 -22 -36.5t-39 -17.5t-28 9t-10 26q-3 11 -6 16t-10 5q-71 0 -155 -114l-65 -322l-170 -10l95 465q-29 6 -61 19l3 12l236 24l-21 -106q33 45 85.5 78t110.5 33q30 0 44.5 -15.5z" />
    <glyph glyph-name="racute" unicode="&#x155;" horiz-adv-x="511" 
d="M238 584l-19 39l145 133q44 38 76 38q22 0 32.5 -11t10.5 -26q0 -23 -16.5 -41t-50.5 -36zM537.5 499.5q14.5 -15.5 14.5 -41.5q0 -16 -2 -24q-4 -19 -22 -36.5t-39 -17.5t-28 9t-10 26q-3 11 -6 16t-10 5q-71 0 -155 -114l-65 -322l-170 -10l95 465q-29 6 -61 19l3 12
l236 24l-21 -106q33 45 85.5 78t110.5 33q30 0 44.5 -15.5z" />
    <glyph glyph-name="rcaron" unicode="&#x159;" horiz-adv-x="511" 
d="M238 660q-43 51 -72 73l78 50q27 -27 57.5 -68t39.5 -67h4q22 27 69.5 68t84.5 67l57 -50q-38 -22 -101.5 -73t-84.5 -76h-78q-11 25 -54 76zM537.5 499.5q14.5 -15.5 14.5 -41.5q0 -16 -2 -24q-4 -19 -22 -36.5t-39 -17.5t-28 9t-10 26q-3 11 -6 16t-10 5
q-71 0 -155 -114l-65 -322l-170 -10l95 465q-29 6 -61 19l3 12l236 24l-21 -106q33 45 85.5 78t110.5 33q30 0 44.5 -15.5z" />
    <glyph glyph-name="rcommaaccent" unicode="&#x157;" horiz-adv-x="511" 
d="M537.5 499.5q14.5 -15.5 14.5 -41.5q0 -16 -2 -24q-4 -19 -22 -36.5t-39 -17.5t-28 9t-10 26q-3 11 -6 16t-10 5q-71 0 -155 -114l-65 -322l-170 -10l95 465q-29 6 -61 19l3 12l236 24l-21 -106q33 45 85.5 78t110.5 33q30 0 44.5 -15.5zM174.5 -102.5
q16.5 -17.5 16.5 -45.5q0 -7 -2 -19q-12 -61 -54 -122t-95 -101l-43 40q73 63 93 116q-26 2 -42.5 19t-16.5 42q0 39 28.5 63.5t64.5 24.5q34 0 50.5 -17.5z" />
    <glyph glyph-name="uni1E5B" unicode="&#x1e5b;" horiz-adv-x="511" 
d="M537.5 499.5q14.5 -15.5 14.5 -41.5q0 -16 -2 -24q-4 -19 -22 -36.5t-39 -17.5t-28 9t-10 26q-3 11 -6 16t-10 5q-71 0 -155 -114l-65 -322l-170 -10l95 465q-29 6 -61 19l3 12l236 24l-21 -106q33 45 85.5 78t110.5 33q30 0 44.5 -15.5zM157.5 -66.5
q13.5 -14.5 13.5 -38.5q0 -33 -23.5 -57.5t-56.5 -24.5q-24 0 -38 14.5t-14 36.5q0 4 2 16q6 29 27 48.5t50 19.5q26 0 39.5 -14.5z" />
    <glyph glyph-name="uni1E5D" unicode="&#x1e5d;" horiz-adv-x="511" 
d="M490 584h-391l10 52h392zM537.5 499.5q14.5 -15.5 14.5 -41.5q0 -16 -2 -24q-4 -19 -22 -36.5t-39 -17.5t-28 9t-10 26q-3 11 -6 16t-10 5q-71 0 -155 -114l-65 -322l-170 -10l95 465q-29 6 -61 19l3 12l236 24l-21 -106q33 45 85.5 78t110.5 33q30 0 44.5 -15.5z
M157.5 -66.5q13.5 -14.5 13.5 -38.5q0 -33 -23.5 -57.5t-56.5 -24.5q-24 0 -38 14.5t-14 36.5q0 4 2 16q6 29 27 48.5t50 19.5q26 0 39.5 -14.5z" />
    <glyph glyph-name="uni1E5F" unicode="&#x1e5f;" horiz-adv-x="511" 
d="M537.5 499.5q14.5 -15.5 14.5 -41.5q0 -16 -2 -24q-4 -19 -22 -36.5t-39 -17.5t-28 9t-10 26q-3 11 -6 16t-10 5q-71 0 -155 -114l-65 -322l-170 -10l95 465q-29 6 -61 19l3 12l236 24l-21 -106q33 45 85.5 78t110.5 33q30 0 44.5 -15.5zM-70 -58h391l-10 -53h-392z" />
    <glyph glyph-name="s" unicode="s" horiz-adv-x="510" 
d="M55 15.5q-55 25.5 -55 81.5q0 13 3 26q2 16 20 33t44 17q20 0 33.5 -12t13.5 -27q0 -7 -5 -18.5t-5 -16.5q-2 -11 6 -24.5t26.5 -22.5t45.5 -9q97 0 114 85q1 4 1 11q0 25 -23 39.5t-72 32.5q-43 15 -70.5 29.5t-47 38.5t-19.5 61q0 17 4 33q12 63 80 98.5t158 35.5
q200 0 200 -102q0 -11 -3 -25q-3 -15 -20 -27.5t-44 -12.5q-22 0 -36 9.5t-11 26.5l5 15t4 13q4 19 -13.5 35.5t-56.5 16.5q-37 0 -63 -14t-32 -45q-1 -4 -1 -11q0 -25 22.5 -39.5t71.5 -33.5q44 -16 72 -31t48 -40.5t20 -64.5q0 -18 -4 -35q-16 -80 -87 -116t-181 -36
q-88 0 -143 25.5z" />
    <glyph glyph-name="sacute" unicode="&#x15b;" horiz-adv-x="509" 
d="M215 623l146 133q10 10 32.5 24t42.5 14q22 0 32.5 -10.5t10.5 -25.5q0 -7 -1 -10q-4 -20 -20 -36t-46 -32l-178 -96zM55 15.5q-55 25.5 -55 81.5q0 13 3 26q2 16 20 33t44 17q20 0 33.5 -12t13.5 -27q0 -7 -5 -18.5t-5 -16.5q-2 -11 6 -24.5t26.5 -22.5t45.5 -9
q97 0 114 85q1 4 1 11q0 25 -23 39.5t-72 32.5q-43 15 -70.5 29.5t-47 38.5t-19.5 61q0 17 4 33q12 63 80 98.5t158 35.5q200 0 200 -102q0 -11 -3 -25q-3 -15 -20 -27.5t-44 -12.5q-22 0 -36 9.5t-11 26.5l5 15t4 13q4 19 -13.5 35.5t-56.5 16.5q-37 0 -63 -14t-32 -45
q-1 -4 -1 -11q0 -25 22.5 -39.5t71.5 -33.5q44 -16 72 -31t48 -40.5t20 -64.5q0 -18 -4 -35q-16 -80 -87 -116t-181 -36q-88 0 -143 25.5z" />
    <glyph glyph-name="scaron" unicode="&#x161;" horiz-adv-x="509" 
d="M233 660q-43 51 -72 73l78 50q27 -26 57.5 -67.5t40.5 -67.5h3q22 27 69.5 68t84.5 67l58 -50q-38 -22 -102 -73t-85 -76h-78q-11 25 -54 76zM55 15.5q-55 25.5 -55 81.5q0 13 3 26q2 16 20 33t44 17q20 0 33.5 -12t13.5 -27q0 -7 -5 -18.5t-5 -16.5q-2 -11 6 -24.5
t26.5 -22.5t45.5 -9q97 0 114 85q1 4 1 11q0 25 -23 39.5t-72 32.5q-43 15 -70.5 29.5t-47 38.5t-19.5 61q0 17 4 33q12 63 80 98.5t158 35.5q200 0 200 -102q0 -11 -3 -25q-3 -15 -20 -27.5t-44 -12.5q-22 0 -36 9.5t-11 26.5l5 15t4 13q4 19 -13.5 35.5t-56.5 16.5
q-37 0 -63 -14t-32 -45q-1 -4 -1 -11q0 -25 22.5 -39.5t71.5 -33.5q44 -16 72 -31t48 -40.5t20 -64.5q0 -18 -4 -35q-16 -80 -87 -116t-181 -36q-88 0 -143 25.5z" />
    <glyph glyph-name="scedilla" unicode="&#x15f;" horiz-adv-x="509" 
d="M507 405q0 -11 -3 -25q-3 -15 -20 -27.5t-44 -12.5q-22 0 -36 9.5t-11 26.5l5 15t4 13q4 19 -13.5 35.5t-56.5 16.5q-37 0 -63 -14t-32 -45q-1 -4 -1 -11q0 -25 22.5 -39.5t71.5 -33.5q44 -16 72 -31t48 -40.5t20 -64.5q0 -18 -4 -35q-15 -73 -75.5 -109t-155.5 -42
l-34 -50q53 0 78 -21t25 -53q0 -5 -2 -17q-11 -54 -59 -83.5t-111 -29.5q-30 0 -61.5 9.5t-50.5 25.5l33 43q14 -10 34.5 -15.5t42.5 -5.5q35 0 60 13t31 43q1 3 1 9q0 20 -17 28t-42 8q-15 0 -22 -1l-19 35l43 62q-75 4 -120 30t-45 76q0 13 3 26q2 16 20 33t44 17
q20 0 33.5 -12t13.5 -27q0 -7 -5 -18.5t-5 -16.5q-2 -11 6 -24.5t26.5 -22.5t45.5 -9q97 0 114 85q1 4 1 11q0 25 -23 39.5t-72 32.5q-43 15 -70.5 29.5t-47 38.5t-19.5 61q0 17 4 33q12 63 80 98.5t158 35.5q200 0 200 -102z" />
    <glyph glyph-name="scircumflex" unicode="&#x15d;" horiz-adv-x="509" 
d="M141 633q37 21 100.5 72t85.5 77h79q10 -25 53.5 -76.5t72.5 -72.5l-79 -51q-28 27 -58 68t-40 68h-4q-20 -26 -67 -67t-86 -69zM55 15.5q-55 25.5 -55 81.5q0 13 3 26q2 16 20 33t44 17q20 0 33.5 -12t13.5 -27q0 -7 -5 -18.5t-5 -16.5q-2 -11 6 -24.5t26.5 -22.5
t45.5 -9q97 0 114 85q1 4 1 11q0 25 -23 39.5t-72 32.5q-43 15 -70.5 29.5t-47 38.5t-19.5 61q0 17 4 33q12 63 80 98.5t158 35.5q200 0 200 -102q0 -11 -3 -25q-3 -15 -20 -27.5t-44 -12.5q-22 0 -36 9.5t-11 26.5l5 15t4 13q4 19 -13.5 35.5t-56.5 16.5q-37 0 -63 -14
t-32 -45q-1 -4 -1 -11q0 -25 22.5 -39.5t71.5 -33.5q44 -16 72 -31t48 -40.5t20 -64.5q0 -18 -4 -35q-16 -80 -87 -116t-181 -36q-88 0 -143 25.5z" />
    <glyph glyph-name="scommaaccent" unicode="&#x219;" horiz-adv-x="509" 
d="M55 15.5q-55 25.5 -55 81.5q0 13 3 26q2 16 20 33t44 17q20 0 33.5 -12t13.5 -27q0 -7 -5 -18.5t-5 -16.5q-2 -11 6 -24.5t26.5 -22.5t45.5 -9q97 0 114 85q1 4 1 11q0 25 -23 39.5t-72 32.5q-43 15 -70.5 29.5t-47 38.5t-19.5 61q0 17 4 33q12 63 80 98.5t158 35.5
q200 0 200 -102q0 -11 -3 -25q-3 -15 -20 -27.5t-44 -12.5q-22 0 -36 9.5t-11 26.5l5 15t4 13q4 19 -13.5 35.5t-56.5 16.5q-37 0 -63 -14t-32 -45q-1 -4 -1 -11q0 -25 22.5 -39.5t71.5 -33.5q44 -16 72 -31t48 -40.5t20 -64.5q0 -18 -4 -35q-16 -80 -87 -116t-181 -36
q-88 0 -143 25.5zM65 -322q27 24 55.5 57.5t39.5 63.5q-25 2 -42 20t-17 43q0 8 1 13q7 34 33.5 54t59.5 20q34 0 50.5 -17.5t16.5 -45.5q0 -7 -2 -19q-12 -60 -55 -124t-96 -105z" />
    <glyph glyph-name="uni1E61" unicode="&#x1e61;" horiz-adv-x="509" 
d="M287.5 597q-13.5 14 -13.5 37q0 35 23 59.5t57 24.5q24 0 38.5 -14.5t14.5 -37.5q0 -34 -23.5 -58.5t-57.5 -24.5q-25 0 -38.5 14zM55 15.5q-55 25.5 -55 81.5q0 13 3 26q3 16 20.5 33t43.5 17q20 0 33.5 -12t13.5 -27q0 -7 -5 -18.5t-5 -16.5q-2 -11 6 -24.5t26.5 -22.5
t45.5 -9q97 0 114 85q1 4 1 11q0 25 -23 39.5t-72 32.5q-43 15 -70.5 29.5t-47 38.5t-19.5 61q0 17 4 33q12 63 80 98.5t158 35.5q200 0 200 -102q0 -11 -3 -25q-3 -15 -20 -27.5t-44 -12.5q-22 0 -35.5 9.5t-11.5 26.5l5 15t4 13q4 19 -13 35.5t-57 16.5q-37 0 -63 -14
t-32 -45q-1 -4 -1 -11q0 -25 22.5 -39.5t71.5 -33.5q44 -16 72 -31t48 -40.5t20 -64.5q0 -18 -4 -35q-16 -80 -87 -116t-181 -36q-88 0 -143 25.5z" />
    <glyph glyph-name="uni1E63" unicode="&#x1e63;" horiz-adv-x="509" 
d="M55 15.5q-55 25.5 -55 81.5q0 13 3 26q3 16 20.5 33t43.5 17q20 0 33.5 -12t13.5 -27q0 -7 -5 -18.5t-5 -16.5q-2 -11 6 -24.5t26.5 -22.5t45.5 -9q97 0 114 85q1 4 1 11q0 25 -23 39.5t-72 32.5q-43 15 -70.5 29.5t-47 38.5t-19.5 61q0 17 4 33q12 63 80 98.5t158 35.5
q200 0 200 -102q0 -11 -3 -25q-3 -15 -20 -27.5t-44 -12.5q-22 0 -35.5 9.5t-11.5 26.5l5 15t4 13q4 19 -13 35.5t-57 16.5q-37 0 -63 -14t-32 -45q-1 -4 -1 -11q0 -25 22.5 -39.5t71.5 -33.5q44 -16 72 -31t48 -40.5t20 -64.5q0 -18 -4 -35q-16 -80 -87 -116t-181 -36
q-88 0 -143 25.5zM134.5 -173q-13.5 14 -13.5 36q0 35 22.5 60t55.5 25q26 0 40 -14.5t14 -36.5q0 -34 -23 -59t-57 -25q-25 0 -38.5 14z" />
    <glyph glyph-name="germandbls" unicode="&#xdf;" horiz-adv-x="761" 
d="M528 385q0 -25 20 -40t61 -32q38 -16 61.5 -30.5t40.5 -39.5t17 -63q0 -20 -4 -39q-17 -80 -82.5 -115.5t-158.5 -35.5q-89 0 -144 26t-55 82q0 12 3 25q3 16 20.5 33t43.5 17q20 0 33.5 -12t13.5 -27q0 -7 -5 -18.5t-5 -16.5q-1 -3 -1 -10q0 -19 14.5 -32.5t48.5 -13.5
q42 0 69 23t34 59q1 5 1 13q0 26 -20 41t-60 32q-36 15 -59 29t-39 38t-16 59q0 19 4 36q10 47 49 76.5t88 43.5q7 42 7 67q0 48 -18 79.5t-63 31.5q-29 0 -54 -22t-35 -71l-119 -586q-18 -88 -84 -133t-169 -45q-87 0 -126 25t-39 73q0 15 3 32q4 20 21 37t38 17t31.5 -10
t10.5 -25q0 -6 -1 -9q-2 -6 -9 -19.5t-7 -25.5q0 -17 15 -26.5t43 -9.5q42 0 68.5 30.5t36.5 81.5l94 460h-90l11 53h90l8 39q19 95 99.5 143t186.5 48q120 0 165 -51t45 -124q0 -32 -8 -75l-5 -25q-43 0 -78 -13.5t-40 -42.5q-1 -4 -1 -12z" />
    <glyph glyph-name="uni0259" unicode="&#x259;" horiz-adv-x="575" 
d="M501.5 454.5q60.5 -52.5 60.5 -143.5q0 -29 -6 -62q-25 -123 -113 -191t-219 -68q-117 0 -171 24t-54 81q0 17 4 33q18 93 130.5 136t261.5 47q2 65 -25 105t-86 40q-41 0 -92 -14.5t-92 -42.5l-8 39q40 29 104 49t133 20q112 0 172.5 -52.5zM328 102.5q41 58.5 59 144.5
l3 15q-244 -30 -244 -153q0 -65 78 -65q63 0 104 58.5z" />
    <glyph glyph-name="t" unicode="t" horiz-adv-x="410" 
d="M211 111q-2 -12 -2 -16q0 -34 35 -34q45 0 93 101l31 -19q-31 -71 -79.5 -112t-128.5 -41q-44 0 -81.5 21t-37.5 68q0 15 2 23l70 343h-71l10 53h72l2 11q75 20 109 123h82l-27 -134h136l-11 -53h-136z" />
    <glyph glyph-name="tbar" unicode="&#x167;" horiz-adv-x="410" 
d="M279 445l-28 -135h122l-10 -53h-122l-30 -146q-2 -12 -2 -16q0 -34 35 -34q45 0 93 101l31 -19q-31 -71 -79.5 -112t-128.5 -41q-44 0 -81.5 21t-37.5 68q0 15 2 23l32 155h-71l10 53h71l28 135h-71l10 53h72l2 11q75 20 109 123h82l-27 -134h136l-11 -53h-136z" />
    <glyph glyph-name="tcaron" unicode="&#x165;" horiz-adv-x="609" 
d="M639 681.5q17 -19.5 17 -48.5q0 -13 -3 -25q-12 -59 -56 -121t-98 -103l-43 40q74 66 92 116q-30 0 -46.5 17t-16.5 43q0 10 1 15q8 36 34.5 61t64.5 25q37 0 54 -19.5zM290 498h136l-11 -53h-136l-68 -334q-2 -12 -2 -16q0 -34 35 -34q45 0 93 101l31 -19
q-31 -71 -79.5 -112t-128.5 -41q-44 0 -81.5 21t-37.5 68q0 15 2 23l70 343h-71l10 53h72l2 11q75 20 109 123h82z" />
    <glyph glyph-name="uni0163" unicode="&#x163;" horiz-adv-x="410" 
d="M211 111q-2 -12 -2 -16q0 -34 35 -34q45 0 93 101l31 -19q-26 -60 -64.5 -99t-98.5 -50l-35 -53l16 -1q44 -4 65 -24t21 -49q0 -5 -2 -17q-11 -54 -58.5 -83.5t-110.5 -29.5q-31 0 -62.5 9.5t-51.5 25.5l34 43q13 -10 33.5 -15.5t43.5 -5.5q79 0 92 56q1 3 1 9
q0 19 -18 27.5t-43 8.5q-15 0 -22 -1l-19 35l44 63q-38 5 -65 26.5t-27 60.5q0 15 2 23l70 343h-71l10 53h72l2 11q75 20 109 123h82l-27 -134h136l-11 -53h-136z" />
    <glyph glyph-name="uni021B" unicode="&#x21b;" horiz-adv-x="410" 
d="M211 111q-2 -12 -2 -16q0 -34 35 -34q45 0 93 101l31 -19q-31 -71 -79.5 -112t-128.5 -41q-44 0 -81.5 21t-37.5 68q0 15 2 23l70 343h-71l10 53h72l2 11q75 20 109 123h82l-27 -134h136l-11 -53h-136zM207.5 -102q16.5 -17 16.5 -45q0 -6 -2 -20q-12 -61 -53.5 -122
t-94.5 -101l-44 40q73 63 94 116q-27 2 -43.5 18.5t-16.5 41.5q0 39 29 64t64 25q34 0 50.5 -17z" />
    <glyph glyph-name="uni1E97" unicode="&#x1e97;" horiz-adv-x="410" 
d="M137.5 705.5q-13.5 14.5 -13.5 37.5q0 34 23 58.5t55 24.5q25 0 39 -14.5t14 -36.5q0 -34 -23.5 -59t-56.5 -25q-24 0 -37.5 14.5zM478 812q14 -14 14 -37q0 -34 -23.5 -59t-57.5 -25q-25 0 -38 13.5t-13 36.5q0 34 22.5 59.5t55.5 25.5q26 0 40 -14zM290 498h136
l-11 -53h-136l-68 -334q-2 -12 -2 -16q0 -34 35 -34q45 0 93 101l31 -19q-31 -71 -79.5 -112t-128.5 -41q-44 0 -81.5 21t-37.5 68q0 15 2 23l70 343h-71l10 53h72l2 11q75 20 109 123h82z" />
    <glyph glyph-name="uni1E6D" unicode="&#x1e6d;" horiz-adv-x="410" 
d="M211 111q-2 -12 -2 -16q0 -34 35 -34q45 0 93 101l31 -19q-31 -71 -79.5 -112t-128.5 -41q-44 0 -81.5 21t-37.5 68q0 15 2 23l70 343h-71l10 53h72l2 11q75 20 109 123h82l-27 -134h136l-11 -53h-136zM213 -66.5q14 -14.5 14 -36.5q0 -34 -23 -59t-57 -25
q-25 0 -38.5 14t-13.5 36q0 35 22.5 60t55.5 25q26 0 40 -14.5z" />
    <glyph glyph-name="uni1E6F" unicode="&#x1e6f;" horiz-adv-x="410" 
d="M211 111q-2 -12 -2 -16q0 -34 35 -34q45 0 93 101l31 -19q-31 -71 -79.5 -112t-128.5 -41q-44 0 -81.5 21t-37.5 68q0 15 2 23l70 343h-71l10 53h72l2 11q75 20 109 123h82l-27 -134h136l-11 -53h-136zM-49 -58h391l-10 -53h-392z" />
    <glyph glyph-name="u" unicode="u" horiz-adv-x="676" 
d="M694 147q-30 -68 -80.5 -112.5t-113.5 -44.5q-39 0 -68 19.5t-29 63.5q0 13 3 29l4 18q-44 -56 -98.5 -93t-116.5 -37q-141 0 -141 108q0 21 4 41l65 316q-28 6 -62 19l3 13l236 23l-75 -368q-7 -32 -7 -55q0 -25 9.5 -34.5t31.5 -9.5q28 0 72 40.5t93 106.5l62 308h166
l-78 -388q-4 -20 -4 -27q0 -22 15 -22q16 0 39.5 31t42.5 70z" />
    <glyph glyph-name="uacute" unicode="&#xfa;" horiz-adv-x="676" 
d="M356 584l-19 39l146 133q10 10 32.5 24t42.5 14q22 0 32.5 -11t10.5 -26q0 -23 -16.5 -41t-50.5 -36zM694 147q-30 -68 -80.5 -112.5t-113.5 -44.5q-39 0 -68 19.5t-29 63.5q0 13 3 29l4 18q-44 -56 -98.5 -93t-116.5 -37q-141 0 -141 108q0 21 4 41l65 316q-28 6 -62 19
l3 13l236 23l-75 -368q-7 -32 -7 -55q0 -25 9.5 -34.5t31.5 -9.5q28 0 72 40.5t93 106.5l62 308h166l-78 -388q-4 -20 -4 -27q0 -22 15 -22q16 0 39.5 31t42.5 70z" />
    <glyph glyph-name="ubreve" unicode="&#x16d;" horiz-adv-x="676" 
d="M294.5 616q-39.5 34 -38.5 103h91q-1 -5 -1 -15q0 -39 20.5 -52.5t54.5 -13.5q37 0 64.5 16.5t41.5 64.5h92q-25 -68 -79.5 -102.5t-129.5 -34.5q-76 0 -115.5 34zM694 147q-30 -68 -80.5 -112.5t-113.5 -44.5q-39 0 -68 19.5t-29 63.5q0 13 3 29l4 18q-44 -56 -98.5 -93
t-116.5 -37q-141 0 -141 108q0 21 4 41l65 316q-28 6 -62 19l3 13l236 23l-75 -368q-7 -32 -7 -55q0 -25 9.5 -34.5t31.5 -9.5q28 0 72 40.5t93 106.5l62 308h166l-78 -388q-4 -20 -4 -27q0 -22 15 -22q16 0 39.5 31t42.5 70z" />
    <glyph glyph-name="uni01D4" unicode="&#x1d4;" horiz-adv-x="676" 
d="M316.5 660.5q-43.5 50.5 -72.5 72.5l79 50q27 -26 57 -67t41 -68h4q21 27 68 68t85 67l58 -50q-38 -22 -102 -73t-84 -76h-79q-11 26 -54.5 76.5zM694 147q-30 -68 -80.5 -112.5t-113.5 -44.5q-39 0 -68 19.5t-29 63.5q0 13 3 29l4 18q-44 -56 -98.5 -93t-116.5 -37
q-141 0 -141 108q0 21 4 41l65 316q-28 6 -62 19l3 13l236 23l-75 -368q-7 -32 -7 -55q0 -25 9.5 -34.5t31.5 -9.5q28 0 72 40.5t93 106.5l62 308h166l-78 -388q-4 -20 -4 -27q0 -22 15 -22q16 0 39.5 31t42.5 70z" />
    <glyph glyph-name="ucircumflex" unicode="&#xfb;" horiz-adv-x="676" 
d="M367 651q-47 -41 -86 -69l-58 51q37 21 101 72t86 77h78q10 -25 53.5 -76.5t72.5 -72.5l-79 -51q-27 27 -57 68t-41 68h-3q-20 -26 -67 -67zM694 147q-30 -68 -80.5 -112.5t-113.5 -44.5q-39 0 -68 19.5t-29 63.5q0 13 3 29l4 18q-44 -56 -98.5 -93t-116.5 -37
q-141 0 -141 108q0 21 4 41l65 316q-28 6 -62 19l3 13l236 23l-75 -368q-7 -32 -7 -55q0 -25 9.5 -34.5t31.5 -9.5q28 0 72 40.5t93 106.5l62 308h166l-78 -388q-4 -20 -4 -27q0 -22 15 -22q16 0 39.5 31t42.5 70z" />
    <glyph glyph-name="udieresis" unicode="&#xfc;" horiz-adv-x="676" 
d="M252.5 597q-13.5 14 -13.5 36q0 35 23 60t55 25q25 0 39 -14.5t14 -36.5q0 -33 -23 -58.5t-56 -25.5q-25 0 -38.5 14zM488 596.5q-13 13.5 -13 36.5q0 35 22.5 60t56.5 25q25 0 39 -14.5t14 -36.5q0 -34 -23.5 -59t-57.5 -25q-25 0 -38 13.5zM694 147
q-30 -68 -80.5 -112.5t-113.5 -44.5q-39 0 -68 19.5t-29 63.5q0 13 3 29l4 18q-44 -56 -98.5 -93t-116.5 -37q-141 0 -141 108q0 21 4 41l65 316q-28 6 -62 19l3 13l236 23l-75 -368q-7 -32 -7 -55q0 -25 9.5 -34.5t31.5 -9.5q28 0 72 40.5t93 106.5l62 308h166l-78 -388
q-4 -20 -4 -27q0 -22 15 -22q16 0 39.5 31t42.5 70z" />
    <glyph glyph-name="uni01D8" unicode="&#x1d8;" horiz-adv-x="676" 
d="M431 742l-19 37l115 109q12 12 32 25t43 13q22 0 32 -10.5t10 -25.5q0 -7 -1 -10q-4 -19 -20 -34t-46 -31zM251 597.5q-14 13.5 -14 35.5q0 35 22.5 60t56.5 25q25 0 39 -14.5t14 -36.5q0 -34 -23 -58.5t-56 -24.5q-25 0 -39 13.5zM496.5 693q22.5 25 56.5 25
q25 0 39 -14.5t14 -36.5q0 -34 -23 -58.5t-57 -24.5q-25 0 -38.5 13.5t-13.5 35.5q0 35 22.5 60zM694 147q-30 -68 -80.5 -112.5t-113.5 -44.5q-39 0 -68 19.5t-29 63.5q0 13 3 29l4 18q-44 -56 -98.5 -93t-116.5 -37q-141 0 -141 108q0 21 4 41l65 316q-28 6 -62 19l3 13
l236 23l-75 -368q-7 -32 -7 -55q0 -25 9.5 -34.5t31.5 -9.5q28 0 72 40.5t93 106.5l62 308h166l-78 -388q-4 -20 -4 -27q0 -22 15 -22q16 0 39.5 31t42.5 70z" />
    <glyph glyph-name="uni01DA" unicode="&#x1da;" horiz-adv-x="676" 
d="M353.5 816.5q-40.5 45.5 -70.5 68.5l77 52q28 -26 56 -63.5t38 -63.5h4q22 27 65 64t81 63l56 -52q-39 -22 -98 -68t-80 -71h-79q-9 25 -49.5 70.5zM253 597q-14 14 -14 36q0 34 23.5 59t56.5 25q25 0 38.5 -14.5t13.5 -38.5q0 -33 -23 -57t-56 -24q-25 0 -39 14z
M505 697.5q21 19.5 50 19.5q25 0 39.5 -14.5t14.5 -37.5q0 -33 -23.5 -57.5t-57.5 -24.5q-24 0 -37.5 14t-13.5 37q0 10 1 15q6 29 27 48.5zM694 147q-30 -68 -80.5 -112.5t-113.5 -44.5q-39 0 -68 19.5t-29 63.5q0 13 3 29l4 18q-44 -56 -98.5 -93t-116.5 -37
q-141 0 -141 108q0 21 4 41l65 316q-28 6 -62 19l3 13l236 23l-75 -368q-7 -32 -7 -55q0 -25 9.5 -34.5t31.5 -9.5q28 0 72 40.5t93 106.5l62 308h166l-78 -388q-4 -20 -4 -27q0 -22 15 -22q16 0 39.5 31t42.5 70z" />
    <glyph glyph-name="uni01DC" unicode="&#x1dc;" horiz-adv-x="676" 
d="M294 870q0 20 15 38t45 18q22 0 39 -14.5t20 -23.5l71 -109l-34 -37l-115 73q-41 26 -41 55zM252 597.5q-14 13.5 -14 35.5q0 35 22.5 60t56.5 25q25 0 39 -14.5t14 -36.5q0 -34 -23 -58.5t-56 -24.5q-25 0 -39 13.5zM488.5 597.5q-13.5 13.5 -13.5 35.5q0 35 22.5 60
t56.5 25q25 0 39 -14.5t14 -36.5q0 -34 -23 -58.5t-57 -24.5q-25 0 -38.5 13.5zM694 147q-30 -68 -80.5 -112.5t-113.5 -44.5q-39 0 -68 19.5t-29 63.5q0 13 3 29l4 18q-44 -56 -98.5 -93t-116.5 -37q-141 0 -141 108q0 21 4 41l65 316q-28 6 -62 19l3 13l236 23l-75 -368
q-7 -32 -7 -55q0 -25 9.5 -34.5t31.5 -9.5q28 0 72 40.5t93 106.5l62 308h166l-78 -388q-4 -20 -4 -27q0 -22 15 -22q16 0 39.5 31t42.5 70z" />
    <glyph glyph-name="uni01D6" unicode="&#x1d6;" horiz-adv-x="676" 
d="M644 774h-391l11 52h390zM253 597.5q-14 13.5 -14 35.5q0 35 22.5 60t56.5 25q25 0 39 -14.5t14 -36.5q0 -34 -23 -58.5t-56 -24.5q-25 0 -39 13.5zM498.5 693q22.5 25 56.5 25q24 0 38 -14.5t14 -36.5q0 -34 -23 -58.5t-56 -24.5q-25 0 -38.5 13.5t-13.5 35.5
q0 35 22.5 60zM694 147q-30 -68 -80.5 -112.5t-113.5 -44.5q-39 0 -68 19.5t-29 63.5q0 13 3 29l4 18q-44 -56 -98.5 -93t-116.5 -37q-141 0 -141 108q0 21 4 41l65 316q-28 6 -62 19l3 13l236 23l-75 -368q-7 -32 -7 -55q0 -25 9.5 -34.5t31.5 -9.5q28 0 72 40.5t93 106.5
l62 308h166l-78 -388q-4 -20 -4 -27q0 -22 15 -22q16 0 39.5 31t42.5 70z" />
    <glyph glyph-name="uni1EE5" unicode="&#x1ee5;" horiz-adv-x="676" 
d="M694 147q-30 -68 -80.5 -112.5t-113.5 -44.5q-39 0 -68 19.5t-29 63.5q0 13 3 29l4 18q-44 -56 -98.5 -93t-116.5 -37q-141 0 -141 108q0 21 4 41l65 316q-28 6 -62 19l3 13l236 23l-75 -368q-7 -32 -7 -55q0 -25 9.5 -34.5t31.5 -9.5q28 0 72 40.5t93 106.5l62 308h166
l-78 -388q-4 -20 -4 -27q0 -22 15 -22q16 0 39.5 31t42.5 70zM318.5 -66.5q14.5 -14.5 14.5 -37.5q0 -34 -23.5 -58.5t-57.5 -24.5q-24 0 -37.5 14.5t-13.5 37.5q0 10 1 15q6 29 27 48.5t50 19.5q25 0 39.5 -14.5z" />
    <glyph glyph-name="ugrave" unicode="&#xf9;" horiz-adv-x="676" 
d="M321 738q0 7 1 10q4 18 20.5 32t42.5 14q22 0 37 -13t22 -25l93 -133l-34 -39l-140 96q-42 29 -42 58zM694 147q-30 -68 -80.5 -112.5t-113.5 -44.5q-39 0 -68 19.5t-29 63.5q0 13 3 29l4 18q-44 -56 -98.5 -93t-116.5 -37q-141 0 -141 108q0 21 4 41l65 316
q-28 6 -62 19l3 13l236 23l-75 -368q-7 -32 -7 -55q0 -25 9.5 -34.5t31.5 -9.5q28 0 72 40.5t93 106.5l62 308h166l-78 -388q-4 -20 -4 -27q0 -22 15 -22q16 0 39.5 31t42.5 70z" />
    <glyph glyph-name="uni1EE7" unicode="&#x1ee7;" horiz-adv-x="676" 
d="M465 704.5q19 12.5 24 39.5q1 3 1 9q0 18 -13 29.5t-39 11.5q-34 0 -63 -16l2 42q18 8 42 13.5t47 5.5q45 0 75 -18.5t30 -56.5q0 -7 -2 -21q-9 -45 -38 -65t-73 -24l-25 -71h-68l19 109h40q22 0 41 12.5zM694 147q-30 -68 -80.5 -112.5t-113.5 -44.5q-39 0 -68 19.5
t-29 63.5q0 13 3 29l4 18q-44 -56 -98.5 -93t-116.5 -37q-141 0 -141 108q0 21 4 41l65 316q-28 6 -62 19l3 13l236 23l-75 -368q-7 -32 -7 -55q0 -25 9.5 -34.5t31.5 -9.5q28 0 72 40.5t93 106.5l62 308h166l-78 -388q-4 -20 -4 -27q0 -22 15 -22q16 0 39.5 31t42.5 70z
" />
    <glyph glyph-name="uhorn" unicode="&#x1b0;" horiz-adv-x="734" 
d="M842 630q0 -3 -3 -27q-7 -31 -31.5 -66.5t-68 -65t-100.5 -40.5l-65 -321q-4 -20 -4 -27q0 -22 15 -22q16 0 39.5 31t42.5 70l27 -15q-30 -68 -80.5 -112.5t-113.5 -44.5q-39 0 -68 19.5t-29 63.5q0 13 3 29l4 18q-44 -56 -98.5 -93t-116.5 -37q-141 0 -141 108
q0 21 4 41l65 316q-28 6 -62 19l3 13l236 23l-75 -368q-7 -32 -7 -55q0 -25 9.5 -34.5t31.5 -9.5q28 0 72 41t93 107l54 263q-21 5 -61 20l4 17h203q48 0 77.5 13.5t46.5 48.5q-5 -2 -15 -2q-24 0 -38 13.5t-14 37.5q0 16 8 36.5t28.5 36t55.5 15.5q69 0 69 -60z" />
    <glyph glyph-name="uni1EE9" unicode="&#x1ee9;" horiz-adv-x="734" 
d="M365 584l-19 39l146 133q44 38 76 38q21 0 31.5 -10.5t10.5 -25.5q0 -7 -1 -10q-4 -20 -19.5 -36t-45.5 -32zM842 630q0 -3 -3 -27q-7 -31 -31.5 -66.5t-68 -65t-100.5 -40.5l-65 -321q-4 -20 -4 -27q0 -22 15 -22q16 0 39.5 31t42.5 70l27 -15q-30 -68 -80.5 -112.5
t-113.5 -44.5q-39 0 -68 19.5t-29 63.5q0 13 3 29l4 18q-44 -56 -98.5 -93t-116.5 -37q-141 0 -141 108q0 21 4 41l65 316q-28 6 -62 19l3 13l236 23l-75 -368q-7 -32 -7 -55q0 -25 9.5 -34.5t31.5 -9.5q28 0 72 41t93 107l54 263q-21 5 -61 20l4 17h203q48 0 77.5 13.5
t46.5 48.5q-5 -2 -15 -2q-24 0 -38 13.5t-14 37.5q0 16 8 36.5t28.5 36t55.5 15.5q69 0 69 -60z" />
    <glyph glyph-name="uni1EF1" unicode="&#x1ef1;" horiz-adv-x="734" 
d="M842 630q0 -3 -3 -27q-7 -31 -31.5 -66.5t-68 -65t-100.5 -40.5l-65 -321q-4 -20 -4 -27q0 -22 15 -22q16 0 39.5 31t42.5 70l27 -15q-30 -68 -80.5 -112.5t-113.5 -44.5q-39 0 -68 19.5t-29 63.5q0 13 3 29l4 18q-44 -56 -98.5 -93t-116.5 -37q-141 0 -141 108
q0 21 4 41l65 316q-28 6 -62 19l3 13l236 23l-75 -368q-7 -32 -7 -55q0 -25 9.5 -34.5t31.5 -9.5q28 0 72 41t93 107l54 263q-21 5 -61 20l4 17h203q48 0 77.5 13.5t46.5 48.5q-5 -2 -15 -2q-24 0 -38 13.5t-14 37.5q0 16 8 36.5t28.5 36t55.5 15.5q69 0 69 -60zM335 -66.5
q14 -14.5 14 -36.5q0 -34 -23.5 -59t-57.5 -25q-24 0 -37.5 14t-13.5 36q0 35 22.5 60t55.5 25q26 0 40 -14.5z" />
    <glyph glyph-name="uni1EEB" unicode="&#x1eeb;" horiz-adv-x="734" 
d="M305 738q0 7 1 10q4 18 20.5 32t41.5 14q23 0 38 -13t22 -25l93 -133l-35 -39l-140 96q-41 28 -41 58zM842 630q0 -3 -3 -27q-7 -31 -31.5 -66.5t-68 -65t-100.5 -40.5l-65 -321q-4 -20 -4 -27q0 -22 15 -22q16 0 39.5 31t42.5 70l27 -15q-30 -68 -80.5 -112.5
t-113.5 -44.5q-39 0 -68 19.5t-29 63.5q0 13 3 29l4 18q-44 -56 -98.5 -93t-116.5 -37q-141 0 -141 108q0 21 4 41l65 316q-28 6 -62 19l3 13l236 23l-75 -368q-7 -32 -7 -55q0 -25 9.5 -34.5t31.5 -9.5q28 0 72 41t93 107l54 263q-21 5 -61 20l4 17h203q48 0 77.5 13.5
t46.5 48.5q-5 -2 -15 -2q-24 0 -38 13.5t-14 37.5q0 16 8 36.5t28.5 36t55.5 15.5q69 0 69 -60z" />
    <glyph glyph-name="uni1EED" unicode="&#x1eed;" horiz-adv-x="734" 
d="M460 704.5q19 12.5 24 39.5q1 3 1 9q0 18 -13 29.5t-38 11.5q-35 0 -64 -16l2 42q18 8 42 13.5t47 5.5q45 0 75 -18.5t30 -55.5q0 -14 -2 -22q-8 -45 -37 -65t-74 -24l-25 -71h-67l18 109h40q22 0 41 12.5zM842 630q0 -3 -3 -27q-7 -31 -31.5 -66.5t-68 -65t-100.5 -40.5
l-65 -321q-4 -20 -4 -27q0 -22 15 -22q16 0 39.5 31t42.5 70l27 -15q-30 -68 -80.5 -112.5t-113.5 -44.5q-39 0 -68 19.5t-29 63.5q0 13 3 29l4 18q-44 -56 -98.5 -93t-116.5 -37q-141 0 -141 108q0 21 4 41l65 316q-28 6 -62 19l3 13l236 23l-75 -368q-7 -32 -7 -55
q0 -25 9.5 -34.5t31.5 -9.5q28 0 72 41t93 107l54 263q-21 5 -61 20l4 17h203q48 0 77.5 13.5t46.5 48.5q-5 -2 -15 -2q-24 0 -38 13.5t-14 37.5q0 16 8 36.5t28.5 36t55.5 15.5q69 0 69 -60z" />
    <glyph glyph-name="uni1EEF" unicode="&#x1eef;" horiz-adv-x="734" 
d="M308 621.5q-16 -13.5 -24 -37.5h-77q21 60 59 91t91 31q29 0 49.5 -8.5t43.5 -23.5q15 -10 25.5 -14.5t21.5 -4.5q21 0 36.5 10.5t29.5 42.5h75q-37 -124 -148 -124q-22 0 -43.5 8t-47.5 23q-5 2 -17 8t-21 9t-16 3q-21 0 -37 -13.5zM842 630q0 -3 -3 -27
q-7 -31 -31.5 -66.5t-68 -65t-100.5 -40.5l-65 -321q-4 -20 -4 -27q0 -22 15 -22q16 0 39.5 31t42.5 70l27 -15q-30 -68 -80.5 -112.5t-113.5 -44.5q-39 0 -68 19.5t-29 63.5q0 13 3 29l4 18q-44 -56 -98.5 -93t-116.5 -37q-141 0 -141 108q0 21 4 41l65 316q-28 6 -62 19
l3 13l236 23l-75 -368q-7 -32 -7 -55q0 -25 9.5 -34.5t31.5 -9.5q28 0 72 41t93 107l54 263q-21 5 -61 20l4 17h203q48 0 77.5 13.5t46.5 48.5q-5 -2 -15 -2q-24 0 -38 13.5t-14 37.5q0 16 8 36.5t28.5 36t55.5 15.5q69 0 69 -60z" />
    <glyph glyph-name="uhungarumlaut" unicode="&#x171;" horiz-adv-x="676" 
d="M237 582l-18 40l145 132q8 10 30 24t44 14q26 0 36.5 -14t7.5 -32q-7 -35 -67 -68zM692.5 778q10.5 -14 7.5 -32q-7 -35 -68 -68l-179 -96l-18 40l146 132q12 12 32.5 25t42.5 13q26 0 36.5 -14zM624.5 92q23.5 31 42.5 70l27 -15q-30 -68 -80.5 -112.5t-113.5 -44.5
q-39 0 -68 19.5t-29 63.5q0 13 3 29l4 18q-44 -56 -98.5 -93t-116.5 -37q-141 0 -141 108q0 21 4 41l65 316q-28 6 -62 19l3 13l236 23l-75 -368q-7 -32 -7 -55q0 -25 9.5 -34.5t31.5 -9.5q28 0 72 40.5t93 106.5l62 308h166l-78 -388q-4 -20 -4 -27q0 -22 15 -22
q16 0 39.5 31z" />
    <glyph glyph-name="umacron" unicode="&#x16b;" horiz-adv-x="676" 
d="M606 584h-391l10 52h392zM694 147q-30 -68 -80.5 -112.5t-113.5 -44.5q-39 0 -68 19.5t-29 63.5q0 13 3 29l4 18q-44 -56 -98.5 -93t-116.5 -37q-141 0 -141 108q0 21 4 41l65 316q-28 6 -62 19l3 13l236 23l-75 -368q-7 -32 -7 -55q0 -25 9.5 -34.5t31.5 -9.5
q28 0 72 40.5t93 106.5l62 308h166l-78 -388q-4 -20 -4 -27q0 -22 15 -22q16 0 39.5 31t42.5 70z" />
    <glyph glyph-name="uogonek" unicode="&#x173;" horiz-adv-x="676" 
d="M514.5 -38.5q-13.5 -20.5 -17.5 -38.5q-1 -4 -1 -12q0 -18 13 -29t36 -11q33 0 72 23l-13 -70q-22 -13 -55.5 -21t-67.5 -8q-57 0 -88 19.5t-31 55.5q0 32 26 69.5t68 57.5q-53 20 -53 76q0 13 3 29l4 18q-44 -56 -98.5 -93t-116.5 -37q-141 0 -141 108q0 21 4 41l65 316
q-28 6 -62 19l3 13l236 23l-75 -368q-7 -32 -7 -55q0 -25 9.5 -34.5t31.5 -9.5q28 0 72 40.5t93 106.5l62 308h166l-78 -388q-4 -20 -4 -27q0 -22 15 -22q16 0 39.5 31t42.5 70l27 -15q-24 -55 -62 -95.5t-86 -54.5q-18 -15 -31.5 -35.5z" />
    <glyph glyph-name="uring" unicode="&#x16f;" horiz-adv-x="676" 
d="M343 603q-24 22 -24 59q0 12 3 25q10 48 46 77.5t85 29.5q42 0 66 -22.5t24 -59.5q0 -11 -3 -25q-10 -47 -45.5 -76.5t-84.5 -29.5q-43 0 -67 22zM386 642q13 -12 33 -12q28 0 48.5 20t20.5 51q0 20 -12 31.5t-33 11.5q-27 0 -48.5 -20.5t-21.5 -50.5q0 -19 13 -31z
M694 147q-30 -68 -80.5 -112.5t-113.5 -44.5q-39 0 -68 19.5t-29 63.5q0 13 3 29l4 18q-44 -56 -98.5 -93t-116.5 -37q-141 0 -141 108q0 21 4 41l65 316q-28 6 -62 19l3 13l236 23l-75 -368q-7 -32 -7 -55q0 -25 9.5 -34.5t31.5 -9.5q28 0 72 40.5t93 106.5l62 308h166
l-78 -388q-4 -20 -4 -27q0 -22 15 -22q16 0 39.5 31t42.5 70z" />
    </font>
</defs>
</svg>
