<?xml version="1.0" standalone="no"?>
<!DOCTYPE svg PUBLIC "-//W3C//DTD SVG 1.1//EN" "http://www.w3.org/Graphics/SVG/1.1/DTD/svg11.dtd" >
<svg>
<metadata>
Created by FontForge 20090622 at Wed Nov  1 21:07:58 2017
 By deploy user
Copyright (c) 2015, Cadson Demak (info@cadsondemak.com)
</metadata>
<defs>
<font id="Trirong-MediumItalic" horiz-adv-x="0" >
  <font-face 
    font-family="Trirong Medium"
    font-weight="500"
    font-style="italic"
    font-stretch="normal"
    units-per-em="1000"
    panose-1="0 0 6 0 0 0 0 0 0 0"
    ascent="750"
    descent="-250"
    x-height="498"
    cap-height="700"
    bbox="-530 -502 1402 1142"
    underline-thickness="50"
    underline-position="-50"
    slope="-12"
    unicode-range="U+000D-U+FB02"
  />
<missing-glyph horiz-adv-x="576" 
d="M48 714h403v-714h-403v714zM421 31v652h-343v-652h343z" />
    <glyph glyph-name="fi" unicode="fi" horiz-adv-x="703" 
d="M596 498l70 9l-102 -507l-110 -10l96 468h-275l-89 -436q-19 -93 -72.5 -140.5t-137.5 -47.5q-65 0 -95.5 20.5t-30.5 56.5q0 6 2 20q3 14 14.5 26.5t27.5 12.5q31 0 29 -34q-1 -5 -4 -11t-4 -10q0 -38 51 -38q42 0 69.5 32.5t38.5 85.5l94 463h-89l7 40h90l7 32
q40 189 207 189q65 0 98.5 -21t33.5 -57q0 -7 -2 -19q-3 -15 -15 -27t-28 -12q-33 0 -29 34q1 4 3.5 10l4.5 11q1 38 -52 38q-41 0 -69.5 -32.5t-38.5 -85.5l-12 -60h312zM676.5 658.5q13.5 -12.5 13.5 -33.5q0 -33 -21.5 -55t-53.5 -22q-23 0 -36 13t-13 34q0 9 1 14
q6 27 26 44.5t47 17.5q23 0 36.5 -12.5z" />
    <glyph glyph-name="fl" unicode="fl" horiz-adv-x="692" 
d="M692 712l-145 -712l-109 -10l126 621q4 17 -11.5 31.5t-44 23.5t-60.5 9q-54 0 -96.5 -28t-55.5 -89l-12 -60h143l-7 -40h-145l-89 -436q-19 -93 -72.5 -140.5t-137.5 -47.5q-65 0 -95.5 20.5t-30.5 56.5q0 6 2 20q3 14 14.5 26.5t27.5 12.5q31 0 29 -34q-1 -5 -4 -11
t-4 -10q0 -38 51 -38q42 0 69.5 32.5t38.5 85.5l94 463h-89l7 40h90l7 32q20 99 81.5 144.5t144.5 45.5q75 0 146 -33z" />
    <glyph glyph-name="ru_lakkhangyaothai" unicode="&#xe24;&#xe45;" horiz-adv-x="860" 
d="M811 534q38 -30 38 -90q0 -23 -6 -50l-117 -573h-106l118 576q6 29 6 51q0 76 -73 76q-35 0 -69.5 -26t-54.5 -68q2 -25 -4 -50l-114 -559h-106l118 578q3 14 3 27q0 42 -27.5 68t-81.5 26q-47 0 -89 -21.5t-74 -62.5q27 -10 55.5 -30.5t45.5 -42.5l-2 -9
q-48 -26 -70 -56t-33 -83l-11 -52q12 4 24 4q26 0 43.5 -16t17.5 -47q0 -15 -2 -23q-9 -44 -40 -67.5t-77 -23.5q-89 0 -89 77q0 10 4 34l23 115q9 43 37.5 80.5t79.5 62.5q-32 32 -94 54l2 12q42 61 112.5 100t155.5 39q64 0 112 -21t68 -62q30 40 73 61.5t95 21.5
q71 0 109 -30zM116.5 117.5q-17.5 -19.5 -17.5 -54.5q0 -19 9.5 -29.5t25.5 -10.5q20 0 37 15.5t23 42.5q2 12 2 17q0 19 -10.5 29t-27.5 10q-24 0 -41.5 -19.5z" />
    <glyph glyph-name="lu_lakkhangyaothai" unicode="&#xe26;&#xe45;" horiz-adv-x="895" 
d="M846 534q38 -30 38 -90q0 -23 -6 -50l-117 -573h-106l118 576q6 27 6 50q0 77 -73 77q-35 0 -68.5 -25t-53.5 -67q2 -25 -4 -52l-114 -559h-107l118 578q3 15 3 29q0 41 -27 66.5t-80 25.5q-47 0 -88.5 -21.5t-73.5 -62.5q29 -10 59.5 -30.5t46.5 -42.5l-2 -9
q-43 -25 -60 -54t-28 -85l-23 -114q-24 -111 -137 -111q-40 0 -61 17.5t-21 49.5q0 11 3 24q9 42 39 64.5t70 22.5q9 0 13 -1l10 49q10 49 31.5 84t70.5 59q-29 29 -99 54l3 12q42 61 112 100t154 39q63 0 110.5 -20.5t68.5 -60.5q29 39 71 60t94 21q72 0 110 -30zM131 97
q0 20 -10 30t-27 10q-24 0 -42 -19.5t-18 -54.5q0 -19 10 -29.5t26 -10.5q20 0 36.5 15.5t22.5 42.5q2 12 2 16z" />
    <glyph glyph-name=".notdef" horiz-adv-x="576" 
d="M48 714h403v-714h-403v714zM421 31v652h-343v-652h343z" />
    <glyph glyph-name=".null" horiz-adv-x="485" 
 />
    <glyph glyph-name="nonmarkingreturn" unicode="&#xd;" horiz-adv-x="252" 
 />
    <glyph glyph-name="space" unicode=" " horiz-adv-x="252" 
 />
    <glyph glyph-name="A" unicode="A" horiz-adv-x="711" 
d="M668 14l-2 -14h-260l3 15q38 14 82 19l-20 147h-281l-81 -148q40 -5 75 -20l-2 -13h-214l3 16q18 6 41 12t38 8l372 668h76l100 -670q36 -6 70 -20zM465 221l-50 369l-203 -369h253z" />
    <glyph glyph-name="Aacute" unicode="&#xc1;" horiz-adv-x="711" 
d="M427 786l-13 27l135 113q31 27 55 27q15 0 22.5 -7.5t7.5 -18.5q0 -16 -11.5 -28.5t-35.5 -26.5zM668 14l-2 -14h-260l3 15q38 14 82 19l-20 147h-281l-81 -148q40 -5 75 -20l-2 -13h-214l3 16q18 6 41 12t38 8l372 668h76l100 -670q36 -6 70 -20zM465 221l-50 369
l-203 -369h253z" />
    <glyph glyph-name="Abreve" unicode="&#x102;" horiz-adv-x="711" 
d="M374 809.5q-34 31.5 -30 95.5h62q-1 -6 -1 -16q0 -40 22 -54.5t56 -14.5q37 0 66.5 17.5t44.5 67.5h64q-21 -63 -69 -95t-115 -32q-66 0 -100 31.5zM668 14l-2 -14h-260l3 15q38 14 82 19l-20 147h-281l-81 -148q40 -5 75 -20l-2 -13h-214l3 16q18 6 41 12t38 8l372 668
h76l100 -670q36 -6 70 -20zM465 221l-50 369l-203 -369h253z" />
    <glyph glyph-name="uni1EAE" unicode="&#x1eae;" horiz-adv-x="711" 
d="M487 913l-13 24l85 76q43 40 74 40q11 0 17.5 -5.5t6.5 -14.5q0 -15 -17 -34t-50 -35zM387 815.5q-35 31.5 -31 95.5h64q-1 -6 -1 -17q0 -40 21.5 -54t55.5 -14q38 0 67.5 17.5t44.5 67.5h62q-21 -64 -68.5 -95.5t-113.5 -31.5t-101 31.5zM598 34q36 -6 70 -20l-2 -14
h-260l3 15q38 14 82 19l-20 147h-281l-81 -148q40 -5 75 -20l-2 -13h-214l3 16q18 6 41 12t38 8l372 668h76zM465 221l-50 369l-203 -369h253z" />
    <glyph glyph-name="uni1EB6" unicode="&#x1eb6;" horiz-adv-x="711" 
d="M370 808.5q-34 31.5 -30 95.5h62l-1 -15q0 -41 22 -55.5t56 -14.5q37 0 66.5 17.5t44.5 67.5h64q-21 -63 -69 -95t-115 -32q-66 0 -100 31.5zM668 14l-2 -14h-260l3 15q38 14 82 19l-20 147h-281l-81 -148q40 -5 75 -20l-2 -13h-214l3 16q18 6 41 12t38 8l372 668h76
l100 -670q36 -6 70 -20zM465 221l-50 369l-203 -369h253zM331 -68q11 -11 11 -28q0 -26 -18 -45t-44 -19q-18 0 -28 10.5t-10 28.5q0 8 1 12q5 23 21 37.5t37 14.5q19 0 30 -11z" />
    <glyph glyph-name="uni1EB0" unicode="&#x1eb0;" horiz-adv-x="711" 
d="M429 992.5q-10 14.5 -10 28.5q0 13 10 22.5t24 9.5q31 0 60 -40l53 -76l-22 -24l-84 51q-21 14 -31 28.5zM388 815.5q-35 31.5 -31 95.5h63l-1 -15q0 -41 22 -55.5t56 -14.5q38 0 67.5 17.5t44.5 67.5h62q-21 -64 -68.5 -95.5t-113.5 -31.5t-101 31.5zM598 34
q36 -6 70 -20l-2 -14h-260l3 15q38 14 82 19l-20 147h-281l-81 -148q40 -5 75 -20l-2 -13h-214l3 16q18 6 41 12t38 8l372 668h76zM465 221l-50 369l-203 -369h253z" />
    <glyph glyph-name="uni1EB2" unicode="&#x1eb2;" horiz-adv-x="711" 
d="M563 998q16 11 20 32q1 3 1 8q0 13 -11 21t-33 8q-25 0 -51 -13v30q34 14 70 14q33 0 54.5 -13.5t21.5 -40.5q0 -5 -2 -15q-11 -59 -87 -66l-19 -55h-39l11 79h24q24 0 40 11zM387 815.5q-35 31.5 -31 95.5h64q-1 -6 -1 -17q0 -40 21.5 -54t55.5 -14q38 0 67.5 17.5
t44.5 67.5h62q-21 -64 -68.5 -95.5t-113.5 -31.5t-101 31.5zM598 34q36 -6 70 -20l-2 -14h-260l3 15q38 14 82 19l-20 147h-281l-81 -148q40 -5 75 -20l-2 -13h-214l3 16q18 6 41 12t38 8l372 668h76zM465 221l-50 369l-203 -369h253z" />
    <glyph glyph-name="uni1EB4" unicode="&#x1eb4;" horiz-adv-x="711" 
d="M716 1087q-16 -51 -49 -80t-78 -29q-18 0 -33 7.5t-36 22.5q-18 13 -29 19t-23 6q-21 0 -41.5 -15.5t-30.5 -40.5h-38q18 53 49.5 79.5t74.5 26.5q22 0 38 -8t34 -23q16 -12 26 -17.5t21 -5.5q23 0 44 13.5t35 44.5h36zM563.5 843.5q29.5 17.5 44.5 67.5h62
q-21 -64 -68.5 -95.5t-113.5 -31.5t-101 31.5t-31 95.5h64q-1 -6 -1 -17q0 -40 21.5 -54t55.5 -14q38 0 67.5 17.5zM598 34q36 -6 70 -20l-2 -14h-260l3 15q38 14 82 19l-20 147h-281l-81 -148q40 -5 75 -20l-2 -13h-214l3 16q18 6 41 12t38 8l372 668h76zM465 221l-50 369
l-203 -369h253z" />
    <glyph glyph-name="uni01CD" unicode="&#x1cd;" horiz-adv-x="711" 
d="M405 853.5q-33 39.5 -60 62.5l51 36q25 -23 51 -56t37 -59h5q22 26 61.5 58.5t74.5 56.5l36 -36q-37 -22 -86 -61.5t-73 -68.5h-51q-13 28 -46 67.5zM668 14l-2 -14h-260l3 15q38 14 82 19l-20 147h-281l-81 -148q40 -5 75 -20l-2 -13h-214l3 16q18 6 41 12t38 8l372 668
h76l100 -670q36 -6 70 -20zM465 221l-50 369l-203 -369h253z" />
    <glyph glyph-name="Acircumflex" unicode="&#xc2;" horiz-adv-x="711" 
d="M436 839q-39 -33 -75 -58l-37 37q36 21 85.5 61t74.5 68h51q13 -28 46 -68t60 -61l-51 -37q-25 24 -51 57t-38 59h-5q-21 -25 -60 -58zM668 14l-2 -14h-260l3 15q38 14 82 19l-20 147h-281l-81 -148q40 -5 75 -20l-2 -13h-214l3 16q18 6 41 12t38 8l372 668h76l100 -670
q36 -6 70 -20zM465 221l-50 369l-203 -369h253z" />
    <glyph glyph-name="uni1EA4" unicode="&#x1ea4;" horiz-adv-x="711" 
d="M788.5 1042.5q6.5 -5.5 6.5 -14.5q0 -15 -17 -34t-50 -35l-104 -51l-12 24l84 76q44 40 75 40q11 0 17.5 -5.5zM437 838.5q-39 -33.5 -74 -57.5l-38 37q35 21 85 60.5t76 68.5h50q14 -28 46.5 -67.5t58.5 -61.5l-50 -37q-24 24 -50 57t-39 59h-4q-22 -25 -61 -58.5z
M598 34q36 -6 70 -20l-2 -14h-260l3 15q38 14 82 19l-20 147h-281l-81 -148q40 -5 75 -20l-2 -13h-214l3 16q18 6 41 12t38 8l372 668h76zM465 221l-50 369l-203 -369h253z" />
    <glyph glyph-name="uni1EAC" unicode="&#x1eac;" horiz-adv-x="711" 
d="M437 838q-39 -33 -75 -58l-37 37q36 21 85.5 61t74.5 68h51q13 -28 46 -68t60 -61l-51 -37q-25 24 -51 57t-38 59h-5q-21 -25 -60 -58zM668 14l-2 -14h-260l3 15q38 14 82 19l-20 147h-281l-81 -148q40 -5 75 -20l-2 -13h-214l3 16q18 6 41 12t38 8l372 668h76l100 -670
q36 -6 70 -20zM465 221l-50 369l-203 -369h253zM335.5 -67.5q10.5 -10.5 10.5 -28.5q0 -26 -18 -45t-43 -19q-18 0 -28 10.5t-10 27.5q0 28 17 46.5t42 18.5q19 0 29.5 -10.5z" />
    <glyph glyph-name="uni1EA6" unicode="&#x1ea6;" horiz-adv-x="711" 
d="M272 986.5q-10 14.5 -10 28.5t9.5 23.5t24.5 9.5q14 0 29.5 -10t29.5 -30l54 -76l-22 -24l-85 51q-20 13 -30 27.5zM325 818q35 21 85 60.5t76 68.5h50q14 -28 46.5 -67.5t58.5 -61.5l-50 -37q-24 24 -50 57t-39 59h-4q-22 -25 -61 -58.5t-74 -57.5zM668 14l-2 -14h-260
l3 15q38 14 82 19l-20 147h-281l-81 -148q40 -5 75 -20l-2 -13h-214l3 16q18 6 41 12t38 8l372 668h76l100 -670q36 -6 70 -20zM465 221l-50 369l-203 -369h253z" />
    <glyph glyph-name="uni1EA8" unicode="&#x1ea8;" horiz-adv-x="711" 
d="M730 1079q22 -14 22 -41q0 -4 -2 -14q-12 -59 -88 -66l-19 -55h-38l11 79h23q24 0 40 11t20 32q1 3 1 8q0 13 -11 21t-32 8q-26 0 -51 -13v30q32 14 69 14q33 0 55 -14zM437 838.5q-39 -33.5 -74 -57.5l-38 37q35 21 85 60.5t76 68.5h50q14 -28 46.5 -67.5t58.5 -61.5
l-50 -37q-24 24 -50 57t-39 59h-4q-22 -25 -61 -58.5zM598 34q36 -6 70 -20l-2 -14h-260l3 15q38 14 82 19l-20 147h-281l-81 -148q40 -5 75 -20l-2 -13h-214l3 16q18 6 41 12t38 8l372 668h76zM465 221l-50 369l-203 -369h253z" />
    <glyph glyph-name="uni1EAA" unicode="&#x1eaa;" horiz-adv-x="711" 
d="M715 1082q-16 -51 -47.5 -80t-76.5 -29q-19 0 -36.5 8t-41.5 23q-21 13 -33 18.5t-23 5.5q-22 0 -42 -15.5t-30 -40.5h-38q18 53 49.5 79.5t73.5 26.5q22 0 38.5 -7.5t42.5 -23.5q17 -12 29 -17.5t23 -5.5q22 0 42.5 13.5t33.5 44.5h36zM437 838.5q-39 -33.5 -74 -57.5
l-38 37q35 21 85 60.5t76 68.5h50q14 -28 46.5 -67.5t58.5 -61.5l-50 -37q-24 24 -50 57t-39 59h-4q-22 -25 -61 -58.5zM598 34q36 -6 70 -20l-2 -14h-260l3 15q38 14 82 19l-20 147h-281l-81 -148q40 -5 75 -20l-2 -13h-214l3 16q18 6 41 12t38 8l372 668h76zM465 221
l-50 369l-203 -369h253z" />
    <glyph glyph-name="Adieresis" unicode="&#xc4;" horiz-adv-x="711" 
d="M328.5 795.5q-9.5 10.5 -9.5 27.5q0 28 16.5 46.5t41.5 18.5q19 0 29.5 -10.5t10.5 -28.5q0 -26 -18 -45t-43 -19q-18 0 -27.5 10.5zM546 795.5q-10 10.5 -10 27.5q0 27 17 46t42 19q18 0 28.5 -10.5t10.5 -28.5q0 -26 -17.5 -45t-42.5 -19q-18 0 -28 10.5zM668 14
l-2 -14h-260l3 15q38 14 82 19l-20 147h-281l-81 -148q40 -5 75 -20l-2 -13h-214l3 16q18 6 41 12t38 8l372 668h76l100 -670q36 -6 70 -20zM465 221l-50 369l-203 -369h253z" />
    <glyph glyph-name="uni1EA0" unicode="&#x1ea0;" horiz-adv-x="711" 
d="M668 14l-2 -14h-260l3 15q38 14 82 19l-20 147h-281l-81 -148q40 -5 75 -20l-2 -13h-214l3 16q18 6 41 12t38 8l372 668h76l100 -670q36 -6 70 -20zM465 221l-50 369l-203 -369h253zM334.5 -67.5q10.5 -10.5 10.5 -28.5q0 -26 -18 -45t-43 -19q-18 0 -28 10.5t-10 27.5
q0 28 17 46.5t42 18.5q19 0 29.5 -10.5z" />
    <glyph glyph-name="Agrave" unicode="&#xc0;" horiz-adv-x="711" 
d="M380 921q3 13 14.5 22.5t28.5 9.5q15 0 24.5 -7.5t19.5 -18.5l89 -114l-23 -27l-125 86q-33 24 -28 49zM668 14l-2 -14h-260l3 15q38 14 82 19l-20 147h-281l-81 -148q40 -5 75 -20l-2 -13h-214l3 16q18 6 41 12t38 8l372 668h76l100 -670q36 -6 70 -20zM465 221l-50 369
l-203 -369h253z" />
    <glyph glyph-name="uni1EA2" unicode="&#x1ea2;" horiz-adv-x="711" 
d="M548.5 889.5q18.5 13.5 23.5 38.5q1 4 1 10q0 16 -12.5 26.5t-36.5 10.5q-28 0 -59 -16v33q16 7 37.5 12t42.5 5q37 0 61.5 -16.5t24.5 -48.5q0 -4 -2 -18q-14 -71 -100 -79l-23 -66h-45l14 95h28q27 0 45.5 13.5zM668 14l-2 -14h-260l3 15q38 14 82 19l-20 147h-281
l-81 -148q40 -5 75 -20l-2 -13h-214l3 16q18 6 41 12t38 8l372 668h76l100 -670q36 -6 70 -20zM465 221l-50 369l-203 -369h253z" />
    <glyph glyph-name="Amacron" unicode="&#x100;" horiz-adv-x="711" 
d="M647 785h-337l8 40h337zM668 14l-2 -14h-260l3 15q38 14 82 19l-20 147h-281l-81 -148q40 -5 75 -20l-2 -13h-214l3 16q18 6 41 12t38 8l372 668h76l100 -670q36 -6 70 -20zM465 221l-50 369l-203 -369h253z" />
    <glyph glyph-name="Aogonek" unicode="&#x104;" horiz-adv-x="711" 
d="M694 -125l-10 -48q-38 -20 -93 -20q-45 0 -68.5 18.5t-23.5 48.5q0 6 2 16q8 35 36.5 65.5t69.5 44.5h-201l3 15q38 14 82 19l-20 147h-281l-81 -148q40 -5 75 -20l-2 -13h-214l3 16q18 6 41 12t38 8l372 668h76l100 -670q36 -6 70 -20l-2 -14h-5q-30 -17 -52.5 -45.5
t-22.5 -56.5q0 -18 13.5 -28.5t36.5 -10.5q26 0 58 16zM465 221l-50 369l-203 -369h253z" />
    <glyph glyph-name="Aring" unicode="&#xc5;" horiz-adv-x="711" 
d="M410 760.5q-21 18.5 -21 50.5q0 50 34 83t82 33q36 0 56.5 -19.5t20.5 -51.5q0 -14 -2 -22q-9 -41 -40.5 -66.5t-72.5 -25.5q-36 0 -57 18.5zM441.5 789.5q12.5 -11.5 32.5 -11.5q28 0 48 19.5t20 50.5q0 19 -12.5 30.5t-32.5 11.5q-27 0 -47.5 -19.5t-20.5 -49.5
q0 -20 12.5 -31.5zM668 14l-2 -14h-260l3 15q38 14 82 19l-20 147h-281l-81 -148q40 -5 75 -20l-2 -13h-214l3 16q18 6 41 12t38 8l372 668h76l100 -670q36 -6 70 -20zM465 221l-50 369l-203 -369h253z" />
    <glyph glyph-name="Aringacute" unicode="&#x1fa;" horiz-adv-x="711" 
d="M459 950l-14 27l136 113q9 9 24 18t31 9q17 0 24 -10t4 -22q-6 -27 -46 -49zM410 758.5q-21 18.5 -21 50.5q0 50 34 83t82 33q36 0 56.5 -19.5t20.5 -51.5q0 -14 -2 -22q-9 -41 -40.5 -66.5t-72.5 -25.5q-36 0 -57 18.5zM441.5 787.5q12.5 -11.5 32.5 -11.5q28 0 48 19.5
t20 50.5q0 19 -12.5 30.5t-32.5 11.5q-27 0 -47.5 -19.5t-20.5 -49.5q0 -20 12.5 -31.5zM668 14l-2 -14h-260l3 15q38 14 82 19l-20 147h-281l-81 -148q40 -5 75 -20l-2 -13h-214l3 16q18 6 41 12t38 8l372 668h76l100 -670q36 -6 70 -20zM465 221l-50 369l-203 -369h253z
" />
    <glyph glyph-name="Atilde" unicode="&#xc3;" horiz-adv-x="711" 
d="M371 826.5q-20 -15.5 -30 -40.5h-39q18 53 49.5 79.5t73.5 26.5q22 0 40 -8t41 -23q17 -12 29 -17.5t24 -5.5q23 0 43 13.5t33 44.5h35q-35 -109 -123 -109q-19 0 -36.5 8t-41.5 23q-21 13 -33 18.5t-23 5.5q-22 0 -42 -15.5zM598 34q36 -6 70 -20l-2 -14h-260l3 15
q38 14 82 19l-20 147h-281l-81 -148q40 -5 75 -20l-2 -13h-214l3 16q18 6 41 12t38 8l372 668h76zM465 221l-50 369l-203 -369h253z" />
    <glyph glyph-name="AE" unicode="&#xc6;" horiz-adv-x="970" 
d="M-30 14q38 13 77 21l497 637l-18.5 4.5t-26.5 9.5l3 14h514l-32 -156h-25q-4 11 -6 34t-2 47q0 16 2 34h-267l-57 -279h190q17 50 35 84h19l-43 -209h-18q-3 20 -3 43t2 41h-190l-61 -299h270q7 23 28.5 61.5t35.5 53.5h25l-46 -155h-510l2 14q43 14 85 19l30 148h-255
l-114 -148q46 -6 78 -20l-2 -13h-219zM488 221l84 411l-317 -411h233z" />
    <glyph glyph-name="AEacute" unicode="&#x1fc;" horiz-adv-x="970" 
d="M713 813l136 113q27 27 54 27q17 0 24.5 -10t4.5 -22q-6 -27 -46 -49l-159 -86zM-30 14q38 13 77 21l497 637l-18.5 4.5t-26.5 9.5l3 14h514l-32 -156h-25q-4 11 -6 34t-2 47q0 16 2 34h-267l-57 -279h190q17 50 35 84h19l-43 -209h-18q-3 20 -3 43t2 41h-190l-61 -299
h270q7 23 28.5 61.5t35.5 53.5h25l-46 -155h-510l2 14q43 14 85 19l30 148h-255l-114 -148q46 -6 78 -20l-2 -13h-219zM488 221l84 411l-317 -411h233z" />
    <glyph glyph-name="B" unicode="B" horiz-adv-x="593" 
d="M-6 14q28 10 45.5 14.5t37.5 6.5l128 631q-40 7 -73 19l2 15h288q101 0 147 -29t46 -89q0 -25 -5 -46q-11 -56 -52 -102t-105 -61l-1 -5q63 -13 91.5 -49.5t28.5 -84.5q0 -19 -5 -42q-19 -96 -80 -144t-177 -48h-318zM342 388q63 0 103.5 38.5t53.5 104.5q5 28 5 46
q0 42 -24.5 62t-78.5 20h-87l-56 -271h84zM304 40q126 0 157 156q5 28 5 47q0 52 -28.5 78.5t-83.5 26.5h-104l-63 -308h117z" />
    <glyph glyph-name="C" unicode="C" horiz-adv-x="609" 
d="M127.5 54q-64.5 64 -64.5 182q0 47 13 114q34 169 135 264.5t253 95.5q133 0 195 -72l-38 -130h-27q-1 8 -1 28q0 49 6 91q-20 19 -49.5 30t-66.5 11q-113 0 -189.5 -86t-106.5 -232q-14 -68 -14 -122q0 -93 42 -144.5t130 -51.5q38 0 88 14.5t95 42.5l10 -32
q-43 -32 -100 -49.5t-119 -17.5q-127 0 -191.5 64z" />
    <glyph glyph-name="Cacute" unicode="&#x106;" horiz-adv-x="609" 
d="M418 813l135 113q31 27 55 27q17 0 24 -10t4 -22q-4 -26 -46 -49l-159 -86zM127.5 54q-64.5 64 -64.5 182q0 47 13 114q34 169 135 264.5t253 95.5q133 0 195 -72l-38 -130h-27q-1 8 -1 28q0 49 6 91q-20 19 -49.5 30t-66.5 11q-113 0 -189.5 -86t-106.5 -232
q-14 -68 -14 -122q0 -93 42 -144.5t130 -51.5q38 0 88 14.5t95 42.5l10 -32q-43 -32 -100 -49.5t-119 -17.5q-127 0 -191.5 64z" />
    <glyph glyph-name="Ccaron" unicode="&#x10c;" horiz-adv-x="609" 
d="M426 853.5q-33 39.5 -60 62.5l51 36q25 -23 51 -56t37 -59h5q22 26 61.5 58.5t74.5 56.5l37 -36q-37 -22 -86 -61.5t-74 -68.5h-51q-13 28 -46 67.5zM127.5 54q-64.5 64 -64.5 182q0 47 13 114q34 169 135 264.5t253 95.5q133 0 195 -72l-38 -130h-27q-1 8 -1 28
q0 49 6 91q-20 19 -49.5 30t-66.5 11q-113 0 -189.5 -86t-106.5 -232q-14 -68 -14 -122q0 -93 42 -144.5t130 -51.5q38 0 88 14.5t95 42.5l10 -32q-43 -32 -100 -49.5t-119 -17.5q-127 0 -191.5 64z" />
    <glyph glyph-name="Ccedilla" unicode="&#xc7;" horiz-adv-x="609" 
d="M659 638l-38 -130h-27q-1 8 -1 28q0 49 6 91q-20 19 -49.5 30t-66.5 11q-113 0 -189.5 -86t-106.5 -232q-14 -68 -14 -122q0 -93 42 -144.5t130 -51.5q38 0 88 14.5t95 42.5l10 -32q-41 -31 -96 -48.5t-115 -18.5l-38 -57q45 0 68.5 -15.5t23.5 -43.5q0 -9 -1 -14
q-9 -45 -48.5 -69.5t-93.5 -24.5q-23 0 -46.5 6t-38.5 17l24 32q25 -14 62 -14q33 0 56 12.5t29 40.5q3 21 -12 30t-39 9q-10 0 -24 -2l-16 30l44 65q-107 10 -160.5 73t-53.5 171q0 55 13 114q34 169 135 264.5t253 95.5q133 0 195 -72z" />
    <glyph glyph-name="Ccircumflex" unicode="&#x108;" horiz-adv-x="609" 
d="M337 818q36 22 85.5 61.5t73.5 67.5h51q13 -28 46.5 -68t60.5 -61l-51 -37q-25 23 -51 56.5t-38 59.5h-5q-22 -26 -61.5 -59t-74.5 -57zM127.5 54q-64.5 64 -64.5 182q0 47 13 114q34 169 135 264.5t253 95.5q133 0 195 -72l-38 -130h-27q-1 8 -1 28q0 49 6 91
q-20 19 -49.5 30t-66.5 11q-113 0 -189.5 -86t-106.5 -232q-14 -68 -14 -122q0 -93 42 -144.5t130 -51.5q38 0 88 14.5t95 42.5l10 -32q-43 -32 -100 -49.5t-119 -17.5q-127 0 -191.5 64z" />
    <glyph glyph-name="Cdotaccent" unicode="&#x10a;" horiz-adv-x="609" 
d="M466 795.5q-10 10.5 -10 27.5q0 9 1 13q5 23 21 37.5t38 14.5q18 0 28.5 -10.5t10.5 -27.5q0 -27 -18 -46t-43 -19q-18 0 -28 10.5zM127.5 54q-64.5 64 -64.5 182q0 47 13 114q34 169 135 264.5t253 95.5q133 0 195 -72l-38 -130h-27q-1 8 -1 28q0 49 6 91
q-20 19 -49.5 30t-66.5 11q-113 0 -189.5 -86t-106.5 -232q-14 -68 -14 -122q0 -93 42 -144.5t130 -51.5q38 0 88 14.5t95 42.5l10 -32q-43 -32 -100 -49.5t-119 -17.5q-127 0 -191.5 64z" />
    <glyph glyph-name="D" unicode="D" horiz-adv-x="658" 
d="M0 15q46 15 80 19l128 632q-32 7 -72 20l3 14h298q120 0 176 -56t56 -166q0 -55 -14 -128q-36 -172 -123.5 -261t-237.5 -89h-297zM300 40q98 0 155.5 80.5t87.5 229.5q18 90 18 146q0 79 -31.5 121t-101.5 42h-112l-127 -619h111z" />
    <glyph glyph-name="Eth" unicode="&#xd0;" horiz-adv-x="659" 
d="M613 644q56 -56 56 -166q0 -55 -14 -128q-36 -172 -123.5 -261t-237.5 -89h-297l3 15q46 15 80 19l57 279h-68l9 40h67l63 313q-32 7 -72 20l3 14h298q120 0 176 -56zM561 496q0 79 -31.5 121t-101.5 42h-112l-63 -306h154l-9 -40h-153l-56 -273h111q98 0 155.5 80.5
t87.5 229.5q18 90 18 146z" />
    <glyph glyph-name="Dcaron" unicode="&#x10e;" horiz-adv-x="658" 
d="M374 853.5q-33 39.5 -60 62.5l51 36q25 -23 51 -56t37 -59h5q23 26 62.5 59t73.5 56l37 -36q-37 -23 -86.5 -62.5t-73.5 -67.5h-51q-13 28 -46 67.5zM0 15q46 15 80 19l128 632q-32 7 -72 20l3 14h298q120 0 176 -56t56 -166q0 -55 -14 -128q-36 -172 -123.5 -261
t-237.5 -89h-297zM300 40q98 0 155.5 80.5t87.5 229.5q18 90 18 146q0 79 -31.5 121t-101.5 42h-112l-127 -619h111z" />
    <glyph glyph-name="Dcroat" unicode="&#x110;" horiz-adv-x="658" 
d="M613 644q56 -56 56 -166q0 -55 -14 -128q-36 -172 -123.5 -261t-237.5 -89h-297l3 15q46 15 80 19l57 279h-68l9 40h67l63 313q-32 7 -72 20l3 14h298q120 0 176 -56zM561 496q0 79 -31.5 121t-101.5 42h-112l-63 -306h154l-9 -40h-153l-56 -273h111q98 0 155.5 80.5
t87.5 229.5q18 90 18 146z" />
    <glyph glyph-name="uni1E0C" unicode="&#x1e0c;" horiz-adv-x="658" 
d="M0 15q46 15 80 19l128 632q-32 7 -72 20l3 14h298q120 0 176 -56t56 -166q0 -55 -14 -128q-36 -172 -123.5 -261t-237.5 -89h-297zM300 40q98 0 155.5 80.5t87.5 229.5q18 90 18 146q0 79 -31.5 121t-101.5 42h-112l-127 -619h111zM233.5 -71.5q16.5 14.5 37.5 14.5
q18 0 29 -10.5t11 -27.5q0 -27 -18 -46t-43 -19q-18 0 -28.5 10.5t-10.5 28.5q0 8 1 12q5 23 21.5 37.5z" />
    <glyph glyph-name="uni1E0E" unicode="&#x1e0e;" horiz-adv-x="658" 
d="M0 15q46 15 80 19l128 632q-32 7 -72 20l3 14h298q120 0 176 -56t56 -166q0 -55 -14 -128q-36 -172 -123.5 -261t-237.5 -89h-297zM300 40q98 0 155.5 80.5t87.5 229.5q18 90 18 146q0 79 -31.5 121t-101.5 42h-112l-127 -619h111zM88 -66h337l-7 -39h-337z" />
    <glyph glyph-name="E" unicode="E" horiz-adv-x="604" 
d="M650 700l-32 -156h-25q-3 10 -5 33.5t-2 46.5q0 17 2 35h-266l-61 -299h188q19 56 36 84h18l-43 -209h-18q-2 12 -2 41q0 34 1 43h-189l-57 -279h270q6 23 27.5 61t35.5 54h25l-46 -155h-510l3 15q47 16 84 20l129 631q-32 5 -77 20l3 14h511z" />
    <glyph glyph-name="Eacute" unicode="&#xc9;" horiz-adv-x="604" 
d="M371 786l-14 27l135 113q31 27 55 27q17 0 24.5 -10t4.5 -22q-6 -27 -46 -49zM650 700l-32 -156h-25q-3 10 -5 33.5t-2 46.5q0 17 2 35h-266l-61 -299h188q19 56 36 84h18l-43 -209h-18q-2 12 -2 41q0 34 1 43h-189l-57 -279h270q6 23 27.5 61t35.5 54h25l-46 -155h-510
l3 15q47 16 84 20l129 631q-32 5 -77 20l3 14h511z" />
    <glyph glyph-name="Ebreve" unicode="&#x114;" horiz-adv-x="604" 
d="M358.5 810.5q-34.5 31.5 -30.5 95.5h63q-1 -6 -1 -17q0 -40 21.5 -54t56.5 -14q37 0 66.5 17.5t44.5 67.5h63q-21 -63 -69 -95t-114 -32t-100.5 31.5zM650 700l-32 -156h-25q-3 10 -5 33.5t-2 46.5q0 17 2 35h-266l-61 -299h188q19 56 36 84h18l-43 -209h-18q-2 12 -2 41
q0 34 1 43h-189l-57 -279h270q6 23 27.5 61t35.5 54h25l-46 -155h-510l3 15q47 16 84 20l129 631q-32 5 -77 20l3 14h511z" />
    <glyph glyph-name="Ecaron" unicode="&#x11a;" horiz-adv-x="604" 
d="M386 853.5q-33 39.5 -61 62.5l51 36q25 -22 51 -55.5t38 -59.5h4q23 26 62.5 59t74.5 56l36 -36q-37 -23 -86.5 -62.5t-72.5 -67.5h-51q-13 28 -46 67.5zM650 700l-32 -156h-25q-3 10 -5 33.5t-2 46.5q0 17 2 35h-266l-61 -299h188q19 56 36 84h18l-43 -209h-18
q-2 12 -2 41q0 34 1 43h-189l-57 -279h270q6 23 27.5 61t35.5 54h25l-46 -155h-510l3 15q47 16 84 20l129 631q-32 5 -77 20l3 14h511z" />
    <glyph glyph-name="Ecircumflex" unicode="&#xca;" horiz-adv-x="604" 
d="M416 838.5q-39 -33.5 -74 -57.5l-37 37q36 21 86 61t74 68h51q13 -28 46 -68t60 -61l-51 -37q-25 24 -51 57t-38 59h-5q-22 -25 -61 -58.5zM650 700l-32 -156h-25q-3 10 -5 33.5t-2 46.5q0 17 2 35h-266l-61 -299h188q19 56 36 84h18l-43 -209h-18q-2 12 -2 41q0 34 1 43
h-189l-57 -279h270q6 23 27.5 61t35.5 54h25l-46 -155h-510l3 15q47 16 84 20l129 631q-32 5 -77 20l3 14h511z" />
    <glyph glyph-name="uni1EBE" unicode="&#x1ebe;" horiz-adv-x="604" 
d="M757.5 1042.5q6.5 -5.5 6.5 -14.5q0 -15 -17 -34t-50 -35l-104 -51l-11 24l83 76q44 40 75 40q11 0 17.5 -5.5zM406 838q-39 -33 -74 -57l-37 37q35 21 85 61t75 68h50q14 -28 47 -68t59 -61l-50 -37q-24 23 -50 56t-40 60h-3q-23 -26 -62 -59zM139 700h511l-32 -156h-25
q-3 10 -5 33.5t-2 46.5q0 17 2 35h-266l-61 -299h188q19 56 36 84h18l-43 -209h-18q-2 12 -2 41q0 34 1 43h-189l-57 -279h270q6 23 27.5 61t35.5 54h25l-46 -155h-510l3 15q47 16 84 20l129 631q-32 5 -77 20z" />
    <glyph glyph-name="uni1EC6" unicode="&#x1ec6;" horiz-adv-x="604" 
d="M405 839q-39 -33 -75 -58l-36 37q36 22 85.5 61.5t73.5 67.5h51q13 -28 46.5 -68t60.5 -61l-51 -37q-25 23 -51 56.5t-39 59.5h-4q-22 -25 -61 -58zM650 700l-32 -156h-25q-3 10 -5 33.5t-2 46.5q0 17 2 35h-266l-61 -299h188q19 56 36 84h18l-43 -209h-18q-2 12 -2 41
q0 34 1 43h-189l-57 -279h270q6 23 27.5 61t35.5 54h25l-46 -155h-510l3 15q47 16 84 20l129 631q-32 5 -77 20l3 14h511zM306 -68q11 -11 11 -28q0 -26 -18 -45t-44 -19q-18 0 -28 10.5t-10 28.5q0 8 1 12q5 23 21 37.5t37 14.5q19 0 30 -11z" />
    <glyph glyph-name="uni1EC0" unicode="&#x1ec0;" horiz-adv-x="604" 
d="M241 986.5q-10 14.5 -10 28.5t9.5 23.5t24.5 9.5q14 0 29.5 -10t29.5 -30l54 -76l-22 -24l-84 51q-21 13 -31 27.5zM295 818q35 21 85 61t75 68h50q14 -28 47 -68t59 -61l-50 -37q-24 23 -50 56t-40 60h-3q-23 -26 -62 -59t-74 -57zM650 700l-32 -156h-25q-3 10 -5 33.5
t-2 46.5q0 17 2 35h-266l-61 -299h188q19 56 36 84h18l-43 -209h-18q-2 12 -2 41q0 34 1 43h-189l-57 -279h270q6 23 27.5 61t35.5 54h25l-46 -155h-510l3 15q47 16 84 20l129 631q-32 5 -77 20l3 14h511z" />
    <glyph glyph-name="uni1EC2" unicode="&#x1ec2;" horiz-adv-x="604" 
d="M699 1079.5q22 -13.5 22 -40.5q0 -5 -2 -15q-12 -59 -87 -66l-20 -55h-38l12 79h23q23 0 39 11t20 32q1 3 1 8q0 13 -11 21t-32 8q-26 0 -51 -13v30q32 14 69 14q33 0 55 -13.5zM406 838q-39 -33 -74 -57l-37 37q35 21 85 61t75 68h50q14 -28 47 -68t59 -61l-50 -37
q-24 23 -50 56t-40 60h-3q-23 -26 -62 -59zM139 700h511l-32 -156h-25q-3 10 -5 33.5t-2 46.5q0 17 2 35h-266l-61 -299h188q19 56 36 84h18l-43 -209h-18q-2 12 -2 41q0 34 1 43h-189l-57 -279h270q6 23 27.5 61t35.5 54h25l-46 -155h-510l3 15q47 16 84 20l129 631
q-32 5 -77 20z" />
    <glyph glyph-name="uni1EC4" unicode="&#x1ec4;" horiz-adv-x="604" 
d="M384 1012.5q-20 -15.5 -30 -40.5h-38q18 53 49.5 79.5t74.5 26.5q22 0 39 -8t41 -23q17 -12 29 -17.5t23 -5.5q22 0 42.5 13.5t33.5 44.5h36q-16 -51 -47.5 -80t-75.5 -29q-18 0 -35.5 8t-41.5 23q-23 13 -34.5 18.5t-23.5 5.5q-22 0 -42 -15.5zM406 838q-39 -33 -74 -57
l-37 37q35 21 85 61t75 68h50q14 -28 47 -68t59 -61l-50 -37q-24 23 -50 56t-40 60h-3q-23 -26 -62 -59zM139 700h511l-32 -156h-25q-3 10 -5 33.5t-2 46.5q0 17 2 35h-266l-61 -299h188q19 56 36 84h18l-43 -209h-18q-2 12 -2 41q0 34 1 43h-189l-57 -279h270q6 23 27.5 61
t35.5 54h25l-46 -155h-510l3 15q47 16 84 20l129 631q-32 5 -77 20z" />
    <glyph glyph-name="Edieresis" unicode="&#xcb;" horiz-adv-x="604" 
d="M324 796q-10 11 -10 28q0 8 1 12q5 23 20.5 37.5t36.5 14.5q19 0 30 -11t11 -28q0 -26 -18 -45t-44 -19q-17 0 -27 11zM541 795.5q-10 10.5 -10 27.5q0 9 1 13q5 23 21 37.5t37 14.5q18 0 29 -10.5t11 -27.5q0 -27 -18 -46t-43 -19q-18 0 -28 10.5zM650 700l-32 -156h-25
q-3 10 -5 33.5t-2 46.5q0 17 2 35h-266l-61 -299h188q19 56 36 84h18l-43 -209h-18q-2 12 -2 41q0 34 1 43h-189l-57 -279h270q6 23 27.5 61t35.5 54h25l-46 -155h-510l3 15q47 16 84 20l129 631q-32 5 -77 20l3 14h511z" />
    <glyph glyph-name="Edotaccent" unicode="&#x116;" horiz-adv-x="604" 
d="M435.5 795.5q-10.5 10.5 -10.5 27.5q0 9 1 13q5 23 21 37.5t38 14.5q18 0 28.5 -10.5t10.5 -27.5q0 -27 -18 -46t-42 -19q-18 0 -28.5 10.5zM650 700l-32 -156h-25q-3 10 -5 33.5t-2 46.5q0 17 2 35h-266l-61 -299h188q19 56 36 84h18l-43 -209h-18q-2 12 -2 41
q0 34 1 43h-189l-57 -279h270q6 23 27.5 61t35.5 54h25l-46 -155h-510l3 15q47 16 84 20l129 631q-32 5 -77 20l3 14h511z" />
    <glyph glyph-name="uni1EB8" unicode="&#x1eb8;" horiz-adv-x="604" 
d="M650 700l-32 -156h-25q-3 10 -5 33.5t-2 46.5q0 17 2 35h-266l-61 -299h188q19 56 36 84h18l-43 -209h-18q-2 12 -2 41q0 34 1 43h-189l-57 -279h270q6 23 27.5 61t35.5 54h25l-46 -155h-510l3 15q47 16 84 20l129 631q-32 5 -77 20l3 14h511zM286.5 -67.5
q10.5 -10.5 10.5 -28.5q0 -26 -18 -45t-43 -19q-18 0 -28 10.5t-10 27.5q0 28 17 46.5t42 18.5q19 0 29.5 -10.5z" />
    <glyph glyph-name="Egrave" unicode="&#xc8;" horiz-adv-x="604" 
d="M385 921q3 13 14.5 22.5t28.5 9.5q24 0 43 -26l90 -114l-23 -27l-125 86q-33 24 -28 49zM650 700l-32 -156h-25q-3 10 -5 33.5t-2 46.5q0 17 2 35h-266l-61 -299h188q19 56 36 84h18l-43 -209h-18q-2 12 -2 41q0 34 1 43h-189l-57 -279h270q6 23 27.5 61t35.5 54h25
l-46 -155h-510l3 15q47 16 84 20l129 631q-32 5 -77 20l3 14h511z" />
    <glyph glyph-name="uni1EBA" unicode="&#x1eba;" horiz-adv-x="604" 
d="M517 889.5q19 13.5 23 38.5q1 4 1 10q0 16 -12.5 26.5t-36.5 10.5q-28 0 -59 -16v33q38 17 81 17q36 0 60.5 -16t24.5 -48q0 -12 -2 -19q-12 -71 -100 -79l-23 -66h-45l15 95h27q27 0 46 13.5zM650 700l-32 -156h-25q-3 10 -5 33.5t-2 46.5q0 17 2 35h-266l-61 -299h188
q19 56 36 84h18l-43 -209h-18q-2 12 -2 41q0 34 1 43h-189l-57 -279h270q6 23 27.5 61t35.5 54h25l-46 -155h-510l3 15q47 16 84 20l129 631q-32 5 -77 20l3 14h511z" />
    <glyph glyph-name="Emacron" unicode="&#x112;" horiz-adv-x="604" 
d="M623 785h-337l8 40h337zM650 700l-32 -156h-25q-3 10 -5 33.5t-2 46.5q0 17 2 35h-266l-61 -299h188q19 56 36 84h18l-43 -209h-18q-2 12 -2 41q0 34 1 43h-189l-57 -279h270q6 23 27.5 61t35.5 54h25l-46 -155h-510l3 15q47 16 84 20l129 631q-32 5 -77 20l3 14h511z
" />
    <glyph glyph-name="Eogonek" unicode="&#x118;" horiz-adv-x="604" 
d="M650 700l-32 -156h-25q-3 10 -5 33.5t-2 46.5q0 17 2 35h-266l-61 -299h188q19 56 36 84h18l-43 -209h-18q-2 12 -2 41q0 34 1 43h-189l-57 -279h270q6 23 27.5 61t35.5 54h25l-46 -155h-28q-27 -15 -48 -40t-27 -50q-1 -4 -1 -11q0 -19 14 -29.5t36 -10.5q27 0 59 16
l-10 -48q-40 -20 -93 -20q-44 0 -68 18t-24 48q0 38 30.5 75t76.5 52h-427l3 15q47 16 84 20l129 631q-32 5 -77 20l3 14h511z" />
    <glyph glyph-name="uni1EBC" unicode="&#x1ebc;" horiz-adv-x="604" 
d="M341 825.5q-20 -15.5 -30 -40.5h-38q35 106 123 106q22 0 40 -8t40 -23q19 -12 30.5 -17.5t22.5 -5.5q23 0 43 13.5t33 44.5h35q-35 -109 -123 -109q-18 0 -35.5 8t-41.5 23q-23 13 -34.5 18.5t-22.5 5.5q-22 0 -42 -15.5zM650 700l-32 -156h-25q-3 10 -5 33.5t-2 46.5
q0 17 2 35h-266l-61 -299h188q19 56 36 84h18l-43 -209h-18q-2 12 -2 41q0 34 1 43h-189l-57 -279h270q6 23 27.5 61t35.5 54h25l-46 -155h-510l3 15q47 16 84 20l129 631q-32 5 -77 20l3 14h511z" />
    <glyph glyph-name="F" unicode="F" horiz-adv-x="562" 
d="M640 700l-31 -156h-25q-4 11 -6 34t-2 47q0 16 2 34h-256l-61 -299h188q19 56 36 84h18l-43 -209h-18q-2 12 -2 41q0 34 1 43h-189l-58 -286q48 -8 77 -20l-2 -13h-272l2 14q43 14 85 19l129 633q-44 8 -77 20l3 14h501z" />
    <glyph glyph-name="G" unicode="G" horiz-adv-x="660" 
d="M121 54.5q-65 64.5 -65 183.5q0 52 12 112q22 111 77 192t137.5 124.5t183.5 43.5q73 0 132.5 -19.5t87.5 -52.5l-37 -130h-27q-1 9 -1 29q0 48 6 90q-19 18 -61 29.5t-81 11.5q-116 0 -196 -86.5t-109 -231.5q-14 -67 -14 -120q0 -94 43 -146t131 -52q23 0 55 6t55 17
l52 252q-47 9 -72 19l3 14h249l-3 -11q-34 -18 -72 -24l-52 -256q-41 -28 -108 -43.5t-133 -15.5q-128 0 -193 64.5z" />
    <glyph glyph-name="Gbreve" unicode="&#x11e;" horiz-adv-x="660" 
d="M380.5 810.5q-34.5 31.5 -30.5 95.5h63q-1 -6 -1 -17q0 -40 21.5 -54t56.5 -14q37 0 66.5 17.5t44.5 67.5h63q-20 -63 -68.5 -95t-114.5 -32t-100.5 31.5zM121 54.5q-65 64.5 -65 183.5q0 52 12 112q22 111 77 192t137.5 124.5t183.5 43.5q73 0 132.5 -19.5t87.5 -52.5
l-37 -130h-27q-1 9 -1 29q0 48 6 90q-19 18 -61 29.5t-81 11.5q-116 0 -196 -86.5t-109 -231.5q-14 -67 -14 -120q0 -94 43 -146t131 -52q23 0 55 6t55 17l52 252q-47 9 -72 19l3 14h249l-3 -11q-34 -18 -72 -24l-52 -256q-41 -28 -108 -43.5t-133 -15.5q-128 0 -193 64.5z
" />
    <glyph glyph-name="Gcaron" unicode="&#x1e6;" horiz-adv-x="660" 
d="M418 863.5q-33 39.5 -60 61.5l51 36q25 -23 50.5 -56t37.5 -59h5q23 26 62.5 59t73.5 56l37 -36q-37 -23 -86.5 -62.5t-72.5 -67.5h-51q-14 29 -47 68.5zM121 54.5q-65 64.5 -65 183.5q0 52 12 112q22 111 77 192t137.5 124.5t183.5 43.5q73 0 132.5 -19.5t87.5 -52.5
l-37 -130h-27q-1 9 -1 29q0 48 6 90q-19 18 -61 29.5t-81 11.5q-116 0 -196 -86.5t-109 -231.5q-14 -67 -14 -120q0 -94 43 -146t131 -52q23 0 55 6t55 17l52 252q-47 9 -72 19l3 14h249l-3 -11q-34 -18 -72 -24l-52 -256q-41 -28 -108 -43.5t-133 -15.5q-128 0 -193 64.5z
" />
    <glyph glyph-name="Gcircumflex" unicode="&#x11c;" horiz-adv-x="660" 
d="M344 818q35 21 84.5 61t74.5 68h51q13 -28 46 -68t60 -61l-50 -37q-25 23 -51 56.5t-39 59.5h-4q-22 -25 -61 -58t-75 -58zM121 54.5q-65 64.5 -65 183.5q0 52 12 112q22 111 77 192t137.5 124.5t183.5 43.5q73 0 132.5 -19.5t87.5 -52.5l-37 -130h-27q-1 9 -1 29
q0 48 6 90q-19 18 -61 29.5t-81 11.5q-116 0 -196 -86.5t-109 -231.5q-14 -67 -14 -120q0 -94 43 -146t131 -52q23 0 55 6t55 17l52 252q-47 9 -72 19l3 14h249l-3 -11q-34 -18 -72 -24l-52 -256q-41 -28 -108 -43.5t-133 -15.5q-128 0 -193 64.5z" />
    <glyph glyph-name="Gcommaaccent" unicode="&#x122;" horiz-adv-x="660" 
d="M121 54.5q-65 64.5 -65 183.5q0 52 12 112q22 111 77 192t137.5 124.5t183.5 43.5q73 0 132.5 -19.5t87.5 -52.5l-37 -130h-27q-1 9 -1 29q0 48 6 90q-19 18 -61 29.5t-81 11.5q-116 0 -196 -86.5t-109 -231.5q-14 -67 -14 -120q0 -94 43 -146t131 -52q23 0 55 6t55 17
l52 252q-47 9 -72 19l3 14h249l-3 -11q-34 -18 -72 -24l-52 -256q-41 -28 -108 -43.5t-133 -15.5q-128 0 -193 64.5zM214 -295q24 21 45 51.5t31 60.5q-52 0 -52 40q0 32 22 51t50 19q50 0 50 -48q0 -14 -2 -22q-9 -46 -41 -97.5t-73 -83.5z" />
    <glyph glyph-name="Gdotaccent" unicode="&#x120;" horiz-adv-x="660" 
d="M465 795.5q-10 10.5 -10 27.5q0 9 1 13q5 23 21 37.5t38 14.5q18 0 28.5 -10.5t10.5 -27.5q0 -27 -18 -46t-43 -19q-18 0 -28 10.5zM121 54.5q-65 64.5 -65 183.5q0 52 12 112q22 111 77 192t137.5 124.5t183.5 43.5q73 0 132.5 -19.5t87.5 -52.5l-37 -130h-27
q-1 9 -1 29q0 48 6 90q-19 18 -61 29.5t-81 11.5q-116 0 -196 -86.5t-109 -231.5q-14 -67 -14 -120q0 -94 43 -146t131 -52q23 0 55 6t55 17l52 252q-47 9 -72 19l3 14h249l-3 -11q-34 -18 -72 -24l-52 -256q-41 -28 -108 -43.5t-133 -15.5q-128 0 -193 64.5z" />
    <glyph glyph-name="uni1E20" unicode="&#x1e20;" horiz-adv-x="660" 
d="M310 825h337l-8 -40h-337zM121 54.5q-65 64.5 -65 183.5q0 52 12 112q22 111 77 192t137.5 124.5t183.5 43.5q73 0 132.5 -19.5t87.5 -52.5l-37 -130h-27q-1 9 -1 29q0 48 6 90q-19 18 -61 29.5t-81 11.5q-116 0 -196 -86.5t-109 -231.5q-14 -67 -14 -120q0 -94 43 -146
t131 -52q23 0 55 6t55 17l52 252q-47 9 -72 19l3 14h249l-3 -11q-34 -18 -72 -24l-52 -256q-41 -28 -108 -43.5t-133 -15.5q-128 0 -193 64.5z" />
    <glyph glyph-name="H" unicode="H" horiz-adv-x="771" 
d="M839 700l-3 -15q-55 -17 -80 -20l-129 -632q40 -7 72 -20l-2 -13h-260l2 12q31 12 45 16t33 6l61 301h-327l-62 -302q45 -10 70 -20l-2 -13h-260l3 15q46 15 80 19l128 632q-42 9 -72 20l3 14h260l-2 -13q-32 -11 -46 -15t-33 -6l-59 -290h328l59 291q-27 5 -70 19l3 14
h260z" />
    <glyph glyph-name="Hbar" unicode="&#x126;" horiz-adv-x="771" 
d="M756 665l-25 -124h57l-8 -40h-57l-96 -468q40 -7 72 -20l-2 -13h-260l2 12q31 12 45 16t33 6l61 301h-327l-62 -302q45 -10 70 -20l-2 -13h-260l3 15q46 15 80 19l95 467h-58l8 40h58l25 125q-42 9 -72 20l3 14h260l-2 -13q-32 -11 -46 -15t-33 -6l-25 -125h327l26 126
q-27 5 -70 19l3 14h260l-3 -15q-55 -17 -80 -20zM612 501h-328l-25 -125h328z" />
    <glyph glyph-name="uni1E2A" unicode="&#x1e2a;" horiz-adv-x="771" 
d="M839 700l-3 -15q-55 -17 -80 -20l-129 -632q40 -7 72 -20l-2 -13h-260l2 12q31 12 45 16t33 6l61 301h-327l-62 -302q45 -10 70 -20l-2 -13h-260l3 15q46 15 80 19l128 632q-42 9 -72 20l3 14h260l-2 -13q-32 -11 -46 -15t-33 -6l-59 -290h328l59 291q-27 5 -70 19l3 14
h260zM385.5 -118q29.5 18 44.5 68h63q-21 -64 -68.5 -95.5t-113.5 -31.5q-62 0 -97 28t-35 84l1 15h63q-1 -6 -1 -17q0 -41 21.5 -55t56.5 -14q36 0 65.5 18z" />
    <glyph glyph-name="Hcircumflex" unicode="&#x124;" horiz-adv-x="771" 
d="M465 838.5q-39 -33.5 -74 -57.5l-37 37q36 21 86 61t74 68h50q14 -29 47 -68.5t60 -60.5l-51 -37q-25 23 -51 56.5t-38 59.5h-5q-22 -25 -61 -58.5zM839 700l-3 -15q-55 -17 -80 -20l-129 -632q40 -7 72 -20l-2 -13h-260l2 12q31 12 45 16t33 6l61 301h-327l-62 -302
q45 -10 70 -20l-2 -13h-260l3 15q46 15 80 19l128 632q-42 9 -72 20l3 14h260l-2 -13q-32 -11 -46 -15t-33 -6l-59 -290h328l59 291q-27 5 -70 19l3 14h260z" />
    <glyph glyph-name="uni1E24" unicode="&#x1e24;" horiz-adv-x="771" 
d="M839 700l-3 -15q-55 -17 -80 -20l-129 -632q40 -7 72 -20l-2 -13h-260l2 12q31 12 45 16t33 6l61 301h-327l-62 -302q45 -10 70 -20l-2 -13h-260l3 15q46 15 80 19l128 632q-42 9 -72 20l3 14h260l-2 -13q-32 -11 -46 -15t-33 -6l-59 -290h328l59 291q-27 5 -70 19l3 14
h260zM361.5 -67.5q10.5 -10.5 10.5 -28.5q0 -26 -18 -45t-43 -19q-18 0 -28 10.5t-10 27.5q0 28 17 46.5t42 18.5q19 0 29.5 -10.5z" />
    <glyph glyph-name="I" unicode="I" horiz-adv-x="340" 
d="M2 15q39 11 82 19l128 632q-29 5 -74 20l3 14h265l-3 -15q-30 -9 -81 -19l-129 -633q37 -6 73 -19l-2 -14h-265z" />
    <glyph glyph-name="IJ" unicode="&#x132;" horiz-adv-x="804" 
d="M2 15q39 11 82 19l128 632q-29 5 -74 20l3 14h265l-3 -15q-30 -9 -81 -19l-129 -633q37 -6 73 -19l-2 -14h-265zM385.5 3.5q-38.5 13.5 -61.5 38.5l24 29q18 -14 44.5 -23t56.5 -9q47 0 81 26t45 83l106 517q-41 6 -72 19l3 16h261l-3 -15q-53 -17 -80 -20l-106 -515
q-16 -79 -74.5 -119.5t-139.5 -40.5q-46 0 -84.5 13.5z" />
    <glyph glyph-name="Iacute" unicode="&#xcd;" horiz-adv-x="340" 
d="M197 813l135 113q31 27 55 27q17 0 24.5 -10t4.5 -22q-5 -26 -46 -49l-160 -86zM2 15q39 11 82 19l128 632q-29 5 -74 20l3 14h265l-3 -15q-30 -9 -81 -19l-129 -633q37 -6 73 -19l-2 -14h-265z" />
    <glyph glyph-name="Ibreve" unicode="&#x12c;" horiz-adv-x="340" 
d="M188.5 810.5q-34.5 31.5 -30.5 95.5h63q-1 -6 -1 -17q0 -40 21.5 -54t56.5 -14q37 0 66.5 17.5t44.5 67.5h63q-20 -63 -68.5 -95t-114.5 -32t-100.5 31.5zM2 15q39 11 82 19l128 632q-29 5 -74 20l3 14h265l-3 -15q-30 -9 -81 -19l-129 -633q37 -6 73 -19l-2 -14h-265z
" />
    <glyph glyph-name="uni01CF" unicode="&#x1cf;" horiz-adv-x="340" 
d="M219 853.5q-33 39.5 -61 62.5l51 36q25 -22 51 -55.5t38 -59.5h4q23 26 62.5 59t74.5 56l36 -36q-37 -23 -86.5 -62.5t-72.5 -67.5h-51q-13 28 -46 67.5zM2 15q39 11 82 19l128 632q-29 5 -74 20l3 14h265l-3 -15q-30 -9 -81 -19l-129 -633q37 -6 73 -19l-2 -14h-265z
" />
    <glyph glyph-name="Icircumflex" unicode="&#xce;" horiz-adv-x="340" 
d="M138 818q36 21 86 61t74 68h50q14 -29 47 -68.5t60 -60.5l-51 -37q-25 23 -51 56.5t-38 59.5h-5q-22 -25 -61 -58.5t-74 -57.5zM2 15q39 11 82 19l128 632q-29 5 -74 20l3 14h265l-3 -15q-30 -9 -81 -19l-129 -633q37 -6 73 -19l-2 -14h-265z" />
    <glyph glyph-name="Idieresis" unicode="&#xcf;" horiz-adv-x="340" 
d="M153 796q-10 11 -10 28q0 8 1 12q5 23 21 37.5t37 14.5q18 0 29 -10.5t11 -27.5q0 -27 -18 -46t-44 -19q-17 0 -27 11zM370 795.5q-10 10.5 -10 27.5q0 9 1 13q5 23 21 37.5t38 14.5q18 0 28.5 -10.5t10.5 -27.5q0 -27 -18 -46t-43 -19q-18 0 -28 10.5zM2 15q39 11 82 19
l128 632q-29 5 -74 20l3 14h265l-3 -15q-30 -9 -81 -19l-129 -633q37 -6 73 -19l-2 -14h-265z" />
    <glyph glyph-name="Idotaccent" unicode="&#x130;" horiz-adv-x="340" 
d="M261 795.5q-10 10.5 -10 27.5q0 27 17 46t42 19q18 0 28.5 -10.5t10.5 -28.5q0 -26 -17.5 -45t-42.5 -19q-18 0 -28 10.5zM2 15q39 11 82 19l128 632q-29 5 -74 20l3 14h265l-3 -15q-30 -9 -81 -19l-129 -633q37 -6 73 -19l-2 -14h-265z" />
    <glyph glyph-name="uni1ECA" unicode="&#x1eca;" horiz-adv-x="340" 
d="M2 15q39 11 82 19l128 632q-29 5 -74 20l3 14h265l-3 -15q-30 -9 -81 -19l-129 -633q37 -6 73 -19l-2 -14h-265zM69.5 -149q-10.5 11 -10.5 29q0 7 1 11q5 23 21.5 37.5t37.5 14.5q19 0 29.5 -10.5t10.5 -27.5q0 -4 -2 -14q-4 -22 -20.5 -36.5t-38.5 -14.5
q-18 0 -28.5 11z" />
    <glyph glyph-name="Igrave" unicode="&#xcc;" horiz-adv-x="340" 
d="M247 872q-33 24 -28 49q3 13 14.5 22.5t28.5 9.5q23 0 43 -26l90 -114l-23 -27zM2 15q39 11 82 19l128 632q-29 5 -74 20l3 14h265l-3 -15q-30 -9 -81 -19l-129 -633q37 -6 73 -19l-2 -14h-265z" />
    <glyph glyph-name="uni1EC8" unicode="&#x1ec8;" horiz-adv-x="340" 
d="M287 876h28q26 0 45 13.5t24 38.5q1 3 1 10q0 16 -12.5 26.5t-36.5 10.5q-28 0 -60 -16v33q40 17 81 17q37 0 61.5 -16.5t24.5 -48.5q0 -4 -2 -18q-14 -71 -100 -79l-23 -66h-45zM2 15q39 11 82 19l128 632q-29 5 -74 20l3 14h265l-3 -15q-30 -9 -81 -19l-129 -633
q37 -6 73 -19l-2 -14h-265z" />
    <glyph glyph-name="Imacron" unicode="&#x12a;" horiz-adv-x="340" 
d="M118 825h363l-9 -40h-363zM2 15q39 11 82 19l128 632q-29 5 -74 20l3 14h265l-3 -15q-30 -9 -81 -19l-129 -633q37 -6 73 -19l-2 -14h-265z" />
    <glyph glyph-name="Iogonek" unicode="&#x12e;" horiz-adv-x="340" 
d="M406 700l-3 -15q-30 -9 -81 -19l-129 -633q37 -6 73 -19l-2 -14h-20q-27 -15 -48 -40t-27 -50q-1 -4 -1 -12q0 -18 13.5 -28.5t36.5 -10.5q26 0 58 16l-9 -48q-40 -20 -93 -20q-44 0 -68 18t-24 48q0 38 30 75t77 52h-190l3 15q39 11 82 19l128 632q-29 5 -74 20l3 14
h265z" />
    <glyph glyph-name="Itilde" unicode="&#x128;" horiz-adv-x="340" 
d="M241 892q22 0 40 -8t40 -23q19 -12 30.5 -17.5t22.5 -5.5q23 0 43 13.5t33 44.5h36q-16 -52 -47 -80.5t-76 -28.5q-18 0 -35.5 8t-41.5 23q-23 13 -34.5 18.5t-23.5 5.5q-21 0 -41.5 -15.5t-30.5 -40.5h-38q35 106 123 106zM2 15q39 11 82 19l128 632q-29 5 -74 20l3 14
h265l-3 -15q-30 -9 -81 -19l-129 -633q37 -6 73 -19l-2 -14h-265z" />
    <glyph glyph-name="J" unicode="J" horiz-adv-x="469" 
d="M50.5 3.5q-38.5 13.5 -62.5 38.5l24 29q19 -14 45.5 -23t56.5 -9q47 0 81 26t45 83l106 517q-41 6 -72 19l2 16h262l-3 -15q-53 -17 -80 -20l-106 -515q-16 -79 -74.5 -119.5t-139.5 -40.5q-46 0 -84.5 13.5z" />
    <glyph glyph-name="Jcircumflex" unicode="&#x134;" horiz-adv-x="469" 
d="M272 818q35 21 84.5 61t74.5 68h51q13 -28 46 -68t60 -61l-50 -37q-25 23 -51 56.5t-39 59.5h-4q-22 -25 -61 -58t-75 -58zM50.5 3.5q-38.5 13.5 -62.5 38.5l24 29q19 -14 45.5 -23t56.5 -9q47 0 81 26t45 83l106 517q-41 6 -72 19l2 16h262l-3 -15q-53 -17 -80 -20
l-106 -515q-16 -79 -74.5 -119.5t-139.5 -40.5q-46 0 -84.5 13.5z" />
    <glyph glyph-name="K" unicode="K" horiz-adv-x="729" 
d="M718 675q-22 -4 -40 -14l-275 -249l205 -379q41 -8 76 -19l-1 -14h-174l-183 342l-89 -80l-47 -229q35 -6 73 -19l-2 -14h-264l3 15q21 6 43.5 11.5t37.5 7.5l128 632q-49 11 -73 20l3 14h264l-3 -15q-35 -11 -81 -19l-68 -335l363 330q-8 9 -46 15q-5 1 -11.5 2t-12.5 3
l4 19h204l-4 -19q-8 -2 -30 -6z" />
    <glyph glyph-name="Kcommaaccent" unicode="&#x136;" horiz-adv-x="729" 
d="M718 675q-22 -4 -40 -14l-275 -249l205 -379q41 -8 76 -19l-1 -14h-174l-183 342l-89 -80l-47 -229q35 -6 73 -19l-2 -14h-264l3 15q21 6 43.5 11.5t37.5 7.5l128 632q-49 11 -73 20l3 14h264l-3 -15q-35 -11 -81 -19l-68 -335l363 330q-8 9 -46 15q-5 1 -11.5 2t-12.5 3
l4 19h204l-4 -19q-8 -2 -30 -6zM379 -121q0 -14 -2 -22q-9 -46 -41 -97.5t-73 -83.5l-30 29q24 22 45.5 52t30.5 60q-51 0 -51 41q0 9 1 14q6 26 26.5 40.5t43.5 14.5q50 0 50 -48z" />
    <glyph glyph-name="L" unicode="L" horiz-adv-x="593" 
d="M-1 14q42 14 86 19l129 633q-47 10 -74 20l3 14h264l-3 -15q-31 -10 -80 -19l-128 -626h263q6 23 27.5 61t35.5 54h24l-45 -155h-504z" />
    <glyph glyph-name="Lacute" unicode="&#x139;" horiz-adv-x="593" 
d="M238 813l135 113q31 27 55 27q17 0 24.5 -10t4.5 -22q-6 -27 -46 -49l-159 -86zM-1 14q42 14 86 19l129 633q-47 10 -74 20l3 14h264l-3 -15q-31 -10 -80 -19l-128 -626h263q6 23 27.5 61t35.5 54h24l-45 -155h-504z" />
    <glyph glyph-name="Lcaron" unicode="&#x13d;" horiz-adv-x="593" 
d="M461 481q24 23 45 53t31 59h-6q-19 0 -33.5 10t-14.5 32q0 4 2 14q6 26 24.5 43.5t47.5 17.5q53 0 53 -54q0 -6 -2 -22q-10 -46 -43.5 -97.5t-73.5 -84.5zM-1 14q42 14 86 19l129 633q-47 10 -74 20l3 14h264l-3 -15q-31 -10 -80 -19l-128 -626h263q6 23 27.5 61t35.5 54
h24l-45 -155h-504z" />
    <glyph glyph-name="Lcommaaccent" unicode="&#x13b;" horiz-adv-x="593" 
d="M-1 14q42 14 86 19l129 633q-47 10 -74 20l3 14h264l-3 -15q-31 -10 -80 -19l-128 -626h263q6 23 27.5 61t35.5 54h24l-45 -155h-504zM162 -295q24 22 45.5 52t30.5 60q-25 0 -38.5 10t-13.5 30q0 32 22 51t50 19q50 0 50 -48q0 -14 -2 -22q-9 -46 -41 -97.5t-73 -83.5z
" />
    <glyph glyph-name="Ldot" unicode="&#x13f;" horiz-adv-x="593" 
d="M-1 14q42 14 86 19l129 633q-47 10 -74 20l3 14h264l-3 -15q-31 -10 -80 -19l-128 -626h263q6 23 27.5 61t35.5 54h24l-45 -155h-504zM402.5 340.5q-10.5 10.5 -10.5 27.5q0 27 17 45.5t42 18.5q19 0 29.5 -10.5t10.5 -28.5q0 -27 -17 -45t-43 -18q-18 0 -28.5 10.5z" />
    <glyph glyph-name="uni1E36" unicode="&#x1e36;" horiz-adv-x="593" 
d="M-1 14q42 14 86 19l129 633q-47 10 -74 20l3 14h264l-3 -15q-31 -10 -80 -19l-128 -626h263q6 23 27.5 61t35.5 54h24l-45 -155h-504zM217.5 -144q-10.5 10 -10.5 28q0 27 17 45.5t42 18.5q18 0 28.5 -10.5t10.5 -28.5q0 -27 -17 -45t-42 -18q-18 0 -28.5 10z" />
    <glyph glyph-name="uni1E38" unicode="&#x1e38;" horiz-adv-x="593" 
d="M132 824h337l-8 -39h-338zM-1 14q42 14 86 19l129 633q-47 10 -74 20l3 14h264l-3 -15q-31 -10 -80 -19l-128 -626h263q6 23 27.5 61t35.5 54h24l-45 -155h-504zM215.5 -144q-10.5 10 -10.5 28q0 27 17 45.5t42 18.5q19 0 29.5 -10.5t10.5 -28.5q0 -27 -17 -45t-43 -18
q-18 0 -28.5 10z" />
    <glyph glyph-name="uni1E3A" unicode="&#x1e3a;" horiz-adv-x="593" 
d="M-1 14q42 14 86 19l129 633q-47 10 -74 20l3 14h264l-3 -15q-31 -10 -80 -19l-128 -626h263q6 23 27.5 61t35.5 54h24l-45 -155h-504zM81 -66h337l-8 -39h-337z" />
    <glyph glyph-name="Lslash" unicode="&#x141;" horiz-adv-x="593" 
d="M546 155l-45 -155h-504l2 14q42 14 86 19l48 233l-87 -30l11 54l87 30l70 346q-47 10 -74 20l3 14h264l-3 -15q-31 -10 -80 -19l-62 -305l211 74l-11 -54l-211 -74l-55 -267h263q6 23 27.5 61t35.5 54h24z" />
    <glyph glyph-name="M" unicode="M" horiz-adv-x="894" 
d="M-1 13q39 13 81 19l129 634q-49 11 -73 20l3 14h198l99 -531l329 531h197l-3 -14q-31 -10 -81 -21l-129 -633q40 -7 73 -19l-2 -13h-263l2 13q39 12 81 20l118 581l-335 -537h-63l-110 545l-120 -589q42 -9 72 -20l-2 -13h-203z" />
    <glyph glyph-name="uni1E42" unicode="&#x1e42;" horiz-adv-x="894" 
d="M-1 13q39 13 81 19l129 634q-49 11 -73 20l3 14h198l99 -531l329 531h197l-3 -14q-31 -10 -81 -21l-129 -633q40 -7 73 -19l-2 -13h-263l2 13q39 12 81 20l118 581l-335 -537h-63l-110 545l-120 -589q42 -9 72 -20l-2 -13h-203zM346 -149.5q-10 10.5 -10 28.5q0 8 1 12
q5 23 21.5 37.5t37.5 14.5q18 0 29 -10.5t11 -27.5q0 -27 -18 -46t-44 -19q-18 0 -28 10.5z" />
    <glyph glyph-name="N" unicode="N" horiz-adv-x="750" 
d="M-1 13q39 13 81 19l129 634q-47 10 -73 20l3 14h192l247 -559l107 526q-39 8 -73 19l3 14h203l-3 -14q-36 -11 -81 -19l-135 -667h-59l-287 640l-123 -607q42 -9 72 -20l-2 -13h-203z" />
    <glyph glyph-name="Nacute" unicode="&#x143;" horiz-adv-x="750" 
d="M439 813l135 113q31 27 55 27q15 0 22.5 -7.5t7.5 -18.5q0 -16 -11.5 -28.5t-35.5 -26.5l-160 -86zM-1 13q39 13 81 19l129 634q-47 10 -73 20l3 14h192l247 -559l107 526q-39 8 -73 19l3 14h203l-3 -14q-36 -11 -81 -19l-135 -667h-59l-287 640l-123 -607q42 -9 72 -20
l-2 -13h-203z" />
    <glyph glyph-name="Ncaron" unicode="&#x147;" horiz-adv-x="750" 
d="M423 853.5q-33 39.5 -60 62.5l51 36q25 -23 51 -56t37 -59h5q23 26 62.5 59t73.5 56l37 -36q-37 -23 -86.5 -62.5t-73.5 -67.5h-51q-13 28 -46 67.5zM-1 13q39 13 81 19l129 634q-47 10 -73 20l3 14h192l247 -559l107 526q-39 8 -73 19l3 14h203l-3 -14q-36 -11 -81 -19
l-135 -667h-59l-287 640l-123 -607q42 -9 72 -20l-2 -13h-203z" />
    <glyph glyph-name="Ncommaaccent" unicode="&#x145;" horiz-adv-x="750" 
d="M-1 13q39 13 81 19l129 634q-47 10 -73 20l3 14h192l247 -559l107 526q-39 8 -73 19l3 14h203l-3 -14q-36 -11 -81 -19l-135 -667h-59l-287 640l-123 -607q42 -9 72 -20l-2 -13h-203zM228 -295q24 22 45 52t30 60q-51 0 -51 41q0 9 1 14q6 26 26.5 40.5t44.5 14.5
q50 0 50 -49q0 -7 -2 -21q-10 -47 -42.5 -98t-72.5 -83z" />
    <glyph glyph-name="uni1E44" unicode="&#x1e44;" horiz-adv-x="750" 
d="M469 795.5q-10 10.5 -10 27.5q0 9 1 13q5 23 21 37.5t37 14.5q18 0 29 -10.5t11 -27.5q0 -27 -18 -46t-43 -19q-18 0 -28 10.5zM-1 13q39 13 81 19l129 634q-47 10 -73 20l3 14h192l247 -559l107 526q-39 8 -73 19l3 14h203l-3 -14q-36 -11 -81 -19l-135 -667h-59
l-287 640l-123 -607q42 -9 72 -20l-2 -13h-203z" />
    <glyph glyph-name="uni1E46" unicode="&#x1e46;" horiz-adv-x="750" 
d="M-1 13q39 13 81 19l129 634q-47 10 -73 20l3 14h192l247 -559l107 526q-39 8 -73 19l3 14h203l-3 -14q-36 -11 -81 -19l-135 -667h-59l-287 640l-123 -607q42 -9 72 -20l-2 -13h-203zM267.5 -149.5q-10.5 10.5 -10.5 28.5q0 8 1 12q5 23 21.5 37.5t37.5 14.5
q19 0 29.5 -10.5t10.5 -27.5q0 -27 -18 -46t-43 -19q-18 0 -28.5 10.5z" />
    <glyph glyph-name="Eng" unicode="&#x14a;" horiz-adv-x="750" 
d="M289 -217l15 30q36 -18 90 -18q51 0 87.5 24t47.5 75l20 99l-296 647l-123 -607q42 -9 72 -20l-2 -13h-203l2 13q39 13 81 19l129 634q-47 10 -73 20l3 14h192l247 -559l107 526q-39 8 -73 19l3 14h203l-3 -14q-36 -11 -81 -19l-157 -773q-14 -70 -59.5 -106.5
t-113.5 -36.5q-63 0 -115 32z" />
    <glyph glyph-name="uni1E48" unicode="&#x1e48;" horiz-adv-x="750" 
d="M-1 13q39 13 81 19l129 634q-47 10 -73 20l3 14h192l247 -559l107 526q-39 8 -73 19l3 14h203l-3 -14q-36 -11 -81 -19l-135 -667h-59l-287 640l-123 -607q42 -9 72 -20l-2 -13h-203zM156 -66h336l-7 -39h-337z" />
    <glyph glyph-name="Ntilde" unicode="&#xd1;" horiz-adv-x="750" 
d="M377.5 865.5q31.5 26.5 73.5 26.5q22 0 40 -8t41 -23q17 -12 29 -17.5t24 -5.5q23 0 42.5 13.5t32.5 44.5h36q-35 -109 -123 -109q-19 0 -36.5 8t-41.5 23q-21 13 -33 18.5t-23 5.5q-22 0 -42 -15.5t-30 -40.5h-39q18 53 49.5 79.5zM-1 13q39 13 81 19l129 634
q-47 10 -73 20l3 14h192l247 -559l107 526q-39 8 -73 19l3 14h203l-3 -14q-36 -11 -81 -19l-135 -667h-59l-287 640l-123 -607q42 -9 72 -20l-2 -13h-203z" />
    <glyph glyph-name="O" unicode="O" horiz-adv-x="703" 
d="M120 55q-65 65 -65 184q0 51 12 111q34 169 135.5 264.5t254.5 95.5q125 0 190.5 -66t65.5 -185q0 -50 -12 -109q-35 -169 -136.5 -264.5t-254.5 -95.5q-125 0 -190 65zM491 119q70 87 99 231q14 68 14 122q0 92 -39 144t-117 52q-102 0 -171.5 -87t-98.5 -231
q-14 -68 -14 -123q0 -92 38.5 -143.5t116.5 -51.5q102 0 172 87z" />
    <glyph glyph-name="Oacute" unicode="&#xd3;" horiz-adv-x="703" 
d="M384 813l135 113q31 27 55 27q17 0 24.5 -10t4.5 -22q-6 -27 -46 -49l-160 -86zM120 55q-65 65 -65 184q0 51 12 111q34 169 135.5 264.5t254.5 95.5q125 0 190.5 -66t65.5 -185q0 -50 -12 -109q-35 -169 -136.5 -264.5t-254.5 -95.5q-125 0 -190 65zM491 119
q70 87 99 231q14 68 14 122q0 92 -39 144t-117 52q-102 0 -171.5 -87t-98.5 -231q-14 -68 -14 -123q0 -92 38.5 -143.5t116.5 -51.5q102 0 172 87z" />
    <glyph glyph-name="Obreve" unicode="&#x14e;" horiz-adv-x="703" 
d="M370 809.5q-34 31.5 -30 95.5h62l-1 -15q0 -41 22 -55.5t56 -14.5q37 0 66.5 17.5t44.5 67.5h64q-21 -63 -69 -95t-115 -32q-66 0 -100 31.5zM120 55q-65 65 -65 184q0 51 12 111q34 169 135.5 264.5t254.5 95.5q125 0 190.5 -66t65.5 -185q0 -50 -12 -109
q-35 -169 -136.5 -264.5t-254.5 -95.5q-125 0 -190 65zM491 119q70 87 99 231q14 68 14 122q0 92 -39 144t-117 52q-102 0 -171.5 -87t-98.5 -231q-14 -68 -14 -123q0 -92 38.5 -143.5t116.5 -51.5q102 0 172 87z" />
    <glyph glyph-name="uni01D1" unicode="&#x1d1;" horiz-adv-x="703" 
d="M401 853.5q-33 39.5 -60 62.5l51 36q25 -23 51 -56t37 -59h5q22 26 61.5 58.5t74.5 56.5l37 -36q-37 -23 -86.5 -62.5t-73.5 -67.5h-51q-13 28 -46 67.5zM120 55q-65 65 -65 184q0 51 12 111q34 169 135.5 264.5t254.5 95.5q125 0 190.5 -66t65.5 -185q0 -50 -12 -109
q-35 -169 -136.5 -264.5t-254.5 -95.5q-125 0 -190 65zM491 119q70 87 99 231q14 68 14 122q0 92 -39 144t-117 52q-102 0 -171.5 -87t-98.5 -231q-14 -68 -14 -123q0 -92 38.5 -143.5t116.5 -51.5q102 0 172 87z" />
    <glyph glyph-name="Ocircumflex" unicode="&#xd4;" horiz-adv-x="703" 
d="M320 818q35 21 84.5 61t74.5 68h51q13 -28 46 -68t60 -61l-50 -37q-25 23 -51 56.5t-39 59.5h-4q-22 -25 -61 -58t-75 -58zM120 55q-65 65 -65 184q0 51 12 111q34 169 135.5 264.5t254.5 95.5q125 0 190.5 -66t65.5 -185q0 -50 -12 -109q-35 -169 -136.5 -264.5
t-254.5 -95.5q-125 0 -190 65zM491 119q70 87 99 231q14 68 14 122q0 92 -39 144t-117 52q-102 0 -171.5 -87t-98.5 -231q-14 -68 -14 -123q0 -92 38.5 -143.5t116.5 -51.5q102 0 172 87z" />
    <glyph glyph-name="uni1ED0" unicode="&#x1ed0;" horiz-adv-x="703" 
d="M607 932l83 76q44 40 75 40q11 0 17.5 -5.5t6.5 -14.5q0 -15 -17 -34t-50 -35l-104 -51zM320 818q35 21 85 61t75 68h50q14 -28 47 -68t59 -61l-50 -37q-24 23 -50 56t-40 60h-4q-22 -25 -61 -58.5t-74 -57.5zM120 55q-65 65 -65 184q0 51 12 111q34 169 135.5 264.5
t254.5 95.5q125 0 190.5 -66t65.5 -185q0 -50 -12 -109q-35 -169 -136.5 -264.5t-254.5 -95.5q-125 0 -190 65zM491 119q70 87 99 231q14 68 14 122q0 92 -39 144t-117 52q-102 0 -171.5 -87t-98.5 -231q-14 -68 -14 -123q0 -92 38.5 -143.5t116.5 -51.5q102 0 172 87z" />
    <glyph glyph-name="uni1ED8" unicode="&#x1ed8;" horiz-adv-x="703" 
d="M404.5 879q49.5 40 74.5 68h51q13 -28 46 -68t60 -61l-50 -37q-25 23 -51 56.5t-39 59.5h-4q-22 -25 -61 -58t-75 -58l-36 37q35 21 84.5 61zM202.5 614.5q101.5 95.5 254.5 95.5q125 0 190.5 -66t65.5 -185q0 -50 -12 -109q-35 -169 -136.5 -264.5t-254.5 -95.5
q-125 0 -190 65t-65 184q0 51 12 111q34 169 135.5 264.5zM164 227q0 -92 38.5 -143.5t116.5 -51.5q102 0 172 87t99 231q14 68 14 122q0 92 -39 144t-117 52q-102 0 -171.5 -87t-98.5 -231q-14 -68 -14 -123zM263 -71.5q16 14.5 37 14.5q19 0 30 -11t11 -28q0 -26 -18 -45
t-44 -19q-18 0 -28 10.5t-10 28.5q0 8 1 12q5 23 21 37.5z" />
    <glyph glyph-name="uni1ED2" unicode="&#x1ed2;" horiz-adv-x="703" 
d="M297 959q-21 13 -31 27.5t-10 28.5t9.5 23.5t24.5 9.5q14 0 29.5 -10t29.5 -30l54 -76l-22 -24zM320 818q35 21 85 61t75 68h50q14 -28 47 -68t59 -61l-50 -37q-24 23 -50 56t-40 60h-4q-22 -25 -61 -58.5t-74 -57.5zM120 55q-65 65 -65 184q0 51 12 111
q34 169 135.5 264.5t254.5 95.5q125 0 190.5 -66t65.5 -185q0 -50 -12 -109q-35 -169 -136.5 -264.5t-254.5 -95.5q-125 0 -190 65zM491 119q70 87 99 231q14 68 14 122q0 92 -39 144t-117 52q-102 0 -171.5 -87t-98.5 -231q-14 -68 -14 -123q0 -92 38.5 -143.5t116.5 -51.5
q102 0 172 87z" />
    <glyph glyph-name="uni1ED4" unicode="&#x1ed4;" horiz-adv-x="703" 
d="M612 986h23q23 0 39 11t20 32q1 3 1 8q0 13 -11 21t-32 8q-26 0 -51 -13v30q32 14 69 14q33 0 55 -13.5t22 -40.5q0 -5 -2 -15q-12 -59 -87 -66l-20 -55h-38zM321 822q35 21 85 61t75 68h50q14 -28 46.5 -67.5t58.5 -61.5l-49 -37q-24 23 -50 56t-40 60h-4
q-22 -25 -61 -58.5t-74 -57.5zM120 55q-65 65 -65 184q0 51 12 111q34 169 135.5 264.5t254.5 95.5q125 0 190.5 -66t65.5 -185q0 -50 -12 -109q-35 -169 -136.5 -264.5t-254.5 -95.5q-125 0 -190 65zM491 119q70 87 99 231q14 68 14 122q0 92 -39 144t-117 52
q-102 0 -171.5 -87t-98.5 -231q-14 -68 -14 -123q0 -92 38.5 -143.5t116.5 -51.5q102 0 172 87z" />
    <glyph glyph-name="uni1ED6" unicode="&#x1ed6;" horiz-adv-x="703" 
d="M390.5 1051.5q31.5 26.5 74.5 26.5q22 0 39 -8t41 -23q17 -12 29 -17.5t23 -5.5q22 0 42.5 13.5t33.5 44.5h36q-16 -51 -47.5 -80t-75.5 -29q-18 0 -35.5 8t-41.5 23q-23 13 -34.5 18.5t-23.5 5.5q-22 0 -42 -15.5t-30 -40.5h-38q18 53 49.5 79.5zM320 818q35 21 85 61
t75 68h50q14 -28 47 -68t59 -61l-50 -37q-24 23 -50 56t-40 60h-4q-22 -25 -61 -58.5t-74 -57.5zM120 55q-65 65 -65 184q0 51 12 111q34 169 135.5 264.5t254.5 95.5q125 0 190.5 -66t65.5 -185q0 -50 -12 -109q-35 -169 -136.5 -264.5t-254.5 -95.5q-125 0 -190 65z
M491 119q70 87 99 231q14 68 14 122q0 92 -39 144t-117 52q-102 0 -171.5 -87t-98.5 -231q-14 -68 -14 -123q0 -92 38.5 -143.5t116.5 -51.5q102 0 172 87z" />
    <glyph glyph-name="Odieresis" unicode="&#xd6;" horiz-adv-x="703" 
d="M334 796q-10 11 -10 29q0 7 1 11q5 23 21 37.5t37 14.5q19 0 29.5 -10.5t10.5 -27.5q0 -4 -2 -14q-4 -22 -20.5 -36.5t-38.5 -14.5q-18 0 -28 11zM551 795.5q-10 10.5 -10 28.5q0 8 1 12q5 23 21 37.5t38 14.5q18 0 28.5 -10.5t10.5 -27.5q0 -4 -2 -14q-4 -22 -20 -36.5
t-38 -14.5q-19 0 -29 10.5zM120 55q-65 65 -65 184q0 51 12 111q34 169 135.5 264.5t254.5 95.5q125 0 190.5 -66t65.5 -185q0 -50 -12 -109q-35 -169 -136.5 -264.5t-254.5 -95.5q-125 0 -190 65zM491 119q70 87 99 231q14 68 14 122q0 92 -39 144t-117 52
q-102 0 -171.5 -87t-98.5 -231q-14 -68 -14 -123q0 -92 38.5 -143.5t116.5 -51.5q102 0 172 87z" />
    <glyph glyph-name="uni1ECC" unicode="&#x1ecc;" horiz-adv-x="703" 
d="M202.5 614.5q101.5 95.5 254.5 95.5q125 0 190.5 -66t65.5 -185q0 -50 -12 -109q-35 -169 -136.5 -264.5t-254.5 -95.5q-125 0 -190 65t-65 184q0 51 12 111q34 169 135.5 264.5zM164 227q0 -92 38.5 -143.5t116.5 -51.5q102 0 172 87t99 231q14 68 14 122q0 92 -39 144
t-117 52q-102 0 -171.5 -87t-98.5 -231q-14 -68 -14 -123zM263 -71.5q16 14.5 37 14.5q19 0 30 -11t11 -28q0 -26 -18 -45t-44 -19q-18 0 -28 10.5t-10 28.5q0 8 1 12q5 23 21 37.5z" />
    <glyph glyph-name="Ograve" unicode="&#xd2;" horiz-adv-x="703" 
d="M423 872q-28 20 -28 41q0 14 11.5 27t32.5 13q15 0 23.5 -7t19.5 -19l89 -114l-23 -27zM120 55q-65 65 -65 184q0 51 12 111q34 169 135.5 264.5t254.5 95.5q125 0 190.5 -66t65.5 -185q0 -50 -12 -109q-35 -169 -136.5 -264.5t-254.5 -95.5q-125 0 -190 65zM491 119
q70 87 99 231q14 68 14 122q0 92 -39 144t-117 52q-102 0 -171.5 -87t-98.5 -231q-14 -68 -14 -123q0 -92 38.5 -143.5t116.5 -51.5q102 0 172 87z" />
    <glyph glyph-name="uni1ECE" unicode="&#x1ece;" horiz-adv-x="703" 
d="M464 876h28q26 0 45 13.5t24 38.5q1 3 1 9q0 17 -12.5 27.5t-36.5 10.5q-29 0 -60 -16v33q38 17 81 17q37 0 61 -16t24 -48q0 -12 -2 -19q-12 -71 -100 -79l-23 -66h-45zM120 55q-65 65 -65 184q0 51 12 111q34 169 135.5 264.5t254.5 95.5q125 0 190.5 -66t65.5 -185
q0 -50 -12 -109q-35 -169 -136.5 -264.5t-254.5 -95.5q-125 0 -190 65zM491 119q70 87 99 231q14 68 14 122q0 92 -39 144t-117 52q-102 0 -171.5 -87t-98.5 -231q-14 -68 -14 -123q0 -92 38.5 -143.5t116.5 -51.5q102 0 172 87z" />
    <glyph glyph-name="Ohorn" unicode="&#x1a0;" horiz-adv-x="732" 
d="M844 689q0 -13 -3 -25q-7 -36 -40 -77.5t-91 -79.5q3 -22 3 -48q0 -50 -12 -109q-35 -169 -136.5 -264.5t-254.5 -95.5q-125 0 -190 65t-65 184q0 51 12 111q34 169 135.5 264.5t254.5 95.5q101 0 163 -43t83 -123q60 47 76 90q-8 -4 -18 -4q-18 0 -29 10t-11 28
q0 25 17 47.5t53 22.5q53 0 53 -49zM604 472q0 92 -39 144t-117 52q-102 0 -171.5 -87t-98.5 -231q-14 -68 -14 -123q0 -92 38.5 -143.5t116.5 -51.5q102 0 172 87t99 231q14 68 14 122z" />
    <glyph glyph-name="uni1EDA" unicode="&#x1eda;" horiz-adv-x="732" 
d="M398 785l-13 27l135 113q31 27 55 27q17 0 24.5 -10t4.5 -22q-6 -27 -46 -49zM844 689q0 -13 -3 -25q-7 -36 -40 -77.5t-91 -79.5q3 -22 3 -48q0 -50 -12 -109q-35 -169 -136.5 -264.5t-254.5 -95.5q-125 0 -190 65t-65 184q0 51 12 111q34 169 135.5 264.5t254.5 95.5
q101 0 163 -43t83 -123q60 47 76 90q-8 -4 -18 -4q-18 0 -29 10t-11 28q0 25 17 47.5t53 22.5q53 0 53 -49zM604 472q0 92 -39 144t-117 52q-102 0 -171.5 -87t-98.5 -231q-14 -68 -14 -123q0 -92 38.5 -143.5t116.5 -51.5q102 0 172 87t99 231q14 68 14 122z" />
    <glyph glyph-name="uni1EE2" unicode="&#x1ee2;" horiz-adv-x="732" 
d="M844 689q0 -13 -3 -25q-7 -36 -40 -77.5t-91 -79.5q3 -22 3 -48q0 -50 -12 -109q-35 -169 -136.5 -264.5t-254.5 -95.5q-125 0 -190 65t-65 184q0 51 12 111q34 169 135.5 264.5t254.5 95.5q101 0 163 -43t83 -123q60 47 76 90q-8 -4 -18 -4q-18 0 -29 10t-11 28
q0 25 17 47.5t53 22.5q53 0 53 -49zM604 472q0 92 -39 144t-117 52q-102 0 -171.5 -87t-98.5 -231q-14 -68 -14 -123q0 -92 38.5 -143.5t116.5 -51.5q102 0 172 87t99 231q14 68 14 122zM330 -68q11 -11 11 -28q0 -26 -18 -45t-44 -19q-18 0 -28 10.5t-10 28.5q0 8 1 12
q5 23 21 37.5t37 14.5q19 0 30 -11z" />
    <glyph glyph-name="uni1EDC" unicode="&#x1edc;" horiz-adv-x="732" 
d="M396 920q3 13 15 22.5t29 9.5q15 0 23.5 -7t19.5 -19l89 -114l-23 -27l-125 86q-32 23 -28 49zM844 689q0 -13 -3 -25q-7 -36 -40 -77.5t-91 -79.5q3 -22 3 -48q0 -50 -12 -109q-35 -169 -136.5 -264.5t-254.5 -95.5q-125 0 -190 65t-65 184q0 51 12 111
q34 169 135.5 264.5t254.5 95.5q101 0 163 -43t83 -123q60 47 76 90q-8 -4 -18 -4q-18 0 -29 10t-11 28q0 25 17 47.5t53 22.5q53 0 53 -49zM604 472q0 92 -39 144t-117 52q-102 0 -171.5 -87t-98.5 -231q-14 -68 -14 -123q0 -92 38.5 -143.5t116.5 -51.5q102 0 172 87
t99 231q14 68 14 122z" />
    <glyph glyph-name="uni1EDE" unicode="&#x1ede;" horiz-adv-x="732" 
d="M533 887.5q19 13.5 24 38.5q1 3 1 10q0 16 -12.5 26.5t-36.5 10.5q-29 0 -60 -16v33q38 17 81 17q37 0 61 -16t24 -48q0 -12 -2 -19q-12 -71 -99 -79l-23 -66h-46l15 95h28q26 0 45 13.5zM844 689q0 -13 -3 -25q-7 -36 -40 -77.5t-91 -79.5q3 -22 3 -48q0 -50 -12 -109
q-35 -169 -136.5 -264.5t-254.5 -95.5q-125 0 -190 65t-65 184q0 51 12 111q34 169 135.5 264.5t254.5 95.5q101 0 163 -43t83 -123q60 47 76 90q-8 -4 -18 -4q-18 0 -29 10t-11 28q0 25 17 47.5t53 22.5q53 0 53 -49zM604 472q0 92 -39 144t-117 52q-102 0 -171.5 -87
t-98.5 -231q-14 -68 -14 -123q0 -92 38.5 -143.5t116.5 -51.5q102 0 172 87t99 231q14 68 14 122z" />
    <glyph glyph-name="uni1EE0" unicode="&#x1ee0;" horiz-adv-x="732" 
d="M369 826.5q-20 -15.5 -30 -40.5h-39q18 53 49.5 79.5t73.5 26.5q22 0 40 -8t41 -23q17 -12 29 -17.5t24 -5.5q23 0 43 13.5t33 44.5h35q-35 -109 -123 -109q-19 0 -36.5 8t-41.5 23q-21 13 -33 18.5t-23 5.5q-22 0 -42 -15.5zM844 689q0 -13 -3 -25q-7 -36 -40 -77.5
t-91 -79.5q3 -22 3 -48q0 -50 -12 -109q-35 -169 -136.5 -264.5t-254.5 -95.5q-125 0 -190 65t-65 184q0 51 12 111q34 169 135.5 264.5t254.5 95.5q101 0 163 -43t83 -123q60 47 76 90q-8 -4 -18 -4q-18 0 -29 10t-11 28q0 25 17 47.5t53 22.5q53 0 53 -49zM604 472
q0 92 -39 144t-117 52q-102 0 -171.5 -87t-98.5 -231q-14 -68 -14 -123q0 -92 38.5 -143.5t116.5 -51.5q102 0 172 87t99 231q14 68 14 122z" />
    <glyph glyph-name="Ohungarumlaut" unicode="&#x150;" horiz-adv-x="703" 
d="M326 812l135 113q9 9 24 18t31 9q15 0 22.5 -7.5t7.5 -18.5q0 -16 -12 -28.5t-36 -26.5l-159 -86zM522 812l136 113q9 9 23.5 18t30.5 9q15 0 23 -7.5t8 -18.5q0 -16 -12 -28.5t-36 -26.5l-160 -86zM120 55q-65 65 -65 184q0 51 12 111q34 169 135.5 264.5t254.5 95.5
q125 0 190.5 -66t65.5 -185q0 -50 -12 -109q-35 -169 -136.5 -264.5t-254.5 -95.5q-125 0 -190 65zM491 119q70 87 99 231q14 68 14 122q0 92 -39 144t-117 52q-102 0 -171.5 -87t-98.5 -231q-14 -68 -14 -123q0 -92 38.5 -143.5t116.5 -51.5q102 0 172 87z" />
    <glyph glyph-name="Omacron" unicode="&#x14c;" horiz-adv-x="703" 
d="M313 835h337l-8 -40h-337zM120 55q-65 65 -65 184q0 51 12 111q34 169 135.5 264.5t254.5 95.5q125 0 190.5 -66t65.5 -185q0 -50 -12 -109q-35 -169 -136.5 -264.5t-254.5 -95.5q-125 0 -190 65zM491 119q70 87 99 231q14 68 14 122q0 92 -39 144t-117 52
q-102 0 -171.5 -87t-98.5 -231q-14 -68 -14 -123q0 -92 38.5 -143.5t116.5 -51.5q102 0 172 87z" />
    <glyph glyph-name="Oslash" unicode="&#xd8;" horiz-adv-x="703" 
d="M660 631q53 -64 53 -171q0 -51 -12 -110q-35 -169 -136.5 -264.5t-254.5 -95.5q-116 0 -181 57l-72 -79l-28 26l73 81q-47 62 -47 164q0 51 12 111q34 169 135.5 264.5t254.5 95.5q111 0 175 -52l58 64l29 -26zM164 228q0 -39 8 -76l405 445q-39 71 -129 71
q-102 0 -171.5 -87t-98.5 -231q-14 -68 -14 -122zM604 472q0 47 -11 86l-407 -448q38 -78 133 -78q102 0 172 87t99 231q14 68 14 122z" />
    <glyph glyph-name="Oslashacute" unicode="&#x1fe;" horiz-adv-x="703" 
d="M406 786l-13 27l135 113q31 27 55 27q15 0 22.5 -7.5t7.5 -18.5q0 -16 -12 -28.5t-36 -26.5zM660 631q53 -64 53 -171q0 -51 -12 -110q-35 -169 -136.5 -264.5t-254.5 -95.5q-116 0 -181 57l-72 -79l-28 26l73 81q-47 62 -47 164q0 51 12 111q34 169 135.5 264.5
t254.5 95.5q111 0 175 -52l58 64l29 -26zM164 228q0 -39 8 -76l405 445q-39 71 -129 71q-102 0 -171.5 -87t-98.5 -231q-14 -68 -14 -122zM604 472q0 47 -11 86l-407 -448q38 -78 133 -78q102 0 172 87t99 231q14 68 14 122z" />
    <glyph glyph-name="Otilde" unicode="&#xd5;" horiz-adv-x="703" 
d="M349 865.5q31 26.5 73 26.5q22 0 40 -8t41 -23q17 -12 29 -17.5t24 -5.5q23 0 43 13.5t33 44.5h35q-35 -109 -123 -109q-19 0 -36.5 8t-41.5 23q-21 13 -33 18.5t-23 5.5q-22 0 -42 -15.5t-30 -40.5h-38q18 53 49 79.5zM120 55q-65 65 -65 184q0 51 12 111
q34 169 135.5 264.5t254.5 95.5q125 0 190.5 -66t65.5 -185q0 -50 -12 -109q-35 -169 -136.5 -264.5t-254.5 -95.5q-125 0 -190 65zM491 119q70 87 99 231q14 68 14 122q0 92 -39 144t-117 52q-102 0 -171.5 -87t-98.5 -231q-14 -68 -14 -123q0 -92 38.5 -143.5t116.5 -51.5
q102 0 172 87z" />
    <glyph glyph-name="OE" unicode="&#x152;" horiz-adv-x="985" 
d="M114 58q-59 68 -59 183q0 52 12 109q21 102 70.5 183t126 129t176.5 48q104 0 151 -60l10 50h430l-32 -156h-25q-3 10 -5 33.5t-2 46.5q0 17 2 35h-266l-58 -279h189q17 51 36 84h18l-42 -209h-18q-3 20 -3 43t2 41h-190l-61 -299h270q6 23 27.5 61t35.5 54h25l-46 -155
h-429l9 47q-38 -30 -80 -43.5t-95 -13.5q-120 0 -179 68zM407 53q41 21 74 58l97 477q-16 36 -49.5 58t-80.5 22q-101 0 -170.5 -87t-98.5 -231q-14 -68 -14 -123q0 -92 38.5 -143.5t115.5 -51.5q47 0 88 21z" />
    <glyph glyph-name="P" unicode="P" horiz-adv-x="596" 
d="M-5 15q21 6 43.5 11.5t38.5 7.5l128 632q-42 9 -72 20l3 14h292q111 0 161 -37t50 -109q0 -30 -7 -61q-19 -96 -86 -157t-172 -61h-139l-49 -242q37 -6 73 -19l-2 -14h-265zM356 315q67 0 109.5 50t58.5 129q6 32 6 58q0 51 -25.5 79t-77.5 28h-113l-71 -344h113z" />
    <glyph glyph-name="Thorn" unicode="&#xde;" horiz-adv-x="595" 
d="M-5 15q22 6 44.5 11.5t37.5 7.5l128 632q-42 9 -72 20l3 14h186l-27 -133h138q93 0 136 -39t43 -107q0 -23 -7 -60q-19 -96 -85.5 -157t-171.5 -61h-140l-22 -110q35 -6 73 -19l-2 -14h-265zM329 183q67 0 109.5 50t57.5 129q7 37 7 59q0 50 -25.5 78t-77.5 28h-113
l-71 -344h113z" />
    <glyph glyph-name="Q" unicode="Q" horiz-adv-x="703" 
d="M647.5 644q65.5 -66 65.5 -185q0 -50 -12 -109q-31 -149 -113.5 -241t-207.5 -113q2 -50 37.5 -81t101.5 -37l-7 -37q-114 10 -173 48.5t-64 101.5q-108 9 -164 73.5t-56 174.5q0 51 12 111q34 169 135.5 264.5t254.5 95.5q125 0 190.5 -66zM604 471q0 92 -39 144.5
t-117 52.5q-101 0 -171 -87t-99 -231q-14 -68 -14 -122q0 -92 38.5 -144t116.5 -52q101 0 171.5 87t99.5 231q14 67 14 121z" />
    <glyph glyph-name="R" unicode="R" horiz-adv-x="659" 
d="M574.5 369.5q-51.5 -52.5 -130.5 -65.5l90 -271q45 -9 66 -19l-2 -14h-158l-92 300h-103l-54 -267q37 -6 73 -19l-2 -14h-265l3 15q21 6 43.5 11.5t38.5 7.5l128 632q-42 9 -72 20l3 14h332q177 0 177 -136q0 -22 -7 -61q-17 -81 -68.5 -133.5zM542 558q0 101 -110 101
h-113l-66 -319h114q70 0 111.5 43.5t57.5 120.5q6 30 6 54z" />
    <glyph glyph-name="Racute" unicode="&#x154;" horiz-adv-x="659" 
d="M372 786l-13 27l135 113q31 27 55 27q17 0 24.5 -10t4.5 -22q-6 -27 -46 -49zM574.5 369.5q-51.5 -52.5 -130.5 -65.5l90 -271q45 -9 66 -19l-2 -14h-158l-92 300h-103l-54 -267q37 -6 73 -19l-2 -14h-265l3 15q21 6 43.5 11.5t38.5 7.5l128 632q-42 9 -72 20l3 14h332
q177 0 177 -136q0 -22 -7 -61q-17 -81 -68.5 -133.5zM542 558q0 101 -110 101h-113l-66 -319h114q70 0 111.5 43.5t57.5 120.5q6 30 6 54z" />
    <glyph glyph-name="Rcaron" unicode="&#x158;" horiz-adv-x="659" 
d="M371 854.5q-33 39.5 -60 61.5l51 36q25 -23 50.5 -56t37.5 -59h5q23 26 62.5 59t73.5 56l37 -36q-37 -23 -86.5 -62.5t-73.5 -67.5h-50q-14 29 -47 68.5zM574.5 369.5q-51.5 -52.5 -130.5 -65.5l90 -271q45 -9 66 -19l-2 -14h-158l-92 300h-103l-54 -267q37 -6 73 -19
l-2 -14h-265l3 15q21 6 43.5 11.5t38.5 7.5l128 632q-42 9 -72 20l3 14h332q177 0 177 -136q0 -22 -7 -61q-17 -81 -68.5 -133.5zM542 558q0 101 -110 101h-113l-66 -319h114q70 0 111.5 43.5t57.5 120.5q6 30 6 54z" />
    <glyph glyph-name="Rcommaaccent" unicode="&#x156;" horiz-adv-x="659" 
d="M574.5 369.5q-51.5 -52.5 -130.5 -65.5l90 -271q45 -9 66 -19l-2 -14h-158l-92 300h-103l-54 -267q37 -6 73 -19l-2 -14h-265l3 15q21 6 43.5 11.5t38.5 7.5l128 632q-42 9 -72 20l3 14h332q177 0 177 -136q0 -22 -7 -61q-17 -81 -68.5 -133.5zM542 558q0 101 -110 101
h-113l-66 -319h114q70 0 111.5 43.5t57.5 120.5q6 30 6 54zM343 -122q0 -7 -2 -21q-10 -46 -42 -97.5t-72 -83.5l-30 29q24 21 45 51.5t31 60.5q-52 0 -52 40q0 32 22 51t50 19q50 0 50 -49z" />
    <glyph glyph-name="uni1E5A" unicode="&#x1e5a;" horiz-adv-x="659" 
d="M574.5 369.5q-51.5 -52.5 -130.5 -65.5l90 -271q45 -9 66 -19l-2 -14h-158l-92 300h-103l-54 -267q37 -6 73 -19l-2 -14h-265l3 15q21 6 43.5 11.5t38.5 7.5l128 632q-42 9 -72 20l3 14h332q177 0 177 -136q0 -22 -7 -61q-17 -81 -68.5 -133.5zM542 558q0 101 -110 101
h-113l-66 -319h114q70 0 111.5 43.5t57.5 120.5q6 30 6 54zM317.5 -67.5q10.5 -10.5 10.5 -27.5q0 -4 -2 -14q-4 -22 -20.5 -36.5t-38.5 -14.5q-18 0 -28.5 11t-10.5 29q0 7 1 11q5 23 21.5 37.5t37.5 14.5q19 0 29.5 -10.5z" />
    <glyph glyph-name="uni1E5C" unicode="&#x1e5c;" horiz-adv-x="659" 
d="M595 785h-365l9 40h365zM574.5 369.5q-51.5 -52.5 -130.5 -65.5l90 -271q45 -9 66 -19l-2 -14h-158l-92 300h-103l-54 -267q37 -6 73 -19l-2 -14h-265l3 15q21 6 43.5 11.5t38.5 7.5l128 632q-42 9 -72 20l3 14h332q177 0 177 -136q0 -22 -7 -61q-17 -81 -68.5 -133.5z
M542 558q0 101 -110 101h-113l-66 -319h114q70 0 111.5 43.5t57.5 120.5q6 30 6 54zM316.5 -67.5q10.5 -10.5 10.5 -27.5q0 -4 -2 -14q-4 -22 -20.5 -36.5t-38.5 -14.5q-18 0 -28.5 11t-10.5 29q0 7 1 11q5 23 21.5 37.5t37.5 14.5q19 0 29.5 -10.5z" />
    <glyph glyph-name="uni1E5E" unicode="&#x1e5e;" horiz-adv-x="659" 
d="M574.5 369.5q-51.5 -52.5 -130.5 -65.5l90 -271q45 -9 66 -19l-2 -14h-158l-92 300h-103l-54 -267q37 -6 73 -19l-2 -14h-265l3 15q21 6 43.5 11.5t38.5 7.5l128 632q-42 9 -72 20l3 14h332q177 0 177 -136q0 -22 -7 -61q-17 -81 -68.5 -133.5zM542 558q0 101 -110 101
h-113l-66 -319h114q70 0 111.5 43.5t57.5 120.5q6 30 6 54zM100 -66h337l-8 -39h-337z" />
    <glyph glyph-name="S" unicode="S" horiz-adv-x="541" 
d="M90.5 16q-56.5 26 -79.5 67l40 140h26q2 -14 2 -24q0 -28 -10 -103q19 -29 53.5 -46.5t81.5 -17.5q66 0 120.5 36.5t68.5 103.5q3 15 3 28q0 34 -18 58.5t-45 40.5t-72 37q-49 23 -79 42t-51 49t-21 72q0 21 4 40q18 84 89.5 127.5t179.5 43.5q71 0 118 -17.5t74 -54.5
l-35 -124h-27q-2 22 -2 37q0 34 5 76q-18 20 -48 30.5t-69 10.5q-71 0 -115 -28.5t-55 -83.5q-2 -12 -2 -18q0 -26 15.5 -45.5t38.5 -33.5t65 -35q53 -25 86 -47t56.5 -56.5t23.5 -84.5q0 -27 -5 -48q-12 -61 -53 -106t-101 -68.5t-129 -23.5q-77 0 -133.5 26z" />
    <glyph glyph-name="Sacute" unicode="&#x15a;" horiz-adv-x="541" 
d="M315 813l135 113q31 27 55 27q17 0 24.5 -10t4.5 -22q-6 -27 -46 -49l-160 -86zM90.5 16q-56.5 26 -79.5 67l40 140h26q2 -14 2 -24q0 -28 -10 -103q19 -29 53.5 -46.5t81.5 -17.5q66 0 120.5 36.5t68.5 103.5q3 15 3 28q0 34 -18 58.5t-45 40.5t-72 37q-49 23 -79 42
t-51 49t-21 72q0 21 4 40q18 84 89.5 127.5t179.5 43.5q71 0 118 -17.5t74 -54.5l-35 -124h-27q-2 22 -2 37q0 34 5 76q-18 20 -48 30.5t-69 10.5q-71 0 -115 -28.5t-55 -83.5q-2 -12 -2 -18q0 -26 15.5 -45.5t38.5 -33.5t65 -35q53 -25 86 -47t56.5 -56.5t23.5 -84.5
q0 -27 -5 -48q-12 -61 -53 -106t-101 -68.5t-129 -23.5q-77 0 -133.5 26z" />
    <glyph glyph-name="Scaron" unicode="&#x160;" horiz-adv-x="541" 
d="M320 853.5q-33 39.5 -61 62.5l51 36q25 -23 50.5 -56t37.5 -59h5q23 26 63 59t74 56l36 -36q-37 -23 -86.5 -62.5t-72.5 -67.5h-51q-13 28 -46 67.5zM90.5 16q-56.5 26 -79.5 67l40 140h26q2 -14 2 -24q0 -28 -10 -103q19 -29 53.5 -46.5t81.5 -17.5q66 0 120.5 36.5
t68.5 103.5q3 15 3 28q0 34 -18 58.5t-45 40.5t-72 37q-49 23 -79 42t-51 49t-21 72q0 21 4 40q18 84 89.5 127.5t179.5 43.5q71 0 118 -17.5t74 -54.5l-35 -124h-27q-2 22 -2 37q0 34 5 76q-18 20 -48 30.5t-69 10.5q-71 0 -115 -28.5t-55 -83.5q-2 -12 -2 -18
q0 -26 15.5 -45.5t38.5 -33.5t65 -35q53 -25 86 -47t56.5 -56.5t23.5 -84.5q0 -27 -5 -48q-12 -61 -53 -106t-101 -68.5t-129 -23.5q-77 0 -133.5 26z" />
    <glyph glyph-name="Scedilla" unicode="&#x15e;" horiz-adv-x="541" 
d="M501 692.5q47 -17.5 74 -54.5l-35 -124h-27q-2 22 -2 37q0 34 5 76q-18 20 -48 30.5t-69 10.5q-71 0 -115 -28.5t-55 -83.5q-2 -12 -2 -18q0 -26 15.5 -45.5t38.5 -33.5t65 -35q53 -25 86 -47t56.5 -56.5t23.5 -84.5q0 -27 -5 -48q-17 -84 -86.5 -136t-164.5 -61l-36 -54
q45 0 68.5 -15.5t23.5 -43.5q0 -9 -1 -14q-9 -45 -48.5 -69.5t-93.5 -24.5q-23 0 -46.5 6t-38.5 17l24 32q25 -14 62 -14q33 0 55.5 12.5t28.5 40.5q4 20 -11.5 29.5t-38.5 9.5q-10 0 -24 -2l-16 30l41 59q-70 4 -121 29t-73 64l40 140h26q2 -14 2 -24q0 -28 -10 -103
q19 -29 53.5 -46.5t81.5 -17.5q66 0 120.5 36.5t68.5 103.5q3 15 3 28q0 34 -18 58.5t-45 40.5t-72 37q-49 23 -79 42t-51 49t-21 72q0 21 4 40q18 84 89.5 127.5t179.5 43.5q71 0 118 -17.5z" />
    <glyph glyph-name="Scircumflex" unicode="&#x15c;" horiz-adv-x="541" 
d="M239 818q36 22 85.5 61.5t73.5 67.5h51q14 -29 47 -68.5t60 -60.5l-51 -37q-25 23 -51 56.5t-38 59.5h-5q-22 -25 -61 -58.5t-74 -57.5zM90.5 16q-56.5 26 -79.5 67l40 140h26q2 -14 2 -24q0 -28 -10 -103q19 -29 53.5 -46.5t81.5 -17.5q66 0 120.5 36.5t68.5 103.5
q3 15 3 28q0 34 -18 58.5t-45 40.5t-72 37q-49 23 -79 42t-51 49t-21 72q0 21 4 40q18 84 89.5 127.5t179.5 43.5q71 0 118 -17.5t74 -54.5l-35 -124h-27q-2 22 -2 37q0 34 5 76q-18 20 -48 30.5t-69 10.5q-71 0 -115 -28.5t-55 -83.5q-2 -12 -2 -18q0 -26 15.5 -45.5
t38.5 -33.5t65 -35q53 -25 86 -47t56.5 -56.5t23.5 -84.5q0 -27 -5 -48q-12 -61 -53 -106t-101 -68.5t-129 -23.5q-77 0 -133.5 26z" />
    <glyph glyph-name="Scommaaccent" unicode="&#x218;" horiz-adv-x="541" 
d="M90.5 16q-56.5 26 -79.5 67l40 140h26q2 -14 2 -24q0 -28 -10 -103q19 -29 53.5 -46.5t81.5 -17.5q66 0 120.5 36.5t68.5 103.5q3 15 3 28q0 34 -18 58.5t-45 40.5t-72 37q-49 23 -79 42t-51 49t-21 72q0 21 4 40q18 84 89.5 127.5t179.5 43.5q71 0 118 -17.5t74 -54.5
l-35 -124h-27q-2 22 -2 37q0 34 5 76q-18 20 -48 30.5t-69 10.5q-71 0 -115 -28.5t-55 -83.5q-2 -12 -2 -18q0 -26 15.5 -45.5t38.5 -33.5t65 -35q53 -25 86 -47t56.5 -56.5t23.5 -84.5q0 -27 -5 -48q-12 -61 -53 -106t-101 -68.5t-129 -23.5q-77 0 -133.5 26zM123 -280
q24 22 45.5 53t31.5 61q-3 -1 -8 -1q-19 0 -31.5 12.5t-12.5 31.5q0 30 21.5 50t49.5 20q27 0 40.5 -14.5t13.5 -39.5q0 -6 -2 -18q-10 -46 -43.5 -99t-73.5 -85z" />
    <glyph glyph-name="uni1E60" unicode="&#x1e60;" horiz-adv-x="541" 
d="M374 795.5q-10 10.5 -10 27.5q0 8 1 13q5 23 21 37.5t37 14.5q18 0 29 -10.5t11 -27.5q0 -27 -18 -46t-43 -19q-18 0 -28 10.5zM90.5 16q-56.5 26 -79.5 67l40 140h26q2 -14 2 -24q0 -28 -10 -103q19 -29 53.5 -46.5t81.5 -17.5q66 0 120.5 36.5t68.5 103.5q3 15 3 28
q0 34 -18 58.5t-45 40.5t-72 37q-49 23 -79 42t-51 49t-21 72q0 21 4 40q18 84 89.5 127.5t179.5 43.5q71 0 118 -17.5t74 -54.5l-35 -124h-27q-2 22 -2 37q0 34 5 76q-18 20 -48 30.5t-69 10.5q-71 0 -115 -28.5t-55 -83.5q-2 -12 -2 -18q0 -26 15.5 -45.5t38.5 -33.5
t65 -35q53 -25 86 -47t56.5 -56.5t23.5 -84.5q0 -27 -5 -48q-12 -61 -53 -106t-101 -68.5t-129 -23.5q-77 0 -133.5 26z" />
    <glyph glyph-name="uni1E62" unicode="&#x1e62;" horiz-adv-x="541" 
d="M90.5 16q-56.5 26 -79.5 67l40 140h26q2 -14 2 -24q0 -28 -10 -103q19 -29 53.5 -46.5t81.5 -17.5q66 0 120.5 36.5t68.5 103.5q3 15 3 28q0 34 -18 58.5t-45 40.5t-72 37q-49 23 -79 42t-51 49t-21 72q0 21 4 40q18 84 89.5 127.5t179.5 43.5q71 0 118 -17.5t74 -54.5
l-35 -124h-27q-2 22 -2 37q0 34 5 76q-18 20 -48 30.5t-69 10.5q-71 0 -115 -28.5t-55 -83.5q-2 -12 -2 -18q0 -26 15.5 -45.5t38.5 -33.5t65 -35q53 -25 86 -47t56.5 -56.5t23.5 -84.5q0 -27 -5 -48q-12 -61 -53 -106t-101 -68.5t-129 -23.5q-77 0 -133.5 26zM171.5 -149.5
q-10.5 10.5 -10.5 28.5q0 8 1 12q5 23 21.5 37.5t37.5 14.5q19 0 29.5 -10.5t10.5 -27.5q0 -27 -18 -46t-43 -19q-18 0 -28.5 10.5z" />
    <glyph glyph-name="uni1E9E" unicode="&#x1e9e;" horiz-adv-x="697" 
d="M250 11l8 43q59 -24 123 -24q69 0 117.5 47.5t65.5 126.5q4 19 4 40q0 54 -33.5 85.5t-98.5 31.5h-68l5 25l211 189q-10 40 -48.5 66.5t-96.5 26.5q-69 0 -116 -43t-63 -119l-96 -472q11 -2 28 -8.5t24 -10.5l-3 -15h-241l3 15q43 12 82 19l89 441q23 112 100.5 173.5
t207.5 61.5q64 0 110 -22.5t70 -58.5t27 -75l-174 -155q90 -8 139 -49.5t49 -106.5q0 -22 -4 -39q-19 -93 -94.5 -153.5t-200.5 -60.5q-76 0 -126 21z" />
    <glyph glyph-name="uni018F" unicode="&#x18f;" horiz-adv-x="698" 
d="M571 676q66 -34 100 -96t34 -145q0 -43 -9 -91q-35 -172 -143.5 -263t-265.5 -91q-121 0 -179.5 62.5t-58.5 167.5q0 46 10 92l5 29h526q7 39 7 82q0 108 -52.5 175.5t-155.5 67.5q-62 0 -119 -16.5t-118 -53.5l-6 38q112 76 266 76q93 0 159 -34zM473.5 106
q74.5 76 106.5 192h-420q-9 -43 -9 -88q0 -79 34 -129.5t106 -50.5q108 0 182.5 76z" />
    <glyph glyph-name="T" unicode="T" horiz-adv-x="626" 
d="M140 15q29 8 87 19l127 625h-169q-5 -22 -25 -68.5t-31 -61.5h-24l34 171h555l-34 -171h-25q-6 17 -6 69q0 42 3 61h-168l-128 -626q47 -8 78 -19l-2 -14h-275z" />
    <glyph glyph-name="Tbar" unicode="&#x166;" horiz-adv-x="626" 
d="M694 700l-34 -171h-25q-6 17 -6 69q0 42 3 61h-168l-62 -304h146l-8 -40h-146l-58 -282q47 -8 78 -19l-2 -14h-275l3 15q29 8 87 19l57 281h-139l9 40h138l62 304h-169q-5 -22 -25 -68.5t-31 -61.5h-24l34 171h555z" />
    <glyph glyph-name="Tcaron" unicode="&#x164;" horiz-adv-x="626" 
d="M361 853.5q-33 39.5 -61 62.5l51 36q25 -22 51 -55.5t38 -59.5h4q23 26 62.5 59t74.5 56l36 -36q-37 -22 -86 -61.5t-73 -68.5h-51q-13 28 -46 67.5zM140 15q29 8 87 19l127 625h-169q-5 -22 -25 -68.5t-31 -61.5h-24l34 171h555l-34 -171h-25q-6 17 -6 69q0 42 3 61
h-168l-128 -626q47 -8 78 -19l-2 -14h-275z" />
    <glyph glyph-name="uni0162" unicode="&#x162;" horiz-adv-x="626" 
d="M694 700l-34 -171h-25q-6 17 -6 69q0 42 3 61h-168l-128 -626q47 -8 78 -19l-2 -14h-121l-41 -63h6q44 0 66 -16t22 -43q0 -9 -1 -14q-10 -45 -49.5 -69.5t-93.5 -24.5q-23 0 -47 6t-40 17l24 32q26 -14 64 -14q33 0 56 12.5t29 40.5q4 21 -12 30t-41 9q-7 0 -23 -2
l-16 30l47 69h-104l3 15q29 8 87 19l127 625h-169q-5 -22 -25 -68.5t-31 -61.5h-24l34 171h555z" />
    <glyph glyph-name="uni021A" unicode="&#x21a;" horiz-adv-x="626" 
d="M140 15q29 8 87 19l127 625h-169q-5 -22 -25 -68.5t-31 -61.5h-24l34 171h555l-34 -171h-25q-6 17 -6 69q0 42 3 61h-168l-128 -626q47 -8 78 -19l-2 -14h-275zM161 -295q24 22 45.5 52t30.5 60q-51 0 -51 41q0 9 1 14q6 26 26.5 40.5t43.5 14.5q50 0 50 -48
q0 -14 -2 -22q-9 -46 -41 -97.5t-73 -83.5z" />
    <glyph glyph-name="uni1E6C" unicode="&#x1e6c;" horiz-adv-x="626" 
d="M140 15q29 8 87 19l127 625h-169q-5 -22 -25 -68.5t-31 -61.5h-24l34 171h555l-34 -171h-25q-6 17 -6 69q0 42 3 61h-168l-128 -626q47 -8 78 -19l-2 -14h-275zM213 -149.5q-10 10.5 -10 27.5q0 28 17 46.5t42 18.5q19 0 29.5 -10.5t10.5 -27.5q0 -4 -2 -14
q-4 -22 -20.5 -36.5t-38.5 -14.5q-18 0 -28 10.5z" />
    <glyph glyph-name="uni1E6E" unicode="&#x1e6e;" horiz-adv-x="626" 
d="M140 15q29 8 87 19l127 625h-169q-5 -22 -25 -68.5t-31 -61.5h-24l34 171h555l-34 -171h-25q-6 17 -6 69q0 42 3 61h-168l-128 -626q47 -8 78 -19l-2 -14h-275zM91 -66h337l-8 -39h-336z" />
    <glyph glyph-name="U" unicode="U" horiz-adv-x="750" 
d="M109 156q0 27 6 60l92 450q-46 10 -74 20l3 14h264l-3 -15q-33 -11 -80 -19l-94 -462q-5 -22 -5 -50q0 -122 155 -122q82 0 141.5 40.5t78.5 131.5l94 463q-41 7 -74 19l3 14h205l-3 -14q-48 -15 -83 -21l-92 -449q-46 -226 -305 -226q-229 0 -229 166z" />
    <glyph glyph-name="Uacute" unicode="&#xda;" horiz-adv-x="750" 
d="M433 813l135 113q31 27 55 27q17 0 24.5 -10t4.5 -22q-6 -27 -46 -49l-160 -86zM109 156q0 27 6 60l92 450q-46 10 -74 20l3 14h264l-3 -15q-33 -11 -80 -19l-94 -462q-5 -22 -5 -50q0 -122 155 -122q82 0 141.5 40.5t78.5 131.5l94 463q-41 7 -74 19l3 14h205l-3 -14
q-48 -15 -83 -21l-92 -449q-46 -226 -305 -226q-229 0 -229 166z" />
    <glyph glyph-name="Ubreve" unicode="&#x16c;" horiz-adv-x="750" 
d="M400 809.5q-34 31.5 -30 95.5h62q-1 -6 -1 -17q0 -40 21.5 -54t56.5 -14q37 0 66.5 17.5t44.5 67.5h64q-21 -63 -69 -95t-115 -32q-66 0 -100 31.5zM109 156q0 27 6 60l92 450q-46 10 -74 20l3 14h264l-3 -15q-33 -11 -80 -19l-94 -462q-5 -22 -5 -50q0 -122 155 -122
q82 0 141.5 40.5t78.5 131.5l94 463q-41 7 -74 19l3 14h205l-3 -14q-48 -15 -83 -21l-92 -449q-46 -226 -305 -226q-229 0 -229 166z" />
    <glyph glyph-name="uni01D3" unicode="&#x1d3;" horiz-adv-x="750" 
d="M422 853.5q-33 39.5 -60 62.5l51 36q25 -23 51 -56t37 -59h5q23 26 62.5 59t73.5 56l37 -36q-37 -23 -86.5 -62.5t-73.5 -67.5h-51q-13 28 -46 67.5zM109 156q0 27 6 60l92 450q-46 10 -74 20l3 14h264l-3 -15q-33 -11 -80 -19l-94 -462q-5 -22 -5 -50q0 -122 155 -122
q82 0 141.5 40.5t78.5 131.5l94 463q-41 7 -74 19l3 14h205l-3 -14q-48 -15 -83 -21l-92 -449q-46 -226 -305 -226q-229 0 -229 166z" />
    <glyph glyph-name="Ucircumflex" unicode="&#xdb;" horiz-adv-x="750" 
d="M344 818q35 21 84.5 61t74.5 68h51q13 -28 46 -68t60 -61l-50 -37q-25 23 -51 56.5t-39 59.5h-4q-22 -25 -61 -58t-75 -58zM109 156q0 27 6 60l92 450q-46 10 -74 20l3 14h264l-3 -15q-33 -11 -80 -19l-94 -462q-5 -22 -5 -50q0 -122 155 -122q82 0 141.5 40.5
t78.5 131.5l94 463q-41 7 -74 19l3 14h205l-3 -14q-48 -15 -83 -21l-92 -449q-46 -226 -305 -226q-229 0 -229 166z" />
    <glyph glyph-name="Udieresis" unicode="&#xdc;" horiz-adv-x="750" 
d="M372.5 795.5q-9.5 10.5 -9.5 27.5q0 9 1 13q5 23 20.5 37.5t36.5 14.5q19 0 30 -11t11 -28q0 -26 -18 -45t-44 -19q-18 0 -27.5 10.5zM590 795.5q-10 10.5 -10 27.5q0 8 1 13q5 23 21 37.5t37 14.5q18 0 29 -10.5t11 -27.5q0 -27 -18 -46t-43 -19q-18 0 -28 10.5z
M109 156q0 27 6 60l92 450q-46 10 -74 20l3 14h264l-3 -15q-33 -11 -80 -19l-94 -462q-5 -22 -5 -50q0 -122 155 -122q82 0 141.5 40.5t78.5 131.5l94 463q-41 7 -74 19l3 14h205l-3 -14q-48 -15 -83 -21l-92 -449q-46 -226 -305 -226q-229 0 -229 166z" />
    <glyph glyph-name="uni01D7" unicode="&#x1d7;" horiz-adv-x="750" 
d="M516 934l117 100q2 1 16.5 15t36.5 14q15 0 23 -8.5t8 -20.5q0 -29 -47 -54l-141 -73zM376 795q-10 10 -10 27q0 27 17 46t42 19q18 0 28.5 -11t10.5 -29q0 -26 -17.5 -44t-42.5 -18q-18 0 -28 10zM593 795q-10 10 -10 28q0 26 17 45t42 19q19 0 29.5 -11t10.5 -29
q0 -27 -17.5 -44.5t-43.5 -17.5q-18 0 -28 10zM109 156q0 27 6 60l92 450q-46 10 -74 20l3 14h264l-3 -15q-33 -11 -80 -19l-94 -462q-5 -22 -5 -50q0 -122 155 -122q82 0 141.5 40.5t78.5 131.5l94 463q-41 7 -74 19l3 14h205l-3 -14q-48 -15 -83 -21l-92 -449
q-46 -226 -305 -226q-229 0 -229 166z" />
    <glyph glyph-name="uni01D9" unicode="&#x1d9;" horiz-adv-x="750" 
d="M470.5 973q-30.5 34 -60.5 58l51 36q65 -61 86 -105h4q46 50 129 105l37 -36q-40 -25 -84.5 -59t-68.5 -61h-50q-13 28 -43.5 62zM375.5 795.5q-10.5 10.5 -10.5 27.5q0 26 17 45t42 19q18 0 28.5 -10.5t10.5 -28.5q0 -27 -17 -45t-42 -18q-18 0 -28.5 10.5zM592.5 795.5
q-10.5 10.5 -10.5 27.5q0 27 17 45.5t42 18.5q19 0 29.5 -10.5t10.5 -28.5q0 -27 -17 -45t-43 -18q-18 0 -28.5 10.5zM109 156q0 27 6 60l92 450q-46 10 -74 20l3 14h264l-3 -15q-33 -11 -80 -19l-94 -462q-5 -22 -5 -50q0 -122 155 -122q82 0 141.5 40.5t78.5 131.5l94 463
q-41 7 -74 19l3 14h205l-3 -14q-48 -15 -83 -21l-92 -449q-46 -226 -305 -226q-229 0 -229 166z" />
    <glyph glyph-name="uni01DB" unicode="&#x1db;" horiz-adv-x="750" 
d="M442 980q-28 18 -28 40q0 15 12.5 29t31.5 14q14 0 22 -6t13.5 -13t7.5 -10l75 -100l-23 -27zM375.5 795.5q-10.5 10.5 -10.5 27.5q0 26 17 45t42 19q18 0 28.5 -10.5t10.5 -28.5q0 -27 -17 -45t-42 -18q-18 0 -28.5 10.5zM592.5 795.5q-10.5 10.5 -10.5 27.5
q0 27 17 45.5t42 18.5q19 0 29.5 -10.5t10.5 -28.5q0 -27 -17 -45t-43 -18q-18 0 -28.5 10.5zM109 156q0 27 6 60l92 450q-46 10 -74 20l3 14h264l-3 -15q-33 -11 -80 -19l-94 -462q-5 -22 -5 -50q0 -122 155 -122q82 0 141.5 40.5t78.5 131.5l94 463q-41 7 -74 19l3 14h205
l-3 -14q-48 -15 -83 -21l-92 -449q-46 -226 -305 -226q-229 0 -229 166z" />
    <glyph glyph-name="uni01D5" unicode="&#x1d5;" horiz-adv-x="750" 
d="M390 991h328l-8 -39h-328zM376 795q-10 10 -10 27q0 27 17 46t42 19q18 0 28.5 -11t10.5 -29q0 -26 -17.5 -44t-42.5 -18q-18 0 -28 10zM593 795q-10 10 -10 28q0 26 17 45t42 19q19 0 29.5 -11t10.5 -29q0 -27 -17.5 -44.5t-43.5 -17.5q-18 0 -28 10zM109 156q0 27 6 60
l92 450q-46 10 -74 20l3 14h264l-3 -15q-33 -11 -80 -19l-94 -462q-5 -22 -5 -50q0 -122 155 -122q82 0 141.5 40.5t78.5 131.5l94 463q-41 7 -74 19l3 14h205l-3 -14q-48 -15 -83 -21l-92 -449q-46 -226 -305 -226q-229 0 -229 166z" />
    <glyph glyph-name="uni1EE4" unicode="&#x1ee4;" horiz-adv-x="750" 
d="M109 156q0 27 6 60l92 450q-46 10 -74 20l3 14h264l-3 -15q-33 -11 -80 -19l-94 -462q-5 -22 -5 -50q0 -122 155 -122q82 0 141.5 40.5t78.5 131.5l94 463q-41 7 -74 19l3 14h205l-3 -14q-48 -15 -83 -21l-92 -449q-46 -226 -305 -226q-229 0 -229 166zM285.5 -149
q-10.5 11 -10.5 29q0 7 1 11q5 23 21.5 37.5t37.5 14.5q19 0 29.5 -10.5t10.5 -27.5q0 -4 -2 -14q-4 -22 -20.5 -36.5t-38.5 -14.5q-18 0 -28.5 11z" />
    <glyph glyph-name="Ugrave" unicode="&#xd9;" horiz-adv-x="750" 
d="M453 872q-33 24 -28 49q3 13 14.5 22.5t28.5 9.5q15 0 24 -7t20 -19l89 -114l-23 -27zM109 156q0 27 6 60l92 450q-46 10 -74 20l3 14h264l-3 -15q-33 -11 -80 -19l-94 -462q-5 -22 -5 -50q0 -122 155 -122q82 0 141.5 40.5t78.5 131.5l94 463q-41 7 -74 19l3 14h205
l-3 -14q-48 -15 -83 -21l-92 -449q-46 -226 -305 -226q-229 0 -229 166z" />
    <glyph glyph-name="uni1EE6" unicode="&#x1ee6;" horiz-adv-x="750" 
d="M508 876h28q26 0 45 13.5t24 38.5q1 3 1 10q0 16 -12.5 26.5t-36.5 10.5q-29 0 -60 -16v33q38 17 81 17q37 0 61 -16t24 -48q0 -12 -2 -19q-12 -71 -99 -79l-23 -66h-46zM109 156q0 27 6 60l92 450q-46 10 -74 20l3 14h264l-3 -15q-33 -11 -80 -19l-94 -462
q-5 -22 -5 -50q0 -122 155 -122q82 0 141.5 40.5t78.5 131.5l94 463q-41 7 -74 19l3 14h205l-3 -14q-48 -15 -83 -21l-92 -449q-46 -226 -305 -226q-229 0 -229 166z" />
    <glyph glyph-name="Uhorn" unicode="&#x1af;" horiz-adv-x="750" 
d="M109 156q0 27 6 60l92 450q-46 10 -74 20l3 14h264l-3 -15q-33 -11 -80 -19l-94 -462q-5 -22 -5 -50q0 -122 155 -122q82 0 141.5 40.5t78.5 131.5l94 463q-41 7 -74 19l3 14h133q40 0 71.5 13t41.5 39q-8 -4 -18 -4q-19 0 -29.5 11t-10.5 30q0 24 18.5 46t53.5 22
q52 0 52 -47q0 -12 -3 -24q-9 -47 -59 -80.5t-131 -40.5l-92 -449q-46 -226 -305 -226q-229 0 -229 166z" />
    <glyph glyph-name="uni1EE8" unicode="&#x1ee8;" horiz-adv-x="750" 
d="M457 812l135 113q31 27 55 27q17 0 24.5 -10t4.5 -22q-6 -27 -46 -49l-160 -86zM109 156q0 27 6 60l92 450q-46 10 -74 20l3 14h264l-3 -15q-33 -11 -80 -19l-94 -462q-5 -22 -5 -50q0 -122 155 -122q82 0 141.5 40.5t78.5 131.5l94 463q-41 7 -74 19l3 14h133
q40 0 71.5 13t41.5 39q-8 -4 -18 -4q-19 0 -29.5 11t-10.5 30q0 24 18.5 46t53.5 22q52 0 52 -47q0 -12 -3 -24q-9 -47 -59 -80.5t-131 -40.5l-92 -449q-46 -226 -305 -226q-229 0 -229 166z" />
    <glyph glyph-name="uni1EF0" unicode="&#x1ef0;" horiz-adv-x="750" 
d="M109 156q0 27 6 60l92 450q-46 10 -74 20l3 14h264l-3 -15q-33 -11 -80 -19l-94 -462q-5 -22 -5 -50q0 -122 155 -122q82 0 141.5 40.5t78.5 131.5l94 463q-41 7 -74 19l3 14h133q40 0 71.5 13t41.5 39q-8 -4 -18 -4q-19 0 -29.5 11t-10.5 30q0 24 18.5 46t53.5 22
q52 0 52 -47q0 -12 -3 -24q-9 -47 -59 -80.5t-131 -40.5l-92 -449q-46 -226 -305 -226q-229 0 -229 166zM286.5 -149q-10.5 11 -10.5 29q0 7 1 11q5 23 21.5 37.5t37.5 14.5q19 0 29.5 -10.5t10.5 -27.5q0 -4 -2 -14q-4 -22 -20.5 -36.5t-38.5 -14.5q-18 0 -28.5 11z" />
    <glyph glyph-name="uni1EEA" unicode="&#x1eea;" horiz-adv-x="750" 
d="M457 870q-33 24 -28 49q3 13 14.5 22.5t28.5 9.5q15 0 24.5 -7.5t19.5 -18.5l89 -114l-23 -27zM109 156q0 27 6 60l92 450q-46 10 -74 20l3 14h264l-3 -15q-33 -11 -80 -19l-94 -462q-5 -22 -5 -50q0 -122 155 -122q82 0 141.5 40.5t78.5 131.5l94 463q-41 7 -74 19l3 14
h133q40 0 71.5 13t41.5 39q-8 -4 -18 -4q-19 0 -29.5 11t-10.5 30q0 24 18.5 46t53.5 22q52 0 52 -47q0 -12 -3 -24q-9 -47 -59 -80.5t-131 -40.5l-92 -449q-46 -226 -305 -226q-229 0 -229 166z" />
    <glyph glyph-name="uni1EEC" unicode="&#x1eec;" horiz-adv-x="750" 
d="M509 876h28q26 0 45 13.5t24 38.5q1 3 1 10q0 16 -12.5 26.5t-36.5 10.5q-29 0 -60 -16v33q38 17 81 17q37 0 61 -16t24 -48q0 -12 -2 -19q-12 -71 -99 -79l-23 -66h-46zM109 156q0 27 6 60l92 450q-46 10 -74 20l3 14h264l-3 -15q-33 -11 -80 -19l-94 -462
q-5 -22 -5 -50q0 -122 155 -122q82 0 141.5 40.5t78.5 131.5l94 463q-41 7 -74 19l3 14h133q40 0 71.5 13t41.5 39q-8 -4 -18 -4q-19 0 -29.5 11t-10.5 30q0 24 18.5 46t53.5 22q52 0 52 -47q0 -12 -3 -24q-9 -47 -59 -80.5t-131 -40.5l-92 -449q-46 -226 -305 -226
q-229 0 -229 166z" />
    <glyph glyph-name="uni1EEE" unicode="&#x1eee;" horiz-adv-x="750" 
d="M457 887q22 0 40 -8t40 -23q19 -12 30.5 -17.5t22.5 -5.5q23 0 43 13.5t33 44.5h36q-16 -52 -47 -80.5t-76 -28.5q-18 0 -35.5 8t-41.5 23q-23 13 -34.5 18.5t-23.5 5.5q-21 0 -41.5 -15.5t-30.5 -40.5h-38q35 106 123 106zM109 156q0 27 6 60l92 450q-46 10 -74 20l3 14
h264l-3 -15q-33 -11 -80 -19l-94 -462q-5 -22 -5 -50q0 -122 155 -122q82 0 141.5 40.5t78.5 131.5l94 463q-41 7 -74 19l3 14h133q40 0 71.5 13t41.5 39q-8 -4 -18 -4q-19 0 -29.5 11t-10.5 30q0 24 18.5 46t53.5 22q52 0 52 -47q0 -12 -3 -24q-9 -47 -59 -80.5t-131 -40.5
l-92 -449q-46 -226 -305 -226q-229 0 -229 166z" />
    <glyph glyph-name="Uhungarumlaut" unicode="&#x170;" horiz-adv-x="750" 
d="M330 812l135 113q9 9 23.5 18t30.5 9q15 0 23 -7.5t8 -18.5q0 -16 -12 -28.5t-36 -26.5l-159 -86zM526 812l135 113q31 27 55 27q15 0 23 -7.5t8 -18.5q0 -16 -12 -28.5t-36 -26.5l-160 -86zM109 156q0 27 6 60l92 450q-46 10 -74 20l3 14h264l-3 -15q-33 -11 -80 -19
l-94 -462q-5 -22 -5 -50q0 -122 155 -122q82 0 141.5 40.5t78.5 131.5l94 463q-41 7 -74 19l3 14h205l-3 -14q-48 -15 -83 -21l-92 -449q-46 -226 -305 -226q-229 0 -229 166z" />
    <glyph glyph-name="Umacron" unicode="&#x16a;" horiz-adv-x="750" 
d="M335 826h337l-8 -40h-337zM109 156q0 27 6 60l92 450q-46 10 -74 20l3 14h264l-3 -15q-33 -11 -80 -19l-94 -462q-5 -22 -5 -50q0 -122 155 -122q82 0 141.5 40.5t78.5 131.5l94 463q-41 7 -74 19l3 14h205l-3 -14q-48 -15 -83 -21l-92 -449q-46 -226 -305 -226
q-229 0 -229 166z" />
    <glyph glyph-name="Uogonek" unicode="&#x172;" horiz-adv-x="750" 
d="M821 700l-3 -14q-48 -15 -83 -21l-92 -449q-37 -183 -214 -218q-26 -15 -46 -39t-26 -49q-1 -4 -1 -12q0 -18 13.5 -28.5t36.5 -10.5q27 0 59 16l-10 -48q-40 -20 -93 -20q-44 0 -68 18t-24 48q0 34 23 66t61 51h-16q-229 0 -229 166q0 27 6 60l92 450q-46 10 -74 20
l3 14h264l-3 -15q-33 -11 -80 -19l-94 -462q-5 -22 -5 -50q0 -122 155 -122q82 0 141.5 40.5t78.5 131.5l94 463q-41 7 -74 19l3 14h205z" />
    <glyph glyph-name="Uring" unicode="&#x16e;" horiz-adv-x="750" 
d="M437 793.5q-21 18.5 -21 50.5q0 50 34 83t82 33q36 0 56.5 -19.5t20.5 -51.5q0 -14 -2 -22q-9 -41 -40.5 -66.5t-73.5 -25.5q-35 0 -56 18.5zM549 830.5q20 19.5 20 50.5q0 19 -12.5 30.5t-32.5 11.5q-28 0 -48 -19.5t-20 -49.5q0 -20 12 -31.5t33 -11.5q28 0 48 19.5z
M109 156q0 27 6 60l92 450q-46 10 -74 20l3 14h264l-3 -15q-33 -11 -80 -19l-94 -462q-5 -22 -5 -50q0 -122 155 -122q82 0 141.5 40.5t78.5 131.5l94 463q-41 7 -74 19l3 14h205l-3 -14q-48 -15 -83 -21l-92 -449q-46 -226 -305 -226q-229 0 -229 166z" />
    <glyph glyph-name="Utilde" unicode="&#x168;" horiz-adv-x="750" 
d="M373 865.5q31 26.5 73 26.5q22 0 40 -8t41 -23q17 -12 29 -17.5t24 -5.5q23 0 43 13.5t33 44.5h35q-35 -109 -123 -109q-19 0 -36.5 8t-41.5 23q-21 13 -33 18.5t-23 5.5q-22 0 -42 -15.5t-30 -40.5h-38q18 53 49 79.5zM109 156q0 27 6 60l92 450q-46 10 -74 20l3 14h264
l-3 -15q-33 -11 -80 -19l-94 -462q-5 -22 -5 -50q0 -122 155 -122q82 0 141.5 40.5t78.5 131.5l94 463q-41 7 -74 19l3 14h205l-3 -14q-48 -15 -83 -21l-92 -449q-46 -226 -305 -226q-229 0 -229 166z" />
    <glyph glyph-name="V" unicode="V" horiz-adv-x="716" 
d="M186 665q-37 6 -69 21l3 14h258l-3 -16q-42 -14 -82 -19l66 -576l303 577q-42 7 -74 21l1 13h215l-3 -16q-21 -7 -44.5 -13t-34.5 -8l-362 -670h-84z" />
    <glyph glyph-name="W" unicode="W" horiz-adv-x="984" 
d="M186 665q-28 5 -69 21l3 14h257l-3 -15q-16 -6 -40 -12t-43 -8l14 -533l274 536h50l66 -582l262 584q-28 5 -60 15l3 15h171l-2 -12q-28 -13 -60 -19l-306 -674h-94l-58 514l-263 -514h-78z" />
    <glyph glyph-name="Wacute" unicode="&#x1e82;" horiz-adv-x="984" 
d="M557 813l135 113q31 27 55 27q17 0 24.5 -10t4.5 -22q-5 -26 -46 -49l-160 -86zM186 665q-28 5 -69 21l3 14h257l-3 -15q-16 -6 -40 -12t-43 -8l14 -533l274 536h50l66 -582l262 584q-28 5 -60 15l3 15h171l-2 -12q-28 -13 -60 -19l-306 -674h-94l-58 514l-263 -514h-78z
" />
    <glyph glyph-name="Wcircumflex" unicode="&#x174;" horiz-adv-x="984" 
d="M478 818q36 22 85.5 61.5t73.5 67.5h51q14 -29 47 -68.5t60 -60.5l-51 -37q-25 23 -51 56.5t-38 59.5h-5q-22 -25 -61 -58.5t-74 -57.5zM186 665q-28 5 -69 21l3 14h257l-3 -15q-16 -6 -40 -12t-43 -8l14 -533l274 536h50l66 -582l262 584q-28 5 -60 15l3 15h171l-2 -12
q-28 -13 -60 -19l-306 -674h-94l-58 514l-263 -514h-78z" />
    <glyph glyph-name="Wdieresis" unicode="&#x1e84;" horiz-adv-x="984" 
d="M491 796q-10 11 -10 28q0 8 1 12q5 23 21 37.5t37 14.5q18 0 29 -10.5t11 -27.5q0 -27 -18 -46t-44 -19q-17 0 -27 11zM708 795.5q-10 10.5 -10 27.5q0 9 1 13q5 23 21 37.5t37 14.5q18 0 29 -10.5t11 -27.5q0 -27 -18 -46t-43 -19q-18 0 -28 10.5zM186 665q-28 5 -69 21
l3 14h257l-3 -15q-16 -6 -40 -12t-43 -8l14 -533l274 536h50l66 -582l262 584q-28 5 -60 15l3 15h171l-2 -12q-28 -13 -60 -19l-306 -674h-94l-58 514l-263 -514h-78z" />
    <glyph glyph-name="Wgrave" unicode="&#x1e80;" horiz-adv-x="984" 
d="M565 872q-28 20 -28 41q0 14 11.5 27t32.5 13q15 0 23.5 -7t19.5 -19l89 -114l-23 -27zM186 665q-28 5 -69 21l3 14h257l-3 -15q-16 -6 -40 -12t-43 -8l14 -533l274 536h50l66 -582l262 584q-28 5 -60 15l3 15h171l-2 -12q-28 -13 -60 -19l-306 -674h-94l-58 514
l-263 -514h-78z" />
    <glyph glyph-name="X" unicode="X" horiz-adv-x="671" 
d="M731 700l-2 -13q-34 -14 -62 -20l-255 -279l147 -354q36 -8 66 -20l-2 -14h-259l2 12q49 20 89 24l-115 274l-256 -279q23 -5 59 -17l-2 -14h-170l3 15q18 7 58 17l292 318l-132 314q-33 7 -66 21l3 15h259l-3 -16q-52 -16 -88 -20l98 -236l220 239q-37 10 -58 19l3 14
h171z" />
    <glyph glyph-name="Y" unicode="Y" horiz-adv-x="698" 
d="M184 13q54 18 82 20l55 271l-133 360q-42 9 -71 21l3 15h261l-3 -16q-53 -16 -85 -20l115 -313l254 317q-23 6 -58 18l3 14h178l-3 -16q-29 -11 -57 -16l-295 -365l-55 -270q37 -6 73 -19l-2 -14h-264z" />
    <glyph glyph-name="Yacute" unicode="&#xdd;" horiz-adv-x="698" 
d="M408 813l135 113q31 27 55 27q17 0 24.5 -10t4.5 -22q-6 -27 -46 -49l-160 -86zM184 13q54 18 82 20l55 271l-133 360q-42 9 -71 21l3 15h261l-3 -16q-53 -16 -85 -20l115 -313l254 317q-23 6 -58 18l3 14h178l-3 -16q-29 -11 -57 -16l-295 -365l-55 -270q37 -6 73 -19
l-2 -14h-264z" />
    <glyph glyph-name="Ycircumflex" unicode="&#x176;" horiz-adv-x="698" 
d="M317 818q36 22 85.5 61.5t73.5 67.5h51q13 -28 46.5 -68t60.5 -61l-51 -37q-25 23 -51 56.5t-39 59.5h-4q-22 -25 -61 -58t-75 -58zM184 13q54 18 82 20l55 271l-133 360q-42 9 -71 21l3 15h261l-3 -16q-53 -16 -85 -20l115 -313l254 317q-23 6 -58 18l3 14h178l-3 -16
q-29 -11 -57 -16l-295 -365l-55 -270q37 -6 73 -19l-2 -14h-264z" />
    <glyph glyph-name="Ydieresis" unicode="&#x178;" horiz-adv-x="698" 
d="M352.5 795.5q-9.5 10.5 -9.5 27.5q0 28 16.5 46.5t41.5 18.5q19 0 29.5 -10.5t10.5 -28.5q0 -26 -18 -45t-43 -19q-18 0 -27.5 10.5zM570 795.5q-10 10.5 -10 27.5q0 27 17 46t42 19q18 0 28.5 -10.5t10.5 -28.5q0 -26 -17.5 -45t-42.5 -19q-18 0 -28 10.5zM184 13
q54 18 82 20l55 271l-133 360q-42 9 -71 21l3 15h261l-3 -16q-53 -16 -85 -20l115 -313l254 317q-23 6 -58 18l3 14h178l-3 -16q-29 -11 -57 -16l-295 -365l-55 -270q37 -6 73 -19l-2 -14h-264z" />
    <glyph glyph-name="uni1E8E" unicode="&#x1e8e;" horiz-adv-x="698" 
d="M476 795.5q-10 10.5 -10 27.5q0 27 17 46t42 19q18 0 28.5 -10.5t10.5 -28.5q0 -26 -17.5 -45t-42.5 -19q-18 0 -28 10.5zM184 13q54 18 82 20l55 271l-133 360q-42 9 -71 21l3 15h261l-3 -16q-53 -16 -85 -20l115 -313l254 317q-23 6 -58 18l3 14h178l-3 -16
q-29 -11 -57 -16l-295 -365l-55 -270q37 -6 73 -19l-2 -14h-264z" />
    <glyph glyph-name="uni1EF4" unicode="&#x1ef4;" horiz-adv-x="698" 
d="M184 13q54 18 82 20l55 271l-133 360q-42 9 -71 21l3 15h261l-3 -16q-53 -16 -85 -20l115 -313l254 317q-23 6 -58 18l3 14h178l-3 -16q-29 -11 -57 -16l-295 -365l-55 -270q37 -6 73 -19l-2 -14h-264zM248 -149.5q-10 10.5 -10 28.5q0 8 1 12q5 23 21.5 37.5t37.5 14.5
q18 0 29 -10.5t11 -27.5q0 -27 -18 -46t-44 -19q-18 0 -28 10.5z" />
    <glyph glyph-name="Ygrave" unicode="&#x1ef2;" horiz-adv-x="698" 
d="M414 872q-33 24 -28 49q3 13 14.5 22.5t28.5 9.5q23 0 43 -26l90 -114l-23 -27zM184 13q54 18 82 20l55 271l-133 360q-42 9 -71 21l3 15h261l-3 -16q-53 -16 -85 -20l115 -313l254 317q-23 6 -58 18l3 14h178l-3 -16q-29 -11 -57 -16l-295 -365l-55 -270q37 -6 73 -19
l-2 -14h-264z" />
    <glyph glyph-name="uni1EF6" unicode="&#x1ef6;" horiz-adv-x="698" 
d="M491 879h27q27 0 46 13.5t24 38.5q1 3 1 9q0 17 -12.5 27.5t-36.5 10.5q-29 0 -60 -16v33q38 17 81 17q37 0 61 -16t24 -48q0 -12 -2 -19q-12 -71 -100 -79l-23 -66h-45zM184 13q54 18 82 20l55 271l-133 360q-42 9 -71 21l3 15h261l-3 -16q-53 -16 -85 -20l115 -313
l254 317q-23 6 -58 18l3 14h178l-3 -16q-29 -11 -57 -16l-295 -365l-55 -270q37 -6 73 -19l-2 -14h-264z" />
    <glyph glyph-name="uni1EF8" unicode="&#x1ef8;" horiz-adv-x="698" 
d="M353.5 865.5q31.5 26.5 73.5 26.5q22 0 40 -8t41 -23q17 -12 29 -17.5t24 -5.5q23 0 42.5 13.5t32.5 44.5h36q-35 -109 -123 -109q-19 0 -36.5 8t-41.5 23q-21 13 -33 18.5t-23 5.5q-22 0 -42 -15.5t-30 -40.5h-39q18 53 49.5 79.5zM184 13q54 18 82 20l55 271l-133 360
q-42 9 -71 21l3 15h261l-3 -16q-53 -16 -85 -20l115 -313l254 317q-23 6 -58 18l3 14h178l-3 -16q-29 -11 -57 -16l-295 -365l-55 -270q37 -6 73 -19l-2 -14h-264z" />
    <glyph glyph-name="Z" unicode="Z" horiz-adv-x="567" 
d="M-10 26l525 633h-306q-5 -21 -23 -60t-30 -55h-25l31 156h478l-4 -18l-528 -642h331q6 23 27.5 61t35.5 54h25l-46 -155h-495z" />
    <glyph glyph-name="Zacute" unicode="&#x179;" horiz-adv-x="567" 
d="M359 813l135 113q31 27 55 27q17 0 24.5 -10t4.5 -22q-6 -27 -46 -49l-160 -86zM-10 26l525 633h-306q-5 -21 -23 -60t-30 -55h-25l31 156h478l-4 -18l-528 -642h331q6 23 27.5 61t35.5 54h25l-46 -155h-495z" />
    <glyph glyph-name="Zcaron" unicode="&#x17d;" horiz-adv-x="567" 
d="M343 853.5q-33 39.5 -61 62.5l51 36q25 -23 50.5 -56t37.5 -59h5q23 26 63 59t74 56l36 -36q-37 -23 -86.5 -62.5t-72.5 -67.5h-51q-13 28 -46 67.5zM-10 26l525 633h-306q-5 -21 -23 -60t-30 -55h-25l31 156h478l-4 -18l-528 -642h331q6 23 27.5 61t35.5 54h25l-46 -155
h-495z" />
    <glyph glyph-name="Zdotaccent" unicode="&#x17b;" horiz-adv-x="567" 
d="M381 795.5q-10 10.5 -10 28.5q0 8 1 12q5 23 21 37.5t38 14.5q18 0 28.5 -10.5t10.5 -27.5q0 -4 -2 -14q-4 -22 -20 -36.5t-38 -14.5q-19 0 -29 10.5zM-10 26l525 633h-306q-5 -21 -23 -60t-30 -55h-25l31 156h478l-4 -18l-528 -642h331q6 23 27.5 61t35.5 54h25
l-46 -155h-495z" />
    <glyph glyph-name="uni1E92" unicode="&#x1e92;" horiz-adv-x="567" 
d="M-10 26l525 633h-306q-5 -21 -23 -60t-30 -55h-25l31 156h478l-4 -18l-528 -642h331q6 23 27.5 61t35.5 54h25l-46 -155h-495zM180 -149.5q-10 10.5 -10 28.5q0 8 1 12q5 23 21 37.5t37 14.5q19 0 30 -11t11 -28q0 -26 -18 -45t-44 -19q-18 0 -28 10.5z" />
    <glyph glyph-name="a" unicode="a" horiz-adv-x="550" 
d="M54.5 29.5q-27.5 39.5 -27.5 102.5q0 34 8 74q15 75 52.5 143.5t101 113t151.5 44.5q53 0 89 -33q1 4 3 10t3 14h105l-82 -405q-4 -22 -4 -29q0 -22 16 -22q18 0 46 36t42 73l21 -11q-27 -65 -69.5 -107.5t-94.5 -42.5q-29 0 -47 22t-18 59q0 15 3 31l20 96
q-97 -208 -229 -208q-62 0 -89.5 39.5zM280 90.5q42 50.5 75 117.5t41 107l24 120q-13 17 -31.5 27.5t-42.5 10.5q-75 0 -128 -77t-74 -179q-6 -28 -6 -61q0 -48 14.5 -82t49.5 -34q36 0 78 50.5z" />
    <glyph glyph-name="aacute" unicode="&#xe1;" horiz-adv-x="550" 
d="M267 611l135 113q31 27 55 27q17 0 24.5 -10t4.5 -22q-6 -27 -46 -49l-160 -86zM54.5 29.5q-27.5 39.5 -27.5 102.5q0 34 8 74q15 75 52.5 143.5t101 113t151.5 44.5q53 0 89 -33q1 4 3 10t3 14h105l-82 -405q-4 -22 -4 -29q0 -22 16 -22q18 0 46 36t42 73l21 -11
q-27 -65 -69.5 -107.5t-94.5 -42.5q-29 0 -47 22t-18 59q0 15 3 31l20 96q-97 -208 -229 -208q-62 0 -89.5 39.5zM280 90.5q42 50.5 75 117.5t41 107l24 120q-13 17 -31.5 27.5t-42.5 10.5q-75 0 -128 -77t-74 -179q-6 -28 -6 -61q0 -48 14.5 -82t49.5 -34q36 0 78 50.5z
" />
    <glyph glyph-name="abreve" unicode="&#x103;" horiz-adv-x="550" 
d="M254.5 608.5q-34.5 31.5 -30.5 95.5h63q-1 -6 -1 -17q0 -40 21.5 -54t56.5 -14q37 0 66.5 17.5t44.5 67.5h63q-21 -63 -69 -95t-114 -32t-100.5 31.5zM54.5 29.5q-27.5 39.5 -27.5 102.5q0 34 8 74q15 75 52.5 143.5t101 113t151.5 44.5q53 0 89 -33q1 4 3 10t3 14h105
l-82 -405q-4 -22 -4 -29q0 -22 16 -22q18 0 46 36t42 73l21 -11q-27 -65 -69.5 -107.5t-94.5 -42.5q-29 0 -47 22t-18 59q0 15 3 31l20 96q-97 -208 -229 -208q-62 0 -89.5 39.5zM280 90.5q42 50.5 75 117.5t41 107l24 120q-13 17 -31.5 27.5t-42.5 10.5q-75 0 -128 -77
t-74 -179q-6 -28 -6 -61q0 -48 14.5 -82t49.5 -34q36 0 78 50.5z" />
    <glyph glyph-name="uni1EAF" unicode="&#x1eaf;" horiz-adv-x="550" 
d="M342 730l84 76q44 40 74 40q11 0 17.5 -5.5t6.5 -14.5q0 -15 -17 -34t-49 -35l-104 -51zM254.5 609q-34.5 32 -30.5 95h63q-1 -6 -1 -17q0 -40 21.5 -54t56.5 -14q37 0 66.5 17.5t44.5 67.5h63q-21 -64 -69 -95.5t-114 -31.5t-100.5 32zM54.5 29.5
q-27.5 39.5 -27.5 102.5q0 34 8 74q15 75 52.5 143.5t101 113t151.5 44.5q53 0 89 -33q1 4 3 10t3 14h105l-82 -405q-4 -22 -4 -29q0 -22 16 -22q18 0 46 36t42 73l21 -11q-27 -65 -69.5 -107.5t-94.5 -42.5q-29 0 -47 22t-18 59q0 15 3 31l20 96q-97 -208 -229 -208
q-62 0 -89.5 39.5zM280 90.5q42 50.5 75 117.5t41 107l24 120q-13 17 -31.5 27.5t-42.5 10.5q-75 0 -128 -77t-74 -179q-6 -28 -6 -61q0 -48 14.5 -82t49.5 -34q36 0 78 50.5z" />
    <glyph glyph-name="uni1EB7" unicode="&#x1eb7;" horiz-adv-x="550" 
d="M287 704q-1 -6 -1 -17q0 -40 21.5 -54t56.5 -14q37 0 66.5 17.5t44.5 67.5h63q-20 -63 -68.5 -95t-114.5 -32t-100.5 31.5t-30.5 95.5h63zM87.5 349.5q37.5 68.5 101 113t151.5 44.5q53 0 89 -33q1 4 3 10t3 14h105l-82 -405q-4 -22 -4 -29q0 -22 16 -22q18 0 46 36
t42 73l21 -11q-27 -65 -69.5 -107.5t-94.5 -42.5q-29 0 -47 22t-18 59q0 15 3 31l20 96q-97 -208 -229 -208q-62 0 -89.5 39.5t-27.5 102.5q0 34 8 74q15 75 52.5 143.5zM138 156q0 -48 14.5 -82t49.5 -34q36 0 78 50.5t75 117.5t41 107l24 120q-13 17 -31.5 27.5
t-42.5 10.5q-75 0 -128 -77t-74 -179q-6 -28 -6 -61zM167 -75.5q17 18.5 42 18.5q19 0 29.5 -10.5t10.5 -28.5q0 -26 -18 -45t-43 -19q-18 0 -28 10.5t-10 27.5q0 28 17 46.5z" />
    <glyph glyph-name="uni1EB1" unicode="&#x1eb1;" horiz-adv-x="550" 
d="M327 757q-20 13 -30 27.5t-10 28.5t9.5 23.5t24.5 9.5q14 0 29.5 -10t29.5 -30l54 -76l-22 -24zM255.5 609q-34.5 32 -30.5 95h63q-1 -6 -1 -17q0 -40 21.5 -54t56.5 -14q37 0 66.5 17.5t44.5 67.5h63q-21 -64 -69 -95.5t-114 -31.5t-100.5 32zM54.5 29.5
q-27.5 39.5 -27.5 102.5q0 34 8 74q15 75 52.5 143.5t101 113t151.5 44.5q53 0 89 -33q1 4 3 10t3 14h105l-82 -405q-4 -22 -4 -29q0 -22 16 -22q18 0 46 36t42 73l21 -11q-27 -65 -69.5 -107.5t-94.5 -42.5q-29 0 -47 22t-18 59q0 15 3 31l20 96q-97 -208 -229 -208
q-62 0 -89.5 39.5zM280 90.5q42 50.5 75 117.5t41 107l24 120q-13 17 -31.5 27.5t-42.5 10.5q-75 0 -128 -77t-74 -179q-6 -28 -6 -61q0 -48 14.5 -82t49.5 -34q36 0 78 50.5z" />
    <glyph glyph-name="uni1EB3" unicode="&#x1eb3;" horiz-adv-x="550" 
d="M367 780h24q23 0 39 11t20 32q1 3 1 8q0 13 -11 21t-32 8q-26 0 -52 -13v30q34 14 70 14q33 0 54.5 -13.5t21.5 -39.5q0 -4 -2 -16q-11 -59 -86 -66l-19 -55h-40zM254.5 609q-34.5 32 -30.5 95h63q-1 -6 -1 -17q0 -40 21.5 -54t56.5 -14q37 0 66.5 17.5t44.5 67.5h63
q-21 -64 -69 -95.5t-114 -31.5t-100.5 32zM54.5 29.5q-27.5 39.5 -27.5 102.5q0 34 8 74q15 75 52.5 143.5t101 113t151.5 44.5q53 0 89 -33q1 4 3 10t3 14h105l-82 -405q-4 -22 -4 -29q0 -22 16 -22q18 0 46 36t42 73l21 -11q-27 -65 -69.5 -107.5t-94.5 -42.5
q-29 0 -47 22t-18 59q0 15 3 31l20 96q-97 -208 -229 -208q-62 0 -89.5 39.5zM280 90.5q42 50.5 75 117.5t41 107l24 120q-13 17 -31.5 27.5t-42.5 10.5q-75 0 -128 -77t-74 -179q-6 -28 -6 -61q0 -48 14.5 -82t49.5 -34q36 0 78 50.5z" />
    <glyph glyph-name="uni1EB5" unicode="&#x1eb5;" horiz-adv-x="550" 
d="M275.5 849.5q31.5 26.5 73.5 26.5q22 0 37 -7.5t36 -23.5q15 -12 25 -17.5t21 -5.5q23 0 44.5 13.5t34.5 44.5h37q-16 -51 -49 -80t-78 -29q-19 0 -34.5 8t-35.5 23q-20 13 -30 18.5t-21 5.5q-22 0 -42 -15.5t-30 -40.5h-38q18 53 49.5 79.5zM254.5 609
q-34.5 32 -30.5 95h63q-1 -6 -1 -17q0 -40 21.5 -54t56.5 -14q37 0 66.5 17.5t44.5 67.5h63q-21 -64 -69 -95.5t-114 -31.5t-100.5 32zM54.5 29.5q-27.5 39.5 -27.5 102.5q0 34 8 74q15 75 52.5 143.5t101 113t151.5 44.5q53 0 89 -33q1 4 3 10t3 14h105l-82 -405
q-4 -22 -4 -29q0 -22 16 -22q18 0 46 36t42 73l21 -11q-27 -65 -69.5 -107.5t-94.5 -42.5q-29 0 -47 22t-18 59q0 15 3 31l20 96q-97 -208 -229 -208q-62 0 -89.5 39.5zM280 90.5q42 50.5 75 117.5t41 107l24 120q-13 17 -31.5 27.5t-42.5 10.5q-75 0 -128 -77t-74 -179
q-6 -28 -6 -61q0 -48 14.5 -82t49.5 -34q36 0 78 50.5z" />
    <glyph glyph-name="uni01CE" unicode="&#x1ce;" horiz-adv-x="550" 
d="M271.5 652.5q-33.5 39.5 -60.5 61.5l52 36q24 -22 49.5 -55t38.5 -60h4q24 26 63.5 59.5t72.5 55.5l37 -36q-37 -23 -86 -62.5t-73 -67.5h-50q-14 29 -47.5 68.5zM54.5 29.5q-27.5 39.5 -27.5 102.5q0 34 8 74q15 75 52.5 143.5t101 113t151.5 44.5q53 0 89 -33q1 4 3 10
t3 14h105l-82 -405q-4 -22 -4 -29q0 -22 16 -22q18 0 46 36t42 73l21 -11q-27 -65 -69.5 -107.5t-94.5 -42.5q-29 0 -47 22t-18 59q0 15 3 31l20 96q-97 -208 -229 -208q-62 0 -89.5 39.5zM280 90.5q42 50.5 75 117.5t41 107l24 120q-13 17 -31.5 27.5t-42.5 10.5
q-75 0 -128 -77t-74 -179q-6 -28 -6 -61q0 -48 14.5 -82t49.5 -34q36 0 78 50.5z" />
    <glyph glyph-name="acircumflex" unicode="&#xe2;" horiz-adv-x="550" 
d="M190 616q36 22 85.5 61.5t73.5 67.5h51q14 -29 47 -68.5t60 -60.5l-51 -37q-25 23 -51 56.5t-38 59.5h-5q-22 -25 -61 -58.5t-74 -57.5zM54.5 29.5q-27.5 39.5 -27.5 102.5q0 34 8 74q15 75 52.5 143.5t101 113t151.5 44.5q53 0 89 -33q1 4 3 10t3 14h105l-82 -405
q-4 -22 -4 -29q0 -22 16 -22q18 0 46 36t42 73l21 -11q-27 -65 -69.5 -107.5t-94.5 -42.5q-29 0 -47 22t-18 59q0 15 3 31l20 96q-97 -208 -229 -208q-62 0 -89.5 39.5zM280 90.5q42 50.5 75 117.5t41 107l24 120q-13 17 -31.5 27.5t-42.5 10.5q-75 0 -128 -77t-74 -179
q-6 -28 -6 -61q0 -48 14.5 -82t49.5 -34q36 0 78 50.5z" />
    <glyph glyph-name="uni1EA5" unicode="&#x1ea5;" horiz-adv-x="550" 
d="M485 730l83 76q44 40 75 40q11 0 17.5 -5.5t6.5 -14.5q0 -15 -17 -34t-50 -35l-104 -51zM198 616q36 21 86 61t74 68h50q14 -28 47 -68t59 -61l-50 -37q-24 23 -50 56t-40 60h-3q-23 -26 -62 -59t-74 -57zM54.5 29.5q-27.5 39.5 -27.5 102.5q0 34 8 74q15 75 52.5 143.5
t101 113t151.5 44.5q53 0 89 -33q1 4 3 10t3 14h105l-82 -405q-4 -22 -4 -29q0 -22 16 -22q18 0 46 36t42 73l21 -11q-27 -65 -69.5 -107.5t-94.5 -42.5q-29 0 -47 22t-18 59q0 15 3 31l20 96q-97 -208 -229 -208q-62 0 -89.5 39.5zM280 90.5q42 50.5 75 117.5t41 107
l24 120q-13 17 -31.5 27.5t-42.5 10.5q-75 0 -128 -77t-74 -179q-6 -28 -6 -61q0 -48 14.5 -82t49.5 -34q36 0 78 50.5z" />
    <glyph glyph-name="uni1EAD" unicode="&#x1ead;" horiz-adv-x="550" 
d="M282.5 677.5q49.5 39.5 73.5 67.5h51q13 -28 46.5 -68t60.5 -61l-51 -37q-25 23 -51 56.5t-39 59.5h-4q-22 -25 -61 -58t-75 -58l-36 37q36 22 85.5 61.5zM87.5 349.5q37.5 68.5 101 113t151.5 44.5q53 0 89 -33q1 4 3 10t3 14h105l-82 -405q-4 -22 -4 -29q0 -22 16 -22
q18 0 46 36t42 73l21 -11q-27 -65 -69.5 -107.5t-94.5 -42.5q-29 0 -47 22t-18 59q0 15 3 31l20 96q-97 -208 -229 -208q-62 0 -89.5 39.5t-27.5 102.5q0 34 8 74q15 75 52.5 143.5zM138 156q0 -48 14.5 -82t49.5 -34q36 0 78 50.5t75 117.5t41 107l24 120
q-13 17 -31.5 27.5t-42.5 10.5q-75 0 -128 -77t-74 -179q-6 -28 -6 -61zM181.5 -71.5q16.5 14.5 37.5 14.5q19 0 29.5 -10.5t10.5 -27.5q0 -4 -2 -14q-4 -22 -20.5 -36.5t-38.5 -14.5q-18 0 -28.5 11t-10.5 29q0 7 1 11q5 23 21.5 37.5z" />
    <glyph glyph-name="uni1EA7" unicode="&#x1ea7;" horiz-adv-x="550" 
d="M175 757q-21 14 -31 28.5t-10 28.5q0 13 10 22.5t24 9.5q31 0 60 -40l53 -76l-22 -24zM198 616q36 21 86 61t74 68h50q14 -28 47 -68t59 -61l-50 -37q-24 23 -50 56t-40 60h-3q-23 -26 -62 -59t-74 -57zM54.5 29.5q-27.5 39.5 -27.5 102.5q0 34 8 74q15 75 52.5 143.5
t101 113t151.5 44.5q53 0 89 -33q1 4 3 10t3 14h105l-82 -405q-4 -22 -4 -29q0 -22 16 -22q18 0 46 36t42 73l21 -11q-27 -65 -69.5 -107.5t-94.5 -42.5q-29 0 -47 22t-18 59q0 15 3 31l20 96q-97 -208 -229 -208q-62 0 -89.5 39.5zM280 90.5q42 50.5 75 117.5t41 107
l24 120q-13 17 -31.5 27.5t-42.5 10.5q-75 0 -128 -77t-74 -179q-6 -28 -6 -61q0 -48 14.5 -82t49.5 -34q36 0 78 50.5z" />
    <glyph glyph-name="uni1EA9" unicode="&#x1ea9;" horiz-adv-x="550" 
d="M489 780h23q23 0 39 11t20 32q1 3 1 8q0 13 -11 21t-32 8q-26 0 -51 -13v30q32 14 69 14q33 0 55 -13.5t22 -40.5q0 -5 -2 -15q-12 -59 -87 -66l-19 -55h-39zM198 616q36 21 86 61t74 68h50q14 -28 47 -68t59 -61l-50 -37q-24 23 -50 56t-40 60h-3q-23 -26 -62 -59
t-74 -57zM54.5 29.5q-27.5 39.5 -27.5 102.5q0 34 8 74q15 75 52.5 143.5t101 113t151.5 44.5q53 0 89 -33q1 4 3 10t3 14h105l-82 -405q-4 -22 -4 -29q0 -22 16 -22q18 0 46 36t42 73l21 -11q-27 -65 -69.5 -107.5t-94.5 -42.5q-29 0 -47 22t-18 59q0 15 3 31l20 96
q-97 -208 -229 -208q-62 0 -89.5 39.5zM280 90.5q42 50.5 75 117.5t41 107l24 120q-13 17 -31.5 27.5t-42.5 10.5q-75 0 -128 -77t-74 -179q-6 -28 -6 -61q0 -48 14.5 -82t49.5 -34q36 0 78 50.5z" />
    <glyph glyph-name="uni1EAB" unicode="&#x1eab;" horiz-adv-x="550" 
d="M268.5 849.5q31.5 26.5 74.5 26.5q22 0 39 -8t41 -23q17 -12 29 -17.5t23 -5.5q22 0 42.5 13.5t33.5 44.5h37q-17 -51 -48.5 -80t-75.5 -29q-18 0 -35.5 8t-41.5 23q-23 13 -34.5 18.5t-23.5 5.5q-22 0 -42 -15.5t-30 -40.5h-38q18 53 49.5 79.5zM198 616q36 21 86 61
t74 68h50q14 -28 47 -68t59 -61l-50 -37q-24 23 -50 56t-40 60h-3q-23 -26 -62 -59t-74 -57zM54.5 29.5q-27.5 39.5 -27.5 102.5q0 34 8 74q15 75 52.5 143.5t101 113t151.5 44.5q53 0 89 -33q1 4 3 10t3 14h105l-82 -405q-4 -22 -4 -29q0 -22 16 -22q18 0 46 36t42 73
l21 -11q-27 -65 -69.5 -107.5t-94.5 -42.5q-29 0 -47 22t-18 59q0 15 3 31l20 96q-97 -208 -229 -208q-62 0 -89.5 39.5zM280 90.5q42 50.5 75 117.5t41 107l24 120q-13 17 -31.5 27.5t-42.5 10.5q-75 0 -128 -77t-74 -179q-6 -28 -6 -61q0 -48 14.5 -82t49.5 -34
q36 0 78 50.5z" />
    <glyph glyph-name="adieresis" unicode="&#xe4;" horiz-adv-x="550" 
d="M202 594q-10 11 -10 28q0 8 1 12q5 23 21 37.5t37 14.5q18 0 29 -10.5t11 -27.5q0 -27 -18 -46t-44 -19q-17 0 -27 11zM419 593.5q-10 10.5 -10 27.5q0 9 1 13q5 23 21 37.5t37 14.5q18 0 29 -10.5t11 -27.5q0 -27 -18 -46t-43 -19q-18 0 -28 10.5zM54.5 29.5
q-27.5 39.5 -27.5 102.5q0 34 8 74q15 75 52.5 143.5t101 113t151.5 44.5q53 0 89 -33q1 4 3 10t3 14h105l-82 -405q-4 -22 -4 -29q0 -22 16 -22q18 0 46 36t42 73l21 -11q-27 -65 -69.5 -107.5t-94.5 -42.5q-29 0 -47 22t-18 59q0 15 3 31l20 96q-97 -208 -229 -208
q-62 0 -89.5 39.5zM280 90.5q42 50.5 75 117.5t41 107l24 120q-13 17 -31.5 27.5t-42.5 10.5q-75 0 -128 -77t-74 -179q-6 -28 -6 -61q0 -48 14.5 -82t49.5 -34q36 0 78 50.5z" />
    <glyph glyph-name="uni1EA1" unicode="&#x1ea1;" horiz-adv-x="550" 
d="M87.5 349.5q37.5 68.5 101 113t151.5 44.5q53 0 89 -33q1 4 3 10t3 14h105l-82 -405q-4 -22 -4 -29q0 -22 16 -22q18 0 46 36t42 73l21 -11q-27 -65 -69.5 -107.5t-94.5 -42.5q-29 0 -47 22t-18 59q0 15 3 31l20 96q-97 -208 -229 -208q-62 0 -89.5 39.5t-27.5 102.5
q0 34 8 74q15 75 52.5 143.5zM138 156q0 -48 14.5 -82t49.5 -34q36 0 78 50.5t75 117.5t41 107l24 120q-13 17 -31.5 27.5t-42.5 10.5q-75 0 -128 -77t-74 -179q-6 -28 -6 -61zM177.5 -71.5q16.5 14.5 37.5 14.5q19 0 29.5 -10.5t10.5 -27.5q0 -4 -2 -14q-4 -22 -20.5 -36.5
t-38.5 -14.5q-18 0 -28.5 11t-10.5 29q0 7 1 11q5 23 21.5 37.5z" />
    <glyph glyph-name="agrave" unicode="&#xe0;" horiz-adv-x="550" 
d="M295 670q-33 24 -28 49q3 13 14.5 22.5t28.5 9.5q23 0 43 -26l90 -114l-23 -27zM54.5 29.5q-27.5 39.5 -27.5 102.5q0 34 8 74q15 75 52.5 143.5t101 113t151.5 44.5q53 0 89 -33q1 4 3 10t3 14h105l-82 -405q-4 -22 -4 -29q0 -22 16 -22q18 0 46 36t42 73l21 -11
q-27 -65 -69.5 -107.5t-94.5 -42.5q-29 0 -47 22t-18 59q0 15 3 31l20 96q-97 -208 -229 -208q-62 0 -89.5 39.5zM280 90.5q42 50.5 75 117.5t41 107l24 120q-13 17 -31.5 27.5t-42.5 10.5q-75 0 -128 -77t-74 -179q-6 -28 -6 -61q0 -48 14.5 -82t49.5 -34q36 0 78 50.5z
" />
    <glyph glyph-name="uni1EA3" unicode="&#x1ea3;" horiz-adv-x="550" 
d="M340 677h28q26 0 45 13.5t24 38.5q1 3 1 10q0 16 -12.5 26.5t-36.5 10.5q-29 0 -60 -16v33q38 17 81 17q37 0 61 -16t24 -48q0 -12 -2 -19q-12 -71 -99 -79l-23 -66h-46zM54.5 29.5q-27.5 39.5 -27.5 102.5q0 34 8 74q15 75 52.5 143.5t101 113t151.5 44.5q53 0 89 -33
q1 4 3 10t3 14h105l-82 -405q-4 -22 -4 -29q0 -22 16 -22q18 0 46 36t42 73l21 -11q-27 -65 -69.5 -107.5t-94.5 -42.5q-29 0 -47 22t-18 59q0 15 3 31l20 96q-97 -208 -229 -208q-62 0 -89.5 39.5zM280 90.5q42 50.5 75 117.5t41 107l24 120q-13 17 -31.5 27.5t-42.5 10.5
q-75 0 -128 -77t-74 -179q-6 -28 -6 -61q0 -48 14.5 -82t49.5 -34q36 0 78 50.5z" />
    <glyph glyph-name="uni0251" unicode="&#x251;" horiz-adv-x="581" 
d="M26 162q0 39 11 96q17 82 65 138t112 83.5t132 27.5t125 -23t85 -65l-78 -378q38 -8 63 -17l-1 -9l-171 -19q2 33 8 73q-29 -38 -79.5 -58.5t-95.5 -20.5q-176 0 -176 172zM343 72.5q44 42.5 55 101.5l48 233q-33 60 -106 60q-76 0 -126 -54.5t-71 -156.5
q-11 -53 -11 -95q0 -131 105 -131q62 0 106 42.5z" />
    <glyph glyph-name="amacron" unicode="&#x101;" horiz-adv-x="550" 
d="M180 624h336l-7 -40h-337zM54.5 29.5q-27.5 39.5 -27.5 102.5q0 34 8 74q15 75 52.5 143.5t101 113t151.5 44.5q53 0 89 -33q1 4 3 10t3 14h105l-82 -405q-4 -22 -4 -29q0 -22 16 -22q18 0 46 36t42 73l21 -11q-27 -65 -69.5 -107.5t-94.5 -42.5q-29 0 -47 22t-18 59
q0 15 3 31l20 96q-97 -208 -229 -208q-62 0 -89.5 39.5zM280 90.5q42 50.5 75 117.5t41 107l24 120q-13 17 -31.5 27.5t-42.5 10.5q-75 0 -128 -77t-74 -179q-6 -28 -6 -61q0 -48 14.5 -82t49.5 -34q36 0 78 50.5z" />
    <glyph glyph-name="aogonek" unicode="&#x105;" horiz-adv-x="550" 
d="M393.5 -51q-15.5 -23 -15.5 -44q0 -19 14 -29.5t36 -10.5q27 0 59 16l-10 -48q-40 -20 -93 -20q-44 0 -68 18t-24 48q0 34 25 68t65 52q-15 10 -23.5 29t-8.5 44q0 14 3 30l20 96q-97 -208 -229 -208q-62 0 -89.5 39.5t-27.5 102.5q0 34 8 74q15 75 52.5 143.5t101 113
t151.5 44.5q53 0 89 -33q1 4 3 10t3 14h105l-82 -405q-4 -22 -4 -29q0 -22 16 -22q18 0 46 36t42 73l21 -11q-24 -60 -62.5 -101t-84.5 -48q-23 -19 -38.5 -42zM280 90.5q42 50.5 75 117.5t41 107l24 120q-13 17 -31.5 27.5t-42.5 10.5q-75 0 -128 -77t-74 -179
q-6 -28 -6 -61q0 -48 14.5 -82t49.5 -34q36 0 78 50.5z" />
    <glyph glyph-name="aring" unicode="&#xe5;" horiz-adv-x="550" 
d="M287 591.5q-21 18.5 -21 50.5q0 50 34 83t82 33q36 0 56.5 -19.5t20.5 -51.5q0 -14 -2 -22q-9 -41 -40.5 -66.5t-72.5 -25.5q-36 0 -57 18.5zM399 628q20 19 20 49q0 20 -12 32t-33 12q-27 0 -47.5 -19.5t-20.5 -49.5q0 -20 12.5 -31.5t32.5 -11.5q28 0 48 19zM54.5 29.5
q-27.5 39.5 -27.5 102.5q0 34 8 74q15 75 52.5 143.5t101 113t151.5 44.5q53 0 89 -33q1 4 3 10t3 14h105l-82 -405q-4 -22 -4 -29q0 -22 16 -22q18 0 46 36t42 73l21 -11q-27 -65 -69.5 -107.5t-94.5 -42.5q-29 0 -47 22t-18 59q0 15 3 31l20 96q-97 -208 -229 -208
q-62 0 -89.5 39.5zM280 90.5q42 50.5 75 117.5t41 107l24 120q-13 17 -31.5 27.5t-42.5 10.5q-75 0 -128 -77t-74 -179q-6 -28 -6 -61q0 -48 14.5 -82t49.5 -34q36 0 78 50.5z" />
    <glyph glyph-name="aringacute" unicode="&#x1fb;" horiz-adv-x="550" 
d="M319 799l135 113q31 27 55 27q15 0 22.5 -7.5t7.5 -18.5q0 -16 -11.5 -28.5t-35.5 -26.5l-160 -86zM284 581.5q-21 18.5 -21 50.5q0 49 34.5 82.5t81.5 33.5q36 0 57 -19t21 -51q0 -50 -34 -82.5t-82 -32.5q-36 0 -57 18.5zM396 618q20 19 20 50q0 20 -12 31.5t-32 11.5
q-28 0 -48.5 -19t-20.5 -49q0 -20 12.5 -32t32.5 -12q28 0 48 19zM54.5 29.5q-27.5 39.5 -27.5 102.5q0 34 8 74q15 75 52.5 143.5t101 113t151.5 44.5q53 0 89 -33q1 4 3 10t3 14h105l-82 -405q-4 -22 -4 -29q0 -22 16 -22q18 0 46 36t42 73l21 -11q-27 -65 -69.5 -107.5
t-94.5 -42.5q-29 0 -47 22t-18 59q0 15 3 31l20 96q-97 -208 -229 -208q-62 0 -89.5 39.5zM280 90.5q42 50.5 75 117.5t41 107l24 120q-13 17 -31.5 27.5t-42.5 10.5q-75 0 -128 -77t-74 -179q-6 -28 -6 -61q0 -48 14.5 -82t49.5 -34q36 0 78 50.5z" />
    <glyph glyph-name="atilde" unicode="&#xe3;" horiz-adv-x="550" 
d="M292 690q22 0 40 -8t40 -23q19 -12 30.5 -17.5t22.5 -5.5q23 0 43 13.5t33 44.5h36q-16 -52 -47 -80.5t-76 -28.5q-18 0 -35.5 8t-41.5 23q-23 13 -34.5 18.5t-23.5 5.5q-21 0 -41.5 -15.5t-30.5 -40.5h-38q35 106 123 106zM54.5 29.5q-27.5 39.5 -27.5 102.5q0 34 8 74
q15 75 52.5 143.5t101 113t151.5 44.5q53 0 89 -33q1 4 3 10t3 14h105l-82 -405q-4 -22 -4 -29q0 -22 16 -22q18 0 46 36t42 73l21 -11q-27 -65 -69.5 -107.5t-94.5 -42.5q-29 0 -47 22t-18 59q0 15 3 31l20 96q-97 -208 -229 -208q-62 0 -89.5 39.5zM280 90.5
q42 50.5 75 117.5t41 107l24 120q-13 17 -31.5 27.5t-42.5 10.5q-75 0 -128 -77t-74 -179q-6 -28 -6 -61q0 -48 14.5 -82t49.5 -34q36 0 78 50.5z" />
    <glyph glyph-name="ae" unicode="&#xe6;" horiz-adv-x="849" 
d="M49 18q-39 28 -39 83q0 10 4 34q16 78 81.5 115t150.5 37h125q9 38 33 78l1 12q0 42 -34 66t-81 24q-38 0 -81 -12t-81 -30v35q44 22 97.5 34.5t106.5 12.5t89 -17t51 -47q38 31 86.5 47.5t103.5 16.5q198 0 198 -107q0 -13 -3 -30q-19 -98 -139 -139t-258 -44
q-2 -72 31.5 -115.5t104.5 -43.5q39 0 85 13.5t83 37.5l5 -29q-34 -25 -89 -42.5t-116 -17.5q-66 0 -113 22.5t-72 65.5q-48 -46 -109 -67t-117 -21q-65 0 -104 28zM676 271q89 37 89 119q0 34 -25 55.5t-78 21.5q-76 0 -125.5 -63.5t-68.5 -152.5l-4 -27q123 10 212 47z
M285.5 53.5q47.5 21.5 79.5 53.5q-12 33 -12 75q0 33 7 65h-97q-57 0 -95 -30.5t-48 -80.5q-3 -16 -3 -30q0 -38 22 -56t60 -18q39 0 86.5 21.5z" />
    <glyph glyph-name="aeacute" unicode="&#x1fd;" horiz-adv-x="849" 
d="M467 611l135 113q31 27 55 27q17 0 24 -10t4 -22q-4 -26 -46 -49l-159 -86zM49 18q-39 28 -39 83q0 10 4 34q16 78 81.5 115t150.5 37h125q9 38 33 78l1 12q0 42 -34 66t-81 24q-38 0 -81 -12t-81 -30v35q44 22 97.5 34.5t106.5 12.5t89 -17t51 -47q38 31 86.5 47.5
t103.5 16.5q198 0 198 -107q0 -13 -3 -30q-19 -98 -139 -139t-258 -44q-2 -72 31.5 -115.5t104.5 -43.5q39 0 85 13.5t83 37.5l5 -29q-34 -25 -89 -42.5t-116 -17.5q-66 0 -113 22.5t-72 65.5q-48 -46 -109 -67t-117 -21q-65 0 -104 28zM676 271q89 37 89 119q0 34 -25 55.5
t-78 21.5q-76 0 -125.5 -63.5t-68.5 -152.5l-4 -27q123 10 212 47zM285.5 53.5q47.5 21.5 79.5 53.5q-12 33 -12 75q0 33 7 65h-97q-57 0 -95 -30.5t-48 -80.5q-3 -16 -3 -30q0 -38 22 -56t60 -18q39 0 86.5 21.5z" />
    <glyph glyph-name="b" unicode="b" horiz-adv-x="590" 
d="M196.5 13q-36.5 23 -48.5 62q-20 -51 -37 -80h-75l137 666q-37 8 -63 18l2 9l177 18l-75 -367q39 76 102 122t128 46t104.5 -38.5t39.5 -116.5q0 -30 -8 -73q-29 -141 -106.5 -215t-184.5 -74q-56 0 -92.5 23zM402.5 94q45.5 64 67.5 168q12 59 12 100q0 105 -74 105
q-30 0 -71.5 -31t-80.5 -82.5t-62 -111.5l-14 -72q-4 -16 -4 -35q0 -46 28 -75.5t79 -29.5q74 0 119.5 64z" />
    <glyph glyph-name="c" unicode="c" horiz-adv-x="492" 
d="M88 41.5q-55 51.5 -55 141.5q0 33 7 65q25 122 110.5 190.5t204.5 68.5q75 0 119.5 -22t44.5 -66q0 -6 -2 -20q-2 -15 -15 -28t-29 -13q-18 0 -26 10.5t-5 24.5q1 6 5 15.5t5 14.5q4 16 -20.5 30t-60.5 14q-85 0 -143.5 -57.5t-80.5 -165.5q-6 -31 -6 -62q0 -68 33 -111
t104 -43q38 0 82.5 13.5t79.5 37.5l4 -29q-35 -26 -87.5 -43t-112.5 -17q-101 0 -156 51.5z" />
    <glyph glyph-name="cacute" unicode="&#x107;" horiz-adv-x="492" 
d="M304 611l136 113q27 27 54 27q17 0 24.5 -10t4.5 -22q-6 -27 -46 -49l-159 -86zM88 41.5q-55 51.5 -55 141.5q0 33 7 65q25 122 110.5 190.5t204.5 68.5q75 0 119.5 -22t44.5 -66q0 -6 -2 -20q-2 -15 -15 -28t-29 -13q-18 0 -26 10.5t-5 24.5q1 6 5 15.5t5 14.5
q4 16 -20.5 30t-60.5 14q-85 0 -143.5 -57.5t-80.5 -165.5q-6 -31 -6 -62q0 -68 33 -111t104 -43q38 0 82.5 13.5t79.5 37.5l4 -29q-35 -26 -87.5 -43t-112.5 -17q-101 0 -156 51.5z" />
    <glyph glyph-name="ccaron" unicode="&#x10d;" horiz-adv-x="492" 
d="M311 651.5q-33 39.5 -60 62.5l50 36q25 -22 51 -55.5t38 -59.5h5q22 26 61.5 58.5t74.5 56.5l36 -36q-37 -22 -86 -61.5t-73 -68.5h-51q-13 28 -46 67.5zM88 41.5q-55 51.5 -55 141.5q0 33 7 65q25 122 110.5 190.5t204.5 68.5q75 0 119.5 -22t44.5 -66q0 -6 -2 -20
q-2 -15 -15 -28t-29 -13q-18 0 -26 10.5t-5 24.5q1 6 5 15.5t5 14.5q4 16 -20.5 30t-60.5 14q-85 0 -143.5 -57.5t-80.5 -165.5q-6 -31 -6 -62q0 -68 33 -111t104 -43q38 0 82.5 13.5t79.5 37.5l4 -29q-35 -26 -87.5 -43t-112.5 -17q-101 0 -156 51.5z" />
    <glyph glyph-name="ccedilla" unicode="&#xe7;" horiz-adv-x="492" 
d="M474.5 485q44.5 -22 44.5 -66q0 -6 -2 -20q-2 -15 -15 -28t-29 -13q-18 0 -26 10.5t-5 24.5q1 6 5 15.5t5 14.5q4 16 -20.5 30t-60.5 14q-85 0 -143.5 -57.5t-80.5 -165.5q-6 -31 -6 -62q0 -68 33 -111t104 -43q38 0 82.5 13.5t79.5 37.5l4 -29q-29 -22 -72 -38t-93 -20
l-36 -55q45 0 68.5 -15.5t23.5 -43.5q0 -9 -1 -14q-9 -45 -48.5 -69.5t-93.5 -24.5q-23 0 -46.5 6t-38.5 17l24 32q25 -14 62 -14q33 0 55.5 12.5t28.5 40.5q4 20 -11.5 29.5t-38.5 9.5q-10 0 -24 -2l-16 30l41 59q-93 4 -144 55.5t-51 137.5q0 33 7 65q25 122 110.5 190.5
t204.5 68.5q75 0 119.5 -22z" />
    <glyph glyph-name="ccircumflex" unicode="&#x109;" horiz-adv-x="492" 
d="M227 616q35 21 84.5 61t74.5 68h51q13 -28 46 -68t60 -61l-51 -37q-25 24 -51 57t-38 59h-5q-21 -25 -60 -58t-75 -58zM88 41.5q-55 51.5 -55 141.5q0 33 7 65q25 122 110.5 190.5t204.5 68.5q75 0 119.5 -22t44.5 -66q0 -6 -2 -20q-2 -15 -15 -28t-29 -13
q-18 0 -26 10.5t-5 24.5q1 6 5 15.5t5 14.5q4 16 -20.5 30t-60.5 14q-85 0 -143.5 -57.5t-80.5 -165.5q-6 -31 -6 -62q0 -68 33 -111t104 -43q38 0 82.5 13.5t79.5 37.5l4 -29q-35 -26 -87.5 -43t-112.5 -17q-101 0 -156 51.5z" />
    <glyph glyph-name="cdotaccent" unicode="&#x10b;" horiz-adv-x="492" 
d="M347 593.5q-10 10.5 -10 27.5q0 9 1 13q5 23 21 37.5t37 14.5q18 0 29 -10.5t11 -27.5q0 -27 -18 -46t-43 -19q-18 0 -28 10.5zM88 41.5q-55 51.5 -55 141.5q0 33 7 65q25 122 110.5 190.5t204.5 68.5q75 0 119.5 -22t44.5 -66q0 -6 -2 -20q-2 -15 -15 -28t-29 -13
q-18 0 -26 10.5t-5 24.5q1 6 5 15.5t5 14.5q4 16 -20.5 30t-60.5 14q-85 0 -143.5 -57.5t-80.5 -165.5q-6 -31 -6 -62q0 -68 33 -111t104 -43q38 0 82.5 13.5t79.5 37.5l4 -29q-35 -26 -87.5 -43t-112.5 -17q-101 0 -156 51.5z" />
    <glyph glyph-name="d" unicode="d" horiz-adv-x="586" 
d="M58 31q-30 41 -30 108q0 35 8 75q15 74 54.5 141t105.5 109.5t155 42.5q37 0 65.5 -12.5t42.5 -29.5l40 196q-38 8 -61 18l2 9l175 18l-125 -613q-3 -15 -3 -28q0 -25 16 -25q18 0 45.5 36.5t42.5 74.5l21 -11q-27 -65 -69.5 -107.5t-94.5 -42.5q-29 0 -47 21.5t-18 57.5
q0 9 4 33l17 85q-51 -93 -116.5 -145t-135.5 -52q-64 0 -94 41zM294.5 88q47.5 48 85.5 112t46 102l25 123q-10 19 -34.5 32t-54.5 13q-54 0 -99 -37t-76 -95.5t-44 -121.5q-6 -28 -6 -57q0 -51 18.5 -85t54.5 -34q37 0 84.5 48z" />
    <glyph glyph-name="eth" unicode="&#xf0;" horiz-adv-x="581" 
d="M458 667q55 -63 84.5 -139.5t29.5 -155.5q0 -38 -8 -80q-30 -143 -112 -222.5t-212 -79.5q-96 0 -146.5 54t-50.5 140q0 26 7 64q13 63 51 121t101.5 95.5t146.5 37.5q39 0 75 -16t53 -47q-5 50 -25.5 101t-54.5 95l-182 -96l-7 50l157 83q-45 43 -93 68l36 38
q64 -30 114 -75q29 15 116 64l29 16l21 -48zM457 320q0 61 -29.5 101.5t-81.5 40.5q-42 0 -81 -27.5t-67.5 -76.5t-41.5 -110q-8 -40 -8 -73q0 -65 26.5 -105t76.5 -40q71 0 125.5 68.5t75.5 171.5q5 28 5 50z" />
    <glyph glyph-name="dcaron" unicode="&#x10f;" horiz-adv-x="710" 
d="M58 31q-30 41 -30 108q0 35 8 75q15 74 54.5 141t105.5 109.5t155 42.5q37 0 65.5 -12.5t42.5 -29.5l40 196q-38 8 -61 18l2 9l175 18l-125 -613q-3 -15 -3 -28q0 -25 16 -25q18 0 45.5 36.5t42.5 74.5l21 -11q-27 -65 -69.5 -107.5t-94.5 -42.5q-29 0 -47 21.5t-18 57.5
q0 9 4 33l17 85q-51 -93 -116.5 -145t-135.5 -52q-64 0 -94 41zM641 484q24 22 45.5 52t30.5 60q-51 0 -51 41q0 9 1 14q6 26 26.5 40.5t43.5 14.5q50 0 50 -48q0 -14 -2 -22q-9 -46 -41 -97.5t-73 -83.5zM294.5 88q47.5 48 85.5 112t46 102l25 123q-10 19 -34.5 32
t-54.5 13q-54 0 -99 -37t-76 -95.5t-44 -121.5q-6 -28 -6 -57q0 -51 18.5 -85t54.5 -34q37 0 84.5 48z" />
    <glyph glyph-name="dcroat" unicode="&#x111;" horiz-adv-x="586" 
d="M74.5 31q-45.5 41 -45.5 126q0 32 10 85q25 122 101 193.5t184 71.5q42 0 76 -13t59 -49l25 120h-153l9 42h152l15 71q-35 8 -63 17l2 10l176 18l-23 -116h46l-9 -42h-46l-107 -524q38 -8 63 -17l-2 -8l-154 -22q2 27 6 56l3 33q-35 -46 -85.5 -69.5t-109.5 -23.5
q-84 0 -129.5 41zM345 69.5q45 39.5 58 101.5l46 225q-42 71 -112 71q-75 0 -124 -67t-67 -159q-10 -46 -10 -87q0 -124 106 -124q58 0 103 39.5z" />
    <glyph glyph-name="uni1E0D" unicode="&#x1e0d;" horiz-adv-x="586" 
d="M90.5 355q39.5 67 105.5 109.5t155 42.5q37 0 65.5 -12.5t42.5 -29.5l40 196q-38 8 -61 18l2 9l175 18l-125 -613q-3 -15 -3 -28q0 -25 16 -25q18 0 45.5 36.5t42.5 74.5l21 -11q-27 -65 -69.5 -107.5t-94.5 -42.5q-29 0 -47 21.5t-18 57.5q0 9 4 33l17 85
q-51 -93 -116.5 -145t-135.5 -52q-64 0 -94 41t-30 108q0 35 8 75q15 74 54.5 141zM137 159q0 -51 18.5 -85t54.5 -34q37 0 84.5 48t85.5 112t46 102l25 123q-10 19 -34.5 32t-54.5 13q-54 0 -99 -37t-76 -95.5t-44 -121.5q-6 -28 -6 -57zM194 -75.5q17 18.5 42 18.5
q19 0 29.5 -10.5t10.5 -28.5q0 -26 -18 -45t-43 -19q-18 0 -28 10.5t-10 27.5q0 28 17 46.5z" />
    <glyph glyph-name="uni1E0F" unicode="&#x1e0f;" horiz-adv-x="586" 
d="M90.5 355q39.5 67 105.5 109.5t155 42.5q37 0 65.5 -12.5t42.5 -29.5l40 196q-38 8 -61 18l2 9l175 18l-125 -613q-3 -15 -3 -28q0 -25 16 -25q18 0 45.5 36.5t42.5 74.5l21 -11q-27 -65 -69.5 -107.5t-94.5 -42.5q-29 0 -47 21.5t-18 57.5q0 9 4 33l17 85
q-51 -93 -116.5 -145t-135.5 -52q-64 0 -94 41t-30 108q0 35 8 75q15 74 54.5 141zM137 159q0 -51 18.5 -85t54.5 -34q37 0 84.5 48t85.5 112t46 102l25 123q-10 19 -34.5 32t-54.5 13q-54 0 -99 -37t-76 -95.5t-44 -121.5q-6 -28 -6 -57zM69 -66h337l-8 -39h-337z" />
    <glyph glyph-name="e" unicode="e" horiz-adv-x="529" 
d="M541 399q0 -14 -3 -29q-20 -98 -138.5 -138.5t-258.5 -44.5q-2 -72 31 -115.5t104 -43.5q39 0 85.5 14t82.5 37l5 -29q-34 -25 -89 -42.5t-115 -17.5q-101 0 -156.5 52t-55.5 141q0 33 7 65q25 119 105.5 189t197.5 70q198 0 198 -108zM445 388q0 35 -24.5 57t-77.5 22
q-77 0 -126.5 -64t-67.5 -152l-5 -27q111 9 197.5 41.5t101.5 100.5q2 16 2 22z" />
    <glyph glyph-name="eacute" unicode="&#xe9;" horiz-adv-x="529" 
d="M289 584l-13 27l135 113q31 27 55 27q17 0 24 -10t4 -22q-4 -26 -46 -49zM541 399q0 -14 -3 -29q-20 -98 -138.5 -138.5t-258.5 -44.5q-2 -72 31 -115.5t104 -43.5q39 0 85.5 14t82.5 37l5 -29q-34 -25 -89 -42.5t-115 -17.5q-101 0 -156.5 52t-55.5 141q0 33 7 65
q25 119 105.5 189t197.5 70q198 0 198 -108zM445 388q0 35 -24.5 57t-77.5 22q-77 0 -126.5 -64t-67.5 -152l-5 -27q111 9 197.5 41.5t101.5 100.5q2 16 2 22z" />
    <glyph glyph-name="ebreve" unicode="&#x115;" horiz-adv-x="529" 
d="M242.5 608.5q-34.5 31.5 -30.5 95.5h63q-1 -6 -1 -17q0 -40 21.5 -54t55.5 -14q38 0 67.5 17.5t44.5 67.5h63q-21 -63 -69 -95t-114 -32t-100.5 31.5zM541 399q0 -14 -3 -29q-20 -98 -138.5 -138.5t-258.5 -44.5q-2 -72 31 -115.5t104 -43.5q39 0 85.5 14t82.5 37l5 -29
q-34 -25 -89 -42.5t-115 -17.5q-101 0 -156.5 52t-55.5 141q0 33 7 65q25 119 105.5 189t197.5 70q198 0 198 -108zM445 388q0 35 -24.5 57t-77.5 22q-77 0 -126.5 -64t-67.5 -152l-5 -27q111 9 197.5 41.5t101.5 100.5q2 16 2 22z" />
    <glyph glyph-name="ecaron" unicode="&#x11b;" horiz-adv-x="529" 
d="M288 651.5q-33 39.5 -60 62.5l50 36q25 -22 51 -55.5t38 -59.5h5q22 26 61.5 58.5t74.5 56.5l36 -36q-37 -22 -86 -61.5t-73 -68.5h-51q-13 28 -46 67.5zM541 399q0 -14 -3 -29q-20 -98 -138.5 -138.5t-258.5 -44.5q-2 -72 31 -115.5t104 -43.5q39 0 85.5 14t82.5 37
l5 -29q-34 -25 -89 -42.5t-115 -17.5q-101 0 -156.5 52t-55.5 141q0 33 7 65q25 119 105.5 189t197.5 70q198 0 198 -108zM445 388q0 35 -24.5 57t-77.5 22q-77 0 -126.5 -64t-67.5 -152l-5 -27q111 9 197.5 41.5t101.5 100.5q2 16 2 22z" />
    <glyph glyph-name="ecircumflex" unicode="&#xea;" horiz-adv-x="529" 
d="M312 637q-39 -33 -75 -58l-36 37q35 21 84.5 61t74.5 68h51q13 -28 46 -68t60 -61l-50 -37q-25 23 -51 56.5t-39 59.5h-5q-21 -25 -60 -58zM541 399q0 -14 -3 -29q-20 -98 -138.5 -138.5t-258.5 -44.5q-2 -72 31 -115.5t104 -43.5q39 0 85.5 14t82.5 37l5 -29
q-34 -25 -89 -42.5t-115 -17.5q-101 0 -156.5 52t-55.5 141q0 33 7 65q25 119 105.5 189t197.5 70q198 0 198 -108zM445 388q0 35 -24.5 57t-77.5 22q-77 0 -126.5 -64t-67.5 -152l-5 -27q111 9 197.5 41.5t101.5 100.5q2 16 2 22z" />
    <glyph glyph-name="uni1EBF" unicode="&#x1ebf;" horiz-adv-x="529" 
d="M664.5 840.5q6.5 -5.5 6.5 -14.5q0 -15 -17 -34t-50 -35l-104 -51l-11 24l83 76q44 40 75 40q11 0 17.5 -5.5zM313 636.5q-39 -33.5 -74 -57.5l-37 37q35 21 85 61t75 68h50q14 -28 46.5 -67.5t58.5 -61.5l-49 -37q-25 23 -51 56.5t-39 59.5h-4q-22 -25 -61 -58.5z
M541 399q0 -14 -3 -29q-20 -98 -138.5 -138.5t-258.5 -44.5q-2 -72 31 -115.5t104 -43.5q39 0 85.5 14t82.5 37l5 -29q-34 -25 -89 -42.5t-115 -17.5q-101 0 -156.5 52t-55.5 141q0 33 7 65q25 119 105.5 189t197.5 70q198 0 198 -108zM445 388q0 35 -24.5 57t-77.5 22
q-77 0 -126.5 -64t-67.5 -152l-5 -27q111 9 197.5 41.5t101.5 100.5q2 16 2 22z" />
    <glyph glyph-name="uni1EC7" unicode="&#x1ec7;" horiz-adv-x="529" 
d="M312 637q-39 -33 -75 -58l-36 37q35 21 84.5 61t74.5 68h51q13 -28 46 -68t60 -61l-50 -37q-25 23 -51 56.5t-39 59.5h-5q-21 -25 -60 -58zM541 399q0 -14 -3 -29q-20 -98 -138.5 -138.5t-258.5 -44.5q-2 -72 31 -115.5t104 -43.5q39 0 85.5 14t82.5 37l5 -29
q-34 -25 -89 -42.5t-115 -17.5q-101 0 -156.5 52t-55.5 141q0 33 7 65q25 119 105.5 189t197.5 70q198 0 198 -108zM445 388q0 35 -24.5 57t-77.5 22q-77 0 -126.5 -64t-67.5 -152l-5 -27q111 9 197.5 41.5t101.5 100.5q2 16 2 22zM252 -67.5q11 -10.5 11 -27.5
q0 -27 -18 -46t-43 -19q-18 0 -28.5 10.5t-10.5 28.5q0 8 1 12q5 23 21.5 37.5t37.5 14.5q18 0 29 -10.5z" />
    <glyph glyph-name="uni1EC1" unicode="&#x1ec1;" horiz-adv-x="529" 
d="M148 784.5q-10 14.5 -10 28.5t9.5 23.5t24.5 9.5q14 0 29.5 -10t29.5 -30l54 -76l-22 -24l-84 51q-21 13 -31 27.5zM202 616q35 21 85 61t75 68h50q14 -28 46.5 -67.5t58.5 -61.5l-49 -37q-25 23 -51 56.5t-39 59.5h-4q-22 -25 -61 -58.5t-74 -57.5zM541 399
q0 -14 -3 -29q-20 -98 -138.5 -138.5t-258.5 -44.5q-2 -72 31 -115.5t104 -43.5q39 0 85.5 14t82.5 37l5 -29q-34 -25 -89 -42.5t-115 -17.5q-101 0 -156.5 52t-55.5 141q0 33 7 65q25 119 105.5 189t197.5 70q198 0 198 -108zM445 388q0 35 -24.5 57t-77.5 22
q-77 0 -126.5 -64t-67.5 -152l-5 -27q111 9 197.5 41.5t101.5 100.5q2 16 2 22z" />
    <glyph glyph-name="uni1EC3" unicode="&#x1ec3;" horiz-adv-x="529" 
d="M606 877q22 -14 22 -41q0 -4 -2 -14q-12 -59 -87 -66l-20 -55h-38l11 79h24q23 0 39 11t20 32q1 3 1 8q0 13 -11 21t-32 8q-26 0 -51 -13v30q32 14 69 14q33 0 55 -14zM313 636.5q-39 -33.5 -74 -57.5l-37 37q35 21 85 61t75 68h50q14 -28 46.5 -67.5t58.5 -61.5l-49 -37
q-25 23 -51 56.5t-39 59.5h-4q-22 -25 -61 -58.5zM541 399q0 -14 -3 -29q-20 -98 -138.5 -138.5t-258.5 -44.5q-2 -72 31 -115.5t104 -43.5q39 0 85.5 14t82.5 37l5 -29q-34 -25 -89 -42.5t-115 -17.5q-101 0 -156.5 52t-55.5 141q0 33 7 65q25 119 105.5 189t197.5 70
q198 0 198 -108zM445 388q0 35 -24.5 57t-77.5 22q-77 0 -126.5 -64t-67.5 -152l-5 -27q111 9 197.5 41.5t101.5 100.5q2 16 2 22z" />
    <glyph glyph-name="uni1EC5" unicode="&#x1ec5;" horiz-adv-x="529" 
d="M591 880q-16 -51 -47.5 -80t-75.5 -29q-18 0 -35.5 8t-41.5 23q-23 13 -34.5 18.5t-23.5 5.5q-22 0 -42 -15.5t-30 -40.5h-38q18 53 49.5 79.5t74.5 26.5q22 0 39 -8t41 -23q17 -12 29 -17.5t23 -5.5q22 0 42.5 13.5t33.5 44.5h36zM313 636.5q-39 -33.5 -74 -57.5l-37 37
q35 21 85 61t75 68h50q14 -28 46.5 -67.5t58.5 -61.5l-49 -37q-25 23 -51 56.5t-39 59.5h-4q-22 -25 -61 -58.5zM541 399q0 -14 -3 -29q-20 -98 -138.5 -138.5t-258.5 -44.5q-2 -72 31 -115.5t104 -43.5q39 0 85.5 14t82.5 37l5 -29q-34 -25 -89 -42.5t-115 -17.5
q-101 0 -156.5 52t-55.5 141q0 33 7 65q25 119 105.5 189t197.5 70q198 0 198 -108zM445 388q0 35 -24.5 57t-77.5 22q-77 0 -126.5 -64t-67.5 -152l-5 -27q111 9 197.5 41.5t101.5 100.5q2 16 2 22z" />
    <glyph glyph-name="edieresis" unicode="&#xeb;" horiz-adv-x="529" 
d="M216 594q-10 11 -10 29q0 7 1 11q5 23 21 37.5t37 14.5q19 0 29.5 -10.5t10.5 -27.5q0 -4 -2 -14q-4 -22 -20.5 -36.5t-38.5 -14.5q-18 0 -28 11zM433 593.5q-10 10.5 -10 28.5q0 8 1 12q5 23 21 37.5t38 14.5q18 0 28.5 -10.5t10.5 -27.5q0 -4 -2 -14q-4 -22 -20 -36.5
t-38 -14.5q-19 0 -29 10.5zM541 399q0 -14 -3 -29q-20 -98 -138.5 -138.5t-258.5 -44.5q-2 -72 31 -115.5t104 -43.5q39 0 85.5 14t82.5 37l5 -29q-34 -25 -89 -42.5t-115 -17.5q-101 0 -156.5 52t-55.5 141q0 33 7 65q25 119 105.5 189t197.5 70q198 0 198 -108zM445 388
q0 35 -24.5 57t-77.5 22q-77 0 -126.5 -64t-67.5 -152l-5 -27q111 9 197.5 41.5t101.5 100.5q2 16 2 22z" />
    <glyph glyph-name="edotaccent" unicode="&#x117;" horiz-adv-x="529" 
d="M330 593.5q-10 10.5 -10 27.5q0 27 17 46t42 19q18 0 28.5 -10.5t10.5 -28.5q0 -26 -17.5 -45t-42.5 -19q-18 0 -28 10.5zM541 399q0 -14 -3 -29q-20 -98 -138.5 -138.5t-258.5 -44.5q-2 -72 31 -115.5t104 -43.5q39 0 85.5 14t82.5 37l5 -29q-34 -25 -89 -42.5
t-115 -17.5q-101 0 -156.5 52t-55.5 141q0 33 7 65q25 119 105.5 189t197.5 70q198 0 198 -108zM445 388q0 35 -24.5 57t-77.5 22q-77 0 -126.5 -64t-67.5 -152l-5 -27q111 9 197.5 41.5t101.5 100.5q2 16 2 22z" />
    <glyph glyph-name="uni1EB9" unicode="&#x1eb9;" horiz-adv-x="529" 
d="M541 399q0 -14 -3 -29q-20 -98 -138.5 -138.5t-258.5 -44.5q-2 -72 31 -115.5t104 -43.5q39 0 85.5 14t82.5 37l5 -29q-34 -25 -89 -42.5t-115 -17.5q-101 0 -156.5 52t-55.5 141q0 33 7 65q25 119 105.5 189t197.5 70q198 0 198 -108zM445 388q0 35 -24.5 57t-77.5 22
q-77 0 -126.5 -64t-67.5 -152l-5 -27q111 9 197.5 41.5t101.5 100.5q2 16 2 22zM249.5 -67.5q10.5 -10.5 10.5 -27.5q0 -27 -18 -46t-43 -19q-18 0 -28.5 11t-10.5 29q0 7 1 11q5 23 21.5 37.5t37.5 14.5q19 0 29.5 -10.5z" />
    <glyph glyph-name="egrave" unicode="&#xe8;" horiz-adv-x="529" 
d="M280 719q3 13 15 22.5t29 9.5q15 0 23.5 -7t19.5 -19l89 -114l-23 -27l-125 86q-33 24 -28 49zM541 399q0 -14 -3 -29q-20 -98 -138.5 -138.5t-258.5 -44.5q-2 -72 31 -115.5t104 -43.5q39 0 85.5 14t82.5 37l5 -29q-34 -25 -89 -42.5t-115 -17.5q-101 0 -156.5 52
t-55.5 141q0 33 7 65q25 119 105.5 189t197.5 70q198 0 198 -108zM445 388q0 35 -24.5 57t-77.5 22q-77 0 -126.5 -64t-67.5 -152l-5 -27q111 9 197.5 41.5t101.5 100.5q2 16 2 22z" />
    <glyph glyph-name="uni1EBB" unicode="&#x1ebb;" horiz-adv-x="529" 
d="M425 690.5q19 13.5 23 38.5q1 4 1 10q0 16 -12.5 26.5t-36.5 10.5q-28 0 -59 -16v33q16 7 37.5 12t42.5 5q37 0 61.5 -16.5t24.5 -48.5q0 -4 -2 -18q-14 -71 -100 -79l-23 -66h-45l14 95h28q27 0 46 13.5zM541 399q0 -14 -3 -29q-20 -98 -138.5 -138.5t-258.5 -44.5
q-2 -72 31 -115.5t104 -43.5q39 0 85.5 14t82.5 37l5 -29q-34 -25 -89 -42.5t-115 -17.5q-101 0 -156.5 52t-55.5 141q0 33 7 65q25 119 105.5 189t197.5 70q198 0 198 -108zM445 388q0 35 -24.5 57t-77.5 22q-77 0 -126.5 -64t-67.5 -152l-5 -27q111 9 197.5 41.5
t101.5 100.5q2 16 2 22z" />
    <glyph glyph-name="emacron" unicode="&#x113;" horiz-adv-x="529" 
d="M518 584h-337l8 40h337zM541 399q0 -14 -3 -29q-20 -98 -138.5 -138.5t-258.5 -44.5q-2 -72 31 -115.5t104 -43.5q39 0 85.5 14t82.5 37l5 -29q-34 -25 -89 -42.5t-115 -17.5q-101 0 -156.5 52t-55.5 141q0 33 7 65q25 119 105.5 189t197.5 70q198 0 198 -108zM445 388
q0 35 -24.5 57t-77.5 22q-77 0 -126.5 -64t-67.5 -152l-5 -27q111 9 197.5 41.5t101.5 100.5q2 16 2 22z" />
    <glyph glyph-name="eogonek" unicode="&#x119;" horiz-adv-x="529" 
d="M541 399q0 -14 -3 -29q-20 -98 -138.5 -138.5t-258.5 -44.5q-2 -72 31 -115.5t104 -43.5q39 0 85.5 14t82.5 37l5 -29q-13 -10 -31 -19q-23 -16 -40 -38t-22 -44q-1 -4 -1 -11q0 -19 14 -29.5t36 -10.5q27 0 59 16l-10 -48q-40 -20 -93 -20q-44 0 -68 18t-24 48
q0 43 38 83q-33 -5 -62 -5q-101 0 -156.5 52t-55.5 141q0 33 7 65q25 119 105.5 189t197.5 70q198 0 198 -108zM445 388q0 35 -24.5 57t-77.5 22q-77 0 -126.5 -64t-67.5 -152l-5 -27q111 9 197.5 41.5t101.5 100.5q2 16 2 22z" />
    <glyph glyph-name="uni1EBD" unicode="&#x1ebd;" horiz-adv-x="529" 
d="M247 624.5q-20 -15.5 -30 -40.5h-38q18 53 49 79.5t73 26.5q22 0 39 -7.5t43 -23.5q17 -12 29 -17.5t23 -5.5q23 0 43 13.5t33 44.5h35q-35 -109 -123 -109q-19 0 -36.5 8t-41.5 23q-21 13 -33 18.5t-23 5.5q-22 0 -42 -15.5zM541 399q0 -14 -3 -29
q-20 -98 -138.5 -138.5t-258.5 -44.5q-2 -72 31 -115.5t104 -43.5q39 0 85.5 14t82.5 37l5 -29q-34 -25 -89 -42.5t-115 -17.5q-101 0 -156.5 52t-55.5 141q0 33 7 65q25 119 105.5 189t197.5 70q198 0 198 -108zM445 388q0 35 -24.5 57t-77.5 22q-77 0 -126.5 -64
t-67.5 -152l-5 -27q111 9 197.5 41.5t101.5 100.5q2 16 2 22z" />
    <glyph glyph-name="f" unicode="f" horiz-adv-x="400" 
d="M488.5 698q33.5 -21 33.5 -57q0 -7 -2 -19q-3 -15 -15 -27t-28 -12q-33 0 -29 34q1 4 3.5 10l4.5 11q1 38 -52 38q-41 0 -69.5 -32.5t-38.5 -85.5l-12 -60h143l-7 -40h-145l-89 -436q-19 -93 -72.5 -140.5t-137.5 -47.5q-65 0 -95.5 20.5t-30.5 56.5q0 6 2 20
q3 14 14.5 26.5t27.5 12.5q31 0 29 -34q-1 -5 -4 -11t-4 -10q0 -38 51 -38q42 0 69.5 32.5t38.5 85.5l94 463h-89l7 40h90l7 32q40 189 207 189q65 0 98.5 -21z" />
    <glyph glyph-name="g" unicode="g" horiz-adv-x="519" 
d="M583 512.5q12 -11.5 12 -31.5q0 -9 -1 -14q-4 -16 -17 -28.5t-29 -12.5t-21 6.5t-8 20.5q-2 17 -12 17q-9 0 -20 -10t-13 -12q22 -30 22 -71q0 -19 -4 -35q-16 -79 -81.5 -122t-164.5 -43q-62 0 -103 16q-34 -23 -34 -49q0 -18 20.5 -26t59.5 -8h139q55 0 90.5 -24
t35.5 -69q0 -12 -3 -26q-15 -74 -86.5 -110t-189.5 -36q-92 0 -140 25t-48 75q0 29 17 58.5t53 48.5q-24 20 -24 55q0 28 19 55.5t56 49.5q-46 34 -46 94q0 19 4 36q16 78 81.5 121.5t165.5 43.5q87 0 136 -34q27 24 50 37.5t50 13.5q22 0 34 -11.5zM390 378q0 41 -21 65
t-64 24q-52 0 -87 -35t-46 -90q-4 -17 -4 -36q0 -41 21.5 -65t64.5 -24q52 0 86.5 35t45.5 90q4 17 4 36zM125 32q-9 0 -23 2q-40 -34 -40 -78q0 -38 36.5 -56t92.5 -18q68 0 119 22.5t61 68.5q1 5 1 13q0 27 -25.5 36.5t-78.5 9.5h-143z" />
    <glyph glyph-name="gbreve" unicode="&#x11f;" horiz-adv-x="519" 
d="M239.5 608.5q-34.5 31.5 -30.5 95.5h63q-1 -6 -1 -17q0 -40 21.5 -54t55.5 -14q38 0 67.5 17.5t44.5 67.5h63q-21 -63 -69 -95t-114 -32t-100.5 31.5zM583 512.5q12 -11.5 12 -31.5q0 -9 -1 -14q-4 -16 -17 -28.5t-29 -12.5t-21 6.5t-8 20.5q-2 17 -12 17q-9 0 -20 -10
t-13 -12q22 -30 22 -71q0 -19 -4 -35q-16 -79 -81.5 -122t-164.5 -43q-62 0 -103 16q-34 -23 -34 -49q0 -18 20.5 -26t59.5 -8h139q55 0 90.5 -24t35.5 -69q0 -12 -3 -26q-15 -74 -86.5 -110t-189.5 -36q-92 0 -140 25t-48 75q0 29 17 58.5t53 48.5q-24 20 -24 55
q0 28 19 55.5t56 49.5q-46 34 -46 94q0 19 4 36q16 78 81.5 121.5t165.5 43.5q87 0 136 -34q27 24 50 37.5t50 13.5q22 0 34 -11.5zM390 378q0 41 -21 65t-64 24q-52 0 -87 -35t-46 -90q-4 -17 -4 -36q0 -41 21.5 -65t64.5 -24q52 0 86.5 35t45.5 90q4 17 4 36zM125 32
q-9 0 -23 2q-40 -34 -40 -78q0 -38 36.5 -56t92.5 -18q68 0 119 22.5t61 68.5q1 5 1 13q0 27 -25.5 36.5t-78.5 9.5h-143z" />
    <glyph glyph-name="gcaron" unicode="&#x1e7;" horiz-adv-x="519" 
d="M268 651.5q-33 39.5 -61 62.5l51 36q25 -22 51 -55.5t38 -59.5h4q23 26 63 59t74 56l36 -36q-37 -23 -86.5 -62.5t-72.5 -67.5h-51q-13 28 -46 67.5zM583 512.5q12 -11.5 12 -31.5q0 -9 -1 -14q-4 -16 -17 -28.5t-29 -12.5t-21 6.5t-8 20.5q-2 17 -12 17q-9 0 -20 -10
t-13 -12q22 -30 22 -71q0 -19 -4 -35q-16 -79 -81.5 -122t-164.5 -43q-62 0 -103 16q-34 -23 -34 -49q0 -18 20.5 -26t59.5 -8h139q55 0 90.5 -24t35.5 -69q0 -12 -3 -26q-15 -74 -86.5 -110t-189.5 -36q-92 0 -140 25t-48 75q0 29 17 58.5t53 48.5q-24 20 -24 55
q0 28 19 55.5t56 49.5q-46 34 -46 94q0 19 4 36q16 78 81.5 121.5t165.5 43.5q87 0 136 -34q27 24 50 37.5t50 13.5q22 0 34 -11.5zM390 378q0 41 -21 65t-64 24q-52 0 -87 -35t-46 -90q-4 -17 -4 -36q0 -41 21.5 -65t64.5 -24q52 0 86.5 35t45.5 90q4 17 4 36zM125 32
q-9 0 -23 2q-40 -34 -40 -78q0 -38 36.5 -56t92.5 -18q68 0 119 22.5t61 68.5q1 5 1 13q0 27 -25.5 36.5t-78.5 9.5h-143z" />
    <glyph glyph-name="gcircumflex" unicode="&#x11d;" horiz-adv-x="519" 
d="M301 636.5q-39 -33.5 -74 -57.5l-37 37q36 22 85.5 61.5t73.5 67.5h51q14 -29 47 -68.5t60 -60.5l-51 -37q-25 23 -51 56.5t-38 59.5h-5q-22 -25 -61 -58.5zM583 512.5q12 -11.5 12 -31.5q0 -9 -1 -14q-4 -16 -17 -28.5t-29 -12.5t-21 6.5t-8 20.5q-2 17 -12 17
q-9 0 -20 -10t-13 -12q22 -30 22 -71q0 -19 -4 -35q-16 -79 -81.5 -122t-164.5 -43q-62 0 -103 16q-34 -23 -34 -49q0 -18 20.5 -26t59.5 -8h139q55 0 90.5 -24t35.5 -69q0 -12 -3 -26q-15 -74 -86.5 -110t-189.5 -36q-92 0 -140 25t-48 75q0 29 17 58.5t53 48.5
q-24 20 -24 55q0 28 19 55.5t56 49.5q-46 34 -46 94q0 19 4 36q16 78 81.5 121.5t165.5 43.5q87 0 136 -34q27 24 50 37.5t50 13.5q22 0 34 -11.5zM390 378q0 41 -21 65t-64 24q-52 0 -87 -35t-46 -90q-4 -17 -4 -36q0 -41 21.5 -65t64.5 -24q52 0 86.5 35t45.5 90
q4 17 4 36zM125 32q-9 0 -23 2q-40 -34 -40 -78q0 -38 36.5 -56t92.5 -18q68 0 119 22.5t61 68.5q1 5 1 13q0 27 -25.5 36.5t-78.5 9.5h-143z" />
    <glyph glyph-name="gcommaaccent" unicode="&#x123;" horiz-adv-x="519" 
d="M287 628q0 14 2 22q9 46 41 97.5t73 83.5l30 -29q-24 -21 -45 -51.5t-31 -60.5q52 0 52 -40q0 -32 -22 -51t-50 -19q-50 0 -50 48zM583 512.5q12 -11.5 12 -31.5q0 -9 -1 -14q-4 -16 -17 -28.5t-29 -12.5t-21 6.5t-8 20.5q-2 17 -12 17q-9 0 -20 -10t-13 -12
q22 -30 22 -71q0 -19 -4 -35q-16 -79 -81.5 -122t-164.5 -43q-62 0 -103 16q-34 -23 -34 -49q0 -18 20.5 -26t59.5 -8h139q55 0 90.5 -24t35.5 -69q0 -12 -3 -26q-15 -74 -86.5 -110t-189.5 -36q-92 0 -140 25t-48 75q0 29 17 58.5t53 48.5q-24 20 -24 55q0 28 19 55.5
t56 49.5q-46 34 -46 94q0 19 4 36q16 78 81.5 121.5t165.5 43.5q87 0 136 -34q27 24 50 37.5t50 13.5q22 0 34 -11.5zM390 378q0 41 -21 65t-64 24q-52 0 -87 -35t-46 -90q-4 -17 -4 -36q0 -41 21.5 -65t64.5 -24q52 0 86.5 35t45.5 90q4 17 4 36zM125 32q-9 0 -23 2
q-40 -34 -40 -78q0 -38 36.5 -56t92.5 -18q68 0 119 22.5t61 68.5q1 5 1 13q0 27 -25.5 36.5t-78.5 9.5h-143z" />
    <glyph glyph-name="gdotaccent" unicode="&#x121;" horiz-adv-x="519" 
d="M306 593.5q-10 10.5 -10 27.5q0 27 17 46t42 19q18 0 28.5 -10.5t10.5 -28.5q0 -26 -17.5 -45t-42.5 -19q-18 0 -28 10.5zM583 512.5q12 -11.5 12 -31.5q0 -9 -1 -14q-4 -16 -17 -28.5t-29 -12.5t-21 6.5t-8 20.5q-2 17 -12 17q-9 0 -20 -10t-13 -12q22 -30 22 -71
q0 -19 -4 -35q-16 -79 -81.5 -122t-164.5 -43q-62 0 -103 16q-34 -23 -34 -49q0 -18 20.5 -26t59.5 -8h139q55 0 90.5 -24t35.5 -69q0 -12 -3 -26q-15 -74 -86.5 -110t-189.5 -36q-92 0 -140 25t-48 75q0 29 17 58.5t53 48.5q-24 20 -24 55q0 28 19 55.5t56 49.5
q-46 34 -46 94q0 19 4 36q16 78 81.5 121.5t165.5 43.5q87 0 136 -34q27 24 50 37.5t50 13.5q22 0 34 -11.5zM390 378q0 41 -21 65t-64 24q-52 0 -87 -35t-46 -90q-4 -17 -4 -36q0 -41 21.5 -65t64.5 -24q52 0 86.5 35t45.5 90q4 17 4 36zM125 32q-9 0 -23 2
q-40 -34 -40 -78q0 -38 36.5 -56t92.5 -18q68 0 119 22.5t61 68.5q1 5 1 13q0 27 -25.5 36.5t-78.5 9.5h-143z" />
    <glyph glyph-name="uni1E21" unicode="&#x1e21;" horiz-adv-x="519" 
d="M504 584h-337l8 40h337zM583 512.5q12 -11.5 12 -31.5q0 -9 -1 -14q-4 -16 -17 -28.5t-29 -12.5t-21 6.5t-8 20.5q-2 17 -12 17q-9 0 -20 -10t-13 -12q22 -30 22 -71q0 -19 -4 -35q-16 -79 -81.5 -122t-164.5 -43q-62 0 -103 16q-34 -23 -34 -49q0 -18 20.5 -26t59.5 -8
h139q55 0 90.5 -24t35.5 -69q0 -12 -3 -26q-15 -74 -86.5 -110t-189.5 -36q-92 0 -140 25t-48 75q0 29 17 58.5t53 48.5q-24 20 -24 55q0 28 19 55.5t56 49.5q-46 34 -46 94q0 19 4 36q16 78 81.5 121.5t165.5 43.5q87 0 136 -34q27 24 50 37.5t50 13.5q22 0 34 -11.5z
M390 378q0 41 -21 65t-64 24q-52 0 -87 -35t-46 -90q-4 -17 -4 -36q0 -41 21.5 -65t64.5 -24q52 0 86.5 35t45.5 90q4 17 4 36zM125 32q-9 0 -23 2q-40 -34 -40 -78q0 -38 36.5 -56t92.5 -18q68 0 119 22.5t61 68.5q1 5 1 13q0 27 -25.5 36.5t-78.5 9.5h-143z" />
    <glyph glyph-name="h" unicode="h" horiz-adv-x="654" 
d="M653 140q-27 -65 -69.5 -107.5t-94.5 -42.5q-30 0 -46.5 26t-16.5 65q0 22 4 39l33 162q15 69 15 110q0 40 -15.5 57.5t-48.5 17.5q-36 0 -84 -43.5t-96 -118.5l-62 -305l-110 -10l138 671q-39 9 -63 18l2 9l177 18l-68 -332q40 58 92.5 95.5t110.5 37.5
q65 0 100.5 -28.5t35.5 -88.5q0 -23 -6 -52l-49 -241q-3 -15 -3 -29q0 -28 15 -28q18 0 45.5 36.5t42.5 74.5z" />
    <glyph glyph-name="hbar" unicode="&#x127;" horiz-adv-x="654" 
d="M653 140q-27 -65 -69.5 -107.5t-94.5 -42.5q-30 0 -46.5 26t-16.5 65q0 22 4 39l33 162q15 69 15 110q0 40 -15.5 57.5t-48.5 17.5q-36 0 -84 -43.5t-96 -118.5l-62 -305l-110 -10l118 573h-63l9 42h62l12 56q-39 9 -63 18l2 9l177 18l-21 -101h136l-9 -42h-135l-39 -189
q40 58 92.5 95.5t110.5 37.5q65 0 100.5 -28.5t35.5 -88.5q0 -23 -6 -52l-49 -241q-3 -15 -3 -29q0 -28 15 -28q18 0 45.5 36.5t42.5 74.5z" />
    <glyph glyph-name="uni1E2B" unicode="&#x1e2b;" horiz-adv-x="654" 
d="M653 140q-27 -65 -69.5 -107.5t-94.5 -42.5q-30 0 -46.5 26t-16.5 65q0 22 4 39l33 162q15 69 15 110q0 40 -15.5 57.5t-48.5 17.5q-36 0 -84 -43.5t-96 -118.5l-62 -305l-110 -10l138 671q-39 9 -63 18l2 9l177 18l-68 -332q40 58 92.5 95.5t110.5 37.5
q65 0 100.5 -28.5t35.5 -88.5q0 -23 -6 -52l-49 -241q-3 -15 -3 -29q0 -28 15 -28q18 0 45.5 36.5t42.5 74.5zM330.5 -118q29.5 18 44.5 68h64q-22 -64 -69.5 -95.5t-113.5 -31.5q-62 0 -97 28t-35 84l1 15h63q-1 -6 -1 -16q0 -41 22 -55.5t56 -14.5q36 0 65.5 18z" />
    <glyph glyph-name="hcircumflex" unicode="&#x125;" horiz-adv-x="654" 
d="M414 832.5q-39 -33.5 -74 -57.5l-37 37q36 21 86 61t74 68h51q13 -28 46 -68t60 -61l-51 -37q-25 24 -51 57t-38 59h-5q-22 -25 -61 -58.5zM653 140q-27 -65 -69.5 -107.5t-94.5 -42.5q-30 0 -46.5 26t-16.5 65q0 22 4 39l33 162q15 69 15 110q0 40 -15.5 57.5
t-48.5 17.5q-36 0 -84 -43.5t-96 -118.5l-62 -305l-110 -10l138 671q-39 9 -63 18l2 9l177 18l-68 -332q40 58 92.5 95.5t110.5 37.5q65 0 100.5 -28.5t35.5 -88.5q0 -23 -6 -52l-49 -241q-3 -15 -3 -29q0 -28 15 -28q18 0 45.5 36.5t42.5 74.5z" />
    <glyph glyph-name="uni1E25" unicode="&#x1e25;" horiz-adv-x="654" 
d="M653 140q-27 -65 -69.5 -107.5t-94.5 -42.5q-30 0 -46.5 26t-16.5 65q0 22 4 39l33 162q15 69 15 110q0 40 -15.5 57.5t-48.5 17.5q-36 0 -84 -43.5t-96 -118.5l-62 -305l-110 -10l138 671q-39 9 -63 18l2 9l177 18l-68 -332q40 58 92.5 95.5t110.5 37.5
q65 0 100.5 -28.5t35.5 -88.5q0 -23 -6 -52l-49 -241q-3 -15 -3 -29q0 -28 15 -28q18 0 45.5 36.5t42.5 74.5zM310.5 -67.5q10.5 -10.5 10.5 -28.5q0 -26 -18 -45t-43 -19q-18 0 -28 10.5t-10 27.5q0 28 17 46.5t42 18.5q19 0 29.5 -10.5z" />
    <glyph glyph-name="i" unicode="i" horiz-adv-x="307" 
d="M182.5 560.5q-13.5 12.5 -13.5 32.5q0 6 2 16q6 27 26 44.5t47 17.5q23 0 36.5 -13.5t13.5 -34.5q0 -9 -1 -14q-6 -27 -26.5 -44t-47.5 -17q-23 0 -36.5 12.5zM97.5 11.5q-18.5 21.5 -18.5 57.5q0 14 3 30l73 361q-39 9 -63 18l2 9l177 18l-83 -404q-4 -24 -4 -35
q0 -26 15 -26q19 0 45.5 35.5t42.5 75.5l20 -11q-26 -66 -68 -108t-93 -42q-30 0 -48.5 21.5z" />
    <glyph glyph-name="dotlessi" unicode="&#x131;" horiz-adv-x="326" 
d="M107 12q-19 22 -19 58q0 14 3 29l73 361q-37 8 -62 18l2 9l176 18l-82 -404q-4 -24 -4 -35q0 -26 14 -26q19 0 45.5 35.5t43.5 75.5l20 -11q-27 -66 -68.5 -108t-92.5 -42q-30 0 -49 22z" />
    <glyph glyph-name="iacute" unicode="&#xed;" horiz-adv-x="326" 
d="M148 611l135 113q31 27 55 27q17 0 24.5 -10t4.5 -22q-6 -27 -46 -49l-160 -86zM107 12q-19 22 -19 58q0 14 3 29l73 361q-37 8 -62 18l2 9l176 18l-82 -404q-4 -24 -4 -35q0 -26 14 -26q19 0 45.5 35.5t43.5 75.5l20 -11q-27 -66 -68.5 -108t-92.5 -42q-30 0 -49 22z
" />
    <glyph glyph-name="ibreve" unicode="&#x12d;" horiz-adv-x="326" 
d="M141 613.5q-35 31.5 -31 95.5h64q-1 -6 -1 -17q0 -40 21.5 -54t56.5 -14q37 0 66.5 17.5t44.5 67.5h63q-21 -63 -69 -95t-114 -32t-101 31.5zM107 12q-19 22 -19 58q0 14 3 29l73 361q-37 8 -62 18l2 9l176 18l-82 -404q-4 -24 -4 -35q0 -26 14 -26q19 0 45.5 35.5
t43.5 75.5l20 -11q-27 -66 -68.5 -108t-92.5 -42q-30 0 -49 22z" />
    <glyph glyph-name="uni01D0" unicode="&#x1d0;" horiz-adv-x="326" 
d="M172 651.5q-34 39.5 -61 62.5l52 36q24 -22 50 -55t39 -60h3q24 27 64 60t73 55l36 -36q-37 -23 -86 -62.5t-73 -67.5h-50q-13 28 -47 67.5zM107 12q-19 22 -19 58q0 14 3 29l73 361q-37 8 -62 18l2 9l176 18l-82 -404q-4 -24 -4 -35q0 -26 14 -26q19 0 45.5 35.5
t43.5 75.5l20 -11q-27 -66 -68.5 -108t-92.5 -42q-30 0 -49 22z" />
    <glyph glyph-name="icircumflex" unicode="&#xee;" horiz-adv-x="326" 
d="M91 616q36 21 86 61t74 68h50q14 -29 47 -68.5t60 -60.5l-51 -37q-25 23 -51 56.5t-38 59.5h-5q-22 -25 -61 -58.5t-74 -57.5zM107 12q-19 22 -19 58q0 14 3 29l73 361q-37 8 -62 18l2 9l176 18l-82 -404q-4 -24 -4 -35q0 -26 14 -26q19 0 45.5 35.5t43.5 75.5l20 -11
q-27 -66 -68.5 -108t-92.5 -42q-30 0 -49 22z" />
    <glyph glyph-name="idieresis" unicode="&#xef;" horiz-adv-x="326" 
d="M106 594q-10 11 -10 28q0 8 1 12q5 23 21 37.5t37 14.5q18 0 29 -10.5t11 -27.5q0 -27 -18 -46t-44 -19q-17 0 -27 11zM323 593.5q-10 10.5 -10 27.5q0 9 1 13q5 23 21 37.5t37 14.5q18 0 29 -10.5t11 -27.5q0 -27 -18 -46t-43 -19q-18 0 -28 10.5zM107 12q-19 22 -19 58
q0 14 3 29l73 361q-37 8 -62 18l2 9l176 18l-82 -404q-4 -24 -4 -35q0 -26 14 -26q19 0 45.5 35.5t43.5 75.5l20 -11q-27 -66 -68.5 -108t-92.5 -42q-30 0 -49 22z" />
    <glyph glyph-name="uni1ECB" unicode="&#x1ecb;" horiz-adv-x="307" 
d="M182.5 560.5q-13.5 12.5 -13.5 32.5q0 6 2 16q6 27 26 44.5t47 17.5q23 0 36.5 -13.5t13.5 -34.5q0 -9 -1 -14q-6 -27 -26.5 -44t-47.5 -17q-23 0 -36.5 12.5zM97.5 11.5q-18.5 21.5 -18.5 57.5q0 14 3 30l73 361q-39 9 -63 18l2 9l177 18l-83 -404q-4 -24 -4 -35
q0 -26 15 -26q19 0 45.5 35.5t42.5 75.5l20 -11q-26 -66 -68 -108t-93 -42q-30 0 -48.5 21.5zM53.5 -149.5q-10.5 10.5 -10.5 28.5q0 8 1 12q5 23 21.5 37.5t37.5 14.5q18 0 29 -10.5t11 -27.5q0 -27 -18 -46t-43 -19q-18 0 -28.5 10.5z" />
    <glyph glyph-name="igrave" unicode="&#xec;" horiz-adv-x="326" 
d="M182 670q-28 20 -28 41q0 14 11.5 27t32.5 13q15 0 23.5 -7t19.5 -19l89 -114l-23 -27zM107 12q-19 22 -19 58q0 14 3 29l73 361q-37 8 -62 18l2 9l176 18l-82 -404q-4 -24 -4 -35q0 -26 14 -26q19 0 45.5 35.5t43.5 75.5l20 -11q-27 -66 -68.5 -108t-92.5 -42
q-30 0 -49 22z" />
    <glyph glyph-name="uni1EC9" unicode="&#x1ec9;" horiz-adv-x="326" 
d="M225 677h27q27 0 46 13.5t24 38.5q1 3 1 9q0 17 -12.5 27.5t-36.5 10.5q-29 0 -60 -16v33q38 17 81 17q37 0 61 -16t24 -48q0 -12 -2 -19q-12 -71 -100 -79l-23 -66h-45zM107 12q-19 22 -19 58q0 14 3 29l73 361q-37 8 -62 18l2 9l176 18l-82 -404q-4 -24 -4 -35
q0 -26 14 -26q19 0 45.5 35.5t43.5 75.5l20 -11q-27 -66 -68.5 -108t-92.5 -42q-30 0 -49 22z" />
    <glyph glyph-name="ij" unicode="&#x133;" horiz-adv-x="621" 
d="M182.5 560.5q-13.5 12.5 -13.5 32.5q0 6 2 16q6 27 26 44.5t47 17.5q23 0 36.5 -13.5t13.5 -34.5q0 -9 -1 -14q-6 -27 -26.5 -44t-47.5 -17q-23 0 -36.5 12.5zM514.5 560.5q-13.5 12.5 -13.5 33.5q0 5 2 15q6 27 26 44.5t47 17.5q23 0 36.5 -13t13.5 -34q0 -5 -2 -15
q-6 -27 -26 -44t-47 -17q-23 0 -36.5 12.5zM97.5 11.5q-18.5 21.5 -18.5 57.5q0 14 3 30l73 361q-39 9 -63 18l2 9l177 18l-83 -404q-4 -24 -4 -35q0 -26 15 -26q19 0 45.5 35.5t42.5 75.5l20 -11q-26 -66 -68 -108t-93 -42q-30 0 -48.5 21.5zM197.5 -151.5
q-31.5 20.5 -31.5 56.5q0 6 2 20q3 14 14.5 26.5t27.5 12.5q32 0 30 -34q-1 -4 -4.5 -10.5t-4.5 -10.5q-1 -38 51 -38q42 0 70 32.5t39 85.5l96 471q-39 9 -63 18l2 9l177 18l-106 -516q-16 -78 -70.5 -119.5t-133.5 -41.5q-64 0 -95.5 20.5z" />
    <glyph glyph-name="imacron" unicode="&#x12b;" horiz-adv-x="326" 
d="M84 624h336l-7 -40h-337zM107 12q-19 22 -19 58q0 14 3 29l73 361q-37 8 -62 18l2 9l176 18l-82 -404q-4 -24 -4 -35q0 -26 14 -26q19 0 45.5 35.5t43.5 75.5l20 -11q-27 -66 -68.5 -108t-92.5 -42q-30 0 -49 22z" />
    <glyph glyph-name="iogonek" unicode="&#x12f;" horiz-adv-x="307" 
d="M182.5 560.5q-13.5 12.5 -13.5 32.5q0 6 2 16q6 27 26 44.5t47 17.5q23 0 36.5 -13.5t13.5 -34.5q0 -9 -1 -14q-6 -27 -26.5 -44t-47.5 -17q-23 0 -36.5 12.5zM143.5 -41q-20.5 -24 -26.5 -49q-1 -4 -1 -12q0 -18 13.5 -28.5t36.5 -10.5q27 0 59 16l-10 -48
q-40 -20 -93 -20q-44 0 -68 18t-24 48q0 35 25.5 69t66.5 52q-20 8 -31.5 27.5t-11.5 47.5q0 15 3 30l73 361q-39 9 -63 18l2 9l177 18l-83 -404q-4 -24 -4 -35q0 -26 15 -26q19 0 45.5 35.5t42.5 75.5l20 -11q-20 -51 -50 -88.5t-67 -52.5q-26 -16 -46.5 -40z" />
    <glyph glyph-name="itilde" unicode="&#x129;" horiz-adv-x="326" 
d="M194 690q22 0 40 -8t40 -23q19 -12 30.5 -17.5t22.5 -5.5q23 0 43 13.5t33 44.5h36q-16 -52 -47 -80.5t-76 -28.5q-18 0 -35.5 8t-41.5 23q-23 13 -34.5 18.5t-23.5 5.5q-21 0 -41.5 -15.5t-30.5 -40.5h-38q35 106 123 106zM107 12q-19 22 -19 58q0 14 3 29l73 361
q-37 8 -62 18l2 9l176 18l-82 -404q-4 -24 -4 -35q0 -26 14 -26q19 0 45.5 35.5t43.5 75.5l20 -11q-27 -66 -68.5 -108t-92.5 -42q-30 0 -49 22z" />
    <glyph glyph-name="j" unicode="j" horiz-adv-x="314" 
d="M207.5 560.5q-13.5 12.5 -13.5 32.5q0 6 2 16q6 27 26 44.5t47 17.5q23 0 36 -13t13 -35q0 -9 -1 -14q-6 -27 -26 -44t-47 -17q-23 0 -36.5 12.5zM-109.5 -151.5q-31.5 20.5 -31.5 56.5q0 6 2 20q3 14 14.5 26.5t27.5 12.5q32 0 30 -34q-1 -4 -4.5 -10.5t-4.5 -10.5
q-1 -38 51 -38q42 0 70 32.5t39 85.5l96 471q-40 8 -63 18l2 9l177 18l-106 -516q-16 -78 -70.5 -119.5t-133.5 -41.5q-64 0 -95.5 20.5z" />
    <glyph glyph-name="uni0237" unicode="&#x237;" horiz-adv-x="314" 
d="M-82 -104l15 36q23 -13 58 -13q38 0 63.5 24.5t33.5 68.5l92 448q-40 8 -63 18l2 9l177 18l-100 -489q-14 -70 -61.5 -105t-112.5 -35q-63 0 -104 20z" />
    <glyph glyph-name="jcircumflex" unicode="&#x135;" horiz-adv-x="314" 
d="M89 616q36 21 86 61t74 68h51q13 -28 46 -68t60 -61l-51 -37q-25 24 -51 57t-38 59h-5q-22 -25 -61 -58.5t-74 -57.5zM-82 -104l15 36q23 -13 58 -13q38 0 63.5 24.5t33.5 68.5l92 448q-40 8 -63 18l2 9l177 18l-100 -489q-14 -70 -61.5 -105t-112.5 -35q-63 0 -104 20z
" />
    <glyph glyph-name="k" unicode="k" horiz-adv-x="623" 
d="M615.5 499.5q12.5 -11.5 12.5 -31.5q0 -9 -1 -14q-3 -16 -16.5 -28.5t-29.5 -12.5q-15 0 -20.5 7t-7.5 20q-2 9 -4 13t-9 4q-9 0 -23 -13t-18 -16l-150 -128l107 -206q18 -34 50 -34q21 0 41 30t35 72l21 -13q-15 -56 -52.5 -107.5t-88.5 -51.5q-30 0 -50.5 21t-44.5 67
l-86 163l-72 -61l-37 -180l-110 -10l138 671q-39 9 -63 18l2 9l177 18l-95 -466l252 212l26 22t41 27t42 10t33.5 -11.5z" />
    <glyph glyph-name="kcommaaccent" unicode="&#x137;" horiz-adv-x="623" 
d="M615.5 499.5q12.5 -11.5 12.5 -31.5q0 -9 -1 -14q-3 -16 -16.5 -28.5t-29.5 -12.5q-15 0 -20.5 7t-7.5 20q-2 9 -4 13t-9 4q-9 0 -23 -13t-18 -16l-150 -128l107 -206q18 -34 50 -34q21 0 41 30t35 72l21 -13q-15 -56 -52.5 -107.5t-88.5 -51.5q-30 0 -50.5 21t-44.5 67
l-86 163l-72 -61l-37 -180l-110 -10l138 671q-39 9 -63 18l2 9l177 18l-95 -466l252 212l26 22t41 27t42 10t33.5 -11.5zM326 -122q0 -7 -2 -21q-10 -47 -42.5 -98t-72.5 -83l-29 29q24 22 45 52t30 60q-51 0 -51 41q0 9 1 14q6 26 26.5 40.5t44.5 14.5q50 0 50 -49z" />
    <glyph glyph-name="kgreenlandic" unicode="&#x138;" horiz-adv-x="623" 
d="M615.5 499.5q12.5 -11.5 12.5 -31.5q0 -9 -1 -14q-3 -16 -16.5 -28.5t-29.5 -12.5q-15 0 -20.5 7t-7.5 20q-2 9 -4 13t-9 4q-9 0 -23 -13t-18 -16l-150 -128l107 -206q18 -34 50 -34q21 0 41 30t35 72l21 -13q-15 -56 -52.5 -107.5t-88.5 -51.5q-30 0 -50.5 21t-44.5 67
l-86 163l-72 -61l-37 -180l-110 -10l97 472q-37 8 -62 18l1 9l177 18l-54 -268l252 213l26 22t41 27t42 10t33.5 -11.5z" />
    <glyph glyph-name="l" unicode="l" horiz-adv-x="315" 
d="M101 12q-19 22 -19 58q0 14 3 29l115 562q-39 9 -63 18l2 9l177 18l-124 -605q-4 -24 -4 -35q0 -26 15 -26q19 0 45.5 36t42.5 75l20 -11q-27 -66 -68.5 -108t-92.5 -42q-30 0 -49 22z" />
    <glyph glyph-name="lacute" unicode="&#x13a;" horiz-adv-x="315" 
d="M193 795l135 113q31 27 55 27q17 0 24.5 -10t4.5 -22q-6 -27 -46 -49l-160 -86zM101 12q-19 22 -19 58q0 14 3 29l115 562q-39 9 -63 18l2 9l177 18l-124 -605q-4 -24 -4 -35q0 -26 15 -26q19 0 45.5 36t42.5 75l20 -11q-27 -66 -68.5 -108t-92.5 -42q-30 0 -49 22z" />
    <glyph glyph-name="lcaron" unicode="&#x13e;" horiz-adv-x="461" 
d="M366 480q24 23 44.5 53t31.5 60l-8 -1q-22 0 -33.5 12t-11.5 31q0 5 2 15q4 27 23.5 43.5t46.5 16.5q28 0 41 -15t13 -40q0 -8 -2 -22q-10 -46 -43.5 -97.5t-73.5 -83.5zM101 12q-19 22 -19 58q0 14 3 29l115 562q-39 9 -63 18l2 9l177 18l-124 -605q-4 -24 -4 -35
q0 -26 15 -26q19 0 45.5 36t42.5 75l20 -11q-27 -66 -68.5 -108t-92.5 -42q-30 0 -49 22z" />
    <glyph glyph-name="lcommaaccent" unicode="&#x13c;" horiz-adv-x="315" 
d="M101 12q-19 22 -19 58q0 14 3 29l115 562q-39 9 -63 18l2 9l177 18l-124 -605q-4 -24 -4 -35q0 -26 15 -26q19 0 45.5 36t42.5 75l20 -11q-27 -66 -68.5 -108t-92.5 -42q-30 0 -49 22zM6 -295q24 21 45 51.5t31 60.5q-52 0 -52 40q0 32 22 51t50 19q50 0 50 -49
q0 -7 -2 -21q-10 -46 -42 -97.5t-72 -83.5z" />
    <glyph glyph-name="ldot" unicode="&#x140;" horiz-adv-x="431" 
d="M101 12q-19 22 -19 58q0 14 3 29l115 562q-39 9 -63 18l2 9l177 18l-124 -605q-4 -24 -4 -35q0 -26 15 -26q19 0 45.5 36t42.5 75l20 -11q-27 -66 -68.5 -108t-92.5 -42q-30 0 -49 22zM325 304q-11 11 -11 29q0 9 1 13q5 24 22 39t40 15q20 0 30.5 -11t10.5 -30
q0 -27 -18 -46.5t-45 -19.5q-19 0 -30 11z" />
    <glyph glyph-name="uni1E37" unicode="&#x1e37;" horiz-adv-x="315" 
d="M101 12q-19 22 -19 58q0 14 3 29l115 562q-39 9 -63 18l2 9l177 18l-124 -605q-4 -24 -4 -35q0 -26 15 -26q19 0 45.5 36t42.5 75l20 -11q-27 -66 -68.5 -108t-92.5 -42q-30 0 -49 22zM76 -143.5q-11 10.5 -11 27.5q0 26 17.5 45t42.5 19q19 0 29.5 -10.5t10.5 -28.5
q0 -8 -1 -12q-5 -23 -21 -37t-38 -14q-18 0 -29 10.5z" />
    <glyph glyph-name="uni1E39" unicode="&#x1e39;" horiz-adv-x="315" 
d="M117 824h338l-9 -39h-338zM101 12q-19 22 -19 58q0 14 3 29l115 562q-39 9 -63 18l2 9l177 18l-124 -605q-4 -24 -4 -35q0 -26 15 -26q19 0 45.5 36t42.5 75l20 -11q-27 -66 -68.5 -108t-92.5 -42q-30 0 -49 22zM76 -143.5q-11 10.5 -11 27.5q0 26 17.5 45t42.5 19
q19 0 29.5 -10.5t10.5 -28.5q0 -8 -1 -12q-5 -23 -21 -37t-38 -14q-18 0 -29 10.5z" />
    <glyph glyph-name="uni1E3B" unicode="&#x1e3b;" horiz-adv-x="315" 
d="M101 12q-19 22 -19 58q0 14 3 29l115 562q-39 9 -63 18l2 9l177 18l-124 -605q-4 -24 -4 -35q0 -26 15 -26q19 0 45.5 36t42.5 75l20 -11q-27 -66 -68.5 -108t-92.5 -42q-30 0 -49 22zM-64 -66h337l-8 -39h-337z" />
    <glyph glyph-name="lslash" unicode="&#x142;" horiz-adv-x="322" 
d="M192 101q-4 -24 -4 -35q0 -26 15 -26q19 0 45.5 36t42.5 75l20 -11q-27 -66 -68.5 -108t-92.5 -42q-30 0 -49 22t-19 58q0 14 3 29l32 158l-92 -35l11 54l92 35l72 350q-39 9 -63 18l2 9l177 18l-72 -351l105 40l-10 -55l-106 -40z" />
    <glyph glyph-name="m" unicode="m" horiz-adv-x="942" 
d="M949 140q-26 -65 -68.5 -107.5t-94.5 -42.5q-30 0 -46 25t-16 64q0 22 4 41l32 162q16 77 16 114q0 38 -14.5 54.5t-47.5 16.5t-75 -38.5t-86 -108.5l-65 -320l-105 -10l76 369q5 27 5 43q0 65 -62 65q-35 0 -77.5 -38t-87.5 -107l-65 -322l-110 -10l97 472q-37 8 -62 18
l1 9l177 18l-24 -119q38 53 85.5 86t103.5 33q63 0 94.5 -27t31.5 -77q0 -12 -1 -18q39 55 86.5 88.5t101.5 33.5q131 0 131 -114q0 -25 -6 -55l-49 -241q-3 -15 -3 -29q0 -28 15 -28q18 0 45.5 36.5t42.5 74.5z" />
    <glyph glyph-name="uni1E43" unicode="&#x1e43;" horiz-adv-x="942" 
d="M949 140q-26 -65 -68.5 -107.5t-94.5 -42.5q-30 0 -46 25t-16 64q0 22 4 41l32 162q16 77 16 114q0 38 -14.5 54.5t-47.5 16.5t-75 -38.5t-86 -108.5l-65 -320l-105 -10l76 369q5 27 5 43q0 65 -62 65q-35 0 -77.5 -38t-87.5 -107l-65 -322l-110 -10l97 472q-37 8 -62 18
l1 9l177 18l-24 -119q38 53 85.5 86t103.5 33q63 0 94.5 -27t31.5 -77q0 -12 -1 -18q39 55 86.5 88.5t101.5 33.5q131 0 131 -114q0 -25 -6 -55l-49 -241q-3 -15 -3 -29q0 -28 15 -28q18 0 45.5 36.5t42.5 74.5zM453.5 -67.5q10.5 -10.5 10.5 -28.5q0 -26 -18 -45t-43 -19
q-18 0 -28 10.5t-10 27.5q0 27 17.5 46t41.5 19q19 0 29.5 -10.5z" />
    <glyph glyph-name="n" unicode="n" horiz-adv-x="653" 
d="M656 140q-27 -65 -69.5 -107.5t-94.5 -42.5q-30 0 -46 25.5t-16 64.5q0 21 4 40l33 162q14 72 14 109q0 41 -15.5 58.5t-48.5 17.5q-36 0 -86.5 -46t-98.5 -124l-60 -297l-110 -10l97 472q-37 8 -62 18l1 9l177 18l-29 -141q41 61 94.5 101t114.5 40q65 0 100.5 -28.5
t35.5 -88.5q0 -23 -6 -52l-49 -241q-4 -22 -4 -31q0 -26 15 -26q18 0 45.5 36t43.5 75z" />
    <glyph glyph-name="nacute" unicode="&#x144;" horiz-adv-x="653" 
d="M326 584l-13 27l135 113q31 27 55 27q17 0 24.5 -10t4.5 -22q-6 -27 -46 -49zM656 140q-27 -65 -69.5 -107.5t-94.5 -42.5q-30 0 -46 25.5t-16 64.5q0 21 4 40l33 162q14 72 14 109q0 41 -15.5 58.5t-48.5 17.5q-36 0 -86.5 -46t-98.5 -124l-60 -297l-110 -10l97 472
q-37 8 -62 18l1 9l177 18l-29 -141q41 61 94.5 101t114.5 40q65 0 100.5 -28.5t35.5 -88.5q0 -23 -6 -52l-49 -241q-4 -22 -4 -31q0 -26 15 -26q18 0 45.5 36t43.5 75z" />
    <glyph glyph-name="napostrophe" unicode="&#x149;" horiz-adv-x="824" 
d="M229 593q0 -7 -2 -21q-10 -47 -42.5 -98t-72.5 -83l-29 29q24 22 45 52t30 60q-51 0 -51 41q0 9 1 14q6 26 26.5 40.5t44.5 14.5q50 0 50 -49zM827 140q-27 -65 -69.5 -107.5t-94.5 -42.5q-30 0 -46 25.5t-16 64.5q0 21 4 40l32 162q15 69 15 110q0 40 -15.5 57.5
t-48.5 17.5q-36 0 -86.5 -45.5t-98.5 -123.5l-60 -298l-110 -10l97 472q-37 8 -62 18l1 9l176 18l-29 -142q41 61 95 101.5t115 40.5q65 0 100.5 -28.5t35.5 -88.5q0 -23 -6 -52l-49 -241q-4 -22 -4 -31q0 -26 15 -26q18 0 45.5 36.5t42.5 74.5z" />
    <glyph glyph-name="ncaron" unicode="&#x148;" horiz-adv-x="653" 
d="M325 652.5q-33 39.5 -60 61.5l51 36q25 -23 50.5 -56t37.5 -59h5q23 26 62.5 59t73.5 56l37 -36q-37 -23 -86.5 -62.5t-73.5 -67.5h-50q-14 29 -47 68.5zM656 140q-27 -65 -69.5 -107.5t-94.5 -42.5q-30 0 -46 25.5t-16 64.5q0 21 4 40l33 162q14 72 14 109
q0 41 -15.5 58.5t-48.5 17.5q-36 0 -86.5 -46t-98.5 -124l-60 -297l-110 -10l97 472q-37 8 -62 18l1 9l177 18l-29 -141q41 61 94.5 101t114.5 40q65 0 100.5 -28.5t35.5 -88.5q0 -23 -6 -52l-49 -241q-4 -22 -4 -31q0 -26 15 -26q18 0 45.5 36t43.5 75z" />
    <glyph glyph-name="ncommaaccent" unicode="&#x146;" horiz-adv-x="653" 
d="M656 140q-27 -65 -69.5 -107.5t-94.5 -42.5q-30 0 -46 25.5t-16 64.5q0 21 4 40l33 162q14 72 14 109q0 41 -15.5 58.5t-48.5 17.5q-36 0 -86.5 -46t-98.5 -124l-60 -297l-110 -10l97 472q-37 8 -62 18l1 9l177 18l-29 -141q41 61 94.5 101t114.5 40q65 0 100.5 -28.5
t35.5 -88.5q0 -23 -6 -52l-49 -241q-4 -22 -4 -31q0 -26 15 -26q18 0 45.5 36t43.5 75zM312 -121q0 -14 -2 -22q-9 -46 -41 -97.5t-73 -83.5l-30 29q24 21 45 51.5t31 60.5q-52 0 -52 40q0 32 22 51t50 19q50 0 50 -48z" />
    <glyph glyph-name="uni1E45" unicode="&#x1e45;" horiz-adv-x="653" 
d="M372 593.5q-10 10.5 -10 27.5q0 9 1 13q5 23 21 37.5t37 14.5q18 0 29 -10.5t11 -27.5q0 -27 -18 -46t-43 -19q-18 0 -28 10.5zM656 140q-27 -65 -69.5 -107.5t-94.5 -42.5q-30 0 -46 25.5t-16 64.5q0 21 4 40l33 162q14 72 14 109q0 41 -15.5 58.5t-48.5 17.5
q-36 0 -86.5 -46t-98.5 -124l-60 -297l-110 -10l97 472q-37 8 -62 18l1 9l177 18l-29 -141q41 61 94.5 101t114.5 40q65 0 100.5 -28.5t35.5 -88.5q0 -23 -6 -52l-49 -241q-4 -22 -4 -31q0 -26 15 -26q18 0 45.5 36t43.5 75z" />
    <glyph glyph-name="uni1E47" unicode="&#x1e47;" horiz-adv-x="653" 
d="M656 140q-27 -65 -69.5 -107.5t-94.5 -42.5q-30 0 -46 25.5t-16 64.5q0 21 4 40l33 162q14 72 14 109q0 41 -15.5 58.5t-48.5 17.5q-36 0 -86.5 -46t-98.5 -124l-60 -297l-110 -10l97 472q-37 8 -62 18l1 9l177 18l-29 -141q41 61 94.5 101t114.5 40q65 0 100.5 -28.5
t35.5 -88.5q0 -23 -6 -52l-49 -241q-4 -22 -4 -31q0 -26 15 -26q18 0 45.5 36t43.5 75zM295.5 -67.5q10.5 -10.5 10.5 -27.5q0 -4 -2 -14q-4 -22 -20.5 -36.5t-38.5 -14.5q-18 0 -28.5 11t-10.5 29q0 7 1 11q5 23 21.5 37.5t37.5 14.5q19 0 29.5 -10.5z" />
    <glyph glyph-name="eng" unicode="&#x14b;" horiz-adv-x="653" 
d="M555.5 478.5q35.5 -28.5 35.5 -88.5q0 -23 -6 -52l-90 -441q-16 -78 -70.5 -119.5t-133.5 -41.5q-66 0 -97 21t-31 57q0 5 2 19q3 14 14.5 26.5t27.5 12.5q32 0 30 -34q-1 -5 -4 -11t-4 -10q-1 -38 52 -38q41 0 68.5 32t39.5 86l78 385q14 72 14 109q0 41 -15.5 58.5
t-48.5 17.5q-36 0 -86.5 -46t-98.5 -124l-60 -297l-110 -10l97 472q-37 8 -62 18l1 9l177 18l-29 -141q41 61 94.5 101t114.5 40q65 0 100.5 -28.5z" />
    <glyph glyph-name="uni1E49" unicode="&#x1e49;" horiz-adv-x="653" 
d="M656 140q-27 -65 -69.5 -107.5t-94.5 -42.5q-30 0 -46 25.5t-16 64.5q0 21 4 40l33 162q14 72 14 109q0 41 -15.5 58.5t-48.5 17.5q-36 0 -86.5 -46t-98.5 -124l-60 -297l-110 -10l97 472q-37 8 -62 18l1 9l177 18l-29 -141q41 61 94.5 101t114.5 40q65 0 100.5 -28.5
t35.5 -88.5q0 -23 -6 -52l-49 -241q-4 -22 -4 -31q0 -26 15 -26q18 0 45.5 36t43.5 75zM92 -66h337l-8 -39h-337z" />
    <glyph glyph-name="ntilde" unicode="&#xf1;" horiz-adv-x="653" 
d="M293 624.5q-20 -15.5 -30 -40.5h-38q35 106 123 106q22 0 40 -8t40 -23q19 -12 30.5 -17.5t22.5 -5.5q23 0 43 13.5t33 44.5h35q-35 -109 -123 -109q-18 0 -35.5 8t-41.5 23q-23 13 -34.5 18.5t-22.5 5.5q-22 0 -42 -15.5zM656 140q-27 -65 -69.5 -107.5t-94.5 -42.5
q-30 0 -46 25.5t-16 64.5q0 21 4 40l33 162q14 72 14 109q0 41 -15.5 58.5t-48.5 17.5q-36 0 -86.5 -46t-98.5 -124l-60 -297l-110 -10l97 472q-37 8 -62 18l1 9l177 18l-29 -141q41 61 94.5 101t114.5 40q65 0 100.5 -28.5t35.5 -88.5q0 -23 -6 -52l-49 -241q-4 -22 -4 -31
q0 -26 15 -26q18 0 45.5 36t43.5 75z" />
    <glyph glyph-name="o" unicode="o" horiz-adv-x="572" 
d="M84 39q-56 49 -56 139q0 30 8 70q25 122 107 190.5t207 68.5q105 0 161.5 -49.5t56.5 -139.5q0 -30 -8 -70q-25 -122 -107.5 -190t-207.5 -68q-105 0 -161 49zM378 88q53 58 74 160q8 37 8 76q0 68 -30.5 105.5t-86.5 37.5q-72 0 -126 -58.5t-75 -160.5q-8 -36 -8 -75
q0 -68 31 -105.5t88 -37.5q72 0 125 58z" />
    <glyph glyph-name="oacute" unicode="&#xf3;" horiz-adv-x="572" 
d="M278 611l136 113q9 9 23.5 18t30.5 9q17 0 24.5 -10t4.5 -22q-6 -27 -46 -49l-159 -86zM84 39q-56 49 -56 139q0 30 8 70q25 122 107 190.5t207 68.5q105 0 161.5 -49.5t56.5 -139.5q0 -30 -8 -70q-25 -122 -107.5 -190t-207.5 -68q-105 0 -161 49zM378 88q53 58 74 160
q8 37 8 76q0 68 -30.5 105.5t-86.5 37.5q-72 0 -126 -58.5t-75 -160.5q-8 -36 -8 -75q0 -68 31 -105.5t88 -37.5q72 0 125 58z" />
    <glyph glyph-name="obreve" unicode="&#x14f;" horiz-adv-x="572" 
d="M264.5 608.5q-34.5 31.5 -30.5 95.5h63q-1 -6 -1 -17q0 -40 21.5 -54t55.5 -14q38 0 67.5 17.5t44.5 67.5h63q-21 -63 -69 -95t-114 -32t-100.5 31.5zM84 39q-56 49 -56 139q0 30 8 70q25 122 107 190.5t207 68.5q105 0 161.5 -49.5t56.5 -139.5q0 -30 -8 -70
q-25 -122 -107.5 -190t-207.5 -68q-105 0 -161 49zM378 88q53 58 74 160q8 37 8 76q0 68 -30.5 105.5t-86.5 37.5q-72 0 -126 -58.5t-75 -160.5q-8 -36 -8 -75q0 -68 31 -105.5t88 -37.5q72 0 125 58z" />
    <glyph glyph-name="uni01D2" unicode="&#x1d2;" horiz-adv-x="572" 
d="M294.5 652.5q-33.5 39.5 -61.5 61.5l52 36q25 -23 50.5 -56t37.5 -59h5q23 26 63 59t74 56l36 -36q-37 -23 -86.5 -62.5t-72.5 -67.5h-51q-13 29 -46.5 68.5zM84 39q-56 49 -56 139q0 30 8 70q25 122 107 190.5t207 68.5q105 0 161.5 -49.5t56.5 -139.5q0 -30 -8 -70
q-25 -122 -107.5 -190t-207.5 -68q-105 0 -161 49zM378 88q53 58 74 160q8 37 8 76q0 68 -30.5 105.5t-86.5 37.5q-72 0 -126 -58.5t-75 -160.5q-8 -36 -8 -75q0 -68 31 -105.5t88 -37.5q72 0 125 58z" />
    <glyph glyph-name="ocircumflex" unicode="&#xf4;" horiz-adv-x="572" 
d="M214 616q36 22 85.5 61.5t73.5 67.5h51q14 -29 47 -68.5t60 -60.5l-51 -37q-25 23 -51 56.5t-38 59.5h-5q-22 -25 -61 -58.5t-74 -57.5zM84 39q-56 49 -56 139q0 30 8 70q25 122 107 190.5t207 68.5q105 0 161.5 -49.5t56.5 -139.5q0 -30 -8 -70q-25 -122 -107.5 -190
t-207.5 -68q-105 0 -161 49zM378 88q53 58 74 160q8 37 8 76q0 68 -30.5 105.5t-86.5 37.5q-72 0 -126 -58.5t-75 -160.5q-8 -36 -8 -75q0 -68 31 -105.5t88 -37.5q72 0 125 58z" />
    <glyph glyph-name="uni1ED1" unicode="&#x1ed1;" horiz-adv-x="572" 
d="M502 730l84 76q43 40 74 40q13 0 19.5 -7t4.5 -19q-3 -15 -20 -31.5t-47 -31.5l-103 -51zM215 616q36 21 86 61t74 68h50q14 -28 47 -68t59 -61l-50 -37q-24 23 -50 56t-39 60h-4q-23 -26 -62.5 -59.5t-73.5 -56.5zM84 39q-56 49 -56 139q0 30 8 70q25 122 107 190.5
t207 68.5q105 0 161.5 -49.5t56.5 -139.5q0 -30 -8 -70q-25 -122 -107.5 -190t-207.5 -68q-105 0 -161 49zM378 88q53 58 74 160q8 37 8 76q0 68 -30.5 105.5t-86.5 37.5q-72 0 -126 -58.5t-75 -160.5q-8 -36 -8 -75q0 -68 31 -105.5t88 -37.5q72 0 125 58z" />
    <glyph glyph-name="uni1ED9" unicode="&#x1ed9;" horiz-adv-x="572" 
d="M299.5 677.5q49.5 39.5 73.5 67.5h51q14 -29 47 -68.5t60 -60.5l-51 -37q-25 23 -51 56.5t-38 59.5h-5q-22 -25 -61 -58.5t-74 -57.5l-37 37q36 22 85.5 61.5zM143 438.5q82 68.5 207 68.5q105 0 161.5 -49.5t56.5 -139.5q0 -30 -8 -70q-25 -122 -107.5 -190t-207.5 -68
q-105 0 -161 49t-56 139q0 30 8 70q25 122 107 190.5zM134 173q0 -68 31 -105.5t88 -37.5q72 0 125 58t74 160q8 37 8 76q0 68 -30.5 105.5t-86.5 37.5q-72 0 -126 -58.5t-75 -160.5q-8 -36 -8 -75zM193 -75.5q17 18.5 42 18.5q19 0 29.5 -10.5t10.5 -28.5q0 -26 -18 -45
t-43 -19q-18 0 -28 10.5t-10 27.5q0 28 17 46.5z" />
    <glyph glyph-name="uni1ED3" unicode="&#x1ed3;" horiz-adv-x="572" 
d="M192 757q-40 26 -40 55q0 15 9 24.5t24 9.5q32 0 60 -40l54 -76l-23 -24zM215 616q36 21 86 61t74 68h50q14 -28 47 -68t59 -61l-50 -37q-24 23 -50 56t-39 60h-4q-23 -26 -62.5 -59.5t-73.5 -56.5zM84 39q-56 49 -56 139q0 30 8 70q25 122 107 190.5t207 68.5
q105 0 161.5 -49.5t56.5 -139.5q0 -30 -8 -70q-25 -122 -107.5 -190t-207.5 -68q-105 0 -161 49zM378 88q53 58 74 160q8 37 8 76q0 68 -30.5 105.5t-86.5 37.5q-72 0 -126 -58.5t-75 -160.5q-8 -36 -8 -75q0 -68 31 -105.5t88 -37.5q72 0 125 58z" />
    <glyph glyph-name="uni1ED5" unicode="&#x1ed5;" horiz-adv-x="572" 
d="M506 780h23q24 0 39.5 11t19.5 32q1 3 1 8q0 13 -11 21t-32 8q-25 0 -51 -13v30q34 14 69 14q33 0 55 -13.5t22 -39.5q0 -4 -2 -16q-11 -59 -87 -66l-19 -55h-39zM215 616q36 21 86 61t74 68h50q14 -28 47 -68t59 -61l-50 -37q-24 23 -50 56t-39 60h-4
q-23 -26 -62.5 -59.5t-73.5 -56.5zM84 39q-56 49 -56 139q0 30 8 70q25 122 107 190.5t207 68.5q105 0 161.5 -49.5t56.5 -139.5q0 -30 -8 -70q-25 -122 -107.5 -190t-207.5 -68q-105 0 -161 49zM378 88q53 58 74 160q8 37 8 76q0 68 -30.5 105.5t-86.5 37.5
q-72 0 -126 -58.5t-75 -160.5q-8 -36 -8 -75q0 -68 31 -105.5t88 -37.5q72 0 125 58z" />
    <glyph glyph-name="uni1ED7" unicode="&#x1ed7;" horiz-adv-x="572" 
d="M285.5 849.5q31.5 26.5 74.5 26.5q22 0 39 -8t41 -23q17 -12 29 -17.5t23 -5.5q22 0 42.5 13.5t33.5 44.5h37q-16 -51 -47.5 -80t-76.5 -29q-19 0 -36.5 8t-41.5 23q-21 13 -33 18.5t-23 5.5q-22 0 -42 -15.5t-30 -40.5h-39q18 53 49.5 79.5zM215 616q36 21 86 61t74 68
h50q14 -28 47 -68t59 -61l-50 -37q-24 23 -50 56t-39 60h-4q-23 -26 -62.5 -59.5t-73.5 -56.5zM84 39q-56 49 -56 139q0 30 8 70q25 122 107 190.5t207 68.5q105 0 161.5 -49.5t56.5 -139.5q0 -30 -8 -70q-25 -122 -107.5 -190t-207.5 -68q-105 0 -161 49zM378 88
q53 58 74 160q8 37 8 76q0 68 -30.5 105.5t-86.5 37.5q-72 0 -126 -58.5t-75 -160.5q-8 -36 -8 -75q0 -68 31 -105.5t88 -37.5q72 0 125 58z" />
    <glyph glyph-name="odieresis" unicode="&#xf6;" horiz-adv-x="572" 
d="M228.5 593.5q-9.5 10.5 -9.5 27.5q0 9 1 13q5 23 20.5 37.5t36.5 14.5q19 0 30 -11t11 -28q0 -26 -18 -45t-44 -19q-18 0 -27.5 10.5zM446 593.5q-10 10.5 -10 27.5q0 8 1 13q5 23 21 37.5t37 14.5q18 0 29 -10.5t11 -27.5q0 -27 -18 -46t-43 -19q-18 0 -28 10.5zM84 39
q-56 49 -56 139q0 30 8 70q25 122 107 190.5t207 68.5q105 0 161.5 -49.5t56.5 -139.5q0 -30 -8 -70q-25 -122 -107.5 -190t-207.5 -68q-105 0 -161 49zM378 88q53 58 74 160q8 37 8 76q0 68 -30.5 105.5t-86.5 37.5q-72 0 -126 -58.5t-75 -160.5q-8 -36 -8 -75
q0 -68 31 -105.5t88 -37.5q72 0 125 58z" />
    <glyph glyph-name="uni1ECD" unicode="&#x1ecd;" horiz-adv-x="572" 
d="M143 438.5q82 68.5 207 68.5q105 0 161.5 -49.5t56.5 -139.5q0 -30 -8 -70q-25 -122 -107.5 -190t-207.5 -68q-105 0 -161 49t-56 139q0 30 8 70q25 122 107 190.5zM134 173q0 -68 31 -105.5t88 -37.5q72 0 125 58t74 160q8 37 8 76q0 68 -30.5 105.5t-86.5 37.5
q-72 0 -126 -58.5t-75 -160.5q-8 -36 -8 -75zM193 -75.5q17 18.5 42 18.5q19 0 29.5 -10.5t10.5 -28.5q0 -26 -18 -45t-43 -19q-18 0 -28 10.5t-10 27.5q0 28 17 46.5z" />
    <glyph glyph-name="ograve" unicode="&#xf2;" horiz-adv-x="572" 
d="M318 670q-33 24 -28 49q3 13 14.5 22.5t28.5 9.5q23 0 43 -26l90 -114l-23 -27zM84 39q-56 49 -56 139q0 30 8 70q25 122 107 190.5t207 68.5q105 0 161.5 -49.5t56.5 -139.5q0 -30 -8 -70q-25 -122 -107.5 -190t-207.5 -68q-105 0 -161 49zM378 88q53 58 74 160
q8 37 8 76q0 68 -30.5 105.5t-86.5 37.5q-72 0 -126 -58.5t-75 -160.5q-8 -36 -8 -75q0 -68 31 -105.5t88 -37.5q72 0 125 58z" />
    <glyph glyph-name="uni1ECF" unicode="&#x1ecf;" horiz-adv-x="572" 
d="M356 677h28q27 0 45.5 13.5t23.5 38.5q1 4 1 10q0 16 -12.5 26.5t-36.5 10.5q-28 0 -59 -16v33q38 17 80 17q37 0 61.5 -16.5t24.5 -48.5q0 -4 -2 -18q-14 -71 -100 -79l-23 -66h-45zM84 39q-56 49 -56 139q0 30 8 70q25 122 107 190.5t207 68.5q105 0 161.5 -49.5
t56.5 -139.5q0 -30 -8 -70q-25 -122 -107.5 -190t-207.5 -68q-105 0 -161 49zM378 88q53 58 74 160q8 37 8 76q0 68 -30.5 105.5t-86.5 37.5q-72 0 -126 -58.5t-75 -160.5q-8 -36 -8 -75q0 -68 31 -105.5t88 -37.5q72 0 125 58z" />
    <glyph glyph-name="ohorn" unicode="&#x1a1;" horiz-adv-x="626" 
d="M699 492q0 -13 -3 -25q-7 -36 -39.5 -77t-89.5 -79q0 -32 -7 -63q-25 -122 -107.5 -190t-207.5 -68q-105 0 -161 49t-56 139q0 30 8 70q25 122 107 190.5t207 68.5q95 0 150 -40t65 -115q53 44 69 85q-8 -4 -18 -4q-18 0 -29 10.5t-11 28.5q0 25 17 47t53 22q53 0 53 -49
zM460 324q0 68 -30.5 105.5t-86.5 37.5q-72 0 -126 -58.5t-75 -160.5q-8 -36 -8 -75q0 -68 31 -105.5t88 -37.5q72 0 125 58t74 160q8 37 8 76z" />
    <glyph glyph-name="uni1EDB" unicode="&#x1edb;" horiz-adv-x="626" 
d="M292 584l-14 27l136 113q9 9 23.5 18t30.5 9q17 0 24.5 -10t4.5 -22q-6 -27 -46 -49zM699 492q0 -13 -3 -25q-7 -36 -39.5 -77t-89.5 -79q0 -32 -7 -63q-25 -122 -107.5 -190t-207.5 -68q-105 0 -161 49t-56 139q0 30 8 70q25 122 107 190.5t207 68.5q95 0 150 -40
t65 -115q53 44 69 85q-8 -4 -18 -4q-18 0 -29 10.5t-11 28.5q0 25 17 47t53 22q53 0 53 -49zM460 324q0 68 -30.5 105.5t-86.5 37.5q-72 0 -126 -58.5t-75 -160.5q-8 -36 -8 -75q0 -68 31 -105.5t88 -37.5q72 0 125 58t74 160q8 37 8 76z" />
    <glyph glyph-name="uni1EE3" unicode="&#x1ee3;" horiz-adv-x="626" 
d="M699 492q0 -13 -3 -25q-7 -36 -39.5 -77t-89.5 -79q0 -32 -7 -63q-25 -122 -107.5 -190t-207.5 -68q-105 0 -161 49t-56 139q0 30 8 70q25 122 107 190.5t207 68.5q95 0 150 -40t65 -115q53 44 69 85q-8 -4 -18 -4q-18 0 -29 10.5t-11 28.5q0 25 17 47t53 22q53 0 53 -49
zM460 324q0 68 -30.5 105.5t-86.5 37.5q-72 0 -126 -58.5t-75 -160.5q-8 -36 -8 -75q0 -68 31 -105.5t88 -37.5q72 0 125 58t74 160q8 37 8 76zM264.5 -67.5q10.5 -10.5 10.5 -28.5q0 -26 -18 -45t-43 -19q-18 0 -28 10.5t-10 27.5q0 28 17 46.5t42 18.5q19 0 29.5 -10.5z
" />
    <glyph glyph-name="uni1EDD" unicode="&#x1edd;" horiz-adv-x="626" 
d="M291 719q3 13 14.5 22.5t28.5 9.5q23 0 43 -26l90 -114l-23 -27l-125 86q-33 24 -28 49zM699 492q0 -13 -3 -25q-7 -36 -39.5 -77t-89.5 -79q0 -32 -7 -63q-25 -122 -107.5 -190t-207.5 -68q-105 0 -161 49t-56 139q0 30 8 70q25 122 107 190.5t207 68.5q95 0 150 -40
t65 -115q53 44 69 85q-8 -4 -18 -4q-18 0 -29 10.5t-11 28.5q0 25 17 47t53 22q53 0 53 -49zM460 324q0 68 -30.5 105.5t-86.5 37.5q-72 0 -126 -58.5t-75 -160.5q-8 -36 -8 -75q0 -68 31 -105.5t88 -37.5q72 0 125 58t74 160q8 37 8 76z" />
    <glyph glyph-name="uni1EDF" unicode="&#x1edf;" horiz-adv-x="626" 
d="M432 690.5q19 13.5 24 38.5q1 3 1 10q0 16 -12.5 26.5t-36.5 10.5q-28 0 -60 -16v33q40 17 81 17q37 0 61.5 -16.5t24.5 -48.5q0 -4 -2 -18q-14 -71 -100 -79l-23 -66h-45l14 95h28q26 0 45 13.5zM699 492q0 -13 -3 -25q-7 -36 -39.5 -77t-89.5 -79q0 -32 -7 -63
q-25 -122 -107.5 -190t-207.5 -68q-105 0 -161 49t-56 139q0 30 8 70q25 122 107 190.5t207 68.5q95 0 150 -40t65 -115q53 44 69 85q-8 -4 -18 -4q-18 0 -29 10.5t-11 28.5q0 25 17 47t53 22q53 0 53 -49zM460 324q0 68 -30.5 105.5t-86.5 37.5q-72 0 -126 -58.5
t-75 -160.5q-8 -36 -8 -75q0 -68 31 -105.5t88 -37.5q72 0 125 58t74 160q8 37 8 76z" />
    <glyph glyph-name="uni1EE1" unicode="&#x1ee1;" horiz-adv-x="626" 
d="M263 624.5q-20 -15.5 -30 -40.5h-38q35 106 123 106q22 0 40 -8t40 -23q19 -12 30.5 -17.5t22.5 -5.5q23 0 43 13.5t33 44.5h36q-36 -109 -123 -109q-18 0 -35.5 8t-41.5 23q-23 13 -34.5 18.5t-23.5 5.5q-22 0 -42 -15.5zM699 492q0 -13 -3 -25q-7 -36 -39.5 -77
t-89.5 -79q0 -32 -7 -63q-25 -122 -107.5 -190t-207.5 -68q-105 0 -161 49t-56 139q0 30 8 70q25 122 107 190.5t207 68.5q95 0 150 -40t65 -115q53 44 69 85q-8 -4 -18 -4q-18 0 -29 10.5t-11 28.5q0 25 17 47t53 22q53 0 53 -49zM460 324q0 68 -30.5 105.5t-86.5 37.5
q-72 0 -126 -58.5t-75 -160.5q-8 -36 -8 -75q0 -68 31 -105.5t88 -37.5q72 0 125 58t74 160q8 37 8 76z" />
    <glyph glyph-name="ohungarumlaut" unicode="&#x151;" horiz-adv-x="572" 
d="M225 610l134 113q31 27 55 27q17 0 24.5 -9.5t5.5 -22.5q-5 -25 -48 -49l-159 -86zM420 610l136 113q31 27 55 27q15 0 22.5 -7.5t7.5 -18.5q0 -16 -12 -28.5t-36 -26.5l-160 -86zM84 39q-56 49 -56 139q0 30 8 70q25 122 107 190.5t207 68.5q105 0 161.5 -49.5
t56.5 -139.5q0 -30 -8 -70q-25 -122 -107.5 -190t-207.5 -68q-105 0 -161 49zM378 88q53 58 74 160q8 37 8 76q0 68 -30.5 105.5t-86.5 37.5q-72 0 -126 -58.5t-75 -160.5q-8 -36 -8 -75q0 -68 31 -105.5t88 -37.5q72 0 125 58z" />
    <glyph glyph-name="omacron" unicode="&#x14d;" horiz-adv-x="572" 
d="M205 624h337l-7 -40h-337zM84 39q-56 49 -56 139q0 30 8 70q25 122 107 190.5t207 68.5q105 0 161.5 -49.5t56.5 -139.5q0 -30 -8 -70q-25 -122 -107.5 -190t-207.5 -68q-105 0 -161 49zM378 88q53 58 74 160q8 37 8 76q0 68 -30.5 105.5t-86.5 37.5q-72 0 -126 -58.5
t-75 -160.5q-8 -36 -8 -75q0 -68 31 -105.5t88 -37.5q72 0 125 58z" />
    <glyph glyph-name="oslash" unicode="&#xf8;" horiz-adv-x="572" 
d="M520 449q48 -48 48 -131q0 -30 -8 -70q-25 -122 -107.5 -190t-207.5 -68q-85 0 -141 34l-55 -57l-27 27l52 54q-46 48 -46 130q0 30 8 70q25 122 107 190.5t207 68.5q87 0 139 -33l50 52l29 -28zM133 173q0 -34 7 -58l297 306q-31 46 -94 46q-72 0 -126.5 -58.5
t-75.5 -160.5q-8 -36 -8 -75zM462 324q0 34 -7 58l-298 -305q31 -47 96 -47q72 0 126 58t75 160q8 37 8 76z" />
    <glyph glyph-name="oslashacute" unicode="&#x1ff;" horiz-adv-x="572" 
d="M290 584l-14 27l136 113q31 27 55 27q17 0 24 -10t4 -22q-4 -26 -46 -49zM568 318q0 -30 -8 -70q-25 -122 -107.5 -190t-207.5 -68q-87 0 -141 34l-56 -57l-27 27l53 55q-46 48 -46 129q0 30 8 70q25 122 107 190.5t207 68.5q85 0 138 -32l50 51l29 -28l-47 -48
q48 -48 48 -132zM133 174q0 -34 7 -58l297 306q-33 45 -94 45q-72 0 -126.5 -58.5t-75.5 -160.5q-8 -36 -8 -74zM462 324q0 35 -7 59l-298 -305q31 -48 96 -48q72 0 126 58t75 160q8 37 8 76z" />
    <glyph glyph-name="otilde" unicode="&#xf5;" horiz-adv-x="572" 
d="M317 690q22 0 40 -8t40 -23q19 -12 30.5 -17.5t22.5 -5.5q23 0 43 13.5t33 44.5h36q-36 -109 -123 -109q-18 0 -35.5 8t-41.5 23q-23 13 -34.5 18.5t-23.5 5.5q-21 0 -41.5 -15.5t-30.5 -40.5h-38q35 106 123 106zM84 39q-56 49 -56 139q0 30 8 70q25 122 107 190.5
t207 68.5q105 0 161.5 -49.5t56.5 -139.5q0 -30 -8 -70q-25 -122 -107.5 -190t-207.5 -68q-105 0 -161 49zM378 88q53 58 74 160q8 37 8 76q0 68 -30.5 105.5t-86.5 37.5q-72 0 -126 -58.5t-75 -160.5q-8 -36 -8 -75q0 -68 31 -105.5t88 -37.5q72 0 125 58z" />
    <glyph glyph-name="oe" unicode="&#x153;" horiz-adv-x="896" 
d="M83 39.5q-55 49.5 -55 138.5q0 30 8 70q25 121 107 190t201 69q54 0 95 -20t63 -55q83 75 204 75q197 0 197 -107q0 -13 -3 -30q-19 -98 -139 -139t-258 -44q-2 -72 31.5 -115.5t104.5 -43.5q39 0 85 13.5t83 37.5l5 -29q-34 -25 -89 -42.5t-115 -17.5q-122 0 -177 75
q-83 -75 -193 -75q-100 0 -155 49.5zM335 52.5q40 22.5 70 64.5q-9 29 -9 64q0 25 7 67q16 78 56 134q-14 41 -45 63t-73 22q-71 0 -124 -58t-74 -161q-9 -42 -9 -78q0 -67 30.5 -103.5t87.5 -36.5q43 0 83 22.5zM719 271q89 37 89 119q0 34 -25 55.5t-77 21.5
q-77 0 -126.5 -64t-67.5 -152q-4 -18 -5 -27q123 10 212 47z" />
    <glyph glyph-name="p" unicode="p" horiz-adv-x="596" 
d="M143 462q-38 8 -63 17l2 10l176 18l-33 -168q38 76 101 122t128 46t104 -38.5t39 -114.5q0 -38 -8 -75q-29 -141 -105.5 -215t-184.5 -74q-49 0 -83.5 17t-48.5 50l-57 -278l-109 -10zM412.5 94q46.5 64 67.5 168q12 59 12 100q0 105 -74 105q-30 0 -72 -31t-80.5 -82.5
t-61.5 -111.5l-15 -72q-3 -16 -3 -34q0 -47 27.5 -76.5t79.5 -29.5q73 0 119.5 64z" />
    <glyph glyph-name="thorn" unicode="&#xfe;" horiz-adv-x="596" 
d="M183 660q-38 8 -63 17l3 10l176 18l-74 -366q38 76 101 122t128 46t104 -38.5t39 -114.5q0 -38 -8 -75q-29 -141 -105.5 -215t-184.5 -74q-49 0 -83.5 17t-48.5 50l-57 -278l-109 -10zM412.5 94q46.5 64 67.5 168q12 59 12 100q0 105 -74 105q-30 0 -72 -31t-80.5 -82.5
t-61.5 -111.5l-15 -72q-3 -16 -3 -34q0 -47 27.5 -76.5t79.5 -29.5q73 0 119.5 64z" />
    <glyph glyph-name="q" unicode="q" horiz-adv-x="597" 
d="M403 187q-51 -92 -118.5 -144.5t-135.5 -52.5q-64 0 -94 41t-30 107q0 34 8 76q14 74 55 140.5t108 109.5t155 43q34 0 62 -14t44 -38l9 43h106l-146 -719l-108 -10zM290.5 85q48.5 49 88 114t47.5 103l20 101q-8 29 -31.5 48t-54.5 19q-53 0 -99 -37.5t-77.5 -96
t-44.5 -120.5q-6 -28 -6 -58q0 -52 18 -87t54 -35q37 0 85.5 49z" />
    <glyph glyph-name="r" unicode="r" horiz-adv-x="427" 
d="M458.5 500.5q13.5 -10.5 13.5 -30.5q0 -4 -2 -16q-2 -16 -15.5 -28.5t-30.5 -12.5q-15 0 -20.5 7t-8.5 20q-2 9 -4.5 13t-8.5 4q-66 0 -151 -128l-67 -329l-109 -10l97 472q-42 9 -63 18l1 8l177 19l-22 -110q31 49 78.5 81.5t96.5 32.5q25 0 38.5 -10.5z" />
    <glyph glyph-name="racute" unicode="&#x155;" horiz-adv-x="427" 
d="M209 584l-13 27l135 113q31 27 55 27q17 0 24.5 -10t4.5 -22q-6 -27 -46 -49zM458.5 500.5q13.5 -10.5 13.5 -30.5q0 -4 -2 -16q-2 -16 -15.5 -28.5t-30.5 -12.5q-15 0 -20.5 7t-8.5 20q-2 9 -4.5 13t-8.5 4q-66 0 -151 -128l-67 -329l-109 -10l97 472q-42 9 -63 18l1 8
l177 19l-22 -110q31 49 78.5 81.5t96.5 32.5q25 0 38.5 -10.5z" />
    <glyph glyph-name="rcaron" unicode="&#x159;" horiz-adv-x="427" 
d="M224 652.5q-33 39.5 -60 61.5l51 36q25 -23 50.5 -56t37.5 -59h5q23 26 62.5 59t73.5 56l37 -36q-37 -23 -86.5 -62.5t-72.5 -67.5h-51q-14 29 -47 68.5zM458.5 500.5q13.5 -10.5 13.5 -30.5q0 -4 -2 -16q-2 -16 -15.5 -28.5t-30.5 -12.5q-15 0 -20.5 7t-8.5 20
q-2 9 -4.5 13t-8.5 4q-66 0 -151 -128l-67 -329l-109 -10l97 472q-42 9 -63 18l1 8l177 19l-22 -110q31 49 78.5 81.5t96.5 32.5q25 0 38.5 -10.5z" />
    <glyph glyph-name="rcommaaccent" unicode="&#x157;" horiz-adv-x="427" 
d="M458.5 500.5q13.5 -10.5 13.5 -30.5q0 -4 -2 -16q-2 -16 -15.5 -28.5t-30.5 -12.5q-15 0 -20.5 7t-8.5 20q-2 9 -4.5 13t-8.5 4q-66 0 -151 -128l-67 -329l-109 -10l97 472q-42 9 -63 18l1 8l177 19l-22 -110q31 49 78.5 81.5t96.5 32.5q25 0 38.5 -10.5zM150 -121
q0 -14 -2 -22q-10 -46 -42 -97.5t-72 -83.5l-30 29q24 21 45 51.5t31 60.5q-52 0 -52 40q0 32 22 51t50 19q50 0 50 -48z" />
    <glyph glyph-name="uni1E5B" unicode="&#x1e5b;" horiz-adv-x="427" 
d="M458.5 500.5q13.5 -10.5 13.5 -30.5q0 -4 -2 -16q-2 -16 -15.5 -28.5t-30.5 -12.5q-15 0 -20.5 7t-8.5 20q-2 9 -4.5 13t-8.5 4q-66 0 -151 -128l-67 -329l-109 -10l97 472q-42 9 -63 18l1 8l177 19l-22 -110q31 49 78.5 81.5t96.5 32.5q25 0 38.5 -10.5zM128.5 -67.5
q10.5 -10.5 10.5 -27.5q0 -4 -2 -14q-4 -22 -20.5 -36.5t-38.5 -14.5q-18 0 -28.5 11t-10.5 29q0 7 1 11q5 23 21.5 37.5t37.5 14.5q19 0 29.5 -10.5z" />
    <glyph glyph-name="uni1E5D" unicode="&#x1e5d;" horiz-adv-x="427" 
d="M446 584h-337l8 40h337zM458.5 500.5q13.5 -10.5 13.5 -30.5q0 -4 -2 -16q-2 -16 -15.5 -28.5t-30.5 -12.5q-15 0 -20.5 7t-8.5 20q-2 9 -4.5 13t-8.5 4q-66 0 -151 -128l-67 -329l-109 -10l97 472q-42 9 -63 18l1 8l177 19l-22 -110q31 49 78.5 81.5t96.5 32.5
q25 0 38.5 -10.5zM127.5 -67.5q10.5 -10.5 10.5 -27.5q0 -4 -2 -14q-4 -22 -20.5 -36.5t-38.5 -14.5q-18 0 -28.5 11t-10.5 29q0 7 1 11q5 23 21.5 37.5t37.5 14.5q19 0 29.5 -10.5z" />
    <glyph glyph-name="uni1E5F" unicode="&#x1e5f;" horiz-adv-x="427" 
d="M458.5 500.5q13.5 -10.5 13.5 -30.5q0 -4 -2 -16q-2 -16 -15.5 -28.5t-30.5 -12.5q-15 0 -20.5 7t-8.5 20q-2 9 -4.5 13t-8.5 4q-66 0 -151 -128l-67 -329l-109 -10l97 472q-42 9 -63 18l1 8l177 19l-22 -110q31 49 78.5 81.5t96.5 32.5q25 0 38.5 -10.5zM-53 -66h337
l-8 -39h-336z" />
    <glyph glyph-name="s" unicode="s" horiz-adv-x="462" 
d="M59.5 12q-50.5 22 -50.5 69q0 5 2 19q2 13 15 25.5t33 12.5q16 0 25.5 -10.5t6.5 -24.5q-1 -5 -3.5 -12.5t-3.5 -11.5q-2 -10 10 -21.5t33 -19.5t47 -8q57 0 92.5 25t44.5 72q2 10 2 14q0 29 -25 46t-78 38q-44 18 -70.5 32t-45.5 38t-19 59q0 74 62.5 113.5t152.5 39.5
q74 0 124 -20.5t50 -66.5q0 -5 -2 -17q-3 -12 -15.5 -23t-31.5 -11q-17 0 -28 8.5t-7 22.5q1 4 3.5 11t3.5 12q4 17 -20 31t-63 14q-48 0 -79.5 -17t-39.5 -54q-2 -10 -2 -14q0 -30 25 -47.5t79 -40.5q44 -17 71 -32t46 -39.5t19 -59.5q0 -14 -3 -29q-15 -72 -79.5 -108.5
t-156.5 -36.5q-74 0 -124.5 22z" />
    <glyph glyph-name="sacute" unicode="&#x15b;" horiz-adv-x="462" 
d="M218 611l135 113q31 27 55 27q17 0 24.5 -10t4.5 -22q-6 -27 -46 -49l-160 -86zM59.5 12q-50.5 22 -50.5 69q0 5 2 19q2 13 15 25.5t33 12.5q16 0 25.5 -10.5t6.5 -24.5q-1 -5 -3.5 -12.5t-3.5 -11.5q-2 -10 10 -21.5t33 -19.5t47 -8q57 0 92.5 25t44.5 72q2 10 2 14
q0 29 -25 46t-78 38q-44 18 -70.5 32t-45.5 38t-19 59q0 74 62.5 113.5t152.5 39.5q74 0 124 -20.5t50 -66.5q0 -5 -2 -17q-3 -12 -15.5 -23t-31.5 -11q-17 0 -28 8.5t-7 22.5q1 4 3.5 11t3.5 12q4 17 -20 31t-63 14q-48 0 -79.5 -17t-39.5 -54q-2 -10 -2 -14
q0 -30 25 -47.5t79 -40.5q44 -17 71 -32t46 -39.5t19 -59.5q0 -14 -3 -29q-15 -72 -79.5 -108.5t-156.5 -36.5q-74 0 -124.5 22z" />
    <glyph glyph-name="scaron" unicode="&#x161;" horiz-adv-x="462" 
d="M240 651.5q-33 39.5 -60 62.5l50 36q25 -22 51 -55.5t38 -59.5h5q22 26 61.5 58.5t74.5 56.5l36 -36q-37 -22 -86 -61.5t-73 -68.5h-51q-13 28 -46 67.5zM59.5 12q-50.5 22 -50.5 69q0 5 2 19q2 13 15 25.5t33 12.5q16 0 25.5 -10.5t6.5 -24.5q-1 -5 -3.5 -12.5
t-3.5 -11.5q-2 -10 10 -21.5t33 -19.5t47 -8q57 0 92.5 25t44.5 72q2 10 2 14q0 29 -25 46t-78 38q-44 18 -70.5 32t-45.5 38t-19 59q0 74 62.5 113.5t152.5 39.5q74 0 124 -20.5t50 -66.5q0 -5 -2 -17q-3 -12 -15.5 -23t-31.5 -11q-17 0 -28 8.5t-7 22.5q1 4 3.5 11t3.5 12
q4 17 -20 31t-63 14q-48 0 -79.5 -17t-39.5 -54q-2 -10 -2 -14q0 -30 25 -47.5t79 -40.5q44 -17 71 -32t46 -39.5t19 -59.5q0 -14 -3 -29q-15 -72 -79.5 -108.5t-156.5 -36.5q-74 0 -124.5 22z" />
    <glyph glyph-name="scedilla" unicode="&#x15f;" horiz-adv-x="462" 
d="M414 486.5q50 -20.5 50 -66.5q0 -5 -2 -17q-3 -12 -15.5 -23t-31.5 -11q-17 0 -28 8.5t-7 22.5q1 4 3.5 11t3.5 12q4 17 -20 31t-63 14q-48 0 -79.5 -17t-39.5 -54q-2 -10 -2 -14q0 -30 25 -47.5t79 -40.5q44 -17 71 -32t46 -39.5t19 -59.5q0 -14 -3 -29
q-14 -65 -68.5 -101.5t-135.5 -42.5l-36 -54q46 0 69.5 -16t23.5 -44q0 -8 -1 -13q-10 -45 -49.5 -69.5t-92.5 -24.5q-23 0 -47 6t-39 17l24 32q25 -14 63 -14q72 0 84 53q4 21 -11.5 30t-39.5 9q-8 0 -24 -2l-15 30l40 59q-67 3 -111.5 25.5t-44.5 65.5q0 12 2 19
q2 13 15 25.5t33 12.5q16 0 25.5 -10.5t6.5 -24.5q-1 -5 -3.5 -12.5t-3.5 -11.5q-2 -10 10 -21.5t33 -19.5t47 -8q57 0 92.5 25t44.5 72q2 10 2 14q0 29 -25 46t-78 38q-44 18 -70.5 32t-45.5 38t-19 59q0 74 62.5 113.5t152.5 39.5q74 0 124 -20.5z" />
    <glyph glyph-name="scircumflex" unicode="&#x15d;" horiz-adv-x="462" 
d="M159 616q36 21 86 61t74 68h51q13 -28 46 -68t60 -61l-51 -37q-25 24 -51 57t-38 59h-5q-22 -25 -61 -58.5t-74 -57.5zM59.5 12q-50.5 22 -50.5 69q0 5 2 19q2 13 15 25.5t33 12.5q16 0 25.5 -10.5t6.5 -24.5q-1 -5 -3.5 -12.5t-3.5 -11.5q-2 -10 10 -21.5t33 -19.5
t47 -8q57 0 92.5 25t44.5 72q2 10 2 14q0 29 -25 46t-78 38q-44 18 -70.5 32t-45.5 38t-19 59q0 74 62.5 113.5t152.5 39.5q74 0 124 -20.5t50 -66.5q0 -5 -2 -17q-3 -12 -15.5 -23t-31.5 -11q-17 0 -28 8.5t-7 22.5q1 4 3.5 11t3.5 12q4 17 -20 31t-63 14q-48 0 -79.5 -17
t-39.5 -54q-2 -10 -2 -14q0 -30 25 -47.5t79 -40.5q44 -17 71 -32t46 -39.5t19 -59.5q0 -14 -3 -29q-15 -72 -79.5 -108.5t-156.5 -36.5q-74 0 -124.5 22z" />
    <glyph glyph-name="scommaaccent" unicode="&#x219;" horiz-adv-x="462" 
d="M59.5 12q-50.5 22 -50.5 69q0 5 2 19q2 13 15 25.5t33 12.5q16 0 25.5 -10.5t6.5 -24.5q-1 -5 -3.5 -12.5t-3.5 -11.5q-2 -10 10 -21.5t33 -19.5t47 -8q57 0 92.5 25t44.5 72q2 10 2 14q0 29 -25 46t-78 38q-44 18 -70.5 32t-45.5 38t-19 59q0 74 62.5 113.5t152.5 39.5
q74 0 124 -20.5t50 -66.5q0 -5 -2 -17q-3 -12 -15.5 -23t-31.5 -11q-17 0 -28 8.5t-7 22.5q1 4 3.5 11t3.5 12q4 17 -20 31t-63 14q-48 0 -79.5 -17t-39.5 -54q-2 -10 -2 -14q0 -30 25 -47.5t79 -40.5q44 -17 71 -32t46 -39.5t19 -59.5q0 -14 -3 -29q-15 -72 -79.5 -108.5
t-156.5 -36.5q-74 0 -124.5 22zM81 -280q24 23 45.5 53.5t30.5 60.5q-2 -1 -7 -1q-19 0 -31.5 12.5t-12.5 31.5q0 8 1 12q4 26 24.5 42t45.5 16q27 0 40 -14t13 -38q0 -6 -2 -20q-9 -46 -42.5 -99t-74.5 -85z" />
    <glyph glyph-name="uni1E61" unicode="&#x1e61;" horiz-adv-x="462" 
d="M280 593.5q-10 10.5 -10 27.5q0 9 1 13q5 23 21 37.5t37 14.5q18 0 29 -10.5t11 -27.5q0 -27 -18 -46t-43 -19q-18 0 -28 10.5zM60 12q-51 22 -51 69q0 5 2 19q3 13 15.5 25.5t32.5 12.5q16 0 25.5 -10.5t6.5 -24.5q-1 -5 -6 -24q-2 -10 9.5 -21.5t32.5 -19.5t47 -8
q57 0 92.5 25t44.5 72q2 10 2 14q0 29 -25 46t-78 38q-44 18 -70.5 32t-45.5 38t-19 59q0 74 62.5 113.5t152.5 39.5q74 0 124 -20.5t50 -66.5q0 -5 -2 -17q-3 -12 -15.5 -23t-31.5 -11q-17 0 -27.5 8.5t-7.5 22.5q1 4 3.5 11t3.5 12q4 17 -20 31t-62 14q-48 0 -80 -17
t-40 -54q-1 -5 -1 -14q0 -30 25 -47.5t79 -40.5q43 -18 70 -32.5t46 -39t19 -59.5q0 -14 -3 -29q-14 -72 -78 -108.5t-157 -36.5q-74 0 -125 22z" />
    <glyph glyph-name="uni1E63" unicode="&#x1e63;" horiz-adv-x="462" 
d="M60 12q-51 22 -51 69q0 5 2 19q3 13 15.5 25.5t32.5 12.5q16 0 25.5 -10.5t6.5 -24.5q-1 -5 -6 -24q-2 -10 9.5 -21.5t32.5 -19.5t47 -8q57 0 92.5 25t44.5 72q2 10 2 14q0 29 -25 46t-78 38q-44 18 -70.5 32t-45.5 38t-19 59q0 74 62.5 113.5t152.5 39.5q74 0 124 -20.5
t50 -66.5q0 -5 -2 -17q-3 -12 -15.5 -23t-31.5 -11q-17 0 -27.5 8.5t-7.5 22.5q1 4 3.5 11t3.5 12q4 17 -20 31t-62 14q-48 0 -80 -17t-40 -54q-1 -5 -1 -14q0 -30 25 -47.5t79 -40.5q43 -18 70 -32.5t46 -39t19 -59.5q0 -14 -3 -29q-14 -72 -78 -108.5t-157 -36.5
q-74 0 -125 22zM130.5 -149.5q-10.5 10.5 -10.5 28.5q0 8 1 12q5 23 21.5 37.5t37.5 14.5q18 0 29 -10.5t11 -27.5q0 -27 -18 -46t-43 -19q-18 0 -28.5 10.5z" />
    <glyph glyph-name="germandbls" unicode="&#xdf;" horiz-adv-x="703" 
d="M476 335.5q22 -17.5 70 -40.5q38 -18 61.5 -32.5t40 -38t16.5 -57.5q0 -15 -3 -32q-14 -74 -73 -109.5t-149 -35.5q-74 0 -125 22.5t-51 69.5q0 6 2 18q3 13 15.5 25.5t32.5 12.5q16 0 25.5 -10.5t7.5 -24.5q-1 -5 -3.5 -12.5t-3.5 -11.5q-2 -10 9.5 -21.5t32.5 -19.5
t47 -8q50 0 81 24.5t39 63.5q2 12 2 17q0 31 -22 49.5t-69 41.5q-36 18 -58 32t-37.5 37t-15.5 56q0 16 3 32q11 51 55.5 79.5t101.5 36.5q7 42 7 73q0 123 -97 123q-41 0 -73.5 -28.5t-44.5 -85.5l-114 -559q-19 -93 -72.5 -140.5t-137.5 -47.5q-65 0 -95.5 20.5
t-30.5 56.5q0 6 2 20q3 14 14.5 26.5t27.5 12.5q19 0 25.5 -10t3.5 -24q-1 -5 -4 -11t-4 -10q0 -38 51 -38q42 0 69.5 32.5t38.5 85.5l94 463h-94l8 40h94l9 42q20 97 83 146t161 49q105 0 144.5 -48.5t39.5 -119.5q0 -30 -4 -54.5t-5 -27.5l-4 -18q-63 0 -104.5 -20.5
t-41.5 -64.5q0 -29 22 -46.5z" />
    <glyph glyph-name="uni0259" unicode="&#x259;" horiz-adv-x="529" 
d="M461.5 455q55.5 -52 55.5 -141q0 -33 -7 -65q-25 -119 -105.5 -189t-197.5 -70q-198 0 -198 108q0 14 3 29q20 98 139.5 139t257.5 44q2 72 -31 115.5t-104 43.5q-39 0 -85 -13.5t-83 -37.5l-5 29q34 25 89 42.5t115 17.5q101 0 156.5 -52zM333.5 94q49.5 64 67.5 152
l5 27q-122 -10 -211.5 -47.5t-89.5 -118.5q0 -34 25 -55.5t77 -21.5q77 0 126.5 64z" />
    <glyph glyph-name="t" unicode="t" horiz-adv-x="378" 
d="M180 101q-3 -13 -3 -24q0 -37 37 -37q27 0 53.5 31t48.5 80l23 -13q-61 -148 -178 -148q-36 0 -64.5 19t-28.5 60q0 11 3 24l75 365h-80l8 40h80l9 44q50 18 73 91h52l-27 -135h141l-7 -40h-143z" />
    <glyph glyph-name="tbar" unicode="&#x167;" horiz-adv-x="378" 
d="M252 458l-31 -154h126l-8 -39h-126l-33 -164q-3 -13 -3 -24q0 -37 37 -37q27 0 53.5 31t48.5 80l23 -13q-61 -148 -178 -148q-36 0 -64.5 19t-28.5 60q0 11 3 24l35 172h-70l7 39h71l32 154h-80l8 40h80l9 44q50 18 73 91h52l-27 -135h141l-7 -40h-143z" />
    <glyph glyph-name="tcaron" unicode="&#x165;" horiz-adv-x="540" 
d="M578 660.5q13 -14.5 13 -38.5q0 -47 -36.5 -107.5t-84.5 -97.5l-29 29q24 22 45 52t30 60l-6 -1q-21 0 -33 12t-12 32q0 33 21 53.5t51 20.5q28 0 41 -14.5zM261 498h141l-7 -40h-143l-72 -357q-3 -13 -3 -24q0 -37 37 -37q27 0 53.5 31t48.5 80l23 -13
q-61 -148 -178 -148q-36 0 -64.5 19t-28.5 60q0 11 3 24l75 365h-80l8 40h80l9 44q50 18 73 91h52z" />
    <glyph glyph-name="uni0163" unicode="&#x163;" horiz-adv-x="378" 
d="M180 101q-3 -13 -3 -24q0 -37 37 -37q27 0 53.5 31t48.5 80l23 -13q-50 -124 -142 -144l-38 -57h7q43 0 65.5 -16t22.5 -43q0 -9 -1 -14q-10 -45 -49.5 -69.5t-93.5 -24.5q-23 0 -47 6t-40 17l24 32q25 -14 63 -14q33 0 56.5 12.5t29.5 40.5q4 21 -12 30t-41 9
q-7 0 -23 -2l-16 30l41 60q-32 3 -54.5 22.5t-22.5 55.5q0 11 3 24l75 365h-80l8 40h80l9 44q50 18 73 91h52l-27 -135h141l-7 -40h-143z" />
    <glyph glyph-name="uni021B" unicode="&#x21b;" horiz-adv-x="378" 
d="M180 101q-3 -13 -3 -24q0 -37 37 -37q27 0 53.5 31t48.5 80l23 -13q-61 -148 -178 -148q-36 0 -64.5 19t-28.5 60q0 11 3 24l75 365h-80l8 40h80l9 44q50 18 73 91h52l-27 -135h141l-7 -40h-143zM211 -121q0 -14 -2 -22q-9 -46 -41 -97.5t-73 -83.5l-30 29q24 22 45.5 52
t30.5 60q-51 0 -51 41q0 9 1 14q6 26 26.5 40.5t43.5 14.5q50 0 50 -48z" />
    <glyph glyph-name="uni1E97" unicode="&#x1e97;" horiz-adv-x="378" 
d="M137.5 700.5q-9.5 10.5 -9.5 27.5q0 28 16.5 46.5t41.5 18.5q19 0 29.5 -10.5t10.5 -28.5q0 -26 -18 -45t-43 -19q-18 0 -27.5 10.5zM432.5 782.5q10.5 -10.5 10.5 -28.5q0 -26 -17.5 -45t-42.5 -19q-18 0 -28 10.5t-10 27.5q0 27 17 46t42 19q18 0 28.5 -10.5zM261 498
h141l-7 -40h-143l-72 -357q-3 -13 -3 -24q0 -37 37 -37q27 0 53.5 31t48.5 80l23 -13q-61 -148 -178 -148q-36 0 -64.5 19t-28.5 60q0 11 3 24l75 365h-80l8 40h80l9 44q50 18 73 91h52z" />
    <glyph glyph-name="uni1E6D" unicode="&#x1e6d;" horiz-adv-x="378" 
d="M180 101q-3 -13 -3 -24q0 -37 37 -37q27 0 53.5 31t48.5 80l23 -13q-61 -148 -178 -148q-36 0 -64.5 19t-28.5 60q0 11 3 24l75 365h-80l8 40h80l9 44q50 18 73 91h52l-27 -135h141l-7 -40h-143zM207 -67.5q11 -10.5 11 -27.5q0 -27 -18 -46t-44 -19q-18 0 -28 10.5
t-10 28.5q0 8 1 12q5 23 21.5 37.5t37.5 14.5q18 0 29 -10.5z" />
    <glyph glyph-name="uni1E6F" unicode="&#x1e6f;" horiz-adv-x="378" 
d="M180 101q-3 -13 -3 -24q0 -37 37 -37q27 0 53.5 31t48.5 80l23 -13q-61 -148 -178 -148q-36 0 -64.5 19t-28.5 60q0 11 3 24l75 365h-80l8 40h80l9 44q50 18 73 91h52l-27 -135h141l-7 -40h-143zM-27 -66h337l-8 -39h-337z" />
    <glyph glyph-name="u" unicode="u" horiz-adv-x="625" 
d="M640 140q-26 -65 -69 -107.5t-95 -42.5q-28 0 -47.5 19.5t-19.5 53.5q0 13 3 28l9 44q-40 -62 -95.5 -103.5t-117.5 -41.5q-135 0 -135 117q0 24 6 52l62 303q-40 9 -62 18l1 9l176 18l-70 -344q-7 -32 -7 -60q0 -39 17 -56t51 -17q37 0 88 46.5t100 126.5l59 295h107
l-82 -401q-3 -13 -3 -27q0 -13 4 -21.5t12 -8.5q18 0 45 36.5t42 74.5z" />
    <glyph glyph-name="uacute" unicode="&#xfa;" horiz-adv-x="625" 
d="M331 584l-13 27l135 113q31 27 55 27q15 0 22.5 -7.5t7.5 -18.5q0 -16 -11.5 -28.5t-35.5 -26.5zM640 140q-26 -65 -69 -107.5t-95 -42.5q-28 0 -47.5 19.5t-19.5 53.5q0 13 3 28l9 44q-40 -62 -95.5 -103.5t-117.5 -41.5q-135 0 -135 117q0 24 6 52l62 303q-40 9 -62 18
l1 9l176 18l-70 -344q-7 -32 -7 -60q0 -39 17 -56t51 -17q37 0 88 46.5t100 126.5l59 295h107l-82 -401q-3 -13 -3 -27q0 -13 4 -21.5t12 -8.5q18 0 45 36.5t42 74.5z" />
    <glyph glyph-name="ubreve" unicode="&#x16d;" horiz-adv-x="625" 
d="M290.5 608.5q-34.5 31.5 -30.5 95.5h63q-1 -6 -1 -17q0 -40 21.5 -54t55.5 -14q38 0 67.5 17.5t44.5 67.5h63q-21 -63 -69 -95t-114 -32t-100.5 31.5zM640 140q-26 -65 -69 -107.5t-95 -42.5q-28 0 -47.5 19.5t-19.5 53.5q0 13 3 28l9 44q-40 -62 -95.5 -103.5
t-117.5 -41.5q-135 0 -135 117q0 24 6 52l62 303q-40 9 -62 18l1 9l176 18l-70 -344q-7 -32 -7 -60q0 -39 17 -56t51 -17q37 0 88 46.5t100 126.5l59 295h107l-82 -401q-3 -13 -3 -27q0 -13 4 -21.5t12 -8.5q18 0 45 36.5t42 74.5z" />
    <glyph glyph-name="uni01D4" unicode="&#x1d4;" horiz-adv-x="625" 
d="M320.5 652.5q-33.5 39.5 -60.5 61.5l52 36q24 -22 49.5 -55t38.5 -60h4q24 26 63.5 59.5t72.5 55.5l37 -36q-37 -23 -86 -62.5t-73 -67.5h-50q-14 29 -47.5 68.5zM640 140q-26 -65 -69 -107.5t-95 -42.5q-28 0 -47.5 19.5t-19.5 53.5q0 13 3 28l9 44
q-40 -62 -95.5 -103.5t-117.5 -41.5q-135 0 -135 117q0 24 6 52l62 303q-40 9 -62 18l1 9l176 18l-70 -344q-7 -32 -7 -60q0 -39 17 -56t51 -17q37 0 88 46.5t100 126.5l59 295h107l-82 -401q-3 -13 -3 -27q0 -13 4 -21.5t12 -8.5q18 0 45 36.5t42 74.5z" />
    <glyph glyph-name="ucircumflex" unicode="&#xfb;" horiz-adv-x="625" 
d="M347 636.5q-39 -33.5 -74 -57.5l-37 37q36 21 86 61t74 68h50q14 -29 47 -68.5t60 -60.5l-51 -37q-25 23 -51 56.5t-38 59.5h-5q-22 -25 -61 -58.5zM640 140q-26 -65 -69 -107.5t-95 -42.5q-28 0 -47.5 19.5t-19.5 53.5q0 13 3 28l9 44q-40 -62 -95.5 -103.5
t-117.5 -41.5q-135 0 -135 117q0 24 6 52l62 303q-40 9 -62 18l1 9l176 18l-70 -344q-7 -32 -7 -60q0 -39 17 -56t51 -17q37 0 88 46.5t100 126.5l59 295h107l-82 -401q-3 -13 -3 -27q0 -13 4 -21.5t12 -8.5q18 0 45 36.5t42 74.5z" />
    <glyph glyph-name="udieresis" unicode="&#xfc;" horiz-adv-x="625" 
d="M251 594q-10 11 -10 28q0 8 1 12q5 23 21 37.5t37 14.5q18 0 29 -10.5t11 -27.5q0 -27 -18 -46t-44 -19q-17 0 -27 11zM468 593.5q-10 10.5 -10 27.5q0 9 1 13q5 23 21 37.5t37 14.5q18 0 29 -10.5t11 -27.5q0 -27 -18 -46t-43 -19q-18 0 -28 10.5zM640 140
q-26 -65 -69 -107.5t-95 -42.5q-28 0 -47.5 19.5t-19.5 53.5q0 13 3 28l9 44q-40 -62 -95.5 -103.5t-117.5 -41.5q-135 0 -135 117q0 24 6 52l62 303q-40 9 -62 18l1 9l176 18l-70 -344q-7 -32 -7 -60q0 -39 17 -56t51 -17q37 0 88 46.5t100 126.5l59 295h107l-82 -401
q-3 -13 -3 -27q0 -13 4 -21.5t12 -8.5q18 0 45 36.5t42 74.5z" />
    <glyph glyph-name="uni01D8" unicode="&#x1d8;" horiz-adv-x="625" 
d="M408 706l-13 27l117 100q9 9 23.5 18t29.5 9q14 0 22 -7.5t8 -18.5q0 -31 -47 -55zM254.5 594.5q-10.5 10.5 -10.5 27.5q0 8 1 13q5 22 21 36.5t37 14.5q18 0 29 -10.5t11 -27.5q0 -3 -2 -13q-5 -23 -20.5 -37t-37.5 -14q-18 0 -28.5 10.5zM478.5 667.5
q17.5 18.5 41.5 18.5q19 0 29.5 -10.5t10.5 -28.5q0 -27 -17 -45t-43 -18q-18 0 -28.5 10.5t-10.5 27.5q0 27 17.5 45.5zM640 140q-26 -65 -69 -107.5t-95 -42.5q-28 0 -47.5 19.5t-19.5 53.5q0 13 3 28l9 44q-40 -62 -95.5 -103.5t-117.5 -41.5q-135 0 -135 117q0 24 6 52
l62 303q-40 9 -62 18l1 9l176 18l-70 -344q-7 -32 -7 -60q0 -39 17 -56t51 -17q37 0 88 46.5t100 126.5l59 295h107l-82 -401q-3 -13 -3 -27q0 -13 4 -21.5t12 -8.5q18 0 45 36.5t42 74.5z" />
    <glyph glyph-name="uni01DA" unicode="&#x1da;" horiz-adv-x="625" 
d="M348.5 772q-30.5 34 -60.5 58l51 36q64 -58 86 -105h4q43 47 129 105l37 -36q-40 -25 -84.5 -59t-68.5 -61h-50q-13 28 -43.5 62zM253.5 594.5q-10.5 10.5 -10.5 27.5q0 8 1 13q5 22 21 36.5t37 14.5q18 0 29 -10.5t11 -27.5q0 -3 -2 -13q-5 -23 -20.5 -37t-37.5 -14
q-18 0 -28.5 10.5zM482 671.5q16 14.5 37 14.5q19 0 29.5 -10.5t10.5 -28.5q0 -27 -17 -45t-43 -18q-18 0 -28.5 10.5t-10.5 27.5q0 9 1 13q5 22 21 36.5zM640 140q-26 -65 -69 -107.5t-95 -42.5q-28 0 -47.5 19.5t-19.5 53.5q0 13 3 28l9 44q-40 -62 -95.5 -103.5
t-117.5 -41.5q-135 0 -135 117q0 24 6 52l62 303q-40 9 -62 18l1 9l176 18l-70 -344q-7 -32 -7 -60q0 -39 17 -56t51 -17q37 0 88 46.5t100 126.5l59 295h107l-82 -401q-3 -13 -3 -27q0 -13 4 -21.5t12 -8.5q18 0 45 36.5t42 74.5z" />
    <glyph glyph-name="uni01DC" unicode="&#x1dc;" horiz-adv-x="625" 
d="M292 819q0 15 12.5 29t31.5 14q15 0 23.5 -7t13 -13.5t6.5 -8.5l75 -100l-23 -27l-111 73q-28 19 -28 40zM253.5 594.5q-10.5 10.5 -10.5 27.5q0 8 1 13q5 22 21 36.5t37 14.5q18 0 29 -10.5t11 -27.5q0 -3 -2 -13q-5 -23 -20.5 -37t-37.5 -14q-18 0 -28.5 10.5z
M470.5 594.5q-10.5 10.5 -10.5 27.5q0 9 1 13q5 22 21 36.5t37 14.5q19 0 29.5 -10.5t10.5 -28.5q0 -27 -17 -45t-43 -18q-18 0 -28.5 10.5zM640 140q-26 -65 -69 -107.5t-95 -42.5q-28 0 -47.5 19.5t-19.5 53.5q0 13 3 28l9 44q-40 -62 -95.5 -103.5t-117.5 -41.5
q-135 0 -135 117q0 24 6 52l62 303q-40 9 -62 18l1 9l176 18l-70 -344q-7 -32 -7 -60q0 -39 17 -56t51 -17q37 0 88 46.5t100 126.5l59 295h107l-82 -401q-3 -13 -3 -27q0 -13 4 -21.5t12 -8.5q18 0 45 36.5t42 74.5z" />
    <glyph glyph-name="uni01D6" unicode="&#x1d6;" horiz-adv-x="625" 
d="M588 744h-328l8 40h328zM253.5 594.5q-10.5 10.5 -10.5 27.5q0 9 1 13q5 22 21 36.5t37 14.5q19 0 30 -10.5t11 -27.5q0 -3 -2 -13q-5 -23 -21 -37t-38 -14q-18 0 -28.5 10.5zM478 667q17 19 42 19q18 0 28.5 -10.5t10.5 -28.5q0 -27 -17 -45t-42 -18q-18 0 -28.5 10.5
t-10.5 27.5q0 26 17 45zM640 140q-26 -65 -69 -107.5t-95 -42.5q-28 0 -47.5 19.5t-19.5 53.5q0 13 3 28l9 44q-40 -62 -95.5 -103.5t-117.5 -41.5q-135 0 -135 117q0 24 6 52l62 303q-40 9 -62 18l1 9l176 18l-70 -344q-7 -32 -7 -60q0 -39 17 -56t51 -17q37 0 88 46.5
t100 126.5l59 295h107l-82 -401q-3 -13 -3 -27q0 -13 4 -21.5t12 -8.5q18 0 45 36.5t42 74.5z" />
    <glyph glyph-name="uni1EE5" unicode="&#x1ee5;" horiz-adv-x="625" 
d="M640 140q-26 -65 -69 -107.5t-95 -42.5q-28 0 -47.5 19.5t-19.5 53.5q0 13 3 28l9 44q-40 -62 -95.5 -103.5t-117.5 -41.5q-135 0 -135 117q0 24 6 52l62 303q-40 9 -62 18l1 9l176 18l-70 -344q-7 -32 -7 -60q0 -39 17 -56t51 -17q37 0 88 46.5t100 126.5l59 295h107
l-82 -401q-3 -13 -3 -27q0 -13 4 -21.5t12 -8.5q18 0 45 36.5t42 74.5zM290.5 -67.5q10.5 -10.5 10.5 -28.5q0 -26 -18 -45t-43 -19q-18 0 -28 10.5t-10 27.5q0 28 17 46.5t42 18.5q19 0 29.5 -10.5z" />
    <glyph glyph-name="ugrave" unicode="&#xf9;" horiz-adv-x="625" 
d="M317 719q3 13 14.5 22.5t28.5 9.5q15 0 23.5 -7t19.5 -19l89 -114l-23 -27l-124 86q-33 24 -28 49zM640 140q-26 -65 -69 -107.5t-95 -42.5q-28 0 -47.5 19.5t-19.5 53.5q0 13 3 28l9 44q-40 -62 -95.5 -103.5t-117.5 -41.5q-135 0 -135 117q0 24 6 52l62 303
q-40 9 -62 18l1 9l176 18l-70 -344q-7 -32 -7 -60q0 -39 17 -56t51 -17q37 0 88 46.5t100 126.5l59 295h107l-82 -401q-3 -13 -3 -27q0 -13 4 -21.5t12 -8.5q18 0 45 36.5t42 74.5z" />
    <glyph glyph-name="uni1EE7" unicode="&#x1ee7;" horiz-adv-x="625" 
d="M444 690.5q19 13.5 24 38.5q1 3 1 9q0 17 -12.5 27.5t-36.5 10.5q-29 0 -60 -16v33q38 17 81 17q37 0 61 -16t24 -48q0 -12 -2 -19q-12 -71 -100 -79l-23 -66h-45l15 95h27q27 0 46 13.5zM640 140q-26 -65 -69 -107.5t-95 -42.5q-28 0 -47.5 19.5t-19.5 53.5q0 13 3 28
l9 44q-40 -62 -95.5 -103.5t-117.5 -41.5q-135 0 -135 117q0 24 6 52l62 303q-40 9 -62 18l1 9l176 18l-70 -344q-7 -32 -7 -60q0 -39 17 -56t51 -17q37 0 88 46.5t100 126.5l59 295h107l-82 -401q-3 -13 -3 -27q0 -13 4 -21.5t12 -8.5q18 0 45 36.5t42 74.5z" />
    <glyph glyph-name="uhorn" unicode="&#x1b0;" horiz-adv-x="659" 
d="M759 608q0 -6 -1 -13.5t-2 -11.5q-9 -44 -54 -82.5t-111 -50.5l-72 -353q-3 -13 -3 -27q0 -13 4 -21.5t12 -8.5q18 0 45 36.5t42 74.5l21 -11q-26 -65 -69 -107.5t-95 -42.5q-28 0 -47.5 19.5t-19.5 53.5q0 13 3 28l9 44q-39 -62 -95 -103.5t-118 -41.5q-135 0 -135 117
q0 24 6 52l62 303q-40 9 -62 18l1 9l176 18l-70 -344q-7 -32 -7 -60q0 -39 17 -56t51 -17q37 0 88 47t100 127l53 258q-40 9 -62 18l2 11h141q51 0 81 14.5t43 45.5q-8 -4 -18 -4q-19 0 -29.5 10.5t-10.5 29.5q0 8 1 13q5 23 22 39.5t48 16.5q53 0 53 -48z" />
    <glyph glyph-name="uni1EE9" unicode="&#x1ee9;" horiz-adv-x="659" 
d="M341 584l-14 27l136 113q27 27 54 27q17 0 24.5 -10t4.5 -22q-6 -27 -46 -49zM759 608q0 -6 -1 -13.5t-2 -11.5q-9 -44 -54 -82.5t-111 -50.5l-72 -353q-3 -13 -3 -27q0 -13 4 -21.5t12 -8.5q18 0 45 36.5t42 74.5l21 -11q-26 -65 -69 -107.5t-95 -42.5q-28 0 -47.5 19.5
t-19.5 53.5q0 13 3 28l9 44q-39 -62 -95 -103.5t-118 -41.5q-135 0 -135 117q0 24 6 52l62 303q-40 9 -62 18l1 9l176 18l-70 -344q-7 -32 -7 -60q0 -39 17 -56t51 -17q37 0 88 47t100 127l53 258q-40 9 -62 18l2 11h141q51 0 81 14.5t43 45.5q-8 -4 -18 -4
q-19 0 -29.5 10.5t-10.5 29.5q0 8 1 13q5 23 22 39.5t48 16.5q53 0 53 -48z" />
    <glyph glyph-name="uni1EF1" unicode="&#x1ef1;" horiz-adv-x="659" 
d="M759 608q0 -6 -1 -13.5t-2 -11.5q-9 -44 -54 -82.5t-111 -50.5l-72 -353q-3 -13 -3 -27q0 -13 4 -21.5t12 -8.5q18 0 45 36.5t42 74.5l21 -11q-26 -65 -69 -107.5t-95 -42.5q-28 0 -47.5 19.5t-19.5 53.5q0 13 3 28l9 44q-39 -62 -95 -103.5t-118 -41.5q-135 0 -135 117
q0 24 6 52l62 303q-40 9 -62 18l1 9l176 18l-70 -344q-7 -32 -7 -60q0 -39 17 -56t51 -17q37 0 88 47t100 127l53 258q-40 9 -62 18l2 11h141q51 0 81 14.5t43 45.5q-8 -4 -18 -4q-19 0 -29.5 10.5t-10.5 29.5q0 8 1 13q5 23 22 39.5t48 16.5q53 0 53 -48zM300 -67.5
q11 -10.5 11 -27.5q0 -27 -18 -46t-43 -19q-18 0 -28.5 10.5t-10.5 28.5q0 8 1 12q5 23 21.5 37.5t37.5 14.5q18 0 29 -10.5z" />
    <glyph glyph-name="uni1EEB" unicode="&#x1eeb;" horiz-adv-x="659" 
d="M312 719q3 13 14.5 22.5t28.5 9.5q23 0 43 -26l90 -114l-23 -27l-125 86q-33 24 -28 49zM759 608q0 -6 -1 -13.5t-2 -11.5q-9 -44 -54 -82.5t-111 -50.5l-72 -353q-3 -13 -3 -27q0 -13 4 -21.5t12 -8.5q18 0 45 36.5t42 74.5l21 -11q-26 -65 -69 -107.5t-95 -42.5
q-28 0 -47.5 19.5t-19.5 53.5q0 13 3 28l9 44q-39 -62 -95 -103.5t-118 -41.5q-135 0 -135 117q0 24 6 52l62 303q-40 9 -62 18l1 9l176 18l-70 -344q-7 -32 -7 -60q0 -39 17 -56t51 -17q37 0 88 47t100 127l53 258q-40 9 -62 18l2 11h141q51 0 81 14.5t43 45.5
q-8 -4 -18 -4q-19 0 -29.5 10.5t-10.5 29.5q0 8 1 13q5 23 22 39.5t48 16.5q53 0 53 -48z" />
    <glyph glyph-name="uni1EED" unicode="&#x1eed;" horiz-adv-x="659" 
d="M448 690.5q19 13.5 23 38.5q1 4 1 10q0 16 -12.5 26.5t-36.5 10.5q-28 0 -59 -16v33q16 7 37.5 12t42.5 5q37 0 61.5 -16.5t24.5 -48.5q0 -4 -2 -18q-14 -71 -100 -79l-23 -66h-45l14 95h28q27 0 46 13.5zM759 608q0 -6 -1 -13.5t-2 -11.5q-9 -44 -54 -82.5t-111 -50.5
l-72 -353q-3 -13 -3 -27q0 -13 4 -21.5t12 -8.5q18 0 45 36.5t42 74.5l21 -11q-26 -65 -69 -107.5t-95 -42.5q-28 0 -47.5 19.5t-19.5 53.5q0 13 3 28l9 44q-39 -62 -95 -103.5t-118 -41.5q-135 0 -135 117q0 24 6 52l62 303q-40 9 -62 18l1 9l176 18l-70 -344
q-7 -32 -7 -60q0 -39 17 -56t51 -17q37 0 88 47t100 127l53 258q-40 9 -62 18l2 11h141q51 0 81 14.5t43 45.5q-8 -4 -18 -4q-19 0 -29.5 10.5t-10.5 29.5q0 8 1 13q5 23 22 39.5t48 16.5q53 0 53 -48z" />
    <glyph glyph-name="uni1EEF" unicode="&#x1eef;" horiz-adv-x="659" 
d="M289 624.5q-20 -15.5 -30 -40.5h-38q35 106 123 106q22 0 40 -8t40 -23q19 -12 30.5 -17.5t22.5 -5.5q23 0 43 13.5t33 44.5h35q-35 -109 -122 -109q-18 0 -35.5 8t-41.5 23q-23 13 -34.5 18.5t-23.5 5.5q-22 0 -42 -15.5zM759 608q0 -6 -1 -13.5t-2 -11.5
q-9 -44 -54 -82.5t-111 -50.5l-72 -353q-3 -13 -3 -27q0 -13 4 -21.5t12 -8.5q18 0 45 36.5t42 74.5l21 -11q-26 -65 -69 -107.5t-95 -42.5q-28 0 -47.5 19.5t-19.5 53.5q0 13 3 28l9 44q-39 -62 -95 -103.5t-118 -41.5q-135 0 -135 117q0 24 6 52l62 303q-40 9 -62 18l1 9
l176 18l-70 -344q-7 -32 -7 -60q0 -39 17 -56t51 -17q37 0 88 47t100 127l53 258q-40 9 -62 18l2 11h141q51 0 81 14.5t43 45.5q-8 -4 -18 -4q-19 0 -29.5 10.5t-10.5 29.5q0 8 1 13q5 23 22 39.5t48 16.5q53 0 53 -48z" />
    <glyph glyph-name="uhungarumlaut" unicode="&#x171;" horiz-adv-x="625" 
d="M229 583l-12 27l134 113q31 27 55 27q15 0 23 -7.5t8 -18.5q0 -16 -12 -28.5t-36 -26.5zM413 610l135 113q31 27 55 27q15 0 23 -7.5t8 -18.5q0 -15 -12 -28t-36 -27l-161 -86zM640 140q-26 -65 -69 -107.5t-95 -42.5q-28 0 -47.5 19.5t-19.5 53.5q0 13 3 28l9 44
q-40 -62 -95.5 -103.5t-117.5 -41.5q-135 0 -135 117q0 24 6 52l62 303q-40 9 -62 18l1 9l176 18l-70 -344q-7 -32 -7 -60q0 -39 17 -56t51 -17q37 0 88 46.5t100 126.5l59 295h107l-82 -401q-3 -13 -3 -27q0 -13 4 -21.5t12 -8.5q18 0 45 36.5t42 74.5z" />
    <glyph glyph-name="umacron" unicode="&#x16b;" horiz-adv-x="625" 
d="M562 584h-337l7 40h337zM640 140q-26 -65 -69 -107.5t-95 -42.5q-28 0 -47.5 19.5t-19.5 53.5q0 13 3 28l9 44q-40 -62 -95.5 -103.5t-117.5 -41.5q-135 0 -135 117q0 24 6 52l62 303q-40 9 -62 18l1 9l176 18l-70 -344q-7 -32 -7 -60q0 -39 17 -56t51 -17q37 0 88 46.5
t100 126.5l59 295h107l-82 -401q-3 -13 -3 -27q0 -13 4 -21.5t12 -8.5q18 0 45 36.5t42 74.5z" />
    <glyph glyph-name="uogonek" unicode="&#x173;" horiz-adv-x="625" 
d="M478.5 -40q-16.5 -21 -21.5 -43q-1 -4 -1 -12q0 -18 13.5 -28.5t36.5 -10.5q26 0 58 16l-9 -48q-40 -20 -93 -20q-44 0 -68 18t-24 48q0 31 22 63t57 52q-18 8 -29 25t-11 43q0 13 3 28l9 44q-40 -62 -95.5 -103.5t-117.5 -41.5q-135 0 -135 117q0 24 6 52l62 303
q-40 9 -62 18l1 9l176 18l-70 -344q-7 -32 -7 -60q0 -39 17 -56t51 -17q37 0 88 46.5t100 126.5l59 295h107l-82 -401q-3 -13 -3 -27q0 -13 4 -21.5t12 -8.5q18 0 45 36.5t42 74.5l21 -11q-21 -51 -52.5 -89.5t-70.5 -52.5q-22 -17 -38.5 -38z" />
    <glyph glyph-name="uring" unicode="&#x16f;" horiz-adv-x="625" 
d="M333 591.5q-21 18.5 -21 50.5q0 50 34 83t82 33q36 0 57 -19t21 -51q0 -50 -34 -82.5t-82 -32.5q-36 0 -57 18.5zM364.5 621q12.5 -12 32.5 -12q28 0 48 19t20 49q0 20 -12 32t-33 12q-27 0 -47.5 -19t-20.5 -49q0 -20 12.5 -32zM640 140q-26 -65 -69 -107.5t-95 -42.5
q-28 0 -47.5 19.5t-19.5 53.5q0 13 3 28l9 44q-40 -62 -95.5 -103.5t-117.5 -41.5q-135 0 -135 117q0 24 6 52l62 303q-40 9 -62 18l1 9l176 18l-70 -344q-7 -32 -7 -60q0 -39 17 -56t51 -17q37 0 88 46.5t100 126.5l59 295h107l-82 -401q-3 -13 -3 -27q0 -13 4 -21.5
t12 -8.5q18 0 45 36.5t42 74.5z" />
    <glyph glyph-name="utilde" unicode="&#x169;" horiz-adv-x="625" 
d="M288 624.5q-20 -15.5 -30 -40.5h-38q35 106 123 106q22 0 40 -8t40 -23q19 -12 30.5 -17.5t22.5 -5.5q23 0 43 13.5t33 44.5h36q-36 -109 -123 -109q-18 0 -35.5 8t-41.5 23q-23 13 -34.5 18.5t-23.5 5.5q-22 0 -42 -15.5zM640 140q-26 -65 -69 -107.5t-95 -42.5
q-28 0 -47.5 19.5t-19.5 53.5q0 13 3 28l9 44q-40 -62 -95.5 -103.5t-117.5 -41.5q-135 0 -135 117q0 24 6 52l62 303q-40 9 -62 18l1 9l176 18l-70 -344q-7 -32 -7 -60q0 -39 17 -56t51 -17q37 0 88 46.5t100 126.5l59 295h107l-82 -401q-3 -13 -3 -27q0 -13 4 -21.5
t12 -8.5q18 0 45 36.5t42 74.5z" />
    <glyph glyph-name="v" unicode="v" horiz-adv-x="558" 
d="M95.5 18.5q-26.5 28.5 -26.5 75.5q0 11 4 37l68 331q-40 9 -62 18l1 9l176 18l-74 -364q-4 -17 -4 -39q0 -33 13 -53.5t41 -20.5q41 0 88 50t84 125t51 143q9 45 9 76q0 40 -15 67q31 21 63 21q35 0 49.5 -17t14.5 -48q0 -19 -8 -61q-17 -85 -72 -177.5t-138 -155.5
t-179 -63q-57 0 -83.5 28.5z" />
    <glyph glyph-name="w" unicode="w" horiz-adv-x="773" 
d="M768.5 488.5q14.5 -23.5 14.5 -61.5q0 -25 -7 -62q-17 -85 -60 -170.5t-115.5 -145t-169.5 -59.5q-89 0 -92 81q-74 -81 -150 -81q-62 0 -89 25t-27 80q0 39 12 96l56 271q-40 9 -62 18l1 9l176 18l-70 -347q-9 -45 -9 -73q0 -31 12 -44t38 -13q24 0 54 23.5t61 64.5
l3 13l75 367h97l-76 -377q-7 -35 -7 -50q0 -21 9 -31t30 -10q31 0 69.5 38.5t70.5 98.5t45 121q14 67 14 124q0 54 -12 79q31 21 63 21q31 0 45.5 -23.5z" />
    </font>
</defs>
</svg>
