<?xml version="1.0" standalone="no"?>
<!DOCTYPE svg PUBLIC "-//W3C//DTD SVG 1.1//EN" "http://www.w3.org/Graphics/SVG/1.1/DTD/svg11.dtd" >
<svg>
<metadata>
Created by FontForge 20090622 at Wed Nov  1 21:56:23 2017
 By deploy user
Copyright 2014 Pria Ravichandran (pria.ravichandran@gmail.com)
</metadata>
<defs>
<font id="Catamaran-Thin" horiz-adv-x="572" >
  <font-face 
    font-family="Catamaran Thin"
    font-weight="250"
    font-stretch="normal"
    units-per-em="1000"
    panose-1="0 0 3 0 0 0 0 0 0 0"
    ascent="770"
    descent="-230"
    x-height="485"
    cap-height="680"
    bbox="-534 -377 2484 1320"
    underline-thickness="50"
    underline-position="-75"
    unicode-range="U+000D-U+FB02"
  />
<missing-glyph horiz-adv-x="628" 
d="M100 696v-696h428v696h-428zM478 657v-618h-329v618h329z" />
    <glyph glyph-name=".notdef" horiz-adv-x="628" 
d="M100 696v-696h428v696h-428zM478 657v-618h-329v618h329z" />
    <glyph glyph-name="nonmarkingreturn" unicode="&#xd;" horiz-adv-x="0" 
 />
    <glyph glyph-name="space" unicode=" " horiz-adv-x="240" 
 />
    <glyph glyph-name="uni0000" horiz-adv-x="0" 
 />
    <glyph glyph-name="uni0000" horiz-adv-x="0" 
 />
    <glyph glyph-name="uni00A0" unicode="&#xa0;" horiz-adv-x="230" 
 />
    <glyph glyph-name="uni200C" unicode="&#x200c;" horiz-adv-x="0" 
d="M-25 -68h49v1305h-49v-1305z" />
    <glyph glyph-name="uni200D" unicode="&#x200d;" horiz-adv-x="0" 
d="M0 1246l-73 74l-40 -40l74 -74l-74 -74l39 -39l49 43v-1204h49v1205l51 -44l39 39l-74 74l74 74l-40 40z" />
    <glyph glyph-name="uni25CC" unicode="&#x25cc;" horiz-adv-x="615" 
d="M328 467q8 8 8 21t-8 21.5t-21 8.5t-21 -8.5t-8 -21.5t8 -21t21 -8t21 8zM197 494q-8 -8 -8 -21t8 -21t21 -8t21 8t8 21t-8 21t-21 8t-21 -8zM418 452q8 8 8 21t-8 21t-21 8t-21 -8t-8 -21t8 -21t21 -8t21 8zM120.5 443.5q-8.5 -8.5 -8.5 -21.5t8.5 -21t21.5 -8t21 8
t8 21t-8 21.5t-21 8.5t-21.5 -8.5zM494.5 401q8.5 8 8.5 21t-8.5 21.5t-21.5 8.5t-21 -8.5t-8 -21.5t8 -21t21 -8t21.5 8zM72.5 364.5q-8.5 -8.5 -8.5 -21.5t8.5 -21t21.5 -8t21 8t8 21t-8 21.5t-21 8.5t-21.5 -8.5zM542 322q8 8 8 21t-8 21.5t-21 8.5t-21 -8.5t-8 -21.5
t8 -21t21 -8t21 8zM58.5 278.5q-8.5 -8.5 -8.5 -21.5t8.5 -20.5t21.5 -7.5t21 7.5t8 20.5t-8 21.5t-21 8.5t-21.5 -8.5zM556.5 236.5q8.5 7.5 8.5 20.5t-8.5 21.5t-21.5 8.5t-21 -8.5t-8 -21.5t8 -20.5t21 -7.5t21.5 7.5zM72.5 195q-8.5 -8 -8.5 -21t8.5 -21t21.5 -8t21 8
t8 21t-8 21t-21 8t-21.5 -8zM542 153q8 8 8 21t-8 21t-21 8t-21 -8t-8 -21t8 -21t21 -8t21 8zM119.5 115q-8.5 -8 -8.5 -21t8.5 -21t21.5 -8t21 8t8 21t-8 21t-21 8t-21.5 -8zM495.5 73q8.5 8 8.5 21t-8.5 21t-21.5 8t-21 -8t-8 -21t8 -21t21 -8t21.5 8zM197 65.5
q-8 -8.5 -8 -21.5t8 -21t21 -8t21 8t8 21t-8 21.5t-21 8.5t-21 -8.5zM418 23q8 8 8 21t-8 21.5t-21 8.5t-21 -8.5t-8 -21.5t8 -21t21 -8t21 8zM328 8q8 8 8 21t-8 21.5t-21 8.5t-21 -8.5t-8 -21.5t8 -21t21 -8t21 8z" />
    <glyph glyph-name="A" unicode="A" 
d="M257 680l-247 -680h49l77 213h295l81 -219l50 11l-259 675h-46zM417 252h-267l131 362z" />
    <glyph glyph-name="B" unicode="B" horiz-adv-x="565" 
d="M455 44q70 44 70 144q0 68 -36.5 111t-102.5 63q45 22 73 57.5t28 83.5q0 96 -64.5 136.5t-180.5 40.5h-142v-680h169q116 0 186 44zM388 608.5q47 -32.5 47 -106.5q0 -67 -54 -98t-140 -32h-91v269h104q87 0 134 -32.5zM425 296.5q48 -36.5 48 -110.5q0 -75 -53 -111
t-139 -36h-131v294h142q85 0 133 -36.5z" />
    <glyph glyph-name="C" unicode="C" horiz-adv-x="553" 
d="M447.5 684q-50.5 10 -87.5 10q-95 0 -165.5 -47.5t-107.5 -129t-37 -181.5q0 -96 33.5 -175.5t102 -127t168.5 -47.5q42 0 91.5 11t77.5 26l-24 36q-32 -14 -66.5 -22t-83.5 -8q-75 0 -130.5 42t-84.5 112.5t-29 153.5q0 94 33 165t90.5 109.5t129.5 39.5q49 0 78 -7
t67 -23l20 36q-25 17 -75.5 27z" />
    <glyph glyph-name="D" unicode="D" horiz-adv-x="662" 
d="M482.5 45.5q65.5 45.5 97.5 123.5t32 175q0 150 -70 243t-218 93h-224v-680h221q96 0 161.5 45.5zM458.5 601q51.5 -40 77 -107.5t25.5 -150.5q0 -87 -30 -156t-84.5 -108.5t-124.5 -39.5h-173v602h183q75 0 126.5 -40z" />
    <glyph glyph-name="E" unicode="E" horiz-adv-x="495" 
d="M475 0l-6 39h-320v290h245l-5 39h-240v273h303l-5 39h-347v-680h375z" />
    <glyph glyph-name="F" unicode="F" horiz-adv-x="463" 
d="M378 364h-229v277h294l-7 39h-336v-680h49v325h235z" />
    <glyph glyph-name="G" unicode="G" horiz-adv-x="614" 
d="M503 303v-251q-63 -23 -122 -23q-79 0 -142 39.5t-98.5 109.5t-35.5 158q0 91 37 163t102 113t146 41q48 0 78 -7t67 -22l19 33q-25 17 -77 27t-89 10q-96 0 -173.5 -46t-121 -127.5t-43.5 -184.5q0 -100 40 -179.5t115.5 -125t176.5 -45.5q43 0 92.5 13t77.5 32v311
h-196l-6 -39h153z" />
    <glyph glyph-name="H" unicode="H" horiz-adv-x="655" 
d="M555 0v680h-49v-316h-357v321l-49 -5v-680h49v325h357v-325h49z" />
    <glyph glyph-name="I" unicode="I" horiz-adv-x="249" 
d="M149 0v680h-49v-680h49z" />
    <glyph glyph-name="J" unicode="J" horiz-adv-x="237" 
d="M90 -12q-8 -21 -25.5 -32.5t-54.5 -25.5l24 -32q48 14 72 32t32.5 43.5t8.5 68.5v638h-49v-631q0 -40 -8 -61z" />
    <glyph glyph-name="K" unicode="K" horiz-adv-x="580" 
d="M508 0l-272 362l-87 -93v-269h-49v680h49v-355l336 370l34 -32l-250 -266l301 -397h-62z" />
    <glyph glyph-name="L" unicode="L" horiz-adv-x="491" 
d="M476 39h-327v641h-49v-680h381z" />
    <glyph glyph-name="M" unicode="M" horiz-adv-x="723" 
d="M373 249l201 317v-566h49v680h-27l-235 -362l-239 362h-22v-680h49v561l204 -316z" />
    <glyph glyph-name="N" unicode="N" horiz-adv-x="658" 
d="M149 0v574l14 -29l368 -545h27v680h-49v-569l-34 59l-347 510h-28v-680h49z" />
    <glyph glyph-name="O" unicode="O" horiz-adv-x="707" 
d="M199 649.5q-70 -46.5 -109.5 -128t-39.5 -184.5q0 -101 38.5 -181t107.5 -125t155 -45q87 0 157 46.5t109.5 128t39.5 184.5q0 101 -38.5 181t-107 125t-154.5 45q-88 0 -158 -46.5zM137.5 500q32.5 72 90 113t130.5 41q70 0 125.5 -40t87 -110.5t31.5 -159.5
q0 -91 -32.5 -163t-90 -113t-130.5 -41q-70 0 -125.5 40t-87 111t-31.5 160q0 90 32.5 162z" />
    <glyph glyph-name="P" unicode="P" horiz-adv-x="548" 
d="M149 264h103q113 0 184.5 53t71.5 158q0 106 -66 155.5t-179 49.5h-163v-680h49v264zM409.5 599.5q48.5 -40.5 48.5 -125.5q0 -82 -55 -126.5t-139 -44.5h-115v337h126q86 0 134.5 -40.5z" />
    <glyph glyph-name="Q" unicode="Q" horiz-adv-x="707" 
d="M633.5 199.5q-23.5 -67.5 -66.5 -116.5l83 -82l-32 -25l-82 77q-38 -33 -85 -50t-100 -17q-86 0 -155 45t-107.5 125t-38.5 181q0 103 39.5 184.5t109.5 128t158 46.5q86 0 154.5 -45t107 -125t38.5 -181q0 -78 -23.5 -145.5zM501 85l-96 91l34 33l93 -91q33 43 51.5 101
t18.5 125q0 89 -31.5 159.5t-87 110.5t-125.5 40q-73 0 -130.5 -41t-90 -113t-32.5 -162q0 -89 31.5 -160t87 -111t125.5 -40q88 0 152 58z" />
    <glyph glyph-name="R" unicode="R" 
d="M100 0h49v286h103q50 0 91 10l164 -296h55l-177 309q57 22 90 66.5t33 110.5q0 102 -65.5 148t-179.5 46h-163v-680zM404.5 603q53.5 -37 53.5 -119q0 -79 -60 -119t-144 -40h-105v315h116q86 0 139.5 -37z" />
    <glyph glyph-name="S" unicode="S" horiz-adv-x="504" 
d="M132.5 0.5q60.5 -13.5 104.5 -13.5q108 0 167.5 46.5t59.5 123.5q0 66 -43.5 112.5t-137.5 85.5q-93 39 -137 79.5t-44 95.5q0 53 43 89t113 36q46 0 77 -9t67 -25l22 36q-34 17 -77.5 28t-90.5 11q-63 0 -109.5 -21t-71.5 -57.5t-25 -82.5q0 -70 45 -118.5t137 -86.5
q94 -39 137.5 -78t43.5 -92q0 -35 -20.5 -65t-61 -48t-95.5 -18q-46 0 -90 11.5t-76 27.5l-15 -39q17 -15 77.5 -28.5z" />
    <glyph glyph-name="T" unicode="T" horiz-adv-x="534" 
d="M519 680h-509v-39h232v-641h49v641h233z" />
    <glyph glyph-name="U" unicode="U" horiz-adv-x="658" 
d="M90 680v-441q0 -73 28 -130t82 -89t129 -32q76 0 129.5 32t81.5 89t28 130v441h-49v-444q0 -58 -23 -105.5t-66 -74.5t-101 -27q-56 0 -99.5 27.5t-67 74.5t-23.5 105v444h-49z" />
    <glyph glyph-name="V" unicode="V" 
d="M60 685l-50 -11l259 -675h46l247 680h-49l-222 -614z" />
    <glyph glyph-name="W" unicode="W" horiz-adv-x="812" 
d="M802 679l-177 -680h-46l-172 594l-152 -594h-46l-199 675l50 11l171 -606l152 600h49l169 -600l152 600h49z" />
    <glyph glyph-name="X" unicode="X" horiz-adv-x="523" 
d="M68 0l193 311l193 -311h59l-215 337l215 343h-54l-188 -301l-185 312l-48 -23l199 -318l-227 -350h58z" />
    <glyph glyph-name="Y" unicode="Y" horiz-adv-x="530" 
d="M284 0v274l236 406h-57l-204 -359l-200 368l-49 -21l225 -399v-269h49z" />
    <glyph glyph-name="Z" unicode="Z" horiz-adv-x="539" 
d="M499 39h-420l430 592l-5 49h-457l10 -39h406l-433 -591l6 -50h468z" />
    <glyph glyph-name="a" unicode="a" horiz-adv-x="475" 
d="M171 449q29 8 73 8q57 0 86.5 -31.5t29.5 -84.5v-60h-135q-77 0 -125 -38.5t-48 -106.5q0 -66 42 -107.5t121 -41.5q44 0 83 18t65 47l8 -52h38v340q0 73 -43.5 115.5t-124.5 42.5q-33 0 -81 -12t-74 -30l19 -33q37 18 66 26zM134.5 214q31.5 30 94.5 30h131v-135
q-25 -37 -60.5 -59t-80.5 -22q-53 0 -84.5 31t-31.5 77q0 48 31.5 78z" />
    <glyph glyph-name="b" unicode="b" horiz-adv-x="512" 
d="M419.5 428q52.5 -70 52.5 -188q0 -113 -56 -183t-160 -70q-34 0 -70 15t-64 37l-14 -39h-28v696l49 10v-260q58 52 134 52q104 0 156.5 -70zM346.5 56.5q36.5 28.5 55.5 76.5t19 106q0 95 -40 156.5t-118 61.5q-44 0 -74 -16.5t-60 -48.5v-309q61 -55 129 -55
q52 0 88.5 28.5z" />
    <glyph glyph-name="c" unicode="c" horiz-adv-x="449" 
d="M361.5 49q-21.5 -11 -46.5 -16t-56 -5q-53 0 -91 29t-57.5 78.5t-19.5 110.5q0 57 21 105.5t60.5 77t91.5 28.5q40 0 67 -8.5t62 -25.5l20 33q-28 18 -72 30t-75 12q-70 0 -121 -32.5t-78 -90t-27 -130.5q0 -116 57 -187t162 -71q33 0 76.5 11.5t72.5 29.5l-20 34
q-5 -2 -26.5 -13z" />
    <glyph glyph-name="d" unicode="d" horiz-adv-x="512" 
d="M432 705v-705h-27l-18 43q-61 -56 -138 -56q-104 0 -156.5 70t-52.5 188q0 113 56 183t160 70q32 0 65.5 -13t61.5 -33v244zM323 44.5q30 16.5 60 48.5v309q-61 55 -129 55q-52 0 -88.5 -28.5t-55.5 -76.5t-19 -106q0 -95 40 -156.5t118 -61.5q44 0 74 16.5z" />
    <glyph glyph-name="e" unicode="e" horiz-adv-x="480" 
d="M416.5 373.5q-23.5 58.5 -66.5 91.5t-98 33q-103 0 -157.5 -69.5t-54.5 -183.5q0 -118 57.5 -188t172.5 -70q34 0 80.5 10.5t74.5 27.5l-20 37q-31 -16 -63 -25t-80 -9q-85 0 -127.5 60t-43.5 154h349q0 73 -23.5 131.5zM138.5 406.5q38.5 50.5 106.5 50.5
q67 0 101 -49.5t42 -128.5h-295q7 77 45.5 127.5z" />
    <glyph glyph-name="f" unicode="f" horiz-adv-x="264" 
d="M93 433v-433h49v433h109l-21 37h-88v109q0 82 69 82q9 0 22 -3t19 -6l12 37q-34 13 -66 13q-52 0 -78.5 -37t-26.5 -102v-93h-73v-37h73z" />
    <glyph glyph-name="g" unicode="g" horiz-adv-x="508" 
d="M432 485v-547q0 -75 -50 -121.5t-142 -46.5q-34 0 -86.5 12t-78.5 29l19 35q40 -18 71 -26.5t73 -8.5q64 0 104.5 30t40.5 87v111q-59 -52 -134 -52q-104 0 -156.5 70t-52.5 188q0 113 56 183t160 70q35 0 72 -16t65 -38l12 41h27zM323 44.5q30 16.5 60 48.5v309
q-61 55 -129 55q-52 0 -88.5 -28.5t-55.5 -76.5t-19 -106q0 -95 40 -156.5t118 -61.5q44 0 74 16.5z" />
    <glyph glyph-name="h" unicode="h" horiz-adv-x="510" 
d="M409 454.5q35 -43.5 35 -117.5v-337h-49v337q0 56 -20 88t-71 32q-79 0 -175 -98v-359h-49v696l49 10v-296q32 37 79.5 62.5t91.5 25.5q74 0 109 -43.5z" />
    <glyph glyph-name="i" unicode="i" horiz-adv-x="189" 
d="M122 611q11 11 11 27t-11.5 27t-27.5 11q-17 0 -27.5 -11t-10.5 -27t10.5 -27t27.5 -11t28 11zM119 0v485h-49v-485h49z" />
    <glyph glyph-name="j" unicode="j" horiz-adv-x="206" 
d="M73.5 611q-10.5 11 -10.5 27t10.5 27t27.5 11q16 0 27.5 -11t11.5 -27t-11 -27t-28 -11t-27.5 11zM126 -62q0 -46 -7.5 -74t-30.5 -48t-70 -35l-18 36q34 13 50 28t21.5 37.5t5.5 63.5v539h49v-547z" />
    <glyph glyph-name="k" unicode="k" horiz-adv-x="449" 
d="M129 0v206l74 74l187 -280h59l-213 313l155 154l-37 31l-225 -234v442l-49 -10v-696h49z" />
    <glyph glyph-name="l" unicode="l" horiz-adv-x="209" 
d="M129 0v706l-49 -10v-696h49z" />
    <glyph glyph-name="m" unicode="m" horiz-adv-x="776" 
d="M678 455q32 -43 32 -118v-337h-49v337q0 58 -17 89t-64 31q-70 0 -162 -90q1 -10 1 -30v-337h-49v337q0 58 -17 89t-64 31q-38 0 -81.5 -26.5t-88.5 -71.5v-359h-49v485h38l10 -76q31 36 80 62.5t87 26.5q98 0 125 -88q31 36 79.5 62t86.5 26q70 0 102 -43z" />
    <glyph glyph-name="n" unicode="n" horiz-adv-x="500" 
d="M119 359q96 98 175 98q51 0 71 -32t20 -88v-337h49v337q0 74 -35 117.5t-109 43.5q-44 0 -92 -26t-80 -63l-10 76h-38v-485h49v359z" />
    <glyph glyph-name="o" unicode="o" horiz-adv-x="523" 
d="M456.5 110.5q-26.5 -57.5 -77.5 -90.5t-120 -33q-105 1 -162 71.5t-57 186.5q0 72 26.5 129.5t77.5 90.5t121 33q105 -1 161.5 -71.5t56.5 -186.5q0 -72 -26.5 -129.5zM350.5 56.5q39.5 28.5 60.5 77t21 105.5q0 61 -19.5 110.5t-57.5 78.5t-91 29q-52 0 -91.5 -28.5
t-60.5 -77t-21 -105.5q0 -61 19.5 -110.5t57.5 -78.5t91 -29q52 0 91.5 28.5z" />
    <glyph glyph-name="p" unicode="p" horiz-adv-x="508" 
d="M415.5 428q52.5 -70 52.5 -188q0 -113 -56 -183t-160 -70q-32 0 -65.5 13t-61.5 33v-241l-49 -11v704h28l14 -46q62 59 141 59q104 0 156.5 -70zM342.5 56.5q36.5 28.5 55.5 76.5t19 106q0 95 -40 156.5t-118 61.5q-44 0 -74 -16.5t-60 -48.5v-309q61 -55 129 -55
q52 0 88.5 28.5z" />
    <glyph glyph-name="q" unicode="q" horiz-adv-x="508" 
d="M432 485v-693l-49 -11v258q-59 -52 -134 -52q-104 0 -156.5 70t-52.5 188q0 113 56 183t160 70q35 0 71.5 -15.5t64.5 -37.5l13 40h27zM323 44.5q30 16.5 60 48.5v309q-61 55 -129 55q-52 0 -88.5 -28.5t-55.5 -76.5t-19 -106q0 -95 40 -156.5t118 -61.5q44 0 74 16.5z
" />
    <glyph glyph-name="r" unicode="r" horiz-adv-x="302" 
d="M119 357q31 34 80.5 62t92.5 28l-17 38q-34 0 -79.5 -24.5t-79.5 -52.5l-18 77h-28v-485h49v357z" />
    <glyph glyph-name="s" unicode="s" horiz-adv-x="406" 
d="M111.5 -2.5q43.5 -10.5 77.5 -10.5q177 0 177 136q0 47 -39.5 81.5t-107.5 61.5q-58 23 -90 47t-32 55q0 36 31.5 62.5t81.5 26.5q39 0 64 -8.5t60 -25.5l20 35q-24 17 -64.5 28.5t-72.5 11.5q-79 0 -123 -37.5t-44 -96.5q0 -80 141 -135q128 -50 128 -110
q0 -42 -34 -66.5t-94 -24.5q-34 0 -64.5 10t-66.5 28l-18 -41q26 -17 69.5 -27.5z" />
    <glyph glyph-name="t" unicode="t" horiz-adv-x="292" 
d="M141 470v153l-49 -22v-131h-72v-37h72v-317q0 -62 28 -95.5t76 -33.5q19 0 39 5q24 7 27 7l-12 38q-21 -9 -41 -9q-34 0 -51 27.5t-17 67.5v310h109l-21 37h-88z" />
    <glyph glyph-name="u" unicode="u" horiz-adv-x="500" 
d="M381 126q-96 -98 -175 -98q-51 0 -71 32t-20 88v337h-49v-337q0 -74 35 -117.5t109 -43.5q44 0 92 26t80 63l10 -76h38v485h-49v-359z" />
    <glyph glyph-name="v" unicode="v" horiz-adv-x="430" 
d="M240 0l180 485h-50l-154 -429l-160 436l-46 -18l183 -474h47z" />
    <glyph glyph-name="w" unicode="w" horiz-adv-x="642" 
d="M488 0l144 485h-50l-116 -421l-126 421h-42l-123 -421l-119 427l-46 -18l143 -473h47l115 409l126 -409h47z" />
    <glyph glyph-name="x" unicode="x" horiz-adv-x="405" 
d="M66 0l130 207l131 -207h55l-147 232l160 253h-54l-132 -218l-136 227l-43 -20l141 -230l-161 -244h56z" />
    <glyph glyph-name="y" unicode="y" horiz-adv-x="430" 
d="M126.5 -149q-23.5 -19 -63.5 -32l5 -38q48 10 83 38t50 69l219 597h-50l-154 -429l-160 435l-46 -18l183 -473l-31 -98q-12 -32 -35.5 -51z" />
    <glyph glyph-name="z" unicode="z" horiz-adv-x="432" 
d="M401 485h-344l16 -37h277l-322 -417l8 -31h362l-10 37h-309l325 416z" />
    <glyph glyph-name="fi" unicode="&#xfb01;" horiz-adv-x="453" 
d="M93 433v-433h49v433h109l-21 37h-88v109q0 82 69 82q9 0 22 -3t19 -6l12 37q-34 13 -66 13q-52 0 -78.5 -37t-26.5 -102v-93h-73v-37h73zM386 611q11 11 11 27t-11.5 27t-27.5 11q-17 0 -27.5 -11t-10.5 -27t10.5 -27t27.5 -11t28 11zM383 0v485h-49v-485h49z" />
    <glyph glyph-name="fl" unicode="&#xfb02;" horiz-adv-x="473" 
d="M93 433v-433h49v433h109l-21 37h-88v109q0 82 69 82q9 0 22 -3t19 -6l12 37q-34 13 -66 13q-52 0 -78.5 -37t-26.5 -102v-93h-73v-37h73zM393 0v706l-49 -10v-696h49z" />
    <glyph glyph-name="zero" unicode="0" horiz-adv-x="570" 
d="M71.5 133q31.5 -69 87.5 -107.5t127 -38.5q70 0 125.5 39t87 108t31.5 155q0 83 -31.5 149t-87 103.5t-125.5 37.5q-71 0 -127 -37.5t-87.5 -104t-31.5 -149.5q0 -86 31.5 -155zM116 418q25 56 69.5 88t100.5 32q55 0 99 -32.5t69 -90t25 -129.5q0 -74 -25 -133t-69 -92
t-99 -33q-56 0 -100.5 34t-69.5 94t-25 135q0 71 25 127z" />
    <glyph glyph-name="one" unicode="1" horiz-adv-x="300" 
d="M220 0v566h-35l-175 -85l18 -36l143 63v-508h49z" />
    <glyph glyph-name="two" unicode="2" horiz-adv-x="470" 
d="M118.5 564q-43.5 -15 -80.5 -37l22 -34q36 21 72.5 33.5t84.5 12.5q65 0 107.5 -34.5t42.5 -87.5q0 -48 -24.5 -85t-92.5 -94l-225 -188v-50h425l-8 39h-367l195 157q76 62 112.5 114.5t36.5 107.5q0 46 -26 82.5t-71.5 57.5t-102.5 21t-100.5 -15z" />
    <glyph glyph-name="three" unicode="3" horiz-adv-x="447" 
d="M11 520l31 -31q75 49 160 49q40 0 71.5 -17.5t48.5 -46t17 -58.5q0 -58 -48 -94t-131 -36h-34l10 -39h18q100 0 148.5 -38t48.5 -105q0 -39 -22.5 -71t-59 -50t-76.5 -18q-51 0 -86 11t-74 34l-33 -34q39 -22 88.5 -37t101.5 -15q63 0 111 24t74.5 65.5t26.5 92.5
q0 60 -34.5 104.5t-91.5 57.5q49 16 81.5 56.5t32.5 92.5q0 43 -21 80t-63 59.5t-101 22.5q-101 0 -194 -59z" />
    <glyph glyph-name="four" unicode="4" horiz-adv-x="512" 
d="M492 113h-117v458h-28l-337 -446l9 -51h307v-143h49v143h109zM326 470v-357h-266z" />
    <glyph glyph-name="five" unicode="5" horiz-adv-x="491" 
d="M174 271.5q36 17.5 73 17.5q69 0 110.5 -43.5t41.5 -115.5q0 -74 -46.5 -119.5t-128.5 -45.5q-84 0 -160 45l-24 -36q94 -50 180 -50q73 0 125 28t79 74.5t27 103.5q0 87 -52 143.5t-156 56.5q-26 0 -57 -10.5t-57 -30.5l11 238h269l3 39h-317l-15 -336h36q22 24 58 41.5
z" />
    <glyph glyph-name="six" unicode="6" horiz-adv-x="492" 
d="M359.5 359.5q45.5 -27.5 69 -72.5t23.5 -97t-25.5 -99t-70.5 -75.5t-102 -28.5q-97 0 -155.5 71.5t-58.5 201.5q0 107 48.5 188t125 128t161.5 58l18 -40q-62 -3 -128 -39t-114.5 -99t-60.5 -142q69 73 163 73q61 0 106.5 -27.5zM331 50.5q34 22.5 52 59t18 75.5
q0 69 -40 115t-108 46q-48 0 -94 -27t-72 -63q3 -110 45.5 -169t119.5 -59q45 0 79 22.5z" />
    <glyph glyph-name="seven" unicode="7" horiz-adv-x="429" 
d="M169 -69l240 606l-22 29h-377l8 -39h342l-237 -576z" />
    <glyph glyph-name="eight" unicode="8" horiz-adv-x="501" 
d="M114.5 596.5q-46.5 -46.5 -46.5 -115.5q0 -48 30.5 -85.5t78.5 -56.5q-37 -8 -68.5 -35t-50 -63t-18.5 -72q0 -79 54 -130.5t157 -51.5q68 0 115.5 25t71 66t23.5 91q0 61 -40.5 109t-95.5 61q45 20 76.5 57.5t31.5 84.5q0 42 -19.5 79t-60.5 60t-102 23
q-90 0 -136.5 -46.5zM349 567.5q35 -34.5 35 -83.5q0 -42 -36.5 -78.5t-96.5 -45.5q-61 9 -97 44.5t-36 79.5q0 48 33.5 83t96.5 35q66 0 101 -34.5zM368.5 264q41.5 -43 41.5 -102q0 -38 -21.5 -68.5t-58 -48t-79.5 -17.5q-45 0 -81.5 17.5t-57.5 48.5t-21 68
q0 60 41.5 102.5t118.5 51.5q76 -9 117.5 -52z" />
    <glyph glyph-name="nine" unicode="9" horiz-adv-x="492" 
d="M393.5 506.5q58.5 -71.5 58.5 -201.5q0 -107 -48.5 -188t-125 -128t-161.5 -58l-18 40q62 3 128 39t114.5 99t60.5 142q-69 -73 -163 -73q-61 0 -106.5 27.5t-69 72.5t-23.5 97t25.5 99t70.5 75.5t102 28.5q97 0 155.5 -71.5zM333 246q46 27 72 63q-3 110 -45.5 169
t-119.5 59q-45 0 -79 -22.5t-52 -59t-18 -75.5q0 -69 40 -115t108 -46q48 0 94 27z" />
    <glyph glyph-name="grave" unicode="`" horiz-adv-x="137" 
d="M95 589l32 11l-56 142h-61z" />
    <glyph glyph-name="dieresis" unicode="&#xa8;" horiz-adv-x="253" 
d="M73 628.5q11 10.5 11 26.5q0 15 -11 25.5t-26 10.5q-17 0 -27 -10t-10 -26t10 -26.5t27 -10.5q15 0 26 10.5zM232 628.5q11 10.5 11 26.5q0 15 -11 25.5t-26 10.5q-17 0 -27 -10t-10 -26t10 -26.5t27 -10.5q15 0 26 10.5z" />
    <glyph glyph-name="macron" unicode="&#xaf;" horiz-adv-x="261" 
d="M10 640h241l-6 37h-235v-37z" />
    <glyph glyph-name="acute" unicode="&#xb4;" horiz-adv-x="137" 
d="M42 589l85 153h-61l-56 -142z" />
    <glyph glyph-name="circumflex" unicode="&#x2c6;" horiz-adv-x="271" 
d="M137 707l83 -118l41 14l-105 139h-40l-106 -143l41 -10z" />
    <glyph glyph-name="caron" unicode="&#x2c7;" horiz-adv-x="271" 
d="M137 624l-86 118l-41 -10l106 -143h40l105 139l-41 14z" />
    <glyph glyph-name="breve" unicode="&#x2d8;" horiz-adv-x="280" 
d="M205 666.5q-24 -26.5 -65 -26.5q-40 0 -64.5 27t-24.5 64h-41q0 -53 35 -91.5t95 -38.5q62 0 96 38t34 92h-41q0 -38 -24 -64.5z" />
    <glyph glyph-name="dotaccent" unicode="&#x2d9;" horiz-adv-x="97" 
d="M75.5 629q11.5 11 11.5 27t-11.5 27t-27.5 11q-17 0 -27.5 -11t-10.5 -27t10.5 -27t27.5 -11q16 0 27.5 11z" />
    <glyph glyph-name="ring" unicode="&#x2da;" horiz-adv-x="197" 
d="M36.5 735q-26.5 -24 -26.5 -60q0 -35 26 -58t63 -23t62.5 23t25.5 58q0 36 -26 60t-62 24t-62.5 -24zM63 638.5q-14 14.5 -14 36.5q0 23 14 38t36 15t35.5 -15t13.5 -38q0 -22 -13.5 -36.5t-35.5 -14.5t-36 14.5z" />
    <glyph glyph-name="tilde" unicode="&#x2dc;" horiz-adv-x="299" 
d="M237.5 660.5q-11.5 -14.5 -31.5 -14.5q-25 0 -48 29q-22 28 -65 28q-36 0 -59.5 -23t-23.5 -68h39q5 53 45 53q25 0 52 -28q26 -29 60 -29q36 0 59.5 23t23.5 68h-38q-2 -24 -13.5 -38.5z" />
    <glyph glyph-name="hungarumlaut" unicode="&#x2dd;" horiz-adv-x="265" 
d="M42 589l85 153h-61l-56 -142zM170 589l85 153h-61l-56 -142z" />
    <glyph glyph-name="ogonek" unicode="&#x2db;" horiz-adv-x="205" 
d="M27.5 -50.5q-17.5 -32.5 -17.5 -60.5q0 -42 30 -69t75 -27q24 0 45.5 8.5t34.5 21.5l-22 27q-26 -21 -55 -21q-22 0 -42 16t-20 43q0 33 13 60t40 52l-37 4q-27 -22 -44.5 -54.5z" />
    <glyph glyph-name="cedilla" unicode="&#xb8;" horiz-adv-x="206" 
d="M127 -96q27 -19 27 -42q0 -19 -20 -33t-50 -14q-25 0 -59 14l-15 -31q12 -8 35 -13.5t42 -5.5q49 0 79 23.5t30 61.5q0 28 -24 52.5t-67 32.5l25 64h-41l-34 -90q45 0 72 -19z" />
    <glyph glyph-name="commaaccent" unicode="&#xf6c3;" horiz-adv-x="0" 
d="M-77 -32.5q-10 -11.5 -10 -27.5q0 -12 10 -25t26 -13q-1 -50 -61 -82l16 -25q41 20 63.5 57.5t22.5 83.5q0 16 -11 29.5t-28 13.5q-18 0 -28 -11.5z" />
    <glyph glyph-name="grave.case" horiz-adv-x="137" 
d="M95 739l32 11l-56 142h-61z" />
    <glyph glyph-name="dieresis.case" horiz-adv-x="253" 
d="M73 778.5q11 10.5 11 26.5q0 15 -11 25.5t-26 10.5q-17 0 -27 -10t-10 -26t10 -26.5t27 -10.5q15 0 26 10.5zM232 778.5q11 10.5 11 26.5q0 15 -11 25.5t-26 10.5q-17 0 -27 -10t-10 -26t10 -26.5t27 -10.5q15 0 26 10.5z" />
    <glyph glyph-name="macron.case" horiz-adv-x="261" 
d="M10 790h241l-5 37h-236v-37z" />
    <glyph glyph-name="acute.case" horiz-adv-x="137" 
d="M42 739l85 153h-61l-56 -142z" />
    <glyph glyph-name="circumflex.case" horiz-adv-x="271" 
d="M137 858l83 -118l41 14l-105 139h-40l-106 -143l41 -10z" />
    <glyph glyph-name="caron.case" horiz-adv-x="271" 
d="M137 774l-86 118l-41 -10l106 -143h40l105 139l-41 14z" />
    <glyph glyph-name="breve.case" horiz-adv-x="280" 
d="M205 816.5q-24 -26.5 -65 -26.5q-40 0 -64.5 27t-24.5 64h-41q0 -53 35 -91.5t95 -38.5q62 0 96 38t34 92h-41q0 -38 -24 -64.5z" />
    <glyph glyph-name="dotaccent.case" horiz-adv-x="97" 
d="M75.5 779q11.5 11 11.5 27t-11.5 27t-27.5 11q-17 0 -27.5 -11t-10.5 -27t10.5 -27t27.5 -11q16 0 27.5 11z" />
    <glyph glyph-name="ring.case" horiz-adv-x="197" 
d="M36.5 885q-26.5 -24 -26.5 -60q0 -35 26 -58t63 -23t62.5 23t25.5 58q0 36 -26 60t-62 24t-62.5 -24zM63 788.5q-14 14.5 -14 36.5q0 23 14 38t36 15t35.5 -15t13.5 -38q0 -22 -13.5 -36.5t-35.5 -14.5t-36 14.5z" />
    <glyph glyph-name="tilde.case" horiz-adv-x="299" 
d="M237.5 810.5q-11.5 -14.5 -31.5 -14.5q-25 0 -48 29q-22 28 -65 28q-36 0 -59.5 -23t-23.5 -68h39q5 53 45 53q25 0 52 -28q26 -29 60 -29q36 0 59.5 23t23.5 68h-38q-2 -24 -13.5 -38.5z" />
    <glyph glyph-name="hungarumlaut.case" horiz-adv-x="265" 
d="M42 739l85 153h-61l-56 -142zM170 739l85 153h-61l-56 -142z" />
    <glyph glyph-name="Thorn" unicode="&#xde;" horiz-adv-x="548" 
d="M442 550.5q66 -49.5 66 -155.5q0 -105 -71.5 -158t-184.5 -53h-103v-184h-49v680h49v-80h114q113 0 179 -49.5zM403 267.5q55 44.5 55 126.5q0 85 -48.5 125.5t-134.5 40.5h-126v-337h115q84 0 139 44.5z" />
    <glyph glyph-name="Eth" unicode="&#xd0;" horiz-adv-x="662" 
d="M542 587q70 -93 70 -243q0 -97 -32 -175t-97.5 -123.5t-161.5 -45.5h-221v314h-80l-10 39h90v327h224q148 0 218 -93zM446.5 78.5q54.5 39.5 84.5 108.5t30 156q0 83 -25.5 150.5t-77 107.5t-126.5 40h-183v-288h109l10 -39h-119v-275h173q70 0 124.5 39.5z" />
    <glyph glyph-name="AE" unicode="&#xc6;" horiz-adv-x="829" 
d="M434 0h375l-6 39h-320v290h245l-5 39h-240v273h303l-5 39h-355l-416 -675l50 -10l130 218h244v-213zM434 611v-359h-220z" />
    <glyph glyph-name="Dcroat" unicode="&#x110;" horiz-adv-x="662" 
d="M542 587q70 -93 70 -243q0 -97 -32 -175t-97.5 -123.5t-161.5 -45.5h-221v314h-80l-10 39h90v327h224q148 0 218 -93zM446.5 78.5q54.5 39.5 84.5 108.5t30 156q0 83 -25.5 150.5t-77 107.5t-126.5 40h-183v-288h109l10 -39h-119v-275h173q70 0 124.5 39.5z" />
    <glyph glyph-name="Lslash" unicode="&#x141;" horiz-adv-x="491" 
d="M100 0v279l-68 -60l-22 36l90 78v347h49v-304l110 96l22 -34l-132 -116v-283h327l5 -39h-381z" />
    <glyph glyph-name="OE" unicode="&#x152;" horiz-adv-x="892" 
d="M497 0v12q-31 -11 -70 -18.5t-73 -7.5q-100 0 -168.5 47.5t-102 127t-33.5 175.5q0 100 37 181.5t107.5 129t165.5 47.5q28 0 68 -6.5t69 -17.5v10h347l5 -39h-303v-273h240l5 -39h-245v-290h320l6 -39h-375zM432 36.5q34 7.5 65 21.5v565q-34 14 -63.5 21t-75.5 7
q-72 -1 -129.5 -39.5t-90.5 -109.5t-33 -165q0 -83 29 -153.5t84.5 -112.5t130.5 -42q49 0 83 7.5z" />
    <glyph glyph-name="Oslash" unicode="&#xd8;" horiz-adv-x="707" 
d="M511.5 651q68.5 -45 107 -125t38.5 -181q0 -103 -39.5 -184.5t-109.5 -128t-157 -46.5q-86 0 -155 45t-107.5 125t-38.5 181q0 103 39.5 184.5t109.5 128t158 46.5q86 0 154.5 -45zM134 184q29 -69 80 -110l238 559q-42 21 -94 21q-73 0 -130.5 -41t-90 -113t-32.5 -162
q0 -85 29 -154zM479.5 68q57.5 41 90 113t32.5 163q0 85 -28.5 153.5t-79.5 108.5l-238 -558q42 -21 93 -21q73 0 130.5 41z" />
    <glyph glyph-name="germandbls" unicode="&#xdf;" horiz-adv-x="544" 
d="M130 0v473q0 72 39 119t110 47q57 0 95.5 -36.5t38.5 -100.5q0 -65 -38.5 -97.5t-126.5 -32.5h-27v-39h45q85 0 133 -36.5t48 -110.5q0 -75 -52.5 -111t-138.5 -36h-51v-39h38q117 0 186.5 44t69.5 144q0 63 -36.5 107.5t-93.5 60.5q46 19 71 57t25 90q0 84 -53.5 130.5
t-135.5 46.5q-93 0 -144.5 -55t-51.5 -152v-473h50z" />
    <glyph glyph-name="eth" unicode="&#xf0;" horiz-adv-x="523" 
d="M432.5 475.5q50.5 -106.5 50.5 -235.5q0 -72 -26.5 -129.5t-77.5 -90.5t-120 -33q-105 1 -162 71.5t-57 186.5q0 72 26.5 129.5t77.5 90.5t121 33q72 -1 122 -39q-50 105 -148 179l-130 -66l-19 38l111 55q-49 31 -100 53l13 32q67 -27 128 -65l116 57l18 -35l-96 -48
q102 -77 152.5 -183.5zM350.5 56.5q39.5 28.5 60.5 77t21 105.5q0 82 -20 152q-69 66 -148 66q-52 0 -91.5 -28.5t-60.5 -77t-21 -105.5q0 -61 19.5 -110.5t57.5 -78.5t91 -29q52 0 91.5 28.5z" />
    <glyph glyph-name="thorn" unicode="&#xfe;" horiz-adv-x="508" 
d="M415.5 428q52.5 -70 52.5 -188q0 -113 -56 -183t-160 -70q-32 0 -65.5 13t-61.5 33v-241l-49 -11v915l49 10v-260q58 52 134 52q104 0 156.5 -70zM342.5 56.5q36.5 28.5 55.5 76.5t19 106q0 95 -40 156.5t-118 61.5q-44 0 -74 -16.5t-60 -48.5v-309q61 -55 129 -55
q52 0 88.5 28.5z" />
    <glyph glyph-name="florin" unicode="&#x192;" horiz-adv-x="293" 
d="M49 433h73v-376q0 -82 -69 -82q-9 0 -22 3t-19 6l-12 -37q34 -13 66 -13q52 0 78.5 37t26.5 102v360h109l-21 37h-88v109q0 82 69 82q9 0 22 -3t19 -6l12 37q-34 13 -66 13q-52 0 -78.5 -37t-26.5 -102v-93h-73v-37z" />
    <glyph glyph-name="ae" unicode="&#xe6;" horiz-adv-x="795" 
d="M657 37q32 9 63 25l20 -37q-28 -17 -74.5 -27.5t-80.5 -10.5q-66 0 -113.5 24t-75.5 68q-28 -45 -70.5 -68.5t-110.5 -23.5q-79 0 -121 41.5t-42 107.5q0 68 48 106.5t125 38.5h131q2 18 4 29v31q0 53 -29.5 84.5t-86.5 31.5q-44 0 -73 -8t-66 -26l-19 33q26 18 74 30
t81 12q60 0 99 -23t56 -65q27 42 70 65t101 23q55 0 98 -33t66.5 -91.5t23.5 -131.5h-349q1 -94 43.5 -154t127.5 -60q48 0 80 9zM453.5 406.5q-38.5 -50.5 -45.5 -127.5h295q-8 79 -42 128.5t-101 49.5q-68 0 -106.5 -50.5zM312.5 52.5q37.5 24.5 63.5 67.5q-21 54 -21 124
h-126q-63 0 -94.5 -30t-31.5 -78q0 -46 31.5 -77t84.5 -31q56 0 93.5 24.5z" />
    <glyph glyph-name="dcroat" unicode="&#x111;" horiz-adv-x="512" 
d="M500 580h-68v-580h-27l-18 43q-61 -56 -138 -56q-104 0 -156.5 70t-52.5 188q0 113 56 183t160 70q32 0 65.5 -13t61.5 -33v128h-131l-10 35h141v81l49 9v-90h58zM323 44.5q30 16.5 60 48.5v309q-61 55 -129 55q-52 0 -88.5 -28.5t-55.5 -76.5t-19 -106q0 -95 40 -156.5
t118 -61.5q44 0 74 16.5z" />
    <glyph glyph-name="oe" unicode="&#x153;" horiz-adv-x="758" 
d="M620 37q32 9 63 25l20 -37q-28 -17 -74.5 -27.5t-80.5 -10.5q-83 0 -141 40q-29 -17 -72.5 -28.5t-75.5 -11.5q-105 0 -162 71t-57 187q0 73 27 130.5t78 90t121 32.5q29 0 70 -10.5t70 -27.5q51 38 124 38q55 0 98 -33t66.5 -91.5t23.5 -131.5h-349q1 -94 43.5 -154
t127.5 -60q48 0 80 9zM110.5 135.5q19.5 -49.5 57.5 -78.5t91 -29q40 0 64.5 7t52.5 21q-58 68 -58 189q0 118 57 187q-25 12 -51 18.5t-60 6.5q-52 0 -91.5 -28.5t-60.5 -77t-21 -105.5q0 -61 19.5 -110.5zM416.5 406.5q-38.5 -50.5 -45.5 -127.5h295q-8 79 -42 128.5
t-101 49.5q-68 0 -106.5 -50.5z" />
    <glyph glyph-name="lacute" unicode="&#x13a;" horiz-adv-x="209" 
d="M116 739l85 153h-61l-56 -142zM129 0v684l-49 -10v-674h49z" />
    <glyph glyph-name="lslash" unicode="&#x142;" horiz-adv-x="271" 
d="M249 472l-89 -78v312l-49 -10v-345l-111 -96l22 -36l89 78v-297h49v340l111 98z" />
    <glyph glyph-name="dotlessi" unicode="&#x131;" horiz-adv-x="189" 
d="M119 0v485h-49v-485h49z" />
    <glyph glyph-name="oslash" unicode="&#xf8;" horiz-adv-x="523" 
d="M426.5 426.5q56.5 -70.5 56.5 -186.5q0 -72 -26.5 -129.5t-77.5 -90.5t-120 -33q-105 1 -162 71.5t-57 186.5q0 72 26.5 129.5t77.5 90.5t121 33q105 -1 161.5 -71.5zM107 145.5q16 -45.5 46 -75.5l190 366q-37 21 -79 21q-52 0 -91.5 -28.5t-60.5 -77t-21 -105.5
q0 -55 16 -100.5zM350.5 56.5q39.5 28.5 60.5 77t21 105.5q0 51 -13.5 94t-40.5 73l-188 -362q32 -16 69 -16q52 0 91.5 28.5z" />
    <glyph glyph-name="Agrave" unicode="&#xc0;" 
d="M257 680l-247 -680h49l77 213h295l81 -219l50 11l-259 675h-46zM417 252h-267l131 362zM286 739l32 11l-56 142h-61z" />
    <glyph glyph-name="Aacute" unicode="&#xc1;" 
d="M257 680l-247 -680h49l77 213h295l81 -219l50 11l-259 675h-46zM417 252h-267l131 362zM281 739l85 153h-61l-56 -142z" />
    <glyph glyph-name="Acircumflex" unicode="&#xc2;" 
d="M257 680l-247 -680h49l77 213h295l81 -219l50 11l-259 675h-46zM417 252h-267l131 362zM288 858l83 -118l41 14l-105 139h-40l-106 -143l41 -10z" />
    <glyph glyph-name="Atilde" unicode="&#xc3;" 
d="M257 680l-247 -680h49l77 213h295l81 -219l50 11l-259 675h-46zM417 252h-267l131 362zM363.5 810.5q-11.5 -14.5 -31.5 -14.5q-25 0 -48 29q-22 28 -65 28q-36 0 -59.5 -23t-23.5 -68h39q5 53 45 53q25 0 52 -28q26 -29 60 -29q36 0 59.5 23t23.5 68h-38
q-2 -24 -13.5 -38.5z" />
    <glyph glyph-name="Adieresis" unicode="&#xc4;" 
d="M257 680l-247 -680h49l77 213h295l81 -219l50 11l-259 675h-46zM417 252h-267l131 362zM225 778.5q11 10.5 11 26.5q0 15 -11 25.5t-26 10.5q-17 0 -27 -10t-10 -26t10 -26.5t27 -10.5q15 0 26 10.5zM384 778.5q11 10.5 11 26.5q0 15 -11 25.5t-26 10.5q-17 0 -27 -10
t-10 -26t10 -26.5t27 -10.5q15 0 26 10.5z" />
    <glyph glyph-name="Aring" unicode="&#xc5;" 
d="M257 680l-247 -680h49l77 213h295l81 -219l50 11l-259 675h-46zM417 252h-267l131 362zM216.5 885q-26.5 -24 -26.5 -60q0 -35 26 -58t63 -23t62.5 23t25.5 58q0 36 -26 60t-62 24t-62.5 -24zM243 788.5q-14 14.5 -14 36.5q0 23 14 38t36 15t35.5 -15t13.5 -38
q0 -22 -13.5 -36.5t-35.5 -14.5t-36 14.5z" />
    <glyph glyph-name="Abreve" unicode="&#x102;" 
d="M257 680l-247 -680h49l77 213h295l81 -219l50 11l-259 675h-46zM417 252h-267l131 362zM347 816.5q-24 -26.5 -65 -26.5q-40 0 -64.5 27t-24.5 64h-41q0 -53 35 -91.5t95 -38.5q62 0 96 38t34 92h-41q0 -38 -24 -64.5z" />
    <glyph glyph-name="Aogonek" unicode="&#x104;" 
d="M645 -172q-13 -13 -34.5 -21.5t-45.5 -8.5q-45 0 -75 27t-30 69q0 25 14 53.5t36 51.5l-79 214h-295l-77 -213h-49l247 680h46l259 -675q-56 -51 -56 -112q0 -27 20 -43t42 -16q29 0 55 21zM150 252h267l-136 362z" />
    <glyph glyph-name="Amacron" unicode="&#x100;" 
d="M257 680l-247 -680h49l77 213h295l81 -219l50 11l-259 675h-46zM417 252h-267l131 362zM158 790h241l-5 37h-236v-37z" />
    <glyph glyph-name="Ccedilla" unicode="&#xc7;" horiz-adv-x="553" 
d="M453.5 -1.5q-43.5 -10.5 -83.5 -12.5l-15 -37q43 -8 67 -32.5t24 -52.5q0 -38 -30 -61.5t-79 -23.5q-19 0 -42 5.5t-35 13.5l15 31q34 -14 59 -14q30 0 50 14t20 33q0 23 -27 42t-72 19l24 64q-92 6 -154.5 54.5t-93.5 125.5t-31 169q0 100 37 181.5t107.5 129
t165.5 47.5q37 0 87.5 -10t75.5 -27l-20 -36q-38 16 -67 23t-78 7q-72 -1 -129.5 -39.5t-90.5 -109.5t-33 -165q0 -83 29 -153.5t84.5 -112.5t130.5 -42q49 0 83.5 8t66.5 22l24 -36q-26 -14 -69.5 -24.5z" />
    <glyph glyph-name="Cacute" unicode="&#x106;" horiz-adv-x="553" 
d="M447.5 684q-50.5 10 -87.5 10q-95 0 -165.5 -47.5t-107.5 -129t-37 -181.5q0 -96 33.5 -175.5t102 -127t168.5 -47.5q42 0 91.5 11t77.5 26l-24 36q-32 -14 -66.5 -22t-83.5 -8q-75 0 -130.5 42t-84.5 112.5t-29 153.5q0 94 33 165t90.5 109.5t129.5 39.5q49 0 78 -7
t67 -23l20 36q-25 17 -75.5 27zM360 739l85 153h-61l-56 -142z" />
    <glyph glyph-name="Ccaron" unicode="&#x10c;" horiz-adv-x="553" 
d="M447.5 684q-50.5 10 -87.5 10q-95 0 -165.5 -47.5t-107.5 -129t-37 -181.5q0 -96 33.5 -175.5t102 -127t168.5 -47.5q42 0 91.5 11t77.5 26l-24 36q-32 -14 -66.5 -22t-83.5 -8q-75 0 -130.5 42t-84.5 112.5t-29 153.5q0 94 33 165t90.5 109.5t129.5 39.5q49 0 78 -7
t67 -23l20 36q-25 17 -75.5 27zM363 774l-86 118l-41 -10l106 -143h40l105 139l-41 14z" />
    <glyph glyph-name="Dcaron" unicode="&#x10e;" horiz-adv-x="662" 
d="M482.5 45.5q65.5 45.5 97.5 123.5t32 175q0 150 -70 243t-218 93h-224v-680h221q96 0 161.5 45.5zM458.5 601q51.5 -40 77 -107.5t25.5 -150.5q0 -87 -30 -156t-84.5 -108.5t-124.5 -39.5h-173v602h183q75 0 126.5 -40zM310 774l-86 118l-41 -10l106 -143h40l105 139
l-41 14z" />
    <glyph glyph-name="Egrave" unicode="&#xc8;" horiz-adv-x="495" 
d="M475 0l-6 39h-320v290h245l-5 39h-240v273h303l-5 39h-347v-680h375zM280 739l32 11l-56 142h-61z" />
    <glyph glyph-name="Eacute" unicode="&#xc9;" horiz-adv-x="495" 
d="M475 0l-6 39h-320v290h245l-5 39h-240v273h303l-5 39h-347v-680h375zM275 739l85 153h-61l-56 -142z" />
    <glyph glyph-name="Ecircumflex" unicode="&#xca;" horiz-adv-x="495" 
d="M475 0l-6 39h-320v290h245l-5 39h-240v273h303l-5 39h-347v-680h375zM282 858l83 -118l41 14l-105 139h-40l-106 -143l41 -10z" />
    <glyph glyph-name="Edieresis" unicode="&#xcb;" horiz-adv-x="495" 
d="M475 0l-6 39h-320v290h245l-5 39h-240v273h303l-5 39h-347v-680h375zM219 778.5q11 10.5 11 26.5q0 15 -11 25.5t-26 10.5q-17 0 -27 -10t-10 -26t10 -26.5t27 -10.5q15 0 26 10.5zM378 778.5q11 10.5 11 26.5q0 15 -11 25.5t-26 10.5q-17 0 -27 -10t-10 -26t10 -26.5
t27 -10.5q15 0 26 10.5z" />
    <glyph glyph-name="Emacron" unicode="&#x112;" horiz-adv-x="495" 
d="M475 0l-6 39h-320v290h245l-5 39h-240v273h303l-5 39h-347v-680h375zM152 790h241l-5 37h-236v-37z" />
    <glyph glyph-name="Edotaccent" unicode="&#x116;" horiz-adv-x="495" 
d="M475 0l-6 39h-320v290h245l-5 39h-240v273h303l-5 39h-347v-680h375zM300.5 779q11.5 11 11.5 27t-11.5 27t-27.5 11q-17 0 -27.5 -11t-10.5 -27t10.5 -27t27.5 -11q16 0 27.5 11z" />
    <glyph glyph-name="Eogonek" unicode="&#x118;" horiz-adv-x="495" 
d="M483 -177q-13 -13 -34.5 -21.5t-45.5 -8.5q-45 0 -75 27t-30 69q0 27 16 58t41 53h-255v680h347l5 -39h-303v-273h240l5 -39h-245v-290h320l6 -39h-78q-27 -25 -40 -52t-13 -60q0 -27 20 -43t42 -16q29 0 55 21z" />
    <glyph glyph-name="Ecaron" unicode="&#x11a;" horiz-adv-x="495" 
d="M475 0l-6 39h-320v290h245l-5 39h-240v273h303l-5 39h-347v-680h375zM278 774l-86 118l-41 -10l106 -143h40l105 139l-41 14z" />
    <glyph glyph-name="Gbreve" unicode="&#x11e;" horiz-adv-x="614" 
d="M503 303v-251q-63 -23 -122 -23q-79 0 -142 39.5t-98.5 109.5t-35.5 158q0 91 37 163t102 113t146 41q48 0 78 -7t67 -22l19 33q-25 17 -77 27t-89 10q-96 0 -173.5 -46t-121 -127.5t-43.5 -184.5q0 -100 40 -179.5t115.5 -125t176.5 -45.5q43 0 92.5 13t77.5 32v311
h-196l-6 -39h153zM454 816.5q-24 -26.5 -65 -26.5q-40 0 -64.5 27t-24.5 64h-41q0 -53 35 -91.5t95 -38.5q62 0 96 38t34 92h-41q0 -38 -24 -64.5z" />
    <glyph glyph-name="Igrave" unicode="&#xcc;" horiz-adv-x="249" 
d="M149 0v680h-49v-680h49zM130 739l32 11l-56 142h-61z" />
    <glyph glyph-name="Iacute" unicode="&#xcd;" horiz-adv-x="249" 
d="M149 0v680h-49v-680h49zM125 739l85 153h-61l-56 -142z" />
    <glyph glyph-name="Icircumflex" unicode="&#xce;" horiz-adv-x="249" 
d="M149 0v680h-49v-680h49zM132 858l83 -118l41 14l-105 139h-40l-106 -143l41 -10z" />
    <glyph glyph-name="Idieresis" unicode="&#xcf;" horiz-adv-x="249" 
d="M149 0v680h-49v-680h49zM69 778.5q11 10.5 11 26.5q0 15 -11 25.5t-26 10.5q-17 0 -27 -10t-10 -26t10 -26.5t27 -10.5q15 0 26 10.5zM228 778.5q11 10.5 11 26.5q0 15 -11 25.5t-26 10.5q-17 0 -27 -10t-10 -26t10 -26.5t27 -10.5q15 0 26 10.5z" />
    <glyph glyph-name="Imacron" unicode="&#x12a;" horiz-adv-x="249" 
d="M149 0v680h-49v-680h49zM2 790h241l-5 37h-236v-37z" />
    <glyph glyph-name="Iogonek" unicode="&#x12e;" horiz-adv-x="249" 
d="M235 -177q-13 -13 -34.5 -21.5t-45.5 -8.5q-45 0 -75 27t-30 69q0 32 13.5 59.5t36.5 53.5v678h49v-680q-27 -25 -40 -52t-13 -60q0 -27 20 -43t42 -16q29 0 55 21z" />
    <glyph glyph-name="Idotaccent" unicode="&#x130;" horiz-adv-x="249" 
d="M149 0v680h-49v-680h49zM150.5 779q11.5 11 11.5 27t-11.5 27t-27.5 11q-17 0 -27.5 -11t-10.5 -27t10.5 -27t27.5 -11q16 0 27.5 11z" />
    <glyph glyph-name="Lacute" unicode="&#x139;" horiz-adv-x="491" 
d="M476 39h-327v641h-49v-680h381zM169 739l85 153h-61l-56 -142z" />
    <glyph glyph-name="Lcaron" unicode="&#x13d;" horiz-adv-x="491" 
d="M476 39h-327v641h-49v-680h381zM342 690.5q-10 -11.5 -10 -27.5q0 -12 10 -25t26 -13q-1 -50 -61 -82l16 -25q41 20 63.5 57.5t22.5 83.5q0 16 -11 29.5t-28 13.5q-18 0 -28 -11.5z" />
    <glyph glyph-name="Ntilde" unicode="&#xd1;" horiz-adv-x="658" 
d="M149 0v574l14 -29l368 -545h27v680h-49v-569l-34 59l-347 510h-28v-680h49zM412.5 810.5q-11.5 -14.5 -31.5 -14.5q-25 0 -48 29q-22 28 -65 28q-36 0 -59.5 -23t-23.5 -68h39q5 53 45 53q25 0 52 -28q26 -29 60 -29q36 0 59.5 23t23.5 68h-38q-2 -24 -13.5 -38.5z" />
    <glyph glyph-name="Nacute" unicode="&#x143;" horiz-adv-x="658" 
d="M149 0v574l14 -29l368 -545h27v680h-49v-569l-34 59l-347 510h-28v-680h49zM330 739l85 153h-61l-56 -142z" />
    <glyph glyph-name="Ncaron" unicode="&#x147;" horiz-adv-x="658" 
d="M149 0v574l14 -29l368 -545h27v680h-49v-569l-34 59l-347 510h-28v-680h49zM333 774l-86 118l-41 -10l106 -143h40l105 139l-41 14z" />
    <glyph glyph-name="Ograve" unicode="&#xd2;" horiz-adv-x="707" 
d="M199 649.5q-70 -46.5 -109.5 -128t-39.5 -184.5q0 -101 38.5 -181t107.5 -125t155 -45q87 0 157 46.5t109.5 128t39.5 184.5q0 101 -38.5 181t-107 125t-154.5 45q-88 0 -158 -46.5zM137.5 500q32.5 72 90 113t130.5 41q70 0 125.5 -40t87 -110.5t31.5 -159.5
q0 -91 -32.5 -163t-90 -113t-130.5 -41q-70 0 -125.5 40t-87 111t-31.5 160q0 90 32.5 162zM362 739l32 11l-56 142h-61z" />
    <glyph glyph-name="Oacute" unicode="&#xd3;" horiz-adv-x="707" 
d="M199 649.5q-70 -46.5 -109.5 -128t-39.5 -184.5q0 -101 38.5 -181t107.5 -125t155 -45q87 0 157 46.5t109.5 128t39.5 184.5q0 101 -38.5 181t-107 125t-154.5 45q-88 0 -158 -46.5zM137.5 500q32.5 72 90 113t130.5 41q70 0 125.5 -40t87 -110.5t31.5 -159.5
q0 -91 -32.5 -163t-90 -113t-130.5 -41q-70 0 -125.5 40t-87 111t-31.5 160q0 90 32.5 162zM357 739l85 153h-61l-56 -142z" />
    <glyph glyph-name="Ocircumflex" unicode="&#xd4;" horiz-adv-x="707" 
d="M199 649.5q-70 -46.5 -109.5 -128t-39.5 -184.5q0 -101 38.5 -181t107.5 -125t155 -45q87 0 157 46.5t109.5 128t39.5 184.5q0 101 -38.5 181t-107 125t-154.5 45q-88 0 -158 -46.5zM137.5 500q32.5 72 90 113t130.5 41q70 0 125.5 -40t87 -110.5t31.5 -159.5
q0 -91 -32.5 -163t-90 -113t-130.5 -41q-70 0 -125.5 40t-87 111t-31.5 160q0 90 32.5 162zM364 858l83 -118l41 14l-105 139h-40l-106 -143l41 -10z" />
    <glyph glyph-name="Otilde" unicode="&#xd5;" horiz-adv-x="707" 
d="M199 649.5q-70 -46.5 -109.5 -128t-39.5 -184.5q0 -101 38.5 -181t107.5 -125t155 -45q87 0 157 46.5t109.5 128t39.5 184.5q0 101 -38.5 181t-107 125t-154.5 45q-88 0 -158 -46.5zM137.5 500q32.5 72 90 113t130.5 41q70 0 125.5 -40t87 -110.5t31.5 -159.5
q0 -91 -32.5 -163t-90 -113t-130.5 -41q-70 0 -125.5 40t-87 111t-31.5 160q0 90 32.5 162zM439.5 810.5q-11.5 -14.5 -31.5 -14.5q-25 0 -48 29q-22 28 -65 28q-36 0 -59.5 -23t-23.5 -68h39q5 53 45 53q25 0 52 -28q26 -29 60 -29q36 0 59.5 23t23.5 68h-38
q-2 -24 -13.5 -38.5z" />
    <glyph glyph-name="Odieresis" unicode="&#xd6;" horiz-adv-x="707" 
d="M199 649.5q-70 -46.5 -109.5 -128t-39.5 -184.5q0 -101 38.5 -181t107.5 -125t155 -45q87 0 157 46.5t109.5 128t39.5 184.5q0 101 -38.5 181t-107 125t-154.5 45q-88 0 -158 -46.5zM137.5 500q32.5 72 90 113t130.5 41q70 0 125.5 -40t87 -110.5t31.5 -159.5
q0 -91 -32.5 -163t-90 -113t-130.5 -41q-70 0 -125.5 40t-87 111t-31.5 160q0 90 32.5 162zM301 778.5q11 10.5 11 26.5q0 15 -11 25.5t-26 10.5q-17 0 -27 -10t-10 -26t10 -26.5t27 -10.5q15 0 26 10.5zM460 778.5q11 10.5 11 26.5q0 15 -11 25.5t-26 10.5q-17 0 -27 -10
t-10 -26t10 -26.5t27 -10.5q15 0 26 10.5z" />
    <glyph glyph-name="Omacron" unicode="&#x14c;" horiz-adv-x="707" 
d="M199 649.5q-70 -46.5 -109.5 -128t-39.5 -184.5q0 -101 38.5 -181t107.5 -125t155 -45q87 0 157 46.5t109.5 128t39.5 184.5q0 101 -38.5 181t-107 125t-154.5 45q-88 0 -158 -46.5zM137.5 500q32.5 72 90 113t130.5 41q70 0 125.5 -40t87 -110.5t31.5 -159.5
q0 -91 -32.5 -163t-90 -113t-130.5 -41q-70 0 -125.5 40t-87 111t-31.5 160q0 90 32.5 162zM234 790h241l-5 37h-236v-37z" />
    <glyph glyph-name="Ohungarumlaut" unicode="&#x150;" horiz-adv-x="707" 
d="M199 649.5q-70 -46.5 -109.5 -128t-39.5 -184.5q0 -101 38.5 -181t107.5 -125t155 -45q87 0 157 46.5t109.5 128t39.5 184.5q0 101 -38.5 181t-107 125t-154.5 45q-88 0 -158 -46.5zM137.5 500q32.5 72 90 113t130.5 41q70 0 125.5 -40t87 -110.5t31.5 -159.5
q0 -91 -32.5 -163t-90 -113t-130.5 -41q-70 0 -125.5 40t-87 111t-31.5 160q0 90 32.5 162zM297 739l85 153h-61l-56 -142zM425 739l85 153h-61l-56 -142z" />
    <glyph glyph-name="Racute" unicode="&#x154;" 
d="M100 0h49v286h103q50 0 91 10l164 -296h55l-177 309q57 22 90 66.5t33 110.5q0 102 -65.5 148t-179.5 46h-163v-680zM404.5 603q53.5 -37 53.5 -119q0 -79 -60 -119t-144 -40h-105v315h116q86 0 139.5 -37zM263 739l85 153h-61l-56 -142z" />
    <glyph glyph-name="Rcaron" unicode="&#x158;" 
d="M100 0h49v286h103q50 0 91 10l164 -296h55l-177 309q57 22 90 66.5t33 110.5q0 102 -65.5 148t-179.5 46h-163v-680zM404.5 603q53.5 -37 53.5 -119q0 -79 -60 -119t-144 -40h-105v315h116q86 0 139.5 -37zM266 774l-86 118l-41 -10l106 -143h40l105 139l-41 14z" />
    <glyph glyph-name="Sacute" unicode="&#x15a;" horiz-adv-x="504" 
d="M132.5 0.5q60.5 -13.5 104.5 -13.5q108 0 167.5 46.5t59.5 123.5q0 66 -43.5 112.5t-137.5 85.5q-93 39 -137 79.5t-44 95.5q0 53 43 89t113 36q46 0 77 -9t67 -25l22 36q-34 17 -77.5 28t-90.5 11q-63 0 -109.5 -21t-71.5 -57.5t-25 -82.5q0 -70 45 -118.5t137 -86.5
q94 -39 137.5 -78t43.5 -92q0 -35 -20.5 -65t-61 -48t-95.5 -18q-46 0 -90 11.5t-76 27.5l-15 -39q17 -15 77.5 -28.5zM256 739l85 153h-61l-56 -142z" />
    <glyph glyph-name="Scaron" unicode="&#x160;" horiz-adv-x="504" 
d="M132.5 0.5q60.5 -13.5 104.5 -13.5q108 0 167.5 46.5t59.5 123.5q0 66 -43.5 112.5t-137.5 85.5q-93 39 -137 79.5t-44 95.5q0 53 43 89t113 36q46 0 77 -9t67 -25l22 36q-34 17 -77.5 28t-90.5 11q-63 0 -109.5 -21t-71.5 -57.5t-25 -82.5q0 -70 45 -118.5t137 -86.5
q94 -39 137.5 -78t43.5 -92q0 -35 -20.5 -65t-61 -48t-95.5 -18q-46 0 -90 11.5t-76 27.5l-15 -39q17 -15 77.5 -28.5zM259 774l-86 118l-41 -10l106 -143h40l105 139l-41 14z" />
    <glyph glyph-name="Tcaron" unicode="&#x164;" horiz-adv-x="534" 
d="M519 680h-509v-39h232v-641h49v641h233zM269 774l-86 118l-41 -10l106 -143h40l105 139l-41 14z" />
    <glyph glyph-name="Ugrave" unicode="&#xd9;" horiz-adv-x="658" 
d="M90 680v-441q0 -73 28 -130t82 -89t129 -32q76 0 129.5 32t81.5 89t28 130v441h-49v-444q0 -58 -23 -105.5t-66 -74.5t-101 -27q-56 0 -99.5 27.5t-67 74.5t-23.5 105v444h-49zM334 739l32 11l-56 142h-61z" />
    <glyph glyph-name="Uacute" unicode="&#xda;" horiz-adv-x="658" 
d="M90 680v-441q0 -73 28 -130t82 -89t129 -32q76 0 129.5 32t81.5 89t28 130v441h-49v-444q0 -58 -23 -105.5t-66 -74.5t-101 -27q-56 0 -99.5 27.5t-67 74.5t-23.5 105v444h-49zM329 739l85 153h-61l-56 -142z" />
    <glyph glyph-name="Ucircumflex" unicode="&#xdb;" horiz-adv-x="658" 
d="M90 680v-441q0 -73 28 -130t82 -89t129 -32q76 0 129.5 32t81.5 89t28 130v441h-49v-444q0 -58 -23 -105.5t-66 -74.5t-101 -27q-56 0 -99.5 27.5t-67 74.5t-23.5 105v444h-49zM336 858l83 -118l41 14l-105 139h-40l-106 -143l41 -10z" />
    <glyph glyph-name="Udieresis" unicode="&#xdc;" horiz-adv-x="658" 
d="M90 680v-441q0 -73 28 -130t82 -89t129 -32q76 0 129.5 32t81.5 89t28 130v441h-49v-444q0 -58 -23 -105.5t-66 -74.5t-101 -27q-56 0 -99.5 27.5t-67 74.5t-23.5 105v444h-49zM273 778.5q11 10.5 11 26.5q0 15 -11 25.5t-26 10.5q-17 0 -27 -10t-10 -26t10 -26.5
t27 -10.5q15 0 26 10.5zM432 778.5q11 10.5 11 26.5q0 15 -11 25.5t-26 10.5q-17 0 -27 -10t-10 -26t10 -26.5t27 -10.5q15 0 26 10.5z" />
    <glyph glyph-name="Umacron" unicode="&#x16a;" horiz-adv-x="658" 
d="M90 680v-441q0 -73 28 -130t82 -89t129 -32q76 0 129.5 32t81.5 89t28 130v441h-49v-444q0 -58 -23 -105.5t-66 -74.5t-101 -27q-56 0 -99.5 27.5t-67 74.5t-23.5 105v444h-49zM206 790h241l-5 37h-236v-37z" />
    <glyph glyph-name="Uring" unicode="&#x16e;" horiz-adv-x="658" 
d="M90 680v-441q0 -73 28 -130t82 -89t129 -32q76 0 129.5 32t81.5 89t28 130v441h-49v-444q0 -58 -23 -105.5t-66 -74.5t-101 -27q-56 0 -99.5 27.5t-67 74.5t-23.5 105v444h-49zM264.5 885q-26.5 -24 -26.5 -60q0 -35 26 -58t63 -23t62.5 23t25.5 58q0 36 -26 60t-62 24
t-62.5 -24zM291 788.5q-14 14.5 -14 36.5q0 23 14 38t36 15t35.5 -15t13.5 -38q0 -22 -13.5 -36.5t-35.5 -14.5t-36 14.5z" />
    <glyph glyph-name="Uhungarumlaut" unicode="&#x170;" horiz-adv-x="658" 
d="M90 680v-441q0 -73 28 -130t82 -89t129 -32q76 0 129.5 32t81.5 89t28 130v441h-49v-444q0 -58 -23 -105.5t-66 -74.5t-101 -27q-56 0 -99.5 27.5t-67 74.5t-23.5 105v444h-49zM269 739l85 153h-61l-56 -142zM397 739l85 153h-61l-56 -142z" />
    <glyph glyph-name="Uogonek" unicode="&#x172;" horiz-adv-x="658" 
d="M568 680v-441q0 -72 -27 -128.5t-80 -89t-127 -33.5q-41 -44 -41 -100q0 -27 20 -43t42 -16q29 0 55 21l22 -27q-13 -13 -34.5 -21.5t-45.5 -8.5q-45 0 -75 27t-30 69q0 24 13 51.5t34 49.5q-96 11 -150 79t-54 170v441h49v-444q0 -58 23.5 -105t67 -74.5t99.5 -27.5
q58 0 101 27t66 74.5t23 105.5v444h49z" />
    <glyph glyph-name="Yacute" unicode="&#xdd;" horiz-adv-x="530" 
d="M284 0v274l236 406h-57l-204 -359l-200 368l-49 -21l225 -399v-269h49zM259 739l85 153h-61l-56 -142z" />
    <glyph glyph-name="Ydieresis" unicode="&#x178;" horiz-adv-x="530" 
d="M284 0v274l236 406h-57l-204 -359l-200 368l-49 -21l225 -399v-269h49zM203 778.5q11 10.5 11 26.5q0 15 -11 25.5t-26 10.5q-17 0 -27 -10t-10 -26t10 -26.5t27 -10.5q15 0 26 10.5zM362 778.5q11 10.5 11 26.5q0 15 -11 25.5t-26 10.5q-17 0 -27 -10t-10 -26t10 -26.5
t27 -10.5q15 0 26 10.5z" />
    <glyph glyph-name="Zacute" unicode="&#x179;" horiz-adv-x="539" 
d="M499 39h-420l430 592l-5 49h-457l10 -39h406l-433 -591l6 -50h468zM268 739l85 153h-61l-56 -142z" />
    <glyph glyph-name="Zdotaccent" unicode="&#x17b;" horiz-adv-x="539" 
d="M499 39h-420l430 592l-5 49h-457l10 -39h406l-433 -591l6 -50h468zM293.5 779q11.5 11 11.5 27t-11.5 27t-27.5 11q-17 0 -27.5 -11t-10.5 -27t10.5 -27t27.5 -11q16 0 27.5 11z" />
    <glyph glyph-name="Zcaron" unicode="&#x17d;" horiz-adv-x="539" 
d="M499 39h-420l430 592l-5 49h-457l10 -39h406l-433 -591l6 -50h468zM271 774l-86 118l-41 -10l106 -143h40l105 139l-41 14z" />
    <glyph glyph-name="Scedilla" unicode="&#x15e;" horiz-adv-x="504" 
d="M409 37q-55 -46 -156 -50l-15 -38q43 -8 67 -32.5t24 -52.5q0 -38 -30 -61.5t-79 -23.5q-19 0 -42 5.5t-35 13.5l15 31q34 -14 59 -14q30 0 50 14t20 33q0 23 -27 42t-72 19l25 65q-45 4 -94 16.5t-64 24.5l15 39q32 -16 76 -27.5t90 -11.5q55 0 95.5 18t61 48t20.5 65
q0 53 -43.5 92t-137.5 78q-92 38 -137 86.5t-45 118.5q0 46 25 82.5t71.5 57.5t109.5 21q47 0 90.5 -11t77.5 -28l-22 -36q-36 16 -67 25t-77 9q-70 0 -113 -36t-43 -89q0 -55 44 -95.5t137 -79.5q94 -39 137.5 -85.5t43.5 -112.5q0 -74 -55 -120z" />
    <glyph glyph-name="Tcedilla" unicode="&#x162;" horiz-adv-x="534" 
d="M335 -83.5q24 -24.5 24 -52.5q0 -38 -30 -61.5t-79 -23.5q-19 0 -42 5.5t-35 13.5l15 31q34 -14 59 -14q30 0 50 14t20 33q0 23 -27 42t-72 19l29 77h-5v641h-232v39h509l5 -39h-233v-628h2l-2 -5v-8h-3l-20 -51q43 -8 67 -32.5z" />
    <glyph glyph-name="Scommaaccent" unicode="&#x218;" horiz-adv-x="504" 
d="M132.5 0.5q60.5 -13.5 104.5 -13.5q108 0 167.5 46.5t59.5 123.5q0 66 -43.5 112.5t-137.5 85.5q-93 39 -137 79.5t-44 95.5q0 53 43 89t113 36q46 0 77 -9t67 -25l22 36q-34 17 -77.5 28t-90.5 11q-63 0 -109.5 -21t-71.5 -57.5t-25 -82.5q0 -70 45 -118.5t137 -86.5
q94 -39 137.5 -78t43.5 -92q0 -35 -20.5 -65t-61 -48t-95.5 -18q-46 0 -90 11.5t-76 27.5l-15 -39q17 -15 77.5 -28.5zM210 -32.5q-10 -11.5 -10 -27.5q0 -12 10 -25t26 -13q-1 -50 -61 -82l16 -25q41 20 63.5 57.5t22.5 83.5q0 16 -11 29.5t-28 13.5q-18 0 -28 -11.5z" />
    <glyph glyph-name="agrave" unicode="&#xe0;" horiz-adv-x="475" 
d="M171 449q29 8 73 8q57 0 86.5 -31.5t29.5 -84.5v-60h-135q-77 0 -125 -38.5t-48 -106.5q0 -66 42 -107.5t121 -41.5q44 0 83 18t65 47l8 -52h38v340q0 73 -43.5 115.5t-124.5 42.5q-33 0 -81 -12t-74 -30l19 -33q37 18 66 26zM134.5 214q31.5 30 94.5 30h131v-135
q-25 -37 -60.5 -59t-80.5 -22q-53 0 -84.5 31t-31.5 77q0 48 31.5 78zM243 589l32 11l-56 142h-61z" />
    <glyph glyph-name="aacute" unicode="&#xe1;" horiz-adv-x="475" 
d="M171 449q29 8 73 8q57 0 86.5 -31.5t29.5 -84.5v-60h-135q-77 0 -125 -38.5t-48 -106.5q0 -66 42 -107.5t121 -41.5q44 0 83 18t65 47l8 -52h38v340q0 73 -43.5 115.5t-124.5 42.5q-33 0 -81 -12t-74 -30l19 -33q37 18 66 26zM134.5 214q31.5 30 94.5 30h131v-135
q-25 -37 -60.5 -59t-80.5 -22q-53 0 -84.5 31t-31.5 77q0 48 31.5 78zM229 589l85 153h-61l-56 -142z" />
    <glyph glyph-name="acircumflex" unicode="&#xe2;" horiz-adv-x="475" 
d="M171 449q29 8 73 8q57 0 86.5 -31.5t29.5 -84.5v-60h-135q-77 0 -125 -38.5t-48 -106.5q0 -66 42 -107.5t121 -41.5q44 0 83 18t65 47l8 -52h38v340q0 73 -43.5 115.5t-124.5 42.5q-33 0 -81 -12t-74 -30l19 -33q37 18 66 26zM134.5 214q31.5 30 94.5 30h131v-135
q-25 -37 -60.5 -59t-80.5 -22q-53 0 -84.5 31t-31.5 77q0 48 31.5 78zM251 707l83 -118l41 14l-105 139h-40l-106 -143l41 -10z" />
    <glyph glyph-name="atilde" unicode="&#xe3;" horiz-adv-x="475" 
d="M171 449q29 8 73 8q57 0 86.5 -31.5t29.5 -84.5v-60h-135q-77 0 -125 -38.5t-48 -106.5q0 -66 42 -107.5t121 -41.5q44 0 83 18t65 47l8 -52h38v340q0 73 -43.5 115.5t-124.5 42.5q-33 0 -81 -12t-74 -30l19 -33q37 18 66 26zM134.5 214q31.5 30 94.5 30h131v-135
q-25 -37 -60.5 -59t-80.5 -22q-53 0 -84.5 31t-31.5 77q0 48 31.5 78zM328.5 660.5q-11.5 -14.5 -31.5 -14.5q-25 0 -48 29q-22 28 -65 28q-36 0 -59.5 -23t-23.5 -68h39q5 53 45 53q25 0 52 -28q26 -29 60 -29q36 0 59.5 23t23.5 68h-38q-2 -24 -13.5 -38.5z" />
    <glyph glyph-name="adieresis" unicode="&#xe4;" horiz-adv-x="475" 
d="M171 449q29 8 73 8q57 0 86.5 -31.5t29.5 -84.5v-60h-135q-77 0 -125 -38.5t-48 -106.5q0 -66 42 -107.5t121 -41.5q44 0 83 18t65 47l8 -52h38v340q0 73 -43.5 115.5t-124.5 42.5q-33 0 -81 -12t-74 -30l19 -33q37 18 66 26zM134.5 214q31.5 30 94.5 30h131v-135
q-25 -37 -60.5 -59t-80.5 -22q-53 0 -84.5 31t-31.5 77q0 48 31.5 78zM190 628.5q11 10.5 11 26.5q0 15 -11 25.5t-26 10.5q-17 0 -27 -10t-10 -26t10 -26.5t27 -10.5q15 0 26 10.5zM349 628.5q11 10.5 11 26.5q0 15 -11 25.5t-26 10.5q-17 0 -27 -10t-10 -26t10 -26.5
t27 -10.5q15 0 26 10.5z" />
    <glyph glyph-name="aring" unicode="&#xe5;" horiz-adv-x="475" 
d="M171 449q29 8 73 8q57 0 86.5 -31.5t29.5 -84.5v-60h-135q-77 0 -125 -38.5t-48 -106.5q0 -66 42 -107.5t121 -41.5q44 0 83 18t65 47l8 -52h38v340q0 73 -43.5 115.5t-124.5 42.5q-33 0 -81 -12t-74 -30l19 -33q37 18 66 26zM134.5 214q31.5 30 94.5 30h131v-135
q-25 -37 -60.5 -59t-80.5 -22q-53 0 -84.5 31t-31.5 77q0 48 31.5 78zM175.5 735q-26.5 -24 -26.5 -60q0 -35 26 -58t63 -23t62.5 23t25.5 58q0 36 -26 60t-62 24t-62.5 -24zM202 638.5q-14 14.5 -14 36.5q0 23 14 38t36 15t35.5 -15t13.5 -38q0 -22 -13.5 -36.5
t-35.5 -14.5t-36 14.5z" />
    <glyph glyph-name="amacron" unicode="&#x101;" horiz-adv-x="475" 
d="M171 449q29 8 73 8q57 0 86.5 -31.5t29.5 -84.5v-60h-135q-77 0 -125 -38.5t-48 -106.5q0 -66 42 -107.5t121 -41.5q44 0 83 18t65 47l8 -52h38v340q0 73 -43.5 115.5t-124.5 42.5q-33 0 -81 -12t-74 -30l19 -33q37 18 66 26zM134.5 214q31.5 30 94.5 30h131v-135
q-25 -37 -60.5 -59t-80.5 -22q-53 0 -84.5 31t-31.5 77q0 48 31.5 78zM118 640h241l-6 37h-235v-37z" />
    <glyph glyph-name="abreve" unicode="&#x103;" horiz-adv-x="475" 
d="M171 449q29 8 73 8q57 0 86.5 -31.5t29.5 -84.5v-60h-135q-77 0 -125 -38.5t-48 -106.5q0 -66 42 -107.5t121 -41.5q44 0 83 18t65 47l8 -52h38v340q0 73 -43.5 115.5t-124.5 42.5q-33 0 -81 -12t-74 -30l19 -33q37 18 66 26zM134.5 214q31.5 30 94.5 30h131v-135
q-25 -37 -60.5 -59t-80.5 -22q-53 0 -84.5 31t-31.5 77q0 48 31.5 78zM303 666.5q-24 -26.5 -65 -26.5q-40 0 -64.5 27t-24.5 64h-41q0 -53 35 -91.5t95 -38.5q62 0 96 38t34 92h-41q0 -38 -24 -64.5z" />
    <glyph glyph-name="aogonek" unicode="&#x105;" horiz-adv-x="475" 
d="M495 -177q-13 -13 -34.5 -21.5t-45.5 -8.5q-45 0 -75 27t-30 69q0 28 17 60t44 54l-8 49q-26 -29 -65 -47t-83 -18q-79 0 -121 41.5t-42 107.5q0 68 48 106.5t125 38.5h135v60q0 53 -29.5 84.5t-86.5 31.5q-44 0 -73 -8t-66 -26l-19 33q26 18 74 30t81 12
q81 0 124.5 -42.5t43.5 -115.5v-340q-27 -25 -40 -52t-13 -60q0 -27 20 -43t42 -16q29 0 55 21zM360 244h-131q-63 0 -94.5 -30t-31.5 -78q0 -46 31.5 -77t84.5 -31q45 0 80.5 22t60.5 59v135z" />
    <glyph glyph-name="ccedilla" unicode="&#xe7;" horiz-adv-x="449" 
d="M345 1q-38 -11 -70 -13l-15 -39q43 -8 67 -32.5t24 -52.5q0 -38 -30 -61.5t-79 -23.5q-19 0 -42 5.5t-35 13.5l15 31q34 -14 59 -14q30 0 50 14t20 33q0 23 -27 42t-72 19l25 65q-94 9 -144.5 78.5t-50.5 178.5q0 73 27 130.5t78 90t121 32.5q31 0 75 -12t72 -30l-20 -33
q-35 17 -62 25.5t-67 8.5q-52 0 -91.5 -28.5t-60.5 -77t-21 -105.5q0 -61 19.5 -110.5t57.5 -78.5t91 -29q31 0 53 4.5t40.5 12.5t35.5 17l20 -34q-25 -16 -63 -27z" />
    <glyph glyph-name="cacute" unicode="&#x107;" horiz-adv-x="449" 
d="M361.5 49q-21.5 -11 -46.5 -16t-56 -5q-53 0 -91 29t-57.5 78.5t-19.5 110.5q0 57 21 105.5t60.5 77t91.5 28.5q40 0 67 -8.5t62 -25.5l20 33q-28 18 -72 30t-75 12q-70 0 -121 -32.5t-78 -90t-27 -130.5q0 -116 57 -187t162 -71q33 0 76.5 11.5t72.5 29.5l-20 34
q-5 -2 -26.5 -13zM234 589l85 153h-61l-56 -142z" />
    <glyph glyph-name="ccaron" unicode="&#x10d;" horiz-adv-x="449" 
d="M361.5 49q-21.5 -11 -46.5 -16t-56 -5q-53 0 -91 29t-57.5 78.5t-19.5 110.5q0 57 21 105.5t60.5 77t91.5 28.5q40 0 67 -8.5t62 -25.5l20 33q-28 18 -72 30t-75 12q-70 0 -121 -32.5t-78 -90t-27 -130.5q0 -116 57 -187t162 -71q33 0 76.5 11.5t72.5 29.5l-20 34
q-5 -2 -26.5 -13zM243 624l-86 118l-41 -10l106 -143h40l105 139l-41 14z" />
    <glyph glyph-name="dcaron" unicode="&#x10f;" horiz-adv-x="636" 
d="M383 696l49 9v-705h-27l-18 43q-61 -56 -138 -56q-104 0 -156.5 70t-52.5 188q0 113 56 183t160 70q32 0 65.5 -13t61.5 -33v244zM595 688.5q11 -13.5 11 -29.5q0 -46 -22.5 -83.5t-63.5 -57.5l-16 25q60 32 61 82q-16 0 -26 13t-10 25q0 16 10 27.5t28 11.5
q17 0 28 -13.5zM323 44.5q30 16.5 60 48.5v309q-61 55 -129 55q-52 0 -88.5 -28.5t-55.5 -76.5t-19 -106q0 -95 40 -156.5t118 -61.5q44 0 74 16.5z" />
    <glyph glyph-name="egrave" unicode="&#xe8;" horiz-adv-x="480" 
d="M416.5 373.5q-23.5 58.5 -66.5 91.5t-98 33q-103 0 -157.5 -69.5t-54.5 -183.5q0 -118 57.5 -188t172.5 -70q34 0 80.5 10.5t74.5 27.5l-20 37q-31 -16 -63 -25t-80 -9q-85 0 -127.5 60t-43.5 154h349q0 73 -23.5 131.5zM138.5 406.5q38.5 50.5 106.5 50.5
q67 0 101 -49.5t42 -128.5h-295q7 77 45.5 127.5zM253 589l32 11l-56 142h-61z" />
    <glyph glyph-name="eacute" unicode="&#xe9;" horiz-adv-x="480" 
d="M416.5 373.5q-23.5 58.5 -66.5 91.5t-98 33q-103 0 -157.5 -69.5t-54.5 -183.5q0 -118 57.5 -188t172.5 -70q34 0 80.5 10.5t74.5 27.5l-20 37q-31 -16 -63 -25t-80 -9q-85 0 -127.5 60t-43.5 154h349q0 73 -23.5 131.5zM138.5 406.5q38.5 50.5 106.5 50.5
q67 0 101 -49.5t42 -128.5h-295q7 77 45.5 127.5zM239 589l85 153h-61l-56 -142z" />
    <glyph glyph-name="ecircumflex" unicode="&#xea;" horiz-adv-x="480" 
d="M416.5 373.5q-23.5 58.5 -66.5 91.5t-98 33q-103 0 -157.5 -69.5t-54.5 -183.5q0 -118 57.5 -188t172.5 -70q34 0 80.5 10.5t74.5 27.5l-20 37q-31 -16 -63 -25t-80 -9q-85 0 -127.5 60t-43.5 154h349q0 73 -23.5 131.5zM138.5 406.5q38.5 50.5 106.5 50.5
q67 0 101 -49.5t42 -128.5h-295q7 77 45.5 127.5zM261 707l83 -118l41 14l-105 139h-40l-106 -143l41 -10z" />
    <glyph glyph-name="edieresis" unicode="&#xeb;" horiz-adv-x="480" 
d="M416.5 373.5q-23.5 58.5 -66.5 91.5t-98 33q-103 0 -157.5 -69.5t-54.5 -183.5q0 -118 57.5 -188t172.5 -70q34 0 80.5 10.5t74.5 27.5l-20 37q-31 -16 -63 -25t-80 -9q-85 0 -127.5 60t-43.5 154h349q0 73 -23.5 131.5zM138.5 406.5q38.5 50.5 106.5 50.5
q67 0 101 -49.5t42 -128.5h-295q7 77 45.5 127.5zM200 628.5q11 10.5 11 26.5q0 15 -11 25.5t-26 10.5q-17 0 -27 -10t-10 -26t10 -26.5t27 -10.5q15 0 26 10.5zM359 628.5q11 10.5 11 26.5q0 15 -11 25.5t-26 10.5q-17 0 -27 -10t-10 -26t10 -26.5t27 -10.5q15 0 26 10.5z
" />
    <glyph glyph-name="emacron" unicode="&#x113;" horiz-adv-x="480" 
d="M416.5 373.5q-23.5 58.5 -66.5 91.5t-98 33q-103 0 -157.5 -69.5t-54.5 -183.5q0 -118 57.5 -188t172.5 -70q34 0 80.5 10.5t74.5 27.5l-20 37q-31 -16 -63 -25t-80 -9q-85 0 -127.5 60t-43.5 154h349q0 73 -23.5 131.5zM138.5 406.5q38.5 50.5 106.5 50.5
q67 0 101 -49.5t42 -128.5h-295q7 77 45.5 127.5zM128 640h241l-6 37h-235v-37z" />
    <glyph glyph-name="edotaccent" unicode="&#x117;" horiz-adv-x="480" 
d="M416.5 373.5q-23.5 58.5 -66.5 91.5t-98 33q-103 0 -157.5 -69.5t-54.5 -183.5q0 -118 57.5 -188t172.5 -70q34 0 80.5 10.5t74.5 27.5l-20 37q-31 -16 -63 -25t-80 -9q-85 0 -127.5 60t-43.5 154h349q0 73 -23.5 131.5zM138.5 406.5q38.5 50.5 106.5 50.5
q67 0 101 -49.5t42 -128.5h-295q7 77 45.5 127.5zM275.5 629q11.5 11 11.5 27t-11.5 27t-27.5 11q-17 0 -27.5 -11t-10.5 -27t10.5 -27t27.5 -11q16 0 27.5 11z" />
    <glyph glyph-name="eogonek" unicode="&#x119;" horiz-adv-x="480" 
d="M410 -150l22 -27q-13 -13 -34.5 -21.5t-45.5 -8.5q-45 0 -75 27t-30 69q0 24 12 50.5t33 48.5q-8 -1 -22 -1q-115 0 -172.5 70t-57.5 188q0 114 54.5 183.5t157.5 69.5q55 0 98 -33t66.5 -91.5t23.5 -131.5h-349q1 -94 43.5 -154t127.5 -60q48 0 80 9t63 25l20 -37
q-28 -17 -84 -30q-48 -45 -48 -107q0 -27 20 -43t42 -16q29 0 55 21zM138.5 406.5q-38.5 -50.5 -45.5 -127.5h295q-8 79 -42 128.5t-101 49.5q-68 0 -106.5 -50.5z" />
    <glyph glyph-name="ecaron" unicode="&#x11b;" horiz-adv-x="480" 
d="M416.5 373.5q-23.5 58.5 -66.5 91.5t-98 33q-103 0 -157.5 -69.5t-54.5 -183.5q0 -118 57.5 -188t172.5 -70q34 0 80.5 10.5t74.5 27.5l-20 37q-31 -16 -63 -25t-80 -9q-85 0 -127.5 60t-43.5 154h349q0 73 -23.5 131.5zM138.5 406.5q38.5 50.5 106.5 50.5
q67 0 101 -49.5t42 -128.5h-295q7 77 45.5 127.5zM248 624l-86 118l-41 -10l106 -143h40l105 139l-41 14z" />
    <glyph glyph-name="gbreve" unicode="&#x11f;" horiz-adv-x="508" 
d="M432 485v-547q0 -75 -50 -121.5t-142 -46.5q-34 0 -86.5 12t-78.5 29l19 35q40 -18 71 -26.5t73 -8.5q64 0 104.5 30t40.5 87v111q-59 -52 -134 -52q-104 0 -156.5 70t-52.5 188q0 113 56 183t160 70q35 0 72 -16t65 -38l12 41h27zM323 44.5q30 16.5 60 48.5v309
q-61 55 -129 55q-52 0 -88.5 -28.5t-55.5 -76.5t-19 -106q0 -95 40 -156.5t118 -61.5q44 0 74 16.5zM315 666.5q-24 -26.5 -65 -26.5q-40 0 -64.5 27t-24.5 64h-41q0 -53 35 -91.5t95 -38.5q62 0 96 38t34 92h-41q0 -38 -24 -64.5z" />
    <glyph glyph-name="igrave" unicode="&#xec;" horiz-adv-x="189" 
d="M119 0v485h-49v-485h49zM99 589l32 11l-56 142h-61z" />
    <glyph glyph-name="iacute" unicode="&#xed;" horiz-adv-x="189" 
d="M119 0v485h-49v-485h49zM85 589l85 153h-61l-56 -142z" />
    <glyph glyph-name="icircumflex" unicode="&#xee;" horiz-adv-x="189" 
d="M119 0v485h-49v-485h49zM107 707l83 -118l41 14l-105 139h-40l-106 -143l41 -10z" />
    <glyph glyph-name="idieresis" unicode="&#xef;" horiz-adv-x="189" 
d="M119 0v485h-49v-485h49zM46 628.5q11 10.5 11 26.5q0 15 -11 25.5t-26 10.5q-17 0 -27 -10t-10 -26t10 -26.5t27 -10.5q15 0 26 10.5zM205 628.5q11 10.5 11 26.5q0 15 -11 25.5t-26 10.5q-17 0 -27 -10t-10 -26t10 -26.5t27 -10.5q15 0 26 10.5z" />
    <glyph glyph-name="imacron" unicode="&#x12b;" horiz-adv-x="189" 
d="M119 0v485h-49v-485h49zM-26 640h241l-6 37h-235v-37z" />
    <glyph glyph-name="iogonek" unicode="&#x12f;" horiz-adv-x="189" 
d="M66.5 629q-10.5 11 -10.5 27t10.5 27t27.5 11q16 0 27.5 -11t11.5 -27t-11.5 -27t-27.5 -11q-17 0 -27.5 11zM205 -177q-13 -13 -34.5 -21.5t-45.5 -8.5q-45 0 -75 27t-30 69q0 32 13.5 59.5t36.5 53.5v483h49v-485q-27 -25 -40 -52t-13 -60q0 -27 20 -43t42 -16
q29 0 55 21z" />
    <glyph glyph-name="lcaron" unicode="&#x13e;" horiz-adv-x="333" 
d="M129 0v706l-49 -10v-696h49zM236 690.5q-10 -11.5 -10 -27.5q0 -12 10 -25t26 -13q-1 -50 -61 -82l16 -25q41 20 63.5 57.5t22.5 83.5q0 16 -11 29.5t-28 13.5q-18 0 -28 -11.5z" />
    <glyph glyph-name="ntilde" unicode="&#xf1;" horiz-adv-x="500" 
d="M119 359q96 98 175 98q51 0 71 -32t20 -88v-337h49v337q0 74 -35 117.5t-109 43.5q-44 0 -92 -26t-80 -63l-10 76h-38v-485h49v359zM348.5 660.5q-11.5 -14.5 -31.5 -14.5q-25 0 -48 29q-22 28 -65 28q-36 0 -59.5 -23t-23.5 -68h39q5 53 45 53q25 0 52 -28
q26 -29 60 -29q36 0 59.5 23t23.5 68h-38q-2 -24 -13.5 -38.5z" />
    <glyph glyph-name="nacute" unicode="&#x144;" horiz-adv-x="500" 
d="M119 359q96 98 175 98q51 0 71 -32t20 -88v-337h49v337q0 74 -35 117.5t-109 43.5q-44 0 -92 -26t-80 -63l-10 76h-38v-485h49v359zM249 589l85 153h-61l-56 -142z" />
    <glyph glyph-name="ncaron" unicode="&#x148;" horiz-adv-x="500" 
d="M119 359q96 98 175 98q51 0 71 -32t20 -88v-337h49v337q0 74 -35 117.5t-109 43.5q-44 0 -92 -26t-80 -63l-10 76h-38v-485h49v359zM258 624l-86 118l-41 -10l106 -143h40l105 139l-41 14z" />
    <glyph glyph-name="ograve" unicode="&#xf2;" horiz-adv-x="523" 
d="M456.5 110.5q-26.5 -57.5 -77.5 -90.5t-120 -33q-105 1 -162 71.5t-57 186.5q0 72 26.5 129.5t77.5 90.5t121 33q105 -1 161.5 -71.5t56.5 -186.5q0 -72 -26.5 -129.5zM350.5 56.5q39.5 28.5 60.5 77t21 105.5q0 61 -19.5 110.5t-57.5 78.5t-91 29q-52 0 -91.5 -28.5
t-60.5 -77t-21 -105.5q0 -61 19.5 -110.5t57.5 -78.5t91 -29q52 0 91.5 28.5zM268 589l32 11l-56 142h-61z" />
    <glyph glyph-name="oacute" unicode="&#xf3;" horiz-adv-x="523" 
d="M456.5 110.5q-26.5 -57.5 -77.5 -90.5t-120 -33q-105 1 -162 71.5t-57 186.5q0 72 26.5 129.5t77.5 90.5t121 33q105 -1 161.5 -71.5t56.5 -186.5q0 -72 -26.5 -129.5zM350.5 56.5q39.5 28.5 60.5 77t21 105.5q0 61 -19.5 110.5t-57.5 78.5t-91 29q-52 0 -91.5 -28.5
t-60.5 -77t-21 -105.5q0 -61 19.5 -110.5t57.5 -78.5t91 -29q52 0 91.5 28.5zM254 589l85 153h-61l-56 -142z" />
    <glyph glyph-name="ocircumflex" unicode="&#xf4;" horiz-adv-x="523" 
d="M456.5 110.5q-26.5 -57.5 -77.5 -90.5t-120 -33q-105 1 -162 71.5t-57 186.5q0 72 26.5 129.5t77.5 90.5t121 33q105 -1 161.5 -71.5t56.5 -186.5q0 -72 -26.5 -129.5zM350.5 56.5q39.5 28.5 60.5 77t21 105.5q0 61 -19.5 110.5t-57.5 78.5t-91 29q-52 0 -91.5 -28.5
t-60.5 -77t-21 -105.5q0 -61 19.5 -110.5t57.5 -78.5t91 -29q52 0 91.5 28.5zM276 707l83 -118l41 14l-105 139h-40l-106 -143l41 -10z" />
    <glyph glyph-name="otilde" unicode="&#xf5;" horiz-adv-x="523" 
d="M456.5 110.5q-26.5 -57.5 -77.5 -90.5t-120 -33q-105 1 -162 71.5t-57 186.5q0 72 26.5 129.5t77.5 90.5t121 33q105 -1 161.5 -71.5t56.5 -186.5q0 -72 -26.5 -129.5zM350.5 56.5q39.5 28.5 60.5 77t21 105.5q0 61 -19.5 110.5t-57.5 78.5t-91 29q-52 0 -91.5 -28.5
t-60.5 -77t-21 -105.5q0 -61 19.5 -110.5t57.5 -78.5t91 -29q52 0 91.5 28.5zM353.5 660.5q-11.5 -14.5 -31.5 -14.5q-25 0 -48 29q-22 28 -65 28q-36 0 -59.5 -23t-23.5 -68h39q5 53 45 53q25 0 52 -28q26 -29 60 -29q36 0 59.5 23t23.5 68h-38q-2 -24 -13.5 -38.5z" />
    <glyph glyph-name="odieresis" unicode="&#xf6;" horiz-adv-x="523" 
d="M456.5 110.5q-26.5 -57.5 -77.5 -90.5t-120 -33q-105 1 -162 71.5t-57 186.5q0 72 26.5 129.5t77.5 90.5t121 33q105 -1 161.5 -71.5t56.5 -186.5q0 -72 -26.5 -129.5zM350.5 56.5q39.5 28.5 60.5 77t21 105.5q0 61 -19.5 110.5t-57.5 78.5t-91 29q-52 0 -91.5 -28.5
t-60.5 -77t-21 -105.5q0 -61 19.5 -110.5t57.5 -78.5t91 -29q52 0 91.5 28.5zM215 628.5q11 10.5 11 26.5q0 15 -11 25.5t-26 10.5q-17 0 -27 -10t-10 -26t10 -26.5t27 -10.5q15 0 26 10.5zM374 628.5q11 10.5 11 26.5q0 15 -11 25.5t-26 10.5q-17 0 -27 -10t-10 -26
t10 -26.5t27 -10.5q15 0 26 10.5z" />
    <glyph glyph-name="omacron" unicode="&#x14d;" horiz-adv-x="523" 
d="M456.5 110.5q-26.5 -57.5 -77.5 -90.5t-120 -33q-105 1 -162 71.5t-57 186.5q0 72 26.5 129.5t77.5 90.5t121 33q105 -1 161.5 -71.5t56.5 -186.5q0 -72 -26.5 -129.5zM350.5 56.5q39.5 28.5 60.5 77t21 105.5q0 61 -19.5 110.5t-57.5 78.5t-91 29q-52 0 -91.5 -28.5
t-60.5 -77t-21 -105.5q0 -61 19.5 -110.5t57.5 -78.5t91 -29q52 0 91.5 28.5zM143 640h241l-6 37h-235v-37z" />
    <glyph glyph-name="ohungarumlaut" unicode="&#x151;" horiz-adv-x="523" 
d="M456.5 110.5q-26.5 -57.5 -77.5 -90.5t-120 -33q-105 1 -162 71.5t-57 186.5q0 72 26.5 129.5t77.5 90.5t121 33q105 -1 161.5 -71.5t56.5 -186.5q0 -72 -26.5 -129.5zM350.5 56.5q39.5 28.5 60.5 77t21 105.5q0 61 -19.5 110.5t-57.5 78.5t-91 29q-52 0 -91.5 -28.5
t-60.5 -77t-21 -105.5q0 -61 19.5 -110.5t57.5 -78.5t91 -29q52 0 91.5 28.5zM207 589l85 153h-61l-56 -142zM335 589l85 153h-61l-56 -142z" />
    <glyph glyph-name="racute" unicode="&#x155;" horiz-adv-x="302" 
d="M119 357q31 34 80.5 62t92.5 28l-17 38q-34 0 -79.5 -24.5t-79.5 -52.5l-18 77h-28v-485h49v357zM144 589l85 153h-61l-56 -142z" />
    <glyph glyph-name="rcaron" unicode="&#x159;" horiz-adv-x="302" 
d="M119 357q31 34 80.5 62t92.5 28l-17 38q-34 0 -79.5 -24.5t-79.5 -52.5l-18 77h-28v-485h49v357zM153 624l-86 118l-41 -10l106 -143h40l105 139l-41 14z" />
    <glyph glyph-name="sacute" unicode="&#x15b;" horiz-adv-x="406" 
d="M111.5 -2.5q43.5 -10.5 77.5 -10.5q177 0 177 136q0 47 -39.5 81.5t-107.5 61.5q-58 23 -90 47t-32 55q0 36 31.5 62.5t81.5 26.5q39 0 64 -8.5t60 -25.5l20 35q-24 17 -64.5 28.5t-72.5 11.5q-79 0 -123 -37.5t-44 -96.5q0 -80 141 -135q128 -50 128 -110
q0 -42 -34 -66.5t-94 -24.5q-34 0 -64.5 10t-66.5 28l-18 -41q26 -17 69.5 -27.5zM205 589l85 153h-61l-56 -142z" />
    <glyph glyph-name="scaron" unicode="&#x161;" horiz-adv-x="406" 
d="M111.5 -2.5q43.5 -10.5 77.5 -10.5q177 0 177 136q0 47 -39.5 81.5t-107.5 61.5q-58 23 -90 47t-32 55q0 36 31.5 62.5t81.5 26.5q39 0 64 -8.5t60 -25.5l20 35q-24 17 -64.5 28.5t-72.5 11.5q-79 0 -123 -37.5t-44 -96.5q0 -80 141 -135q128 -50 128 -110
q0 -42 -34 -66.5t-94 -24.5q-34 0 -64.5 10t-66.5 28l-18 -41q26 -17 69.5 -27.5zM214 624l-86 118l-41 -10l106 -143h40l105 139l-41 14z" />
    <glyph glyph-name="tcaron" unicode="&#x165;" horiz-adv-x="412" 
d="M315 690.5q-10 -11.5 -10 -27.5q0 -12 10 -25t26 -13q-1 -50 -61 -82l16 -25q41 20 63.5 57.5t22.5 83.5q0 16 -11 29.5t-28 13.5q-18 0 -28 -11.5zM141 470v153l-49 -22v-131h-72v-37h72v-317q0 -62 28 -95.5t76 -33.5q19 0 39 5q24 7 27 7l-12 38q-21 -9 -41 -9
q-34 0 -51 27.5t-17 67.5v310h109l-21 37h-88z" />
    <glyph glyph-name="ugrave" unicode="&#xf9;" horiz-adv-x="500" 
d="M381 126q-96 -98 -175 -98q-51 0 -71 32t-20 88v337h-49v-337q0 -74 35 -117.5t109 -43.5q44 0 92 26t80 63l10 -76h38v485h-49v-359zM250 589l32 11l-56 142h-61z" />
    <glyph glyph-name="uacute" unicode="&#xfa;" horiz-adv-x="500" 
d="M381 126q-96 -98 -175 -98q-51 0 -71 32t-20 88v337h-49v-337q0 -74 35 -117.5t109 -43.5q44 0 92 26t80 63l10 -76h38v485h-49v-359zM236 589l85 153h-61l-56 -142z" />
    <glyph glyph-name="ucircumflex" unicode="&#xfb;" horiz-adv-x="500" 
d="M381 126q-96 -98 -175 -98q-51 0 -71 32t-20 88v337h-49v-337q0 -74 35 -117.5t109 -43.5q44 0 92 26t80 63l10 -76h38v485h-49v-359zM258 707l83 -118l41 14l-105 139h-40l-106 -143l41 -10z" />
    <glyph glyph-name="udieresis" unicode="&#xfc;" horiz-adv-x="500" 
d="M381 126q-96 -98 -175 -98q-51 0 -71 32t-20 88v337h-49v-337q0 -74 35 -117.5t109 -43.5q44 0 92 26t80 63l10 -76h38v485h-49v-359zM197 628.5q11 10.5 11 26.5q0 15 -11 25.5t-26 10.5q-17 0 -27 -10t-10 -26t10 -26.5t27 -10.5q15 0 26 10.5zM356 628.5
q11 10.5 11 26.5q0 15 -11 25.5t-26 10.5q-17 0 -27 -10t-10 -26t10 -26.5t27 -10.5q15 0 26 10.5z" />
    <glyph glyph-name="umacron" unicode="&#x16b;" horiz-adv-x="500" 
d="M381 126q-96 -98 -175 -98q-51 0 -71 32t-20 88v337h-49v-337q0 -74 35 -117.5t109 -43.5q44 0 92 26t80 63l10 -76h38v485h-49v-359zM125 640h241l-6 37h-235v-37z" />
    <glyph glyph-name="uring" unicode="&#x16f;" horiz-adv-x="500" 
d="M381 126q-96 -98 -175 -98q-51 0 -71 32t-20 88v337h-49v-337q0 -74 35 -117.5t109 -43.5q44 0 92 26t80 63l10 -76h38v485h-49v-359zM182.5 735q-26.5 -24 -26.5 -60q0 -35 26 -58t63 -23t62.5 23t25.5 58q0 36 -26 60t-62 24t-62.5 -24zM209 638.5q-14 14.5 -14 36.5
q0 23 14 38t36 15t35.5 -15t13.5 -38q0 -22 -13.5 -36.5t-35.5 -14.5t-36 14.5z" />
    <glyph glyph-name="uhungarumlaut" unicode="&#x171;" horiz-adv-x="500" 
d="M381 126q-96 -98 -175 -98q-51 0 -71 32t-20 88v337h-49v-337q0 -74 35 -117.5t109 -43.5q44 0 92 26t80 63l10 -76h38v485h-49v-359zM189 589l85 153h-61l-56 -142zM317 589l85 153h-61l-56 -142z" />
    <glyph glyph-name="uogonek" unicode="&#x173;" horiz-adv-x="500" 
d="M516 -177q-13 -13 -34.5 -21.5t-45.5 -8.5q-45 0 -75 27t-30 69q0 29 17 60.5t44 53.5l-10 73q-32 -37 -80 -63t-92 -26q-74 0 -109 43.5t-35 117.5v337h49v-337q0 -56 20 -88t71 -32q79 0 175 98v359h49v-485q-27 -25 -40 -52t-13 -60q0 -27 20 -43t42 -16q29 0 55 21z
" />
    <glyph glyph-name="yacute" unicode="&#xfd;" horiz-adv-x="430" 
d="M126.5 -149q-23.5 -19 -63.5 -32l5 -38q48 10 83 38t50 69l219 597h-50l-154 -429l-160 435l-46 -18l183 -473l-31 -98q-12 -32 -35.5 -51zM200 589l85 153h-61l-56 -142z" />
    <glyph glyph-name="ydieresis" unicode="&#xff;" horiz-adv-x="430" 
d="M126.5 -149q-23.5 -19 -63.5 -32l5 -38q48 10 83 38t50 69l219 597h-50l-154 -429l-160 435l-46 -18l183 -473l-31 -98q-12 -32 -35.5 -51zM161 628.5q11 10.5 11 26.5q0 15 -11 25.5t-26 10.5q-17 0 -27 -10t-10 -26t10 -26.5t27 -10.5q15 0 26 10.5zM320 628.5
q11 10.5 11 26.5q0 15 -11 25.5t-26 10.5q-17 0 -27 -10t-10 -26t10 -26.5t27 -10.5q15 0 26 10.5z" />
    <glyph glyph-name="zacute" unicode="&#x17a;" horiz-adv-x="432" 
d="M401 485h-344l16 -37h277l-322 -417l8 -31h362l-10 37h-309l325 416zM215 589l85 153h-61l-56 -142z" />
    <glyph glyph-name="zdotaccent" unicode="&#x17c;" horiz-adv-x="432" 
d="M401 485h-344l16 -37h277l-322 -417l8 -31h362l-10 37h-309l325 416zM251.5 629q11.5 11 11.5 27t-11.5 27t-27.5 11q-17 0 -27.5 -11t-10.5 -27t10.5 -27t27.5 -11q16 0 27.5 11z" />
    <glyph glyph-name="zcaron" unicode="&#x17e;" horiz-adv-x="432" 
d="M401 485h-344l16 -37h277l-322 -417l8 -31h362l-10 37h-309l325 416zM224 624l-86 118l-41 -10l106 -143h40l105 139l-41 14z" />
    <glyph glyph-name="scedilla" unicode="&#x15f;" horiz-adv-x="406" 
d="M205 -13l-15 -38q43 -8 67 -32.5t24 -52.5q0 -38 -30 -61.5t-79 -23.5q-19 0 -42 5.5t-35 13.5l15 31q34 -14 59 -14q30 0 50 14t20 33q0 23 -27 42t-72 19l25 65q-33 3 -67.5 13t-55.5 24l18 41q36 -18 66.5 -28t64.5 -10q60 0 94 24.5t34 66.5q0 60 -128 110
q-141 55 -141 135q0 59 44 96.5t123 37.5q32 0 72.5 -11.5t64.5 -28.5l-20 -35q-35 17 -60 25.5t-64 8.5q-50 0 -81.5 -26.5t-31.5 -62.5q0 -31 32 -55t90 -47q68 -27 107.5 -61.5t39.5 -81.5q0 -129 -161 -136z" />
    <glyph glyph-name="tcedilla" unicode="&#x163;" horiz-adv-x="292" 
d="M255 -83.5q24 -24.5 24 -52.5q0 -38 -30 -61.5t-79 -23.5q-19 0 -42 5.5t-35 13.5l15 31q34 -14 59 -14q30 0 50 14t20 33q0 23 -27 42t-72 19l26 68q-34 11 -53 42.5t-19 82.5v317h-72v37h72v131l49 22v-153h88l21 -37h-109v-310q0 -40 17 -67.5t51 -27.5q20 0 41 9
l12 -38q-3 0 -27 -7q-10 -3 -32 -5l-15 -38q43 -8 67 -32.5z" />
    <glyph glyph-name="scommaaccent" unicode="&#x219;" horiz-adv-x="406" 
d="M111.5 -2.5q43.5 -10.5 77.5 -10.5q177 0 177 136q0 47 -39.5 81.5t-107.5 61.5q-58 23 -90 47t-32 55q0 36 31.5 62.5t81.5 26.5q39 0 64 -8.5t60 -25.5l20 35q-24 17 -64.5 28.5t-72.5 11.5q-79 0 -123 -37.5t-44 -96.5q0 -80 141 -135q128 -50 128 -110
q0 -42 -34 -66.5t-94 -24.5q-34 0 -64.5 10t-66.5 28l-18 -41q26 -17 69.5 -27.5zM162 -32.5q-10 -11.5 -10 -27.5q0 -12 10 -25t26 -13q-1 -50 -61 -82l16 -25q41 20 63.5 57.5t22.5 83.5q0 16 -11 29.5t-28 13.5q-18 0 -28 -11.5z" />
    <glyph glyph-name="softhyphen" unicode="&#xad;" horiz-adv-x="120" 
 />
    <glyph glyph-name="mu" unicode="&#xb5;" horiz-adv-x="510" 
d="M440 485v-485h-38l-10 76q-32 -37 -80 -63t-92 -26q-58 0 -95 29v-224l-49 -11v704h49v-337q0 -56 20 -88t71 -32q79 0 175 98v359h49z" />
    <glyph glyph-name="uni02C9" unicode="&#x2c9;" horiz-adv-x="261" 
d="M10 650h241l-6 39h-235v-39z" />
    <glyph glyph-name="litre" unicode="&#x2113;" horiz-adv-x="338" 
d="M87 231v-104q0 -64 35 -101.5t92 -37.5q13 0 31 5.5t27 12.5l-12 37l-14.5 -7.5t-30.5 -6.5q-37 0 -58 27.5t-21 65.5v152q75 71 123.5 149.5t48.5 150.5q0 59 -31 93.5t-82 34.5q-50 0 -79 -36t-29 -100v-275q-42 -35 -77 -59l12 -47q23 15 65 46zM136 566q0 47 16.5 71
t43.5 24q26 0 44 -23.5t18 -65.5q0 -57 -33 -117t-89 -118v229z" />
    <glyph glyph-name="Ohm" unicode="&#x2126;" horiz-adv-x="702" 
d="M583 223.5q-17 -60.5 -47 -109.5t-67 -70l-5 -44h182l4 39h-120q55 41 88.5 126t33.5 172q0 101 -35.5 182.5t-103 129t-160.5 47.5q-92 0 -160.5 -47.5t-105.5 -129.5t-37 -182q0 -86 33.5 -171.5t87.5 -126.5h-119l4 -39h185l-5 44q-37 21 -67 70t-47 109.5t-17 114.5
q0 87 32 158.5t89 113.5t127 42t126.5 -42t88.5 -113.5t32 -158.5q0 -54 -17 -114.5z" />
    <glyph glyph-name="Delta" unicode="&#x2206;" 
d="M257 680l-247 -680h552v11l-259 669h-46zM497 39h-424l208 575z" />
    <glyph glyph-name="divisionslash" unicode="&#x2215;" horiz-adv-x="375" 
d="M318 710l-308 -710l46 -4l309 710z" />
    <glyph glyph-name="bulletmath" unicode="&#x2219;" horiz-adv-x="183" 
d="M135 283q18 18 18 43q0 26 -18 44t-43 18q-26 0 -44 -18t-18 -44q0 -25 18 -43t44 -18q25 0 43 18z" />
    <glyph glyph-name="Turkishlira" unicode="&#x20ba;" horiz-adv-x="491" 
d="M175 0q73 0 141.5 45.5t111.5 122t43 163.5h-46q0 -72 -37.5 -139.5t-96 -110t-116.5 -42.5v360l169 60l-7 38l-162 -57v67l169 60l-7 38l-162 -57v158l-49 -10v-166l-126 -44l6 -39l120 42v-67l-126 -44l6 -39l120 42v-381h49z" />
    <glyph glyph-name="Ruble" unicode="&#x20bd;" horiz-adv-x="548" 
d="M149 264v-60h289l5 -39h-294v-165h-49v165h-58l-5 39h63v60h-58l-5 39h63v377h163q113 0 179 -49.5t66 -155.5q0 -105 -71.5 -158t-184.5 -53h-103zM149 303h115q84 0 139 44.5t55 126.5q0 85 -48.5 125.5t-134.5 40.5h-126v-337z" />
    <glyph glyph-name="cent" unicode="&#xa2;" horiz-adv-x="449" 
d="M408 28q-24 -15 -58.5 -25.5t-65.5 -13.5v-100h-44v99q-96 7 -148 76.5t-52 180.5q0 104 53 173t147 79v98l44 10v-108q31 -3 67.5 -14.5t61.5 -26.5l-20 -33q-35 17 -62 25.5t-67 8.5q-52 0 -91.5 -28.5t-60.5 -77t-21 -105.5q0 -61 19.5 -110.5t57.5 -78.5t91 -29
q31 0 53 4.5t40.5 12.5t35.5 17z" />
    <glyph glyph-name="sterling" unicode="&#xa3;" horiz-adv-x="426" 
d="M416 0l-6 39h-262q20 17 27 41.5t7 62.5v191h162l-22 37h-140v190q0 82 69 82q9 0 22 -3t19 -6l12 37q-34 13 -66 13q-52 0 -78.5 -37t-26.5 -102v-174h-73l2 -37h71v-212q0 -82 -65 -83l2 -39h346z" />
    <glyph glyph-name="currency" unicode="&#xa4;" horiz-adv-x="661" 
d="M164 48q64 -61 161 -61q50 0 93.5 17t74.5 47l109 -105l29 32l-108 106q25 32 38 72t13 83q0 45 -12.5 86.5t-35.5 75.5l105 104l-29 32l-105 -102q-65 63 -162 63q-50 0 -93.5 -16.5t-76.5 -47.5l-106 103l-29 -32l106 -104q-49 -66 -49 -155q0 -96 48 -164l-105 -104
l29 -32zM497.5 133q-25.5 -48 -70.5 -76.5t-102 -28.5q-53 0 -96 28.5t-67 78t-24 111.5q0 56 25.5 104.5t70.5 77.5t101 29q58 0 100.5 -29.5t65 -79.5t22.5 -109q0 -58 -25.5 -106z" />
    <glyph glyph-name="yen" unicode="&#xa5;" horiz-adv-x="530" 
d="M468 259h-184v-130h179l5 -39h-184v-90h-49v90h-168l-5 39h173v130h-168l-5 39h157l-209 370l49 21l200 -368l204 359h57l-222 -382h165z" />
    <glyph glyph-name="Euro" unicode="&#x20ac;" horiz-adv-x="593" 
d="M472.5 37q34.5 8 66.5 22l24 -36q-28 -15 -77.5 -26t-91.5 -11q-118 0 -192.5 66t-99.5 174h-97l-5 39h95q-5 38 -5 71t5 71h-90l-5 39h103q26 112 104 180t193 68q37 0 87.5 -10t75.5 -27l-20 -36q-38 16 -67 23t-78 7q-86 -1 -150.5 -55.5t-89.5 -149.5h243l5 -39h-256
q-5 -37 -5 -70q0 -37 6 -72h250l5 -39h-246q24 -88 84 -142.5t145 -54.5q49 0 83.5 8z" />
    <glyph glyph-name="dollar" unicode="$" horiz-adv-x="534" 
d="M193 -10q-43 5 -84 16.5t-54 22.5l15 39q32 -16 76 -27.5t90 -11.5q55 0 95.5 18t61 48t20.5 65q0 53 -43.5 92t-137.5 78q-92 38 -137 86.5t-45 118.5q0 57 38 99t105 56v97l40 10v-103q10 2 23 2q23 0 44 -3v97l41 10v-114q44 -10 83 -29l-22 -36q-36 16 -67 25t-77 9
q-70 0 -113 -36t-43 -89q0 -55 44 -95.5t137 -79.5q94 -39 137.5 -85.5t43.5 -112.5q0 -55 -31.5 -96t-91.5 -60v-112h-41v103q-32 -5 -63 -5h-4v-98h-40v101z" />
    <glyph glyph-name="comma" unicode="," horiz-adv-x="152" 
d="M55 64.5q-10 -11.5 -10 -27.5q0 -12 10 -25t26 -13q-1 -50 -61 -82l16 -25q41 20 63.5 57.5t22.5 83.5q0 16 -11 29.5t-28 13.5q-18 0 -28 -11.5z" />
    <glyph glyph-name="period" unicode="." horiz-adv-x="137" 
d="M95.5 11q11.5 11 11.5 27t-11.5 27t-27.5 11q-17 0 -27.5 -11t-10.5 -27t10.5 -27t27.5 -11q16 0 27.5 11z" />
    <glyph glyph-name="exclam" unicode="!" horiz-adv-x="138" 
d="M54 185l45 -21l9 538h-54v-517zM40.5 65q-10.5 -11 -10.5 -27t10.5 -27t27.5 -11q16 0 27.5 11t11.5 27t-11.5 27t-27.5 11q-17 0 -27.5 -11z" />
    <glyph glyph-name="exclamdown" unicode="&#xa1;" horiz-adv-x="138" 
d="M97.5 637q10.5 11 10.5 27t-10.5 27t-27.5 11q-16 0 -27.5 -11t-11.5 -27t11.5 -27t27.5 -11q17 0 27.5 11zM84 517l-45 21l-9 -538h54v517z" />
    <glyph glyph-name="colon" unicode=":" horiz-adv-x="137" 
d="M95.5 376q11.5 11 11.5 27t-11.5 27t-27.5 11q-17 0 -27.5 -11t-10.5 -27t10.5 -27t27.5 -11q16 0 27.5 11zM95.5 57q11.5 11 11.5 27t-11.5 27t-27.5 11q-17 0 -27.5 -11t-10.5 -27t10.5 -27t27.5 -11q16 0 27.5 11z" />
    <glyph glyph-name="semicolon" unicode=";" horiz-adv-x="152" 
d="M110.5 376q11.5 11 11.5 27t-11.5 27t-27.5 11q-17 0 -27.5 -11t-10.5 -27t10.5 -27t27.5 -11q16 0 27.5 11zM55 110.5q-10 -11.5 -10 -27.5q0 -12 10 -25t26 -13q-1 -50 -61 -82l16 -25q41 20 63.5 57.5t22.5 83.5q0 16 -11 29.5t-28 13.5q-18 0 -28 -11.5z" />
    <glyph glyph-name="question" unicode="?" horiz-adv-x="392" 
d="M85 684.5q-46 -17.5 -75 -43.5l8 -41q45 32 80.5 46.5t85.5 14.5q58 0 91.5 -32.5t33.5 -91.5q0 -57 -45.5 -103t-124.5 -71l7 -205l33 -21l10 195q82 36 127.5 92t45.5 114q0 75 -45 119.5t-131 44.5q-55 0 -101 -17.5zM126.5 65q-10.5 -11 -10.5 -27t10.5 -27t27.5 -11
q16 0 27.5 11t11.5 27t-11.5 27t-27.5 11q-17 0 -27.5 -11z" />
    <glyph glyph-name="questiondown" unicode="&#xbf;" horiz-adv-x="392" 
d="M265.5 557q10.5 11 10.5 27t-10.5 27t-27.5 11q-16 0 -27.5 -11t-11.5 -27t11.5 -27t27.5 -11q17 0 27.5 11zM307 -62.5q46 17.5 75 43.5l-8 41q-45 -32 -80.5 -46.5t-85.5 -14.5q-58 0 -91.5 32.5t-33.5 91.5q0 57 45.5 103t124.5 71l-7 205l-33 21l-10 -195
q-82 -36 -127.5 -92t-45.5 -114q0 -75 45 -119.5t131 -44.5q55 0 101 17.5z" />
    <glyph glyph-name="asterisk" unicode="*" horiz-adv-x="313" 
d="M172 774h-35v-120l-115 31l-12 -32l115 -29l-79 -119l36 -16l74 113l79 -113l31 16l-79 119l116 29l-13 32l-118 -31v120z" />
    <glyph glyph-name="quotedbl" unicode="&#x22;" horiz-adv-x="275" 
d="M55 690.5q-10 -11.5 -10 -27.5q0 -12 10 -25t26 -13q-1 -50 -61 -82l16 -25q41 20 63.5 57.5t22.5 83.5q0 16 -11 29.5t-28 13.5q-18 0 -28 -11.5zM178 690.5q-10 -11.5 -10 -27.5q0 -12 10 -25t26 -13q-1 -50 -61 -82l16 -25q41 20 63.5 57.5t22.5 83.5q0 16 -11 29.5
t-28 13.5q-18 0 -28 -11.5z" />
    <glyph glyph-name="quotesingle" unicode="'" horiz-adv-x="152" 
d="M55 690.5q-10 -11.5 -10 -27.5q0 -12 10 -25t26 -13q-1 -50 -61 -82l16 -25q41 20 63.5 57.5t22.5 83.5q0 16 -11 29.5t-28 13.5q-18 0 -28 -11.5z" />
    <glyph glyph-name="quoteleft" unicode="&#x2018;" horiz-adv-x="152" 
d="M97 529.5q10 11.5 10 27.5q0 12 -10 25t-26 13q1 50 61 82l-16 25q-41 -20 -63.5 -57.5t-22.5 -83.5q0 -16 11 -29.5t28 -13.5q18 0 28 11.5z" />
    <glyph glyph-name="quoteright" unicode="&#x2019;" horiz-adv-x="152" 
d="M55 690.5q-10 -11.5 -10 -27.5q0 -12 10 -25t26 -13q-1 -50 -61 -82l16 -25q41 20 63.5 57.5t22.5 83.5q0 16 -11 29.5t-28 13.5q-18 0 -28 -11.5z" />
    <glyph glyph-name="quotesinglbase" unicode="&#x201a;" horiz-adv-x="152" 
d="M55 64.5q-10 -11.5 -10 -27.5q0 -12 10 -25t26 -13q-1 -50 -61 -82l16 -25q41 20 63.5 57.5t22.5 83.5q0 16 -11 29.5t-28 13.5q-18 0 -28 -11.5z" />
    <glyph glyph-name="quotedblleft" unicode="&#x201c;" horiz-adv-x="275" 
d="M97 529.5q10 11.5 10 27.5q0 12 -10 25t-26 13q1 50 61 82l-16 25q-41 -20 -63.5 -57.5t-22.5 -83.5q0 -16 11 -29.5t28 -13.5q18 0 28 11.5zM220 529.5q10 11.5 10 27.5q0 12 -10 25t-26 13q1 50 61 82l-16 25q-41 -20 -63.5 -57.5t-22.5 -83.5q0 -16 11 -29.5t28 -13.5
q18 0 28 11.5z" />
    <glyph glyph-name="quotedblright" unicode="&#x201d;" horiz-adv-x="275" 
d="M55 690.5q-10 -11.5 -10 -27.5q0 -12 10 -25t26 -13q-1 -50 -61 -82l16 -25q41 20 63.5 57.5t22.5 83.5q0 16 -11 29.5t-28 13.5q-18 0 -28 -11.5zM178 690.5q-10 -11.5 -10 -27.5q0 -12 10 -25t26 -13q-1 -50 -61 -82l16 -25q41 20 63.5 57.5t22.5 83.5q0 16 -11 29.5
t-28 13.5q-18 0 -28 -11.5z" />
    <glyph glyph-name="quotedblbase" unicode="&#x201e;" horiz-adv-x="275" 
d="M55 64.5q-10 -11.5 -10 -27.5q0 -12 10 -25t26 -13q-1 -50 -61 -82l16 -25q41 20 63.5 57.5t22.5 83.5q0 16 -11 29.5t-28 13.5q-18 0 -28 -11.5zM178 64.5q-10 -11.5 -10 -27.5q0 -12 10 -25t26 -13q-1 -50 -61 -82l16 -25q41 20 63.5 57.5t22.5 83.5q0 16 -11 29.5
t-28 13.5q-18 0 -28 -11.5z" />
    <glyph glyph-name="periodcentered" unicode="&#xb7;" horiz-adv-x="137" 
d="M95.5 235q11.5 11 11.5 27t-11.5 27t-27.5 11q-17 0 -27.5 -11t-10.5 -27t10.5 -27t27.5 -11q16 0 27.5 11z" />
    <glyph glyph-name="parenleft" unicode="(" horiz-adv-x="239" 
d="M156 72q-25 62 -40 131t-15 118q0 48 15 116t40 129t53 91l-40 18q-59 -75 -89 -172t-30 -183q0 -87 30 -184t89 -173l40 18q-28 29 -53 91z" />
    <glyph glyph-name="parenright" unicode=")" horiz-adv-x="239" 
d="M82 565.5q25 -61.5 40.5 -130t15.5 -116.5t-15.5 -117t-40.5 -130.5t-52 -90.5l40 -18q58 77 88.5 174t30.5 183q0 84 -30.5 181.5t-88.5 173.5l-40 -18q27 -30 52 -91.5z" />
    <glyph glyph-name="bracketleft" unicode="[" horiz-adv-x="265" 
d="M100 -88h155l-8 39h-98v706h98l8 39h-155v-784z" />
    <glyph glyph-name="bracketright" unicode="]" horiz-adv-x="265" 
d="M165 696h-155l8 -39h98v-706h-98l-8 -39h155v784z" />
    <glyph glyph-name="braceleft" unicode="{" horiz-adv-x="265" 
d="M174.5 349q18.5 29 18.5 70q0 28 -19 70t-19 71q0 23 19 41.5t53 18.5h19l9 39h-26q-61 0 -92.5 -28t-31.5 -77q0 -31 18 -72q18 -40 18 -72q0 -36 -23.5 -60t-54.5 -24h-33v-38h33q31 0 54.5 -24t23.5 -60q0 -31 -18 -72q-18 -40 -18 -72q0 -49 31.5 -77t92.5 -28h26
l-9 39h-19q-34 0 -53 18.5t-19 41.5q0 29 19 71t19 70q0 41 -18.5 70t-45.5 42q27 13 45.5 42z" />
    <glyph glyph-name="braceright" unicode="}" horiz-adv-x="265" 
d="M90.5 265q-18.5 -29 -18.5 -70q0 -28 19 -70t19 -71q0 -23 -19 -41.5t-53 -18.5h-19l-9 -39h26q61 0 92.5 28t31.5 77q0 32 -18 72q-18 41 -18 72q0 36 23.5 60t54.5 24h33v38h-33q-31 0 -54.5 24t-23.5 60q0 32 18 72q18 41 18 72q0 49 -31.5 77t-92.5 28h-26l9 -39h19
q34 0 53 -18.5t19 -41.5q0 -29 -19 -71t-19 -70q0 -41 18.5 -70t45.5 -42q-27 -13 -45.5 -42z" />
    <glyph glyph-name="slash" unicode="/" horiz-adv-x="375" 
d="M318 710l-308 -710l46 -4l309 710z" />
    <glyph glyph-name="backslash" unicode="\" horiz-adv-x="375" 
d="M365 0l-308 710l-47 -4l308 -710z" />
    <glyph glyph-name="bar" unicode="|" horiz-adv-x="249" 
d="M100 710v-710l49 -4v710z" />
    <glyph glyph-name="brokenbar" unicode="&#xa6;" horiz-adv-x="249" 
d="M100 710v-300l49 -4v300zM100 292v-292l49 -4v292z" />
    <glyph glyph-name="guillemotleft" unicode="&#xab;" horiz-adv-x="363" 
d="M30 229l140 -145l21 31l-122 130l122 130l-21 31l-140 -145v-32zM182 229l140 -145l21 31l-123 130l123 130l-21 31l-140 -145v-32z" />
    <glyph glyph-name="guillemotright" unicode="&#xbb;" horiz-adv-x="363" 
d="M181 261l-140 145l-21 -31l123 -130l-123 -130l21 -31l140 145v32zM333 261l-140 145l-21 -31l122 -130l-122 -130l21 -31l140 145v32z" />
    <glyph glyph-name="pi" unicode="&#x3c0;" horiz-adv-x="541" 
d="M158 0v446h224v-446h49v446h100v39h-521v-39h99v-446h49z" />
    <glyph glyph-name="dagger" unicode="&#x2020;" horiz-adv-x="366" 
d="M154 783v-164h-124l19 -37h105v-582l49 -4v586h133l-19 37h-114v161z" />
    <glyph glyph-name="daggerdbl" unicode="&#x2021;" horiz-adv-x="376" 
d="M211 1v191h135l-19 37h-116v311h135l-19 37h-116v203l-49 3v-206h-132l19 -37h113v-311h-132l19 -37h113v-198z" />
    <glyph glyph-name="bullet" unicode="&#x2022;" horiz-adv-x="183" 
d="M135 283q18 18 18 43q0 26 -18 44t-43 18q-26 0 -44 -18t-18 -44q0 -25 18 -43t44 -18q25 0 43 18z" />
    <glyph glyph-name="ellipsis" unicode="&#x2026;" horiz-adv-x="357" 
d="M93 10q10 10 10 26t-10 26t-25 10q-16 0 -27 -10t-11 -26t11 -26t27 -10q15 0 25 10zM205 10q10 10 10 26t-10 26t-25 10q-16 0 -27 -10t-11 -26t11 -26t27 -10q15 0 25 10zM317 10q10 10 10 26t-10 26t-25 10q-16 0 -27 -10t-11 -26t11 -26t27 -10q15 0 25 10z" />
    <glyph glyph-name="guilsinglleft" unicode="&#x2039;" horiz-adv-x="211" 
d="M30 231l140 -148l21 34l-119 128l119 128l-21 35l-140 -149v-28z" />
    <glyph glyph-name="guilsinglright" unicode="&#x203a;" horiz-adv-x="211" 
d="M181 260l-140 148l-21 -34l119 -128l-119 -128l21 -35l140 149v28z" />
    <glyph glyph-name="hyphen" unicode="-" horiz-adv-x="311" 
d="M273 292h-243l8 -39h243z" />
    <glyph glyph-name="underscore" unicode="_" horiz-adv-x="429" 
d="M391 39h-361l8 -39h361z" />
    <glyph glyph-name="endash" unicode="&#x2013;" horiz-adv-x="432" 
d="M394 293h-364l8 -39h364z" />
    <glyph glyph-name="emdash" unicode="&#x2014;" horiz-adv-x="524" 
d="M486 293h-456l8 -39h456z" />
    <glyph glyph-name="numbersign" unicode="#" horiz-adv-x="497" 
d="M380 502l-33 -131h-131l33 131h-47l-33 -131h-139l8 -39h121l-38 -153h-91l8 -39h73l-34 -136l46 -4l35 140h131l-34 -136l46 -4l35 140h131l-7 39h-114l38 153h83l-7 39h-66l33 131h-47zM337 332l-38 -153h-131l38 153h131z" />
    <glyph glyph-name="percent" unicode="%" horiz-adv-x="809" 
d="M526 710l-308 -710l46 -4l309 710zM114.5 681q-34.5 -21 -54.5 -59.5t-20 -89.5q0 -79 42.5 -124t110.5 -45q41 0 75.5 21t55 59.5t20.5 88.5q0 80 -41.5 125t-110.5 45q-43 0 -77.5 -21zM268 629.5q29 -35.5 29 -97.5t-30.5 -97t-73.5 -35q-44 0 -75 36t-31 96
q0 42 15 72t39 45.5t51 15.5q47 0 76 -35.5zM539.5 317q-34.5 -21 -54.5 -59.5t-20 -89.5q0 -79 42.5 -124t110.5 -45q41 0 75.5 21t55 59.5t20.5 88.5q0 80 -41.5 125t-110.5 45q-43 0 -77.5 -21zM693 265q29 -35 29 -97t-30.5 -97t-73.5 -35q-44 0 -75 36t-31 96
q0 62 31.5 97t73.5 35q47 0 76 -35z" />
    <glyph glyph-name="plus" unicode="+" horiz-adv-x="527" 
d="M487 292h-200v239l-49 3v-242h-208l8 -37h200v-247l49 -4v251h210z" />
    <glyph glyph-name="divide" unicode="&#xf7;" horiz-adv-x="497" 
d="M275.5 388q11.5 11 11.5 27t-11.5 27t-27.5 11q-17 0 -27.5 -11t-10.5 -27t10.5 -27t27.5 -11q16 0 27.5 11zM457 292h-427l8 -37h429zM278.5 85q11.5 11 11.5 27t-11.5 27t-27.5 11q-17 0 -27.5 -11t-10.5 -27t10.5 -27t27.5 -11q16 0 27.5 11z" />
    <glyph glyph-name="multiply" unicode="&#xd7;" horiz-adv-x="470" 
d="M257 245l166 -214h-49l-143 176l-150 -176h-51l183 219l-166 214h49l140 -176l153 176h51z" />
    <glyph glyph-name="plusminus" unicode="&#xb1;" horiz-adv-x="492" 
d="M447 345h-181v186l-49 3v-189h-187l8 -37h179v-195l49 -5v200h189zM454 37h-424l8 -37h424z" />
    <glyph glyph-name="less" unicode="&#x3c;" horiz-adv-x="322" 
d="M302 54l-226 191l226 191l-23 34l-249 -211v-28l249 -212z" />
    <glyph glyph-name="equal" unicode="=" horiz-adv-x="497" 
d="M460 371h-430l8 -39h429zM460 179h-430l8 -39h429z" />
    <glyph glyph-name="greater" unicode="&#x3e;" horiz-adv-x="322" 
d="M292 258l-249 212l-23 -35l226 -191l-226 -191l23 -34l249 211v28z" />
    <glyph glyph-name="degree" unicode="&#xb0;" horiz-adv-x="243" 
d="M40.5 672q-30.5 -30 -30.5 -73q0 -45 30 -73t76 -28t76.5 28t30.5 73q0 43 -31 73t-76 30t-75.5 -30zM69.5 551q-19.5 22 -19.5 49t18.5 48.5t47.5 21.5t48.5 -22t19.5 -48q0 -28 -16.5 -49.5t-47.5 -21.5t-50.5 22z" />
    <glyph glyph-name="onesuperior" unicode="&#xb9;" horiz-adv-x="240" 
d="M160 336v429h-24l-126 -65l23 -25l84 41v-380h43z" />
    <glyph glyph-name="twosuperior" unicode="&#xb2;" horiz-adv-x="342" 
d="M97.5 759.5q-40.5 -11.5 -68.5 -26.5l17 -31q80 34 124 34q46 0 69.5 -28t23.5 -61q0 -24 -16 -55q-17 -32 -66 -77l-156 -142v-37h297l-6 33h-240l131 116q54 49 77.5 87.5t23.5 80.5q0 29 -15 56.5t-46 44.5t-75 17q-34 0 -74.5 -11.5z" />
    <glyph glyph-name="threesuperior" unicode="&#xb3;" horiz-adv-x="354" 
d="M77.5 759.5q-34.5 -11.5 -68.5 -32.5l22 -30q59 38 123 38q44 0 72 -25t28 -60q0 -45 -30.5 -71.5t-90.5 -26.5h-37l7 -33h25q75 0 105.5 -26t30.5 -78q0 -44 -35 -71t-82 -27q-40 0 -67 8t-56 25l-24 -32q30 -17 67 -28.5t76 -11.5q77 0 121.5 39t44.5 99q0 48 -23.5 80
t-65.5 42q35 12 57.5 42.5t22.5 70.5q0 52 -37 86t-108 34q-43 0 -77.5 -11.5z" />
    <glyph glyph-name="onequarter" unicode="&#xbc;" horiz-adv-x="710" 
d="M160 336v429h-24l-126 -65l23 -25l84 41v-380h43zM531 700l-506 -834h50l501 834h-45zM690 -31h-85v352h-28l-253 -352l4 -34h233v-98h44v98h81zM561 238v-269h-190z" />
    <glyph glyph-name="onehalf" unicode="&#xbd;" horiz-adv-x="758" 
d="M160 336v429h-24l-126 -65l23 -25l84 41v-380h43zM541 700l-506 -834h50l501 834h-45zM513.5 313.5q-40.5 -11.5 -68.5 -26.5l17 -31q80 34 124 34q46 0 69.5 -28t23.5 -61q0 -24 -16 -55q-17 -32 -66 -77l-156 -142v-37h297l-6 33h-240l131 116q54 49 77.5 87.5
t23.5 80.5q0 29 -15 56.5t-46 44.5t-75 17q-34 0 -74.5 -11.5z" />
    <glyph glyph-name="threequarters" unicode="&#xbe;" horiz-adv-x="773" 
d="M77.5 759.5q-34.5 -11.5 -68.5 -32.5l22 -30q59 38 123 38q44 0 72 -25t28 -60q0 -45 -30.5 -71.5t-90.5 -26.5h-37l7 -33h25q75 0 105.5 -26t30.5 -78q0 -44 -35 -71t-82 -27q-40 0 -67 8t-56 25l-24 -32q30 -17 67 -28.5t76 -11.5q77 0 121.5 39t44.5 99q0 48 -23.5 80
t-65.5 42q35 12 57.5 42.5t22.5 70.5q0 52 -37 86t-108 34q-43 0 -77.5 -11.5zM621 700l-506 -834h50l501 834h-45zM753 -31h-85v352h-28l-253 -352l4 -34h233v-98h44v98h81zM624 238v-269h-190z" />
    <glyph glyph-name="estimated" unicode="&#x212e;" horiz-adv-x="480" 
d="M416.5 373.5q-23.5 58.5 -66.5 91.5t-98 33q-103 0 -157.5 -69.5t-54.5 -183.5q0 -118 57.5 -188t172.5 -70q34 0 80.5 10.5t74.5 27.5l-20 37q-31 -16 -63 -25t-80 -9q-85 0 -127.5 60t-43.5 154h349q0 73 -23.5 131.5zM138.5 406.5q38.5 50.5 106.5 50.5
q67 0 101 -49.5t42 -128.5h-295q7 77 45.5 127.5z" />
    <glyph glyph-name="partialdiff" unicode="&#x2202;" horiz-adv-x="523" 
d="M391.5 545q91.5 -131 91.5 -305q0 -72 -26.5 -129.5t-77.5 -90.5t-120 -33q-105 1 -162 71.5t-57 186.5q0 72 26.5 129.5t77.5 90.5t121 33q72 -1 122 -39q-77 167 -286 259l13 32q186 -74 277.5 -205zM350.5 56.5q39.5 28.5 60.5 77t21 105.5q0 82 -20 152
q-69 66 -148 66q-52 0 -91.5 -28.5t-60.5 -77t-21 -105.5q0 -61 19.5 -110.5t57.5 -78.5t91 -29q52 0 91.5 28.5z" />
    <glyph glyph-name="product" unicode="&#x220f;" horiz-adv-x="598" 
d="M100 0h49v641h300v-641h49v680h-398v-680z" />
    <glyph glyph-name="summation" unicode="&#x2211;" horiz-adv-x="437" 
d="M390 680h-360v-45l205 -290l-205 -295v-50h387l-5 50h-319l192 280v30l-192 275h303z" />
    <glyph glyph-name="minus" unicode="&#x2212;" horiz-adv-x="466" 
d="M428 293h-398l8 -39h398z" />
    <glyph glyph-name="radical" unicode="&#x221a;" horiz-adv-x="522" 
d="M464 710l-265 -654l-141 265l-48 -4l170 -317l38 -4l294 710z" />
    <glyph glyph-name="infinity" unicode="&#x221e;" horiz-adv-x="818" 
d="M132.5 429.5q-44.5 -28.5 -68.5 -76.5t-24 -107q0 -90 52 -145t141 -55q49 0 93.5 37.5t70.5 89.5q28 -52 81 -89.5t105 -37.5q58 0 102.5 28t68.5 76.5t24 107.5q0 90 -52 145t-141 55q-49 0 -93.5 -37.5t-69.5 -89.5q-28 52 -81.5 89.5t-105.5 37.5q-58 0 -102.5 -28.5
zM385 255q-22 -64 -60.5 -115t-87.5 -51q-67 0 -107.5 42.5t-40.5 113.5q0 77 40.5 123.5t107.5 46.5q50 0 91 -35.5t69 -88.5zM433 249q20 60 60.5 113t88.5 53q66 0 106.5 -42t40.5 -114q0 -77 -40.5 -123.5t-106.5 -46.5q-50 0 -91.5 35.5t-69.5 88.5z" />
    <glyph glyph-name="integral" unicode="&#x222b;" horiz-adv-x="293" 
d="M240 742q9 0 22 -3t19 -6l12 37q-34 13 -66 13q-52 0 -78.5 -37t-26.5 -102v-700q0 -82 -69 -82q-9 0 -22 3t-19 6l-12 -37q34 -13 66 -13q52 0 78.5 37t26.5 102v700q0 82 69 82z" />
    <glyph glyph-name="approxequal" unicode="&#x2248;" horiz-adv-x="502" 
d="M408 351.5q-20 -9.5 -46 -9.5q-37 0 -109 23q-69 22 -114 22q-38 0 -70.5 -18t-38.5 -52l38 -9q6 20 26 29.5t46 9.5q44 0 116 -22q75 -23 107 -23q38 0 70.5 18t38.5 52l-38 9q-6 -20 -26 -29.5zM408 169.5q-20 -9.5 -46 -9.5q-37 0 -109 23q-69 22 -114 22
q-38 0 -70.5 -18t-38.5 -52l38 -9q6 20 26 29.5t46 9.5q44 0 116 -22q75 -23 107 -23q38 0 70.5 18t38.5 52l-38 9q-6 -20 -26 -29.5z" />
    <glyph glyph-name="notequal" unicode="&#x2260;" horiz-adv-x="497" 
d="M343 523l-67 -152h-246l8 -39h221l-67 -153h-162l8 -39h137l-66 -150l44 -4l68 154h246l-7 39h-222l67 153h162l-7 39h-138l66 148z" />
    <glyph glyph-name="lessequal" unicode="&#x2264;" horiz-adv-x="322" 
d="M302 143l-221 148l221 146l-23 33l-249 -165v-28l249 -164zM293 39h-262l8 -39h260z" />
    <glyph glyph-name="greaterequal" unicode="&#x2265;" horiz-adv-x="322" 
d="M292 306l-249 164l-23 -30l221 -148l-221 -146l23 -33l249 165v28zM282 39h-262l8 -39h260z" />
    <glyph glyph-name="perthousand" unicode="&#x2030;" horiz-adv-x="1169" 
d="M526 710l-308 -710l46 -4l309 710zM114.5 681q-34.5 -21 -54.5 -59.5t-20 -89.5q0 -79 42.5 -124t110.5 -45q41 0 75.5 21t55 59.5t20.5 88.5q0 80 -41.5 125t-110.5 45q-43 0 -77.5 -21zM268 629.5q29 -35.5 29 -97.5t-30.5 -97t-73.5 -35q-44 0 -75 36t-31 96
q0 42 15 72t39 45.5t51 15.5q47 0 76 -35.5zM539.5 317q-34.5 -21 -54.5 -59.5t-20 -89.5q0 -79 42.5 -124t110.5 -45q41 0 75.5 21t55 59.5t20.5 88.5q0 80 -41.5 125t-110.5 45q-43 0 -77.5 -21zM899.5 317q-34.5 -21 -54.5 -59.5t-20 -89.5q0 -79 42.5 -124t110.5 -45
q41 0 75.5 21t55 59.5t20.5 88.5q0 80 -41.5 125t-110.5 45q-43 0 -77.5 -21zM693 265q29 -35 29 -97t-30.5 -97t-73.5 -35q-44 0 -75 36t-31 96q0 62 31.5 97t73.5 35q47 0 76 -35zM1053 265q29 -35 29 -97t-30.5 -97t-73.5 -35q-44 0 -75 36t-31 96q0 62 31.5 97t73.5 35
q47 0 76 -35z" />
    <glyph glyph-name="fraction" unicode="&#x2044;" horiz-adv-x="375" 
d="M318 710l-308 -710l46 -4l309 710z" />
    <glyph glyph-name="lozenge" unicode="&#x25ca;" horiz-adv-x="520" 
d="M270 0l220 293v13l-220 293h-20l-220 -293v-13l220 -293h20zM259 545l182 -246l-182 -244l-178 244z" />
    <glyph glyph-name="copyright" unicode="&#xa9;" horiz-adv-x="787" 
d="M702.5 515q-44.5 80 -125 125.5t-184.5 45.5q-105 0 -185.5 -45.5t-124 -125.5t-43.5 -179t42.5 -178t122.5 -124.5t188 -45.5q104 0 184.5 45.5t125 125t44.5 177.5q0 99 -44.5 179zM125 495.5q38 70.5 107.5 111.5t160.5 41t161 -41t108 -112t38 -158t-38 -158.5
t-108 -112.5t-161 -41t-160.5 41t-107.5 112t-38 159t38 158.5zM474.5 132q37.5 12 58.5 30l-20 31q-54 -34 -109 -34q-68 0 -111.5 49.5t-43.5 132.5t43.5 132.5t111.5 49.5q55 0 109 -34l20 31q-21 18 -58.5 30t-68.5 12q-57 0 -104 -25.5t-74.5 -75.5t-27.5 -120
t27.5 -120t74.5 -75.5t104 -25.5q31 0 68.5 12z" />
    <glyph glyph-name="registered" unicode="&#xae;" horiz-adv-x="715" 
d="M634.5 645q-40.5 71 -112.5 112t-164 41q-94 0 -166 -40.5t-112 -111.5t-40 -159q0 -87 40.5 -157.5t113 -111t164.5 -40.5t164 40.5t112.5 111t40.5 157.5t-40.5 158zM121.5 627q33.5 62 94.5 97.5t142 35.5q80 0 141 -35.5t94 -97.5t33 -139q0 -76 -33.5 -138
t-94 -98.5t-140.5 -36.5q-81 0 -142 36.5t-94.5 98.5t-33.5 138q0 77 33.5 139zM407 469q31 13 52 40t21 63q0 56 -36.5 82t-99.5 26h-87v-376h40v158h42q10 0 15 1h14l90 -159h47zM411.5 631.5q25.5 -15.5 25.5 -60.5q0 -77 -105 -77h-35v153h40q49 0 74.5 -15.5z" />
    <glyph glyph-name="trademark" unicode="&#x2122;" horiz-adv-x="711" 
d="M288 680h-278v-32h119v-342h44v342h118zM519 431l104 153v-278h38v374h-20l-128 -197l-133 197h-19v-374h41v277l105 -154z" />
    <glyph glyph-name="ampersand" unicode="&#x26;" horiz-adv-x="647" 
d="M607 27l-100 93q27 45 41.5 99t14.5 109l-36 11q0 -46 -13.5 -96.5t-38.5 -92.5l-198 185q-56 53 -82.5 96.5t-26.5 94.5q0 34 17 63.5t47 47.5t67 18q40 0 62.5 -7.5t59.5 -25.5l20 35q-27 16 -66 27.5t-85 11.5q-47 0 -86 -23.5t-61 -63.5t-22 -87q0 -62 37 -118
q-50 -33 -79 -86.5t-29 -117.5q0 -65 31 -113t85 -74t120 -26q61 0 112.5 27t86.5 74l97 -88zM380 52q-42 -24 -91 -24t-93 21.5t-71.5 61.5t-27.5 91q0 52 21.5 95.5t63.5 73.5q20 -25 60 -61l211 -193q-31 -41 -73 -65z" />
    <glyph glyph-name="at" unicode="@" horiz-adv-x="760" 
d="M511 404h-71q-58 0 -106.5 -25t-77.5 -69t-29 -99q0 -64 43.5 -104.5t113.5 -40.5q23 0 49 9.5t45 23.5q28 -38 80 -38q76 0 119 62.5t43 180.5q0 83 -38.5 149t-107 103.5t-157.5 37.5q-118 0 -203 -51t-129.5 -138t-44.5 -192q0 -93 42 -163t112.5 -108t153.5 -38
q114 0 187 38l-13 38q-30 -17 -74.5 -26t-88.5 -9q-75 0 -136 33t-96.5 94t-35.5 142q0 100 41.5 177t115 119.5t166.5 42.5q79 0 137.5 -32t89.5 -90t31 -134q0 -95 -31.5 -145t-80.5 -50q-58 0 -58 62q0 12 1 19l24 201zM307 132q-29 29 -29 79q0 47 21.5 82.5t57.5 54.5
t78 19h45l-23 -177q-2 -16 -2 -26q0 -21 7 -39q-13 -9 -35 -15.5t-43 -6.5q-48 0 -77 29z" />
    <glyph glyph-name="asciicircum" unicode="^" horiz-adv-x="417" 
d="M204 348l145 -205h48l-172 247h-43l-172 -247h48z" />
    <glyph glyph-name="asciitilde" unicode="~" horiz-adv-x="374" 
d="M70 215q0 18 14 30t33 12q35 0 71 -24t70 -24q39 0 62.5 22.5t23.5 57.5h-40q0 -18 -14 -30t-33 -12q-26 0 -62 24t-78 24q-39 0 -63 -22t-24 -58h40z" />
    <glyph glyph-name="section" unicode="&#xa7;" horiz-adv-x="570" 
d="M511 163.5q-19 -34.5 -56 -56.5q9 -25 9 -56q0 -77 -59.5 -123.5t-167.5 -46.5q-44 0 -104.5 13.5t-77.5 28.5l15 39q32 -16 76 -27.5t90 -11.5q55 0 95.5 18t61 48t20.5 65q0 53 -43.5 92t-137.5 78q-92 38 -137 86.5t-45 118.5q0 41 19.5 74.5t56.5 54.5q-10 27 -10 61
q0 46 25 82.5t71.5 57.5t109.5 21q47 0 90.5 -11t77.5 -28l-22 -36q-36 16 -67 25t-77 9q-70 0 -113 -36t-43 -89q0 -55 44 -95.5t137 -79.5q94 -39 137.5 -85.5t43.5 -112.5q0 -43 -19 -77.5zM467 192q12 24 12 52q0 53 -43.5 92t-137.5 78q-109 46 -150 102
q-22 -17 -34 -41t-12 -51q0 -55 44 -95.5t137 -79.5q108 -45 148 -98q24 17 36 41z" />
    <glyph glyph-name="ordfeminine" unicode="&#xaa;" horiz-adv-x="332" 
d="M95.5 649.5q15.5 6.5 32.5 10t38 3.5q39 0 59.5 -20.5t20.5 -55.5v-23h-86q-52 0 -86 -26.5t-34 -71.5q0 -44 31 -73.5t84 -29.5q26 0 51.5 12.5t42.5 32.5l11 -36h32v208q0 51 -33.5 86.5t-93.5 35.5q-22 0 -53.5 -8.5t-49.5 -20.5l12 -32q6 2 21.5 8.5zM106.5 514
q21.5 19 62.5 19h77v-86q-16 -23 -40 -36.5t-51 -13.5q-31 0 -50.5 21.5t-19.5 47.5q0 29 21.5 48z" />
    <glyph glyph-name="logicalnot" unicode="&#xac;" horiz-adv-x="505" 
d="M467 406h-457l8 -39h408v-250l49 -5v244z" />
    <glyph glyph-name="paragraph" unicode="&#xb6;" horiz-adv-x="808" 
d="M383 641h224v-641h49v641h112v39h-483q-112 0 -178.5 -52t-66.5 -153q0 -67 34 -115t92 -72t130 -24h38v-264h49v641z" />
    <glyph glyph-name="ordmasculine" unicode="&#xba;" horiz-adv-x="344" 
d="M96.5 681q-34.5 -21 -55.5 -60t-21 -89q0 -52 21 -90.5t55.5 -58.5t75.5 -20t75.5 21t55.5 59.5t21 88.5q0 52 -21 90.5t-56 59t-76 20.5q-40 0 -74.5 -21zM248.5 630.5q30.5 -36.5 30.5 -98.5q0 -42 -15 -72t-40 -45.5t-52 -15.5q-44 0 -75.5 36.5t-31.5 96.5
q0 42 15 72.5t39.5 46.5t51.5 16q47 0 77.5 -36.5z" />
    <glyph glyph-name="Gcommaaccent" unicode="&#x122;" horiz-adv-x="614" 
d="M503 303v-251q-63 -23 -122 -23q-79 0 -142 39.5t-98.5 109.5t-35.5 158q0 91 37 163t102 113t146 41q48 0 78 -7t67 -22l19 33q-25 17 -77 27t-89 10q-96 0 -173.5 -46t-121 -127.5t-43.5 -184.5q0 -100 40 -179.5t115.5 -125t176.5 -45.5q43 0 92.5 13t77.5 32v311
h-196l-6 -39h153zM355 -32.5q-10 -11.5 -10 -27.5q0 -12 10 -25t26 -13q-1 -50 -61 -82l16 -25q41 20 63.5 57.5t22.5 83.5q0 16 -11 29.5t-28 13.5q-18 0 -28 -11.5z" />
    <glyph glyph-name="Kcommaaccent" unicode="&#x136;" horiz-adv-x="580" 
d="M508 0l-272 362l-87 -93v-269h-49v680h49v-355l336 370l34 -32l-250 -266l301 -397h-62zM305 -32.5q-10 -11.5 -10 -27.5q0 -12 10 -25t26 -13q-1 -50 -61 -82l16 -25q41 20 63.5 57.5t22.5 83.5q0 16 -11 29.5t-28 13.5q-18 0 -28 -11.5z" />
    <glyph glyph-name="Lcommaaccent" unicode="&#x13b;" horiz-adv-x="491" 
d="M476 39h-327v641h-49v-680h381zM279 -32.5q-10 -11.5 -10 -27.5q0 -12 10 -25t26 -13q-1 -50 -61 -82l16 -25q41 20 63.5 57.5t22.5 83.5q0 16 -11 29.5t-28 13.5q-18 0 -28 -11.5z" />
    <glyph glyph-name="Ncommaaccent" unicode="&#x145;" horiz-adv-x="658" 
d="M149 0v574l14 -29l368 -545h27v680h-49v-569l-34 59l-347 510h-28v-680h49zM321 -32.5q-10 -11.5 -10 -27.5q0 -12 10 -25t26 -13q-1 -50 -61 -82l16 -25q41 20 63.5 57.5t22.5 83.5q0 16 -11 29.5t-28 13.5q-18 0 -28 -11.5z" />
    <glyph glyph-name="Rcommaaccent" unicode="&#x156;" 
d="M100 0h49v286h103q50 0 91 10l164 -296h55l-177 309q57 22 90 66.5t33 110.5q0 102 -65.5 148t-179.5 46h-163v-680zM404.5 603q53.5 -37 53.5 -119q0 -79 -60 -119t-144 -40h-105v315h116q86 0 139.5 -37zM302 -32.5q-10 -11.5 -10 -27.5q0 -12 10 -25t26 -13
q-1 -50 -61 -82l16 -25q41 20 63.5 57.5t22.5 83.5q0 16 -11 29.5t-28 13.5q-18 0 -28 -11.5z" />
    <glyph glyph-name="Tcommaaccent" unicode="&#x21a;" horiz-adv-x="534" 
d="M519 680h-509v-39h232v-641h49v641h233zM240 -32.5q-10 -11.5 -10 -27.5q0 -12 10 -25t26 -13q-1 -50 -61 -82l16 -25q41 20 63.5 57.5t22.5 83.5q0 16 -11 29.5t-28 13.5q-18 0 -28 -11.5z" />
    <glyph glyph-name="gcommaaccent" unicode="&#x123;" horiz-adv-x="508" 
d="M228 588.5q-11 13.5 -11 29.5q0 46 22.5 83.5t63.5 57.5l16 -25q-60 -32 -61 -82q16 0 26 -13t10 -25q0 -16 -10 -27.5t-28 -11.5q-17 0 -28 13.5zM432 485v-547q0 -75 -50 -121.5t-142 -46.5q-34 0 -86.5 12t-78.5 29l19 35q40 -18 71 -26.5t73 -8.5q64 0 104.5 30
t40.5 87v111q-59 -52 -134 -52q-104 0 -156.5 70t-52.5 188q0 113 56 183t160 70q35 0 72 -16t65 -38l12 41h27zM323 44.5q30 16.5 60 48.5v309q-61 55 -129 55q-52 0 -88.5 -28.5t-55.5 -76.5t-19 -106q0 -95 40 -156.5t118 -61.5q44 0 74 16.5z" />
    <glyph glyph-name="kcommaaccent" unicode="&#x137;" horiz-adv-x="449" 
d="M129 0v206l74 74l187 -280h59l-213 313l155 154l-37 31l-225 -234v442l-49 -10v-696h49zM229 -32.5q-10 -11.5 -10 -27.5q0 -12 10 -25t26 -13q-1 -50 -61 -82l16 -25q41 20 63.5 57.5t22.5 83.5q0 16 -11 29.5t-28 13.5q-18 0 -28 -11.5z" />
    <glyph glyph-name="lcommaaccent" unicode="&#x13c;" horiz-adv-x="209" 
d="M129 0v706l-49 -10v-696h49zM79 -32.5q-10 -11.5 -10 -27.5q0 -12 10 -25t26 -13q-1 -50 -61 -82l16 -25q41 20 63.5 57.5t22.5 83.5q0 16 -11 29.5t-28 13.5q-18 0 -28 -11.5z" />
    <glyph glyph-name="ncommaaccent" unicode="&#x146;" horiz-adv-x="500" 
d="M119 359q96 98 175 98q51 0 71 -32t20 -88v-337h49v337q0 74 -35 117.5t-109 43.5q-44 0 -92 -26t-80 -63l-10 76h-38v-485h49v359zM226 -32.5q-10 -11.5 -10 -27.5q0 -12 10 -25t26 -13q-1 -50 -61 -82l16 -25q41 20 63.5 57.5t22.5 83.5q0 16 -11 29.5t-28 13.5
q-18 0 -28 -11.5z" />
    <glyph glyph-name="rcommaaccent" unicode="&#x157;" horiz-adv-x="302" 
d="M119 357q31 34 80.5 62t92.5 28l-17 38q-34 0 -79.5 -24.5t-79.5 -52.5l-18 77h-28v-485h49v357zM68 -32.5q-10 -11.5 -10 -27.5q0 -12 10 -25t26 -13q-1 -50 -61 -82l16 -25q41 20 63.5 57.5t22.5 83.5q0 16 -11 29.5t-28 13.5q-18 0 -28 -11.5z" />
    <glyph glyph-name="tcommaaccent" unicode="&#x21b;" horiz-adv-x="292" 
d="M141 470v153l-49 -22v-131h-72v-37h72v-317q0 -62 28 -95.5t76 -33.5q19 0 39 5q24 7 27 7l-12 38q-21 -9 -41 -9q-34 0 -51 27.5t-17 67.5v310h109l-21 37h-88zM160 -32.5q-10 -11.5 -10 -27.5q0 -12 10 -25t26 -13q-1 -50 -61 -82l16 -25q41 20 63.5 57.5t22.5 83.5
q0 16 -11 29.5t-28 13.5q-18 0 -28 -11.5z" />
    <glyph glyph-name="tm_A" unicode="&#xb85;" horiz-adv-x="1055" 
d="M955 513v-639h-44v216h-194q-44 -107 -148 -170.5t-242 -63.5q-82 0 -147.5 23t-102.5 63t-37 90q0 42 27.5 67.5t78.5 25.5h534q16 53 16 105q0 76 -27 134.5t-78 91.5t-120 33q-47 0 -85.5 -14.5t-64.5 -41.5q19 8 40 8q53 0 88.5 -31.5t35.5 -78.5q0 -50 -34.5 -82.5
t-88.5 -32.5q-52 0 -86.5 33t-34.5 83q0 57 29.5 102.5t82 71t118.5 25.5q82 0 144 -38.5t95.5 -107t33.5 -155.5q0 -55 -15 -105h182v388h44zM303 383q-23 -21 -23 -53v-1q0 -32 24 -53.5t60 -21.5q34 0 55.5 21t21.5 54t-22.5 54t-57.5 21t-58 -21zM534.5 -50.5
q89.5 51.5 131.5 140.5h-516q-62 0 -62 -58q0 -39 30.5 -69.5t84.5 -47.5t124 -17q118 0 207.5 51.5z" />
    <glyph glyph-name="tm_Aa" unicode="&#xb86;" horiz-adv-x="1248" 
d="M1196.5 36q41.5 -48 41.5 -122q0 -84 -46.5 -150.5t-127.5 -103.5t-182 -37q-62 0 -111 17t-76.5 47.5t-27.5 68.5q0 46 34 76t86 30h21v-35h-21q-33 0 -52.5 -20t-19.5 -51q0 -41 46 -66t121 -25q89 0 159 31.5t109.5 89t39.5 130.5q0 55 -29.5 90t-80.5 35
q-54 0 -89.5 -38t-35.5 -97v-32h-44v216h-194q-44 -107 -148 -170.5t-242 -63.5q-82 0 -147.5 23t-102.5 63t-37 90q0 42 27.5 67.5t78.5 25.5h534q16 53 16 105q0 76 -27 134.5t-78 91.5t-120 33q-47 0 -85.5 -14.5t-64.5 -41.5q19 8 40 8q53 0 88.5 -31.5t35.5 -78.5
q0 -50 -34.5 -82.5t-88.5 -32.5q-52 0 -86.5 33t-34.5 83q0 57 29.5 102.5t82 71t118.5 25.5q82 0 144 -38.5t95.5 -107t33.5 -155.5q0 -55 -15 -105h182v388h44v-490q23 29 56 45t72 16q72 0 113.5 -48zM303 383q-23 -21 -23 -53v-1q0 -32 24 -53.5t60 -21.5q34 0 55.5 21
t21.5 54t-22.5 54t-57.5 21t-58 -21zM534.5 -50.5q89.5 51.5 131.5 140.5h-516q-62 0 -62 -58q0 -39 30.5 -69.5t84.5 -47.5t124 -17q118 0 207.5 51.5z" />
    <glyph glyph-name="tm_Ai" unicode="&#xb90;" horiz-adv-x="841" 
d="M729 101q20 -44 29 -77t9 -74q0 -69 -47 -112t-129 -43q-62 0 -99.5 24t-64.5 68q-28 -44 -69.5 -68t-108.5 -24q-55 0 -98 22.5t-67 62t-24 88.5q0 87 69.5 136t200.5 66l181 24q99 13 160 54t62 110q0 59 -35 95t-93 36q-62 0 -102 -41t-40 -105v-69h-44v69
q0 64 -41.5 105t-106.5 41q-93 0 -134 -59q15 7 36 7q46 0 74 -26.5t28 -68.5t-29 -69.5t-74 -27.5q-46 0 -75.5 27t-29.5 70q0 54 26.5 97t73 67.5t104.5 24.5q107 0 169 -95q60 95 165 95q50 0 90.5 -22.5t63 -62t22.5 -88.5q0 -90 -68.5 -137.5t-201.5 -64.5l-181 -25
q-98 -13 -159.5 -53.5t-62.5 -109.5q0 -59 38.5 -95t102.5 -36q69 0 112.5 40.5t43.5 105.5v69h44v-69q0 -66 38.5 -106t103.5 -40q62 0 95 30.5t33 82.5q0 31 -9.5 71t-25.5 74zM130 385q-17 -16 -19 -40v-6q0 -25 17 -42t42 -17q26 0 43.5 16.5t18.5 41.5q0 27 -17 45
t-43 18q-25 0 -42 -16z" />
    <glyph glyph-name="tm_Au" unicode="&#xb94;" horiz-adv-x="2018" 
d="M565.5 33.5q29.5 -33.5 95.5 -33.5h59v-35h-59q-39 0 -68 9v-24q0 -48 -23 -86.5t-64 -60.5t-92 -22t-92 22t-64 60.5t-23 86.5v50h44v-50q0 -56 38.5 -93t96.5 -37t96.5 37t38.5 93v47q-52 42 -52 136v136h44q1 -45 26 -73t62 -28q82 0 82 114q0 60 -39.5 107.5
t-108 74.5t-154.5 27q-87 0 -156.5 -28.5t-109 -79t-39.5 -114.5q0 -18 3 -35q7 42 38 68t75 26q51 0 84 -32.5t33 -82.5q0 -48 -34 -79.5t-86 -31.5q-45 0 -81 21.5t-56 59.5t-20 86q0 76 45 136.5t124.5 94.5t179.5 34t180 -32.5t125 -90t45 -129.5q0 -70 -34 -113
t-96 -43q-28 0 -52 12t-41 34v-39q0 -66 29.5 -99.5zM163 267q-22 -21 -22 -55q0 -31 21.5 -51.5t53.5 -20.5h1q32 0 53 20.5t22 52.5q0 33 -20.5 54t-52.5 21q-34 0 -56 -21zM2008 478h-201v-478h-44v478h-270v-478h-44v228q0 75 -33.5 134.5t-93 93t-133.5 33.5
q-82 0 -141 -32t-90 -89.5t-31 -130.5q0 -60 24.5 -108t70.5 -76q-28 36 -28 86q0 45 21 81t58.5 56t84.5 20q48 0 86.5 -20.5t60 -56.5t21.5 -82q0 -44 -21.5 -79.5t-60 -55.5t-86.5 -20q-84 0 -147 32.5t-97.5 90.5t-34.5 132q0 86 37.5 152.5t107.5 104t165 37.5
q86 0 154 -39t106 -108v129h554zM1071 51.5q34 -34.5 87 -34.5q52 0 86.5 34t34.5 86t-34 86t-87 34t-87 -33t-34 -85q0 -53 34 -87.5z" />
    <glyph glyph-name="tm_Ca" unicode="&#xb9a;" horiz-adv-x="667" 
d="M627 252h-174v-47q0 -107 -60 -165t-157 -58q-55 0 -97.5 20t-65.5 55t-23 79q0 53 31 92t86 52v233h455l5 -35h-174v-191h169zM211 478v-191h14h184v191h-198zM409 252h-183q-61 0 -94.5 -32.5t-33.5 -84.5q0 -51 36.5 -81t101.5 -30q78 0 125.5 46.5t47.5 134.5v47z
" />
    <glyph glyph-name="tm_E" unicode="&#xb8e;" horiz-adv-x="839" 
d="M829 478h-201v-478h-44v478h-190q-139 0 -212.5 -65t-73.5 -176q0 -60 24.5 -108t70.5 -76q-28 36 -28 86q0 45 21 81t58.5 56t84.5 20q48 0 86.5 -20.5t60 -56.5t21.5 -82q0 -44 -21.5 -79.5t-60 -55.5t-86.5 -20q-84 0 -147 32.5t-97.5 90.5t-34.5 132q0 83 37.5 145.5
t110.5 96.5t177 34h439zM252 51.5q34 -34.5 87 -34.5q52 0 86.5 34t34.5 86t-34 86t-87 34t-87 -33t-34 -85q0 -53 34 -87.5z" />
    <glyph glyph-name="tm_Ee" unicode="&#xb8f;" horiz-adv-x="839" 
d="M829 478h-201v-452q0 -44 -4.5 -68.5t-19 -42t-44.5 -30.5l-317 -135l-21 35l298 129q39 16 51.5 37t12.5 69v458h-190q-139 0 -212.5 -65t-73.5 -176q0 -60 24.5 -108t70.5 -76q-28 36 -28 86q0 45 21 81t58.5 56t84.5 20q48 0 86.5 -20.5t60 -56.5t21.5 -82
q0 -44 -21.5 -79.5t-60 -55.5t-86.5 -20q-84 0 -147 32.5t-97.5 90.5t-34.5 132q0 83 37.5 145.5t110.5 96.5t177 34h439zM252 51.5q34 -34.5 87 -34.5q52 0 86.5 34t34.5 86t-34 86t-87 34t-87 -33t-34 -85q0 -53 34 -87.5z" />
    <glyph glyph-name="tm_Ha" unicode="&#xbb9;" horiz-adv-x="1531" 
d="M1420.5 449q50.5 -82 50.5 -218q0 -183 -76.5 -289t-241.5 -106h-894q-57 0 -99.5 -21.5t-65.5 -57.5l-34 21q24 41 78.5 67t120.5 26h894q143 0 207 96.5t64 263.5q0 118 -37.5 188t-109.5 70q-53 0 -84 -38.5t-31 -112.5v-338h-44v320q0 75 -32 122t-86 47
q-53 0 -81 -38t-28 -113v-338h-340v35q40 41 64 97.5t24 122.5q0 68 -32 121t-90.5 83t-137.5 30q-82 0 -143.5 -32.5t-94.5 -89.5t-33 -130q0 -60 24.5 -108t70.5 -76q-28 36 -28 86q0 45 21 81t58.5 56t84.5 20q48 0 86.5 -20.5t60 -56.5t21.5 -82q0 -44 -21.5 -79.5
t-60 -55.5t-86.5 -20q-84 0 -147 32.5t-97.5 90.5t-34.5 132q0 85 39.5 152t112 104.5t167.5 37.5q92 0 161.5 -35.5t107.5 -98t38 -142.5q0 -63 -20 -120.5t-54 -99.5h235v302q0 93 40.5 143.5t108.5 50.5q47 0 83 -26t57 -72q20 47 57 72.5t80 25.5q97 0 147.5 -82z
M252 51.5q34 -34.5 87 -34.5q52 0 86.5 34t34.5 86t-34 86t-87 34t-87 -33t-34 -85q0 -53 34 -87.5z" />
    <glyph glyph-name="tm_I" unicode="&#xb87;" horiz-adv-x="1030" 
d="M742 667q88 -44 138 -124t50 -185v-506h-44v504q0 94 -43.5 165t-121.5 109.5t-179 38.5q-109 0 -192.5 -37.5t-130 -110t-46.5 -172.5q0 -122 60 -233q97 36 211 36q79 0 151 -23q66 106 66 191q0 77 -43 123t-128 46q-45 0 -80.5 -15t-58.5 -44q22 11 47 11
q53 0 88.5 -31.5t35.5 -78.5q0 -50 -34.5 -82.5t-88.5 -32.5q-52 0 -86.5 33t-34.5 83q0 57 27 102.5t75.5 71t109.5 25.5q106 0 162.5 -58t56.5 -153q0 -93 -70 -207q75 -33 119 -87.5t44 -120.5q0 -46 -37.5 -74.5t-105.5 -28.5q-130 0 -254 75q-56 -36 -112.5 -55.5
t-109.5 -19.5q-68 0 -105.5 28.5t-37.5 74.5q0 60 40.5 110t111.5 84q-66 122 -66 250q0 112 53 193.5t147.5 125t215.5 43.5q112 0 200 -44zM340 383q-23 -21 -23 -54q0 -32 24 -53.5t60 -21.5q34 0 55.5 21t21.5 54t-22.5 54t-57.5 21t-58 -21zM255 79q59 -92 148 -152
q96 67 167 165q-59 18 -126 18q-102 0 -189 -31zM716.5 4q-38.5 45 -102.5 72q-71 -100 -171 -174q105 -58 216 -58q96 0 96 61q0 54 -38.5 99zM366 -97q-90 64 -151 159q-59 -29 -93 -69t-34 -88q0 -29 23 -45t72 -16q86 0 183 59z" />
    <glyph glyph-name="tm_Ii" unicode="&#xb88;" horiz-adv-x="741" 
d="M476 478v-478h-44v478h-288v-478h-44v513h626l5 -35h-255zM313.5 209q9.5 10 9.5 24t-10.5 24t-24.5 10q-15 0 -24.5 -9.5t-9.5 -24.5t9.5 -24.5t24.5 -9.5q16 0 25.5 10zM645.5 209q9.5 10 9.5 24t-10.5 24t-24.5 10q-15 0 -24.5 -10t-9.5 -24t9.5 -24t24.5 -10
q16 0 25.5 10z" />
    <glyph glyph-name="tm_Ja" unicode="&#xb9c;" horiz-adv-x="841" 
d="M740 32.5q41 -37.5 41 -96.5q0 -61 -47.5 -99.5t-124.5 -38.5h-121v35h121q57 0 90.5 29t33.5 74q0 41 -27 66.5t-71 25.5q-41 0 -79.5 -26t-99.5 -81q-68 -62 -118 -94t-107 -32q-50 0 -89 22.5t-60.5 61.5t-21.5 89q0 87 69.5 136t200.5 66l181 24q99 13 160 54t62 110
q0 59 -35 95t-93 36q-62 0 -102 -41t-40 -105v-69h-44v69q0 64 -41.5 105t-106.5 41q-93 0 -134 -59q15 7 36 7q46 0 74 -26.5t28 -68.5t-29 -69.5t-74 -27.5q-46 0 -75.5 27t-29.5 70q0 54 26.5 97t73 67.5t104.5 24.5q107 0 169 -95q60 95 165 95q50 0 90.5 -22.5t63 -62
t22.5 -88.5q0 -90 -68.5 -137.5t-201.5 -64.5l-181 -25q-98 -13 -159.5 -53.5t-62.5 -109.5q0 -59 33 -95t90 -36q43 0 84.5 27.5t105.5 83.5q67 60 115 91t99 31q64 0 105 -37.5zM130 385q-17 -16 -19 -40v-6q0 -25 17 -42t42 -17q26 0 43.5 16.5t18.5 41.5q0 27 -17 45
t-43 18q-25 0 -42 -16z" />
    <glyph glyph-name="tm_Ka" unicode="&#xb95;" horiz-adv-x="723" 
d="M635 246q48 -41 48 -106q0 -70 -51.5 -114t-139.5 -44v35q69 0 106 33.5t37 89.5q0 50 -34 81t-96 31h-52v-47q0 -107 -60 -165t-157 -58q-55 0 -97.5 20t-65.5 55t-23 79q0 53 31 92t86 52v233h455l5 -35h-174v-191h51q83 0 131 -41zM211 478v-191h14h184v191h-198z
M409 252h-183q-61 0 -94.5 -32.5t-33.5 -84.5q0 -51 36.5 -81t101.5 -30q78 0 125.5 46.5t47.5 134.5v47z" />
    <glyph glyph-name="tm_La" unicode="&#xbb2;" horiz-adv-x="1007" 
d="M925.5 378.5q21.5 -79.5 21.5 -143.5q0 -116 -46.5 -184.5t-129.5 -68.5q-77 0 -122.5 56.5t-45.5 171.5v45q0 72 -29.5 125t-83 81t-122.5 28q-82 0 -140.5 -32t-89 -89t-30.5 -131q0 -60 24.5 -108t70.5 -76q-28 36 -28 86q0 45 21 81t58.5 56t84.5 20q48 0 86.5 -20.5
t60 -56.5t21.5 -82q0 -44 -21.5 -79.5t-60 -55.5t-86.5 -20q-84 0 -147 32.5t-97.5 90.5t-34.5 132q0 86 37 152.5t106.5 104t164.5 37.5q81 0 144.5 -34t99 -96.5t35.5 -145.5v-45q0 -96 33.5 -141t90.5 -45q60 0 94 56t34 153q0 64 -21 144t-61 136l45 14
q42 -69 63.5 -148.5zM252 51.5q34 -34.5 87 -34.5q52 0 86.5 34t34.5 86t-34 86t-87 34t-87 -33t-34 -85q0 -53 34 -87.5z" />
    <glyph glyph-name="tm_Lla" unicode="&#xbb3;" horiz-adv-x="1199" 
d="M1189 478h-201v-478h-44v478h-270v-478h-44v228q0 75 -33.5 134.5t-93 93t-133.5 33.5q-82 0 -141 -32t-90 -89.5t-31 -130.5q0 -60 24.5 -108t70.5 -76q-28 36 -28 86q0 45 21 81t58.5 56t84.5 20q48 0 86.5 -20.5t60 -56.5t21.5 -82q0 -44 -21.5 -79.5t-60 -55.5
t-86.5 -20q-84 0 -147 32.5t-97.5 90.5t-34.5 132q0 86 37.5 152.5t107.5 104t165 37.5q86 0 154 -39t106 -108v129h554zM252 51.5q34 -34.5 87 -34.5q52 0 86.5 34t34.5 86t-34 86t-87 34t-87 -33t-34 -85q0 -53 34 -87.5z" />
    <glyph glyph-name="tm_Llla" unicode="&#xbb4;" horiz-adv-x="786" 
d="M416 0v-55q0 -42 14 -61.5t44 -19.5h169l4 -35h-179q-18 -59 -68 -95t-110 -36q-80 0 -122.5 41t-42.5 108h44q0 -50 30 -78t92 -28q47 0 83 23.5t56 72.5q-36 16 -47 44.5t-11 75.5v43h-272v513l44 5v-483h228v320q0 87 41.5 131.5t111.5 44.5q61 0 106.5 -38.5
t70 -106.5t24.5 -155q0 -107 -46 -169t-143 -62h-121zM416 35h121q77 0 109 51.5t32 144.5q0 115 -40 186.5t-110 71.5q-52 0 -82 -31.5t-30 -101.5v-321z" />
    <glyph glyph-name="tm_Ma" unicode="&#xbae;" horiz-adv-x="786" 
d="M631.5 492.5q45.5 -38.5 70 -106.5t24.5 -155q0 -107 -46 -169t-143 -62h-437v513l44 5v-483h228v320q0 87 41.5 131.5t111.5 44.5q61 0 106.5 -38.5zM646 86.5q32 51.5 32 144.5q0 115 -40 186.5t-110 71.5q-52 0 -82 -31.5t-30 -101.5v-321h121q77 0 109 51.5z" />
    <glyph glyph-name="tm_Na" unicode="&#xba8;" horiz-adv-x="734" 
d="M633 283q41 -60 41 -160q0 -81 -31 -146t-93.5 -103t-152.5 -38h-97q-57 0 -100 -21.5t-66 -57.5l-34 21q24 41 79 67t121 26h97q75 0 126.5 34t77.5 91.5t26 128.5q0 82 -29 129t-87 47q-55 0 -90 -38t-35 -97v-166h-44v478h-198v-478h-44v513h482l5 -35h-201v-196
q23 29 56 45t72 16q78 0 119 -60z" />
    <glyph glyph-name="tm_Nga" unicode="&#xb99;" horiz-adv-x="948" 
d="M848 513v-513h-506v35h118q46 0 83 21t57.5 58t20.5 83q0 55 -29.5 90t-80.5 35q-55 0 -90 -38t-35 -97v-45h-44v336h-198v-478h-44v513h482l5 -35h-201v-174q23 29 56 45t72 16q72 0 113.5 -48t41.5 -122q0 -55 -22 -95.5t-62 -64.5h219v478h44z" />
    <glyph glyph-name="tm_Nna" unicode="&#xba3;" horiz-adv-x="1668" 
d="M1658 478h-201v-478h-44v478h-100q-91 0 -166 -44q50 -50 78 -118.5t28 -144.5q0 -83 -43 -136t-113 -53q-71 0 -112 52.5t-41 136.5q0 80 35.5 148.5t97.5 116.5q-75 53 -170 53q-98 0 -171 -53q63 -50 98.5 -118.5t35.5 -146.5q0 -84 -41.5 -136.5t-111.5 -52.5
q-71 0 -114 53t-43 136q0 75 27.5 143t77.5 119q-98 56 -218 56q-103 0 -180 -33t-118 -92t-41 -136q0 -55 25 -100.5t69 -73.5q-27 38 -27 85q0 45 21 81t58.5 56t84.5 20q48 0 86.5 -20.5t60 -56.5t21.5 -82q0 -44 -21.5 -79.5t-60 -55.5t-86.5 -20q-80 0 -143.5 32
t-99.5 88t-36 126q0 87 47.5 156t135.5 108t204 39q70 0 134.5 -18t117.5 -51q90 69 208 69t209 -69q91 51 197 51h340zM1180.5 302q-25.5 62 -71.5 107q-55 -43 -86 -104.5t-31 -133.5q0 -66 27.5 -106.5t77.5 -40.5q49 0 79 41.5t30 105.5q0 69 -25.5 131zM790.5 303
q-31.5 61 -88.5 105q-45 -45 -69.5 -106t-24.5 -131q0 -65 29.5 -106t79.5 -41q49 0 77 41t28 106q0 71 -31.5 132zM252 51.5q34 -34.5 87 -34.5q52 0 86.5 34t34.5 86t-34 86t-87 34t-87 -33t-34 -85q0 -53 34 -87.5z" />
    <glyph glyph-name="tm_Nnna" unicode="&#xba9;" horiz-adv-x="1284" 
d="M1274 478h-201v-478h-44v478h-100q-100 0 -180 -52q57 -50 89 -115.5t32 -139.5q0 -84 -42.5 -136.5t-112.5 -52.5t-112.5 52.5t-42.5 136.5q0 75 31.5 140.5t87.5 112.5q-48 31 -107 48t-125 17q-103 0 -180 -33t-118 -92t-41 -136q0 -55 25 -100.5t69 -73.5
q-27 38 -27 85q0 45 21 81t58.5 56t84.5 20q48 0 86.5 -20.5t60 -56.5t21.5 -82q0 -44 -21.5 -79.5t-60 -55.5t-86.5 -20q-80 0 -143.5 32t-99.5 88t-36 126q0 87 47.5 156t135.5 108t204 39q76 0 144.5 -20.5t123.5 -58.5q94 61 214 61h341zM793.5 297q-28.5 59 -80.5 102
q-50 -43 -77.5 -102t-27.5 -126q0 -65 29 -106t78 -41t78 41t29 106q0 67 -28.5 126zM252 51.5q34 -34.5 87 -34.5q52 0 86.5 34t34.5 86t-34 86t-87 34t-87 -33t-34 -85q0 -53 34 -87.5z" />
    <glyph glyph-name="tm_Nya" unicode="&#xb9e;" horiz-adv-x="1189" 
d="M1054.5 316q36.5 -27 55.5 -72.5t19 -100.5q0 -117 -59.5 -205t-170.5 -136t-262 -48q-169 0 -295 54.5t-194 153t-68 228.5q0 84 40 181t100 152l46 -10q-59 -48 -98.5 -142.5t-39.5 -182.5q0 -117 61.5 -206t176.5 -137.5t271 -48.5q137 0 237.5 43t154 122t53.5 184
q0 65 -30.5 110.5t-84.5 45.5q-55 0 -90.5 -38t-35.5 -97v-166h-44v478h-172q-139 0 -212.5 -65t-73.5 -176q0 -61 25 -108.5t72 -76.5q-29 37 -29 87q0 45 21 81t58.5 56t84.5 20q48 0 86.5 -20.5t60 -56.5t21.5 -82q0 -44 -21.5 -79.5t-60 -55.5t-86.5 -20
q-84 0 -147 32.5t-97.5 90.5t-34.5 132q0 83 37.5 145.5t110 96.5t176.5 34h422l4 -35h-201v-196q23 29 56 45t72 16q49 0 85.5 -27zM484 51.5q34 -34.5 87 -34.5q52 0 86 34t34 86q0 53 -33.5 86.5t-86.5 33.5t-87 -33t-34 -85q0 -53 34 -87.5z" />
    <glyph glyph-name="tm_O" unicode="&#xb92;" horiz-adv-x="819" 
d="M565.5 33.5q29.5 -33.5 95.5 -33.5h59v-35h-59q-39 0 -68 9v-24q0 -48 -23 -86.5t-64 -60.5t-92 -22t-92 22t-64 60.5t-23 86.5v50h44v-50q0 -56 38.5 -93t96.5 -37t96.5 37t38.5 93v47q-52 42 -52 136v136h44q1 -45 26 -73t62 -28q82 0 82 114q0 60 -39.5 107.5
t-108 74.5t-154.5 27q-87 0 -156.5 -28.5t-109 -79t-39.5 -114.5q0 -18 3 -35q7 42 38 68t75 26q51 0 84 -32.5t33 -82.5q0 -48 -34 -79.5t-86 -31.5q-45 0 -81 21.5t-56 59.5t-20 86q0 76 45 136.5t124.5 94.5t179.5 34t180 -32.5t125 -90t45 -129.5q0 -70 -34 -113
t-96 -43q-28 0 -52 12t-41 34v-39q0 -66 29.5 -99.5zM163 267q-22 -21 -22 -55q0 -31 21.5 -51.5t53.5 -20.5h1q32 0 53 20.5t22 52.5q0 33 -20.5 54t-52.5 21q-34 0 -56 -21z" />
    <glyph glyph-name="tm_Om" unicode="&#xbd0;" horiz-adv-x="819" 
d="M565.5 33.5q29.5 -33.5 95.5 -33.5h59v-35h-59q-39 0 -68 9v-24q0 -48 -23 -86.5t-64 -60.5t-92 -22t-92 22t-64 60.5t-23 86.5v50h44v-50q0 -56 38.5 -93t96.5 -37t96.5 37t38.5 93v47q-52 42 -52 136v136h44q1 -45 26 -73t62 -28q82 0 82 114q0 60 -39.5 107.5
t-108 74.5t-154.5 27q-87 0 -156.5 -28.5t-109 -79t-39.5 -114.5q0 -18 3 -35q7 42 38 68t75 26q51 0 84 -32.5t33 -82.5q0 -48 -34 -79.5t-86 -31.5q-45 0 -81 21.5t-56 59.5t-20 86q0 76 45 136.5t124.5 94.5t179.5 34t180 -32.5t125 -90t45 -129.5q0 -70 -34 -113
t-96 -43q-28 0 -52 12t-41 34v-39q0 -66 29.5 -99.5zM163 267q-22 -21 -22 -55q0 -31 21.5 -51.5t53.5 -20.5h1q32 0 53 20.5t22 52.5q0 33 -20.5 54t-52.5 21q-34 0 -56 -21zM403.5 36.5q-4.5 4.5 -4.5 11.5t4.5 12t11.5 5t11.5 -5t4.5 -12t-4.5 -11.5t-11.5 -4.5
t-11.5 4.5zM371 12v-84h32v41q0 20 10.5 33t30.5 13q24 0 37 -15.5t13 -40.5q0 -24 -14 -39t-38 -15h-96v106zM428 -72h16q11 0 18 8.5t7 22.5q0 15 -5.5 24.5t-16.5 9.5q-19 0 -19 -25v-40z" />
    <glyph glyph-name="tm_Oo" unicode="&#xb93;" horiz-adv-x="819" 
d="M565.5 33.5q29.5 -33.5 95.5 -33.5h59v-35h-59q-38 0 -68 9v-24q0 -48 -26.5 -86.5t-73.5 -60.5t-106 -22q-54 0 -97 17t-67.5 47.5t-24.5 68.5q0 47 33.5 77t85.5 30h21v-35h-21q-33 0 -54 -20t-21 -52q0 -41 41 -67.5t104 -26.5q70 0 116 37t46 93v47q-52 40 -52 136
v136h44q1 -45 26 -73t62 -28q82 0 82 114q0 60 -39.5 107.5t-108 74.5t-154.5 27q-87 0 -156.5 -28.5t-109 -79t-39.5 -114.5q0 -18 3 -35q7 42 38 68t75 26q51 0 84 -32.5t33 -82.5q0 -48 -34 -79.5t-86 -31.5q-45 0 -81 21.5t-56 59.5t-20 86q0 76 45 136.5t124.5 94.5
t179.5 34t180 -32.5t125 -90t45 -129.5q0 -70 -34 -113t-96 -43q-28 0 -52 12t-41 34v-39q0 -66 29.5 -99.5zM163 267q-22 -21 -22 -55q0 -31 21.5 -51.5t53.5 -20.5h1q32 0 53 20.5t22 52.5q0 33 -20.5 54t-52.5 21q-34 0 -56 -21z" />
    <glyph glyph-name="tm_Pa" unicode="&#xbaa;" horiz-adv-x="706" 
d="M606 513v-513h-506v513l44 5v-483h418v478h44z" />
    <glyph glyph-name="tm_Ra" unicode="&#xbb0;" horiz-adv-x="669" 
d="M458 478v-452q0 -60 -13 -87.5t-55 -53.5l-227 -135l-21 35l223 135q31 19 40 41t9 72v445h-270v-478h-44v513h554l5 -35h-201z" />
    <glyph glyph-name="tm_Rra" unicode="&#xbb1;" horiz-adv-x="775" 
d="M664.5 449q50.5 -82 50.5 -218q0 -183 -77 -289t-242 -106h-106q-57 0 -100 -21.5t-66 -57.5l-34 21q25 41 79.5 67t120.5 26h106q144 0 207.5 96.5t63.5 263.5q0 118 -37.5 188t-109.5 70q-53 0 -84 -38.5t-31 -112.5v-338h-44v320q0 75 -31.5 122t-86.5 47
q-52 0 -80.5 -38t-28.5 -113v-338h-44v337q0 93 40.5 143.5t108.5 50.5q48 0 84 -26t56 -72q20 47 57 72.5t81 25.5q97 0 147.5 -82z" />
    <glyph glyph-name="tm_Sa" unicode="&#xbb8;" horiz-adv-x="1277" 
d="M1196 378.5q21 -79.5 21 -143.5q0 -116 -46 -184.5t-129 -68.5q-77 0 -122.5 56.5t-45.5 171.5v128q0 151 -105 151q-62 0 -92 -63t-30 -171v-255h-44v255q0 72 -29.5 125t-83 81t-122.5 28q-82 0 -140.5 -32t-89 -89t-30.5 -131q0 -60 24.5 -108t70.5 -76q-28 36 -28 86
q0 45 21 81t58.5 56t84.5 20q48 0 86.5 -20.5t60 -56.5t21.5 -82q0 -44 -21.5 -79.5t-60 -55.5t-86.5 -20q-84 0 -147 32.5t-97.5 90.5t-34.5 132q0 86 37 152.5t106.5 104t164.5 37.5q85 0 150.5 -37.5t99.5 -105.5q36 143 151 143q68 0 108.5 -47.5t40.5 -146.5v-127
q0 -96 33.5 -141t90.5 -45q60 0 94 56t34 153q0 64 -21 144t-61 136l45 14q42 -69 63 -148.5zM252 51.5q34 -34.5 87 -34.5q52 0 86.5 34t34.5 86t-34 86t-87 34t-87 -33t-34 -85q0 -53 34 -87.5z" />
    <glyph glyph-name="tm_Sha" unicode="&#xbb6;" horiz-adv-x="998" 
d="M892.5 451q45.5 -62 45.5 -169q0 -87 -24.5 -155t-70 -106.5t-106.5 -38.5q-70 0 -111.5 44.5t-41.5 131.5v320h-170v-302q0 -94 -44.5 -144t-117.5 -50t-117.5 50t-44.5 144v337l44 5v-343q0 -73 32.5 -112t85.5 -39t85.5 39t32.5 112v338h379q98 0 143.5 -62z
M850.5 95.5q39.5 71.5 39.5 186.5q0 93 -31.5 144.5t-109.5 51.5h-121v-321q0 -70 30.5 -101.5t82.5 -31.5q70 0 109.5 71.5z" />
    <glyph glyph-name="tm_Ssa" unicode="&#xbb7;" horiz-adv-x="1339" 
d="M1244 0h-206v-243h-44v243h-443v35q40 41 64 97.5t24 122.5q0 68 -32 121t-90.5 83t-137.5 30q-82 0 -143.5 -32.5t-94.5 -89.5t-33 -130q0 -60 24.5 -108t70.5 -76q-28 36 -28 86q0 45 21 81t58.5 56t84.5 20q48 0 86.5 -20.5t60 -56.5t21.5 -82q0 -44 -21.5 -79.5
t-60 -55.5t-86.5 -20q-84 0 -147 32.5t-97.5 90.5t-34.5 132q0 85 39.5 152t112 104.5t167.5 37.5q92 0 161.5 -35.5t107.5 -98t38 -142.5q0 -62 -20 -120t-54 -100h382v182q-31 -9 -65 -9q-61 0 -106 23t-69 62t-25 86q0 67 43 109.5t115 42.5q71 0 111 -45t40 -117v-87
q50 30 92.5 81t69.5 115h44v-478zM994 262v102q0 57 -27.5 91t-79.5 34q-51 0 -81 -30.5t-30 -79.5q0 -55 41 -92t112 -37q32 0 65 12zM1200 35v351q-30 -52 -72 -91t-90 -61v-199h162zM252 51.5q34 -34.5 87 -34.5q52 0 86.5 34t34.5 86t-34 86t-87 34t-87 -33t-34 -85
q0 -53 34 -87.5z" />
    <glyph glyph-name="tm_Ta" unicode="&#xba4;" horiz-adv-x="733" 
d="M583 260q47 -27 73.5 -75t26.5 -108q0 -70 -36 -124.5t-102 -85.5t-153 -31h-142q-57 0 -100 -21.5t-66 -57.5l-34 21q24 41 79 67t121 26h142q74 0 129 26.5t84.5 73.5t29.5 106q0 50 -20 90t-56 62.5t-82 22.5h-24v-47q0 -107 -60 -165t-157 -58q-55 0 -97.5 20
t-65.5 55t-23 79q0 53 31 92t86 52v233h455l5 -35h-174v-191h23q60 0 107 -27zM211 478v-191h14h184v191h-198zM409 252h-183q-61 0 -94.5 -32.5t-33.5 -84.5q0 -51 36.5 -81t101.5 -30q78 0 125.5 46.5t47.5 134.5v47z" />
    <glyph glyph-name="tm_Tta" unicode="&#xb9f;" horiz-adv-x="714" 
d="M699 35h-555v483l-44 -5v-513h604z" />
    <glyph glyph-name="tm_U" unicode="&#xb89;" horiz-adv-x="964" 
d="M954 35v-35h-879v35h241q66 0 117 30.5t79.5 85t28.5 122.5q0 63 -28 112t-79 76.5t-117 27.5q-70 0 -122 -27.5t-81 -76.5q40 27 89 27q67 0 110.5 -40t43.5 -101q0 -64 -45 -105t-114 -41q-68 0 -113 42.5t-45 107.5q0 74 34.5 132t97.5 91t145 33q78 0 140 -33.5
t97 -92t35 -132.5q0 -82 -35 -144t-99 -94h499zM119 345.5q-33 -28.5 -33 -72.5q0 -47 31.5 -76.5t80.5 -29.5q48 0 79.5 29.5t31.5 74.5q0 44 -30 73.5t-76 29.5q-51 0 -84 -28.5z" />
    <glyph glyph-name="tm_Uu" unicode="&#xb8a;" horiz-adv-x="1699" 
d="M1689 35v-35h-1614v35h241q66 0 117 30.5t79.5 85t28.5 122.5q0 63 -28 112t-79 76.5t-117 27.5q-70 0 -122 -27.5t-81 -76.5q40 27 89 27q67 0 110.5 -40t43.5 -101q0 -64 -45 -105t-114 -41q-68 0 -113 42.5t-45 107.5q0 74 34.5 132t97.5 91t145 33q78 0 140 -33.5
t97 -92t35 -132.5q0 -82 -34.5 -144t-98.5 -94h1233zM792 103q-54 28 -81 76t-27 105q0 71 33 126.5t92.5 87t135.5 31.5q71 0 128 -32t90 -88v104h476l5 -35h-167v-388h-44v388h-226v-388h-44v178q0 63 -28 113t-78 78t-112 28t-111 -26t-76 -72.5t-27 -104.5
q0 -48 18.5 -85.5t56.5 -60.5q-23 31 -23 72q0 59 39.5 97t100.5 38t101 -39t40 -98q0 -58 -40 -95.5t-101 -37.5q-77 0 -131 28zM119 345.5q-33 -28.5 -33 -72.5q0 -47 31.5 -76.5t80.5 -29.5q48 0 79.5 29.5t31.5 74.5q0 44 -30 73.5t-76 29.5q-51 0 -84 -28.5zM853 138
q27 -28 70 -28t70 27.5t27 70.5t-27 70.5t-70 27.5t-70 -27t-27 -69q0 -44 27 -72z" />
    <glyph glyph-name="tm_Va" unicode="&#xbb5;" horiz-adv-x="1027" 
d="M927 513v-513h-376v35q40 41 64 97.5t24 122.5q0 68 -30.5 121t-89.5 83t-140 30q-82 0 -143.5 -32.5t-94.5 -89.5t-33 -130q0 -60 24.5 -108t70.5 -76q-28 36 -28 86q0 45 21 81t58.5 56t84.5 20q48 0 86.5 -20.5t60 -56.5t21.5 -82q0 -44 -21.5 -79.5t-60 -55.5
t-86.5 -20q-84 0 -147 32.5t-97.5 90.5t-34.5 132q0 85 39.5 152t112 104.5t167.5 37.5q92 0 161.5 -35.5t107.5 -98t38 -142.5q0 -63 -20 -120.5t-54 -99.5h271v478h44zM252 51.5q34 -34.5 87 -34.5q52 0 86.5 34t34.5 86t-34 86t-87 34t-87 -33t-34 -85q0 -53 34 -87.5z
" />
    <glyph glyph-name="tm_Visarga" unicode="&#xb83;" horiz-adv-x="670" 
d="M409 356q30 28 30 71t-30.5 71.5t-73.5 28.5q-42 0 -73 -29t-31 -71q0 -43 30.5 -71t73.5 -28q44 0 74 28zM290.5 382.5q-17.5 17.5 -17.5 44.5t17.5 44.5t44.5 17.5t44.5 -17.5t17.5 -44.5t-17.5 -44.5t-44.5 -17.5t-44.5 17.5zM238 14.5q30 28.5 30 71.5t-30.5 71
t-73.5 28q-42 0 -73 -28.5t-31 -70.5q0 -43 30.5 -71.5t73.5 -28.5q44 0 74 28.5zM580 14.5q30 28.5 30 71.5t-30.5 71t-73.5 28q-42 0 -73 -28.5t-31 -70.5q0 -43 30.5 -71.5t73.5 -28.5q44 0 74 28.5zM119.5 41q-17.5 18 -17.5 45t17.5 45t44.5 18t44.5 -18t17.5 -45
t-17.5 -45t-44.5 -18t-44.5 18zM461.5 41q-17.5 18 -17.5 45t17.5 44.5t44.5 17.5t44.5 -17.5t17.5 -44.5t-17.5 -45t-44.5 -18t-44.5 18z" />
    <glyph glyph-name="tm_Ya" unicode="&#xbaf;" horiz-adv-x="886" 
d="M786 513v-513h-407v52q-21 -34 -53.5 -52t-73.5 -18q-75 0 -118.5 47.5t-43.5 146.5v337l44 5v-343q0 -151 118 -151q61 0 94 46.5t33 122.5v320h44v-478h319v478h44z" />
    <glyph glyph-name="tm_Eight" unicode="&#xbee;" horiz-adv-x="1055" 
d="M955 513v-639h-44v216h-194q-43 -107 -147.5 -170.5t-242.5 -63.5q-82 0 -147.5 23t-102.5 63t-37 89q0 42 27.5 68t78.5 26h190q-47 28 -73.5 75t-26.5 105q0 65 30.5 116.5t84 80.5t120.5 29q82 0 144 -38.5t95.5 -107t33.5 -155.5q0 -55 -15 -105h182v388h44zM696 230
q0 76 -27 134.5t-78 91.5t-120 33q-54 0 -96.5 -24t-66.5 -66t-24 -94q0 -51 23.5 -92t65 -64.5t93.5 -23.5h214q16 47 16 105zM535.5 -50.5q89.5 51.5 130.5 140.5h-516q-62 0 -62 -59q0 -39 30.5 -69t84.5 -47t124 -17q119 0 208.5 51.5z" />
    <glyph glyph-name="tm_Five" unicode="&#xbeb;" horiz-adv-x="1221" 
d="M633 478h-214v-478h-44v513h499l4 -35h-201v-196q23 29 56 45t72 16q75 0 117.5 -61t42.5 -159q0 -114 -51.5 -197t-145 -127.5t-215.5 -44.5q-144 0 -251 61.5t-164.5 174t-57.5 259.5q0 153 66 275.5t191.5 193t296.5 70.5q137 0 248 -54.5t175 -156.5t64 -239v-338
h-44v336q0 126 -58.5 219t-159 142t-225.5 49q-157 0 -271.5 -65t-174.5 -178.5t-60 -255.5q0 -135 51.5 -237t147.5 -158t226 -56q109 0 191.5 39t128 113.5t45.5 176.5q0 79 -30 127.5t-85 48.5t-90.5 -38t-35.5 -97v-166h-44v478z" />
    <glyph glyph-name="tm_Four" unicode="&#xbea;" horiz-adv-x="790" 
d="M740 252h-287v-47q0 -107 -60 -165t-157 -58q-55 0 -97.5 20t-65.5 55t-23 79q0 53 31 92t86 52v233h455l5 -35h-174v-191h243v226h44v-261zM211 478v-191h14h184v191h-198zM409 252h-183q-61 0 -94.5 -32.5t-33.5 -84.5q0 -51 36.5 -81t101.5 -30q78 0 125.5 46.5
t47.5 134.5v47z" />
    <glyph glyph-name="tm_Nine" unicode="&#xbef;" horiz-adv-x="924" 
d="M808.5 291.5q35.5 -21.5 55.5 -60t20 -86.5q0 -42 -9 -75t-28 -76l-45 6q16 33 25.5 73t9.5 72q0 57 -30 91.5t-79 34.5q-33 0 -62 -12q41 -24 63.5 -65.5t22.5 -89.5q0 -51 -30 -86.5t-77 -35.5q-51 0 -82 35t-31 87q0 88 52 146q-16 2 -25 2h-106v-47q0 -107 -60 -165
t-157 -58q-55 0 -97.5 20t-65.5 55t-23 79q0 53 31 92t86 52v233h455l5 -35h-174v-191h105q27 0 59 -7q49 33 111 33q45 0 80.5 -21.5zM211 478v-191h14h184v191h-198zM409 252h-183q-61 0 -94.5 -32.5t-33.5 -84.5q0 -51 36.5 -81t101.5 -30q78 0 125.5 46.5t47.5 134.5v47
zM684.5 183.5q-19.5 34.5 -54.5 51.5q-25 -22 -39 -55.5t-14 -75.5q0 -34 19 -57t49 -23q25 0 42 23t17 57q0 45 -19.5 79.5z" />
    <glyph glyph-name="tm_One" unicode="&#xbe7;" horiz-adv-x="723" 
d="M635 246q48 -41 48 -106q0 -70 -51.5 -114t-139.5 -44v35q69 0 106 33.5t37 89.5q0 50 -34 81t-96 31h-52v-47q0 -107 -60 -165t-157 -58q-55 0 -97.5 20t-65.5 55t-23 79q0 53 31 92t86 52v233h455l5 -35h-174v-191h51q83 0 131 -41zM211 478v-191h14h184v191h-198z
M409 252h-183q-61 0 -94.5 -32.5t-33.5 -84.5q0 -51 36.5 -81t101.5 -30q78 0 125.5 46.5t47.5 134.5v47z" />
    <glyph glyph-name="tm_Seven" unicode="&#xbed;" horiz-adv-x="728" 
d="M628 0h-44v478h-190q-139 0 -212.5 -65t-73.5 -176q0 -60 24.5 -108t70.5 -76q-28 36 -28 86q0 45 21 81t58.5 56t84.5 20q48 0 86.5 -20.5t60 -56.5t21.5 -82q0 -44 -21.5 -79.5t-60 -55.5t-86.5 -20q-84 0 -147 32.5t-97.5 90.5t-34.5 132q0 83 37.5 145.5t110.5 96.5
t177 34h243v-513zM252 51.5q34 -34.5 87 -34.5q52 0 86.5 34t34.5 86t-34 86t-87 34t-87 -33t-34 -85q0 -53 34 -87.5z" />
    <glyph glyph-name="tm_Six" unicode="&#xbec;" horiz-adv-x="1029" 
d="M1019 35v-35h-298v35q73 0 108.5 33.5t35.5 89.5q0 51 -30 82t-85 31t-88.5 -36t-33.5 -95v-140h-44v140q0 50 -34 81t-97 31v-47q0 -107 -60 -165t-157 -58q-55 0 -97.5 20t-65.5 55t-23 79q0 53 31 92t86 52v233h455l5 -35h-174v-191q52 0 90 -17t60 -47q21 42 60.5 66
t89.5 24q75 0 117.5 -43t42.5 -113q0 -39 -16.5 -70.5t-48.5 -51.5h171zM211 478v-191h14h184v191h-198zM361.5 70.5q47.5 46.5 47.5 134.5v47h-183q-61 0 -94.5 -32.5t-33.5 -84.5q0 -51 36.5 -81t101.5 -30q78 0 125.5 46.5z" />
    <glyph glyph-name="tm_Three" unicode="&#xbe9;" horiz-adv-x="814" 
d="M804 35v-35h-462v35h118q46 0 83 21t57.5 58t20.5 83q0 55 -29.5 90t-80.5 35q-55 0 -90 -38t-35 -97v-45h-44v336h-198v-478h-44v513h482l5 -35h-201v-174q23 29 56 45t72 16q72 0 113.5 -48t41.5 -122q0 -54 -21.5 -95t-61.5 -65h218z" />
    <glyph glyph-name="tm_Two" unicode="&#xbe8;" horiz-adv-x="739" 
d="M729 35v-35h-654v35h241q66 0 117 30.5t79.5 85t28.5 122.5q0 63 -28 112t-79 76.5t-117 27.5q-70 0 -122 -27.5t-81 -76.5q40 27 89 27q67 0 110.5 -40t43.5 -101q0 -64 -45 -105t-114 -41q-68 0 -113 42.5t-45 107.5q0 74 34.5 132t97.5 91t145 33q78 0 140 -33.5
t97 -92t35 -132.5q0 -82 -35 -144t-99 -94h274zM119 345.5q-33 -28.5 -33 -72.5q0 -47 31.5 -76.5t80.5 -29.5q48 0 79.5 29.5t31.5 74.5q0 44 -30 73.5t-76 29.5q-51 0 -84 -28.5z" />
    <glyph glyph-name="tm_Zero" unicode="&#xbe6;" horiz-adv-x="728" 
d="M522 496q69 -35 107.5 -97.5t38.5 -141.5q0 -80 -38.5 -142.5t-107.5 -97.5t-158 -35t-157.5 35t-107 97.5t-39.5 142.5q1 79 39.5 141.5t107 97.5t157.5 35t158 -35zM499.5 54.5q58.5 30.5 90 84t31.5 120.5q0 66 -32 118t-90 82t-135 30q-76 0 -134 -30t-90 -82
t-32 -118q0 -67 31.5 -120.5t89.5 -84t135 -30.5t135.5 30.5z" />
    <glyph glyph-name="tm_Hundred" unicode="&#xbf1;" horiz-adv-x="948" 
d="M938 478h-201v-478h-44v478h-270v-478h-44v320q0 76 -33 122.5t-94 46.5q-118 0 -118 -151v-338h-44v337q0 99 43.5 146.5t118.5 47.5q41 0 73.5 -18t53.5 -52v52h554z" />
    <glyph glyph-name="tm_Ten" unicode="&#xbf0;" horiz-adv-x="764" 
d="M682.5 378.5q21.5 -79.5 21.5 -143.5q0 -116 -46.5 -184.5t-129.5 -68.5q-50 0 -88 24t-58 74q-21 -50 -58.5 -74t-87.5 -24q-84 0 -130 68.5t-46 184.5q0 64 21.5 143.5t63.5 148.5l45 -14q-40 -56 -61 -136t-21 -144q0 -97 34 -153t94 -56q57 0 90.5 45t33.5 141v128
h44v-128q0 -96 33.5 -141t90.5 -45q60 0 94 56t34 153q0 64 -21 144t-61 136l45 14q42 -69 63.5 -148.5z" />
    <glyph glyph-name="tm_Thousand" unicode="&#xbf2;" horiz-adv-x="1007" 
d="M924.5 86q42.5 -48 42.5 -124q0 -54 -28 -96t-80 -65.5t-120 -23.5h-124q-44 0 -78 -17t-51 -45l-35 20q20 34 61 55.5t92 21.5h135q83 0 131.5 42t48.5 108q0 61 -29 99t-81 38h-19v-33q0 -82 -47 -128.5t-130 -46.5q-66 0 -107 33.5t-41 87.5q0 55 38.5 88.5
t107.5 33.5h135v118h-293v-47q0 -107 -60 -165t-157 -58q-55 0 -97.5 20t-65.5 55t-23 79q0 53 31 92t86 52v233h455l5 -35h-174v-191h468l5 -35h-136v-118h19q73 0 115.5 -48zM211 478v-191h14h184v191h-198zM409 252h-183q-61 0 -94.5 -32.5t-33.5 -84.5q0 -51 36.5 -81
t101.5 -30q78 0 125.5 46.5t47.5 134.5v47zM746 99h-133q-49 0 -74.5 -24.5t-25.5 -63.5q0 -35 27 -56.5t73 -21.5q64 0 98.5 34.5t34.5 98.5v33z" />
    <glyph glyph-name="tm_Rupee" unicode="&#xbf9;" horiz-adv-x="1045" 
d="M942.5 282q42.5 -61 42.5 -159q0 -107 -51 -190.5t-144.5 -131t-216.5 -47.5q-154 0 -265 65.5t-169.5 182.5t-58.5 267q0 182 64.5 320t178 213.5t257.5 75.5q89 0 163 -28t116 -72.5t42 -90.5q0 -45 -27 -72t-69 -27q-43 0 -71.5 26.5t-28.5 66.5t27.5 65.5t70.5 25.5
h10q-40 30 -102 46.5t-131 16.5q-132 0 -234.5 -69t-160 -198t-57.5 -301q0 -138 52 -244.5t152.5 -166.5t240.5 -60q110 0 192.5 42t127.5 117t45 170q0 79 -30 127.5t-85 48.5t-90.5 -38t-35.5 -97v-166h-44v478h-234v-478h-44v513h519l4 -35h-201v-196q22 29 55.5 45
t72.5 16q75 0 117.5 -61zM849 637q17 17 17 43t-17 42.5t-44 16.5q-25 0 -42 -16.5t-17 -42.5t16.5 -43t42.5 -17q27 0 44 17z" />
    <glyph glyph-name="tm_Enn" unicode="&#xbfa;" horiz-adv-x="966" 
d="M966 599v-35h-290v35q65 0 100.5 34.5t35.5 89.5q0 51 -39.5 81.5t-102.5 30.5q-45 0 -84 -14q28 -28 43.5 -67.5t15.5 -85.5q0 -51 -30 -86.5t-77 -35.5q-50 0 -79.5 35t-29.5 87q0 47 19.5 87t55.5 69q-28 11 -58 11q-45 0 -81.5 -21t-57 -58t-20.5 -84
q0 -45 17.5 -81.5t48 -57t68.5 -20.5h161l5 -35h-201v-196q23 29 56 45t72 16q78 0 119 -60t41 -160q0 -81 -31 -146t-93.5 -103t-152.5 -38h-97q-57 0 -100 -21.5t-66 -57.5l-34 21q24 41 79 67t121 26h97q75 0 126.5 34t77.5 91.5t26 128.5q0 82 -29 129t-87 47
q-55 0 -90 -38t-35 -97v-166h-44v478h-198v-478h-44v513h213q-34 26 -53.5 67.5t-19.5 91.5q0 59 26.5 106t73.5 73.5t106 26.5q55 0 101 -27q57 27 123 27q54 0 97.5 -20t68 -55.5t24.5 -79.5q0 -39 -17 -71t-49 -53h172zM583.5 742.5q-14.5 33.5 -40.5 56.5
q-32 -22 -49.5 -56t-17.5 -75q0 -35 16.5 -57t45.5 -22q26 0 43 22.5t17 56.5q0 41 -14.5 74.5z" />
    <glyph glyph-name="tm_Maatham" unicode="&#xbf4;" horiz-adv-x="1158" 
d="M1158 599v-35h-290v35q65 0 100.5 34.5t35.5 89.5q0 51 -39.5 81.5t-103.5 30.5q-44 0 -83 -14q28 -28 43.5 -67.5t15.5 -85.5q0 -51 -30 -86.5t-77 -35.5q-50 0 -80 35t-30 87q0 47 19.5 87t55.5 69q-28 11 -58 11q-45 0 -81 -21t-56.5 -58t-20.5 -84q0 -49 19.5 -86.5
t53.5 -56.5q81 -13 127.5 -94.5t46.5 -203.5q0 -107 -46 -169t-143 -62h-437v513l44 5v-483h228v320q0 75 31 118.5t85 54.5q-27 27 -42 64t-15 80q0 59 26.5 106t73.5 73.5t106 26.5q54 0 102 -27q56 27 122 27q54 0 97.5 -20t68 -55.5t24.5 -79.5q0 -39 -17 -71.5
t-48 -52.5h172zM775 742.5q-14 33.5 -40 56.5q-32 -22 -49.5 -56t-17.5 -75q0 -35 16.5 -57t45.5 -22q25 0 42 22.5t17 56.5q0 41 -14 74.5zM638 417.5q-40 71.5 -110 71.5q-52 0 -82 -31.5t-30 -101.5v-321h121q77 0 109 51.5t32 144.5q0 115 -40 186.5z" />
    <glyph glyph-name="tm_Merpadi" unicode="&#xbf8;" horiz-adv-x="1810" 
d="M1710 0h-206v-243h-44v243h-432v35q30 55 45.5 119t15.5 117q0 100 -51 159t-149 59q-85 0 -155 -51q64 -50 100 -119t36 -148q0 -84 -41.5 -136.5t-111.5 -52.5q-71 0 -114 53t-43 136q0 76 27.5 144t76.5 119q-96 55 -217 55q-103 0 -180 -33t-118 -92t-41 -136
q0 -55 25 -100.5t69 -73.5q-27 38 -27 85q0 45 21 81t58.5 56t84.5 20q48 0 86.5 -20.5t60 -56.5t21.5 -82q0 -44 -21.5 -79.5t-60 -55.5t-86.5 -20q-80 0 -143.5 32t-99.5 88t-36 126q0 87 47.5 156t135.5 108t204 39q138 0 250 -67q85 67 192 67q79 0 134.5 -33.5
t84 -92.5t28.5 -136q0 -52 -14.5 -113.5t-43.5 -120.5h382v182q-33 -9 -66 -9q-60 0 -105.5 23t-69.5 62t-25 86q0 67 43 109.5t115 42.5q71 0 111.5 -45t40.5 -117v-86q50 29 92.5 80t69.5 115h44v-478zM1460 262v102q0 57 -27.5 91t-80.5 34q-51 0 -80.5 -30.5
t-29.5 -79.5q0 -55 41 -92t111 -37q33 0 66 12zM790 304q-32 61 -89 105q-44 -44 -68.5 -106t-24.5 -132q0 -65 29.5 -106t79.5 -41q49 0 77 41t28 106q0 72 -32 133zM1666 35v352q-30 -51 -72 -90.5t-90 -62.5v-199h162zM252 51.5q34 -34.5 87 -34.5q52 0 86.5 34t34.5 86
t-34 86t-87 34t-87 -33t-34 -85q0 -53 34 -87.5z" />
    <glyph glyph-name="tm_Naal" unicode="&#xbf3;" horiz-adv-x="893" 
d="M883 35v-35h-332v35q40 41 64 97.5t24 122.5q0 68 -32 121t-90.5 83t-137.5 30q-82 0 -143.5 -32.5t-94.5 -89.5t-33 -130q0 -60 24.5 -108t70.5 -76q-28 36 -28 86q0 45 21 81t58.5 56t84.5 20q48 0 86.5 -20.5t60 -56.5t21.5 -82q0 -44 -21.5 -79.5t-60 -55.5
t-86.5 -20q-84 0 -147 32.5t-97.5 90.5t-34.5 132q0 85 39.5 152t112 104.5t167.5 37.5q92 0 161.5 -35.5t107.5 -98t38 -142.5q0 -62 -20 -120t-54 -100h271zM252 51.5q34 -34.5 87 -34.5q52 0 86.5 34t34.5 86t-34 86t-87 34t-87 -33t-34 -85q0 -53 34 -87.5z" />
    <glyph glyph-name="tm_Patru" unicode="&#xbf6;" horiz-adv-x="950" 
d="M850 -128h-245q-6 -59 -45 -103.5t-103 -68.5t-143 -24q-95 0 -154.5 35.5t-59.5 96.5q0 45 31.5 72t95.5 27h335v93h-462v513l44 5v-483h418v478h44v-606h200v606h44v-641zM435.5 -261.5q54.5 19.5 87.5 54t38 79.5h-334q-40 0 -59.5 -17.5t-19.5 -46.5
q0 -44 45.5 -66.5t120.5 -22.5q67 0 121.5 19.5z" />
    <glyph glyph-name="tm_Varavu" unicode="&#xbf7;" horiz-adv-x="1252" 
d="M1242 35v-35h-272v35q60 0 93.5 33.5t33.5 85.5t-37.5 84.5t-95.5 32.5q-56 0 -100 -21q35 -26 55 -64.5t20 -81.5q0 -51 -30 -86.5t-77 -35.5q-50 0 -80 35t-30 87q0 43 16 80t46 64q-15 4 -35 4h-121v-252h-44v478h-190q-139 0 -212.5 -65t-73.5 -176q0 -60 24.5 -108
t70.5 -76q-28 36 -28 86q0 45 21 81t58.5 56t84.5 20q48 0 86.5 -20.5t60 -56.5t21.5 -82q0 -44 -21.5 -79.5t-60 -55.5t-86.5 -20q-84 0 -147 32.5t-97.5 90.5t-34.5 132q0 83 37.5 145.5t110.5 96.5t177 34h439l5 -35h-201v-191h121q39 0 70 -12q63 38 145 38
q79 0 130 -44t51 -115q0 -37 -16 -68t-47 -51h160zM252 51.5q34 -34.5 87 -34.5q52 0 86.5 34t34.5 86t-34 86t-87 34t-87 -33t-34 -85q0 -53 34 -87.5zM875.5 177.5q-16.5 32.5 -45.5 51.5q-29 -22 -44.5 -54t-15.5 -71q0 -35 16.5 -57.5t45.5 -22.5q25 0 42.5 23t17.5 57
q0 41 -16.5 73.5z" />
    <glyph glyph-name="tm_Varudam" unicode="&#xbf5;" horiz-adv-x="1721" 
d="M1618.5 282q42.5 -61 42.5 -159q0 -184 -130.5 -266.5t-361.5 -82.5h-592q-149 0 -261.5 53.5t-174 148t-61.5 214.5q0 84 40 181t100 152l46 -10q-59 -48 -98.5 -142.5t-39.5 -182.5q0 -110 55 -196t157 -134.5t237 -48.5h592q204 0 324.5 76.5t120.5 239.5
q0 79 -30.5 127.5t-85.5 48.5q-54 0 -89.5 -38.5t-35.5 -96.5v-166h-44v478h-207v-478h-340v35q40 41 64 97.5t24 122.5q0 69 -30.5 121.5t-89 82.5t-140.5 30q-81 0 -142.5 -32.5t-95 -89.5t-33.5 -130q0 -61 25 -108.5t72 -76.5q-29 37 -29 87q0 45 21 81t58.5 56t84.5 20
q48 0 86.5 -20.5t60 -56.5t21.5 -82q0 -44 -21.5 -79.5t-60 -55.5t-86.5 -20q-84 0 -147 32.5t-97.5 90.5t-34.5 132q0 85 39.5 152t111.5 104.5t167 37.5q92 0 162 -35.5t108 -98t38 -142.5q0 -62 -20 -120t-55 -100h235v478h492l4 -35h-201v-196q23 29 56 45t72 16
q75 0 117.5 -61zM484 51.5q34 -34.5 87 -34.5q52 0 86 34t34 86q0 53 -33.5 86.5t-86.5 33.5t-87 -33t-34 -85q0 -53 34 -87.5z" />
    <glyph glyph-name="tm_AuLengthMark" unicode="&#xbd7;" horiz-adv-x="1199" 
d="M1189 478h-201v-478h-44v478h-270v-478h-44v228q0 75 -33.5 134.5t-93 93t-133.5 33.5q-82 0 -141 -32t-90 -89.5t-31 -130.5q0 -60 24.5 -108t70.5 -76q-28 36 -28 86q0 45 21 81t58.5 56t84.5 20q48 0 86.5 -20.5t60 -56.5t21.5 -82q0 -44 -21.5 -79.5t-60 -55.5
t-86.5 -20q-84 0 -147 32.5t-97.5 90.5t-34.5 132q0 86 37.5 152.5t107.5 104t165 37.5q86 0 154 -39t106 -108v129h554zM252 51.5q34 -34.5 87 -34.5q52 0 86.5 34t34.5 86t-34 86t-87 34t-87 -33t-34 -85q0 -53 34 -87.5z" />
    <glyph glyph-name="tm_VowelAa" unicode="&#xbbe;" horiz-adv-x="649" 
d="M438 478v-478h-44v478h-250v-478h-44v513h534l5 -35h-201z" />
    <glyph glyph-name="tm_VowelAi" unicode="&#xbc8;" horiz-adv-x="1196" 
d="M1023.5 497.5q55.5 -33.5 84 -92.5t28.5 -136q0 -63 -21 -138t-63 -145l-45 14q40 57 61 132.5t21 138.5q0 100 -51 159t-149 59q-85 0 -155 -51q64 -50 100 -119t36 -148q0 -84 -41.5 -136.5t-111.5 -52.5q-71 0 -114 53t-43 136q0 76 27.5 144t76.5 119q-96 55 -217 55
q-103 0 -180 -33t-118 -92t-41 -136q0 -55 25 -100.5t69 -73.5q-27 38 -27 85q0 45 21 81t58.5 56t84.5 20q48 0 86.5 -20.5t60 -56.5t21.5 -82q0 -44 -21.5 -79.5t-60 -55.5t-86.5 -20q-80 0 -143.5 32t-99.5 88t-36 126q0 87 47.5 156t135.5 108t204 39q138 0 250 -67
q85 67 192 67q79 0 134.5 -33.5zM790 304q-32 61 -89 105q-44 -44 -68.5 -106t-24.5 -132q0 -65 29.5 -106t79.5 -41q49 0 77 41t28 106q0 72 -32 133zM252 51.5q34 -34.5 87 -34.5q52 0 86.5 34t34.5 86t-34 86t-87 34t-87 -33t-34 -85q0 -53 34 -87.5z" />
    <glyph glyph-name="tm_VowelAu" unicode="&#xbcc;" horiz-adv-x="2494" 
d="M540 636q69 -39 106 -113.5t37 -177.5v-345h-44v345q0 138 -69 213t-191 75q-82 0 -143.5 -38.5t-94.5 -108t-33 -159.5q0 -71 19.5 -131t54.5 -103q-7 21 -7 46q0 45 21 81t58.5 56t84.5 20q48 0 86.5 -20.5t60 -56.5t21.5 -82q0 -44 -21.5 -79.5t-60 -55.5t-86.5 -20
q-80 0 -143.5 44.5t-99.5 123t-36 177.5q0 100 39.5 179t112 124t167.5 45q92 0 161 -39zM252 224q-34 -33 -34 -85q0 -53 34 -87.5t87 -34.5q52 0 86.5 34t34.5 86t-34 86t-87 34t-87 -33zM2484 478h-201v-478h-44v478h-270v-478h-44v228q0 75 -33.5 134.5t-93 93
t-133.5 33.5q-82 0 -141 -32t-90 -89.5t-31 -130.5q0 -60 24.5 -108t70.5 -76q-28 36 -28 86q0 45 21 81t58.5 56t84.5 20q48 0 86.5 -20.5t60 -56.5t21.5 -82q0 -44 -21.5 -79.5t-60 -55.5t-86.5 -20q-84 0 -147 32.5t-97.5 90.5t-34.5 132q0 86 37.5 152.5t107.5 104
t165 37.5q86 0 154 -39t106 -108v129h554zM1547 51.5q34 -34.5 87 -34.5q52 0 86.5 34t34.5 86t-34 86t-87 34t-87 -33t-34 -85q0 -53 34 -87.5zM1051 467q8 8 8 21t-8 21.5t-21 8.5t-21 -8.5t-8 -21.5t8 -21t21 -8t21 8zM920 494q-8 -8 -8 -21t8 -21t21 -8t21 8t8 21t-8 21
t-21 8t-21 -8zM1141 452q8 8 8 21t-8 21t-21 8t-21 -8t-8 -21t8 -21t21 -8t21 8zM843.5 443.5q-8.5 -8.5 -8.5 -21.5t8.5 -21t21.5 -8t21 8t8 21t-8 21.5t-21 8.5t-21.5 -8.5zM1217.5 401q8.5 8 8.5 21t-8.5 21.5t-21.5 8.5t-21 -8.5t-8 -21.5t8 -21t21 -8t21.5 8z
M795.5 364.5q-8.5 -8.5 -8.5 -21.5t8.5 -21t21.5 -8t21 8t8 21t-8 21.5t-21 8.5t-21.5 -8.5zM1265 322q8 8 8 21t-8 21.5t-21 8.5t-21 -8.5t-8 -21.5t8 -21t21 -8t21 8zM781.5 278.5q-8.5 -8.5 -8.5 -21.5t8.5 -20.5t21.5 -7.5t21 7.5t8 20.5t-8 21.5t-21 8.5t-21.5 -8.5z
M1279.5 236.5q8.5 7.5 8.5 20.5t-8.5 21.5t-21.5 8.5t-21 -8.5t-8 -21.5t8 -20.5t21 -7.5t21.5 7.5zM795.5 195q-8.5 -8 -8.5 -21t8.5 -21t21.5 -8t21 8t8 21t-8 21t-21 8t-21.5 -8zM1265 153q8 8 8 21t-8 21t-21 8t-21 -8t-8 -21t8 -21t21 -8t21 8zM842.5 115
q-8.5 -8 -8.5 -21t8.5 -21t21.5 -8t21 8t8 21t-8 21t-21 8t-21.5 -8zM1218.5 73q8.5 8 8.5 21t-8.5 21t-21.5 8t-21 -8t-8 -21t8 -21t21 -8t21.5 8zM920 65.5q-8 -8.5 -8 -21.5t8 -21t21 -8t21 8t8 21t-8 21.5t-21 8.5t-21 -8.5zM1141 23q8 8 8 21t-8 21.5t-21 8.5t-21 -8.5
t-8 -21.5t8 -21t21 -8t21 8zM1051 8q8 8 8 21t-8 21.5t-21 8.5t-21 -8.5t-8 -21.5t8 -21t21 -8t21 8z" />
    <glyph glyph-name="tm_VowelE" unicode="&#xbc6;" horiz-adv-x="783" 
d="M540 636q69 -39 106 -113.5t37 -177.5v-345h-44v345q0 138 -69 213t-191 75q-82 0 -143.5 -38.5t-94.5 -108t-33 -159.5q0 -71 19.5 -131t54.5 -103q-7 21 -7 46q0 45 21 81t58.5 56t84.5 20q48 0 86.5 -20.5t60 -56.5t21.5 -82q0 -44 -21.5 -79.5t-60 -55.5t-86.5 -20
q-80 0 -143.5 44.5t-99.5 123t-36 177.5q0 100 39.5 179t112 124t167.5 45q92 0 161 -39zM252 224q-34 -33 -34 -85q0 -53 34 -87.5t87 -34.5q52 0 86.5 34t34.5 86t-34 86t-87 34t-87 -33z" />
    <glyph glyph-name="tm_VowelEe" unicode="&#xbc7;" horiz-adv-x="664" 
d="M565 226q39 -37 39 -95q0 -67 -56.5 -108t-145.5 -41q-101 0 -179 46t-120.5 125.5t-42.5 175.5t42.5 175t120.5 125t179 46q89 0 145.5 -41t56.5 -108q0 -58 -39 -95t-99 -37q-58 0 -95.5 37.5t-37.5 95.5q0 34 14.5 62.5t40.5 45.5q-80 -1 -144 -42t-100 -110.5
t-36 -153.5t36 -153.5t99.5 -110.5t143.5 -42q-26 18 -40 46t-14 62q0 57 37.5 94.5t95.5 37.5q60 0 99 -37zM532.5 459.5q25.5 26.5 25.5 66.5q0 41 -25.5 68.5t-63.5 27.5q-40 0 -65.5 -27t-25.5 -68t25.5 -67.5t64.5 -26.5t64.5 26.5zM403.5 197.5
q-25.5 -26.5 -25.5 -66.5q0 -41 25.5 -68.5t65.5 -27.5q38 0 63.5 27.5t25.5 68.5q0 40 -25.5 66.5t-64.5 26.5t-64.5 -26.5z" />
    <glyph glyph-name="tm_VowelI" unicode="&#xbbf;" horiz-adv-x="244" 
d="M11 759.5q64 -37.5 98.5 -104.5t34.5 -152v-503h-44v503q0 74 -28.5 131.5t-82.5 89t-126 31.5q-83 0 -130.5 -35t-47.5 -93q0 -54 40 -84t112 -30h24v-36h-24q-92 0 -145.5 41t-54.5 109q0 49 27.5 88t78.5 60.5t120 21.5q84 0 148 -37.5z" />
    <glyph glyph-name="tm_VowelO" unicode="&#xbca;" horiz-adv-x="1908" 
d="M540 636q69 -39 106 -113.5t37 -177.5v-345h-44v345q0 138 -69 213t-191 75q-82 0 -143.5 -38.5t-94.5 -108t-33 -159.5q0 -71 19.5 -131t54.5 -103q-7 21 -7 46q0 45 21 81t58.5 56t84.5 20q48 0 86.5 -20.5t60 -56.5t21.5 -82q0 -44 -21.5 -79.5t-60 -55.5t-86.5 -20
q-80 0 -143.5 44.5t-99.5 123t-36 177.5q0 100 39.5 179t112 124t167.5 45q92 0 161 -39zM252 224q-34 -33 -34 -85q0 -53 34 -87.5t87 -34.5q52 0 86.5 34t34.5 86t-34 86t-87 34t-87 -33zM1677 478v-478h-44v478h-250v-478h-44v513h534l5 -35h-201zM1035 467q8 8 8 21
t-8 21.5t-21 8.5t-21 -8.5t-8 -21.5t8 -21t21 -8t21 8zM904 494q-8 -8 -8 -21t8 -21t21 -8t21 8t8 21t-8 21t-21 8t-21 -8zM1125 452q8 8 8 21t-8 21t-21 8t-21 -8t-8 -21t8 -21t21 -8t21 8zM827.5 443.5q-8.5 -8.5 -8.5 -21.5t8.5 -21t21.5 -8t21 8t8 21t-8 21.5t-21 8.5
t-21.5 -8.5zM1201.5 401q8.5 8 8.5 21t-8.5 21.5t-21.5 8.5t-21 -8.5t-8 -21.5t8 -21t21 -8t21.5 8zM779.5 364.5q-8.5 -8.5 -8.5 -21.5t8.5 -21t21.5 -8t21 8t8 21t-8 21.5t-21 8.5t-21.5 -8.5zM1249 322q8 8 8 21t-8 21.5t-21 8.5t-21 -8.5t-8 -21.5t8 -21t21 -8t21 8z
M765.5 278.5q-8.5 -8.5 -8.5 -21.5t8.5 -20.5t21.5 -7.5t21 7.5t8 20.5t-8 21.5t-21 8.5t-21.5 -8.5zM1263.5 236.5q8.5 7.5 8.5 20.5t-8.5 21.5t-21.5 8.5t-21 -8.5t-8 -21.5t8 -20.5t21 -7.5t21.5 7.5zM779.5 195q-8.5 -8 -8.5 -21t8.5 -21t21.5 -8t21 8t8 21t-8 21t-21 8
t-21.5 -8zM1249 153q8 8 8 21t-8 21t-21 8t-21 -8t-8 -21t8 -21t21 -8t21 8zM826.5 115q-8.5 -8 -8.5 -21t8.5 -21t21.5 -8t21 8t8 21t-8 21t-21 8t-21.5 -8zM1202.5 73q8.5 8 8.5 21t-8.5 21t-21.5 8t-21 -8t-8 -21t8 -21t21 -8t21.5 8zM904 65.5q-8 -8.5 -8 -21.5t8 -21
t21 -8t21 8t8 21t-8 21.5t-21 8.5t-21 -8.5zM1125 23q8 8 8 21t-8 21.5t-21 8.5t-21 -8.5t-8 -21.5t8 -21t21 -8t21 8zM1035 8q8 8 8 21t-8 21.5t-21 8.5t-21 -8.5t-8 -21.5t8 -21t21 -8t21 8z" />
    <glyph glyph-name="tm_VowelOo" unicode="&#xbcb;" horiz-adv-x="1814" 
d="M565 226q39 -37 39 -95q0 -67 -56.5 -108t-145.5 -41q-101 0 -179 46t-120.5 125.5t-42.5 175.5t42.5 175t120.5 125t179 46q89 0 145.5 -41t56.5 -108q0 -58 -39 -95t-99 -37q-58 0 -95.5 37.5t-37.5 95.5q0 34 14.5 62.5t40.5 45.5q-80 -1 -144 -42t-100 -110.5
t-36 -153.5t36 -153.5t99.5 -110.5t143.5 -42q-26 18 -40 46t-14 62q0 57 37.5 94.5t95.5 37.5q60 0 99 -37zM532.5 459.5q25.5 26.5 25.5 66.5q0 41 -25.5 68.5t-63.5 27.5q-40 0 -65.5 -27t-25.5 -68t25.5 -67.5t64.5 -26.5t64.5 26.5zM403.5 197.5
q-25.5 -26.5 -25.5 -66.5q0 -41 25.5 -68.5t65.5 -27.5q38 0 63.5 27.5t25.5 68.5q0 40 -25.5 66.5t-64.5 26.5t-64.5 -26.5zM1583 478v-478h-44v478h-250v-478h-44v513h534l5 -35h-201zM937 467q8 8 8 21t-8 21.5t-21 8.5t-21 -8.5t-8 -21.5t8 -21t21 -8t21 8zM806 494
q-8 -8 -8 -21t8 -21t21 -8t21 8t8 21t-8 21t-21 8t-21 -8zM1027 452q8 8 8 21t-8 21t-21 8t-21 -8t-8 -21t8 -21t21 -8t21 8zM729.5 443.5q-8.5 -8.5 -8.5 -21.5t8.5 -21t21.5 -8t21 8t8 21t-8 21.5t-21 8.5t-21.5 -8.5zM1103.5 401q8.5 8 8.5 21t-8.5 21.5t-21.5 8.5
t-21 -8.5t-8 -21.5t8 -21t21 -8t21.5 8zM681.5 364.5q-8.5 -8.5 -8.5 -21.5t8.5 -21t21.5 -8t21 8t8 21t-8 21.5t-21 8.5t-21.5 -8.5zM1151 322q8 8 8 21t-8 21.5t-21 8.5t-21 -8.5t-8 -21.5t8 -21t21 -8t21 8zM667.5 278.5q-8.5 -8.5 -8.5 -21.5t8.5 -20.5t21.5 -7.5
t21 7.5t8 20.5t-8 21.5t-21 8.5t-21.5 -8.5zM1165.5 236.5q8.5 7.5 8.5 20.5t-8.5 21.5t-21.5 8.5t-21 -8.5t-8 -21.5t8 -20.5t21 -7.5t21.5 7.5zM681.5 195q-8.5 -8 -8.5 -21t8.5 -21t21.5 -8t21 8t8 21t-8 21t-21 8t-21.5 -8zM1151 153q8 8 8 21t-8 21t-21 8t-21 -8
t-8 -21t8 -21t21 -8t21 8zM728.5 115q-8.5 -8 -8.5 -21t8.5 -21t21.5 -8t21 8t8 21t-8 21t-21 8t-21.5 -8zM1104.5 73q8.5 8 8.5 21t-8.5 21t-21.5 8t-21 -8t-8 -21t8 -21t21 -8t21.5 8zM806 65.5q-8 -8.5 -8 -21.5t8 -21t21 -8t21 8t8 21t-8 21.5t-21 8.5t-21 -8.5z
M1027 23q8 8 8 21t-8 21.5t-21 8.5t-21 -8.5t-8 -21.5t8 -21t21 -8t21 8zM937 8q8 8 8 21t-8 21.5t-21 8.5t-21 -8.5t-8 -21.5t8 -21t21 -8t21 8z" />
    <glyph glyph-name="tm_VowelU" unicode="&#xbc1;" horiz-adv-x="460" 
d="M338.5 493q38.5 -20 60 -55.5t21.5 -79.5q0 -45 -21.5 -81.5t-60 -57t-86.5 -20.5q-47 0 -84.5 20.5t-58.5 56.5t-21 80q0 38 15.5 69.5t42.5 52.5h-290v35h396q48 0 86.5 -20zM339 272q34 34 34 86t-34 86t-87 34t-87 -34.5t-34 -87.5q0 -52 34 -85t87 -33t87 34z" />
    <glyph glyph-name="tm_VowelUu" unicode="&#xbc2;" horiz-adv-x="653" 
d="M490.5 579.5q57.5 -32.5 90 -90.5t32.5 -131q0 -75 -38 -135t-105.5 -94t-151.5 -34h-58v35h58q72 0 128 29.5t87.5 81.5t31.5 117q0 63 -25.5 111t-72 74.5t-107.5 26.5q-50 0 -92 -15t-73 -42h48q78 0 125.5 -43.5t47.5 -111.5q0 -45 -20.5 -81.5t-57 -57t-81.5 -20.5
q-48 0 -86.5 21.5t-60.5 59.5t-22 85q0 61 27 113h-259v35h282q37 47 94.5 73t127.5 26q73 0 130.5 -32.5zM337.5 444.5q-35.5 33.5 -94.5 33.5h-79q-33 -49 -33 -113q0 -55 35.5 -91t90.5 -36q50 0 83 34t33 86q0 53 -35.5 86.5z" />
    <glyph glyph-name="tm_Anusvara" unicode="&#xb82;" horiz-adv-x="0" 
d="M74 666q30 28 30 71q0 44 -30 72t-74 28q-42 0 -73 -28.5t-31 -71.5q0 -42 30.5 -70.5t73.5 -28.5q44 0 74 28zM-43.5 692.5q-17.5 17.5 -17.5 44.5t17.5 44.5t43.5 17.5q27 0 44.5 -17.5t17.5 -44.5t-17.5 -44.5t-44.5 -17.5q-26 0 -43.5 17.5z" />
    <glyph glyph-name="tm_Virama" unicode="&#xbcd;" horiz-adv-x="0" 
d="M25.5 648q9.5 10 9.5 24t-10.5 24.5t-24.5 10.5q-15 0 -24.5 -10t-9.5 -25t9.5 -24.5t24.5 -9.5q16 0 25.5 10z" />
    <glyph glyph-name="tm_VowelIi" unicode="&#xbc0;" horiz-adv-x="0" 
d="M-56.5 852.5q46.5 -25.5 71 -68t24.5 -92.5q0 -45 -27 -74.5t-68 -29.5q-43 0 -72 26.5t-29 66.5t27.5 65.5t70.5 25.5q21 0 38 -7q-19 33 -55 51.5t-88 18.5q-75 0 -117 -45t-42 -118q0 -45 17.5 -81.5t48 -57t68.5 -20.5v-35q-52 0 -93.5 25t-65 69.5t-23.5 99.5
q0 60 25 106.5t71.5 73t110.5 26.5q61 0 107.5 -25.5zM-16.5 640.5q15.5 15.5 15.5 39.5q0 23 -15.5 38.5t-39.5 15.5q-25 0 -40.5 -15.5t-15.5 -38.5q0 -24 15.5 -39.5t40.5 -15.5q24 0 39.5 15.5z" />
    <glyph glyph-name="tm_VowelAi.alt" horiz-adv-x="354" 
d="M455 197q0 -64 -25 -113t-69 -75.5t-100 -26.5q-76 0 -120 40t-44 99q0 78 85 151l87 73q37 31 62 66.5t25 78.5q0 45 -35.5 77t-86.5 32q-88 0 -126 -52q19 7 38 7q45 0 73.5 -26.5t28.5 -68.5t-29 -69.5t-74 -27.5q-46 0 -75.5 27t-29.5 70q0 50 24.5 92t68.5 66.5
t101 24.5q76 0 123 -43.5t47 -111.5q0 -50 -29.5 -93.5t-83.5 -88.5l-86 -72q-29 -24 -45 -53.5t-16 -55.5q0 -42 31 -71t86 -29q45 0 81 24t56 65.5t19 91.5zM102.5 502q-16.5 -16 -18.5 -40v-6q0 -26 16.5 -42.5t42.5 -16.5t43.5 16.5t18.5 41.5q0 27 -17 45t-44 18
q-25 0 -41.5 -16z" />
    <glyph glyph-name="tm_VowelI.alt1" horiz-adv-x="244" 
d="M11 759.5q64 -37.5 98.5 -104.5t34.5 -152v-503h-44v503q0 74 -28.5 131.5t-82.5 89t-126 31.5q-83 0 -130.5 -35t-47.5 -93q0 -39 20.5 -71t57.5 -44l-50 -18q-35 19 -55 55.5t-21 77.5q0 49 27.5 88t78.5 60.5t120 21.5q84 0 148 -37.5z" />
    <glyph glyph-name="tm_VowelU.alt1" horiz-adv-x="0" 
d="M-100 -187l-44 -10v221l44 -1v-210z" />
    <glyph glyph-name="tm_VowelUu.alt1" horiz-adv-x="425" 
d="M214 478v-606h-44v606h-314v35h554l5 -35h-201z" />
    <glyph glyph-name="tm_VowelI.alt2" horiz-adv-x="244" 
d="M-29.5 759.5q86.5 -37.5 130 -103.5t43.5 -153v-503h-44v503q0 116 -87 184t-253 68q-114 0 -180 -35t-66 -93q0 -40 22 -67t64 -39l-38 -21q-46 16 -70.5 49t-25.5 78q0 49 36 88t103 60.5t155 21.5q124 0 210.5 -37.5z" />
    <glyph glyph-name="tm_VowelU.alt2" horiz-adv-x="460" 
d="M338.5 493q38.5 -20 60 -55.5t21.5 -79.5q0 -45 -21.5 -81.5t-60 -57t-86.5 -20.5q-47 0 -84.5 20.5t-58.5 56.5t-21 80q0 38 15.5 69.5t42.5 52.5h-404v35h510q48 0 86.5 -20zM339 272q34 34 34 86t-34 86t-87 34t-87 -34.5t-34 -87.5q0 -52 34 -85t87 -33t87 34z" />
    <glyph glyph-name="tm_VowelUu.alt2" horiz-adv-x="653" 
d="M490.5 579.5q57.5 -32.5 90 -90.5t32.5 -131q0 -75 -38 -135t-105.5 -94t-151.5 -34h-58v35h58q72 0 128 29.5t87.5 81.5t31.5 117q0 63 -25.5 111t-72 74.5t-107.5 26.5q-50 0 -92 -15t-73 -42h48q78 0 125.5 -43.5t47.5 -111.5q0 -45 -20.5 -81.5t-57 -57t-81.5 -20.5
q-48 0 -86.5 21.5t-60.5 59.5t-22 85q0 61 27 113h-366v35h389q37 47 94.5 73t127.5 26q73 0 130.5 -32.5zM337.5 444.5q-35.5 33.5 -94.5 33.5h-79q-33 -49 -33 -113q0 -55 35.5 -91t90.5 -36q50 0 83 34t33 86q0 53 -35.5 86.5z" />
    <glyph glyph-name="tm_VowelI.alt3" horiz-adv-x="244" 
d="M-7 759.5q74 -37.5 112.5 -104t38.5 -152.5v-503h-44v503q0 75 -33 132t-96.5 88.5t-152.5 31.5q-83 0 -130.5 -35t-47.5 -93q0 -54 40 -84t112 -30v-30q-93 0 -146 38.5t-54 105.5q0 49 27.5 88t78.5 60.5t120 21.5q101 0 175 -37.5z" />
    <glyph glyph-name="tm_VowelU.alt3" horiz-adv-x="460" 
d="M338.5 493q38.5 -20 60 -55.5t21.5 -79.5q0 -45 -21.5 -81.5t-60 -57t-86.5 -20.5q-47 0 -84.5 20.5t-58.5 56.5t-21 80q0 38 15.5 69.5t42.5 52.5h-326v35h432q48 0 86.5 -20zM339 272q34 34 34 86t-34 86t-87 34t-87 -34.5t-34 -87.5q0 -52 34 -85t87 -33t87 34z" />
    <glyph glyph-name="tm_VowelUu.alt3" horiz-adv-x="653" 
d="M490.5 579.5q57.5 -32.5 90 -90.5t32.5 -131q0 -75 -38 -135t-105.5 -94t-151.5 -34h-58v35h58q72 0 128 29.5t87.5 81.5t31.5 117q0 63 -25.5 111t-72 74.5t-107.5 26.5q-50 0 -92 -15t-73 -42h48q78 0 125.5 -43.5t47.5 -111.5q0 -45 -20.5 -81.5t-57 -57t-81.5 -20.5
q-48 0 -86.5 21.5t-60.5 59.5t-22 85q0 61 27 113h-294v35h317q37 47 94.5 73t127.5 26q73 0 130.5 -32.5zM337.5 444.5q-35.5 33.5 -94.5 33.5h-79q-33 -49 -33 -113q0 -55 35.5 -91t90.5 -36q50 0 83 34t33 86q0 53 -35.5 86.5z" />
    <glyph glyph-name="tm_VowelI.alt4" horiz-adv-x="244" 
d="M-19 759.5q80 -37.5 121.5 -104t41.5 -152.5v-503h-44v503q0 75 -36 132t-105.5 88.5t-168.5 31.5q-108 0 -165.5 -34.5t-57.5 -93.5q0 -54 40 -84t112 -30v-30q-93 0 -146 38.5t-54 105.5q0 50 31.5 88.5t92.5 60t147 21.5q111 0 191 -37.5z" />
    <glyph glyph-name="tm_KU" horiz-adv-x="1018" 
d="M898.5 228q59.5 -59 59.5 -166q0 -90 -49.5 -159.5t-143.5 -109t-221 -39.5q-142 0 -247 51.5t-161 143.5t-56 209q0 98 40 203.5t100 161.5l46 -10q-59 -48 -98.5 -151.5t-39.5 -205.5q0 -105 50 -186.5t144 -127.5t222 -46q114 0 197 34t126.5 94t43.5 137
q0 91 -46 141t-130 50h-15v-47q0 -107 -60 -165t-157 -58q-55 0 -97.5 20t-65.5 55t-23 79q0 54 30.5 92.5t86.5 51.5v233h455l5 -35h-174v-191h14q105 0 164.5 -59zM478 478v-191h13h185v191h-198zM676 252h-183q-61 0 -95 -32t-34 -85q0 -51 37 -81t102 -30
q78 0 125.5 46.5t47.5 134.5v47z" />
    <glyph glyph-name="tm_CU" horiz-adv-x="811" 
d="M641 252v-252h-44v252h-144v-47q0 -107 -60 -165t-157 -58q-55 0 -97.5 20t-65.5 55t-23 79q0 53 31 92t86 52v233h455l5 -35h-174v-191h313l5 -35h-130zM211 478v-191h14h184v191h-198zM409 252h-183q-61 0 -94.5 -32.5t-33.5 -84.5q0 -51 36.5 -81t101.5 -30
q78 0 125.5 46.5t47.5 134.5v47z" />
    <glyph glyph-name="tm_NyU" horiz-adv-x="1188" 
d="M1088 -128h-277q-72 -92 -193.5 -144t-271.5 -52q-123 0 -186.5 35.5t-63.5 97.5q0 44 33 71t94 27h555q72 97 72 218q0 79 -29.5 127.5t-85.5 48.5q-55 0 -90 -38t-35 -97v-166h-44v478h-172q-139 0 -212.5 -65t-73.5 -176q0 -60 24.5 -108t70.5 -76q-28 36 -28 86
q0 45 21 81t58.5 56t84.5 20q48 0 86.5 -20.5t60 -56.5t21.5 -82q0 -44 -21.5 -79.5t-60 -55.5t-86.5 -20q-84 0 -147 32.5t-97.5 90.5t-34.5 132q0 83 37.5 145.5t110.5 96.5t177 34h421l5 -35h-201v-196q22 29 55 45t73 16q76 0 118 -60.5t42 -159.5q0 -118 -62 -216h208
v606h44v-641zM252 51.5q34 -34.5 87 -34.5q52 0 86.5 34t34.5 86t-34 86t-87 34t-87 -33t-34 -85q0 -53 34 -87.5zM576 -240.5q104 40.5 173 112.5h-526q-40 0 -59.5 -17t-19.5 -46q0 -42 53.5 -66t148.5 -24q126 0 230 40.5z" />
    <glyph glyph-name="tm_TtU" horiz-adv-x="766" 
d="M666 273.5q40 -69.5 40 -186.5q0 -97 -36 -172.5t-105.5 -118t-166.5 -42.5q-100 0 -171.5 48.5t-109 134.5t-37.5 197q0 112 39 218.5t101 170.5l46 -10q-61 -56 -99.5 -161t-38.5 -220q0 -99 31 -175t92 -118.5t147 -42.5q83 0 142 37.5t89 103.5t30 152
q0 99 -27.5 155.5t-87.5 56.5q-55 0 -90.5 -38t-35.5 -97v-166h-44v513h44v-231q23 29 56 45t72 16q80 0 120 -69.5z" />
    <glyph glyph-name="tm_NnU" horiz-adv-x="1851" 
d="M1751 -128h-417q-125 -96 -334 -146t-500 -50q-200 0 -302 38t-102 105q0 39 30.5 63.5t96.5 24.5h1083q163 129 163 334q0 121 -50.5 184.5t-149.5 63.5q-76 0 -138 -40q58 -51 90 -123.5t32 -154.5q0 -83 -43 -136t-113 -53q-71 0 -114 53t-43 136q0 81 31.5 153.5
t86.5 123.5q-68 41 -151 41q-98 0 -171 -53q63 -50 98.5 -118.5t35.5 -146.5q0 -84 -41.5 -136.5t-111.5 -52.5q-71 0 -114 53t-43 136q0 75 27.5 143t77.5 119q-98 56 -218 56q-103 0 -180 -33t-118 -92t-41 -136q0 -55 25 -100.5t69 -73.5q-27 38 -27 85q0 45 21 81
t58.5 56t84.5 20q48 0 86.5 -20.5t60 -56.5t21.5 -82q0 -44 -21.5 -79.5t-60 -55.5t-86.5 -20q-80 0 -143.5 32t-99.5 88t-36 126q0 87 47.5 156t135.5 108t204 39q70 0 134.5 -18t117.5 -51q90 69 208 69q104 0 187 -54q79 54 175 54q119 0 183 -77t64 -215
q0 -198 -141 -332h332v606h44v-641zM1177 312q-29 66 -82 110q-50 -44 -78.5 -109.5t-28.5 -141.5q0 -65 29.5 -106t79.5 -41q49 0 79 41.5t30 105.5q0 75 -29 141zM790.5 303q-31.5 61 -88.5 105q-45 -45 -69.5 -106t-24.5 -131q0 -65 29.5 -106t79.5 -41q49 0 77 41
t28 106q0 71 -31.5 132zM252 51.5q34 -34.5 87 -34.5q52 0 86.5 34t34.5 86t-34 86t-87 34t-87 -33t-34 -85q0 -53 34 -87.5zM1255 -128h-1032q-45 0 -62 -14.5t-17 -38.5q0 -47 95 -73.5t261 -26.5q509 0 755 153z" />
    <glyph glyph-name="tm_TU" horiz-adv-x="973" 
d="M873 -128h-223q-44 -95 -142 -145.5t-235 -50.5q-101 0 -162 35.5t-61 97.5q0 44 33 71t94 27h436q22 54 22 125q0 98 -44 159t-124 61h-14v-47q0 -107 -60 -165t-157 -58q-55 0 -97.5 20t-65.5 55t-23 79q0 53 31 92t86 52v233h455l5 -35h-174v-191h13q68 0 117 -32.5
t74.5 -90.5t25.5 -132q0 -71 -19 -125h165v606h44v-641zM211 478v-191h14h184v191h-198zM409 252h-183q-61 0 -94.5 -32.5t-33.5 -84.5q0 -51 36.5 -81t101.5 -30q78 0 125.5 46.5t47.5 134.5v47zM471.5 -242q83.5 39 125.5 114h-420q-40 0 -59.5 -17t-19.5 -46
q0 -43 47 -66.5t128 -23.5q115 0 198.5 39z" />
    <glyph glyph-name="tm_NU" horiz-adv-x="964" 
d="M864 -128h-238q-44 -95 -125.5 -145.5t-195.5 -50.5q-90 0 -147.5 36t-57.5 97q0 44 33 71t94 27h365q35 91 35 218q0 82 -29 129t-87 47q-55 0 -90 -38t-35 -97v-166h-44v478h-198v-478h-44v513h482l5 -35h-201v-196q23 29 56 45t72 16q78 0 119 -60t41 -160
q0 -125 -33 -216h179v606h44v-641zM468.5 -242q68.5 39 107.5 114h-349q-40 0 -59.5 -17t-19.5 -46q0 -44 43 -67t114 -23q95 0 163.5 39z" />
    <glyph glyph-name="tm_NnnU" horiz-adv-x="1471" 
d="M1371 -128h-366q-89 -95 -240 -145.5t-365 -50.5q-149 0 -226.5 36.5t-77.5 96.5q0 44 33 71t94 27h752q114 127 114 334q0 121 -50.5 184.5t-149.5 63.5q-85 0 -155 -51q64 -50 100 -119t36 -148q0 -84 -41.5 -136.5t-111.5 -52.5q-71 0 -114 53t-43 136q0 76 27.5 144
t76.5 119q-96 55 -217 55q-103 0 -180 -33t-118 -92t-41 -136q0 -55 25 -100.5t69 -73.5q-27 38 -27 85q0 45 21 81t58.5 56t84.5 20q48 0 86.5 -20.5t60 -56.5t21.5 -82q0 -44 -21.5 -79.5t-60 -55.5t-86.5 -20q-80 0 -143.5 32t-99.5 88t-36 126q0 87 47.5 156t135.5 108
t204 39q138 0 250 -67q85 67 192 67q119 0 183 -77t64 -215q0 -200 -101 -332h292v606h44v-641zM790 304q-32 61 -89 105q-44 -44 -68.5 -106t-24.5 -132q0 -65 29.5 -106t79.5 -41q49 0 77 41t28 106q0 72 -32 133zM252 51.5q34 -34.5 87 -34.5q52 0 86.5 34t34.5 86
t-34 86t-87 34t-87 -33t-34 -85q0 -53 34 -87.5zM939 -128h-716q-40 0 -59.5 -17t-19.5 -46q0 -40 67 -65t189 -25q365 0 539 153z" />
    <glyph glyph-name="tm_MU" horiz-adv-x="1061" 
d="M906.5 492.5q45.5 -38.5 70 -106.5t24.5 -155q0 -107 -45.5 -169t-143.5 -62h-121q-2 -72 -35 -128t-96 -87t-151 -31q-102 0 -176.5 52t-113.5 141t-39 197q0 106 36.5 211.5t85.5 167.5l46 -10q-48 -54 -84 -157.5t-36 -213.5q0 -96 32.5 -174.5t96.5 -125t152 -46.5
q114 0 175 56t63 148h-272v513l44 5v-483h228v320q0 87 41.5 131.5t111.5 44.5q61 0 106.5 -38.5zM921 86.5q32 51.5 32 144.5q0 115 -39.5 186.5t-109.5 71.5q-52 0 -82.5 -31.5t-30.5 -101.5v-321h121q77 0 109 51.5z" />
    <glyph glyph-name="tm_RU" horiz-adv-x="1045" 
d="M942.5 282q42.5 -61 42.5 -159q0 -107 -52 -191t-149.5 -131t-230.5 -47q-144 0 -251 53.5t-164.5 147.5t-57.5 215q0 97 39.5 197t100.5 156l46 -10q-60 -49 -99 -146.5t-39 -198.5q0 -108 51 -192.5t147.5 -132t226.5 -47.5q119 0 206 42t133 116.5t46 170.5
q0 79 -30 127.5t-85 48.5t-90.5 -38t-35.5 -97v-166h-44v478h-234v-478h-44v513h519l4 -35h-201v-196q23 29 56 45t72 16q75 0 117.5 -61z" />
    <glyph glyph-name="tm_RrU" horiz-adv-x="1005" 
d="M905 -128h-265q-52 -94 -138.5 -145t-208.5 -51q-83 0 -138.5 32.5t-55.5 95.5q0 45 31 74t89 29h385q63 126 63 324q0 118 -37.5 188t-109.5 70q-53 0 -84 -38.5t-31 -112.5v-338h-44v320q0 75 -31.5 122t-86.5 47q-52 0 -80.5 -38t-28.5 -113v-338h-44v337
q0 93 40.5 143.5t108.5 50.5q48 0 84 -26t56 -72q20 47 57 72.5t81 25.5q97 0 147.5 -82t50.5 -218q0 -192 -58 -324h203v606h45v-641zM585 -128h-359q-39 0 -59 -19t-20 -49q0 -46 41 -65.5t105 -19.5q196 0 292 153z" />
    <glyph glyph-name="tm_LU" horiz-adv-x="1218" 
d="M1118 -128h-361q-50 -90 -161 -143t-256 -53q-116 0 -183 35.5t-67 97.5q0 44 33 71t94 27h507q16 36 21 77q-65 9 -103.5 65t-38.5 161v45q0 72 -29.5 125t-83 81t-122.5 28q-82 0 -140.5 -32t-89 -89t-30.5 -131q0 -60 24.5 -108t70.5 -76q-28 36 -28 86q0 45 21 81
t58.5 56t84.5 20q48 0 86.5 -20.5t60 -56.5t21.5 -82q0 -44 -21.5 -79.5t-60 -55.5t-86.5 -20q-84 0 -147 32.5t-97.5 90.5t-34.5 132q0 86 37 152.5t106.5 104t164.5 37.5q81 0 144.5 -34t99 -96.5t35.5 -145.5v-45q0 -96 33.5 -141t90.5 -45q60 0 94 56t34 153
q0 64 -21 144t-61 136l45 14q42 -69 63.5 -148.5t21.5 -143.5q0 -109 -41 -176.5t-115 -75.5q-3 -40 -18 -76h301v606h44v-641zM252 51.5q34 -34.5 87 -34.5q52 0 86.5 34t34.5 86t-34 86t-87 34t-87 -33t-34 -85q0 -53 34 -87.5zM558 -240q96 41 145 112h-486
q-40 0 -59.5 -17t-19.5 -46q0 -45 52.5 -67.5t149.5 -22.5q122 0 218 41z" />
    <glyph glyph-name="tm_LlU" horiz-adv-x="1567" 
d="M1464.5 282q42.5 -61 42.5 -159q0 -184 -130.5 -266.5t-361.5 -82.5h-428q-154 0 -268.5 53.5t-176.5 148t-62 214.5q0 84 40 181t100 152l46 -10q-59 -48 -98.5 -142.5t-39.5 -182.5q0 -106 56 -192.5t160 -136.5t243 -50h428q204 0 324.5 76.5t120.5 239.5
q0 79 -30 127.5t-85 48.5q-42 0 -74 -24t-45 -64v-213h-44v478h-270v-478h-44v228q0 75 -33.5 134.5t-93 93t-133.5 33.5q-82 0 -141 -32t-90 -89.5t-31 -130.5q0 -60 24.5 -108t70.5 -76q-28 36 -28 86q0 45 21 81t58.5 56t84.5 20q48 0 86.5 -20.5t60 -56.5t21.5 -82
q0 -44 -21.5 -79.5t-60 -55.5t-86.5 -20q-84 0 -147 32.5t-97.5 90.5t-34.5 132q0 86 37.5 152.5t107.5 104t165 37.5q86 0 154 -39t106 -108v129h554l5 -35h-201v-188q22 25 53.5 39t67.5 14q75 0 117.5 -61zM490 51.5q34 -34.5 87 -34.5q52 0 86.5 34t34.5 86t-34 86
t-87 34t-87 -33t-34 -85q0 -53 34 -87.5z" />
    <glyph glyph-name="tm_LllU" horiz-adv-x="1061" 
d="M691 0v-5q0 -42 14 -61.5t45 -19.5h168l4 -35h-173q-34 -58 -111 -91.5t-175 -33.5q-114 0 -201 49t-134.5 135.5t-47.5 195.5q0 63 17.5 139.5t46 144t58.5 105.5l46 -10q-29 -33 -57 -98t-45.5 -141.5t-17.5 -141.5q0 -97 41.5 -173.5t117.5 -119.5t176 -43
q82 0 145.5 24t97.5 67q-36 15 -47 41.5t-12 71.5h-272v513l44 5v-483h228v320q0 87 41.5 131.5t111.5 44.5q61 0 106.5 -38.5t70 -106.5t24.5 -155q0 -107 -45.5 -169t-143.5 -62h-121zM691 35h121q77 0 109 51.5t32 144.5q0 115 -39.5 186.5t-109.5 71.5
q-52 0 -82.5 -31.5t-30.5 -101.5v-321z" />
    <glyph glyph-name="tm_KUu" horiz-adv-x="1050" 
d="M1040 35v-35h-238q16 33 25.5 73t9.5 72q0 57 -30 91.5t-79 34.5q-33 0 -62 -12q41 -24 63.5 -65.5t22.5 -89.5q0 -51 -30 -86.5t-77 -35.5q-51 0 -82 35t-31 87q0 88 52 146q-16 2 -25 2h-106v-47q0 -107 -60 -165t-157 -58q-55 0 -97.5 20t-65.5 55t-23 79q0 53 31 92
t86 52v233h455l5 -35h-174v-191h105q27 0 59 -7q49 33 111 33q45 0 80.5 -21.5t55.5 -60t20 -86.5q0 -58 -20 -110h176zM211 478v-191h14h184v191h-198zM409 252h-183q-61 0 -94.5 -32.5t-33.5 -84.5q0 -51 36.5 -81t101.5 -30q78 0 125.5 46.5t47.5 134.5v47zM684.5 183.5
q-19.5 34.5 -54.5 51.5q-25 -22 -39 -55.5t-14 -75.5q0 -34 19 -57t49 -23q25 0 42 23t17 57q0 45 -19.5 79.5z" />
    <glyph glyph-name="tm_NgUu" horiz-adv-x="1141" 
d="M1089.5 21.5q41.5 -47.5 41.5 -121.5q0 -123 -97.5 -182.5t-259.5 -59.5h-500q-97 0 -155.5 29t-58.5 85q0 46 34 76t86 30h520v-35h-520q-33 0 -52.5 -20t-19.5 -51q0 -40 44 -59t122 -19h500q143 0 226 50.5t83 157.5q0 55 -29.5 90t-80.5 35q-55 0 -90 -38t-35 -97
v-83h-44v191h-462v35h118q46 0 83 21t57.5 58t20.5 83q0 55 -29.5 90t-80.5 35q-55 0 -90 -38t-35 -97v-45h-44v336h-198v-478h-44v513h482l5 -35h-201v-174q23 29 56 45t72 16q72 0 113.5 -48t41.5 -122q0 -55 -22 -95.5t-62 -64.5h219v478h44v-504q22 28 55 44t73 16
q72 0 113.5 -47.5z" />
    <glyph glyph-name="tm_CUu" horiz-adv-x="1217" 
d="M1118.5 138.5q38.5 -47.5 38.5 -121.5q0 -78 -58.5 -137t-174 -92.5t-280.5 -33.5q-179 0 -306 53t-192.5 147t-65.5 216q0 97 39.5 197t100.5 156l46 -10q-60 -49 -99 -146.5t-39 -198.5q0 -109 59 -193t175.5 -131.5t281.5 -47.5q151 0 256 28.5t157.5 78.5t52.5 116
q0 55 -26 90t-67 35q-44 0 -73.5 -33t-29.5 -84v-27h-44v252h-144v-47q0 -107 -60 -165t-157 -58q-55 0 -97.5 20t-65.5 55t-23 79q0 53 31 92t86 52v233h455l5 -35h-174v-191h313l5 -35h-130v-122q18 27 45.5 41.5t60.5 14.5q60 0 98.5 -47.5zM484 478v-191h14h184v191
h-198zM682 252h-183q-61 0 -94.5 -32.5t-33.5 -84.5q0 -51 36.5 -81t101.5 -30q78 0 125.5 46.5t47.5 134.5v47z" />
    <glyph glyph-name="tm_TtUu" horiz-adv-x="808" 
d="M579.5 566.5q27.5 25.5 70.5 25.5q24 0 46 -10q-24 74 -88.5 118.5t-150.5 44.5q-106 0 -180.5 -65.5t-111.5 -175t-37 -239.5q0 -227 69 -348t201 -121q83 0 142 39.5t89 110.5t30 163q0 85 -28 138.5t-87 53.5q-55 0 -90.5 -38t-35.5 -97v-166h-44v513h44v-230
q23 28 56 44t72 16q79 0 119.5 -66.5t40.5 -169.5t-36 -183t-105.5 -125t-166.5 -45q-153 0 -235.5 133.5t-82.5 379.5q0 140 43.5 259t128.5 190.5t205 71.5q82 0 148.5 -36t104.5 -99t38 -141q0 -47 -24.5 -75.5t-71.5 -28.5q-43 0 -71.5 26.5t-28.5 66.5t27.5 65.5z
M693 539.5q-16 15.5 -41 15.5q-23 0 -38.5 -15.5t-15.5 -39.5t15.5 -39.5t38.5 -15.5q25 0 41 15.5t16 39.5t-16 39.5z" />
    <glyph glyph-name="tm_PUu" horiz-adv-x="898" 
d="M847 21.5q41 -47.5 41 -121.5q0 -123 -97 -182.5t-259 -59.5h-258q-97 0 -155.5 29t-58.5 85q0 46 34 76t86 30h278v-35h-278q-33 0 -52.5 -20t-19.5 -51q0 -40 44 -59t122 -19h258q143 0 226 50.5t83 157.5q0 55 -29.5 90t-80.5 35q-55 0 -90 -38t-35 -97v-83h-44v191
h-462v513l44 5v-483h418v478h44v-504q22 28 55 44t73 16q72 0 113 -47.5z" />
    <glyph glyph-name="tm_MUu" horiz-adv-x="1212" 
d="M1057.5 492.5q45.5 -38.5 70 -106.5t24.5 -155q0 -107 -45.5 -169t-143.5 -62h-121q-3 -71 -46 -127t-120 -87.5t-178 -31.5q-124 0 -219 50.5t-147 140.5t-52 204q0 109 34 196t93.5 136.5t134.5 49.5q49 0 81 -31.5t32 -80.5q0 -47 -32 -77.5t-81 -30.5q-48 0 -79 30
t-31 77q0 15 5 32q-51 -42 -80 -121t-29 -180q0 -102 46 -182.5t129.5 -125.5t194.5 -45q87 0 153.5 26t104.5 72.5t42 105.5h-272v513l45 5v-483h227v320q0 87 41.5 131.5t111.5 44.5q61 0 106.5 -38.5zM391 469.5q-19 19.5 -49 19.5t-49 -19.5t-19 -50.5q0 -29 19 -48.5
t49 -19.5t49 19.5t19 48.5q0 31 -19 50.5zM1072.5 86.5q31.5 51.5 31.5 144.5q0 115 -39.5 186.5t-109.5 71.5q-52 0 -82.5 -31.5t-30.5 -101.5v-321h121q78 0 109.5 51.5z" />
    <glyph glyph-name="tm_YUu" horiz-adv-x="1078" 
d="M1027 21.5q41 -47.5 41 -121.5q0 -123 -97 -182.5t-259 -59.5h-438q-97 0 -155.5 29t-58.5 85q0 46 34 76t86 30h458v-35h-458q-33 0 -52.5 -20t-19.5 -51q0 -40 44 -59t122 -19h438q143 0 226 50.5t83 157.5q0 55 -29.5 90t-80.5 35q-55 0 -90 -38t-35 -97v-83h-44v191
h-363v52q-21 -34 -53.5 -52t-73.5 -18q-75 0 -118.5 47.5t-43.5 146.5v337l44 5v-343q0 -151 118 -151q61 0 94 46.5t33 122.5v320h44v-478h319v478h44v-504q22 28 55 44t73 16q72 0 113 -47.5z" />
    <glyph glyph-name="tm_RUu" horiz-adv-x="1197" 
d="M1094 282q43 -61 43 -159q0 -108 -59 -191.5t-172.5 -130.5t-271.5 -47q-172 0 -297 51.5t-191 145t-66 218.5q0 100 34 182.5t94 131t134 48.5q49 0 81 -31.5t32 -80.5q0 -47 -32 -77.5t-81 -30.5q-48 0 -79 30t-31 77q0 16 5 33q-51 -41 -80 -115.5t-29 -166.5
q0 -113 59.5 -197t173.5 -130t273 -46q144 0 246.5 42t155.5 116.5t53 170.5q0 79 -30 127.5t-85 48.5t-90 -38t-35 -97v-166h-44v478h-234v-478h-45v513h519l4 -35h-200v-195q22 28 55 44t72 16q75 0 118 -61zM391 469.5q-19 19.5 -49 19.5t-49 -19.5t-19 -50.5
q0 -29 19 -48.5t49 -19.5t49 19.5t19 48.5q0 31 -19 50.5z" />
    <glyph glyph-name="tm_LlUu" horiz-adv-x="1756" 
d="M1653.5 282q42.5 -61 42.5 -159q0 -184 -130.5 -266.5t-361.5 -82.5h-622q-148 0 -262 51t-177 140.5t-63 203.5q0 100 34 182.5t94 131t134 48.5q49 0 81 -31.5t32 -80.5q0 -47 -32 -77.5t-81 -30.5q-48 0 -79 30t-31 77q0 16 5 33q-51 -41 -80 -115.5t-29 -166.5
q0 -104 57 -186t160 -128t237 -46h622q204 0 324.5 76.5t120.5 239.5q0 79 -30 127.5t-85 48.5q-42 0 -74 -24t-45 -64v-213h-44v478h-270v-478h-44v228q0 75 -33.5 134.5t-93 93t-133.5 33.5q-82 0 -141 -32t-90 -89.5t-31 -130.5q0 -60 24.5 -108t70.5 -76q-28 36 -28 86
q0 45 21 81t58.5 56t84.5 20q48 0 86.5 -20.5t60 -56.5t21.5 -82q0 -44 -21.5 -79.5t-60 -55.5t-86.5 -20q-84 0 -147 32.5t-97.5 90.5t-34.5 132q0 86 37.5 152.5t107.5 104t165 37.5q86 0 154 -39t106 -108v129h554l5 -35h-201v-188q22 25 53.5 39t67.5 14q75 0 117.5 -61
zM391 469.5q-19 19.5 -49 19.5t-49 -19.5t-19 -50.5q0 -29 19 -48.5t49 -19.5t49 19.5t19 48.5q0 31 -19 50.5zM679 51.5q34 -34.5 87 -34.5q52 0 86.5 34t34.5 86t-34 86t-87 34t-87 -33t-34 -85q0 -53 34 -87.5z" />
    <glyph glyph-name="tm_LllUu" horiz-adv-x="1212" 
d="M842 0v-25q0 -42 14 -61.5t45 -19.5h168l5 -35h-159q-52 -46 -147 -75.5t-197 -29.5q-146 0 -257 52.5t-172.5 148.5t-61.5 224q0 95 34 175.5t94 128.5t134 48q49 0 81 -31.5t32 -80.5q0 -47 -32 -77.5t-81 -30.5q-48 0 -79 30t-31 77q0 16 5 33q-50 -40 -79.5 -112.5
t-29.5 -159.5q0 -116 55.5 -202.5t155.5 -133.5t232 -47q82 0 159 19.5t127 51.5q-36 16 -47.5 44.5t-11.5 75.5v13h-272v513l45 5v-483h227v320q0 87 41.5 131.5t111.5 44.5q61 0 106.5 -38.5t70 -106.5t24.5 -155q0 -107 -45.5 -169t-143.5 -62h-121zM391 469.5
q-19 19.5 -49 19.5t-49 -19.5t-19 -50.5q0 -29 19 -48.5t49 -19.5t49 19.5t19 48.5q0 31 -19 50.5zM842 35h121q78 0 109.5 51.5t31.5 144.5q0 115 -39.5 186.5t-109.5 71.5q-52 0 -82.5 -31.5t-30.5 -101.5v-321z" />
    <glyph glyph-name="tm_VUu" horiz-adv-x="1219" 
d="M1168 21.5q41 -47.5 41 -121.5q0 -123 -97 -182.5t-259 -59.5h-579q-97 0 -155.5 29t-58.5 85q0 46 34 76t86 30h599v-35h-599q-33 0 -52.5 -20t-19.5 -51q0 -40 44 -59t122 -19h579q143 0 226 50.5t83 157.5q0 55 -29.5 90t-80.5 35q-55 0 -90 -38t-35 -97v-83h-44v191
h-332v35q40 41 64 97.5t24 122.5q0 68 -30.5 121t-89.5 83t-140 30q-82 0 -143.5 -32.5t-94.5 -89.5t-33 -130q0 -60 24.5 -108t70.5 -76q-28 36 -28 86q0 45 21 81t58.5 56t84.5 20q48 0 86.5 -20.5t60 -56.5t21.5 -82q0 -44 -21.5 -79.5t-60 -55.5t-86.5 -20
q-84 0 -147 32.5t-97.5 90.5t-34.5 132q0 85 39.5 152t112 104.5t167.5 37.5q92 0 161.5 -35.5t107.5 -98t38 -142.5q0 -63 -20 -120.5t-54 -99.5h271v478h44v-504q22 28 55 44t73 16q72 0 113 -47.5zM252 51.5q34 -34.5 87 -34.5q52 0 86.5 34t34.5 86t-34 86t-87 34
t-87 -33t-34 -85q0 -53 34 -87.5z" />
    <glyph glyph-name="tm_KSsa" horiz-adv-x="1480" 
d="M1385 0h-206v-243h-44v243h-333q16 33 25.5 73t9.5 72q0 57 -30 91.5t-79 34.5q-33 0 -62 -12q41 -24 63.5 -65.5t22.5 -89.5q0 -51 -30 -86.5t-77 -35.5q-51 0 -82 35t-31 87q0 88 52 146q-16 2 -25 2h-106v-47q0 -107 -60 -165t-157 -58q-55 0 -97.5 20t-65.5 55
t-23 79q0 53 31 92t86 52v233h455l5 -35h-174v-191h105q27 0 59 -7q49 33 111 33q45 0 80.5 -21.5t55.5 -60t20 -86.5q0 -58 -19 -110h270v182q-33 -9 -66 -9q-60 0 -105.5 23t-69.5 62t-25 86q0 67 43 109.5t115 42.5q71 0 111.5 -45t40.5 -117v-86q50 29 92.5 80t69.5 115
h44v-478zM1135 262v102q0 57 -27.5 91t-80.5 34q-51 0 -80.5 -30.5t-29.5 -79.5q0 -55 41 -92t111 -37q33 0 66 12zM211 478v-191h14h184v191h-198zM1341 35v352q-30 -51 -72 -90.5t-90 -62.5v-199h162zM409 252h-183q-61 0 -94.5 -32.5t-33.5 -84.5q0 -51 36.5 -81
t101.5 -30q78 0 125.5 46.5t47.5 134.5v47zM684.5 183.5q-19.5 34.5 -54.5 51.5q-25 -22 -39 -55.5t-14 -75.5q0 -34 19 -57t49 -23q25 0 42 23t17 57q0 45 -19.5 79.5z" />
    <glyph glyph-name="tm_TtI" horiz-adv-x="813" 
d="M654 0v-243h-44v243h-510v513l44 5v-483h267q-53 34 -81.5 98t-29.5 147q0 73 22 130t64 89t99 32q82 0 125.5 -60t43.5 -158v-278h144l5 -35h-149zM610 35v278q0 81 -31 128.5t-94 47.5q-65 0 -101 -58t-36 -151q0 -71 22.5 -126.5t65 -87t100.5 -31.5h74z" />
    <glyph glyph-name="tm_TtIi" horiz-adv-x="768" 
d="M758 0h-658v513l44 5v-483h213q-35 26 -54.5 67.5t-19.5 91.5q0 59 26.5 106t73.5 73.5t106 26.5q57 0 103.5 -26t73 -68.5t26.5 -91.5q0 -45 -27 -74.5t-68 -29.5q-43 0 -72 26.5t-29 66.5t27.5 65.5t70.5 25.5q20 0 36 -6q-21 33 -57 51t-84 18q-45 0 -81.5 -21
t-57 -58t-20.5 -84q0 -69 38 -114t97 -45h288zM637 162.5q16 15.5 16 39.5q0 23 -16 39t-40 16t-40 -15.5t-16 -39.5t15.5 -39.5t40.5 -15.5q24 0 40 15.5z" />
    <glyph glyph-name="tm_Shree" horiz-adv-x="1721" 
d="M1618.5 282q42.5 -61 42.5 -159q0 -184 -130.5 -266.5t-361.5 -82.5h-592q-149 0 -261.5 53.5t-174 148t-61.5 214.5q0 84 40 181t100 152l46 -10q-59 -48 -98.5 -142.5t-39.5 -182.5q0 -107 55.5 -193.5t157 -136t236.5 -49.5h592q204 0 324.5 76.5t120.5 239.5
q0 79 -30.5 127.5t-85.5 48.5q-54 0 -89.5 -38.5t-35.5 -96.5v-166h-44v478h-234v-478h-44v320q0 76 -33 122.5t-94 46.5q-118 0 -118 -151v-338h-451v513l44 5v-483h363v302q0 99 44 146.5t118 47.5q41 0 73.5 -18t53.5 -52v52h239q-35 26 -54.5 67.5t-19.5 91.5
q0 59 26.5 106t73.5 73.5t106 26.5q57 0 103.5 -26t73 -68.5t26.5 -91.5q0 -45 -27 -74.5t-68 -29.5q-43 0 -72 26.5t-29 66.5t27.5 65.5t70.5 25.5q20 0 36 -6q-21 33 -57 51t-84 18q-69 0 -113.5 -46t-44.5 -117q0 -69 38 -114t96 -45h172l4 -35h-201v-196q22 29 55.5 45
t72.5 16q75 0 117.5 -61zM1570 640.5q16 15.5 16 39.5q0 23 -16 38.5t-40 15.5t-40 -15.5t-16 -38.5q0 -24 16 -39.5t40 -15.5t40 15.5z" />
  </font>
</defs>
</svg>
